<?xml version="1.0" encoding="UTF-8" standalone="no"?>
<!DOCTYPE svg PUBLIC "-//W3C//DTD SVG 1.1//EN"
 "http://www.w3.org/Graphics/SVG/1.1/DTD/svg11.dtd">
<!-- Generated by graphviz version 2.26.3 (20100126.1600)
 -->
<!-- Title: fwGdcmIO::container::sr::DicomSRNode::write Pages: 1 -->
<svg width="324pt" height="518pt"
 viewBox="0.00 0.00 324.00 518.00" xmlns="http://www.w3.org/2000/svg" xmlns:xlink="http://www.w3.org/1999/xlink">
<g id="graph1" class="graph" transform="scale(1 1) rotate(0) translate(4 514)">
<title>fwGdcmIO::container::sr::DicomSRNode::write</title>
<polygon fill="white" stroke="white" points="-4,5 -4,-514 321,-514 321,5 -4,5"/>
<!-- Node1 -->
<g id="node1" class="node"><title>Node1</title>
<polygon fill="#bfbfbf" stroke="black" points="0,-238 0,-272 130,-272 130,-238 0,-238"/>
<text text-anchor="start" x="8" y="-259" font-family="Helvetica,sans-Serif" font-size="10.00">fwGdcmIO::container</text>
<text text-anchor="middle" x="65" y="-246" font-family="Helvetica,sans-Serif" font-size="10.00">::sr::DicomSRNode::write</text>
</g>
<!-- Node2 -->
<g id="node3" class="node"><title>Node2</title>
<a xlink:href="classfwGdcmIO_1_1container_1_1sr_1_1DicomSRCodeNode.html#a0f15869bfe1b6a52fd008b855fdb8c27" target="_top" xlink:title="Write the SR node in the dataset. ">
<polygon fill="white" stroke="black" points="178,-462.5 178,-509.5 304,-509.5 304,-462.5 178,-462.5"/>
<text text-anchor="start" x="186" y="-496.5" font-family="Helvetica,sans-Serif" font-size="10.00">fwGdcmIO::container</text>
<text text-anchor="start" x="186" y="-483.5" font-family="Helvetica,sans-Serif" font-size="10.00">::sr::DicomSRCodeNode</text>
<text text-anchor="middle" x="241" y="-470.5" font-family="Helvetica,sans-Serif" font-size="10.00">::write</text>
</a>
</g>
<!-- Node1&#45;&gt;Node2 -->
<g id="edge2" class="edge"><title>Node1&#45;&gt;Node2</title>
<path fill="none" stroke="midnightblue" d="M72.3361,-281.98C84.9619,-323.771 114.531,-404.394 166,-453 169.62,-456.419 173.652,-459.519 177.916,-462.325"/>
<polygon fill="midnightblue" stroke="midnightblue" points="75.6528,-280.852 69.4882,-272.235 68.9339,-282.815 75.6528,-280.852"/>
</g>
<!-- Node3 -->
<g id="node5" class="node"><title>Node3</title>
<a xlink:href="classfwGdcmIO_1_1container_1_1sr_1_1DicomSRContainerNode.html#a390b772987554b05cb09233b9dbb020e" target="_top" xlink:title="Write the SR node in the dataset. ">
<polygon fill="white" stroke="black" points="168.5,-396.5 168.5,-443.5 313.5,-443.5 313.5,-396.5 168.5,-396.5"/>
<text text-anchor="start" x="176.5" y="-430.5" font-family="Helvetica,sans-Serif" font-size="10.00">fwGdcmIO::container</text>
<text text-anchor="start" x="176.5" y="-417.5" font-family="Helvetica,sans-Serif" font-size="10.00">::sr::DicomSRContainerNode</text>
<text text-anchor="middle" x="241" y="-404.5" font-family="Helvetica,sans-Serif" font-size="10.00">::write</text>
</a>
</g>
<!-- Node1&#45;&gt;Node3 -->
<g id="edge4" class="edge"><title>Node1&#45;&gt;Node3</title>
<path fill="none" stroke="midnightblue" d="M79.4167,-281.007C96.7001,-310.161 128.127,-357.235 166,-387 170.362,-390.428 175.136,-393.578 180.094,-396.454"/>
<polygon fill="midnightblue" stroke="midnightblue" points="82.3603,-279.107 74.312,-272.216 76.3069,-282.622 82.3603,-279.107"/>
</g>
<!-- Node4 -->
<g id="node7" class="node"><title>Node4</title>
<a xlink:href="classfwGdcmIO_1_1container_1_1sr_1_1DicomSRUIDRefNode.html#a20c728d0bc5a240f57d31dc7ac9ac83c" target="_top" xlink:title="Write the SR node in the dataset. ">
<polygon fill="white" stroke="black" points="172.5,-330.5 172.5,-377.5 309.5,-377.5 309.5,-330.5 172.5,-330.5"/>
<text text-anchor="start" x="180.5" y="-364.5" font-family="Helvetica,sans-Serif" font-size="10.00">fwGdcmIO::container</text>
<text text-anchor="start" x="180.5" y="-351.5" font-family="Helvetica,sans-Serif" font-size="10.00">::sr::DicomSRUIDRefNode</text>
<text text-anchor="middle" x="241" y="-338.5" font-family="Helvetica,sans-Serif" font-size="10.00">::write</text>
</a>
</g>
<!-- Node1&#45;&gt;Node4 -->
<g id="edge6" class="edge"><title>Node1&#45;&gt;Node4</title>
<path fill="none" stroke="midnightblue" d="M97.273,-278.042C116.7,-291.412 142.205,-308.104 166,-321 172.003,-324.254 178.392,-327.447 184.811,-330.489"/>
<polygon fill="midnightblue" stroke="midnightblue" points="99.0126,-274.988 88.8029,-272.158 95.0189,-280.737 99.0126,-274.988"/>
</g>
<!-- Node5 -->
<g id="node9" class="node"><title>Node5</title>
<a xlink:href="classfwGdcmIO_1_1container_1_1sr_1_1DicomSRTextNode.html#a21a308a8dfc0d87a9043a02ae13e3176" target="_top" xlink:title="Write the SR node in the dataset. ">
<polygon fill="white" stroke="black" points="180,-264.5 180,-311.5 302,-311.5 302,-264.5 180,-264.5"/>
<text text-anchor="start" x="188" y="-298.5" font-family="Helvetica,sans-Serif" font-size="10.00">fwGdcmIO::container</text>
<text text-anchor="start" x="188" y="-285.5" font-family="Helvetica,sans-Serif" font-size="10.00">::sr::DicomSRTextNode</text>
<text text-anchor="middle" x="241" y="-272.5" font-family="Helvetica,sans-Serif" font-size="10.00">::write</text>
</a>
</g>
<!-- Node1&#45;&gt;Node5 -->
<g id="edge8" class="edge"><title>Node1&#45;&gt;Node5</title>
<path fill="none" stroke="midnightblue" d="M140.06,-269.074C153.297,-271.556 166.933,-274.112 179.735,-276.513"/>
<polygon fill="midnightblue" stroke="midnightblue" points="140.51,-265.597 130.036,-267.194 139.22,-272.477 140.51,-265.597"/>
</g>
<!-- Node6 -->
<g id="node11" class="node"><title>Node6</title>
<a xlink:href="classfwGdcmIO_1_1container_1_1sr_1_1DicomSRNumNode.html#a9b8b27ebf4db380c5a0a5b503c9abc9d" target="_top" xlink:title="Write the SR node in the dataset. ">
<polygon fill="white" stroke="black" points="179,-198.5 179,-245.5 303,-245.5 303,-198.5 179,-198.5"/>
<text text-anchor="start" x="187" y="-232.5" font-family="Helvetica,sans-Serif" font-size="10.00">fwGdcmIO::container</text>
<text text-anchor="start" x="187" y="-219.5" font-family="Helvetica,sans-Serif" font-size="10.00">::sr::DicomSRNumNode</text>
<text text-anchor="middle" x="241" y="-206.5" font-family="Helvetica,sans-Serif" font-size="10.00">::write</text>
</a>
</g>
<!-- Node1&#45;&gt;Node6 -->
<g id="edge10" class="edge"><title>Node1&#45;&gt;Node6</title>
<path fill="none" stroke="midnightblue" d="M139.877,-240.961C152.871,-238.524 166.256,-236.015 178.863,-233.651"/>
<polygon fill="midnightblue" stroke="midnightblue" points="139.22,-237.523 130.036,-242.806 140.51,-244.403 139.22,-237.523"/>
</g>
<!-- Node7 -->
<g id="node13" class="node"><title>Node7</title>
<a xlink:href="classfwGdcmIO_1_1container_1_1sr_1_1DicomSRImageNode.html#a62a17c1df8699d0356a385bc78307b7f" target="_top" xlink:title="Write the SR node in the dataset. ">
<polygon fill="white" stroke="black" points="176,-132.5 176,-179.5 306,-179.5 306,-132.5 176,-132.5"/>
<text text-anchor="start" x="184" y="-166.5" font-family="Helvetica,sans-Serif" font-size="10.00">fwGdcmIO::container</text>
<text text-anchor="start" x="184" y="-153.5" font-family="Helvetica,sans-Serif" font-size="10.00">::sr::DicomSRImageNode</text>
<text text-anchor="middle" x="241" y="-140.5" font-family="Helvetica,sans-Serif" font-size="10.00">::write</text>
</a>
</g>
<!-- Node1&#45;&gt;Node7 -->
<g id="edge12" class="edge"><title>Node1&#45;&gt;Node7</title>
<path fill="none" stroke="midnightblue" d="M97.273,-231.958C116.7,-218.588 142.205,-201.896 166,-189 172.003,-185.746 178.392,-182.553 184.811,-179.511"/>
<polygon fill="midnightblue" stroke="midnightblue" points="95.0189,-229.263 88.8029,-237.842 99.0126,-235.012 95.0189,-229.263"/>
</g>
<!-- Node8 -->
<g id="node15" class="node"><title>Node8</title>
<a xlink:href="classfwGdcmIO_1_1container_1_1sr_1_1DicomSRSCoordNode.html#a840f5b842ea56b6e2c9dd0dfce7aaa90" target="_top" xlink:title="Write the SR node in the dataset. ">
<polygon fill="white" stroke="black" points="173,-66.5 173,-113.5 309,-113.5 309,-66.5 173,-66.5"/>
<text text-anchor="start" x="181" y="-100.5" font-family="Helvetica,sans-Serif" font-size="10.00">fwGdcmIO::container</text>
<text text-anchor="start" x="181" y="-87.5" font-family="Helvetica,sans-Serif" font-size="10.00">::sr::DicomSRSCoordNode</text>
<text text-anchor="middle" x="241" y="-74.5" font-family="Helvetica,sans-Serif" font-size="10.00">::write</text>
</a>
</g>
<!-- Node1&#45;&gt;Node8 -->
<g id="edge14" class="edge"><title>Node1&#45;&gt;Node8</title>
<path fill="none" stroke="midnightblue" d="M79.4167,-228.993C96.7001,-199.839 128.127,-152.765 166,-123 170.362,-119.572 175.136,-116.422 180.094,-113.546"/>
<polygon fill="midnightblue" stroke="midnightblue" points="76.3069,-227.378 74.312,-237.784 82.3603,-230.893 76.3069,-227.378"/>
</g>
<!-- Node9 -->
<g id="node17" class="node"><title>Node9</title>
<a xlink:href="classfwGdcmIO_1_1container_1_1sr_1_1DicomSRSCoord3DNode.html#a6c0ef7e97e69c66e6c0465af5883c1da" target="_top" xlink:title="Write the SR node in the dataset. ">
<polygon fill="white" stroke="black" points="166.5,-0.5 166.5,-47.5 315.5,-47.5 315.5,-0.5 166.5,-0.5"/>
<text text-anchor="start" x="174.5" y="-34.5" font-family="Helvetica,sans-Serif" font-size="10.00">fwGdcmIO::container</text>
<text text-anchor="start" x="174.5" y="-21.5" font-family="Helvetica,sans-Serif" font-size="10.00">::sr::DicomSRSCoord3DNode</text>
<text text-anchor="middle" x="241" y="-8.5" font-family="Helvetica,sans-Serif" font-size="10.00">::write</text>
</a>
</g>
<!-- Node1&#45;&gt;Node9 -->
<g id="edge16" class="edge"><title>Node1&#45;&gt;Node9</title>
<path fill="none" stroke="midnightblue" d="M72.3361,-228.02C84.9619,-186.229 114.531,-105.606 166,-57 169.62,-53.5815 173.652,-50.4808 177.916,-47.6751"/>
<polygon fill="midnightblue" stroke="midnightblue" points="68.9339,-227.185 69.4882,-237.765 75.6528,-229.148 68.9339,-227.185"/>
</g>
</g>
</svg>
