<?xml version="1.0" encoding="UTF-8" standalone="no"?>
<!DOCTYPE svg PUBLIC "-//W3C//DTD SVG 1.1//EN"
 "http://www.w3.org/Graphics/SVG/1.1/DTD/svg11.dtd">
<!-- Generated by graphviz version 2.26.3 (20100126.1600)
 -->
<!-- Title: fwGui::container::fwMenuItem Pages: 1 -->
<svg width="156pt" height="290pt"
 viewBox="0.00 0.00 156.00 290.00" xmlns="http://www.w3.org/2000/svg" xmlns:xlink="http://www.w3.org/1999/xlink">
<g id="graph1" class="graph" transform="scale(1 1) rotate(0) translate(4 286)">
<title>fwGui::container::fwMenuItem</title>
<polygon fill="white" stroke="white" points="-4,5 -4,-286 153,-286 153,5 -4,5"/>
<!-- Node1 -->
<g id="node1" class="node"><title>Node1</title>
<polygon fill="#bfbfbf" stroke="black" points="0,-72.5 0,-93.5 148,-93.5 148,-72.5 0,-72.5"/>
<text text-anchor="middle" x="74" y="-80.5" font-family="Helvetica,sans-Serif" font-size="10.00">fwGui::container::fwMenuItem</text>
</g>
<!-- Node5 -->
<g id="node9" class="node"><title>Node5</title>
<a xlink:href="classfwGuiQt_1_1container_1_1QtMenuItemContainer.html" target="_top" xlink:title="Defines the Qt menuItem bar container for IHM. ">
<polygon fill="white" stroke="black" points="14.5,-1 14.5,-35 133.5,-35 133.5,-1 14.5,-1"/>
<text text-anchor="start" x="22.5" y="-22" font-family="Helvetica,sans-Serif" font-size="10.00">fwGuiQt::container</text>
<text text-anchor="middle" x="74" y="-9" font-family="Helvetica,sans-Serif" font-size="10.00">::QtMenuItemContainer</text>
</a>
</g>
<!-- Node1&#45;&gt;Node5 -->
<g id="edge8" class="edge"><title>Node1&#45;&gt;Node5</title>
<path fill="none" stroke="midnightblue" d="M74,-62.1306C74,-53.4049 74,-43.3908 74,-35.1099"/>
<polygon fill="midnightblue" stroke="midnightblue" points="70.5001,-62.2665 74,-72.2666 77.5001,-62.2666 70.5001,-62.2665"/>
</g>
<!-- Node2 -->
<g id="node2" class="node"><title>Node2</title>
<a xlink:href="classfwGui_1_1GuiBaseObject.html" target="_top" xlink:title="Base class for all fwGui&#39;s classes. ">
<polygon fill="white" stroke="black" points="17,-130.5 17,-151.5 131,-151.5 131,-130.5 17,-130.5"/>
<text text-anchor="middle" x="74" y="-138.5" font-family="Helvetica,sans-Serif" font-size="10.00">fwGui::GuiBaseObject</text>
</a>
</g>
<!-- Node2&#45;&gt;Node1 -->
<g id="edge2" class="edge"><title>Node2&#45;&gt;Node1</title>
<path fill="none" stroke="midnightblue" d="M74,-120.191C74,-111.168 74,-100.994 74,-93.5707"/>
<polygon fill="midnightblue" stroke="midnightblue" points="70.5001,-120.362 74,-130.362 77.5001,-120.362 70.5001,-120.362"/>
</g>
<!-- Node3 -->
<g id="node4" class="node"><title>Node3</title>
<a xlink:href="classfwCore_1_1BaseObject.html" target="_top" xlink:title="Base class for all FW4SPL&#39;s classes. ">
<polygon fill="white" stroke="black" points="21.5,-188.5 21.5,-209.5 126.5,-209.5 126.5,-188.5 21.5,-188.5"/>
<text text-anchor="middle" x="74" y="-196.5" font-family="Helvetica,sans-Serif" font-size="10.00">fwCore::BaseObject</text>
</a>
</g>
<!-- Node3&#45;&gt;Node2 -->
<g id="edge4" class="edge"><title>Node3&#45;&gt;Node2</title>
<path fill="none" stroke="midnightblue" d="M74,-178.191C74,-169.168 74,-158.994 74,-151.571"/>
<polygon fill="midnightblue" stroke="midnightblue" points="70.5001,-178.362 74,-188.362 77.5001,-178.362 70.5001,-178.362"/>
</g>
<!-- Node4 -->
<g id="node6" class="node"><title>Node4</title>
<polygon fill="white" stroke="#bfbfbf" points="8.5,-247 8.5,-281 139.5,-281 139.5,-247 8.5,-247"/>
<text text-anchor="start" x="16.5" y="-268" font-family="Helvetica,sans-Serif" font-size="10.00">std::enable_shared</text>
<text text-anchor="middle" x="74" y="-255" font-family="Helvetica,sans-Serif" font-size="10.00">_from_this&lt; BaseObject &gt;</text>
</g>
<!-- Node4&#45;&gt;Node3 -->
<g id="edge6" class="edge"><title>Node4&#45;&gt;Node3</title>
<path fill="none" stroke="midnightblue" d="M74,-236.688C74,-227.242 74,-217.195 74,-209.852"/>
<polygon fill="midnightblue" stroke="midnightblue" points="70.5001,-236.922 74,-246.922 77.5001,-236.922 70.5001,-236.922"/>
</g>
</g>
</svg>
