<?xml version="1.0" encoding="UTF-8" standalone="no"?>
<!DOCTYPE svg PUBLIC "-//W3C//DTD SVG 1.1//EN"
 "http://www.w3.org/Graphics/SVG/1.1/DTD/svg11.dtd">
<!-- Generated by graphviz version 2.36.0 (20140111.2315)
 -->
<!-- Title: fwData::Object::fieldDeepCopy Pages: 1 -->
<svg width="560pt" height="1996pt"
 viewBox="0.00 0.00 560.00 1996.00" xmlns="http://www.w3.org/2000/svg" xmlns:xlink="http://www.w3.org/1999/xlink">
<g id="graph0" class="graph" transform="scale(1 1) rotate(0) translate(4 1992)">
<title>fwData::Object::fieldDeepCopy</title>
<polygon fill="white" stroke="none" points="-4,4 -4,-1992 556,-1992 556,4 -4,4"/>
<!-- Node1 -->
<g id="node1" class="node"><title>Node1</title>
<polygon fill="#bfbfbf" stroke="black" points="0.5,-964.5 0.5,-983.5 153.5,-983.5 153.5,-964.5 0.5,-964.5"/>
<text text-anchor="middle" x="77" y="-971.5" font-family="Helvetica,sans-Serif" font-size="10.00">fwData::Object::fieldDeepCopy</text>
</g>
<!-- Node2 -->
<g id="node2" class="node"><title>Node2</title>
<g id="a_node2"><a xlink:href="classfwData_1_1location_1_1MultiFiles.html#aa8122aafe92cd70fca46d382139745e0" target="_top" xlink:title="Defines deep copy. ">
<polygon fill="white" stroke="black" points="209,-1958 209,-1988 345,-1988 345,-1958 209,-1958"/>
<text text-anchor="start" x="217" y="-1976" font-family="Helvetica,sans-Serif" font-size="10.00">fwData::location::MultiFiles</text>
<text text-anchor="middle" x="277" y="-1965" font-family="Helvetica,sans-Serif" font-size="10.00">::cachedDeepCopy</text>
</a>
</g>
</g>
<!-- Node1&#45;&gt;Node2 -->
<g id="edge1" class="edge"><title>Node1&#45;&gt;Node2</title>
<path fill="none" stroke="midnightblue" d="M78.9826,-993.978C85.6544,-1126.19 125.979,-1872.17 190,-1948 195.116,-1954.06 201.606,-1958.7 208.721,-1962.24"/>
<polygon fill="midnightblue" stroke="midnightblue" points="82.4648,-993.533 78.4707,-983.72 75.4735,-993.882 82.4648,-993.533"/>
</g>
<!-- Node3 -->
<g id="node3" class="node"><title>Node3</title>
<g id="a_node3"><a xlink:href="classfwData_1_1Material.html#afb6c3cb09453f94ed1260f67390db2cd" target="_top" xlink:title="Defines deep copy. ">
<polygon fill="white" stroke="black" points="214,-1909 214,-1939 340,-1939 340,-1909 214,-1909"/>
<text text-anchor="start" x="222" y="-1927" font-family="Helvetica,sans-Serif" font-size="10.00">fwData::Material::cached</text>
<text text-anchor="middle" x="277" y="-1916" font-family="Helvetica,sans-Serif" font-size="10.00">DeepCopy</text>
</a>
</g>
</g>
<!-- Node1&#45;&gt;Node3 -->
<g id="edge2" class="edge"><title>Node1&#45;&gt;Node3</title>
<path fill="none" stroke="midnightblue" d="M79.0972,-993.754C86.3567,-1121.45 129.065,-1827.27 190,-1899 196.342,-1906.47 204.771,-1911.77 213.875,-1915.53"/>
<polygon fill="midnightblue" stroke="midnightblue" points="82.5778,-993.309 78.5214,-983.521 75.5888,-993.702 82.5778,-993.309"/>
</g>
<!-- Node4 -->
<g id="node4" class="node"><title>Node4</title>
<g id="a_node4"><a xlink:href="classfwMedData_1_1Study.html#a8d1529a4dea2effbf388abd0422cede0" target="_top" xlink:title="Defines deep copy. ">
<polygon fill="white" stroke="black" points="209,-1860 209,-1890 345,-1890 345,-1860 209,-1860"/>
<text text-anchor="start" x="217" y="-1878" font-family="Helvetica,sans-Serif" font-size="10.00">fwMedData::Study::cached</text>
<text text-anchor="middle" x="277" y="-1867" font-family="Helvetica,sans-Serif" font-size="10.00">DeepCopy</text>
</a>
</g>
</g>
<!-- Node1&#45;&gt;Node4 -->
<g id="edge3" class="edge"><title>Node1&#45;&gt;Node4</title>
<path fill="none" stroke="midnightblue" d="M77.6996,-993.85C76.3246,-1111.38 74.9897,-1715.52 190,-1850 195.154,-1856.03 201.668,-1860.64 208.795,-1864.17"/>
<polygon fill="midnightblue" stroke="midnightblue" points="81.2038,-993.547 77.8367,-983.502 74.2044,-993.454 81.2038,-993.547"/>
</g>
<!-- Node5 -->
<g id="node5" class="node"><title>Node5</title>
<g id="a_node5"><a xlink:href="classfwMedData_1_1Equipment.html#ad04c600668ba94e0a423c183913a3843" target="_top" xlink:title="Defines deep copy. ">
<polygon fill="white" stroke="black" points="217.5,-1811 217.5,-1841 336.5,-1841 336.5,-1811 217.5,-1811"/>
<text text-anchor="start" x="225.5" y="-1829" font-family="Helvetica,sans-Serif" font-size="10.00">fwMedData::Equipment</text>
<text text-anchor="middle" x="277" y="-1818" font-family="Helvetica,sans-Serif" font-size="10.00">::cachedDeepCopy</text>
</a>
</g>
</g>
<!-- Node1&#45;&gt;Node5 -->
<g id="edge4" class="edge"><title>Node1&#45;&gt;Node5</title>
<path fill="none" stroke="midnightblue" d="M77.8658,-993.808C77.4983,-1107.33 81.187,-1674.72 190,-1801 197.206,-1809.36 207.031,-1815.01 217.466,-1818.8"/>
<polygon fill="midnightblue" stroke="midnightblue" points="81.366,-993.77 77.914,-983.754 74.3661,-993.737 81.366,-993.77"/>
</g>
<!-- Node6 -->
<g id="node6" class="node"><title>Node6</title>
<g id="a_node6"><a xlink:href="classfwData_1_1Histogram.html#ade62700d7a78f1957c74e7780f7b3c90" target="_top" xlink:title="Defines deep copy. ">
<polygon fill="white" stroke="black" points="224.5,-1762 224.5,-1792 329.5,-1792 329.5,-1762 224.5,-1762"/>
<text text-anchor="start" x="232.5" y="-1780" font-family="Helvetica,sans-Serif" font-size="10.00">fwData::Histogram::</text>
<text text-anchor="middle" x="277" y="-1769" font-family="Helvetica,sans-Serif" font-size="10.00">cachedDeepCopy</text>
</a>
</g>
</g>
<!-- Node1&#45;&gt;Node6 -->
<g id="edge5" class="edge"><title>Node1&#45;&gt;Node6</title>
<path fill="none" stroke="midnightblue" d="M78.0532,-993.985C78.7485,-1103.88 87.4418,-1633.98 190,-1752 198.771,-1762.09 211.355,-1768.23 224.199,-1771.92"/>
<polygon fill="midnightblue" stroke="midnightblue" points="81.5518,-993.669 78.0048,-983.685 74.5519,-993.702 81.5518,-993.669"/>
</g>
<!-- Node7 -->
<g id="node7" class="node"><title>Node7</title>
<g id="a_node7"><a xlink:href="classfwMedData_1_1Patient.html#a23ed926d79f27f57e15b313d6b9382ce" target="_top" xlink:title="Defines deep copy. ">
<polygon fill="white" stroke="black" points="225,-1713 225,-1743 329,-1743 329,-1713 225,-1713"/>
<text text-anchor="start" x="233" y="-1731" font-family="Helvetica,sans-Serif" font-size="10.00">fwMedData::Patient</text>
<text text-anchor="middle" x="277" y="-1720" font-family="Helvetica,sans-Serif" font-size="10.00">::cachedDeepCopy</text>
</a>
</g>
</g>
<!-- Node1&#45;&gt;Node7 -->
<g id="edge6" class="edge"><title>Node1&#45;&gt;Node7</title>
<path fill="none" stroke="midnightblue" d="M78.261,-993.71C80.0488,-1098.86 93.544,-1593.06 190,-1703 198.921,-1713.17 211.712,-1719.31 224.71,-1722.99"/>
<polygon fill="midnightblue" stroke="midnightblue" points="81.7585,-993.511 78.1055,-983.566 74.7593,-993.618 81.7585,-993.511"/>
</g>
<!-- Node8 -->
<g id="node8" class="node"><title>Node8</title>
<g id="a_node8"><a xlink:href="classfwRenderQt_1_1data_1_1Viewport.html#ac4730f745a2e726d98614da438fdcf45" target="_top" xlink:title="Defines deep copy. ">
<polygon fill="white" stroke="black" points="208,-1664 208,-1694 346,-1694 346,-1664 208,-1664"/>
<text text-anchor="start" x="216" y="-1682" font-family="Helvetica,sans-Serif" font-size="10.00">fwRenderQt::data::Viewport</text>
<text text-anchor="middle" x="277" y="-1671" font-family="Helvetica,sans-Serif" font-size="10.00">::cachedDeepCopy</text>
</a>
</g>
</g>
<!-- Node1&#45;&gt;Node8 -->
<g id="edge7" class="edge"><title>Node1&#45;&gt;Node8</title>
<path fill="none" stroke="midnightblue" d="M78.5075,-993.965C81.483,-1095.35 99.7934,-1552.3 190,-1654 194.952,-1659.58 201.071,-1663.95 207.745,-1667.37"/>
<polygon fill="midnightblue" stroke="midnightblue" points="82.0035,-993.768 78.2286,-983.869 75.0062,-993.962 82.0035,-993.768"/>
</g>
<!-- Node9 -->
<g id="node9" class="node"><title>Node9</title>
<g id="a_node9"><a xlink:href="classfwData_1_1location_1_1SingleFile.html#a23296465371979923ac00b43ba7f206d" target="_top" xlink:title="Defines deep copy. ">
<polygon fill="white" stroke="black" points="216.5,-1615 216.5,-1645 337.5,-1645 337.5,-1615 216.5,-1615"/>
<text text-anchor="start" x="224.5" y="-1633" font-family="Helvetica,sans-Serif" font-size="10.00">fwData::location::Single</text>
<text text-anchor="middle" x="277" y="-1622" font-family="Helvetica,sans-Serif" font-size="10.00">File::cachedDeepCopy</text>
</a>
</g>
</g>
<!-- Node1&#45;&gt;Node9 -->
<g id="edge8" class="edge"><title>Node1&#45;&gt;Node9</title>
<path fill="none" stroke="midnightblue" d="M78.7759,-993.725C82.9613,-1090.18 105.879,-1511.34 190,-1605 197.065,-1612.87 206.444,-1618.32 216.41,-1622.08"/>
<polygon fill="midnightblue" stroke="midnightblue" points="82.2681,-993.462 78.3555,-983.616 75.2741,-993.753 82.2681,-993.462"/>
</g>
<!-- Node10 -->
<g id="node10" class="node"><title>Node10</title>
<g id="a_node10"><a xlink:href="classfwData_1_1String.html#a496663ba2f7bd911800418792814881a" target="_top" xlink:title="Defines deep copy. ">
<polygon fill="white" stroke="black" points="195,-1576.5 195,-1595.5 359,-1595.5 359,-1576.5 195,-1576.5"/>
<text text-anchor="middle" x="277" y="-1583.5" font-family="Helvetica,sans-Serif" font-size="10.00">fwData::String::cachedDeepCopy</text>
</a>
</g>
</g>
<!-- Node1&#45;&gt;Node10 -->
<g id="edge9" class="edge"><title>Node1&#45;&gt;Node10</title>
<path fill="none" stroke="midnightblue" d="M78.8831,-993.523C83.483,-1086.36 107.731,-1482.16 190,-1567 193.619,-1570.73 197.794,-1573.81 202.313,-1576.34"/>
<polygon fill="midnightblue" stroke="midnightblue" points="82.3791,-993.354 78.4073,-983.532 75.3871,-993.688 82.3791,-993.354"/>
</g>
<!-- Node11 -->
<g id="node11" class="node"><title>Node11</title>
<g id="a_node11"><a xlink:href="classfwData_1_1Edge.html#adf6c175101dca86eabad2fec4e2569dc" target="_top" xlink:title="do a deep copy of edge ">
<polygon fill="white" stroke="black" points="196.5,-1538.5 196.5,-1557.5 357.5,-1557.5 357.5,-1538.5 196.5,-1538.5"/>
<text text-anchor="middle" x="277" y="-1545.5" font-family="Helvetica,sans-Serif" font-size="10.00">fwData::Edge::cachedDeepCopy</text>
</a>
</g>
</g>
<!-- Node1&#45;&gt;Node11 -->
<g id="edge10" class="edge"><title>Node1&#45;&gt;Node11</title>
<path fill="none" stroke="midnightblue" d="M79.2093,-993.9C85.062,-1083.57 113.364,-1449.11 190,-1528 194.166,-1532.29 199.058,-1535.73 204.359,-1538.49"/>
<polygon fill="midnightblue" stroke="midnightblue" points="82.6914,-993.506 78.5669,-983.747 75.7054,-993.948 82.6914,-993.506"/>
</g>
<!-- Node12 -->
<g id="node12" class="node"><title>Node12</title>
<g id="a_node12"><a xlink:href="classfwPacsIO_1_1data_1_1PacsConfiguration.html#a22d5170ccde6fa9b1044d2f2a0b75e76" target="_top" xlink:title="Defines deep copy. ">
<polygon fill="white" stroke="black" points="191.5,-1489 191.5,-1519 362.5,-1519 362.5,-1489 191.5,-1489"/>
<text text-anchor="start" x="199.5" y="-1507" font-family="Helvetica,sans-Serif" font-size="10.00">fwPacsIO::data::PacsConfiguration</text>
<text text-anchor="middle" x="277" y="-1496" font-family="Helvetica,sans-Serif" font-size="10.00">::cachedDeepCopy</text>
</a>
</g>
</g>
<!-- Node1&#45;&gt;Node12 -->
<g id="edge11" class="edge"><title>Node1&#45;&gt;Node12</title>
<path fill="none" stroke="midnightblue" d="M79.7145,-993.639C87.4327,-1077.67 121.595,-1406.02 190,-1479 193.615,-1482.86 197.787,-1486.13 202.304,-1488.91"/>
<polygon fill="midnightblue" stroke="midnightblue" points="83.1978,-993.295 78.8171,-983.648 76.2259,-993.921 83.1978,-993.295"/>
</g>
<!-- Node13 -->
<g id="node13" class="node"><title>Node13</title>
<g id="a_node13"><a xlink:href="classfwData_1_1Boolean.html#ac8ec93bfbcc16638efaa15b1f0fc9191" target="_top" xlink:title="Defines deep copy. ">
<polygon fill="white" stroke="black" points="190.5,-1450.5 190.5,-1469.5 363.5,-1469.5 363.5,-1450.5 190.5,-1450.5"/>
<text text-anchor="middle" x="277" y="-1457.5" font-family="Helvetica,sans-Serif" font-size="10.00">fwData::Boolean::cachedDeepCopy</text>
</a>
</g>
</g>
<!-- Node1&#45;&gt;Node13 -->
<g id="edge12" class="edge"><title>Node1&#45;&gt;Node13</title>
<path fill="none" stroke="midnightblue" d="M80.0079,-994.043C88.5187,-1074.97 124.235,-1376.4 190,-1441 193.818,-1444.75 198.2,-1447.83 202.919,-1450.35"/>
<polygon fill="midnightblue" stroke="midnightblue" points="83.4547,-993.346 78.9492,-983.757 76.4915,-994.063 83.4547,-993.346"/>
</g>
<!-- Node14 -->
<g id="node14" class="node"><title>Node14</title>
<g id="a_node14"><a xlink:href="classfwData_1_1Integer.html#af3db4799651f552459aaff89b3c8ad08" target="_top" xlink:title="Defines deep copy. ">
<polygon fill="white" stroke="black" points="193,-1412.5 193,-1431.5 361,-1431.5 361,-1412.5 193,-1412.5"/>
<text text-anchor="middle" x="277" y="-1419.5" font-family="Helvetica,sans-Serif" font-size="10.00">fwData::Integer::cachedDeepCopy</text>
</a>
</g>
</g>
<!-- Node1&#45;&gt;Node14 -->
<g id="edge13" class="edge"><title>Node1&#45;&gt;Node14</title>
<path fill="none" stroke="midnightblue" d="M80.44,-993.872C90.2283,-1070.35 129.08,-1344.35 190,-1403 193.965,-1406.82 198.516,-1409.94 203.41,-1412.48"/>
<polygon fill="midnightblue" stroke="midnightblue" points="83.8828,-993.196 79.1633,-983.711 76.9374,-994.069 83.8828,-993.196"/>
</g>
<!-- Node15 -->
<g id="node15" class="node"><title>Node15</title>
<g id="a_node15"><a xlink:href="classfwData_1_1Line.html#a2bae4e2a89f01dcf72daa729fddee3ba" target="_top" xlink:title="Defines deep copy. ">
<polygon fill="white" stroke="black" points="199,-1374.5 199,-1393.5 355,-1393.5 355,-1374.5 199,-1374.5"/>
<text text-anchor="middle" x="277" y="-1381.5" font-family="Helvetica,sans-Serif" font-size="10.00">fwData::Line::cachedDeepCopy</text>
</a>
</g>
</g>
<!-- Node1&#45;&gt;Node15 -->
<g id="edge14" class="edge"><title>Node1&#45;&gt;Node15</title>
<path fill="none" stroke="midnightblue" d="M77.224,-993.933C75.8885,-1057.97 80.8641,-1260.31 190,-1364 194.445,-1368.22 199.601,-1371.62 205.136,-1374.33"/>
<polygon fill="midnightblue" stroke="midnightblue" points="80.7311,-993.737 77.5231,-983.64 73.734,-993.534 80.7311,-993.737"/>
</g>
<!-- Node16 -->
<g id="node16" class="node"><title>Node16</title>
<g id="a_node16"><a xlink:href="classfwData_1_1ResectionDB.html#a0bdac3cf64570fd00f7e5c275a86cd0d" target="_top" xlink:title="Defines deep copy. ">
<polygon fill="white" stroke="black" points="220.5,-1325 220.5,-1355 333.5,-1355 333.5,-1325 220.5,-1325"/>
<text text-anchor="start" x="228.5" y="-1343" font-family="Helvetica,sans-Serif" font-size="10.00">fwData::ResectionDB</text>
<text text-anchor="middle" x="277" y="-1332" font-family="Helvetica,sans-Serif" font-size="10.00">::cachedDeepCopy</text>
</a>
</g>
</g>
<!-- Node1&#45;&gt;Node16 -->
<g id="edge15" class="edge"><title>Node1&#45;&gt;Node16</title>
<path fill="none" stroke="midnightblue" d="M78.4166,-993.851C80.7421,-1052.05 95.6672,-1223.86 190,-1315 198.387,-1323.1 209.241,-1328.6 220.397,-1332.33"/>
<polygon fill="midnightblue" stroke="midnightblue" points="81.904,-993.39 78.0936,-983.504 74.9074,-993.609 81.904,-993.39"/>
</g>
<!-- Node17 -->
<g id="node17" class="node"><title>Node17</title>
<g id="a_node17"><a xlink:href="classfwData_1_1location_1_1Folder.html#ae64eae0a4d97e5cc418c84a7c04e205f" target="_top" xlink:title="Defines deep copy. ">
<polygon fill="white" stroke="black" points="216.5,-1276 216.5,-1306 337.5,-1306 337.5,-1276 216.5,-1276"/>
<text text-anchor="start" x="224.5" y="-1294" font-family="Helvetica,sans-Serif" font-size="10.00">fwData::location::Folder</text>
<text text-anchor="middle" x="277" y="-1283" font-family="Helvetica,sans-Serif" font-size="10.00">::cachedDeepCopy</text>
</a>
</g>
</g>
<!-- Node1&#45;&gt;Node17 -->
<g id="edge16" class="edge"><title>Node1&#45;&gt;Node17</title>
<path fill="none" stroke="midnightblue" d="M79.6618,-993.768C85.145,-1046.2 107.355,-1189.97 190,-1266 197.438,-1272.84 206.643,-1277.82 216.239,-1281.44"/>
<polygon fill="midnightblue" stroke="midnightblue" points="83.1415,-993.388 78.7077,-983.765 76.1731,-994.053 83.1415,-993.388"/>
</g>
<!-- Node18 -->
<g id="node18" class="node"><title>Node18</title>
<g id="a_node18"><a xlink:href="classfwData_1_1TransformationMatrix3D.html#a6fb5379d5b3c6a99b5242b0957825eac" target="_top" xlink:title="Defines deep copy. ">
<polygon fill="white" stroke="black" points="201,-1227 201,-1257 353,-1257 353,-1227 201,-1227"/>
<text text-anchor="start" x="209" y="-1245" font-family="Helvetica,sans-Serif" font-size="10.00">fwData::TransformationMatrix3</text>
<text text-anchor="middle" x="277" y="-1234" font-family="Helvetica,sans-Serif" font-size="10.00">D::cachedDeepCopy</text>
</a>
</g>
</g>
<!-- Node1&#45;&gt;Node18 -->
<g id="edge17" class="edge"><title>Node1&#45;&gt;Node18</title>
<path fill="none" stroke="midnightblue" d="M81.3144,-993.484C90.1789,-1039.51 118.783,-1155.67 190,-1217 194.477,-1220.86 199.52,-1224.12 204.862,-1226.88"/>
<polygon fill="midnightblue" stroke="midnightblue" points="84.7493,-992.81 79.5115,-983.601 77.863,-994.067 84.7493,-992.81"/>
</g>
<!-- Node19 -->
<g id="node19" class="node"><title>Node19</title>
<g id="a_node19"><a xlink:href="classfwData_1_1Plane.html#ad1042f8aee1cf85db0f62bb74a850c4c" target="_top" xlink:title="Defines deep copy. ">
<polygon fill="white" stroke="black" points="195.5,-1188.5 195.5,-1207.5 358.5,-1207.5 358.5,-1188.5 195.5,-1188.5"/>
<text text-anchor="middle" x="277" y="-1195.5" font-family="Helvetica,sans-Serif" font-size="10.00">fwData::Plane::cachedDeepCopy</text>
</a>
</g>
</g>
<!-- Node1&#45;&gt;Node19 -->
<g id="edge18" class="edge"><title>Node1&#45;&gt;Node19</title>
<path fill="none" stroke="midnightblue" d="M82.7779,-993.463C93.9506,-1034.66 125.835,-1130.82 190,-1179 195.135,-1182.86 200.9,-1185.96 206.95,-1188.45"/>
<polygon fill="midnightblue" stroke="midnightblue" points="86.1177,-992.398 80.2181,-983.598 79.3421,-994.156 86.1177,-992.398"/>
</g>
<!-- Node20 -->
<g id="node20" class="node"><title>Node20</title>
<g id="a_node20"><a xlink:href="classfwData_1_1Float.html#a479a2d287d4720a96b21185b2dd4f5db" target="_top" xlink:title="Defines deep copy. ">
<polygon fill="white" stroke="black" points="197,-1150.5 197,-1169.5 357,-1169.5 357,-1150.5 197,-1150.5"/>
<text text-anchor="middle" x="277" y="-1157.5" font-family="Helvetica,sans-Serif" font-size="10.00">fwData::Float::cachedDeepCopy</text>
</a>
</g>
</g>
<!-- Node1&#45;&gt;Node20 -->
<g id="edge19" class="edge"><title>Node1&#45;&gt;Node20</title>
<path fill="none" stroke="midnightblue" d="M85.3666,-993.268C99.798,-1028.31 135.241,-1102.31 190,-1140 196.313,-1144.35 203.441,-1147.76 210.824,-1150.43"/>
<polygon fill="midnightblue" stroke="midnightblue" points="88.5182,-991.722 81.5643,-983.729 82.0157,-994.314 88.5182,-991.722"/>
</g>
<!-- Node21 -->
<g id="node21" class="node"><title>Node21</title>
<g id="a_node21"><a xlink:href="classfwMedData_1_1Series.html#aed1f53fed35cdbb3b886e50fe466b9ad" target="_top" xlink:title="Defines deep copy. ">
<polygon fill="white" stroke="red" points="223.5,-1101 223.5,-1131 330.5,-1131 330.5,-1101 223.5,-1101"/>
<text text-anchor="start" x="231.5" y="-1119" font-family="Helvetica,sans-Serif" font-size="10.00">fwMedData::Series::</text>
<text text-anchor="middle" x="277" y="-1108" font-family="Helvetica,sans-Serif" font-size="10.00">cachedDeepCopy</text>
</a>
</g>
</g>
<!-- Node1&#45;&gt;Node21 -->
<g id="edge20" class="edge"><title>Node1&#45;&gt;Node21</title>
<path fill="none" stroke="midnightblue" d="M90.6161,-992.298C109.345,-1018.09 146.957,-1064.9 190,-1091 200.105,-1097.13 211.789,-1101.82 223.225,-1105.39"/>
<polygon fill="midnightblue" stroke="midnightblue" points="93.2403,-989.948 84.5953,-983.823 87.5338,-994.002 93.2403,-989.948"/>
</g>
<!-- Node26 -->
<g id="node26" class="node"><title>Node26</title>
<g id="a_node26"><a xlink:href="classfwData_1_1PlaneList.html#af5a2823c0727713c3010b7fcc8092459" target="_top" xlink:title="Defines deep copy. ">
<polygon fill="white" stroke="black" points="226.5,-1052 226.5,-1082 327.5,-1082 327.5,-1052 226.5,-1052"/>
<text text-anchor="start" x="234.5" y="-1070" font-family="Helvetica,sans-Serif" font-size="10.00">fwData::PlaneList::</text>
<text text-anchor="middle" x="277" y="-1059" font-family="Helvetica,sans-Serif" font-size="10.00">cachedDeepCopy</text>
</a>
</g>
</g>
<!-- Node1&#45;&gt;Node26 -->
<g id="edge25" class="edge"><title>Node1&#45;&gt;Node26</title>
<path fill="none" stroke="midnightblue" d="M99.3977,-989.346C121.279,-1004.46 156.691,-1027.35 190,-1042 201.387,-1047.01 214.055,-1051.33 226.092,-1054.9"/>
<polygon fill="midnightblue" stroke="midnightblue" points="101.364,-986.45 91.1648,-983.583 97.3503,-992.185 101.364,-986.45"/>
</g>
<!-- Node27 -->
<g id="node27" class="node"><title>Node27</title>
<g id="a_node27"><a xlink:href="classfwData_1_1Resection.html#a43d4608df3c8848ccfbddd7f2b53bb4b" target="_top" xlink:title="Defines deep copy. ">
<polygon fill="white" stroke="black" points="225,-1003 225,-1033 329,-1033 329,-1003 225,-1003"/>
<text text-anchor="start" x="233" y="-1021" font-family="Helvetica,sans-Serif" font-size="10.00">fwData::Resection::</text>
<text text-anchor="middle" x="277" y="-1010" font-family="Helvetica,sans-Serif" font-size="10.00">cachedDeepCopy</text>
</a>
</g>
</g>
<!-- Node1&#45;&gt;Node27 -->
<g id="edge26" class="edge"><title>Node1&#45;&gt;Node27</title>
<path fill="none" stroke="midnightblue" d="M130.937,-985.764C160.005,-992.223 195.89,-1000.2 224.696,-1006.6"/>
<polygon fill="midnightblue" stroke="midnightblue" points="131.484,-982.3 120.963,-983.547 129.966,-989.133 131.484,-982.3"/>
</g>
<!-- Node28 -->
<g id="node28" class="node"><title>Node28</title>
<g id="a_node28"><a xlink:href="classfwData_1_1Color.html#a6009792e1036afbc08db1fbe01eea0d7" target="_top" xlink:title="Defines deep copy. ">
<polygon fill="white" stroke="black" points="196.5,-964.5 196.5,-983.5 357.5,-983.5 357.5,-964.5 196.5,-964.5"/>
<text text-anchor="middle" x="277" y="-971.5" font-family="Helvetica,sans-Serif" font-size="10.00">fwData::Color::cachedDeepCopy</text>
</a>
</g>
</g>
<!-- Node1&#45;&gt;Node28 -->
<g id="edge27" class="edge"><title>Node1&#45;&gt;Node28</title>
<path fill="none" stroke="midnightblue" d="M163.954,-974C174.732,-974 185.719,-974 196.393,-974"/>
<polygon fill="midnightblue" stroke="midnightblue" points="163.703,-970.5 153.703,-974 163.703,-977.5 163.703,-970.5"/>
</g>
<!-- Node29 -->
<g id="node29" class="node"><title>Node29</title>
<g id="a_node29"><a xlink:href="classfwData_1_1Point.html#a235da1e2dd455e699b20e95d2970b3a4" target="_top" xlink:title="Defines deep copy. ">
<polygon fill="white" stroke="black" points="196.5,-926.5 196.5,-945.5 357.5,-945.5 357.5,-926.5 196.5,-926.5"/>
<text text-anchor="middle" x="277" y="-933.5" font-family="Helvetica,sans-Serif" font-size="10.00">fwData::Point::cachedDeepCopy</text>
</a>
</g>
</g>
<!-- Node1&#45;&gt;Node29 -->
<g id="edge28" class="edge"><title>Node1&#45;&gt;Node29</title>
<path fill="none" stroke="midnightblue" d="M137.866,-962.511C166.117,-957.089 199.436,-950.694 226.271,-945.544"/>
<polygon fill="midnightblue" stroke="midnightblue" points="136.869,-959.138 127.708,-964.46 138.189,-966.012 136.869,-959.138"/>
</g>
<!-- Node30 -->
<g id="node30" class="node"><title>Node30</title>
<g id="a_node30"><a xlink:href="classfwData_1_1Reconstruction.html#ac0851bc0a01f9a2c5edfb223a8632c90" target="_top" xlink:title="Defines deep copy. ">
<polygon fill="white" stroke="black" points="217,-877 217,-907 337,-907 337,-877 217,-877"/>
<text text-anchor="start" x="225" y="-895" font-family="Helvetica,sans-Serif" font-size="10.00">fwData::Reconstruction</text>
<text text-anchor="middle" x="277" y="-884" font-family="Helvetica,sans-Serif" font-size="10.00">::cachedDeepCopy</text>
</a>
</g>
</g>
<!-- Node1&#45;&gt;Node30 -->
<g id="edge29" class="edge"><title>Node1&#45;&gt;Node30</title>
<path fill="none" stroke="midnightblue" d="M103.443,-959.31C125.738,-946.864 159.291,-929.153 190,-917 199.108,-913.395 208.942,-910.051 218.592,-907.057"/>
<polygon fill="midnightblue" stroke="midnightblue" points="101.606,-956.327 94.6177,-964.29 105.047,-962.423 101.606,-956.327"/>
</g>
<!-- Node31 -->
<g id="node31" class="node"><title>Node31</title>
<g id="a_node31"><a xlink:href="classfwData_1_1PointList.html#a66b37086237f160fedc7c1915dc4d10c" target="_top" xlink:title="Defines deep copy. ">
<polygon fill="white" stroke="black" points="228,-828 228,-858 326,-858 326,-828 228,-828"/>
<text text-anchor="start" x="236" y="-846" font-family="Helvetica,sans-Serif" font-size="10.00">fwData::PointList::</text>
<text text-anchor="middle" x="277" y="-835" font-family="Helvetica,sans-Serif" font-size="10.00">cachedDeepCopy</text>
</a>
</g>
</g>
<!-- Node1&#45;&gt;Node31 -->
<g id="edge30" class="edge"><title>Node1&#45;&gt;Node31</title>
<path fill="none" stroke="midnightblue" d="M91.8854,-956.417C111.365,-932.906 149.039,-891.474 190,-868 201.602,-861.351 215.114,-856.348 227.944,-852.636"/>
<polygon fill="midnightblue" stroke="midnightblue" points="89.1498,-954.233 85.5597,-964.201 94.5824,-958.648 89.1498,-954.233"/>
</g>
<!-- Node32 -->
<g id="node32" class="node"><title>Node32</title>
<g id="a_node32"><a xlink:href="classfwData_1_1Port.html#a39dd2e69ddfa722a39c1023a55b4be0f" target="_top" xlink:title="Defines deep copy. ">
<polygon fill="white" stroke="black" points="199,-789.5 199,-808.5 355,-808.5 355,-789.5 199,-789.5"/>
<text text-anchor="middle" x="277" y="-796.5" font-family="Helvetica,sans-Serif" font-size="10.00">fwData::Port::cachedDeepCopy</text>
</a>
</g>
</g>
<!-- Node1&#45;&gt;Node32 -->
<g id="edge31" class="edge"><title>Node1&#45;&gt;Node32</title>
<path fill="none" stroke="midnightblue" d="M86.3623,-954.629C101.76,-921.375 137.862,-853.667 190,-819 196.51,-814.671 203.839,-811.274 211.403,-808.608"/>
<polygon fill="midnightblue" stroke="midnightblue" points="82.9997,-953.573 82.0965,-964.13 89.3856,-956.441 82.9997,-953.573"/>
</g>
<!-- Node33 -->
<g id="node33" class="node"><title>Node33</title>
<g id="a_node33"><a xlink:href="classfwData_1_1StructureTraitsDictionary.html#a22e7fc7bd873a9a6a0775b2803f45491" target="_top" xlink:title="Defines deep copy. ">
<polygon fill="white" stroke="black" points="195.5,-740 195.5,-770 358.5,-770 358.5,-740 195.5,-740"/>
<text text-anchor="start" x="203.5" y="-758" font-family="Helvetica,sans-Serif" font-size="10.00">fwData::StructureTraitsDictionary</text>
<text text-anchor="middle" x="277" y="-747" font-family="Helvetica,sans-Serif" font-size="10.00">::cachedDeepCopy</text>
</a>
</g>
</g>
<!-- Node1&#45;&gt;Node33 -->
<g id="edge32" class="edge"><title>Node1&#45;&gt;Node33</title>
<path fill="none" stroke="midnightblue" d="M83.764,-954.543C96.3668,-915.415 130.139,-826.945 190,-780 194.894,-776.162 200.358,-772.913 206.095,-770.163"/>
<polygon fill="midnightblue" stroke="midnightblue" points="80.3898,-953.607 80.7666,-964.195 87.0749,-955.683 80.3898,-953.607"/>
</g>
<!-- Node34 -->
<g id="node34" class="node"><title>Node34</title>
<g id="a_node34"><a xlink:href="classfwData_1_1Array.html#ab15a523fff0d5e7c7a44bee1ff04f141" target="_top" xlink:title="Defines deep copy. ">
<polygon fill="white" stroke="black" points="196.5,-701.5 196.5,-720.5 357.5,-720.5 357.5,-701.5 196.5,-701.5"/>
<text text-anchor="middle" x="277" y="-708.5" font-family="Helvetica,sans-Serif" font-size="10.00">fwData::Array::cachedDeepCopy</text>
</a>
</g>
</g>
<!-- Node1&#45;&gt;Node34 -->
<g id="edge33" class="edge"><title>Node1&#45;&gt;Node34</title>
<path fill="none" stroke="midnightblue" d="M81.0979,-954.257C89.4904,-907.671 117.141,-790.366 190,-731 195.229,-726.74 201.201,-723.353 207.506,-720.665"/>
<polygon fill="midnightblue" stroke="midnightblue" points="77.6218,-953.822 79.4001,-964.266 84.5232,-954.992 77.6218,-953.822"/>
</g>
<!-- Node35 -->
<g id="node35" class="node"><title>Node35</title>
<g id="a_node35"><a xlink:href="classfwData_1_1Tag.html#a86d8c2958df67a0d95915bbf26061fa2" target="_top" xlink:title="Defines deep copy. ">
<polygon fill="white" stroke="black" points="199.5,-663.5 199.5,-682.5 354.5,-682.5 354.5,-663.5 199.5,-663.5"/>
<text text-anchor="middle" x="277" y="-670.5" font-family="Helvetica,sans-Serif" font-size="10.00">fwData::Tag::cachedDeepCopy</text>
</a>
</g>
</g>
<!-- Node1&#45;&gt;Node35 -->
<g id="edge34" class="edge"><title>Node1&#45;&gt;Node35</title>
<path fill="none" stroke="midnightblue" d="M79.6597,-954.273C85.1117,-902.604 107.201,-762.464 190,-692 194.425,-688.234 199.431,-685.168 204.749,-682.676"/>
<polygon fill="midnightblue" stroke="midnightblue" points="76.1583,-954.121 78.6891,-964.409 83.1264,-954.788 76.1583,-954.121"/>
</g>
<!-- Node36 -->
<g id="node36" class="node"><title>Node36</title>
<g id="a_node36"><a xlink:href="classfwData_1_1ReconstructionTraits.html#aac084b96cbf3bb6918c8282ea189a12a" target="_top" xlink:title="Defines deep copy. ">
<polygon fill="white" stroke="black" points="204.5,-614 204.5,-644 349.5,-644 349.5,-614 204.5,-614"/>
<text text-anchor="start" x="212.5" y="-632" font-family="Helvetica,sans-Serif" font-size="10.00">fwData::ReconstructionTraits</text>
<text text-anchor="middle" x="277" y="-621" font-family="Helvetica,sans-Serif" font-size="10.00">::cachedDeepCopy</text>
</a>
</g>
</g>
<!-- Node1&#45;&gt;Node36 -->
<g id="edge35" class="edge"><title>Node1&#45;&gt;Node36</title>
<path fill="none" stroke="midnightblue" d="M78.9279,-953.884C82.6219,-897.834 100.852,-738.478 190,-654 194.289,-649.936 199.199,-646.527 204.452,-643.67"/>
<polygon fill="midnightblue" stroke="midnightblue" points="75.4141,-954.029 78.34,-964.212 82.4027,-954.427 75.4141,-954.029"/>
</g>
<!-- Node37 -->
<g id="node37" class="node"><title>Node37</title>
<g id="a_node37"><a xlink:href="classfwData_1_1Landmarks.html#a6b7c0ef6c0be50a3c05e3fcf94332a35" target="_top" xlink:title="Defines deep copy. ">
<polygon fill="white" stroke="black" points="223,-565 223,-595 331,-595 331,-565 223,-565"/>
<text text-anchor="start" x="231" y="-583" font-family="Helvetica,sans-Serif" font-size="10.00">fwData::Landmarks::</text>
<text text-anchor="middle" x="277" y="-572" font-family="Helvetica,sans-Serif" font-size="10.00">cachedDeepCopy</text>
</a>
</g>
</g>
<!-- Node1&#45;&gt;Node37 -->
<g id="edge36" class="edge"><title>Node1&#45;&gt;Node37</title>
<path fill="none" stroke="midnightblue" d="M77.8391,-954.162C78.4586,-892.912 88.8996,-704.916 190,-605 198.958,-596.147 210.857,-590.394 222.939,-586.664"/>
<polygon fill="midnightblue" stroke="midnightblue" points="74.3389,-954.361 77.8201,-964.367 81.3389,-954.374 74.3389,-954.361"/>
</g>
<!-- Node38 -->
<g id="node38" class="node"><title>Node38</title>
<g id="a_node38"><a xlink:href="classfwData_1_1ROITraits.html#a2258f407ce19bef8045f431c9da32f2e" target="_top" xlink:title="Defines deep copy. ">
<polygon fill="white" stroke="black" points="225.5,-516 225.5,-546 328.5,-546 328.5,-516 225.5,-516"/>
<text text-anchor="start" x="233.5" y="-534" font-family="Helvetica,sans-Serif" font-size="10.00">fwData::ROITraits::</text>
<text text-anchor="middle" x="277" y="-523" font-family="Helvetica,sans-Serif" font-size="10.00">cachedDeepCopy</text>
</a>
</g>
</g>
<!-- Node1&#45;&gt;Node38 -->
<g id="edge37" class="edge"><title>Node1&#45;&gt;Node38</title>
<path fill="none" stroke="midnightblue" d="M80.7,-954.264C91.3068,-879.487 132.381,-614.848 190,-556 199.464,-546.334 212.428,-540.351 225.42,-536.663"/>
<polygon fill="midnightblue" stroke="midnightblue" points="77.2257,-953.838 79.3093,-964.226 84.1585,-954.806 77.2257,-953.838"/>
</g>
<!-- Node39 -->
<g id="node39" class="node"><title>Node39</title>
<g id="a_node39"><a xlink:href="classfwData_1_1Node.html#af911621dfdf4dc371feb0f4501514a55" target="_top" xlink:title="Defines deep copy. ">
<polygon fill="white" stroke="black" points="196.5,-477.5 196.5,-496.5 357.5,-496.5 357.5,-477.5 196.5,-477.5"/>
<text text-anchor="middle" x="277" y="-484.5" font-family="Helvetica,sans-Serif" font-size="10.00">fwData::Node::cachedDeepCopy</text>
</a>
</g>
</g>
<!-- Node1&#45;&gt;Node39 -->
<g id="edge38" class="edge"><title>Node1&#45;&gt;Node39</title>
<path fill="none" stroke="midnightblue" d="M80.0278,-953.977C88.6163,-873.126 124.593,-571.958 190,-507 194.242,-502.787 199.187,-499.394 204.523,-496.668"/>
<polygon fill="midnightblue" stroke="midnightblue" points="76.5124,-953.945 78.9592,-964.253 83.4749,-954.669 76.5124,-953.945"/>
</g>
<!-- Node40 -->
<g id="node40" class="node"><title>Node40</title>
<g id="a_node40"><a xlink:href="classfwData_1_1Image.html#a9837963ed7361d2b8b2d650c0b81240e" target="_top" xlink:title="Defines deep copy. ">
<polygon fill="white" stroke="black" points="194.5,-439.5 194.5,-458.5 359.5,-458.5 359.5,-439.5 194.5,-439.5"/>
<text text-anchor="middle" x="277" y="-446.5" font-family="Helvetica,sans-Serif" font-size="10.00">fwData::Image::cachedDeepCopy</text>
</a>
</g>
</g>
<!-- Node1&#45;&gt;Node40 -->
<g id="edge39" class="edge"><title>Node1&#45;&gt;Node40</title>
<path fill="none" stroke="midnightblue" d="M79.5896,-954.207C86.7912,-869.529 119.125,-538.847 190,-468 193.785,-464.217 198.143,-461.112 202.845,-458.573"/>
<polygon fill="midnightblue" stroke="midnightblue" points="76.0932,-954.02 78.7545,-964.275 83.0692,-954.599 76.0932,-954.02"/>
</g>
<!-- Node41 -->
<g id="node41" class="node"><title>Node41</title>
<g id="a_node41"><a xlink:href="classfwMedData_1_1SeriesDB.html#af088e7f55f4baab436b4aed5148e41e8" target="_top" xlink:title="Defines deep copy. ">
<polygon fill="white" stroke="black" points="219.5,-390 219.5,-420 334.5,-420 334.5,-390 219.5,-390"/>
<text text-anchor="start" x="227.5" y="-408" font-family="Helvetica,sans-Serif" font-size="10.00">fwMedData::SeriesDB</text>
<text text-anchor="middle" x="277" y="-397" font-family="Helvetica,sans-Serif" font-size="10.00">::cachedDeepCopy</text>
</a>
</g>
</g>
<!-- Node1&#45;&gt;Node41 -->
<g id="edge40" class="edge"><title>Node1&#45;&gt;Node41</title>
<path fill="none" stroke="midnightblue" d="M79.3834,-954.28C85.9511,-866.164 116.762,-509.333 190,-430 197.805,-421.546 208.283,-415.89 219.238,-412.122"/>
<polygon fill="midnightblue" stroke="midnightblue" points="75.8767,-954.247 78.6438,-964.474 82.8584,-954.754 75.8767,-954.247"/>
</g>
<!-- Node42 -->
<g id="node42" class="node"><title>Node42</title>
<g id="a_node42"><a xlink:href="classfwData_1_1List.html#aa3fdee0e8e99f1863b1507818ab77979" target="_top" xlink:title="Defines deep copy. ">
<polygon fill="white" stroke="black" points="200,-351.5 200,-370.5 354,-370.5 354,-351.5 200,-351.5"/>
<text text-anchor="middle" x="277" y="-358.5" font-family="Helvetica,sans-Serif" font-size="10.00">fwData::List::cachedDeepCopy</text>
</a>
</g>
</g>
<!-- Node1&#45;&gt;Node42 -->
<g id="edge41" class="edge"><title>Node1&#45;&gt;Node42</title>
<path fill="none" stroke="midnightblue" d="M78.9174,-954.212C83.6448,-860.946 108.285,-466.206 190,-381 194.032,-376.796 198.762,-373.399 203.893,-370.663"/>
<polygon fill="midnightblue" stroke="midnightblue" points="75.4081,-954.319 78.4172,-964.477 82.3998,-954.659 75.4081,-954.319"/>
</g>
<!-- Node43 -->
<g id="node43" class="node"><title>Node43</title>
<g id="a_node43"><a xlink:href="classfwData_1_1Composite.html#acc177e4f05c944cbc03302d2e8ca571f" target="_top" xlink:title="Defines deep copy. ">
<polygon fill="white" stroke="black" points="223.5,-302 223.5,-332 330.5,-332 330.5,-302 223.5,-302"/>
<text text-anchor="start" x="231.5" y="-320" font-family="Helvetica,sans-Serif" font-size="10.00">fwData::Composite::</text>
<text text-anchor="middle" x="277" y="-309" font-family="Helvetica,sans-Serif" font-size="10.00">cachedDeepCopy</text>
</a>
</g>
</g>
<!-- Node1&#45;&gt;Node43 -->
<g id="edge42" class="edge"><title>Node1&#45;&gt;Node43</title>
<path fill="none" stroke="midnightblue" d="M78.7712,-954.244C82.9343,-857.634 105.763,-435.817 190,-342 198.622,-332.397 210.693,-326.394 223.071,-322.664"/>
<polygon fill="midnightblue" stroke="midnightblue" points="75.2688,-954.233 78.3532,-964.369 82.2628,-954.522 75.2688,-954.233"/>
</g>
<!-- Node44 -->
<g id="node44" class="node"><title>Node44</title>
<g id="a_node44"><a xlink:href="classfwData_1_1Spline.html#ab50070d454f7d34bc80b525f3aa7dfae" target="_top" xlink:title="Defines deep copy. ">
<polygon fill="white" stroke="black" points="194.5,-263.5 194.5,-282.5 359.5,-282.5 359.5,-263.5 194.5,-263.5"/>
<text text-anchor="middle" x="277" y="-270.5" font-family="Helvetica,sans-Serif" font-size="10.00">fwData::Spline::cachedDeepCopy</text>
</a>
</g>
</g>
<!-- Node1&#45;&gt;Node44 -->
<g id="edge43" class="edge"><title>Node1&#45;&gt;Node44</title>
<path fill="none" stroke="midnightblue" d="M78.3995,-953.911C80.8417,-851.917 96.9393,-392.364 190,-293 193.982,-288.748 198.676,-285.318 203.785,-282.56"/>
<polygon fill="midnightblue" stroke="midnightblue" points="74.8969,-953.994 78.1743,-964.07 81.8951,-954.15 74.8969,-953.994"/>
</g>
<!-- Node45 -->
<g id="node45" class="node"><title>Node45</title>
<g id="a_node45"><a xlink:href="classfwData_1_1Vector.html#a84d842eb0ca33682e795ba160ae6297e" target="_top" xlink:title="Defines deep copy. ">
<polygon fill="white" stroke="black" points="193.5,-225.5 193.5,-244.5 360.5,-244.5 360.5,-225.5 193.5,-225.5"/>
<text text-anchor="middle" x="277" y="-232.5" font-family="Helvetica,sans-Serif" font-size="10.00">fwData::Vector::cachedDeepCopy</text>
</a>
</g>
</g>
<!-- Node1&#45;&gt;Node45 -->
<g id="edge44" class="edge"><title>Node1&#45;&gt;Node45</title>
<path fill="none" stroke="midnightblue" d="M78.1762,-954.421C79.5236,-849.987 91.105,-359.343 190,-254 193.558,-250.21 197.688,-247.091 202.176,-244.533"/>
<polygon fill="midnightblue" stroke="midnightblue" points="74.6756,-954.458 78.0637,-964.497 81.6752,-954.536 74.6756,-954.458"/>
</g>
<!-- Node46 -->
<g id="node46" class="node"><title>Node46</title>
<g id="a_node46"><a xlink:href="classfwData_1_1TransferFunction.html#a8550e7eaddffa6bd935badba53eb8703" target="_top" xlink:title="Deep copy method. ">
<polygon fill="white" stroke="black" points="213,-176 213,-206 341,-206 341,-176 213,-176"/>
<text text-anchor="start" x="221" y="-194" font-family="Helvetica,sans-Serif" font-size="10.00">fwData::TransferFunction</text>
<text text-anchor="middle" x="277" y="-183" font-family="Helvetica,sans-Serif" font-size="10.00">::cachedDeepCopy</text>
</a>
</g>
</g>
<!-- Node1&#45;&gt;Node46 -->
<g id="edge45" class="edge"><title>Node1&#45;&gt;Node46</title>
<path fill="none" stroke="midnightblue" d="M78.1349,-954.186C79.2677,-846.344 89.9157,-330.737 190,-216 196.133,-208.97 204.115,-203.862 212.742,-200.161"/>
<polygon fill="midnightblue" stroke="midnightblue" points="74.634,-954.28 78.0451,-964.311 81.6337,-954.342 74.634,-954.28"/>
</g>
<!-- Node47 -->
<g id="node47" class="node"><title>Node47</title>
<g id="a_node47"><a xlink:href="classfwData_1_1ProcessObject.html#a6c173728353e1b177b61f146268f0366" target="_top" xlink:title="Defines deep copy. ">
<polygon fill="white" stroke="black" points="217.5,-127 217.5,-157 336.5,-157 336.5,-127 217.5,-127"/>
<text text-anchor="start" x="225.5" y="-145" font-family="Helvetica,sans-Serif" font-size="10.00">fwData::ProcessObject</text>
<text text-anchor="middle" x="277" y="-134" font-family="Helvetica,sans-Serif" font-size="10.00">::cachedDeepCopy</text>
</a>
</g>
</g>
<!-- Node1&#45;&gt;Node47 -->
<g id="edge46" class="edge"><title>Node1&#45;&gt;Node47</title>
<path fill="none" stroke="midnightblue" d="M77.9391,-954.33C77.9914,-842.749 83.6751,-289.978 190,-167 197.22,-158.649 207.05,-153.007 217.488,-149.214"/>
<polygon fill="midnightblue" stroke="midnightblue" points="74.4392,-954.484 77.9505,-964.48 81.4392,-954.477 74.4392,-954.484"/>
</g>
<!-- Node48 -->
<g id="node48" class="node"><title>Node48</title>
<g id="a_node48"><a xlink:href="classfwData_1_1Mesh.html#a60c13295cbf3a4cba251d97e5cab5a4d" target="_top" xlink:title="Defines deep copy. ">
<polygon fill="white" stroke="black" points="196,-88.5 196,-107.5 358,-107.5 358,-88.5 196,-88.5"/>
<text text-anchor="middle" x="277" y="-95.5" font-family="Helvetica,sans-Serif" font-size="10.00">fwData::Mesh::cachedDeepCopy</text>
</a>
</g>
</g>
<!-- Node1&#45;&gt;Node48 -->
<g id="edge47" class="edge"><title>Node1&#45;&gt;Node48</title>
<path fill="none" stroke="midnightblue" d="M77.6616,-954.145C76.0959,-837.878 73.9721,-246.045 190,-118 193.808,-113.797 198.312,-110.391 203.231,-107.64"/>
<polygon fill="midnightblue" stroke="midnightblue" points="74.1658,-954.457 77.8161,-964.403 81.165,-954.352 74.1658,-954.457"/>
</g>
<!-- Node49 -->
<g id="node49" class="node"><title>Node49</title>
<g id="a_node49"><a xlink:href="classfwData_1_1StructureTraits.html#a1f87b9e4fa776300fd2e6689b6847398" target="_top" xlink:title="Defines deep copy. ">
<polygon fill="white" stroke="black" points="217.5,-39 217.5,-69 336.5,-69 336.5,-39 217.5,-39"/>
<text text-anchor="start" x="225.5" y="-57" font-family="Helvetica,sans-Serif" font-size="10.00">fwData::StructureTraits</text>
<text text-anchor="middle" x="277" y="-46" font-family="Helvetica,sans-Serif" font-size="10.00">::cachedDeepCopy</text>
</a>
</g>
</g>
<!-- Node1&#45;&gt;Node49 -->
<g id="edge48" class="edge"><title>Node1&#45;&gt;Node49</title>
<path fill="none" stroke="midnightblue" d="M77.639,-954.085C75.8843,-834.907 72.6,-216.643 190,-79 197.164,-70.6007 206.969,-64.9374 217.4,-61.1386"/>
<polygon fill="midnightblue" stroke="midnightblue" points="74.1428,-954.352 77.8047,-964.294 81.1418,-954.238 74.1428,-954.352"/>
</g>
<!-- Node50 -->
<g id="node50" class="node"><title>Node50</title>
<g id="a_node50"><a xlink:href="classfwData_1_1Graph.html#af85b750c57865854120bc24149e04f7c" target="_top" xlink:title="Get the connection container. ">
<polygon fill="white" stroke="black" points="199.5,-0.5 199.5,-19.5 354.5,-19.5 354.5,-0.5 199.5,-0.5"/>
<text text-anchor="middle" x="277" y="-7.5" font-family="Helvetica,sans-Serif" font-size="10.00">fwData::Graph::getConnections</text>
</a>
</g>
</g>
<!-- Node1&#45;&gt;Node50 -->
<g id="edge49" class="edge"><title>Node1&#45;&gt;Node50</title>
<path fill="none" stroke="midnightblue" d="M78.9885,-954.162C85.6271,-824.449 125.427,-100.338 190,-29 193.386,-25.259 197.328,-22.1668 201.627,-19.6183"/>
<polygon fill="midnightblue" stroke="midnightblue" points="75.4881,-954.084 78.4783,-964.248 82.4791,-954.438 75.4881,-954.084"/>
</g>
<!-- Node22 -->
<g id="node22" class="node"><title>Node22</title>
<g id="a_node22"><a xlink:href="classfwMedData_1_1ActivitySeries.html#a571a0ea2356d9afb722c94f8c7a36ff0" target="_top" xlink:title="Defines deep copy. ">
<polygon fill="white" stroke="black" points="409,-1174 409,-1204 543,-1204 543,-1174 409,-1174"/>
<text text-anchor="start" x="417" y="-1192" font-family="Helvetica,sans-Serif" font-size="10.00">fwMedData::ActivitySeries</text>
<text text-anchor="middle" x="476" y="-1181" font-family="Helvetica,sans-Serif" font-size="10.00">::cachedDeepCopy</text>
</a>
</g>
</g>
<!-- Node21&#45;&gt;Node22 -->
<g id="edge21" class="edge"><title>Node21&#45;&gt;Node22</title>
<path fill="none" stroke="midnightblue" d="M340.489,-1131.87C348.53,-1134.58 356.55,-1137.62 364,-1141 381.292,-1148.84 382.864,-1155.82 400,-1164 407.556,-1167.6 415.77,-1170.91 423.899,-1173.86"/>
<polygon fill="midnightblue" stroke="midnightblue" points="341.298,-1128.45 330.707,-1128.74 339.163,-1135.12 341.298,-1128.45"/>
</g>
<!-- Node23 -->
<g id="node23" class="node"><title>Node23</title>
<g id="a_node23"><a xlink:href="classfwMedData_1_1AttachmentSeries.html#a9a7b7eef283b2c22379e3f7d959ed12c" target="_top" xlink:title="Defines deep copy. ">
<polygon fill="white" stroke="black" points="400.5,-1125 400.5,-1155 551.5,-1155 551.5,-1125 400.5,-1125"/>
<text text-anchor="start" x="408.5" y="-1143" font-family="Helvetica,sans-Serif" font-size="10.00">fwMedData::AttachmentSeries</text>
<text text-anchor="middle" x="476" y="-1132" font-family="Helvetica,sans-Serif" font-size="10.00">::cachedDeepCopy</text>
</a>
</g>
</g>
<!-- Node21&#45;&gt;Node23 -->
<g id="edge22" class="edge"><title>Node21&#45;&gt;Node23</title>
<path fill="none" stroke="midnightblue" d="M340.568,-1123.62C359.587,-1125.94 380.678,-1128.51 400.406,-1130.91"/>
<polygon fill="midnightblue" stroke="midnightblue" points="340.884,-1120.14 330.534,-1122.4 340.037,-1127.08 340.884,-1120.14"/>
</g>
<!-- Node24 -->
<g id="node24" class="node"><title>Node24</title>
<g id="a_node24"><a xlink:href="classfwMedData_1_1DicomSeries.html#a65203430acecba1edf2501224bb24607" target="_top" xlink:title="Defines deep copy. ">
<polygon fill="white" stroke="black" points="411.5,-1076 411.5,-1106 540.5,-1106 540.5,-1076 411.5,-1076"/>
<text text-anchor="start" x="419.5" y="-1094" font-family="Helvetica,sans-Serif" font-size="10.00">fwMedData::DicomSeries</text>
<text text-anchor="middle" x="476" y="-1083" font-family="Helvetica,sans-Serif" font-size="10.00">::cachedDeepCopy</text>
</a>
</g>
</g>
<!-- Node21&#45;&gt;Node24 -->
<g id="edge23" class="edge"><title>Node21&#45;&gt;Node24</title>
<path fill="none" stroke="midnightblue" d="M340.68,-1108.05C363.252,-1105.18 388.729,-1101.95 411.381,-1099.07"/>
<polygon fill="midnightblue" stroke="midnightblue" points="340.013,-1104.6 330.534,-1109.33 340.895,-1111.55 340.013,-1104.6"/>
</g>
<!-- Node25 -->
<g id="node25" class="node"><title>Node25</title>
<g id="a_node25"><a xlink:href="classfwMedData_1_1ImageSeries.html#aa02472a03232fd0beb847fa0dcd7f4cb" target="_top" xlink:title="Defines deep copy. ">
<polygon fill="white" stroke="black" points="412,-1027 412,-1057 540,-1057 540,-1027 412,-1027"/>
<text text-anchor="start" x="420" y="-1045" font-family="Helvetica,sans-Serif" font-size="10.00">fwMedData::ImageSeries</text>
<text text-anchor="middle" x="476" y="-1034" font-family="Helvetica,sans-Serif" font-size="10.00">::cachedDeepCopy</text>
</a>
</g>
</g>
<!-- Node21&#45;&gt;Node25 -->
<g id="edge24" class="edge"><title>Node21&#45;&gt;Node25</title>
<path fill="none" stroke="midnightblue" d="M340.552,-1100.27C348.583,-1097.54 356.583,-1094.45 364,-1091 381.435,-1082.89 382.726,-1075.45 400,-1067 407.521,-1063.32 415.716,-1059.98 423.837,-1057.02"/>
<polygon fill="midnightblue" stroke="midnightblue" points="339.222,-1097.02 330.778,-1103.42 341.37,-1103.68 339.222,-1097.02"/>
</g>
</g>
</svg>
