<?xml version="1.0" encoding="UTF-8" standalone="no"?>
<!DOCTYPE svg PUBLIC "-//W3C//DTD SVG 1.1//EN"
 "http://www.w3.org/Graphics/SVG/1.1/DTD/svg11.dtd">
<!-- Generated by graphviz version 2.36.0 (20140111.2315)
 -->
<!-- Title: fwServices::IService::configure Pages: 1 -->
<svg width="588pt" height="126pt"
 viewBox="0.00 0.00 588.00 126.00" xmlns="http://www.w3.org/2000/svg" xmlns:xlink="http://www.w3.org/1999/xlink">
<g id="graph0" class="graph" transform="scale(1 1) rotate(0) translate(4 122)">
<title>fwServices::IService::configure</title>
<polygon fill="white" stroke="none" points="-4,4 -4,-122 584,-122 584,4 -4,4"/>
<!-- Node1 -->
<g id="node1" class="node"><title>Node1</title>
<polygon fill="#bfbfbf" stroke="black" points="0.5,-44 0.5,-74 107.5,-74 107.5,-44 0.5,-44"/>
<text text-anchor="start" x="8.5" y="-62" font-family="Helvetica,sans-Serif" font-size="10.00">fwServices::IService</text>
<text text-anchor="middle" x="54" y="-51" font-family="Helvetica,sans-Serif" font-size="10.00">::configure</text>
</g>
<!-- Node2 -->
<g id="node2" class="node"><title>Node2</title>
<g id="a_node2"><a xlink:href="classfwServices_1_1IService.html#a1a78b141da26374c5febca8ba7b75ef2" target="_top" xlink:title="Configure the service before starting. Apply the configuration to service. ">
<polygon fill="white" stroke="black" points="144.5,-88 144.5,-118 251.5,-118 251.5,-88 144.5,-88"/>
<text text-anchor="start" x="152.5" y="-106" font-family="Helvetica,sans-Serif" font-size="10.00">fwServices::IService</text>
<text text-anchor="middle" x="198" y="-95" font-family="Helvetica,sans-Serif" font-size="10.00">::configuring</text>
</a>
</g>
</g>
<!-- Node1&#45;&gt;Node2 -->
<g id="edge1" class="edge"><title>Node1&#45;&gt;Node2</title>
<path fill="none" stroke="midnightblue" d="M103.471,-74.0192C114.77,-77.5202 126.917,-81.2842 138.595,-84.9027"/>
<polygon fill="midnightblue" stroke="midnightblue" points="137.677,-88.2824 148.265,-87.8991 139.749,-81.596 137.677,-88.2824"/>
</g>
<!-- Node3 -->
<g id="node3" class="node"><title>Node3</title>
<g id="a_node3"><a xlink:href="classfwTools_1_1fwID.html#a387264565a48b0231a7eefb7b01512a1" target="_top" xlink:title="Returns the id of the object. If it is not set and the policy value is. ">
<polygon fill="white" stroke="black" points="288,-49.5 288,-68.5 396,-68.5 396,-49.5 288,-49.5"/>
<text text-anchor="middle" x="342" y="-56.5" font-family="Helvetica,sans-Serif" font-size="10.00">fwTools::fwID::getID</text>
</a>
</g>
</g>
<!-- Node1&#45;&gt;Node3 -->
<g id="edge2" class="edge"><title>Node1&#45;&gt;Node3</title>
<path fill="none" stroke="midnightblue" d="M107.79,-59C155.657,-59 226.317,-59 277.304,-59"/>
<polygon fill="midnightblue" stroke="midnightblue" points="277.548,-62.5001 287.548,-59 277.548,-55.5001 277.548,-62.5001"/>
</g>
<!-- Node6 -->
<g id="node6" class="node"><title>Node6</title>
<g id="a_node6"><a xlink:href="classfwServices_1_1IService.html#ae9f866aee8f9f87d4759a775edcc5fd4" target="_top" xlink:title="Reconfigure the service activity when is started. ">
<polygon fill="white" stroke="black" points="144.5,-0 144.5,-30 251.5,-30 251.5,-0 144.5,-0"/>
<text text-anchor="start" x="152.5" y="-18" font-family="Helvetica,sans-Serif" font-size="10.00">fwServices::IService</text>
<text text-anchor="middle" x="198" y="-7" font-family="Helvetica,sans-Serif" font-size="10.00">::reconfiguring</text>
</a>
</g>
</g>
<!-- Node1&#45;&gt;Node6 -->
<g id="edge5" class="edge"><title>Node1&#45;&gt;Node6</title>
<path fill="none" stroke="midnightblue" d="M103.471,-43.9808C114.77,-40.4798 126.917,-36.7158 138.595,-33.0973"/>
<polygon fill="midnightblue" stroke="midnightblue" points="139.749,-36.404 148.265,-30.1009 137.677,-29.7176 139.749,-36.404"/>
</g>
<!-- Node4 -->
<g id="node4" class="node"><title>Node4</title>
<g id="a_node4"><a xlink:href="classfwTools_1_1fwID.html#a03d6d0e2227b51a0630e145911445213" target="_top" xlink:title="return full object&#39;s classname with its namespace, i.e. fwCore::BaseObject ">
<polygon fill="white" stroke="black" points="432.5,-68.5 432.5,-87.5 579.5,-87.5 579.5,-68.5 432.5,-68.5"/>
<text text-anchor="middle" x="506" y="-75.5" font-family="Helvetica,sans-Serif" font-size="10.00">fwTools::fwID::getClassname</text>
</a>
</g>
</g>
<!-- Node3&#45;&gt;Node4 -->
<g id="edge3" class="edge"><title>Node3&#45;&gt;Node4</title>
<path fill="none" stroke="midnightblue" d="M396.045,-65.2213C404.493,-66.2121 413.403,-67.2571 422.34,-68.3053"/>
<polygon fill="midnightblue" stroke="midnightblue" points="422.079,-71.7986 432.418,-69.4873 422.894,-64.8462 422.079,-71.7986"/>
</g>
<!-- Node5 -->
<g id="node5" class="node"><title>Node5</title>
<g id="a_node5"><a xlink:href="classfwTools_1_1fwID.html#a4ac18bb9c046c3fd04a4c8a80add7ae6" target="_top" xlink:title="fwTools::fwID::exist">
<polygon fill="white" stroke="black" points="453.5,-30.5 453.5,-49.5 558.5,-49.5 558.5,-30.5 453.5,-30.5"/>
<text text-anchor="middle" x="506" y="-37.5" font-family="Helvetica,sans-Serif" font-size="10.00">fwTools::fwID::exist</text>
</a>
</g>
</g>
<!-- Node3&#45;&gt;Node5 -->
<g id="edge4" class="edge"><title>Node3&#45;&gt;Node5</title>
<path fill="none" stroke="midnightblue" d="M396.045,-52.7787C411.184,-51.0031 427.808,-49.0533 443.412,-47.2233"/>
<polygon fill="midnightblue" stroke="midnightblue" points="443.968,-50.6822 453.492,-46.0411 443.152,-43.7299 443.968,-50.6822"/>
</g>
<!-- Node6&#45;&gt;Node3 -->
<g id="edge7" class="edge"><title>Node6&#45;&gt;Node3</title>
<path fill="none" stroke="midnightblue" d="M247.471,-30.0192C264.637,-35.3383 283.763,-41.2647 300.225,-46.3654"/>
<polygon fill="midnightblue" stroke="midnightblue" points="299.5,-49.8051 310.088,-49.4217 301.572,-43.1187 299.5,-49.8051"/>
</g>
<!-- Node7 -->
<g id="node7" class="node"><title>Node7</title>
<g id="a_node7"><a xlink:href="classfwServices_1_1IService.html#a44d6cd8276936262208cdf04e0cc161a" target="_top" xlink:title="return full object&#39;s classname with its namespace, i.e. fwCore::BaseObject ">
<polygon fill="white" stroke="black" points="288.5,-0 288.5,-30 395.5,-30 395.5,-0 288.5,-0"/>
<text text-anchor="start" x="296.5" y="-18" font-family="Helvetica,sans-Serif" font-size="10.00">fwServices::IService</text>
<text text-anchor="middle" x="342" y="-7" font-family="Helvetica,sans-Serif" font-size="10.00">::getClassname</text>
</a>
</g>
</g>
<!-- Node6&#45;&gt;Node7 -->
<g id="edge6" class="edge"><title>Node6&#45;&gt;Node7</title>
<path fill="none" stroke="midnightblue" d="M251.876,-15C260.377,-15 269.25,-15 277.961,-15"/>
<polygon fill="midnightblue" stroke="midnightblue" points="278.08,-18.5001 288.08,-15 278.08,-11.5001 278.08,-18.5001"/>
</g>
</g>
</svg>
