<?xml version="1.0" encoding="UTF-8" standalone="no"?>
<!DOCTYPE svg PUBLIC "-//W3C//DTD SVG 1.1//EN"
 "http://www.w3.org/Graphics/SVG/1.1/DTD/svg11.dtd">
<!-- Generated by graphviz version 2.36.0 (20140111.2315)
 -->
<!-- Title: fwGdcmIO::container::sr::DicomSRCodeNode Pages: 1 -->
<svg width="389pt" height="358pt"
 viewBox="0.00 0.00 389.00 358.00" xmlns="http://www.w3.org/2000/svg" xmlns:xlink="http://www.w3.org/1999/xlink">
<g id="graph0" class="graph" transform="scale(1 1) rotate(0) translate(4 354)">
<title>fwGdcmIO::container::sr::DicomSRCodeNode</title>
<polygon fill="white" stroke="none" points="-4,4 -4,-354 385,-354 385,4 -4,4"/>
<!-- Node1 -->
<g id="node1" class="node"><title>Node1</title>
<polygon fill="#bfbfbf" stroke="black" points="27,-1 27,-31 153,-31 153,-1 27,-1"/>
<text text-anchor="start" x="35" y="-19" font-family="Helvetica,sans-Serif" font-size="10.00">fwGdcmIO::container</text>
<text text-anchor="middle" x="90" y="-8" font-family="Helvetica,sans-Serif" font-size="10.00">::sr::DicomSRCodeNode</text>
</g>
<!-- Node2 -->
<g id="node2" class="node"><title>Node2</title>
<g id="a_node2"><a xlink:href="classfwGdcmIO_1_1container_1_1sr_1_1DicomSRNode.html" target="_top" xlink:title="This class defines a node in a SR document. ">
<polygon fill="white" stroke="black" points="134,-71 134,-101 244,-101 244,-71 134,-71"/>
<text text-anchor="start" x="142" y="-89" font-family="Helvetica,sans-Serif" font-size="10.00">fwGdcmIO::container</text>
<text text-anchor="middle" x="189" y="-78" font-family="Helvetica,sans-Serif" font-size="10.00">::sr::DicomSRNode</text>
</a>
</g>
</g>
<!-- Node2&#45;&gt;Node1 -->
<g id="edge1" class="edge"><title>Node2&#45;&gt;Node1</title>
<path fill="none" stroke="midnightblue" d="M160.061,-65.1228C144.16,-54.2009 124.816,-40.9144 110.487,-31.0716"/>
<polygon fill="midnightblue" stroke="midnightblue" points="158.263,-68.1336 168.487,-70.9104 162.226,-62.3636 158.263,-68.1336"/>
</g>
<!-- Node3 -->
<g id="node3" class="node"><title>Node3</title>
<g id="a_node3"><a xlink:href="classfwGdcmIO_1_1container_1_1DicomCodedAttribute.html" target="_top" xlink:title="This class represents a DICOM basic coded entry. It stores the four mains attributes : Code Value...">
<polygon fill="white" stroke="black" points="0,-161 0,-191 116,-191 116,-161 0,-161"/>
<text text-anchor="start" x="8" y="-179" font-family="Helvetica,sans-Serif" font-size="10.00">fwGdcmIO::container</text>
<text text-anchor="middle" x="58" y="-168" font-family="Helvetica,sans-Serif" font-size="10.00">::DicomCodedAttribute</text>
</a>
</g>
</g>
<!-- Node3&#45;&gt;Node1 -->
<g id="edge8" class="edge"><title>Node3&#45;&gt;Node1</title>
<path fill="none" stroke="#9a32cd" stroke-dasharray="5,2" d="M54.3724,-150.788C51.9817,-129.18 50.5115,-96.8909 58,-70 61.9792,-55.7108 70.9671,-41.426 78.4075,-31.2931"/>
<polygon fill="#9a32cd" stroke="#9a32cd" points="50.9044,-151.263 55.6242,-160.748 57.8497,-150.39 50.9044,-151.263"/>
<text text-anchor="middle" x="91.5" y="-83.5" font-family="Helvetica,sans-Serif" font-size="10.00"> m_codedEntry</text>
</g>
<!-- Node3&#45;&gt;Node2 -->
<g id="edge2" class="edge"><title>Node3&#45;&gt;Node2</title>
<path fill="none" stroke="#9a32cd" stroke-dasharray="5,2" d="M71.8198,-151.866C79.3045,-140.964 89.3955,-128.515 101,-120 111.787,-112.085 124.693,-105.855 137.253,-101.042"/>
<polygon fill="#9a32cd" stroke="#9a32cd" points="68.6954,-150.25 66.1697,-160.54 74.5607,-154.071 68.6954,-150.25"/>
<text text-anchor="middle" x="141" y="-128.5" font-family="Helvetica,sans-Serif" font-size="10.00"> m_codedAttribute</text>
</g>
<!-- Node4 -->
<g id="node4" class="node"><title>Node4</title>
<g id="a_node4"><a xlink:title="STL class. ">
<polygon fill="white" stroke="#bfbfbf" points="152,-166.5 152,-185.5 212,-185.5 212,-166.5 152,-166.5"/>
<text text-anchor="middle" x="182" y="-173.5" font-family="Helvetica,sans-Serif" font-size="10.00">std::string</text>
</a>
</g>
</g>
<!-- Node4&#45;&gt;Node2 -->
<g id="edge3" class="edge"><title>Node4&#45;&gt;Node2</title>
<path fill="none" stroke="#9a32cd" stroke-dasharray="5,2" d="M183.498,-156.163C184.808,-139.693 186.682,-116.138 187.87,-101.209"/>
<polygon fill="#9a32cd" stroke="#9a32cd" points="180.001,-155.994 182.697,-166.241 186.979,-156.55 180.001,-155.994"/>
<text text-anchor="middle" x="220.5" y="-134" font-family="Helvetica,sans-Serif" font-size="10.00"> m_relationship</text>
<text text-anchor="middle" x="220.5" y="-123" font-family="Helvetica,sans-Serif" font-size="10.00">m_type</text>
</g>
<!-- Node5 -->
<g id="node5" class="node"><title>Node5</title>
<g id="a_node5"><a xlink:title="STL class. ">
<polygon fill="white" stroke="#bfbfbf" points="134.5,-251 134.5,-281 229.5,-281 229.5,-251 134.5,-251"/>
<text text-anchor="start" x="142.5" y="-269" font-family="Helvetica,sans-Serif" font-size="10.00">std::basic_string&lt;</text>
<text text-anchor="middle" x="182" y="-258" font-family="Helvetica,sans-Serif" font-size="10.00"> char &gt;</text>
</a>
</g>
</g>
<!-- Node5&#45;&gt;Node4 -->
<g id="edge4" class="edge"><title>Node5&#45;&gt;Node4</title>
<path fill="none" stroke="midnightblue" d="M182,-240.834C182,-222.43 182,-198.172 182,-185.515"/>
<polygon fill="midnightblue" stroke="midnightblue" points="178.5,-240.861 182,-250.861 185.5,-240.861 178.5,-240.861"/>
</g>
<!-- Node6 -->
<g id="node6" class="node"><title>Node6</title>
<polygon fill="white" stroke="#bfbfbf" points="230,-161 230,-191 356,-191 356,-161 230,-161"/>
<text text-anchor="start" x="238" y="-179" font-family="Helvetica,sans-Serif" font-size="10.00">std::vector&lt; std::shared</text>
<text text-anchor="middle" x="293" y="-168" font-family="Helvetica,sans-Serif" font-size="10.00">_ptr&lt; DicomSRNode &gt; &gt;</text>
</g>
<!-- Node6&#45;&gt;Node2 -->
<g id="edge5" class="edge"><title>Node6&#45;&gt;Node2</title>
<path fill="none" stroke="#9a32cd" stroke-dasharray="5,2" d="M282.101,-151.885C276.152,-141.143 267.959,-128.824 258,-120 249.354,-112.338 238.615,-106.073 228.205,-101.14"/>
<polygon fill="#9a32cd" stroke="#9a32cd" points="279.016,-153.54 286.739,-160.793 285.225,-150.307 279.016,-153.54"/>
<text text-anchor="middle" x="326" y="-128.5" font-family="Helvetica,sans-Serif" font-size="10.00"> m_subNodeContainer</text>
</g>
<!-- Node7 -->
<g id="node7" class="node"><title>Node7</title>
<g id="a_node7"><a xlink:title="STL class. ">
<polygon fill="white" stroke="#bfbfbf" points="249.5,-256.5 249.5,-275.5 336.5,-275.5 336.5,-256.5 249.5,-256.5"/>
<text text-anchor="middle" x="293" y="-263.5" font-family="Helvetica,sans-Serif" font-size="10.00">std::vector&lt; T &gt;</text>
</a>
</g>
</g>
<!-- Node7&#45;&gt;Node6 -->
<g id="edge6" class="edge"><title>Node7&#45;&gt;Node6</title>
<path fill="none" stroke="orange" stroke-dasharray="5,2" d="M293,-246.163C293,-229.693 293,-206.138 293,-191.209"/>
<polygon fill="orange" stroke="orange" points="289.5,-246.24 293,-256.241 296.5,-246.241 289.5,-246.24"/>
<text text-anchor="start" x="293" y="-224" font-family="Helvetica,sans-Serif" font-size="10.00"> &lt; std::shared_ptr&lt;</text>
<text text-anchor="middle" x="337" y="-213" font-family="Helvetica,sans-Serif" font-size="10.00"> DicomSRNode &gt; &gt;</text>
</g>
<!-- Node8 -->
<g id="node8" class="node"><title>Node8</title>
<polygon fill="white" stroke="#bfbfbf" points="278.5,-330.5 278.5,-349.5 307.5,-349.5 307.5,-330.5 278.5,-330.5"/>
<text text-anchor="middle" x="293" y="-337.5" font-family="Helvetica,sans-Serif" font-size="10.00">T</text>
</g>
<!-- Node8&#45;&gt;Node7 -->
<g id="edge7" class="edge"><title>Node8&#45;&gt;Node7</title>
<path fill="none" stroke="#9a32cd" stroke-dasharray="5,2" d="M293,-320.156C293,-305.712 293,-286.459 293,-275.531"/>
<polygon fill="#9a32cd" stroke="#9a32cd" points="289.5,-320.458 293,-330.458 296.5,-320.458 289.5,-320.458"/>
<text text-anchor="middle" x="314.5" y="-303.5" font-family="Helvetica,sans-Serif" font-size="10.00"> elements</text>
</g>
</g>
</svg>
