<?xml version="1.0" encoding="UTF-8" standalone="no"?>
<!DOCTYPE svg PUBLIC "-//W3C//DTD SVG 1.1//EN"
 "http://www.w3.org/Graphics/SVG/1.1/DTD/svg11.dtd">
<!-- Generated by graphviz version 2.36.0 (20140111.2315)
 -->
<!-- Title: fwDataTools::TransformationMatrix3D::identity Pages: 1 -->
<svg width="468pt" height="109pt"
 viewBox="0.00 0.00 468.00 109.00" xmlns="http://www.w3.org/2000/svg" xmlns:xlink="http://www.w3.org/1999/xlink">
<g id="graph0" class="graph" transform="scale(1 1) rotate(0) translate(4 105)">
<title>fwDataTools::TransformationMatrix3D::identity</title>
<polygon fill="white" stroke="none" points="-4,4 -4,-105 464,-105 464,4 -4,4"/>
<!-- Node1 -->
<g id="node1" class="node"><title>Node1</title>
<polygon fill="#bfbfbf" stroke="black" points="0.5,-35 0.5,-65 143.5,-65 143.5,-35 0.5,-35"/>
<text text-anchor="start" x="8.5" y="-53" font-family="Helvetica,sans-Serif" font-size="10.00">fwDataTools::Transformation</text>
<text text-anchor="middle" x="72" y="-42" font-family="Helvetica,sans-Serif" font-size="10.00">Matrix3D::identity</text>
</g>
<!-- Node2 -->
<g id="node2" class="node"><title>Node2</title>
<g id="a_node2"><a xlink:href="classuiMedDataQt_1_1editor_1_1SOrganTransformation.html#a75b41e9dabce930f6352c48fdeec0fbf" target="_top" xlink:title="Perform some computations according to object (this service is attached to) attribute values and its ...">
<polygon fill="white" stroke="black" points="180.5,-29.5 180.5,-70.5 301.5,-70.5 301.5,-29.5 180.5,-29.5"/>
<text text-anchor="start" x="188.5" y="-58.5" font-family="Helvetica,sans-Serif" font-size="10.00">uiMedDataQt::editor</text>
<text text-anchor="start" x="188.5" y="-47.5" font-family="Helvetica,sans-Serif" font-size="10.00">::SOrganTransformation</text>
<text text-anchor="middle" x="241" y="-36.5" font-family="Helvetica,sans-Serif" font-size="10.00">::updating</text>
</a>
</g>
</g>
<!-- Node1&#45;&gt;Node2 -->
<g id="edge1" class="edge"><title>Node1&#45;&gt;Node2</title>
<path fill="none" stroke="midnightblue" d="M153.874,-50C162.812,-50 171.789,-50 180.396,-50"/>
<polygon fill="midnightblue" stroke="midnightblue" points="153.823,-46.5001 143.823,-50 153.823,-53.5001 153.823,-46.5001"/>
</g>
<!-- Node3 -->
<g id="node3" class="node"><title>Node3</title>
<g id="a_node3"><a xlink:href="classuiMedDataQt_1_1editor_1_1SOrganTransformation.html#ad5ae3fca60d26cabff8a1b500d0f27e7" target="_top" xlink:title="Initialize the service activity. ">
<polygon fill="white" stroke="black" points="338.5,-59.5 338.5,-100.5 459.5,-100.5 459.5,-59.5 338.5,-59.5"/>
<text text-anchor="start" x="346.5" y="-88.5" font-family="Helvetica,sans-Serif" font-size="10.00">uiMedDataQt::editor</text>
<text text-anchor="start" x="346.5" y="-77.5" font-family="Helvetica,sans-Serif" font-size="10.00">::SOrganTransformation</text>
<text text-anchor="middle" x="399" y="-66.5" font-family="Helvetica,sans-Serif" font-size="10.00">::starting</text>
</a>
</g>
</g>
<!-- Node2&#45;&gt;Node3 -->
<g id="edge2" class="edge"><title>Node2&#45;&gt;Node3</title>
<path fill="none" stroke="midnightblue" d="M311.775,-63.4182C320.625,-65.1203 329.619,-66.8498 338.293,-68.5178"/>
<polygon fill="midnightblue" stroke="midnightblue" points="312.349,-59.9645 301.868,-61.513 311.027,-66.8386 312.349,-59.9645"/>
</g>
<!-- Node4 -->
<g id="node4" class="node"><title>Node4</title>
<g id="a_node4"><a xlink:href="classuiMedDataQt_1_1editor_1_1SOrganTransformation.html#a54cda0a3d159d619cff705761e798b6c" target="_top" xlink:title="Swap the service from associated object to another object. ">
<polygon fill="white" stroke="black" points="338.5,0.5 338.5,-40.5 459.5,-40.5 459.5,0.5 338.5,0.5"/>
<text text-anchor="start" x="346.5" y="-28.5" font-family="Helvetica,sans-Serif" font-size="10.00">uiMedDataQt::editor</text>
<text text-anchor="start" x="346.5" y="-17.5" font-family="Helvetica,sans-Serif" font-size="10.00">::SOrganTransformation</text>
<text text-anchor="middle" x="399" y="-6.5" font-family="Helvetica,sans-Serif" font-size="10.00">::swapping</text>
</a>
</g>
</g>
<!-- Node2&#45;&gt;Node4 -->
<g id="edge3" class="edge"><title>Node2&#45;&gt;Node4</title>
<path fill="none" stroke="midnightblue" d="M311.775,-36.5818C320.625,-34.8797 329.619,-33.1502 338.293,-31.4822"/>
<polygon fill="midnightblue" stroke="midnightblue" points="311.027,-33.1614 301.868,-38.487 312.349,-40.0355 311.027,-33.1614"/>
</g>
</g>
</svg>
