<?xml version="1.0" encoding="UTF-8" standalone="no"?>
<!DOCTYPE svg PUBLIC "-//W3C//DTD SVG 1.1//EN"
 "http://www.w3.org/Graphics/SVG/1.1/DTD/svg11.dtd">
<!-- Generated by graphviz version 2.36.0 (20140111.2315)
 -->
<!-- Title: fwDataIO::writer::MeshWriter Pages: 1 -->
<svg width="1070pt" height="125pt"
 viewBox="0.00 0.00 1070.00 125.00" xmlns="http://www.w3.org/2000/svg" xmlns:xlink="http://www.w3.org/1999/xlink">
<g id="graph0" class="graph" transform="scale(1 1) rotate(0) translate(4 121)">
<title>fwDataIO::writer::MeshWriter</title>
<polygon fill="white" stroke="none" points="-4,4 -4,-121 1066,-121 1066,4 -4,4"/>
<!-- Node1 -->
<g id="node1" class="node"><title>Node1</title>
<polygon fill="#bfbfbf" stroke="black" points="916.5,-45.5 916.5,-64.5 1061.5,-64.5 1061.5,-45.5 916.5,-45.5"/>
<text text-anchor="middle" x="989" y="-52.5" font-family="Helvetica,sans-Serif" font-size="10.00">fwDataIO::writer::MeshWriter</text>
</g>
<!-- Node2 -->
<g id="node2" class="node"><title>Node2</title>
<g id="a_node2"><a xlink:href="classfwDataIO_1_1writer_1_1GenericObjectWriter.html" target="_top" xlink:title="fwDataIO::writer::Generic\lObjectWriter\&lt; ::fwData\l::Mesh \&gt;">
<polygon fill="white" stroke="black" points="750,-60.5 750,-101.5 878,-101.5 878,-60.5 750,-60.5"/>
<text text-anchor="start" x="758" y="-89.5" font-family="Helvetica,sans-Serif" font-size="10.00">fwDataIO::writer::Generic</text>
<text text-anchor="start" x="758" y="-78.5" font-family="Helvetica,sans-Serif" font-size="10.00">ObjectWriter&lt; ::fwData</text>
<text text-anchor="middle" x="814" y="-67.5" font-family="Helvetica,sans-Serif" font-size="10.00">::Mesh &gt;</text>
</a>
</g>
</g>
<!-- Node2&#45;&gt;Node1 -->
<g id="edge1" class="edge"><title>Node2&#45;&gt;Node1</title>
<path fill="none" stroke="midnightblue" d="M888.432,-69.964C900.453,-68.1574 912.819,-66.2989 924.571,-64.5327"/>
<polygon fill="midnightblue" stroke="midnightblue" points="887.805,-66.5188 878.436,-71.4662 888.846,-73.441 887.805,-66.5188"/>
</g>
<!-- Node3 -->
<g id="node3" class="node"><title>Node3</title>
<g id="a_node3"><a xlink:href="classfwDataIO_1_1writer_1_1IObjectWriter.html" target="_top" xlink:title="Base class for all object writers. ">
<polygon fill="white" stroke="black" points="314,-87 314,-117 440,-117 440,-87 314,-87"/>
<text text-anchor="start" x="322" y="-105" font-family="Helvetica,sans-Serif" font-size="10.00">fwDataIO::writer::IObject</text>
<text text-anchor="middle" x="377" y="-94" font-family="Helvetica,sans-Serif" font-size="10.00">Writer</text>
</a>
</g>
</g>
<!-- Node3&#45;&gt;Node2 -->
<g id="edge2" class="edge"><title>Node3&#45;&gt;Node2</title>
<path fill="none" stroke="midnightblue" d="M450.499,-104.113C522.206,-105.37 634.974,-105.103 732,-95 737.82,-94.394 743.853,-93.6231 749.882,-92.7555"/>
<polygon fill="midnightblue" stroke="midnightblue" points="450.288,-100.609 440.224,-103.918 450.155,-107.608 450.288,-100.609"/>
</g>
<!-- Node6 -->
<g id="node6" class="node"><title>Node6</title>
<g id="a_node6"><a xlink:href="classfwDataIO_1_1writer_1_1GenericObjectWriter.html" target="_top" xlink:title="generic class for all object writers. ">
<polygon fill="white" stroke="black" points="478.5,-60 478.5,-90 621.5,-90 621.5,-60 478.5,-60"/>
<text text-anchor="start" x="486.5" y="-78" font-family="Helvetica,sans-Serif" font-size="10.00">fwDataIO::writer::Generic</text>
<text text-anchor="middle" x="550" y="-67" font-family="Helvetica,sans-Serif" font-size="10.00">ObjectWriter&lt; DATATYPE &gt;</text>
</a>
</g>
</g>
<!-- Node3&#45;&gt;Node6 -->
<g id="edge6" class="edge"><title>Node3&#45;&gt;Node6</title>
<path fill="none" stroke="midnightblue" d="M450.24,-90.5938C459.573,-89.1201 469.122,-87.6123 478.428,-86.143"/>
<polygon fill="midnightblue" stroke="midnightblue" points="449.55,-87.1591 440.219,-92.176 450.642,-94.0735 449.55,-87.1591"/>
</g>
<!-- Node4 -->
<g id="node4" class="node"><title>Node4</title>
<g id="a_node4"><a xlink:href="classfwCore_1_1BaseObject.html" target="_top" xlink:title="Base class for all FW4SPL&#39;s classes. ">
<polygon fill="white" stroke="black" points="170.5,-92.5 170.5,-111.5 275.5,-111.5 275.5,-92.5 170.5,-92.5"/>
<text text-anchor="middle" x="223" y="-99.5" font-family="Helvetica,sans-Serif" font-size="10.00">fwCore::BaseObject</text>
</a>
</g>
</g>
<!-- Node4&#45;&gt;Node3 -->
<g id="edge3" class="edge"><title>Node4&#45;&gt;Node3</title>
<path fill="none" stroke="midnightblue" d="M286.081,-102C295.243,-102 304.685,-102 313.849,-102"/>
<polygon fill="midnightblue" stroke="midnightblue" points="285.885,-98.5001 275.885,-102 285.885,-105.5 285.885,-98.5001"/>
</g>
<!-- Node5 -->
<g id="node5" class="node"><title>Node5</title>
<polygon fill="white" stroke="#bfbfbf" points="0.5,-87 0.5,-117 131.5,-117 131.5,-87 0.5,-87"/>
<text text-anchor="start" x="8.5" y="-105" font-family="Helvetica,sans-Serif" font-size="10.00">std::enable_shared</text>
<text text-anchor="middle" x="66" y="-94" font-family="Helvetica,sans-Serif" font-size="10.00">_from_this&lt; BaseObject &gt;</text>
</g>
<!-- Node5&#45;&gt;Node4 -->
<g id="edge4" class="edge"><title>Node5&#45;&gt;Node4</title>
<path fill="none" stroke="midnightblue" d="M142.089,-102C151.581,-102 161.12,-102 170.138,-102"/>
<polygon fill="midnightblue" stroke="midnightblue" points="141.836,-98.5001 131.836,-102 141.836,-105.5 141.836,-98.5001"/>
</g>
<!-- Node6&#45;&gt;Node2 -->
<g id="edge5" class="edge"><title>Node6&#45;&gt;Node2</title>
<path fill="none" stroke="orange" stroke-dasharray="5,2" d="M631.586,-76.8455C669.64,-77.717 714.393,-78.7418 749.927,-79.5556"/>
<polygon fill="orange" stroke="orange" points="631.633,-73.3457 621.556,-76.6158 631.473,-80.3439 631.633,-73.3457"/>
<text text-anchor="middle" x="686" y="-83" font-family="Helvetica,sans-Serif" font-size="10.00"> &lt; ::fwData::Mesh &gt;</text>
</g>
<!-- Node7 -->
<g id="node7" class="node"><title>Node7</title>
<g id="a_node7"><a xlink:href="structfwData_1_1location_1_1enableSingleFile.html" target="_top" xlink:title="fwData::location::enable\lSingleFile\&lt; ::fwDataIO\l::writer::IObjectWriter \&gt;">
<polygon fill="white" stroke="black" points="753,-0.5 753,-41.5 875,-41.5 875,-0.5 753,-0.5"/>
<text text-anchor="start" x="761" y="-29.5" font-family="Helvetica,sans-Serif" font-size="10.00">fwData::location::enable</text>
<text text-anchor="start" x="761" y="-18.5" font-family="Helvetica,sans-Serif" font-size="10.00">SingleFile&lt; ::fwDataIO</text>
<text text-anchor="middle" x="814" y="-7.5" font-family="Helvetica,sans-Serif" font-size="10.00">::writer::IObjectWriter &gt;</text>
</a>
</g>
</g>
<!-- Node7&#45;&gt;Node1 -->
<g id="edge7" class="edge"><title>Node7&#45;&gt;Node1</title>
<path fill="none" stroke="midnightblue" d="M885.051,-34.7672C903.331,-38.3599 922.63,-42.1526 939.515,-45.4712"/>
<polygon fill="midnightblue" stroke="midnightblue" points="885.509,-31.2903 875.021,-32.7961 884.159,-38.1589 885.509,-31.2903"/>
</g>
<!-- Node8 -->
<g id="node8" class="node"><title>Node8</title>
<g id="a_node8"><a xlink:href="structfwData_1_1location_1_1enableSingleFile.html" target="_top" xlink:title="This class is derived by reader/writer. ">
<polygon fill="white" stroke="black" points="489,-6 489,-36 611,-36 611,-6 489,-6"/>
<text text-anchor="start" x="497" y="-24" font-family="Helvetica,sans-Serif" font-size="10.00">fwData::location::enable</text>
<text text-anchor="middle" x="550" y="-13" font-family="Helvetica,sans-Serif" font-size="10.00">SingleFile&lt; RW &gt;</text>
</a>
</g>
</g>
<!-- Node8&#45;&gt;Node7 -->
<g id="edge8" class="edge"><title>Node8&#45;&gt;Node7</title>
<path fill="none" stroke="orange" stroke-dasharray="5,2" d="M621.305,-21C662.328,-21 713.547,-21 752.718,-21"/>
<polygon fill="orange" stroke="orange" points="621.108,-17.5001 611.108,-21 621.108,-24.5001 621.108,-17.5001"/>
<text text-anchor="start" x="640.5" y="-35" font-family="Helvetica,sans-Serif" font-size="10.00"> &lt; ::fwDataIO::writer</text>
<text text-anchor="middle" x="686" y="-24" font-family="Helvetica,sans-Serif" font-size="10.00">::IObjectWriter &gt;</text>
</g>
</g>
</svg>
