<?xml version="1.0" encoding="UTF-8" standalone="no"?>
<!DOCTYPE svg PUBLIC "-//W3C//DTD SVG 1.1//EN"
 "http://www.w3.org/Graphics/SVG/1.1/DTD/svg11.dtd">
<!-- Generated by graphviz version 2.36.0 (20140111.2315)
 -->
<!-- Title: fwData::ProcessObject::setInputValue Pages: 1 -->
<svg width="284pt" height="38pt"
 viewBox="0.00 0.00 284.00 38.00" xmlns="http://www.w3.org/2000/svg" xmlns:xlink="http://www.w3.org/1999/xlink">
<g id="graph0" class="graph" transform="scale(1 1) rotate(0) translate(4 34)">
<title>fwData::ProcessObject::setInputValue</title>
<polygon fill="white" stroke="none" points="-4,4 -4,-34 280,-34 280,4 -4,4"/>
<!-- Node1 -->
<g id="node1" class="node"><title>Node1</title>
<polygon fill="#bfbfbf" stroke="black" points="0.5,-0 0.5,-30 119.5,-30 119.5,-0 0.5,-0"/>
<text text-anchor="start" x="8.5" y="-18" font-family="Helvetica,sans-Serif" font-size="10.00">fwData::ProcessObject</text>
<text text-anchor="middle" x="60" y="-7" font-family="Helvetica,sans-Serif" font-size="10.00">::setInputValue</text>
</g>
<!-- Node2 -->
<g id="node2" class="node"><title>Node2</title>
<g id="a_node2"><a xlink:href="classfwData_1_1ProcessObject.html#a3b7cfa36887a9205fb672cbdd6fbf9e2" target="_top" xlink:title="Register value with specified name in params map. If the name does already exist, the matching value ...">
<polygon fill="white" stroke="black" points="156.5,-0 156.5,-30 275.5,-30 275.5,-0 156.5,-0"/>
<text text-anchor="start" x="164.5" y="-18" font-family="Helvetica,sans-Serif" font-size="10.00">fwData::ProcessObject</text>
<text text-anchor="middle" x="216" y="-7" font-family="Helvetica,sans-Serif" font-size="10.00">::setValue</text>
</a>
</g>
</g>
<!-- Node1&#45;&gt;Node2 -->
<g id="edge1" class="edge"><title>Node1&#45;&gt;Node2</title>
<path fill="none" stroke="midnightblue" d="M119.66,-15C128.274,-15 137.214,-15 146.012,-15"/>
<polygon fill="midnightblue" stroke="midnightblue" points="146.248,-18.5001 156.248,-15 146.248,-11.5001 146.248,-18.5001"/>
</g>
</g>
</svg>
