<?xml version="1.0" encoding="UTF-8" standalone="no"?>
<!DOCTYPE svg PUBLIC "-//W3C//DTD SVG 1.1//EN"
 "http://www.w3.org/Graphics/SVG/1.1/DTD/svg11.dtd">
<!-- Generated by graphviz version 2.36.0 (20140111.2315)
 -->
<!-- Title: fwDataTools::fieldHelper::MedicalImageHelpers::getImageSliceIndices Pages: 1 -->
<svg width="456pt" height="48pt"
 viewBox="0.00 0.00 456.00 48.00" xmlns="http://www.w3.org/2000/svg" xmlns:xlink="http://www.w3.org/1999/xlink">
<g id="graph0" class="graph" transform="scale(1 1) rotate(0) translate(4 44)">
<title>fwDataTools::fieldHelper::MedicalImageHelpers::getImageSliceIndices</title>
<polygon fill="white" stroke="none" points="-4,4 -4,-44 452,-44 452,4 -4,4"/>
<!-- Node1 -->
<g id="node1" class="node"><title>Node1</title>
<polygon fill="#bfbfbf" stroke="black" points="0.5,0.5 0.5,-40.5 125.5,-40.5 125.5,0.5 0.5,0.5"/>
<text text-anchor="start" x="8.5" y="-28.5" font-family="Helvetica,sans-Serif" font-size="10.00">fwDataTools::fieldHelper</text>
<text text-anchor="start" x="8.5" y="-17.5" font-family="Helvetica,sans-Serif" font-size="10.00">::MedicalImageHelpers::</text>
<text text-anchor="middle" x="63" y="-6.5" font-family="Helvetica,sans-Serif" font-size="10.00">getImageSliceIndices</text>
</g>
<!-- Node2 -->
<g id="node2" class="node"><title>Node2</title>
<g id="a_node2"><a xlink:href="classfwDataTools_1_1fieldHelper_1_1MedicalImageHelpers.html#a79b9d580bb99d0061a1f2d5f44947aa6" target="_top" xlink:title="Check if the image has slice index fields. ">
<polygon fill="white" stroke="black" points="162.5,0.5 162.5,-40.5 287.5,-40.5 287.5,0.5 162.5,0.5"/>
<text text-anchor="start" x="170.5" y="-28.5" font-family="Helvetica,sans-Serif" font-size="10.00">fwDataTools::fieldHelper</text>
<text text-anchor="start" x="170.5" y="-17.5" font-family="Helvetica,sans-Serif" font-size="10.00">::MedicalImageHelpers::</text>
<text text-anchor="middle" x="225" y="-6.5" font-family="Helvetica,sans-Serif" font-size="10.00">checkImageSliceIndex</text>
</a>
</g>
</g>
<!-- Node1&#45;&gt;Node2 -->
<g id="edge1" class="edge"><title>Node1&#45;&gt;Node2</title>
<path fill="none" stroke="midnightblue" d="M125.86,-20C134.456,-20 143.347,-20 152.107,-20"/>
<polygon fill="midnightblue" stroke="midnightblue" points="152.304,-23.5001 162.304,-20 152.304,-16.5001 152.304,-23.5001"/>
</g>
<!-- Node3 -->
<g id="node3" class="node"><title>Node3</title>
<g id="a_node3"><a xlink:href="classfwData_1_1Object.html#aae27dde59033498f834b888b0f19488d" target="_top" xlink:title="Returns a pointer of corresponding field (null if non exist). ">
<polygon fill="white" stroke="black" points="324.5,-10.5 324.5,-29.5 447.5,-29.5 447.5,-10.5 324.5,-10.5"/>
<text text-anchor="middle" x="386" y="-17.5" font-family="Helvetica,sans-Serif" font-size="10.00">fwData::Object::getField</text>
</a>
</g>
</g>
<!-- Node2&#45;&gt;Node3 -->
<g id="edge2" class="edge"><title>Node2&#45;&gt;Node3</title>
<path fill="none" stroke="midnightblue" d="M287.929,-20C296.515,-20 305.389,-20 314.122,-20"/>
<polygon fill="midnightblue" stroke="midnightblue" points="314.285,-23.5001 324.285,-20 314.285,-16.5001 314.285,-23.5001"/>
</g>
</g>
</svg>
