<?xml version="1.0" encoding="UTF-8" standalone="no"?>
<!DOCTYPE svg PUBLIC "-//W3C//DTD SVG 1.1//EN"
 "http://www.w3.org/Graphics/SVG/1.1/DTD/svg11.dtd">
<!-- Generated by graphviz version 2.26.3 (20100126.1600)
 -->
<!-- Title: fwCom::Slot&lt; R(A...) &gt; Pages: 1 -->
<svg width="1238pt" height="134pt"
 viewBox="0.00 0.00 1238.00 134.00" xmlns="http://www.w3.org/2000/svg" xmlns:xlink="http://www.w3.org/1999/xlink">
<g id="graph1" class="graph" transform="scale(1 1) rotate(0) translate(4 130)">
<title>fwCom::Slot&lt; R(A...) &gt;</title>
<polygon fill="white" stroke="white" points="-4,5 -4,-130 1235,-130 1235,5 -4,5"/>
<!-- Node1 -->
<g id="node1" class="node"><title>Node1</title>
<polygon fill="#bfbfbf" stroke="black" points="1110.5,-52.5 1110.5,-73.5 1229.5,-73.5 1229.5,-52.5 1110.5,-52.5"/>
<text text-anchor="middle" x="1170" y="-60.5" font-family="Helvetica,sans-Serif" font-size="10.00">fwCom::Slot&lt; R(A...) &gt;</text>
</g>
<!-- Node2 -->
<g id="node2" class="node"><title>Node2</title>
<a xlink:href="structfwCom_1_1SlotCall_3_01R_07A_8_8_8_08_01_4.html" target="_top" xlink:title="Slot call interface (call with return value). ">
<polygon fill="white" stroke="black" points="966.5,-46 966.5,-80 1071.5,-80 1071.5,-46 966.5,-46"/>
<text text-anchor="start" x="974.5" y="-67" font-family="Helvetica,sans-Serif" font-size="10.00">fwCom::SlotCall&lt; R</text>
<text text-anchor="middle" x="1019" y="-54" font-family="Helvetica,sans-Serif" font-size="10.00">(A...) &gt;</text>
</a>
</g>
<!-- Node2&#45;&gt;Node1 -->
<g id="edge2" class="edge"><title>Node2&#45;&gt;Node1</title>
<path fill="none" stroke="midnightblue" d="M1081.87,-63C1091.26,-63 1100.92,-63 1110.25,-63"/>
<polygon fill="midnightblue" stroke="midnightblue" points="1081.81,-59.5001 1071.81,-63 1081.81,-66.5001 1081.81,-59.5001"/>
</g>
<!-- Node3 -->
<g id="node4" class="node"><title>Node3</title>
<a xlink:href="structfwCom_1_1SlotRun_3_01void_07A_8_8_8_08_01_4.html" target="_top" xlink:title="Slot run interface (call without return value). ">
<polygon fill="white" stroke="black" points="812,-46 812,-80 928,-80 928,-46 812,-46"/>
<text text-anchor="start" x="820" y="-67" font-family="Helvetica,sans-Serif" font-size="10.00">fwCom::SlotRun&lt; void</text>
<text text-anchor="middle" x="870" y="-54" font-family="Helvetica,sans-Serif" font-size="10.00">(A...) &gt;</text>
</a>
</g>
<!-- Node3&#45;&gt;Node2 -->
<g id="edge4" class="edge"><title>Node3&#45;&gt;Node2</title>
<path fill="none" stroke="midnightblue" d="M938.172,-63C947.591,-63 957.146,-63 966.229,-63"/>
<polygon fill="midnightblue" stroke="midnightblue" points="938.034,-59.5001 928.034,-63 938.034,-66.5001 938.034,-59.5001"/>
</g>
<!-- Node4 -->
<g id="node6" class="node"><title>Node4</title>
<a xlink:href="structfwCom_1_1SlotBase.html" target="_top" xlink:title="Base class for Slot implementations. ">
<polygon fill="white" stroke="black" points="680,-52.5 680,-73.5 774,-73.5 774,-52.5 680,-52.5"/>
<text text-anchor="middle" x="727" y="-60.5" font-family="Helvetica,sans-Serif" font-size="10.00">fwCom::SlotBase</text>
</a>
</g>
<!-- Node4&#45;&gt;Node3 -->
<g id="edge6" class="edge"><title>Node4&#45;&gt;Node3</title>
<path fill="none" stroke="midnightblue" d="M784.298,-63C793.372,-63 802.765,-63 811.859,-63"/>
<polygon fill="midnightblue" stroke="midnightblue" points="784.22,-59.5001 774.22,-63 784.22,-66.5001 784.22,-59.5001"/>
</g>
<!-- Node5 -->
<g id="node8" class="node"><title>Node5</title>
<a xlink:href="classfwCore_1_1BaseObject.html" target="_top" xlink:title="Base class for all FW4SPL&#39;s classes. ">
<polygon fill="white" stroke="black" points="433.5,-98.5 433.5,-119.5 538.5,-119.5 538.5,-98.5 433.5,-98.5"/>
<text text-anchor="middle" x="486" y="-106.5" font-family="Helvetica,sans-Serif" font-size="10.00">fwCore::BaseObject</text>
</a>
</g>
<!-- Node5&#45;&gt;Node4 -->
<g id="edge8" class="edge"><title>Node5&#45;&gt;Node4</title>
<path fill="none" stroke="midnightblue" d="M548.78,-100.098C582.487,-94.9564 624.667,-87.9399 662,-80 670.785,-78.1316 680.166,-75.8492 688.989,-73.5708"/>
<polygon fill="midnightblue" stroke="midnightblue" points="547.972,-96.6805 538.606,-101.633 549.016,-103.602 547.972,-96.6805"/>
</g>
<!-- Node6 -->
<g id="node10" class="node"><title>Node6</title>
<polygon fill="white" stroke="#bfbfbf" points="92.5,-92 92.5,-126 223.5,-126 223.5,-92 92.5,-92"/>
<text text-anchor="start" x="100.5" y="-113" font-family="Helvetica,sans-Serif" font-size="10.00">std::enable_shared</text>
<text text-anchor="middle" x="158" y="-100" font-family="Helvetica,sans-Serif" font-size="10.00">_from_this&lt; BaseObject &gt;</text>
</g>
<!-- Node6&#45;&gt;Node5 -->
<g id="edge10" class="edge"><title>Node6&#45;&gt;Node5</title>
<path fill="none" stroke="midnightblue" d="M233.963,-109C295.152,-109 379.578,-109 433.486,-109"/>
<polygon fill="midnightblue" stroke="midnightblue" points="233.587,-105.5 223.587,-109 233.587,-112.5 233.587,-105.5"/>
</g>
<!-- Node7 -->
<g id="node12" class="node"><title>Node7</title>
<polygon fill="white" stroke="#bfbfbf" points="398,-46 398,-80 574,-80 574,-46 398,-46"/>
<text text-anchor="start" x="406" y="-67" font-family="Helvetica,sans-Serif" font-size="10.00">std::set&lt; std::shared</text>
<text text-anchor="middle" x="486" y="-54" font-family="Helvetica,sans-Serif" font-size="10.00">_ptr&lt; const SlotConnectionBase &gt; &gt;</text>
</g>
<!-- Node7&#45;&gt;Node4 -->
<g id="edge12" class="edge"><title>Node7&#45;&gt;Node4</title>
<path fill="none" stroke="#9a32cd" stroke-dasharray="5,2" d="M584.186,-63C617.19,-63 652.508,-63 679.765,-63"/>
<polygon fill="#9a32cd" stroke="#9a32cd" points="584.03,-59.5001 574.03,-63 584.029,-66.5001 584.03,-59.5001"/>
<text text-anchor="middle" x="627" y="-67" font-family="Helvetica,sans-Serif" font-size="10.00"> m_connections</text>
</g>
<!-- Node8 -->
<g id="node14" class="node"><title>Node8</title>
<a xlink:title="STL class. ">
<polygon fill="white" stroke="#bfbfbf" points="121,-52.5 121,-73.5 195,-73.5 195,-52.5 121,-52.5"/>
<text text-anchor="middle" x="158" y="-60.5" font-family="Helvetica,sans-Serif" font-size="10.00">std::set&lt; K &gt;</text>
</a>
</g>
<!-- Node8&#45;&gt;Node7 -->
<g id="edge14" class="edge"><title>Node8&#45;&gt;Node7</title>
<path fill="none" stroke="orange" stroke-dasharray="5,2" d="M205.549,-63C255.771,-63 336.089,-63 397.926,-63"/>
<polygon fill="orange" stroke="orange" points="205.306,-59.5001 195.306,-63 205.306,-66.5001 205.306,-59.5001"/>
<text text-anchor="start" x="242" y="-80" font-family="Helvetica,sans-Serif" font-size="10.00"> &lt; std::shared_ptr&lt;</text>
<text text-anchor="middle" x="311" y="-67" font-family="Helvetica,sans-Serif" font-size="10.00"> const SlotConnectionBase &gt; &gt;</text>
</g>
<!-- Node9 -->
<g id="node16" class="node"><title>Node9</title>
<polygon fill="white" stroke="#bfbfbf" points="0.5,-52.5 0.5,-73.5 29.5,-73.5 29.5,-52.5 0.5,-52.5"/>
<text text-anchor="middle" x="15" y="-60.5" font-family="Helvetica,sans-Serif" font-size="10.00">K</text>
</g>
<!-- Node9&#45;&gt;Node8 -->
<g id="edge16" class="edge"><title>Node9&#45;&gt;Node8</title>
<path fill="none" stroke="#9a32cd" stroke-dasharray="5,2" d="M39.801,-63C62.1871,-63 95.429,-63 120.963,-63"/>
<polygon fill="#9a32cd" stroke="#9a32cd" points="39.7649,-59.5001 29.7649,-63 39.7649,-66.5001 39.7649,-59.5001"/>
<text text-anchor="middle" x="61" y="-67" font-family="Helvetica,sans-Serif" font-size="10.00"> keys</text>
</g>
<!-- Node10 -->
<g id="node18" class="node"><title>Node10</title>
<a xlink:title="STL class. ">
<polygon fill="white" stroke="#bfbfbf" points="456,-6.5 456,-27.5 516,-27.5 516,-6.5 456,-6.5"/>
<text text-anchor="middle" x="486" y="-14.5" font-family="Helvetica,sans-Serif" font-size="10.00">std::string</text>
</a>
</g>
<!-- Node10&#45;&gt;Node4 -->
<g id="edge18" class="edge"><title>Node10&#45;&gt;Node4</title>
<path fill="none" stroke="#9a32cd" stroke-dasharray="5,2" d="M526.106,-22.5288C561.908,-27.7204 615.685,-36.1497 662,-46 670.785,-47.8684 680.166,-50.1508 688.989,-52.4292"/>
<polygon fill="#9a32cd" stroke="#9a32cd" points="526.449,-19.0423 516.054,-21.0878 525.456,-25.9715 526.449,-19.0423"/>
<text text-anchor="middle" x="627" y="-50" font-family="Helvetica,sans-Serif" font-size="10.00"> m_signature</text>
</g>
<!-- Node11 -->
<g id="node20" class="node"><title>Node11</title>
<a xlink:title="STL class. ">
<polygon fill="white" stroke="#bfbfbf" points="110.5,-0 110.5,-34 205.5,-34 205.5,-0 110.5,-0"/>
<text text-anchor="start" x="118.5" y="-21" font-family="Helvetica,sans-Serif" font-size="10.00">std::basic_string&lt;</text>
<text text-anchor="middle" x="158" y="-8" font-family="Helvetica,sans-Serif" font-size="10.00"> char &gt;</text>
</a>
</g>
<!-- Node11&#45;&gt;Node10 -->
<g id="edge20" class="edge"><title>Node11&#45;&gt;Node10</title>
<path fill="none" stroke="midnightblue" d="M215.694,-17C285.8,-17 401.446,-17 455.888,-17"/>
<polygon fill="midnightblue" stroke="midnightblue" points="215.694,-13.5001 205.694,-17 215.694,-20.5001 215.694,-13.5001"/>
</g>
</g>
</svg>
