<?xml version="1.0" encoding="UTF-8" standalone="no"?>
<!DOCTYPE svg PUBLIC "-//W3C//DTD SVG 1.1//EN"
 "http://www.w3.org/Graphics/SVG/1.1/DTD/svg11.dtd">
<!-- Generated by graphviz version 2.26.3 (20100126.1600)
 -->
<!-- Title: fwGdcmIO::writer::SeriesDB::seriesComparator Pages: 1 -->
<svg width="314pt" height="94pt"
 viewBox="0.00 0.00 314.00 94.00" xmlns="http://www.w3.org/2000/svg" xmlns:xlink="http://www.w3.org/1999/xlink">
<g id="graph1" class="graph" transform="scale(1 1) rotate(0) translate(4 90)">
<title>fwGdcmIO::writer::SeriesDB::seriesComparator</title>
<polygon fill="white" stroke="white" points="-4,5 -4,-90 311,-90 311,5 -4,5"/>
<!-- Node1 -->
<g id="node1" class="node"><title>Node1</title>
<polygon fill="#bfbfbf" stroke="black" points="0,-26 0,-60 128,-60 128,-26 0,-26"/>
<text text-anchor="start" x="8" y="-47" font-family="Helvetica,sans-Serif" font-size="10.00">fwGdcmIO::writer::Series</text>
<text text-anchor="middle" x="64" y="-34" font-family="Helvetica,sans-Serif" font-size="10.00">DB::seriesComparator</text>
</g>
<!-- Node2 -->
<g id="node3" class="node"><title>Node2</title>
<a xlink:href="classfwGdcmIO_1_1writer_1_1SeriesDB.html#a8519433976931353b0fc44d11eb3bd9e" target="_top" xlink:title="Set Fiducials Export Mode. ">
<polygon fill="white" stroke="black" points="164,-52 164,-86 306,-86 306,-52 164,-52"/>
<text text-anchor="start" x="172" y="-73" font-family="Helvetica,sans-Serif" font-size="10.00">fwGdcmIO::writer::Series</text>
<text text-anchor="middle" x="235" y="-60" font-family="Helvetica,sans-Serif" font-size="10.00">DB::setFiducialsExportMode</text>
</a>
</g>
<!-- Node1&#45;&gt;Node2 -->
<g id="edge2" class="edge"><title>Node1&#45;&gt;Node2</title>
<path fill="none" stroke="midnightblue" d="M138.109,-54.268C146.662,-55.5685 155.37,-56.8925 163.882,-58.1868"/>
<polygon fill="midnightblue" stroke="midnightblue" points="138.573,-50.7985 128.161,-52.7554 137.521,-57.7189 138.573,-50.7985"/>
</g>
<!-- Node3 -->
<g id="node5" class="node"><title>Node3</title>
<a xlink:href="classfwGdcmIO_1_1writer_1_1SeriesDB.html#a20b1d613727964367e1c951bd58f4bb4" target="_top" xlink:title="Manage writing tools to save every series. ">
<polygon fill="white" stroke="black" points="171,-0 171,-34 299,-34 299,-0 171,-0"/>
<text text-anchor="start" x="179" y="-21" font-family="Helvetica,sans-Serif" font-size="10.00">fwGdcmIO::writer::Series</text>
<text text-anchor="middle" x="235" y="-8" font-family="Helvetica,sans-Serif" font-size="10.00">DB::write</text>
</a>
</g>
<!-- Node1&#45;&gt;Node3 -->
<g id="edge4" class="edge"><title>Node1&#45;&gt;Node3</title>
<path fill="none" stroke="midnightblue" d="M138.068,-31.7382C148.956,-30.0827 160.096,-28.3889 170.764,-26.7668"/>
<polygon fill="midnightblue" stroke="midnightblue" points="137.521,-28.2811 128.161,-33.2446 138.573,-35.2015 137.521,-28.2811"/>
</g>
</g>
</svg>
