<?xml version="1.0" encoding="UTF-8" standalone="no"?>
<!DOCTYPE svg PUBLIC "-//W3C//DTD SVG 1.1//EN"
 "http://www.w3.org/Graphics/SVG/1.1/DTD/svg11.dtd">
<!-- Generated by graphviz version 2.26.3 (20100126.1600)
 -->
<!-- Title: fwGuiQt::dialog::ProgressDialog Pages: 1 -->
<svg width="297pt" height="324pt"
 viewBox="0.00 0.00 297.00 324.00" xmlns="http://www.w3.org/2000/svg" xmlns:xlink="http://www.w3.org/1999/xlink">
<g id="graph1" class="graph" transform="scale(1 1) rotate(0) translate(4 320)">
<title>fwGuiQt::dialog::ProgressDialog</title>
<polygon fill="white" stroke="white" points="-4,5 -4,-320 294,-320 294,5 -4,5"/>
<!-- Node1 -->
<g id="node1" class="node"><title>Node1</title>
<polygon fill="#bfbfbf" stroke="black" points="30.5,-1 30.5,-35 159.5,-35 159.5,-1 30.5,-1"/>
<text text-anchor="start" x="38.5" y="-22" font-family="Helvetica,sans-Serif" font-size="10.00">fwGuiQt::dialog::Progress</text>
<text text-anchor="middle" x="95" y="-9" font-family="Helvetica,sans-Serif" font-size="10.00">Dialog</text>
</g>
<!-- Node2 -->
<g id="node2" class="node"><title>Node2</title>
<polygon fill="white" stroke="#bfbfbf" points="36.5,-81.5 36.5,-102.5 89.5,-102.5 89.5,-81.5 36.5,-81.5"/>
<text text-anchor="middle" x="63" y="-89.5" font-family="Helvetica,sans-Serif" font-size="10.00">QObject</text>
</g>
<!-- Node2&#45;&gt;Node1 -->
<g id="edge2" class="edge"><title>Node2&#45;&gt;Node1</title>
<path fill="none" stroke="midnightblue" d="M71.5854,-72.1464C76.5766,-60.6042 82.8038,-46.2038 87.5813,-35.1558"/>
<polygon fill="midnightblue" stroke="midnightblue" points="68.3415,-70.8298 67.5848,-81.3976 74.7665,-73.6082 68.3415,-70.8298"/>
</g>
<!-- Node3 -->
<g id="node4" class="node"><title>Node3</title>
<a xlink:href="classfwGui_1_1dialog_1_1IProgressDialog.html" target="_top" xlink:title="Defines the generic Progress dialog for IHM. ">
<polygon fill="white" stroke="black" points="107,-75 107,-109 229,-109 229,-75 107,-75"/>
<text text-anchor="start" x="115" y="-96" font-family="Helvetica,sans-Serif" font-size="10.00">fwGui::dialog::IProgress</text>
<text text-anchor="middle" x="168" y="-83" font-family="Helvetica,sans-Serif" font-size="10.00">Dialog</text>
</a>
</g>
<!-- Node3&#45;&gt;Node1 -->
<g id="edge4" class="edge"><title>Node3&#45;&gt;Node1</title>
<path fill="none" stroke="midnightblue" d="M143.774,-67.4418C133.306,-56.8303 121.313,-44.6735 111.839,-35.07"/>
<polygon fill="midnightblue" stroke="midnightblue" points="141.554,-70.1759 151.069,-74.8369 146.538,-65.2599 141.554,-70.1759"/>
</g>
<!-- Node4 -->
<g id="node6" class="node"><title>Node4</title>
<a xlink:href="classfwGui_1_1GuiBaseObject.html" target="_top" xlink:title="Base class for all fwGui&#39;s classes. ">
<polygon fill="white" stroke="black" points="8,-160.5 8,-181.5 122,-181.5 122,-160.5 8,-160.5"/>
<text text-anchor="middle" x="65" y="-168.5" font-family="Helvetica,sans-Serif" font-size="10.00">fwGui::GuiBaseObject</text>
</a>
</g>
<!-- Node4&#45;&gt;Node3 -->
<g id="edge6" class="edge"><title>Node4&#45;&gt;Node3</title>
<path fill="none" stroke="midnightblue" d="M87.2579,-153.928C104.535,-140.677 128.38,-122.388 145.674,-109.124"/>
<polygon fill="midnightblue" stroke="midnightblue" points="84.6958,-151.483 78.891,-160.346 88.956,-157.037 84.6958,-151.483"/>
</g>
<!-- Node5 -->
<g id="node8" class="node"><title>Node5</title>
<a xlink:href="classfwCore_1_1BaseObject.html" target="_top" xlink:title="Base class for all FW4SPL&#39;s classes. ">
<polygon fill="white" stroke="black" points="12.5,-220.5 12.5,-241.5 117.5,-241.5 117.5,-220.5 12.5,-220.5"/>
<text text-anchor="middle" x="65" y="-228.5" font-family="Helvetica,sans-Serif" font-size="10.00">fwCore::BaseObject</text>
</a>
</g>
<!-- Node5&#45;&gt;Node4 -->
<g id="edge8" class="edge"><title>Node5&#45;&gt;Node4</title>
<path fill="none" stroke="midnightblue" d="M65,-210.231C65,-200.592 65,-189.544 65,-181.634"/>
<polygon fill="midnightblue" stroke="midnightblue" points="61.5001,-210.273 65,-220.273 68.5001,-210.273 61.5001,-210.273"/>
</g>
<!-- Node6 -->
<g id="node10" class="node"><title>Node6</title>
<polygon fill="white" stroke="#bfbfbf" points="-0.5,-281 -0.5,-315 130.5,-315 130.5,-281 -0.5,-281"/>
<text text-anchor="start" x="7.5" y="-302" font-family="Helvetica,sans-Serif" font-size="10.00">std::enable_shared</text>
<text text-anchor="middle" x="65" y="-289" font-family="Helvetica,sans-Serif" font-size="10.00">_from_this&lt; BaseObject &gt;</text>
</g>
<!-- Node6&#45;&gt;Node5 -->
<g id="edge10" class="edge"><title>Node6&#45;&gt;Node5</title>
<path fill="none" stroke="midnightblue" d="M65,-270.534C65,-260.306 65,-249.301 65,-241.506"/>
<polygon fill="midnightblue" stroke="midnightblue" points="61.5001,-270.746 65,-280.746 68.5001,-270.746 61.5001,-270.746"/>
</g>
<!-- Node7 -->
<g id="node12" class="node"><title>Node7</title>
<polygon fill="white" stroke="#bfbfbf" points="140,-160.5 140,-181.5 196,-181.5 196,-160.5 140,-160.5"/>
<text text-anchor="middle" x="168" y="-168.5" font-family="Helvetica,sans-Serif" font-size="10.00">trackable</text>
</g>
<!-- Node7&#45;&gt;Node3 -->
<g id="edge12" class="edge"><title>Node7&#45;&gt;Node3</title>
<path fill="none" stroke="midnightblue" d="M168,-150.162C168,-137.363 168,-121.171 168,-109.124"/>
<polygon fill="midnightblue" stroke="midnightblue" points="164.5,-150.346 168,-160.346 171.5,-150.346 164.5,-150.346"/>
</g>
<!-- Node8 -->
<g id="node14" class="node"><title>Node8</title>
<polygon fill="white" stroke="#bfbfbf" points="213.5,-160.5 213.5,-181.5 254.5,-181.5 254.5,-160.5 213.5,-160.5"/>
<text text-anchor="middle" x="234" y="-168.5" font-family="Helvetica,sans-Serif" font-size="10.00">static</text>
</g>
<!-- Node8&#45;&gt;Node3 -->
<g id="edge14" class="edge"><title>Node8&#45;&gt;Node3</title>
<path fill="none" stroke="#9a32cd" stroke-dasharray="5,2" d="M218.502,-152.45C207.551,-139.341 192.981,-121.901 182.306,-109.124"/>
<polygon fill="#9a32cd" stroke="#9a32cd" points="216.002,-154.915 225.099,-160.346 221.374,-150.427 216.002,-154.915"/>
<text text-anchor="middle" x="248.5" y="-132.5" font-family="Helvetica,sans-Serif" font-size="10.00"> REGISTRY_KEY</text>
</g>
</g>
</svg>
