<?xml version="1.0" encoding="UTF-8" standalone="no"?>
<!DOCTYPE svg PUBLIC "-//W3C//DTD SVG 1.1//EN"
 "http://www.w3.org/Graphics/SVG/1.1/DTD/svg11.dtd">
<!-- Generated by graphviz version 2.26.3 (20100126.1600)
 -->
<!-- Title: fwServices::registry::AppConfig2::getAdaptedTemplateConfig Pages: 1 -->
<svg width="582pt" height="56pt"
 viewBox="0.00 0.00 582.00 56.00" xmlns="http://www.w3.org/2000/svg" xmlns:xlink="http://www.w3.org/1999/xlink">
<g id="graph1" class="graph" transform="scale(1 1) rotate(0) translate(4 52)">
<title>fwServices::registry::AppConfig2::getAdaptedTemplateConfig</title>
<polygon fill="white" stroke="white" points="-4,5 -4,-52 579,-52 579,5 -4,5"/>
<!-- Node1 -->
<g id="node1" class="node"><title>Node1</title>
<polygon fill="#bfbfbf" stroke="black" points="0,-0.5 0,-47.5 170,-47.5 170,-0.5 0,-0.5"/>
<text text-anchor="start" x="8" y="-34.5" font-family="Helvetica,sans-Serif" font-size="10.00">fwServices::registry</text>
<text text-anchor="start" x="8" y="-21.5" font-family="Helvetica,sans-Serif" font-size="10.00">::AppConfig2::getAdaptedTemplate</text>
<text text-anchor="middle" x="85" y="-8.5" font-family="Helvetica,sans-Serif" font-size="10.00">Config</text>
</g>
<!-- Node2 -->
<g id="node3" class="node"><title>Node2</title>
<a xlink:href="classfwServices_1_1registry_1_1AppConfig2.html#a0bf5e5c111a17d1a2d03f5f09c7aa078" target="_top" xlink:title="Return the adapted config with the identifier configId. ">
<polygon fill="white" stroke="black" points="206,-0.5 206,-47.5 376,-47.5 376,-0.5 206,-0.5"/>
<text text-anchor="start" x="214" y="-34.5" font-family="Helvetica,sans-Serif" font-size="10.00">fwServices::registry</text>
<text text-anchor="start" x="214" y="-21.5" font-family="Helvetica,sans-Serif" font-size="10.00">::AppConfig2::getAdaptedTemplate</text>
<text text-anchor="middle" x="291" y="-8.5" font-family="Helvetica,sans-Serif" font-size="10.00">Config</text>
</a>
</g>
<!-- Node1&#45;&gt;Node2 -->
<g id="edge2" class="edge"><title>Node1&#45;&gt;Node2</title>
<path fill="none" stroke="midnightblue" d="M170.275,-24C178.616,-24 187.118,-24 195.551,-24"/>
<polygon fill="midnightblue" stroke="midnightblue" points="195.789,-27.5001 205.789,-24 195.789,-20.5001 195.789,-27.5001"/>
</g>
<!-- Node3 -->
<g id="node5" class="node"><title>Node3</title>
<a xlink:href="classfwServices_1_1registry_1_1AppConfig2.html#ad778393cb89c1e62a5a9130cc6ac5f99" target="_top" xlink:title="Create an unique identifier. ">
<polygon fill="white" stroke="black" points="412.5,-7 412.5,-41 573.5,-41 573.5,-7 412.5,-7"/>
<text text-anchor="start" x="420.5" y="-28" font-family="Helvetica,sans-Serif" font-size="10.00">fwServices::registry</text>
<text text-anchor="middle" x="493" y="-15" font-family="Helvetica,sans-Serif" font-size="10.00">::AppConfig2::getUniqueIdentifier</text>
</a>
</g>
<!-- Node2&#45;&gt;Node3 -->
<g id="edge4" class="edge"><title>Node2&#45;&gt;Node3</title>
<path fill="none" stroke="midnightblue" d="M376.081,-24C384.683,-24 393.443,-24 402.103,-24"/>
<polygon fill="midnightblue" stroke="midnightblue" points="402.208,-27.5001 412.208,-24 402.208,-20.5001 402.208,-27.5001"/>
</g>
</g>
</svg>
