<?xml version="1.0" encoding="UTF-8" standalone="no"?>
<!DOCTYPE svg PUBLIC "-//W3C//DTD SVG 1.1//EN"
 "http://www.w3.org/Graphics/SVG/1.1/DTD/svg11.dtd">
<!-- Generated by graphviz version 2.26.3 (20100126.1600)
 -->
<!-- Title: fwServices::helper::Config::createConnections Pages: 1 -->
<!--zoomable 264 -->
<svg id="main" version="1.1" xmlns="http://www.w3.org/2000/svg" xmlns:xlink="http://www.w3.org/1999/xlink" xml:space="preserve" onload="init(evt)">
<style type="text/css"><![CDATA[
.edge:hover path { stroke: red; }
.edge:hover polygon { stroke: red; fill: red; }
]]></style>
<script type="text/javascript"><![CDATA[
var edges = document.getElementsByTagName('g');
if (edges && edges.length) {
  for (var i=0;i<edges.length;i++) {
    if (edges[i].id.substr(0,4)=='edge') {
      edges[i].setAttribute('class','edge');
    }
  }
}
]]></script>
        <defs>
                <circle id="rim" cx="0" cy="0" r="7"/>
                <circle id="rim2" cx="0" cy="0" r="3.5"/>
                <g id="zoomPlus">
                        <use xlink:href="#rim" fill="#404040">
                                <set attributeName="fill" to="#808080" begin="zoomplus.mouseover" end="zoomplus.mouseout"/>
                        </use>
                        <path d="M-4,0h8M0,-4v8" fill="none" stroke="white" stroke-width="1.5" pointer-events="none"/>
                </g>
                <g id="zoomMin">
                        <use xlink:href="#rim" fill="#404040">
                                <set attributeName="fill" to="#808080" begin="zoomminus.mouseover" end="zoomminus.mouseout"/>
                        </use>
                        <path d="M-4,0h8" fill="none" stroke="white" stroke-width="1.5" pointer-events="none"/>
                </g>
                <g id="dirArrow">
                        <path fill="none" stroke="white" stroke-width="1.5" d="M0,-3.0v7 M-2.5,-0.5L0,-3.0L2.5,-0.5"/>
                </g>
               <g id="resetDef">
                       <use xlink:href="#rim2" fill="#404040">
                               <set attributeName="fill" to="#808080" begin="reset.mouseover" end="reset.mouseout"/>
                       </use>
               </g>
        </defs>

<script type="text/javascript">
var viewWidth = 692;
var viewHeight = 264;
var sectionId = 'dynsection-1';
</script>
<script xlink:href="svgpan.js"/>
<svg id="graph" class="graph">
<g id="viewport">
<title>fwServices::helper::Config::createConnections</title>
<polygon fill="white" stroke="white" points="-4,5 -4,-260 689,-260 689,5 -4,5"/>
<!-- Node1 -->
<g id="node1" class="node"><title>Node1</title>
<polygon fill="#bfbfbf" stroke="black" points="0.5,-92 0.5,-126 139.5,-126 139.5,-92 0.5,-92"/>
<text text-anchor="start" x="8.5" y="-113" font-family="Helvetica,sans-Serif" font-size="10.00">fwServices::helper</text>
<text text-anchor="middle" x="70" y="-100" font-family="Helvetica,sans-Serif" font-size="10.00">::Config::createConnections</text>
</g>
<!-- Node2 -->
<g id="node3" class="node"><title>Node2</title>
<a xlink:href="classfwRenderVTK_1_1SRender.html#ac6f0349557c0f53b1a44435792c9cb03" target="_top" xlink:title="Get a vtkTransform in the SRender, referenced by a key. Create it if it does not exist. ">
<polygon fill="white" stroke="black" points="192.5,-196 192.5,-230 315.5,-230 315.5,-196 192.5,-196"/>
<text text-anchor="start" x="200.5" y="-217" font-family="Helvetica,sans-Serif" font-size="10.00">fwRenderVTK::SRender</text>
<text text-anchor="middle" x="254" y="-204" font-family="Helvetica,sans-Serif" font-size="10.00">::getOrAddVtkTransform</text>
</a>
</g>
<!-- Node1&#45;&gt;Node2 -->
<g id="edge2" class="edge"><title>Node1&#45;&gt;Node2</title>
<path fill="none" stroke="midnightblue" d="M97.1443,-132.7C117.675,-149.665 147.166,-172.06 176,-187 182.337,-190.284 189.174,-193.276 196.074,-195.966"/>
<polygon fill="midnightblue" stroke="midnightblue" points="99.3762,-130.003 89.4646,-126.26 94.8786,-135.367 99.3762,-130.003"/>
</g>
<!-- Node3 -->
<g id="node5" class="node"><title>Node3</title>
<a xlink:href="classctrlSelection_1_1IManagerSrv.html#a92562887e5aec0200c62d1fb34149f8b" target="_top" xlink:title="Manages a connection define in config associated to object. ">
<polygon fill="white" stroke="black" points="188,-144 188,-178 320,-178 320,-144 188,-144"/>
<text text-anchor="start" x="196" y="-165" font-family="Helvetica,sans-Serif" font-size="10.00">ctrlSelection::IManagerSrv</text>
<text text-anchor="middle" x="254" y="-152" font-family="Helvetica,sans-Serif" font-size="10.00">::manageConnection</text>
</a>
</g>
<!-- Node1&#45;&gt;Node3 -->
<g id="edge4" class="edge"><title>Node1&#45;&gt;Node3</title>
<path fill="none" stroke="midnightblue" d="M139.934,-128.764C157.615,-133.761 176.451,-139.084 193.616,-143.935"/>
<polygon fill="midnightblue" stroke="midnightblue" points="140.823,-125.378 130.248,-126.027 138.92,-132.114 140.823,-125.378"/>
</g>
<!-- Node9 -->
<g id="node17" class="node"><title>Node9</title>
<a xlink:href="classfwRenderVTK_1_1SRender.html#a111f3df3a62b070af6ea09055530408b" target="_top" xlink:title="Install observations : should be implemented in IService. ">
<polygon fill="white" stroke="black" points="193,-92 193,-126 315,-126 315,-92 193,-92"/>
<text text-anchor="start" x="201" y="-113" font-family="Helvetica,sans-Serif" font-size="10.00">fwRenderVTK::SRender</text>
<text text-anchor="middle" x="254" y="-100" font-family="Helvetica,sans-Serif" font-size="10.00">::starting</text>
</a>
</g>
<!-- Node1&#45;&gt;Node9 -->
<g id="edge16" class="edge"><title>Node1&#45;&gt;Node9</title>
<path fill="none" stroke="midnightblue" d="M149.93,-109C164.294,-109 179.057,-109 192.787,-109"/>
<polygon fill="midnightblue" stroke="midnightblue" points="149.563,-105.5 139.563,-109 149.562,-112.5 149.563,-105.5"/>
</g>
<!-- Node10 -->
<g id="node19" class="node"><title>Node10</title>
<a xlink:href="classscene2D_1_1Render.html#a3f5d84c262d5f11d3a63aa699dae892a" target="_top" xlink:title="Call startContext to set the scene, the viewport and the view, and add&#39;em to the QtContainer and star...">
<polygon fill="white" stroke="black" points="188.5,-52.5 188.5,-73.5 319.5,-73.5 319.5,-52.5 188.5,-52.5"/>
<text text-anchor="middle" x="254" y="-60.5" font-family="Helvetica,sans-Serif" font-size="10.00">scene2D::Render::starting</text>
</a>
</g>
<!-- Node1&#45;&gt;Node10 -->
<g id="edge18" class="edge"><title>Node1&#45;&gt;Node10</title>
<path fill="none" stroke="midnightblue" d="M148.185,-89.4537C170.003,-83.9992 192.882,-78.2795 211.762,-73.5595"/>
<polygon fill="midnightblue" stroke="midnightblue" points="147.106,-86.1157 138.253,-91.9367 148.804,-92.9067 147.106,-86.1157"/>
</g>
<!-- Node11 -->
<g id="node21" class="node"><title>Node11</title>
<a xlink:href="classfwServices_1_1AppConfigManager.html#afeb93963238876a2e755df252499bd12" target="_top" xlink:title="Stops and destroys services specified in config, then resets the configRoot sptr. ...">
<polygon fill="white" stroke="black" points="176.5,-0 176.5,-34 331.5,-34 331.5,-0 176.5,-0"/>
<text text-anchor="start" x="184.5" y="-21" font-family="Helvetica,sans-Serif" font-size="10.00">fwServices::AppConfigManager</text>
<text text-anchor="middle" x="254" y="-8" font-family="Helvetica,sans-Serif" font-size="10.00">::stopAndDestroy</text>
</a>
</g>
<!-- Node1&#45;&gt;Node11 -->
<g id="edge20" class="edge"><title>Node1&#45;&gt;Node11</title>
<path fill="none" stroke="midnightblue" d="M102.23,-86.1522C122.677,-72.3706 150.077,-55.1826 176,-43 182.847,-39.7822 190.202,-36.7824 197.561,-34.0482"/>
<polygon fill="midnightblue" stroke="midnightblue" points="100.204,-83.2975 93.9168,-91.8255 104.15,-89.0793 100.204,-83.2975"/>
</g>
<!-- Node4 -->
<g id="node7" class="node"><title>Node4</title>
<a xlink:href="classctrlSelection_1_1IManagerSrv.html#a134430b00f73cd5761699cda237e24a2" target="_top" xlink:title="Manages all connections define in config associated to object. Call manageConnection() ...">
<polygon fill="white" stroke="black" points="368,-144 368,-178 500,-178 500,-144 368,-144"/>
<text text-anchor="start" x="376" y="-165" font-family="Helvetica,sans-Serif" font-size="10.00">ctrlSelection::IManagerSrv</text>
<text text-anchor="middle" x="434" y="-152" font-family="Helvetica,sans-Serif" font-size="10.00">::manageConnections</text>
</a>
</g>
<!-- Node3&#45;&gt;Node4 -->
<g id="edge6" class="edge"><title>Node3&#45;&gt;Node4</title>
<path fill="none" stroke="midnightblue" d="M330.336,-161C342.762,-161 355.543,-161 367.704,-161"/>
<polygon fill="midnightblue" stroke="midnightblue" points="330.003,-157.5 320.003,-161 330.003,-164.5 330.003,-157.5"/>
</g>
<!-- Node5 -->
<g id="node9" class="node"><title>Node5</title>
<a xlink:href="classctrlSelection_1_1manager_1_1SField.html#ac65f406cf05b6e79d31d235701be3886" target="_top" xlink:title="Slot: change objects. ">
<polygon fill="white" stroke="black" points="553,-222 553,-256 667,-256 667,-222 553,-222"/>
<text text-anchor="start" x="561" y="-243" font-family="Helvetica,sans-Serif" font-size="10.00">ctrlSelection::manager</text>
<text text-anchor="middle" x="610" y="-230" font-family="Helvetica,sans-Serif" font-size="10.00">::SField::changeFields</text>
</a>
</g>
<!-- Node4&#45;&gt;Node5 -->
<g id="edge8" class="edge"><title>Node4&#45;&gt;Node5</title>
<path fill="none" stroke="midnightblue" d="M473.799,-182.851C492.416,-192.666 515.055,-204.029 536,-213 543.26,-216.11 551.029,-219.145 558.703,-221.979"/>
<polygon fill="midnightblue" stroke="midnightblue" points="475.207,-179.636 464.735,-178.028 471.919,-185.816 475.207,-179.636"/>
</g>
<!-- Node6 -->
<g id="node11" class="node"><title>Node6</title>
<a xlink:href="classctrlSelection_1_1manager_1_1SwapperSrv.html#a7e74075f3212f7f47f8369011edd5ec9" target="_top" xlink:title="Slot: change objects. ">
<polygon fill="white" stroke="black" points="536.5,-170 536.5,-204 683.5,-204 683.5,-170 536.5,-170"/>
<text text-anchor="start" x="544.5" y="-191" font-family="Helvetica,sans-Serif" font-size="10.00">ctrlSelection::manager</text>
<text text-anchor="middle" x="610" y="-178" font-family="Helvetica,sans-Serif" font-size="10.00">::SwapperSrv::changeObjects</text>
</a>
</g>
<!-- Node4&#45;&gt;Node6 -->
<g id="edge10" class="edge"><title>Node4&#45;&gt;Node6</title>
<path fill="none" stroke="midnightblue" d="M510.108,-172.243C518.766,-173.522 527.58,-174.824 536.208,-176.099"/>
<polygon fill="midnightblue" stroke="midnightblue" points="510.441,-168.754 500.037,-170.755 509.418,-175.679 510.441,-168.754"/>
</g>
<!-- Node7 -->
<g id="node13" class="node"><title>Node7</title>
<a xlink:href="classctrlSelection_1_1manager_1_1SField.html#ab57d869461bb04dbb5a68be5faa517bf" target="_top" xlink:title="Slot: remove objects. ">
<polygon fill="white" stroke="black" points="552.5,-118 552.5,-152 667.5,-152 667.5,-118 552.5,-118"/>
<text text-anchor="start" x="560.5" y="-139" font-family="Helvetica,sans-Serif" font-size="10.00">ctrlSelection::manager</text>
<text text-anchor="middle" x="610" y="-126" font-family="Helvetica,sans-Serif" font-size="10.00">::SField::removeFields</text>
</a>
</g>
<!-- Node4&#45;&gt;Node7 -->
<g id="edge12" class="edge"><title>Node4&#45;&gt;Node7</title>
<path fill="none" stroke="midnightblue" d="M510.211,-149.742C524.312,-147.658 538.824,-145.515 552.264,-143.529"/>
<polygon fill="midnightblue" stroke="midnightblue" points="509.418,-146.321 500.037,-151.245 510.441,-153.246 509.418,-146.321"/>
</g>
<!-- Node8 -->
<g id="node15" class="node"><title>Node8</title>
<a xlink:href="classctrlSelection_1_1manager_1_1SwapperSrv.html#a4e44acc0494380e068976ae71d5db070" target="_top" xlink:title="Slot: remove objects. ">
<polygon fill="white" stroke="black" points="536,-66 536,-100 684,-100 684,-66 536,-66"/>
<text text-anchor="start" x="544" y="-87" font-family="Helvetica,sans-Serif" font-size="10.00">ctrlSelection::manager</text>
<text text-anchor="middle" x="610" y="-74" font-family="Helvetica,sans-Serif" font-size="10.00">::SwapperSrv::removeObjects</text>
</a>
</g>
<!-- Node4&#45;&gt;Node8 -->
<g id="edge14" class="edge"><title>Node4&#45;&gt;Node8</title>
<path fill="none" stroke="midnightblue" d="M473.799,-139.149C492.416,-129.334 515.055,-117.971 536,-109 543.26,-105.89 551.029,-102.855 558.703,-100.021"/>
<polygon fill="midnightblue" stroke="midnightblue" points="471.919,-136.184 464.735,-143.972 475.207,-142.364 471.919,-136.184"/>
</g>
</g>
</svg>
        <g id="navigator" transform="translate(0 0)" fill="#404254">
                <rect fill="#f2f5e9" fill-opacity="0.5" stroke="#606060" stroke-width=".5" x="0" y="0" width="60" height="60"/>
                <use id="zoomplus" xlink:href="#zoomPlus" x="17" y="9" onmousedown="handleZoom(evt,'in')"/>
                <use id="zoomminus" xlink:href="#zoomMin" x="42" y="9" onmousedown="handleZoom(evt,'out')"/>
                <use id="reset" xlink:href="#resetDef" x="30" y="36" onmousedown="handleReset()"/>
                <g id="arrowUp" xlink:href="#dirArrow" transform="translate(30 24)" onmousedown="handlePan(0,-1)">
                  <use xlink:href="#rim" fill="#404040">
                        <set attributeName="fill" to="#808080" begin="arrowUp.mouseover" end="arrowUp.mouseout"/>
                  </use>
                  <path fill="none" stroke="white" stroke-width="1.5" d="M0,-3.0v7 M-2.5,-0.5L0,-3.0L2.5,-0.5"/>
                </g>
                <g id="arrowRight" xlink:href="#dirArrow" transform="rotate(90) translate(36 -43)" onmousedown="handlePan(1,0)">
                  <use xlink:href="#rim" fill="#404040">
                        <set attributeName="fill" to="#808080" begin="arrowRight.mouseover" end="arrowRight.mouseout"/>
                  </use>
                  <path fill="none" stroke="white" stroke-width="1.5" d="M0,-3.0v7 M-2.5,-0.5L0,-3.0L2.5,-0.5"/>
                </g>
                <g id="arrowDown" xlink:href="#dirArrow" transform="rotate(180) translate(-30 -48)" onmousedown="handlePan(0,1)">
                  <use xlink:href="#rim" fill="#404040">
                        <set attributeName="fill" to="#808080" begin="arrowDown.mouseover" end="arrowDown.mouseout"/>
                  </use>
                  <path fill="none" stroke="white" stroke-width="1.5" d="M0,-3.0v7 M-2.5,-0.5L0,-3.0L2.5,-0.5"/>
                </g>
                <g id="arrowLeft" xlink:href="#dirArrow" transform="rotate(270) translate(-36 17)" onmousedown="handlePan(-1,0)">
                  <use xlink:href="#rim" fill="#404040">
                        <set attributeName="fill" to="#808080" begin="arrowLeft.mouseover" end="arrowLeft.mouseout"/>
                  </use>
                  <path fill="none" stroke="white" stroke-width="1.5" d="M0,-3.0v7 M-2.5,-0.5L0,-3.0L2.5,-0.5"/>
                </g>
        </g>
        <svg viewBox="0 0 15 15" width="100%" height="30px" preserveAspectRatio="xMaxYMin meet">
         <g id="arrow_out" transform="scale(0.3 0.3)">
          <a xlink:href="classfwServices_1_1helper_1_1Config_acc74b29a783b80d57eded917025660c3_icgraph_org.svg" target="_base">
           <rect id="button" ry="5" rx="5" y="6" x="6" height="38" width="38"
                fill="#f2f5e9" fill-opacity="0.5" stroke="#606060" stroke-width="1.0"/>
           <path id="arrow"
             d="M 11.500037,31.436501 C 11.940474,20.09759 22.043105,11.32322 32.158766,21.979434 L 37.068811,17.246167 C 37.068811,17.246167 37.088388,32 37.088388,32 L 22.160133,31.978069 C 22.160133,31.978069 26.997745,27.140456 26.997745,27.140456 C 18.528582,18.264221 13.291696,25.230495 11.500037,31.436501 z"
             style="fill:#404040;"/>
          </a>
         </g>
        </svg>
</svg>
