<?xml version="1.0" encoding="UTF-8" standalone="no"?>
<!DOCTYPE svg PUBLIC "-//W3C//DTD SVG 1.1//EN"
 "http://www.w3.org/Graphics/SVG/1.1/DTD/svg11.dtd">
<!-- Generated by graphviz version 2.36.0 (20140111.2315)
 -->
<!-- Title: fwGui::layoutManager::ToolboxLayoutManagerBase Pages: 1 -->
<svg width="156pt" height="344pt"
 viewBox="0.00 0.00 156.00 344.00" xmlns="http://www.w3.org/2000/svg" xmlns:xlink="http://www.w3.org/1999/xlink">
<g id="graph0" class="graph" transform="scale(1 1) rotate(0) translate(4 340)">
<title>fwGui::layoutManager::ToolboxLayoutManagerBase</title>
<polygon fill="white" stroke="none" points="-4,4 -4,-340 152,-340 152,4 -4,4"/>
<!-- Node1 -->
<g id="node1" class="node"><title>Node1</title>
<polygon fill="#bfbfbf" stroke="black" points="1,-57 1,-87 147,-87 147,-57 1,-57"/>
<text text-anchor="start" x="9" y="-75" font-family="Helvetica,sans-Serif" font-size="10.00">fwGui::layoutManager</text>
<text text-anchor="middle" x="74" y="-64" font-family="Helvetica,sans-Serif" font-size="10.00">::ToolboxLayoutManagerBase</text>
</g>
<!-- Node6 -->
<g id="node6" class="node"><title>Node6</title>
<g id="a_node6"><a xlink:href="classfwGui_1_1ToolboxLayoutManager.html" target="_top" xlink:title="Defines the toolbox layout manager. ">
<polygon fill="white" stroke="black" points="-0.5,-0.5 -0.5,-19.5 148.5,-19.5 148.5,-0.5 -0.5,-0.5"/>
<text text-anchor="middle" x="74" y="-7.5" font-family="Helvetica,sans-Serif" font-size="10.00">fwGui::ToolboxLayoutManager</text>
</a>
</g>
</g>
<!-- Node1&#45;&gt;Node6 -->
<g id="edge5" class="edge"><title>Node1&#45;&gt;Node6</title>
<path fill="none" stroke="midnightblue" d="M74,-46.5858C74,-37.0743 74,-26.7864 74,-19.7305"/>
<polygon fill="midnightblue" stroke="midnightblue" points="70.5001,-46.7808 74,-56.7808 77.5001,-46.7809 70.5001,-46.7808"/>
</g>
<!-- Node2 -->
<g id="node2" class="node"><title>Node2</title>
<g id="a_node2"><a xlink:href="classfwGui_1_1layoutManager_1_1IViewLayoutManager.html" target="_top" xlink:title="Defines the generic layout manager for IHM. ">
<polygon fill="white" stroke="black" points="17,-125 17,-155 131,-155 131,-125 17,-125"/>
<text text-anchor="start" x="25" y="-143" font-family="Helvetica,sans-Serif" font-size="10.00">fwGui::layoutManager</text>
<text text-anchor="middle" x="74" y="-132" font-family="Helvetica,sans-Serif" font-size="10.00">::IViewLayoutManager</text>
</a>
</g>
</g>
<!-- Node2&#45;&gt;Node1 -->
<g id="edge1" class="edge"><title>Node2&#45;&gt;Node1</title>
<path fill="none" stroke="midnightblue" d="M74,-114.532C74,-105.361 74,-95.2449 74,-87.2931"/>
<polygon fill="midnightblue" stroke="midnightblue" points="70.5001,-114.679 74,-124.679 77.5001,-114.679 70.5001,-114.679"/>
</g>
<!-- Node3 -->
<g id="node3" class="node"><title>Node3</title>
<g id="a_node3"><a xlink:href="classfwGui_1_1GuiBaseObject.html" target="_top" xlink:title="Base class for all fwGui&#39;s classes. ">
<polygon fill="white" stroke="black" points="17,-192.5 17,-211.5 131,-211.5 131,-192.5 17,-192.5"/>
<text text-anchor="middle" x="74" y="-199.5" font-family="Helvetica,sans-Serif" font-size="10.00">fwGui::GuiBaseObject</text>
</a>
</g>
</g>
<!-- Node3&#45;&gt;Node2 -->
<g id="edge2" class="edge"><title>Node3&#45;&gt;Node2</title>
<path fill="none" stroke="midnightblue" d="M74,-182.371C74,-173.585 74,-163.272 74,-155.141"/>
<polygon fill="midnightblue" stroke="midnightblue" points="70.5001,-182.403 74,-192.403 77.5001,-182.403 70.5001,-182.403"/>
</g>
<!-- Node4 -->
<g id="node4" class="node"><title>Node4</title>
<g id="a_node4"><a xlink:href="classfwCore_1_1BaseObject.html" target="_top" xlink:title="Base class for all FW4SPL&#39;s classes. ">
<polygon fill="white" stroke="black" points="21.5,-248.5 21.5,-267.5 126.5,-267.5 126.5,-248.5 21.5,-248.5"/>
<text text-anchor="middle" x="74" y="-255.5" font-family="Helvetica,sans-Serif" font-size="10.00">fwCore::BaseObject</text>
</a>
</g>
</g>
<!-- Node4&#45;&gt;Node3 -->
<g id="edge3" class="edge"><title>Node4&#45;&gt;Node3</title>
<path fill="none" stroke="midnightblue" d="M74,-237.805C74,-228.91 74,-218.78 74,-211.751"/>
<polygon fill="midnightblue" stroke="midnightblue" points="70.5001,-238.083 74,-248.083 77.5001,-238.083 70.5001,-238.083"/>
</g>
<!-- Node5 -->
<g id="node5" class="node"><title>Node5</title>
<polygon fill="white" stroke="#bfbfbf" points="8.5,-305 8.5,-335 139.5,-335 139.5,-305 8.5,-305"/>
<text text-anchor="start" x="16.5" y="-323" font-family="Helvetica,sans-Serif" font-size="10.00">std::enable_shared</text>
<text text-anchor="middle" x="74" y="-312" font-family="Helvetica,sans-Serif" font-size="10.00">_from_this&lt; BaseObject &gt;</text>
</g>
<!-- Node5&#45;&gt;Node4 -->
<g id="edge4" class="edge"><title>Node5&#45;&gt;Node4</title>
<path fill="none" stroke="midnightblue" d="M74,-294.586C74,-285.074 74,-274.786 74,-267.731"/>
<polygon fill="midnightblue" stroke="midnightblue" points="70.5001,-294.781 74,-304.781 77.5001,-294.781 70.5001,-294.781"/>
</g>
</g>
</svg>
