<?xml version="1.0" encoding="UTF-8" standalone="no"?>
<!DOCTYPE svg PUBLIC "-//W3C//DTD SVG 1.1//EN"
 "http://www.w3.org/Graphics/SVG/1.1/DTD/svg11.dtd">
<!-- Generated by graphviz version 2.26.3 (20100126.1600)
 -->
<!-- Title: uiMeasurement::action::FocusLandmark::updating Pages: 1 -->
<svg width="698pt" height="310pt"
 viewBox="0.00 0.00 698.00 309.79" xmlns="http://www.w3.org/2000/svg" xmlns:xlink="http://www.w3.org/1999/xlink">
<g id="graph1" class="graph" transform="scale(1 1) rotate(0) translate(4 305.794)">
<title>uiMeasurement::action::FocusLandmark::updating</title>
<polygon fill="white" stroke="white" points="-4,5 -4,-305.794 695,-305.794 695,5 -4,5"/>
<!-- Node1 -->
<g id="node1" class="node"><title>Node1</title>
<polygon fill="#bfbfbf" stroke="black" points="0.5,-126.799 0.5,-160.799 135.5,-160.799 135.5,-126.799 0.5,-126.799"/>
<text text-anchor="start" x="8.5" y="-147.799" font-family="Helvetica,sans-Serif" font-size="10.00">uiMeasurement::action</text>
<text text-anchor="middle" x="68" y="-134.799" font-family="Helvetica,sans-Serif" font-size="10.00">::FocusLandmark::updating</text>
</g>
<!-- Node2 -->
<g id="node3" class="node"><title>Node2</title>
<a xlink:href="classfwGui_1_1dialog_1_1MessageDialog.html#a7200cf2111a64af4a0c02bfb26fec8dc" target="_top" xlink:title="Add a button (OK, YES_NO, YES, NO, CANCEL) ">
<polygon fill="white" stroke="black" points="356.5,-122.799 356.5,-156.799 503.5,-156.799 503.5,-122.799 356.5,-122.799"/>
<text text-anchor="start" x="364.5" y="-143.799" font-family="Helvetica,sans-Serif" font-size="10.00">fwGui::dialog::MessageDialog</text>
<text text-anchor="middle" x="430" y="-130.799" font-family="Helvetica,sans-Serif" font-size="10.00">::addButton</text>
</a>
</g>
<!-- Node1&#45;&gt;Node2 -->
<g id="edge2" class="edge"><title>Node1&#45;&gt;Node2</title>
<path fill="none" stroke="midnightblue" d="M135.665,-143.051C195.299,-142.392 282.398,-141.43 346.381,-140.723"/>
<polygon fill="midnightblue" stroke="midnightblue" points="346.482,-144.222 356.443,-140.611 346.405,-137.222 346.482,-144.222"/>
</g>
<!-- Node3 -->
<g id="node5" class="node"><title>Node3</title>
<a xlink:href="classfwDataTools_1_1fieldHelper_1_1MedicalImageHelpers.html#a1aa6e7bebb9f96a8e60a14aecc352e99" target="_top" xlink:title="Check if the image is valid. ">
<polygon fill="white" stroke="black" points="183.5,-224.299 183.5,-271.299 308.5,-271.299 308.5,-224.299 183.5,-224.299"/>
<text text-anchor="start" x="191.5" y="-258.299" font-family="Helvetica,sans-Serif" font-size="10.00">fwDataTools::fieldHelper</text>
<text text-anchor="start" x="191.5" y="-245.299" font-family="Helvetica,sans-Serif" font-size="10.00">::MedicalImageHelpers::</text>
<text text-anchor="middle" x="246" y="-232.299" font-family="Helvetica,sans-Serif" font-size="10.00">checkImageValidity</text>
</a>
</g>
<!-- Node1&#45;&gt;Node3 -->
<g id="edge4" class="edge"><title>Node1&#45;&gt;Node3</title>
<path fill="none" stroke="midnightblue" d="M90.3744,-160.814C110.94,-176.026 142.605,-198.385 172,-214.799 174.886,-216.41 177.866,-218.004 180.898,-219.57"/>
<polygon fill="midnightblue" stroke="midnightblue" points="179.6,-222.833 190.109,-224.172 182.728,-216.571 179.6,-222.833"/>
</g>
<!-- Node4 -->
<g id="node7" class="node"><title>Node4</title>
<a xlink:href="classfwGui_1_1dialog_1_1MessageDialog.html#afb5819e4841835e33ecb9df169d8fe92" target="_top" xlink:title="Set the icon (CRITICAL, WARNING, INFO or QUESTION) ">
<polygon fill="white" stroke="black" points="356.5,-255.799 356.5,-289.799 503.5,-289.799 503.5,-255.799 356.5,-255.799"/>
<text text-anchor="start" x="364.5" y="-276.799" font-family="Helvetica,sans-Serif" font-size="10.00">fwGui::dialog::MessageDialog</text>
<text text-anchor="middle" x="430" y="-263.799" font-family="Helvetica,sans-Serif" font-size="10.00">::setIcon</text>
</a>
</g>
<!-- Node1&#45;&gt;Node4 -->
<g id="edge6" class="edge"><title>Node1&#45;&gt;Node4</title>
<path fill="none" stroke="midnightblue" d="M74.8287,-160.906C88.1646,-191.659 120.912,-255.44 172,-280.799 230.761,-309.966 306.683,-303.16 360.925,-291.984"/>
<polygon fill="midnightblue" stroke="midnightblue" points="361.755,-295.386 370.792,-289.854 360.278,-288.543 361.755,-295.386"/>
</g>
<!-- Node5 -->
<g id="node9" class="node"><title>Node5</title>
<a xlink:href="classfwGui_1_1dialog_1_1MessageDialog.html#a27e42ac5d51e12ae72a87e62e972bdd2" target="_top" xlink:title="Set the message. ">
<polygon fill="white" stroke="black" points="172.5,-171.799 172.5,-205.799 319.5,-205.799 319.5,-171.799 172.5,-171.799"/>
<text text-anchor="start" x="180.5" y="-192.799" font-family="Helvetica,sans-Serif" font-size="10.00">fwGui::dialog::MessageDialog</text>
<text text-anchor="middle" x="246" y="-179.799" font-family="Helvetica,sans-Serif" font-size="10.00">::setMessage</text>
</a>
</g>
<!-- Node1&#45;&gt;Node5 -->
<g id="edge8" class="edge"><title>Node1&#45;&gt;Node5</title>
<path fill="none" stroke="midnightblue" d="M135.294,-160.811C146.259,-163.583 157.692,-166.474 168.871,-169.3"/>
<polygon fill="midnightblue" stroke="midnightblue" points="168.058,-172.704 178.611,-171.762 169.774,-165.918 168.058,-172.704"/>
</g>
<!-- Node7 -->
<g id="node15" class="node"><title>Node7</title>
<a xlink:href="classfwGui_1_1dialog_1_1MessageDialog.html#ad71a45fa0e744cd1612241c8b1313620" target="_top" xlink:title="Set the title of the message box. ">
<polygon fill="white" stroke="black" points="172.5,-81.7987 172.5,-115.799 319.5,-115.799 319.5,-81.7987 172.5,-81.7987"/>
<text text-anchor="start" x="180.5" y="-102.799" font-family="Helvetica,sans-Serif" font-size="10.00">fwGui::dialog::MessageDialog</text>
<text text-anchor="middle" x="246" y="-89.7987" font-family="Helvetica,sans-Serif" font-size="10.00">::setTitle</text>
</a>
</g>
<!-- Node1&#45;&gt;Node7 -->
<g id="edge16" class="edge"><title>Node1&#45;&gt;Node7</title>
<path fill="none" stroke="midnightblue" d="M135.294,-126.786C146.259,-124.014 157.692,-121.124 168.871,-118.298"/>
<polygon fill="midnightblue" stroke="midnightblue" points="169.774,-121.68 178.611,-115.835 168.058,-114.893 169.774,-121.68"/>
</g>
<!-- Node8 -->
<g id="node17" class="node"><title>Node8</title>
<a xlink:href="classfwGui_1_1dialog_1_1MessageDialog.html#a6d638d48bf997624e8483616a7e0c3f7" target="_top" xlink:title="Show the message box and return the clicked button. ">
<polygon fill="white" stroke="black" points="356.5,-7.79866 356.5,-41.7987 503.5,-41.7987 503.5,-7.79866 356.5,-7.79866"/>
<text text-anchor="start" x="364.5" y="-28.7987" font-family="Helvetica,sans-Serif" font-size="10.00">fwGui::dialog::MessageDialog</text>
<text text-anchor="middle" x="430" y="-15.7987" font-family="Helvetica,sans-Serif" font-size="10.00">::show</text>
</a>
</g>
<!-- Node1&#45;&gt;Node8 -->
<g id="edge18" class="edge"><title>Node1&#45;&gt;Node8</title>
<path fill="none" stroke="midnightblue" d="M76.255,-126.606C90.9366,-98.2948 124.565,-42.8096 172,-20.7987 227.354,4.88668 296.85,2.10448 349.764,-6.12204"/>
<polygon fill="midnightblue" stroke="midnightblue" points="349.344,-9.59993 359.78,-7.77429 350.483,-2.69327 349.344,-9.59993"/>
</g>
<!-- Node10 -->
<g id="node21" class="node"><title>Node10</title>
<a xlink:href="classfwGui_1_1dialog_1_1MessageDialog.html#a8c59f4f1a8cd0319757d9207af8105bf" target="_top" xlink:title="fwGui::dialog::MessageDialog\l::showMessageDialog">
<polygon fill="white" stroke="black" points="172.5,-29.7987 172.5,-63.7987 319.5,-63.7987 319.5,-29.7987 172.5,-29.7987"/>
<text text-anchor="start" x="180.5" y="-50.7987" font-family="Helvetica,sans-Serif" font-size="10.00">fwGui::dialog::MessageDialog</text>
<text text-anchor="middle" x="246" y="-37.7987" font-family="Helvetica,sans-Serif" font-size="10.00">::showMessageDialog</text>
</a>
</g>
<!-- Node1&#45;&gt;Node10 -->
<g id="edge22" class="edge"><title>Node1&#45;&gt;Node10</title>
<path fill="none" stroke="midnightblue" d="M89.672,-126.509C110.017,-110.899 141.765,-88.0982 172,-72.7987 175.356,-71.1002 178.85,-69.4656 182.413,-67.9008"/>
<polygon fill="midnightblue" stroke="midnightblue" points="184.07,-71.0019 191.955,-63.9258 181.378,-64.5401 184.07,-71.0019"/>
</g>
<!-- Node5&#45;&gt;Node2 -->
<g id="edge12" class="edge"><title>Node5&#45;&gt;Node2</title>
<path fill="none" stroke="midnightblue" d="M309.838,-171.798C324.738,-167.83 340.729,-163.572 356.028,-159.498"/>
<polygon fill="midnightblue" stroke="midnightblue" points="357.201,-162.807 365.964,-156.852 355.4,-156.043 357.201,-162.807"/>
</g>
<!-- Node5&#45;&gt;Node4 -->
<g id="edge10" class="edge"><title>Node5&#45;&gt;Node4</title>
<path fill="none" stroke="midnightblue" d="M297.732,-205.877C305.272,-208.682 312.886,-211.694 320,-214.799 344.303,-225.406 370.606,-239.186 391.397,-250.653"/>
<polygon fill="midnightblue" stroke="midnightblue" points="389.8,-253.77 400.24,-255.574 393.204,-247.653 389.8,-253.77"/>
</g>
<!-- Node6 -->
<g id="node13" class="node"><title>Node6</title>
<a xlink:href="classfwGui_1_1dialog_1_1MessageDialog.html#af3e3451339ec5ddfee1435294fac9ee1" target="_top" xlink:title="Set the default button. ">
<polygon fill="white" stroke="black" points="356.5,-174.799 356.5,-208.799 503.5,-208.799 503.5,-174.799 356.5,-174.799"/>
<text text-anchor="start" x="364.5" y="-195.799" font-family="Helvetica,sans-Serif" font-size="10.00">fwGui::dialog::MessageDialog</text>
<text text-anchor="middle" x="430" y="-182.799" font-family="Helvetica,sans-Serif" font-size="10.00">::setDefaultButton</text>
</a>
</g>
<!-- Node5&#45;&gt;Node6 -->
<g id="edge14" class="edge"><title>Node5&#45;&gt;Node6</title>
<path fill="none" stroke="midnightblue" d="M319.515,-189.997C328.315,-190.141 337.351,-190.288 346.281,-190.434"/>
<polygon fill="midnightblue" stroke="midnightblue" points="346.246,-193.933 356.302,-190.597 346.36,-186.934 346.246,-193.933"/>
</g>
<!-- Node9 -->
<g id="node19" class="node"><title>Node9</title>
<a xlink:href="classfwGui_1_1dialog_1_1IMessageDialog.html#a3aafce0bcfa0fa0da4b5114ff798ddd7" target="_top" xlink:title="Show the message box and return the clicked button. ">
<polygon fill="white" stroke="black" points="540,-7.79866 540,-41.7987 690,-41.7987 690,-7.79866 540,-7.79866"/>
<text text-anchor="start" x="548" y="-28.7987" font-family="Helvetica,sans-Serif" font-size="10.00">fwGui::dialog::IMessageDialog</text>
<text text-anchor="middle" x="615" y="-15.7987" font-family="Helvetica,sans-Serif" font-size="10.00">::show</text>
</a>
</g>
<!-- Node8&#45;&gt;Node9 -->
<g id="edge20" class="edge"><title>Node8&#45;&gt;Node9</title>
<path fill="none" stroke="midnightblue" d="M503.648,-24.7987C512.194,-24.7987 520.965,-24.7987 529.65,-24.7987"/>
<polygon fill="midnightblue" stroke="midnightblue" points="529.789,-28.2988 539.789,-24.7987 529.789,-21.2988 529.789,-28.2988"/>
</g>
<!-- Node10&#45;&gt;Node2 -->
<g id="edge24" class="edge"><title>Node10&#45;&gt;Node2</title>
<path fill="none" stroke="midnightblue" d="M299.099,-63.9351C306.221,-66.673 313.355,-69.6501 320,-72.7987 346.818,-85.5054 375.394,-103.044 396.697,-116.99"/>
<polygon fill="midnightblue" stroke="midnightblue" points="394.793,-119.927 405.064,-122.527 398.657,-114.09 394.793,-119.927"/>
</g>
<!-- Node10&#45;&gt;Node8 -->
<g id="edge26" class="edge"><title>Node10&#45;&gt;Node8</title>
<path fill="none" stroke="midnightblue" d="M319.515,-38.0088C328.315,-36.9566 337.351,-35.8763 346.281,-34.8085"/>
<polygon fill="midnightblue" stroke="midnightblue" points="346.788,-38.273 356.302,-33.6104 345.957,-31.3225 346.788,-38.273"/>
</g>
</g>
</svg>
