<?xml version="1.0" encoding="UTF-8" standalone="no"?>
<!DOCTYPE svg PUBLIC "-//W3C//DTD SVG 1.1//EN"
 "http://www.w3.org/Graphics/SVG/1.1/DTD/svg11.dtd">
<!-- Generated by graphviz version 2.26.3 (20100126.1600)
 -->
<!-- Title: fwGui::registrar::MenuRegistrar::manage Pages: 1 -->
<svg width="498pt" height="224pt"
 viewBox="0.00 0.00 498.00 224.00" xmlns="http://www.w3.org/2000/svg" xmlns:xlink="http://www.w3.org/1999/xlink">
<g id="graph1" class="graph" transform="scale(1 1) rotate(0) translate(4 220)">
<title>fwGui::registrar::MenuRegistrar::manage</title>
<polygon fill="white" stroke="white" points="-4,5 -4,-220 495,-220 495,5 -4,5"/>
<!-- Node1 -->
<g id="node1" class="node"><title>Node1</title>
<polygon fill="#bfbfbf" stroke="black" points="0.5,-92 0.5,-126 153.5,-126 153.5,-92 0.5,-92"/>
<text text-anchor="start" x="8.5" y="-113" font-family="Helvetica,sans-Serif" font-size="10.00">fwGui::registrar::MenuRegistrar</text>
<text text-anchor="middle" x="77" y="-100" font-family="Helvetica,sans-Serif" font-size="10.00">::manage</text>
</g>
<!-- Node2 -->
<g id="node3" class="node"><title>Node2</title>
<a xlink:href="classfwGui_1_1GuiRegistry.html#ac6b050e3ffe844e58e7e3961175b1743" target="_top" xlink:title="Method called when the action service is starting. Call parent service actionServiceStarting() method...">
<polygon fill="white" stroke="black" points="211,-182 211,-216 327,-216 327,-182 211,-182"/>
<text text-anchor="start" x="219" y="-203" font-family="Helvetica,sans-Serif" font-size="10.00">fwGui::GuiRegistry</text>
<text text-anchor="middle" x="269" y="-190" font-family="Helvetica,sans-Serif" font-size="10.00">::actionServiceStarting</text>
</a>
</g>
<!-- Node1&#45;&gt;Node2 -->
<g id="edge2" class="edge"><title>Node1&#45;&gt;Node2</title>
<path fill="none" stroke="midnightblue" d="M107.732,-126.188C130.208,-138.477 161.604,-155.061 190,-168 197.613,-171.469 205.735,-174.924 213.766,-178.201"/>
<polygon fill="midnightblue" stroke="midnightblue" points="212.532,-181.477 223.116,-181.956 215.141,-174.981 212.532,-181.477"/>
</g>
<!-- Node3 -->
<g id="node5" class="node"><title>Node3</title>
<a xlink:href="classfwTools_1_1fwID.html#a4ac18bb9c046c3fd04a4c8a80add7ae6" target="_top" xlink:title="fwTools::fwID::exist">
<polygon fill="white" stroke="black" points="384.5,-143.5 384.5,-164.5 489.5,-164.5 489.5,-143.5 384.5,-143.5"/>
<text text-anchor="middle" x="437" y="-151.5" font-family="Helvetica,sans-Serif" font-size="10.00">fwTools::fwID::exist</text>
</a>
</g>
<!-- Node1&#45;&gt;Node3 -->
<g id="edge10" class="edge"><title>Node1&#45;&gt;Node3</title>
<path fill="none" stroke="midnightblue" d="M143.604,-126.062C158.772,-129.462 174.876,-132.692 190,-135 252.249,-144.501 324.088,-149.349 374.186,-151.759"/>
<polygon fill="midnightblue" stroke="midnightblue" points="374.069,-155.257 384.22,-152.223 374.393,-148.265 374.069,-155.257"/>
</g>
<!-- Node4 -->
<g id="node7" class="node"><title>Node4</title>
<a xlink:href="classfwGui_1_1GuiRegistry.html#a2b332812b07c6718cc8dbed6bf5ac8ef" target="_top" xlink:title="Method called when the action service is stopping. Call parent service actionServiceStopping() method...">
<polygon fill="white" stroke="black" points="209,-92 209,-126 329,-126 329,-92 209,-92"/>
<text text-anchor="start" x="217" y="-113" font-family="Helvetica,sans-Serif" font-size="10.00">fwGui::GuiRegistry</text>
<text text-anchor="middle" x="269" y="-100" font-family="Helvetica,sans-Serif" font-size="10.00">::actionServiceStopping</text>
</a>
</g>
<!-- Node1&#45;&gt;Node4 -->
<g id="edge6" class="edge"><title>Node1&#45;&gt;Node4</title>
<path fill="none" stroke="midnightblue" d="M153.711,-109C168.648,-109 184.234,-109 198.942,-109"/>
<polygon fill="midnightblue" stroke="midnightblue" points="198.966,-112.5 208.966,-109 198.966,-105.5 198.966,-112.5"/>
</g>
<!-- Node5 -->
<g id="node11" class="node"><title>Node5</title>
<a xlink:href="namespacefwServices.html#ac1330dd9d5bce7469379218974afd269" target="_top" xlink:title="Get the first service of type serviceType which is attached to obj. ">
<polygon fill="white" stroke="black" points="226.5,-52.5 226.5,-73.5 311.5,-73.5 311.5,-52.5 226.5,-52.5"/>
<text text-anchor="middle" x="269" y="-60.5" font-family="Helvetica,sans-Serif" font-size="10.00">fwServices::get</text>
</a>
</g>
<!-- Node1&#45;&gt;Node5 -->
<g id="edge12" class="edge"><title>Node1&#45;&gt;Node5</title>
<path fill="none" stroke="midnightblue" d="M148.221,-91.9367C170.885,-86.5067 195.527,-80.6029 216.607,-75.5525"/>
<polygon fill="midnightblue" stroke="midnightblue" points="217.423,-78.9562 226.332,-73.2225 215.792,-72.1488 217.423,-78.9562"/>
</g>
<!-- Node6 -->
<g id="node13" class="node"><title>Node6</title>
<a xlink:href="classfwGui_1_1GuiRegistry.html#a7c9ce236af14e0c34ff9e68dda118d34" target="_top" xlink:title="Registers action sid associted with a parent sid. ">
<polygon fill="white" stroke="black" points="190.5,-0 190.5,-34 347.5,-34 347.5,-0 190.5,-0"/>
<text text-anchor="start" x="198.5" y="-21" font-family="Helvetica,sans-Serif" font-size="10.00">fwGui::GuiRegistry</text>
<text text-anchor="middle" x="269" y="-8" font-family="Helvetica,sans-Serif" font-size="10.00">::registerActionSIDToParentSID</text>
</a>
</g>
<!-- Node1&#45;&gt;Node6 -->
<g id="edge14" class="edge"><title>Node1&#45;&gt;Node6</title>
<path fill="none" stroke="midnightblue" d="M102.65,-91.9106C125.028,-77.5219 158.722,-57.0915 190,-43 194.11,-41.1484 198.392,-39.3618 202.744,-37.6518"/>
<polygon fill="midnightblue" stroke="midnightblue" points="204.217,-40.8368 212.341,-34.0353 201.749,-34.2865 204.217,-40.8368"/>
</g>
<!-- Node2&#45;&gt;Node3 -->
<g id="edge4" class="edge"><title>Node2&#45;&gt;Node3</title>
<path fill="none" stroke="midnightblue" d="M327.287,-183.387C346.968,-178.116 368.734,-172.286 387.655,-167.217"/>
<polygon fill="midnightblue" stroke="midnightblue" points="388.799,-170.535 397.553,-164.566 386.988,-163.773 388.799,-170.535"/>
</g>
<!-- Node4&#45;&gt;Node3 -->
<g id="edge8" class="edge"><title>Node4&#45;&gt;Node3</title>
<path fill="none" stroke="midnightblue" d="M329.177,-125.119C348.402,-130.268 369.442,-135.904 387.791,-140.819"/>
<polygon fill="midnightblue" stroke="midnightblue" points="387.114,-144.261 397.679,-143.468 388.926,-137.499 387.114,-144.261"/>
</g>
</g>
</svg>
