<?xml version="1.0" encoding="UTF-8" standalone="no"?>
<!DOCTYPE svg PUBLIC "-//W3C//DTD SVG 1.1//EN"
 "http://www.w3.org/Graphics/SVG/1.1/DTD/svg11.dtd">
<!-- Generated by graphviz version 2.26.3 (20100126.1600)
 -->
<!-- Title: fwGdcmIO::reader::SeriesDB Pages: 1 -->
<svg width="1126pt" height="237pt"
 viewBox="0.00 0.00 1126.00 237.00" xmlns="http://www.w3.org/2000/svg" xmlns:xlink="http://www.w3.org/1999/xlink">
<g id="graph1" class="graph" transform="scale(1 1) rotate(0) translate(4 233)">
<title>fwGdcmIO::reader::SeriesDB</title>
<polygon fill="white" stroke="white" points="-4,5 -4,-233 1123,-233 1123,5 -4,5"/>
<!-- Node1 -->
<g id="node1" class="node"><title>Node1</title>
<polygon fill="#bfbfbf" stroke="black" points="972.5,-85.5 972.5,-106.5 1117.5,-106.5 1117.5,-85.5 972.5,-85.5"/>
<text text-anchor="middle" x="1045" y="-93.5" font-family="Helvetica,sans-Serif" font-size="10.00">fwGdcmIO::reader::SeriesDB</text>
</g>
<!-- Node2 -->
<g id="node2" class="node"><title>Node2</title>
<a xlink:href="classfwDataIO_1_1reader_1_1GenericObjectReader.html" target="_top" xlink:title="fwDataIO::reader::Generic\lObjectReader\&lt; ::fwMedData\l::SeriesDB \&gt;">
<polygon fill="white" stroke="black" points="792,-172.5 792,-219.5 934,-219.5 934,-172.5 792,-172.5"/>
<text text-anchor="start" x="800" y="-206.5" font-family="Helvetica,sans-Serif" font-size="10.00">fwDataIO::reader::Generic</text>
<text text-anchor="start" x="800" y="-193.5" font-family="Helvetica,sans-Serif" font-size="10.00">ObjectReader&lt; ::fwMedData</text>
<text text-anchor="middle" x="863" y="-180.5" font-family="Helvetica,sans-Serif" font-size="10.00">::SeriesDB &gt;</text>
</a>
</g>
<!-- Node2&#45;&gt;Node1 -->
<g id="edge2" class="edge"><title>Node2&#45;&gt;Node1</title>
<path fill="none" stroke="midnightblue" d="M924.479,-167.931C927.716,-166.296 930.906,-164.646 934,-163 968.575,-144.599 1007.43,-120.26 1028.77,-106.555"/>
<polygon fill="midnightblue" stroke="midnightblue" points="922.686,-164.913 915.278,-172.487 925.793,-171.186 922.686,-164.913"/>
</g>
<!-- Node3 -->
<g id="node4" class="node"><title>Node3</title>
<a xlink:href="classfwDataIO_1_1reader_1_1IObjectReader.html" target="_top" xlink:title="Base class for all object readers. ">
<polygon fill="white" stroke="black" points="314.5,-195 314.5,-229 443.5,-229 443.5,-195 314.5,-195"/>
<text text-anchor="start" x="322.5" y="-216" font-family="Helvetica,sans-Serif" font-size="10.00">fwDataIO::reader::IObject</text>
<text text-anchor="middle" x="379" y="-203" font-family="Helvetica,sans-Serif" font-size="10.00">Reader</text>
</a>
</g>
<!-- Node3&#45;&gt;Node2 -->
<g id="edge4" class="edge"><title>Node3&#45;&gt;Node2</title>
<path fill="none" stroke="midnightblue" d="M454.193,-214.634C533.767,-216.671 662.942,-217.844 774,-209 779.759,-208.541 785.713,-207.944 791.685,-207.257"/>
<polygon fill="midnightblue" stroke="midnightblue" points="453.871,-211.124 443.781,-214.355 453.684,-218.121 453.871,-211.124"/>
</g>
<!-- Node6 -->
<g id="node10" class="node"><title>Node6</title>
<a xlink:href="classfwDataIO_1_1reader_1_1GenericObjectReader.html" target="_top" xlink:title="generic class for all object readers. ">
<polygon fill="white" stroke="black" points="482,-168 482,-202 630,-202 630,-168 482,-168"/>
<text text-anchor="start" x="490" y="-189" font-family="Helvetica,sans-Serif" font-size="10.00">fwDataIO::reader::Generic</text>
<text text-anchor="middle" x="556" y="-176" font-family="Helvetica,sans-Serif" font-size="10.00">ObjectReader&lt; DATATYPE &gt;</text>
</a>
</g>
<!-- Node3&#45;&gt;Node6 -->
<g id="edge12" class="edge"><title>Node3&#45;&gt;Node6</title>
<path fill="none" stroke="midnightblue" d="M453.691,-200.606C463.038,-199.181 472.596,-197.723 481.933,-196.298"/>
<polygon fill="midnightblue" stroke="midnightblue" points="453.01,-197.17 443.652,-202.138 454.066,-204.09 453.01,-197.17"/>
</g>
<!-- Node4 -->
<g id="node6" class="node"><title>Node4</title>
<a xlink:href="classfwCore_1_1BaseObject.html" target="_top" xlink:title="Base class for all FW4SPL&#39;s classes. ">
<polygon fill="white" stroke="black" points="170.5,-201.5 170.5,-222.5 275.5,-222.5 275.5,-201.5 170.5,-201.5"/>
<text text-anchor="middle" x="223" y="-209.5" font-family="Helvetica,sans-Serif" font-size="10.00">fwCore::BaseObject</text>
</a>
</g>
<!-- Node4&#45;&gt;Node3 -->
<g id="edge6" class="edge"><title>Node4&#45;&gt;Node3</title>
<path fill="none" stroke="midnightblue" d="M285.849,-212C295.232,-212 304.919,-212 314.338,-212"/>
<polygon fill="midnightblue" stroke="midnightblue" points="285.815,-208.5 275.814,-212 285.814,-215.5 285.815,-208.5"/>
</g>
<!-- Node5 -->
<g id="node8" class="node"><title>Node5</title>
<polygon fill="white" stroke="#bfbfbf" points="0.5,-195 0.5,-229 131.5,-229 131.5,-195 0.5,-195"/>
<text text-anchor="start" x="8.5" y="-216" font-family="Helvetica,sans-Serif" font-size="10.00">std::enable_shared</text>
<text text-anchor="middle" x="66" y="-203" font-family="Helvetica,sans-Serif" font-size="10.00">_from_this&lt; BaseObject &gt;</text>
</g>
<!-- Node5&#45;&gt;Node4 -->
<g id="edge8" class="edge"><title>Node5&#45;&gt;Node4</title>
<path fill="none" stroke="midnightblue" d="M141.751,-212C151.466,-212 161.238,-212 170.469,-212"/>
<polygon fill="midnightblue" stroke="midnightblue" points="141.672,-208.5 131.672,-212 141.672,-215.5 141.672,-208.5"/>
</g>
<!-- Node6&#45;&gt;Node2 -->
<g id="edge10" class="edge"><title>Node6&#45;&gt;Node2</title>
<path fill="none" stroke="orange" stroke-dasharray="5,2" d="M640.577,-188.03C688.051,-189.731 746.625,-191.83 791.745,-193.447"/>
<polygon fill="orange" stroke="orange" points="640.435,-184.523 630.316,-187.663 640.184,-191.519 640.435,-184.523"/>
<text text-anchor="middle" x="711" y="-196" font-family="Helvetica,sans-Serif" font-size="10.00"> &lt; ::fwMedData::SeriesDB &gt;</text>
</g>
<!-- Node7 -->
<g id="node13" class="node"><title>Node7</title>
<a xlink:href="structfwData_1_1location_1_1enableFolder.html" target="_top" xlink:title="fwData::location::enable\lFolder\&lt; ::fwDataIO::reader\l::IObjectReader \&gt;">
<polygon fill="white" stroke="black" points="796,-106.5 796,-153.5 930,-153.5 930,-106.5 796,-106.5"/>
<text text-anchor="start" x="804" y="-140.5" font-family="Helvetica,sans-Serif" font-size="10.00">fwData::location::enable</text>
<text text-anchor="start" x="804" y="-127.5" font-family="Helvetica,sans-Serif" font-size="10.00">Folder&lt; ::fwDataIO::reader</text>
<text text-anchor="middle" x="863" y="-114.5" font-family="Helvetica,sans-Serif" font-size="10.00">::IObjectReader &gt;</text>
</a>
</g>
<!-- Node7&#45;&gt;Node1 -->
<g id="edge14" class="edge"><title>Node7&#45;&gt;Node1</title>
<path fill="none" stroke="midnightblue" d="M940.289,-115.561C956.563,-112.521 973.435,-109.369 988.759,-106.506"/>
<polygon fill="midnightblue" stroke="midnightblue" points="939.44,-112.159 930.253,-117.436 940.726,-119.04 939.44,-112.159"/>
</g>
<!-- Node8 -->
<g id="node15" class="node"><title>Node8</title>
<a xlink:href="structfwData_1_1location_1_1enableFolder.html" target="_top" xlink:title="This class is derived by reader/writer. ">
<polygon fill="white" stroke="black" points="495,-113 495,-147 617,-147 617,-113 495,-113"/>
<text text-anchor="start" x="503" y="-134" font-family="Helvetica,sans-Serif" font-size="10.00">fwData::location::enable</text>
<text text-anchor="middle" x="556" y="-121" font-family="Helvetica,sans-Serif" font-size="10.00">Folder&lt; RW &gt;</text>
</a>
</g>
<!-- Node8&#45;&gt;Node7 -->
<g id="edge16" class="edge"><title>Node8&#45;&gt;Node7</title>
<path fill="none" stroke="orange" stroke-dasharray="5,2" d="M627.278,-130C678.141,-130 746.092,-130 795.967,-130"/>
<polygon fill="orange" stroke="orange" points="627.02,-126.5 617.02,-130 627.02,-133.5 627.02,-126.5"/>
<text text-anchor="start" x="664" y="-147" font-family="Helvetica,sans-Serif" font-size="10.00"> &lt; ::fwDataIO::reader</text>
<text text-anchor="middle" x="711" y="-134" font-family="Helvetica,sans-Serif" font-size="10.00">::IObjectReader &gt;</text>
</g>
<!-- Node9 -->
<g id="node17" class="node"><title>Node9</title>
<a xlink:href="structfwData_1_1location_1_1enableMultiFiles.html" target="_top" xlink:title="fwData::location::enable\lMultiFiles\&lt; ::fwDataIO\l::reader::IObjectReader \&gt;">
<polygon fill="white" stroke="black" points="799,-40.5 799,-87.5 927,-87.5 927,-40.5 799,-40.5"/>
<text text-anchor="start" x="807" y="-74.5" font-family="Helvetica,sans-Serif" font-size="10.00">fwData::location::enable</text>
<text text-anchor="start" x="807" y="-61.5" font-family="Helvetica,sans-Serif" font-size="10.00">MultiFiles&lt; ::fwDataIO</text>
<text text-anchor="middle" x="863" y="-48.5" font-family="Helvetica,sans-Serif" font-size="10.00">::reader::IObjectReader &gt;</text>
</a>
</g>
<!-- Node9&#45;&gt;Node1 -->
<g id="edge18" class="edge"><title>Node9&#45;&gt;Node1</title>
<path fill="none" stroke="midnightblue" d="M937.459,-77.0918C953.306,-79.878 969.846,-82.7861 985.068,-85.4624"/>
<polygon fill="midnightblue" stroke="midnightblue" points="937.621,-73.5666 927.166,-75.282 936.409,-80.4609 937.621,-73.5666"/>
</g>
<!-- Node10 -->
<g id="node19" class="node"><title>Node10</title>
<a xlink:href="structfwData_1_1location_1_1enableMultiFiles.html" target="_top" xlink:title="This class is derived by reader/writer. ">
<polygon fill="white" stroke="black" points="495,-47 495,-81 617,-81 617,-47 495,-47"/>
<text text-anchor="start" x="503" y="-68" font-family="Helvetica,sans-Serif" font-size="10.00">fwData::location::enable</text>
<text text-anchor="middle" x="556" y="-55" font-family="Helvetica,sans-Serif" font-size="10.00">MultiFiles&lt; RW &gt;</text>
</a>
</g>
<!-- Node10&#45;&gt;Node9 -->
<g id="edge20" class="edge"><title>Node10&#45;&gt;Node9</title>
<path fill="none" stroke="orange" stroke-dasharray="5,2" d="M627.149,-64C679.038,-64 748.761,-64 798.922,-64"/>
<polygon fill="orange" stroke="orange" points="627.02,-60.5001 617.02,-64 627.02,-67.5001 627.02,-60.5001"/>
<text text-anchor="start" x="664" y="-81" font-family="Helvetica,sans-Serif" font-size="10.00"> &lt; ::fwDataIO::reader</text>
<text text-anchor="middle" x="711" y="-68" font-family="Helvetica,sans-Serif" font-size="10.00">::IObjectReader &gt;</text>
</g>
<!-- Node11 -->
<g id="node21" class="node"><title>Node11</title>
<a xlink:href="classfwCom_1_1HasSignals.html" target="_top" xlink:title="This class proposes a mapping between a SignalKeyType and a SignalBase. ">
<polygon fill="white" stroke="black" points="811,-0.5 811,-21.5 915,-21.5 915,-0.5 811,-0.5"/>
<text text-anchor="middle" x="863" y="-8.5" font-family="Helvetica,sans-Serif" font-size="10.00">fwCom::HasSignals</text>
</a>
</g>
<!-- Node11&#45;&gt;Node1 -->
<g id="edge22" class="edge"><title>Node11&#45;&gt;Node1</title>
<path fill="none" stroke="midnightblue" d="M916.956,-24.6244C922.783,-26.5599 928.564,-28.688 934,-31 970.168,-46.384 1009.07,-71.3377 1029.85,-85.4314"/>
<polygon fill="midnightblue" stroke="midnightblue" points="917.75,-21.2053 907.161,-21.5506 915.654,-27.8842 917.75,-21.2053"/>
</g>
</g>
</svg>
