<?xml version="1.0" encoding="UTF-8" standalone="no"?>
<!DOCTYPE svg PUBLIC "-//W3C//DTD SVG 1.1//EN"
 "http://www.w3.org/Graphics/SVG/1.1/DTD/svg11.dtd">
<!-- Generated by graphviz version 2.36.0 (20140111.2315)
 -->
<!-- Title: vtkGdcmIO::ImageSeriesWriter Pages: 1 -->
<svg width="1194pt" height="152pt"
 viewBox="0.00 0.00 1194.00 152.00" xmlns="http://www.w3.org/2000/svg" xmlns:xlink="http://www.w3.org/1999/xlink">
<g id="graph0" class="graph" transform="scale(1 1) rotate(0) translate(4 148)">
<title>vtkGdcmIO::ImageSeriesWriter</title>
<polygon fill="white" stroke="none" points="-4,4 -4,-148 1190,-148 1190,4 -4,4"/>
<!-- Node1 -->
<g id="node1" class="node"><title>Node1</title>
<polygon fill="#bfbfbf" stroke="black" points="1032,-45.5 1032,-64.5 1186,-64.5 1186,-45.5 1032,-45.5"/>
<text text-anchor="middle" x="1109" y="-52.5" font-family="Helvetica,sans-Serif" font-size="10.00">vtkGdcmIO::ImageSeriesWriter</text>
</g>
<!-- Node2 -->
<g id="node2" class="node"><title>Node2</title>
<g id="a_node2"><a xlink:href="classfwDataIO_1_1writer_1_1GenericObjectWriter.html" target="_top" xlink:title="fwDataIO::writer::Generic\lObjectWriter\&lt; ::fwMedData\l::ImageSeries \&gt;">
<polygon fill="white" stroke="black" points="856.5,-60.5 856.5,-101.5 993.5,-101.5 993.5,-60.5 856.5,-60.5"/>
<text text-anchor="start" x="864.5" y="-89.5" font-family="Helvetica,sans-Serif" font-size="10.00">fwDataIO::writer::Generic</text>
<text text-anchor="start" x="864.5" y="-78.5" font-family="Helvetica,sans-Serif" font-size="10.00">ObjectWriter&lt; ::fwMedData</text>
<text text-anchor="middle" x="925" y="-67.5" font-family="Helvetica,sans-Serif" font-size="10.00">::ImageSeries &gt;</text>
</a>
</g>
</g>
<!-- Node2&#45;&gt;Node1 -->
<g id="edge1" class="edge"><title>Node2&#45;&gt;Node1</title>
<path fill="none" stroke="midnightblue" d="M1003.48,-69.931C1016.03,-68.1381 1028.94,-66.295 1041.2,-64.5423"/>
<polygon fill="midnightblue" stroke="midnightblue" points="1002.92,-66.4764 993.511,-71.3555 1003.91,-73.406 1002.92,-66.4764"/>
</g>
<!-- Node3 -->
<g id="node3" class="node"><title>Node3</title>
<g id="a_node3"><a xlink:href="classfwDataIO_1_1writer_1_1IObjectWriter.html" target="_top" xlink:title="Base class for all object writers. ">
<polygon fill="white" stroke="black" points="372,-87 372,-117 498,-117 498,-87 372,-87"/>
<text text-anchor="start" x="380" y="-105" font-family="Helvetica,sans-Serif" font-size="10.00">fwDataIO::writer::IObject</text>
<text text-anchor="middle" x="435" y="-94" font-family="Helvetica,sans-Serif" font-size="10.00">Writer</text>
</a>
</g>
</g>
<!-- Node3&#45;&gt;Node2 -->
<g id="edge2" class="edge"><title>Node3&#45;&gt;Node2</title>
<path fill="none" stroke="midnightblue" d="M508.189,-104.094C588.798,-105.653 723.048,-105.924 838,-95 843.873,-94.4419 849.953,-93.7289 856.04,-92.9212"/>
<polygon fill="midnightblue" stroke="midnightblue" points="508.217,-100.594 498.147,-103.887 508.073,-107.592 508.217,-100.594"/>
</g>
<!-- Node8 -->
<g id="node8" class="node"><title>Node8</title>
<g id="a_node8"><a xlink:href="classfwDataIO_1_1writer_1_1GenericObjectWriter.html" target="_top" xlink:title="generic class for all object writers. ">
<polygon fill="white" stroke="black" points="536.5,-60 536.5,-90 679.5,-90 679.5,-60 536.5,-60"/>
<text text-anchor="start" x="544.5" y="-78" font-family="Helvetica,sans-Serif" font-size="10.00">fwDataIO::writer::Generic</text>
<text text-anchor="middle" x="608" y="-67" font-family="Helvetica,sans-Serif" font-size="10.00">ObjectWriter&lt; DATATYPE &gt;</text>
</a>
</g>
</g>
<!-- Node3&#45;&gt;Node8 -->
<g id="edge8" class="edge"><title>Node3&#45;&gt;Node8</title>
<path fill="none" stroke="midnightblue" d="M508.24,-90.5938C517.573,-89.1201 527.122,-87.6123 536.428,-86.143"/>
<polygon fill="midnightblue" stroke="midnightblue" points="507.55,-87.1591 498.219,-92.176 508.642,-94.0735 507.55,-87.1591"/>
</g>
<!-- Node4 -->
<g id="node4" class="node"><title>Node4</title>
<g id="a_node4"><a xlink:href="classfwCore_1_1BaseObject.html" target="_top" xlink:title="Base class for all FW4SPL&#39;s classes. ">
<polygon fill="white" stroke="black" points="170.5,-118.5 170.5,-137.5 275.5,-137.5 275.5,-118.5 170.5,-118.5"/>
<text text-anchor="middle" x="223" y="-125.5" font-family="Helvetica,sans-Serif" font-size="10.00">fwCore::BaseObject</text>
</a>
</g>
</g>
<!-- Node4&#45;&gt;Node3 -->
<g id="edge3" class="edge"><title>Node4&#45;&gt;Node3</title>
<path fill="none" stroke="midnightblue" d="M285.771,-120.352C312.845,-117 344.566,-113.073 371.701,-109.713"/>
<polygon fill="midnightblue" stroke="midnightblue" points="285.135,-116.904 275.641,-121.606 285.995,-123.851 285.135,-116.904"/>
</g>
<!-- Node5 -->
<g id="node5" class="node"><title>Node5</title>
<polygon fill="white" stroke="#bfbfbf" points="0.5,-114 0.5,-144 131.5,-144 131.5,-114 0.5,-114"/>
<text text-anchor="start" x="8.5" y="-132" font-family="Helvetica,sans-Serif" font-size="10.00">std::enable_shared</text>
<text text-anchor="middle" x="66" y="-121" font-family="Helvetica,sans-Serif" font-size="10.00">_from_this&lt; BaseObject &gt;</text>
</g>
<!-- Node5&#45;&gt;Node4 -->
<g id="edge4" class="edge"><title>Node5&#45;&gt;Node4</title>
<path fill="none" stroke="midnightblue" d="M142.089,-128.516C151.581,-128.454 161.12,-128.393 170.138,-128.335"/>
<polygon fill="midnightblue" stroke="midnightblue" points="141.813,-125.017 131.836,-128.582 141.858,-132.017 141.813,-125.017"/>
</g>
<!-- Node6 -->
<g id="node6" class="node"><title>Node6</title>
<g id="a_node6"><a xlink:title="STL class. ">
<polygon fill="white" stroke="#bfbfbf" points="193,-73.5 193,-92.5 253,-92.5 253,-73.5 193,-73.5"/>
<text text-anchor="middle" x="223" y="-80.5" font-family="Helvetica,sans-Serif" font-size="10.00">std::string</text>
</a>
</g>
</g>
<!-- Node6&#45;&gt;Node3 -->
<g id="edge5" class="edge"><title>Node6&#45;&gt;Node3</title>
<path fill="none" stroke="#9a32cd" stroke-dasharray="5,2" d="M263.442,-86.5685C293.941,-89.328 336.742,-93.2004 371.837,-96.3757"/>
<polygon fill="#9a32cd" stroke="#9a32cd" points="263.474,-83.0573 253.2,-85.6419 262.844,-90.0288 263.474,-83.0573"/>
<text text-anchor="middle" x="324" y="-98" font-family="Helvetica,sans-Serif" font-size="10.00"> m_extension</text>
</g>
<!-- Node7 -->
<g id="node7" class="node"><title>Node7</title>
<g id="a_node7"><a xlink:title="STL class. ">
<polygon fill="white" stroke="#bfbfbf" points="18.5,-65 18.5,-95 113.5,-95 113.5,-65 18.5,-65"/>
<text text-anchor="start" x="26.5" y="-83" font-family="Helvetica,sans-Serif" font-size="10.00">std::basic_string&lt;</text>
<text text-anchor="middle" x="66" y="-72" font-family="Helvetica,sans-Serif" font-size="10.00"> char &gt;</text>
</a>
</g>
</g>
<!-- Node7&#45;&gt;Node6 -->
<g id="edge6" class="edge"><title>Node7&#45;&gt;Node6</title>
<path fill="none" stroke="midnightblue" d="M123.677,-81.097C147.063,-81.5496 173.181,-82.0551 192.618,-82.4313"/>
<polygon fill="midnightblue" stroke="midnightblue" points="123.571,-77.5944 113.505,-80.9001 123.435,-84.5931 123.571,-77.5944"/>
</g>
<!-- Node8&#45;&gt;Node2 -->
<g id="edge7" class="edge"><title>Node8&#45;&gt;Node2</title>
<path fill="none" stroke="orange" stroke-dasharray="5,2" d="M689.802,-76.5391C741.363,-77.5212 807.434,-78.7797 856.245,-79.7094"/>
<polygon fill="orange" stroke="orange" points="689.757,-73.0377 679.692,-76.3465 689.624,-80.0364 689.757,-73.0377"/>
<text text-anchor="middle" x="768" y="-83" font-family="Helvetica,sans-Serif" font-size="10.00"> &lt; ::fwMedData::ImageSeries &gt;</text>
</g>
<!-- Node9 -->
<g id="node9" class="node"><title>Node9</title>
<g id="a_node9"><a xlink:href="structfwData_1_1location_1_1enableFolder.html" target="_top" xlink:title="fwData::location::enable\lFolder\&lt; ::fwDataIO::writer\l::IObjectWriter \&gt;">
<polygon fill="white" stroke="black" points="859.5,-0.5 859.5,-41.5 990.5,-41.5 990.5,-0.5 859.5,-0.5"/>
<text text-anchor="start" x="867.5" y="-29.5" font-family="Helvetica,sans-Serif" font-size="10.00">fwData::location::enable</text>
<text text-anchor="start" x="867.5" y="-18.5" font-family="Helvetica,sans-Serif" font-size="10.00">Folder&lt; ::fwDataIO::writer</text>
<text text-anchor="middle" x="925" y="-7.5" font-family="Helvetica,sans-Serif" font-size="10.00">::IObjectWriter &gt;</text>
</a>
</g>
</g>
<!-- Node9&#45;&gt;Node1 -->
<g id="edge9" class="edge"><title>Node9&#45;&gt;Node1</title>
<path fill="none" stroke="midnightblue" d="M1000.76,-34.9658C1019.66,-38.4975 1039.53,-42.2097 1056.96,-45.4659"/>
<polygon fill="midnightblue" stroke="midnightblue" points="1001.15,-31.4788 990.679,-33.0829 999.866,-38.3598 1001.15,-31.4788"/>
</g>
<!-- Node10 -->
<g id="node10" class="node"><title>Node10</title>
<g id="a_node10"><a xlink:href="structfwData_1_1location_1_1enableFolder.html" target="_top" xlink:title="This class is derived by reader/writer. ">
<polygon fill="white" stroke="black" points="547,-6 547,-36 669,-36 669,-6 547,-6"/>
<text text-anchor="start" x="555" y="-24" font-family="Helvetica,sans-Serif" font-size="10.00">fwData::location::enable</text>
<text text-anchor="middle" x="608" y="-13" font-family="Helvetica,sans-Serif" font-size="10.00">Folder&lt; RW &gt;</text>
</a>
</g>
</g>
<!-- Node10&#45;&gt;Node9 -->
<g id="edge10" class="edge"><title>Node10&#45;&gt;Node9</title>
<path fill="none" stroke="orange" stroke-dasharray="5,2" d="M679.511,-21C733.33,-21 806.892,-21 859.233,-21"/>
<polygon fill="orange" stroke="orange" points="679.362,-17.5001 669.362,-21 679.362,-24.5001 679.362,-17.5001"/>
<text text-anchor="start" x="722.5" y="-35" font-family="Helvetica,sans-Serif" font-size="10.00"> &lt; ::fwDataIO::writer</text>
<text text-anchor="middle" x="768" y="-24" font-family="Helvetica,sans-Serif" font-size="10.00">::IObjectWriter &gt;</text>
</g>
</g>
</svg>
