<?xml version="1.0" encoding="UTF-8" standalone="no"?>
<!DOCTYPE svg PUBLIC "-//W3C//DTD SVG 1.1//EN"
 "http://www.w3.org/Graphics/SVG/1.1/DTD/svg11.dtd">
<!-- Generated by graphviz version 2.36.0 (20140111.2315)
 -->
<!-- Title: fwMDSemanticPatch::V1::V2::fwData::Composite::apply Pages: 1 -->
<svg width="484pt" height="189pt"
 viewBox="0.00 0.00 484.00 189.00" xmlns="http://www.w3.org/2000/svg" xmlns:xlink="http://www.w3.org/1999/xlink">
<g id="graph0" class="graph" transform="scale(1 1) rotate(0) translate(4 185)">
<title>fwMDSemanticPatch::V1::V2::fwData::Composite::apply</title>
<polygon fill="white" stroke="none" points="-4,4 -4,-185 480,-185 480,4 -4,4"/>
<!-- Node1 -->
<g id="node1" class="node"><title>Node1</title>
<polygon fill="#bfbfbf" stroke="black" points="0.5,-84.5 0.5,-125.5 137.5,-125.5 137.5,-84.5 0.5,-84.5"/>
<text text-anchor="start" x="8.5" y="-113.5" font-family="Helvetica,sans-Serif" font-size="10.00">fwMDSemanticPatch::</text>
<text text-anchor="start" x="8.5" y="-102.5" font-family="Helvetica,sans-Serif" font-size="10.00">V1::V2::fwData::Composite</text>
<text text-anchor="middle" x="69" y="-91.5" font-family="Helvetica,sans-Serif" font-size="10.00">::apply</text>
</g>
<!-- Node2 -->
<g id="node2" class="node"><title>Node2</title>
<g id="a_node2"><a xlink:href="classfwTools_1_1UUID.html#a1dc0d3db04daaf5671d0012d9d716cee" target="_top" xlink:title="Return a new extended UUID;. ">
<polygon fill="white" stroke="black" points="174,-161.5 174,-180.5 326,-180.5 326,-161.5 174,-161.5"/>
<text text-anchor="middle" x="250" y="-168.5" font-family="Helvetica,sans-Serif" font-size="10.00">fwTools::UUID::generateUUID</text>
</a>
</g>
</g>
<!-- Node1&#45;&gt;Node2 -->
<g id="edge1" class="edge"><title>Node1&#45;&gt;Node2</title>
<path fill="none" stroke="midnightblue" d="M112.404,-125.551C131.031,-134.108 153.329,-143.722 174,-151 181.948,-153.798 190.489,-156.423 198.857,-158.792"/>
<polygon fill="midnightblue" stroke="midnightblue" points="197.987,-162.182 208.557,-161.45 199.838,-155.431 197.987,-162.182"/>
</g>
<!-- Node3 -->
<g id="node3" class="node"><title>Node3</title>
<g id="a_node3"><a xlink:href="classfwAtomsPatch_1_1StructuralCreatorDB.html#ad8eaf8036d6baca064f5b4d1163c381b" target="_top" xlink:title="Returns the default instance of StructuralCreatorDB. ">
<polygon fill="white" stroke="black" points="185.5,-112 185.5,-142 314.5,-142 314.5,-112 185.5,-112"/>
<text text-anchor="start" x="193.5" y="-130" font-family="Helvetica,sans-Serif" font-size="10.00">fwAtomsPatch::Structural</text>
<text text-anchor="middle" x="250" y="-119" font-family="Helvetica,sans-Serif" font-size="10.00">CreatorDB::getDefault</text>
</a>
</g>
</g>
<!-- Node1&#45;&gt;Node3 -->
<g id="edge2" class="edge"><title>Node1&#45;&gt;Node3</title>
<path fill="none" stroke="midnightblue" d="M137.672,-113.317C149.893,-114.819 162.692,-116.392 175.08,-117.915"/>
<polygon fill="midnightblue" stroke="midnightblue" points="175.015,-121.433 185.368,-119.179 175.869,-114.485 175.015,-121.433"/>
</g>
<!-- Node4 -->
<g id="node4" class="node"><title>Node4</title>
<g id="a_node4"><a xlink:href="classfwAtoms_1_1String.html#a5e58c24f782dcaf06b0e7fc8d3fc689d" target="_top" xlink:title="Construct a new Object represented a string. ">
<polygon fill="white" stroke="black" points="193.5,-73.5 193.5,-92.5 306.5,-92.5 306.5,-73.5 193.5,-73.5"/>
<text text-anchor="middle" x="250" y="-80.5" font-family="Helvetica,sans-Serif" font-size="10.00">fwAtoms::String::New</text>
</a>
</g>
</g>
<!-- Node1&#45;&gt;Node4 -->
<g id="edge3" class="edge"><title>Node1&#45;&gt;Node4</title>
<path fill="none" stroke="midnightblue" d="M137.672,-96.6827C152.634,-94.8439 168.463,-92.8984 183.343,-91.0696"/>
<polygon fill="midnightblue" stroke="midnightblue" points="183.972,-94.5187 193.471,-89.8248 183.118,-87.5709 183.972,-94.5187"/>
</g>
<!-- Node5 -->
<g id="node5" class="node"><title>Node5</title>
<g id="a_node5"><a xlink:href="classfwAtomsPatch_1_1helper_1_1Object.html#aa5596a46cf7f0d2f5170f86a8fa6a27a" target="_top" xlink:title="Replaces an attribute. ">
<polygon fill="white" stroke="black" points="187.5,-24 187.5,-54 312.5,-54 312.5,-24 187.5,-24"/>
<text text-anchor="start" x="195.5" y="-42" font-family="Helvetica,sans-Serif" font-size="10.00">fwAtomsPatch::helper</text>
<text text-anchor="middle" x="250" y="-31" font-family="Helvetica,sans-Serif" font-size="10.00">::Object::replaceAttribute</text>
</a>
</g>
</g>
<!-- Node1&#45;&gt;Node5 -->
<g id="edge4" class="edge"><title>Node1&#45;&gt;Node5</title>
<path fill="none" stroke="midnightblue" d="M120.573,-84.4315C137.487,-77.7217 156.489,-70.3649 174,-64 180.01,-61.8153 186.317,-59.5978 192.614,-57.4316"/>
<polygon fill="midnightblue" stroke="midnightblue" points="194.117,-60.6174 202.456,-54.0821 191.861,-53.9907 194.117,-60.6174"/>
</g>
<!-- Node6 -->
<g id="node6" class="node"><title>Node6</title>
<g id="a_node6"><a xlink:href="namespacefwAtomsPatch_1_1helper.html#a49db7036b323f4c23effd6ca3e020996" target="_top" xlink:title="Get classname of an object. ">
<polygon fill="white" stroke="black" points="362.5,-49 362.5,-79 475.5,-79 475.5,-49 362.5,-49"/>
<text text-anchor="start" x="370.5" y="-67" font-family="Helvetica,sans-Serif" font-size="10.00">fwAtomsPatch::helper</text>
<text text-anchor="middle" x="419" y="-56" font-family="Helvetica,sans-Serif" font-size="10.00">::getClassname</text>
</a>
</g>
</g>
<!-- Node5&#45;&gt;Node6 -->
<g id="edge5" class="edge"><title>Node5&#45;&gt;Node6</title>
<path fill="none" stroke="midnightblue" d="M312.71,-48.238C325.54,-50.1587 339.108,-52.1899 352.083,-54.1322"/>
<polygon fill="midnightblue" stroke="midnightblue" points="351.928,-57.6479 362.336,-55.6671 352.965,-50.7251 351.928,-57.6479"/>
</g>
<!-- Node7 -->
<g id="node7" class="node"><title>Node7</title>
<g id="a_node7"><a xlink:href="namespacefwAtomsPatch_1_1helper.html#a87463944cf2233827a11abde6cad8635" target="_top" xlink:title="Get version of an object. ">
<polygon fill="white" stroke="black" points="362.5,-0 362.5,-30 475.5,-30 475.5,-0 362.5,-0"/>
<text text-anchor="start" x="370.5" y="-18" font-family="Helvetica,sans-Serif" font-size="10.00">fwAtomsPatch::helper</text>
<text text-anchor="middle" x="419" y="-7" font-family="Helvetica,sans-Serif" font-size="10.00">::getVersion</text>
</a>
</g>
</g>
<!-- Node5&#45;&gt;Node7 -->
<g id="edge6" class="edge"><title>Node5&#45;&gt;Node7</title>
<path fill="none" stroke="midnightblue" d="M312.71,-30.1315C325.54,-28.2876 339.108,-26.3377 352.083,-24.4731"/>
<polygon fill="midnightblue" stroke="midnightblue" points="352.936,-27.8866 362.336,-22.9996 351.94,-20.9578 352.936,-27.8866"/>
</g>
</g>
</svg>
