<?xml version="1.0" encoding="UTF-8" standalone="no"?>
<!DOCTYPE svg PUBLIC "-//W3C//DTD SVG 1.1//EN"
 "http://www.w3.org/Graphics/SVG/1.1/DTD/svg11.dtd">
<!-- Generated by graphviz version 2.26.3 (20100126.1600)
 -->
<!-- Title: fwMemory::BufferManager::getDefault Pages: 1 -->
<svg width="498pt" height="342pt"
 viewBox="0.00 0.00 498.00 342.00" xmlns="http://www.w3.org/2000/svg" xmlns:xlink="http://www.w3.org/1999/xlink">
<g id="graph1" class="graph" transform="scale(1 1) rotate(0) translate(4 338)">
<title>fwMemory::BufferManager::getDefault</title>
<polygon fill="white" stroke="white" points="-4,5 -4,-338 495,-338 495,5 -4,5"/>
<!-- Node1 -->
<g id="node1" class="node"><title>Node1</title>
<polygon fill="#bfbfbf" stroke="black" points="0,-156 0,-190 132,-190 132,-156 0,-156"/>
<text text-anchor="start" x="8" y="-177" font-family="Helvetica,sans-Serif" font-size="10.00">fwMemory::BufferManager</text>
<text text-anchor="middle" x="66" y="-164" font-family="Helvetica,sans-Serif" font-size="10.00">::getDefault</text>
</g>
<!-- Node2 -->
<g id="node3" class="node"><title>Node2</title>
<a xlink:href="classmonitor_1_1DumpEditor.html#a17950710cfcb8f493c2be4c58bf8cdb6" target="_top" xlink:title="This method is called when an item is pressed. ">
<polygon fill="white" stroke="black" points="184.5,-300 184.5,-334 291.5,-334 291.5,-300 184.5,-300"/>
<text text-anchor="start" x="192.5" y="-321" font-family="Helvetica,sans-Serif" font-size="10.00">monitor::DumpEditor</text>
<text text-anchor="middle" x="238" y="-308" font-family="Helvetica,sans-Serif" font-size="10.00">::changeStatus</text>
</a>
</g>
<!-- Node1&#45;&gt;Node2 -->
<g id="edge2" class="edge"><title>Node1&#45;&gt;Node2</title>
<path fill="none" stroke="midnightblue" d="M82.3754,-198.625C100.452,-225.066 131.827,-265.889 168,-291 173.005,-294.475 178.532,-297.55 184.22,-300.255"/>
<polygon fill="midnightblue" stroke="midnightblue" points="85.2405,-196.613 76.7672,-190.253 79.4247,-200.509 85.2405,-196.613"/>
</g>
<!-- Node3 -->
<g id="node5" class="node"><title>Node3</title>
<a xlink:href="classfwDcmtkIO_1_1reader_1_1ImageStorageReader.html#aea59b0189e5f99a8b19254f5e1b339ba" target="_top" xlink:title="Override. ">
<polygon fill="white" stroke="black" points="171,-248 171,-282 305,-282 305,-248 171,-248"/>
<text text-anchor="start" x="179" y="-269" font-family="Helvetica,sans-Serif" font-size="10.00">fwDcmtkIO::reader::</text>
<text text-anchor="middle" x="238" y="-256" font-family="Helvetica,sans-Serif" font-size="10.00">ImageStorageReader::read</text>
</a>
</g>
<!-- Node1&#45;&gt;Node3 -->
<g id="edge4" class="edge"><title>Node1&#45;&gt;Node3</title>
<path fill="none" stroke="midnightblue" d="M97.6936,-196.083C117.306,-209.705 143.366,-226.642 168,-239 174.373,-242.197 181.239,-245.221 188.092,-247.997"/>
<polygon fill="midnightblue" stroke="midnightblue" points="99.6297,-193.166 89.4357,-190.279 95.6044,-198.893 99.6297,-193.166"/>
</g>
<!-- Node5 -->
<g id="node9" class="node"><title>Node5</title>
<a xlink:href="structmemory_1_1Plugin.html#a4b1f615f755773c849dcd2e181d069f9" target="_top" xlink:title="Start method. (does nothing) ">
<polygon fill="white" stroke="black" points="183,-208.5 183,-229.5 293,-229.5 293,-208.5 183,-208.5"/>
<text text-anchor="middle" x="238" y="-216.5" font-family="Helvetica,sans-Serif" font-size="10.00">memory::Plugin::start</text>
</a>
</g>
<!-- Node1&#45;&gt;Node5 -->
<g id="edge8" class="edge"><title>Node1&#45;&gt;Node5</title>
<path fill="none" stroke="midnightblue" d="M139.871,-192.756C160.073,-198.159 181.186,-203.806 198.631,-208.471"/>
<polygon fill="midnightblue" stroke="midnightblue" points="140.611,-189.331 130.046,-190.129 138.803,-196.094 140.611,-189.331"/>
</g>
<!-- Node6 -->
<g id="node11" class="node"><title>Node6</title>
<a xlink:href="classmemory_1_1SDumpPolicy.html#ad5d8a108268cd474dd8f9c4c47920cce" target="_top" xlink:title="Overrides. ">
<polygon fill="white" stroke="black" points="179,-156 179,-190 297,-190 297,-156 179,-156"/>
<text text-anchor="start" x="187" y="-177" font-family="Helvetica,sans-Serif" font-size="10.00">memory::SDumpPolicy</text>
<text text-anchor="middle" x="238" y="-164" font-family="Helvetica,sans-Serif" font-size="10.00">::starting</text>
</a>
</g>
<!-- Node1&#45;&gt;Node6 -->
<g id="edge10" class="edge"><title>Node1&#45;&gt;Node6</title>
<path fill="none" stroke="midnightblue" d="M142.25,-173C154.545,-173 167.109,-173 178.92,-173"/>
<polygon fill="midnightblue" stroke="midnightblue" points="142.008,-169.5 132.008,-173 142.008,-176.5 142.008,-169.5"/>
</g>
<!-- Node8 -->
<g id="node15" class="node"><title>Node8</title>
<a xlink:href="classmonitor_1_1DumpEditor.html#adc8a37a7cbe7411ae70d34dcf6c46f1e" target="_top" xlink:title="Install the layout and call updating() method. ">
<polygon fill="white" stroke="black" points="184.5,-104 184.5,-138 291.5,-138 291.5,-104 184.5,-104"/>
<text text-anchor="start" x="192.5" y="-125" font-family="Helvetica,sans-Serif" font-size="10.00">monitor::DumpEditor</text>
<text text-anchor="middle" x="238" y="-112" font-family="Helvetica,sans-Serif" font-size="10.00">::starting</text>
</a>
</g>
<!-- Node1&#45;&gt;Node8 -->
<g id="edge14" class="edge"><title>Node1&#45;&gt;Node8</title>
<path fill="none" stroke="midnightblue" d="M132.331,-152.947C149.592,-147.728 167.97,-142.172 184.477,-137.181"/>
<polygon fill="midnightblue" stroke="midnightblue" points="130.878,-149.729 122.319,-155.973 132.904,-156.43 130.878,-149.729"/>
</g>
<!-- Node9 -->
<g id="node17" class="node"><title>Node9</title>
<a xlink:href="classmonitor_1_1action_1_1MemoryInfo.html#af66e402262589a5cc9e291fd435ad77e" target="_top" xlink:title="Shows in a message box few memory information. ">
<polygon fill="white" stroke="black" points="168.5,-52 168.5,-86 307.5,-86 307.5,-52 168.5,-52"/>
<text text-anchor="start" x="176.5" y="-73" font-family="Helvetica,sans-Serif" font-size="10.00">monitor::action::MemoryInfo</text>
<text text-anchor="middle" x="238" y="-60" font-family="Helvetica,sans-Serif" font-size="10.00">::updating</text>
</a>
</g>
<!-- Node1&#45;&gt;Node9 -->
<g id="edge16" class="edge"><title>Node1&#45;&gt;Node9</title>
<path fill="none" stroke="midnightblue" d="M92.3852,-149.295C112.131,-132.464 140.381,-110.241 168,-95 173.902,-91.743 180.295,-88.7364 186.735,-86.0129"/>
<polygon fill="midnightblue" stroke="midnightblue" points="90.0074,-146.724 84.732,-155.912 94.5857,-152.019 90.0074,-146.724"/>
</g>
<!-- Node10 -->
<g id="node19" class="node"><title>Node10</title>
<a xlink:href="classmonitor_1_1action_1_1SDumpAll.html#a8210d6ee32d65320a401d8a185313728" target="_top" xlink:title="Dump all unlocked array/image etc. ">
<polygon fill="white" stroke="black" points="172.5,-0 172.5,-34 303.5,-34 303.5,-0 172.5,-0"/>
<text text-anchor="start" x="180.5" y="-21" font-family="Helvetica,sans-Serif" font-size="10.00">monitor::action::SDumpAll</text>
<text text-anchor="middle" x="238" y="-8" font-family="Helvetica,sans-Serif" font-size="10.00">::updating</text>
</a>
</g>
<!-- Node1&#45;&gt;Node10 -->
<g id="edge18" class="edge"><title>Node1&#45;&gt;Node10</title>
<path fill="none" stroke="midnightblue" d="M80.4028,-146.995C97.7138,-117.925 129.321,-71.2356 168,-43 172.607,-39.6368 177.699,-36.6616 182.972,-34.0404"/>
<polygon fill="midnightblue" stroke="midnightblue" points="77.3015,-145.366 75.2938,-155.769 83.3506,-148.888 77.3015,-145.366"/>
</g>
<!-- Node4 -->
<g id="node7" class="node"><title>Node4</title>
<a xlink:href="classfwDcmtkIO_1_1SeriesDBReader.html#ad13606c2d6d63d6203d7d7b1fbcfb2f6" target="_top" xlink:title="Return true if a dicomdir file can be read. ">
<polygon fill="white" stroke="black" points="344,-248 344,-282 490,-282 490,-248 344,-248"/>
<text text-anchor="start" x="352" y="-269" font-family="Helvetica,sans-Serif" font-size="10.00">fwDcmtkIO::SeriesDBReader</text>
<text text-anchor="middle" x="417" y="-256" font-family="Helvetica,sans-Serif" font-size="10.00">::isDicomDirAvailable</text>
</a>
</g>
<!-- Node3&#45;&gt;Node4 -->
<g id="edge6" class="edge"><title>Node3&#45;&gt;Node4</title>
<path fill="none" stroke="midnightblue" d="M315.315,-265C324.757,-265 334.383,-265 343.763,-265"/>
<polygon fill="midnightblue" stroke="midnightblue" points="315.162,-261.5 305.162,-265 315.162,-268.5 315.162,-261.5"/>
</g>
<!-- Node7 -->
<g id="node13" class="node"><title>Node7</title>
<a xlink:href="classmemory_1_1SDumpPolicy.html#a7b25a33661cbf1a8942654ea67eafdf2" target="_top" xlink:title="Overrides. ">
<polygon fill="white" stroke="black" points="358,-156 358,-190 476,-190 476,-156 358,-156"/>
<text text-anchor="start" x="366" y="-177" font-family="Helvetica,sans-Serif" font-size="10.00">memory::SDumpPolicy</text>
<text text-anchor="middle" x="417" y="-164" font-family="Helvetica,sans-Serif" font-size="10.00">::swapping</text>
</a>
</g>
<!-- Node6&#45;&gt;Node7 -->
<g id="edge12" class="edge"><title>Node6&#45;&gt;Node7</title>
<path fill="none" stroke="midnightblue" d="M307.361,-173C324.07,-173 341.767,-173 357.955,-173"/>
<polygon fill="midnightblue" stroke="midnightblue" points="307.107,-169.5 297.107,-173 307.107,-176.5 307.107,-169.5"/>
</g>
</g>
</svg>
