<?xml version="1.0" encoding="UTF-8" standalone="no"?>
<!DOCTYPE svg PUBLIC "-//W3C//DTD SVG 1.1//EN"
 "http://www.w3.org/Graphics/SVG/1.1/DTD/svg11.dtd">
<!-- Generated by graphviz version 2.26.3 (20100126.1600)
 -->
<!-- Title: fwData::Histogram Pages: 1 -->
<!--zoomable 305 -->
<svg id="main" version="1.1" xmlns="http://www.w3.org/2000/svg" xmlns:xlink="http://www.w3.org/1999/xlink" xml:space="preserve" onload="init(evt)">
<style type="text/css"><![CDATA[
.edge:hover path { stroke: red; }
.edge:hover polygon { stroke: red; fill: red; }
]]></style>
<script type="text/javascript"><![CDATA[
var edges = document.getElementsByTagName('g');
if (edges && edges.length) {
  for (var i=0;i<edges.length;i++) {
    if (edges[i].id.substr(0,4)=='edge') {
      edges[i].setAttribute('class','edge');
    }
  }
}
]]></script>
        <defs>
                <circle id="rim" cx="0" cy="0" r="7"/>
                <circle id="rim2" cx="0" cy="0" r="3.5"/>
                <g id="zoomPlus">
                        <use xlink:href="#rim" fill="#404040">
                                <set attributeName="fill" to="#808080" begin="zoomplus.mouseover" end="zoomplus.mouseout"/>
                        </use>
                        <path d="M-4,0h8M0,-4v8" fill="none" stroke="white" stroke-width="1.5" pointer-events="none"/>
                </g>
                <g id="zoomMin">
                        <use xlink:href="#rim" fill="#404040">
                                <set attributeName="fill" to="#808080" begin="zoomminus.mouseover" end="zoomminus.mouseout"/>
                        </use>
                        <path d="M-4,0h8" fill="none" stroke="white" stroke-width="1.5" pointer-events="none"/>
                </g>
                <g id="dirArrow">
                        <path fill="none" stroke="white" stroke-width="1.5" d="M0,-3.0v7 M-2.5,-0.5L0,-3.0L2.5,-0.5"/>
                </g>
               <g id="resetDef">
                       <use xlink:href="#rim2" fill="#404040">
                               <set attributeName="fill" to="#808080" begin="reset.mouseover" end="reset.mouseout"/>
                       </use>
               </g>
        </defs>

<script type="text/javascript">
var viewWidth = 1554;
var viewHeight = 305;
var sectionId = 'dynsection-1';
</script>
<script xlink:href="svgpan.js"/>
<svg id="graph" class="graph">
<g id="viewport">
<title>fwData::Histogram</title>
<polygon fill="white" stroke="white" points="-4,5 -4,-301 1551,-301 1551,5 -4,5"/>
<!-- Node1 -->
<g id="node1" class="node"><title>Node1</title>
<polygon fill="#bfbfbf" stroke="black" points="1446.5,-40.5 1446.5,-61.5 1545.5,-61.5 1545.5,-40.5 1446.5,-40.5"/>
<text text-anchor="middle" x="1496" y="-48.5" font-family="Helvetica,sans-Serif" font-size="10.00">fwData::Histogram</text>
</g>
<!-- Node2 -->
<g id="node2" class="node"><title>Node2</title>
<a xlink:href="classfwData_1_1Object.html" target="_top" xlink:title="Base class for each data object. ">
<polygon fill="white" stroke="black" points="1324.5,-135.5 1324.5,-156.5 1407.5,-156.5 1407.5,-135.5 1324.5,-135.5"/>
<text text-anchor="middle" x="1366" y="-143.5" font-family="Helvetica,sans-Serif" font-size="10.00">fwData::Object</text>
</a>
</g>
<!-- Node2&#45;&gt;Node1 -->
<g id="edge2" class="edge"><title>Node2&#45;&gt;Node1</title>
<path fill="none" stroke="midnightblue" d="M1388.78,-129.356C1415.51,-109.821 1459.04,-78.0126 1481.53,-61.5768"/>
<polygon fill="midnightblue" stroke="midnightblue" points="1386.42,-126.744 1380.41,-135.47 1390.55,-132.396 1386.42,-126.744"/>
</g>
<!-- Node3 -->
<g id="node4" class="node"><title>Node3</title>
<a xlink:href="classfwTools_1_1Object.html" target="_top" xlink:title="Define Base class for FW4SPL objects and services. ">
<polygon fill="white" stroke="black" points="1066,-82.5 1066,-103.5 1152,-103.5 1152,-82.5 1066,-82.5"/>
<text text-anchor="middle" x="1109" y="-90.5" font-family="Helvetica,sans-Serif" font-size="10.00">fwTools::Object</text>
</a>
</g>
<!-- Node3&#45;&gt;Node2 -->
<g id="edge4" class="edge"><title>Node3&#45;&gt;Node2</title>
<path fill="none" stroke="midnightblue" d="M1136.83,-108.396C1153.48,-116.859 1175.36,-126.691 1196,-132 1238.88,-143.03 1289.65,-145.952 1324.48,-146.474"/>
<polygon fill="midnightblue" stroke="midnightblue" points="1138.16,-105.142 1127.67,-103.616 1134.92,-111.347 1138.16,-105.142"/>
</g>
<!-- Node4 -->
<g id="node6" class="node"><title>Node4</title>
<a xlink:href="classfwCore_1_1BaseObject.html" target="_top" xlink:title="Base class for all FW4SPL&#39;s classes. ">
<polygon fill="white" stroke="black" points="788.5,-40.5 788.5,-61.5 893.5,-61.5 893.5,-40.5 788.5,-40.5"/>
<text text-anchor="middle" x="841" y="-48.5" font-family="Helvetica,sans-Serif" font-size="10.00">fwCore::BaseObject</text>
</a>
</g>
<!-- Node4&#45;&gt;Node3 -->
<g id="edge6" class="edge"><title>Node4&#45;&gt;Node3</title>
<path fill="none" stroke="midnightblue" d="M903.648,-60.818C953.476,-68.6268 1021.89,-79.3477 1065.77,-86.2259"/>
<polygon fill="midnightblue" stroke="midnightblue" points="904.05,-57.3383 893.628,-59.2477 902.966,-64.2539 904.05,-57.3383"/>
</g>
<!-- Node5 -->
<g id="node8" class="node"><title>Node5</title>
<polygon fill="white" stroke="#bfbfbf" points="465.5,-40 465.5,-74 596.5,-74 596.5,-40 465.5,-40"/>
<text text-anchor="start" x="473.5" y="-61" font-family="Helvetica,sans-Serif" font-size="10.00">std::enable_shared</text>
<text text-anchor="middle" x="531" y="-48" font-family="Helvetica,sans-Serif" font-size="10.00">_from_this&lt; BaseObject &gt;</text>
</g>
<!-- Node5&#45;&gt;Node4 -->
<g id="edge8" class="edge"><title>Node5&#45;&gt;Node4</title>
<path fill="none" stroke="midnightblue" d="M607.013,-55.5288C663.25,-54.4403 738.418,-52.9855 788.204,-52.0219"/>
<polygon fill="midnightblue" stroke="midnightblue" points="606.673,-52.0346 596.743,-55.7276 606.809,-59.0333 606.673,-52.0346"/>
</g>
<!-- Node6 -->
<g id="node10" class="node"><title>Node6</title>
<a xlink:href="classfwTools_1_1fwID.html" target="_top" xlink:title="Defines ID for fwTools::Object. It is used to associate ID with object. ">
<polygon fill="white" stroke="black" points="802,-80.5 802,-101.5 880,-101.5 880,-80.5 802,-80.5"/>
<text text-anchor="middle" x="841" y="-88.5" font-family="Helvetica,sans-Serif" font-size="10.00">fwTools::fwID</text>
</a>
</g>
<!-- Node6&#45;&gt;Node3 -->
<g id="edge10" class="edge"><title>Node6&#45;&gt;Node3</title>
<path fill="none" stroke="darkgreen" d="M890.55,-91.3698C940.785,-91.7447 1017.75,-92.319 1065.64,-92.6764"/>
<polygon fill="darkgreen" stroke="darkgreen" points="890.282,-87.8678 880.257,-91.293 890.23,-94.8676 890.282,-87.8678"/>
</g>
<!-- Node7 -->
<g id="node12" class="node"><title>Node7</title>
<a xlink:href="classfwTools_1_1DynamicAttributes.html" target="_top" xlink:title="fwTools::DynamicAttributes\l\&lt; ::fwData::Object \&gt;">
<polygon fill="white" stroke="black" points="1040,-157 1040,-191 1178,-191 1178,-157 1040,-157"/>
<text text-anchor="start" x="1048" y="-178" font-family="Helvetica,sans-Serif" font-size="10.00">fwTools::DynamicAttributes</text>
<text text-anchor="middle" x="1109" y="-165" font-family="Helvetica,sans-Serif" font-size="10.00">&lt; ::fwData::Object &gt;</text>
</a>
</g>
<!-- Node7&#45;&gt;Node2 -->
<g id="edge12" class="edge"><title>Node7&#45;&gt;Node2</title>
<path fill="none" stroke="midnightblue" d="M1188.53,-170.438C1224.53,-168.186 1267.54,-164.604 1306,-159 1312.01,-158.124 1318.32,-156.994 1324.5,-155.766"/>
<polygon fill="midnightblue" stroke="midnightblue" points="1187.86,-166.972 1178.09,-171.066 1188.28,-173.959 1187.86,-166.972"/>
</g>
<!-- Node8 -->
<g id="node14" class="node"><title>Node8</title>
<a xlink:href="classfwTools_1_1DynamicAttributesBase.html" target="_top" xlink:title="fwTools::DynamicAttributesBase">
<polygon fill="white" stroke="black" points="450.5,-128.5 450.5,-149.5 611.5,-149.5 611.5,-128.5 450.5,-128.5"/>
<text text-anchor="middle" x="531" y="-136.5" font-family="Helvetica,sans-Serif" font-size="10.00">fwTools::DynamicAttributesBase</text>
</a>
</g>
<!-- Node8&#45;&gt;Node7 -->
<g id="edge14" class="edge"><title>Node8&#45;&gt;Node7</title>
<path fill="none" stroke="midnightblue" d="M621.834,-138.887C698.691,-139.392 811.698,-141.547 910,-149 953.227,-152.278 1001.48,-158.28 1039.64,-163.582"/>
<polygon fill="midnightblue" stroke="midnightblue" points="621.725,-135.386 611.705,-138.828 621.685,-142.386 621.725,-135.386"/>
</g>
<!-- Node13 -->
<g id="node24" class="node"><title>Node13</title>
<a xlink:href="classfwTools_1_1DynamicAttributes.html" target="_top" xlink:title="fwTools::DynamicAttributes\l\&lt; CLASS \&gt;">
<polygon fill="white" stroke="black" points="772,-158 772,-192 910,-192 910,-158 772,-158"/>
<text text-anchor="start" x="780" y="-179" font-family="Helvetica,sans-Serif" font-size="10.00">fwTools::DynamicAttributes</text>
<text text-anchor="middle" x="841" y="-166" font-family="Helvetica,sans-Serif" font-size="10.00">&lt; CLASS &gt;</text>
</a>
</g>
<!-- Node8&#45;&gt;Node13 -->
<g id="edge26" class="edge"><title>Node8&#45;&gt;Node13</title>
<path fill="none" stroke="midnightblue" d="M621.708,-149.534C669.639,-155.1 727.538,-161.824 771.805,-166.964"/>
<polygon fill="midnightblue" stroke="midnightblue" points="621.977,-146.042 611.64,-148.365 621.169,-152.995 621.977,-146.042"/>
</g>
<!-- Node9 -->
<g id="node16" class="node"><title>Node9</title>
<polygon fill="white" stroke="#bfbfbf" points="465.5,-176 465.5,-210 596.5,-210 596.5,-176 465.5,-176"/>
<text text-anchor="start" x="473.5" y="-197" font-family="Helvetica,sans-Serif" font-size="10.00">std::map&lt; AttrNameType,</text>
<text text-anchor="middle" x="531" y="-184" font-family="Helvetica,sans-Serif" font-size="10.00"> AttrRefType &gt;</text>
</g>
<!-- Node9&#45;&gt;Node7 -->
<g id="edge16" class="edge"><title>Node9&#45;&gt;Node7</title>
<path fill="none" stroke="#9a32cd" stroke-dasharray="5,2" d="M606.608,-211.574C614.468,-212.972 622.37,-214.162 630,-215 775.604,-230.983 946.689,-205.783 1039.89,-188.354"/>
<polygon fill="#9a32cd" stroke="#9a32cd" points="607.174,-208.119 596.698,-209.702 605.874,-214.997 607.174,-208.119"/>
<text text-anchor="start" x="779" y="-236" font-family="Helvetica,sans-Serif" font-size="10.00"> __FWTOOLS_ATTRIBUTE</text>
<text text-anchor="middle" x="841" y="-223" font-family="Helvetica,sans-Serif" font-size="10.00">_MAP_NAME</text>
</g>
<!-- Node9&#45;&gt;Node13 -->
<g id="edge28" class="edge"><title>Node9&#45;&gt;Node13</title>
<path fill="none" stroke="#9a32cd" stroke-dasharray="5,2" d="M606.93,-188.591C657.315,-185.666 722.925,-181.856 771.858,-179.015"/>
<polygon fill="#9a32cd" stroke="#9a32cd" points="606.523,-185.109 596.743,-189.183 606.929,-192.097 606.523,-185.109"/>
<text text-anchor="start" x="630" y="-204" font-family="Helvetica,sans-Serif" font-size="10.00"> __FWTOOLS_ATTRIBUTE</text>
<text text-anchor="middle" x="692" y="-191" font-family="Helvetica,sans-Serif" font-size="10.00">_MAP_NAME</text>
</g>
<!-- Node10 -->
<g id="node18" class="node"><title>Node10</title>
<a xlink:title="STL class. ">
<polygon fill="white" stroke="#bfbfbf" points="176,-182.5 176,-203.5 268,-203.5 268,-182.5 176,-182.5"/>
<text text-anchor="middle" x="222" y="-190.5" font-family="Helvetica,sans-Serif" font-size="10.00">std::map&lt; K, T &gt;</text>
</a>
</g>
<!-- Node10&#45;&gt;Node9 -->
<g id="edge18" class="edge"><title>Node10&#45;&gt;Node9</title>
<path fill="none" stroke="orange" stroke-dasharray="5,2" d="M278.437,-193C331.121,-193 409.737,-193 465.238,-193"/>
<polygon fill="orange" stroke="orange" points="278.26,-189.5 268.26,-193 278.26,-196.5 278.26,-189.5"/>
<text text-anchor="middle" x="359" y="-197" font-family="Helvetica,sans-Serif" font-size="10.00"> &lt; AttrNameType, AttrRefType &gt;</text>
</g>
<!-- Node16 -->
<g id="node32" class="node"><title>Node16</title>
<polygon fill="white" stroke="#bfbfbf" points="450.5,-263 450.5,-297 611.5,-297 611.5,-263 450.5,-263"/>
<text text-anchor="start" x="458.5" y="-284" font-family="Helvetica,sans-Serif" font-size="10.00">std::map&lt; SignalKeyType,</text>
<text text-anchor="middle" x="531" y="-271" font-family="Helvetica,sans-Serif" font-size="10.00"> std::shared_ptr&lt; SignalBase &gt; &gt;</text>
</g>
<!-- Node10&#45;&gt;Node16 -->
<g id="edge40" class="edge"><title>Node10&#45;&gt;Node16</title>
<path fill="none" stroke="orange" stroke-dasharray="5,2" d="M272.203,-206.185C314.818,-217.484 377.543,-234.362 432,-250 446.241,-254.089 461.585,-258.659 475.842,-262.974"/>
<polygon fill="orange" stroke="orange" points="272.918,-202.754 262.356,-203.579 271.127,-209.521 272.918,-202.754"/>
<text text-anchor="start" x="294.5" y="-267" font-family="Helvetica,sans-Serif" font-size="10.00"> &lt; SignalKeyType, std</text>
<text text-anchor="middle" x="359" y="-254" font-family="Helvetica,sans-Serif" font-size="10.00">::shared_ptr&lt; SignalBase &gt; &gt;</text>
</g>
<!-- Node11 -->
<g id="node20" class="node"><title>Node11</title>
<polygon fill="white" stroke="#bfbfbf" points="33.5,-182.5 33.5,-203.5 62.5,-203.5 62.5,-182.5 33.5,-182.5"/>
<text text-anchor="middle" x="48" y="-190.5" font-family="Helvetica,sans-Serif" font-size="10.00">K</text>
</g>
<!-- Node11&#45;&gt;Node10 -->
<g id="edge20" class="edge"><title>Node11&#45;&gt;Node10</title>
<path fill="none" stroke="#9a32cd" stroke-dasharray="5,2" d="M72.5869,-193C99.3704,-193 142.819,-193 175.976,-193"/>
<polygon fill="#9a32cd" stroke="#9a32cd" points="72.5359,-189.5 62.5359,-193 72.5358,-196.5 72.5359,-189.5"/>
<text text-anchor="middle" x="136" y="-197" font-family="Helvetica,sans-Serif" font-size="10.00"> keys</text>
</g>
<!-- Node12 -->
<g id="node22" class="node"><title>Node12</title>
<polygon fill="white" stroke="#bfbfbf" points="33.5,-117.5 33.5,-138.5 62.5,-138.5 62.5,-117.5 33.5,-117.5"/>
<text text-anchor="middle" x="48" y="-125.5" font-family="Helvetica,sans-Serif" font-size="10.00">T</text>
</g>
<!-- Node12&#45;&gt;Node10 -->
<g id="edge22" class="edge"><title>Node12&#45;&gt;Node10</title>
<path fill="none" stroke="#9a32cd" stroke-dasharray="5,2" d="M71.955,-136.949C103.778,-148.837 159.907,-169.805 193.757,-182.45"/>
<polygon fill="#9a32cd" stroke="#9a32cd" points="73.1284,-133.651 62.5359,-133.43 70.6788,-140.208 73.1284,-133.651"/>
<text text-anchor="middle" x="136" y="-172" font-family="Helvetica,sans-Serif" font-size="10.00"> elements</text>
</g>
<!-- Node22 -->
<g id="node45" class="node"><title>Node22</title>
<a xlink:title="STL class. ">
<polygon fill="white" stroke="#bfbfbf" points="178.5,-82.5 178.5,-103.5 265.5,-103.5 265.5,-82.5 178.5,-82.5"/>
<text text-anchor="middle" x="222" y="-90.5" font-family="Helvetica,sans-Serif" font-size="10.00">std::vector&lt; T &gt;</text>
</a>
</g>
<!-- Node12&#45;&gt;Node22 -->
<g id="edge50" class="edge"><title>Node12&#45;&gt;Node22</title>
<path fill="none" stroke="#9a32cd" stroke-dasharray="5,2" d="M72.4428,-123.083C99.8184,-117.577 144.733,-108.542 178.208,-101.809"/>
<polygon fill="#9a32cd" stroke="#9a32cd" points="71.6493,-119.673 62.5359,-125.076 73.0297,-126.535 71.6493,-119.673"/>
<text text-anchor="middle" x="136" y="-118" font-family="Helvetica,sans-Serif" font-size="10.00"> elements</text>
</g>
<!-- Node13&#45;&gt;Node7 -->
<g id="edge24" class="edge"><title>Node13&#45;&gt;Node7</title>
<path fill="none" stroke="orange" stroke-dasharray="5,2" d="M920.019,-174.705C958.007,-174.563 1003.13,-174.395 1039.75,-174.258"/>
<polygon fill="orange" stroke="orange" points="920.003,-171.205 910.017,-174.742 920.03,-178.205 920.003,-171.205"/>
<text text-anchor="middle" x="975" y="-178" font-family="Helvetica,sans-Serif" font-size="10.00"> &lt; ::fwData::Object &gt;</text>
</g>
<!-- Node14 -->
<g id="node28" class="node"><title>Node14</title>
<a xlink:href="classfwCom_1_1HasSignals.html" target="_top" xlink:title="This class proposes a mapping between a SignalKeyType and a SignalBase. ">
<polygon fill="white" stroke="black" points="1057,-240.5 1057,-261.5 1161,-261.5 1161,-240.5 1057,-240.5"/>
<text text-anchor="middle" x="1109" y="-248.5" font-family="Helvetica,sans-Serif" font-size="10.00">fwCom::HasSignals</text>
</a>
</g>
<!-- Node14&#45;&gt;Node2 -->
<g id="edge30" class="edge"><title>Node14&#45;&gt;Node2</title>
<path fill="none" stroke="midnightblue" d="M1151.13,-237.238C1191.47,-223.628 1253.75,-201.484 1306,-178 1320.32,-171.563 1335.96,-163.177 1347.68,-156.605"/>
<polygon fill="midnightblue" stroke="midnightblue" points="1149.98,-233.93 1141.61,-240.426 1152.21,-240.567 1149.98,-233.93"/>
</g>
<!-- Node15 -->
<g id="node30" class="node"><title>Node15</title>
<a xlink:href="classfwCom_1_1Signals.html" target="_top" xlink:title="This class proposes a mapping between a SignalKeyType and a SignalBase. ">
<polygon fill="white" stroke="black" points="798,-273.5 798,-294.5 884,-294.5 884,-273.5 798,-273.5"/>
<text text-anchor="middle" x="841" y="-281.5" font-family="Helvetica,sans-Serif" font-size="10.00">fwCom::Signals</text>
</a>
</g>
<!-- Node15&#45;&gt;Node14 -->
<g id="edge32" class="edge"><title>Node15&#45;&gt;Node14</title>
<path fill="none" stroke="#9a32cd" stroke-dasharray="5,2" d="M894.088,-277.463C941.3,-271.65 1009.93,-263.199 1056.85,-257.421"/>
<polygon fill="#9a32cd" stroke="#9a32cd" points="893.556,-274.002 884.059,-278.698 894.412,-280.95 893.556,-274.002"/>
<text text-anchor="middle" x="975" y="-276" font-family="Helvetica,sans-Serif" font-size="10.00"> m_signals</text>
</g>
<!-- Node16&#45;&gt;Node15 -->
<g id="edge34" class="edge"><title>Node16&#45;&gt;Node15</title>
<path fill="none" stroke="#9a32cd" stroke-dasharray="5,2" d="M621.936,-281.173C680.023,-281.923 752.677,-282.86 797.972,-283.445"/>
<polygon fill="#9a32cd" stroke="#9a32cd" points="621.684,-277.67 611.64,-281.041 621.594,-284.669 621.684,-277.67"/>
<text text-anchor="middle" x="692" y="-286" font-family="Helvetica,sans-Serif" font-size="10.00"> m_signals</text>
</g>
<!-- Node17 -->
<g id="node34" class="node"><title>Node17</title>
<a xlink:title="STL class. ">
<polygon fill="white" stroke="#bfbfbf" points="192,-269.5 192,-290.5 252,-290.5 252,-269.5 192,-269.5"/>
<text text-anchor="middle" x="222" y="-277.5" font-family="Helvetica,sans-Serif" font-size="10.00">std::string</text>
</a>
</g>
<!-- Node17&#45;&gt;Node16 -->
<g id="edge36" class="edge"><title>Node17&#45;&gt;Node16</title>
<path fill="none" stroke="#9a32cd" stroke-dasharray="5,2" d="M262.388,-280C309.89,-280 389.914,-280 450.289,-280"/>
<polygon fill="#9a32cd" stroke="#9a32cd" points="262.191,-276.5 252.191,-280 262.191,-283.5 262.191,-276.5"/>
<text text-anchor="middle" x="359" y="-284" font-family="Helvetica,sans-Serif" font-size="10.00"> keys</text>
</g>
<!-- Node18 -->
<g id="node36" class="node"><title>Node18</title>
<a xlink:title="STL class. ">
<polygon fill="white" stroke="#bfbfbf" points="0.5,-263 0.5,-297 95.5,-297 95.5,-263 0.5,-263"/>
<text text-anchor="start" x="8.5" y="-284" font-family="Helvetica,sans-Serif" font-size="10.00">std::basic_string&lt;</text>
<text text-anchor="middle" x="48" y="-271" font-family="Helvetica,sans-Serif" font-size="10.00"> char &gt;</text>
</a>
</g>
<!-- Node18&#45;&gt;Node17 -->
<g id="edge38" class="edge"><title>Node18&#45;&gt;Node17</title>
<path fill="none" stroke="midnightblue" d="M105.887,-280C134.618,-280 168.136,-280 191.754,-280"/>
<polygon fill="midnightblue" stroke="midnightblue" points="105.546,-276.5 95.5463,-280 105.546,-283.5 105.546,-276.5"/>
</g>
<!-- Node19 -->
<g id="node39" class="node"><title>Node19</title>
<polygon fill="white" stroke="#bfbfbf" points="1088.5,-42.5 1088.5,-63.5 1129.5,-63.5 1129.5,-42.5 1088.5,-42.5"/>
<text text-anchor="middle" x="1109" y="-50.5" font-family="Helvetica,sans-Serif" font-size="10.00">static</text>
</g>
<!-- Node19&#45;&gt;Node2 -->
<g id="edge42" class="edge"><title>Node19&#45;&gt;Node2</title>
<path fill="none" stroke="#9a32cd" stroke-dasharray="5,2" d="M1139.47,-43.7011C1180.22,-33.1368 1253.43,-20.8651 1306,-50 1339.52,-68.579 1356.79,-114.555 1363.11,-135.41"/>
<polygon fill="#9a32cd" stroke="#9a32cd" points="1138.33,-40.3849 1129.6,-46.3927 1140.17,-47.1383 1138.33,-40.3849"/>
<text text-anchor="middle" x="1251" y="-119" font-family="Helvetica,sans-Serif" font-size="10.00"> s_MODIFIED_SIG</text>
<text text-anchor="start" x="1196" y="-106" font-family="Helvetica,sans-Serif" font-size="10.00">s_REMOVED_FIELDS</text>
<text text-anchor="middle" x="1251" y="-93" font-family="Helvetica,sans-Serif" font-size="10.00">_SIG</text>
<text text-anchor="start" x="1196" y="-80" font-family="Helvetica,sans-Serif" font-size="10.00">s_CHANGED_FIELDS</text>
<text text-anchor="middle" x="1251" y="-67" font-family="Helvetica,sans-Serif" font-size="10.00">_SIG</text>
<text text-anchor="middle" x="1251" y="-54" font-family="Helvetica,sans-Serif" font-size="10.00">s_ADDED_FIELDS_SIG</text>
</g>
<!-- Node20 -->
<g id="node41" class="node"><title>Node20</title>
<polygon fill="white" stroke="#bfbfbf" points="481.5,-0.5 481.5,-21.5 580.5,-21.5 580.5,-0.5 481.5,-0.5"/>
<text text-anchor="middle" x="531" y="-8.5" font-family="Helvetica,sans-Serif" font-size="10.00">std::vector&lt; long &gt;</text>
</g>
<!-- Node20&#45;&gt;Node1 -->
<g id="edge44" class="edge"><title>Node20&#45;&gt;Node1</title>
<path fill="none" stroke="#9a32cd" stroke-dasharray="5,2" d="M590.723,-11C653.149,-11 753.949,-11 841,-11 841,-11 841,-11 1366,-11 1406.14,-11 1450.3,-28.6392 1475.44,-40.4905"/>
<polygon fill="#9a32cd" stroke="#9a32cd" points="590.663,-7.5001 580.663,-11 590.663,-14.5001 590.663,-7.5001"/>
<text text-anchor="middle" x="1109" y="-15" font-family="Helvetica,sans-Serif" font-size="10.00"> m_values</text>
</g>
<!-- Node21 -->
<g id="node43" class="node"><title>Node21</title>
<polygon fill="white" stroke="#bfbfbf" points="204.5,-0.5 204.5,-21.5 239.5,-21.5 239.5,-0.5 204.5,-0.5"/>
<text text-anchor="middle" x="222" y="-8.5" font-family="Helvetica,sans-Serif" font-size="10.00">long</text>
</g>
<!-- Node21&#45;&gt;Node20 -->
<g id="edge46" class="edge"><title>Node21&#45;&gt;Node20</title>
<path fill="none" stroke="#9a32cd" stroke-dasharray="5,2" d="M250.173,-11C302.585,-11 415.688,-11 481.243,-11"/>
<polygon fill="#9a32cd" stroke="#9a32cd" points="249.949,-7.5001 239.949,-11 249.949,-14.5001 249.949,-7.5001"/>
<text text-anchor="middle" x="359" y="-15" font-family="Helvetica,sans-Serif" font-size="10.00"> elements</text>
</g>
<!-- Node22&#45;&gt;Node20 -->
<g id="edge48" class="edge"><title>Node22&#45;&gt;Node20</title>
<path fill="none" stroke="orange" stroke-dasharray="5,2" d="M269.559,-79.7187C315.622,-66.9375 387.483,-47.2159 450,-31 462.198,-27.836 475.46,-24.5127 487.655,-21.5037"/>
<polygon fill="orange" stroke="orange" points="268.548,-76.3669 259.849,-82.4159 270.421,-83.1115 268.548,-76.3669"/>
<text text-anchor="middle" x="359" y="-78" font-family="Helvetica,sans-Serif" font-size="10.00"> &lt; long &gt;</text>
</g>
</g>
</svg>
        <g id="navigator" transform="translate(0 0)" fill="#404254">
                <rect fill="#f2f5e9" fill-opacity="0.5" stroke="#606060" stroke-width=".5" x="0" y="0" width="60" height="60"/>
                <use id="zoomplus" xlink:href="#zoomPlus" x="17" y="9" onmousedown="handleZoom(evt,'in')"/>
                <use id="zoomminus" xlink:href="#zoomMin" x="42" y="9" onmousedown="handleZoom(evt,'out')"/>
                <use id="reset" xlink:href="#resetDef" x="30" y="36" onmousedown="handleReset()"/>
                <g id="arrowUp" xlink:href="#dirArrow" transform="translate(30 24)" onmousedown="handlePan(0,-1)">
                  <use xlink:href="#rim" fill="#404040">
                        <set attributeName="fill" to="#808080" begin="arrowUp.mouseover" end="arrowUp.mouseout"/>
                  </use>
                  <path fill="none" stroke="white" stroke-width="1.5" d="M0,-3.0v7 M-2.5,-0.5L0,-3.0L2.5,-0.5"/>
                </g>
                <g id="arrowRight" xlink:href="#dirArrow" transform="rotate(90) translate(36 -43)" onmousedown="handlePan(1,0)">
                  <use xlink:href="#rim" fill="#404040">
                        <set attributeName="fill" to="#808080" begin="arrowRight.mouseover" end="arrowRight.mouseout"/>
                  </use>
                  <path fill="none" stroke="white" stroke-width="1.5" d="M0,-3.0v7 M-2.5,-0.5L0,-3.0L2.5,-0.5"/>
                </g>
                <g id="arrowDown" xlink:href="#dirArrow" transform="rotate(180) translate(-30 -48)" onmousedown="handlePan(0,1)">
                  <use xlink:href="#rim" fill="#404040">
                        <set attributeName="fill" to="#808080" begin="arrowDown.mouseover" end="arrowDown.mouseout"/>
                  </use>
                  <path fill="none" stroke="white" stroke-width="1.5" d="M0,-3.0v7 M-2.5,-0.5L0,-3.0L2.5,-0.5"/>
                </g>
                <g id="arrowLeft" xlink:href="#dirArrow" transform="rotate(270) translate(-36 17)" onmousedown="handlePan(-1,0)">
                  <use xlink:href="#rim" fill="#404040">
                        <set attributeName="fill" to="#808080" begin="arrowLeft.mouseover" end="arrowLeft.mouseout"/>
                  </use>
                  <path fill="none" stroke="white" stroke-width="1.5" d="M0,-3.0v7 M-2.5,-0.5L0,-3.0L2.5,-0.5"/>
                </g>
        </g>
        <svg viewBox="0 0 15 15" width="100%" height="30px" preserveAspectRatio="xMaxYMin meet">
         <g id="arrow_out" transform="scale(0.3 0.3)">
          <a xlink:href="classfwData_1_1Histogram__coll__graph_org.svg" target="_base">
           <rect id="button" ry="5" rx="5" y="6" x="6" height="38" width="38"
                fill="#f2f5e9" fill-opacity="0.5" stroke="#606060" stroke-width="1.0"/>
           <path id="arrow"
             d="M 11.500037,31.436501 C 11.940474,20.09759 22.043105,11.32322 32.158766,21.979434 L 37.068811,17.246167 C 37.068811,17.246167 37.088388,32 37.088388,32 L 22.160133,31.978069 C 22.160133,31.978069 26.997745,27.140456 26.997745,27.140456 C 18.528582,18.264221 13.291696,25.230495 11.500037,31.436501 z"
             style="fill:#404040;"/>
          </a>
         </g>
        </svg>
</svg>
