<?xml version="1.0" encoding="UTF-8" standalone="no"?>
<!DOCTYPE svg PUBLIC "-//W3C//DTD SVG 1.1//EN"
 "http://www.w3.org/Graphics/SVG/1.1/DTD/svg11.dtd">
<!-- Generated by graphviz version 2.36.0 (20140111.2315)
 -->
<!-- Title: ioVTK::SMeshReader::info Pages: 1 -->
<svg width="848pt" height="119pt"
 viewBox="0.00 0.00 848.00 119.00" xmlns="http://www.w3.org/2000/svg" xmlns:xlink="http://www.w3.org/1999/xlink">
<g id="graph0" class="graph" transform="scale(1 1) rotate(0) translate(4 115)">
<title>ioVTK::SMeshReader::info</title>
<polygon fill="white" stroke="none" points="-4,4 -4,-115 844,-115 844,4 -4,4"/>
<!-- Node1 -->
<g id="node1" class="node"><title>Node1</title>
<polygon fill="#bfbfbf" stroke="black" points="0,-56 0,-86 112,-86 112,-56 0,-56"/>
<text text-anchor="start" x="8" y="-74" font-family="Helvetica,sans-Serif" font-size="10.00">ioVTK::SMeshReader</text>
<text text-anchor="middle" x="56" y="-63" font-family="Helvetica,sans-Serif" font-size="10.00">::info</text>
</g>
<!-- Node2 -->
<g id="node2" class="node"><title>Node2</title>
<g id="a_node2"><a xlink:href="classfwGui_1_1dialog_1_1MessageDialog.html#a8c59f4f1a8cd0319757d9207af8105bf" target="_top" xlink:title="fwGui::dialog::MessageDialog\l::showMessageDialog">
<polygon fill="white" stroke="black" points="148.5,-56 148.5,-86 295.5,-86 295.5,-56 148.5,-56"/>
<text text-anchor="start" x="156.5" y="-74" font-family="Helvetica,sans-Serif" font-size="10.00">fwGui::dialog::MessageDialog</text>
<text text-anchor="middle" x="222" y="-63" font-family="Helvetica,sans-Serif" font-size="10.00">::showMessageDialog</text>
</a>
</g>
</g>
<!-- Node1&#45;&gt;Node2 -->
<g id="edge1" class="edge"><title>Node1&#45;&gt;Node2</title>
<path fill="none" stroke="midnightblue" d="M112.066,-71C120.517,-71 129.398,-71 138.289,-71"/>
<polygon fill="midnightblue" stroke="midnightblue" points="138.311,-74.5001 148.311,-71 138.311,-67.5001 138.311,-74.5001"/>
</g>
<!-- Node3 -->
<g id="node3" class="node"><title>Node3</title>
<g id="a_node3"><a xlink:href="classfwGui_1_1dialog_1_1MessageDialog.html#a0fd1de2703432a2181724b7bdaa26cfd" target="_top" xlink:title="Add a button (OK, YES_NO, YES, NO, CANCEL) ">
<polygon fill="white" stroke="black" points="332.5,-81 332.5,-111 479.5,-111 479.5,-81 332.5,-81"/>
<text text-anchor="start" x="340.5" y="-99" font-family="Helvetica,sans-Serif" font-size="10.00">fwGui::dialog::MessageDialog</text>
<text text-anchor="middle" x="406" y="-88" font-family="Helvetica,sans-Serif" font-size="10.00">::addButton</text>
</a>
</g>
</g>
<!-- Node2&#45;&gt;Node3 -->
<g id="edge2" class="edge"><title>Node2&#45;&gt;Node3</title>
<path fill="none" stroke="midnightblue" d="M295.716,-80.9884C304.492,-82.194 313.505,-83.4321 322.41,-84.6553"/>
<polygon fill="midnightblue" stroke="midnightblue" points="322.016,-88.1339 332.4,-86.0274 322.969,-81.1991 322.016,-88.1339"/>
</g>
<!-- Node4 -->
<g id="node4" class="node"><title>Node4</title>
<g id="a_node4"><a xlink:href="classfwGui_1_1dialog_1_1MessageDialog.html#acb5a5e63ec47bb74c2c3136922a3a112" target="_top" xlink:title="Show the message box and return the clicked button. ">
<polygon fill="white" stroke="black" points="332.5,-32 332.5,-62 479.5,-62 479.5,-32 332.5,-32"/>
<text text-anchor="start" x="340.5" y="-50" font-family="Helvetica,sans-Serif" font-size="10.00">fwGui::dialog::MessageDialog</text>
<text text-anchor="middle" x="406" y="-39" font-family="Helvetica,sans-Serif" font-size="10.00">::show</text>
</a>
</g>
</g>
<!-- Node2&#45;&gt;Node4 -->
<g id="edge3" class="edge"><title>Node2&#45;&gt;Node4</title>
<path fill="none" stroke="midnightblue" d="M295.716,-61.4111C304.492,-60.2538 313.505,-59.0652 322.41,-57.891"/>
<polygon fill="midnightblue" stroke="midnightblue" points="322.943,-61.3511 332.4,-56.5737 322.028,-54.4112 322.943,-61.3511"/>
</g>
<!-- Node5 -->
<g id="node5" class="node"><title>Node5</title>
<g id="a_node5"><a xlink:href="classfwGui_1_1dialog_1_1IMessageDialog.html#a3aafce0bcfa0fa0da4b5114ff798ddd7" target="_top" xlink:title="Show the message box and return the clicked button. ">
<polygon fill="white" stroke="black" points="516,-59 516,-89 666,-89 666,-59 516,-59"/>
<text text-anchor="start" x="524" y="-77" font-family="Helvetica,sans-Serif" font-size="10.00">fwGui::dialog::IMessageDialog</text>
<text text-anchor="middle" x="591" y="-66" font-family="Helvetica,sans-Serif" font-size="10.00">::show</text>
</a>
</g>
</g>
<!-- Node4&#45;&gt;Node5 -->
<g id="edge4" class="edge"><title>Node4&#45;&gt;Node5</title>
<path fill="none" stroke="midnightblue" d="M479.589,-57.7099C488.29,-58.9936 497.229,-60.3124 506.073,-61.6173"/>
<polygon fill="midnightblue" stroke="midnightblue" points="505.596,-65.0847 516,-63.0819 506.618,-58.1597 505.596,-65.0847"/>
</g>
<!-- Node6 -->
<g id="node6" class="node"><title>Node6</title>
<g id="a_node6"><a xlink:href="classfwServices_1_1registry_1_1ActiveWorkers.html#aae9d40e1fe222f0d14ac8284d3abf83c" target="_top" xlink:title="Get the default registered worker. ">
<polygon fill="white" stroke="black" points="522,0.5 522,-40.5 660,-40.5 660,0.5 522,0.5"/>
<text text-anchor="start" x="530" y="-28.5" font-family="Helvetica,sans-Serif" font-size="10.00">fwServices::registry</text>
<text text-anchor="start" x="530" y="-17.5" font-family="Helvetica,sans-Serif" font-size="10.00">::ActiveWorkers::getDefault</text>
<text text-anchor="middle" x="591" y="-6.5" font-family="Helvetica,sans-Serif" font-size="10.00">Worker</text>
</a>
</g>
</g>
<!-- Node4&#45;&gt;Node6 -->
<g id="edge5" class="edge"><title>Node4&#45;&gt;Node6</title>
<path fill="none" stroke="midnightblue" d="M479.589,-36.2901C490.176,-34.7281 501.117,-33.1139 511.809,-31.5363"/>
<polygon fill="midnightblue" stroke="midnightblue" points="512.583,-34.9601 521.965,-30.0379 511.561,-28.0351 512.583,-34.9601"/>
</g>
<!-- Node7 -->
<g id="node7" class="node"><title>Node7</title>
<g id="a_node7"><a xlink:href="classfwServices_1_1registry_1_1ActiveWorkers.html#a96003a042657996f7297f459e927ae16" target="_top" xlink:title="Returns an instance of ActiveWorkers. ">
<polygon fill="white" stroke="black" points="702,-5 702,-35 840,-35 840,-5 702,-5"/>
<text text-anchor="start" x="710" y="-23" font-family="Helvetica,sans-Serif" font-size="10.00">fwServices::registry</text>
<text text-anchor="middle" x="771" y="-12" font-family="Helvetica,sans-Serif" font-size="10.00">::ActiveWorkers::getDefault</text>
</a>
</g>
</g>
<!-- Node6&#45;&gt;Node7 -->
<g id="edge6" class="edge"><title>Node6&#45;&gt;Node7</title>
<path fill="none" stroke="midnightblue" d="M660.056,-20C670.469,-20 681.287,-20 691.895,-20"/>
<polygon fill="midnightblue" stroke="midnightblue" points="691.982,-23.5001 701.982,-20 691.982,-16.5001 691.982,-23.5001"/>
</g>
</g>
</svg>
