<?xml version="1.0" encoding="UTF-8" standalone="no"?>
<!DOCTYPE svg PUBLIC "-//W3C//DTD SVG 1.1//EN"
 "http://www.w3.org/Graphics/SVG/1.1/DTD/svg11.dtd">
<!-- Generated by graphviz version 2.36.0 (20140111.2315)
 -->
<!-- Title: fwStructuralPatch::fwMedData::ImageSeries::V1ToV2::apply Pages: 1 -->
<svg width="454pt" height="111pt"
 viewBox="0.00 0.00 454.00 111.00" xmlns="http://www.w3.org/2000/svg" xmlns:xlink="http://www.w3.org/1999/xlink">
<g id="graph0" class="graph" transform="scale(1 1) rotate(0) translate(4 107)">
<title>fwStructuralPatch::fwMedData::ImageSeries::V1ToV2::apply</title>
<polygon fill="white" stroke="none" points="-4,4 -4,-107 450,-107 450,4 -4,4"/>
<!-- Node1 -->
<g id="node1" class="node"><title>Node1</title>
<polygon fill="#bfbfbf" stroke="black" points="0,-18.5 0,-59.5 128,-59.5 128,-18.5 0,-18.5"/>
<text text-anchor="start" x="8" y="-47.5" font-family="Helvetica,sans-Serif" font-size="10.00">fwStructuralPatch::</text>
<text text-anchor="start" x="8" y="-36.5" font-family="Helvetica,sans-Serif" font-size="10.00">fwMedData::ImageSeries</text>
<text text-anchor="middle" x="64" y="-25.5" font-family="Helvetica,sans-Serif" font-size="10.00">::V1ToV2::apply</text>
</g>
<!-- Node2 -->
<g id="node2" class="node"><title>Node2</title>
<g id="a_node2"><a xlink:href="classfwAtomsPatch_1_1helper_1_1Object.html#a22c79fb36d0b05c4146c99084f4e29df" target="_top" xlink:title="Adds a new attribute in the current object. ">
<polygon fill="white" stroke="black" points="173.5,-49 173.5,-79 286.5,-79 286.5,-49 173.5,-49"/>
<text text-anchor="start" x="181.5" y="-67" font-family="Helvetica,sans-Serif" font-size="10.00">fwAtomsPatch::helper</text>
<text text-anchor="middle" x="230" y="-56" font-family="Helvetica,sans-Serif" font-size="10.00">::Object::addAttribute</text>
</a>
</g>
</g>
<!-- Node1&#45;&gt;Node2 -->
<g id="edge1" class="edge"><title>Node1&#45;&gt;Node2</title>
<path fill="none" stroke="midnightblue" d="M128.407,-48.6657C139.84,-50.4085 151.782,-52.229 163.279,-53.9816"/>
<polygon fill="midnightblue" stroke="midnightblue" points="162.831,-57.4537 173.245,-55.5007 163.886,-50.5336 162.831,-57.4537"/>
</g>
<!-- Node5 -->
<g id="node5" class="node"><title>Node5</title>
<g id="a_node5"><a xlink:href="classfwAtomsPatch_1_1IStructuralPatch.html#a726107d852575ef665641f0c4ea43209" target="_top" xlink:title="Updates the version of the patched object. ">
<polygon fill="white" stroke="black" points="164,-0 164,-30 296,-30 296,-0 164,-0"/>
<text text-anchor="start" x="172" y="-18" font-family="Helvetica,sans-Serif" font-size="10.00">fwAtomsPatch::IStructural</text>
<text text-anchor="middle" x="230" y="-7" font-family="Helvetica,sans-Serif" font-size="10.00">Patch::updateVersion</text>
</a>
</g>
</g>
<!-- Node1&#45;&gt;Node5 -->
<g id="edge4" class="edge"><title>Node1&#45;&gt;Node5</title>
<path fill="none" stroke="midnightblue" d="M128.407,-29.721C136.764,-28.498 145.393,-27.2351 153.922,-25.987"/>
<polygon fill="midnightblue" stroke="midnightblue" points="154.478,-29.4431 163.865,-24.5319 153.464,-22.5169 154.478,-29.4431"/>
</g>
<!-- Node3 -->
<g id="node3" class="node"><title>Node3</title>
<g id="a_node3"><a xlink:href="namespacefwAtomsPatch_1_1helper.html#a49db7036b323f4c23effd6ca3e020996" target="_top" xlink:title="Get classname of an object. ">
<polygon fill="white" stroke="black" points="332.5,-73 332.5,-103 445.5,-103 445.5,-73 332.5,-73"/>
<text text-anchor="start" x="340.5" y="-91" font-family="Helvetica,sans-Serif" font-size="10.00">fwAtomsPatch::helper</text>
<text text-anchor="middle" x="389" y="-80" font-family="Helvetica,sans-Serif" font-size="10.00">::getClassname</text>
</a>
</g>
</g>
<!-- Node2&#45;&gt;Node3 -->
<g id="edge2" class="edge"><title>Node2&#45;&gt;Node3</title>
<path fill="none" stroke="midnightblue" d="M286.794,-72.5291C298.247,-74.2798 310.405,-76.1383 322.172,-77.9371"/>
<polygon fill="midnightblue" stroke="midnightblue" points="321.971,-81.447 332.385,-79.4984 323.029,-74.5274 321.971,-81.447"/>
</g>
<!-- Node4 -->
<g id="node4" class="node"><title>Node4</title>
<g id="a_node4"><a xlink:href="namespacefwAtomsPatch_1_1helper.html#a87463944cf2233827a11abde6cad8635" target="_top" xlink:title="Get version of an object. ">
<polygon fill="white" stroke="black" points="332.5,-24 332.5,-54 445.5,-54 445.5,-24 332.5,-24"/>
<text text-anchor="start" x="340.5" y="-42" font-family="Helvetica,sans-Serif" font-size="10.00">fwAtomsPatch::helper</text>
<text text-anchor="middle" x="389" y="-31" font-family="Helvetica,sans-Serif" font-size="10.00">::getVersion</text>
</a>
</g>
</g>
<!-- Node2&#45;&gt;Node4 -->
<g id="edge3" class="edge"><title>Node2&#45;&gt;Node4</title>
<path fill="none" stroke="midnightblue" d="M286.794,-55.1155C298.247,-53.2919 310.405,-51.356 322.172,-49.4822"/>
<polygon fill="midnightblue" stroke="midnightblue" points="323.06,-52.8849 332.385,-47.8558 321.959,-45.972 323.06,-52.8849"/>
</g>
</g>
</svg>
