<?xml version="1.0" encoding="UTF-8" standalone="no"?>
<!DOCTYPE svg PUBLIC "-//W3C//DTD SVG 1.1//EN"
 "http://www.w3.org/Graphics/SVG/1.1/DTD/svg11.dtd">
<!-- Generated by graphviz version 2.26.3 (20100126.1600)
 -->
<!-- Title: fwComEd::helper::MedicalImageAdaptor::getImageSize Pages: 1 -->
<svg width="516pt" height="64pt"
 viewBox="0.00 0.00 516.00 64.00" xmlns="http://www.w3.org/2000/svg" xmlns:xlink="http://www.w3.org/1999/xlink">
<g id="graph1" class="graph" transform="scale(1 1) rotate(0) translate(4 60)">
<title>fwComEd::helper::MedicalImageAdaptor::getImageSize</title>
<polygon fill="white" stroke="white" points="-4,5 -4,-60 513,-60 513,5 -4,5"/>
<!-- Node1 -->
<g id="node1" class="node"><title>Node1</title>
<polygon fill="#bfbfbf" stroke="black" points="0.5,-22 0.5,-56 143.5,-56 143.5,-22 0.5,-22"/>
<text text-anchor="start" x="8.5" y="-43" font-family="Helvetica,sans-Serif" font-size="10.00">fwComEd::helper::Medical</text>
<text text-anchor="middle" x="72" y="-30" font-family="Helvetica,sans-Serif" font-size="10.00">ImageAdaptor::getImageSize</text>
</g>
<!-- Node2 -->
<g id="node3" class="node"><title>Node2</title>
<a xlink:href="classfwComEd_1_1helper_1_1MedicalImageAdaptor.html#aaa7cfeca2a01e237aae473f9edd7634f" target="_top" xlink:title="Return the image. ">
<polygon fill="white" stroke="black" points="376,-22 376,-56 508,-56 508,-22 376,-22"/>
<text text-anchor="start" x="384" y="-43" font-family="Helvetica,sans-Serif" font-size="10.00">fwComEd::helper::Medical</text>
<text text-anchor="middle" x="442" y="-30" font-family="Helvetica,sans-Serif" font-size="10.00">ImageAdaptor::getImage</text>
</a>
</g>
<!-- Node1&#45;&gt;Node2 -->
<g id="edge2" class="edge"><title>Node1&#45;&gt;Node2</title>
<path fill="none" stroke="midnightblue" d="M143.735,-42.0291C155.838,-42.4335 168.275,-42.7829 180,-43 251.099,-44.3162 268.903,-44.3935 340,-43 348.342,-42.8365 357.065,-42.5979 365.747,-42.3173"/>
<polygon fill="midnightblue" stroke="midnightblue" points="366.02,-45.81 375.895,-41.9705 365.781,-38.8141 366.02,-45.81"/>
</g>
<!-- Node3 -->
<g id="node5" class="node"><title>Node3</title>
<a xlink:href="classfwComEd_1_1helper_1_1MedicalImageAdaptor.html#ab151a5e40a286ae6fe40c065b4962026" target="_top" xlink:title="Get the image spacing. ">
<polygon fill="white" stroke="black" points="180.5,-0 180.5,-34 339.5,-34 339.5,-0 180.5,-0"/>
<text text-anchor="start" x="188.5" y="-21" font-family="Helvetica,sans-Serif" font-size="10.00">fwComEd::helper::Medical</text>
<text text-anchor="middle" x="260" y="-8" font-family="Helvetica,sans-Serif" font-size="10.00">ImageAdaptor::getImageSpacing</text>
</a>
</g>
<!-- Node1&#45;&gt;Node3 -->
<g id="edge4" class="edge"><title>Node1&#45;&gt;Node3</title>
<path fill="none" stroke="midnightblue" d="M143.611,-30.62C152.357,-29.5966 161.377,-28.541 170.344,-27.4916"/>
<polygon fill="midnightblue" stroke="midnightblue" points="170.903,-30.9502 180.429,-26.3115 170.09,-23.9976 170.903,-30.9502"/>
</g>
<!-- Node3&#45;&gt;Node2 -->
<g id="edge6" class="edge"><title>Node3&#45;&gt;Node2</title>
<path fill="none" stroke="midnightblue" d="M339.563,-26.6175C348.294,-27.6729 357.168,-28.7456 365.856,-29.7958"/>
<polygon fill="midnightblue" stroke="midnightblue" points="365.603,-33.2906 375.951,-31.016 366.443,-26.3411 365.603,-33.2906"/>
</g>
</g>
</svg>
