<?xml version="1.0" encoding="UTF-8" standalone="no"?>
<!DOCTYPE svg PUBLIC "-//W3C//DTD SVG 1.1//EN"
 "http://www.w3.org/Graphics/SVG/1.1/DTD/svg11.dtd">
<!-- Generated by graphviz version 2.26.3 (20100126.1600)
 -->
<!-- Title: fwServices::helper::SigSlotConnection Pages: 1 -->
<!--zoomable 514 -->
<svg id="main" version="1.1" xmlns="http://www.w3.org/2000/svg" xmlns:xlink="http://www.w3.org/1999/xlink" xml:space="preserve" onload="init(evt)">
<style type="text/css"><![CDATA[
.edge:hover path { stroke: red; }
.edge:hover polygon { stroke: red; fill: red; }
]]></style>
<script type="text/javascript"><![CDATA[
var edges = document.getElementsByTagName('g');
if (edges && edges.length) {
  for (var i=0;i<edges.length;i++) {
    if (edges[i].id.substr(0,4)=='edge') {
      edges[i].setAttribute('class','edge');
    }
  }
}
]]></script>
        <defs>
                <circle id="rim" cx="0" cy="0" r="7"/>
                <circle id="rim2" cx="0" cy="0" r="3.5"/>
                <g id="zoomPlus">
                        <use xlink:href="#rim" fill="#404040">
                                <set attributeName="fill" to="#808080" begin="zoomplus.mouseover" end="zoomplus.mouseout"/>
                        </use>
                        <path d="M-4,0h8M0,-4v8" fill="none" stroke="white" stroke-width="1.5" pointer-events="none"/>
                </g>
                <g id="zoomMin">
                        <use xlink:href="#rim" fill="#404040">
                                <set attributeName="fill" to="#808080" begin="zoomminus.mouseover" end="zoomminus.mouseout"/>
                        </use>
                        <path d="M-4,0h8" fill="none" stroke="white" stroke-width="1.5" pointer-events="none"/>
                </g>
                <g id="dirArrow">
                        <path fill="none" stroke="white" stroke-width="1.5" d="M0,-3.0v7 M-2.5,-0.5L0,-3.0L2.5,-0.5"/>
                </g>
               <g id="resetDef">
                       <use xlink:href="#rim2" fill="#404040">
                               <set attributeName="fill" to="#808080" begin="reset.mouseover" end="reset.mouseout"/>
                       </use>
               </g>
        </defs>

<script type="text/javascript">
var viewWidth = 406;
var viewHeight = 514;
var sectionId = 'dynsection-1';
</script>
<script xlink:href="svgpan.js"/>
<svg id="graph" class="graph">
<g id="viewport">
<title>fwServices::helper::SigSlotConnection</title>
<polygon fill="white" stroke="white" points="-4,5 -4,-510 403,-510 403,5 -4,5"/>
<!-- Node1 -->
<g id="node1" class="node"><title>Node1</title>
<polygon fill="#bfbfbf" stroke="black" points="22,-1 22,-35 126,-35 126,-1 22,-1"/>
<text text-anchor="start" x="30" y="-22" font-family="Helvetica,sans-Serif" font-size="10.00">fwServices::helper</text>
<text text-anchor="middle" x="74" y="-9" font-family="Helvetica,sans-Serif" font-size="10.00">::SigSlotConnection</text>
</g>
<!-- Node2 -->
<g id="node2" class="node"><title>Node2</title>
<a xlink:href="classfwCore_1_1BaseObject.html" target="_top" xlink:title="Base class for all FW4SPL&#39;s classes. ">
<polygon fill="white" stroke="black" points="12.5,-410.5 12.5,-431.5 117.5,-431.5 117.5,-410.5 12.5,-410.5"/>
<text text-anchor="middle" x="65" y="-418.5" font-family="Helvetica,sans-Serif" font-size="10.00">fwCore::BaseObject</text>
</a>
</g>
<!-- Node2&#45;&gt;Node1 -->
<g id="edge2" class="edge"><title>Node2&#45;&gt;Node1</title>
<path fill="none" stroke="midnightblue" d="M51.6283,-401.709C43.2382,-387.73 34,-368.019 34,-349 34,-349 34,-349 34,-104 34,-78.1475 49.0446,-51.6589 60.6806,-35.0379"/>
<polygon fill="midnightblue" stroke="midnightblue" points="48.8433,-403.851 57.1774,-410.392 54.7417,-400.081 48.8433,-403.851"/>
</g>
<!-- Node7 -->
<g id="node12" class="node"><title>Node7</title>
<a xlink:href="structfwCom_1_1SlotConnectionBase.html" target="_top" xlink:title="Base class for Slot connection implementation. This class is for internal use purpose. ">
<polygon fill="white" stroke="black" points="61.5,-338.5 61.5,-359.5 204.5,-359.5 204.5,-338.5 61.5,-338.5"/>
<text text-anchor="middle" x="133" y="-346.5" font-family="Helvetica,sans-Serif" font-size="10.00">fwCom::SlotConnectionBase</text>
</a>
</g>
<!-- Node2&#45;&gt;Node7 -->
<g id="edge14" class="edge"><title>Node2&#45;&gt;Node7</title>
<path fill="none" stroke="midnightblue" d="M82.0305,-402.968C94.9111,-389.329 112.161,-371.064 122.925,-359.667"/>
<polygon fill="midnightblue" stroke="midnightblue" points="79.3553,-400.703 75.0336,-410.376 84.4445,-405.509 79.3553,-400.703"/>
</g>
<!-- Node3 -->
<g id="node4" class="node"><title>Node3</title>
<polygon fill="white" stroke="#bfbfbf" points="-0.5,-471 -0.5,-505 130.5,-505 130.5,-471 -0.5,-471"/>
<text text-anchor="start" x="7.5" y="-492" font-family="Helvetica,sans-Serif" font-size="10.00">std::enable_shared</text>
<text text-anchor="middle" x="65" y="-479" font-family="Helvetica,sans-Serif" font-size="10.00">_from_this&lt; BaseObject &gt;</text>
</g>
<!-- Node3&#45;&gt;Node2 -->
<g id="edge4" class="edge"><title>Node3&#45;&gt;Node2</title>
<path fill="none" stroke="midnightblue" d="M65,-460.534C65,-450.306 65,-439.301 65,-431.506"/>
<polygon fill="midnightblue" stroke="midnightblue" points="61.5001,-460.746 65,-470.746 68.5001,-460.746 61.5001,-460.746"/>
</g>
<!-- Node4 -->
<g id="node6" class="node"><title>Node4</title>
<polygon fill="white" stroke="#bfbfbf" points="114.5,-87 114.5,-121 209.5,-121 209.5,-87 114.5,-87"/>
<text text-anchor="start" x="122.5" y="-108" font-family="Helvetica,sans-Serif" font-size="10.00">std::list&lt; ::fwCom</text>
<text text-anchor="middle" x="162" y="-95" font-family="Helvetica,sans-Serif" font-size="10.00">::Connection &gt;</text>
</g>
<!-- Node4&#45;&gt;Node1 -->
<g id="edge6" class="edge"><title>Node4&#45;&gt;Node1</title>
<path fill="none" stroke="#9a32cd" stroke-dasharray="5,2" d="M136.949,-79.5188C122.421,-65.321 104.486,-47.7935 91.4813,-35.084"/>
<polygon fill="#9a32cd" stroke="#9a32cd" points="134.594,-82.1104 144.192,-86.5966 139.486,-77.1041 134.594,-82.1104"/>
<text text-anchor="middle" x="158" y="-58.5" font-family="Helvetica,sans-Serif" font-size="10.00"> m_connections</text>
</g>
<!-- Node5 -->
<g id="node8" class="node"><title>Node5</title>
<a xlink:href="structfwCom_1_1Connection.html" target="_top" xlink:title="Class managing Signal&#45;Slot connections. ">
<polygon fill="white" stroke="black" points="110,-172.5 110,-193.5 214,-193.5 214,-172.5 110,-172.5"/>
<text text-anchor="middle" x="162" y="-180.5" font-family="Helvetica,sans-Serif" font-size="10.00">fwCom::Connection</text>
</a>
</g>
<!-- Node5&#45;&gt;Node4 -->
<g id="edge8" class="edge"><title>Node5&#45;&gt;Node4</title>
<path fill="none" stroke="#9a32cd" stroke-dasharray="5,2" d="M162,-162.162C162,-149.363 162,-133.171 162,-121.124"/>
<polygon fill="#9a32cd" stroke="#9a32cd" points="158.5,-162.346 162,-172.346 165.5,-162.346 158.5,-162.346"/>
<text text-anchor="middle" x="183.5" y="-144.5" font-family="Helvetica,sans-Serif" font-size="10.00"> elements</text>
</g>
<!-- Node6 -->
<g id="node10" class="node"><title>Node6</title>
<polygon fill="white" stroke="#bfbfbf" points="86,-245 86,-279 238,-279 238,-245 86,-245"/>
<text text-anchor="start" x="94" y="-266" font-family="Helvetica,sans-Serif" font-size="10.00">std::weak_ptr&lt; SlotConnection</text>
<text text-anchor="middle" x="162" y="-253" font-family="Helvetica,sans-Serif" font-size="10.00">Base &gt;</text>
</g>
<!-- Node6&#45;&gt;Node5 -->
<g id="edge10" class="edge"><title>Node6&#45;&gt;Node5</title>
<path fill="none" stroke="#9a32cd" stroke-dasharray="5,2" d="M162,-234.623C162,-220.473 162,-204.024 162,-193.567"/>
<polygon fill="#9a32cd" stroke="#9a32cd" points="158.5,-234.858 162,-244.858 165.5,-234.858 158.5,-234.858"/>
<text text-anchor="middle" x="205.5" y="-216.5" font-family="Helvetica,sans-Serif" font-size="10.00"> m_connectionBase</text>
</g>
<!-- Node7&#45;&gt;Node6 -->
<g id="edge12" class="edge"><title>Node7&#45;&gt;Node6</title>
<path fill="none" stroke="#9a32cd" stroke-dasharray="5,2" d="M139.126,-328.782C142.027,-319.391 145.596,-308.094 149,-298 151.081,-291.829 153.474,-285.107 155.635,-279.161"/>
<polygon fill="#9a32cd" stroke="#9a32cd" points="135.76,-327.822 136.179,-338.409 142.453,-329.871 135.76,-327.822"/>
<text text-anchor="middle" x="156.5" y="-306.5" font-family="Helvetica,sans-Serif" font-size="10.00"> ptr</text>
</g>
<!-- Node8 -->
<g id="node15" class="node"><title>Node8</title>
<a xlink:title="STL class. ">
<polygon fill="white" stroke="#bfbfbf" points="222,-338.5 222,-359.5 322,-359.5 322,-338.5 222,-338.5"/>
<text text-anchor="middle" x="272" y="-346.5" font-family="Helvetica,sans-Serif" font-size="10.00">std::weak_ptr&lt; T &gt;</text>
</a>
</g>
<!-- Node8&#45;&gt;Node6 -->
<g id="edge16" class="edge"><title>Node8&#45;&gt;Node6</title>
<path fill="none" stroke="orange" stroke-dasharray="5,2" d="M212.575,-334.882C204.016,-331.039 195.815,-326.168 189,-320 177.059,-309.193 169.983,-292.021 166.092,-279.161"/>
<polygon fill="orange" stroke="orange" points="211.37,-338.17 221.953,-338.661 213.986,-331.677 211.37,-338.17"/>
<text text-anchor="middle" x="244.5" y="-306.5" font-family="Helvetica,sans-Serif" font-size="10.00"> &lt; SlotConnectionBase &gt;</text>
</g>
<!-- Node9 -->
<g id="node17" class="node"><title>Node9</title>
<polygon fill="white" stroke="#bfbfbf" points="315.5,-410.5 315.5,-431.5 344.5,-431.5 344.5,-410.5 315.5,-410.5"/>
<text text-anchor="middle" x="330" y="-418.5" font-family="Helvetica,sans-Serif" font-size="10.00">T</text>
</g>
<!-- Node9&#45;&gt;Node8 -->
<g id="edge18" class="edge"><title>Node9&#45;&gt;Node8</title>
<path fill="none" stroke="#9a32cd" stroke-dasharray="5,2" d="M315.165,-402.584C304.213,-388.989 289.688,-370.958 280.593,-359.667"/>
<polygon fill="#9a32cd" stroke="#9a32cd" points="312.443,-404.784 321.442,-410.376 317.894,-400.393 312.443,-404.784"/>
<text text-anchor="middle" x="313.5" y="-382.5" font-family="Helvetica,sans-Serif" font-size="10.00"> ptr</text>
</g>
<!-- Node10 -->
<g id="node19" class="node"><title>Node10</title>
<a xlink:title="STL class. ">
<polygon fill="white" stroke="#bfbfbf" points="308.5,-298.5 308.5,-319.5 381.5,-319.5 381.5,-298.5 308.5,-298.5"/>
<text text-anchor="middle" x="345" y="-306.5" font-family="Helvetica,sans-Serif" font-size="10.00">std::list&lt; T &gt;</text>
</a>
</g>
<!-- Node9&#45;&gt;Node10 -->
<g id="edge22" class="edge"><title>Node9&#45;&gt;Node10</title>
<path fill="none" stroke="#9a32cd" stroke-dasharray="5,2" d="M332.798,-400.108C336.002,-376.184 341.125,-337.931 343.588,-319.543"/>
<polygon fill="#9a32cd" stroke="#9a32cd" points="329.297,-399.885 331.438,-410.261 336.235,-400.814 329.297,-399.885"/>
<text text-anchor="middle" x="356.5" y="-382.5" font-family="Helvetica,sans-Serif" font-size="10.00"> elements</text>
</g>
<!-- Node10&#45;&gt;Node4 -->
<g id="edge20" class="edge"><title>Node10&#45;&gt;Node4</title>
<path fill="none" stroke="orange" stroke-dasharray="5,2" d="M331.849,-289.767C308.992,-257.052 259.525,-189.327 209,-140 202.234,-133.394 194.261,-126.887 186.822,-121.26"/>
<polygon fill="orange" stroke="orange" points="329.244,-292.153 337.815,-298.38 334.998,-288.167 329.244,-292.153"/>
<text text-anchor="middle" x="340.5" y="-216.5" font-family="Helvetica,sans-Serif" font-size="10.00"> &lt; ::fwCom::Connection &gt;</text>
</g>
</g>
</svg>
        <g id="navigator" transform="translate(0 0)" fill="#404254">
                <rect fill="#f2f5e9" fill-opacity="0.5" stroke="#606060" stroke-width=".5" x="0" y="0" width="60" height="60"/>
                <use id="zoomplus" xlink:href="#zoomPlus" x="17" y="9" onmousedown="handleZoom(evt,'in')"/>
                <use id="zoomminus" xlink:href="#zoomMin" x="42" y="9" onmousedown="handleZoom(evt,'out')"/>
                <use id="reset" xlink:href="#resetDef" x="30" y="36" onmousedown="handleReset()"/>
                <g id="arrowUp" xlink:href="#dirArrow" transform="translate(30 24)" onmousedown="handlePan(0,-1)">
                  <use xlink:href="#rim" fill="#404040">
                        <set attributeName="fill" to="#808080" begin="arrowUp.mouseover" end="arrowUp.mouseout"/>
                  </use>
                  <path fill="none" stroke="white" stroke-width="1.5" d="M0,-3.0v7 M-2.5,-0.5L0,-3.0L2.5,-0.5"/>
                </g>
                <g id="arrowRight" xlink:href="#dirArrow" transform="rotate(90) translate(36 -43)" onmousedown="handlePan(1,0)">
                  <use xlink:href="#rim" fill="#404040">
                        <set attributeName="fill" to="#808080" begin="arrowRight.mouseover" end="arrowRight.mouseout"/>
                  </use>
                  <path fill="none" stroke="white" stroke-width="1.5" d="M0,-3.0v7 M-2.5,-0.5L0,-3.0L2.5,-0.5"/>
                </g>
                <g id="arrowDown" xlink:href="#dirArrow" transform="rotate(180) translate(-30 -48)" onmousedown="handlePan(0,1)">
                  <use xlink:href="#rim" fill="#404040">
                        <set attributeName="fill" to="#808080" begin="arrowDown.mouseover" end="arrowDown.mouseout"/>
                  </use>
                  <path fill="none" stroke="white" stroke-width="1.5" d="M0,-3.0v7 M-2.5,-0.5L0,-3.0L2.5,-0.5"/>
                </g>
                <g id="arrowLeft" xlink:href="#dirArrow" transform="rotate(270) translate(-36 17)" onmousedown="handlePan(-1,0)">
                  <use xlink:href="#rim" fill="#404040">
                        <set attributeName="fill" to="#808080" begin="arrowLeft.mouseover" end="arrowLeft.mouseout"/>
                  </use>
                  <path fill="none" stroke="white" stroke-width="1.5" d="M0,-3.0v7 M-2.5,-0.5L0,-3.0L2.5,-0.5"/>
                </g>
        </g>
        <svg viewBox="0 0 15 15" width="100%" height="30px" preserveAspectRatio="xMaxYMin meet">
         <g id="arrow_out" transform="scale(0.3 0.3)">
          <a xlink:href="classfwServices_1_1helper_1_1SigSlotConnection__coll__graph_org.svg" target="_base">
           <rect id="button" ry="5" rx="5" y="6" x="6" height="38" width="38"
                fill="#f2f5e9" fill-opacity="0.5" stroke="#606060" stroke-width="1.0"/>
           <path id="arrow"
             d="M 11.500037,31.436501 C 11.940474,20.09759 22.043105,11.32322 32.158766,21.979434 L 37.068811,17.246167 C 37.068811,17.246167 37.088388,32 37.088388,32 L 22.160133,31.978069 C 22.160133,31.978069 26.997745,27.140456 26.997745,27.140456 C 18.528582,18.264221 13.291696,25.230495 11.500037,31.436501 z"
             style="fill:#404040;"/>
          </a>
         </g>
        </svg>
</svg>
