<?xml version="1.0" encoding="UTF-8" standalone="no"?>
<!DOCTYPE svg PUBLIC "-//W3C//DTD SVG 1.1//EN"
 "http://www.w3.org/Graphics/SVG/1.1/DTD/svg11.dtd">
<!-- Generated by graphviz version 2.36.0 (20140111.2315)
 -->
<!-- Title: fwActivities::registry::Activities Pages: 1 -->
<svg width="1940pt" height="544pt"
 viewBox="0.00 0.00 1940.00 544.00" xmlns="http://www.w3.org/2000/svg" xmlns:xlink="http://www.w3.org/1999/xlink">
<g id="graph0" class="graph" transform="scale(1 1) rotate(0) translate(4 540)">
<title>fwActivities::registry::Activities</title>
<polygon fill="white" stroke="none" points="-4,4 -4,-540 1936,-540 1936,4 -4,4"/>
<!-- Node1 -->
<g id="node1" class="node"><title>Node1</title>
<polygon fill="#bfbfbf" stroke="black" points="1826,-385 1826,-415 1932,-415 1932,-385 1826,-385"/>
<text text-anchor="start" x="1834" y="-403" font-family="Helvetica,sans-Serif" font-size="10.00">fwActivities::registry</text>
<text text-anchor="middle" x="1879" y="-392" font-family="Helvetica,sans-Serif" font-size="10.00">::Activities</text>
</g>
<!-- Node2 -->
<g id="node2" class="node"><title>Node2</title>
<g id="a_node2"><a xlink:href="classfwCore_1_1BaseObject.html" target="_top" xlink:title="Base class for all FW4SPL&#39;s classes. ">
<polygon fill="white" stroke="black" points="1628.5,-505.5 1628.5,-524.5 1733.5,-524.5 1733.5,-505.5 1628.5,-505.5"/>
<text text-anchor="middle" x="1681" y="-512.5" font-family="Helvetica,sans-Serif" font-size="10.00">fwCore::BaseObject</text>
</a>
</g>
</g>
<!-- Node2&#45;&gt;Node1 -->
<g id="edge1" class="edge"><title>Node2&#45;&gt;Node1</title>
<path fill="none" stroke="midnightblue" d="M1707.16,-500.24C1744.62,-478.261 1814.68,-437.149 1852.4,-415.02"/>
<polygon fill="midnightblue" stroke="midnightblue" points="1705.23,-497.314 1698.37,-505.393 1708.77,-503.351 1705.23,-497.314"/>
</g>
<!-- Node3 -->
<g id="node3" class="node"><title>Node3</title>
<polygon fill="white" stroke="#bfbfbf" points="1414.5,-505 1414.5,-535 1545.5,-535 1545.5,-505 1414.5,-505"/>
<text text-anchor="start" x="1422.5" y="-523" font-family="Helvetica,sans-Serif" font-size="10.00">std::enable_shared</text>
<text text-anchor="middle" x="1480" y="-512" font-family="Helvetica,sans-Serif" font-size="10.00">_from_this&lt; BaseObject &gt;</text>
</g>
<!-- Node3&#45;&gt;Node2 -->
<g id="edge2" class="edge"><title>Node3&#45;&gt;Node2</title>
<path fill="none" stroke="midnightblue" d="M1555.82,-518.12C1579.97,-517.513 1606.2,-516.854 1628.3,-516.299"/>
<polygon fill="midnightblue" stroke="midnightblue" points="1555.52,-514.626 1545.61,-518.377 1555.69,-521.624 1555.52,-514.626"/>
</g>
<!-- Node4 -->
<g id="node4" class="node"><title>Node4</title>
<polygon fill="white" stroke="#bfbfbf" points="1626,-385 1626,-415 1736,-415 1736,-385 1626,-385"/>
<text text-anchor="start" x="1634" y="-403" font-family="Helvetica,sans-Serif" font-size="10.00">std::map&lt; std::string,</text>
<text text-anchor="middle" x="1681" y="-392" font-family="Helvetica,sans-Serif" font-size="10.00"> ActivityInfo &gt;</text>
</g>
<!-- Node4&#45;&gt;Node1 -->
<g id="edge3" class="edge"><title>Node4&#45;&gt;Node1</title>
<path fill="none" stroke="#9a32cd" stroke-dasharray="5,2" d="M1746.14,-400C1771.95,-400 1801.33,-400 1825.79,-400"/>
<polygon fill="#9a32cd" stroke="#9a32cd" points="1746.08,-396.5 1736.08,-400 1746.08,-403.5 1746.08,-396.5"/>
<text text-anchor="middle" x="1781" y="-403" font-family="Helvetica,sans-Serif" font-size="10.00"> m_reg</text>
</g>
<!-- Node5 -->
<g id="node5" class="node"><title>Node5</title>
<g id="a_node5"><a xlink:href="structfwActivities_1_1registry_1_1ActivityInfo.html" target="_top" xlink:title="Holds Activities configuration. ">
<polygon fill="white" stroke="black" points="1427,-331 1427,-361 1533,-361 1533,-331 1427,-331"/>
<text text-anchor="start" x="1435" y="-349" font-family="Helvetica,sans-Serif" font-size="10.00">fwActivities::registry</text>
<text text-anchor="middle" x="1480" y="-338" font-family="Helvetica,sans-Serif" font-size="10.00">::ActivityInfo</text>
</a>
</g>
</g>
<!-- Node5&#45;&gt;Node4 -->
<g id="edge4" class="edge"><title>Node5&#45;&gt;Node4</title>
<path fill="none" stroke="#9a32cd" stroke-dasharray="5,2" d="M1542.97,-362.817C1569.52,-370.019 1600.23,-378.355 1625.85,-385.306"/>
<polygon fill="#9a32cd" stroke="#9a32cd" points="1543.59,-359.358 1533.02,-360.117 1541.76,-366.114 1543.59,-359.358"/>
<text text-anchor="middle" x="1586" y="-383" font-family="Helvetica,sans-Serif" font-size="10.00"> elements</text>
</g>
<!-- Node6 -->
<g id="node6" class="node"><title>Node6</title>
<polygon fill="white" stroke="#bfbfbf" points="1148,-323.5 1148,-342.5 1318,-342.5 1318,-323.5 1148,-323.5"/>
<text text-anchor="middle" x="1233" y="-330.5" font-family="Helvetica,sans-Serif" font-size="10.00">std::vector&lt; ActivityRequirement &gt;</text>
</g>
<!-- Node6&#45;&gt;Node5 -->
<g id="edge5" class="edge"><title>Node6&#45;&gt;Node5</title>
<path fill="none" stroke="#9a32cd" stroke-dasharray="5,2" d="M1328.55,-338.017C1361.89,-339.786 1398.13,-341.709 1426.69,-343.225"/>
<polygon fill="#9a32cd" stroke="#9a32cd" points="1328.49,-334.509 1318.32,-337.474 1328.12,-341.499 1328.49,-334.509"/>
<text text-anchor="middle" x="1366" y="-345" font-family="Helvetica,sans-Serif" font-size="10.00"> requirements</text>
</g>
<!-- Node7 -->
<g id="node7" class="node"><title>Node7</title>
<g id="a_node7"><a xlink:href="structfwActivities_1_1registry_1_1ActivityRequirement.html" target="_top" xlink:title="fwActivities::registry\l::ActivityRequirement">
<polygon fill="white" stroke="black" points="878.5,-267 878.5,-297 989.5,-297 989.5,-267 878.5,-267"/>
<text text-anchor="start" x="886.5" y="-285" font-family="Helvetica,sans-Serif" font-size="10.00">fwActivities::registry</text>
<text text-anchor="middle" x="934" y="-274" font-family="Helvetica,sans-Serif" font-size="10.00">::ActivityRequirement</text>
</a>
</g>
</g>
<!-- Node7&#45;&gt;Node6 -->
<g id="edge6" class="edge"><title>Node7&#45;&gt;Node6</title>
<path fill="none" stroke="#9a32cd" stroke-dasharray="5,2" d="M999.822,-288.868C1037.9,-293.344 1086.87,-299.863 1130,-308 1152.4,-312.225 1177.24,-318.284 1196.8,-323.38"/>
<polygon fill="#9a32cd" stroke="#9a32cd" points="1000.22,-285.391 989.887,-287.717 999.418,-292.345 1000.22,-285.391"/>
<text text-anchor="middle" x="1069" y="-311" font-family="Helvetica,sans-Serif" font-size="10.00"> elements</text>
</g>
<!-- Node8 -->
<g id="node8" class="node"><title>Node8</title>
<g id="a_node8"><a xlink:title="STL class. ">
<polygon fill="white" stroke="#bfbfbf" points="134,-135.5 134,-154.5 194,-154.5 194,-135.5 134,-135.5"/>
<text text-anchor="middle" x="164" y="-142.5" font-family="Helvetica,sans-Serif" font-size="10.00">std::string</text>
</a>
</g>
</g>
<!-- Node8&#45;&gt;Node4 -->
<g id="edge30" class="edge"><title>Node8&#45;&gt;Node4</title>
<path fill="none" stroke="#9a32cd" stroke-dasharray="5,2" d="M170.814,-125.664C177.72,-105.63 191.02,-74.5668 212,-55 256.685,-13.3253 276.897,-0 338,-0 338,-0 338,-0 1481,-0 1659.69,-0 1503.79,-244.63 1626,-375 1629.6,-378.844 1633.91,-382.149 1638.51,-384.976"/>
<polygon fill="#9a32cd" stroke="#9a32cd" points="167.456,-124.674 167.703,-135.266 174.115,-126.831 167.456,-124.674"/>
<text text-anchor="middle" x="934" y="-3" font-family="Helvetica,sans-Serif" font-size="10.00"> keys</text>
</g>
<!-- Node8&#45;&gt;Node5 -->
<g id="edge21" class="edge"><title>Node8&#45;&gt;Node5</title>
<path fill="none" stroke="#9a32cd" stroke-dasharray="5,2" d="M204.545,-138.167C239.523,-132.72 291.997,-126 338,-126 338,-126 338,-126 1234,-126 1356.91,-126 1446.18,-281.174 1471.62,-330.879"/>
<polygon fill="#9a32cd" stroke="#9a32cd" points="203.601,-134.774 194.278,-139.808 204.705,-141.686 203.601,-134.774"/>
<text text-anchor="middle" x="805" y="-206" font-family="Helvetica,sans-Serif" font-size="10.00"> bundleVersion</text>
<text text-anchor="middle" x="805" y="-195" font-family="Helvetica,sans-Serif" font-size="10.00">tabInfo</text>
<text text-anchor="middle" x="805" y="-184" font-family="Helvetica,sans-Serif" font-size="10.00">title</text>
<text text-anchor="middle" x="805" y="-173" font-family="Helvetica,sans-Serif" font-size="10.00">builderImpl</text>
<text text-anchor="middle" x="805" y="-162" font-family="Helvetica,sans-Serif" font-size="10.00">icon</text>
<text text-anchor="middle" x="805" y="-151" font-family="Helvetica,sans-Serif" font-size="10.00">id</text>
<text text-anchor="middle" x="805" y="-140" font-family="Helvetica,sans-Serif" font-size="10.00">bundleId</text>
<text text-anchor="middle" x="805" y="-129" font-family="Helvetica,sans-Serif" font-size="10.00">description</text>
</g>
<!-- Node8&#45;&gt;Node7 -->
<g id="edge7" class="edge"><title>Node8&#45;&gt;Node7</title>
<path fill="none" stroke="#9a32cd" stroke-dasharray="5,2" d="M204.618,-142.697C275.108,-139.403 426.678,-135.956 552,-158 619.31,-169.839 807.765,-236.561 891.731,-266.937"/>
<polygon fill="#9a32cd" stroke="#9a32cd" points="204.234,-139.212 194.418,-143.2 204.578,-146.203 204.234,-139.212"/>
<text text-anchor="middle" x="487" y="-205" font-family="Helvetica,sans-Serif" font-size="10.00"> validator</text>
<text text-anchor="middle" x="487" y="-194" font-family="Helvetica,sans-Serif" font-size="10.00">type</text>
<text text-anchor="middle" x="487" y="-183" font-family="Helvetica,sans-Serif" font-size="10.00">name</text>
<text text-anchor="middle" x="487" y="-172" font-family="Helvetica,sans-Serif" font-size="10.00">container</text>
<text text-anchor="middle" x="487" y="-161" font-family="Helvetica,sans-Serif" font-size="10.00">description</text>
</g>
<!-- Node11 -->
<g id="node11" class="node"><title>Node11</title>
<g id="a_node11"><a xlink:href="structfwActivities_1_1registry_1_1ActivityRequirementKey.html" target="_top" xlink:title="fwActivities::registry\l::ActivityRequirementKey">
<polygon fill="white" stroke="black" points="275,-226 275,-256 403,-256 403,-226 275,-226"/>
<text text-anchor="start" x="283" y="-244" font-family="Helvetica,sans-Serif" font-size="10.00">fwActivities::registry</text>
<text text-anchor="middle" x="339" y="-233" font-family="Helvetica,sans-Serif" font-size="10.00">::ActivityRequirementKey</text>
</a>
</g>
</g>
<!-- Node8&#45;&gt;Node11 -->
<g id="edge11" class="edge"><title>Node8&#45;&gt;Node11</title>
<path fill="none" stroke="#9a32cd" stroke-dasharray="5,2" d="M186.146,-160.849C194.082,-166.527 203.291,-172.804 212,-178 242.455,-196.169 278.833,-213.967 304.654,-225.986"/>
<polygon fill="#9a32cd" stroke="#9a32cd" points="187.964,-157.843 177.821,-154.782 183.841,-163.5 187.964,-157.843"/>
<text text-anchor="middle" x="234" y="-215" font-family="Helvetica,sans-Serif" font-size="10.00"> path</text>
<text text-anchor="middle" x="234" y="-204" font-family="Helvetica,sans-Serif" font-size="10.00">key</text>
</g>
<!-- Node14 -->
<g id="node14" class="node"><title>Node14</title>
<g id="a_node14"><a xlink:href="structfwActivities_1_1registry_1_1ActivityAppConfig.html" target="_top" xlink:title="fwActivities::registry\l::ActivityAppConfig">
<polygon fill="white" stroke="black" points="881,-67 881,-97 987,-97 987,-67 881,-67"/>
<text text-anchor="start" x="889" y="-85" font-family="Helvetica,sans-Serif" font-size="10.00">fwActivities::registry</text>
<text text-anchor="middle" x="934" y="-74" font-family="Helvetica,sans-Serif" font-size="10.00">::ActivityAppConfig</text>
</a>
</g>
</g>
<!-- Node8&#45;&gt;Node14 -->
<g id="edge20" class="edge"><title>Node8&#45;&gt;Node14</title>
<path fill="none" stroke="#9a32cd" stroke-dasharray="5,2" d="M173.12,-125.553C180.829,-109.424 193.93,-87.088 212,-74 235.141,-57.2398 245.683,-60.8119 274,-57 498.1,-26.8333 768.65,-58.0926 880.597,-73.9543"/>
<polygon fill="#9a32cd" stroke="#9a32cd" points="169.738,-124.54 168.835,-135.097 176.124,-127.408 169.738,-124.54"/>
<text text-anchor="middle" x="487" y="-49" font-family="Helvetica,sans-Serif" font-size="10.00"> id</text>
</g>
<!-- Node16 -->
<g id="node16" class="node"><title>Node16</title>
<g id="a_node16"><a xlink:href="structfwActivities_1_1registry_1_1ActivityAppConfigParam.html" target="_top" xlink:title="fwActivities::registry\l::ActivityAppConfigParam">
<polygon fill="white" stroke="black" points="274,-67 274,-97 404,-97 404,-67 274,-67"/>
<text text-anchor="start" x="282" y="-85" font-family="Helvetica,sans-Serif" font-size="10.00">fwActivities::registry</text>
<text text-anchor="middle" x="339" y="-74" font-family="Helvetica,sans-Serif" font-size="10.00">::ActivityAppConfigParam</text>
</a>
</g>
</g>
<!-- Node8&#45;&gt;Node16 -->
<g id="edge18" class="edge"><title>Node8&#45;&gt;Node16</title>
<path fill="none" stroke="#9a32cd" stroke-dasharray="5,2" d="M175.473,-126.266C183.645,-113.63 196.243,-97.8762 212,-90 230.822,-80.5917 253.246,-77.1146 273.924,-76.4434"/>
<polygon fill="#9a32cd" stroke="#9a32cd" points="172.287,-124.771 170.108,-135.139 178.277,-128.393 172.287,-124.771"/>
<text text-anchor="middle" x="234" y="-104" font-family="Helvetica,sans-Serif" font-size="10.00"> by</text>
<text text-anchor="middle" x="234" y="-93" font-family="Helvetica,sans-Serif" font-size="10.00">replace</text>
</g>
<!-- Node17 -->
<g id="node17" class="node"><title>Node17</title>
<polygon fill="white" stroke="#bfbfbf" points="588.5,-361.5 588.5,-380.5 713.5,-380.5 713.5,-361.5 588.5,-361.5"/>
<text text-anchor="middle" x="651" y="-368.5" font-family="Helvetica,sans-Serif" font-size="10.00">std::vector&lt; std::string &gt;</text>
</g>
<!-- Node8&#45;&gt;Node17 -->
<g id="edge23" class="edge"><title>Node8&#45;&gt;Node17</title>
<path fill="none" stroke="#9a32cd" stroke-dasharray="5,2" d="M169.951,-164.572C181.167,-204.725 212.456,-296.535 274,-343 327.864,-383.667 354.939,-369.396 422,-377 479.41,-383.51 494.249,-378.766 552,-377 563.756,-376.64 576.294,-376.039 588.339,-375.352"/>
<polygon fill="#9a32cd" stroke="#9a32cd" points="173.275,-163.454 167.311,-154.698 166.512,-165.262 173.275,-163.454"/>
<text text-anchor="middle" x="339" y="-379" font-family="Helvetica,sans-Serif" font-size="10.00"> elements</text>
</g>
<!-- Node18 -->
<g id="node18" class="node"><title>Node18</title>
<polygon fill="white" stroke="#bfbfbf" points="596,-402 596,-432 706,-432 706,-402 596,-402"/>
<text text-anchor="start" x="604" y="-420" font-family="Helvetica,sans-Serif" font-size="10.00">std::map&lt; std::string,</text>
<text text-anchor="middle" x="651" y="-409" font-family="Helvetica,sans-Serif" font-size="10.00"> MinMaxType &gt;</text>
</g>
<!-- Node8&#45;&gt;Node18 -->
<g id="edge26" class="edge"><title>Node8&#45;&gt;Node18</title>
<path fill="none" stroke="#9a32cd" stroke-dasharray="5,2" d="M165.601,-164.702C167.703,-218.919 176.654,-368.345 212,-399 240.352,-423.59 485.046,-420.972 595.863,-418.476"/>
<polygon fill="#9a32cd" stroke="#9a32cd" points="169.097,-164.526 165.25,-154.654 162.102,-164.77 169.097,-164.526"/>
<text text-anchor="middle" x="339" y="-423" font-family="Helvetica,sans-Serif" font-size="10.00"> keys</text>
</g>
<!-- Node9 -->
<g id="node9" class="node"><title>Node9</title>
<g id="a_node9"><a xlink:title="STL class. ">
<polygon fill="white" stroke="#bfbfbf" points="0.5,-130 0.5,-160 95.5,-160 95.5,-130 0.5,-130"/>
<text text-anchor="start" x="8.5" y="-148" font-family="Helvetica,sans-Serif" font-size="10.00">std::basic_string&lt;</text>
<text text-anchor="middle" x="48" y="-137" font-family="Helvetica,sans-Serif" font-size="10.00"> char &gt;</text>
</a>
</g>
</g>
<!-- Node9&#45;&gt;Node8 -->
<g id="edge8" class="edge"><title>Node9&#45;&gt;Node8</title>
<path fill="none" stroke="midnightblue" d="M105.782,-145C115.509,-145 125.243,-145 133.854,-145"/>
<polygon fill="midnightblue" stroke="midnightblue" points="105.697,-141.5 95.6971,-145 105.697,-148.5 105.697,-141.5"/>
</g>
<!-- Node10 -->
<g id="node10" class="node"><title>Node10</title>
<polygon fill="white" stroke="#bfbfbf" points="570.5,-267 570.5,-297 731.5,-297 731.5,-267 570.5,-267"/>
<text text-anchor="start" x="578.5" y="-285" font-family="Helvetica,sans-Serif" font-size="10.00">std::vector&lt; ActivityRequirement</text>
<text text-anchor="middle" x="651" y="-274" font-family="Helvetica,sans-Serif" font-size="10.00">Key &gt;</text>
</g>
<!-- Node10&#45;&gt;Node7 -->
<g id="edge9" class="edge"><title>Node10&#45;&gt;Node7</title>
<path fill="none" stroke="#9a32cd" stroke-dasharray="5,2" d="M741.819,-282C786.749,-282 839.663,-282 878.419,-282"/>
<polygon fill="#9a32cd" stroke="#9a32cd" points="741.772,-278.5 731.772,-282 741.772,-285.5 741.772,-278.5"/>
<text text-anchor="middle" x="805" y="-285" font-family="Helvetica,sans-Serif" font-size="10.00"> keys</text>
</g>
<!-- Node11&#45;&gt;Node10 -->
<g id="edge10" class="edge"><title>Node11&#45;&gt;Node10</title>
<path fill="none" stroke="#9a32cd" stroke-dasharray="5,2" d="M413.269,-250.69C460.524,-256.94 521.975,-265.068 570.424,-271.475"/>
<polygon fill="#9a32cd" stroke="#9a32cd" points="413.479,-247.188 403.107,-249.346 412.562,-254.127 413.479,-247.188"/>
<text text-anchor="middle" x="487" y="-272" font-family="Helvetica,sans-Serif" font-size="10.00"> elements</text>
</g>
<!-- Node12 -->
<g id="node12" class="node"><title>Node12</title>
<g id="a_node12"><a xlink:title="STL class. ">
<polygon fill="white" stroke="#bfbfbf" points="295.5,-314.5 295.5,-333.5 382.5,-333.5 382.5,-314.5 295.5,-314.5"/>
<text text-anchor="middle" x="339" y="-321.5" font-family="Helvetica,sans-Serif" font-size="10.00">std::vector&lt; T &gt;</text>
</a>
</g>
</g>
<!-- Node12&#45;&gt;Node6 -->
<g id="edge14" class="edge"><title>Node12&#45;&gt;Node6</title>
<path fill="none" stroke="orange" stroke-dasharray="5,2" d="M392.975,-324.534C542.068,-326.039 966.185,-330.318 1147.79,-332.15"/>
<polygon fill="orange" stroke="orange" points="392.757,-321.032 382.723,-324.431 392.687,-328.032 392.757,-321.032"/>
<text text-anchor="middle" x="805" y="-333" font-family="Helvetica,sans-Serif" font-size="10.00"> &lt; ActivityRequirement &gt;</text>
</g>
<!-- Node12&#45;&gt;Node10 -->
<g id="edge12" class="edge"><title>Node12&#45;&gt;Node10</title>
<path fill="none" stroke="orange" stroke-dasharray="5,2" d="M392.801,-313.06C402.489,-311.234 412.531,-309.461 422,-308 471.119,-300.419 526.508,-294.053 570.393,-289.517"/>
<polygon fill="orange" stroke="orange" points="392.029,-309.644 382.871,-314.971 393.352,-316.518 392.029,-309.644"/>
<text text-anchor="middle" x="487" y="-311" font-family="Helvetica,sans-Serif" font-size="10.00"> &lt; ActivityRequirementKey &gt;</text>
</g>
<!-- Node15 -->
<g id="node15" class="node"><title>Node15</title>
<polygon fill="white" stroke="#bfbfbf" points="590,-67 590,-97 712,-97 712,-67 590,-67"/>
<text text-anchor="start" x="598" y="-85" font-family="Helvetica,sans-Serif" font-size="10.00">std::vector&lt; ActivityApp</text>
<text text-anchor="middle" x="651" y="-74" font-family="Helvetica,sans-Serif" font-size="10.00">ConfigParam &gt;</text>
</g>
<!-- Node12&#45;&gt;Node15 -->
<g id="edge19" class="edge"><title>Node12&#45;&gt;Node15</title>
<path fill="none" stroke="orange" stroke-dasharray="5,2" d="M360.154,-307.605C373.378,-296.341 390.633,-280.646 404,-265 413.368,-254.035 409.869,-245.801 422,-238 471.227,-206.344 502.151,-247.667 552,-217 599.609,-187.711 631.133,-125.854 643.766,-97.1822"/>
<polygon fill="orange" stroke="orange" points="357.549,-305.221 352.127,-314.323 362.042,-310.589 357.549,-305.221"/>
<text text-anchor="middle" x="487" y="-241" font-family="Helvetica,sans-Serif" font-size="10.00"> &lt; ActivityAppConfigParam &gt;</text>
</g>
<!-- Node12&#45;&gt;Node17 -->
<g id="edge24" class="edge"><title>Node12&#45;&gt;Node17</title>
<path fill="none" stroke="orange" stroke-dasharray="5,2" d="M384.743,-335.954C396.778,-338.883 409.833,-341.804 422,-344 477.897,-354.088 542.211,-361.311 588.251,-365.733"/>
<polygon fill="orange" stroke="orange" points="385.465,-332.526 374.915,-333.506 383.773,-339.319 385.465,-332.526"/>
<text text-anchor="middle" x="487" y="-365" font-family="Helvetica,sans-Serif" font-size="10.00"> &lt; std::string &gt;</text>
</g>
<!-- Node13 -->
<g id="node13" class="node"><title>Node13</title>
<polygon fill="white" stroke="#bfbfbf" points="149.5,-408.5 149.5,-427.5 178.5,-427.5 178.5,-408.5 149.5,-408.5"/>
<text text-anchor="middle" x="164" y="-415.5" font-family="Helvetica,sans-Serif" font-size="10.00">T</text>
</g>
<!-- Node13&#45;&gt;Node12 -->
<g id="edge13" class="edge"><title>Node13&#45;&gt;Node12</title>
<path fill="none" stroke="#9a32cd" stroke-dasharray="5,2" d="M186.22,-402.442C207.621,-387.223 241.985,-364.055 274,-348 284.926,-342.521 297.42,-337.566 308.452,-333.6"/>
<polygon fill="#9a32cd" stroke="#9a32cd" points="183.962,-399.754 177.886,-408.434 188.048,-405.438 183.962,-399.754"/>
<text text-anchor="middle" x="234" y="-387" font-family="Helvetica,sans-Serif" font-size="10.00"> elements</text>
</g>
<!-- Node19 -->
<g id="node19" class="node"><title>Node19</title>
<g id="a_node19"><a xlink:title="STL class. ">
<polygon fill="white" stroke="#bfbfbf" points="293,-456.5 293,-475.5 385,-475.5 385,-456.5 293,-456.5"/>
<text text-anchor="middle" x="339" y="-463.5" font-family="Helvetica,sans-Serif" font-size="10.00">std::map&lt; K, T &gt;</text>
</a>
</g>
</g>
<!-- Node13&#45;&gt;Node19 -->
<g id="edge29" class="edge"><title>Node13&#45;&gt;Node19</title>
<path fill="none" stroke="#9a32cd" stroke-dasharray="5,2" d="M188.455,-424.508C218.128,-432.741 269.465,-446.985 303.582,-456.45"/>
<polygon fill="#9a32cd" stroke="#9a32cd" points="189.147,-421.068 178.575,-421.766 187.275,-427.813 189.147,-421.068"/>
<text text-anchor="middle" x="234" y="-445" font-family="Helvetica,sans-Serif" font-size="10.00"> elements</text>
</g>
<!-- Node14&#45;&gt;Node5 -->
<g id="edge15" class="edge"><title>Node14&#45;&gt;Node5</title>
<path fill="none" stroke="#9a32cd" stroke-dasharray="5,2" d="M997.165,-65.5381C1094.08,-43.9123 1281.87,-18.7589 1396,-112 1465.77,-168.998 1476.94,-288.895 1478.69,-330.998"/>
<polygon fill="#9a32cd" stroke="#9a32cd" points="996.19,-62.1706 987.224,-67.8154 997.753,-68.9939 996.19,-62.1706"/>
<text text-anchor="middle" x="1233" y="-70" font-family="Helvetica,sans-Serif" font-size="10.00"> appConfig</text>
</g>
<!-- Node15&#45;&gt;Node14 -->
<g id="edge16" class="edge"><title>Node15&#45;&gt;Node14</title>
<path fill="none" stroke="#9a32cd" stroke-dasharray="5,2" d="M722.532,-82C771.718,-82 836.267,-82 880.847,-82"/>
<polygon fill="#9a32cd" stroke="#9a32cd" points="722.282,-78.5001 712.282,-82 722.282,-85.5001 722.282,-78.5001"/>
<text text-anchor="middle" x="805" y="-85" font-family="Helvetica,sans-Serif" font-size="10.00"> parameters</text>
</g>
<!-- Node16&#45;&gt;Node15 -->
<g id="edge17" class="edge"><title>Node16&#45;&gt;Node15</title>
<path fill="none" stroke="#9a32cd" stroke-dasharray="5,2" d="M414.382,-82C468.083,-82 539.675,-82 589.797,-82"/>
<polygon fill="#9a32cd" stroke="#9a32cd" points="414.232,-78.5001 404.232,-82 414.232,-85.5001 414.232,-78.5001"/>
<text text-anchor="middle" x="487" y="-85" font-family="Helvetica,sans-Serif" font-size="10.00"> elements</text>
</g>
<!-- Node17&#45;&gt;Node5 -->
<g id="edge22" class="edge"><title>Node17&#45;&gt;Node5</title>
<path fill="none" stroke="#9a32cd" stroke-dasharray="5,2" d="M723.9,-372.34C856.827,-374.218 1149.92,-375.562 1396,-357 1406,-356.246 1416.64,-355.099 1426.85,-353.826"/>
<polygon fill="#9a32cd" stroke="#9a32cd" points="723.891,-368.839 713.84,-372.192 723.788,-375.838 723.891,-368.839"/>
<text text-anchor="middle" x="1069" y="-376" font-family="Helvetica,sans-Serif" font-size="10.00"> validatorsImpl</text>
</g>
<!-- Node18&#45;&gt;Node5 -->
<g id="edge25" class="edge"><title>Node18&#45;&gt;Node5</title>
<path fill="none" stroke="#9a32cd" stroke-dasharray="5,2" d="M716.46,-414.149C835.42,-408.724 1097.47,-396.017 1318,-380 1352.71,-377.479 1361.9,-379.983 1396,-373 1410.25,-370.081 1425.49,-365.555 1438.96,-361.037"/>
<polygon fill="#9a32cd" stroke="#9a32cd" points="716.258,-410.654 706.428,-414.604 716.576,-417.647 716.258,-410.654"/>
<text text-anchor="middle" x="1069" y="-403" font-family="Helvetica,sans-Serif" font-size="10.00"> m_requirementCount</text>
</g>
<!-- Node19&#45;&gt;Node4 -->
<g id="edge31" class="edge"><title>Node19&#45;&gt;Node4</title>
<path fill="none" stroke="orange" stroke-dasharray="5,2" d="M395.501,-468.869C457.517,-471.824 560.92,-476 650,-476 650,-476 650,-476 1481,-476 1548.68,-476 1621.29,-437.164 1657.19,-415.015"/>
<polygon fill="orange" stroke="orange" points="395.321,-465.357 385.164,-468.37 394.983,-472.349 395.321,-465.357"/>
<text text-anchor="middle" x="1069" y="-479" font-family="Helvetica,sans-Serif" font-size="10.00"> &lt; std::string, ActivityInfo &gt;</text>
</g>
<!-- Node19&#45;&gt;Node18 -->
<g id="edge27" class="edge"><title>Node19&#45;&gt;Node18</title>
<path fill="none" stroke="orange" stroke-dasharray="5,2" d="M395.078,-455.668C404.067,-454.055 413.287,-452.446 422,-451 481.221,-441.171 549.32,-431.187 595.561,-424.605"/>
<polygon fill="orange" stroke="orange" points="394.283,-452.255 385.067,-457.481 395.531,-459.143 394.283,-452.255"/>
<text text-anchor="middle" x="487" y="-454" font-family="Helvetica,sans-Serif" font-size="10.00"> &lt; std::string, MinMaxType &gt;</text>
</g>
<!-- Node20 -->
<g id="node20" class="node"><title>Node20</title>
<polygon fill="white" stroke="#bfbfbf" points="149.5,-474.5 149.5,-493.5 178.5,-493.5 178.5,-474.5 149.5,-474.5"/>
<text text-anchor="middle" x="164" y="-481.5" font-family="Helvetica,sans-Serif" font-size="10.00">K</text>
</g>
<!-- Node20&#45;&gt;Node19 -->
<g id="edge28" class="edge"><title>Node20&#45;&gt;Node19</title>
<path fill="none" stroke="#9a32cd" stroke-dasharray="5,2" d="M188.542,-481.55C215.241,-478.773 259.397,-474.178 292.808,-470.702"/>
<polygon fill="#9a32cd" stroke="#9a32cd" points="188.159,-478.071 178.575,-482.588 188.884,-485.034 188.159,-478.071"/>
<text text-anchor="middle" x="234" y="-482" font-family="Helvetica,sans-Serif" font-size="10.00"> keys</text>
</g>
<!-- Node21 -->
<g id="node21" class="node"><title>Node21</title>
<polygon fill="white" stroke="#bfbfbf" points="1660.5,-346.5 1660.5,-365.5 1701.5,-365.5 1701.5,-346.5 1660.5,-346.5"/>
<text text-anchor="middle" x="1681" y="-353.5" font-family="Helvetica,sans-Serif" font-size="10.00">static</text>
</g>
<!-- Node21&#45;&gt;Node1 -->
<g id="edge32" class="edge"><title>Node21&#45;&gt;Node1</title>
<path fill="none" stroke="#9a32cd" stroke-dasharray="5,2" d="M1711.43,-362.607C1741.67,-369.395 1789.37,-380.103 1825.99,-388.323"/>
<polygon fill="#9a32cd" stroke="#9a32cd" points="1712.03,-359.155 1701.51,-360.38 1710.5,-365.985 1712.03,-359.155"/>
<text text-anchor="middle" x="1781" y="-387" font-family="Helvetica,sans-Serif" font-size="10.00"> s_activities</text>
</g>
</g>
</svg>
