<?xml version="1.0" encoding="UTF-8" standalone="no"?>
<!DOCTYPE svg PUBLIC "-//W3C//DTD SVG 1.1//EN"
 "http://www.w3.org/Graphics/SVG/1.1/DTD/svg11.dtd">
<!-- Generated by graphviz version 2.36.0 (20140111.2315)
 -->
<!-- Title: uiTF::TransferFunctionEditor::createTransferFunctionName Pages: 1 -->
<svg width="514pt" height="87pt"
 viewBox="0.00 0.00 514.00 87.00" xmlns="http://www.w3.org/2000/svg" xmlns:xlink="http://www.w3.org/1999/xlink">
<g id="graph0" class="graph" transform="scale(1 1) rotate(0) translate(4 83)">
<title>uiTF::TransferFunctionEditor::createTransferFunctionName</title>
<polygon fill="white" stroke="none" points="-4,4 -4,-83 510,-83 510,4 -4,4"/>
<!-- Node1 -->
<g id="node1" class="node"><title>Node1</title>
<polygon fill="#bfbfbf" stroke="black" points="0.5,-22 0.5,-52 149.5,-52 149.5,-22 0.5,-22"/>
<text text-anchor="start" x="8.5" y="-40" font-family="Helvetica,sans-Serif" font-size="10.00">uiTF::TransferFunctionEditor</text>
<text text-anchor="middle" x="75" y="-29" font-family="Helvetica,sans-Serif" font-size="10.00">::createTransferFunctionName</text>
</g>
<!-- Node2 -->
<g id="node2" class="node"><title>Node2</title>
<g id="a_node2"><a xlink:href="classuiTF_1_1TransferFunctionEditor.html#a5c2684053c12f9a2165bfe077b7d5315" target="_top" xlink:title="Initialize the transfer functions. ">
<polygon fill="white" stroke="black" points="186.5,-44 186.5,-74 327.5,-74 327.5,-44 186.5,-44"/>
<text text-anchor="start" x="194.5" y="-62" font-family="Helvetica,sans-Serif" font-size="10.00">uiTF::TransferFunctionEditor</text>
<text text-anchor="middle" x="257" y="-51" font-family="Helvetica,sans-Serif" font-size="10.00">::initTransferFunctions</text>
</a>
</g>
</g>
<!-- Node1&#45;&gt;Node2 -->
<g id="edge1" class="edge"><title>Node1&#45;&gt;Node2</title>
<path fill="none" stroke="midnightblue" d="M159.76,-47.2374C168.69,-48.3288 177.702,-49.4303 186.443,-50.4985"/>
<polygon fill="midnightblue" stroke="midnightblue" points="160.083,-43.7509 149.732,-46.0117 159.234,-50.6991 160.083,-43.7509"/>
</g>
<!-- Node4 -->
<g id="node4" class="node"><title>Node4</title>
<g id="a_node4"><a xlink:href="classuiTF_1_1TransferFunctionEditor.html#a22d4128b789c539041b4cd46601e9542" target="_top" xlink:title="Selects the current transfer function. ">
<polygon fill="white" stroke="black" points="364.5,-0 364.5,-30 505.5,-30 505.5,-0 364.5,-0"/>
<text text-anchor="start" x="372.5" y="-18" font-family="Helvetica,sans-Serif" font-size="10.00">uiTF::TransferFunctionEditor</text>
<text text-anchor="middle" x="435" y="-7" font-family="Helvetica,sans-Serif" font-size="10.00">::swapping</text>
</a>
</g>
</g>
<!-- Node1&#45;&gt;Node4 -->
<g id="edge4" class="edge"><title>Node1&#45;&gt;Node4</title>
<path fill="none" stroke="midnightblue" d="M159.918,-31.843C222.085,-28.0227 305.812,-22.8775 364.305,-19.2829"/>
<polygon fill="midnightblue" stroke="midnightblue" points="159.51,-28.3614 149.744,-32.4683 159.94,-35.3482 159.51,-28.3614"/>
</g>
<!-- Node3 -->
<g id="node3" class="node"><title>Node3</title>
<g id="a_node3"><a xlink:href="classuiTF_1_1TransferFunctionEditor.html#a33d35dc6b46270623df5c8c2c3b834b7" target="_top" xlink:title="Start the TransferFunctionEditor, create Container, place in Buttons, ComboBox, Layout, and connect them. ">
<polygon fill="white" stroke="black" points="364.5,-49 364.5,-79 505.5,-79 505.5,-49 364.5,-49"/>
<text text-anchor="start" x="372.5" y="-67" font-family="Helvetica,sans-Serif" font-size="10.00">uiTF::TransferFunctionEditor</text>
<text text-anchor="middle" x="435" y="-56" font-family="Helvetica,sans-Serif" font-size="10.00">::starting</text>
</a>
</g>
</g>
<!-- Node2&#45;&gt;Node3 -->
<g id="edge2" class="edge"><title>Node2&#45;&gt;Node3</title>
<path fill="none" stroke="midnightblue" d="M337.581,-61.2608C346.518,-61.5147 355.571,-61.7719 364.369,-62.0218"/>
<polygon fill="midnightblue" stroke="midnightblue" points="337.655,-57.7616 327.56,-60.9761 337.456,-64.7588 337.655,-57.7616"/>
</g>
<!-- Node2&#45;&gt;Node4 -->
<g id="edge3" class="edge"><title>Node2&#45;&gt;Node4</title>
<path fill="none" stroke="midnightblue" d="M327.942,-41.5145C343.149,-37.7127 359.108,-33.723 373.895,-30.0262"/>
<polygon fill="midnightblue" stroke="midnightblue" points="326.929,-38.1598 318.077,-43.9808 328.627,-44.9508 326.929,-38.1598"/>
</g>
</g>
</svg>
