<?xml version="1.0" encoding="UTF-8" standalone="no"?>
<!DOCTYPE svg PUBLIC "-//W3C//DTD SVG 1.1//EN"
 "http://www.w3.org/Graphics/SVG/1.1/DTD/svg11.dtd">
<!-- Generated by graphviz version 2.36.0 (20140111.2315)
 -->
<!-- Title: activities::SActivitySequencer::updating Pages: 1 -->
<!--zoomable 406 -->
<svg id="main" version="1.1" xmlns="http://www.w3.org/2000/svg" xmlns:xlink="http://www.w3.org/1999/xlink" xml:space="preserve" onload="init(evt)">
<style type="text/css"><![CDATA[
.edge:hover path { stroke: red; }
.edge:hover polygon { stroke: red; fill: red; }
]]></style>
<script type="text/javascript"><![CDATA[
var edges = document.getElementsByTagName('g');
if (edges && edges.length) {
  for (var i=0;i<edges.length;i++) {
    if (edges[i].id.substr(0,4)=='edge') {
      edges[i].setAttribute('class','edge');
    }
  }
}
]]></script>
        <defs>
                <circle id="rim" cx="0" cy="0" r="7"/>
                <circle id="rim2" cx="0" cy="0" r="3.5"/>
                <g id="zoomPlus">
                        <use xlink:href="#rim" fill="#404040">
                                <set attributeName="fill" to="#808080" begin="zoomplus.mouseover" end="zoomplus.mouseout"/>
                        </use>
                        <path d="M-4,0h8M0,-4v8" fill="none" stroke="white" stroke-width="1.5" pointer-events="none"/>
                </g>
                <g id="zoomMin">
                        <use xlink:href="#rim" fill="#404040">
                                <set attributeName="fill" to="#808080" begin="zoomminus.mouseover" end="zoomminus.mouseout"/>
                        </use>
                        <path d="M-4,0h8" fill="none" stroke="white" stroke-width="1.5" pointer-events="none"/>
                </g>
                <g id="dirArrow">
                        <path fill="none" stroke="white" stroke-width="1.5" d="M0,-3.0v7 M-2.5,-0.5L0,-3.0L2.5,-0.5"/>
                </g>
               <g id="resetDef">
                       <use xlink:href="#rim2" fill="#404040">
                               <set attributeName="fill" to="#808080" begin="reset.mouseover" end="reset.mouseout"/>
                       </use>
               </g>
        </defs>

<script type="text/javascript">
var viewWidth = 888;
var viewHeight = 406;
var sectionId = 'dynsection-2';
</script>
<script xlink:href="svgpan.js"/>
<svg id="graph" class="graph">
<g id="viewport">
<title>activities::SActivitySequencer::updating</title>
<polygon fill="white" stroke="none" points="-4,4 -4,-402 884,-402 884,4 -4,4"/>
<!-- Node1 -->
<g id="node1" class="node"><title>Node1</title>
<polygon fill="#bfbfbf" stroke="black" points="0,-220 0,-250 148,-250 148,-220 0,-220"/>
<text text-anchor="start" x="8" y="-238" font-family="Helvetica,sans-Serif" font-size="10.00">activities::SActivitySequencer</text>
<text text-anchor="middle" x="74" y="-227" font-family="Helvetica,sans-Serif" font-size="10.00">::updating</text>
</g>
<!-- Node2 -->
<g id="node2" class="node"><title>Node2</title>
<g id="a_node2"><a xlink:href="classfwMedDataTools_1_1helper_1_1SeriesDB.html#ada676387459fe1754a8469aa84b010eb" target="_top" xlink:title="Add a Series in the SeriesDB. ">
<polygon fill="white" stroke="black" points="198.5,-368 198.5,-398 321.5,-398 321.5,-368 198.5,-368"/>
<text text-anchor="start" x="206.5" y="-386" font-family="Helvetica,sans-Serif" font-size="10.00">fwMedDataTools::helper</text>
<text text-anchor="middle" x="260" y="-375" font-family="Helvetica,sans-Serif" font-size="10.00">::SeriesDB::add</text>
</a>
</g>
</g>
<!-- Node1&#45;&gt;Node2 -->
<g id="edge1" class="edge"><title>Node1&#45;&gt;Node2</title>
<path fill="none" stroke="midnightblue" d="M84.5121,-250.167C101.437,-275.96 139.241,-328.437 184,-358 186.953,-359.95 190.071,-361.761 193.292,-363.441"/>
<polygon fill="midnightblue" stroke="midnightblue" points="192.053,-366.726 202.589,-367.836 195.044,-360.398 192.053,-366.726"/>
</g>
<!-- Node3 -->
<g id="node3" class="node"><title>Node3</title>
<g id="a_node3"><a xlink:href="classfwTools_1_1UUID.html#a1dc0d3db04daaf5671d0012d9d716cee" target="_top" xlink:title="Return a new extended UUID;. ">
<polygon fill="white" stroke="black" points="184,-329.5 184,-348.5 336,-348.5 336,-329.5 184,-329.5"/>
<text text-anchor="middle" x="260" y="-336.5" font-family="Helvetica,sans-Serif" font-size="10.00">fwTools::UUID::generateUUID</text>
</a>
</g>
</g>
<!-- Node1&#45;&gt;Node3 -->
<g id="edge2" class="edge"><title>Node1&#45;&gt;Node3</title>
<path fill="none" stroke="midnightblue" d="M90.185,-250.255C110.043,-269.347 146.712,-301.748 184,-320 188.901,-322.399 194.135,-324.515 199.474,-326.378"/>
<polygon fill="midnightblue" stroke="midnightblue" points="198.555,-329.758 209.146,-329.463 200.682,-323.089 198.555,-329.758"/>
</g>
<!-- Node4 -->
<g id="node4" class="node"><title>Node4</title>
<g id="a_node4"><a xlink:href="namespacefwTools.html#a464648f2bcf775ded44af140d87d084f" target="_top" xlink:title="Convert a boost time to a string date. ">
<polygon fill="white" stroke="black" points="214,-291.5 214,-310.5 306,-310.5 306,-291.5 214,-291.5"/>
<text text-anchor="middle" x="260" y="-298.5" font-family="Helvetica,sans-Serif" font-size="10.00">fwTools::getDate</text>
</a>
</g>
</g>
<!-- Node1&#45;&gt;Node4 -->
<g id="edge3" class="edge"><title>Node1&#45;&gt;Node4</title>
<path fill="none" stroke="midnightblue" d="M107.452,-250.094C128.89,-259.715 157.767,-272.015 184,-281 192.064,-283.762 200.721,-286.38 209.186,-288.756"/>
<polygon fill="midnightblue" stroke="midnightblue" points="208.42,-292.175 218.989,-291.429 210.262,-285.422 208.42,-292.175"/>
</g>
<!-- Node5 -->
<g id="node5" class="node"><title>Node5</title>
<g id="a_node5"><a xlink:href="classfwActivities_1_1registry_1_1Activities.html#a96b15391d34df7160015ac8654486fad" target="_top" xlink:title="Return the default global instance of Activities. ">
<polygon fill="white" stroke="black" points="203,-242 203,-272 317,-272 317,-242 203,-242"/>
<text text-anchor="start" x="211" y="-260" font-family="Helvetica,sans-Serif" font-size="10.00">fwActivities::registry</text>
<text text-anchor="middle" x="260" y="-249" font-family="Helvetica,sans-Serif" font-size="10.00">::Activities::getDefault</text>
</a>
</g>
</g>
<!-- Node1&#45;&gt;Node5 -->
<g id="edge4" class="edge"><title>Node1&#45;&gt;Node5</title>
<path fill="none" stroke="midnightblue" d="M148.25,-243.758C162.847,-245.503 178.101,-247.327 192.458,-249.044"/>
<polygon fill="midnightblue" stroke="midnightblue" points="192.386,-252.56 202.731,-250.272 193.217,-245.61 192.386,-252.56"/>
</g>
<!-- Node6 -->
<g id="node6" class="node"><title>Node6</title>
<g id="a_node6"><a xlink:href="namespacefwTools.html#afde1178151cad61072353d1fbf2f55e5" target="_top" xlink:title="Convert a boost time to a string time. ">
<polygon fill="white" stroke="black" points="214,-203.5 214,-222.5 306,-222.5 306,-203.5 214,-203.5"/>
<text text-anchor="middle" x="260" y="-210.5" font-family="Helvetica,sans-Serif" font-size="10.00">fwTools::getTime</text>
</a>
</g>
</g>
<!-- Node1&#45;&gt;Node6 -->
<g id="edge5" class="edge"><title>Node1&#45;&gt;Node6</title>
<path fill="none" stroke="midnightblue" d="M148.25,-226.242C166.765,-224.028 186.337,-221.688 203.794,-219.601"/>
<polygon fill="midnightblue" stroke="midnightblue" points="204.29,-223.066 213.804,-218.404 203.459,-216.116 204.29,-223.066"/>
</g>
<!-- Node7 -->
<g id="node7" class="node"><title>Node7</title>
<g id="a_node7"><a xlink:href="classfwServices_1_1IService.html#af98da4a410587cde1b329546daa4bbff" target="_top" xlink:title="Write information in a stream. ">
<polygon fill="white" stroke="black" points="206.5,-154 206.5,-184 313.5,-184 313.5,-154 206.5,-154"/>
<text text-anchor="start" x="214.5" y="-172" font-family="Helvetica,sans-Serif" font-size="10.00">fwServices::IService</text>
<text text-anchor="middle" x="260" y="-161" font-family="Helvetica,sans-Serif" font-size="10.00">::info</text>
</a>
</g>
</g>
<!-- Node1&#45;&gt;Node7 -->
<g id="edge6" class="edge"><title>Node1&#45;&gt;Node7</title>
<path fill="none" stroke="midnightblue" d="M113.966,-219.932C134.695,-212.021 160.657,-202.277 184,-194 190.258,-191.781 196.829,-189.508 203.371,-187.281"/>
<polygon fill="midnightblue" stroke="midnightblue" points="204.543,-190.579 212.895,-184.061 202.301,-183.948 204.543,-190.579"/>
</g>
<!-- Node8 -->
<g id="node8" class="node"><title>Node8</title>
<g id="a_node8"><a xlink:href="classfwMedDataTools_1_1helper_1_1SeriesDB.html#a2d229c0d36e69cb48045ed4513c74269" target="_top" xlink:title="Send the signal of modification. ">
<polygon fill="white" stroke="black" points="198.5,-105 198.5,-135 321.5,-135 321.5,-105 198.5,-105"/>
<text text-anchor="start" x="206.5" y="-123" font-family="Helvetica,sans-Serif" font-size="10.00">fwMedDataTools::helper</text>
<text text-anchor="middle" x="260" y="-112" font-family="Helvetica,sans-Serif" font-size="10.00">::SeriesDB::notify</text>
</a>
</g>
</g>
<!-- Node1&#45;&gt;Node8 -->
<g id="edge7" class="edge"><title>Node1&#45;&gt;Node8</title>
<path fill="none" stroke="midnightblue" d="M89.5493,-219.923C109.293,-200.229 146.435,-165.814 184,-145 187.887,-142.846 191.99,-140.838 196.193,-138.972"/>
<polygon fill="midnightblue" stroke="midnightblue" points="197.607,-142.174 205.507,-135.114 194.928,-135.707 197.607,-142.174"/>
</g>
<!-- Node9 -->
<g id="node9" class="node"><title>Node9</title>
<g id="a_node9"><a xlink:href="classfwGui_1_1dialog_1_1MessageDialog.html#a8c59f4f1a8cd0319757d9207af8105bf" target="_top" xlink:title="fwGui::dialog::MessageDialog\l::showMessageDialog">
<polygon fill="white" stroke="black" points="186.5,-56 186.5,-86 333.5,-86 333.5,-56 186.5,-56"/>
<text text-anchor="start" x="194.5" y="-74" font-family="Helvetica,sans-Serif" font-size="10.00">fwGui::dialog::MessageDialog</text>
<text text-anchor="middle" x="260" y="-63" font-family="Helvetica,sans-Serif" font-size="10.00">::showMessageDialog</text>
</a>
</g>
</g>
<!-- Node1&#45;&gt;Node9 -->
<g id="edge8" class="edge"><title>Node1&#45;&gt;Node9</title>
<path fill="none" stroke="midnightblue" d="M83.0062,-219.64C98.6206,-191.144 135.866,-129.912 184,-96 186.835,-94.0028 189.841,-92.1562 192.956,-90.4501"/>
<polygon fill="midnightblue" stroke="midnightblue" points="194.553,-93.5653 201.975,-86.0052 191.458,-87.2864 194.553,-93.5653"/>
</g>
<!-- Node10 -->
<g id="node10" class="node"><title>Node10</title>
<g id="a_node10"><a xlink:href="classfwGui_1_1dialog_1_1MessageDialog.html#a0fd1de2703432a2181724b7bdaa26cfd" target="_top" xlink:title="Add a button (OK, YES_NO, YES, NO, CANCEL) ">
<polygon fill="white" stroke="black" points="372.5,-81 372.5,-111 519.5,-111 519.5,-81 372.5,-81"/>
<text text-anchor="start" x="380.5" y="-99" font-family="Helvetica,sans-Serif" font-size="10.00">fwGui::dialog::MessageDialog</text>
<text text-anchor="middle" x="446" y="-88" font-family="Helvetica,sans-Serif" font-size="10.00">::addButton</text>
</a>
</g>
</g>
<!-- Node9&#45;&gt;Node10 -->
<g id="edge9" class="edge"><title>Node9&#45;&gt;Node10</title>
<path fill="none" stroke="midnightblue" d="M333.722,-80.8807C343.017,-82.1436 352.586,-83.4438 362.028,-84.7266"/>
<polygon fill="midnightblue" stroke="midnightblue" points="361.824,-88.231 372.204,-86.1092 362.766,-81.2947 361.824,-88.231"/>
</g>
<!-- Node11 -->
<g id="node11" class="node"><title>Node11</title>
<g id="a_node11"><a xlink:href="classfwGui_1_1dialog_1_1MessageDialog.html#acb5a5e63ec47bb74c2c3136922a3a112" target="_top" xlink:title="Show the message box and return the clicked button. ">
<polygon fill="white" stroke="black" points="372.5,-32 372.5,-62 519.5,-62 519.5,-32 372.5,-32"/>
<text text-anchor="start" x="380.5" y="-50" font-family="Helvetica,sans-Serif" font-size="10.00">fwGui::dialog::MessageDialog</text>
<text text-anchor="middle" x="446" y="-39" font-family="Helvetica,sans-Serif" font-size="10.00">::show</text>
</a>
</g>
</g>
<!-- Node9&#45;&gt;Node11 -->
<g id="edge10" class="edge"><title>Node9&#45;&gt;Node11</title>
<path fill="none" stroke="midnightblue" d="M333.722,-61.5146C343.017,-60.3022 352.586,-59.054 362.028,-57.8224"/>
<polygon fill="midnightblue" stroke="midnightblue" points="362.741,-61.2592 372.204,-56.4951 361.835,-54.318 362.741,-61.2592"/>
</g>
<!-- Node12 -->
<g id="node12" class="node"><title>Node12</title>
<g id="a_node12"><a xlink:href="classfwGui_1_1dialog_1_1IMessageDialog.html#a3aafce0bcfa0fa0da4b5114ff798ddd7" target="_top" xlink:title="Show the message box and return the clicked button. ">
<polygon fill="white" stroke="black" points="556,-59 556,-89 706,-89 706,-59 556,-59"/>
<text text-anchor="start" x="564" y="-77" font-family="Helvetica,sans-Serif" font-size="10.00">fwGui::dialog::IMessageDialog</text>
<text text-anchor="middle" x="631" y="-66" font-family="Helvetica,sans-Serif" font-size="10.00">::show</text>
</a>
</g>
</g>
<!-- Node11&#45;&gt;Node12 -->
<g id="edge11" class="edge"><title>Node11&#45;&gt;Node12</title>
<path fill="none" stroke="midnightblue" d="M519.589,-57.7099C528.29,-58.9936 537.229,-60.3124 546.073,-61.6173"/>
<polygon fill="midnightblue" stroke="midnightblue" points="545.596,-65.0847 556,-63.0819 546.618,-58.1597 545.596,-65.0847"/>
</g>
<!-- Node13 -->
<g id="node13" class="node"><title>Node13</title>
<g id="a_node13"><a xlink:href="classfwServices_1_1registry_1_1ActiveWorkers.html#aae9d40e1fe222f0d14ac8284d3abf83c" target="_top" xlink:title="Get the default registered worker. ">
<polygon fill="white" stroke="black" points="562,0.5 562,-40.5 700,-40.5 700,0.5 562,0.5"/>
<text text-anchor="start" x="570" y="-28.5" font-family="Helvetica,sans-Serif" font-size="10.00">fwServices::registry</text>
<text text-anchor="start" x="570" y="-17.5" font-family="Helvetica,sans-Serif" font-size="10.00">::ActiveWorkers::getDefault</text>
<text text-anchor="middle" x="631" y="-6.5" font-family="Helvetica,sans-Serif" font-size="10.00">Worker</text>
</a>
</g>
</g>
<!-- Node11&#45;&gt;Node13 -->
<g id="edge12" class="edge"><title>Node11&#45;&gt;Node13</title>
<path fill="none" stroke="midnightblue" d="M519.589,-36.2901C530.176,-34.7281 541.117,-33.1139 551.809,-31.5363"/>
<polygon fill="midnightblue" stroke="midnightblue" points="552.583,-34.9601 561.965,-30.0379 551.561,-28.0351 552.583,-34.9601"/>
</g>
<!-- Node14 -->
<g id="node14" class="node"><title>Node14</title>
<g id="a_node14"><a xlink:href="classfwServices_1_1registry_1_1ActiveWorkers.html#a96003a042657996f7297f459e927ae16" target="_top" xlink:title="Returns an instance of ActiveWorkers. ">
<polygon fill="white" stroke="black" points="742,-5 742,-35 880,-35 880,-5 742,-5"/>
<text text-anchor="start" x="750" y="-23" font-family="Helvetica,sans-Serif" font-size="10.00">fwServices::registry</text>
<text text-anchor="middle" x="811" y="-12" font-family="Helvetica,sans-Serif" font-size="10.00">::ActiveWorkers::getDefault</text>
</a>
</g>
</g>
<!-- Node13&#45;&gt;Node14 -->
<g id="edge13" class="edge"><title>Node13&#45;&gt;Node14</title>
<path fill="none" stroke="midnightblue" d="M700.056,-20C710.469,-20 721.287,-20 731.895,-20"/>
<polygon fill="midnightblue" stroke="midnightblue" points="731.982,-23.5001 741.982,-20 731.982,-16.5001 731.982,-23.5001"/>
</g>
</g>
</svg>
        <g id="navigator" transform="translate(0 0)" fill="#404254">
                <rect fill="#f2f5e9" fill-opacity="0.5" stroke="#606060" stroke-width=".5" x="0" y="0" width="60" height="60"/>
                <use id="zoomplus" xlink:href="#zoomPlus" x="17" y="9" onmousedown="handleZoom(evt,'in')"/>
                <use id="zoomminus" xlink:href="#zoomMin" x="42" y="9" onmousedown="handleZoom(evt,'out')"/>
                <use id="reset" xlink:href="#resetDef" x="30" y="36" onmousedown="handleReset()"/>
                <g id="arrowUp" xlink:href="#dirArrow" transform="translate(30 24)" onmousedown="handlePan(0,-1)">
                  <use xlink:href="#rim" fill="#404040">
                        <set attributeName="fill" to="#808080" begin="arrowUp.mouseover" end="arrowUp.mouseout"/>
                  </use>
                  <path fill="none" stroke="white" stroke-width="1.5" d="M0,-3.0v7 M-2.5,-0.5L0,-3.0L2.5,-0.5"/>
                </g>
                <g id="arrowRight" xlink:href="#dirArrow" transform="rotate(90) translate(36 -43)" onmousedown="handlePan(1,0)">
                  <use xlink:href="#rim" fill="#404040">
                        <set attributeName="fill" to="#808080" begin="arrowRight.mouseover" end="arrowRight.mouseout"/>
                  </use>
                  <path fill="none" stroke="white" stroke-width="1.5" d="M0,-3.0v7 M-2.5,-0.5L0,-3.0L2.5,-0.5"/>
                </g>
                <g id="arrowDown" xlink:href="#dirArrow" transform="rotate(180) translate(-30 -48)" onmousedown="handlePan(0,1)">
                  <use xlink:href="#rim" fill="#404040">
                        <set attributeName="fill" to="#808080" begin="arrowDown.mouseover" end="arrowDown.mouseout"/>
                  </use>
                  <path fill="none" stroke="white" stroke-width="1.5" d="M0,-3.0v7 M-2.5,-0.5L0,-3.0L2.5,-0.5"/>
                </g>
                <g id="arrowLeft" xlink:href="#dirArrow" transform="rotate(270) translate(-36 17)" onmousedown="handlePan(-1,0)">
                  <use xlink:href="#rim" fill="#404040">
                        <set attributeName="fill" to="#808080" begin="arrowLeft.mouseover" end="arrowLeft.mouseout"/>
                  </use>
                  <path fill="none" stroke="white" stroke-width="1.5" d="M0,-3.0v7 M-2.5,-0.5L0,-3.0L2.5,-0.5"/>
                </g>
        </g>
        <svg viewBox="0 0 15 15" width="100%" height="30px" preserveAspectRatio="xMaxYMin meet">
         <g id="arrow_out" transform="scale(0.3 0.3)">
          <a xlink:href="classactivities_1_1SActivitySequencer_a78861ab377ea77bf2804b3ef0b95857d_cgraph_org.svg" target="_base">
           <rect id="button" ry="5" rx="5" y="6" x="6" height="38" width="38"
                fill="#f2f5e9" fill-opacity="0.5" stroke="#606060" stroke-width="1.0"/>
           <path id="arrow"
             d="M 11.500037,31.436501 C 11.940474,20.09759 22.043105,11.32322 32.158766,21.979434 L 37.068811,17.246167 C 37.068811,17.246167 37.088388,32 37.088388,32 L 22.160133,31.978069 C 22.160133,31.978069 26.997745,27.140456 26.997745,27.140456 C 18.528582,18.264221 13.291696,25.230495 11.500037,31.436501 z"
             style="fill:#404040;"/>
          </a>
         </g>
        </svg>
</svg>
