<?xml version="1.0" encoding="UTF-8" standalone="no"?>
<!DOCTYPE svg PUBLIC "-//W3C//DTD SVG 1.1//EN"
 "http://www.w3.org/Graphics/SVG/1.1/DTD/svg11.dtd">
<!-- Generated by graphviz version 2.26.3 (20100126.1600)
 -->
<!-- Title: fwGui::ToolboxLayoutManager Pages: 1 -->
<svg width="156pt" height="362pt"
 viewBox="0.00 0.00 156.00 362.00" xmlns="http://www.w3.org/2000/svg" xmlns:xlink="http://www.w3.org/1999/xlink">
<g id="graph1" class="graph" transform="scale(1 1) rotate(0) translate(4 358)">
<title>fwGui::ToolboxLayoutManager</title>
<polygon fill="white" stroke="white" points="-4,5 -4,-358 153,-358 153,5 -4,5"/>
<!-- Node1 -->
<g id="node1" class="node"><title>Node1</title>
<polygon fill="#bfbfbf" stroke="black" points="-0.5,-0.5 -0.5,-21.5 148.5,-21.5 148.5,-0.5 -0.5,-0.5"/>
<text text-anchor="middle" x="74" y="-8.5" font-family="Helvetica,sans-Serif" font-size="10.00">fwGui::ToolboxLayoutManager</text>
</g>
<!-- Node2 -->
<g id="node2" class="node"><title>Node2</title>
<a xlink:href="classfwGui_1_1layoutManager_1_1ToolboxLayoutManagerBase.html" target="_top" xlink:title="Defines the base for line layout manager. ">
<polygon fill="white" stroke="black" points="1,-59 1,-93 147,-93 147,-59 1,-59"/>
<text text-anchor="start" x="9" y="-80" font-family="Helvetica,sans-Serif" font-size="10.00">fwGui::layoutManager</text>
<text text-anchor="middle" x="74" y="-67" font-family="Helvetica,sans-Serif" font-size="10.00">::ToolboxLayoutManagerBase</text>
</a>
</g>
<!-- Node2&#45;&gt;Node1 -->
<g id="edge2" class="edge"><title>Node2&#45;&gt;Node1</title>
<path fill="none" stroke="midnightblue" d="M74,-48.6879C74,-39.2415 74,-29.1949 74,-21.8521"/>
<polygon fill="midnightblue" stroke="midnightblue" points="70.5001,-48.922 74,-58.922 77.5001,-48.922 70.5001,-48.922"/>
</g>
<!-- Node3 -->
<g id="node4" class="node"><title>Node3</title>
<a xlink:href="classfwGui_1_1layoutManager_1_1IViewLayoutManager.html" target="_top" xlink:title="Defines the generic layout manager for IHM. ">
<polygon fill="white" stroke="black" points="17,-131 17,-165 131,-165 131,-131 17,-131"/>
<text text-anchor="start" x="25" y="-152" font-family="Helvetica,sans-Serif" font-size="10.00">fwGui::layoutManager</text>
<text text-anchor="middle" x="74" y="-139" font-family="Helvetica,sans-Serif" font-size="10.00">::IViewLayoutManager</text>
</a>
</g>
<!-- Node3&#45;&gt;Node2 -->
<g id="edge4" class="edge"><title>Node3&#45;&gt;Node2</title>
<path fill="none" stroke="midnightblue" d="M74,-120.719C74,-111.572 74,-101.625 74,-93.4407"/>
<polygon fill="midnightblue" stroke="midnightblue" points="70.5001,-120.937 74,-130.937 77.5001,-120.937 70.5001,-120.937"/>
</g>
<!-- Node4 -->
<g id="node6" class="node"><title>Node4</title>
<a xlink:href="classfwGui_1_1GuiBaseObject.html" target="_top" xlink:title="Base class for all fwGui&#39;s classes. ">
<polygon fill="white" stroke="black" points="17,-202.5 17,-223.5 131,-223.5 131,-202.5 17,-202.5"/>
<text text-anchor="middle" x="74" y="-210.5" font-family="Helvetica,sans-Serif" font-size="10.00">fwGui::GuiBaseObject</text>
</a>
</g>
<!-- Node4&#45;&gt;Node3 -->
<g id="edge6" class="edge"><title>Node4&#45;&gt;Node3</title>
<path fill="none" stroke="midnightblue" d="M74,-192.131C74,-183.405 74,-173.391 74,-165.11"/>
<polygon fill="midnightblue" stroke="midnightblue" points="70.5001,-192.267 74,-202.267 77.5001,-192.267 70.5001,-192.267"/>
</g>
<!-- Node5 -->
<g id="node8" class="node"><title>Node5</title>
<a xlink:href="classfwCore_1_1BaseObject.html" target="_top" xlink:title="Base class for all FW4SPL&#39;s classes. ">
<polygon fill="white" stroke="black" points="21.5,-260.5 21.5,-281.5 126.5,-281.5 126.5,-260.5 21.5,-260.5"/>
<text text-anchor="middle" x="74" y="-268.5" font-family="Helvetica,sans-Serif" font-size="10.00">fwCore::BaseObject</text>
</a>
</g>
<!-- Node5&#45;&gt;Node4 -->
<g id="edge8" class="edge"><title>Node5&#45;&gt;Node4</title>
<path fill="none" stroke="midnightblue" d="M74,-250.191C74,-241.168 74,-230.994 74,-223.571"/>
<polygon fill="midnightblue" stroke="midnightblue" points="70.5001,-250.362 74,-260.362 77.5001,-250.362 70.5001,-250.362"/>
</g>
<!-- Node6 -->
<g id="node10" class="node"><title>Node6</title>
<polygon fill="white" stroke="#bfbfbf" points="8.5,-319 8.5,-353 139.5,-353 139.5,-319 8.5,-319"/>
<text text-anchor="start" x="16.5" y="-340" font-family="Helvetica,sans-Serif" font-size="10.00">std::enable_shared</text>
<text text-anchor="middle" x="74" y="-327" font-family="Helvetica,sans-Serif" font-size="10.00">_from_this&lt; BaseObject &gt;</text>
</g>
<!-- Node6&#45;&gt;Node5 -->
<g id="edge10" class="edge"><title>Node6&#45;&gt;Node5</title>
<path fill="none" stroke="midnightblue" d="M74,-308.688C74,-299.242 74,-289.195 74,-281.852"/>
<polygon fill="midnightblue" stroke="midnightblue" points="70.5001,-308.922 74,-318.922 77.5001,-308.922 70.5001,-308.922"/>
</g>
</g>
</svg>
