<?xml version="1.0" encoding="UTF-8" standalone="no"?>
<!DOCTYPE svg PUBLIC "-//W3C//DTD SVG 1.1//EN"
 "http://www.w3.org/Graphics/SVG/1.1/DTD/svg11.dtd">
<!-- Generated by graphviz version 2.36.0 (20140111.2315)
 -->
<!-- Title: fwDataTools::helper::MedicalImageAdaptor::setOrCreateTF Pages: 1 -->
<!--zoomable 407 -->
<svg id="main" version="1.1" xmlns="http://www.w3.org/2000/svg" xmlns:xlink="http://www.w3.org/1999/xlink" xml:space="preserve" onload="init(evt)">
<style type="text/css"><![CDATA[
.edge:hover path { stroke: red; }
.edge:hover polygon { stroke: red; fill: red; }
]]></style>
<script type="text/javascript"><![CDATA[
var edges = document.getElementsByTagName('g');
if (edges && edges.length) {
  for (var i=0;i<edges.length;i++) {
    if (edges[i].id.substr(0,4)=='edge') {
      edges[i].setAttribute('class','edge');
    }
  }
}
]]></script>
        <defs>
                <circle id="rim" cx="0" cy="0" r="7"/>
                <circle id="rim2" cx="0" cy="0" r="3.5"/>
                <g id="zoomPlus">
                        <use xlink:href="#rim" fill="#404040">
                                <set attributeName="fill" to="#808080" begin="zoomplus.mouseover" end="zoomplus.mouseout"/>
                        </use>
                        <path d="M-4,0h8M0,-4v8" fill="none" stroke="white" stroke-width="1.5" pointer-events="none"/>
                </g>
                <g id="zoomMin">
                        <use xlink:href="#rim" fill="#404040">
                                <set attributeName="fill" to="#808080" begin="zoomminus.mouseover" end="zoomminus.mouseout"/>
                        </use>
                        <path d="M-4,0h8" fill="none" stroke="white" stroke-width="1.5" pointer-events="none"/>
                </g>
                <g id="dirArrow">
                        <path fill="none" stroke="white" stroke-width="1.5" d="M0,-3.0v7 M-2.5,-0.5L0,-3.0L2.5,-0.5"/>
                </g>
               <g id="resetDef">
                       <use xlink:href="#rim2" fill="#404040">
                               <set attributeName="fill" to="#808080" begin="reset.mouseover" end="reset.mouseout"/>
                       </use>
               </g>
        </defs>

<script type="text/javascript">
var viewWidth = 636;
var viewHeight = 407;
var sectionId = 'dynsection-16';
</script>
<script xlink:href="svgpan.js"/>
<svg id="graph" class="graph">
<g id="viewport">
<title>fwDataTools::helper::MedicalImageAdaptor::setOrCreateTF</title>
<polygon fill="white" stroke="none" points="-4,4 -4,-403 632,-403 632,4 -4,4"/>
<!-- Node1 -->
<g id="node1" class="node"><title>Node1</title>
<polygon fill="#bfbfbf" stroke="black" points="0.5,-90.5 0.5,-131.5 117.5,-131.5 117.5,-90.5 0.5,-90.5"/>
<text text-anchor="start" x="8.5" y="-119.5" font-family="Helvetica,sans-Serif" font-size="10.00">fwDataTools::helper</text>
<text text-anchor="start" x="8.5" y="-108.5" font-family="Helvetica,sans-Serif" font-size="10.00">::MedicalImageAdaptor</text>
<text text-anchor="middle" x="59" y="-97.5" font-family="Helvetica,sans-Serif" font-size="10.00">::setOrCreateTF</text>
</g>
<!-- Node2 -->
<g id="node2" class="node"><title>Node2</title>
<g id="a_node2"><a xlink:href="classfwDataTools_1_1helper_1_1MedicalImageAdaptor.html#afc304f47a3b79a9562bdbaf53da82afe" target="_top" xlink:title="Create and set the default transfer function. ">
<polygon fill="white" stroke="black" points="154.5,-249.5 154.5,-290.5 277.5,-290.5 277.5,-249.5 154.5,-249.5"/>
<text text-anchor="start" x="162.5" y="-278.5" font-family="Helvetica,sans-Serif" font-size="10.00">fwDataTools::helper</text>
<text text-anchor="start" x="162.5" y="-267.5" font-family="Helvetica,sans-Serif" font-size="10.00">::MedicalImageAdaptor</text>
<text text-anchor="middle" x="216" y="-256.5" font-family="Helvetica,sans-Serif" font-size="10.00">::createTransferFunction</text>
</a>
</g>
</g>
<!-- Node1&#45;&gt;Node2 -->
<g id="edge1" class="edge"><title>Node1&#45;&gt;Node2</title>
<path fill="none" stroke="midnightblue" d="M80.2635,-131.786C107.84,-160.075 157.263,-210.773 187.973,-242.275"/>
<polygon fill="midnightblue" stroke="midnightblue" points="185.49,-244.743 194.977,-249.46 190.503,-239.857 185.49,-244.743"/>
</g>
<!-- Node7 -->
<g id="node7" class="node"><title>Node7</title>
<g id="a_node7"><a xlink:href="classfwDataTools_1_1helper_1_1MedicalImageAdaptor.html#a9cd350f7ccdd8a329c42d27d5e79088d" target="_top" xlink:title="Install connections to listen TF modifications. ">
<polygon fill="white" stroke="black" points="157.5,-120.5 157.5,-161.5 274.5,-161.5 274.5,-120.5 157.5,-120.5"/>
<text text-anchor="start" x="165.5" y="-149.5" font-family="Helvetica,sans-Serif" font-size="10.00">fwDataTools::helper</text>
<text text-anchor="start" x="165.5" y="-138.5" font-family="Helvetica,sans-Serif" font-size="10.00">::MedicalImageAdaptor</text>
<text text-anchor="middle" x="216" y="-127.5" font-family="Helvetica,sans-Serif" font-size="10.00">::installTFConnections</text>
</a>
</g>
</g>
<!-- Node1&#45;&gt;Node7 -->
<g id="edge6" class="edge"><title>Node1&#45;&gt;Node7</title>
<path fill="none" stroke="midnightblue" d="M117.716,-122.171C127.464,-124.058 137.659,-126.031 147.627,-127.96"/>
<polygon fill="midnightblue" stroke="midnightblue" points="147.011,-131.406 157.494,-129.87 148.341,-124.533 147.011,-131.406"/>
</g>
<!-- Node10 -->
<g id="node10" class="node"><title>Node10</title>
<g id="a_node10"><a xlink:href="classfwDataTools_1_1helper_1_1MedicalImageAdaptor.html#affa9720c3ed5084df60a5e0d3a2c749b" target="_top" xlink:title="Remove the TF connections. ">
<polygon fill="white" stroke="black" points="155,-60.5 155,-101.5 277,-101.5 277,-60.5 155,-60.5"/>
<text text-anchor="start" x="163" y="-89.5" font-family="Helvetica,sans-Serif" font-size="10.00">fwDataTools::helper</text>
<text text-anchor="start" x="163" y="-78.5" font-family="Helvetica,sans-Serif" font-size="10.00">::MedicalImageAdaptor</text>
<text text-anchor="middle" x="216" y="-67.5" font-family="Helvetica,sans-Serif" font-size="10.00">::removeTFConnections</text>
</a>
</g>
</g>
<!-- Node1&#45;&gt;Node10 -->
<g id="edge9" class="edge"><title>Node1&#45;&gt;Node10</title>
<path fill="none" stroke="midnightblue" d="M117.716,-99.8291C126.629,-98.1041 135.915,-96.3067 145.06,-94.5368"/>
<polygon fill="midnightblue" stroke="midnightblue" points="145.75,-97.9682 154.903,-92.6317 144.42,-91.0957 145.75,-97.9682"/>
</g>
<!-- Node13 -->
<g id="node13" class="node"><title>Node13</title>
<g id="a_node13"><a xlink:href="classfwDataTools_1_1helper_1_1MedicalImageAdaptor.html#a2fce35c4b5005348d4916235a59fc7df" target="_top" xlink:title="Set the current TransferFunction. ">
<polygon fill="white" stroke="black" points="157.5,-0.5 157.5,-41.5 274.5,-41.5 274.5,-0.5 157.5,-0.5"/>
<text text-anchor="start" x="165.5" y="-29.5" font-family="Helvetica,sans-Serif" font-size="10.00">fwDataTools::helper</text>
<text text-anchor="start" x="165.5" y="-18.5" font-family="Helvetica,sans-Serif" font-size="10.00">::MedicalImageAdaptor</text>
<text text-anchor="middle" x="216" y="-7.5" font-family="Helvetica,sans-Serif" font-size="10.00">::setTransferFunction</text>
</a>
</g>
</g>
<!-- Node1&#45;&gt;Node13 -->
<g id="edge12" class="edge"><title>Node1&#45;&gt;Node13</title>
<path fill="none" stroke="midnightblue" d="M90.3793,-90.395C108.536,-78.3882 132.235,-63.2486 154,-51 156.828,-49.4083 159.753,-47.8124 162.721,-46.2316"/>
<polygon fill="midnightblue" stroke="midnightblue" points="164.448,-49.2783 171.699,-41.5534 161.213,-43.0705 164.448,-49.2783"/>
</g>
<!-- Node3 -->
<g id="node3" class="node"><title>Node3</title>
<g id="a_node3"><a xlink:href="classfwDataTools_1_1helper_1_1Composite.html#a154193c5093752bec503b38219ef1da3" target="_top" xlink:title="Add an object in the composite. ">
<polygon fill="white" stroke="black" points="346,-369 346,-399 450,-399 450,-369 346,-369"/>
<text text-anchor="start" x="354" y="-387" font-family="Helvetica,sans-Serif" font-size="10.00">fwDataTools::helper</text>
<text text-anchor="middle" x="398" y="-376" font-family="Helvetica,sans-Serif" font-size="10.00">::Composite::add</text>
</a>
</g>
</g>
<!-- Node2&#45;&gt;Node3 -->
<g id="edge2" class="edge"><title>Node2&#45;&gt;Node3</title>
<path fill="none" stroke="midnightblue" d="M234.284,-290.528C252.275,-310.667 282.22,-340.91 314,-359 320.974,-362.97 328.643,-366.37 336.416,-369.266"/>
<polygon fill="midnightblue" stroke="midnightblue" points="335.313,-372.589 345.908,-372.554 337.604,-365.974 335.313,-372.589"/>
</g>
<!-- Node4 -->
<g id="node4" class="node"><title>Node4</title>
<g id="a_node4"><a xlink:href="classfwDataTools_1_1fieldHelper_1_1MedicalImageHelpers.html#a1aa6e7bebb9f96a8e60a14aecc352e99" target="_top" xlink:title="Check if the image is valid. ">
<polygon fill="white" stroke="black" points="335.5,-309.5 335.5,-350.5 460.5,-350.5 460.5,-309.5 335.5,-309.5"/>
<text text-anchor="start" x="343.5" y="-338.5" font-family="Helvetica,sans-Serif" font-size="10.00">fwDataTools::fieldHelper</text>
<text text-anchor="start" x="343.5" y="-327.5" font-family="Helvetica,sans-Serif" font-size="10.00">::MedicalImageHelpers::</text>
<text text-anchor="middle" x="398" y="-316.5" font-family="Helvetica,sans-Serif" font-size="10.00">checkImageValidity</text>
</a>
</g>
</g>
<!-- Node2&#45;&gt;Node4 -->
<g id="edge3" class="edge"><title>Node2&#45;&gt;Node4</title>
<path fill="none" stroke="midnightblue" d="M277.689,-290.23C293.072,-295.357 309.737,-300.912 325.596,-306.199"/>
<polygon fill="midnightblue" stroke="midnightblue" points="324.755,-309.607 335.348,-309.449 326.968,-302.967 324.755,-309.607"/>
</g>
<!-- Node5 -->
<g id="node5" class="node"><title>Node5</title>
<g id="a_node5"><a xlink:href="classfwDataTools_1_1fieldHelper_1_1MedicalImageHelpers.html#abb0d7ac24314c1b1a988f27b8b17354a" target="_top" xlink:title="Return minimum and maximum values contained in image. If image min or max value is out of MINMAXTYPE ...">
<polygon fill="white" stroke="black" points="335.5,-249.5 335.5,-290.5 460.5,-290.5 460.5,-249.5 335.5,-249.5"/>
<text text-anchor="start" x="343.5" y="-278.5" font-family="Helvetica,sans-Serif" font-size="10.00">fwDataTools::fieldHelper</text>
<text text-anchor="start" x="343.5" y="-267.5" font-family="Helvetica,sans-Serif" font-size="10.00">::MedicalImageHelpers::</text>
<text text-anchor="middle" x="398" y="-256.5" font-family="Helvetica,sans-Serif" font-size="10.00">getMinMax</text>
</a>
</g>
</g>
<!-- Node2&#45;&gt;Node5 -->
<g id="edge4" class="edge"><title>Node2&#45;&gt;Node5</title>
<path fill="none" stroke="midnightblue" d="M277.689,-270C292.926,-270 309.422,-270 325.147,-270"/>
<polygon fill="midnightblue" stroke="midnightblue" points="325.348,-273.5 335.348,-270 325.348,-266.5 325.348,-273.5"/>
</g>
<!-- Node6 -->
<g id="node6" class="node"><title>Node6</title>
<g id="a_node6"><a xlink:href="classfwDataTools_1_1helper_1_1Composite.html#a97bee6deceafbd7a45f1907f9c183b2b" target="_top" xlink:title="Send the message of modification. ">
<polygon fill="white" stroke="black" points="346,-201 346,-231 450,-231 450,-201 346,-201"/>
<text text-anchor="start" x="354" y="-219" font-family="Helvetica,sans-Serif" font-size="10.00">fwDataTools::helper</text>
<text text-anchor="middle" x="398" y="-208" font-family="Helvetica,sans-Serif" font-size="10.00">::Composite::notify</text>
</a>
</g>
</g>
<!-- Node2&#45;&gt;Node6 -->
<g id="edge5" class="edge"><title>Node2&#45;&gt;Node6</title>
<path fill="none" stroke="midnightblue" d="M277.746,-251.024C289.75,-247.328 302.263,-243.512 314,-240 321.015,-237.901 328.372,-235.73 335.686,-233.591"/>
<polygon fill="midnightblue" stroke="midnightblue" points="336.975,-236.861 345.597,-230.703 335.017,-230.14 336.975,-236.861"/>
</g>
<!-- Node8 -->
<g id="node8" class="node"><title>Node8</title>
<g id="a_node8"><a xlink:href="classfwDataTools_1_1helper_1_1MedicalImageAdaptor.html#ad1ec2a62bf03c940d20ca8ebe74ae762" target="_top" xlink:title="Get the current transfer function. ">
<polygon fill="white" stroke="black" points="339.5,-141.5 339.5,-182.5 456.5,-182.5 456.5,-141.5 339.5,-141.5"/>
<text text-anchor="start" x="347.5" y="-170.5" font-family="Helvetica,sans-Serif" font-size="10.00">fwDataTools::helper</text>
<text text-anchor="start" x="347.5" y="-159.5" font-family="Helvetica,sans-Serif" font-size="10.00">::MedicalImageAdaptor</text>
<text text-anchor="middle" x="398" y="-148.5" font-family="Helvetica,sans-Serif" font-size="10.00">::getTransferFunction</text>
</a>
</g>
</g>
<!-- Node7&#45;&gt;Node8 -->
<g id="edge7" class="edge"><title>Node7&#45;&gt;Node8</title>
<path fill="none" stroke="midnightblue" d="M274.944,-147.76C292.293,-149.784 311.47,-152.021 329.384,-154.111"/>
<polygon fill="midnightblue" stroke="midnightblue" points="329.134,-157.606 339.473,-155.288 329.946,-150.653 329.134,-157.606"/>
</g>
<!-- Node9 -->
<g id="node9" class="node"><title>Node9</title>
<g id="a_node9"><a xlink:href="classfwCom_1_1helper_1_1SigSlotConnection.html#ab661875b9bbaa37f9f6f4f4c67575bea" target="_top" xlink:title="Add a connection. ">
<polygon fill="white" stroke="black" points="314.5,-93 314.5,-123 481.5,-123 481.5,-93 314.5,-93"/>
<text text-anchor="start" x="322.5" y="-111" font-family="Helvetica,sans-Serif" font-size="10.00">fwCom::helper::SigSlotConnection</text>
<text text-anchor="middle" x="398" y="-100" font-family="Helvetica,sans-Serif" font-size="10.00">::addConnection</text>
</a>
</g>
</g>
<!-- Node7&#45;&gt;Node9 -->
<g id="edge8" class="edge"><title>Node7&#45;&gt;Node9</title>
<path fill="none" stroke="midnightblue" d="M274.944,-130.377C284.502,-128.625 294.615,-126.771 304.765,-124.91"/>
<polygon fill="midnightblue" stroke="midnightblue" points="305.704,-128.296 314.909,-123.05 304.442,-121.411 305.704,-128.296"/>
</g>
<!-- Node11 -->
<g id="node11" class="node"><title>Node11</title>
<g id="a_node11"><a xlink:href="classfwCom_1_1helper_1_1SigSlotConnection.html#ad5d185818b5e00f5eb631d971be5b3d1" target="_top" xlink:title="Disconnect all registered connections and clear m_connections. ">
<polygon fill="white" stroke="black" points="314.5,-44 314.5,-74 481.5,-74 481.5,-44 314.5,-44"/>
<text text-anchor="start" x="322.5" y="-62" font-family="Helvetica,sans-Serif" font-size="10.00">fwCom::helper::SigSlotConnection</text>
<text text-anchor="middle" x="398" y="-51" font-family="Helvetica,sans-Serif" font-size="10.00">::disconnect</text>
</a>
</g>
</g>
<!-- Node10&#45;&gt;Node11 -->
<g id="edge10" class="edge"><title>Node10&#45;&gt;Node11</title>
<path fill="none" stroke="midnightblue" d="M277.188,-73.6437C285.969,-72.5705 295.177,-71.445 304.422,-70.3151"/>
<polygon fill="midnightblue" stroke="midnightblue" points="304.947,-73.777 314.449,-69.0896 304.098,-66.8287 304.947,-73.777"/>
</g>
<!-- Node12 -->
<g id="node12" class="node"><title>Node12</title>
<g id="a_node12"><a xlink:href="structfwCom_1_1Connection.html#a754cdafafcd72795d48157614d0e5d63" target="_top" xlink:title="Disconnect related Connection. ">
<polygon fill="white" stroke="black" points="518,-44 518,-74 628,-74 628,-44 518,-44"/>
<text text-anchor="start" x="526" y="-62" font-family="Helvetica,sans-Serif" font-size="10.00">fwCom::Connection::</text>
<text text-anchor="middle" x="573" y="-51" font-family="Helvetica,sans-Serif" font-size="10.00">disconnect</text>
</a>
</g>
</g>
<!-- Node11&#45;&gt;Node12 -->
<g id="edge11" class="edge"><title>Node11&#45;&gt;Node12</title>
<path fill="none" stroke="midnightblue" d="M481.7,-59C490.346,-59 499.044,-59 507.445,-59"/>
<polygon fill="midnightblue" stroke="midnightblue" points="507.523,-62.5001 517.523,-59 507.523,-55.5001 507.523,-62.5001"/>
</g>
</g>
</svg>
        <g id="navigator" transform="translate(0 0)" fill="#404254">
                <rect fill="#f2f5e9" fill-opacity="0.5" stroke="#606060" stroke-width=".5" x="0" y="0" width="60" height="60"/>
                <use id="zoomplus" xlink:href="#zoomPlus" x="17" y="9" onmousedown="handleZoom(evt,'in')"/>
                <use id="zoomminus" xlink:href="#zoomMin" x="42" y="9" onmousedown="handleZoom(evt,'out')"/>
                <use id="reset" xlink:href="#resetDef" x="30" y="36" onmousedown="handleReset()"/>
                <g id="arrowUp" xlink:href="#dirArrow" transform="translate(30 24)" onmousedown="handlePan(0,-1)">
                  <use xlink:href="#rim" fill="#404040">
                        <set attributeName="fill" to="#808080" begin="arrowUp.mouseover" end="arrowUp.mouseout"/>
                  </use>
                  <path fill="none" stroke="white" stroke-width="1.5" d="M0,-3.0v7 M-2.5,-0.5L0,-3.0L2.5,-0.5"/>
                </g>
                <g id="arrowRight" xlink:href="#dirArrow" transform="rotate(90) translate(36 -43)" onmousedown="handlePan(1,0)">
                  <use xlink:href="#rim" fill="#404040">
                        <set attributeName="fill" to="#808080" begin="arrowRight.mouseover" end="arrowRight.mouseout"/>
                  </use>
                  <path fill="none" stroke="white" stroke-width="1.5" d="M0,-3.0v7 M-2.5,-0.5L0,-3.0L2.5,-0.5"/>
                </g>
                <g id="arrowDown" xlink:href="#dirArrow" transform="rotate(180) translate(-30 -48)" onmousedown="handlePan(0,1)">
                  <use xlink:href="#rim" fill="#404040">
                        <set attributeName="fill" to="#808080" begin="arrowDown.mouseover" end="arrowDown.mouseout"/>
                  </use>
                  <path fill="none" stroke="white" stroke-width="1.5" d="M0,-3.0v7 M-2.5,-0.5L0,-3.0L2.5,-0.5"/>
                </g>
                <g id="arrowLeft" xlink:href="#dirArrow" transform="rotate(270) translate(-36 17)" onmousedown="handlePan(-1,0)">
                  <use xlink:href="#rim" fill="#404040">
                        <set attributeName="fill" to="#808080" begin="arrowLeft.mouseover" end="arrowLeft.mouseout"/>
                  </use>
                  <path fill="none" stroke="white" stroke-width="1.5" d="M0,-3.0v7 M-2.5,-0.5L0,-3.0L2.5,-0.5"/>
                </g>
        </g>
        <svg viewBox="0 0 15 15" width="100%" height="30px" preserveAspectRatio="xMaxYMin meet">
         <g id="arrow_out" transform="scale(0.3 0.3)">
          <a xlink:href="classfwDataTools_1_1helper_1_1MedicalImageAdaptor_a469f3500bcae9708253c0f4d5aee5dd9_cgraph_org.svg" target="_base">
           <rect id="button" ry="5" rx="5" y="6" x="6" height="38" width="38"
                fill="#f2f5e9" fill-opacity="0.5" stroke="#606060" stroke-width="1.0"/>
           <path id="arrow"
             d="M 11.500037,31.436501 C 11.940474,20.09759 22.043105,11.32322 32.158766,21.979434 L 37.068811,17.246167 C 37.068811,17.246167 37.088388,32 37.088388,32 L 22.160133,31.978069 C 22.160133,31.978069 26.997745,27.140456 26.997745,27.140456 C 18.528582,18.264221 13.291696,25.230495 11.500037,31.436501 z"
             style="fill:#404040;"/>
          </a>
         </g>
        </svg>
</svg>
