<?xml version="1.0" encoding="UTF-8" standalone="no"?>
<!DOCTYPE svg PUBLIC "-//W3C//DTD SVG 1.1//EN"
 "http://www.w3.org/Graphics/SVG/1.1/DTD/svg11.dtd">
<!-- Generated by graphviz version 2.36.0 (20140111.2315)
 -->
<!-- Title: visuVTKAdaptor::SImagesBlend::configuring Pages: 1 -->
<svg width="626pt" height="185pt"
 viewBox="0.00 0.00 626.00 185.00" xmlns="http://www.w3.org/2000/svg" xmlns:xlink="http://www.w3.org/1999/xlink">
<g id="graph0" class="graph" transform="scale(1 1) rotate(0) translate(4 181)">
<title>visuVTKAdaptor::SImagesBlend::configuring</title>
<polygon fill="white" stroke="none" points="-4,4 -4,-181 622,-181 622,4 -4,4"/>
<!-- Node1 -->
<g id="node1" class="node"><title>Node1</title>
<polygon fill="#bfbfbf" stroke="black" points="0,-98 0,-128 158,-128 158,-98 0,-98"/>
<text text-anchor="start" x="8" y="-116" font-family="Helvetica,sans-Serif" font-size="10.00">visuVTKAdaptor::SImagesBlend</text>
<text text-anchor="middle" x="79" y="-105" font-family="Helvetica,sans-Serif" font-size="10.00">::configuring</text>
</g>
<!-- Node2 -->
<g id="node2" class="node"><title>Node2</title>
<g id="a_node2"><a xlink:href="classfwRenderVTK_1_1IAdaptor.html#abf451ddaeae9fad7eca28360d271e4a4" target="_top" xlink:title="Parse the xml configuration for renderer, picker and transform. ">
<polygon fill="white" stroke="black" points="194.5,-98 194.5,-128 315.5,-128 315.5,-98 194.5,-98"/>
<text text-anchor="start" x="202.5" y="-116" font-family="Helvetica,sans-Serif" font-size="10.00">fwRenderVTK::IAdaptor</text>
<text text-anchor="middle" x="255" y="-105" font-family="Helvetica,sans-Serif" font-size="10.00">::configureParams</text>
</a>
</g>
</g>
<!-- Node1&#45;&gt;Node2 -->
<g id="edge1" class="edge"><title>Node1&#45;&gt;Node2</title>
<path fill="none" stroke="midnightblue" d="M158.093,-113C166.859,-113 175.747,-113 184.396,-113"/>
<polygon fill="midnightblue" stroke="midnightblue" points="184.418,-116.5 194.418,-113 184.418,-109.5 184.418,-116.5"/>
</g>
<!-- Node3 -->
<g id="node3" class="node"><title>Node3</title>
<g id="a_node3"><a xlink:href="classfwServices_1_1IService.html#a25c0048bcdd35e4453d3d418db22b78f" target="_top" xlink:title="Return the configuration, in an boost property tree. ">
<polygon fill="white" stroke="black" points="359.5,-147 359.5,-177 466.5,-177 466.5,-147 359.5,-147"/>
<text text-anchor="start" x="367.5" y="-165" font-family="Helvetica,sans-Serif" font-size="10.00">fwServices::IService</text>
<text text-anchor="middle" x="413" y="-154" font-family="Helvetica,sans-Serif" font-size="10.00">::getConfigTree</text>
</a>
</g>
</g>
<!-- Node1&#45;&gt;Node3 -->
<g id="edge7" class="edge"><title>Node1&#45;&gt;Node3</title>
<path fill="none" stroke="midnightblue" d="M146.114,-128.009C161.762,-131.259 178.428,-134.474 194,-137 246.045,-145.444 305.535,-152.065 349.207,-156.366"/>
<polygon fill="midnightblue" stroke="midnightblue" points="349.102,-159.872 359.393,-157.355 349.778,-152.905 349.102,-159.872"/>
</g>
<!-- Node8 -->
<g id="node8" class="node"><title>Node8</title>
<g id="a_node8"><a xlink:href="classfwServices_1_1IService.html#af98da4a410587cde1b329546daa4bbff" target="_top" xlink:title="Write information in a stream. ">
<polygon fill="white" stroke="black" points="201.5,-49 201.5,-79 308.5,-79 308.5,-49 201.5,-49"/>
<text text-anchor="start" x="209.5" y="-67" font-family="Helvetica,sans-Serif" font-size="10.00">fwServices::IService</text>
<text text-anchor="middle" x="255" y="-56" font-family="Helvetica,sans-Serif" font-size="10.00">::info</text>
</a>
</g>
</g>
<!-- Node1&#45;&gt;Node8 -->
<g id="edge8" class="edge"><title>Node1&#45;&gt;Node8</title>
<path fill="none" stroke="midnightblue" d="M133.626,-97.8986C151.992,-92.7263 172.698,-86.8953 191.692,-81.5464"/>
<polygon fill="midnightblue" stroke="midnightblue" points="192.771,-84.8789 201.448,-78.7992 190.873,-78.141 192.771,-84.8789"/>
</g>
<!-- Node2&#45;&gt;Node3 -->
<g id="edge2" class="edge"><title>Node2&#45;&gt;Node3</title>
<path fill="none" stroke="midnightblue" d="M304.078,-128.101C320.018,-133.108 337.924,-138.732 354.5,-143.939"/>
<polygon fill="midnightblue" stroke="midnightblue" points="353.491,-147.291 364.081,-146.948 355.589,-140.613 353.491,-147.291"/>
</g>
<!-- Node5 -->
<g id="node5" class="node"><title>Node5</title>
<g id="a_node5"><a xlink:href="classfwRenderVTK_1_1IAdaptor.html#a5d9b171d416c78dc0d28d20fa042b9d5" target="_top" xlink:title="Sets the identifier of the picker used by this adaptor. ">
<polygon fill="white" stroke="black" points="352.5,-98 352.5,-128 473.5,-128 473.5,-98 352.5,-98"/>
<text text-anchor="start" x="360.5" y="-116" font-family="Helvetica,sans-Serif" font-size="10.00">fwRenderVTK::IAdaptor</text>
<text text-anchor="middle" x="413" y="-105" font-family="Helvetica,sans-Serif" font-size="10.00">::setPickerId</text>
</a>
</g>
</g>
<!-- Node2&#45;&gt;Node5 -->
<g id="edge4" class="edge"><title>Node2&#45;&gt;Node5</title>
<path fill="none" stroke="midnightblue" d="M315.868,-113C324.452,-113 333.346,-113 342.103,-113"/>
<polygon fill="midnightblue" stroke="midnightblue" points="342.293,-116.5 352.293,-113 342.293,-109.5 342.293,-116.5"/>
</g>
<!-- Node6 -->
<g id="node6" class="node"><title>Node6</title>
<g id="a_node6"><a xlink:href="classfwRenderVTK_1_1IAdaptor.html#abe92b6474f5e78b46749b976869cc272" target="_top" xlink:title="Sets the renderer identifier. ">
<polygon fill="white" stroke="black" points="352.5,-49 352.5,-79 473.5,-79 473.5,-49 352.5,-49"/>
<text text-anchor="start" x="360.5" y="-67" font-family="Helvetica,sans-Serif" font-size="10.00">fwRenderVTK::IAdaptor</text>
<text text-anchor="middle" x="413" y="-56" font-family="Helvetica,sans-Serif" font-size="10.00">::setRendererId</text>
</a>
</g>
</g>
<!-- Node2&#45;&gt;Node6 -->
<g id="edge5" class="edge"><title>Node2&#45;&gt;Node6</title>
<path fill="none" stroke="midnightblue" d="M304.078,-97.8986C320.018,-92.8917 337.924,-87.2676 354.5,-82.061"/>
<polygon fill="midnightblue" stroke="midnightblue" points="355.589,-85.3875 364.081,-79.0516 353.491,-78.7092 355.589,-85.3875"/>
</g>
<!-- Node7 -->
<g id="node7" class="node"><title>Node7</title>
<g id="a_node7"><a xlink:href="classfwRenderVTK_1_1IAdaptor.html#ab071873fa3b3836f5b0d16bd02160da1" target="_top" xlink:title="Sets the identifier of the transform used by this adaptor. ">
<polygon fill="white" stroke="black" points="352.5,-0 352.5,-30 473.5,-30 473.5,-0 352.5,-0"/>
<text text-anchor="start" x="360.5" y="-18" font-family="Helvetica,sans-Serif" font-size="10.00">fwRenderVTK::IAdaptor</text>
<text text-anchor="middle" x="413" y="-7" font-family="Helvetica,sans-Serif" font-size="10.00">::setTransformId</text>
</a>
</g>
</g>
<!-- Node2&#45;&gt;Node7 -->
<g id="edge6" class="edge"><title>Node2&#45;&gt;Node7</title>
<path fill="none" stroke="midnightblue" d="M300.167,-97.9001C305.769,-95.0538 311.208,-91.7649 316,-88 337.249,-71.3041 330.632,-55.5437 352,-39 353.766,-37.6328 355.62,-36.3331 357.538,-35.0987"/>
<polygon fill="midnightblue" stroke="midnightblue" points="359.337,-38.1014 366.279,-30.0975 355.861,-32.0255 359.337,-38.1014"/>
</g>
<!-- Node4 -->
<g id="node4" class="node"><title>Node4</title>
<g id="a_node4"><a xlink:href="classfwServices_1_1IService.html#a21ea949603d87785b9a62522d98e2d8c" target="_top" xlink:title="Return the configuration, in an xml format read using runtime library. ">
<polygon fill="white" stroke="black" points="510.5,-147 510.5,-177 617.5,-177 617.5,-147 510.5,-147"/>
<text text-anchor="start" x="518.5" y="-165" font-family="Helvetica,sans-Serif" font-size="10.00">fwServices::IService</text>
<text text-anchor="middle" x="564" y="-154" font-family="Helvetica,sans-Serif" font-size="10.00">::getConfiguration</text>
</a>
</g>
</g>
<!-- Node3&#45;&gt;Node4 -->
<g id="edge3" class="edge"><title>Node3&#45;&gt;Node4</title>
<path fill="none" stroke="midnightblue" d="M466.532,-162C477.437,-162 489.032,-162 500.261,-162"/>
<polygon fill="midnightblue" stroke="midnightblue" points="500.44,-165.5 510.44,-162 500.44,-158.5 500.44,-165.5"/>
</g>
</g>
</svg>
