<?xml version="1.0" encoding="UTF-8" standalone="no"?>
<!DOCTYPE svg PUBLIC "-//W3C//DTD SVG 1.1//EN"
 "http://www.w3.org/Graphics/SVG/1.1/DTD/svg11.dtd">
<!-- Generated by graphviz version 2.36.0 (20140111.2315)
 -->
<!-- Title: visuVTKAdaptor::SMeshNormals::stopping Pages: 1 -->
<svg width="514pt" height="283pt"
 viewBox="0.00 0.00 514.00 283.00" xmlns="http://www.w3.org/2000/svg" xmlns:xlink="http://www.w3.org/1999/xlink">
<g id="graph0" class="graph" transform="scale(1 1) rotate(0) translate(4 279)">
<title>visuVTKAdaptor::SMeshNormals::stopping</title>
<polygon fill="white" stroke="none" points="-4,4 -4,-279 510,-279 510,4 -4,4"/>
<!-- Node1 -->
<g id="node1" class="node"><title>Node1</title>
<polygon fill="#bfbfbf" stroke="black" points="0.5,-134 0.5,-164 161.5,-164 161.5,-134 0.5,-134"/>
<text text-anchor="start" x="8.5" y="-152" font-family="Helvetica,sans-Serif" font-size="10.00">visuVTKAdaptor::SMeshNormals</text>
<text text-anchor="middle" x="81" y="-141" font-family="Helvetica,sans-Serif" font-size="10.00">::stopping</text>
</g>
<!-- Node2 -->
<g id="node2" class="node"><title>Node2</title>
<g id="a_node2"><a xlink:href="classfwRenderVTK_1_1IAdaptor.html#a5bbe666037150a88a1de17bd59dc4bce" target="_top" xlink:title="Removes all the vtkProp from the renderer. ">
<polygon fill="white" stroke="black" points="198.5,-171 198.5,-201 347.5,-201 347.5,-171 198.5,-171"/>
<text text-anchor="start" x="206.5" y="-189" font-family="Helvetica,sans-Serif" font-size="10.00">fwRenderVTK::IAdaptor</text>
<text text-anchor="middle" x="273" y="-178" font-family="Helvetica,sans-Serif" font-size="10.00">::removeAllPropFromRenderer</text>
</a>
</g>
</g>
<!-- Node1&#45;&gt;Node2 -->
<g id="edge1" class="edge"><title>Node1&#45;&gt;Node2</title>
<path fill="none" stroke="midnightblue" d="M159.28,-164.049C168.888,-165.92 178.746,-167.84 188.443,-169.728"/>
<polygon fill="midnightblue" stroke="midnightblue" points="187.988,-173.206 198.473,-171.682 189.326,-166.335 187.988,-173.206"/>
</g>
<!-- Node6 -->
<g id="node6" class="node"><title>Node6</title>
<g id="a_node6"><a xlink:href="classfwRenderVTK_1_1IAdaptor.html#a46ef60802ac6cd7002a6199512963775" target="_top" xlink:title="notify a render request iff vtkPipeline is modified ">
<polygon fill="white" stroke="black" points="212.5,-73 212.5,-103 333.5,-103 333.5,-73 212.5,-73"/>
<text text-anchor="start" x="220.5" y="-91" font-family="Helvetica,sans-Serif" font-size="10.00">fwRenderVTK::IAdaptor</text>
<text text-anchor="middle" x="273" y="-80" font-family="Helvetica,sans-Serif" font-size="10.00">::requestRender</text>
</a>
</g>
</g>
<!-- Node1&#45;&gt;Node6 -->
<g id="edge5" class="edge"><title>Node1&#45;&gt;Node6</title>
<path fill="none" stroke="midnightblue" d="M128.966,-133.921C155.213,-125.495 188.097,-114.937 215.715,-106.07"/>
<polygon fill="midnightblue" stroke="midnightblue" points="216.794,-109.4 225.245,-103.011 214.654,-102.735 216.794,-109.4"/>
</g>
<!-- Node3 -->
<g id="node3" class="node"><title>Node3</title>
<g id="a_node3"><a xlink:href="classfwRenderVTK_1_1IAdaptor.html#a2865c053e101328ca2cf3ca8306d4d10" target="_top" xlink:title="Returns the renderer. ">
<polygon fill="white" stroke="black" points="384.5,-245 384.5,-275 505.5,-275 505.5,-245 384.5,-245"/>
<text text-anchor="start" x="392.5" y="-263" font-family="Helvetica,sans-Serif" font-size="10.00">fwRenderVTK::IAdaptor</text>
<text text-anchor="middle" x="445" y="-252" font-family="Helvetica,sans-Serif" font-size="10.00">::getRenderer</text>
</a>
</g>
</g>
<!-- Node2&#45;&gt;Node3 -->
<g id="edge2" class="edge"><title>Node2&#45;&gt;Node3</title>
<path fill="none" stroke="midnightblue" d="M307.122,-201.006C328.909,-210.814 358.081,-223.829 384,-235 388.492,-236.936 393.183,-238.933 397.876,-240.915"/>
<polygon fill="midnightblue" stroke="midnightblue" points="396.876,-244.291 407.451,-244.938 399.588,-237.837 396.876,-244.291"/>
</g>
<!-- Node4 -->
<g id="node4" class="node"><title>Node4</title>
<g id="a_node4"><a xlink:href="classfwRenderVTK_1_1IAdaptor.html#a414e3539b8536e37e0c5cc05e7435e97" target="_top" xlink:title="Unregisters all the vtkProp. ">
<polygon fill="white" stroke="black" points="384.5,-196 384.5,-226 505.5,-226 505.5,-196 384.5,-196"/>
<text text-anchor="start" x="392.5" y="-214" font-family="Helvetica,sans-Serif" font-size="10.00">fwRenderVTK::IAdaptor</text>
<text text-anchor="middle" x="445" y="-203" font-family="Helvetica,sans-Serif" font-size="10.00">::unregisterProps</text>
</a>
</g>
</g>
<!-- Node2&#45;&gt;Node4 -->
<g id="edge3" class="edge"><title>Node2&#45;&gt;Node4</title>
<path fill="none" stroke="midnightblue" d="M347.576,-196.82C356.508,-198.134 365.611,-199.472 374.482,-200.777"/>
<polygon fill="midnightblue" stroke="midnightblue" points="373.974,-204.24 384.377,-202.232 374.993,-197.314 373.974,-204.24"/>
</g>
<!-- Node5 -->
<g id="node5" class="node"><title>Node5</title>
<g id="a_node5"><a xlink:href="classfwRenderVTK_1_1IAdaptor.html#a0fd9eb8ee07f2e7d53b27c6bbe8994eb" target="_top" xlink:title="End&#45;user have to call this method when a vtk structure has been modified, thus a render request will ...">
<polygon fill="white" stroke="black" points="384,-147 384,-177 506,-177 506,-147 384,-147"/>
<text text-anchor="start" x="392" y="-165" font-family="Helvetica,sans-Serif" font-size="10.00">fwRenderVTK::IAdaptor</text>
<text text-anchor="middle" x="445" y="-154" font-family="Helvetica,sans-Serif" font-size="10.00">::setVtkPipelineModified</text>
</a>
</g>
</g>
<!-- Node2&#45;&gt;Node5 -->
<g id="edge4" class="edge"><title>Node2&#45;&gt;Node5</title>
<path fill="none" stroke="midnightblue" d="M347.576,-175.613C356.283,-174.384 365.153,-173.131 373.811,-171.909"/>
<polygon fill="midnightblue" stroke="midnightblue" points="374.443,-175.355 383.856,-170.491 373.465,-168.423 374.443,-175.355"/>
</g>
<!-- Node7 -->
<g id="node7" class="node"><title>Node7</title>
<g id="a_node7"><a xlink:href="classfwRenderVTK_1_1IAdaptor.html#a908f43b79c3c619e7e56cd4b5a08dd79" target="_top" xlink:title="Returd the associated render service. ">
<polygon fill="white" stroke="black" points="384.5,-98 384.5,-128 505.5,-128 505.5,-98 384.5,-98"/>
<text text-anchor="start" x="392.5" y="-116" font-family="Helvetica,sans-Serif" font-size="10.00">fwRenderVTK::IAdaptor</text>
<text text-anchor="middle" x="445" y="-105" font-family="Helvetica,sans-Serif" font-size="10.00">::getRenderService</text>
</a>
</g>
</g>
<!-- Node6&#45;&gt;Node7 -->
<g id="edge6" class="edge"><title>Node6&#45;&gt;Node7</title>
<path fill="none" stroke="midnightblue" d="M333.936,-96.8141C346.962,-98.7297 360.85,-100.772 374.22,-102.738"/>
<polygon fill="midnightblue" stroke="midnightblue" points="373.916,-106.231 384.319,-104.223 374.935,-99.3056 373.916,-106.231"/>
</g>
<!-- Node8 -->
<g id="node8" class="node"><title>Node8</title>
<g id="a_node8"><a xlink:href="classfwServices_1_1IService.html#a7284059e3031206537f48fa53a7e89d0" target="_top" xlink:title="Return the global process status. ">
<polygon fill="white" stroke="black" points="391.5,-49 391.5,-79 498.5,-79 498.5,-49 391.5,-49"/>
<text text-anchor="start" x="399.5" y="-67" font-family="Helvetica,sans-Serif" font-size="10.00">fwServices::IService</text>
<text text-anchor="middle" x="445" y="-56" font-family="Helvetica,sans-Serif" font-size="10.00">::getStatus</text>
</a>
</g>
</g>
<!-- Node6&#45;&gt;Node8 -->
<g id="edge7" class="edge"><title>Node6&#45;&gt;Node8</title>
<path fill="none" stroke="midnightblue" d="M333.936,-79.5385C349.305,-77.3687 365.876,-75.0293 381.377,-72.8409"/>
<polygon fill="midnightblue" stroke="midnightblue" points="381.974,-76.2915 391.386,-71.4279 380.995,-69.3602 381.974,-76.2915"/>
</g>
<!-- Node9 -->
<g id="node9" class="node"><title>Node9</title>
<g id="a_node9"><a xlink:href="classfwRenderVTK_1_1IAdaptor.html#a40e8583048160a35d175fdfe6c081881" target="_top" xlink:title="Returns true if the service automatically triggers the rendering. ">
<polygon fill="white" stroke="black" points="384.5,-0 384.5,-30 505.5,-30 505.5,-0 384.5,-0"/>
<text text-anchor="start" x="392.5" y="-18" font-family="Helvetica,sans-Serif" font-size="10.00">fwRenderVTK::IAdaptor</text>
<text text-anchor="middle" x="445" y="-7" font-family="Helvetica,sans-Serif" font-size="10.00">::getAutoRender</text>
</a>
</g>
</g>
<!-- Node6&#45;&gt;Node9 -->
<g id="edge8" class="edge"><title>Node6&#45;&gt;Node9</title>
<path fill="none" stroke="midnightblue" d="M308.125,-72.9345C329.815,-63.4025 358.509,-50.8713 384,-40 388.499,-38.0812 393.195,-36.0955 397.891,-34.1205"/>
<polygon fill="midnightblue" stroke="midnightblue" points="399.6,-37.1995 407.47,-30.1067 396.895,-30.7433 399.6,-37.1995"/>
</g>
</g>
</svg>
