<?xml version="1.0" encoding="UTF-8" standalone="no"?>
<!DOCTYPE svg PUBLIC "-//W3C//DTD SVG 1.1//EN"
 "http://www.w3.org/Graphics/SVG/1.1/DTD/svg11.dtd">
<!-- Generated by graphviz version 2.36.0 (20140111.2315)
 -->
<!-- Title: fwGdcmIO::writer::ie::FrameOfReference::writeFrameOfReferenceModule Pages: 1 -->
<svg width="510pt" height="97pt"
 viewBox="0.00 0.00 510.00 97.00" xmlns="http://www.w3.org/2000/svg" xmlns:xlink="http://www.w3.org/1999/xlink">
<g id="graph0" class="graph" transform="scale(1 1) rotate(0) translate(4 93)">
<title>fwGdcmIO::writer::ie::FrameOfReference::writeFrameOfReferenceModule</title>
<polygon fill="white" stroke="none" points="-4,4 -4,-93 506,-93 506,4 -4,4"/>
<!-- Node1 -->
<g id="node1" class="node"><title>Node1</title>
<polygon fill="#bfbfbf" stroke="black" points="0.5,-26.5 0.5,-67.5 161.5,-67.5 161.5,-26.5 0.5,-26.5"/>
<text text-anchor="start" x="8.5" y="-55.5" font-family="Helvetica,sans-Serif" font-size="10.00">fwGdcmIO::writer::ie</text>
<text text-anchor="start" x="8.5" y="-44.5" font-family="Helvetica,sans-Serif" font-size="10.00">::FrameOfReference::writeFrame</text>
<text text-anchor="middle" x="81" y="-33.5" font-family="Helvetica,sans-Serif" font-size="10.00">OfReferenceModule</text>
</g>
<!-- Node2 -->
<g id="node2" class="node"><title>Node2</title>
<g id="a_node2"><a xlink:href="classfwGdcmIO_1_1writer_1_1iod_1_1CTMRImageIOD.html#a63652a07d233a95fc30b1b0b5f06672f" target="_top" xlink:title="Write DICOM file. ">
<polygon fill="white" stroke="black" points="203,-59 203,-89 327,-89 327,-59 203,-59"/>
<text text-anchor="start" x="211" y="-77" font-family="Helvetica,sans-Serif" font-size="10.00">fwGdcmIO::writer::iod</text>
<text text-anchor="middle" x="265" y="-66" font-family="Helvetica,sans-Serif" font-size="10.00">::CTMRImageIOD::write</text>
</a>
</g>
</g>
<!-- Node1&#45;&gt;Node2 -->
<g id="edge1" class="edge"><title>Node1&#45;&gt;Node2</title>
<path fill="none" stroke="midnightblue" d="M171.685,-60.3049C182.269,-61.8751 192.877,-63.4487 202.935,-64.941"/>
<polygon fill="midnightblue" stroke="midnightblue" points="171.968,-56.8087 161.563,-58.8033 170.941,-63.733 171.968,-56.8087"/>
</g>
<!-- Node4 -->
<g id="node4" class="node"><title>Node4</title>
<g id="a_node4"><a xlink:href="classfwGdcmIO_1_1writer_1_1iod_1_1SurfaceSegmentationIOD.html#a82a0173c024516615a2ef4b5ef987748" target="_top" xlink:title="Write DICOM file. ">
<polygon fill="white" stroke="black" points="198,0.5 198,-40.5 332,-40.5 332,0.5 198,0.5"/>
<text text-anchor="start" x="206" y="-28.5" font-family="Helvetica,sans-Serif" font-size="10.00">fwGdcmIO::writer::iod</text>
<text text-anchor="start" x="206" y="-17.5" font-family="Helvetica,sans-Serif" font-size="10.00">::SurfaceSegmentationIOD</text>
<text text-anchor="middle" x="265" y="-6.5" font-family="Helvetica,sans-Serif" font-size="10.00">::write</text>
</a>
</g>
</g>
<!-- Node1&#45;&gt;Node4 -->
<g id="edge3" class="edge"><title>Node1&#45;&gt;Node4</title>
<path fill="none" stroke="midnightblue" d="M171.572,-33.7119C180.46,-32.3933 189.366,-31.0721 197.951,-29.7986"/>
<polygon fill="midnightblue" stroke="midnightblue" points="170.941,-30.267 161.563,-35.1967 171.968,-37.1913 170.941,-30.267"/>
</g>
<!-- Node3 -->
<g id="node3" class="node"><title>Node3</title>
<g id="a_node3"><a xlink:href="classfwGdcmIO_1_1writer_1_1Series.html#aac90f98a7dc75eac44506ecd4a0310cd" target="_top" xlink:title="Load and start appropriate writing tools. In addition, it creates an adapted folder tree where DICOM ...">
<polygon fill="white" stroke="black" points="371,-56 371,-86 499,-86 499,-56 371,-56"/>
<text text-anchor="start" x="379" y="-74" font-family="Helvetica,sans-Serif" font-size="10.00">fwGdcmIO::writer::Series</text>
<text text-anchor="middle" x="435" y="-63" font-family="Helvetica,sans-Serif" font-size="10.00">::write</text>
</a>
</g>
</g>
<!-- Node2&#45;&gt;Node3 -->
<g id="edge2" class="edge"><title>Node2&#45;&gt;Node3</title>
<path fill="none" stroke="midnightblue" d="M337.287,-72.727C348.471,-72.5273 359.962,-72.3221 370.943,-72.126"/>
<polygon fill="midnightblue" stroke="midnightblue" points="337.063,-69.2304 327.127,-72.9084 337.188,-76.2292 337.063,-69.2304"/>
</g>
<!-- Node4&#45;&gt;Node3 -->
<g id="edge4" class="edge"><title>Node4&#45;&gt;Node3</title>
<path fill="none" stroke="midnightblue" d="M342.238,-43.1438C356.552,-47.489 371.169,-51.9263 384.407,-55.9451"/>
<polygon fill="midnightblue" stroke="midnightblue" points="342.984,-39.7124 332.398,-40.1566 340.95,-46.4105 342.984,-39.7124"/>
</g>
<!-- Node5 -->
<g id="node5" class="node"><title>Node5</title>
<g id="a_node5"><a xlink:href="classfwGdcmIO_1_1writer_1_1SurfaceSegmentation.html#ae75392caaa27f0f8a22bccffbf9ea4f8" target="_top" xlink:title="Load and start appropriate writing tools. ">
<polygon fill="white" stroke="black" points="368,-5 368,-35 502,-35 502,-5 368,-5"/>
<text text-anchor="start" x="376" y="-23" font-family="Helvetica,sans-Serif" font-size="10.00">fwGdcmIO::writer::Surface</text>
<text text-anchor="middle" x="435" y="-12" font-family="Helvetica,sans-Serif" font-size="10.00">Segmentation::write</text>
</a>
</g>
</g>
<!-- Node4&#45;&gt;Node5 -->
<g id="edge5" class="edge"><title>Node4&#45;&gt;Node5</title>
<path fill="none" stroke="midnightblue" d="M342.595,-20C351.013,-20 359.532,-20 367.809,-20"/>
<polygon fill="midnightblue" stroke="midnightblue" points="342.398,-16.5001 332.398,-20 342.398,-23.5001 342.398,-16.5001"/>
</g>
</g>
</svg>
