<?xml version="1.0" encoding="UTF-8" standalone="no"?>
<!DOCTYPE svg PUBLIC "-//W3C//DTD SVG 1.1//EN"
 "http://www.w3.org/Graphics/SVG/1.1/DTD/svg11.dtd">
<!-- Generated by graphviz version 2.36.0 (20140111.2315)
 -->
<!-- Title: fwGui::container::fwContainer Pages: 1 -->
<svg width="154pt" height="276pt"
 viewBox="0.00 0.00 154.00 276.00" xmlns="http://www.w3.org/2000/svg" xmlns:xlink="http://www.w3.org/1999/xlink">
<g id="graph0" class="graph" transform="scale(1 1) rotate(0) translate(4 272)">
<title>fwGui::container::fwContainer</title>
<polygon fill="white" stroke="none" points="-4,4 -4,-272 150,-272 150,4 -4,4"/>
<!-- Node1 -->
<g id="node1" class="node"><title>Node1</title>
<polygon fill="#bfbfbf" stroke="black" points="0,-68.5 0,-87.5 146,-87.5 146,-68.5 0,-68.5"/>
<text text-anchor="middle" x="73" y="-75.5" font-family="Helvetica,sans-Serif" font-size="10.00">fwGui::container::fwContainer</text>
</g>
<!-- Node5 -->
<g id="node5" class="node"><title>Node5</title>
<g id="a_node5"><a xlink:href="classfwGuiQt_1_1container_1_1QtContainer.html" target="_top" xlink:title="Defines the QWidget container for UI. ">
<polygon fill="white" stroke="black" points="24,-1 24,-31 122,-31 122,-1 24,-1"/>
<text text-anchor="start" x="32" y="-19" font-family="Helvetica,sans-Serif" font-size="10.00">fwGuiQt::container</text>
<text text-anchor="middle" x="73" y="-8" font-family="Helvetica,sans-Serif" font-size="10.00">::QtContainer</text>
</a>
</g>
</g>
<!-- Node1&#45;&gt;Node5 -->
<g id="edge4" class="edge"><title>Node1&#45;&gt;Node5</title>
<path fill="none" stroke="midnightblue" d="M73,-58.3707C73,-49.5849 73,-39.2721 73,-31.1408"/>
<polygon fill="midnightblue" stroke="midnightblue" points="69.5001,-58.4034 73,-68.4035 76.5001,-58.4035 69.5001,-58.4034"/>
</g>
<!-- Node2 -->
<g id="node2" class="node"><title>Node2</title>
<g id="a_node2"><a xlink:href="classfwGui_1_1GuiBaseObject.html" target="_top" xlink:title="Base class for all fwGui&#39;s classes. ">
<polygon fill="white" stroke="black" points="16,-124.5 16,-143.5 130,-143.5 130,-124.5 16,-124.5"/>
<text text-anchor="middle" x="73" y="-131.5" font-family="Helvetica,sans-Serif" font-size="10.00">fwGui::GuiBaseObject</text>
</a>
</g>
</g>
<!-- Node2&#45;&gt;Node1 -->
<g id="edge1" class="edge"><title>Node2&#45;&gt;Node1</title>
<path fill="none" stroke="midnightblue" d="M73,-113.805C73,-104.91 73,-94.7798 73,-87.7511"/>
<polygon fill="midnightblue" stroke="midnightblue" points="69.5001,-114.083 73,-124.083 76.5001,-114.083 69.5001,-114.083"/>
</g>
<!-- Node3 -->
<g id="node3" class="node"><title>Node3</title>
<g id="a_node3"><a xlink:href="classfwCore_1_1BaseObject.html" target="_top" xlink:title="Base class for all FW4SPL&#39;s classes. ">
<polygon fill="white" stroke="black" points="20.5,-180.5 20.5,-199.5 125.5,-199.5 125.5,-180.5 20.5,-180.5"/>
<text text-anchor="middle" x="73" y="-187.5" font-family="Helvetica,sans-Serif" font-size="10.00">fwCore::BaseObject</text>
</a>
</g>
</g>
<!-- Node3&#45;&gt;Node2 -->
<g id="edge2" class="edge"><title>Node3&#45;&gt;Node2</title>
<path fill="none" stroke="midnightblue" d="M73,-169.805C73,-160.91 73,-150.78 73,-143.751"/>
<polygon fill="midnightblue" stroke="midnightblue" points="69.5001,-170.083 73,-180.083 76.5001,-170.083 69.5001,-170.083"/>
</g>
<!-- Node4 -->
<g id="node4" class="node"><title>Node4</title>
<polygon fill="white" stroke="#bfbfbf" points="7.5,-237 7.5,-267 138.5,-267 138.5,-237 7.5,-237"/>
<text text-anchor="start" x="15.5" y="-255" font-family="Helvetica,sans-Serif" font-size="10.00">std::enable_shared</text>
<text text-anchor="middle" x="73" y="-244" font-family="Helvetica,sans-Serif" font-size="10.00">_from_this&lt; BaseObject &gt;</text>
</g>
<!-- Node4&#45;&gt;Node3 -->
<g id="edge3" class="edge"><title>Node4&#45;&gt;Node3</title>
<path fill="none" stroke="midnightblue" d="M73,-226.586C73,-217.074 73,-206.786 73,-199.731"/>
<polygon fill="midnightblue" stroke="midnightblue" points="69.5001,-226.781 73,-236.781 76.5001,-226.781 69.5001,-226.781"/>
</g>
</g>
</svg>
