<?xml version="1.0" encoding="UTF-8" standalone="no"?>
<!DOCTYPE svg PUBLIC "-//W3C//DTD SVG 1.1//EN"
 "http://www.w3.org/Graphics/SVG/1.1/DTD/svg11.dtd">
<!-- Generated by graphviz version 2.36.0 (20140111.2315)
 -->
<!-- Title: fwGui::registrar::MenuRegistrar Pages: 1 -->
<!--zoomable 205 -->
<svg id="main" version="1.1" xmlns="http://www.w3.org/2000/svg" xmlns:xlink="http://www.w3.org/1999/xlink" xml:space="preserve" onload="init(evt)">
<style type="text/css"><![CDATA[
.edge:hover path { stroke: red; }
.edge:hover polygon { stroke: red; fill: red; }
]]></style>
<script type="text/javascript"><![CDATA[
var edges = document.getElementsByTagName('g');
if (edges && edges.length) {
  for (var i=0;i<edges.length;i++) {
    if (edges[i].id.substr(0,4)=='edge') {
      edges[i].setAttribute('class','edge');
    }
  }
}
]]></script>
        <defs>
                <circle id="rim" cx="0" cy="0" r="7"/>
                <circle id="rim2" cx="0" cy="0" r="3.5"/>
                <g id="zoomPlus">
                        <use xlink:href="#rim" fill="#404040">
                                <set attributeName="fill" to="#808080" begin="zoomplus.mouseover" end="zoomplus.mouseout"/>
                        </use>
                        <path d="M-4,0h8M0,-4v8" fill="none" stroke="white" stroke-width="1.5" pointer-events="none"/>
                </g>
                <g id="zoomMin">
                        <use xlink:href="#rim" fill="#404040">
                                <set attributeName="fill" to="#808080" begin="zoomminus.mouseover" end="zoomminus.mouseout"/>
                        </use>
                        <path d="M-4,0h8" fill="none" stroke="white" stroke-width="1.5" pointer-events="none"/>
                </g>
                <g id="dirArrow">
                        <path fill="none" stroke="white" stroke-width="1.5" d="M0,-3.0v7 M-2.5,-0.5L0,-3.0L2.5,-0.5"/>
                </g>
               <g id="resetDef">
                       <use xlink:href="#rim2" fill="#404040">
                               <set attributeName="fill" to="#808080" begin="reset.mouseover" end="reset.mouseout"/>
                       </use>
               </g>
        </defs>

<script type="text/javascript">
var viewWidth = 866;
var viewHeight = 205;
var sectionId = 'dynsection-1';
</script>
<script xlink:href="svgpan.js"/>
<svg id="graph" class="graph">
<g id="viewport">
<title>fwGui::registrar::MenuRegistrar</title>
<polygon fill="white" stroke="none" points="-4,4 -4,-201 862,-201 862,4 -4,4"/>
<!-- Node1 -->
<g id="node1" class="node"><title>Node1</title>
<polygon fill="#bfbfbf" stroke="black" points="704.5,-109.5 704.5,-128.5 857.5,-128.5 857.5,-109.5 704.5,-109.5"/>
<text text-anchor="middle" x="781" y="-116.5" font-family="Helvetica,sans-Serif" font-size="10.00">fwGui::registrar::MenuRegistrar</text>
</g>
<!-- Node2 -->
<g id="node2" class="node"><title>Node2</title>
<g id="a_node2"><a xlink:href="classfwGui_1_1GuiBaseObject.html" target="_top" xlink:title="Base class for all fwGui&#39;s classes. ">
<polygon fill="white" stroke="black" points="490,-172.5 490,-191.5 604,-191.5 604,-172.5 490,-172.5"/>
<text text-anchor="middle" x="547" y="-179.5" font-family="Helvetica,sans-Serif" font-size="10.00">fwGui::GuiBaseObject</text>
</a>
</g>
</g>
<!-- Node2&#45;&gt;Node1 -->
<g id="edge1" class="edge"><title>Node2&#45;&gt;Node1</title>
<path fill="none" stroke="midnightblue" d="M614.317,-172.818C637.257,-168.897 662.978,-163.662 686,-157 712.209,-149.416 741.14,-137.085 759.889,-128.536"/>
<polygon fill="midnightblue" stroke="midnightblue" points="613.627,-169.384 604.334,-174.472 614.771,-176.29 613.627,-169.384"/>
</g>
<!-- Node3 -->
<g id="node3" class="node"><title>Node3</title>
<g id="a_node3"><a xlink:href="classfwCore_1_1BaseObject.html" target="_top" xlink:title="Base class for all FW4SPL&#39;s classes. ">
<polygon fill="white" stroke="black" points="212.5,-172.5 212.5,-191.5 317.5,-191.5 317.5,-172.5 212.5,-172.5"/>
<text text-anchor="middle" x="265" y="-179.5" font-family="Helvetica,sans-Serif" font-size="10.00">fwCore::BaseObject</text>
</a>
</g>
</g>
<!-- Node3&#45;&gt;Node2 -->
<g id="edge2" class="edge"><title>Node3&#45;&gt;Node2</title>
<path fill="none" stroke="midnightblue" d="M327.717,-182C376.111,-182 442.898,-182 489.813,-182"/>
<polygon fill="midnightblue" stroke="midnightblue" points="327.683,-178.5 317.683,-182 327.683,-185.5 327.683,-178.5"/>
</g>
<!-- Node4 -->
<g id="node4" class="node"><title>Node4</title>
<polygon fill="white" stroke="#bfbfbf" points="0.5,-167 0.5,-197 131.5,-197 131.5,-167 0.5,-167"/>
<text text-anchor="start" x="8.5" y="-185" font-family="Helvetica,sans-Serif" font-size="10.00">std::enable_shared</text>
<text text-anchor="middle" x="66" y="-174" font-family="Helvetica,sans-Serif" font-size="10.00">_from_this&lt; BaseObject &gt;</text>
</g>
<!-- Node4&#45;&gt;Node3 -->
<g id="edge3" class="edge"><title>Node4&#45;&gt;Node3</title>
<path fill="none" stroke="midnightblue" d="M141.507,-182C165.165,-182 190.79,-182 212.458,-182"/>
<polygon fill="midnightblue" stroke="midnightblue" points="141.505,-178.5 131.505,-182 141.505,-185.5 141.505,-178.5"/>
</g>
<!-- Node5 -->
<g id="node5" class="node"><title>Node5</title>
<polygon fill="white" stroke="#bfbfbf" points="492,-65.5 492,-106.5 602,-106.5 602,-65.5 492,-65.5"/>
<text text-anchor="start" x="500" y="-94.5" font-family="Helvetica,sans-Serif" font-size="10.00">std::map&lt; std::string,</text>
<text text-anchor="start" x="500" y="-83.5" font-family="Helvetica,sans-Serif" font-size="10.00"> std::pair&lt; unsigned</text>
<text text-anchor="middle" x="547" y="-72.5" font-family="Helvetica,sans-Serif" font-size="10.00"> int, bool &gt; &gt;</text>
</g>
<!-- Node5&#45;&gt;Node1 -->
<g id="edge4" class="edge"><title>Node5&#45;&gt;Node1</title>
<path fill="none" stroke="#9a32cd" stroke-dasharray="5,2" d="M612.046,-95.11C643.416,-99.5721 681.176,-104.943 712.94,-109.461"/>
<polygon fill="#9a32cd" stroke="#9a32cd" points="612.494,-91.6386 602.101,-93.6954 611.508,-98.5688 612.494,-91.6386"/>
<text text-anchor="middle" x="654" y="-120" font-family="Helvetica,sans-Serif" font-size="10.00"> m_actionSids</text>
<text text-anchor="middle" x="654" y="-109" font-family="Helvetica,sans-Serif" font-size="10.00">m_menuSids</text>
</g>
<!-- Node6 -->
<g id="node6" class="node"><title>Node6</title>
<g id="a_node6"><a xlink:title="STL class. ">
<polygon fill="white" stroke="#bfbfbf" points="235,-121.5 235,-140.5 295,-140.5 295,-121.5 235,-121.5"/>
<text text-anchor="middle" x="265" y="-128.5" font-family="Helvetica,sans-Serif" font-size="10.00">std::string</text>
</a>
</g>
</g>
<!-- Node6&#45;&gt;Node1 -->
<g id="edge10" class="edge"><title>Node6&#45;&gt;Node1</title>
<path fill="none" stroke="#9a32cd" stroke-dasharray="5,2" d="M305.351,-132.139C379.762,-133.998 546.173,-136.751 686,-129 691.981,-128.668 698.167,-128.228 704.379,-127.717"/>
<polygon fill="#9a32cd" stroke="#9a32cd" points="305.142,-128.632 295.054,-131.872 304.961,-135.63 305.142,-128.632"/>
<text text-anchor="middle" x="547" y="-138" font-family="Helvetica,sans-Serif" font-size="10.00"> m_sid</text>
</g>
<!-- Node6&#45;&gt;Node5 -->
<g id="edge5" class="edge"><title>Node6&#45;&gt;Node5</title>
<path fill="none" stroke="#9a32cd" stroke-dasharray="5,2" d="M305.336,-123.463C315.327,-121.613 326.05,-119.682 336,-118 388.909,-109.058 449.512,-99.9437 491.972,-93.7413"/>
<polygon fill="#9a32cd" stroke="#9a32cd" points="304.439,-120.07 295.252,-125.349 305.725,-126.951 304.439,-120.07"/>
<text text-anchor="middle" x="404" y="-121" font-family="Helvetica,sans-Serif" font-size="10.00"> keys</text>
</g>
<!-- Node7 -->
<g id="node7" class="node"><title>Node7</title>
<g id="a_node7"><a xlink:title="STL class. ">
<polygon fill="white" stroke="#bfbfbf" points="18.5,-116 18.5,-146 113.5,-146 113.5,-116 18.5,-116"/>
<text text-anchor="start" x="26.5" y="-134" font-family="Helvetica,sans-Serif" font-size="10.00">std::basic_string&lt;</text>
<text text-anchor="middle" x="66" y="-123" font-family="Helvetica,sans-Serif" font-size="10.00"> char &gt;</text>
</a>
</g>
</g>
<!-- Node7&#45;&gt;Node6 -->
<g id="edge6" class="edge"><title>Node7&#45;&gt;Node6</title>
<path fill="none" stroke="midnightblue" d="M124.122,-131C160.345,-131 205.693,-131 234.756,-131"/>
<polygon fill="midnightblue" stroke="midnightblue" points="123.686,-127.5 113.686,-131 123.686,-134.5 123.686,-127.5"/>
</g>
<!-- Node8 -->
<g id="node8" class="node"><title>Node8</title>
<g id="a_node8"><a xlink:title="STL class. ">
<polygon fill="white" stroke="#bfbfbf" points="219,-51.5 219,-70.5 311,-70.5 311,-51.5 219,-51.5"/>
<text text-anchor="middle" x="265" y="-58.5" font-family="Helvetica,sans-Serif" font-size="10.00">std::map&lt; K, T &gt;</text>
</a>
</g>
</g>
<!-- Node8&#45;&gt;Node5 -->
<g id="edge7" class="edge"><title>Node8&#45;&gt;Node5</title>
<path fill="none" stroke="orange" stroke-dasharray="5,2" d="M321.557,-56.6674C363.233,-54.5278 421.543,-53.8967 472,-62 478.534,-63.0494 485.278,-64.5763 491.912,-66.3595"/>
<polygon fill="orange" stroke="orange" points="321.124,-53.1861 311.335,-57.2395 321.515,-60.1752 321.124,-53.1861"/>
<text text-anchor="start" x="360.5" y="-87" font-family="Helvetica,sans-Serif" font-size="10.00"> &lt; std::string, std</text>
<text text-anchor="start" x="360.5" y="-76" font-family="Helvetica,sans-Serif" font-size="10.00">::pair&lt; unsigned int,</text>
<text text-anchor="middle" x="404" y="-65" font-family="Helvetica,sans-Serif" font-size="10.00"> bool &gt; &gt;</text>
</g>
<!-- Node9 -->
<g id="node9" class="node"><title>Node9</title>
<polygon fill="white" stroke="#bfbfbf" points="51.5,-74.5 51.5,-93.5 80.5,-93.5 80.5,-74.5 51.5,-74.5"/>
<text text-anchor="middle" x="66" y="-81.5" font-family="Helvetica,sans-Serif" font-size="10.00">K</text>
</g>
<!-- Node9&#45;&gt;Node8 -->
<g id="edge8" class="edge"><title>Node9&#45;&gt;Node8</title>
<path fill="none" stroke="#9a32cd" stroke-dasharray="5,2" d="M90.6103,-81.2435C122.236,-77.5511 178.994,-70.9246 218.937,-66.2611"/>
<polygon fill="#9a32cd" stroke="#9a32cd" points="90.0672,-77.783 80.5406,-82.4191 90.879,-84.7358 90.0672,-77.783"/>
<text text-anchor="middle" x="172" y="-77" font-family="Helvetica,sans-Serif" font-size="10.00"> keys</text>
</g>
<!-- Node10 -->
<g id="node10" class="node"><title>Node10</title>
<polygon fill="white" stroke="#bfbfbf" points="51.5,-21.5 51.5,-40.5 80.5,-40.5 80.5,-21.5 51.5,-21.5"/>
<text text-anchor="middle" x="66" y="-28.5" font-family="Helvetica,sans-Serif" font-size="10.00">T</text>
</g>
<!-- Node10&#45;&gt;Node8 -->
<g id="edge9" class="edge"><title>Node10&#45;&gt;Node8</title>
<path fill="none" stroke="#9a32cd" stroke-dasharray="5,2" d="M90.6103,-34.5955C122.236,-39.4116 178.994,-48.0549 218.937,-54.1377"/>
<polygon fill="#9a32cd" stroke="#9a32cd" points="90.9536,-31.1075 80.5406,-33.062 89.8997,-38.0277 90.9536,-31.1075"/>
<text text-anchor="middle" x="172" y="-53" font-family="Helvetica,sans-Serif" font-size="10.00"> elements</text>
</g>
<!-- Node12 -->
<g id="node12" class="node"><title>Node12</title>
<g id="a_node12"><a xlink:title="STL class. ">
<polygon fill="white" stroke="#bfbfbf" points="221.5,-6.5 221.5,-25.5 308.5,-25.5 308.5,-6.5 221.5,-6.5"/>
<text text-anchor="middle" x="265" y="-13.5" font-family="Helvetica,sans-Serif" font-size="10.00">std::vector&lt; T &gt;</text>
</a>
</g>
</g>
<!-- Node10&#45;&gt;Node12 -->
<g id="edge13" class="edge"><title>Node10&#45;&gt;Node12</title>
<path fill="none" stroke="#9a32cd" stroke-dasharray="5,2" d="M90.6156,-25.9921C107.155,-22.737 129.819,-18.7792 150,-17 173.561,-14.9228 199.966,-14.567 221.426,-14.7781"/>
<polygon fill="#9a32cd" stroke="#9a32cd" points="89.8232,-22.5815 80.7187,-27.9997 91.2149,-29.4418 89.8232,-22.5815"/>
<text text-anchor="middle" x="172" y="-20" font-family="Helvetica,sans-Serif" font-size="10.00"> elements</text>
</g>
<!-- Node11 -->
<g id="node11" class="node"><title>Node11</title>
<polygon fill="white" stroke="#bfbfbf" points="490.5,-0.5 490.5,-41.5 603.5,-41.5 603.5,-0.5 490.5,-0.5"/>
<text text-anchor="start" x="498.5" y="-29.5" font-family="Helvetica,sans-Serif" font-size="10.00">std::vector&lt; ::fwGui</text>
<text text-anchor="start" x="498.5" y="-18.5" font-family="Helvetica,sans-Serif" font-size="10.00">::IMenuItemCallback::</text>
<text text-anchor="middle" x="547" y="-7.5" font-family="Helvetica,sans-Serif" font-size="10.00">sptr &gt;</text>
</g>
<!-- Node11&#45;&gt;Node1 -->
<g id="edge11" class="edge"><title>Node11&#45;&gt;Node1</title>
<path fill="none" stroke="#9a32cd" stroke-dasharray="5,2" d="M605.874,-45.4467C654.935,-66.1708 722.703,-94.7968 757.455,-109.477"/>
<polygon fill="#9a32cd" stroke="#9a32cd" points="607.209,-42.2111 596.635,-41.544 604.485,-48.6594 607.209,-42.2111"/>
<text text-anchor="middle" x="654" y="-82" font-family="Helvetica,sans-Serif" font-size="10.00"> m_callbacks</text>
</g>
<!-- Node12&#45;&gt;Node11 -->
<g id="edge12" class="edge"><title>Node12&#45;&gt;Node11</title>
<path fill="none" stroke="orange" stroke-dasharray="5,2" d="M318.801,-15.5429C360.424,-15.3549 419.93,-15.4672 472,-17 477.916,-17.1741 484.095,-17.4148 490.252,-17.6926"/>
<polygon fill="orange" stroke="orange" points="318.601,-12.0438 308.62,-15.5965 318.638,-19.0437 318.601,-12.0438"/>
<text text-anchor="start" x="336.5" y="-31" font-family="Helvetica,sans-Serif" font-size="10.00"> &lt; ::fwGui::IMenuItemCallback</text>
<text text-anchor="middle" x="404" y="-20" font-family="Helvetica,sans-Serif" font-size="10.00">::sptr &gt;</text>
</g>
</g>
</svg>
        <g id="navigator" transform="translate(0 0)" fill="#404254">
                <rect fill="#f2f5e9" fill-opacity="0.5" stroke="#606060" stroke-width=".5" x="0" y="0" width="60" height="60"/>
                <use id="zoomplus" xlink:href="#zoomPlus" x="17" y="9" onmousedown="handleZoom(evt,'in')"/>
                <use id="zoomminus" xlink:href="#zoomMin" x="42" y="9" onmousedown="handleZoom(evt,'out')"/>
                <use id="reset" xlink:href="#resetDef" x="30" y="36" onmousedown="handleReset()"/>
                <g id="arrowUp" xlink:href="#dirArrow" transform="translate(30 24)" onmousedown="handlePan(0,-1)">
                  <use xlink:href="#rim" fill="#404040">
                        <set attributeName="fill" to="#808080" begin="arrowUp.mouseover" end="arrowUp.mouseout"/>
                  </use>
                  <path fill="none" stroke="white" stroke-width="1.5" d="M0,-3.0v7 M-2.5,-0.5L0,-3.0L2.5,-0.5"/>
                </g>
                <g id="arrowRight" xlink:href="#dirArrow" transform="rotate(90) translate(36 -43)" onmousedown="handlePan(1,0)">
                  <use xlink:href="#rim" fill="#404040">
                        <set attributeName="fill" to="#808080" begin="arrowRight.mouseover" end="arrowRight.mouseout"/>
                  </use>
                  <path fill="none" stroke="white" stroke-width="1.5" d="M0,-3.0v7 M-2.5,-0.5L0,-3.0L2.5,-0.5"/>
                </g>
                <g id="arrowDown" xlink:href="#dirArrow" transform="rotate(180) translate(-30 -48)" onmousedown="handlePan(0,1)">
                  <use xlink:href="#rim" fill="#404040">
                        <set attributeName="fill" to="#808080" begin="arrowDown.mouseover" end="arrowDown.mouseout"/>
                  </use>
                  <path fill="none" stroke="white" stroke-width="1.5" d="M0,-3.0v7 M-2.5,-0.5L0,-3.0L2.5,-0.5"/>
                </g>
                <g id="arrowLeft" xlink:href="#dirArrow" transform="rotate(270) translate(-36 17)" onmousedown="handlePan(-1,0)">
                  <use xlink:href="#rim" fill="#404040">
                        <set attributeName="fill" to="#808080" begin="arrowLeft.mouseover" end="arrowLeft.mouseout"/>
                  </use>
                  <path fill="none" stroke="white" stroke-width="1.5" d="M0,-3.0v7 M-2.5,-0.5L0,-3.0L2.5,-0.5"/>
                </g>
        </g>
        <svg viewBox="0 0 15 15" width="100%" height="30px" preserveAspectRatio="xMaxYMin meet">
         <g id="arrow_out" transform="scale(0.3 0.3)">
          <a xlink:href="classfwGui_1_1registrar_1_1MenuRegistrar__coll__graph_org.svg" target="_base">
           <rect id="button" ry="5" rx="5" y="6" x="6" height="38" width="38"
                fill="#f2f5e9" fill-opacity="0.5" stroke="#606060" stroke-width="1.0"/>
           <path id="arrow"
             d="M 11.500037,31.436501 C 11.940474,20.09759 22.043105,11.32322 32.158766,21.979434 L 37.068811,17.246167 C 37.068811,17.246167 37.088388,32 37.088388,32 L 22.160133,31.978069 C 22.160133,31.978069 26.997745,27.140456 26.997745,27.140456 C 18.528582,18.264221 13.291696,25.230495 11.500037,31.436501 z"
             style="fill:#404040;"/>
          </a>
         </g>
        </svg>
</svg>
