<?xml version="1.0" encoding="UTF-8" standalone="no"?>
<!DOCTYPE svg PUBLIC "-//W3C//DTD SVG 1.1//EN"
 "http://www.w3.org/Graphics/SVG/1.1/DTD/svg11.dtd">
<!-- Generated by graphviz version 2.26.3 (20100126.1600)
 -->
<!-- Title: fwGdcmIO::container::sr::DicomSRSCoordNode::write Pages: 1 -->
<!--zoomable 259 -->
<svg id="main" version="1.1" xmlns="http://www.w3.org/2000/svg" xmlns:xlink="http://www.w3.org/1999/xlink" xml:space="preserve" onload="init(evt)">
<style type="text/css"><![CDATA[
.edge:hover path { stroke: red; }
.edge:hover polygon { stroke: red; fill: red; }
]]></style>
<script type="text/javascript"><![CDATA[
var edges = document.getElementsByTagName('g');
if (edges && edges.length) {
  for (var i=0;i<edges.length;i++) {
    if (edges[i].id.substr(0,4)=='edge') {
      edges[i].setAttribute('class','edge');
    }
  }
}
]]></script>
        <defs>
                <circle id="rim" cx="0" cy="0" r="7"/>
                <circle id="rim2" cx="0" cy="0" r="3.5"/>
                <g id="zoomPlus">
                        <use xlink:href="#rim" fill="#404040">
                                <set attributeName="fill" to="#808080" begin="zoomplus.mouseover" end="zoomplus.mouseout"/>
                        </use>
                        <path d="M-4,0h8M0,-4v8" fill="none" stroke="white" stroke-width="1.5" pointer-events="none"/>
                </g>
                <g id="zoomMin">
                        <use xlink:href="#rim" fill="#404040">
                                <set attributeName="fill" to="#808080" begin="zoomminus.mouseover" end="zoomminus.mouseout"/>
                        </use>
                        <path d="M-4,0h8" fill="none" stroke="white" stroke-width="1.5" pointer-events="none"/>
                </g>
                <g id="dirArrow">
                        <path fill="none" stroke="white" stroke-width="1.5" d="M0,-3.0v7 M-2.5,-0.5L0,-3.0L2.5,-0.5"/>
                </g>
               <g id="resetDef">
                       <use xlink:href="#rim2" fill="#404040">
                               <set attributeName="fill" to="#808080" begin="reset.mouseover" end="reset.mouseout"/>
                       </use>
               </g>
        </defs>

<script type="text/javascript">
var viewWidth = 706;
var viewHeight = 259;
var sectionId = 'dynsection-2';
</script>
<script xlink:href="svgpan.js"/>
<svg id="graph" class="graph">
<g id="viewport">
<title>fwGdcmIO::container::sr::DicomSRSCoordNode::write</title>
<polygon fill="white" stroke="white" points="-4,5 -4,-255 703,-255 703,5 -4,5"/>
<!-- Node1 -->
<g id="node1" class="node"><title>Node1</title>
<polygon fill="#bfbfbf" stroke="black" points="0,-78.5 0,-125.5 136,-125.5 136,-78.5 0,-78.5"/>
<text text-anchor="start" x="8" y="-112.5" font-family="Helvetica,sans-Serif" font-size="10.00">fwGdcmIO::container</text>
<text text-anchor="start" x="8" y="-99.5" font-family="Helvetica,sans-Serif" font-size="10.00">::sr::DicomSRSCoordNode</text>
<text text-anchor="middle" x="68" y="-86.5" font-family="Helvetica,sans-Serif" font-size="10.00">::write</text>
</g>
<!-- Node2 -->
<g id="node3" class="node"><title>Node2</title>
<a xlink:href="classfwGdcmIO_1_1container_1_1sr_1_1DicomSRNode.html#acfec19097b1797c2c3f8f98dad0e03b5" target="_top" xlink:title="Write the SR node in the dataset. ">
<polygon fill="white" stroke="black" points="172,-85 172,-119 302,-119 302,-85 172,-85"/>
<text text-anchor="start" x="180" y="-106" font-family="Helvetica,sans-Serif" font-size="10.00">fwGdcmIO::container</text>
<text text-anchor="middle" x="237" y="-93" font-family="Helvetica,sans-Serif" font-size="10.00">::sr::DicomSRNode::write</text>
</a>
</g>
<!-- Node1&#45;&gt;Node2 -->
<g id="edge2" class="edge"><title>Node1&#45;&gt;Node2</title>
<path fill="none" stroke="midnightblue" d="M136.252,-102C144.588,-102 153.144,-102 161.577,-102"/>
<polygon fill="midnightblue" stroke="midnightblue" points="161.781,-105.5 171.781,-102 161.781,-98.5001 161.781,-105.5"/>
</g>
<!-- Node3 -->
<g id="node5" class="node"><title>Node3</title>
<a xlink:href="classfwGdcmIO_1_1container_1_1sr_1_1DicomSRNode.html#a0e06231f63ef46b4ed423b01ed70a42e" target="_top" xlink:title="Create a concept name code sequence. ">
<polygon fill="white" stroke="black" points="338.5,-104.5 338.5,-151.5 511.5,-151.5 511.5,-104.5 338.5,-104.5"/>
<text text-anchor="start" x="346.5" y="-138.5" font-family="Helvetica,sans-Serif" font-size="10.00">fwGdcmIO::container</text>
<text text-anchor="start" x="346.5" y="-125.5" font-family="Helvetica,sans-Serif" font-size="10.00">::sr::DicomSRNode::createConcept</text>
<text text-anchor="middle" x="425" y="-112.5" font-family="Helvetica,sans-Serif" font-size="10.00">NameCodeSequence</text>
</a>
</g>
<!-- Node2&#45;&gt;Node3 -->
<g id="edge4" class="edge"><title>Node2&#45;&gt;Node3</title>
<path fill="none" stroke="midnightblue" d="M302.226,-111.021C310.702,-112.193 319.523,-113.413 328.375,-114.637"/>
<polygon fill="midnightblue" stroke="midnightblue" points="327.981,-118.116 338.366,-116.019 328.94,-111.182 327.981,-118.116"/>
</g>
<!-- Node5 -->
<g id="node9" class="node"><title>Node5</title>
<a xlink:href="classfwGdcmIO_1_1container_1_1DicomCodedAttribute.html#a3a33360c5dde51422363f97e705b7cc8" target="_top" xlink:title="Get code value. ">
<polygon fill="white" stroke="black" points="565,-203.5 565,-250.5 681,-250.5 681,-203.5 565,-203.5"/>
<text text-anchor="start" x="573" y="-237.5" font-family="Helvetica,sans-Serif" font-size="10.00">fwGdcmIO::container</text>
<text text-anchor="start" x="573" y="-224.5" font-family="Helvetica,sans-Serif" font-size="10.00">::DicomCodedAttribute</text>
<text text-anchor="middle" x="623" y="-211.5" font-family="Helvetica,sans-Serif" font-size="10.00">::getCodeValue</text>
</a>
</g>
<!-- Node2&#45;&gt;Node5 -->
<g id="edge14" class="edge"><title>Node2&#45;&gt;Node5</title>
<path fill="none" stroke="midnightblue" d="M261.656,-119.256C281.47,-132.403 310.446,-150.054 338,-161 409.503,-189.404 496.179,-207.303 555.033,-217.183"/>
<polygon fill="midnightblue" stroke="midnightblue" points="554.524,-220.646 564.96,-218.818 555.661,-213.74 554.524,-220.646"/>
</g>
<!-- Node6 -->
<g id="node11" class="node"><title>Node6</title>
<a xlink:href="classfwGdcmIO_1_1container_1_1DicomCodedAttribute.html#a10d7bee78cea42befa204e40f9e28a53" target="_top" xlink:title="Get coding scheme designator. ">
<polygon fill="white" stroke="black" points="548,-5.5 548,-52.5 698,-52.5 698,-5.5 548,-5.5"/>
<text text-anchor="start" x="556" y="-39.5" font-family="Helvetica,sans-Serif" font-size="10.00">fwGdcmIO::container</text>
<text text-anchor="start" x="556" y="-26.5" font-family="Helvetica,sans-Serif" font-size="10.00">::DicomCodedAttribute</text>
<text text-anchor="middle" x="623" y="-13.5" font-family="Helvetica,sans-Serif" font-size="10.00">::getCodingSchemeDesignator</text>
</a>
</g>
<!-- Node2&#45;&gt;Node6 -->
<g id="edge16" class="edge"><title>Node2&#45;&gt;Node6</title>
<path fill="none" stroke="midnightblue" d="M302.018,-92.951C357.923,-84.7912 440.592,-71.821 512,-57 520.483,-55.2393 529.296,-53.2663 538.08,-51.2043"/>
<polygon fill="midnightblue" stroke="midnightblue" points="539.052,-54.5708 547.967,-48.8451 537.427,-47.7619 539.052,-54.5708"/>
</g>
<!-- Node8 -->
<g id="node17" class="node"><title>Node8</title>
<a xlink:href="classfwGdcmIO_1_1container_1_1sr_1_1DicomSRNode.html#a0bdc68a423edf388811bcc5966595cf0" target="_top" xlink:title="Write a content sequence. ">
<polygon fill="white" stroke="black" points="343,-0.5 343,-47.5 507,-47.5 507,-0.5 343,-0.5"/>
<text text-anchor="start" x="351" y="-34.5" font-family="Helvetica,sans-Serif" font-size="10.00">fwGdcmIO::container</text>
<text text-anchor="start" x="351" y="-21.5" font-family="Helvetica,sans-Serif" font-size="10.00">::sr::DicomSRNode::writeContent</text>
<text text-anchor="middle" x="425" y="-8.5" font-family="Helvetica,sans-Serif" font-size="10.00">Sequence</text>
</a>
</g>
<!-- Node2&#45;&gt;Node8 -->
<g id="edge18" class="edge"><title>Node2&#45;&gt;Node8</title>
<path fill="none" stroke="midnightblue" d="M278.257,-84.8826C301.849,-75.0945 331.994,-62.5874 358.818,-51.4584"/>
<polygon fill="midnightblue" stroke="midnightblue" points="360.256,-54.6512 368.151,-47.5861 357.574,-48.1856 360.256,-54.6512"/>
</g>
<!-- Node4 -->
<g id="node7" class="node"><title>Node4</title>
<a xlink:href="classfwGdcmIO_1_1container_1_1DicomCodedAttribute.html#afd0040d47cf04078289ebb94f6473edc" target="_top" xlink:title="Get code meaning. ">
<polygon fill="white" stroke="black" points="565,-137.5 565,-184.5 681,-184.5 681,-137.5 565,-137.5"/>
<text text-anchor="start" x="573" y="-171.5" font-family="Helvetica,sans-Serif" font-size="10.00">fwGdcmIO::container</text>
<text text-anchor="start" x="573" y="-158.5" font-family="Helvetica,sans-Serif" font-size="10.00">::DicomCodedAttribute</text>
<text text-anchor="middle" x="623" y="-145.5" font-family="Helvetica,sans-Serif" font-size="10.00">::getCodeMeaning</text>
</a>
</g>
<!-- Node3&#45;&gt;Node4 -->
<g id="edge6" class="edge"><title>Node3&#45;&gt;Node4</title>
<path fill="none" stroke="midnightblue" d="M511.558,-142.426C526.044,-144.841 540.891,-147.315 554.833,-149.639"/>
<polygon fill="midnightblue" stroke="midnightblue" points="554.366,-153.109 564.806,-151.301 555.517,-146.205 554.366,-153.109"/>
</g>
<!-- Node3&#45;&gt;Node5 -->
<g id="edge8" class="edge"><title>Node3&#45;&gt;Node5</title>
<path fill="none" stroke="midnightblue" d="M466.988,-151.579C490.566,-164.553 520.66,-180.675 548,-194 551.497,-195.704 555.102,-197.421 558.753,-199.128"/>
<polygon fill="midnightblue" stroke="midnightblue" points="557.339,-202.33 567.886,-203.338 560.27,-195.973 557.339,-202.33"/>
</g>
<!-- Node3&#45;&gt;Node6 -->
<g id="edge10" class="edge"><title>Node3&#45;&gt;Node6</title>
<path fill="none" stroke="midnightblue" d="M484.493,-104.388C493.895,-99.9854 503.358,-95.1383 512,-90 529.423,-79.6408 530.591,-72.3827 548,-62 550.663,-60.4117 553.416,-58.8547 556.225,-57.3351"/>
<polygon fill="midnightblue" stroke="midnightblue" points="558.07,-60.3214 565.342,-52.6168 554.853,-54.1046 558.07,-60.3214"/>
</g>
<!-- Node7 -->
<g id="node13" class="node"><title>Node7</title>
<a xlink:href="classfwGdcmIO_1_1container_1_1DicomCodedAttribute.html#a4a5c4036825acef2e9fd18936365fc45" target="_top" xlink:title="Get coding scheme version. ">
<polygon fill="white" stroke="black" points="555,-71.5 555,-118.5 691,-118.5 691,-71.5 555,-71.5"/>
<text text-anchor="start" x="563" y="-105.5" font-family="Helvetica,sans-Serif" font-size="10.00">fwGdcmIO::container</text>
<text text-anchor="start" x="563" y="-92.5" font-family="Helvetica,sans-Serif" font-size="10.00">::DicomCodedAttribute</text>
<text text-anchor="middle" x="623" y="-79.5" font-family="Helvetica,sans-Serif" font-size="10.00">::getCodingSchemeVersion</text>
</a>
</g>
<!-- Node3&#45;&gt;Node7 -->
<g id="edge12" class="edge"><title>Node3&#45;&gt;Node7</title>
<path fill="none" stroke="midnightblue" d="M511.558,-113.574C522.632,-111.728 533.917,-109.847 544.847,-108.025"/>
<polygon fill="midnightblue" stroke="midnightblue" points="545.481,-111.468 554.769,-106.372 544.33,-104.563 545.481,-111.468"/>
</g>
</g>
</svg>
        <g id="navigator" transform="translate(0 0)" fill="#404254">
                <rect fill="#f2f5e9" fill-opacity="0.5" stroke="#606060" stroke-width=".5" x="0" y="0" width="60" height="60"/>
                <use id="zoomplus" xlink:href="#zoomPlus" x="17" y="9" onmousedown="handleZoom(evt,'in')"/>
                <use id="zoomminus" xlink:href="#zoomMin" x="42" y="9" onmousedown="handleZoom(evt,'out')"/>
                <use id="reset" xlink:href="#resetDef" x="30" y="36" onmousedown="handleReset()"/>
                <g id="arrowUp" xlink:href="#dirArrow" transform="translate(30 24)" onmousedown="handlePan(0,-1)">
                  <use xlink:href="#rim" fill="#404040">
                        <set attributeName="fill" to="#808080" begin="arrowUp.mouseover" end="arrowUp.mouseout"/>
                  </use>
                  <path fill="none" stroke="white" stroke-width="1.5" d="M0,-3.0v7 M-2.5,-0.5L0,-3.0L2.5,-0.5"/>
                </g>
                <g id="arrowRight" xlink:href="#dirArrow" transform="rotate(90) translate(36 -43)" onmousedown="handlePan(1,0)">
                  <use xlink:href="#rim" fill="#404040">
                        <set attributeName="fill" to="#808080" begin="arrowRight.mouseover" end="arrowRight.mouseout"/>
                  </use>
                  <path fill="none" stroke="white" stroke-width="1.5" d="M0,-3.0v7 M-2.5,-0.5L0,-3.0L2.5,-0.5"/>
                </g>
                <g id="arrowDown" xlink:href="#dirArrow" transform="rotate(180) translate(-30 -48)" onmousedown="handlePan(0,1)">
                  <use xlink:href="#rim" fill="#404040">
                        <set attributeName="fill" to="#808080" begin="arrowDown.mouseover" end="arrowDown.mouseout"/>
                  </use>
                  <path fill="none" stroke="white" stroke-width="1.5" d="M0,-3.0v7 M-2.5,-0.5L0,-3.0L2.5,-0.5"/>
                </g>
                <g id="arrowLeft" xlink:href="#dirArrow" transform="rotate(270) translate(-36 17)" onmousedown="handlePan(-1,0)">
                  <use xlink:href="#rim" fill="#404040">
                        <set attributeName="fill" to="#808080" begin="arrowLeft.mouseover" end="arrowLeft.mouseout"/>
                  </use>
                  <path fill="none" stroke="white" stroke-width="1.5" d="M0,-3.0v7 M-2.5,-0.5L0,-3.0L2.5,-0.5"/>
                </g>
        </g>
        <svg viewBox="0 0 15 15" width="100%" height="30px" preserveAspectRatio="xMaxYMin meet">
         <g id="arrow_out" transform="scale(0.3 0.3)">
          <a xlink:href="classfwGdcmIO_1_1container_1_1sr_1_1DicomSRSCoordNode_a840f5b842ea56b6e2c9dd0dfce7aaa90_cgraph_org.svg" target="_base">
           <rect id="button" ry="5" rx="5" y="6" x="6" height="38" width="38"
                fill="#f2f5e9" fill-opacity="0.5" stroke="#606060" stroke-width="1.0"/>
           <path id="arrow"
             d="M 11.500037,31.436501 C 11.940474,20.09759 22.043105,11.32322 32.158766,21.979434 L 37.068811,17.246167 C 37.068811,17.246167 37.088388,32 37.088388,32 L 22.160133,31.978069 C 22.160133,31.978069 26.997745,27.140456 26.997745,27.140456 C 18.528582,18.264221 13.291696,25.230495 11.500037,31.436501 z"
             style="fill:#404040;"/>
          </a>
         </g>
        </svg>
</svg>
