<?xml version="1.0" encoding="UTF-8" standalone="no"?>
<!DOCTYPE svg PUBLIC "-//W3C//DTD SVG 1.1//EN"
 "http://www.w3.org/Graphics/SVG/1.1/DTD/svg11.dtd">
<!-- Generated by graphviz version 2.26.3 (20100126.1600)
 -->
<!-- Title: fwServices::registry::ObjectService Pages: 1 -->
<svg width="374pt" height="470pt"
 viewBox="0.00 0.00 374.00 470.00" xmlns="http://www.w3.org/2000/svg" xmlns:xlink="http://www.w3.org/1999/xlink">
<g id="graph1" class="graph" transform="scale(1 1) rotate(0) translate(4 466)">
<title>fwServices::registry::ObjectService</title>
<polygon fill="white" stroke="white" points="-4,5 -4,-466 371,-466 371,5 -4,5"/>
<!-- Node1 -->
<g id="node1" class="node"><title>Node1</title>
<polygon fill="#bfbfbf" stroke="black" points="138,-1 138,-35 242,-35 242,-1 138,-1"/>
<text text-anchor="start" x="146" y="-22" font-family="Helvetica,sans-Serif" font-size="10.00">fwServices::registry</text>
<text text-anchor="middle" x="190" y="-9" font-family="Helvetica,sans-Serif" font-size="10.00">::ObjectService</text>
</g>
<!-- Node2 -->
<g id="node2" class="node"><title>Node2</title>
<a xlink:href="classfwCore_1_1BaseObject.html" target="_top" xlink:title="Base class for all FW4SPL&#39;s classes. ">
<polygon fill="white" stroke="black" points="13.5,-98.5 13.5,-119.5 118.5,-119.5 118.5,-98.5 13.5,-98.5"/>
<text text-anchor="middle" x="66" y="-106.5" font-family="Helvetica,sans-Serif" font-size="10.00">fwCore::BaseObject</text>
</a>
</g>
<!-- Node2&#45;&gt;Node1 -->
<g id="edge2" class="edge"><title>Node2&#45;&gt;Node1</title>
<path fill="none" stroke="midnightblue" d="M88.8485,-92.2321C110.896,-76.0524 144.122,-51.6684 166.414,-35.3088"/>
<polygon fill="midnightblue" stroke="midnightblue" points="86.7026,-89.4656 80.7114,-98.2038 90.8441,-95.109 86.7026,-89.4656"/>
</g>
<!-- Node3 -->
<g id="node4" class="node"><title>Node3</title>
<polygon fill="white" stroke="#bfbfbf" points="-0.5,-171 -0.5,-205 130.5,-205 130.5,-171 -0.5,-171"/>
<text text-anchor="start" x="7.5" y="-192" font-family="Helvetica,sans-Serif" font-size="10.00">std::enable_shared</text>
<text text-anchor="middle" x="65" y="-179" font-family="Helvetica,sans-Serif" font-size="10.00">_from_this&lt; BaseObject &gt;</text>
</g>
<!-- Node3&#45;&gt;Node2 -->
<g id="edge4" class="edge"><title>Node3&#45;&gt;Node2</title>
<path fill="none" stroke="midnightblue" d="M65.3465,-160.623C65.5257,-146.473 65.7339,-130.024 65.8662,-119.567"/>
<polygon fill="midnightblue" stroke="midnightblue" points="61.8439,-160.815 65.217,-170.858 68.8434,-160.903 61.8439,-160.815"/>
</g>
<!-- Node4 -->
<g id="node6" class="node"><title>Node4</title>
<a xlink:href="classfwCom_1_1HasSignals.html" target="_top" xlink:title="This class proposes a mapping between a SignalKeyType and a SignalBase. ">
<polygon fill="white" stroke="black" points="138,-98.5 138,-119.5 242,-119.5 242,-98.5 138,-98.5"/>
<text text-anchor="middle" x="190" y="-106.5" font-family="Helvetica,sans-Serif" font-size="10.00">fwCom::HasSignals</text>
</a>
</g>
<!-- Node4&#45;&gt;Node1 -->
<g id="edge6" class="edge"><title>Node4&#45;&gt;Node1</title>
<path fill="none" stroke="midnightblue" d="M190,-87.7551C190,-71.7995 190,-50.2207 190,-35.3088"/>
<polygon fill="midnightblue" stroke="midnightblue" points="186.5,-88.2037 190,-98.2038 193.5,-88.2038 186.5,-88.2037"/>
</g>
<!-- Node5 -->
<g id="node8" class="node"><title>Node5</title>
<a xlink:href="classfwCom_1_1Signals.html" target="_top" xlink:title="This class proposes a mapping between a SignalKeyType and a SignalBase. ">
<polygon fill="white" stroke="black" points="148,-177.5 148,-198.5 234,-198.5 234,-177.5 148,-177.5"/>
<text text-anchor="middle" x="191" y="-185.5" font-family="Helvetica,sans-Serif" font-size="10.00">fwCom::Signals</text>
</a>
</g>
<!-- Node5&#45;&gt;Node4 -->
<g id="edge8" class="edge"><title>Node5&#45;&gt;Node4</title>
<path fill="none" stroke="#9a32cd" stroke-dasharray="5,2" d="M190.738,-167.284C190.545,-152.031 190.29,-131.907 190.136,-119.738"/>
<polygon fill="#9a32cd" stroke="#9a32cd" points="187.239,-167.391 190.865,-177.346 194.238,-167.302 187.239,-167.391"/>
<text text-anchor="middle" x="215" y="-142.5" font-family="Helvetica,sans-Serif" font-size="10.00"> m_signals</text>
</g>
<!-- Node6 -->
<g id="node10" class="node"><title>Node6</title>
<polygon fill="white" stroke="#bfbfbf" points="110.5,-257 110.5,-291 271.5,-291 271.5,-257 110.5,-257"/>
<text text-anchor="start" x="118.5" y="-278" font-family="Helvetica,sans-Serif" font-size="10.00">std::map&lt; SignalKeyType,</text>
<text text-anchor="middle" x="191" y="-265" font-family="Helvetica,sans-Serif" font-size="10.00"> std::shared_ptr&lt; SignalBase &gt; &gt;</text>
</g>
<!-- Node6&#45;&gt;Node5 -->
<g id="edge10" class="edge"><title>Node6&#45;&gt;Node5</title>
<path fill="none" stroke="#9a32cd" stroke-dasharray="5,2" d="M191,-246.56C191,-230.365 191,-210.766 191,-198.848"/>
<polygon fill="#9a32cd" stroke="#9a32cd" points="187.5,-246.597 191,-256.597 194.5,-246.597 187.5,-246.597"/>
<text text-anchor="middle" x="215" y="-228.5" font-family="Helvetica,sans-Serif" font-size="10.00"> m_signals</text>
</g>
<!-- Node7 -->
<g id="node12" class="node"><title>Node7</title>
<a xlink:title="STL class. ">
<polygon fill="white" stroke="#bfbfbf" points="126,-354.5 126,-375.5 186,-375.5 186,-354.5 126,-354.5"/>
<text text-anchor="middle" x="156" y="-362.5" font-family="Helvetica,sans-Serif" font-size="10.00">std::string</text>
</a>
</g>
<!-- Node7&#45;&gt;Node6 -->
<g id="edge12" class="edge"><title>Node7&#45;&gt;Node6</title>
<path fill="none" stroke="#9a32cd" stroke-dasharray="5,2" d="M163.816,-344.678C169.985,-328.64 178.496,-306.51 184.343,-291.309"/>
<polygon fill="#9a32cd" stroke="#9a32cd" points="160.476,-343.614 160.152,-354.204 167.009,-346.127 160.476,-343.614"/>
<text text-anchor="middle" x="189.5" y="-320.5" font-family="Helvetica,sans-Serif" font-size="10.00"> keys</text>
</g>
<!-- Node8 -->
<g id="node14" class="node"><title>Node8</title>
<a xlink:title="STL class. ">
<polygon fill="white" stroke="#bfbfbf" points="108.5,-427 108.5,-461 203.5,-461 203.5,-427 108.5,-427"/>
<text text-anchor="start" x="116.5" y="-448" font-family="Helvetica,sans-Serif" font-size="10.00">std::basic_string&lt;</text>
<text text-anchor="middle" x="156" y="-435" font-family="Helvetica,sans-Serif" font-size="10.00"> char &gt;</text>
</a>
</g>
<!-- Node8&#45;&gt;Node7 -->
<g id="edge14" class="edge"><title>Node8&#45;&gt;Node7</title>
<path fill="none" stroke="midnightblue" d="M156,-416.623C156,-402.473 156,-386.024 156,-375.567"/>
<polygon fill="midnightblue" stroke="midnightblue" points="152.5,-416.858 156,-426.858 159.5,-416.858 152.5,-416.858"/>
</g>
<!-- Node9 -->
<g id="node16" class="node"><title>Node9</title>
<a xlink:title="STL class. ">
<polygon fill="white" stroke="#bfbfbf" points="204,-354.5 204,-375.5 296,-375.5 296,-354.5 204,-354.5"/>
<text text-anchor="middle" x="250" y="-362.5" font-family="Helvetica,sans-Serif" font-size="10.00">std::map&lt; K, T &gt;</text>
</a>
</g>
<!-- Node9&#45;&gt;Node6 -->
<g id="edge16" class="edge"><title>Node9&#45;&gt;Node6</title>
<path fill="none" stroke="orange" stroke-dasharray="5,2" d="M237.414,-345.588C226.974,-329.486 212.266,-306.8 202.222,-291.309"/>
<polygon fill="orange" stroke="orange" points="234.623,-347.717 243,-354.204 240.497,-343.909 234.623,-347.717"/>
<text text-anchor="start" x="231" y="-327" font-family="Helvetica,sans-Serif" font-size="10.00"> &lt; SignalKeyType, std</text>
<text text-anchor="middle" x="295.5" y="-314" font-family="Helvetica,sans-Serif" font-size="10.00">::shared_ptr&lt; SignalBase &gt; &gt;</text>
</g>
<!-- Node10 -->
<g id="node18" class="node"><title>Node10</title>
<polygon fill="white" stroke="#bfbfbf" points="227.5,-433.5 227.5,-454.5 256.5,-454.5 256.5,-433.5 227.5,-433.5"/>
<text text-anchor="middle" x="242" y="-441.5" font-family="Helvetica,sans-Serif" font-size="10.00">K</text>
</g>
<!-- Node10&#45;&gt;Node9 -->
<g id="edge18" class="edge"><title>Node10&#45;&gt;Node9</title>
<path fill="none" stroke="#9a32cd" stroke-dasharray="5,2" d="M241.411,-422.927C241.422,-413.975 241.78,-403.445 243,-394 243.796,-387.836 245.384,-381.079 246.846,-375.639"/>
<polygon fill="#9a32cd" stroke="#9a32cd" points="237.915,-423.267 241.545,-433.221 244.915,-423.177 237.915,-423.267"/>
<text text-anchor="middle" x="255.5" y="-398.5" font-family="Helvetica,sans-Serif" font-size="10.00"> keys</text>
</g>
<!-- Node11 -->
<g id="node20" class="node"><title>Node11</title>
<polygon fill="white" stroke="#bfbfbf" points="275.5,-433.5 275.5,-454.5 304.5,-454.5 304.5,-433.5 275.5,-433.5"/>
<text text-anchor="middle" x="290" y="-441.5" font-family="Helvetica,sans-Serif" font-size="10.00">T</text>
</g>
<!-- Node11&#45;&gt;Node9 -->
<g id="edge20" class="edge"><title>Node11&#45;&gt;Node9</title>
<path fill="none" stroke="#9a32cd" stroke-dasharray="5,2" d="M281.937,-423.936C278.023,-414.679 273.076,-403.631 268,-394 264.685,-387.709 260.523,-380.944 257.036,-375.531"/>
<polygon fill="#9a32cd" stroke="#9a32cd" points="278.816,-425.549 285.868,-433.456 285.286,-422.877 278.816,-425.549"/>
<text text-anchor="middle" x="296.5" y="-398.5" font-family="Helvetica,sans-Serif" font-size="10.00"> elements</text>
</g>
<!-- Node12 -->
<g id="node22" class="node"><title>Node12</title>
<polygon fill="white" stroke="#bfbfbf" points="259.5,-98.5 259.5,-119.5 300.5,-119.5 300.5,-98.5 259.5,-98.5"/>
<text text-anchor="middle" x="280" y="-106.5" font-family="Helvetica,sans-Serif" font-size="10.00">static</text>
</g>
<!-- Node12&#45;&gt;Node1 -->
<g id="edge22" class="edge"><title>Node12&#45;&gt;Node1</title>
<path fill="none" stroke="#9a32cd" stroke-dasharray="5,2" d="M262.125,-90.9264C246.14,-74.7633 222.869,-51.2341 207.119,-35.3088"/>
<polygon fill="#9a32cd" stroke="#9a32cd" points="259.802,-93.5549 269.322,-98.2038 264.779,-88.6325 259.802,-93.5549"/>
<text text-anchor="middle" x="308.5" y="-71" font-family="Helvetica,sans-Serif" font-size="10.00"> s_REGISTERED_SIG</text>
<text text-anchor="middle" x="308.5" y="-58" font-family="Helvetica,sans-Serif" font-size="10.00">s_UNREGISTERED_SIG</text>
</g>
</g>
</svg>
