<?xml version="1.0" encoding="UTF-8" standalone="no"?>
<!DOCTYPE svg PUBLIC "-//W3C//DTD SVG 1.1//EN"
 "http://www.w3.org/Graphics/SVG/1.1/DTD/svg11.dtd">
<!-- Generated by graphviz version 2.26.3 (20100126.1600)
 -->
<!-- Title: fwAtomsPatch::StructuralCreatorDB::getCreator Pages: 1 -->
<svg width="304pt" height="42pt"
 viewBox="0.00 0.00 304.00 42.00" xmlns="http://www.w3.org/2000/svg" xmlns:xlink="http://www.w3.org/1999/xlink">
<g id="graph1" class="graph" transform="scale(1 1) rotate(0) translate(4 38)">
<title>fwAtomsPatch::StructuralCreatorDB::getCreator</title>
<polygon fill="white" stroke="white" points="-4,5 -4,-38 301,-38 301,5 -4,5"/>
<!-- Node1 -->
<g id="node1" class="node"><title>Node1</title>
<polygon fill="#bfbfbf" stroke="black" points="0.5,-0 0.5,-34 129.5,-34 129.5,-0 0.5,-0"/>
<text text-anchor="start" x="8.5" y="-21" font-family="Helvetica,sans-Serif" font-size="10.00">fwAtomsPatch::Structural</text>
<text text-anchor="middle" x="65" y="-8" font-family="Helvetica,sans-Serif" font-size="10.00">CreatorDB::getCreator</text>
</g>
<!-- Node2 -->
<g id="node3" class="node"><title>Node2</title>
<a xlink:href="classfwAtomsPatch_1_1StructuralCreatorDB.html#a36c383d71a6d050b5f10ac46ae119710" target="_top" xlink:title="Creates a new object instance with given classname and version. ">
<polygon fill="white" stroke="black" points="166.5,-0 166.5,-34 295.5,-34 295.5,-0 166.5,-0"/>
<text text-anchor="start" x="174.5" y="-21" font-family="Helvetica,sans-Serif" font-size="10.00">fwAtomsPatch::Structural</text>
<text text-anchor="middle" x="231" y="-8" font-family="Helvetica,sans-Serif" font-size="10.00">CreatorDB::create</text>
</a>
</g>
<!-- Node1&#45;&gt;Node2 -->
<g id="edge2" class="edge"><title>Node1&#45;&gt;Node2</title>
<path fill="none" stroke="midnightblue" d="M139.898,-17C148.693,-17 157.609,-17 166.248,-17"/>
<polygon fill="midnightblue" stroke="midnightblue" points="139.655,-13.5001 129.655,-17 139.655,-20.5001 139.655,-13.5001"/>
</g>
</g>
</svg>
