<?xml version="1.0" encoding="UTF-8" standalone="no"?>
<!DOCTYPE svg PUBLIC "-//W3C//DTD SVG 1.1//EN"
 "http://www.w3.org/Graphics/SVG/1.1/DTD/svg11.dtd">
<!-- Generated by graphviz version 2.26.3 (20100126.1600)
 -->
<!-- Title: fwStructuralPatch::creator::fwMedData::ModelSeries1 Pages: 1 -->
<svg width="140pt" height="342pt"
 viewBox="0.00 0.00 140.00 342.00" xmlns="http://www.w3.org/2000/svg" xmlns:xlink="http://www.w3.org/1999/xlink">
<g id="graph1" class="graph" transform="scale(1 1) rotate(0) translate(4 338)">
<title>fwStructuralPatch::creator::fwMedData::ModelSeries1</title>
<polygon fill="white" stroke="white" points="-4,5 -4,-338 137,-338 137,5 -4,5"/>
<!-- Node1 -->
<g id="node1" class="node"><title>Node1</title>
<polygon fill="#bfbfbf" stroke="black" points="11.5,-0.5 11.5,-47.5 120.5,-47.5 120.5,-0.5 11.5,-0.5"/>
<text text-anchor="start" x="19.5" y="-34.5" font-family="Helvetica,sans-Serif" font-size="10.00">fwStructuralPatch::</text>
<text text-anchor="start" x="19.5" y="-21.5" font-family="Helvetica,sans-Serif" font-size="10.00">creator::fwMedData::</text>
<text text-anchor="middle" x="66" y="-8.5" font-family="Helvetica,sans-Serif" font-size="10.00">ModelSeries1</text>
</g>
<!-- Node2 -->
<g id="node2" class="node"><title>Node2</title>
<a xlink:href="classfwStructuralPatch_1_1creator_1_1fwMedData_1_1Series1.html" target="_top" xlink:title="Structural creator for fwMedData::Series version 1. ">
<polygon fill="white" stroke="black" points="11.5,-84.5 11.5,-131.5 120.5,-131.5 120.5,-84.5 11.5,-84.5"/>
<text text-anchor="start" x="19.5" y="-118.5" font-family="Helvetica,sans-Serif" font-size="10.00">fwStructuralPatch::</text>
<text text-anchor="start" x="19.5" y="-105.5" font-family="Helvetica,sans-Serif" font-size="10.00">creator::fwMedData::</text>
<text text-anchor="middle" x="66" y="-92.5" font-family="Helvetica,sans-Serif" font-size="10.00">Series1</text>
</a>
</g>
<!-- Node2&#45;&gt;Node1 -->
<g id="edge2" class="edge"><title>Node2&#45;&gt;Node1</title>
<path fill="none" stroke="midnightblue" d="M66,-74.0664C66,-65.1933 66,-55.821 66,-47.6152"/>
<polygon fill="midnightblue" stroke="midnightblue" points="62.5001,-74.1536 66,-84.1537 69.5001,-74.1537 62.5001,-74.1536"/>
</g>
<!-- Node3 -->
<g id="node4" class="node"><title>Node3</title>
<a xlink:href="classfwAtomsPatch_1_1IStructuralCreator.html" target="_top" xlink:title="Base class of all structural creators. Creates a new atom object with the default values correspondin...">
<polygon fill="white" stroke="black" points="0,-169 0,-203 132,-203 132,-169 0,-169"/>
<text text-anchor="start" x="8" y="-190" font-family="Helvetica,sans-Serif" font-size="10.00">fwAtomsPatch::IStructural</text>
<text text-anchor="middle" x="66" y="-177" font-family="Helvetica,sans-Serif" font-size="10.00">Creator</text>
</a>
</g>
<!-- Node3&#45;&gt;Node2 -->
<g id="edge4" class="edge"><title>Node3&#45;&gt;Node2</title>
<path fill="none" stroke="midnightblue" d="M66,-158.579C66,-149.834 66,-140.234 66,-131.77"/>
<polygon fill="midnightblue" stroke="midnightblue" points="62.5001,-158.689 66,-168.689 69.5001,-158.689 62.5001,-158.689"/>
</g>
<!-- Node4 -->
<g id="node6" class="node"><title>Node4</title>
<a xlink:href="classfwCore_1_1BaseObject.html" target="_top" xlink:title="Base class for all FW4SPL&#39;s classes. ">
<polygon fill="white" stroke="black" points="13.5,-240.5 13.5,-261.5 118.5,-261.5 118.5,-240.5 13.5,-240.5"/>
<text text-anchor="middle" x="66" y="-248.5" font-family="Helvetica,sans-Serif" font-size="10.00">fwCore::BaseObject</text>
</a>
</g>
<!-- Node4&#45;&gt;Node3 -->
<g id="edge6" class="edge"><title>Node4&#45;&gt;Node3</title>
<path fill="none" stroke="midnightblue" d="M66,-230.131C66,-221.405 66,-211.391 66,-203.11"/>
<polygon fill="midnightblue" stroke="midnightblue" points="62.5001,-230.267 66,-240.267 69.5001,-230.267 62.5001,-230.267"/>
</g>
<!-- Node5 -->
<g id="node8" class="node"><title>Node5</title>
<polygon fill="white" stroke="#bfbfbf" points="0.5,-299 0.5,-333 131.5,-333 131.5,-299 0.5,-299"/>
<text text-anchor="start" x="8.5" y="-320" font-family="Helvetica,sans-Serif" font-size="10.00">std::enable_shared</text>
<text text-anchor="middle" x="66" y="-307" font-family="Helvetica,sans-Serif" font-size="10.00">_from_this&lt; BaseObject &gt;</text>
</g>
<!-- Node5&#45;&gt;Node4 -->
<g id="edge8" class="edge"><title>Node5&#45;&gt;Node4</title>
<path fill="none" stroke="midnightblue" d="M66,-288.688C66,-279.242 66,-269.195 66,-261.852"/>
<polygon fill="midnightblue" stroke="midnightblue" points="62.5001,-288.922 66,-298.922 69.5001,-288.922 62.5001,-288.922"/>
</g>
</g>
</svg>
