<?xml version="1.0" encoding="UTF-8" standalone="no"?>
<!DOCTYPE svg PUBLIC "-//W3C//DTD SVG 1.1//EN"
 "http://www.w3.org/Graphics/SVG/1.1/DTD/svg11.dtd">
<!-- Generated by graphviz version 2.36.0 (20140111.2315)
 -->
<!-- Title: fwServices::IService::starting Pages: 1 -->
<svg width="284pt" height="87pt"
 viewBox="0.00 0.00 284.00 87.00" xmlns="http://www.w3.org/2000/svg" xmlns:xlink="http://www.w3.org/1999/xlink">
<g id="graph0" class="graph" transform="scale(1 1) rotate(0) translate(4 83)">
<title>fwServices::IService::starting</title>
<polygon fill="white" stroke="none" points="-4,4 -4,-83 280,-83 280,4 -4,4"/>
<!-- Node1 -->
<g id="node1" class="node"><title>Node1</title>
<polygon fill="#bfbfbf" stroke="black" points="0.5,-24 0.5,-54 107.5,-54 107.5,-24 0.5,-24"/>
<text text-anchor="start" x="8.5" y="-42" font-family="Helvetica,sans-Serif" font-size="10.00">fwServices::IService</text>
<text text-anchor="middle" x="54" y="-31" font-family="Helvetica,sans-Serif" font-size="10.00">::starting</text>
</g>
<!-- Node2 -->
<g id="node2" class="node"><title>Node2</title>
<g id="a_node2"><a xlink:href="classfwServices_1_1IService.html#a540ebeabae5ee08620853d911d63ad42" target="_top" xlink:title="Returns proposals to connect service slots to associated objects signals, this method is used for obj...">
<polygon fill="white" stroke="black" points="154.5,-49 154.5,-79 265.5,-79 265.5,-49 154.5,-49"/>
<text text-anchor="start" x="162.5" y="-67" font-family="Helvetica,sans-Serif" font-size="10.00">fwServices::IService</text>
<text text-anchor="middle" x="210" y="-56" font-family="Helvetica,sans-Serif" font-size="10.00">::getAutoConnections</text>
</a>
</g>
</g>
<!-- Node1&#45;&gt;Node2 -->
<g id="edge1" class="edge"><title>Node1&#45;&gt;Node2</title>
<path fill="none" stroke="midnightblue" d="M117.632,-49.1675C129.786,-51.1405 142.434,-53.1939 154.308,-55.1215"/>
<polygon fill="midnightblue" stroke="midnightblue" points="117.999,-45.6814 107.567,-47.5337 116.877,-52.5909 117.999,-45.6814"/>
</g>
<!-- Node3 -->
<g id="node3" class="node"><title>Node3</title>
<g id="a_node3"><a xlink:href="classctrlSelection_1_1IManagerSrv.html#ad06e792016cf6e3407bad730300e701f" target="_top" xlink:title="Swaps the service from associated object to another object. Stops and starts this service...">
<polygon fill="white" stroke="black" points="144,-0 144,-30 276,-30 276,-0 144,-0"/>
<text text-anchor="start" x="152" y="-18" font-family="Helvetica,sans-Serif" font-size="10.00">ctrlSelection::IManagerSrv</text>
<text text-anchor="middle" x="210" y="-7" font-family="Helvetica,sans-Serif" font-size="10.00">::swapping</text>
</a>
</g>
</g>
<!-- Node1&#45;&gt;Node3 -->
<g id="edge2" class="edge"><title>Node1&#45;&gt;Node3</title>
<path fill="none" stroke="midnightblue" d="M117.59,-29.2457C126.25,-27.8962 135.162,-26.5073 143.866,-25.1507"/>
<polygon fill="midnightblue" stroke="midnightblue" points="116.909,-25.8095 107.567,-30.8077 117.987,-32.726 116.909,-25.8095"/>
</g>
</g>
</svg>
