<?xml version="1.0" encoding="UTF-8" standalone="no"?>
<!DOCTYPE svg PUBLIC "-//W3C//DTD SVG 1.1//EN"
 "http://www.w3.org/Graphics/SVG/1.1/DTD/svg11.dtd">
<!-- Generated by graphviz version 2.36.0 (20140111.2315)
 -->
<!-- Title: fwMemory::BufferManager::allocateBuffer Pages: 1 -->
<svg width="450pt" height="38pt"
 viewBox="0.00 0.00 450.00 38.00" xmlns="http://www.w3.org/2000/svg" xmlns:xlink="http://www.w3.org/1999/xlink">
<g id="graph0" class="graph" transform="scale(1 1) rotate(0) translate(4 34)">
<title>fwMemory::BufferManager::allocateBuffer</title>
<polygon fill="white" stroke="none" points="-4,4 -4,-34 446,-34 446,4 -4,4"/>
<!-- Node1 -->
<g id="node1" class="node"><title>Node1</title>
<polygon fill="#bfbfbf" stroke="black" points="0,-0 0,-30 132,-30 132,-0 0,-0"/>
<text text-anchor="start" x="8" y="-18" font-family="Helvetica,sans-Serif" font-size="10.00">fwMemory::BufferManager</text>
<text text-anchor="middle" x="66" y="-7" font-family="Helvetica,sans-Serif" font-size="10.00">::allocateBuffer</text>
</g>
<!-- Node2 -->
<g id="node2" class="node"><title>Node2</title>
<g id="a_node2"><a xlink:href="classfwMemory_1_1BufferManager.html#ae72ef437fa241875559e29257a17e27c" target="_top" xlink:title="BufferManager&#39;a Implementation. ">
<polygon fill="white" stroke="black" points="168,-0 168,-30 300,-30 300,-0 168,-0"/>
<text text-anchor="start" x="176" y="-18" font-family="Helvetica,sans-Serif" font-size="10.00">fwMemory::BufferManager</text>
<text text-anchor="middle" x="234" y="-7" font-family="Helvetica,sans-Serif" font-size="10.00">::allocateBufferImpl</text>
</a>
</g>
</g>
<!-- Node1&#45;&gt;Node2 -->
<g id="edge1" class="edge"><title>Node1&#45;&gt;Node2</title>
<path fill="none" stroke="midnightblue" d="M132.131,-15C140.461,-15 149.044,-15 157.521,-15"/>
<polygon fill="midnightblue" stroke="midnightblue" points="157.784,-18.5001 167.784,-15 157.784,-11.5001 157.784,-18.5001"/>
</g>
<!-- Node3 -->
<g id="node3" class="node"><title>Node3</title>
<g id="a_node3"><a xlink:href="classfwCore_1_1LogicStamp.html#a22b5150e4db1081fe0ab3b4a31be3ca9" target="_top" xlink:title="Increment global Logical counter and copy it to this LogicStamp. ">
<polygon fill="white" stroke="black" points="336,-0 336,-30 442,-30 442,-0 336,-0"/>
<text text-anchor="start" x="344" y="-18" font-family="Helvetica,sans-Serif" font-size="10.00">fwCore::LogicStamp</text>
<text text-anchor="middle" x="389" y="-7" font-family="Helvetica,sans-Serif" font-size="10.00">::modified</text>
</a>
</g>
</g>
<!-- Node2&#45;&gt;Node3 -->
<g id="edge2" class="edge"><title>Node2&#45;&gt;Node3</title>
<path fill="none" stroke="midnightblue" d="M300.33,-15C308.76,-15 317.375,-15 325.754,-15"/>
<polygon fill="midnightblue" stroke="midnightblue" points="325.829,-18.5001 335.829,-15 325.829,-11.5001 325.829,-18.5001"/>
</g>
</g>
</svg>
