<?xml version="1.0" encoding="UTF-8" standalone="no"?>
<!DOCTYPE svg PUBLIC "-//W3C//DTD SVG 1.1//EN"
 "http://www.w3.org/Graphics/SVG/1.1/DTD/svg11.dtd">
<!-- Generated by graphviz version 2.26.3 (20100126.1600)
 -->
<!-- Title: fwGui::layoutManager::IMenuLayoutManager::ActionInfo Pages: 1 -->
<svg width="124pt" height="228pt"
 viewBox="0.00 0.00 124.00 228.00" xmlns="http://www.w3.org/2000/svg" xmlns:xlink="http://www.w3.org/1999/xlink">
<g id="graph1" class="graph" transform="scale(1 1) rotate(0) translate(4 224)">
<title>fwGui::layoutManager::IMenuLayoutManager::ActionInfo</title>
<polygon fill="white" stroke="white" points="-4,5 -4,-224 121,-224 121,5 -4,5"/>
<!-- Node1 -->
<g id="node1" class="node"><title>Node1</title>
<polygon fill="#bfbfbf" stroke="black" points="0,-0.5 0,-47.5 116,-47.5 116,-0.5 0,-0.5"/>
<text text-anchor="start" x="8" y="-34.5" font-family="Helvetica,sans-Serif" font-size="10.00">fwGui::layoutManager</text>
<text text-anchor="start" x="8" y="-21.5" font-family="Helvetica,sans-Serif" font-size="10.00">::IMenuLayoutManager</text>
<text text-anchor="middle" x="58" y="-8.5" font-family="Helvetica,sans-Serif" font-size="10.00">::ActionInfo</text>
</g>
<!-- Node2 -->
<g id="node2" class="node"><title>Node2</title>
<a xlink:title="STL class. ">
<polygon fill="white" stroke="#bfbfbf" points="28,-124.5 28,-145.5 88,-145.5 88,-124.5 28,-124.5"/>
<text text-anchor="middle" x="58" y="-132.5" font-family="Helvetica,sans-Serif" font-size="10.00">std::string</text>
</a>
</g>
<!-- Node2&#45;&gt;Node1 -->
<g id="edge2" class="edge"><title>Node2&#45;&gt;Node1</title>
<path fill="none" stroke="#9a32cd" stroke-dasharray="5,2" d="M58,-114.12C58,-95.177 58,-67.2746 58,-47.5445"/>
<polygon fill="#9a32cd" stroke="#9a32cd" points="54.5001,-114.357 58,-124.357 61.5001,-114.357 54.5001,-114.357"/>
<text text-anchor="middle" x="84" y="-96.5" font-family="Helvetica,sans-Serif" font-size="10.00"> m_shortcut</text>
<text text-anchor="middle" x="84" y="-83.5" font-family="Helvetica,sans-Serif" font-size="10.00">m_icon</text>
<text text-anchor="middle" x="84" y="-70.5" font-family="Helvetica,sans-Serif" font-size="10.00">m_name</text>
</g>
<!-- Node3 -->
<g id="node4" class="node"><title>Node3</title>
<a xlink:title="STL class. ">
<polygon fill="white" stroke="#bfbfbf" points="10.5,-185 10.5,-219 105.5,-219 105.5,-185 10.5,-185"/>
<text text-anchor="start" x="18.5" y="-206" font-family="Helvetica,sans-Serif" font-size="10.00">std::basic_string&lt;</text>
<text text-anchor="middle" x="58" y="-193" font-family="Helvetica,sans-Serif" font-size="10.00"> char &gt;</text>
</a>
</g>
<!-- Node3&#45;&gt;Node2 -->
<g id="edge4" class="edge"><title>Node3&#45;&gt;Node2</title>
<path fill="none" stroke="midnightblue" d="M58,-174.534C58,-164.306 58,-153.301 58,-145.506"/>
<polygon fill="midnightblue" stroke="midnightblue" points="54.5001,-174.746 58,-184.746 61.5001,-174.746 54.5001,-174.746"/>
</g>
</g>
</svg>
