<?xml version="1.0" encoding="UTF-8" standalone="no"?>
<!DOCTYPE svg PUBLIC "-//W3C//DTD SVG 1.1//EN"
 "http://www.w3.org/Graphics/SVG/1.1/DTD/svg11.dtd">
<!-- Generated by graphviz version 2.26.3 (20100126.1600)
 -->
<!-- Title: fwServices::IXMLParser Pages: 1 -->
<!--zoomable 295 -->
<svg id="main" version="1.1" xmlns="http://www.w3.org/2000/svg" xmlns:xlink="http://www.w3.org/1999/xlink" xml:space="preserve" onload="init(evt)">
<style type="text/css"><![CDATA[
.edge:hover path { stroke: red; }
.edge:hover polygon { stroke: red; fill: red; }
]]></style>
<script type="text/javascript"><![CDATA[
var edges = document.getElementsByTagName('g');
if (edges && edges.length) {
  for (var i=0;i<edges.length;i++) {
    if (edges[i].id.substr(0,4)=='edge') {
      edges[i].setAttribute('class','edge');
    }
  }
}
]]></script>
        <defs>
                <circle id="rim" cx="0" cy="0" r="7"/>
                <circle id="rim2" cx="0" cy="0" r="3.5"/>
                <g id="zoomPlus">
                        <use xlink:href="#rim" fill="#404040">
                                <set attributeName="fill" to="#808080" begin="zoomplus.mouseover" end="zoomplus.mouseout"/>
                        </use>
                        <path d="M-4,0h8M0,-4v8" fill="none" stroke="white" stroke-width="1.5" pointer-events="none"/>
                </g>
                <g id="zoomMin">
                        <use xlink:href="#rim" fill="#404040">
                                <set attributeName="fill" to="#808080" begin="zoomminus.mouseover" end="zoomminus.mouseout"/>
                        </use>
                        <path d="M-4,0h8" fill="none" stroke="white" stroke-width="1.5" pointer-events="none"/>
                </g>
                <g id="dirArrow">
                        <path fill="none" stroke="white" stroke-width="1.5" d="M0,-3.0v7 M-2.5,-0.5L0,-3.0L2.5,-0.5"/>
                </g>
               <g id="resetDef">
                       <use xlink:href="#rim2" fill="#404040">
                               <set attributeName="fill" to="#808080" begin="reset.mouseover" end="reset.mouseout"/>
                       </use>
               </g>
        </defs>

<script type="text/javascript">
var viewWidth = 1116;
var viewHeight = 295;
var sectionId = 'dynsection-0';
</script>
<script xlink:href="svgpan.js"/>
<svg id="graph" class="graph">
<g id="viewport">
<title>fwServices::IXMLParser</title>
<polygon fill="white" stroke="white" points="-4,5 -4,-291 1113,-291 1113,5 -4,5"/>
<!-- Node1 -->
<g id="node1" class="node"><title>Node1</title>
<polygon fill="#bfbfbf" stroke="black" points="594.5,-124.5 594.5,-145.5 717.5,-145.5 717.5,-124.5 594.5,-124.5"/>
<text text-anchor="middle" x="656" y="-132.5" font-family="Helvetica,sans-Serif" font-size="10.00">fwServices::IXMLParser</text>
</g>
<!-- Node9 -->
<g id="node17" class="node"><title>Node9</title>
<a xlink:href="classfwComEd_1_1parser_1_1Composite.html" target="_top" xlink:title="Specific service for the construction of a Composite and its associated services from an XML&#45;based de...">
<polygon fill="white" stroke="black" points="763,-236.5 763,-257.5 909,-257.5 909,-236.5 763,-236.5"/>
<text text-anchor="middle" x="836" y="-244.5" font-family="Helvetica,sans-Serif" font-size="10.00">fwComEd::parser::Composite</text>
</a>
</g>
<!-- Node1&#45;&gt;Node9 -->
<g id="edge16" class="edge"><title>Node1&#45;&gt;Node9</title>
<path fill="none" stroke="midnightblue" d="M670.6,-153.567C688.145,-174.591 719.556,-208.338 754,-227 761.086,-230.839 768.912,-233.952 776.834,-236.473"/>
<polygon fill="midnightblue" stroke="midnightblue" points="673.197,-151.214 664.166,-145.675 667.772,-155.637 673.197,-151.214"/>
</g>
<!-- Node10 -->
<g id="node19" class="node"><title>Node10</title>
<a xlink:href="classfwComEd_1_1parser_1_1GenericField.html" target="_top" xlink:title="Specific service for the construction of a GenericField and its associated services from an XML&#45;based...">
<polygon fill="white" stroke="black" points="769.5,-184 769.5,-218 902.5,-218 902.5,-184 769.5,-184"/>
<text text-anchor="start" x="777.5" y="-205" font-family="Helvetica,sans-Serif" font-size="10.00">fwComEd::parser::Generic</text>
<text text-anchor="middle" x="836" y="-192" font-family="Helvetica,sans-Serif" font-size="10.00">Field</text>
</a>
</g>
<!-- Node1&#45;&gt;Node10 -->
<g id="edge18" class="edge"><title>Node1&#45;&gt;Node10</title>
<path fill="none" stroke="midnightblue" d="M689.674,-149.527C708.461,-157.434 732.37,-167.171 754,-175 762.426,-178.05 771.406,-181.098 780.219,-183.978"/>
<polygon fill="midnightblue" stroke="midnightblue" points="690.928,-146.258 680.355,-145.579 688.197,-152.703 690.928,-146.258"/>
</g>
<!-- Node15 -->
<g id="node29" class="node"><title>Node15</title>
<a xlink:href="classfwComEd_1_1parser_1_1List.html" target="_top" xlink:title="Specific service for the construction of a List and its associated services from an XML&#45;based descrip...">
<polygon fill="white" stroke="black" points="778.5,-144.5 778.5,-165.5 893.5,-165.5 893.5,-144.5 778.5,-144.5"/>
<text text-anchor="middle" x="836" y="-152.5" font-family="Helvetica,sans-Serif" font-size="10.00">fwComEd::parser::List</text>
</a>
</g>
<!-- Node1&#45;&gt;Node15 -->
<g id="edge28" class="edge"><title>Node1&#45;&gt;Node15</title>
<path fill="none" stroke="midnightblue" d="M727.977,-142.997C744.708,-144.856 762.305,-146.812 778.326,-148.592"/>
<polygon fill="midnightblue" stroke="midnightblue" points="728.019,-139.481 717.694,-141.855 727.246,-146.438 728.019,-139.481"/>
</g>
<!-- Node16 -->
<g id="node31" class="node"><title>Node16</title>
<a xlink:href="classfwComEd_1_1parser_1_1Object.html" target="_top" xlink:title="Specific fwTools::Object parser. Does nothing as no IService method is specialized: IXMLParser base c...">
<polygon fill="white" stroke="black" points="772,-104.5 772,-125.5 900,-125.5 900,-104.5 772,-104.5"/>
<text text-anchor="middle" x="836" y="-112.5" font-family="Helvetica,sans-Serif" font-size="10.00">fwComEd::parser::Object</text>
</a>
</g>
<!-- Node1&#45;&gt;Node16 -->
<g id="edge30" class="edge"><title>Node1&#45;&gt;Node16</title>
<path fill="none" stroke="midnightblue" d="M727.688,-127.035C742.308,-125.41 757.601,-123.711 771.935,-122.118"/>
<polygon fill="midnightblue" stroke="midnightblue" points="727.246,-123.562 717.694,-128.145 728.019,-130.519 727.246,-123.562"/>
</g>
<!-- Node17 -->
<g id="node33" class="node"><title>Node17</title>
<a xlink:href="classfwComEd_1_1parser_1_1TransferFunction.html" target="_top" xlink:title="Specific service for the construction of a TransferFunction and its associated services from an XML&#45;b...">
<polygon fill="white" stroke="black" points="768.5,-52 768.5,-86 903.5,-86 903.5,-52 768.5,-52"/>
<text text-anchor="start" x="776.5" y="-73" font-family="Helvetica,sans-Serif" font-size="10.00">fwComEd::parser::Transfer</text>
<text text-anchor="middle" x="836" y="-60" font-family="Helvetica,sans-Serif" font-size="10.00">Function</text>
</a>
</g>
<!-- Node1&#45;&gt;Node17 -->
<g id="edge32" class="edge"><title>Node1&#45;&gt;Node17</title>
<path fill="none" stroke="midnightblue" d="M689.674,-120.473C708.461,-112.566 732.37,-102.829 754,-95 762.426,-91.9502 771.406,-88.9018 780.219,-86.0217"/>
<polygon fill="midnightblue" stroke="midnightblue" points="688.197,-117.297 680.355,-124.421 690.928,-123.742 688.197,-117.297"/>
</g>
<!-- Node18 -->
<g id="node35" class="node"><title>Node18</title>
<a xlink:href="classfwComEd_1_1parser_1_1TransformationMatrix3D.html" target="_top" xlink:title="Specific service for the construction of a TransformationMatrix3D and its associated services from an...">
<polygon fill="white" stroke="black" points="754,-0 754,-34 918,-34 918,-0 754,-0"/>
<text text-anchor="start" x="762" y="-21" font-family="Helvetica,sans-Serif" font-size="10.00">fwComEd::parser::Transformation</text>
<text text-anchor="middle" x="836" y="-8" font-family="Helvetica,sans-Serif" font-size="10.00">Matrix3D</text>
</a>
</g>
<!-- Node1&#45;&gt;Node18 -->
<g id="edge34" class="edge"><title>Node1&#45;&gt;Node18</title>
<path fill="none" stroke="midnightblue" d="M671.112,-116.519C688.925,-95.8566 720.385,-62.7153 754,-43 759.668,-39.6755 765.81,-36.7258 772.096,-34.1202"/>
<polygon fill="midnightblue" stroke="midnightblue" points="668.335,-114.383 664.556,-124.281 673.683,-118.899 668.335,-114.383"/>
</g>
<!-- Node2 -->
<g id="node2" class="node"><title>Node2</title>
<a xlink:href="classfwServices_1_1IService.html" target="_top" xlink:title="Base class for all services. ">
<polygon fill="white" stroke="black" points="450.5,-124.5 450.5,-145.5 557.5,-145.5 557.5,-124.5 450.5,-124.5"/>
<text text-anchor="middle" x="504" y="-132.5" font-family="Helvetica,sans-Serif" font-size="10.00">fwServices::IService</text>
</a>
</g>
<!-- Node2&#45;&gt;Node1 -->
<g id="edge2" class="edge"><title>Node2&#45;&gt;Node1</title>
<path fill="none" stroke="midnightblue" d="M567.775,-135C576.564,-135 585.577,-135 594.327,-135"/>
<polygon fill="midnightblue" stroke="midnightblue" points="567.59,-131.5 557.59,-135 567.589,-138.5 567.59,-131.5"/>
</g>
<!-- Node3 -->
<g id="node4" class="node"><title>Node3</title>
<a xlink:href="classfwTools_1_1Object.html" target="_top" xlink:title="Define Base class for FW4SPL objects and services. ">
<polygon fill="white" stroke="black" points="319,-164.5 319,-185.5 405,-185.5 405,-164.5 319,-164.5"/>
<text text-anchor="middle" x="362" y="-172.5" font-family="Helvetica,sans-Serif" font-size="10.00">fwTools::Object</text>
</a>
</g>
<!-- Node3&#45;&gt;Node2 -->
<g id="edge4" class="edge"><title>Node3&#45;&gt;Node2</title>
<path fill="none" stroke="midnightblue" d="M409.084,-161.737C427.727,-156.485 448.862,-150.532 466.447,-145.578"/>
<polygon fill="midnightblue" stroke="midnightblue" points="407.985,-158.41 399.309,-164.49 409.883,-165.148 407.985,-158.41"/>
</g>
<!-- Node4 -->
<g id="node6" class="node"><title>Node4</title>
<a xlink:href="classfwCore_1_1BaseObject.html" target="_top" xlink:title="Base class for all FW4SPL&#39;s classes. ">
<polygon fill="white" stroke="black" points="168.5,-184.5 168.5,-205.5 273.5,-205.5 273.5,-184.5 168.5,-184.5"/>
<text text-anchor="middle" x="221" y="-192.5" font-family="Helvetica,sans-Serif" font-size="10.00">fwCore::BaseObject</text>
</a>
</g>
<!-- Node4&#45;&gt;Node3 -->
<g id="edge6" class="edge"><title>Node4&#45;&gt;Node3</title>
<path fill="none" stroke="midnightblue" d="M283.757,-186.098C295.55,-184.426 307.635,-182.711 318.671,-181.146"/>
<polygon fill="midnightblue" stroke="midnightblue" points="282.913,-182.683 273.503,-187.553 283.896,-189.614 282.913,-182.683"/>
</g>
<!-- Node5 -->
<g id="node8" class="node"><title>Node5</title>
<polygon fill="white" stroke="#bfbfbf" points="0.5,-178 0.5,-212 131.5,-212 131.5,-178 0.5,-178"/>
<text text-anchor="start" x="8.5" y="-199" font-family="Helvetica,sans-Serif" font-size="10.00">std::enable_shared</text>
<text text-anchor="middle" x="66" y="-186" font-family="Helvetica,sans-Serif" font-size="10.00">_from_this&lt; BaseObject &gt;</text>
</g>
<!-- Node5&#45;&gt;Node4 -->
<g id="edge8" class="edge"><title>Node5&#45;&gt;Node4</title>
<path fill="none" stroke="midnightblue" d="M141.815,-195C150.778,-195 159.771,-195 168.315,-195"/>
<polygon fill="midnightblue" stroke="midnightblue" points="141.734,-191.5 131.734,-195 141.734,-198.5 141.734,-191.5"/>
</g>
<!-- Node6 -->
<g id="node10" class="node"><title>Node6</title>
<a xlink:href="classfwTools_1_1fwID.html" target="_top" xlink:title="Defines ID for fwTools::Object. It is used to associate ID with object. ">
<polygon fill="white" stroke="black" points="182,-144.5 182,-165.5 260,-165.5 260,-144.5 182,-144.5"/>
<text text-anchor="middle" x="221" y="-152.5" font-family="Helvetica,sans-Serif" font-size="10.00">fwTools::fwID</text>
</a>
</g>
<!-- Node6&#45;&gt;Node3 -->
<g id="edge10" class="edge"><title>Node6&#45;&gt;Node3</title>
<path fill="none" stroke="darkgreen" d="M270.417,-162.009C286.248,-164.255 303.641,-166.722 318.977,-168.897"/>
<polygon fill="darkgreen" stroke="darkgreen" points="270.669,-158.51 260.276,-160.571 269.686,-165.441 270.669,-158.51"/>
</g>
<!-- Node7 -->
<g id="node12" class="node"><title>Node7</title>
<a xlink:href="classfwCom_1_1HasSlots.html" target="_top" xlink:title="This class proposes a mapping between a SlotKeyType and a SlotBase. ">
<polygon fill="white" stroke="black" points="314.5,-124.5 314.5,-145.5 409.5,-145.5 409.5,-124.5 314.5,-124.5"/>
<text text-anchor="middle" x="362" y="-132.5" font-family="Helvetica,sans-Serif" font-size="10.00">fwCom::HasSlots</text>
</a>
</g>
<!-- Node7&#45;&gt;Node2 -->
<g id="edge12" class="edge"><title>Node7&#45;&gt;Node2</title>
<path fill="none" stroke="midnightblue" d="M419.975,-135C430.014,-135 440.412,-135 450.33,-135"/>
<polygon fill="midnightblue" stroke="midnightblue" points="419.679,-131.5 409.679,-135 419.679,-138.5 419.679,-131.5"/>
</g>
<!-- Node8 -->
<g id="node14" class="node"><title>Node8</title>
<a xlink:href="classfwCom_1_1HasSignals.html" target="_top" xlink:title="This class proposes a mapping between a SignalKeyType and a SignalBase. ">
<polygon fill="white" stroke="black" points="310,-84.5 310,-105.5 414,-105.5 414,-84.5 310,-84.5"/>
<text text-anchor="middle" x="362" y="-92.5" font-family="Helvetica,sans-Serif" font-size="10.00">fwCom::HasSignals</text>
</a>
</g>
<!-- Node8&#45;&gt;Node2 -->
<g id="edge14" class="edge"><title>Node8&#45;&gt;Node2</title>
<path fill="none" stroke="midnightblue" d="M409.084,-108.263C427.727,-113.515 448.862,-119.468 466.447,-124.422"/>
<polygon fill="midnightblue" stroke="midnightblue" points="409.883,-104.852 399.309,-105.51 407.985,-111.59 409.883,-104.852"/>
</g>
<!-- Node11 -->
<g id="node21" class="node"><title>Node11</title>
<a xlink:href="classfwComEd_1_1parser_1_1BooleanParser.html" target="_top" xlink:title="Specialisation of GenericField parser for boolean. ">
<polygon fill="white" stroke="black" points="964,-253 964,-287 1098,-287 1098,-253 964,-253"/>
<text text-anchor="start" x="972" y="-274" font-family="Helvetica,sans-Serif" font-size="10.00">fwComEd::parser::Boolean</text>
<text text-anchor="middle" x="1031" y="-261" font-family="Helvetica,sans-Serif" font-size="10.00">Parser</text>
</a>
</g>
<!-- Node10&#45;&gt;Node11 -->
<g id="edge20" class="edge"><title>Node10&#45;&gt;Node11</title>
<path fill="none" stroke="midnightblue" d="M903.059,-221.445C908.143,-223.244 913.171,-225.104 918,-227 934.47,-233.466 937.59,-237.381 954,-244 961.589,-247.061 969.692,-250.07 977.686,-252.893"/>
<polygon fill="midnightblue" stroke="midnightblue" points="903.845,-218.014 893.25,-218.068 901.566,-224.633 903.845,-218.014"/>
</g>
<!-- Node12 -->
<g id="node23" class="node"><title>Node12</title>
<a xlink:href="classfwComEd_1_1parser_1_1FloatParser.html" target="_top" xlink:title="Specialisation of GenericField parser for float. ">
<polygon fill="white" stroke="black" points="956.5,-213.5 956.5,-234.5 1105.5,-234.5 1105.5,-213.5 956.5,-213.5"/>
<text text-anchor="middle" x="1031" y="-221.5" font-family="Helvetica,sans-Serif" font-size="10.00">fwComEd::parser::FloatParser</text>
</a>
</g>
<!-- Node10&#45;&gt;Node12 -->
<g id="edge22" class="edge"><title>Node10&#45;&gt;Node12</title>
<path fill="none" stroke="midnightblue" d="M912.86,-210.066C927.178,-211.754 942.119,-213.517 956.369,-215.197"/>
<polygon fill="midnightblue" stroke="midnightblue" points="912.904,-206.547 902.563,-208.851 912.084,-213.498 912.904,-206.547"/>
</g>
<!-- Node13 -->
<g id="node25" class="node"><title>Node13</title>
<a xlink:href="classfwComEd_1_1parser_1_1IntegerParser.html" target="_top" xlink:title="Specialisation of GenericField parser for integer. ">
<polygon fill="white" stroke="black" points="966.5,-161 966.5,-195 1095.5,-195 1095.5,-161 966.5,-161"/>
<text text-anchor="start" x="974.5" y="-182" font-family="Helvetica,sans-Serif" font-size="10.00">fwComEd::parser::Integer</text>
<text text-anchor="middle" x="1031" y="-169" font-family="Helvetica,sans-Serif" font-size="10.00">Parser</text>
</a>
</g>
<!-- Node10&#45;&gt;Node13 -->
<g id="edge24" class="edge"><title>Node10&#45;&gt;Node13</title>
<path fill="none" stroke="midnightblue" d="M912.865,-191.934C930.582,-189.844 949.252,-187.642 966.386,-185.621"/>
<polygon fill="midnightblue" stroke="midnightblue" points="912.084,-188.502 902.563,-193.149 912.904,-195.453 912.084,-188.502"/>
</g>
<!-- Node14 -->
<g id="node27" class="node"><title>Node14</title>
<a xlink:href="classfwComEd_1_1parser_1_1StringParser.html" target="_top" xlink:title="Specialisation of GenericField parser for string. ">
<polygon fill="white" stroke="black" points="954.5,-121.5 954.5,-142.5 1107.5,-142.5 1107.5,-121.5 954.5,-121.5"/>
<text text-anchor="middle" x="1031" y="-129.5" font-family="Helvetica,sans-Serif" font-size="10.00">fwComEd::parser::StringParser</text>
</a>
</g>
<!-- Node10&#45;&gt;Node14 -->
<g id="edge26" class="edge"><title>Node10&#45;&gt;Node14</title>
<path fill="none" stroke="midnightblue" d="M905.62,-180.34C909.855,-178.648 914.012,-176.867 918,-175 935.196,-166.951 936.597,-159.591 954,-152 962.482,-148.3 971.798,-145.167 980.932,-142.557"/>
<polygon fill="midnightblue" stroke="midnightblue" points="904.367,-177.072 896.263,-183.896 906.854,-183.615 904.367,-177.072"/>
</g>
</g>
</svg>
        <g id="navigator" transform="translate(0 0)" fill="#404254">
                <rect fill="#f2f5e9" fill-opacity="0.5" stroke="#606060" stroke-width=".5" x="0" y="0" width="60" height="60"/>
                <use id="zoomplus" xlink:href="#zoomPlus" x="17" y="9" onmousedown="handleZoom(evt,'in')"/>
                <use id="zoomminus" xlink:href="#zoomMin" x="42" y="9" onmousedown="handleZoom(evt,'out')"/>
                <use id="reset" xlink:href="#resetDef" x="30" y="36" onmousedown="handleReset()"/>
                <g id="arrowUp" xlink:href="#dirArrow" transform="translate(30 24)" onmousedown="handlePan(0,-1)">
                  <use xlink:href="#rim" fill="#404040">
                        <set attributeName="fill" to="#808080" begin="arrowUp.mouseover" end="arrowUp.mouseout"/>
                  </use>
                  <path fill="none" stroke="white" stroke-width="1.5" d="M0,-3.0v7 M-2.5,-0.5L0,-3.0L2.5,-0.5"/>
                </g>
                <g id="arrowRight" xlink:href="#dirArrow" transform="rotate(90) translate(36 -43)" onmousedown="handlePan(1,0)">
                  <use xlink:href="#rim" fill="#404040">
                        <set attributeName="fill" to="#808080" begin="arrowRight.mouseover" end="arrowRight.mouseout"/>
                  </use>
                  <path fill="none" stroke="white" stroke-width="1.5" d="M0,-3.0v7 M-2.5,-0.5L0,-3.0L2.5,-0.5"/>
                </g>
                <g id="arrowDown" xlink:href="#dirArrow" transform="rotate(180) translate(-30 -48)" onmousedown="handlePan(0,1)">
                  <use xlink:href="#rim" fill="#404040">
                        <set attributeName="fill" to="#808080" begin="arrowDown.mouseover" end="arrowDown.mouseout"/>
                  </use>
                  <path fill="none" stroke="white" stroke-width="1.5" d="M0,-3.0v7 M-2.5,-0.5L0,-3.0L2.5,-0.5"/>
                </g>
                <g id="arrowLeft" xlink:href="#dirArrow" transform="rotate(270) translate(-36 17)" onmousedown="handlePan(-1,0)">
                  <use xlink:href="#rim" fill="#404040">
                        <set attributeName="fill" to="#808080" begin="arrowLeft.mouseover" end="arrowLeft.mouseout"/>
                  </use>
                  <path fill="none" stroke="white" stroke-width="1.5" d="M0,-3.0v7 M-2.5,-0.5L0,-3.0L2.5,-0.5"/>
                </g>
        </g>
        <svg viewBox="0 0 15 15" width="100%" height="30px" preserveAspectRatio="xMaxYMin meet">
         <g id="arrow_out" transform="scale(0.3 0.3)">
          <a xlink:href="classfwServices_1_1IXMLParser__inherit__graph_org.svg" target="_base">
           <rect id="button" ry="5" rx="5" y="6" x="6" height="38" width="38"
                fill="#f2f5e9" fill-opacity="0.5" stroke="#606060" stroke-width="1.0"/>
           <path id="arrow"
             d="M 11.500037,31.436501 C 11.940474,20.09759 22.043105,11.32322 32.158766,21.979434 L 37.068811,17.246167 C 37.068811,17.246167 37.088388,32 37.088388,32 L 22.160133,31.978069 C 22.160133,31.978069 26.997745,27.140456 26.997745,27.140456 C 18.528582,18.264221 13.291696,25.230495 11.500037,31.436501 z"
             style="fill:#404040;"/>
          </a>
         </g>
        </svg>
</svg>
