<?xml version="1.0" encoding="UTF-8" standalone="no"?>
<!DOCTYPE svg PUBLIC "-//W3C//DTD SVG 1.1//EN"
 "http://www.w3.org/Graphics/SVG/1.1/DTD/svg11.dtd">
<!-- Generated by graphviz version 2.26.3 (20100126.1600)
 -->
<!-- Title: fwGdcmIO::reader::tid::Fiducial::readNode Pages: 1 -->
<!--zoomable 56 -->
<svg id="main" version="1.1" xmlns="http://www.w3.org/2000/svg" xmlns:xlink="http://www.w3.org/1999/xlink" xml:space="preserve" onload="init(evt)">
<style type="text/css"><![CDATA[
.edge:hover path { stroke: red; }
.edge:hover polygon { stroke: red; fill: red; }
]]></style>
<script type="text/javascript"><![CDATA[
var edges = document.getElementsByTagName('g');
if (edges && edges.length) {
  for (var i=0;i<edges.length;i++) {
    if (edges[i].id.substr(0,4)=='edge') {
      edges[i].setAttribute('class','edge');
    }
  }
}
]]></script>
        <defs>
                <circle id="rim" cx="0" cy="0" r="7"/>
                <circle id="rim2" cx="0" cy="0" r="3.5"/>
                <g id="zoomPlus">
                        <use xlink:href="#rim" fill="#404040">
                                <set attributeName="fill" to="#808080" begin="zoomplus.mouseover" end="zoomplus.mouseout"/>
                        </use>
                        <path d="M-4,0h8M0,-4v8" fill="none" stroke="white" stroke-width="1.5" pointer-events="none"/>
                </g>
                <g id="zoomMin">
                        <use xlink:href="#rim" fill="#404040">
                                <set attributeName="fill" to="#808080" begin="zoomminus.mouseover" end="zoomminus.mouseout"/>
                        </use>
                        <path d="M-4,0h8" fill="none" stroke="white" stroke-width="1.5" pointer-events="none"/>
                </g>
                <g id="dirArrow">
                        <path fill="none" stroke="white" stroke-width="1.5" d="M0,-3.0v7 M-2.5,-0.5L0,-3.0L2.5,-0.5"/>
                </g>
               <g id="resetDef">
                       <use xlink:href="#rim2" fill="#404040">
                               <set attributeName="fill" to="#808080" begin="reset.mouseover" end="reset.mouseout"/>
                       </use>
               </g>
        </defs>

<script type="text/javascript">
var viewWidth = 774;
var viewHeight = 56;
var sectionId = 'dynsection-4';
</script>
<script xlink:href="svgpan.js"/>
<svg id="graph" class="graph">
<g id="viewport">
<title>fwGdcmIO::reader::tid::Fiducial::readNode</title>
<polygon fill="white" stroke="white" points="-4,5 -4,-52 771,-52 771,5 -4,5"/>
<!-- Node1 -->
<g id="node1" class="node"><title>Node1</title>
<polygon fill="#bfbfbf" stroke="black" points="0.5,-7 0.5,-41 113.5,-41 113.5,-7 0.5,-7"/>
<text text-anchor="start" x="8.5" y="-28" font-family="Helvetica,sans-Serif" font-size="10.00">fwGdcmIO::reader::tid</text>
<text text-anchor="middle" x="57" y="-15" font-family="Helvetica,sans-Serif" font-size="10.00">::Fiducial::readNode</text>
</g>
<!-- Node2 -->
<g id="node3" class="node"><title>Node2</title>
<a xlink:href="classfwGdcmIO_1_1reader_1_1tid_1_1MeasurementReport.html#a5e961cd53fcf137cd30bb64a429e0576" target="_top" xlink:title="Create Measurement Report template root node. ">
<polygon fill="white" stroke="black" points="150.5,-0.5 150.5,-47.5 267.5,-47.5 267.5,-0.5 150.5,-0.5"/>
<text text-anchor="start" x="158.5" y="-34.5" font-family="Helvetica,sans-Serif" font-size="10.00">fwGdcmIO::reader::tid</text>
<text text-anchor="start" x="158.5" y="-21.5" font-family="Helvetica,sans-Serif" font-size="10.00">::MeasurementReport::</text>
<text text-anchor="middle" x="209" y="-8.5" font-family="Helvetica,sans-Serif" font-size="10.00">readSR</text>
</a>
</g>
<!-- Node1&#45;&gt;Node2 -->
<g id="edge2" class="edge"><title>Node1&#45;&gt;Node2</title>
<path fill="none" stroke="midnightblue" d="M123.847,-24C132.666,-24 141.652,-24 150.321,-24"/>
<polygon fill="midnightblue" stroke="midnightblue" points="123.599,-20.5001 113.599,-24 123.599,-27.5001 123.599,-20.5001"/>
</g>
<!-- Node3 -->
<g id="node5" class="node"><title>Node3</title>
<a xlink:href="classfwGdcmIO_1_1reader_1_1ie_1_1Document.html#ae6da9916273eb44ed3e2373ae9afcd35" target="_top" xlink:title="Read the Structured Report. ">
<polygon fill="white" stroke="black" points="304,-7 304,-41 414,-41 414,-7 304,-7"/>
<text text-anchor="start" x="312" y="-28" font-family="Helvetica,sans-Serif" font-size="10.00">fwGdcmIO::reader::ie</text>
<text text-anchor="middle" x="359" y="-15" font-family="Helvetica,sans-Serif" font-size="10.00">::Document::readSR</text>
</a>
</g>
<!-- Node2&#45;&gt;Node3 -->
<g id="edge4" class="edge"><title>Node2&#45;&gt;Node3</title>
<path fill="none" stroke="midnightblue" d="M277.931,-24C286.582,-24 295.341,-24 303.745,-24"/>
<polygon fill="midnightblue" stroke="midnightblue" points="277.853,-20.5001 267.853,-24 277.853,-27.5001 277.853,-20.5001"/>
</g>
<!-- Node4 -->
<g id="node7" class="node"><title>Node4</title>
<a xlink:href="classfwGdcmIO_1_1reader_1_1iod_1_1ComprehensiveSRIOD.html#a748271e420dd95c9547a223b0e7a3568" target="_top" xlink:title="Read a DICOM File. ">
<polygon fill="white" stroke="black" points="450,-7 450,-41 598,-41 598,-7 450,-7"/>
<text text-anchor="start" x="458" y="-28" font-family="Helvetica,sans-Serif" font-size="10.00">fwGdcmIO::reader::iod</text>
<text text-anchor="middle" x="524" y="-15" font-family="Helvetica,sans-Serif" font-size="10.00">::ComprehensiveSRIOD::read</text>
</a>
</g>
<!-- Node3&#45;&gt;Node4 -->
<g id="edge6" class="edge"><title>Node3&#45;&gt;Node4</title>
<path fill="none" stroke="midnightblue" d="M424.477,-24C432.857,-24 441.482,-24 449.986,-24"/>
<polygon fill="midnightblue" stroke="midnightblue" points="424.402,-20.5001 414.402,-24 424.402,-27.5001 424.402,-20.5001"/>
</g>
<!-- Node5 -->
<g id="node9" class="node"><title>Node5</title>
<a xlink:href="classfwGdcmIO_1_1reader_1_1Series.html#a6a37a4d62baf8ed22f884c755372dfc0" target="_top" xlink:title="Destructor. ">
<polygon fill="white" stroke="black" points="634.5,-7 634.5,-41 765.5,-41 765.5,-7 634.5,-7"/>
<text text-anchor="start" x="642.5" y="-28" font-family="Helvetica,sans-Serif" font-size="10.00">fwGdcmIO::reader::Series</text>
<text text-anchor="middle" x="700" y="-15" font-family="Helvetica,sans-Serif" font-size="10.00">::~Series</text>
</a>
</g>
<!-- Node4&#45;&gt;Node5 -->
<g id="edge8" class="edge"><title>Node4&#45;&gt;Node5</title>
<path fill="none" stroke="midnightblue" d="M608.339,-24C617.073,-24 625.854,-24 634.339,-24"/>
<polygon fill="midnightblue" stroke="midnightblue" points="608.13,-20.5001 598.13,-24 608.13,-27.5001 608.13,-20.5001"/>
</g>
</g>
</svg>
        <g id="navigator" transform="translate(0 0)" fill="#404254">
                <rect fill="#f2f5e9" fill-opacity="0.5" stroke="#606060" stroke-width=".5" x="0" y="0" width="60" height="60"/>
                <use id="zoomplus" xlink:href="#zoomPlus" x="17" y="9" onmousedown="handleZoom(evt,'in')"/>
                <use id="zoomminus" xlink:href="#zoomMin" x="42" y="9" onmousedown="handleZoom(evt,'out')"/>
                <use id="reset" xlink:href="#resetDef" x="30" y="36" onmousedown="handleReset()"/>
                <g id="arrowUp" xlink:href="#dirArrow" transform="translate(30 24)" onmousedown="handlePan(0,-1)">
                  <use xlink:href="#rim" fill="#404040">
                        <set attributeName="fill" to="#808080" begin="arrowUp.mouseover" end="arrowUp.mouseout"/>
                  </use>
                  <path fill="none" stroke="white" stroke-width="1.5" d="M0,-3.0v7 M-2.5,-0.5L0,-3.0L2.5,-0.5"/>
                </g>
                <g id="arrowRight" xlink:href="#dirArrow" transform="rotate(90) translate(36 -43)" onmousedown="handlePan(1,0)">
                  <use xlink:href="#rim" fill="#404040">
                        <set attributeName="fill" to="#808080" begin="arrowRight.mouseover" end="arrowRight.mouseout"/>
                  </use>
                  <path fill="none" stroke="white" stroke-width="1.5" d="M0,-3.0v7 M-2.5,-0.5L0,-3.0L2.5,-0.5"/>
                </g>
                <g id="arrowDown" xlink:href="#dirArrow" transform="rotate(180) translate(-30 -48)" onmousedown="handlePan(0,1)">
                  <use xlink:href="#rim" fill="#404040">
                        <set attributeName="fill" to="#808080" begin="arrowDown.mouseover" end="arrowDown.mouseout"/>
                  </use>
                  <path fill="none" stroke="white" stroke-width="1.5" d="M0,-3.0v7 M-2.5,-0.5L0,-3.0L2.5,-0.5"/>
                </g>
                <g id="arrowLeft" xlink:href="#dirArrow" transform="rotate(270) translate(-36 17)" onmousedown="handlePan(-1,0)">
                  <use xlink:href="#rim" fill="#404040">
                        <set attributeName="fill" to="#808080" begin="arrowLeft.mouseover" end="arrowLeft.mouseout"/>
                  </use>
                  <path fill="none" stroke="white" stroke-width="1.5" d="M0,-3.0v7 M-2.5,-0.5L0,-3.0L2.5,-0.5"/>
                </g>
        </g>
        <svg viewBox="0 0 15 15" width="100%" height="30px" preserveAspectRatio="xMaxYMin meet">
         <g id="arrow_out" transform="scale(0.3 0.3)">
          <a xlink:href="classfwGdcmIO_1_1reader_1_1tid_1_1Fiducial_a1ae5908e2c27608344a2627b6ce07d7e_icgraph_org.svg" target="_base">
           <rect id="button" ry="5" rx="5" y="6" x="6" height="38" width="38"
                fill="#f2f5e9" fill-opacity="0.5" stroke="#606060" stroke-width="1.0"/>
           <path id="arrow"
             d="M 11.500037,31.436501 C 11.940474,20.09759 22.043105,11.32322 32.158766,21.979434 L 37.068811,17.246167 C 37.068811,17.246167 37.088388,32 37.088388,32 L 22.160133,31.978069 C 22.160133,31.978069 26.997745,27.140456 26.997745,27.140456 C 18.528582,18.264221 13.291696,25.230495 11.500037,31.436501 z"
             style="fill:#404040;"/>
          </a>
         </g>
        </svg>
</svg>
