<?xml version="1.0" encoding="UTF-8" standalone="no"?>
<!DOCTYPE svg PUBLIC "-//W3C//DTD SVG 1.1//EN"
 "http://www.w3.org/Graphics/SVG/1.1/DTD/svg11.dtd">
<!-- Generated by graphviz version 2.36.0 (20140111.2315)
 -->
<!-- Title: fwGdcmIO::writer::ie::Document::writeSRDocumentContentModule Pages: 1 -->
<svg width="918pt" height="87pt"
 viewBox="0.00 0.00 918.00 87.00" xmlns="http://www.w3.org/2000/svg" xmlns:xlink="http://www.w3.org/1999/xlink">
<g id="graph0" class="graph" transform="scale(1 1) rotate(0) translate(4 83)">
<title>fwGdcmIO::writer::ie::Document::writeSRDocumentContentModule</title>
<polygon fill="white" stroke="none" points="-4,4 -4,-83 914,-83 914,4 -4,4"/>
<!-- Node1 -->
<g id="node1" class="node"><title>Node1</title>
<polygon fill="#bfbfbf" stroke="black" points="0,-18.5 0,-59.5 154,-59.5 154,-18.5 0,-18.5"/>
<text text-anchor="start" x="8" y="-47.5" font-family="Helvetica,sans-Serif" font-size="10.00">fwGdcmIO::writer::ie</text>
<text text-anchor="start" x="8" y="-36.5" font-family="Helvetica,sans-Serif" font-size="10.00">::Document::writeSRDocument</text>
<text text-anchor="middle" x="77" y="-25.5" font-family="Helvetica,sans-Serif" font-size="10.00">ContentModule</text>
</g>
<!-- Node2 -->
<g id="node2" class="node"><title>Node2</title>
<g id="a_node2"><a xlink:href="classfwGdcmIO_1_1writer_1_1tid_1_1MeasurementReport.html#a4d19e873d6dcae893f685c018ca42aa1" target="_top" xlink:title="Create Measurement Report template root node. ">
<polygon fill="white" stroke="black" points="190.5,-18.5 190.5,-59.5 307.5,-59.5 307.5,-18.5 190.5,-18.5"/>
<text text-anchor="start" x="198.5" y="-47.5" font-family="Helvetica,sans-Serif" font-size="10.00">fwGdcmIO::writer::tid</text>
<text text-anchor="start" x="198.5" y="-36.5" font-family="Helvetica,sans-Serif" font-size="10.00">::MeasurementReport::</text>
<text text-anchor="middle" x="249" y="-25.5" font-family="Helvetica,sans-Serif" font-size="10.00">createRootNode</text>
</a>
</g>
</g>
<!-- Node1&#45;&gt;Node2 -->
<g id="edge1" class="edge"><title>Node1&#45;&gt;Node2</title>
<path fill="none" stroke="midnightblue" d="M154.05,-39C162.819,-39 171.716,-39 180.363,-39"/>
<polygon fill="midnightblue" stroke="midnightblue" points="180.375,-42.5001 190.375,-39 180.375,-35.5001 180.375,-42.5001"/>
</g>
<!-- Node3 -->
<g id="node3" class="node"><title>Node3</title>
<g id="a_node3"><a xlink:href="classfwGdcmIO_1_1writer_1_1tid_1_1Fiducial.html#a765f5b0831c4ca1346c7cc6b91dec5f4" target="_top" xlink:title="Create nodes according to the template. ">
<polygon fill="white" stroke="black" points="357,-49 357,-79 475,-79 475,-49 357,-49"/>
<text text-anchor="start" x="365" y="-67" font-family="Helvetica,sans-Serif" font-size="10.00">fwGdcmIO::writer::tid</text>
<text text-anchor="middle" x="416" y="-56" font-family="Helvetica,sans-Serif" font-size="10.00">::Fiducial::createNodes</text>
</a>
</g>
</g>
<!-- Node2&#45;&gt;Node3 -->
<g id="edge2" class="edge"><title>Node2&#45;&gt;Node3</title>
<path fill="none" stroke="midnightblue" d="M307.709,-47.7438C320.248,-49.6437 333.63,-51.6712 346.539,-53.6271"/>
<polygon fill="midnightblue" stroke="midnightblue" points="346.354,-57.139 356.766,-55.1766 347.403,-50.218 346.354,-57.139"/>
</g>
<!-- Node7 -->
<g id="node7" class="node"><title>Node7</title>
<g id="a_node7"><a xlink:href="classfwGdcmIO_1_1writer_1_1tid_1_1Measurement.html#a99bd0f78aa1e4acce1c286cc9a2463ac" target="_top" xlink:title="Create nodes according to the template. ">
<polygon fill="white" stroke="black" points="344.5,-0 344.5,-30 487.5,-30 487.5,-0 344.5,-0"/>
<text text-anchor="start" x="352.5" y="-18" font-family="Helvetica,sans-Serif" font-size="10.00">fwGdcmIO::writer::tid</text>
<text text-anchor="middle" x="416" y="-7" font-family="Helvetica,sans-Serif" font-size="10.00">::Measurement::createNodes</text>
</a>
</g>
</g>
<!-- Node2&#45;&gt;Node7 -->
<g id="edge6" class="edge"><title>Node2&#45;&gt;Node7</title>
<path fill="none" stroke="midnightblue" d="M307.709,-30.606C316.284,-29.3587 325.253,-28.0541 334.196,-26.7533"/>
<polygon fill="midnightblue" stroke="midnightblue" points="334.866,-30.1927 344.258,-25.2897 333.859,-23.2656 334.866,-30.1927"/>
</g>
<!-- Node4 -->
<g id="node4" class="node"><title>Node4</title>
<g id="a_node4"><a xlink:href="classfwGdcmIO_1_1writer_1_1tid_1_1Fiducial.html#a8deda5b60faa5cd934dfd49508890ef5" target="_top" xlink:title="Create a fiducial node. ">
<polygon fill="white" stroke="black" points="549.5,-49 549.5,-79 672.5,-79 672.5,-49 549.5,-49"/>
<text text-anchor="start" x="557.5" y="-67" font-family="Helvetica,sans-Serif" font-size="10.00">fwGdcmIO::writer::tid</text>
<text text-anchor="middle" x="611" y="-56" font-family="Helvetica,sans-Serif" font-size="10.00">::Fiducial::createFiducial</text>
</a>
</g>
</g>
<!-- Node3&#45;&gt;Node4 -->
<g id="edge3" class="edge"><title>Node3&#45;&gt;Node4</title>
<path fill="none" stroke="midnightblue" d="M475.168,-64C495.294,-64 518.076,-64 539.108,-64"/>
<polygon fill="midnightblue" stroke="midnightblue" points="539.274,-67.5001 549.273,-64 539.273,-60.5001 539.274,-67.5001"/>
</g>
<!-- Node5 -->
<g id="node5" class="node"><title>Node5</title>
<g id="a_node5"><a xlink:href="classfwGdcmIO_1_1container_1_1sr_1_1DicomSRNode.html#a37378b0c8dac3a7c538dd8571ee933b3" target="_top" xlink:title="Add a sub node. ">
<polygon fill="white" stroke="black" points="739.5,-49 739.5,-79 904.5,-79 904.5,-49 739.5,-49"/>
<text text-anchor="start" x="747.5" y="-67" font-family="Helvetica,sans-Serif" font-size="10.00">fwGdcmIO::container</text>
<text text-anchor="middle" x="822" y="-56" font-family="Helvetica,sans-Serif" font-size="10.00">::sr::DicomSRNode::addSubNode</text>
</a>
</g>
</g>
<!-- Node4&#45;&gt;Node5 -->
<g id="edge4" class="edge"><title>Node4&#45;&gt;Node5</title>
<path fill="none" stroke="midnightblue" d="M672.732,-64C690.406,-64 710.119,-64 729.253,-64"/>
<polygon fill="midnightblue" stroke="midnightblue" points="729.498,-67.5001 739.498,-64 729.498,-60.5001 729.498,-67.5001"/>
</g>
<!-- Node6 -->
<g id="node6" class="node"><title>Node6</title>
<g id="a_node6"><a xlink:href="classfwGdcmIO_1_1helper_1_1DicomDataTools.html#aedf5f34bec077d385e82fba6bcc7301d" target="_top" xlink:title="Convert a 3D point to the closest frame number index. ">
<polygon fill="white" stroke="black" points="734.5,-0 734.5,-30 909.5,-30 909.5,-0 734.5,-0"/>
<text text-anchor="start" x="742.5" y="-18" font-family="Helvetica,sans-Serif" font-size="10.00">fwGdcmIO::helper::DicomData</text>
<text text-anchor="middle" x="822" y="-7" font-family="Helvetica,sans-Serif" font-size="10.00">Tools::convertPointToFrameNumber</text>
</a>
</g>
</g>
<!-- Node4&#45;&gt;Node6 -->
<g id="edge5" class="edge"><title>Node4&#45;&gt;Node6</title>
<path fill="none" stroke="midnightblue" d="M672.732,-49.7613C695.931,-44.3225 722.641,-38.0602 746.945,-32.3622"/>
<polygon fill="midnightblue" stroke="midnightblue" points="747.901,-35.7331 756.838,-30.0428 746.303,-28.9179 747.901,-35.7331"/>
</g>
<!-- Node8 -->
<g id="node8" class="node"><title>Node8</title>
<g id="a_node8"><a xlink:href="classfwGdcmIO_1_1writer_1_1tid_1_1Measurement.html#aeea04ac76e75a207338bd2286b8d78e6" target="_top" xlink:title="Create a measurement node. ">
<polygon fill="white" stroke="black" points="524,-0 524,-30 698,-30 698,-0 524,-0"/>
<text text-anchor="start" x="532" y="-18" font-family="Helvetica,sans-Serif" font-size="10.00">fwGdcmIO::writer::tid</text>
<text text-anchor="middle" x="611" y="-7" font-family="Helvetica,sans-Serif" font-size="10.00">::Measurement::createMeasurement</text>
</a>
</g>
</g>
<!-- Node7&#45;&gt;Node8 -->
<g id="edge7" class="edge"><title>Node7&#45;&gt;Node8</title>
<path fill="none" stroke="midnightblue" d="M487.77,-15C496.199,-15 504.909,-15 513.619,-15"/>
<polygon fill="midnightblue" stroke="midnightblue" points="513.826,-18.5001 523.826,-15 513.826,-11.5001 513.826,-18.5001"/>
</g>
<!-- Node8&#45;&gt;Node5 -->
<g id="edge9" class="edge"><title>Node8&#45;&gt;Node5</title>
<path fill="none" stroke="midnightblue" d="M676.127,-30.0346C698.596,-35.3024 724.007,-41.2601 747.203,-46.6984"/>
<polygon fill="midnightblue" stroke="midnightblue" points="746.459,-50.1187 756.994,-48.9938 748.057,-43.3035 746.459,-50.1187"/>
</g>
<!-- Node8&#45;&gt;Node6 -->
<g id="edge8" class="edge"><title>Node8&#45;&gt;Node6</title>
<path fill="none" stroke="midnightblue" d="M698.215,-15C706.782,-15 715.518,-15 724.183,-15"/>
<polygon fill="midnightblue" stroke="midnightblue" points="724.308,-18.5001 734.308,-15 724.308,-11.5001 724.308,-18.5001"/>
</g>
</g>
</svg>
