<?xml version="1.0" encoding="UTF-8" standalone="no"?>
<!DOCTYPE svg PUBLIC "-//W3C//DTD SVG 1.1//EN"
 "http://www.w3.org/Graphics/SVG/1.1/DTD/svg11.dtd">
<!-- Generated by graphviz version 2.36.0 (20140111.2315)
 -->
<!-- Title: visuVTKAdaptor::SImageSliceOrientationText Pages: 1 -->
<!--zoomable 528 -->
<svg id="main" version="1.1" xmlns="http://www.w3.org/2000/svg" xmlns:xlink="http://www.w3.org/1999/xlink" xml:space="preserve" onload="init(evt)">
<style type="text/css"><![CDATA[
.edge:hover path { stroke: red; }
.edge:hover polygon { stroke: red; fill: red; }
]]></style>
<script type="text/javascript"><![CDATA[
var edges = document.getElementsByTagName('g');
if (edges && edges.length) {
  for (var i=0;i<edges.length;i++) {
    if (edges[i].id.substr(0,4)=='edge') {
      edges[i].setAttribute('class','edge');
    }
  }
}
]]></script>
        <defs>
                <circle id="rim" cx="0" cy="0" r="7"/>
                <circle id="rim2" cx="0" cy="0" r="3.5"/>
                <g id="zoomPlus">
                        <use xlink:href="#rim" fill="#404040">
                                <set attributeName="fill" to="#808080" begin="zoomplus.mouseover" end="zoomplus.mouseout"/>
                        </use>
                        <path d="M-4,0h8M0,-4v8" fill="none" stroke="white" stroke-width="1.5" pointer-events="none"/>
                </g>
                <g id="zoomMin">
                        <use xlink:href="#rim" fill="#404040">
                                <set attributeName="fill" to="#808080" begin="zoomminus.mouseover" end="zoomminus.mouseout"/>
                        </use>
                        <path d="M-4,0h8" fill="none" stroke="white" stroke-width="1.5" pointer-events="none"/>
                </g>
                <g id="dirArrow">
                        <path fill="none" stroke="white" stroke-width="1.5" d="M0,-3.0v7 M-2.5,-0.5L0,-3.0L2.5,-0.5"/>
                </g>
               <g id="resetDef">
                       <use xlink:href="#rim2" fill="#404040">
                               <set attributeName="fill" to="#808080" begin="reset.mouseover" end="reset.mouseout"/>
                       </use>
               </g>
        </defs>

<script type="text/javascript">
var viewWidth = 2088;
var viewHeight = 528;
var sectionId = 'dynsection-1';
</script>
<script xlink:href="svgpan.js"/>
<svg id="graph" class="graph">
<g id="viewport">
<title>visuVTKAdaptor::SImageSliceOrientationText</title>
<polygon fill="white" stroke="none" points="-4,4 -4,-524 2084,-524 2084,4 -4,4"/>
<!-- Node1 -->
<g id="node1" class="node"><title>Node1</title>
<polygon fill="#bfbfbf" stroke="black" points="1930.5,-422 1930.5,-452 2079.5,-452 2079.5,-422 1930.5,-422"/>
<text text-anchor="start" x="1938.5" y="-440" font-family="Helvetica,sans-Serif" font-size="10.00">visuVTKAdaptor::SImageSlice</text>
<text text-anchor="middle" x="2005" y="-429" font-family="Helvetica,sans-Serif" font-size="10.00">OrientationText</text>
</g>
<!-- Node2 -->
<g id="node2" class="node"><title>Node2</title>
<g id="a_node2"><a xlink:href="classfwDataTools_1_1helper_1_1MedicalImageAdaptor.html" target="_top" xlink:title="Helpers for medical image. ">
<polygon fill="white" stroke="black" points="1772.5,-489 1772.5,-519 1889.5,-519 1889.5,-489 1772.5,-489"/>
<text text-anchor="start" x="1780.5" y="-507" font-family="Helvetica,sans-Serif" font-size="10.00">fwDataTools::helper</text>
<text text-anchor="middle" x="1831" y="-496" font-family="Helvetica,sans-Serif" font-size="10.00">::MedicalImageAdaptor</text>
</a>
</g>
</g>
<!-- Node2&#45;&gt;Node1 -->
<g id="edge1" class="edge"><title>Node2&#45;&gt;Node1</title>
<path fill="none" stroke="midnightblue" d="M1882.43,-485.297C1892.25,-481.595 1902.46,-477.707 1912,-474 1930.13,-466.955 1950.18,-458.92 1966.93,-452.142"/>
<polygon fill="midnightblue" stroke="midnightblue" points="1880.9,-482.131 1872.77,-488.924 1883.36,-488.684 1880.9,-482.131"/>
</g>
<!-- Node3 -->
<g id="node3" class="node"><title>Node3</title>
<g id="a_node3"><a xlink:href="classfwRenderVTK_1_1IAdaptor.html" target="_top" xlink:title="Base class for VTK adaptors. ">
<polygon fill="white" stroke="black" points="1770.5,-261.5 1770.5,-280.5 1891.5,-280.5 1891.5,-261.5 1770.5,-261.5"/>
<text text-anchor="middle" x="1831" y="-268.5" font-family="Helvetica,sans-Serif" font-size="10.00">fwRenderVTK::IAdaptor</text>
</a>
</g>
</g>
<!-- Node3&#45;&gt;Node1 -->
<g id="edge2" class="edge"><title>Node3&#45;&gt;Node1</title>
<path fill="none" stroke="midnightblue" d="M1849.23,-287.627C1882.69,-319.921 1956.01,-390.68 1988.25,-421.801"/>
<polygon fill="midnightblue" stroke="midnightblue" points="1851.62,-285.068 1841.99,-280.642 1846.76,-290.105 1851.62,-285.068"/>
</g>
<!-- Node4 -->
<g id="node4" class="node"><title>Node4</title>
<g id="a_node4"><a xlink:href="classfwServices_1_1IService.html" target="_top" xlink:title="Base class for all services. ">
<polygon fill="white" stroke="black" points="1526.5,-211.5 1526.5,-230.5 1633.5,-230.5 1633.5,-211.5 1526.5,-211.5"/>
<text text-anchor="middle" x="1580" y="-218.5" font-family="Helvetica,sans-Serif" font-size="10.00">fwServices::IService</text>
</a>
</g>
</g>
<!-- Node4&#45;&gt;Node3 -->
<g id="edge3" class="edge"><title>Node4&#45;&gt;Node3</title>
<path fill="none" stroke="midnightblue" d="M1638.31,-232.509C1681.94,-241.27 1741.28,-253.186 1782.33,-261.428"/>
<polygon fill="midnightblue" stroke="midnightblue" points="1638.91,-229.06 1628.42,-230.522 1637.54,-235.923 1638.91,-229.06"/>
</g>
<!-- Node5 -->
<g id="node5" class="node"><title>Node5</title>
<g id="a_node5"><a xlink:href="classfwTools_1_1Object.html" target="_top" xlink:title="Define Base class for FW4SPL objects and services. ">
<polygon fill="white" stroke="black" points="385,-53.5 385,-72.5 471,-72.5 471,-53.5 385,-53.5"/>
<text text-anchor="middle" x="428" y="-60.5" font-family="Helvetica,sans-Serif" font-size="10.00">fwTools::Object</text>
</a>
</g>
</g>
<!-- Node5&#45;&gt;Node4 -->
<g id="edge4" class="edge"><title>Node5&#45;&gt;Node4</title>
<path fill="none" stroke="midnightblue" d="M461.73,-76.2893C478.313,-82.4388 498.929,-89.2077 518,-93 711.985,-131.574 765.467,-100.798 962,-123 1173.78,-146.924 1423.97,-191.86 1528.82,-211.456"/>
<polygon fill="midnightblue" stroke="midnightblue" points="462.567,-72.8626 451.976,-72.5726 460.074,-79.4039 462.567,-72.8626"/>
</g>
<!-- Node6 -->
<g id="node6" class="node"><title>Node6</title>
<g id="a_node6"><a xlink:href="classfwCore_1_1BaseObject.html" target="_top" xlink:title="Base class for all FW4SPL&#39;s classes. ">
<polygon fill="white" stroke="black" points="170.5,-5.5 170.5,-24.5 275.5,-24.5 275.5,-5.5 170.5,-5.5"/>
<text text-anchor="middle" x="223" y="-12.5" font-family="Helvetica,sans-Serif" font-size="10.00">fwCore::BaseObject</text>
</a>
</g>
</g>
<!-- Node6&#45;&gt;Node5 -->
<g id="edge5" class="edge"><title>Node6&#45;&gt;Node5</title>
<path fill="none" stroke="midnightblue" d="M274.492,-26.9391C309.052,-35.1109 354.273,-45.8034 386.478,-53.4185"/>
<polygon fill="midnightblue" stroke="midnightblue" points="275.129,-23.4932 264.592,-24.5982 273.518,-30.3054 275.129,-23.4932"/>
</g>
<!-- Node27 -->
<g id="node27" class="node"><title>Node27</title>
<g id="a_node27"><a xlink:href="structfwCom_1_1SlotConnectionBase.html" target="_top" xlink:title="Base class for Slot connection implementation. This class is for internal use purpose. ">
<polygon fill="white" stroke="black" points="356.5,-4.5 356.5,-23.5 499.5,-23.5 499.5,-4.5 356.5,-4.5"/>
<text text-anchor="middle" x="428" y="-11.5" font-family="Helvetica,sans-Serif" font-size="10.00">fwCom::SlotConnectionBase</text>
</a>
</g>
</g>
<!-- Node6&#45;&gt;Node27 -->
<g id="edge29" class="edge"><title>Node6&#45;&gt;Node27</title>
<path fill="none" stroke="midnightblue" d="M286.038,-14.6944C308.205,-14.5852 333.346,-14.4613 356.196,-14.3488"/>
<polygon fill="midnightblue" stroke="midnightblue" points="285.733,-11.1958 275.751,-14.7451 285.768,-18.1957 285.733,-11.1958"/>
</g>
<!-- Node7 -->
<g id="node7" class="node"><title>Node7</title>
<polygon fill="white" stroke="#bfbfbf" points="0.5,-0 0.5,-30 131.5,-30 131.5,-0 0.5,-0"/>
<text text-anchor="start" x="8.5" y="-18" font-family="Helvetica,sans-Serif" font-size="10.00">std::enable_shared</text>
<text text-anchor="middle" x="66" y="-7" font-family="Helvetica,sans-Serif" font-size="10.00">_from_this&lt; BaseObject &gt;</text>
</g>
<!-- Node7&#45;&gt;Node6 -->
<g id="edge6" class="edge"><title>Node7&#45;&gt;Node6</title>
<path fill="none" stroke="midnightblue" d="M142.089,-15C151.581,-15 161.12,-15 170.138,-15"/>
<polygon fill="midnightblue" stroke="midnightblue" points="141.836,-11.5001 131.836,-15 141.836,-18.5001 141.836,-11.5001"/>
</g>
<!-- Node8 -->
<g id="node8" class="node"><title>Node8</title>
<polygon fill="white" stroke="#bfbfbf" points="187.5,-84.5 187.5,-103.5 258.5,-103.5 258.5,-84.5 187.5,-84.5"/>
<text text-anchor="middle" x="223" y="-91.5" font-family="Helvetica,sans-Serif" font-size="10.00">noncopyable</text>
</g>
<!-- Node8&#45;&gt;Node5 -->
<g id="edge7" class="edge"><title>Node8&#45;&gt;Node5</title>
<path fill="none" stroke="midnightblue" d="M269.184,-87.1C303.744,-81.8224 351.048,-74.5986 384.834,-69.4391"/>
<polygon fill="midnightblue" stroke="midnightblue" points="268.254,-83.7013 258.897,-88.6709 269.311,-90.6211 268.254,-83.7013"/>
</g>
<!-- Node9 -->
<g id="node9" class="node"><title>Node9</title>
<g id="a_node9"><a xlink:href="classfwTools_1_1fwID.html" target="_top" xlink:title="Defines ID for fwTools::Object. It is used to associate ID with object. ">
<polygon fill="white" stroke="black" points="184,-46.5 184,-65.5 262,-65.5 262,-46.5 184,-46.5"/>
<text text-anchor="middle" x="223" y="-53.5" font-family="Helvetica,sans-Serif" font-size="10.00">fwTools::fwID</text>
</a>
</g>
</g>
<!-- Node9&#45;&gt;Node5 -->
<g id="edge8" class="edge"><title>Node9&#45;&gt;Node5</title>
<path fill="none" stroke="darkgreen" d="M272.415,-57.6695C306.629,-58.8493 352.043,-60.4153 384.784,-61.5443"/>
<polygon fill="darkgreen" stroke="darkgreen" points="272.297,-54.1634 262.183,-57.3166 272.056,-61.1593 272.297,-54.1634"/>
</g>
<!-- Node10 -->
<g id="node10" class="node"><title>Node10</title>
<g id="a_node10"><a xlink:href="classfwCom_1_1HasSlots.html" target="_top" xlink:title="This class proposes a mapping between a SlotKeyType and a SlotBase. ">
<polygon fill="white" stroke="black" points="1258.5,-211.5 1258.5,-230.5 1353.5,-230.5 1353.5,-211.5 1258.5,-211.5"/>
<text text-anchor="middle" x="1306" y="-218.5" font-family="Helvetica,sans-Serif" font-size="10.00">fwCom::HasSlots</text>
</a>
</g>
</g>
<!-- Node10&#45;&gt;Node4 -->
<g id="edge9" class="edge"><title>Node10&#45;&gt;Node4</title>
<path fill="none" stroke="midnightblue" d="M1363.96,-221C1411.83,-221 1479.73,-221 1526.35,-221"/>
<polygon fill="midnightblue" stroke="midnightblue" points="1363.76,-217.5 1353.76,-221 1363.76,-224.5 1363.76,-217.5"/>
</g>
<!-- Node11 -->
<g id="node11" class="node"><title>Node11</title>
<g id="a_node11"><a xlink:href="classfwCom_1_1Slots.html" target="_top" xlink:title="This class proposes a mapping between a SlotKeyType and a SlotBase. ">
<polygon fill="white" stroke="black" points="1028.5,-211.5 1028.5,-230.5 1105.5,-230.5 1105.5,-211.5 1028.5,-211.5"/>
<text text-anchor="middle" x="1067" y="-218.5" font-family="Helvetica,sans-Serif" font-size="10.00">fwCom::Slots</text>
</a>
</g>
</g>
<!-- Node11&#45;&gt;Node10 -->
<g id="edge10" class="edge"><title>Node11&#45;&gt;Node10</title>
<path fill="none" stroke="#9a32cd" stroke-dasharray="5,2" d="M1115.69,-221C1157.2,-221 1217.02,-221 1258.25,-221"/>
<polygon fill="#9a32cd" stroke="#9a32cd" points="1115.55,-217.5 1105.55,-221 1115.55,-224.5 1115.55,-217.5"/>
<text text-anchor="middle" x="1204" y="-224" font-family="Helvetica,sans-Serif" font-size="10.00"> m_slots</text>
</g>
<!-- Node12 -->
<g id="node12" class="node"><title>Node12</title>
<polygon fill="white" stroke="#bfbfbf" points="671,-204 671,-234 823,-234 823,-204 671,-204"/>
<text text-anchor="start" x="679" y="-222" font-family="Helvetica,sans-Serif" font-size="10.00">std::map&lt; SlotKeyType,</text>
<text text-anchor="middle" x="747" y="-211" font-family="Helvetica,sans-Serif" font-size="10.00"> std::shared_ptr&lt; SlotBase &gt; &gt;</text>
</g>
<!-- Node12&#45;&gt;Node11 -->
<g id="edge11" class="edge"><title>Node12&#45;&gt;Node11</title>
<path fill="none" stroke="#9a32cd" stroke-dasharray="5,2" d="M833.372,-219.537C896.877,-219.936 980.493,-220.462 1028.24,-220.762"/>
<polygon fill="#9a32cd" stroke="#9a32cd" points="833.383,-216.037 823.362,-219.474 833.339,-223.037 833.383,-216.037"/>
<text text-anchor="middle" x="904" y="-224" font-family="Helvetica,sans-Serif" font-size="10.00"> m_slots</text>
</g>
<!-- Node13 -->
<g id="node13" class="node"><title>Node13</title>
<g id="a_node13"><a xlink:title="STL class. ">
<polygon fill="white" stroke="#bfbfbf" points="398,-336.5 398,-355.5 458,-355.5 458,-336.5 398,-336.5"/>
<text text-anchor="middle" x="428" y="-343.5" font-family="Helvetica,sans-Serif" font-size="10.00">std::string</text>
</a>
</g>
</g>
<!-- Node13&#45;&gt;Node1 -->
<g id="edge40" class="edge"><title>Node13&#45;&gt;Node1</title>
<path fill="none" stroke="#9a32cd" stroke-dasharray="5,2" d="M439.129,-364.398C453.293,-388.063 481.44,-428.23 518,-446 609.31,-490.382 644.476,-460 746,-460 746,-460 746,-460 1832,-460 1864.39,-460 1899.9,-455.944 1930.21,-451.239"/>
<polygon fill="#9a32cd" stroke="#9a32cd" points="442.115,-362.57 434.085,-355.658 436.052,-366.069 442.115,-362.57"/>
<text text-anchor="middle" x="1306" y="-474" font-family="Helvetica,sans-Serif" font-size="10.00"> m_initialOrientation</text>
<text text-anchor="middle" x="1306" y="-463" font-family="Helvetica,sans-Serif" font-size="10.00">m_locations</text>
</g>
<!-- Node13&#45;&gt;Node3 -->
<g id="edge34" class="edge"><title>Node13&#45;&gt;Node3</title>
<path fill="none" stroke="#9a32cd" stroke-dasharray="5,2" d="M468.46,-345.313C512.454,-344.122 585.626,-340.87 648,-332 656.114,-330.846 657.884,-329.134 666,-328 770.502,-313.397 797.483,-314 903,-314 903,-314 903,-314 1581,-314 1659.09,-314 1748.97,-293.211 1796.49,-280.543"/>
<polygon fill="#9a32cd" stroke="#9a32cd" points="468.105,-341.821 458.195,-345.568 468.279,-348.819 468.105,-341.821"/>
<text text-anchor="middle" x="1204" y="-339" font-family="Helvetica,sans-Serif" font-size="10.00"> m_pickerId</text>
<text text-anchor="middle" x="1204" y="-328" font-family="Helvetica,sans-Serif" font-size="10.00">m_transformId</text>
<text text-anchor="middle" x="1204" y="-317" font-family="Helvetica,sans-Serif" font-size="10.00">m_rendererId</text>
</g>
<!-- Node13&#45;&gt;Node12 -->
<g id="edge12" class="edge"><title>Node13&#45;&gt;Node12</title>
<path fill="none" stroke="#9a32cd" stroke-dasharray="5,2" d="M447.611,-329.569C464.699,-315.427 491.341,-295.664 518,-285 572.341,-263.264 596.954,-292.631 648,-264 658.721,-257.987 655.696,-249.704 666,-243 671.226,-239.6 676.954,-236.664 682.867,-234.134"/>
<polygon fill="#9a32cd" stroke="#9a32cd" points="444.954,-327.234 439.597,-336.374 449.485,-332.57 444.954,-327.234"/>
<text text-anchor="middle" x="583" y="-288" font-family="Helvetica,sans-Serif" font-size="10.00"> keys</text>
</g>
<!-- Node20 -->
<g id="node20" class="node"><title>Node20</title>
<polygon fill="white" stroke="#bfbfbf" points="666.5,-253 666.5,-283 827.5,-283 827.5,-253 666.5,-253"/>
<text text-anchor="start" x="674.5" y="-271" font-family="Helvetica,sans-Serif" font-size="10.00">std::map&lt; SignalKeyType,</text>
<text text-anchor="middle" x="747" y="-260" font-family="Helvetica,sans-Serif" font-size="10.00"> std::shared_ptr&lt; SignalBase &gt; &gt;</text>
</g>
<!-- Node13&#45;&gt;Node20 -->
<g id="edge20" class="edge"><title>Node13&#45;&gt;Node20</title>
<path fill="none" stroke="#9a32cd" stroke-dasharray="5,2" d="M467.856,-334.187C483.366,-329.707 501.443,-324.78 518,-321 575.203,-307.939 590.953,-311.724 648,-298 665.473,-293.797 684.412,-288.24 700.942,-283.053"/>
<polygon fill="#9a32cd" stroke="#9a32cd" points="466.69,-330.881 458.076,-337.049 468.656,-337.599 466.69,-330.881"/>
<text text-anchor="middle" x="583" y="-324" font-family="Helvetica,sans-Serif" font-size="10.00"> keys</text>
</g>
<!-- Node31 -->
<g id="node31" class="node"><title>Node31</title>
<g id="a_node31"><a xlink:href="classvisuVTKAdaptor_1_1ImageSliceOrientationTextPImpl.html" target="_top" xlink:title="visuVTKAdaptor::ImageSlice\lOrientationTextPImpl">
<polygon fill="white" stroke="black" points="675.5,-401 675.5,-431 818.5,-431 818.5,-401 675.5,-401"/>
<text text-anchor="start" x="683.5" y="-419" font-family="Helvetica,sans-Serif" font-size="10.00">visuVTKAdaptor::ImageSlice</text>
<text text-anchor="middle" x="747" y="-408" font-family="Helvetica,sans-Serif" font-size="10.00">OrientationTextPImpl</text>
</a>
</g>
</g>
<!-- Node13&#45;&gt;Node31 -->
<g id="edge37" class="edge"><title>Node13&#45;&gt;Node31</title>
<path fill="none" stroke="#9a32cd" stroke-dasharray="5,2" d="M468.257,-351.143C521.789,-358.32 614.823,-371.421 648,-380 654.01,-381.554 681.654,-391.755 706.056,-400.903"/>
<polygon fill="#9a32cd" stroke="#9a32cd" points="468.482,-347.642 458.107,-349.79 467.557,-354.581 468.482,-347.642"/>
<text text-anchor="middle" x="583" y="-438" font-family="Helvetica,sans-Serif" font-size="10.00"> m_leftStr</text>
<text text-anchor="middle" x="583" y="-427" font-family="Helvetica,sans-Serif" font-size="10.00">m_rightStr</text>
<text text-anchor="middle" x="583" y="-416" font-family="Helvetica,sans-Serif" font-size="10.00">m_inferiorStr</text>
<text text-anchor="middle" x="583" y="-405" font-family="Helvetica,sans-Serif" font-size="10.00">m_porteriorStr</text>
<text text-anchor="middle" x="583" y="-394" font-family="Helvetica,sans-Serif" font-size="10.00">m_anteriorStr</text>
<text text-anchor="middle" x="583" y="-383" font-family="Helvetica,sans-Serif" font-size="10.00">m_superiorStr</text>
</g>
<!-- Node14 -->
<g id="node14" class="node"><title>Node14</title>
<g id="a_node14"><a xlink:title="STL class. ">
<polygon fill="white" stroke="#bfbfbf" points="175.5,-331 175.5,-361 270.5,-361 270.5,-331 175.5,-331"/>
<text text-anchor="start" x="183.5" y="-349" font-family="Helvetica,sans-Serif" font-size="10.00">std::basic_string&lt;</text>
<text text-anchor="middle" x="223" y="-338" font-family="Helvetica,sans-Serif" font-size="10.00"> char &gt;</text>
</a>
</g>
</g>
<!-- Node14&#45;&gt;Node13 -->
<g id="edge13" class="edge"><title>Node14&#45;&gt;Node13</title>
<path fill="none" stroke="midnightblue" d="M281.005,-346C319.056,-346 367.51,-346 397.901,-346"/>
<polygon fill="midnightblue" stroke="midnightblue" points="280.572,-342.5 270.572,-346 280.572,-349.5 280.572,-342.5"/>
</g>
<!-- Node15 -->
<g id="node15" class="node"><title>Node15</title>
<g id="a_node15"><a xlink:title="STL class. ">
<polygon fill="white" stroke="#bfbfbf" points="382,-192.5 382,-211.5 474,-211.5 474,-192.5 382,-192.5"/>
<text text-anchor="middle" x="428" y="-199.5" font-family="Helvetica,sans-Serif" font-size="10.00">std::map&lt; K, T &gt;</text>
</a>
</g>
</g>
<!-- Node15&#45;&gt;Node12 -->
<g id="edge14" class="edge"><title>Node15&#45;&gt;Node12</title>
<path fill="none" stroke="orange" stroke-dasharray="5,2" d="M460.128,-188.731C476.93,-182.285 498.227,-175.243 518,-172 575.016,-162.649 591.66,-159.189 648,-172 674.864,-178.109 702.961,-192.537 722.147,-203.808"/>
<polygon fill="orange" stroke="orange" points="458.809,-185.489 450.8,-192.425 461.387,-191.998 458.809,-185.489"/>
<text text-anchor="start" x="523.5" y="-186" font-family="Helvetica,sans-Serif" font-size="10.00"> &lt; SlotKeyType, std</text>
<text text-anchor="middle" x="583" y="-175" font-family="Helvetica,sans-Serif" font-size="10.00">::shared_ptr&lt; SlotBase &gt; &gt;</text>
</g>
<!-- Node15&#45;&gt;Node20 -->
<g id="edge21" class="edge"><title>Node15&#45;&gt;Node20</title>
<path fill="none" stroke="orange" stroke-dasharray="5,2" d="M484.347,-198.626C540.082,-196.258 621.5,-195.928 648,-212 661.622,-220.262 653.55,-233.059 666,-243 670.89,-246.904 676.394,-250.202 682.168,-252.987"/>
<polygon fill="orange" stroke="orange" points="484.087,-195.134 474.258,-199.088 484.408,-202.126 484.087,-195.134"/>
<text text-anchor="start" x="518.5" y="-226" font-family="Helvetica,sans-Serif" font-size="10.00"> &lt; SignalKeyType, std</text>
<text text-anchor="middle" x="583" y="-215" font-family="Helvetica,sans-Serif" font-size="10.00">::shared_ptr&lt; SignalBase &gt; &gt;</text>
</g>
<!-- Node16 -->
<g id="node16" class="node"><title>Node16</title>
<polygon fill="white" stroke="#bfbfbf" points="208.5,-209.5 208.5,-228.5 237.5,-228.5 237.5,-209.5 208.5,-209.5"/>
<text text-anchor="middle" x="223" y="-216.5" font-family="Helvetica,sans-Serif" font-size="10.00">K</text>
</g>
<!-- Node16&#45;&gt;Node15 -->
<g id="edge15" class="edge"><title>Node16&#45;&gt;Node15</title>
<path fill="none" stroke="#9a32cd" stroke-dasharray="5,2" d="M247.633,-217.021C280.366,-214.28 340.153,-209.273 381.658,-205.797"/>
<polygon fill="#9a32cd" stroke="#9a32cd" points="247.308,-213.536 237.635,-217.858 247.892,-220.511 247.308,-213.536"/>
<text text-anchor="middle" x="316" y="-217" font-family="Helvetica,sans-Serif" font-size="10.00"> keys</text>
</g>
<!-- Node17 -->
<g id="node17" class="node"><title>Node17</title>
<polygon fill="white" stroke="#bfbfbf" points="208.5,-156.5 208.5,-175.5 237.5,-175.5 237.5,-156.5 208.5,-156.5"/>
<text text-anchor="middle" x="223" y="-163.5" font-family="Helvetica,sans-Serif" font-size="10.00">T</text>
</g>
<!-- Node17&#45;&gt;Node15 -->
<g id="edge16" class="edge"><title>Node17&#45;&gt;Node15</title>
<path fill="none" stroke="#9a32cd" stroke-dasharray="5,2" d="M247.633,-170.191C280.366,-175.996 340.153,-186.599 381.658,-193.959"/>
<polygon fill="#9a32cd" stroke="#9a32cd" points="248.092,-166.718 237.635,-168.418 246.87,-173.61 248.092,-166.718"/>
<text text-anchor="middle" x="316" y="-190" font-family="Helvetica,sans-Serif" font-size="10.00"> elements</text>
</g>
<!-- Node28 -->
<g id="node28" class="node"><title>Node28</title>
<g id="a_node28"><a xlink:title="STL class. ">
<polygon fill="white" stroke="#bfbfbf" points="378,-99.5 378,-118.5 478,-118.5 478,-99.5 378,-99.5"/>
<text text-anchor="middle" x="428" y="-106.5" font-family="Helvetica,sans-Serif" font-size="10.00">std::weak_ptr&lt; T &gt;</text>
</a>
</g>
</g>
<!-- Node17&#45;&gt;Node28 -->
<g id="edge31" class="edge"><title>Node17&#45;&gt;Node28</title>
<path fill="none" stroke="#9a32cd" stroke-dasharray="5,2" d="M242.245,-149.405C255.554,-138.383 274.589,-124.743 294,-118 320.671,-108.735 352.127,-106.257 377.75,-106.201"/>
<polygon fill="#9a32cd" stroke="#9a32cd" points="239.678,-146.996 234.38,-156.171 244.244,-152.303 239.678,-146.996"/>
<text text-anchor="middle" x="316" y="-121" font-family="Helvetica,sans-Serif" font-size="10.00"> ptr</text>
</g>
<!-- Node29 -->
<g id="node29" class="node"><title>Node29</title>
<g id="a_node29"><a xlink:title="STL class. ">
<polygon fill="white" stroke="#bfbfbf" points="546.5,-128.5 546.5,-147.5 619.5,-147.5 619.5,-128.5 546.5,-128.5"/>
<text text-anchor="middle" x="583" y="-135.5" font-family="Helvetica,sans-Serif" font-size="10.00">std::list&lt; T &gt;</text>
</a>
</g>
</g>
<!-- Node17&#45;&gt;Node29 -->
<g id="edge33" class="edge"><title>Node17&#45;&gt;Node29</title>
<path fill="none" stroke="#9a32cd" stroke-dasharray="5,2" d="M247.83,-164.136C309.27,-159.331 473.333,-146.499 546.233,-140.797"/>
<polygon fill="#9a32cd" stroke="#9a32cd" points="247.293,-160.667 237.597,-164.937 247.839,-167.646 247.293,-160.667"/>
<text text-anchor="middle" x="316" y="-164" font-family="Helvetica,sans-Serif" font-size="10.00"> elements</text>
</g>
<!-- Node32 -->
<g id="node32" class="node"><title>Node32</title>
<g id="a_node32"><a xlink:title="STL class. ">
<polygon fill="white" stroke="#bfbfbf" points="530.5,-243.5 530.5,-262.5 635.5,-262.5 635.5,-243.5 530.5,-243.5"/>
<text text-anchor="middle" x="583" y="-250.5" font-family="Helvetica,sans-Serif" font-size="10.00">std::unique_ptr&lt; T &gt;</text>
</a>
</g>
</g>
<!-- Node17&#45;&gt;Node32 -->
<g id="edge39" class="edge"><title>Node17&#45;&gt;Node32</title>
<path fill="none" stroke="#9a32cd" stroke-dasharray="5,2" d="M246.403,-177.709C256.222,-183.543 267.433,-191.229 276,-200 286.599,-210.852 281.061,-221.081 294,-229 366.536,-273.395 469.275,-269.523 530.422,-261.837"/>
<polygon fill="#9a32cd" stroke="#9a32cd" points="247.977,-174.578 237.548,-172.707 244.534,-180.673 247.977,-174.578"/>
<text text-anchor="middle" x="316" y="-251" font-family="Helvetica,sans-Serif" font-size="10.00"> ptr</text>
</g>
<!-- Node18 -->
<g id="node18" class="node"><title>Node18</title>
<g id="a_node18"><a xlink:href="classfwCom_1_1HasSignals.html" target="_top" xlink:title="This class proposes a mapping between a SignalKeyType and a SignalBase. ">
<polygon fill="white" stroke="black" points="1254,-250.5 1254,-269.5 1358,-269.5 1358,-250.5 1254,-250.5"/>
<text text-anchor="middle" x="1306" y="-257.5" font-family="Helvetica,sans-Serif" font-size="10.00">fwCom::HasSignals</text>
</a>
</g>
</g>
<!-- Node18&#45;&gt;Node4 -->
<g id="edge17" class="edge"><title>Node18&#45;&gt;Node4</title>
<path fill="none" stroke="midnightblue" d="M1368.32,-251.207C1415.84,-244.394 1481,-235.052 1526.21,-228.569"/>
<polygon fill="midnightblue" stroke="midnightblue" points="1367.56,-247.78 1358.16,-252.664 1368.56,-254.71 1367.56,-247.78"/>
</g>
<!-- Node19 -->
<g id="node19" class="node"><title>Node19</title>
<g id="a_node19"><a xlink:href="classfwCom_1_1Signals.html" target="_top" xlink:title="This class proposes a mapping between a SignalKeyType and a SignalBase. ">
<polygon fill="white" stroke="black" points="1024,-250.5 1024,-269.5 1110,-269.5 1110,-250.5 1024,-250.5"/>
<text text-anchor="middle" x="1067" y="-257.5" font-family="Helvetica,sans-Serif" font-size="10.00">fwCom::Signals</text>
</a>
</g>
</g>
<!-- Node19&#45;&gt;Node18 -->
<g id="edge18" class="edge"><title>Node19&#45;&gt;Node18</title>
<path fill="none" stroke="#9a32cd" stroke-dasharray="5,2" d="M1120.12,-260C1159.86,-260 1214.3,-260 1253.81,-260"/>
<polygon fill="#9a32cd" stroke="#9a32cd" points="1120.1,-256.5 1110.1,-260 1120.1,-263.5 1120.1,-256.5"/>
<text text-anchor="middle" x="1204" y="-263" font-family="Helvetica,sans-Serif" font-size="10.00"> m_signals</text>
</g>
<!-- Node20&#45;&gt;Node19 -->
<g id="edge19" class="edge"><title>Node20&#45;&gt;Node19</title>
<path fill="none" stroke="#9a32cd" stroke-dasharray="5,2" d="M837.845,-265.74C898.771,-264.207 976.523,-262.251 1023.72,-261.064"/>
<polygon fill="#9a32cd" stroke="#9a32cd" points="837.743,-262.241 827.834,-265.992 837.919,-269.239 837.743,-262.241"/>
<text text-anchor="middle" x="904" y="-269" font-family="Helvetica,sans-Serif" font-size="10.00"> m_signals</text>
</g>
<!-- Node21 -->
<g id="node21" class="node"><title>Node21</title>
<polygon fill="white" stroke="#bfbfbf" points="1285.5,-69.5 1285.5,-88.5 1326.5,-88.5 1326.5,-69.5 1285.5,-69.5"/>
<text text-anchor="middle" x="1306" y="-76.5" font-family="Helvetica,sans-Serif" font-size="10.00">static</text>
</g>
<!-- Node21&#45;&gt;Node4 -->
<g id="edge22" class="edge"><title>Node21&#45;&gt;Node4</title>
<path fill="none" stroke="#9a32cd" stroke-dasharray="5,2" d="M1336.36,-70.6866C1372.04,-62.3016 1433.05,-53.6226 1478,-77 1492.49,-84.5378 1553.33,-180.099 1572.91,-211.253"/>
<polygon fill="#9a32cd" stroke="#9a32cd" points="1335.42,-67.3119 1326.57,-73.1301 1337.12,-74.1035 1335.42,-67.3119"/>
<text text-anchor="middle" x="1427" y="-168" font-family="Helvetica,sans-Serif" font-size="10.00"> s_STOPPED_SIG</text>
<text text-anchor="middle" x="1427" y="-157" font-family="Helvetica,sans-Serif" font-size="10.00">s_UPDATED_SIG</text>
<text text-anchor="middle" x="1427" y="-146" font-family="Helvetica,sans-Serif" font-size="10.00">s_UPDATE_SLOT</text>
<text text-anchor="middle" x="1427" y="-135" font-family="Helvetica,sans-Serif" font-size="10.00">s_STARTED_SIG</text>
<text text-anchor="middle" x="1427" y="-124" font-family="Helvetica,sans-Serif" font-size="10.00">s_SWAPKEY_SLOT</text>
<text text-anchor="middle" x="1427" y="-113" font-family="Helvetica,sans-Serif" font-size="10.00">s_SWAP_SLOT</text>
<text text-anchor="middle" x="1427" y="-102" font-family="Helvetica,sans-Serif" font-size="10.00">s_STOP_SLOT</text>
<text text-anchor="middle" x="1427" y="-91" font-family="Helvetica,sans-Serif" font-size="10.00">s_START_SLOT</text>
<text text-anchor="middle" x="1427" y="-80" font-family="Helvetica,sans-Serif" font-size="10.00">s_DEFAULT_OBJECT</text>
</g>
<!-- Node22 -->
<g id="node22" class="node"><title>Node22</title>
<g id="a_node22"><a xlink:href="classfwServices_1_1IHasServices.html" target="_top" xlink:title="Interface for objects that need to manage services. ">
<polygon fill="white" stroke="black" points="1514.5,-261.5 1514.5,-280.5 1645.5,-280.5 1645.5,-261.5 1514.5,-261.5"/>
<text text-anchor="middle" x="1580" y="-268.5" font-family="Helvetica,sans-Serif" font-size="10.00">fwServices::IHasServices</text>
</a>
</g>
</g>
<!-- Node22&#45;&gt;Node3 -->
<g id="edge23" class="edge"><title>Node22&#45;&gt;Node3</title>
<path fill="none" stroke="midnightblue" d="M1655.9,-271C1692.49,-271 1735.92,-271 1770.25,-271"/>
<polygon fill="midnightblue" stroke="midnightblue" points="1655.77,-267.5 1645.77,-271 1655.77,-274.5 1655.77,-267.5"/>
</g>
<!-- Node23 -->
<g id="node23" class="node"><title>Node23</title>
<g id="a_node23"><a xlink:href="classfwCom_1_1helper_1_1SigSlotConnection.html" target="_top" xlink:title="This class provides few tools to ease connect/disconnect between a signal emitter and a slot receiver...">
<polygon fill="white" stroke="black" points="1496.5,-64.5 1496.5,-83.5 1663.5,-83.5 1663.5,-64.5 1496.5,-64.5"/>
<text text-anchor="middle" x="1580" y="-71.5" font-family="Helvetica,sans-Serif" font-size="10.00">fwCom::helper::SigSlotConnection</text>
</a>
</g>
</g>
<!-- Node23&#45;&gt;Node3 -->
<g id="edge24" class="edge"><title>Node23&#45;&gt;Node3</title>
<path fill="none" stroke="#9a32cd" stroke-dasharray="5,2" d="M1601.07,-89.8773C1650.67,-129.117 1777.89,-229.77 1817.82,-261.363"/>
<polygon fill="#9a32cd" stroke="#9a32cd" points="1603.02,-86.9615 1593.01,-83.5017 1598.68,-92.4512 1603.02,-86.9615"/>
<text text-anchor="middle" x="1717" y="-211" font-family="Helvetica,sans-Serif" font-size="10.00"> m_connections</text>
</g>
<!-- Node24 -->
<g id="node24" class="node"><title>Node24</title>
<polygon fill="white" stroke="#bfbfbf" points="1258.5,-20 1258.5,-50 1353.5,-50 1353.5,-20 1258.5,-20"/>
<text text-anchor="start" x="1266.5" y="-38" font-family="Helvetica,sans-Serif" font-size="10.00">std::list&lt; ::fwCom</text>
<text text-anchor="middle" x="1306" y="-27" font-family="Helvetica,sans-Serif" font-size="10.00">::Connection &gt;</text>
</g>
<!-- Node24&#45;&gt;Node23 -->
<g id="edge25" class="edge"><title>Node24&#45;&gt;Node23</title>
<path fill="none" stroke="#9a32cd" stroke-dasharray="5,2" d="M1363.85,-34.1032C1397.31,-34.4574 1440.32,-36.4437 1478,-43 1504.56,-47.6221 1533.92,-57.1576 1554.11,-64.4397"/>
<polygon fill="#9a32cd" stroke="#9a32cd" points="1363.81,-30.603 1353.79,-34.0425 1363.77,-37.6029 1363.81,-30.603"/>
<text text-anchor="middle" x="1427" y="-46" font-family="Helvetica,sans-Serif" font-size="10.00"> m_connections</text>
</g>
<!-- Node25 -->
<g id="node25" class="node"><title>Node25</title>
<g id="a_node25"><a xlink:href="structfwCom_1_1Connection.html" target="_top" xlink:title="Class managing Signal&#45;Slot connections. ">
<polygon fill="white" stroke="black" points="1015,-25.5 1015,-44.5 1119,-44.5 1119,-25.5 1015,-25.5"/>
<text text-anchor="middle" x="1067" y="-32.5" font-family="Helvetica,sans-Serif" font-size="10.00">fwCom::Connection</text>
</a>
</g>
</g>
<!-- Node25&#45;&gt;Node24 -->
<g id="edge26" class="edge"><title>Node25&#45;&gt;Node24</title>
<path fill="none" stroke="#9a32cd" stroke-dasharray="5,2" d="M1129.37,-35C1169.64,-35 1221.48,-35 1258.38,-35"/>
<polygon fill="#9a32cd" stroke="#9a32cd" points="1129.13,-31.5001 1119.13,-35 1129.13,-38.5001 1129.13,-31.5001"/>
<text text-anchor="middle" x="1204" y="-38" font-family="Helvetica,sans-Serif" font-size="10.00"> elements</text>
</g>
<!-- Node26 -->
<g id="node26" class="node"><title>Node26</title>
<polygon fill="white" stroke="#bfbfbf" points="671,-20 671,-50 823,-50 823,-20 671,-20"/>
<text text-anchor="start" x="679" y="-38" font-family="Helvetica,sans-Serif" font-size="10.00">std::weak_ptr&lt; SlotConnection</text>
<text text-anchor="middle" x="747" y="-27" font-family="Helvetica,sans-Serif" font-size="10.00">Base &gt;</text>
</g>
<!-- Node26&#45;&gt;Node25 -->
<g id="edge27" class="edge"><title>Node26&#45;&gt;Node25</title>
<path fill="none" stroke="#9a32cd" stroke-dasharray="5,2" d="M833.609,-35C891.553,-35 966.156,-35 1014.99,-35"/>
<polygon fill="#9a32cd" stroke="#9a32cd" points="833.362,-31.5001 823.362,-35 833.362,-38.5001 833.362,-31.5001"/>
<text text-anchor="middle" x="904" y="-38" font-family="Helvetica,sans-Serif" font-size="10.00"> m_connectionBase</text>
</g>
<!-- Node27&#45;&gt;Node26 -->
<g id="edge28" class="edge"><title>Node27&#45;&gt;Node26</title>
<path fill="none" stroke="#9a32cd" stroke-dasharray="5,2" d="M509.783,-19.3515C559.313,-22.6327 622.299,-26.8053 670.773,-30.0165"/>
<polygon fill="#9a32cd" stroke="#9a32cd" points="509.956,-15.8554 499.746,-18.6867 509.493,-22.8401 509.956,-15.8554"/>
<text text-anchor="middle" x="583" y="-32" font-family="Helvetica,sans-Serif" font-size="10.00"> ptr</text>
</g>
<!-- Node28&#45;&gt;Node26 -->
<g id="edge30" class="edge"><title>Node28&#45;&gt;Node26</title>
<path fill="none" stroke="orange" stroke-dasharray="5,2" d="M479.623,-97.1826C534.38,-84.4001 621.827,-63.9866 681.478,-50.0619"/>
<polygon fill="orange" stroke="orange" points="478.736,-93.7956 469.793,-99.4773 480.327,-100.612 478.736,-93.7956"/>
<text text-anchor="middle" x="583" y="-91" font-family="Helvetica,sans-Serif" font-size="10.00"> &lt; SlotConnectionBase &gt;</text>
</g>
<!-- Node29&#45;&gt;Node24 -->
<g id="edge32" class="edge"><title>Node29&#45;&gt;Node24</title>
<path fill="none" stroke="orange" stroke-dasharray="5,2" d="M629.955,-133.077C736.754,-121.356 1009.83,-89.782 1236,-50 1243.24,-48.7258 1250.88,-47.2249 1258.33,-45.6736"/>
<polygon fill="orange" stroke="orange" points="629.408,-129.615 619.847,-134.181 630.168,-136.574 629.408,-129.615"/>
<text text-anchor="middle" x="904" y="-110" font-family="Helvetica,sans-Serif" font-size="10.00"> &lt; ::fwCom::Connection &gt;</text>
</g>
<!-- Node30 -->
<g id="node30" class="node"><title>Node30</title>
<polygon fill="white" stroke="#bfbfbf" points="980.5,-399 980.5,-429 1153.5,-429 1153.5,-399 980.5,-399"/>
<text text-anchor="start" x="988.5" y="-417" font-family="Helvetica,sans-Serif" font-size="10.00">std::unique_ptr&lt; visuVTKAdaptor</text>
<text text-anchor="middle" x="1067" y="-406" font-family="Helvetica,sans-Serif" font-size="10.00">::ImageSliceOrientationTextPImpl &gt;</text>
</g>
<!-- Node30&#45;&gt;Node1 -->
<g id="edge35" class="edge"><title>Node30&#45;&gt;Node1</title>
<path fill="none" stroke="#9a32cd" stroke-dasharray="5,2" d="M1163.77,-414C1206.93,-414 1258.53,-414 1305,-414 1305,-414 1305,-414 1832,-414 1864.39,-414 1899.9,-418.056 1930.21,-422.761"/>
<polygon fill="#9a32cd" stroke="#9a32cd" points="1163.57,-410.5 1153.57,-414 1163.57,-417.5 1163.57,-410.5"/>
<text text-anchor="middle" x="1580" y="-417" font-family="Helvetica,sans-Serif" font-size="10.00"> m_pimpl</text>
</g>
<!-- Node31&#45;&gt;Node30 -->
<g id="edge36" class="edge"><title>Node31&#45;&gt;Node30</title>
<path fill="none" stroke="#9a32cd" stroke-dasharray="5,2" d="M828.578,-415.493C874.936,-415.202 933.158,-414.835 980.344,-414.539"/>
<polygon fill="#9a32cd" stroke="#9a32cd" points="828.552,-411.993 818.575,-415.556 828.596,-418.993 828.552,-411.993"/>
<text text-anchor="middle" x="904" y="-419" font-family="Helvetica,sans-Serif" font-size="10.00"> ptr</text>
</g>
<!-- Node32&#45;&gt;Node30 -->
<g id="edge38" class="edge"><title>Node32&#45;&gt;Node30</title>
<path fill="none" stroke="orange" stroke-dasharray="5,2" d="M645.081,-265.208C646.075,-265.779 647.049,-266.376 648,-267 659.444,-274.515 654.868,-284.029 666,-292 760.891,-359.945 894.331,-390.665 980.492,-404.119"/>
<polygon fill="orange" stroke="orange" points="646.214,-261.872 635.679,-260.748 643.214,-268.196 646.214,-261.872"/>
<text text-anchor="start" x="677.5" y="-383" font-family="Helvetica,sans-Serif" font-size="10.00"> &lt; visuVTKAdaptor::ImageSlice</text>
<text text-anchor="middle" x="747" y="-372" font-family="Helvetica,sans-Serif" font-size="10.00">OrientationTextPImpl &gt;</text>
</g>
</g>
</svg>
        <g id="navigator" transform="translate(0 0)" fill="#404254">
                <rect fill="#f2f5e9" fill-opacity="0.5" stroke="#606060" stroke-width=".5" x="0" y="0" width="60" height="60"/>
                <use id="zoomplus" xlink:href="#zoomPlus" x="17" y="9" onmousedown="handleZoom(evt,'in')"/>
                <use id="zoomminus" xlink:href="#zoomMin" x="42" y="9" onmousedown="handleZoom(evt,'out')"/>
                <use id="reset" xlink:href="#resetDef" x="30" y="36" onmousedown="handleReset()"/>
                <g id="arrowUp" xlink:href="#dirArrow" transform="translate(30 24)" onmousedown="handlePan(0,-1)">
                  <use xlink:href="#rim" fill="#404040">
                        <set attributeName="fill" to="#808080" begin="arrowUp.mouseover" end="arrowUp.mouseout"/>
                  </use>
                  <path fill="none" stroke="white" stroke-width="1.5" d="M0,-3.0v7 M-2.5,-0.5L0,-3.0L2.5,-0.5"/>
                </g>
                <g id="arrowRight" xlink:href="#dirArrow" transform="rotate(90) translate(36 -43)" onmousedown="handlePan(1,0)">
                  <use xlink:href="#rim" fill="#404040">
                        <set attributeName="fill" to="#808080" begin="arrowRight.mouseover" end="arrowRight.mouseout"/>
                  </use>
                  <path fill="none" stroke="white" stroke-width="1.5" d="M0,-3.0v7 M-2.5,-0.5L0,-3.0L2.5,-0.5"/>
                </g>
                <g id="arrowDown" xlink:href="#dirArrow" transform="rotate(180) translate(-30 -48)" onmousedown="handlePan(0,1)">
                  <use xlink:href="#rim" fill="#404040">
                        <set attributeName="fill" to="#808080" begin="arrowDown.mouseover" end="arrowDown.mouseout"/>
                  </use>
                  <path fill="none" stroke="white" stroke-width="1.5" d="M0,-3.0v7 M-2.5,-0.5L0,-3.0L2.5,-0.5"/>
                </g>
                <g id="arrowLeft" xlink:href="#dirArrow" transform="rotate(270) translate(-36 17)" onmousedown="handlePan(-1,0)">
                  <use xlink:href="#rim" fill="#404040">
                        <set attributeName="fill" to="#808080" begin="arrowLeft.mouseover" end="arrowLeft.mouseout"/>
                  </use>
                  <path fill="none" stroke="white" stroke-width="1.5" d="M0,-3.0v7 M-2.5,-0.5L0,-3.0L2.5,-0.5"/>
                </g>
        </g>
        <svg viewBox="0 0 15 15" width="100%" height="30px" preserveAspectRatio="xMaxYMin meet">
         <g id="arrow_out" transform="scale(0.3 0.3)">
          <a xlink:href="classvisuVTKAdaptor_1_1SImageSliceOrientationText__coll__graph_org.svg" target="_base">
           <rect id="button" ry="5" rx="5" y="6" x="6" height="38" width="38"
                fill="#f2f5e9" fill-opacity="0.5" stroke="#606060" stroke-width="1.0"/>
           <path id="arrow"
             d="M 11.500037,31.436501 C 11.940474,20.09759 22.043105,11.32322 32.158766,21.979434 L 37.068811,17.246167 C 37.068811,17.246167 37.088388,32 37.088388,32 L 22.160133,31.978069 C 22.160133,31.978069 26.997745,27.140456 26.997745,27.140456 C 18.528582,18.264221 13.291696,25.230495 11.500037,31.436501 z"
             style="fill:#404040;"/>
          </a>
         </g>
        </svg>
</svg>
