<?xml version="1.0" encoding="UTF-8" standalone="no"?>
<!DOCTYPE svg PUBLIC "-//W3C//DTD SVG 1.1//EN"
 "http://www.w3.org/Graphics/SVG/1.1/DTD/svg11.dtd">
<!-- Generated by graphviz version 2.36.0 (20140111.2315)
 -->
<!-- Title: visuVTKAdaptor::SImage::swapping Pages: 1 -->
<svg width="852pt" height="649pt"
 viewBox="0.00 0.00 852.00 649.00" xmlns="http://www.w3.org/2000/svg" xmlns:xlink="http://www.w3.org/1999/xlink">
<g id="graph0" class="graph" transform="scale(1 1) rotate(0) translate(4 645)">
<title>visuVTKAdaptor::SImage::swapping</title>
<polygon fill="white" stroke="none" points="-4,4 -4,-645 848,-645 848,4 -4,4"/>
<!-- Node1 -->
<g id="node1" class="node"><title>Node1</title>
<polygon fill="#bfbfbf" stroke="black" points="0,-349 0,-379 128,-379 128,-349 0,-349"/>
<text text-anchor="start" x="8" y="-367" font-family="Helvetica,sans-Serif" font-size="10.00">visuVTKAdaptor::SImage</text>
<text text-anchor="middle" x="64" y="-356" font-family="Helvetica,sans-Serif" font-size="10.00">::swapping</text>
</g>
<!-- Node2 -->
<g id="node2" class="node"><title>Node2</title>
<g id="a_node2"><a xlink:href="classfwDataTools_1_1helper_1_1MedicalImageAdaptor.html#a469f3500bcae9708253c0f4d5aee5dd9" target="_top" xlink:title="Sets the transfer function, creates one if _tf is null (. ">
<polygon fill="white" stroke="black" points="169.5,-432.5 169.5,-473.5 286.5,-473.5 286.5,-432.5 169.5,-432.5"/>
<text text-anchor="start" x="177.5" y="-461.5" font-family="Helvetica,sans-Serif" font-size="10.00">fwDataTools::helper</text>
<text text-anchor="start" x="177.5" y="-450.5" font-family="Helvetica,sans-Serif" font-size="10.00">::MedicalImageAdaptor</text>
<text text-anchor="middle" x="228" y="-439.5" font-family="Helvetica,sans-Serif" font-size="10.00">::setOrCreateTF</text>
</a>
</g>
</g>
<!-- Node1&#45;&gt;Node2 -->
<g id="edge1" class="edge"><title>Node1&#45;&gt;Node2</title>
<path fill="none" stroke="midnightblue" d="M92.4811,-379.098C116.592,-392.344 152.155,-411.881 180.66,-427.542"/>
<polygon fill="midnightblue" stroke="midnightblue" points="179.194,-430.729 189.643,-432.477 182.564,-424.594 179.194,-430.729"/>
</g>
<!-- Node15 -->
<g id="node15" class="node"><title>Node15</title>
<g id="a_node15"><a xlink:href="classvisuVTKAdaptor_1_1SImage.html#ab258cf391d382cb15c2cb6b37068ea00" target="_top" xlink:title="Perform some computations according to object (this service is attached to) attribute values and its ...">
<polygon fill="white" stroke="black" points="164,-223 164,-253 292,-253 292,-223 164,-223"/>
<text text-anchor="start" x="172" y="-241" font-family="Helvetica,sans-Serif" font-size="10.00">visuVTKAdaptor::SImage</text>
<text text-anchor="middle" x="228" y="-230" font-family="Helvetica,sans-Serif" font-size="10.00">::updating</text>
</a>
</g>
</g>
<!-- Node1&#45;&gt;Node15 -->
<g id="edge14" class="edge"><title>Node1&#45;&gt;Node15</title>
<path fill="none" stroke="midnightblue" d="M84.541,-348.801C113.201,-326.51 166.765,-284.85 199.421,-259.451"/>
<polygon fill="midnightblue" stroke="midnightblue" points="201.897,-261.958 207.642,-253.056 197.6,-256.433 201.897,-261.958"/>
</g>
<!-- Node3 -->
<g id="node3" class="node"><title>Node3</title>
<g id="a_node3"><a xlink:href="classfwDataTools_1_1helper_1_1MedicalImageAdaptor.html#afc304f47a3b79a9562bdbaf53da82afe" target="_top" xlink:title="Create and set the default transfer function. ">
<polygon fill="white" stroke="black" points="330.5,-372.5 330.5,-413.5 453.5,-413.5 453.5,-372.5 330.5,-372.5"/>
<text text-anchor="start" x="338.5" y="-401.5" font-family="Helvetica,sans-Serif" font-size="10.00">fwDataTools::helper</text>
<text text-anchor="start" x="338.5" y="-390.5" font-family="Helvetica,sans-Serif" font-size="10.00">::MedicalImageAdaptor</text>
<text text-anchor="middle" x="392" y="-379.5" font-family="Helvetica,sans-Serif" font-size="10.00">::createTransferFunction</text>
</a>
</g>
</g>
<!-- Node2&#45;&gt;Node3 -->
<g id="edge2" class="edge"><title>Node2&#45;&gt;Node3</title>
<path fill="none" stroke="midnightblue" d="M284.751,-432.351C297.934,-427.469 312.109,-422.219 325.674,-417.195"/>
<polygon fill="midnightblue" stroke="midnightblue" points="327.259,-420.34 335.421,-413.585 324.827,-413.776 327.259,-420.34"/>
</g>
<!-- Node8 -->
<g id="node8" class="node"><title>Node8</title>
<g id="a_node8"><a xlink:href="classfwDataTools_1_1helper_1_1MedicalImageAdaptor.html#a9cd350f7ccdd8a329c42d27d5e79088d" target="_top" xlink:title="Install connections to listen TF modifications. ">
<polygon fill="white" stroke="black" points="333.5,-552.5 333.5,-593.5 450.5,-593.5 450.5,-552.5 333.5,-552.5"/>
<text text-anchor="start" x="341.5" y="-581.5" font-family="Helvetica,sans-Serif" font-size="10.00">fwDataTools::helper</text>
<text text-anchor="start" x="341.5" y="-570.5" font-family="Helvetica,sans-Serif" font-size="10.00">::MedicalImageAdaptor</text>
<text text-anchor="middle" x="392" y="-559.5" font-family="Helvetica,sans-Serif" font-size="10.00">::installTFConnections</text>
</a>
</g>
</g>
<!-- Node2&#45;&gt;Node8 -->
<g id="edge7" class="edge"><title>Node2&#45;&gt;Node8</title>
<path fill="none" stroke="midnightblue" d="M248.481,-473.514C267.519,-492.801 297.945,-521.669 328,-542 330.726,-543.844 333.578,-545.644 336.499,-547.389"/>
<polygon fill="midnightblue" stroke="midnightblue" points="334.986,-550.555 345.411,-552.445 338.44,-544.466 334.986,-550.555"/>
</g>
<!-- Node11 -->
<g id="node11" class="node"><title>Node11</title>
<g id="a_node11"><a xlink:href="classfwDataTools_1_1helper_1_1MedicalImageAdaptor.html#affa9720c3ed5084df60a5e0d3a2c749b" target="_top" xlink:title="Remove the TF connections. ">
<polygon fill="white" stroke="black" points="331,-492.5 331,-533.5 453,-533.5 453,-492.5 331,-492.5"/>
<text text-anchor="start" x="339" y="-521.5" font-family="Helvetica,sans-Serif" font-size="10.00">fwDataTools::helper</text>
<text text-anchor="start" x="339" y="-510.5" font-family="Helvetica,sans-Serif" font-size="10.00">::MedicalImageAdaptor</text>
<text text-anchor="middle" x="392" y="-499.5" font-family="Helvetica,sans-Serif" font-size="10.00">::removeTFConnections</text>
</a>
</g>
</g>
<!-- Node2&#45;&gt;Node11 -->
<g id="edge10" class="edge"><title>Node2&#45;&gt;Node11</title>
<path fill="none" stroke="midnightblue" d="M284.751,-473.649C297.934,-478.531 312.109,-483.781 325.674,-488.805"/>
<polygon fill="midnightblue" stroke="midnightblue" points="324.827,-492.224 335.421,-492.415 327.259,-485.66 324.827,-492.224"/>
</g>
<!-- Node14 -->
<g id="node14" class="node"><title>Node14</title>
<g id="a_node14"><a xlink:href="classfwDataTools_1_1helper_1_1MedicalImageAdaptor.html#a2fce35c4b5005348d4916235a59fc7df" target="_top" xlink:title="Set the current TransferFunction. ">
<polygon fill="white" stroke="black" points="333.5,-432.5 333.5,-473.5 450.5,-473.5 450.5,-432.5 333.5,-432.5"/>
<text text-anchor="start" x="341.5" y="-461.5" font-family="Helvetica,sans-Serif" font-size="10.00">fwDataTools::helper</text>
<text text-anchor="start" x="341.5" y="-450.5" font-family="Helvetica,sans-Serif" font-size="10.00">::MedicalImageAdaptor</text>
<text text-anchor="middle" x="392" y="-439.5" font-family="Helvetica,sans-Serif" font-size="10.00">::setTransferFunction</text>
</a>
</g>
</g>
<!-- Node2&#45;&gt;Node14 -->
<g id="edge13" class="edge"><title>Node2&#45;&gt;Node14</title>
<path fill="none" stroke="midnightblue" d="M286.571,-453C298.437,-453 311.036,-453 323.225,-453"/>
<polygon fill="midnightblue" stroke="midnightblue" points="323.341,-456.5 333.341,-453 323.341,-449.5 323.341,-456.5"/>
</g>
<!-- Node4 -->
<g id="node4" class="node"><title>Node4</title>
<g id="a_node4"><a xlink:href="classfwDataTools_1_1helper_1_1Composite.html#a154193c5093752bec503b38219ef1da3" target="_top" xlink:title="Add an object in the composite. ">
<polygon fill="white" stroke="black" points="524,-343 524,-373 628,-373 628,-343 524,-343"/>
<text text-anchor="start" x="532" y="-361" font-family="Helvetica,sans-Serif" font-size="10.00">fwDataTools::helper</text>
<text text-anchor="middle" x="576" y="-350" font-family="Helvetica,sans-Serif" font-size="10.00">::Composite::add</text>
</a>
</g>
</g>
<!-- Node3&#45;&gt;Node4 -->
<g id="edge3" class="edge"><title>Node3&#45;&gt;Node4</title>
<path fill="none" stroke="midnightblue" d="M453.603,-381.346C472.976,-377.62 494.425,-373.495 513.837,-369.762"/>
<polygon fill="midnightblue" stroke="midnightblue" points="514.622,-373.175 523.781,-367.85 513.3,-366.301 514.622,-373.175"/>
</g>
<!-- Node5 -->
<g id="node5" class="node"><title>Node5</title>
<g id="a_node5"><a xlink:href="classfwDataTools_1_1fieldHelper_1_1MedicalImageHelpers.html#a1aa6e7bebb9f96a8e60a14aecc352e99" target="_top" xlink:title="Check if the image is valid. ">
<polygon fill="white" stroke="black" points="513.5,-283.5 513.5,-324.5 638.5,-324.5 638.5,-283.5 513.5,-283.5"/>
<text text-anchor="start" x="521.5" y="-312.5" font-family="Helvetica,sans-Serif" font-size="10.00">fwDataTools::fieldHelper</text>
<text text-anchor="start" x="521.5" y="-301.5" font-family="Helvetica,sans-Serif" font-size="10.00">::MedicalImageHelpers::</text>
<text text-anchor="middle" x="576" y="-290.5" font-family="Helvetica,sans-Serif" font-size="10.00">checkImageValidity</text>
</a>
</g>
</g>
<!-- Node3&#45;&gt;Node5 -->
<g id="edge4" class="edge"><title>Node3&#45;&gt;Node5</title>
<path fill="none" stroke="midnightblue" d="M423.29,-372.368C442.432,-359.91 468.004,-344.312 492,-333 495.806,-331.206 499.754,-329.462 503.77,-327.779"/>
<polygon fill="midnightblue" stroke="midnightblue" points="505.263,-330.95 513.228,-323.964 502.645,-324.458 505.263,-330.95"/>
</g>
<!-- Node6 -->
<g id="node6" class="node"><title>Node6</title>
<g id="a_node6"><a xlink:href="classfwDataTools_1_1fieldHelper_1_1MedicalImageHelpers.html#abb0d7ac24314c1b1a988f27b8b17354a" target="_top" xlink:title="Return minimum and maximum values contained in image. If image min or max value is out of MINMAXTYPE ...">
<polygon fill="white" stroke="black" points="513.5,-440.5 513.5,-481.5 638.5,-481.5 638.5,-440.5 513.5,-440.5"/>
<text text-anchor="start" x="521.5" y="-469.5" font-family="Helvetica,sans-Serif" font-size="10.00">fwDataTools::fieldHelper</text>
<text text-anchor="start" x="521.5" y="-458.5" font-family="Helvetica,sans-Serif" font-size="10.00">::MedicalImageHelpers::</text>
<text text-anchor="middle" x="576" y="-447.5" font-family="Helvetica,sans-Serif" font-size="10.00">getMinMax</text>
</a>
</g>
</g>
<!-- Node3&#45;&gt;Node6 -->
<g id="edge5" class="edge"><title>Node3&#45;&gt;Node6</title>
<path fill="none" stroke="midnightblue" d="M445.847,-413.505C460.75,-419.228 476.991,-425.408 492,-431 497.205,-432.939 502.6,-434.931 508.027,-436.921"/>
<polygon fill="midnightblue" stroke="midnightblue" points="507.202,-440.346 517.796,-440.49 509.604,-433.771 507.202,-440.346"/>
</g>
<!-- Node7 -->
<g id="node7" class="node"><title>Node7</title>
<g id="a_node7"><a xlink:href="classfwDataTools_1_1helper_1_1Composite.html#a97bee6deceafbd7a45f1907f9c183b2b" target="_top" xlink:title="Send the message of modification. ">
<polygon fill="white" stroke="black" points="524,-392 524,-422 628,-422 628,-392 524,-392"/>
<text text-anchor="start" x="532" y="-410" font-family="Helvetica,sans-Serif" font-size="10.00">fwDataTools::helper</text>
<text text-anchor="middle" x="576" y="-399" font-family="Helvetica,sans-Serif" font-size="10.00">::Composite::notify</text>
</a>
</g>
</g>
<!-- Node3&#45;&gt;Node7 -->
<g id="edge6" class="edge"><title>Node3&#45;&gt;Node7</title>
<path fill="none" stroke="midnightblue" d="M453.603,-397.662C472.887,-399.145 494.228,-400.787 513.57,-402.275"/>
<polygon fill="midnightblue" stroke="midnightblue" points="513.542,-405.783 523.781,-403.06 514.079,-398.803 513.542,-405.783"/>
</g>
<!-- Node9 -->
<g id="node9" class="node"><title>Node9</title>
<g id="a_node9"><a xlink:href="classfwDataTools_1_1helper_1_1MedicalImageAdaptor.html#ad1ec2a62bf03c940d20ca8ebe74ae762" target="_top" xlink:title="Get the current transfer function. ">
<polygon fill="white" stroke="black" points="517.5,-551.5 517.5,-592.5 634.5,-592.5 634.5,-551.5 517.5,-551.5"/>
<text text-anchor="start" x="525.5" y="-580.5" font-family="Helvetica,sans-Serif" font-size="10.00">fwDataTools::helper</text>
<text text-anchor="start" x="525.5" y="-569.5" font-family="Helvetica,sans-Serif" font-size="10.00">::MedicalImageAdaptor</text>
<text text-anchor="middle" x="576" y="-558.5" font-family="Helvetica,sans-Serif" font-size="10.00">::getTransferFunction</text>
</a>
</g>
</g>
<!-- Node8&#45;&gt;Node9 -->
<g id="edge8" class="edge"><title>Node8&#45;&gt;Node9</title>
<path fill="none" stroke="midnightblue" d="M450.586,-572.684C468.599,-572.585 488.641,-572.475 507.284,-572.372"/>
<polygon fill="midnightblue" stroke="midnightblue" points="507.496,-575.871 517.477,-572.316 507.457,-568.871 507.496,-575.871"/>
</g>
<!-- Node10 -->
<g id="node10" class="node"><title>Node10</title>
<g id="a_node10"><a xlink:href="classfwCom_1_1helper_1_1SigSlotConnection.html#ab661875b9bbaa37f9f6f4f4c67575bea" target="_top" xlink:title="Add a connection. ">
<polygon fill="white" stroke="black" points="492.5,-611 492.5,-641 659.5,-641 659.5,-611 492.5,-611"/>
<text text-anchor="start" x="500.5" y="-629" font-family="Helvetica,sans-Serif" font-size="10.00">fwCom::helper::SigSlotConnection</text>
<text text-anchor="middle" x="576" y="-618" font-family="Helvetica,sans-Serif" font-size="10.00">::addConnection</text>
</a>
</g>
</g>
<!-- Node8&#45;&gt;Node10 -->
<g id="edge9" class="edge"><title>Node8&#45;&gt;Node10</title>
<path fill="none" stroke="midnightblue" d="M450.586,-589.77C470.633,-595.607 493.193,-602.177 513.542,-608.103"/>
<polygon fill="midnightblue" stroke="midnightblue" points="512.753,-611.518 523.333,-610.954 514.71,-604.798 512.753,-611.518"/>
</g>
<!-- Node12 -->
<g id="node12" class="node"><title>Node12</title>
<g id="a_node12"><a xlink:href="classfwCom_1_1helper_1_1SigSlotConnection.html#ad5d185818b5e00f5eb631d971be5b3d1" target="_top" xlink:title="Disconnect all registered connections and clear m_connections. ">
<polygon fill="white" stroke="black" points="492.5,-500 492.5,-530 659.5,-530 659.5,-500 492.5,-500"/>
<text text-anchor="start" x="500.5" y="-518" font-family="Helvetica,sans-Serif" font-size="10.00">fwCom::helper::SigSlotConnection</text>
<text text-anchor="middle" x="576" y="-507" font-family="Helvetica,sans-Serif" font-size="10.00">::disconnect</text>
</a>
</g>
</g>
<!-- Node11&#45;&gt;Node12 -->
<g id="edge11" class="edge"><title>Node11&#45;&gt;Node12</title>
<path fill="none" stroke="midnightblue" d="M453.098,-513.66C462.396,-513.763 472.183,-513.87 482.001,-513.978"/>
<polygon fill="midnightblue" stroke="midnightblue" points="482.187,-517.48 492.224,-514.09 482.264,-510.481 482.187,-517.48"/>
</g>
<!-- Node13 -->
<g id="node13" class="node"><title>Node13</title>
<g id="a_node13"><a xlink:href="structfwCom_1_1Connection.html#a754cdafafcd72795d48157614d0e5d63" target="_top" xlink:title="Disconnect related Connection. ">
<polygon fill="white" stroke="black" points="715,-500 715,-530 825,-530 825,-500 715,-500"/>
<text text-anchor="start" x="723" y="-518" font-family="Helvetica,sans-Serif" font-size="10.00">fwCom::Connection::</text>
<text text-anchor="middle" x="770" y="-507" font-family="Helvetica,sans-Serif" font-size="10.00">disconnect</text>
</a>
</g>
</g>
<!-- Node12&#45;&gt;Node13 -->
<g id="edge12" class="edge"><title>Node12&#45;&gt;Node13</title>
<path fill="none" stroke="midnightblue" d="M659.54,-515C674.588,-515 690.087,-515 704.518,-515"/>
<polygon fill="midnightblue" stroke="midnightblue" points="704.814,-518.5 714.814,-515 704.814,-511.5 704.814,-518.5"/>
</g>
<!-- Node15&#45;&gt;Node5 -->
<g id="edge15" class="edge"><title>Node15&#45;&gt;Node5</title>
<path fill="none" stroke="midnightblue" d="M292.059,-250.029C351.606,-261.387 440.823,-278.406 503.105,-290.286"/>
<polygon fill="midnightblue" stroke="midnightblue" points="502.768,-293.785 513.247,-292.221 504.08,-286.909 502.768,-293.785"/>
</g>
<!-- Node16 -->
<g id="node16" class="node"><title>Node16</title>
<g id="a_node16"><a xlink:href="classvisuVTKAdaptor_1_1SImage.html#a110a4ae885c1aaa4d2d7031b40a5b7e0" target="_top" xlink:title="Slot: Update image opacity and visibility. ">
<polygon fill="white" stroke="black" points="328,-186 328,-216 456,-216 456,-186 328,-186"/>
<text text-anchor="start" x="336" y="-204" font-family="Helvetica,sans-Serif" font-size="10.00">visuVTKAdaptor::SImage</text>
<text text-anchor="middle" x="392" y="-193" font-family="Helvetica,sans-Serif" font-size="10.00">::updateImageOpacity</text>
</a>
</g>
</g>
<!-- Node15&#45;&gt;Node16 -->
<g id="edge16" class="edge"><title>Node15&#45;&gt;Node16</title>
<path fill="none" stroke="midnightblue" d="M292.097,-223.589C300.526,-221.664 309.227,-219.676 317.81,-217.716"/>
<polygon fill="midnightblue" stroke="midnightblue" points="318.839,-221.071 327.808,-215.433 317.28,-214.247 318.839,-221.071"/>
</g>
<!-- Node18 -->
<g id="node18" class="node"><title>Node18</title>
<g id="a_node18"><a xlink:href="classfwRenderVTK_1_1IAdaptor.html#a46ef60802ac6cd7002a6199512963775" target="_top" xlink:title="notify a render request iff vtkPipeline is modified ">
<polygon fill="white" stroke="black" points="515.5,-98 515.5,-128 636.5,-128 636.5,-98 515.5,-98"/>
<text text-anchor="start" x="523.5" y="-116" font-family="Helvetica,sans-Serif" font-size="10.00">fwRenderVTK::IAdaptor</text>
<text text-anchor="middle" x="576" y="-105" font-family="Helvetica,sans-Serif" font-size="10.00">::requestRender</text>
</a>
</g>
</g>
<!-- Node15&#45;&gt;Node18 -->
<g id="edge26" class="edge"><title>Node15&#45;&gt;Node18</title>
<path fill="none" stroke="midnightblue" d="M248.834,-222.978C268.127,-209.013 298.732,-188.534 328,-176 385.589,-151.337 455.016,-134.686 505.579,-124.727"/>
<polygon fill="midnightblue" stroke="midnightblue" points="506.276,-128.157 515.431,-122.824 504.949,-121.284 506.276,-128.157"/>
</g>
<!-- Node17 -->
<g id="node17" class="node"><title>Node17</title>
<g id="a_node17"><a xlink:href="classfwRenderVTK_1_1IAdaptor.html#a0fd9eb8ee07f2e7d53b27c6bbe8994eb" target="_top" xlink:title="End&#45;user have to call this method when a vtk structure has been modified, thus a render request will ...">
<polygon fill="white" stroke="black" points="515,-235 515,-265 637,-265 637,-235 515,-235"/>
<text text-anchor="start" x="523" y="-253" font-family="Helvetica,sans-Serif" font-size="10.00">fwRenderVTK::IAdaptor</text>
<text text-anchor="middle" x="576" y="-242" font-family="Helvetica,sans-Serif" font-size="10.00">::setVtkPipelineModified</text>
</a>
</g>
</g>
<!-- Node16&#45;&gt;Node17 -->
<g id="edge17" class="edge"><title>Node16&#45;&gt;Node17</title>
<path fill="none" stroke="midnightblue" d="M449.091,-216.101C468.123,-221.225 489.555,-226.996 509.269,-232.303"/>
<polygon fill="midnightblue" stroke="midnightblue" points="508.528,-235.728 519.094,-234.948 510.348,-228.969 508.528,-235.728"/>
</g>
<!-- Node16&#45;&gt;Node18 -->
<g id="edge18" class="edge"><title>Node16&#45;&gt;Node18</title>
<path fill="none" stroke="midnightblue" d="M412.92,-185.999C432.275,-172 462.922,-151.323 492,-138 497.045,-135.688 502.359,-133.524 507.759,-131.512"/>
<polygon fill="midnightblue" stroke="midnightblue" points="509.272,-134.69 517.534,-128.058 506.939,-128.09 509.272,-134.69"/>
</g>
<!-- Node22 -->
<g id="node22" class="node"><title>Node22</title>
<g id="a_node22"><a xlink:href="classfwRenderVTK_1_1IAdaptor.html#a3ea5e8fefdd2b365ad909174dc3df005" target="_top" xlink:title="Returns the vtk object defined by &#39;objectId&#39; in the vtk scene. ">
<polygon fill="white" stroke="black" points="515.5,-186 515.5,-216 636.5,-216 636.5,-186 515.5,-186"/>
<text text-anchor="start" x="523.5" y="-204" font-family="Helvetica,sans-Serif" font-size="10.00">fwRenderVTK::IAdaptor</text>
<text text-anchor="middle" x="576" y="-193" font-family="Helvetica,sans-Serif" font-size="10.00">::getVtkObject</text>
</a>
</g>
</g>
<!-- Node16&#45;&gt;Node22 -->
<g id="edge22" class="edge"><title>Node16&#45;&gt;Node22</title>
<path fill="none" stroke="midnightblue" d="M456.144,-201C471.893,-201 488.874,-201 504.935,-201"/>
<polygon fill="midnightblue" stroke="midnightblue" points="505.335,-204.5 515.335,-201 505.335,-197.5 505.335,-204.5"/>
</g>
<!-- Node23 -->
<g id="node23" class="node"><title>Node23</title>
<g id="a_node23"><a xlink:href="classfwTools_1_1fwID.html#a387264565a48b0231a7eefb7b01512a1" target="_top" xlink:title="Returns the id of the object. If it is not set and the policy value is. ">
<polygon fill="white" stroke="black" points="522,-147.5 522,-166.5 630,-166.5 630,-147.5 522,-147.5"/>
<text text-anchor="middle" x="576" y="-154.5" font-family="Helvetica,sans-Serif" font-size="10.00">fwTools::fwID::getID</text>
</a>
</g>
</g>
<!-- Node16&#45;&gt;Node23 -->
<g id="edge23" class="edge"><title>Node16&#45;&gt;Node23</title>
<path fill="none" stroke="midnightblue" d="M451.578,-185.978C464.855,-182.637 478.902,-179.153 492,-176 501.809,-173.639 512.287,-171.187 522.38,-168.859"/>
<polygon fill="midnightblue" stroke="midnightblue" points="523.342,-172.229 532.306,-166.581 521.777,-165.407 523.342,-172.229"/>
</g>
<!-- Node19 -->
<g id="node19" class="node"><title>Node19</title>
<g id="a_node19"><a xlink:href="classfwRenderVTK_1_1IAdaptor.html#a908f43b79c3c619e7e56cd4b5a08dd79" target="_top" xlink:title="Returd the associated render service. ">
<polygon fill="white" stroke="black" points="709.5,-49 709.5,-79 830.5,-79 830.5,-49 709.5,-49"/>
<text text-anchor="start" x="717.5" y="-67" font-family="Helvetica,sans-Serif" font-size="10.00">fwRenderVTK::IAdaptor</text>
<text text-anchor="middle" x="770" y="-56" font-family="Helvetica,sans-Serif" font-size="10.00">::getRenderService</text>
</a>
</g>
</g>
<!-- Node18&#45;&gt;Node19 -->
<g id="edge19" class="edge"><title>Node18&#45;&gt;Node19</title>
<path fill="none" stroke="midnightblue" d="M635.911,-97.9654C656.276,-92.7682 679.272,-86.8994 700.349,-81.5204"/>
<polygon fill="midnightblue" stroke="midnightblue" points="701.376,-84.8704 710.2,-79.0062 699.645,-78.0878 701.376,-84.8704"/>
</g>
<!-- Node20 -->
<g id="node20" class="node"><title>Node20</title>
<g id="a_node20"><a xlink:href="classfwServices_1_1IService.html#a7284059e3031206537f48fa53a7e89d0" target="_top" xlink:title="Return the global process status. ">
<polygon fill="white" stroke="black" points="716.5,-0 716.5,-30 823.5,-30 823.5,-0 716.5,-0"/>
<text text-anchor="start" x="724.5" y="-18" font-family="Helvetica,sans-Serif" font-size="10.00">fwServices::IService</text>
<text text-anchor="middle" x="770" y="-7" font-family="Helvetica,sans-Serif" font-size="10.00">::getStatus</text>
</a>
</g>
</g>
<!-- Node18&#45;&gt;Node20 -->
<g id="edge20" class="edge"><title>Node18&#45;&gt;Node20</title>
<path fill="none" stroke="midnightblue" d="M598.054,-97.7401C621.18,-81.506 659.85,-55.8854 696,-39 699.876,-37.1898 703.925,-35.4565 708.045,-33.8093"/>
<polygon fill="midnightblue" stroke="midnightblue" points="709.631,-36.9508 717.735,-30.1264 707.144,-30.4075 709.631,-36.9508"/>
</g>
<!-- Node21 -->
<g id="node21" class="node"><title>Node21</title>
<g id="a_node21"><a xlink:href="classfwRenderVTK_1_1IAdaptor.html#a40e8583048160a35d175fdfe6c081881" target="_top" xlink:title="Returns true if the service automatically triggers the rendering. ">
<polygon fill="white" stroke="black" points="709.5,-98 709.5,-128 830.5,-128 830.5,-98 709.5,-98"/>
<text text-anchor="start" x="717.5" y="-116" font-family="Helvetica,sans-Serif" font-size="10.00">fwRenderVTK::IAdaptor</text>
<text text-anchor="middle" x="770" y="-105" font-family="Helvetica,sans-Serif" font-size="10.00">::getAutoRender</text>
</a>
</g>
</g>
<!-- Node18&#45;&gt;Node21 -->
<g id="edge21" class="edge"><title>Node18&#45;&gt;Node21</title>
<path fill="none" stroke="midnightblue" d="M636.698,-113C656.474,-113 678.66,-113 699.131,-113"/>
<polygon fill="midnightblue" stroke="midnightblue" points="699.339,-116.5 709.339,-113 699.339,-109.5 699.339,-116.5"/>
</g>
<!-- Node24 -->
<g id="node24" class="node"><title>Node24</title>
<g id="a_node24"><a xlink:href="classfwTools_1_1fwID.html#a4ac18bb9c046c3fd04a4c8a80add7ae6" target="_top" xlink:title="fwTools::fwID::exist">
<polygon fill="white" stroke="black" points="717.5,-185.5 717.5,-204.5 822.5,-204.5 822.5,-185.5 717.5,-185.5"/>
<text text-anchor="middle" x="770" y="-192.5" font-family="Helvetica,sans-Serif" font-size="10.00">fwTools::fwID::exist</text>
</a>
</g>
</g>
<!-- Node23&#45;&gt;Node24 -->
<g id="edge24" class="edge"><title>Node23&#45;&gt;Node24</title>
<path fill="none" stroke="midnightblue" d="M625.45,-166.589C651.471,-171.739 683.728,-178.123 711.069,-183.534"/>
<polygon fill="midnightblue" stroke="midnightblue" points="710.409,-186.972 720.899,-185.48 711.769,-180.105 710.409,-186.972"/>
</g>
<!-- Node25 -->
<g id="node25" class="node"><title>Node25</title>
<g id="a_node25"><a xlink:href="classfwTools_1_1fwID.html#a03d6d0e2227b51a0630e145911445213" target="_top" xlink:title="return full object&#39;s classname with its namespace, i.e. fwCore::BaseObject ">
<polygon fill="white" stroke="black" points="696.5,-147.5 696.5,-166.5 843.5,-166.5 843.5,-147.5 696.5,-147.5"/>
<text text-anchor="middle" x="770" y="-154.5" font-family="Helvetica,sans-Serif" font-size="10.00">fwTools::fwID::getClassname</text>
</a>
</g>
</g>
<!-- Node23&#45;&gt;Node25 -->
<g id="edge25" class="edge"><title>Node23&#45;&gt;Node25</title>
<path fill="none" stroke="midnightblue" d="M630.228,-157C647.537,-157 667.178,-157 686.124,-157"/>
<polygon fill="midnightblue" stroke="midnightblue" points="686.255,-160.5 696.255,-157 686.255,-153.5 686.255,-160.5"/>
</g>
</g>
</svg>
