<?xml version="1.0" encoding="UTF-8" standalone="no"?>
<!DOCTYPE svg PUBLIC "-//W3C//DTD SVG 1.1//EN"
 "http://www.w3.org/Graphics/SVG/1.1/DTD/svg11.dtd">
<!-- Generated by graphviz version 2.36.0 (20140111.2315)
 -->
<!-- Title: ioPacs::SQueryEditor::displayErrorMessage Pages: 1 -->
<svg width="666pt" height="244pt"
 viewBox="0.00 0.00 666.00 244.00" xmlns="http://www.w3.org/2000/svg" xmlns:xlink="http://www.w3.org/1999/xlink">
<g id="graph0" class="graph" transform="scale(1 1) rotate(0) translate(4 240)">
<title>ioPacs::SQueryEditor::displayErrorMessage</title>
<polygon fill="white" stroke="none" points="-4,4 -4,-240 662,-240 662,4 -4,4"/>
<!-- Node1 -->
<g id="node1" class="node"><title>Node1</title>
<polygon fill="#bfbfbf" stroke="black" points="0,-113 0,-143 114,-143 114,-113 0,-113"/>
<text text-anchor="start" x="8" y="-131" font-family="Helvetica,sans-Serif" font-size="10.00">ioPacs::SQueryEditor</text>
<text text-anchor="middle" x="57" y="-120" font-family="Helvetica,sans-Serif" font-size="10.00">::displayErrorMessage</text>
</g>
<!-- Node2 -->
<g id="node2" class="node"><title>Node2</title>
<g id="a_node2"><a xlink:href="classfwGui_1_1dialog_1_1MessageDialog.html#a0fd1de2703432a2181724b7bdaa26cfd" target="_top" xlink:title="Add a button (OK, YES_NO, YES, NO, CANCEL) ">
<polygon fill="white" stroke="black" points="335.5,-206 335.5,-236 482.5,-236 482.5,-206 335.5,-206"/>
<text text-anchor="start" x="343.5" y="-224" font-family="Helvetica,sans-Serif" font-size="10.00">fwGui::dialog::MessageDialog</text>
<text text-anchor="middle" x="409" y="-213" font-family="Helvetica,sans-Serif" font-size="10.00">::addButton</text>
</a>
</g>
</g>
<!-- Node1&#45;&gt;Node2 -->
<g id="edge1" class="edge"><title>Node1&#45;&gt;Node2</title>
<path fill="none" stroke="midnightblue" d="M83.3297,-143.121C101.354,-153.26 126.453,-166.147 150,-174 207.092,-193.041 274.013,-204.95 325.391,-212.015"/>
<polygon fill="midnightblue" stroke="midnightblue" points="325.075,-215.504 335.452,-213.364 326.006,-208.566 325.075,-215.504"/>
</g>
<!-- Node3 -->
<g id="node3" class="node"><title>Node3</title>
<g id="a_node3"><a xlink:href="classfwGui_1_1dialog_1_1MessageDialog.html#a9dbf39afc43907c712116b7fc5311ec6" target="_top" xlink:title="Set the icon (CRITICAL, WARNING, INFO or QUESTION) ">
<polygon fill="white" stroke="black" points="335.5,-157 335.5,-187 482.5,-187 482.5,-157 335.5,-157"/>
<text text-anchor="start" x="343.5" y="-175" font-family="Helvetica,sans-Serif" font-size="10.00">fwGui::dialog::MessageDialog</text>
<text text-anchor="middle" x="409" y="-164" font-family="Helvetica,sans-Serif" font-size="10.00">::setIcon</text>
</a>
</g>
</g>
<!-- Node1&#45;&gt;Node3 -->
<g id="edge2" class="edge"><title>Node1&#45;&gt;Node3</title>
<path fill="none" stroke="midnightblue" d="M109.229,-143.085C122.415,-146.492 136.651,-149.76 150,-152 208.031,-161.739 274.216,-166.748 325.022,-169.317"/>
<polygon fill="midnightblue" stroke="midnightblue" points="325.138,-172.827 335.295,-169.814 325.476,-165.835 325.138,-172.827"/>
</g>
<!-- Node4 -->
<g id="node4" class="node"><title>Node4</title>
<g id="a_node4"><a xlink:href="classfwGui_1_1dialog_1_1MessageDialog.html#a6d27474cbd9bac68c7103295d0eaa28e" target="_top" xlink:title="Set the message. ">
<polygon fill="white" stroke="black" points="150.5,-113 150.5,-143 297.5,-143 297.5,-113 150.5,-113"/>
<text text-anchor="start" x="158.5" y="-131" font-family="Helvetica,sans-Serif" font-size="10.00">fwGui::dialog::MessageDialog</text>
<text text-anchor="middle" x="224" y="-120" font-family="Helvetica,sans-Serif" font-size="10.00">::setMessage</text>
</a>
</g>
</g>
<!-- Node1&#45;&gt;Node4 -->
<g id="edge3" class="edge"><title>Node1&#45;&gt;Node4</title>
<path fill="none" stroke="midnightblue" d="M114.322,-128C122.643,-128 131.36,-128 140.083,-128"/>
<polygon fill="midnightblue" stroke="midnightblue" points="140.302,-131.5 150.302,-128 140.302,-124.5 140.302,-131.5"/>
</g>
<!-- Node8 -->
<g id="node8" class="node"><title>Node8</title>
<g id="a_node8"><a xlink:href="classfwGui_1_1dialog_1_1MessageDialog.html#a3cf63b33285399c6249b0f7e087ba935" target="_top" xlink:title="Set the title of the message box. ">
<polygon fill="white" stroke="black" points="150.5,-64 150.5,-94 297.5,-94 297.5,-64 150.5,-64"/>
<text text-anchor="start" x="158.5" y="-82" font-family="Helvetica,sans-Serif" font-size="10.00">fwGui::dialog::MessageDialog</text>
<text text-anchor="middle" x="224" y="-71" font-family="Helvetica,sans-Serif" font-size="10.00">::setTitle</text>
</a>
</g>
</g>
<!-- Node1&#45;&gt;Node8 -->
<g id="edge9" class="edge"><title>Node1&#45;&gt;Node8</title>
<path fill="none" stroke="midnightblue" d="M108.852,-112.899C125.869,-107.845 145.004,-102.162 162.673,-96.9152"/>
<polygon fill="midnightblue" stroke="midnightblue" points="163.726,-100.254 172.316,-94.0516 161.733,-93.5433 163.726,-100.254"/>
</g>
<!-- Node9 -->
<g id="node9" class="node"><title>Node9</title>
<g id="a_node9"><a xlink:href="classfwGui_1_1dialog_1_1MessageDialog.html#acb5a5e63ec47bb74c2c3136922a3a112" target="_top" xlink:title="Show the message box and return the clicked button. ">
<polygon fill="white" stroke="black" points="150.5,-15 150.5,-45 297.5,-45 297.5,-15 150.5,-15"/>
<text text-anchor="start" x="158.5" y="-33" font-family="Helvetica,sans-Serif" font-size="10.00">fwGui::dialog::MessageDialog</text>
<text text-anchor="middle" x="224" y="-22" font-family="Helvetica,sans-Serif" font-size="10.00">::show</text>
</a>
</g>
</g>
<!-- Node1&#45;&gt;Node9 -->
<g id="edge11" class="edge"><title>Node1&#45;&gt;Node9</title>
<path fill="none" stroke="midnightblue" d="M73.3436,-112.715C90.6512,-96.2163 120.279,-70.141 150,-54 153.239,-52.2412 156.628,-50.5824 160.099,-49.0227"/>
<polygon fill="midnightblue" stroke="midnightblue" points="161.549,-52.2101 169.426,-45.1245 158.85,-45.7515 161.549,-52.2101"/>
</g>
<!-- Node4&#45;&gt;Node2 -->
<g id="edge7" class="edge"><title>Node4&#45;&gt;Node2</title>
<path fill="none" stroke="midnightblue" d="M245.878,-143.079C267.227,-157.994 301.74,-180.742 334,-196 338.631,-198.191 343.508,-200.279 348.455,-202.248"/>
<polygon fill="midnightblue" stroke="midnightblue" points="347.422,-205.599 358.013,-205.882 349.91,-199.056 347.422,-205.599"/>
</g>
<!-- Node4&#45;&gt;Node3 -->
<g id="edge6" class="edge"><title>Node4&#45;&gt;Node3</title>
<path fill="none" stroke="midnightblue" d="M287.466,-143.019C302.986,-146.751 319.75,-150.781 335.698,-154.616"/>
<polygon fill="midnightblue" stroke="midnightblue" points="334.963,-158.039 345.505,-156.974 336.6,-151.233 334.963,-158.039"/>
</g>
<!-- Node5 -->
<g id="node5" class="node"><title>Node5</title>
<g id="a_node5"><a xlink:href="classfwServices_1_1registry_1_1ActiveWorkers.html#aae9d40e1fe222f0d14ac8284d3abf83c" target="_top" xlink:title="Get the default registered worker. ">
<polygon fill="white" stroke="black" points="340,-48.5 340,-89.5 478,-89.5 478,-48.5 340,-48.5"/>
<text text-anchor="start" x="348" y="-77.5" font-family="Helvetica,sans-Serif" font-size="10.00">fwServices::registry</text>
<text text-anchor="start" x="348" y="-66.5" font-family="Helvetica,sans-Serif" font-size="10.00">::ActiveWorkers::getDefault</text>
<text text-anchor="middle" x="409" y="-55.5" font-family="Helvetica,sans-Serif" font-size="10.00">Worker</text>
</a>
</g>
</g>
<!-- Node4&#45;&gt;Node5 -->
<g id="edge4" class="edge"><title>Node4&#45;&gt;Node5</title>
<path fill="none" stroke="midnightblue" d="M271.652,-112.959C290.753,-106.801 313.318,-99.5259 334.536,-92.6853"/>
<polygon fill="midnightblue" stroke="midnightblue" points="335.729,-95.9781 344.172,-89.5784 333.581,-89.3158 335.729,-95.9781"/>
</g>
<!-- Node7 -->
<g id="node7" class="node"><title>Node7</title>
<g id="a_node7"><a xlink:href="classfwGui_1_1dialog_1_1MessageDialog.html#ad415a257e60d23427dbfdd5e151af61b" target="_top" xlink:title="Set the default button. ">
<polygon fill="white" stroke="black" points="335.5,-108 335.5,-138 482.5,-138 482.5,-108 335.5,-108"/>
<text text-anchor="start" x="343.5" y="-126" font-family="Helvetica,sans-Serif" font-size="10.00">fwGui::dialog::MessageDialog</text>
<text text-anchor="middle" x="409" y="-115" font-family="Helvetica,sans-Serif" font-size="10.00">::setDefaultButton</text>
</a>
</g>
</g>
<!-- Node4&#45;&gt;Node7 -->
<g id="edge8" class="edge"><title>Node4&#45;&gt;Node7</title>
<path fill="none" stroke="midnightblue" d="M297.589,-126.017C306.75,-125.766 316.175,-125.509 325.474,-125.255"/>
<polygon fill="midnightblue" stroke="midnightblue" points="325.598,-128.753 335.499,-124.981 325.407,-121.755 325.598,-128.753"/>
</g>
<!-- Node6 -->
<g id="node6" class="node"><title>Node6</title>
<g id="a_node6"><a xlink:href="classfwServices_1_1registry_1_1ActiveWorkers.html#a96003a042657996f7297f459e927ae16" target="_top" xlink:title="Returns an instance of ActiveWorkers. ">
<polygon fill="white" stroke="black" points="520,-54 520,-84 658,-84 658,-54 520,-54"/>
<text text-anchor="start" x="528" y="-72" font-family="Helvetica,sans-Serif" font-size="10.00">fwServices::registry</text>
<text text-anchor="middle" x="589" y="-61" font-family="Helvetica,sans-Serif" font-size="10.00">::ActiveWorkers::getDefault</text>
</a>
</g>
</g>
<!-- Node5&#45;&gt;Node6 -->
<g id="edge5" class="edge"><title>Node5&#45;&gt;Node6</title>
<path fill="none" stroke="midnightblue" d="M478.056,-69C488.469,-69 499.287,-69 509.895,-69"/>
<polygon fill="midnightblue" stroke="midnightblue" points="509.982,-72.5001 519.982,-69 509.982,-65.5001 509.982,-72.5001"/>
</g>
<!-- Node8&#45;&gt;Node5 -->
<g id="edge10" class="edge"><title>Node8&#45;&gt;Node5</title>
<path fill="none" stroke="midnightblue" d="M297.589,-75.0334C308.176,-74.4548 319.117,-73.857 329.809,-73.2727"/>
<polygon fill="midnightblue" stroke="midnightblue" points="330.171,-76.7583 339.965,-72.7177 329.789,-69.7687 330.171,-76.7583"/>
</g>
<!-- Node9&#45;&gt;Node5 -->
<g id="edge13" class="edge"><title>Node9&#45;&gt;Node5</title>
<path fill="none" stroke="midnightblue" d="M295.491,-45.0226C306.783,-47.4291 318.526,-49.9317 329.981,-52.373"/>
<polygon fill="midnightblue" stroke="midnightblue" points="329.445,-55.8372 339.955,-54.4985 330.904,-48.991 329.445,-55.8372"/>
</g>
<!-- Node10 -->
<g id="node10" class="node"><title>Node10</title>
<g id="a_node10"><a xlink:href="classfwGui_1_1dialog_1_1IMessageDialog.html#a3aafce0bcfa0fa0da4b5114ff798ddd7" target="_top" xlink:title="Show the message box and return the clicked button. ">
<polygon fill="white" stroke="black" points="334,-0 334,-30 484,-30 484,-0 334,-0"/>
<text text-anchor="start" x="342" y="-18" font-family="Helvetica,sans-Serif" font-size="10.00">fwGui::dialog::IMessageDialog</text>
<text text-anchor="middle" x="409" y="-7" font-family="Helvetica,sans-Serif" font-size="10.00">::show</text>
</a>
</g>
</g>
<!-- Node9&#45;&gt;Node10 -->
<g id="edge12" class="edge"><title>Node9&#45;&gt;Node10</title>
<path fill="none" stroke="midnightblue" d="M297.589,-24.0501C306.196,-23.3446 315.036,-22.62 323.787,-21.9027"/>
<polygon fill="midnightblue" stroke="midnightblue" points="324.319,-25.3709 334,-21.0656 323.747,-18.3943 324.319,-25.3709"/>
</g>
</g>
</svg>
