<?xml version="1.0" encoding="UTF-8" standalone="no"?>
<!DOCTYPE svg PUBLIC "-//W3C//DTD SVG 1.1//EN"
 "http://www.w3.org/Graphics/SVG/1.1/DTD/svg11.dtd">
<!-- Generated by graphviz version 2.36.0 (20140111.2315)
 -->
<!-- Title: fwMDSemanticPatch::V09ALA::V10::fwData::Image::apply Pages: 1 -->
<svg width="312pt" height="192pt"
 viewBox="0.00 0.00 312.00 192.00" xmlns="http://www.w3.org/2000/svg" xmlns:xlink="http://www.w3.org/1999/xlink">
<g id="graph0" class="graph" transform="scale(1 1) rotate(0) translate(4 188)">
<title>fwMDSemanticPatch::V09ALA::V10::fwData::Image::apply</title>
<polygon fill="white" stroke="none" points="-4,4 -4,-188 308,-188 308,4 -4,4"/>
<!-- Node1 -->
<g id="node1" class="node"><title>Node1</title>
<polygon fill="#bfbfbf" stroke="black" points="0,-65.5 0,-106.5 116,-106.5 116,-65.5 0,-65.5"/>
<text text-anchor="start" x="8" y="-94.5" font-family="Helvetica,sans-Serif" font-size="10.00">fwMDSemanticPatch::</text>
<text text-anchor="start" x="8" y="-83.5" font-family="Helvetica,sans-Serif" font-size="10.00">V09ALA::V10::fwData</text>
<text text-anchor="middle" x="58" y="-72.5" font-family="Helvetica,sans-Serif" font-size="10.00">::Image::apply</text>
</g>
<!-- Node2 -->
<g id="node2" class="node"><title>Node2</title>
<g id="a_node2"><a xlink:href="classfwTools_1_1UUID.html#a1dc0d3db04daaf5671d0012d9d716cee" target="_top" xlink:title="Return a new extended UUID;. ">
<polygon fill="white" stroke="black" points="152,-164.5 152,-183.5 304,-183.5 304,-164.5 152,-164.5"/>
<text text-anchor="middle" x="228" y="-171.5" font-family="Helvetica,sans-Serif" font-size="10.00">fwTools::UUID::generateUUID</text>
</a>
</g>
</g>
<!-- Node1&#45;&gt;Node2 -->
<g id="edge1" class="edge"><title>Node1&#45;&gt;Node2</title>
<path fill="none" stroke="midnightblue" d="M81.9056,-106.524C99.8373,-121.614 126.015,-141.577 152,-154 157.824,-156.785 164.095,-159.227 170.442,-161.359"/>
<polygon fill="midnightblue" stroke="midnightblue" points="169.835,-164.835 180.423,-164.456 171.91,-158.15 169.835,-164.835"/>
</g>
<!-- Node3 -->
<g id="node3" class="node"><title>Node3</title>
<g id="a_node3"><a xlink:href="classfwAtomsPatch_1_1StructuralCreatorDB.html#ad8eaf8036d6baca064f5b4d1163c381b" target="_top" xlink:title="Returns the default instance of StructuralCreatorDB. ">
<polygon fill="white" stroke="black" points="163.5,-115 163.5,-145 292.5,-145 292.5,-115 163.5,-115"/>
<text text-anchor="start" x="171.5" y="-133" font-family="Helvetica,sans-Serif" font-size="10.00">fwAtomsPatch::Structural</text>
<text text-anchor="middle" x="228" y="-122" font-family="Helvetica,sans-Serif" font-size="10.00">CreatorDB::getDefault</text>
</a>
</g>
</g>
<!-- Node1&#45;&gt;Node3 -->
<g id="edge2" class="edge"><title>Node1&#45;&gt;Node3</title>
<path fill="none" stroke="midnightblue" d="M116.346,-101.019C130.325,-104.68 145.403,-108.629 159.795,-112.399"/>
<polygon fill="midnightblue" stroke="midnightblue" points="159.067,-115.826 169.627,-114.974 160.84,-109.054 159.067,-115.826"/>
</g>
<!-- Node4 -->
<g id="node4" class="node"><title>Node4</title>
<g id="a_node4"><a xlink:href="classfwAtoms_1_1Boolean.html#a599ffe94152e39127c3ba7b18a649d15" target="_top" xlink:title="Construct an object storing a bool value. ">
<polygon fill="white" stroke="black" points="166.5,-76.5 166.5,-95.5 289.5,-95.5 289.5,-76.5 166.5,-76.5"/>
<text text-anchor="middle" x="228" y="-83.5" font-family="Helvetica,sans-Serif" font-size="10.00">fwAtoms::Boolean::New</text>
</a>
</g>
</g>
<!-- Node1&#45;&gt;Node4 -->
<g id="edge3" class="edge"><title>Node1&#45;&gt;Node4</title>
<path fill="none" stroke="midnightblue" d="M116.346,-86C129.223,-86 143.033,-86 156.379,-86"/>
<polygon fill="midnightblue" stroke="midnightblue" points="156.472,-89.5001 166.472,-86 156.472,-82.5001 156.472,-89.5001"/>
</g>
<!-- Node5 -->
<g id="node5" class="node"><title>Node5</title>
<g id="a_node5"><a xlink:href="classfwAtoms_1_1Numeric.html#a5eaa3cb6b8d2370fb5001b662a1073ef" target="_top" xlink:title="Build a new numeric type. ">
<polygon fill="white" stroke="black" points="165.5,-38.5 165.5,-57.5 290.5,-57.5 290.5,-38.5 165.5,-38.5"/>
<text text-anchor="middle" x="228" y="-45.5" font-family="Helvetica,sans-Serif" font-size="10.00">fwAtoms::Numeric::New</text>
</a>
</g>
</g>
<!-- Node1&#45;&gt;Node5 -->
<g id="edge4" class="edge"><title>Node1&#45;&gt;Node5</title>
<path fill="none" stroke="midnightblue" d="M116.346,-73.0288C135.362,-68.7277 156.41,-63.9667 175,-59.7619"/>
<polygon fill="midnightblue" stroke="midnightblue" points="175.778,-63.1745 184.759,-57.5545 174.233,-56.347 175.778,-63.1745"/>
</g>
<!-- Node6 -->
<g id="node6" class="node"><title>Node6</title>
<g id="a_node6"><a xlink:href="classfwAtoms_1_1String.html#a5e58c24f782dcaf06b0e7fc8d3fc689d" target="_top" xlink:title="Construct a new Object represented a string. ">
<polygon fill="white" stroke="black" points="171.5,-0.5 171.5,-19.5 284.5,-19.5 284.5,-0.5 171.5,-0.5"/>
<text text-anchor="middle" x="228" y="-7.5" font-family="Helvetica,sans-Serif" font-size="10.00">fwAtoms::String::New</text>
</a>
</g>
</g>
<!-- Node1&#45;&gt;Node6 -->
<g id="edge5" class="edge"><title>Node1&#45;&gt;Node6</title>
<path fill="none" stroke="midnightblue" d="M87.5154,-65.3949C105.324,-53.3372 129.141,-38.6373 152,-29 157.848,-26.5344 164.093,-24.3317 170.388,-22.3789"/>
<polygon fill="midnightblue" stroke="midnightblue" points="171.642,-25.6595 180.272,-19.5139 169.693,-18.9363 171.642,-25.6595"/>
</g>
</g>
</svg>
