<?xml version="1.0" encoding="UTF-8" standalone="no"?>
<!DOCTYPE svg PUBLIC "-//W3C//DTD SVG 1.1//EN"
 "http://www.w3.org/Graphics/SVG/1.1/DTD/svg11.dtd">
<!-- Generated by graphviz version 2.26.3 (20100126.1600)
 -->
<!-- Title: fwGdcmIO::reader::tid::MeasurementReport::readSR Pages: 1 -->
<svg width="624pt" height="56pt"
 viewBox="0.00 0.00 624.00 56.00" xmlns="http://www.w3.org/2000/svg" xmlns:xlink="http://www.w3.org/1999/xlink">
<g id="graph1" class="graph" transform="scale(1 1) rotate(0) translate(4 52)">
<title>fwGdcmIO::reader::tid::MeasurementReport::readSR</title>
<polygon fill="white" stroke="white" points="-4,5 -4,-52 621,-52 621,5 -4,5"/>
<!-- Node1 -->
<g id="node1" class="node"><title>Node1</title>
<polygon fill="#bfbfbf" stroke="black" points="0.5,-0.5 0.5,-47.5 117.5,-47.5 117.5,-0.5 0.5,-0.5"/>
<text text-anchor="start" x="8.5" y="-34.5" font-family="Helvetica,sans-Serif" font-size="10.00">fwGdcmIO::reader::tid</text>
<text text-anchor="start" x="8.5" y="-21.5" font-family="Helvetica,sans-Serif" font-size="10.00">::MeasurementReport::</text>
<text text-anchor="middle" x="59" y="-8.5" font-family="Helvetica,sans-Serif" font-size="10.00">readSR</text>
</g>
<!-- Node2 -->
<g id="node3" class="node"><title>Node2</title>
<a xlink:href="classfwGdcmIO_1_1reader_1_1ie_1_1Document.html#ae6da9916273eb44ed3e2373ae9afcd35" target="_top" xlink:title="Read the Structured Report. ">
<polygon fill="white" stroke="black" points="154,-7 154,-41 264,-41 264,-7 154,-7"/>
<text text-anchor="start" x="162" y="-28" font-family="Helvetica,sans-Serif" font-size="10.00">fwGdcmIO::reader::ie</text>
<text text-anchor="middle" x="209" y="-15" font-family="Helvetica,sans-Serif" font-size="10.00">::Document::readSR</text>
</a>
</g>
<!-- Node1&#45;&gt;Node2 -->
<g id="edge2" class="edge"><title>Node1&#45;&gt;Node2</title>
<path fill="none" stroke="midnightblue" d="M127.931,-24C136.582,-24 145.341,-24 153.745,-24"/>
<polygon fill="midnightblue" stroke="midnightblue" points="127.853,-20.5001 117.853,-24 127.853,-27.5001 127.853,-20.5001"/>
</g>
<!-- Node3 -->
<g id="node5" class="node"><title>Node3</title>
<a xlink:href="classfwGdcmIO_1_1reader_1_1iod_1_1ComprehensiveSRIOD.html#a748271e420dd95c9547a223b0e7a3568" target="_top" xlink:title="Read a DICOM File. ">
<polygon fill="white" stroke="black" points="300,-7 300,-41 448,-41 448,-7 300,-7"/>
<text text-anchor="start" x="308" y="-28" font-family="Helvetica,sans-Serif" font-size="10.00">fwGdcmIO::reader::iod</text>
<text text-anchor="middle" x="374" y="-15" font-family="Helvetica,sans-Serif" font-size="10.00">::ComprehensiveSRIOD::read</text>
</a>
</g>
<!-- Node2&#45;&gt;Node3 -->
<g id="edge4" class="edge"><title>Node2&#45;&gt;Node3</title>
<path fill="none" stroke="midnightblue" d="M274.477,-24C282.857,-24 291.482,-24 299.986,-24"/>
<polygon fill="midnightblue" stroke="midnightblue" points="274.402,-20.5001 264.402,-24 274.402,-27.5001 274.402,-20.5001"/>
</g>
<!-- Node4 -->
<g id="node7" class="node"><title>Node4</title>
<a xlink:href="classfwGdcmIO_1_1reader_1_1Series.html#a6a37a4d62baf8ed22f884c755372dfc0" target="_top" xlink:title="Destructor. ">
<polygon fill="white" stroke="black" points="484.5,-7 484.5,-41 615.5,-41 615.5,-7 484.5,-7"/>
<text text-anchor="start" x="492.5" y="-28" font-family="Helvetica,sans-Serif" font-size="10.00">fwGdcmIO::reader::Series</text>
<text text-anchor="middle" x="550" y="-15" font-family="Helvetica,sans-Serif" font-size="10.00">::~Series</text>
</a>
</g>
<!-- Node3&#45;&gt;Node4 -->
<g id="edge6" class="edge"><title>Node3&#45;&gt;Node4</title>
<path fill="none" stroke="midnightblue" d="M458.339,-24C467.073,-24 475.854,-24 484.339,-24"/>
<polygon fill="midnightblue" stroke="midnightblue" points="458.13,-20.5001 448.13,-24 458.13,-27.5001 458.13,-20.5001"/>
</g>
</g>
</svg>
