<?xml version="1.0" encoding="UTF-8" standalone="no"?>
<!DOCTYPE svg PUBLIC "-//W3C//DTD SVG 1.1//EN"
 "http://www.w3.org/Graphics/SVG/1.1/DTD/svg11.dtd">
<!-- Generated by graphviz version 2.36.0 (20140111.2315)
 -->
<!-- Title: vtkSimpleMesh::SRenderer::updating Pages: 1 -->
<svg width="656pt" height="479pt"
 viewBox="0.00 0.00 656.00 479.00" xmlns="http://www.w3.org/2000/svg" xmlns:xlink="http://www.w3.org/1999/xlink">
<g id="graph0" class="graph" transform="scale(1 1) rotate(0) translate(4 475)">
<title>vtkSimpleMesh::SRenderer::updating</title>
<polygon fill="white" stroke="none" points="-4,4 -4,-475 652,-475 652,4 -4,4"/>
<!-- Node1 -->
<g id="node1" class="node"><title>Node1</title>
<polygon fill="#bfbfbf" stroke="black" points="0.5,-218 0.5,-248 137.5,-248 137.5,-218 0.5,-218"/>
<text text-anchor="start" x="8.5" y="-236" font-family="Helvetica,sans-Serif" font-size="10.00">vtkSimpleMesh::SRenderer</text>
<text text-anchor="middle" x="69" y="-225" font-family="Helvetica,sans-Serif" font-size="10.00">::updating</text>
</g>
<!-- Node2 -->
<g id="node2" class="node"><title>Node2</title>
<g id="a_node2"><a xlink:href="classfwVtkIO_1_1helper_1_1Mesh.html#aa8f409baff52f2a52ec44ed91c21d54e" target="_top" xlink:title="Convert a ::fwData::Mesh::csptr to a vtkPolyData. ">
<polygon fill="white" stroke="black" points="174.5,-218 174.5,-248 289.5,-248 289.5,-218 174.5,-218"/>
<text text-anchor="start" x="182.5" y="-236" font-family="Helvetica,sans-Serif" font-size="10.00">fwVtkIO::helper::Mesh</text>
<text text-anchor="middle" x="232" y="-225" font-family="Helvetica,sans-Serif" font-size="10.00">::toVTKMesh</text>
</a>
</g>
</g>
<!-- Node1&#45;&gt;Node2 -->
<g id="edge1" class="edge"><title>Node1&#45;&gt;Node2</title>
<path fill="none" stroke="midnightblue" d="M137.812,-233C146.583,-233 155.56,-233 164.313,-233"/>
<polygon fill="midnightblue" stroke="midnightblue" points="164.459,-236.5 174.459,-233 164.458,-229.5 164.459,-236.5"/>
</g>
<!-- Node8 -->
<g id="node8" class="node"><title>Node8</title>
<g id="a_node8"><a xlink:href="classfwVtkIO_1_1helper_1_1Mesh.html#af809f0d340eafd4267c207c363401859" target="_top" xlink:title="Update a vtkPolyData with cell normals of fwData::Mesh. ">
<polygon fill="white" stroke="black" points="335,-49 335,-79 481,-79 481,-49 335,-49"/>
<text text-anchor="start" x="343" y="-67" font-family="Helvetica,sans-Serif" font-size="10.00">fwVtkIO::helper::Mesh</text>
<text text-anchor="middle" x="408" y="-56" font-family="Helvetica,sans-Serif" font-size="10.00">::updatePolyDataCellNormals</text>
</a>
</g>
</g>
<!-- Node1&#45;&gt;Node8 -->
<g id="edge19" class="edge"><title>Node1&#45;&gt;Node8</title>
<path fill="none" stroke="midnightblue" d="M92.3957,-217.981C135.838,-189.385 235.266,-126.544 326,-88 330.689,-86.0081 335.597,-84.115 340.577,-82.3304"/>
<polygon fill="midnightblue" stroke="midnightblue" points="341.879,-85.5842 350.207,-79.035 339.613,-78.9613 341.879,-85.5842"/>
</g>
<!-- Node10 -->
<g id="node10" class="node"><title>Node10</title>
<g id="a_node10"><a xlink:href="classfwVtkIO_1_1helper_1_1Mesh.html#a766bb65c3956e0c029675be37021d286" target="_top" xlink:title="Update a vtkPolyData with point color of fwData::Mesh. ">
<polygon fill="white" stroke="black" points="339,-441 339,-471 477,-471 477,-441 339,-441"/>
<text text-anchor="start" x="347" y="-459" font-family="Helvetica,sans-Serif" font-size="10.00">fwVtkIO::helper::Mesh</text>
<text text-anchor="middle" x="408" y="-448" font-family="Helvetica,sans-Serif" font-size="10.00">::updatePolyDataPointColor</text>
</a>
</g>
</g>
<!-- Node1&#45;&gt;Node10 -->
<g id="edge20" class="edge"><title>Node1&#45;&gt;Node10</title>
<path fill="none" stroke="midnightblue" d="M81.1585,-248.114C98.9062,-271.426 135.513,-316.631 174,-347 234.593,-394.813 254.972,-400.793 326,-431 331.466,-433.325 337.222,-435.538 343.04,-437.616"/>
<polygon fill="midnightblue" stroke="midnightblue" points="342.256,-441.048 352.851,-440.984 344.529,-434.427 342.256,-441.048"/>
</g>
<!-- Node11 -->
<g id="node11" class="node"><title>Node11</title>
<g id="a_node11"><a xlink:href="classfwVtkIO_1_1helper_1_1Mesh.html#ab008aa46b6fc7ddf85b5e33fb97ca716" target="_top" xlink:title="Update a vtkPolyData with point normals of fwData::Mesh. ">
<polygon fill="white" stroke="black" points="332,-392 332,-422 484,-422 484,-392 332,-392"/>
<text text-anchor="start" x="340" y="-410" font-family="Helvetica,sans-Serif" font-size="10.00">fwVtkIO::helper::Mesh</text>
<text text-anchor="middle" x="408" y="-399" font-family="Helvetica,sans-Serif" font-size="10.00">::updatePolyDataPointNormals</text>
</a>
</g>
</g>
<!-- Node1&#45;&gt;Node11 -->
<g id="edge21" class="edge"><title>Node1&#45;&gt;Node11</title>
<path fill="none" stroke="midnightblue" d="M92.0304,-248.162C135.244,-277.362 234.87,-342.041 326,-382 331.267,-384.31 336.814,-386.496 342.431,-388.544"/>
<polygon fill="midnightblue" stroke="midnightblue" points="341.322,-391.864 351.916,-391.857 343.63,-385.256 341.322,-391.864"/>
</g>
<!-- Node12 -->
<g id="node12" class="node"><title>Node12</title>
<g id="a_node12"><a xlink:href="classfwVtkIO_1_1helper_1_1Mesh.html#abb82997b2ba5052b8b342f39ad8005b4" target="_top" xlink:title="Update a vtkPolyData with ::fwData::Mesh::sptr points. ">
<polygon fill="white" stroke="black" points="348,-0 348,-30 468,-30 468,-0 348,-0"/>
<text text-anchor="start" x="356" y="-18" font-family="Helvetica,sans-Serif" font-size="10.00">fwVtkIO::helper::Mesh</text>
<text text-anchor="middle" x="408" y="-7" font-family="Helvetica,sans-Serif" font-size="10.00">::updatePolyDataPoints</text>
</a>
</g>
</g>
<!-- Node1&#45;&gt;Node12 -->
<g id="edge22" class="edge"><title>Node1&#45;&gt;Node12</title>
<path fill="none" stroke="midnightblue" d="M78.3434,-217.852C93.879,-190.904 129.717,-134.343 174,-101 222.661,-64.3601 288.569,-41.9699 337.871,-29.2599"/>
<polygon fill="midnightblue" stroke="midnightblue" points="338.963,-32.5945 347.813,-26.7694 337.262,-25.8043 338.963,-32.5945"/>
</g>
<!-- Node3 -->
<g id="node3" class="node"><title>Node3</title>
<g id="a_node3"><a xlink:href="classfwDataTools_1_1helper_1_1MeshGetter.html#a7b167e5224784a2a395afecff576feab" target="_top" xlink:title="Returns the internal corresponding array as a boost::multi_array_ref. ">
<polygon fill="white" stroke="black" points="342.5,-294 342.5,-324 473.5,-324 473.5,-294 342.5,-294"/>
<text text-anchor="start" x="350.5" y="-312" font-family="Helvetica,sans-Serif" font-size="10.00">fwDataTools::helper</text>
<text text-anchor="middle" x="408" y="-301" font-family="Helvetica,sans-Serif" font-size="10.00">::MeshGetter::getCellData</text>
</a>
</g>
</g>
<!-- Node2&#45;&gt;Node3 -->
<g id="edge2" class="edge"><title>Node2&#45;&gt;Node3</title>
<path fill="none" stroke="midnightblue" d="M257.19,-248.037C275.574,-259.024 301.751,-273.734 326,-284 331.47,-286.316 337.228,-288.523 343.048,-290.597"/>
<polygon fill="midnightblue" stroke="midnightblue" points="342.266,-294.029 352.861,-293.961 344.536,-287.407 342.266,-294.029"/>
</g>
<!-- Node4 -->
<g id="node4" class="node"><title>Node4</title>
<g id="a_node4"><a xlink:href="classfwDataTools_1_1helper_1_1MeshGetter.html#aac4c28eb227ebd9c8b1656b1af756cd4" target="_top" xlink:title="Returns the internal corresponding array as a boost::multi_array_ref. ">
<polygon fill="white" stroke="black" points="326,-245 326,-275 490,-275 490,-245 326,-245"/>
<text text-anchor="start" x="334" y="-263" font-family="Helvetica,sans-Serif" font-size="10.00">fwDataTools::helper</text>
<text text-anchor="middle" x="408" y="-252" font-family="Helvetica,sans-Serif" font-size="10.00">::MeshGetter::getCellDataOffsets</text>
</a>
</g>
</g>
<!-- Node2&#45;&gt;Node4 -->
<g id="edge3" class="edge"><title>Node2&#45;&gt;Node4</title>
<path fill="none" stroke="midnightblue" d="M289.974,-241.841C298.327,-243.137 307.102,-244.499 315.932,-245.869"/>
<polygon fill="midnightblue" stroke="midnightblue" points="315.488,-249.342 325.906,-247.416 316.561,-242.424 315.488,-249.342"/>
</g>
<!-- Node5 -->
<g id="node5" class="node"><title>Node5</title>
<g id="a_node5"><a xlink:href="classfwDataTools_1_1helper_1_1MeshGetter.html#a96de8b0a90cd9814bb274cf2902b8015" target="_top" xlink:title="Returns the internal corresponding array as a boost::multi_array_ref. ">
<polygon fill="white" stroke="black" points="339.5,-98 339.5,-128 476.5,-128 476.5,-98 339.5,-98"/>
<text text-anchor="start" x="347.5" y="-116" font-family="Helvetica,sans-Serif" font-size="10.00">fwDataTools::helper</text>
<text text-anchor="middle" x="408" y="-105" font-family="Helvetica,sans-Serif" font-size="10.00">::MeshGetter::getCellTypes</text>
</a>
</g>
</g>
<!-- Node2&#45;&gt;Node5 -->
<g id="edge4" class="edge"><title>Node2&#45;&gt;Node5</title>
<path fill="none" stroke="midnightblue" d="M248.078,-217.81C259.613,-206.153 275.883,-189.63 290,-175 306.154,-158.258 306.169,-149.165 326,-137 328.813,-135.274 331.757,-133.667 334.788,-132.17"/>
<polygon fill="midnightblue" stroke="midnightblue" points="336.398,-135.284 344.094,-128.003 333.537,-128.895 336.398,-135.284"/>
</g>
<!-- Node6 -->
<g id="node6" class="node"><title>Node6</title>
<g id="a_node6"><a xlink:href="classfwVtkIO_1_1helper_1_1Mesh.html#acad0e6fa6a0434344e1b6836afeecc41" target="_top" xlink:title="Update a vtkPolyData with cell color of fwData::Mesh. ">
<polygon fill="white" stroke="black" points="341.5,-196 341.5,-226 474.5,-226 474.5,-196 341.5,-196"/>
<text text-anchor="start" x="349.5" y="-214" font-family="Helvetica,sans-Serif" font-size="10.00">fwVtkIO::helper::Mesh</text>
<text text-anchor="middle" x="408" y="-203" font-family="Helvetica,sans-Serif" font-size="10.00">::updatePolyDataCellColor</text>
</a>
</g>
</g>
<!-- Node2&#45;&gt;Node6 -->
<g id="edge5" class="edge"><title>Node2&#45;&gt;Node6</title>
<path fill="none" stroke="midnightblue" d="M289.974,-225.796C303.213,-224.122 317.51,-222.315 331.411,-220.557"/>
<polygon fill="midnightblue" stroke="midnightblue" points="331.961,-224.016 341.443,-219.289 331.083,-217.071 331.961,-224.016"/>
</g>
<!-- Node2&#45;&gt;Node8 -->
<g id="edge7" class="edge"><title>Node2&#45;&gt;Node8</title>
<path fill="none" stroke="midnightblue" d="M251.05,-217.985C263.297,-207.059 279.171,-191.366 290,-175 313.091,-140.101 294.908,-116.007 326,-88 327.311,-86.819 328.678,-85.6959 330.092,-84.6281"/>
<polygon fill="midnightblue" stroke="midnightblue" points="332.156,-87.462 338.656,-79.0954 328.357,-81.5824 332.156,-87.462"/>
</g>
<!-- Node9 -->
<g id="node9" class="node"><title>Node9</title>
<g id="a_node9"><a xlink:href="classfwVtkIO_1_1helper_1_1Mesh.html#a03135761231bc0a48d4be037e4e1405d" target="_top" xlink:title="Update a vtkPolyData with cell texCoords of fwData::Mesh. ">
<polygon fill="white" stroke="black" points="329,-147 329,-177 487,-177 487,-147 329,-147"/>
<text text-anchor="start" x="337" y="-165" font-family="Helvetica,sans-Serif" font-size="10.00">fwVtkIO::helper::Mesh</text>
<text text-anchor="middle" x="408" y="-154" font-family="Helvetica,sans-Serif" font-size="10.00">::updatePolyDataCellTexCoords</text>
</a>
</g>
</g>
<!-- Node2&#45;&gt;Node9 -->
<g id="edge9" class="edge"><title>Node2&#45;&gt;Node9</title>
<path fill="none" stroke="midnightblue" d="M260.55,-217.92C278.784,-208.305 303.411,-196.005 326,-187 331.831,-184.675 337.968,-182.431 344.147,-180.305"/>
<polygon fill="midnightblue" stroke="midnightblue" points="345.475,-183.552 353.853,-177.067 343.26,-176.912 345.475,-183.552"/>
</g>
<!-- Node2&#45;&gt;Node10 -->
<g id="edge11" class="edge"><title>Node2&#45;&gt;Node10</title>
<path fill="none" stroke="midnightblue" d="M235.77,-248.169C243.308,-285.089 267.669,-380.3 326,-431 327.944,-432.69 330,-434.265 332.145,-435.734"/>
<polygon fill="midnightblue" stroke="midnightblue" points="330.421,-438.78 340.804,-440.888 334.001,-432.766 330.421,-438.78"/>
</g>
<!-- Node2&#45;&gt;Node11 -->
<g id="edge13" class="edge"><title>Node2&#45;&gt;Node11</title>
<path fill="none" stroke="midnightblue" d="M240.671,-248.089C258.234,-282.113 301.717,-363.306 326,-382 328.429,-383.87 330.999,-385.601 333.671,-387.204"/>
<polygon fill="midnightblue" stroke="midnightblue" points="332.029,-390.295 342.502,-391.896 335.314,-384.113 332.029,-390.295"/>
</g>
<!-- Node2&#45;&gt;Node12 -->
<g id="edge15" class="edge"><title>Node2&#45;&gt;Node12</title>
<path fill="none" stroke="midnightblue" d="M235.888,-217.822C243.63,-181.354 268.298,-88.188 326,-39 329.778,-35.7798 333.972,-32.9916 338.407,-30.5775"/>
<polygon fill="midnightblue" stroke="midnightblue" points="340.255,-33.5749 347.792,-26.1288 337.257,-27.2495 340.255,-33.5749"/>
</g>
<!-- Node14 -->
<g id="node14" class="node"><title>Node14</title>
<g id="a_node14"><a xlink:href="classfwVtkIO_1_1helper_1_1Mesh.html#ab8e38cb904d9252dae42d1dfc9f55036" target="_top" xlink:title="Update a vtkPolyData with point texCoords of fwData::Mesh. ">
<polygon fill="white" stroke="black" points="326.5,-343 326.5,-373 489.5,-373 489.5,-343 326.5,-343"/>
<text text-anchor="start" x="334.5" y="-361" font-family="Helvetica,sans-Serif" font-size="10.00">fwVtkIO::helper::Mesh</text>
<text text-anchor="middle" x="408" y="-350" font-family="Helvetica,sans-Serif" font-size="10.00">::updatePolyDataPointTexCoords</text>
</a>
</g>
</g>
<!-- Node2&#45;&gt;Node14 -->
<g id="edge17" class="edge"><title>Node2&#45;&gt;Node14</title>
<path fill="none" stroke="midnightblue" d="M243.166,-248.209C258.561,-270.091 289.855,-310.313 326,-333 329.34,-335.097 332.869,-337.028 336.509,-338.806"/>
<polygon fill="midnightblue" stroke="midnightblue" points="335.188,-342.049 345.747,-342.917 338.034,-335.654 335.188,-342.049"/>
</g>
<!-- Node7 -->
<g id="node7" class="node"><title>Node7</title>
<g id="a_node7"><a xlink:href="classfwDataTools_1_1helper_1_1Array.html#a17c77d0c960d6e0cbefd90235f9761f0" target="_top" xlink:title="Returns the begining/end of the buffer interpreted as a char buffer. ">
<polygon fill="white" stroke="black" points="535,-269 535,-299 639,-299 639,-269 535,-269"/>
<text text-anchor="start" x="543" y="-287" font-family="Helvetica,sans-Serif" font-size="10.00">fwDataTools::helper</text>
<text text-anchor="middle" x="587" y="-276" font-family="Helvetica,sans-Serif" font-size="10.00">::Array::begin</text>
</a>
</g>
</g>
<!-- Node6&#45;&gt;Node7 -->
<g id="edge6" class="edge"><title>Node6&#45;&gt;Node7</title>
<path fill="none" stroke="midnightblue" d="M462.159,-226.035C471.53,-229.074 481.122,-232.438 490,-236 510.323,-244.153 532.217,-254.935 549.958,-264.215"/>
<polygon fill="midnightblue" stroke="midnightblue" points="548.35,-267.324 558.826,-268.909 551.625,-261.138 548.35,-267.324"/>
</g>
<!-- Node8&#45;&gt;Node7 -->
<g id="edge8" class="edge"><title>Node8&#45;&gt;Node7</title>
<path fill="none" stroke="midnightblue" d="M476.711,-79.1582C481.467,-81.6673 485.967,-84.5916 490,-88 544.174,-133.788 570.453,-217.42 580.664,-259.064"/>
<polygon fill="midnightblue" stroke="midnightblue" points="577.287,-259.992 582.974,-268.931 584.103,-258.397 577.287,-259.992"/>
</g>
<!-- Node9&#45;&gt;Node7 -->
<g id="edge10" class="edge"><title>Node9&#45;&gt;Node7</title>
<path fill="none" stroke="midnightblue" d="M469.714,-177.101C476.783,-179.907 483.707,-183.185 490,-187 522.017,-206.409 551.087,-238.817 568.648,-260.78"/>
<polygon fill="midnightblue" stroke="midnightblue" points="566.095,-263.198 575.013,-268.92 571.61,-258.886 566.095,-263.198"/>
</g>
<!-- Node10&#45;&gt;Node7 -->
<g id="edge12" class="edge"><title>Node10&#45;&gt;Node7</title>
<path fill="none" stroke="midnightblue" d="M473.005,-440.98C479.042,-438.193 484.829,-434.897 490,-431 532.797,-398.747 562.089,-341.462 576.241,-308.74"/>
<polygon fill="midnightblue" stroke="midnightblue" points="579.506,-310.003 580.145,-299.428 573.05,-307.297 579.506,-310.003"/>
</g>
<!-- Node11&#45;&gt;Node7 -->
<g id="edge14" class="edge"><title>Node11&#45;&gt;Node7</title>
<path fill="none" stroke="midnightblue" d="M469.733,-391.93C476.799,-389.119 483.717,-385.831 490,-382 522.277,-362.32 551.433,-329.371 568.931,-307.172"/>
<polygon fill="midnightblue" stroke="midnightblue" points="571.713,-309.297 575.049,-299.241 566.17,-305.022 571.713,-309.297"/>
</g>
<!-- Node13 -->
<g id="node13" class="node"><title>Node13</title>
<g id="a_node13"><a xlink:href="classfwDataTools_1_1helper_1_1MeshGetter.html#a045f398986d2616a92ace12ae4aa75c5" target="_top" xlink:title="Returns the internal corresponding array as a boost::multi_array_ref. ">
<polygon fill="white" stroke="black" points="526.5,-0 526.5,-30 647.5,-30 647.5,-0 526.5,-0"/>
<text text-anchor="start" x="534.5" y="-18" font-family="Helvetica,sans-Serif" font-size="10.00">fwDataTools::helper</text>
<text text-anchor="middle" x="587" y="-7" font-family="Helvetica,sans-Serif" font-size="10.00">::MeshGetter::getPoints</text>
</a>
</g>
</g>
<!-- Node12&#45;&gt;Node13 -->
<g id="edge16" class="edge"><title>Node12&#45;&gt;Node13</title>
<path fill="none" stroke="midnightblue" d="M468.431,-15C483.754,-15 500.386,-15 516.185,-15"/>
<polygon fill="midnightblue" stroke="midnightblue" points="516.425,-18.5001 526.425,-15 516.425,-11.5001 516.425,-18.5001"/>
</g>
<!-- Node14&#45;&gt;Node7 -->
<g id="edge18" class="edge"><title>Node14&#45;&gt;Node7</title>
<path fill="none" stroke="midnightblue" d="M462.617,-342.885C471.847,-339.877 481.273,-336.543 490,-333 510.522,-324.668 532.59,-313.566 550.387,-304.036"/>
<polygon fill="midnightblue" stroke="midnightblue" points="552.15,-307.061 559.274,-299.219 548.814,-300.907 552.15,-307.061"/>
</g>
</g>
</svg>
