<?xml version="1.0" encoding="UTF-8" standalone="no"?>
<!DOCTYPE svg PUBLIC "-//W3C//DTD SVG 1.1//EN"
 "http://www.w3.org/Graphics/SVG/1.1/DTD/svg11.dtd">
<!-- Generated by graphviz version 2.36.0 (20140111.2315)
 -->
<!-- Title: fwItkIO::ImageWriter Pages: 1 -->
<!--zoomable 163 -->
<svg id="main" version="1.1" xmlns="http://www.w3.org/2000/svg" xmlns:xlink="http://www.w3.org/1999/xlink" xml:space="preserve" onload="init(evt)">
<style type="text/css"><![CDATA[
.edge:hover path { stroke: red; }
.edge:hover polygon { stroke: red; fill: red; }
]]></style>
<script type="text/javascript"><![CDATA[
var edges = document.getElementsByTagName('g');
if (edges && edges.length) {
  for (var i=0;i<edges.length;i++) {
    if (edges[i].id.substr(0,4)=='edge') {
      edges[i].setAttribute('class','edge');
    }
  }
}
]]></script>
        <defs>
                <circle id="rim" cx="0" cy="0" r="7"/>
                <circle id="rim2" cx="0" cy="0" r="3.5"/>
                <g id="zoomPlus">
                        <use xlink:href="#rim" fill="#404040">
                                <set attributeName="fill" to="#808080" begin="zoomplus.mouseover" end="zoomplus.mouseout"/>
                        </use>
                        <path d="M-4,0h8M0,-4v8" fill="none" stroke="white" stroke-width="1.5" pointer-events="none"/>
                </g>
                <g id="zoomMin">
                        <use xlink:href="#rim" fill="#404040">
                                <set attributeName="fill" to="#808080" begin="zoomminus.mouseover" end="zoomminus.mouseout"/>
                        </use>
                        <path d="M-4,0h8" fill="none" stroke="white" stroke-width="1.5" pointer-events="none"/>
                </g>
                <g id="dirArrow">
                        <path fill="none" stroke="white" stroke-width="1.5" d="M0,-3.0v7 M-2.5,-0.5L0,-3.0L2.5,-0.5"/>
                </g>
               <g id="resetDef">
                       <use xlink:href="#rim2" fill="#404040">
                               <set attributeName="fill" to="#808080" begin="reset.mouseover" end="reset.mouseout"/>
                       </use>
               </g>
        </defs>

<script type="text/javascript">
var viewWidth = 1034;
var viewHeight = 163;
var sectionId = 'dynsection-0';
</script>
<script xlink:href="svgpan.js"/>
<svg id="graph" class="graph">
<g id="viewport">
<title>fwItkIO::ImageWriter</title>
<polygon fill="white" stroke="none" points="-4,4 -4,-159 1030,-159 1030,4 -4,4"/>
<!-- Node1 -->
<g id="node1" class="node"><title>Node1</title>
<polygon fill="#bfbfbf" stroke="black" points="918,-49.5 918,-68.5 1026,-68.5 1026,-49.5 918,-49.5"/>
<text text-anchor="middle" x="972" y="-56.5" font-family="Helvetica,sans-Serif" font-size="10.00">fwItkIO::ImageWriter</text>
</g>
<!-- Node2 -->
<g id="node2" class="node"><title>Node2</title>
<g id="a_node2"><a xlink:href="classfwDataIO_1_1writer_1_1GenericObjectWriter.html" target="_top" xlink:title="fwDataIO::writer::Generic\lObjectWriter\&lt; ::fwData\l::Image \&gt;">
<polygon fill="white" stroke="black" points="751,-98.5 751,-139.5 879,-139.5 879,-98.5 751,-98.5"/>
<text text-anchor="start" x="759" y="-127.5" font-family="Helvetica,sans-Serif" font-size="10.00">fwDataIO::writer::Generic</text>
<text text-anchor="start" x="759" y="-116.5" font-family="Helvetica,sans-Serif" font-size="10.00">ObjectWriter&lt; ::fwData</text>
<text text-anchor="middle" x="815" y="-105.5" font-family="Helvetica,sans-Serif" font-size="10.00">::Image &gt;</text>
</a>
</g>
</g>
<!-- Node2&#45;&gt;Node1 -->
<g id="edge1" class="edge"><title>Node2&#45;&gt;Node1</title>
<path fill="none" stroke="midnightblue" d="M878.977,-94.6218C902.602,-85.4766 928.095,-75.6084 946.244,-68.5829"/>
<polygon fill="midnightblue" stroke="midnightblue" points="877.404,-91.4774 869.342,-98.3514 879.931,-98.0054 877.404,-91.4774"/>
</g>
<!-- Node3 -->
<g id="node3" class="node"><title>Node3</title>
<g id="a_node3"><a xlink:href="classfwDataIO_1_1writer_1_1IObjectWriter.html" target="_top" xlink:title="Base class for all object writers. ">
<polygon fill="white" stroke="black" points="314,-125 314,-155 440,-155 440,-125 314,-125"/>
<text text-anchor="start" x="322" y="-143" font-family="Helvetica,sans-Serif" font-size="10.00">fwDataIO::writer::IObject</text>
<text text-anchor="middle" x="377" y="-132" font-family="Helvetica,sans-Serif" font-size="10.00">Writer</text>
</a>
</g>
</g>
<!-- Node3&#45;&gt;Node2 -->
<g id="edge2" class="edge"><title>Node3&#45;&gt;Node2</title>
<path fill="none" stroke="midnightblue" d="M450.494,-142.07C522.198,-143.294 634.964,-143.003 732,-133 738.177,-132.363 744.593,-131.545 750.993,-130.625"/>
<polygon fill="midnightblue" stroke="midnightblue" points="450.283,-138.566 440.22,-141.88 450.153,-145.565 450.283,-138.566"/>
</g>
<!-- Node6 -->
<g id="node6" class="node"><title>Node6</title>
<g id="a_node6"><a xlink:href="classfwDataIO_1_1writer_1_1GenericObjectWriter.html" target="_top" xlink:title="generic class for all object writers. ">
<polygon fill="white" stroke="black" points="478.5,-98 478.5,-128 621.5,-128 621.5,-98 478.5,-98"/>
<text text-anchor="start" x="486.5" y="-116" font-family="Helvetica,sans-Serif" font-size="10.00">fwDataIO::writer::Generic</text>
<text text-anchor="middle" x="550" y="-105" font-family="Helvetica,sans-Serif" font-size="10.00">ObjectWriter&lt; DATATYPE &gt;</text>
</a>
</g>
</g>
<!-- Node3&#45;&gt;Node6 -->
<g id="edge6" class="edge"><title>Node3&#45;&gt;Node6</title>
<path fill="none" stroke="midnightblue" d="M450.24,-128.594C459.573,-127.12 469.122,-125.612 478.428,-124.143"/>
<polygon fill="midnightblue" stroke="midnightblue" points="449.55,-125.159 440.219,-130.176 450.642,-132.073 449.55,-125.159"/>
</g>
<!-- Node4 -->
<g id="node4" class="node"><title>Node4</title>
<g id="a_node4"><a xlink:href="classfwCore_1_1BaseObject.html" target="_top" xlink:title="Base class for all FW4SPL&#39;s classes. ">
<polygon fill="white" stroke="black" points="170.5,-130.5 170.5,-149.5 275.5,-149.5 275.5,-130.5 170.5,-130.5"/>
<text text-anchor="middle" x="223" y="-137.5" font-family="Helvetica,sans-Serif" font-size="10.00">fwCore::BaseObject</text>
</a>
</g>
</g>
<!-- Node4&#45;&gt;Node3 -->
<g id="edge3" class="edge"><title>Node4&#45;&gt;Node3</title>
<path fill="none" stroke="midnightblue" d="M286.081,-140C295.243,-140 304.685,-140 313.849,-140"/>
<polygon fill="midnightblue" stroke="midnightblue" points="285.885,-136.5 275.885,-140 285.885,-143.5 285.885,-136.5"/>
</g>
<!-- Node5 -->
<g id="node5" class="node"><title>Node5</title>
<polygon fill="white" stroke="#bfbfbf" points="0.5,-125 0.5,-155 131.5,-155 131.5,-125 0.5,-125"/>
<text text-anchor="start" x="8.5" y="-143" font-family="Helvetica,sans-Serif" font-size="10.00">std::enable_shared</text>
<text text-anchor="middle" x="66" y="-132" font-family="Helvetica,sans-Serif" font-size="10.00">_from_this&lt; BaseObject &gt;</text>
</g>
<!-- Node5&#45;&gt;Node4 -->
<g id="edge4" class="edge"><title>Node5&#45;&gt;Node4</title>
<path fill="none" stroke="midnightblue" d="M142.089,-140C151.581,-140 161.12,-140 170.138,-140"/>
<polygon fill="midnightblue" stroke="midnightblue" points="141.836,-136.5 131.836,-140 141.836,-143.5 141.836,-136.5"/>
</g>
<!-- Node6&#45;&gt;Node2 -->
<g id="edge5" class="edge"><title>Node6&#45;&gt;Node2</title>
<path fill="none" stroke="orange" stroke-dasharray="5,2" d="M631.893,-114.845C670.093,-115.717 715.016,-116.742 750.686,-117.556"/>
<polygon fill="orange" stroke="orange" points="631.902,-111.345 621.825,-114.616 631.743,-118.343 631.902,-111.345"/>
<text text-anchor="middle" x="686" y="-121" font-family="Helvetica,sans-Serif" font-size="10.00"> &lt; ::fwData::Image &gt;</text>
</g>
<!-- Node7 -->
<g id="node7" class="node"><title>Node7</title>
<g id="a_node7"><a xlink:href="structfwData_1_1location_1_1enableSingleFile.html" target="_top" xlink:title="fwData::location::enable\lSingleFile\&lt; ::fwDataIO\l::writer::IObjectWriter \&gt;">
<polygon fill="white" stroke="black" points="754,-38.5 754,-79.5 876,-79.5 876,-38.5 754,-38.5"/>
<text text-anchor="start" x="762" y="-67.5" font-family="Helvetica,sans-Serif" font-size="10.00">fwData::location::enable</text>
<text text-anchor="start" x="762" y="-56.5" font-family="Helvetica,sans-Serif" font-size="10.00">SingleFile&lt; ::fwDataIO</text>
<text text-anchor="middle" x="815" y="-45.5" font-family="Helvetica,sans-Serif" font-size="10.00">::writer::IObjectWriter &gt;</text>
</a>
</g>
</g>
<!-- Node7&#45;&gt;Node1 -->
<g id="edge7" class="edge"><title>Node7&#45;&gt;Node1</title>
<path fill="none" stroke="midnightblue" d="M886.682,-59C897.076,-59 907.635,-59 917.604,-59"/>
<polygon fill="midnightblue" stroke="midnightblue" points="886.371,-55.5001 876.371,-59 886.371,-62.5001 886.371,-55.5001"/>
</g>
<!-- Node8 -->
<g id="node8" class="node"><title>Node8</title>
<g id="a_node8"><a xlink:href="structfwData_1_1location_1_1enableSingleFile.html" target="_top" xlink:title="This class is derived by reader/writer. ">
<polygon fill="white" stroke="black" points="489,-44 489,-74 611,-74 611,-44 489,-44"/>
<text text-anchor="start" x="497" y="-62" font-family="Helvetica,sans-Serif" font-size="10.00">fwData::location::enable</text>
<text text-anchor="middle" x="550" y="-51" font-family="Helvetica,sans-Serif" font-size="10.00">SingleFile&lt; RW &gt;</text>
</a>
</g>
</g>
<!-- Node8&#45;&gt;Node7 -->
<g id="edge8" class="edge"><title>Node8&#45;&gt;Node7</title>
<path fill="none" stroke="orange" stroke-dasharray="5,2" d="M621.017,-59C662.397,-59 714.258,-59 753.795,-59"/>
<polygon fill="orange" stroke="orange" points="621.008,-55.5001 611.008,-59 621.008,-62.5001 621.008,-55.5001"/>
<text text-anchor="start" x="640.5" y="-73" font-family="Helvetica,sans-Serif" font-size="10.00"> &lt; ::fwDataIO::writer</text>
<text text-anchor="middle" x="686" y="-62" font-family="Helvetica,sans-Serif" font-size="10.00">::IObjectWriter &gt;</text>
</g>
<!-- Node9 -->
<g id="node9" class="node"><title>Node9</title>
<g id="a_node9"><a xlink:href="classfwTools_1_1ProgressAdviser.html" target="_top" xlink:title="Subclasses Inherited from ProgressAdviser can notify progression This class is used as base class to ...">
<polygon fill="white" stroke="black" points="750.5,-0.5 750.5,-19.5 879.5,-19.5 879.5,-0.5 750.5,-0.5"/>
<text text-anchor="middle" x="815" y="-7.5" font-family="Helvetica,sans-Serif" font-size="10.00">fwTools::ProgressAdviser</text>
</a>
</g>
</g>
<!-- Node9&#45;&gt;Node1 -->
<g id="edge9" class="edge"><title>Node9&#45;&gt;Node1</title>
<path fill="none" stroke="midnightblue" d="M858.549,-22.4382C865.72,-24.59 873.08,-26.8327 880,-29 901.113,-35.6126 924.851,-43.4517 942.787,-49.458"/>
<polygon fill="midnightblue" stroke="midnightblue" points="859.528,-19.0779 848.945,-19.5757 857.528,-25.7863 859.528,-19.0779"/>
</g>
<!-- Node10 -->
<g id="node10" class="node"><title>Node10</title>
<polygon fill="white" stroke="#bfbfbf" points="522,-0.5 522,-19.5 578,-19.5 578,-0.5 522,-0.5"/>
<text text-anchor="middle" x="550" y="-7.5" font-family="Helvetica,sans-Serif" font-size="10.00">trackable</text>
</g>
<!-- Node10&#45;&gt;Node9 -->
<g id="edge10" class="edge"><title>Node10&#45;&gt;Node9</title>
<path fill="none" stroke="midnightblue" d="M588.256,-10C630.402,-10 699.763,-10 750.496,-10"/>
<polygon fill="midnightblue" stroke="midnightblue" points="588.155,-6.5001 578.155,-10 588.155,-13.5001 588.155,-6.5001"/>
</g>
</g>
</svg>
        <g id="navigator" transform="translate(0 0)" fill="#404254">
                <rect fill="#f2f5e9" fill-opacity="0.5" stroke="#606060" stroke-width=".5" x="0" y="0" width="60" height="60"/>
                <use id="zoomplus" xlink:href="#zoomPlus" x="17" y="9" onmousedown="handleZoom(evt,'in')"/>
                <use id="zoomminus" xlink:href="#zoomMin" x="42" y="9" onmousedown="handleZoom(evt,'out')"/>
                <use id="reset" xlink:href="#resetDef" x="30" y="36" onmousedown="handleReset()"/>
                <g id="arrowUp" xlink:href="#dirArrow" transform="translate(30 24)" onmousedown="handlePan(0,-1)">
                  <use xlink:href="#rim" fill="#404040">
                        <set attributeName="fill" to="#808080" begin="arrowUp.mouseover" end="arrowUp.mouseout"/>
                  </use>
                  <path fill="none" stroke="white" stroke-width="1.5" d="M0,-3.0v7 M-2.5,-0.5L0,-3.0L2.5,-0.5"/>
                </g>
                <g id="arrowRight" xlink:href="#dirArrow" transform="rotate(90) translate(36 -43)" onmousedown="handlePan(1,0)">
                  <use xlink:href="#rim" fill="#404040">
                        <set attributeName="fill" to="#808080" begin="arrowRight.mouseover" end="arrowRight.mouseout"/>
                  </use>
                  <path fill="none" stroke="white" stroke-width="1.5" d="M0,-3.0v7 M-2.5,-0.5L0,-3.0L2.5,-0.5"/>
                </g>
                <g id="arrowDown" xlink:href="#dirArrow" transform="rotate(180) translate(-30 -48)" onmousedown="handlePan(0,1)">
                  <use xlink:href="#rim" fill="#404040">
                        <set attributeName="fill" to="#808080" begin="arrowDown.mouseover" end="arrowDown.mouseout"/>
                  </use>
                  <path fill="none" stroke="white" stroke-width="1.5" d="M0,-3.0v7 M-2.5,-0.5L0,-3.0L2.5,-0.5"/>
                </g>
                <g id="arrowLeft" xlink:href="#dirArrow" transform="rotate(270) translate(-36 17)" onmousedown="handlePan(-1,0)">
                  <use xlink:href="#rim" fill="#404040">
                        <set attributeName="fill" to="#808080" begin="arrowLeft.mouseover" end="arrowLeft.mouseout"/>
                  </use>
                  <path fill="none" stroke="white" stroke-width="1.5" d="M0,-3.0v7 M-2.5,-0.5L0,-3.0L2.5,-0.5"/>
                </g>
        </g>
        <svg viewBox="0 0 15 15" width="100%" height="30px" preserveAspectRatio="xMaxYMin meet">
         <g id="arrow_out" transform="scale(0.3 0.3)">
          <a xlink:href="classfwItkIO_1_1ImageWriter__inherit__graph_org.svg" target="_base">
           <rect id="button" ry="5" rx="5" y="6" x="6" height="38" width="38"
                fill="#f2f5e9" fill-opacity="0.5" stroke="#606060" stroke-width="1.0"/>
           <path id="arrow"
             d="M 11.500037,31.436501 C 11.940474,20.09759 22.043105,11.32322 32.158766,21.979434 L 37.068811,17.246167 C 37.068811,17.246167 37.088388,32 37.088388,32 L 22.160133,31.978069 C 22.160133,31.978069 26.997745,27.140456 26.997745,27.140456 C 18.528582,18.264221 13.291696,25.230495 11.500037,31.436501 z"
             style="fill:#404040;"/>
          </a>
         </g>
        </svg>
</svg>
