<?xml version="1.0" encoding="UTF-8" standalone="no"?>
<!DOCTYPE svg PUBLIC "-//W3C//DTD SVG 1.1//EN"
 "http://www.w3.org/Graphics/SVG/1.1/DTD/svg11.dtd">
<!-- Generated by graphviz version 2.26.3 (20100126.1600)
 -->
<!-- Title: fwJobs::IJob::setTotalWorkUnits Pages: 1 -->
<svg width="494pt" height="42pt"
 viewBox="0.00 0.00 494.00 42.00" xmlns="http://www.w3.org/2000/svg" xmlns:xlink="http://www.w3.org/1999/xlink">
<g id="graph1" class="graph" transform="scale(1 1) rotate(0) translate(4 38)">
<title>fwJobs::IJob::setTotalWorkUnits</title>
<polygon fill="white" stroke="white" points="-4,5 -4,-38 491,-38 491,5 -4,5"/>
<!-- Node1 -->
<g id="node1" class="node"><title>Node1</title>
<polygon fill="#bfbfbf" stroke="black" points="0.5,-0 0.5,-34 137.5,-34 137.5,-0 0.5,-0"/>
<text text-anchor="start" x="8.5" y="-21" font-family="Helvetica,sans-Serif" font-size="10.00">fwJobs::IJob::setTotalWork</text>
<text text-anchor="middle" x="69" y="-8" font-family="Helvetica,sans-Serif" font-size="10.00">Units</text>
</g>
<!-- Node2 -->
<g id="node3" class="node"><title>Node2</title>
<a xlink:href="classfwGdcmIO_1_1helper_1_1DicomDir.html#a79ff8e34d2daa46f834a57ae3e0c9393" target="_top" xlink:title="Create DicomSeries from information stored in DICOMDIR. ">
<polygon fill="white" stroke="black" points="174.5,-0 174.5,-34 317.5,-34 317.5,-0 174.5,-0"/>
<text text-anchor="start" x="182.5" y="-21" font-family="Helvetica,sans-Serif" font-size="10.00">fwGdcmIO::helper::DicomDir</text>
<text text-anchor="middle" x="246" y="-8" font-family="Helvetica,sans-Serif" font-size="10.00">::retrieveDicomSeries</text>
</a>
</g>
<!-- Node1&#45;&gt;Node2 -->
<g id="edge2" class="edge"><title>Node1&#45;&gt;Node2</title>
<path fill="none" stroke="midnightblue" d="M147.954,-17C156.769,-17 165.712,-17 174.428,-17"/>
<polygon fill="midnightblue" stroke="midnightblue" points="147.686,-13.5001 137.686,-17 147.686,-20.5001 147.686,-13.5001"/>
</g>
<!-- Node3 -->
<g id="node5" class="node"><title>Node3</title>
<a xlink:href="classfwGdcmIO_1_1reader_1_1SeriesDB.html#ad7e995ff75f40a1c5f82ecbfabed5949" target="_top" xlink:title="Reads DICOM data from configured path and fills SeriesDB object with DicomSeries. ...">
<polygon fill="white" stroke="black" points="354.5,-0 354.5,-34 485.5,-34 485.5,-0 354.5,-0"/>
<text text-anchor="start" x="362.5" y="-21" font-family="Helvetica,sans-Serif" font-size="10.00">fwGdcmIO::reader::Series</text>
<text text-anchor="middle" x="420" y="-8" font-family="Helvetica,sans-Serif" font-size="10.00">DB::readDicomSeries</text>
</a>
</g>
<!-- Node2&#45;&gt;Node3 -->
<g id="edge4" class="edge"><title>Node2&#45;&gt;Node3</title>
<path fill="none" stroke="midnightblue" d="M327.595,-17C336.56,-17 345.603,-17 354.339,-17"/>
<polygon fill="midnightblue" stroke="midnightblue" points="327.526,-13.5001 317.526,-17 327.526,-20.5001 327.526,-13.5001"/>
</g>
</g>
</svg>
