<?xml version="1.0" encoding="UTF-8" standalone="no"?>
<!DOCTYPE svg PUBLIC "-//W3C//DTD SVG 1.1//EN"
 "http://www.w3.org/Graphics/SVG/1.1/DTD/svg11.dtd">
<!-- Generated by graphviz version 2.26.3 (20100126.1600)
 -->
<!-- Title: fwServices::ut::ServiceRetarder Pages: 1 -->
<svg width="458pt" height="88pt"
 viewBox="0.00 0.00 458.00 88.00" xmlns="http://www.w3.org/2000/svg" xmlns:xlink="http://www.w3.org/1999/xlink">
<g id="graph1" class="graph" transform="scale(1 1) rotate(0) translate(4 84)">
<title>fwServices::ut::ServiceRetarder</title>
<polygon fill="white" stroke="white" points="-4,5 -4,-84 455,-84 455,5 -4,5"/>
<!-- Node1 -->
<g id="node1" class="node"><title>Node1</title>
<polygon fill="#bfbfbf" stroke="black" points="147,-58.5 147,-79.5 303,-79.5 303,-58.5 147,-58.5"/>
<text text-anchor="middle" x="225" y="-66.5" font-family="Helvetica,sans-Serif" font-size="10.00">fwServices::ut::ServiceRetarder</text>
</g>
<!-- Node2 -->
<g id="node3" class="node"><title>Node2</title>
<a xlink:href="classfwServices_1_1ut_1_1SBasicTest.html" target="_top" xlink:title="fwServices::ut::SBasicTest">
<polygon fill="white" stroke="black" points="-0.5,-0.5 -0.5,-21.5 136.5,-21.5 136.5,-0.5 -0.5,-0.5"/>
<text text-anchor="middle" x="68" y="-8.5" font-family="Helvetica,sans-Serif" font-size="10.00">fwServices::ut::SBasicTest</text>
</a>
</g>
<!-- Node1&#45;&gt;Node2 -->
<g id="edge2" class="edge"><title>Node1&#45;&gt;Node2</title>
<path fill="none" stroke="midnightblue" d="M187.129,-55.0095C159.229,-44.7023 121.875,-30.903 96.4848,-21.5231"/>
<polygon fill="midnightblue" stroke="midnightblue" points="185.975,-58.3143 196.568,-58.4966 188.401,-51.7481 185.975,-58.3143"/>
</g>
<!-- Node3 -->
<g id="node5" class="node"><title>Node3</title>
<a xlink:href="classfwServices_1_1ut_1_1SShow2Test.html" target="_top" xlink:title="fwServices::ut::SShow2Test">
<polygon fill="white" stroke="black" points="154,-0.5 154,-21.5 296,-21.5 296,-0.5 154,-0.5"/>
<text text-anchor="middle" x="225" y="-8.5" font-family="Helvetica,sans-Serif" font-size="10.00">fwServices::ut::SShow2Test</text>
</a>
</g>
<!-- Node1&#45;&gt;Node3 -->
<g id="edge4" class="edge"><title>Node1&#45;&gt;Node3</title>
<path fill="none" stroke="midnightblue" d="M225,-48.1906C225,-39.1684 225,-28.9941 225,-21.5707"/>
<polygon fill="midnightblue" stroke="midnightblue" points="221.5,-48.3619 225,-58.3619 228.5,-48.3619 221.5,-48.3619"/>
</g>
<!-- Node4 -->
<g id="node7" class="node"><title>Node4</title>
<a xlink:href="classfwServices_1_1ut_1_1SShowTest.html" target="_top" xlink:title="fwServices::ut::SShowTest">
<polygon fill="white" stroke="black" points="313.5,-0.5 313.5,-21.5 450.5,-21.5 450.5,-0.5 313.5,-0.5"/>
<text text-anchor="middle" x="382" y="-8.5" font-family="Helvetica,sans-Serif" font-size="10.00">fwServices::ut::SShowTest</text>
</a>
</g>
<!-- Node1&#45;&gt;Node4 -->
<g id="edge6" class="edge"><title>Node1&#45;&gt;Node4</title>
<path fill="none" stroke="midnightblue" d="M262.871,-55.0095C290.771,-44.7023 328.125,-30.903 353.515,-21.5231"/>
<polygon fill="midnightblue" stroke="midnightblue" points="261.599,-51.7481 253.432,-58.4966 264.025,-58.3143 261.599,-51.7481"/>
</g>
</g>
</svg>
