<?xml version="1.0" encoding="UTF-8" standalone="no"?>
<!DOCTYPE svg PUBLIC "-//W3C//DTD SVG 1.1//EN"
 "http://www.w3.org/Graphics/SVG/1.1/DTD/svg11.dtd">
<!-- Generated by graphviz version 2.26.3 (20100126.1600)
 -->
<!-- Title: fwDataIO::writer::GenericObjectWriter&lt; DATATYPE &gt; Pages: 1 -->
<svg width="250pt" height="264pt"
 viewBox="0.00 0.00 250.00 264.00" xmlns="http://www.w3.org/2000/svg" xmlns:xlink="http://www.w3.org/1999/xlink">
<g id="graph1" class="graph" transform="scale(1 1) rotate(0) translate(4 260)">
<title>fwDataIO::writer::GenericObjectWriter&lt; DATATYPE &gt;</title>
<polygon fill="white" stroke="white" points="-4,5 -4,-260 247,-260 247,5 -4,5"/>
<!-- Node1 -->
<g id="node1" class="node"><title>Node1</title>
<polygon fill="#bfbfbf" stroke="black" points="68.5,-1 68.5,-35 211.5,-35 211.5,-1 68.5,-1"/>
<text text-anchor="start" x="76.5" y="-22" font-family="Helvetica,sans-Serif" font-size="10.00">fwDataIO::writer::Generic</text>
<text text-anchor="middle" x="140" y="-9" font-family="Helvetica,sans-Serif" font-size="10.00">ObjectWriter&lt; DATATYPE &gt;</text>
</g>
<!-- Node2 -->
<g id="node2" class="node"><title>Node2</title>
<a xlink:href="classfwDataIO_1_1writer_1_1IObjectWriter.html" target="_top" xlink:title="Base class for all object writers. ">
<polygon fill="white" stroke="black" points="77,-75 77,-109 203,-109 203,-75 77,-75"/>
<text text-anchor="start" x="85" y="-96" font-family="Helvetica,sans-Serif" font-size="10.00">fwDataIO::writer::IObject</text>
<text text-anchor="middle" x="140" y="-83" font-family="Helvetica,sans-Serif" font-size="10.00">Writer</text>
</a>
</g>
<!-- Node2&#45;&gt;Node1 -->
<g id="edge2" class="edge"><title>Node2&#45;&gt;Node1</title>
<path fill="none" stroke="midnightblue" d="M140,-64.6275C140,-54.7253 140,-43.8344 140,-35.07"/>
<polygon fill="midnightblue" stroke="midnightblue" points="136.5,-64.8369 140,-74.8369 143.5,-64.8369 136.5,-64.8369"/>
</g>
<!-- Node3 -->
<g id="node4" class="node"><title>Node3</title>
<a xlink:href="classfwCore_1_1BaseObject.html" target="_top" xlink:title="Base class for all FW4SPL&#39;s classes. ">
<polygon fill="white" stroke="black" points="20.5,-160.5 20.5,-181.5 125.5,-181.5 125.5,-160.5 20.5,-160.5"/>
<text text-anchor="middle" x="73" y="-168.5" font-family="Helvetica,sans-Serif" font-size="10.00">fwCore::BaseObject</text>
</a>
</g>
<!-- Node3&#45;&gt;Node2 -->
<g id="edge4" class="edge"><title>Node3&#45;&gt;Node2</title>
<path fill="none" stroke="midnightblue" d="M88.7325,-152.45C99.8497,-139.341 114.641,-121.901 125.477,-109.124"/>
<polygon fill="midnightblue" stroke="midnightblue" points="85.8347,-150.455 82.0359,-160.346 91.1733,-154.983 85.8347,-150.455"/>
</g>
<!-- Node4 -->
<g id="node6" class="node"><title>Node4</title>
<polygon fill="white" stroke="#bfbfbf" points="-0.5,-221 -0.5,-255 130.5,-255 130.5,-221 -0.5,-221"/>
<text text-anchor="start" x="7.5" y="-242" font-family="Helvetica,sans-Serif" font-size="10.00">std::enable_shared</text>
<text text-anchor="middle" x="65" y="-229" font-family="Helvetica,sans-Serif" font-size="10.00">_from_this&lt; BaseObject &gt;</text>
</g>
<!-- Node4&#45;&gt;Node3 -->
<g id="edge6" class="edge"><title>Node4&#45;&gt;Node3</title>
<path fill="none" stroke="midnightblue" d="M68.2795,-210.534C69.5008,-200.306 70.8148,-189.301 71.7456,-181.506"/>
<polygon fill="midnightblue" stroke="midnightblue" points="64.7706,-210.401 67.0602,-220.746 71.7212,-211.231 64.7706,-210.401"/>
</g>
<!-- Node5 -->
<g id="node8" class="node"><title>Node5</title>
<a xlink:title="STL class. ">
<polygon fill="white" stroke="#bfbfbf" points="158,-160.5 158,-181.5 218,-181.5 218,-160.5 158,-160.5"/>
<text text-anchor="middle" x="188" y="-168.5" font-family="Helvetica,sans-Serif" font-size="10.00">std::string</text>
</a>
</g>
<!-- Node5&#45;&gt;Node2 -->
<g id="edge8" class="edge"><title>Node5&#45;&gt;Node2</title>
<path fill="none" stroke="#9a32cd" stroke-dasharray="5,2" d="M176.271,-151.696C168.362,-138.679 158.02,-121.658 150.404,-109.124"/>
<polygon fill="#9a32cd" stroke="#9a32cd" points="173.343,-153.617 181.527,-160.346 179.325,-149.982 173.343,-153.617"/>
<text text-anchor="middle" x="199.5" y="-132.5" font-family="Helvetica,sans-Serif" font-size="10.00"> m_extension</text>
</g>
<!-- Node6 -->
<g id="node10" class="node"><title>Node6</title>
<a xlink:title="STL class. ">
<polygon fill="white" stroke="#bfbfbf" points="147.5,-221 147.5,-255 242.5,-255 242.5,-221 147.5,-221"/>
<text text-anchor="start" x="155.5" y="-242" font-family="Helvetica,sans-Serif" font-size="10.00">std::basic_string&lt;</text>
<text text-anchor="middle" x="195" y="-229" font-family="Helvetica,sans-Serif" font-size="10.00"> char &gt;</text>
</a>
</g>
<!-- Node6&#45;&gt;Node5 -->
<g id="edge10" class="edge"><title>Node6&#45;&gt;Node5</title>
<path fill="none" stroke="midnightblue" d="M192.13,-210.534C191.062,-200.306 189.912,-189.301 189.098,-181.506"/>
<polygon fill="midnightblue" stroke="midnightblue" points="188.677,-211.164 193.197,-220.746 195.639,-210.436 188.677,-211.164"/>
</g>
</g>
</svg>
