<?xml version="1.0" encoding="UTF-8" standalone="no"?>
<!DOCTYPE svg PUBLIC "-//W3C//DTD SVG 1.1//EN"
 "http://www.w3.org/Graphics/SVG/1.1/DTD/svg11.dtd">
<!-- Generated by graphviz version 2.36.0 (20140111.2315)
 -->
<!-- Title: fwAtomsPatch::ISemanticPatch Pages: 1 -->
<svg width="808pt" height="354pt"
 viewBox="0.00 0.00 808.00 354.00" xmlns="http://www.w3.org/2000/svg" xmlns:xlink="http://www.w3.org/1999/xlink">
<g id="graph0" class="graph" transform="scale(1 1) rotate(0) translate(4 350)">
<title>fwAtomsPatch::ISemanticPatch</title>
<polygon fill="white" stroke="none" points="-4,4 -4,-350 804,-350 804,4 -4,4"/>
<!-- Node1 -->
<g id="node1" class="node"><title>Node1</title>
<polygon fill="#bfbfbf" stroke="black" points="462.5,-152.5 462.5,-171.5 619.5,-171.5 619.5,-152.5 462.5,-152.5"/>
<text text-anchor="middle" x="541" y="-159.5" font-family="Helvetica,sans-Serif" font-size="10.00">fwAtomsPatch::ISemanticPatch</text>
</g>
<!-- Node5 -->
<g id="node5" class="node"><title>Node5</title>
<g id="a_node5"><a xlink:href="classfwMDSemanticPatch_1_1V09ALA_1_1V10_1_1fwData_1_1Image.html" target="_top" xlink:title="Patch the &#39;landmarks&#39; field of an image from version &#39;V9ALA&#39; to &#39;V10&#39; within &#39;MedicalData&#39; context...">
<polygon fill="white" stroke="black" points="670,-304.5 670,-345.5 786,-345.5 786,-304.5 670,-304.5"/>
<text text-anchor="start" x="678" y="-333.5" font-family="Helvetica,sans-Serif" font-size="10.00">fwMDSemanticPatch::</text>
<text text-anchor="start" x="678" y="-322.5" font-family="Helvetica,sans-Serif" font-size="10.00">V09ALA::V10::fwData</text>
<text text-anchor="middle" x="728" y="-311.5" font-family="Helvetica,sans-Serif" font-size="10.00">::Image</text>
</a>
</g>
</g>
<!-- Node1&#45;&gt;Node5 -->
<g id="edge4" class="edge"><title>Node1&#45;&gt;Node5</title>
<path fill="none" stroke="midnightblue" d="M553.799,-180.295C572.525,-208.101 611.516,-261.221 656,-294 661.197,-297.83 666.942,-301.313 672.845,-304.446"/>
<polygon fill="midnightblue" stroke="midnightblue" points="556.479,-178.002 548.045,-171.591 550.64,-181.863 556.479,-178.002"/>
</g>
<!-- Node6 -->
<g id="node6" class="node"><title>Node6</title>
<g id="a_node6"><a xlink:href="classfwMDSemanticPatch_1_1V10_1_1V09ALA_1_1fwData_1_1Image.html" target="_top" xlink:title="Patch the &#39;landmarks&#39; field of an image from version &#39;V10&#39; to &#39;V09ALA&#39; within &#39;MedicalData&#39; context...">
<polygon fill="white" stroke="black" points="670,-244.5 670,-285.5 786,-285.5 786,-244.5 670,-244.5"/>
<text text-anchor="start" x="678" y="-273.5" font-family="Helvetica,sans-Serif" font-size="10.00">fwMDSemanticPatch::</text>
<text text-anchor="start" x="678" y="-262.5" font-family="Helvetica,sans-Serif" font-size="10.00">V10::V09ALA::fwData</text>
<text text-anchor="middle" x="728" y="-251.5" font-family="Helvetica,sans-Serif" font-size="10.00">::Image</text>
</a>
</g>
</g>
<!-- Node1&#45;&gt;Node6 -->
<g id="edge5" class="edge"><title>Node1&#45;&gt;Node6</title>
<path fill="none" stroke="midnightblue" d="M563.681,-177.461C586.135,-193.091 622.553,-217.388 656,-235 662.157,-238.242 668.742,-241.405 675.328,-244.387"/>
<polygon fill="midnightblue" stroke="midnightblue" points="565.435,-174.416 555.24,-171.534 561.413,-180.145 565.435,-174.416"/>
</g>
<!-- Node7 -->
<g id="node7" class="node"><title>Node7</title>
<g id="a_node7"><a xlink:href="classfwMDSemanticPatch_1_1V1_1_1V2_1_1fwData_1_1Acquisition.html" target="_top" xlink:title="Patch an acquisition from version &#39;V1&#39; to &#39;V2&#39; within &#39;MedicalData&#39; context. ">
<polygon fill="white" stroke="black" points="659,-196 659,-226 797,-226 797,-196 659,-196"/>
<text text-anchor="start" x="667" y="-214" font-family="Helvetica,sans-Serif" font-size="10.00">fwMDSemanticPatch::</text>
<text text-anchor="middle" x="728" y="-203" font-family="Helvetica,sans-Serif" font-size="10.00">V1::V2::fwData::Acquisition</text>
</a>
</g>
</g>
<!-- Node1&#45;&gt;Node7 -->
<g id="edge6" class="edge"><title>Node1&#45;&gt;Node7</title>
<path fill="none" stroke="midnightblue" d="M588.022,-174.19C612.907,-180.781 643.856,-188.978 670.228,-195.963"/>
<polygon fill="midnightblue" stroke="midnightblue" points="588.672,-170.741 578.109,-171.564 586.88,-177.508 588.672,-170.741"/>
</g>
<!-- Node8 -->
<g id="node8" class="node"><title>Node8</title>
<g id="a_node8"><a xlink:href="classfwMDSemanticPatch_1_1V1_1_1V2_1_1fwData_1_1Composite.html" target="_top" xlink:title="Patch the composite describing a &#39;Medical workspace&#39; from version &#39;V1&#39; to &#39;V2&#39; within &#39;MedicalData&#39; c...">
<polygon fill="white" stroke="black" points="659.5,-147 659.5,-177 796.5,-177 796.5,-147 659.5,-147"/>
<text text-anchor="start" x="667.5" y="-165" font-family="Helvetica,sans-Serif" font-size="10.00">fwMDSemanticPatch::</text>
<text text-anchor="middle" x="728" y="-154" font-family="Helvetica,sans-Serif" font-size="10.00">V1::V2::fwData::Composite</text>
</a>
</g>
</g>
<!-- Node1&#45;&gt;Node8 -->
<g id="edge7" class="edge"><title>Node1&#45;&gt;Node8</title>
<path fill="none" stroke="midnightblue" d="M629.887,-162C639.751,-162 649.685,-162 659.239,-162"/>
<polygon fill="midnightblue" stroke="midnightblue" points="629.653,-158.5 619.653,-162 629.653,-165.5 629.653,-158.5"/>
</g>
<!-- Node9 -->
<g id="node9" class="node"><title>Node9</title>
<g id="a_node9"><a xlink:href="classfwMDSemanticPatch_1_1V1_1_1V2_1_1fwData_1_1Patient.html" target="_top" xlink:title="Patch a patient from version &#39;V1&#39; to &#39;V2&#39; within &#39;MedicalData&#39; context. ">
<polygon fill="white" stroke="black" points="667.5,-98 667.5,-128 788.5,-128 788.5,-98 667.5,-98"/>
<text text-anchor="start" x="675.5" y="-116" font-family="Helvetica,sans-Serif" font-size="10.00">fwMDSemanticPatch::</text>
<text text-anchor="middle" x="728" y="-105" font-family="Helvetica,sans-Serif" font-size="10.00">V1::V2::fwData::Patient</text>
</a>
</g>
</g>
<!-- Node1&#45;&gt;Node9 -->
<g id="edge8" class="edge"><title>Node1&#45;&gt;Node9</title>
<path fill="none" stroke="midnightblue" d="M588.022,-149.81C612.907,-143.219 643.856,-135.022 670.228,-128.037"/>
<polygon fill="midnightblue" stroke="midnightblue" points="586.88,-146.492 578.109,-152.436 588.672,-153.259 586.88,-146.492"/>
</g>
<!-- Node10 -->
<g id="node10" class="node"><title>Node10</title>
<g id="a_node10"><a xlink:href="classfwMDSemanticPatch_1_1V1_1_1V2_1_1fwData_1_1Study.html" target="_top" xlink:title="Patch a study from version V&#39;1&#39; to &#39;V2&#39; within &#39;MedicalData&#39; context. ">
<polygon fill="white" stroke="black" points="670,-49 670,-79 786,-79 786,-49 670,-49"/>
<text text-anchor="start" x="678" y="-67" font-family="Helvetica,sans-Serif" font-size="10.00">fwMDSemanticPatch::</text>
<text text-anchor="middle" x="728" y="-56" font-family="Helvetica,sans-Serif" font-size="10.00">V1::V2::fwData::Study</text>
</a>
</g>
</g>
<!-- Node1&#45;&gt;Node10 -->
<g id="edge9" class="edge"><title>Node1&#45;&gt;Node10</title>
<path fill="none" stroke="midnightblue" d="M562.662,-146.312C584.813,-130.052 621.468,-104.718 656,-88 662.675,-84.7683 669.898,-81.7858 677.093,-79.1019"/>
<polygon fill="midnightblue" stroke="midnightblue" points="560.314,-143.696 554.376,-152.47 564.49,-149.315 560.314,-143.696"/>
</g>
<!-- Node11 -->
<g id="node11" class="node"><title>Node11</title>
<g id="a_node11"><a xlink:href="classfwMDSemanticPatch_1_1V2_1_1V03AGO_1_1fwData_1_1Image.html" target="_top" xlink:title="Patch an image from version &#39;V2&#39; to &#39;V03AGO&#39; within &#39;MedicalData&#39; context. ">
<polygon fill="white" stroke="black" points="656,-0 656,-30 800,-30 800,-0 656,-0"/>
<text text-anchor="start" x="664" y="-18" font-family="Helvetica,sans-Serif" font-size="10.00">fwMDSemanticPatch::</text>
<text text-anchor="middle" x="728" y="-7" font-family="Helvetica,sans-Serif" font-size="10.00">V2::V03AGO::fwData::Image</text>
</a>
</g>
</g>
<!-- Node1&#45;&gt;Node11 -->
<g id="edge10" class="edge"><title>Node1&#45;&gt;Node11</title>
<path fill="none" stroke="midnightblue" d="M554.047,-144.15C572.842,-117.594 611.622,-67.738 656,-39 661.242,-35.6052 667.015,-32.6397 672.935,-30.0619"/>
<polygon fill="midnightblue" stroke="midnightblue" points="551.08,-142.286 548.256,-152.498 556.832,-146.276 551.08,-142.286"/>
</g>
<!-- Node2 -->
<g id="node2" class="node"><title>Node2</title>
<g id="a_node2"><a xlink:href="classfwAtomsPatch_1_1IPatch.html" target="_top" xlink:title="Base class of all patches. ">
<polygon fill="white" stroke="black" points="310,-152.5 310,-171.5 426,-171.5 426,-152.5 310,-152.5"/>
<text text-anchor="middle" x="368" y="-159.5" font-family="Helvetica,sans-Serif" font-size="10.00">fwAtomsPatch::IPatch</text>
</a>
</g>
</g>
<!-- Node2&#45;&gt;Node1 -->
<g id="edge1" class="edge"><title>Node2&#45;&gt;Node1</title>
<path fill="none" stroke="midnightblue" d="M436.598,-162C445.064,-162 453.775,-162 462.379,-162"/>
<polygon fill="midnightblue" stroke="midnightblue" points="436.416,-158.5 426.416,-162 436.416,-165.5 436.416,-158.5"/>
</g>
<!-- Node3 -->
<g id="node3" class="node"><title>Node3</title>
<g id="a_node3"><a xlink:href="classfwCore_1_1BaseObject.html" target="_top" xlink:title="Base class for all FW4SPL&#39;s classes. ">
<polygon fill="white" stroke="black" points="168.5,-152.5 168.5,-171.5 273.5,-171.5 273.5,-152.5 168.5,-152.5"/>
<text text-anchor="middle" x="221" y="-159.5" font-family="Helvetica,sans-Serif" font-size="10.00">fwCore::BaseObject</text>
</a>
</g>
</g>
<!-- Node3&#45;&gt;Node2 -->
<g id="edge2" class="edge"><title>Node3&#45;&gt;Node2</title>
<path fill="none" stroke="midnightblue" d="M283.579,-162C292.249,-162 301.133,-162 309.718,-162"/>
<polygon fill="midnightblue" stroke="midnightblue" points="283.53,-158.5 273.53,-162 283.53,-165.5 283.53,-158.5"/>
</g>
<!-- Node4 -->
<g id="node4" class="node"><title>Node4</title>
<polygon fill="white" stroke="#bfbfbf" points="0.5,-147 0.5,-177 131.5,-177 131.5,-147 0.5,-147"/>
<text text-anchor="start" x="8.5" y="-165" font-family="Helvetica,sans-Serif" font-size="10.00">std::enable_shared</text>
<text text-anchor="middle" x="66" y="-154" font-family="Helvetica,sans-Serif" font-size="10.00">_from_this&lt; BaseObject &gt;</text>
</g>
<!-- Node4&#45;&gt;Node3 -->
<g id="edge3" class="edge"><title>Node4&#45;&gt;Node3</title>
<path fill="none" stroke="midnightblue" d="M141.972,-162C150.939,-162 159.934,-162 168.464,-162"/>
<polygon fill="midnightblue" stroke="midnightblue" points="141.886,-158.5 131.886,-162 141.886,-165.5 141.886,-158.5"/>
</g>
</g>
</svg>
