<?xml version="1.0" encoding="UTF-8" standalone="no"?>
<!DOCTYPE svg PUBLIC "-//W3C//DTD SVG 1.1//EN"
 "http://www.w3.org/Graphics/SVG/1.1/DTD/svg11.dtd">
<!-- Generated by graphviz version 2.36.0 (20140111.2315)
 -->
<!-- Title: fwJobs::Job::runImpl Pages: 1 -->
<svg width="788pt" height="47pt"
 viewBox="0.00 0.00 788.00 47.00" xmlns="http://www.w3.org/2000/svg" xmlns:xlink="http://www.w3.org/1999/xlink">
<g id="graph0" class="graph" transform="scale(1 1) rotate(0) translate(4 43)">
<title>fwJobs::Job::runImpl</title>
<polygon fill="white" stroke="none" points="-4,4 -4,-43 784,-43 784,4 -4,4"/>
<!-- Node1 -->
<g id="node1" class="node"><title>Node1</title>
<polygon fill="#bfbfbf" stroke="black" points="0,-19.5 0,-38.5 108,-38.5 108,-19.5 0,-19.5"/>
<text text-anchor="middle" x="54" y="-26.5" font-family="Helvetica,sans-Serif" font-size="10.00">fwJobs::Job::runImpl</text>
</g>
<!-- Node2 -->
<g id="node2" class="node"><title>Node2</title>
<g id="a_node2"><a xlink:href="classfwJobs_1_1IJob.html#ad6829229eed3697a6e989bc8efbec411" target="_top" xlink:title="Finish the job: set state to finished or canceled. ">
<polygon fill="white" stroke="black" points="320,-19.5 320,-38.5 422,-38.5 422,-19.5 320,-19.5"/>
<text text-anchor="middle" x="371" y="-26.5" font-family="Helvetica,sans-Serif" font-size="10.00">fwJobs::IJob::finish</text>
</a>
</g>
</g>
<!-- Node1&#45;&gt;Node2 -->
<g id="edge1" class="edge"><title>Node1&#45;&gt;Node2</title>
<path fill="none" stroke="midnightblue" d="M108.079,-29C163.821,-29 251.322,-29 309.652,-29"/>
<polygon fill="midnightblue" stroke="midnightblue" points="309.83,-32.5001 319.83,-29 309.83,-25.5001 309.83,-32.5001"/>
</g>
<!-- Node5 -->
<g id="node5" class="node"><title>Node5</title>
<g id="a_node5"><a xlink:href="classfwJobs_1_1IJob.html#a371a19fe580788914ba3678eca7775bb" target="_top" xlink:title="Return callback to finish the job. ">
<polygon fill="white" stroke="black" points="144,-0.5 144,-19.5 284,-19.5 284,-0.5 144,-0.5"/>
<text text-anchor="middle" x="214" y="-7.5" font-family="Helvetica,sans-Serif" font-size="10.00">fwJobs::IJob::finishCallback</text>
</a>
</g>
</g>
<!-- Node1&#45;&gt;Node5 -->
<g id="edge4" class="edge"><title>Node1&#45;&gt;Node5</title>
<path fill="none" stroke="midnightblue" d="M108.051,-22.6204C116.299,-21.6286 124.971,-20.5857 133.649,-19.5422"/>
<polygon fill="midnightblue" stroke="midnightblue" points="134.303,-22.9888 143.814,-18.3199 133.467,-16.0389 134.303,-22.9888"/>
</g>
<!-- Node3 -->
<g id="node3" class="node"><title>Node3</title>
<g id="a_node3"><a xlink:href="classfwJobs_1_1IJob.html#a646fc96367db7d6b33e7c45b1d19371f" target="_top" xlink:title="Finish the job without mutex lock: set the state to finished or canceled. ">
<polygon fill="white" stroke="black" points="458,-19.5 458,-38.5 594,-38.5 594,-19.5 458,-19.5"/>
<text text-anchor="middle" x="526" y="-26.5" font-family="Helvetica,sans-Serif" font-size="10.00">fwJobs::IJob::finishNoLock</text>
</a>
</g>
</g>
<!-- Node2&#45;&gt;Node3 -->
<g id="edge2" class="edge"><title>Node2&#45;&gt;Node3</title>
<path fill="none" stroke="midnightblue" d="M422.098,-29C430.304,-29 438.971,-29 447.654,-29"/>
<polygon fill="midnightblue" stroke="midnightblue" points="447.826,-32.5001 457.826,-29 447.826,-25.5001 447.826,-32.5001"/>
</g>
<!-- Node4 -->
<g id="node4" class="node"><title>Node4</title>
<g id="a_node4"><a xlink:href="classfwJobs_1_1IJob.html#a18208baa7de736660453ad92de26dfff" target="_top" xlink:title="Setter on the state without mutex lock. ">
<polygon fill="white" stroke="black" points="630.5,-19.5 630.5,-38.5 779.5,-38.5 779.5,-19.5 630.5,-19.5"/>
<text text-anchor="middle" x="705" y="-26.5" font-family="Helvetica,sans-Serif" font-size="10.00">fwJobs::IJob::setStateNoLock</text>
</a>
</g>
</g>
<!-- Node3&#45;&gt;Node4 -->
<g id="edge3" class="edge"><title>Node3&#45;&gt;Node4</title>
<path fill="none" stroke="midnightblue" d="M594.168,-29C602.674,-29 611.459,-29 620.182,-29"/>
<polygon fill="midnightblue" stroke="midnightblue" points="620.375,-32.5001 630.375,-29 620.375,-25.5001 620.375,-32.5001"/>
</g>
<!-- Node5&#45;&gt;Node2 -->
<g id="edge5" class="edge"><title>Node5&#45;&gt;Node2</title>
<path fill="none" stroke="midnightblue" d="M284.34,-18.4997C292.821,-19.5393 301.434,-20.5951 309.766,-21.6165"/>
<polygon fill="midnightblue" stroke="midnightblue" points="309.411,-25.0991 319.763,-22.8419 310.263,-18.1511 309.411,-25.0991"/>
</g>
</g>
</svg>
