<?xml version="1.0" encoding="UTF-8" standalone="no"?>
<!DOCTYPE svg PUBLIC "-//W3C//DTD SVG 1.1//EN"
 "http://www.w3.org/Graphics/SVG/1.1/DTD/svg11.dtd">
<!-- Generated by graphviz version 2.36.0 (20140111.2315)
 -->
<!-- Title: fwGdcmIO::container::sr::DicomSRNode::writeContentSequence Pages: 1 -->
<svg width="524pt" height="469pt"
 viewBox="0.00 0.00 524.00 469.00" xmlns="http://www.w3.org/2000/svg" xmlns:xlink="http://www.w3.org/1999/xlink">
<g id="graph0" class="graph" transform="scale(1 1) rotate(0) translate(4 465)">
<title>fwGdcmIO::container::sr::DicomSRNode::writeContentSequence</title>
<polygon fill="white" stroke="none" points="-4,4 -4,-465 520,-465 520,4 -4,4"/>
<!-- Node1 -->
<g id="node1" class="node"><title>Node1</title>
<polygon fill="#bfbfbf" stroke="black" points="0,-209.5 0,-250.5 164,-250.5 164,-209.5 0,-209.5"/>
<text text-anchor="start" x="8" y="-238.5" font-family="Helvetica,sans-Serif" font-size="10.00">fwGdcmIO::container</text>
<text text-anchor="start" x="8" y="-227.5" font-family="Helvetica,sans-Serif" font-size="10.00">::sr::DicomSRNode::writeContent</text>
<text text-anchor="middle" x="82" y="-216.5" font-family="Helvetica,sans-Serif" font-size="10.00">Sequence</text>
</g>
<!-- Node2 -->
<g id="node2" class="node"><title>Node2</title>
<g id="a_node2"><a xlink:href="classfwGdcmIO_1_1container_1_1sr_1_1DicomSRNode.html#acfec19097b1797c2c3f8f98dad0e03b5" target="_top" xlink:title="Write the SR node in the dataset. ">
<polygon fill="white" stroke="black" points="200,-215 200,-245 330,-245 330,-215 200,-215"/>
<text text-anchor="start" x="208" y="-233" font-family="Helvetica,sans-Serif" font-size="10.00">fwGdcmIO::container</text>
<text text-anchor="middle" x="265" y="-222" font-family="Helvetica,sans-Serif" font-size="10.00">::sr::DicomSRNode::write</text>
</a>
</g>
</g>
<!-- Node1&#45;&gt;Node2 -->
<g id="edge1" class="edge"><title>Node1&#45;&gt;Node2</title>
<path fill="none" stroke="midnightblue" d="M174.338,-230C182.956,-230 191.565,-230 199.85,-230"/>
<polygon fill="midnightblue" stroke="midnightblue" points="174.235,-226.5 164.235,-230 174.235,-233.5 174.235,-226.5"/>
</g>
<!-- Node3 -->
<g id="node3" class="node"><title>Node3</title>
<g id="a_node3"><a xlink:href="classfwGdcmIO_1_1container_1_1sr_1_1DicomSRContainerNode.html#a390b772987554b05cb09233b9dbb020e" target="_top" xlink:title="Write the SR node in the dataset. ">
<polygon fill="white" stroke="black" points="368.5,-419.5 368.5,-460.5 513.5,-460.5 513.5,-419.5 368.5,-419.5"/>
<text text-anchor="start" x="376.5" y="-448.5" font-family="Helvetica,sans-Serif" font-size="10.00">fwGdcmIO::container</text>
<text text-anchor="start" x="376.5" y="-437.5" font-family="Helvetica,sans-Serif" font-size="10.00">::sr::DicomSRContainerNode</text>
<text text-anchor="middle" x="441" y="-426.5" font-family="Helvetica,sans-Serif" font-size="10.00">::write</text>
</a>
</g>
</g>
<!-- Node2&#45;&gt;Node3 -->
<g id="edge2" class="edge"><title>Node2&#45;&gt;Node3</title>
<path fill="none" stroke="midnightblue" d="M273.946,-254.896C287.253,-292.932 317.465,-365.65 366,-409 370.363,-412.897 375.287,-416.35 380.469,-419.399"/>
<polygon fill="midnightblue" stroke="midnightblue" points="277.164,-253.488 270.639,-245.141 270.535,-255.735 277.164,-253.488"/>
</g>
<!-- Node4 -->
<g id="node4" class="node"><title>Node4</title>
<g id="a_node4"><a xlink:href="classfwGdcmIO_1_1container_1_1sr_1_1DicomSRCodeNode.html#a0f15869bfe1b6a52fd008b855fdb8c27" target="_top" xlink:title="Write the SR node in the dataset. ">
<polygon fill="white" stroke="black" points="378,-359.5 378,-400.5 504,-400.5 504,-359.5 378,-359.5"/>
<text text-anchor="start" x="386" y="-388.5" font-family="Helvetica,sans-Serif" font-size="10.00">fwGdcmIO::container</text>
<text text-anchor="start" x="386" y="-377.5" font-family="Helvetica,sans-Serif" font-size="10.00">::sr::DicomSRCodeNode</text>
<text text-anchor="middle" x="441" y="-366.5" font-family="Helvetica,sans-Serif" font-size="10.00">::write</text>
</a>
</g>
</g>
<!-- Node2&#45;&gt;Node4 -->
<g id="edge3" class="edge"><title>Node2&#45;&gt;Node4</title>
<path fill="none" stroke="midnightblue" d="M280.888,-253.757C298.438,-280.103 329.835,-322.391 366,-349 371.161,-352.797 376.856,-356.231 382.728,-359.309"/>
<polygon fill="midnightblue" stroke="midnightblue" points="283.67,-251.615 275.273,-245.154 277.808,-255.441 283.67,-251.615"/>
</g>
<!-- Node5 -->
<g id="node5" class="node"><title>Node5</title>
<g id="a_node5"><a xlink:href="classfwGdcmIO_1_1container_1_1sr_1_1DicomSRTextNode.html#a21a308a8dfc0d87a9043a02ae13e3176" target="_top" xlink:title="Write the SR node in the dataset. ">
<polygon fill="white" stroke="black" points="380,-299.5 380,-340.5 502,-340.5 502,-299.5 380,-299.5"/>
<text text-anchor="start" x="388" y="-328.5" font-family="Helvetica,sans-Serif" font-size="10.00">fwGdcmIO::container</text>
<text text-anchor="start" x="388" y="-317.5" font-family="Helvetica,sans-Serif" font-size="10.00">::sr::DicomSRTextNode</text>
<text text-anchor="middle" x="441" y="-306.5" font-family="Helvetica,sans-Serif" font-size="10.00">::write</text>
</a>
</g>
</g>
<!-- Node2&#45;&gt;Node5 -->
<g id="edge4" class="edge"><title>Node2&#45;&gt;Node5</title>
<path fill="none" stroke="midnightblue" d="M298.419,-250.65C317.691,-262.538 342.823,-277.376 366,-289 373.097,-292.559 380.702,-296.071 388.237,-299.379"/>
<polygon fill="midnightblue" stroke="midnightblue" points="300.075,-247.558 289.735,-245.249 296.378,-253.502 300.075,-247.558"/>
</g>
<!-- Node6 -->
<g id="node6" class="node"><title>Node6</title>
<g id="a_node6"><a xlink:href="classfwGdcmIO_1_1container_1_1sr_1_1DicomSRUIDRefNode.html#a20c728d0bc5a240f57d31dc7ac9ac83c" target="_top" xlink:title="Write the SR node in the dataset. ">
<polygon fill="white" stroke="black" points="372.5,-239.5 372.5,-280.5 509.5,-280.5 509.5,-239.5 372.5,-239.5"/>
<text text-anchor="start" x="380.5" y="-268.5" font-family="Helvetica,sans-Serif" font-size="10.00">fwGdcmIO::container</text>
<text text-anchor="start" x="380.5" y="-257.5" font-family="Helvetica,sans-Serif" font-size="10.00">::sr::DicomSRUIDRefNode</text>
<text text-anchor="middle" x="441" y="-246.5" font-family="Helvetica,sans-Serif" font-size="10.00">::write</text>
</a>
</g>
</g>
<!-- Node2&#45;&gt;Node6 -->
<g id="edge5" class="edge"><title>Node2&#45;&gt;Node6</title>
<path fill="none" stroke="midnightblue" d="M340.406,-242.829C351.055,-244.665 361.961,-246.545 372.468,-248.357"/>
<polygon fill="midnightblue" stroke="midnightblue" points="340.746,-239.336 330.297,-241.086 339.557,-246.234 340.746,-239.336"/>
</g>
<!-- Node7 -->
<g id="node7" class="node"><title>Node7</title>
<g id="a_node7"><a xlink:href="classfwGdcmIO_1_1container_1_1sr_1_1DicomSRImageNode.html#a62a17c1df8699d0356a385bc78307b7f" target="_top" xlink:title="Write the SR node in the dataset. ">
<polygon fill="white" stroke="black" points="376,-179.5 376,-220.5 506,-220.5 506,-179.5 376,-179.5"/>
<text text-anchor="start" x="384" y="-208.5" font-family="Helvetica,sans-Serif" font-size="10.00">fwGdcmIO::container</text>
<text text-anchor="start" x="384" y="-197.5" font-family="Helvetica,sans-Serif" font-size="10.00">::sr::DicomSRImageNode</text>
<text text-anchor="middle" x="441" y="-186.5" font-family="Helvetica,sans-Serif" font-size="10.00">::write</text>
</a>
</g>
</g>
<!-- Node2&#45;&gt;Node7 -->
<g id="edge6" class="edge"><title>Node2&#45;&gt;Node7</title>
<path fill="none" stroke="midnightblue" d="M340.198,-217.207C352.1,-215.155 364.329,-213.047 375.967,-211.04"/>
<polygon fill="midnightblue" stroke="midnightblue" points="339.557,-213.766 330.297,-218.914 340.746,-220.664 339.557,-213.766"/>
</g>
<!-- Node8 -->
<g id="node8" class="node"><title>Node8</title>
<g id="a_node8"><a xlink:href="classfwGdcmIO_1_1container_1_1sr_1_1DicomSRNumNode.html#a9b8b27ebf4db380c5a0a5b503c9abc9d" target="_top" xlink:title="Write the SR node in the dataset. ">
<polygon fill="white" stroke="black" points="379,-119.5 379,-160.5 503,-160.5 503,-119.5 379,-119.5"/>
<text text-anchor="start" x="387" y="-148.5" font-family="Helvetica,sans-Serif" font-size="10.00">fwGdcmIO::container</text>
<text text-anchor="start" x="387" y="-137.5" font-family="Helvetica,sans-Serif" font-size="10.00">::sr::DicomSRNumNode</text>
<text text-anchor="middle" x="441" y="-126.5" font-family="Helvetica,sans-Serif" font-size="10.00">::write</text>
</a>
</g>
</g>
<!-- Node2&#45;&gt;Node8 -->
<g id="edge7" class="edge"><title>Node2&#45;&gt;Node8</title>
<path fill="none" stroke="midnightblue" d="M297.554,-209.343C316.89,-197.123 342.384,-181.783 366,-170 372.45,-166.782 379.334,-163.633 386.207,-160.659"/>
<polygon fill="midnightblue" stroke="midnightblue" points="295.411,-206.558 288.862,-214.887 299.175,-212.46 295.411,-206.558"/>
</g>
<!-- Node9 -->
<g id="node9" class="node"><title>Node9</title>
<g id="a_node9"><a xlink:href="classfwGdcmIO_1_1container_1_1sr_1_1DicomSRSCoordNode.html#a840f5b842ea56b6e2c9dd0dfce7aaa90" target="_top" xlink:title="Write the SR node in the dataset. ">
<polygon fill="white" stroke="black" points="373,-59.5 373,-100.5 509,-100.5 509,-59.5 373,-59.5"/>
<text text-anchor="start" x="381" y="-88.5" font-family="Helvetica,sans-Serif" font-size="10.00">fwGdcmIO::container</text>
<text text-anchor="start" x="381" y="-77.5" font-family="Helvetica,sans-Serif" font-size="10.00">::sr::DicomSRSCoordNode</text>
<text text-anchor="middle" x="441" y="-66.5" font-family="Helvetica,sans-Serif" font-size="10.00">::write</text>
</a>
</g>
</g>
<!-- Node2&#45;&gt;Node9 -->
<g id="edge8" class="edge"><title>Node2&#45;&gt;Node9</title>
<path fill="none" stroke="midnightblue" d="M280.786,-205.96C298.244,-179.317 329.557,-136.605 366,-110 370.703,-106.567 375.854,-103.453 381.18,-100.645"/>
<polygon fill="midnightblue" stroke="midnightblue" points="277.658,-204.355 275.203,-214.661 283.549,-208.135 277.658,-204.355"/>
</g>
<!-- Node10 -->
<g id="node10" class="node"><title>Node10</title>
<g id="a_node10"><a xlink:href="classfwGdcmIO_1_1container_1_1sr_1_1DicomSRSCoord3DNode.html#a6c0ef7e97e69c66e6c0465af5883c1da" target="_top" xlink:title="Write the SR node in the dataset. ">
<polygon fill="white" stroke="black" points="366.5,0.5 366.5,-40.5 515.5,-40.5 515.5,0.5 366.5,0.5"/>
<text text-anchor="start" x="374.5" y="-28.5" font-family="Helvetica,sans-Serif" font-size="10.00">fwGdcmIO::container</text>
<text text-anchor="start" x="374.5" y="-17.5" font-family="Helvetica,sans-Serif" font-size="10.00">::sr::DicomSRSCoord3DNode</text>
<text text-anchor="middle" x="441" y="-6.5" font-family="Helvetica,sans-Serif" font-size="10.00">::write</text>
</a>
</g>
</g>
<!-- Node2&#45;&gt;Node10 -->
<g id="edge9" class="edge"><title>Node2&#45;&gt;Node10</title>
<path fill="none" stroke="midnightblue" d="M273.748,-205.183C286.871,-166.922 316.936,-93.4182 366,-50 369.945,-46.5089 374.349,-43.3933 378.99,-40.6185"/>
<polygon fill="midnightblue" stroke="midnightblue" points="270.322,-204.392 270.494,-214.985 276.966,-206.597 270.322,-204.392"/>
</g>
</g>
</svg>
