<?xml version="1.0" encoding="UTF-8" standalone="no"?>
<!DOCTYPE svg PUBLIC "-//W3C//DTD SVG 1.1//EN"
 "http://www.w3.org/Graphics/SVG/1.1/DTD/svg11.dtd">
<!-- Generated by graphviz version 2.26.3 (20100126.1600)
 -->
<!-- Title: ioPacs::SSeriesPusher::checkSeriesOnPACS Pages: 1 -->
<svg width="496pt" height="265pt"
 viewBox="0.00 0.00 496.00 265.50" xmlns="http://www.w3.org/2000/svg" xmlns:xlink="http://www.w3.org/1999/xlink">
<g id="graph1" class="graph" transform="scale(1 1) rotate(0) translate(4 261.499)">
<title>ioPacs::SSeriesPusher::checkSeriesOnPACS</title>
<polygon fill="white" stroke="white" points="-4,5 -4,-261.499 493,-261.499 493,5 -4,5"/>
<!-- Node1 -->
<g id="node1" class="node"><title>Node1</title>
<polygon fill="#bfbfbf" stroke="black" points="0,-119 0,-153 118,-153 118,-119 0,-119"/>
<text text-anchor="start" x="8" y="-140" font-family="Helvetica,sans-Serif" font-size="10.00">ioPacs::SSeriesPusher</text>
<text text-anchor="middle" x="59" y="-127" font-family="Helvetica,sans-Serif" font-size="10.00">::checkSeriesOnPACS</text>
</g>
<!-- Node2 -->
<g id="node3" class="node"><title>Node2</title>
<a xlink:href="classfwGui_1_1dialog_1_1MessageDialog.html#a7200cf2111a64af4a0c02bfb26fec8dc" target="_top" xlink:title="Add a button (OK, YES_NO, YES, NO, CANCEL) ">
<polygon fill="white" stroke="black" points="339.5,-220 339.5,-254 486.5,-254 486.5,-220 339.5,-220"/>
<text text-anchor="start" x="347.5" y="-241" font-family="Helvetica,sans-Serif" font-size="10.00">fwGui::dialog::MessageDialog</text>
<text text-anchor="middle" x="413" y="-228" font-family="Helvetica,sans-Serif" font-size="10.00">::addButton</text>
</a>
</g>
<!-- Node1&#45;&gt;Node2 -->
<g id="edge2" class="edge"><title>Node1&#45;&gt;Node2</title>
<path fill="none" stroke="midnightblue" d="M68.8786,-153.275C83.7603,-177.336 114.447,-219.903 154,-237 208.964,-260.759 276.829,-259.799 329.3,-253.409"/>
<polygon fill="midnightblue" stroke="midnightblue" points="329.782,-256.876 339.245,-252.111 328.876,-249.935 329.782,-256.876"/>
</g>
<!-- Node3 -->
<g id="node5" class="node"><title>Node3</title>
<a xlink:href="classfwPacsIO_1_1helper_1_1Series.html#a04220affc4170cc1a209ae455802f9ba" target="_top" xlink:title="Release the responses. ">
<polygon fill="white" stroke="black" points="165,-194 165,-228 291,-228 291,-194 165,-194"/>
<text text-anchor="start" x="173" y="-215" font-family="Helvetica,sans-Serif" font-size="10.00">fwPacsIO::helper::Series</text>
<text text-anchor="middle" x="228" y="-202" font-family="Helvetica,sans-Serif" font-size="10.00">::releaseResponses</text>
</a>
</g>
<!-- Node1&#45;&gt;Node3 -->
<g id="edge4" class="edge"><title>Node1&#45;&gt;Node3</title>
<path fill="none" stroke="midnightblue" d="M89.7123,-153.215C108.066,-163.154 132.016,-175.523 154,-185 158.121,-186.776 162.407,-188.526 166.747,-190.227"/>
<polygon fill="midnightblue" stroke="midnightblue" points="165.702,-193.574 176.293,-193.863 168.194,-187.033 165.702,-193.574"/>
</g>
<!-- Node4 -->
<g id="node7" class="node"><title>Node4</title>
<a xlink:href="classfwGui_1_1dialog_1_1MessageDialog.html#afb5819e4841835e33ecb9df169d8fe92" target="_top" xlink:title="Set the icon (CRITICAL, WARNING, INFO or QUESTION) ">
<polygon fill="white" stroke="black" points="339.5,-97 339.5,-131 486.5,-131 486.5,-97 339.5,-97"/>
<text text-anchor="start" x="347.5" y="-118" font-family="Helvetica,sans-Serif" font-size="10.00">fwGui::dialog::MessageDialog</text>
<text text-anchor="middle" x="413" y="-105" font-family="Helvetica,sans-Serif" font-size="10.00">::setIcon</text>
</a>
</g>
<!-- Node1&#45;&gt;Node4 -->
<g id="edge6" class="edge"><title>Node1&#45;&gt;Node4</title>
<path fill="none" stroke="midnightblue" d="M118.252,-132.318C175.983,-128.73 264.299,-123.241 329.212,-119.207"/>
<polygon fill="midnightblue" stroke="midnightblue" points="329.657,-122.686 339.421,-118.573 329.223,-115.7 329.657,-122.686"/>
</g>
<!-- Node5 -->
<g id="node9" class="node"><title>Node5</title>
<a xlink:href="classfwGui_1_1dialog_1_1MessageDialog.html#a27e42ac5d51e12ae72a87e62e972bdd2" target="_top" xlink:title="Set the message. ">
<polygon fill="white" stroke="black" points="154.5,-142 154.5,-176 301.5,-176 301.5,-142 154.5,-142"/>
<text text-anchor="start" x="162.5" y="-163" font-family="Helvetica,sans-Serif" font-size="10.00">fwGui::dialog::MessageDialog</text>
<text text-anchor="middle" x="228" y="-150" font-family="Helvetica,sans-Serif" font-size="10.00">::setMessage</text>
</a>
</g>
<!-- Node1&#45;&gt;Node5 -->
<g id="edge8" class="edge"><title>Node1&#45;&gt;Node5</title>
<path fill="none" stroke="midnightblue" d="M118.108,-144.044C126.614,-145.202 135.499,-146.411 144.371,-147.619"/>
<polygon fill="midnightblue" stroke="midnightblue" points="143.981,-151.098 154.362,-148.978 144.925,-144.162 143.981,-151.098"/>
</g>
<!-- Node7 -->
<g id="node15" class="node"><title>Node7</title>
<a xlink:href="classfwGui_1_1dialog_1_1MessageDialog.html#ad71a45fa0e744cd1612241c8b1313620" target="_top" xlink:title="Set the title of the message box. ">
<polygon fill="white" stroke="black" points="154.5,-52 154.5,-86 301.5,-86 301.5,-52 154.5,-52"/>
<text text-anchor="start" x="162.5" y="-73" font-family="Helvetica,sans-Serif" font-size="10.00">fwGui::dialog::MessageDialog</text>
<text text-anchor="middle" x="228" y="-60" font-family="Helvetica,sans-Serif" font-size="10.00">::setTitle</text>
</a>
</g>
<!-- Node1&#45;&gt;Node7 -->
<g id="edge16" class="edge"><title>Node1&#45;&gt;Node7</title>
<path fill="none" stroke="midnightblue" d="M102.083,-118.92C124.431,-110.06 151.913,-99.1648 175.494,-89.8159"/>
<polygon fill="midnightblue" stroke="midnightblue" points="176.989,-92.9882 184.996,-86.0491 174.41,-86.481 176.989,-92.9882"/>
</g>
<!-- Node8 -->
<g id="node17" class="node"><title>Node8</title>
<a xlink:href="classfwGui_1_1dialog_1_1MessageDialog.html#a6d638d48bf997624e8483616a7e0c3f7" target="_top" xlink:title="Show the message box and return the clicked button. ">
<polygon fill="white" stroke="black" points="154.5,-0 154.5,-34 301.5,-34 301.5,-0 154.5,-0"/>
<text text-anchor="start" x="162.5" y="-21" font-family="Helvetica,sans-Serif" font-size="10.00">fwGui::dialog::MessageDialog</text>
<text text-anchor="middle" x="228" y="-8" font-family="Helvetica,sans-Serif" font-size="10.00">::show</text>
</a>
</g>
<!-- Node1&#45;&gt;Node8 -->
<g id="edge18" class="edge"><title>Node1&#45;&gt;Node8</title>
<path fill="none" stroke="midnightblue" d="M72.3799,-118.943C89.3559,-98.335 120.484,-63.8414 154,-43 156.577,-41.3978 159.265,-39.8776 162.027,-38.4371"/>
<polygon fill="midnightblue" stroke="midnightblue" points="163.548,-41.5895 171.048,-34.1058 160.518,-35.2792 163.548,-41.5895"/>
</g>
<!-- Node5&#45;&gt;Node2 -->
<g id="edge12" class="edge"><title>Node5&#45;&gt;Node2</title>
<path fill="none" stroke="midnightblue" d="M278.808,-176.094C286.624,-178.941 294.563,-181.96 302,-185 324.72,-194.286 349.498,-205.759 369.869,-215.565"/>
<polygon fill="midnightblue" stroke="midnightblue" points="368.369,-218.727 378.895,-219.938 371.422,-212.428 368.369,-218.727"/>
</g>
<!-- Node5&#45;&gt;Node4 -->
<g id="edge10" class="edge"><title>Node5&#45;&gt;Node4</title>
<path fill="none" stroke="midnightblue" d="M297.941,-141.987C309.452,-139.187 321.459,-136.267 333.189,-133.413"/>
<polygon fill="midnightblue" stroke="midnightblue" points="334.071,-136.801 342.961,-131.037 332.417,-129.999 334.071,-136.801"/>
</g>
<!-- Node6 -->
<g id="node13" class="node"><title>Node6</title>
<a xlink:href="classfwGui_1_1dialog_1_1MessageDialog.html#af3e3451339ec5ddfee1435294fac9ee1" target="_top" xlink:title="Set the default button. ">
<polygon fill="white" stroke="black" points="339.5,-149 339.5,-183 486.5,-183 486.5,-149 339.5,-149"/>
<text text-anchor="start" x="347.5" y="-170" font-family="Helvetica,sans-Serif" font-size="10.00">fwGui::dialog::MessageDialog</text>
<text text-anchor="middle" x="413" y="-157" font-family="Helvetica,sans-Serif" font-size="10.00">::setDefaultButton</text>
</a>
</g>
<!-- Node5&#45;&gt;Node6 -->
<g id="edge14" class="edge"><title>Node5&#45;&gt;Node6</title>
<path fill="none" stroke="midnightblue" d="M301.648,-161.787C310.653,-162.127 319.907,-162.478 329.049,-162.823"/>
<polygon fill="midnightblue" stroke="midnightblue" points="329.177,-166.331 339.303,-163.211 329.442,-159.336 329.177,-166.331"/>
</g>
<!-- Node9 -->
<g id="node19" class="node"><title>Node9</title>
<a xlink:href="classfwGui_1_1dialog_1_1IMessageDialog.html#a3aafce0bcfa0fa0da4b5114ff798ddd7" target="_top" xlink:title="Show the message box and return the clicked button. ">
<polygon fill="white" stroke="black" points="338,-0 338,-34 488,-34 488,-0 338,-0"/>
<text text-anchor="start" x="346" y="-21" font-family="Helvetica,sans-Serif" font-size="10.00">fwGui::dialog::IMessageDialog</text>
<text text-anchor="middle" x="413" y="-8" font-family="Helvetica,sans-Serif" font-size="10.00">::show</text>
</a>
</g>
<!-- Node8&#45;&gt;Node9 -->
<g id="edge20" class="edge"><title>Node8&#45;&gt;Node9</title>
<path fill="none" stroke="midnightblue" d="M301.648,-17C310.194,-17 318.965,-17 327.65,-17"/>
<polygon fill="midnightblue" stroke="midnightblue" points="327.789,-20.5001 337.789,-17 327.789,-13.5001 327.789,-20.5001"/>
</g>
</g>
</svg>
