<?xml version="1.0" encoding="UTF-8" standalone="no"?>
<!DOCTYPE svg PUBLIC "-//W3C//DTD SVG 1.1//EN"
 "http://www.w3.org/Graphics/SVG/1.1/DTD/svg11.dtd">
<!-- Generated by graphviz version 2.36.0 (20140111.2315)
 -->
<!-- Title: scene2D::adaptor::SGrid2D::updating Pages: 1 -->
<svg width="304pt" height="87pt"
 viewBox="0.00 0.00 304.00 87.00" xmlns="http://www.w3.org/2000/svg" xmlns:xlink="http://www.w3.org/1999/xlink">
<g id="graph0" class="graph" transform="scale(1 1) rotate(0) translate(4 83)">
<title>scene2D::adaptor::SGrid2D::updating</title>
<polygon fill="white" stroke="none" points="-4,4 -4,-83 300,-83 300,4 -4,4"/>
<!-- Node1 -->
<g id="node1" class="node"><title>Node1</title>
<polygon fill="#bfbfbf" stroke="black" points="0,-24 0,-54 130,-54 130,-24 0,-24"/>
<text text-anchor="start" x="8" y="-42" font-family="Helvetica,sans-Serif" font-size="10.00">scene2D::adaptor::SGrid2</text>
<text text-anchor="middle" x="65" y="-31" font-family="Helvetica,sans-Serif" font-size="10.00">D::updating</text>
</g>
<!-- Node2 -->
<g id="node2" class="node"><title>Node2</title>
<g id="a_node2"><a xlink:href="classscene2D_1_1adaptor_1_1SGrid2D.html#a6bd2baa3a1ca0f25b40825c8d0081fd8" target="_top" xlink:title="Manage the given events. ">
<polygon fill="white" stroke="black" points="166,-49 166,-79 296,-79 296,-49 166,-49"/>
<text text-anchor="start" x="174" y="-67" font-family="Helvetica,sans-Serif" font-size="10.00">scene2D::adaptor::SGrid2</text>
<text text-anchor="middle" x="231" y="-56" font-family="Helvetica,sans-Serif" font-size="10.00">D::processInteraction</text>
</a>
</g>
</g>
<!-- Node1&#45;&gt;Node2 -->
<g id="edge1" class="edge"><title>Node1&#45;&gt;Node2</title>
<path fill="none" stroke="midnightblue" d="M140.286,-50.3241C148.816,-51.6244 157.458,-52.9418 165.839,-54.2194"/>
<polygon fill="midnightblue" stroke="midnightblue" points="140.76,-46.8559 130.346,-48.8089 139.705,-53.776 140.76,-46.8559"/>
</g>
<!-- Node3 -->
<g id="node3" class="node"><title>Node3</title>
<g id="a_node3"><a xlink:href="classscene2D_1_1adaptor_1_1SGrid2D.html#a184cbebed5abf9b39f6dd2d1ca49ea7d" target="_top" xlink:title="Initialize the layer, set the pen style to DashLine and call the draw() function. ...">
<polygon fill="white" stroke="black" points="166,-0 166,-30 296,-30 296,-0 166,-0"/>
<text text-anchor="start" x="174" y="-18" font-family="Helvetica,sans-Serif" font-size="10.00">scene2D::adaptor::SGrid2</text>
<text text-anchor="middle" x="231" y="-7" font-family="Helvetica,sans-Serif" font-size="10.00">D::starting</text>
</a>
</g>
</g>
<!-- Node1&#45;&gt;Node3 -->
<g id="edge2" class="edge"><title>Node1&#45;&gt;Node3</title>
<path fill="none" stroke="midnightblue" d="M140.286,-28.1289C148.816,-26.8806 157.458,-25.6159 165.839,-24.3894"/>
<polygon fill="midnightblue" stroke="midnightblue" points="139.734,-24.6723 130.346,-29.5834 140.748,-31.5985 139.734,-24.6723"/>
</g>
</g>
</svg>
