<?xml version="1.0" encoding="UTF-8" standalone="no"?>
<!DOCTYPE svg PUBLIC "-//W3C//DTD SVG 1.1//EN"
 "http://www.w3.org/Graphics/SVG/1.1/DTD/svg11.dtd">
<!-- Generated by graphviz version 2.26.3 (20100126.1600)
 -->
<!-- Title: fwCore::BaseObject Pages: 1 -->
<svg width="634pt" height="1833pt"
 viewBox="0.00 0.00 634.00 1833.00" xmlns="http://www.w3.org/2000/svg" xmlns:xlink="http://www.w3.org/1999/xlink">
<g id="graph1" class="graph" transform="scale(1 1) rotate(0) translate(4 1829)">
<title>fwCore::BaseObject</title>
<polygon fill="white" stroke="white" points="-4,5 -4,-1829 631,-1829 631,5 -4,5"/>
<!-- Node1 -->
<g id="node1" class="node"><title>Node1</title>
<polygon fill="#bfbfbf" stroke="black" points="168.5,-916.5 168.5,-937.5 273.5,-937.5 273.5,-916.5 168.5,-916.5"/>
<text text-anchor="middle" x="221" y="-924.5" font-family="Helvetica,sans-Serif" font-size="10.00">fwCore::BaseObject</text>
</g>
<!-- Node3 -->
<g id="node5" class="node"><title>Node3</title>
<a xlink:href="classfwActivities_1_1IBuilder.html" target="_top" xlink:title="Base class for all fwActivities builder&#39;s classes. ">
<polygon fill="white" stroke="black" points="341.5,-1768.5 341.5,-1789.5 448.5,-1789.5 448.5,-1768.5 341.5,-1768.5"/>
<text text-anchor="middle" x="395" y="-1776.5" font-family="Helvetica,sans-Serif" font-size="10.00">fwActivities::IBuilder</text>
</a>
</g>
<!-- Node1&#45;&gt;Node3 -->
<g id="edge4" class="edge"><title>Node1&#45;&gt;Node3</title>
<path fill="none" stroke="midnightblue" d="M222.225,-947.844C229.375,-1067.02 266.874,-1659.16 310,-1727 322.529,-1746.71 345.482,-1760.09 364.38,-1768.34"/>
<polygon fill="midnightblue" stroke="midnightblue" points="225.701,-947.323 221.613,-937.549 218.713,-947.739 225.701,-947.323"/>
</g>
<!-- Node5 -->
<g id="node9" class="node"><title>Node5</title>
<a xlink:href="classfwActivities_1_1IValidator.html" target="_top" xlink:title="Base class for all fwActivities validator&#39;s classes. ">
<polygon fill="white" stroke="black" points="337.5,-1696.5 337.5,-1717.5 452.5,-1717.5 452.5,-1696.5 337.5,-1696.5"/>
<text text-anchor="middle" x="395" y="-1704.5" font-family="Helvetica,sans-Serif" font-size="10.00">fwActivities::IValidator</text>
</a>
</g>
<!-- Node1&#45;&gt;Node5 -->
<g id="edge8" class="edge"><title>Node1&#45;&gt;Node5</title>
<path fill="none" stroke="midnightblue" d="M222.025,-947.758C227.942,-1063.91 259.254,-1630.08 310,-1687 317.163,-1695.03 326.891,-1700.15 337.21,-1703.35"/>
<polygon fill="midnightblue" stroke="midnightblue" points="225.516,-947.499 221.518,-937.687 218.525,-947.85 225.516,-947.499"/>
</g>
<!-- Node8 -->
<g id="node15" class="node"><title>Node8</title>
<a xlink:href="classfwActivities_1_1registry_1_1Activities.html" target="_top" xlink:title="This class allows to register all the configuration parameters which has the point extension &quot;::activ...">
<polygon fill="white" stroke="black" points="342,-1644 342,-1678 448,-1678 448,-1644 342,-1644"/>
<text text-anchor="start" x="350" y="-1665" font-family="Helvetica,sans-Serif" font-size="10.00">fwActivities::registry</text>
<text text-anchor="middle" x="395" y="-1652" font-family="Helvetica,sans-Serif" font-size="10.00">::Activities</text>
</a>
</g>
<!-- Node1&#45;&gt;Node8 -->
<g id="edge14" class="edge"><title>Node1&#45;&gt;Node8</title>
<path fill="none" stroke="midnightblue" d="M222.291,-948.002C229.331,-1059.69 264.453,-1580.87 310,-1635 318.147,-1644.68 329.796,-1650.83 341.868,-1654.71"/>
<polygon fill="midnightblue" stroke="midnightblue" points="225.765,-947.485 221.65,-937.722 218.779,-947.921 225.765,-947.485"/>
</g>
<!-- Node9 -->
<g id="node17" class="node"><title>Node9</title>
<a xlink:href="classfwAtoms_1_1Base.html" target="_top" xlink:title="Base class for all Atom classes. ">
<polygon fill="white" stroke="red" points="353,-1604.5 353,-1625.5 437,-1625.5 437,-1604.5 353,-1604.5"/>
<text text-anchor="middle" x="395" y="-1612.5" font-family="Helvetica,sans-Serif" font-size="10.00">fwAtoms::Base</text>
</a>
</g>
<!-- Node1&#45;&gt;Node9 -->
<g id="edge16" class="edge"><title>Node1&#45;&gt;Node9</title>
<path fill="none" stroke="midnightblue" d="M222.383,-947.871C229.703,-1055.6 265.285,-1545.64 310,-1595 320.789,-1606.91 337.216,-1612.39 352.763,-1614.71"/>
<polygon fill="midnightblue" stroke="midnightblue" points="225.859,-947.4 221.696,-937.658 218.875,-947.87 225.859,-947.4"/>
</g>
<!-- Node15 -->
<g id="node29" class="node"><title>Node15</title>
<a xlink:href="classfwAtomsFilter_1_1IFilter.html" target="_top" xlink:title="Removes atom attributes which are not managed by a context. ">
<polygon fill="white" stroke="red" points="341,-1564.5 341,-1585.5 449,-1585.5 449,-1564.5 341,-1564.5"/>
<text text-anchor="middle" x="395" y="-1572.5" font-family="Helvetica,sans-Serif" font-size="10.00">fwAtomsFilter::IFilter</text>
</a>
</g>
<!-- Node1&#45;&gt;Node15 -->
<g id="edge28" class="edge"><title>Node1&#45;&gt;Node15</title>
<path fill="none" stroke="midnightblue" d="M222.546,-947.587C230.476,-1050.81 267.853,-1508.86 310,-1555 318.078,-1563.84 329.264,-1569.13 340.872,-1572.22"/>
<polygon fill="midnightblue" stroke="midnightblue" points="226.028,-947.221 221.78,-937.515 219.048,-947.752 226.028,-947.221"/>
</g>
<!-- Node16 -->
<g id="node31" class="node"><title>Node16</title>
<a xlink:href="classfwAtomsPatch_1_1conditions_1_1Abstract.html" target="_top" xlink:title="Defines a condition in the patch. ">
<polygon fill="white" stroke="red" points="329.5,-1512 329.5,-1546 460.5,-1546 460.5,-1512 329.5,-1512"/>
<text text-anchor="start" x="337.5" y="-1533" font-family="Helvetica,sans-Serif" font-size="10.00">fwAtomsPatch::conditions</text>
<text text-anchor="middle" x="395" y="-1520" font-family="Helvetica,sans-Serif" font-size="10.00">::Abstract</text>
</a>
</g>
<!-- Node1&#45;&gt;Node16 -->
<g id="edge30" class="edge"><title>Node1&#45;&gt;Node16</title>
<path fill="none" stroke="midnightblue" d="M221.356,-948.145C223.351,-1041.69 235.926,-1417.45 310,-1503 315.253,-1509.07 321.879,-1513.74 329.103,-1517.34"/>
<polygon fill="midnightblue" stroke="midnightblue" points="224.851,-947.885 221.158,-937.955 217.853,-948.021 224.851,-947.885"/>
</g>
<!-- Node17 -->
<g id="node33" class="node"><title>Node17</title>
<a xlink:href="classfwAtomsPatch_1_1IPatch.html" target="_top" xlink:title="Base class of all patches. ">
<polygon fill="white" stroke="red" points="337,-1472.5 337,-1493.5 453,-1493.5 453,-1472.5 337,-1472.5"/>
<text text-anchor="middle" x="395" y="-1480.5" font-family="Helvetica,sans-Serif" font-size="10.00">fwAtomsPatch::IPatch</text>
</a>
</g>
<!-- Node1&#45;&gt;Node17 -->
<g id="edge32" class="edge"><title>Node1&#45;&gt;Node17</title>
<path fill="none" stroke="midnightblue" d="M221.482,-947.911C223.975,-1037.3 238.228,-1386.29 310,-1463 317.146,-1470.64 326.615,-1475.61 336.636,-1478.8"/>
<polygon fill="midnightblue" stroke="midnightblue" points="224.975,-947.603 221.218,-937.697 217.978,-947.784 224.975,-947.603"/>
</g>
<!-- Node18 -->
<g id="node35" class="node"><title>Node18</title>
<a xlink:href="classfwAtomsPatch_1_1IStructuralCreator.html" target="_top" xlink:title="Base class of all structural creators. Creates a new atom object with the default values correspondin...">
<polygon fill="white" stroke="red" points="329,-1420 329,-1454 461,-1454 461,-1420 329,-1420"/>
<text text-anchor="start" x="337" y="-1441" font-family="Helvetica,sans-Serif" font-size="10.00">fwAtomsPatch::IStructural</text>
<text text-anchor="middle" x="395" y="-1428" font-family="Helvetica,sans-Serif" font-size="10.00">Creator</text>
</a>
</g>
<!-- Node1&#45;&gt;Node18 -->
<g id="edge34" class="edge"><title>Node1&#45;&gt;Node18</title>
<path fill="none" stroke="midnightblue" d="M222.023,-947.886C226.526,-1031.45 247.233,-1340.57 310,-1411 315.236,-1416.88 321.759,-1421.44 328.849,-1424.99"/>
<polygon fill="midnightblue" stroke="midnightblue" points="225.515,-947.643 221.502,-937.838 218.525,-948.006 225.515,-947.643"/>
</g>
<!-- Node19 -->
<g id="node37" class="node"><title>Node19</title>
<a xlink:href="classfwAtomsPatch_1_1VersionsGraph.html" target="_top" xlink:title="Versions graph description. ">
<polygon fill="white" stroke="black" points="319,-1380.5 319,-1401.5 471,-1401.5 471,-1380.5 319,-1380.5"/>
<text text-anchor="middle" x="395" y="-1388.5" font-family="Helvetica,sans-Serif" font-size="10.00">fwAtomsPatch::VersionsGraph</text>
</a>
</g>
<!-- Node1&#45;&gt;Node19 -->
<g id="edge36" class="edge"><title>Node1&#45;&gt;Node19</title>
<path fill="none" stroke="midnightblue" d="M222.274,-948.027C227.522,-1027.62 250.089,-1309.06 310,-1371 313.584,-1374.7 317.715,-1377.78 322.184,-1380.32"/>
<polygon fill="midnightblue" stroke="midnightblue" points="225.751,-947.556 221.623,-937.798 218.765,-948 225.751,-947.556"/>
</g>
<!-- Node20 -->
<g id="node39" class="node"><title>Node20</title>
<a xlink:href="structfwCom_1_1SignalBase.html" target="_top" xlink:title="Signal base class. ">
<polygon fill="white" stroke="red" points="343,-1340.5 343,-1361.5 447,-1361.5 447,-1340.5 343,-1340.5"/>
<text text-anchor="middle" x="395" y="-1348.5" font-family="Helvetica,sans-Serif" font-size="10.00">fwCom::SignalBase</text>
</a>
</g>
<!-- Node1&#45;&gt;Node20 -->
<g id="edge38" class="edge"><title>Node1&#45;&gt;Node20</title>
<path fill="none" stroke="midnightblue" d="M222.684,-947.563C229.188,-1021.91 255.086,-1275.3 310,-1331 318.727,-1339.85 330.585,-1345.09 342.671,-1348.11"/>
<polygon fill="midnightblue" stroke="midnightblue" points="226.17,-947.247 221.835,-937.58 219.195,-947.84 226.17,-947.247"/>
</g>
<!-- Node21 -->
<g id="node41" class="node"><title>Node21</title>
<a xlink:href="structfwCom_1_1SlotBase.html" target="_top" xlink:title="Base class for Slot implementations. ">
<polygon fill="white" stroke="red" points="348,-1300.5 348,-1321.5 442,-1321.5 442,-1300.5 348,-1300.5"/>
<text text-anchor="middle" x="395" y="-1308.5" font-family="Helvetica,sans-Serif" font-size="10.00">fwCom::SlotBase</text>
</a>
</g>
<!-- Node1&#45;&gt;Node21 -->
<g id="edge40" class="edge"><title>Node1&#45;&gt;Node21</title>
<path fill="none" stroke="midnightblue" d="M223.24,-947.74C231.181,-1017.44 260.217,-1241.65 310,-1291 320.013,-1300.93 333.968,-1306.28 347.68,-1309.07"/>
<polygon fill="midnightblue" stroke="midnightblue" points="226.695,-947.144 222.11,-937.593 219.738,-947.919 226.695,-947.144"/>
</g>
<!-- Node22 -->
<g id="node43" class="node"><title>Node22</title>
<a xlink:href="structfwCom_1_1SlotConnectionBase.html" target="_top" xlink:title="Base class for Slot connection implementation. This class is for internal use purpose. ">
<polygon fill="white" stroke="red" points="323.5,-1260.5 323.5,-1281.5 466.5,-1281.5 466.5,-1260.5 323.5,-1260.5"/>
<text text-anchor="middle" x="395" y="-1268.5" font-family="Helvetica,sans-Serif" font-size="10.00">fwCom::SlotConnectionBase</text>
</a>
</g>
<!-- Node1&#45;&gt;Node22 -->
<g id="edge42" class="edge"><title>Node1&#45;&gt;Node22</title>
<path fill="none" stroke="midnightblue" d="M223.94,-947.952C233.441,-1012.72 265.323,-1207.95 310,-1251 313.93,-1254.79 318.435,-1257.9 323.277,-1260.47"/>
<polygon fill="midnightblue" stroke="midnightblue" points="227.361,-947.157 222.472,-937.758 220.433,-948.154 227.361,-947.157"/>
</g>
<!-- Node23 -->
<g id="node45" class="node"><title>Node23</title>
<a xlink:href="classfwCore_1_1HiResTimer.html" target="_top" xlink:title="This class provide a timer (stopwatch). HiResTimer is able to measure the elapsed time with a few mic...">
<polygon fill="white" stroke="black" points="341.5,-1220.5 341.5,-1241.5 448.5,-1241.5 448.5,-1220.5 341.5,-1220.5"/>
<text text-anchor="middle" x="395" y="-1228.5" font-family="Helvetica,sans-Serif" font-size="10.00">fwCore::HiResTimer</text>
</a>
</g>
<!-- Node1&#45;&gt;Node23 -->
<g id="edge44" class="edge"><title>Node1&#45;&gt;Node23</title>
<path fill="none" stroke="midnightblue" d="M224.745,-947.662C235.843,-1006.67 270.276,-1174.06 310,-1211 318.659,-1219.05 329.933,-1224.05 341.424,-1227.12"/>
<polygon fill="midnightblue" stroke="midnightblue" points="228.157,-946.864 222.895,-937.668 221.274,-948.138 228.157,-946.864"/>
</g>
<!-- Node24 -->
<g id="node47" class="node"><title>Node24</title>
<a xlink:href="classfwCore_1_1log_1_1ScopedMessage.html" target="_top" xlink:title="Scoped messages. ">
<polygon fill="white" stroke="black" points="322,-1180.5 322,-1201.5 468,-1201.5 468,-1180.5 322,-1180.5"/>
<text text-anchor="middle" x="395" y="-1188.5" font-family="Helvetica,sans-Serif" font-size="10.00">fwCore::log::ScopedMessage</text>
</a>
</g>
<!-- Node1&#45;&gt;Node24 -->
<g id="edge46" class="edge"><title>Node1&#45;&gt;Node24</title>
<path fill="none" stroke="midnightblue" d="M222.205,-947.989C226.098,-995.336 242.404,-1110.98 310,-1171 314.195,-1174.72 318.952,-1177.79 324.022,-1180.31"/>
<polygon fill="midnightblue" stroke="midnightblue" points="225.676,-947.465 221.473,-937.74 218.694,-947.964 225.676,-947.465"/>
</g>
<!-- Node25 -->
<g id="node49" class="node"><title>Node25</title>
<a xlink:href="classfwCore_1_1log_1_1SpyLogger.html" target="_top" xlink:title="Implements the SpyLogger. ">
<polygon fill="white" stroke="black" points="335.5,-1140.5 335.5,-1161.5 454.5,-1161.5 454.5,-1140.5 335.5,-1140.5"/>
<text text-anchor="middle" x="395" y="-1148.5" font-family="Helvetica,sans-Serif" font-size="10.00">fwCore::log::SpyLogger</text>
</a>
</g>
<!-- Node1&#45;&gt;Node25 -->
<g id="edge48" class="edge"><title>Node1&#45;&gt;Node25</title>
<path fill="none" stroke="midnightblue" d="M223.884,-947.935C230.763,-989.527 252.107,-1082.71 310,-1131 317.334,-1137.12 326.206,-1141.44 335.415,-1144.47"/>
<polygon fill="midnightblue" stroke="midnightblue" points="227.316,-947.224 222.34,-937.871 220.397,-948.286 227.316,-947.224"/>
</g>
<!-- Node26 -->
<g id="node51" class="node"><title>Node26</title>
<a xlink:href="classfwCore_1_1LogicStamp.html" target="_top" xlink:title="Provides a Logical timestamp system. ">
<polygon fill="white" stroke="black" points="342,-1100.5 342,-1121.5 448,-1121.5 448,-1100.5 342,-1100.5"/>
<text text-anchor="middle" x="395" y="-1108.5" font-family="Helvetica,sans-Serif" font-size="10.00">fwCore::LogicStamp</text>
</a>
</g>
<!-- Node1&#45;&gt;Node26 -->
<g id="edge50" class="edge"><title>Node1&#45;&gt;Node26</title>
<path fill="none" stroke="midnightblue" d="M226.309,-947.917C236.375,-983.15 261.684,-1054.09 310,-1091 319.156,-1097.99 330.367,-1102.6 341.606,-1105.61"/>
<polygon fill="midnightblue" stroke="midnightblue" points="229.565,-946.553 223.566,-937.821 222.81,-948.389 229.565,-946.553"/>
</g>
<!-- Node27 -->
<g id="node53" class="node"><title>Node27</title>
<a xlink:href="classfwCore_1_1TimeStamp.html" target="_top" xlink:title="Provides a timestamp and a expiracy system. ">
<polygon fill="white" stroke="black" points="343,-1060.5 343,-1081.5 447,-1081.5 447,-1060.5 343,-1060.5"/>
<text text-anchor="middle" x="395" y="-1068.5" font-family="Helvetica,sans-Serif" font-size="10.00">fwCore::TimeStamp</text>
</a>
</g>
<!-- Node1&#45;&gt;Node27 -->
<g id="edge52" class="edge"><title>Node1&#45;&gt;Node27</title>
<path fill="none" stroke="midnightblue" d="M229.609,-946.74C242.767,-974.499 270.574,-1024.62 310,-1051 319.702,-1057.49 331.257,-1061.89 342.674,-1064.86"/>
<polygon fill="midnightblue" stroke="midnightblue" points="232.774,-945.246 225.429,-937.61 226.409,-948.159 232.774,-945.246"/>
</g>
<!-- Node28 -->
<g id="node55" class="node"><title>Node28</title>
<a xlink:href="classfwDataIO_1_1reader_1_1IObjectReader.html" target="_top" xlink:title="Base class for all object readers. ">
<polygon fill="white" stroke="red" points="330.5,-1008 330.5,-1042 459.5,-1042 459.5,-1008 330.5,-1008"/>
<text text-anchor="start" x="338.5" y="-1029" font-family="Helvetica,sans-Serif" font-size="10.00">fwDataIO::reader::IObject</text>
<text text-anchor="middle" x="395" y="-1016" font-family="Helvetica,sans-Serif" font-size="10.00">Reader</text>
</a>
</g>
<!-- Node1&#45;&gt;Node28 -->
<g id="edge54" class="edge"><title>Node1&#45;&gt;Node28</title>
<path fill="none" stroke="midnightblue" d="M238.747,-944.856C255.719,-961.033 282.702,-984.491 310,-999 316.405,-1002.4 323.323,-1005.43 330.35,-1008.11"/>
<polygon fill="midnightblue" stroke="midnightblue" points="240.869,-942.038 231.262,-937.571 235.987,-947.054 240.869,-942.038"/>
</g>
<!-- Node29 -->
<g id="node57" class="node"><title>Node29</title>
<a xlink:href="classfwDataIO_1_1writer_1_1IObjectWriter.html" target="_top" xlink:title="Base class for all object writers. ">
<polygon fill="white" stroke="red" points="332,-956 332,-990 458,-990 458,-956 332,-956"/>
<text text-anchor="start" x="340" y="-977" font-family="Helvetica,sans-Serif" font-size="10.00">fwDataIO::writer::IObject</text>
<text text-anchor="middle" x="395" y="-964" font-family="Helvetica,sans-Serif" font-size="10.00">Writer</text>
</a>
</g>
<!-- Node1&#45;&gt;Node29 -->
<g id="edge56" class="edge"><title>Node1&#45;&gt;Node29</title>
<path fill="none" stroke="midnightblue" d="M270.839,-940.176C289.81,-945.191 311.684,-950.974 331.737,-956.275"/>
<polygon fill="midnightblue" stroke="midnightblue" points="271.482,-936.726 260.919,-937.553 269.692,-943.493 271.482,-936.726"/>
</g>
<!-- Node30 -->
<g id="node59" class="node"><title>Node30</title>
<a xlink:href="classfwGui_1_1GuiBaseObject.html" target="_top" xlink:title="Base class for all fwGui&#39;s classes. ">
<polygon fill="white" stroke="red" points="338,-916.5 338,-937.5 452,-937.5 452,-916.5 338,-916.5"/>
<text text-anchor="middle" x="395" y="-924.5" font-family="Helvetica,sans-Serif" font-size="10.00">fwGui::GuiBaseObject</text>
</a>
</g>
<!-- Node1&#45;&gt;Node30 -->
<g id="edge58" class="edge"><title>Node1&#45;&gt;Node30</title>
<path fill="none" stroke="midnightblue" d="M283.887,-927C301.551,-927 320.654,-927 337.957,-927"/>
<polygon fill="midnightblue" stroke="midnightblue" points="283.678,-923.5 273.678,-927 283.678,-930.5 283.678,-923.5"/>
</g>
<!-- Node31 -->
<g id="node61" class="node"><title>Node31</title>
<a xlink:href="classfwMemory_1_1BufferManager.html" target="_top" xlink:title="BufferManager implementation. ">
<polygon fill="white" stroke="black" points="329,-876.5 329,-897.5 461,-897.5 461,-876.5 329,-876.5"/>
<text text-anchor="middle" x="395" y="-884.5" font-family="Helvetica,sans-Serif" font-size="10.00">fwMemory::BufferManager</text>
</a>
</g>
<!-- Node1&#45;&gt;Node31 -->
<g id="edge60" class="edge"><title>Node1&#45;&gt;Node31</title>
<path fill="none" stroke="midnightblue" d="M276.534,-914.234C300,-908.839 326.997,-902.633 349.287,-897.509"/>
<polygon fill="midnightblue" stroke="midnightblue" points="275.678,-910.839 266.716,-916.49 277.246,-917.661 275.678,-910.839"/>
</g>
<!-- Node32 -->
<g id="node63" class="node"><title>Node32</title>
<a xlink:href="classfwMemory_1_1BufferObject.html" target="_top" xlink:title="Define Base class for FW4SPL buffers. ">
<polygon fill="white" stroke="black" points="333.5,-836.5 333.5,-857.5 456.5,-857.5 456.5,-836.5 333.5,-836.5"/>
<text text-anchor="middle" x="395" y="-844.5" font-family="Helvetica,sans-Serif" font-size="10.00">fwMemory::BufferObject</text>
</a>
</g>
<!-- Node1&#45;&gt;Node32 -->
<g id="edge62" class="edge"><title>Node1&#45;&gt;Node32</title>
<path fill="none" stroke="midnightblue" d="M241.602,-909.92C258.872,-896.417 284.701,-878.06 310,-867 318.612,-863.235 328.038,-860.121 337.379,-857.563"/>
<polygon fill="midnightblue" stroke="midnightblue" points="239.028,-907.497 233.4,-916.473 243.397,-912.966 239.028,-907.497"/>
</g>
<!-- Node33 -->
<g id="node65" class="node"><title>Node33</title>
<a xlink:href="classfwMemory_1_1IPolicy.html" target="_top" xlink:title="Defines the memory dump policy interface. ">
<polygon fill="white" stroke="red" points="346,-796.5 346,-817.5 444,-817.5 444,-796.5 346,-796.5"/>
<text text-anchor="middle" x="395" y="-804.5" font-family="Helvetica,sans-Serif" font-size="10.00">fwMemory::IPolicy</text>
</a>
</g>
<!-- Node1&#45;&gt;Node33 -->
<g id="edge64" class="edge"><title>Node1&#45;&gt;Node33</title>
<path fill="none" stroke="midnightblue" d="M232.757,-907.777C247.78,-884.909 275.956,-847.283 310,-827 320.81,-820.56 333.545,-816.193 345.821,-813.233"/>
<polygon fill="midnightblue" stroke="midnightblue" points="229.745,-905.993 227.316,-916.305 235.646,-909.758 229.745,-905.993"/>
</g>
<!-- Node34 -->
<g id="node67" class="node"><title>Node34</title>
<a xlink:href="classfwRenderVTK_1_1IVtkRenderWindowInteractorManager.html" target="_top" xlink:title="Defines a class to manage vtkRenderWindowInteractor in a window. ">
<polygon fill="white" stroke="red" points="310.5,-744 310.5,-778 479.5,-778 479.5,-744 310.5,-744"/>
<text text-anchor="start" x="318.5" y="-765" font-family="Helvetica,sans-Serif" font-size="10.00">fwRenderVTK::IVtkRenderWindow</text>
<text text-anchor="middle" x="395" y="-752" font-family="Helvetica,sans-Serif" font-size="10.00">InteractorManager</text>
</a>
</g>
<!-- Node1&#45;&gt;Node34 -->
<g id="edge66" class="edge"><title>Node1&#45;&gt;Node34</title>
<path fill="none" stroke="midnightblue" d="M228.457,-906.871C240.759,-876.422 268.182,-818.836 310,-787 314.42,-783.635 319.278,-780.702 324.364,-778.146"/>
<polygon fill="midnightblue" stroke="midnightblue" points="225.105,-905.834 224.738,-916.423 231.628,-908.374 225.105,-905.834"/>
</g>
<!-- Node35 -->
<g id="node69" class="node"><title>Node35</title>
<a xlink:href="classfwRuntime_1_1profile_1_1Profile.html" target="_top" xlink:title="Implements a bundle set profile. ">
<polygon fill="white" stroke="black" points="347,-692 347,-726 443,-726 443,-692 347,-692"/>
<text text-anchor="start" x="355" y="-713" font-family="Helvetica,sans-Serif" font-size="10.00">fwRuntime::profile</text>
<text text-anchor="middle" x="395" y="-700" font-family="Helvetica,sans-Serif" font-size="10.00">::Profile</text>
</a>
</g>
<!-- Node1&#45;&gt;Node35 -->
<g id="edge68" class="edge"><title>Node1&#45;&gt;Node35</title>
<path fill="none" stroke="midnightblue" d="M224.757,-906.527C233.013,-867.382 256.439,-781.674 310,-735 320.355,-725.977 333.783,-720.085 346.896,-716.238"/>
<polygon fill="midnightblue" stroke="midnightblue" points="221.298,-905.978 222.78,-916.469 228.163,-907.344 221.298,-905.978"/>
</g>
<!-- Node36 -->
<g id="node71" class="node"><title>Node36</title>
<a xlink:href="classfwServices_1_1helper_1_1ConfigLauncher.html" target="_top" xlink:title="This class provides few methods to manage AppConfig (parsing, starting, stopping...). ">
<polygon fill="white" stroke="black" points="346,-640 346,-674 444,-674 444,-640 346,-640"/>
<text text-anchor="start" x="354" y="-661" font-family="Helvetica,sans-Serif" font-size="10.00">fwServices::helper</text>
<text text-anchor="middle" x="395" y="-648" font-family="Helvetica,sans-Serif" font-size="10.00">::ConfigLauncher</text>
</a>
</g>
<!-- Node1&#45;&gt;Node36 -->
<g id="edge70" class="edge"><title>Node1&#45;&gt;Node36</title>
<path fill="none" stroke="midnightblue" d="M222.488,-906.32C226.97,-859.614 244.413,-745.205 310,-683 319.853,-673.655 332.976,-667.662 345.957,-663.822"/>
<polygon fill="midnightblue" stroke="midnightblue" points="218.989,-906.163 221.624,-916.425 225.963,-906.759 218.989,-906.163"/>
</g>
<!-- Node37 -->
<g id="node73" class="node"><title>Node37</title>
<a xlink:href="classfwServices_1_1helper_1_1SigSlotConnection.html" target="_top" xlink:title="This class provides few tools to connect/disconnect signals/slots between obj/srv. ">
<polygon fill="white" stroke="black" points="343,-588 343,-622 447,-622 447,-588 343,-588"/>
<text text-anchor="start" x="351" y="-609" font-family="Helvetica,sans-Serif" font-size="10.00">fwServices::helper</text>
<text text-anchor="middle" x="395" y="-596" font-family="Helvetica,sans-Serif" font-size="10.00">::SigSlotConnection</text>
</a>
</g>
<!-- Node1&#45;&gt;Node37 -->
<g id="edge72" class="edge"><title>Node1&#45;&gt;Node37</title>
<path fill="none" stroke="midnightblue" d="M224.601,-906.389C235.54,-845.983 270.088,-671.103 310,-631 318.926,-622.031 330.855,-616.14 342.948,-612.276"/>
<polygon fill="midnightblue" stroke="midnightblue" points="221.147,-905.819 222.837,-916.278 228.039,-907.048 221.147,-905.819"/>
</g>
<!-- Node38 -->
<g id="node75" class="node"><title>Node38</title>
<a xlink:href="classfwServices_1_1registry_1_1ActiveWorkers.html" target="_top" xlink:title="This class to register active worker in the system, creates a default worker. ">
<polygon fill="white" stroke="black" points="343,-536 343,-570 447,-570 447,-536 343,-536"/>
<text text-anchor="start" x="351" y="-557" font-family="Helvetica,sans-Serif" font-size="10.00">fwServices::registry</text>
<text text-anchor="middle" x="395" y="-544" font-family="Helvetica,sans-Serif" font-size="10.00">::ActiveWorkers</text>
</a>
</g>
<!-- Node1&#45;&gt;Node38 -->
<g id="edge74" class="edge"><title>Node1&#45;&gt;Node38</title>
<path fill="none" stroke="midnightblue" d="M223.666,-905.978C232.656,-838.24 263.902,-627.292 310,-579 318.738,-569.847 330.599,-563.89 342.686,-560.02"/>
<polygon fill="midnightblue" stroke="midnightblue" points="220.151,-905.869 222.33,-916.237 227.092,-906.772 220.151,-905.869"/>
</g>
<!-- Node39 -->
<g id="node77" class="node"><title>Node39</title>
<a xlink:href="classfwServices_1_1registry_1_1AppConfig.html" target="_top" xlink:title="This class allows to register all the configuration which has the point extension &quot;::fwServices::regi...">
<polygon fill="white" stroke="black" points="343,-484 343,-518 447,-518 447,-484 343,-484"/>
<text text-anchor="start" x="351" y="-505" font-family="Helvetica,sans-Serif" font-size="10.00">fwServices::registry</text>
<text text-anchor="middle" x="395" y="-492" font-family="Helvetica,sans-Serif" font-size="10.00">::AppConfig</text>
</a>
</g>
<!-- Node1&#45;&gt;Node39 -->
<g id="edge76" class="edge"><title>Node1&#45;&gt;Node39</title>
<path fill="none" stroke="midnightblue" d="M222.928,-905.817C230.108,-831.437 257.611,-583.639 310,-527 318.697,-517.597 330.69,-511.558 342.927,-507.691"/>
<polygon fill="midnightblue" stroke="midnightblue" points="219.403,-905.926 221.95,-916.21 226.372,-906.582 219.403,-905.926"/>
</g>
<!-- Node40 -->
<g id="node79" class="node"><title>Node40</title>
<a xlink:href="classfwServices_1_1registry_1_1AppConfigParameters.html" target="_top" xlink:title="This class allows to register all the configuration parameters which has the point extension &quot;::fwSer...">
<polygon fill="white" stroke="black" points="335.5,-432 335.5,-466 454.5,-466 454.5,-432 335.5,-432"/>
<text text-anchor="start" x="343.5" y="-453" font-family="Helvetica,sans-Serif" font-size="10.00">fwServices::registry</text>
<text text-anchor="middle" x="395" y="-440" font-family="Helvetica,sans-Serif" font-size="10.00">::AppConfigParameters</text>
</a>
</g>
<!-- Node1&#45;&gt;Node40 -->
<g id="edge78" class="edge"><title>Node1&#45;&gt;Node40</title>
<path fill="none" stroke="midnightblue" d="M222.311,-906.242C227.758,-826.388 251.139,-540.222 310,-475 316.824,-467.439 325.779,-462.048 335.313,-458.212"/>
<polygon fill="midnightblue" stroke="midnightblue" points="218.802,-906.267 221.635,-916.476 225.786,-906.728 218.802,-906.267"/>
</g>
<!-- Node41 -->
<g id="node81" class="node"><title>Node41</title>
<a xlink:href="classfwServices_1_1registry_1_1AppInfo.html" target="_top" xlink:title="fwServices::registry\l::AppInfo">
<polygon fill="white" stroke="black" points="343,-380 343,-414 447,-414 447,-380 343,-380"/>
<text text-anchor="start" x="351" y="-401" font-family="Helvetica,sans-Serif" font-size="10.00">fwServices::registry</text>
<text text-anchor="middle" x="395" y="-388" font-family="Helvetica,sans-Serif" font-size="10.00">::AppInfo</text>
</a>
</g>
<!-- Node1&#45;&gt;Node41 -->
<g id="edge80" class="edge"><title>Node1&#45;&gt;Node41</title>
<path fill="none" stroke="midnightblue" d="M221.858,-906.083C225.787,-820.328 244.775,-496.715 310,-423 318.488,-413.408 330.407,-407.302 342.64,-403.431"/>
<polygon fill="midnightblue" stroke="midnightblue" points="218.358,-906.008 221.417,-916.151 225.351,-906.314 218.358,-906.008"/>
</g>
<!-- Node42 -->
<g id="node83" class="node"><title>Node42</title>
<a xlink:href="classfwServices_1_1registry_1_1ObjectService.html" target="_top" xlink:title="maintain the relation between objects and services ">
<polygon fill="white" stroke="black" points="343,-328 343,-362 447,-362 447,-328 343,-328"/>
<text text-anchor="start" x="351" y="-349" font-family="Helvetica,sans-Serif" font-size="10.00">fwServices::registry</text>
<text text-anchor="middle" x="395" y="-336" font-family="Helvetica,sans-Serif" font-size="10.00">::ObjectService</text>
</a>
</g>
<!-- Node1&#45;&gt;Node42 -->
<g id="edge82" class="edge"><title>Node1&#45;&gt;Node42</title>
<path fill="none" stroke="midnightblue" d="M221.473,-906.307C223.957,-815.526 238.286,-453.372 310,-371 318.512,-361.223 330.589,-355.063 342.976,-351.199"/>
<polygon fill="midnightblue" stroke="midnightblue" points="217.971,-906.337 221.215,-916.423 224.969,-906.515 217.971,-906.337"/>
</g>
<!-- Node43 -->
<g id="node85" class="node"><title>Node43</title>
<a xlink:href="classfwServices_1_1registry_1_1Proxy.html" target="_top" xlink:title="This class defines a proxy for signal/slot connections. ">
<polygon fill="white" stroke="black" points="343,-276 343,-310 447,-310 447,-276 343,-276"/>
<text text-anchor="start" x="351" y="-297" font-family="Helvetica,sans-Serif" font-size="10.00">fwServices::registry</text>
<text text-anchor="middle" x="395" y="-284" font-family="Helvetica,sans-Serif" font-size="10.00">::Proxy</text>
</a>
</g>
<!-- Node1&#45;&gt;Node43 -->
<g id="edge84" class="edge"><title>Node1&#45;&gt;Node43</title>
<path fill="none" stroke="midnightblue" d="M221.161,-906.238C222.323,-810.214 231.851,-409.986 310,-319 318.446,-309.167 330.501,-302.987 342.887,-299.122"/>
<polygon fill="midnightblue" stroke="midnightblue" points="217.66,-906.363 221.057,-916.399 224.66,-906.435 217.66,-906.363"/>
</g>
<!-- Node44 -->
<g id="node87" class="node"><title>Node44</title>
<a xlink:href="classfwServices_1_1registry_1_1ServiceConfig.html" target="_top" xlink:title="This class allows to register all the service configuration which has the point extension &quot;::fwServic...">
<polygon fill="white" stroke="black" points="343,-224 343,-258 447,-258 447,-224 343,-224"/>
<text text-anchor="start" x="351" y="-245" font-family="Helvetica,sans-Serif" font-size="10.00">fwServices::registry</text>
<text text-anchor="middle" x="395" y="-232" font-family="Helvetica,sans-Serif" font-size="10.00">::ServiceConfig</text>
</a>
</g>
<!-- Node1&#45;&gt;Node44 -->
<g id="edge86" class="edge"><title>Node1&#45;&gt;Node44</title>
<path fill="none" stroke="midnightblue" d="M222.46,-906.43C230.17,-800.249 267.398,-317.17 310,-267 318.39,-257.119 330.426,-250.923 342.812,-247.058"/>
<polygon fill="midnightblue" stroke="midnightblue" points="218.963,-906.271 221.736,-916.497 225.945,-906.773 218.963,-906.271"/>
</g>
<!-- Node45 -->
<g id="node89" class="node"><title>Node45</title>
<a xlink:href="classfwServices_1_1registry_1_1ServiceConfigInfo.html" target="_top" xlink:title="fwServices::registry\l::ServiceConfigInfo">
<polygon fill="white" stroke="black" points="343,-172 343,-206 447,-206 447,-172 343,-172"/>
<text text-anchor="start" x="351" y="-193" font-family="Helvetica,sans-Serif" font-size="10.00">fwServices::registry</text>
<text text-anchor="middle" x="395" y="-180" font-family="Helvetica,sans-Serif" font-size="10.00">::ServiceConfigInfo</text>
</a>
</g>
<!-- Node1&#45;&gt;Node45 -->
<g id="edge88" class="edge"><title>Node1&#45;&gt;Node45</title>
<path fill="none" stroke="midnightblue" d="M222.261,-906.234C229.206,-794.675 264.17,-269.504 310,-215 318.342,-205.078 330.362,-198.869 342.747,-195.003"/>
<polygon fill="midnightblue" stroke="midnightblue" points="218.751,-906.289 221.629,-916.485 225.737,-906.719 218.751,-906.289"/>
</g>
<!-- Node46 -->
<g id="node91" class="node"><title>Node46</title>
<a xlink:href="classfwServices_1_1registry_1_1ServiceFactory.html" target="_top" xlink:title="fwServices::registry\l::ServiceFactory">
<polygon fill="white" stroke="black" points="343,-120 343,-154 447,-154 447,-120 343,-120"/>
<text text-anchor="start" x="351" y="-141" font-family="Helvetica,sans-Serif" font-size="10.00">fwServices::registry</text>
<text text-anchor="middle" x="395" y="-128" font-family="Helvetica,sans-Serif" font-size="10.00">::ServiceFactory</text>
</a>
</g>
<!-- Node1&#45;&gt;Node46 -->
<g id="edge90" class="edge"><title>Node1&#45;&gt;Node46</title>
<path fill="none" stroke="midnightblue" d="M222.078,-906.186C228.285,-789.714 260.916,-221.874 310,-163 318.301,-153.044 330.306,-146.822 342.69,-142.956"/>
<polygon fill="midnightblue" stroke="midnightblue" points="218.577,-906.114 221.546,-916.284 225.567,-906.482 218.577,-906.114"/>
</g>
<!-- Node47 -->
<g id="node93" class="node"><title>Node47</title>
<a xlink:href="classfwThread_1_1Timer.html" target="_top" xlink:title="The Timer class provides single&#45;shot or repetitive timers. A Timer triggers a function once after a d...">
<polygon fill="white" stroke="red" points="351,-80.5 351,-101.5 439,-101.5 439,-80.5 351,-80.5"/>
<text text-anchor="middle" x="395" y="-88.5" font-family="Helvetica,sans-Serif" font-size="10.00">fwThread::Timer</text>
</a>
</g>
<!-- Node1&#45;&gt;Node47 -->
<g id="edge92" class="edge"><title>Node1&#45;&gt;Node47</title>
<path fill="none" stroke="midnightblue" d="M221.85,-906.253C226.993,-785.12 255.58,-172.528 310,-111 320.245,-99.4174 335.819,-93.8896 350.851,-91.4305"/>
<polygon fill="midnightblue" stroke="midnightblue" points="218.346,-906.269 221.425,-916.407 225.34,-906.562 218.346,-906.269"/>
</g>
<!-- Node48 -->
<g id="node95" class="node"><title>Node48</title>
<a xlink:href="classfwThread_1_1Worker.html" target="_top" xlink:title="This class creates and manages a task loop. The default implementation create a loop in a new thread...">
<polygon fill="white" stroke="red" points="347.5,-40.5 347.5,-61.5 442.5,-61.5 442.5,-40.5 347.5,-40.5"/>
<text text-anchor="middle" x="395" y="-48.5" font-family="Helvetica,sans-Serif" font-size="10.00">fwThread::Worker</text>
</a>
</g>
<!-- Node1&#45;&gt;Node48 -->
<g id="edge94" class="edge"><title>Node1&#45;&gt;Node48</title>
<path fill="none" stroke="midnightblue" d="M221.733,-906.41C226.336,-782.19 252.928,-135.854 310,-71 319.414,-60.3021 333.375,-54.7639 347.274,-52.0386"/>
<polygon fill="midnightblue" stroke="midnightblue" points="218.232,-906.363 221.366,-916.484 225.228,-906.618 218.232,-906.363"/>
</g>
<!-- Node49 -->
<g id="node97" class="node"><title>Node49</title>
<a xlink:href="classfwTools_1_1Object.html" target="_top" xlink:title="Define Base class for FW4SPL objects and services. ">
<polygon fill="white" stroke="red" points="352,-0.5 352,-21.5 438,-21.5 438,-0.5 352,-0.5"/>
<text text-anchor="middle" x="395" y="-8.5" font-family="Helvetica,sans-Serif" font-size="10.00">fwTools::Object</text>
</a>
</g>
<!-- Node1&#45;&gt;Node49 -->
<g id="edge96" class="edge"><title>Node1&#45;&gt;Node49</title>
<path fill="none" stroke="midnightblue" d="M221.638,-906.246C225.756,-778.229 250.323,-99.13 310,-31 320.388,-19.1401 336.365,-13.6156 351.674,-11.2363"/>
<polygon fill="midnightblue" stroke="midnightblue" points="218.138,-906.194 221.32,-916.3 225.134,-906.415 218.138,-906.194"/>
</g>
<!-- Node2 -->
<g id="node2" class="node"><title>Node2</title>
<polygon fill="white" stroke="#bfbfbf" points="0.5,-910 0.5,-944 131.5,-944 131.5,-910 0.5,-910"/>
<text text-anchor="start" x="8.5" y="-931" font-family="Helvetica,sans-Serif" font-size="10.00">std::enable_shared</text>
<text text-anchor="middle" x="66" y="-918" font-family="Helvetica,sans-Serif" font-size="10.00">_from_this&lt; BaseObject &gt;</text>
</g>
<!-- Node2&#45;&gt;Node1 -->
<g id="edge2" class="edge"><title>Node2&#45;&gt;Node1</title>
<path fill="none" stroke="midnightblue" d="M141.815,-927C150.778,-927 159.771,-927 168.315,-927"/>
<polygon fill="midnightblue" stroke="midnightblue" points="141.734,-923.5 131.734,-927 141.734,-930.5 141.734,-923.5"/>
</g>
<!-- Node4 -->
<g id="node7" class="node"><title>Node4</title>
<a xlink:href="classfwActivities_1_1builder_1_1ActivitySeries.html" target="_top" xlink:title="Defines the default builder for the data ActivitySeries. ">
<polygon fill="white" stroke="red" points="520,-1791 520,-1825 622,-1825 622,-1791 520,-1791"/>
<text text-anchor="start" x="528" y="-1812" font-family="Helvetica,sans-Serif" font-size="10.00">fwActivities::builder</text>
<text text-anchor="middle" x="571" y="-1799" font-family="Helvetica,sans-Serif" font-size="10.00">::ActivitySeries</text>
</a>
</g>
<!-- Node3&#45;&gt;Node4 -->
<g id="edge6" class="edge"><title>Node3&#45;&gt;Node4</title>
<path fill="none" stroke="midnightblue" d="M458.783,-1789.51C478.907,-1792.83 500.863,-1796.44 519.975,-1799.59"/>
<polygon fill="midnightblue" stroke="midnightblue" points="459.198,-1786.03 448.762,-1787.86 458.06,-1792.94 459.198,-1786.03"/>
</g>
<!-- Node6 -->
<g id="node11" class="node"><title>Node6</title>
<a xlink:href="classfwActivities_1_1validator_1_1ImageProperties.html" target="_top" xlink:title="Defines a validator which checks that properties of given images are the same. ">
<polygon fill="white" stroke="black" points="516,-1739 516,-1773 626,-1773 626,-1739 516,-1739"/>
<text text-anchor="start" x="524" y="-1760" font-family="Helvetica,sans-Serif" font-size="10.00">fwActivities::validator</text>
<text text-anchor="middle" x="571" y="-1747" font-family="Helvetica,sans-Serif" font-size="10.00">::ImageProperties</text>
</a>
</g>
<!-- Node5&#45;&gt;Node6 -->
<g id="edge10" class="edge"><title>Node5&#45;&gt;Node6</title>
<path fill="none" stroke="midnightblue" d="M442.486,-1720.22C465.139,-1726.53 492.374,-1734.11 515.931,-1740.67"/>
<polygon fill="midnightblue" stroke="midnightblue" points="443.329,-1716.82 432.756,-1717.51 441.451,-1723.57 443.329,-1716.82"/>
</g>
<!-- Node7 -->
<g id="node13" class="node"><title>Node7</title>
<a xlink:href="classfwActivities_1_1validator_1_1RelatedStudy.html" target="_top" xlink:title="Defines a validator which checks that given series refer to the same study. ">
<polygon fill="white" stroke="black" points="516,-1687 516,-1721 626,-1721 626,-1687 516,-1687"/>
<text text-anchor="start" x="524" y="-1708" font-family="Helvetica,sans-Serif" font-size="10.00">fwActivities::validator</text>
<text text-anchor="middle" x="571" y="-1695" font-family="Helvetica,sans-Serif" font-size="10.00">::RelatedStudy</text>
</a>
</g>
<!-- Node5&#45;&gt;Node7 -->
<g id="edge12" class="edge"><title>Node5&#45;&gt;Node7</title>
<path fill="none" stroke="midnightblue" d="M462.822,-1705.84C480.396,-1705.54 499.105,-1705.23 515.935,-1704.94"/>
<polygon fill="midnightblue" stroke="midnightblue" points="462.568,-1702.35 452.629,-1706.02 462.687,-1709.35 462.568,-1702.35"/>
</g>
<!-- Node10 -->
<g id="node19" class="node"><title>Node10</title>
<a xlink:href="classfwAtoms_1_1Blob.html" target="_top" xlink:title="Representation of a buffer. ">
<polygon fill="white" stroke="black" points="530.5,-1647.5 530.5,-1668.5 611.5,-1668.5 611.5,-1647.5 530.5,-1647.5"/>
<text text-anchor="middle" x="571" y="-1655.5" font-family="Helvetica,sans-Serif" font-size="10.00">fwAtoms::Blob</text>
</a>
</g>
<!-- Node9&#45;&gt;Node10 -->
<g id="edge18" class="edge"><title>Node9&#45;&gt;Node10</title>
<path fill="none" stroke="midnightblue" d="M447.191,-1627.14C458.043,-1629.7 469.401,-1632.41 480,-1635 496.464,-1639.02 514.57,-1643.57 530.266,-1647.55"/>
<polygon fill="midnightblue" stroke="midnightblue" points="447.94,-1623.72 437.404,-1624.83 446.335,-1630.53 447.94,-1623.72"/>
</g>
<!-- Node11 -->
<g id="node21" class="node"><title>Node11</title>
<a xlink:href="classfwAtoms_1_1Boolean.html" target="_top" xlink:title="Represented a Boolean value. ">
<polygon fill="white" stroke="black" points="522.5,-1607.5 522.5,-1628.5 619.5,-1628.5 619.5,-1607.5 522.5,-1607.5"/>
<text text-anchor="middle" x="571" y="-1615.5" font-family="Helvetica,sans-Serif" font-size="10.00">fwAtoms::Boolean</text>
</a>
</g>
<!-- Node9&#45;&gt;Node11 -->
<g id="edge20" class="edge"><title>Node9&#45;&gt;Node11</title>
<path fill="none" stroke="midnightblue" d="M447.397,-1615.89C471.145,-1616.3 499.053,-1616.77 522.336,-1617.17"/>
<polygon fill="midnightblue" stroke="midnightblue" points="447.215,-1612.39 437.156,-1615.72 447.095,-1619.39 447.215,-1612.39"/>
</g>
<!-- Node12 -->
<g id="node23" class="node"><title>Node12</title>
<a xlink:href="classfwAtoms_1_1Map.html" target="_top" xlink:title="Map is a container for mapping representation. ">
<polygon fill="white" stroke="black" points="531,-1567.5 531,-1588.5 611,-1588.5 611,-1567.5 531,-1567.5"/>
<text text-anchor="middle" x="571" y="-1575.5" font-family="Helvetica,sans-Serif" font-size="10.00">fwAtoms::Map</text>
</a>
</g>
<!-- Node9&#45;&gt;Node12 -->
<g id="edge22" class="edge"><title>Node9&#45;&gt;Node12</title>
<path fill="none" stroke="midnightblue" d="M447.112,-1604.04C473.838,-1598.43 505.893,-1591.69 530.701,-1586.47"/>
<polygon fill="midnightblue" stroke="midnightblue" points="446.222,-1600.66 437.156,-1606.14 447.663,-1607.51 446.222,-1600.66"/>
</g>
<!-- Node13 -->
<g id="node25" class="node"><title>Node13</title>
<a xlink:href="classfwAtoms_1_1Numeric.html" target="_top" xlink:title="Storing a numeric value. ">
<polygon fill="white" stroke="black" points="522,-1527.5 522,-1548.5 620,-1548.5 620,-1527.5 522,-1527.5"/>
<text text-anchor="middle" x="571" y="-1535.5" font-family="Helvetica,sans-Serif" font-size="10.00">fwAtoms::Numeric</text>
</a>
</g>
<!-- Node9&#45;&gt;Node13 -->
<g id="edge24" class="edge"><title>Node9&#45;&gt;Node13</title>
<path fill="none" stroke="midnightblue" d="M447.193,-1607.64C458.47,-1604.72 470,-1600.66 480,-1595 499.967,-1583.7 496.732,-1570.46 516,-1558 521.717,-1554.3 528.208,-1551.17 534.678,-1548.56"/>
<polygon fill="midnightblue" stroke="midnightblue" points="446.342,-1604.24 437.393,-1609.91 447.926,-1611.06 446.342,-1604.24"/>
</g>
<!-- Node14 -->
<g id="node27" class="node"><title>Node14</title>
<a xlink:href="classfwAtoms_1_1Object.html" target="_top" xlink:title="Class represented a fwData::Object. ">
<polygon fill="white" stroke="black" points="526,-1487.5 526,-1508.5 616,-1508.5 616,-1487.5 526,-1487.5"/>
<text text-anchor="middle" x="571" y="-1495.5" font-family="Helvetica,sans-Serif" font-size="10.00">fwAtoms::Object</text>
</a>
</g>
<!-- Node9&#45;&gt;Node14 -->
<g id="edge26" class="edge"><title>Node9&#45;&gt;Node14</title>
<path fill="none" stroke="midnightblue" d="M447.077,-1610.45C458.849,-1607.43 470.624,-1602.62 480,-1595 509.321,-1571.18 488.131,-1543.5 516,-1518 520.197,-1514.16 525.19,-1511.04 530.43,-1508.51"/>
<polygon fill="midnightblue" stroke="midnightblue" points="446.273,-1607.04 437.242,-1612.58 447.757,-1613.88 446.273,-1607.04"/>
</g>
</g>
</svg>
