<?xml version="1.0" encoding="UTF-8" standalone="no"?>
<!DOCTYPE svg PUBLIC "-//W3C//DTD SVG 1.1//EN"
 "http://www.w3.org/Graphics/SVG/1.1/DTD/svg11.dtd">
<!-- Generated by graphviz version 2.36.0 (20140111.2315)
 -->
<!-- Title: fwMedDataTools::ModelSeries::addMesh Pages: 1 -->
<svg width="358pt" height="87pt"
 viewBox="0.00 0.00 358.00 87.00" xmlns="http://www.w3.org/2000/svg" xmlns:xlink="http://www.w3.org/1999/xlink">
<g id="graph0" class="graph" transform="scale(1 1) rotate(0) translate(4 83)">
<title>fwMedDataTools::ModelSeries::addMesh</title>
<polygon fill="white" stroke="none" points="-4,4 -4,-83 354,-83 354,4 -4,4"/>
<!-- Node1 -->
<g id="node1" class="node"><title>Node1</title>
<polygon fill="#bfbfbf" stroke="black" points="0.5,-24 0.5,-54 151.5,-54 151.5,-24 0.5,-24"/>
<text text-anchor="start" x="8.5" y="-42" font-family="Helvetica,sans-Serif" font-size="10.00">fwMedDataTools::ModelSeries</text>
<text text-anchor="middle" x="76" y="-31" font-family="Helvetica,sans-Serif" font-size="10.00">::addMesh</text>
</g>
<!-- Node2 -->
<g id="node2" class="node"><title>Node2</title>
<g id="a_node2"><a xlink:href="classfwMedDataTools_1_1ModelSeries.html#af2466333fee0eaa81d7c6f8313b31304" target="_top" xlink:title="Add a mesh into a model series. A reconstruction for this mesh will be created. ">
<polygon fill="white" stroke="black" points="193.5,-49 193.5,-79 344.5,-79 344.5,-49 193.5,-49"/>
<text text-anchor="start" x="201.5" y="-67" font-family="Helvetica,sans-Serif" font-size="10.00">fwMedDataTools::ModelSeries</text>
<text text-anchor="middle" x="269" y="-56" font-family="Helvetica,sans-Serif" font-size="10.00">::addReconstruction</text>
</a>
</g>
</g>
<!-- Node1&#45;&gt;Node2 -->
<g id="edge1" class="edge"><title>Node1&#45;&gt;Node2</title>
<path fill="none" stroke="midnightblue" d="M151.666,-48.7731C162.053,-50.1326 172.786,-51.5374 183.339,-52.9187"/>
<polygon fill="midnightblue" stroke="midnightblue" points="183.016,-56.4062 193.386,-54.2337 183.925,-49.4654 183.016,-56.4062"/>
</g>
<!-- Node3 -->
<g id="node3" class="node"><title>Node3</title>
<g id="a_node3"><a xlink:href="classfwMedDataTools_1_1ModelSeries.html#a7a386a69655fca8d9194766b0e1e3fca" target="_top" xlink:title="Create a reconstruction from a mesh. ">
<polygon fill="white" stroke="black" points="188,-0 188,-30 350,-30 350,-0 188,-0"/>
<text text-anchor="start" x="196" y="-18" font-family="Helvetica,sans-Serif" font-size="10.00">fwMedDataTools::ModelSeries</text>
<text text-anchor="middle" x="269" y="-7" font-family="Helvetica,sans-Serif" font-size="10.00">::createReconstructionFromMesh</text>
</a>
</g>
</g>
<!-- Node1&#45;&gt;Node3 -->
<g id="edge2" class="edge"><title>Node1&#45;&gt;Node3</title>
<path fill="none" stroke="midnightblue" d="M151.666,-29.6179C160.164,-28.5501 168.893,-27.4532 177.566,-26.3634"/>
<polygon fill="midnightblue" stroke="midnightblue" points="178.22,-29.8089 187.705,-25.0894 177.347,-22.8635 178.22,-29.8089"/>
</g>
</g>
</svg>
