<?xml version="1.0" encoding="UTF-8" standalone="no"?>
<!DOCTYPE svg PUBLIC "-//W3C//DTD SVG 1.1//EN"
 "http://www.w3.org/Graphics/SVG/1.1/DTD/svg11.dtd">
<!-- Generated by graphviz version 2.36.0 (20140111.2315)
 -->
<!-- Title: fwGdcmIO::reader::SeriesDB Pages: 1 -->
<svg width="1374pt" height="286pt"
 viewBox="0.00 0.00 1374.00 286.00" xmlns="http://www.w3.org/2000/svg" xmlns:xlink="http://www.w3.org/1999/xlink">
<g id="graph0" class="graph" transform="scale(1 1) rotate(0) translate(4 282)">
<title>fwGdcmIO::reader::SeriesDB</title>
<polygon fill="white" stroke="none" points="-4,4 -4,-282 1370,-282 1370,4 -4,4"/>
<!-- Node1 -->
<g id="node1" class="node"><title>Node1</title>
<polygon fill="#bfbfbf" stroke="black" points="1220.5,-138.5 1220.5,-157.5 1365.5,-157.5 1365.5,-138.5 1220.5,-138.5"/>
<text text-anchor="middle" x="1293" y="-145.5" font-family="Helvetica,sans-Serif" font-size="10.00">fwGdcmIO::reader::SeriesDB</text>
</g>
<!-- Node2 -->
<g id="node2" class="node"><title>Node2</title>
<g id="a_node2"><a xlink:href="classfwDataIO_1_1reader_1_1GenericObjectReader.html" target="_top" xlink:title="fwDataIO::reader::Generic\lObjectReader\&lt; ::fwMedData\l::SeriesDB \&gt;">
<polygon fill="white" stroke="black" points="1040,-217.5 1040,-258.5 1182,-258.5 1182,-217.5 1040,-217.5"/>
<text text-anchor="start" x="1048" y="-246.5" font-family="Helvetica,sans-Serif" font-size="10.00">fwDataIO::reader::Generic</text>
<text text-anchor="start" x="1048" y="-235.5" font-family="Helvetica,sans-Serif" font-size="10.00">ObjectReader&lt; ::fwMedData</text>
<text text-anchor="middle" x="1111" y="-224.5" font-family="Helvetica,sans-Serif" font-size="10.00">::SeriesDB &gt;</text>
</a>
</g>
</g>
<!-- Node2&#45;&gt;Node1 -->
<g id="edge1" class="edge"><title>Node2&#45;&gt;Node1</title>
<path fill="none" stroke="midnightblue" d="M1168.85,-213.256C1173.32,-211.18 1177.75,-209.079 1182,-207 1215.49,-190.633 1253.63,-169.625 1275.06,-157.602"/>
<polygon fill="midnightblue" stroke="midnightblue" points="1167.3,-210.119 1159.67,-217.468 1170.22,-216.482 1167.3,-210.119"/>
</g>
<!-- Node3 -->
<g id="node3" class="node"><title>Node3</title>
<g id="a_node3"><a xlink:href="classfwDataIO_1_1reader_1_1IObjectReader.html" target="_top" xlink:title="Base class for all object readers. ">
<polygon fill="white" stroke="black" points="500.5,-248 500.5,-278 629.5,-278 629.5,-248 500.5,-248"/>
<text text-anchor="start" x="508.5" y="-266" font-family="Helvetica,sans-Serif" font-size="10.00">fwDataIO::reader::IObject</text>
<text text-anchor="middle" x="565" y="-255" font-family="Helvetica,sans-Serif" font-size="10.00">Reader</text>
</a>
</g>
</g>
<!-- Node3&#45;&gt;Node2 -->
<g id="edge2" class="edge"><title>Node3&#45;&gt;Node2</title>
<path fill="none" stroke="midnightblue" d="M639.728,-263.971C730.033,-264.49 887.583,-263.223 1022,-251 1027.84,-250.469 1033.89,-249.808 1039.96,-249.07"/>
<polygon fill="midnightblue" stroke="midnightblue" points="639.615,-260.47 629.592,-263.904 639.568,-267.47 639.615,-260.47"/>
</g>
<!-- Node6 -->
<g id="node6" class="node"><title>Node6</title>
<g id="a_node6"><a xlink:href="classfwDataIO_1_1reader_1_1GenericObjectReader.html" target="_top" xlink:title="generic class for all object readers. ">
<polygon fill="white" stroke="black" points="730,-217 730,-247 878,-247 878,-217 730,-217"/>
<text text-anchor="start" x="738" y="-235" font-family="Helvetica,sans-Serif" font-size="10.00">fwDataIO::reader::Generic</text>
<text text-anchor="middle" x="804" y="-224" font-family="Helvetica,sans-Serif" font-size="10.00">ObjectReader&lt; DATATYPE &gt;</text>
</a>
</g>
</g>
<!-- Node3&#45;&gt;Node6 -->
<g id="edge6" class="edge"><title>Node3&#45;&gt;Node6</title>
<path fill="none" stroke="midnightblue" d="M639.473,-253.39C668.16,-249.637 700.983,-245.344 729.658,-241.593"/>
<polygon fill="midnightblue" stroke="midnightblue" points="638.973,-249.925 629.512,-254.693 639.881,-256.866 638.973,-249.925"/>
</g>
<!-- Node4 -->
<g id="node4" class="node"><title>Node4</title>
<g id="a_node4"><a xlink:href="classfwCore_1_1BaseObject.html" target="_top" xlink:title="Base class for all FW4SPL&#39;s classes. ">
<polygon fill="white" stroke="black" points="212.5,-253.5 212.5,-272.5 317.5,-272.5 317.5,-253.5 212.5,-253.5"/>
<text text-anchor="middle" x="265" y="-260.5" font-family="Helvetica,sans-Serif" font-size="10.00">fwCore::BaseObject</text>
</a>
</g>
</g>
<!-- Node4&#45;&gt;Node3 -->
<g id="edge3" class="edge"><title>Node4&#45;&gt;Node3</title>
<path fill="none" stroke="midnightblue" d="M327.697,-263C378.194,-263 449.36,-263 500.375,-263"/>
<polygon fill="midnightblue" stroke="midnightblue" points="327.567,-259.5 317.567,-263 327.567,-266.5 327.567,-259.5"/>
</g>
<!-- Node5 -->
<g id="node5" class="node"><title>Node5</title>
<polygon fill="white" stroke="#bfbfbf" points="0.5,-248 0.5,-278 131.5,-278 131.5,-248 0.5,-248"/>
<text text-anchor="start" x="8.5" y="-266" font-family="Helvetica,sans-Serif" font-size="10.00">std::enable_shared</text>
<text text-anchor="middle" x="66" y="-255" font-family="Helvetica,sans-Serif" font-size="10.00">_from_this&lt; BaseObject &gt;</text>
</g>
<!-- Node5&#45;&gt;Node4 -->
<g id="edge4" class="edge"><title>Node5&#45;&gt;Node4</title>
<path fill="none" stroke="midnightblue" d="M141.507,-263C165.165,-263 190.79,-263 212.458,-263"/>
<polygon fill="midnightblue" stroke="midnightblue" points="141.505,-259.5 131.505,-263 141.505,-266.5 141.505,-259.5"/>
</g>
<!-- Node6&#45;&gt;Node2 -->
<g id="edge5" class="edge"><title>Node6&#45;&gt;Node2</title>
<path fill="none" stroke="orange" stroke-dasharray="5,2" d="M888.324,-233.639C935.855,-234.574 994.762,-235.733 1039.9,-236.621"/>
<polygon fill="orange" stroke="orange" points="888.122,-230.135 878.055,-233.437 887.984,-237.133 888.122,-230.135"/>
<text text-anchor="middle" x="959" y="-239" font-family="Helvetica,sans-Serif" font-size="10.00"> &lt; ::fwMedData::SeriesDB &gt;</text>
</g>
<!-- Node7 -->
<g id="node7" class="node"><title>Node7</title>
<g id="a_node7"><a xlink:href="structfwData_1_1location_1_1enableFolder.html" target="_top" xlink:title="fwData::location::enable\lFolder\&lt; ::fwDataIO::reader\l::IObjectReader \&gt;">
<polygon fill="white" stroke="black" points="1044,-157.5 1044,-198.5 1178,-198.5 1178,-157.5 1044,-157.5"/>
<text text-anchor="start" x="1052" y="-186.5" font-family="Helvetica,sans-Serif" font-size="10.00">fwData::location::enable</text>
<text text-anchor="start" x="1052" y="-175.5" font-family="Helvetica,sans-Serif" font-size="10.00">Folder&lt; ::fwDataIO::reader</text>
<text text-anchor="middle" x="1111" y="-164.5" font-family="Helvetica,sans-Serif" font-size="10.00">::IObjectReader &gt;</text>
</a>
</g>
</g>
<!-- Node7&#45;&gt;Node1 -->
<g id="edge7" class="edge"><title>Node7&#45;&gt;Node1</title>
<path fill="none" stroke="midnightblue" d="M1188.19,-165.302C1203.84,-162.693 1220.06,-159.989 1234.9,-157.516"/>
<polygon fill="midnightblue" stroke="midnightblue" points="1187.29,-161.903 1178,-166.999 1188.44,-168.808 1187.29,-161.903"/>
</g>
<!-- Node8 -->
<g id="node8" class="node"><title>Node8</title>
<g id="a_node8"><a xlink:href="structfwData_1_1location_1_1enableFolder.html" target="_top" xlink:title="This class is derived by reader/writer. ">
<polygon fill="white" stroke="black" points="743,-163 743,-193 865,-193 865,-163 743,-163"/>
<text text-anchor="start" x="751" y="-181" font-family="Helvetica,sans-Serif" font-size="10.00">fwData::location::enable</text>
<text text-anchor="middle" x="804" y="-170" font-family="Helvetica,sans-Serif" font-size="10.00">Folder&lt; RW &gt;</text>
</a>
</g>
</g>
<!-- Node8&#45;&gt;Node7 -->
<g id="edge8" class="edge"><title>Node8&#45;&gt;Node7</title>
<path fill="none" stroke="orange" stroke-dasharray="5,2" d="M875.48,-178C926.176,-178 994.089,-178 1043.78,-178"/>
<polygon fill="orange" stroke="orange" points="875.258,-174.5 865.258,-178 875.258,-181.5 875.258,-174.5"/>
<text text-anchor="start" x="912" y="-192" font-family="Helvetica,sans-Serif" font-size="10.00"> &lt; ::fwDataIO::reader</text>
<text text-anchor="middle" x="959" y="-181" font-family="Helvetica,sans-Serif" font-size="10.00">::IObjectReader &gt;</text>
</g>
<!-- Node9 -->
<g id="node9" class="node"><title>Node9</title>
<g id="a_node9"><a xlink:href="structfwData_1_1location_1_1enableMultiFiles.html" target="_top" xlink:title="fwData::location::enable\lMultiFiles\&lt; ::fwDataIO\l::reader::IObjectReader \&gt;">
<polygon fill="white" stroke="black" points="1047,-97.5 1047,-138.5 1175,-138.5 1175,-97.5 1047,-97.5"/>
<text text-anchor="start" x="1055" y="-126.5" font-family="Helvetica,sans-Serif" font-size="10.00">fwData::location::enable</text>
<text text-anchor="start" x="1055" y="-115.5" font-family="Helvetica,sans-Serif" font-size="10.00">MultiFiles&lt; ::fwDataIO</text>
<text text-anchor="middle" x="1111" y="-104.5" font-family="Helvetica,sans-Serif" font-size="10.00">::reader::IObjectReader &gt;</text>
</a>
</g>
</g>
<!-- Node9&#45;&gt;Node1 -->
<g id="edge9" class="edge"><title>Node9&#45;&gt;Node1</title>
<path fill="none" stroke="midnightblue" d="M1185.38,-130.23C1201.91,-132.985 1219.21,-135.869 1234.95,-138.492"/>
<polygon fill="midnightblue" stroke="midnightblue" points="1185.65,-126.726 1175.21,-128.535 1184.5,-133.631 1185.65,-126.726"/>
</g>
<!-- Node10 -->
<g id="node10" class="node"><title>Node10</title>
<g id="a_node10"><a xlink:href="structfwData_1_1location_1_1enableMultiFiles.html" target="_top" xlink:title="This class is derived by reader/writer. ">
<polygon fill="white" stroke="black" points="743,-103 743,-133 865,-133 865,-103 743,-103"/>
<text text-anchor="start" x="751" y="-121" font-family="Helvetica,sans-Serif" font-size="10.00">fwData::location::enable</text>
<text text-anchor="middle" x="804" y="-110" font-family="Helvetica,sans-Serif" font-size="10.00">MultiFiles&lt; RW &gt;</text>
</a>
</g>
</g>
<!-- Node10&#45;&gt;Node9 -->
<g id="edge10" class="edge"><title>Node10&#45;&gt;Node9</title>
<path fill="none" stroke="orange" stroke-dasharray="5,2" d="M875.368,-118C927.172,-118 996.999,-118 1046.98,-118"/>
<polygon fill="orange" stroke="orange" points="875.258,-114.5 865.258,-118 875.258,-121.5 875.258,-114.5"/>
<text text-anchor="start" x="912" y="-132" font-family="Helvetica,sans-Serif" font-size="10.00"> &lt; ::fwDataIO::reader</text>
<text text-anchor="middle" x="959" y="-121" font-family="Helvetica,sans-Serif" font-size="10.00">::IObjectReader &gt;</text>
</g>
<!-- Node11 -->
<g id="node11" class="node"><title>Node11</title>
<g id="a_node11"><a xlink:href="classfwCom_1_1HasSignals.html" target="_top" xlink:title="This class proposes a mapping between a SignalKeyType and a SignalBase. ">
<polygon fill="white" stroke="black" points="1059,-59.5 1059,-78.5 1163,-78.5 1163,-59.5 1059,-59.5"/>
<text text-anchor="middle" x="1111" y="-66.5" font-family="Helvetica,sans-Serif" font-size="10.00">fwCom::HasSignals</text>
</a>
</g>
</g>
<!-- Node11&#45;&gt;Node1 -->
<g id="edge11" class="edge"><title>Node11&#45;&gt;Node1</title>
<path fill="none" stroke="midnightblue" d="M1163.48,-81.4851C1169.8,-83.4502 1176.1,-85.6268 1182,-88 1217.73,-102.36 1256.63,-125.545 1277.25,-138.488"/>
<polygon fill="midnightblue" stroke="midnightblue" points="1164.2,-78.0462 1153.62,-78.5732 1162.22,-84.7601 1164.2,-78.0462"/>
</g>
<!-- Node12 -->
<g id="node12" class="node"><title>Node12</title>
<g id="a_node12"><a xlink:href="classfwCom_1_1Signals.html" target="_top" xlink:title="This class proposes a mapping between a SignalKeyType and a SignalBase. ">
<polygon fill="white" stroke="black" points="761,-59.5 761,-78.5 847,-78.5 847,-59.5 761,-59.5"/>
<text text-anchor="middle" x="804" y="-66.5" font-family="Helvetica,sans-Serif" font-size="10.00">fwCom::Signals</text>
</a>
</g>
</g>
<!-- Node12&#45;&gt;Node11 -->
<g id="edge12" class="edge"><title>Node12&#45;&gt;Node11</title>
<path fill="none" stroke="#9a32cd" stroke-dasharray="5,2" d="M857.227,-69C913.654,-69 1002.98,-69 1058.95,-69"/>
<polygon fill="#9a32cd" stroke="#9a32cd" points="857.089,-65.5001 847.089,-69 857.089,-72.5001 857.089,-65.5001"/>
<text text-anchor="middle" x="959" y="-72" font-family="Helvetica,sans-Serif" font-size="10.00"> m_signals</text>
</g>
<!-- Node13 -->
<g id="node13" class="node"><title>Node13</title>
<polygon fill="white" stroke="#bfbfbf" points="484.5,-54 484.5,-84 645.5,-84 645.5,-54 484.5,-54"/>
<text text-anchor="start" x="492.5" y="-72" font-family="Helvetica,sans-Serif" font-size="10.00">std::map&lt; SignalKeyType,</text>
<text text-anchor="middle" x="565" y="-61" font-family="Helvetica,sans-Serif" font-size="10.00"> std::shared_ptr&lt; SignalBase &gt; &gt;</text>
</g>
<!-- Node13&#45;&gt;Node12 -->
<g id="edge13" class="edge"><title>Node13&#45;&gt;Node12</title>
<path fill="none" stroke="#9a32cd" stroke-dasharray="5,2" d="M655.652,-69C691.774,-69 731.705,-69 760.876,-69"/>
<polygon fill="#9a32cd" stroke="#9a32cd" points="655.577,-65.5001 645.577,-69 655.577,-72.5001 655.577,-65.5001"/>
<text text-anchor="middle" x="688" y="-72" font-family="Helvetica,sans-Serif" font-size="10.00"> m_signals</text>
</g>
<!-- Node14 -->
<g id="node14" class="node"><title>Node14</title>
<g id="a_node14"><a xlink:title="STL class. ">
<polygon fill="white" stroke="#bfbfbf" points="235,-82.5 235,-101.5 295,-101.5 295,-82.5 235,-82.5"/>
<text text-anchor="middle" x="265" y="-89.5" font-family="Helvetica,sans-Serif" font-size="10.00">std::string</text>
</a>
</g>
</g>
<!-- Node14&#45;&gt;Node13 -->
<g id="edge14" class="edge"><title>Node14&#45;&gt;Node13</title>
<path fill="none" stroke="#9a32cd" stroke-dasharray="5,2" d="M305.132,-88.9797C350.471,-85.4805 426.354,-79.6237 484.274,-75.1534"/>
<polygon fill="#9a32cd" stroke="#9a32cd" points="304.817,-85.4935 295.116,-89.7528 305.356,-92.4728 304.817,-85.4935"/>
<text text-anchor="middle" x="401" y="-90" font-family="Helvetica,sans-Serif" font-size="10.00"> keys</text>
</g>
<!-- Node15 -->
<g id="node15" class="node"><title>Node15</title>
<g id="a_node15"><a xlink:title="STL class. ">
<polygon fill="white" stroke="#bfbfbf" points="18.5,-77 18.5,-107 113.5,-107 113.5,-77 18.5,-77"/>
<text text-anchor="start" x="26.5" y="-95" font-family="Helvetica,sans-Serif" font-size="10.00">std::basic_string&lt;</text>
<text text-anchor="middle" x="66" y="-84" font-family="Helvetica,sans-Serif" font-size="10.00"> char &gt;</text>
</a>
</g>
</g>
<!-- Node15&#45;&gt;Node14 -->
<g id="edge15" class="edge"><title>Node15&#45;&gt;Node14</title>
<path fill="none" stroke="midnightblue" d="M124.122,-92C160.345,-92 205.693,-92 234.756,-92"/>
<polygon fill="midnightblue" stroke="midnightblue" points="123.686,-88.5001 113.686,-92 123.686,-95.5001 123.686,-88.5001"/>
</g>
<!-- Node16 -->
<g id="node16" class="node"><title>Node16</title>
<g id="a_node16"><a xlink:title="STL class. ">
<polygon fill="white" stroke="#bfbfbf" points="219,-37.5 219,-56.5 311,-56.5 311,-37.5 219,-37.5"/>
<text text-anchor="middle" x="265" y="-44.5" font-family="Helvetica,sans-Serif" font-size="10.00">std::map&lt; K, T &gt;</text>
</a>
</g>
</g>
<!-- Node16&#45;&gt;Node13 -->
<g id="edge16" class="edge"><title>Node16&#45;&gt;Node13</title>
<path fill="none" stroke="orange" stroke-dasharray="5,2" d="M321.173,-44.2335C361.434,-42.954 417.255,-42.7126 466,-48 478.196,-49.3228 491.106,-51.5097 503.414,-53.9844"/>
<polygon fill="orange" stroke="orange" points="320.9,-40.7409 311.028,-44.5883 321.145,-47.7366 320.9,-40.7409"/>
<text text-anchor="start" x="336.5" y="-62" font-family="Helvetica,sans-Serif" font-size="10.00"> &lt; SignalKeyType, std</text>
<text text-anchor="middle" x="401" y="-51" font-family="Helvetica,sans-Serif" font-size="10.00">::shared_ptr&lt; SignalBase &gt; &gt;</text>
</g>
<!-- Node17 -->
<g id="node17" class="node"><title>Node17</title>
<polygon fill="white" stroke="#bfbfbf" points="51.5,-38.5 51.5,-57.5 80.5,-57.5 80.5,-38.5 51.5,-38.5"/>
<text text-anchor="middle" x="66" y="-45.5" font-family="Helvetica,sans-Serif" font-size="10.00">K</text>
</g>
<!-- Node17&#45;&gt;Node16 -->
<g id="edge17" class="edge"><title>Node17&#45;&gt;Node16</title>
<path fill="none" stroke="#9a32cd" stroke-dasharray="5,2" d="M90.6103,-47.8802C122.236,-47.7196 178.994,-47.4315 218.937,-47.2287"/>
<polygon fill="#9a32cd" stroke="#9a32cd" points="90.5227,-44.3805 80.5406,-47.9313 90.5583,-51.3804 90.5227,-44.3805"/>
<text text-anchor="middle" x="172" y="-51" font-family="Helvetica,sans-Serif" font-size="10.00"> keys</text>
</g>
<!-- Node18 -->
<g id="node18" class="node"><title>Node18</title>
<polygon fill="white" stroke="#bfbfbf" points="51.5,-0.5 51.5,-19.5 80.5,-19.5 80.5,-0.5 51.5,-0.5"/>
<text text-anchor="middle" x="66" y="-7.5" font-family="Helvetica,sans-Serif" font-size="10.00">T</text>
</g>
<!-- Node18&#45;&gt;Node16 -->
<g id="edge18" class="edge"><title>Node18&#45;&gt;Node16</title>
<path fill="none" stroke="#9a32cd" stroke-dasharray="5,2" d="M90.6061,-14.1424C116.125,-18.6515 157.984,-26.1377 194,-33 202.035,-34.531 210.58,-36.2031 218.837,-37.8418"/>
<polygon fill="#9a32cd" stroke="#9a32cd" points="91.1901,-10.6915 80.7343,-12.4027 89.9751,-17.5852 91.1901,-10.6915"/>
<text text-anchor="middle" x="172" y="-36" font-family="Helvetica,sans-Serif" font-size="10.00"> elements</text>
</g>
</g>
</svg>
