<?xml version="1.0" encoding="UTF-8" standalone="no"?>
<!DOCTYPE svg PUBLIC "-//W3C//DTD SVG 1.1//EN"
 "http://www.w3.org/Graphics/SVG/1.1/DTD/svg11.dtd">
<!-- Generated by graphviz version 2.26.3 (20100126.1600)
 -->
<!-- Title: uiMeasurement::action::AddLandmark::updating Pages: 1 -->
<svg width="688pt" height="318pt"
 viewBox="0.00 0.00 688.00 318.00" xmlns="http://www.w3.org/2000/svg" xmlns:xlink="http://www.w3.org/1999/xlink">
<g id="graph1" class="graph" transform="scale(1 1) rotate(0) translate(4 314)">
<title>uiMeasurement::action::AddLandmark::updating</title>
<polygon fill="white" stroke="white" points="-4,5 -4,-314 685,-314 685,5 -4,5"/>
<!-- Node1 -->
<g id="node1" class="node"><title>Node1</title>
<polygon fill="#bfbfbf" stroke="black" points="0.5,-137 0.5,-171 125.5,-171 125.5,-137 0.5,-137"/>
<text text-anchor="start" x="8.5" y="-158" font-family="Helvetica,sans-Serif" font-size="10.00">uiMeasurement::action</text>
<text text-anchor="middle" x="63" y="-145" font-family="Helvetica,sans-Serif" font-size="10.00">::AddLandmark::updating</text>
</g>
<!-- Node2 -->
<g id="node3" class="node"><title>Node2</title>
<a xlink:href="classfwDataTools_1_1fieldHelper_1_1MedicalImageHelpers.html#a1aa6e7bebb9f96a8e60a14aecc352e99" target="_top" xlink:title="Check if the image is valid. ">
<polygon fill="white" stroke="black" points="173.5,-262.5 173.5,-309.5 298.5,-309.5 298.5,-262.5 173.5,-262.5"/>
<text text-anchor="start" x="181.5" y="-296.5" font-family="Helvetica,sans-Serif" font-size="10.00">fwDataTools::fieldHelper</text>
<text text-anchor="start" x="181.5" y="-283.5" font-family="Helvetica,sans-Serif" font-size="10.00">::MedicalImageHelpers::</text>
<text text-anchor="middle" x="236" y="-270.5" font-family="Helvetica,sans-Serif" font-size="10.00">checkImageValidity</text>
</a>
</g>
<!-- Node1&#45;&gt;Node2 -->
<g id="edge2" class="edge"><title>Node1&#45;&gt;Node2</title>
<path fill="none" stroke="midnightblue" d="M76.8553,-171.33C94.7035,-192.763 127.552,-229.31 162,-253 164.13,-254.465 166.335,-255.889 168.594,-257.272"/>
<polygon fill="midnightblue" stroke="midnightblue" points="167.111,-260.455 177.527,-262.392 170.591,-254.382 167.111,-260.455"/>
</g>
<!-- Node3 -->
<g id="node5" class="node"><title>Node3</title>
<a xlink:href="classfwDataTools_1_1fieldHelper_1_1MedicalImageHelpers.html#a315c7656877930a35628ecb2ccee83ad" target="_top" xlink:title="Check if the image has a landmark field. ">
<polygon fill="white" stroke="black" points="173.5,-196.5 173.5,-243.5 298.5,-243.5 298.5,-196.5 173.5,-196.5"/>
<text text-anchor="start" x="181.5" y="-230.5" font-family="Helvetica,sans-Serif" font-size="10.00">fwDataTools::fieldHelper</text>
<text text-anchor="start" x="181.5" y="-217.5" font-family="Helvetica,sans-Serif" font-size="10.00">::MedicalImageHelpers::</text>
<text text-anchor="middle" x="236" y="-204.5" font-family="Helvetica,sans-Serif" font-size="10.00">checkLandmarks</text>
</a>
</g>
<!-- Node1&#45;&gt;Node3 -->
<g id="edge4" class="edge"><title>Node1&#45;&gt;Node3</title>
<path fill="none" stroke="midnightblue" d="M108.002,-171.168C125.382,-177.799 145.69,-185.546 164.943,-192.892"/>
<polygon fill="midnightblue" stroke="midnightblue" points="163.702,-196.164 174.293,-196.459 166.197,-189.624 163.702,-196.164"/>
</g>
<!-- Node4 -->
<g id="node7" class="node"><title>Node4</title>
<a xlink:href="classfwDataTools_1_1fieldHelper_1_1MedicalImageHelpers.html#abac9755ba40b0218f4a7f7d158ae9b51" target="_top" xlink:title="Get the X,Y,Z slice position. ">
<polygon fill="white" stroke="black" points="173.5,-130.5 173.5,-177.5 298.5,-177.5 298.5,-130.5 173.5,-130.5"/>
<text text-anchor="start" x="181.5" y="-164.5" font-family="Helvetica,sans-Serif" font-size="10.00">fwDataTools::fieldHelper</text>
<text text-anchor="start" x="181.5" y="-151.5" font-family="Helvetica,sans-Serif" font-size="10.00">::MedicalImageHelpers::</text>
<text text-anchor="middle" x="236" y="-138.5" font-family="Helvetica,sans-Serif" font-size="10.00">getImageSliceIndices</text>
</a>
</g>
<!-- Node1&#45;&gt;Node4 -->
<g id="edge6" class="edge"><title>Node1&#45;&gt;Node4</title>
<path fill="none" stroke="midnightblue" d="M125.946,-154C138.023,-154 150.762,-154 163.121,-154"/>
<polygon fill="midnightblue" stroke="midnightblue" points="163.39,-157.5 173.39,-154 163.39,-150.5 163.39,-157.5"/>
</g>
<!-- Node7 -->
<g id="node13" class="node"><title>Node7</title>
<a xlink:href="classfwServices_1_1IService.html#ac0ac1a469b4be20ba958fa08996cd662" target="_top" xlink:title="Streaming a service. ">
<polygon fill="white" stroke="black" points="182.5,-78 182.5,-112 289.5,-112 289.5,-78 182.5,-78"/>
<text text-anchor="start" x="190.5" y="-99" font-family="Helvetica,sans-Serif" font-size="10.00">fwServices::IService</text>
<text text-anchor="middle" x="236" y="-86" font-family="Helvetica,sans-Serif" font-size="10.00">::isVersion2</text>
</a>
</g>
<!-- Node1&#45;&gt;Node7 -->
<g id="edge12" class="edge"><title>Node1&#45;&gt;Node7</title>
<path fill="none" stroke="midnightblue" d="M113.039,-136.935C132.853,-130.177 155.791,-122.354 176.451,-115.309"/>
<polygon fill="midnightblue" stroke="midnightblue" points="177.739,-118.567 186.074,-112.027 175.479,-111.942 177.739,-118.567"/>
</g>
<!-- Node8 -->
<g id="node15" class="node"><title>Node8</title>
<a xlink:href="classfwGui_1_1dialog_1_1MessageDialog.html#a8c59f4f1a8cd0319757d9207af8105bf" target="_top" xlink:title="fwGui::dialog::MessageDialog\l::showMessageDialog">
<polygon fill="white" stroke="black" points="162.5,-26 162.5,-60 309.5,-60 309.5,-26 162.5,-26"/>
<text text-anchor="start" x="170.5" y="-47" font-family="Helvetica,sans-Serif" font-size="10.00">fwGui::dialog::MessageDialog</text>
<text text-anchor="middle" x="236" y="-34" font-family="Helvetica,sans-Serif" font-size="10.00">::showMessageDialog</text>
</a>
</g>
<!-- Node1&#45;&gt;Node8 -->
<g id="edge14" class="edge"><title>Node1&#45;&gt;Node8</title>
<path fill="none" stroke="midnightblue" d="M79.0298,-136.842C97.4759,-117.962 129.435,-87.8046 162,-69 164.83,-67.3657 167.78,-65.8094 170.802,-64.3307"/>
<polygon fill="midnightblue" stroke="midnightblue" points="172.387,-67.4551 180.039,-60.1274 169.488,-61.0837 172.387,-67.4551"/>
</g>
<!-- Node5 -->
<g id="node9" class="node"><title>Node5</title>
<a xlink:href="classfwDataTools_1_1fieldHelper_1_1MedicalImageHelpers.html#a79b9d580bb99d0061a1f2d5f44947aa6" target="_top" xlink:title="Check if the image has slice index fields. ">
<polygon fill="white" stroke="black" points="357.5,-130.5 357.5,-177.5 482.5,-177.5 482.5,-130.5 357.5,-130.5"/>
<text text-anchor="start" x="365.5" y="-164.5" font-family="Helvetica,sans-Serif" font-size="10.00">fwDataTools::fieldHelper</text>
<text text-anchor="start" x="365.5" y="-151.5" font-family="Helvetica,sans-Serif" font-size="10.00">::MedicalImageHelpers::</text>
<text text-anchor="middle" x="420" y="-138.5" font-family="Helvetica,sans-Serif" font-size="10.00">checkImageSliceIndex</text>
</a>
</g>
<!-- Node4&#45;&gt;Node5 -->
<g id="edge8" class="edge"><title>Node4&#45;&gt;Node5</title>
<path fill="none" stroke="midnightblue" d="M298.551,-154C314.105,-154 330.915,-154 346.925,-154"/>
<polygon fill="midnightblue" stroke="midnightblue" points="347.31,-157.5 357.31,-154 347.31,-150.5 347.31,-157.5"/>
</g>
<!-- Node6 -->
<g id="node11" class="node"><title>Node6</title>
<a xlink:href="classfwData_1_1Object.html#aae27dde59033498f834b888b0f19488d" target="_top" xlink:title="Returns a pointer of corresponding field (null if non exist). ">
<polygon fill="white" stroke="black" points="543.5,-143.5 543.5,-164.5 666.5,-164.5 666.5,-143.5 543.5,-143.5"/>
<text text-anchor="middle" x="605" y="-151.5" font-family="Helvetica,sans-Serif" font-size="10.00">fwData::Object::getField</text>
</a>
</g>
<!-- Node5&#45;&gt;Node6 -->
<g id="edge10" class="edge"><title>Node5&#45;&gt;Node6</title>
<path fill="none" stroke="midnightblue" d="M482.633,-154C498.866,-154 516.473,-154 533.139,-154"/>
<polygon fill="midnightblue" stroke="midnightblue" points="533.374,-157.5 543.374,-154 533.374,-150.5 533.374,-157.5"/>
</g>
<!-- Node9 -->
<g id="node17" class="node"><title>Node9</title>
<a xlink:href="classfwGui_1_1dialog_1_1MessageDialog.html#a7200cf2111a64af4a0c02bfb26fec8dc" target="_top" xlink:title="Add a button (OK, YES_NO, YES, NO, CANCEL) ">
<polygon fill="white" stroke="black" points="346.5,-52 346.5,-86 493.5,-86 493.5,-52 346.5,-52"/>
<text text-anchor="start" x="354.5" y="-73" font-family="Helvetica,sans-Serif" font-size="10.00">fwGui::dialog::MessageDialog</text>
<text text-anchor="middle" x="420" y="-60" font-family="Helvetica,sans-Serif" font-size="10.00">::addButton</text>
</a>
</g>
<!-- Node8&#45;&gt;Node9 -->
<g id="edge16" class="edge"><title>Node8&#45;&gt;Node9</title>
<path fill="none" stroke="midnightblue" d="M309.515,-53.388C318.315,-54.6315 327.351,-55.9082 336.281,-57.1702"/>
<polygon fill="midnightblue" stroke="midnightblue" points="335.91,-60.6524 346.302,-58.5861 336.89,-53.7213 335.91,-60.6524"/>
</g>
<!-- Node10 -->
<g id="node19" class="node"><title>Node10</title>
<a xlink:href="classfwGui_1_1dialog_1_1MessageDialog.html#a6d638d48bf997624e8483616a7e0c3f7" target="_top" xlink:title="Show the message box and return the clicked button. ">
<polygon fill="white" stroke="black" points="346.5,-0 346.5,-34 493.5,-34 493.5,-0 346.5,-0"/>
<text text-anchor="start" x="354.5" y="-21" font-family="Helvetica,sans-Serif" font-size="10.00">fwGui::dialog::MessageDialog</text>
<text text-anchor="middle" x="420" y="-8" font-family="Helvetica,sans-Serif" font-size="10.00">::show</text>
</a>
</g>
<!-- Node8&#45;&gt;Node10 -->
<g id="edge18" class="edge"><title>Node8&#45;&gt;Node10</title>
<path fill="none" stroke="midnightblue" d="M309.515,-32.612C318.315,-31.3685 327.351,-30.0918 336.281,-28.8298"/>
<polygon fill="midnightblue" stroke="midnightblue" points="336.89,-32.2787 346.302,-27.4139 335.91,-25.3476 336.89,-32.2787"/>
</g>
<!-- Node11 -->
<g id="node21" class="node"><title>Node11</title>
<a xlink:href="classfwGui_1_1dialog_1_1IMessageDialog.html#a3aafce0bcfa0fa0da4b5114ff798ddd7" target="_top" xlink:title="Show the message box and return the clicked button. ">
<polygon fill="white" stroke="black" points="530,-0 530,-34 680,-34 680,-0 530,-0"/>
<text text-anchor="start" x="538" y="-21" font-family="Helvetica,sans-Serif" font-size="10.00">fwGui::dialog::IMessageDialog</text>
<text text-anchor="middle" x="605" y="-8" font-family="Helvetica,sans-Serif" font-size="10.00">::show</text>
</a>
</g>
<!-- Node10&#45;&gt;Node11 -->
<g id="edge20" class="edge"><title>Node10&#45;&gt;Node11</title>
<path fill="none" stroke="midnightblue" d="M493.648,-17C502.194,-17 510.965,-17 519.65,-17"/>
<polygon fill="midnightblue" stroke="midnightblue" points="519.789,-20.5001 529.789,-17 519.789,-13.5001 519.789,-20.5001"/>
</g>
</g>
</svg>
