<?xml version="1.0" encoding="UTF-8" standalone="no"?>
<!DOCTYPE svg PUBLIC "-//W3C//DTD SVG 1.1//EN"
 "http://www.w3.org/Graphics/SVG/1.1/DTD/svg11.dtd">
<!-- Generated by graphviz version 2.26.3 (20100126.1600)
 -->
<!-- Title: uiImage::WindowLevel Pages: 1 -->
<svg width="428pt" height="406pt"
 viewBox="0.00 0.00 428.00 406.00" xmlns="http://www.w3.org/2000/svg" xmlns:xlink="http://www.w3.org/1999/xlink">
<g id="graph1" class="graph" transform="scale(1 1) rotate(0) translate(4 402)">
<title>uiImage::WindowLevel</title>
<polygon fill="white" stroke="white" points="-4,5 -4,-402 425,-402 425,5 -4,5"/>
<!-- Node1 -->
<g id="node1" class="node"><title>Node1</title>
<polygon fill="#bfbfbf" stroke="black" points="70,-0.5 70,-21.5 186,-21.5 186,-0.5 70,-0.5"/>
<text text-anchor="middle" x="128" y="-8.5" font-family="Helvetica,sans-Serif" font-size="10.00">uiImage::WindowLevel</text>
</g>
<!-- Node2 -->
<g id="node2" class="node"><title>Node2</title>
<polygon fill="white" stroke="#bfbfbf" points="-0.5,-65.5 -0.5,-86.5 52.5,-86.5 52.5,-65.5 -0.5,-65.5"/>
<text text-anchor="middle" x="26" y="-73.5" font-family="Helvetica,sans-Serif" font-size="10.00">QObject</text>
</g>
<!-- Node2&#45;&gt;Node1 -->
<g id="edge2" class="edge"><title>Node2&#45;&gt;Node1</title>
<path fill="none" stroke="midnightblue" d="M51.4938,-59.754C70.2646,-47.7922 95.2433,-31.8743 111.47,-21.5337"/>
<polygon fill="midnightblue" stroke="midnightblue" points="49.3955,-56.9408 42.8432,-65.2666 53.1574,-62.8441 49.3955,-56.9408"/>
</g>
<!-- Node3 -->
<g id="node4" class="node"><title>Node3</title>
<a xlink:href="classfwDataTools_1_1helper_1_1MedicalImageAdaptor.html" target="_top" xlink:title="Helpers for medical image. ">
<polygon fill="white" stroke="black" points="69.5,-59 69.5,-93 186.5,-93 186.5,-59 69.5,-59"/>
<text text-anchor="start" x="77.5" y="-80" font-family="Helvetica,sans-Serif" font-size="10.00">fwDataTools::helper</text>
<text text-anchor="middle" x="128" y="-67" font-family="Helvetica,sans-Serif" font-size="10.00">::MedicalImageAdaptor</text>
</a>
</g>
<!-- Node3&#45;&gt;Node1 -->
<g id="edge4" class="edge"><title>Node3&#45;&gt;Node1</title>
<path fill="none" stroke="midnightblue" d="M128,-48.6879C128,-39.2415 128,-29.1949 128,-21.8521"/>
<polygon fill="midnightblue" stroke="midnightblue" points="124.5,-48.922 128,-58.922 131.5,-48.922 124.5,-48.922"/>
</g>
<!-- Node4 -->
<g id="node6" class="node"><title>Node4</title>
<a xlink:href="classgui_1_1editor_1_1IEditor.html" target="_top" xlink:title="Defines the service interface managing the editor service for object. ">
<polygon fill="white" stroke="black" points="204,-65.5 204,-86.5 298,-86.5 298,-65.5 204,-65.5"/>
<text text-anchor="middle" x="251" y="-73.5" font-family="Helvetica,sans-Serif" font-size="10.00">gui::editor::IEditor</text>
</a>
</g>
<!-- Node4&#45;&gt;Node1 -->
<g id="edge6" class="edge"><title>Node4&#45;&gt;Node1</title>
<path fill="none" stroke="midnightblue" d="M222.076,-60.7148C199.293,-48.6754 168.127,-32.2053 148.027,-21.5835"/>
<polygon fill="midnightblue" stroke="midnightblue" points="220.487,-63.8341 230.964,-65.412 223.758,-57.6452 220.487,-63.8341"/>
</g>
<!-- Node5 -->
<g id="node8" class="node"><title>Node5</title>
<a xlink:href="classfwGui_1_1IGuiContainerSrv.html" target="_top" xlink:title="Defines the service interface managing the layout. ">
<polygon fill="white" stroke="black" points="189.5,-130.5 189.5,-151.5 312.5,-151.5 312.5,-130.5 189.5,-130.5"/>
<text text-anchor="middle" x="251" y="-138.5" font-family="Helvetica,sans-Serif" font-size="10.00">fwGui::IGuiContainerSrv</text>
</a>
</g>
<!-- Node5&#45;&gt;Node4 -->
<g id="edge8" class="edge"><title>Node5&#45;&gt;Node4</title>
<path fill="none" stroke="midnightblue" d="M251,-120.014C251,-108.831 251,-95.5583 251,-86.5337"/>
<polygon fill="midnightblue" stroke="midnightblue" points="247.5,-120.267 251,-130.267 254.5,-120.267 247.5,-120.267"/>
</g>
<!-- Node6 -->
<g id="node10" class="node"><title>Node6</title>
<a xlink:href="classfwServices_1_1IService.html" target="_top" xlink:title="Base class for all services. ">
<polygon fill="white" stroke="black" points="197.5,-188.5 197.5,-209.5 304.5,-209.5 304.5,-188.5 197.5,-188.5"/>
<text text-anchor="middle" x="251" y="-196.5" font-family="Helvetica,sans-Serif" font-size="10.00">fwServices::IService</text>
</a>
</g>
<!-- Node6&#45;&gt;Node5 -->
<g id="edge10" class="edge"><title>Node6&#45;&gt;Node5</title>
<path fill="none" stroke="midnightblue" d="M251,-178.191C251,-169.168 251,-158.994 251,-151.571"/>
<polygon fill="midnightblue" stroke="midnightblue" points="247.5,-178.362 251,-188.362 254.5,-178.362 247.5,-178.362"/>
</g>
<!-- Node7 -->
<g id="node12" class="node"><title>Node7</title>
<a xlink:href="classfwTools_1_1Object.html" target="_top" xlink:title="Define Base class for FW4SPL objects and services. ">
<polygon fill="white" stroke="black" points="100,-246.5 100,-267.5 186,-267.5 186,-246.5 100,-246.5"/>
<text text-anchor="middle" x="143" y="-254.5" font-family="Helvetica,sans-Serif" font-size="10.00">fwTools::Object</text>
</a>
</g>
<!-- Node7&#45;&gt;Node6 -->
<g id="edge12" class="edge"><title>Node7&#45;&gt;Node6</title>
<path fill="none" stroke="midnightblue" d="M171.572,-241.656C190.378,-231.556 214.517,-218.593 231.223,-209.621"/>
<polygon fill="midnightblue" stroke="midnightblue" points="169.712,-238.682 162.558,-246.497 173.024,-244.849 169.712,-238.682"/>
</g>
<!-- Node8 -->
<g id="node14" class="node"><title>Node8</title>
<a xlink:href="classfwCore_1_1BaseObject.html" target="_top" xlink:title="Base class for all FW4SPL&#39;s classes. ">
<polygon fill="white" stroke="black" points="36.5,-304.5 36.5,-325.5 141.5,-325.5 141.5,-304.5 36.5,-304.5"/>
<text text-anchor="middle" x="89" y="-312.5" font-family="Helvetica,sans-Serif" font-size="10.00">fwCore::BaseObject</text>
</a>
</g>
<!-- Node8&#45;&gt;Node7 -->
<g id="edge14" class="edge"><title>Node8&#45;&gt;Node7</title>
<path fill="none" stroke="midnightblue" d="M105.917,-296.83C114.875,-287.208 125.563,-275.728 133.158,-267.571"/>
<polygon fill="midnightblue" stroke="midnightblue" points="103.157,-294.658 98.9044,-304.362 108.28,-299.428 103.157,-294.658"/>
</g>
<!-- Node9 -->
<g id="node16" class="node"><title>Node9</title>
<polygon fill="white" stroke="#bfbfbf" points="23.5,-363 23.5,-397 154.5,-397 154.5,-363 23.5,-363"/>
<text text-anchor="start" x="31.5" y="-384" font-family="Helvetica,sans-Serif" font-size="10.00">std::enable_shared</text>
<text text-anchor="middle" x="89" y="-371" font-family="Helvetica,sans-Serif" font-size="10.00">_from_this&lt; BaseObject &gt;</text>
</g>
<!-- Node9&#45;&gt;Node8 -->
<g id="edge16" class="edge"><title>Node9&#45;&gt;Node8</title>
<path fill="none" stroke="midnightblue" d="M89,-352.688C89,-343.242 89,-333.195 89,-325.852"/>
<polygon fill="midnightblue" stroke="midnightblue" points="85.5001,-352.922 89,-362.922 92.5001,-352.922 85.5001,-352.922"/>
</g>
<!-- Node10 -->
<g id="node18" class="node"><title>Node10</title>
<a xlink:href="classfwTools_1_1fwID.html" target="_top" xlink:title="Defines ID for fwTools::Object. It is used to associate ID with object. ">
<polygon fill="white" stroke="black" points="159,-304.5 159,-325.5 237,-325.5 237,-304.5 159,-304.5"/>
<text text-anchor="middle" x="198" y="-312.5" font-family="Helvetica,sans-Serif" font-size="10.00">fwTools::fwID</text>
</a>
</g>
<!-- Node10&#45;&gt;Node7 -->
<g id="edge18" class="edge"><title>Node10&#45;&gt;Node7</title>
<path fill="none" stroke="darkgreen" d="M180.77,-296.83C171.645,-287.208 160.76,-275.728 153.024,-267.571"/>
<polygon fill="darkgreen" stroke="darkgreen" points="178.492,-299.514 187.912,-304.362 183.571,-294.697 178.492,-299.514"/>
</g>
<!-- Node11 -->
<g id="node20" class="node"><title>Node11</title>
<a xlink:href="classfwCom_1_1HasSlots.html" target="_top" xlink:title="This class proposes a mapping between a SlotKeyType and a SlotBase. ">
<polygon fill="white" stroke="black" points="203.5,-246.5 203.5,-267.5 298.5,-267.5 298.5,-246.5 203.5,-246.5"/>
<text text-anchor="middle" x="251" y="-254.5" font-family="Helvetica,sans-Serif" font-size="10.00">fwCom::HasSlots</text>
</a>
</g>
<!-- Node11&#45;&gt;Node6 -->
<g id="edge20" class="edge"><title>Node11&#45;&gt;Node6</title>
<path fill="none" stroke="midnightblue" d="M251,-236.191C251,-227.168 251,-216.994 251,-209.571"/>
<polygon fill="midnightblue" stroke="midnightblue" points="247.5,-236.362 251,-246.362 254.5,-236.362 247.5,-236.362"/>
</g>
<!-- Node12 -->
<g id="node22" class="node"><title>Node12</title>
<a xlink:href="classfwCom_1_1HasSignals.html" target="_top" xlink:title="This class proposes a mapping between a SignalKeyType and a SignalBase. ">
<polygon fill="white" stroke="black" points="316,-246.5 316,-267.5 420,-267.5 420,-246.5 316,-246.5"/>
<text text-anchor="middle" x="368" y="-254.5" font-family="Helvetica,sans-Serif" font-size="10.00">fwCom::HasSignals</text>
</a>
</g>
<!-- Node12&#45;&gt;Node6 -->
<g id="edge22" class="edge"><title>Node12&#45;&gt;Node6</title>
<path fill="none" stroke="midnightblue" d="M337.604,-241.932C317.152,-231.793 290.689,-218.675 272.426,-209.621"/>
<polygon fill="midnightblue" stroke="midnightblue" points="336.298,-245.191 346.812,-246.497 339.407,-238.919 336.298,-245.191"/>
</g>
</g>
</svg>
