<?xml version="1.0" encoding="UTF-8" standalone="no"?>
<!DOCTYPE svg PUBLIC "-//W3C//DTD SVG 1.1//EN"
 "http://www.w3.org/Graphics/SVG/1.1/DTD/svg11.dtd">
<!-- Generated by graphviz version 2.36.0 (20140111.2315)
 -->
<!-- Title: ioVTK::SSeriesDBReader::configureWithIHM Pages: 1 -->
<svg width="682pt" height="437pt"
 viewBox="0.00 0.00 682.00 437.00" xmlns="http://www.w3.org/2000/svg" xmlns:xlink="http://www.w3.org/1999/xlink">
<g id="graph0" class="graph" transform="scale(1 1) rotate(0) translate(4 433)">
<title>ioVTK::SSeriesDBReader::configureWithIHM</title>
<polygon fill="white" stroke="none" points="-4,4 -4,-433 678,-433 678,4 -4,4"/>
<!-- Node1 -->
<g id="node1" class="node"><title>Node1</title>
<polygon fill="#bfbfbf" stroke="black" points="0,-218 0,-248 130,-248 130,-218 0,-218"/>
<text text-anchor="start" x="8" y="-236" font-family="Helvetica,sans-Serif" font-size="10.00">ioVTK::SSeriesDBReader</text>
<text text-anchor="middle" x="65" y="-225" font-family="Helvetica,sans-Serif" font-size="10.00">::configureWithIHM</text>
</g>
<!-- Node2 -->
<g id="node2" class="node"><title>Node2</title>
<g id="a_node2"><a xlink:href="classfwGui_1_1dialog_1_1LocationDialog.html#a7b7d0bcd1a3da8e2fa4308174b086fce" target="_top" xlink:title="specify some filtering when browsing files: ">
<polygon fill="white" stroke="black" points="168,-399 168,-429 312,-429 312,-399 168,-399"/>
<text text-anchor="start" x="176" y="-417" font-family="Helvetica,sans-Serif" font-size="10.00">fwGui::dialog::LocationDialog</text>
<text text-anchor="middle" x="240" y="-406" font-family="Helvetica,sans-Serif" font-size="10.00">::addFilter</text>
</a>
</g>
</g>
<!-- Node1&#45;&gt;Node2 -->
<g id="edge1" class="edge"><title>Node1&#45;&gt;Node2</title>
<path fill="none" stroke="midnightblue" d="M71.7301,-248.276C84.1299,-279.31 116.396,-350.075 166,-389 168.322,-390.822 170.785,-392.516 173.347,-394.089"/>
<polygon fill="midnightblue" stroke="midnightblue" points="171.924,-397.299 182.383,-398.991 175.261,-391.146 171.924,-397.299"/>
</g>
<!-- Node3 -->
<g id="node3" class="node"><title>Node3</title>
<g id="a_node3"><a xlink:href="classfwIO_1_1IReader.html#a7b0608560a04500f868efd77f0880e81" target="_top" xlink:title="Clear any location set by the setFile/setFiles/setFolder setter. ">
<polygon fill="white" stroke="black" points="166.5,-360.5 166.5,-379.5 313.5,-379.5 313.5,-360.5 166.5,-360.5"/>
<text text-anchor="middle" x="240" y="-367.5" font-family="Helvetica,sans-Serif" font-size="10.00">fwIO::IReader::clearLocations</text>
</a>
</g>
</g>
<!-- Node1&#45;&gt;Node3 -->
<g id="edge2" class="edge"><title>Node1&#45;&gt;Node3</title>
<path fill="none" stroke="midnightblue" d="M74.6832,-248.082C89.8989,-273.137 123.811,-323.225 166,-350 170.084,-352.592 174.504,-354.852 179.077,-356.822"/>
<polygon fill="midnightblue" stroke="midnightblue" points="178.032,-360.17 188.623,-360.472 180.532,-353.632 178.032,-360.17"/>
</g>
<!-- Node4 -->
<g id="node4" class="node"><title>Node4</title>
<g id="a_node4"><a xlink:href="classfwGui_1_1dialog_1_1LocationDialog.html#a158eba419684eb19372c9ff1ddea5f57" target="_top" xlink:title="Save the specified default location for the dialog in preferences (if available) ">
<polygon fill="white" stroke="black" points="168,-311 168,-341 312,-341 312,-311 168,-311"/>
<text text-anchor="start" x="176" y="-329" font-family="Helvetica,sans-Serif" font-size="10.00">fwGui::dialog::LocationDialog</text>
<text text-anchor="middle" x="240" y="-318" font-family="Helvetica,sans-Serif" font-size="10.00">::saveDefaultLocation</text>
</a>
</g>
</g>
<!-- Node1&#45;&gt;Node4 -->
<g id="edge3" class="edge"><title>Node1&#45;&gt;Node4</title>
<path fill="none" stroke="midnightblue" d="M84.9647,-248.179C104.403,-263.172 135.953,-285.98 166,-301 170.34,-303.169 174.913,-305.225 179.566,-307.157"/>
<polygon fill="midnightblue" stroke="midnightblue" points="178.595,-310.536 189.182,-310.942 181.159,-304.022 178.595,-310.536"/>
</g>
<!-- Node5 -->
<g id="node5" class="node"><title>Node5</title>
<g id="a_node5"><a xlink:href="classfwGui_1_1dialog_1_1LocationDialog.html#a986099aafc9c39e9af012462828fcfa5" target="_top" xlink:title="Set the initial location for the dialog. ">
<polygon fill="white" stroke="black" points="168,-262 168,-292 312,-292 312,-262 168,-262"/>
<text text-anchor="start" x="176" y="-280" font-family="Helvetica,sans-Serif" font-size="10.00">fwGui::dialog::LocationDialog</text>
<text text-anchor="middle" x="240" y="-269" font-family="Helvetica,sans-Serif" font-size="10.00">::setDefaultLocation</text>
</a>
</g>
</g>
<!-- Node1&#45;&gt;Node5 -->
<g id="edge4" class="edge"><title>Node1&#45;&gt;Node5</title>
<path fill="none" stroke="midnightblue" d="M125.053,-248.019C139.586,-251.716 155.273,-255.705 170.222,-259.507"/>
<polygon fill="midnightblue" stroke="midnightblue" points="169.365,-262.901 179.92,-261.974 171.091,-256.117 169.365,-262.901"/>
</g>
<!-- Node6 -->
<g id="node6" class="node"><title>Node6</title>
<g id="a_node6"><a xlink:href="classfwIO_1_1IReader.html#ae0257a1f040382abb71da2481d1411b8" target="_top" xlink:title="Sets file paths. ">
<polygon fill="white" stroke="black" points="180.5,-223.5 180.5,-242.5 299.5,-242.5 299.5,-223.5 180.5,-223.5"/>
<text text-anchor="middle" x="240" y="-230.5" font-family="Helvetica,sans-Serif" font-size="10.00">fwIO::IReader::setFiles</text>
</a>
</g>
</g>
<!-- Node1&#45;&gt;Node6 -->
<g id="edge5" class="edge"><title>Node1&#45;&gt;Node6</title>
<path fill="none" stroke="midnightblue" d="M130.419,-233C143.305,-233 156.893,-233 169.929,-233"/>
<polygon fill="midnightblue" stroke="midnightblue" points="170.242,-236.5 180.242,-233 170.241,-229.5 170.242,-236.5"/>
</g>
<!-- Node8 -->
<g id="node8" class="node"><title>Node8</title>
<g id="a_node8"><a xlink:href="classfwGui_1_1dialog_1_1LocationDialog.html#a68eb418df1cfd1c66f55a426bca5ca61" target="_top" xlink:title="allow to set option to the file dialog mode=READ/WRITE, check=FILE_MUST_EXIST ">
<polygon fill="white" stroke="black" points="168,-174 168,-204 312,-204 312,-174 168,-174"/>
<text text-anchor="start" x="176" y="-192" font-family="Helvetica,sans-Serif" font-size="10.00">fwGui::dialog::LocationDialog</text>
<text text-anchor="middle" x="240" y="-181" font-family="Helvetica,sans-Serif" font-size="10.00">::setOption</text>
</a>
</g>
</g>
<!-- Node1&#45;&gt;Node8 -->
<g id="edge7" class="edge"><title>Node1&#45;&gt;Node8</title>
<path fill="none" stroke="midnightblue" d="M125.053,-217.981C139.586,-214.284 155.273,-210.295 170.222,-206.493"/>
<polygon fill="midnightblue" stroke="midnightblue" points="171.091,-209.883 179.92,-204.026 169.365,-203.099 171.091,-209.883"/>
</g>
<!-- Node9 -->
<g id="node9" class="node"><title>Node9</title>
<g id="a_node9"><a xlink:href="classfwGui_1_1dialog_1_1LocationDialog.html#ab4992d5e26eed223fa5e609bb529179b" target="_top" xlink:title="Set the title for the dialog. ">
<polygon fill="white" stroke="black" points="168,-125 168,-155 312,-155 312,-125 168,-125"/>
<text text-anchor="start" x="176" y="-143" font-family="Helvetica,sans-Serif" font-size="10.00">fwGui::dialog::LocationDialog</text>
<text text-anchor="middle" x="240" y="-132" font-family="Helvetica,sans-Serif" font-size="10.00">::setTitle</text>
</a>
</g>
</g>
<!-- Node1&#45;&gt;Node9 -->
<g id="edge8" class="edge"><title>Node1&#45;&gt;Node9</title>
<path fill="none" stroke="midnightblue" d="M84.9647,-217.821C104.403,-202.828 135.953,-180.02 166,-165 170.34,-162.831 174.913,-160.775 179.566,-158.843"/>
<polygon fill="midnightblue" stroke="midnightblue" points="181.159,-161.978 189.182,-155.058 178.595,-155.464 181.159,-161.978"/>
</g>
<!-- Node10 -->
<g id="node10" class="node"><title>Node10</title>
<g id="a_node10"><a xlink:href="classfwGui_1_1dialog_1_1LocationDialog.html#a106d8ca417508affb71d78b894c5c703" target="_top" xlink:title="Set the type of location for the dialog (SINGLE_FILE, FORLDER, MULTI_FILES) ">
<polygon fill="white" stroke="black" points="168,-76 168,-106 312,-106 312,-76 168,-76"/>
<text text-anchor="start" x="176" y="-94" font-family="Helvetica,sans-Serif" font-size="10.00">fwGui::dialog::LocationDialog</text>
<text text-anchor="middle" x="240" y="-83" font-family="Helvetica,sans-Serif" font-size="10.00">::setType</text>
</a>
</g>
</g>
<!-- Node1&#45;&gt;Node10 -->
<g id="edge9" class="edge"><title>Node1&#45;&gt;Node10</title>
<path fill="none" stroke="midnightblue" d="M75.1203,-217.805C90.7284,-193.038 124.89,-143.93 166,-116 168.914,-114.02 171.999,-112.184 175.191,-110.481"/>
<polygon fill="midnightblue" stroke="midnightblue" points="176.924,-113.531 184.409,-106.033 173.882,-107.227 176.924,-113.531"/>
</g>
<!-- Node11 -->
<g id="node11" class="node"><title>Node11</title>
<g id="a_node11"><a xlink:href="classfwGui_1_1dialog_1_1LocationDialog.html#a5553fb764e66431bd740cb35031ee06a" target="_top" xlink:title="Display the dialog. ">
<polygon fill="white" stroke="black" points="168,-27 168,-57 312,-57 312,-27 168,-27"/>
<text text-anchor="start" x="176" y="-45" font-family="Helvetica,sans-Serif" font-size="10.00">fwGui::dialog::LocationDialog</text>
<text text-anchor="middle" x="240" y="-34" font-family="Helvetica,sans-Serif" font-size="10.00">::show</text>
</a>
</g>
</g>
<!-- Node1&#45;&gt;Node11 -->
<g id="edge10" class="edge"><title>Node1&#45;&gt;Node11</title>
<path fill="none" stroke="midnightblue" d="M71.0255,-217.602C82.4986,-184.834 113.739,-107.784 166,-66 167.602,-64.7191 169.275,-63.5055 171.005,-62.3557"/>
<polygon fill="midnightblue" stroke="midnightblue" points="173.152,-65.1574 180.058,-57.1227 169.648,-59.0971 173.152,-65.1574"/>
</g>
<!-- Node7 -->
<g id="node7" class="node"><title>Node7</title>
<g id="a_node7"><a xlink:href="classfwIO_1_1IReader.html#a43c81518d1a068b245d853f71cb406f0" target="_top" xlink:title="This method must be implemented by concrete service readers that use path file system to read data...">
<polygon fill="white" stroke="black" points="350,-223.5 350,-242.5 500,-242.5 500,-223.5 350,-223.5"/>
<text text-anchor="middle" x="425" y="-230.5" font-family="Helvetica,sans-Serif" font-size="10.00">fwIO::IReader::getIOPathType</text>
</a>
</g>
</g>
<!-- Node6&#45;&gt;Node7 -->
<g id="edge6" class="edge"><title>Node6&#45;&gt;Node7</title>
<path fill="none" stroke="midnightblue" d="M299.657,-233C312.404,-233 326.13,-233 339.648,-233"/>
<polygon fill="midnightblue" stroke="midnightblue" points="339.924,-236.5 349.924,-233 339.924,-229.5 339.924,-236.5"/>
</g>
<!-- Node12 -->
<g id="node12" class="node"><title>Node12</title>
<g id="a_node12"><a xlink:href="classfwServices_1_1registry_1_1ActiveWorkers.html#aae9d40e1fe222f0d14ac8284d3abf83c" target="_top" xlink:title="Get the default registered worker. ">
<polygon fill="white" stroke="black" points="356,-48.5 356,-89.5 494,-89.5 494,-48.5 356,-48.5"/>
<text text-anchor="start" x="364" y="-77.5" font-family="Helvetica,sans-Serif" font-size="10.00">fwServices::registry</text>
<text text-anchor="start" x="364" y="-66.5" font-family="Helvetica,sans-Serif" font-size="10.00">::ActiveWorkers::getDefault</text>
<text text-anchor="middle" x="425" y="-55.5" font-family="Helvetica,sans-Serif" font-size="10.00">Worker</text>
</a>
</g>
</g>
<!-- Node11&#45;&gt;Node12 -->
<g id="edge11" class="edge"><title>Node11&#45;&gt;Node12</title>
<path fill="none" stroke="midnightblue" d="M312.015,-52.4775C323.014,-54.1005 334.43,-55.7848 345.582,-57.4301"/>
<polygon fill="midnightblue" stroke="midnightblue" points="345.325,-60.9301 355.729,-58.9272 346.347,-54.005 345.325,-60.9301"/>
</g>
<!-- Node14 -->
<g id="node14" class="node"><title>Node14</title>
<g id="a_node14"><a xlink:href="classfwGui_1_1dialog_1_1ILocationDialog.html#afe365e8bbb4d1aa519e2d003eefe4070" target="_top" xlink:title="fwGui::dialog::ILocation\lDialog::show">
<polygon fill="white" stroke="black" points="365.5,-0 365.5,-30 484.5,-30 484.5,-0 365.5,-0"/>
<text text-anchor="start" x="373.5" y="-18" font-family="Helvetica,sans-Serif" font-size="10.00">fwGui::dialog::ILocation</text>
<text text-anchor="middle" x="425" y="-7" font-family="Helvetica,sans-Serif" font-size="10.00">Dialog::show</text>
</a>
</g>
</g>
<!-- Node11&#45;&gt;Node14 -->
<g id="edge13" class="edge"><title>Node11&#45;&gt;Node14</title>
<path fill="none" stroke="midnightblue" d="M312.015,-31.5225C326.243,-29.4231 341.169,-27.221 355.317,-25.1335"/>
<polygon fill="midnightblue" stroke="midnightblue" points="356.079,-28.5592 365.461,-23.6369 355.057,-21.6341 356.079,-28.5592"/>
</g>
<!-- Node13 -->
<g id="node13" class="node"><title>Node13</title>
<g id="a_node13"><a xlink:href="classfwServices_1_1registry_1_1ActiveWorkers.html#a96003a042657996f7297f459e927ae16" target="_top" xlink:title="Returns an instance of ActiveWorkers. ">
<polygon fill="white" stroke="black" points="536,-54 536,-84 674,-84 674,-54 536,-54"/>
<text text-anchor="start" x="544" y="-72" font-family="Helvetica,sans-Serif" font-size="10.00">fwServices::registry</text>
<text text-anchor="middle" x="605" y="-61" font-family="Helvetica,sans-Serif" font-size="10.00">::ActiveWorkers::getDefault</text>
</a>
</g>
</g>
<!-- Node12&#45;&gt;Node13 -->
<g id="edge12" class="edge"><title>Node12&#45;&gt;Node13</title>
<path fill="none" stroke="midnightblue" d="M494.056,-69C504.469,-69 515.287,-69 525.895,-69"/>
<polygon fill="midnightblue" stroke="midnightblue" points="525.982,-72.5001 535.982,-69 525.982,-65.5001 525.982,-72.5001"/>
</g>
</g>
</svg>
