<?xml version="1.0" encoding="UTF-8" standalone="no"?>
<!DOCTYPE svg PUBLIC "-//W3C//DTD SVG 1.1//EN"
 "http://www.w3.org/Graphics/SVG/1.1/DTD/svg11.dtd">
<!-- Generated by graphviz version 2.36.0 (20140111.2315)
 -->
<!-- Title: scene2D::adaptor::SAxis::updating Pages: 1 -->
<svg width="934pt" height="209pt"
 viewBox="0.00 0.00 934.00 209.11" xmlns="http://www.w3.org/2000/svg" xmlns:xlink="http://www.w3.org/1999/xlink">
<g id="graph0" class="graph" transform="scale(1 1) rotate(0) translate(4 205.112)">
<title>scene2D::adaptor::SAxis::updating</title>
<polygon fill="white" stroke="none" points="-4,4 -4,-205.112 930,-205.112 930,4 -4,4"/>
<!-- Node1 -->
<g id="node1" class="node"><title>Node1</title>
<polygon fill="#bfbfbf" stroke="black" points="0,-82 0,-112 126,-112 126,-82 0,-82"/>
<text text-anchor="start" x="8" y="-100" font-family="Helvetica,sans-Serif" font-size="10.00">scene2D::adaptor::SAxis</text>
<text text-anchor="middle" x="63" y="-89" font-family="Helvetica,sans-Serif" font-size="10.00">::updating</text>
</g>
<!-- Node2 -->
<g id="node2" class="node"><title>Node2</title>
<g id="a_node2"><a xlink:href="classfwRenderQt_1_1IAdaptor.html#a19c26b1617582f56cb477d6c26bdb2b9" target="_top" xlink:title="Get the render that manages the IAdaptor. ">
<polygon fill="white" stroke="black" points="468,-128 468,-158 580,-158 580,-128 468,-128"/>
<text text-anchor="start" x="476" y="-146" font-family="Helvetica,sans-Serif" font-size="10.00">fwRenderQt::IAdaptor</text>
<text text-anchor="middle" x="524" y="-135" font-family="Helvetica,sans-Serif" font-size="10.00">::getScene2DRender</text>
</a>
</g>
</g>
<!-- Node1&#45;&gt;Node2 -->
<g id="edge1" class="edge"><title>Node1&#45;&gt;Node2</title>
<path fill="none" stroke="midnightblue" d="M79.4578,-112.016C97.5901,-128.616 129.344,-154.638 162,-167 274.425,-209.559 314.357,-207.714 432,-183 451.059,-178.996 470.999,-170.749 487.339,-162.778"/>
<polygon fill="midnightblue" stroke="midnightblue" points="489.158,-165.78 496.509,-158.151 486.005,-159.531 489.158,-165.78"/>
</g>
<!-- Node7 -->
<g id="node7" class="node"><title>Node7</title>
<g id="a_node7"><a xlink:href="classfwRenderQt_1_1IAdaptor.html#abe055b9b42bfda51d60c0ad15da1557d" target="_top" xlink:title="Return the ratio between viewport&#39;s initial size and its current size. ">
<polygon fill="white" stroke="black" points="162.5,-128 162.5,-158 279.5,-158 279.5,-128 162.5,-128"/>
<text text-anchor="start" x="170.5" y="-146" font-family="Helvetica,sans-Serif" font-size="10.00">fwRenderQt::IAdaptor</text>
<text text-anchor="middle" x="221" y="-135" font-family="Helvetica,sans-Serif" font-size="10.00">::getViewportSizeRatio</text>
</a>
</g>
</g>
<!-- Node1&#45;&gt;Node7 -->
<g id="edge6" class="edge"><title>Node1&#45;&gt;Node7</title>
<path fill="none" stroke="midnightblue" d="M115.08,-112.062C129.159,-116.214 144.571,-120.758 159.144,-125.055"/>
<polygon fill="midnightblue" stroke="midnightblue" points="158.49,-128.511 169.072,-127.983 160.47,-121.797 158.49,-128.511"/>
</g>
<!-- Node9 -->
<g id="node9" class="node"><title>Node9</title>
<g id="a_node9"><a xlink:href="classfwRenderQt_1_1IAdaptor.html#a16726e36cb8f38f0ae09f383cf09222b" target="_top" xlink:title="Initialize the source values used for computing viewport&#39;s size ratio. ">
<polygon fill="white" stroke="black" points="316,-79 316,-109 432,-109 432,-79 316,-79"/>
<text text-anchor="start" x="324" y="-97" font-family="Helvetica,sans-Serif" font-size="10.00">fwRenderQt::IAdaptor</text>
<text text-anchor="middle" x="374" y="-86" font-family="Helvetica,sans-Serif" font-size="10.00">::initializeViewportSize</text>
</a>
</g>
</g>
<!-- Node1&#45;&gt;Node9 -->
<g id="edge10" class="edge"><title>Node1&#45;&gt;Node9</title>
<path fill="none" stroke="midnightblue" d="M126.159,-96.3965C178.23,-95.891 252.403,-95.1708 305.83,-94.6521"/>
<polygon fill="midnightblue" stroke="midnightblue" points="305.925,-98.1515 315.89,-94.5545 305.857,-91.1518 305.925,-98.1515"/>
</g>
<!-- Node10 -->
<g id="node10" class="node"><title>Node10</title>
<g id="a_node10"><a xlink:href="classfwRenderQt_1_1IAdaptor.html#a2d931ce6543f5948fe585d59c651a019" target="_top" xlink:title="Initialize the source values used for computing view&#39;s size ratio. ">
<polygon fill="white" stroke="black" points="318,-30 318,-60 430,-60 430,-30 318,-30"/>
<text text-anchor="start" x="326" y="-48" font-family="Helvetica,sans-Serif" font-size="10.00">fwRenderQt::IAdaptor</text>
<text text-anchor="middle" x="374" y="-37" font-family="Helvetica,sans-Serif" font-size="10.00">::initializeViewSize</text>
</a>
</g>
</g>
<!-- Node1&#45;&gt;Node10 -->
<g id="edge12" class="edge"><title>Node1&#45;&gt;Node10</title>
<path fill="none" stroke="midnightblue" d="M126.159,-86.5396C178.892,-77.6655 254.294,-64.9765 307.859,-55.9623"/>
<polygon fill="midnightblue" stroke="midnightblue" points="308.651,-59.3783 317.931,-54.2672 307.489,-52.4754 308.651,-59.3783"/>
</g>
<!-- Node11 -->
<g id="node11" class="node"><title>Node11</title>
<g id="a_node11"><a xlink:href="classfwRenderQt_1_1IAdaptor.html#aafb0b1479c046c3bedf55291c2226019" target="_top" xlink:title="fwRenderQt::IAdaptor\l::mapAdaptorToScene">
<polygon fill="white" stroke="black" points="164,-0 164,-30 278,-30 278,-0 164,-0"/>
<text text-anchor="start" x="172" y="-18" font-family="Helvetica,sans-Serif" font-size="10.00">fwRenderQt::IAdaptor</text>
<text text-anchor="middle" x="221" y="-7" font-family="Helvetica,sans-Serif" font-size="10.00">::mapAdaptorToScene</text>
</a>
</g>
</g>
<!-- Node1&#45;&gt;Node11 -->
<g id="edge14" class="edge"><title>Node1&#45;&gt;Node11</title>
<path fill="none" stroke="midnightblue" d="M92.2627,-81.9029C111.818,-71.4819 138.456,-57.335 162,-45 168.275,-41.7126 174.942,-38.2428 181.436,-34.8754"/>
<polygon fill="midnightblue" stroke="midnightblue" points="183.489,-37.7537 190.76,-30.0482 180.271,-31.5373 183.489,-37.7537"/>
</g>
<!-- Node3 -->
<g id="node3" class="node"><title>Node3</title>
<g id="a_node3"><a xlink:href="classfwTools_1_1fwID.html#a387264565a48b0231a7eefb7b01512a1" target="_top" xlink:title="Returns the id of the object. If it is not set and the policy value is. ">
<polygon fill="white" stroke="black" points="625,-152.5 625,-171.5 733,-171.5 733,-152.5 625,-152.5"/>
<text text-anchor="middle" x="679" y="-159.5" font-family="Helvetica,sans-Serif" font-size="10.00">fwTools::fwID::getID</text>
</a>
</g>
</g>
<!-- Node2&#45;&gt;Node3 -->
<g id="edge2" class="edge"><title>Node2&#45;&gt;Node3</title>
<path fill="none" stroke="midnightblue" d="M580.237,-149.859C591.491,-151.257 603.412,-152.737 614.916,-154.166"/>
<polygon fill="midnightblue" stroke="midnightblue" points="614.535,-157.646 624.891,-155.405 615.398,-150.699 614.535,-157.646"/>
</g>
<!-- Node6 -->
<g id="node6" class="node"><title>Node6</title>
<g id="a_node6"><a xlink:href="classfwTools_1_1fwID.html#a49c219235064892bb906498913fe8175" target="_top" xlink:title="Retrieve the object attached to the given id. Return a null sptr if no correspondence exist...">
<polygon fill="white" stroke="black" points="616,-114.5 616,-133.5 742,-133.5 742,-114.5 616,-114.5"/>
<text text-anchor="middle" x="679" y="-121.5" font-family="Helvetica,sans-Serif" font-size="10.00">fwTools::fwID::getObject</text>
</a>
</g>
</g>
<!-- Node2&#45;&gt;Node6 -->
<g id="edge5" class="edge"><title>Node2&#45;&gt;Node6</title>
<path fill="none" stroke="midnightblue" d="M580.237,-136.141C588.542,-135.109 597.211,-134.033 605.807,-132.965"/>
<polygon fill="midnightblue" stroke="midnightblue" points="606.346,-136.425 615.838,-131.719 605.483,-129.479 606.346,-136.425"/>
</g>
<!-- Node4 -->
<g id="node4" class="node"><title>Node4</title>
<g id="a_node4"><a xlink:href="classfwTools_1_1fwID.html#a4ac18bb9c046c3fd04a4c8a80add7ae6" target="_top" xlink:title="fwTools::fwID::exist">
<polygon fill="white" stroke="black" points="799.5,-171.5 799.5,-190.5 904.5,-190.5 904.5,-171.5 799.5,-171.5"/>
<text text-anchor="middle" x="852" y="-178.5" font-family="Helvetica,sans-Serif" font-size="10.00">fwTools::fwID::exist</text>
</a>
</g>
</g>
<!-- Node3&#45;&gt;Node4 -->
<g id="edge3" class="edge"><title>Node3&#45;&gt;Node4</title>
<path fill="none" stroke="midnightblue" d="M733.168,-167.908C750.954,-169.884 770.928,-172.103 789.307,-174.145"/>
<polygon fill="midnightblue" stroke="midnightblue" points="789.005,-177.633 799.33,-175.259 789.778,-170.676 789.005,-177.633"/>
</g>
<!-- Node5 -->
<g id="node5" class="node"><title>Node5</title>
<g id="a_node5"><a xlink:href="classfwTools_1_1fwID.html#a03d6d0e2227b51a0630e145911445213" target="_top" xlink:title="return full object&#39;s classname with its namespace, i.e. fwCore::BaseObject ">
<polygon fill="white" stroke="black" points="778.5,-133.5 778.5,-152.5 925.5,-152.5 925.5,-133.5 778.5,-133.5"/>
<text text-anchor="middle" x="852" y="-140.5" font-family="Helvetica,sans-Serif" font-size="10.00">fwTools::fwID::getClassname</text>
</a>
</g>
</g>
<!-- Node3&#45;&gt;Node5 -->
<g id="edge4" class="edge"><title>Node3&#45;&gt;Node5</title>
<path fill="none" stroke="midnightblue" d="M733.168,-156.092C744.351,-154.85 756.399,-153.511 768.372,-152.181"/>
<polygon fill="midnightblue" stroke="midnightblue" points="768.839,-155.651 778.392,-151.068 768.066,-148.693 768.839,-155.651"/>
</g>
<!-- Node7&#45;&gt;Node2 -->
<g id="edge7" class="edge"><title>Node7&#45;&gt;Node2</title>
<path fill="none" stroke="midnightblue" d="M271.314,-158.055C285.591,-161.739 301.294,-165.152 316,-167 367.153,-173.427 380.872,-173.629 432,-167 442.917,-165.585 454.391,-163.252 465.372,-160.583"/>
<polygon fill="midnightblue" stroke="midnightblue" points="466.464,-163.916 475.288,-158.053 464.734,-157.134 466.464,-163.916"/>
</g>
<!-- Node8 -->
<g id="node8" class="node"><title>Node8</title>
<g id="a_node8"><a xlink:href="classfwRenderQt_1_1IAdaptor.html#a489e1d1df4aa733f5db3380f85809ebb" target="_top" xlink:title="Return the ratio between view&#39;s initial size and its current size. ">
<polygon fill="white" stroke="black" points="318,-128 318,-158 430,-158 430,-128 318,-128"/>
<text text-anchor="start" x="326" y="-146" font-family="Helvetica,sans-Serif" font-size="10.00">fwRenderQt::IAdaptor</text>
<text text-anchor="middle" x="374" y="-135" font-family="Helvetica,sans-Serif" font-size="10.00">::getViewSizeRatio</text>
</a>
</g>
</g>
<!-- Node7&#45;&gt;Node8 -->
<g id="edge8" class="edge"><title>Node7&#45;&gt;Node8</title>
<path fill="none" stroke="midnightblue" d="M279.517,-143C288.698,-143 298.256,-143 307.603,-143"/>
<polygon fill="midnightblue" stroke="midnightblue" points="307.636,-146.5 317.636,-143 307.636,-139.5 307.636,-146.5"/>
</g>
<!-- Node8&#45;&gt;Node2 -->
<g id="edge9" class="edge"><title>Node8&#45;&gt;Node2</title>
<path fill="none" stroke="midnightblue" d="M430.11,-143C439.067,-143 448.419,-143 457.593,-143"/>
<polygon fill="midnightblue" stroke="midnightblue" points="457.844,-146.5 467.844,-143 457.844,-139.5 457.844,-146.5"/>
</g>
<!-- Node9&#45;&gt;Node2 -->
<g id="edge11" class="edge"><title>Node9&#45;&gt;Node2</title>
<path fill="none" stroke="midnightblue" d="M420.613,-109.101C435.594,-114.062 452.405,-119.627 468.007,-124.793"/>
<polygon fill="midnightblue" stroke="midnightblue" points="466.945,-128.128 477.538,-127.948 469.145,-121.483 466.945,-128.128"/>
</g>
<!-- Node10&#45;&gt;Node2 -->
<g id="edge13" class="edge"><title>Node10&#45;&gt;Node2</title>
<path fill="none" stroke="midnightblue" d="M413.112,-60.0466C419.565,-63.0623 426.085,-66.4165 432,-70 456.486,-84.8346 481.675,-105.543 499.326,-121.116"/>
<polygon fill="midnightblue" stroke="midnightblue" points="497.09,-123.811 506.876,-127.87 501.757,-118.594 497.09,-123.811"/>
</g>
</g>
</svg>
