<?xml version="1.0" encoding="UTF-8" standalone="no"?>
<!DOCTYPE svg PUBLIC "-//W3C//DTD SVG 1.1//EN"
 "http://www.w3.org/Graphics/SVG/1.1/DTD/svg11.dtd">
<!-- Generated by graphviz version 2.36.0 (20140111.2315)
 -->
<!-- Title: uiImageQt::SliceIndexPositionEditor Pages: 1 -->
<svg width="476pt" height="400pt"
 viewBox="0.00 0.00 476.00 400.00" xmlns="http://www.w3.org/2000/svg" xmlns:xlink="http://www.w3.org/1999/xlink">
<g id="graph0" class="graph" transform="scale(1 1) rotate(0) translate(4 396)">
<title>uiImageQt::SliceIndexPositionEditor</title>
<polygon fill="white" stroke="none" points="-4,4 -4,-396 472,-396 472,4 -4,4"/>
<!-- Node1 -->
<g id="node1" class="node"><title>Node1</title>
<polygon fill="#bfbfbf" stroke="black" points="270.5,-1 270.5,-31 419.5,-31 419.5,-1 270.5,-1"/>
<text text-anchor="start" x="278.5" y="-19" font-family="Helvetica,sans-Serif" font-size="10.00">uiImageQt::SliceIndexPosition</text>
<text text-anchor="middle" x="345" y="-8" font-family="Helvetica,sans-Serif" font-size="10.00">Editor</text>
</g>
<!-- Node2 -->
<g id="node2" class="node"><title>Node2</title>
<g id="a_node2"><a xlink:href="classfwGui_1_1editor_1_1IEditor.html" target="_top" xlink:title="Defines the service interface managing the editor service for object. ">
<polygon fill="white" stroke="black" points="226.5,-74.5 226.5,-93.5 333.5,-93.5 333.5,-74.5 226.5,-74.5"/>
<text text-anchor="middle" x="280" y="-81.5" font-family="Helvetica,sans-Serif" font-size="10.00">fwGui::editor::IEditor</text>
</a>
</g>
</g>
<!-- Node2&#45;&gt;Node1 -->
<g id="edge1" class="edge"><title>Node2&#45;&gt;Node1</title>
<path fill="none" stroke="midnightblue" d="M295.641,-67.1185C306.424,-56.1696 320.631,-41.7438 331.033,-31.1815"/>
<polygon fill="midnightblue" stroke="midnightblue" points="293.021,-64.7909 288.498,-74.3717 298.008,-69.7027 293.021,-64.7909"/>
</g>
<!-- Node3 -->
<g id="node3" class="node"><title>Node3</title>
<g id="a_node3"><a xlink:href="classfwGui_1_1IGuiContainerSrv.html" target="_top" xlink:title="Defines the service interface managing the layout. ">
<polygon fill="white" stroke="black" points="218.5,-136.5 218.5,-155.5 341.5,-155.5 341.5,-136.5 218.5,-136.5"/>
<text text-anchor="middle" x="280" y="-143.5" font-family="Helvetica,sans-Serif" font-size="10.00">fwGui::IGuiContainerSrv</text>
</a>
</g>
</g>
<!-- Node3&#45;&gt;Node2 -->
<g id="edge2" class="edge"><title>Node3&#45;&gt;Node2</title>
<path fill="none" stroke="midnightblue" d="M280,-126.16C280,-115.248 280,-102.04 280,-93.5806"/>
<polygon fill="midnightblue" stroke="midnightblue" points="276.5,-126.403 280,-136.403 283.5,-126.403 276.5,-126.403"/>
</g>
<!-- Node4 -->
<g id="node4" class="node"><title>Node4</title>
<g id="a_node4"><a xlink:href="classfwServices_1_1IService.html" target="_top" xlink:title="Base class for all services. ">
<polygon fill="white" stroke="black" points="226.5,-192.5 226.5,-211.5 333.5,-211.5 333.5,-192.5 226.5,-192.5"/>
<text text-anchor="middle" x="280" y="-199.5" font-family="Helvetica,sans-Serif" font-size="10.00">fwServices::IService</text>
</a>
</g>
</g>
<!-- Node4&#45;&gt;Node3 -->
<g id="edge3" class="edge"><title>Node4&#45;&gt;Node3</title>
<path fill="none" stroke="midnightblue" d="M280,-181.805C280,-172.91 280,-162.78 280,-155.751"/>
<polygon fill="midnightblue" stroke="midnightblue" points="276.5,-182.083 280,-192.083 283.5,-182.083 276.5,-182.083"/>
</g>
<!-- Node5 -->
<g id="node5" class="node"><title>Node5</title>
<g id="a_node5"><a xlink:href="classfwTools_1_1Object.html" target="_top" xlink:title="Define Base class for FW4SPL objects and services. ">
<polygon fill="white" stroke="black" points="128,-248.5 128,-267.5 214,-267.5 214,-248.5 128,-248.5"/>
<text text-anchor="middle" x="171" y="-255.5" font-family="Helvetica,sans-Serif" font-size="10.00">fwTools::Object</text>
</a>
</g>
</g>
<!-- Node5&#45;&gt;Node4 -->
<g id="edge4" class="edge"><title>Node5&#45;&gt;Node4</title>
<path fill="none" stroke="midnightblue" d="M197.519,-243.862C217.73,-233.849 244.987,-220.346 262.531,-211.655"/>
<polygon fill="midnightblue" stroke="midnightblue" points="195.92,-240.748 188.513,-248.324 199.027,-247.021 195.92,-240.748"/>
</g>
<!-- Node6 -->
<g id="node6" class="node"><title>Node6</title>
<g id="a_node6"><a xlink:href="classfwCore_1_1BaseObject.html" target="_top" xlink:title="Base class for all FW4SPL&#39;s classes. ">
<polygon fill="white" stroke="black" points="12.5,-304.5 12.5,-323.5 117.5,-323.5 117.5,-304.5 12.5,-304.5"/>
<text text-anchor="middle" x="65" y="-311.5" font-family="Helvetica,sans-Serif" font-size="10.00">fwCore::BaseObject</text>
</a>
</g>
</g>
<!-- Node6&#45;&gt;Node5 -->
<g id="edge5" class="edge"><title>Node6&#45;&gt;Node5</title>
<path fill="none" stroke="midnightblue" d="M91.0562,-299.726C110.684,-289.727 137.028,-276.307 154.012,-267.655"/>
<polygon fill="midnightblue" stroke="midnightblue" points="89.3524,-296.666 82.0307,-304.324 92.5299,-302.903 89.3524,-296.666"/>
</g>
<!-- Node7 -->
<g id="node7" class="node"><title>Node7</title>
<polygon fill="white" stroke="#bfbfbf" points="-0.5,-361 -0.5,-391 130.5,-391 130.5,-361 -0.5,-361"/>
<text text-anchor="start" x="7.5" y="-379" font-family="Helvetica,sans-Serif" font-size="10.00">std::enable_shared</text>
<text text-anchor="middle" x="65" y="-368" font-family="Helvetica,sans-Serif" font-size="10.00">_from_this&lt; BaseObject &gt;</text>
</g>
<!-- Node7&#45;&gt;Node6 -->
<g id="edge6" class="edge"><title>Node7&#45;&gt;Node6</title>
<path fill="none" stroke="midnightblue" d="M65,-350.586C65,-341.074 65,-330.786 65,-323.731"/>
<polygon fill="midnightblue" stroke="midnightblue" points="61.5001,-350.781 65,-360.781 68.5001,-350.781 61.5001,-350.781"/>
</g>
<!-- Node8 -->
<g id="node8" class="node"><title>Node8</title>
<polygon fill="white" stroke="#bfbfbf" points="135.5,-304.5 135.5,-323.5 206.5,-323.5 206.5,-304.5 135.5,-304.5"/>
<text text-anchor="middle" x="171" y="-311.5" font-family="Helvetica,sans-Serif" font-size="10.00">noncopyable</text>
</g>
<!-- Node8&#45;&gt;Node5 -->
<g id="edge7" class="edge"><title>Node8&#45;&gt;Node5</title>
<path fill="none" stroke="midnightblue" d="M171,-293.805C171,-284.91 171,-274.78 171,-267.751"/>
<polygon fill="midnightblue" stroke="midnightblue" points="167.5,-294.083 171,-304.083 174.5,-294.083 167.5,-294.083"/>
</g>
<!-- Node9 -->
<g id="node9" class="node"><title>Node9</title>
<g id="a_node9"><a xlink:href="classfwTools_1_1fwID.html" target="_top" xlink:title="Defines ID for fwTools::Object. It is used to associate ID with object. ">
<polygon fill="white" stroke="black" points="225,-304.5 225,-323.5 303,-323.5 303,-304.5 225,-304.5"/>
<text text-anchor="middle" x="264" y="-311.5" font-family="Helvetica,sans-Serif" font-size="10.00">fwTools::fwID</text>
</a>
</g>
</g>
<!-- Node9&#45;&gt;Node5 -->
<g id="edge8" class="edge"><title>Node9&#45;&gt;Node5</title>
<path fill="none" stroke="darkgreen" d="M240.194,-299.177C223.081,-289.241 200.535,-276.149 185.905,-267.655"/>
<polygon fill="darkgreen" stroke="darkgreen" points="238.653,-302.329 249.058,-304.324 242.168,-296.276 238.653,-302.329"/>
</g>
<!-- Node10 -->
<g id="node10" class="node"><title>Node10</title>
<g id="a_node10"><a xlink:href="classfwCom_1_1HasSlots.html" target="_top" xlink:title="This class proposes a mapping between a SlotKeyType and a SlotBase. ">
<polygon fill="white" stroke="black" points="232.5,-248.5 232.5,-267.5 327.5,-267.5 327.5,-248.5 232.5,-248.5"/>
<text text-anchor="middle" x="280" y="-255.5" font-family="Helvetica,sans-Serif" font-size="10.00">fwCom::HasSlots</text>
</a>
</g>
</g>
<!-- Node10&#45;&gt;Node4 -->
<g id="edge9" class="edge"><title>Node10&#45;&gt;Node4</title>
<path fill="none" stroke="midnightblue" d="M280,-237.805C280,-228.91 280,-218.78 280,-211.751"/>
<polygon fill="midnightblue" stroke="midnightblue" points="276.5,-238.083 280,-248.083 283.5,-238.083 276.5,-238.083"/>
</g>
<!-- Node11 -->
<g id="node11" class="node"><title>Node11</title>
<g id="a_node11"><a xlink:href="classfwCom_1_1HasSignals.html" target="_top" xlink:title="This class proposes a mapping between a SignalKeyType and a SignalBase. ">
<polygon fill="white" stroke="black" points="346,-248.5 346,-267.5 450,-267.5 450,-248.5 346,-248.5"/>
<text text-anchor="middle" x="398" y="-255.5" font-family="Helvetica,sans-Serif" font-size="10.00">fwCom::HasSignals</text>
</a>
</g>
</g>
<!-- Node11&#45;&gt;Node4 -->
<g id="edge10" class="edge"><title>Node11&#45;&gt;Node4</title>
<path fill="none" stroke="midnightblue" d="M370.1,-244.232C348.027,-234.131 317.824,-220.309 298.61,-211.516"/>
<polygon fill="midnightblue" stroke="midnightblue" points="368.753,-247.465 379.303,-248.444 371.666,-241.1 368.753,-247.465"/>
</g>
<!-- Node12 -->
<g id="node12" class="node"><title>Node12</title>
<g id="a_node12"><a xlink:href="classfwDataTools_1_1helper_1_1MedicalImageAdaptor.html" target="_top" xlink:title="Helpers for medical image. ">
<polygon fill="white" stroke="black" points="351.5,-69 351.5,-99 468.5,-99 468.5,-69 351.5,-69"/>
<text text-anchor="start" x="359.5" y="-87" font-family="Helvetica,sans-Serif" font-size="10.00">fwDataTools::helper</text>
<text text-anchor="middle" x="410" y="-76" font-family="Helvetica,sans-Serif" font-size="10.00">::MedicalImageAdaptor</text>
</a>
</g>
</g>
<!-- Node12&#45;&gt;Node1 -->
<g id="edge11" class="edge"><title>Node12&#45;&gt;Node1</title>
<path fill="none" stroke="midnightblue" d="M388.811,-61.4855C379.061,-51.5852 367.759,-40.1092 359.077,-31.2931"/>
<polygon fill="midnightblue" stroke="midnightblue" points="386.385,-64.01 395.896,-68.679 391.373,-59.0982 386.385,-64.01"/>
</g>
</g>
</svg>
