<?xml version="1.0" encoding="UTF-8" standalone="no"?>
<!DOCTYPE svg PUBLIC "-//W3C//DTD SVG 1.1//EN"
 "http://www.w3.org/Graphics/SVG/1.1/DTD/svg11.dtd">
<!-- Generated by graphviz version 2.36.0 (20140111.2315)
 -->
<!-- Title: fwCom::Slot&lt; std::function&lt; R(A...) &gt; &gt; Pages: 1 -->
<!--zoomable 480 -->
<svg id="main" version="1.1" xmlns="http://www.w3.org/2000/svg" xmlns:xlink="http://www.w3.org/1999/xlink" xml:space="preserve" onload="init(evt)">
<style type="text/css"><![CDATA[
.edge:hover path { stroke: red; }
.edge:hover polygon { stroke: red; fill: red; }
]]></style>
<script type="text/javascript"><![CDATA[
var edges = document.getElementsByTagName('g');
if (edges && edges.length) {
  for (var i=0;i<edges.length;i++) {
    if (edges[i].id.substr(0,4)=='edge') {
      edges[i].setAttribute('class','edge');
    }
  }
}
]]></script>
        <defs>
                <circle id="rim" cx="0" cy="0" r="7"/>
                <circle id="rim2" cx="0" cy="0" r="3.5"/>
                <g id="zoomPlus">
                        <use xlink:href="#rim" fill="#404040">
                                <set attributeName="fill" to="#808080" begin="zoomplus.mouseover" end="zoomplus.mouseout"/>
                        </use>
                        <path d="M-4,0h8M0,-4v8" fill="none" stroke="white" stroke-width="1.5" pointer-events="none"/>
                </g>
                <g id="zoomMin">
                        <use xlink:href="#rim" fill="#404040">
                                <set attributeName="fill" to="#808080" begin="zoomminus.mouseover" end="zoomminus.mouseout"/>
                        </use>
                        <path d="M-4,0h8" fill="none" stroke="white" stroke-width="1.5" pointer-events="none"/>
                </g>
                <g id="dirArrow">
                        <path fill="none" stroke="white" stroke-width="1.5" d="M0,-3.0v7 M-2.5,-0.5L0,-3.0L2.5,-0.5"/>
                </g>
               <g id="resetDef">
                       <use xlink:href="#rim2" fill="#404040">
                               <set attributeName="fill" to="#808080" begin="reset.mouseover" end="reset.mouseout"/>
                       </use>
               </g>
        </defs>

<script type="text/javascript">
var viewWidth = 142;
var viewHeight = 480;
var sectionId = 'dynsection-0';
</script>
<script xlink:href="svgpan.js"/>
<svg id="graph" class="graph">
<g id="viewport">
<title>fwCom::Slot&lt; std::function&lt; R(A...) &gt; &gt;</title>
<polygon fill="white" stroke="none" points="-4,4 -4,-476 138,-476 138,4 -4,4"/>
<!-- Node1 -->
<g id="node1" class="node"><title>Node1</title>
<polygon fill="#bfbfbf" stroke="black" points="0,-69 0,-99 134,-99 134,-69 0,-69"/>
<text text-anchor="start" x="8" y="-87" font-family="Helvetica,sans-Serif" font-size="10.00">fwCom::Slot&lt; std::function</text>
<text text-anchor="middle" x="67" y="-76" font-family="Helvetica,sans-Serif" font-size="10.00">&lt; R(A...) &gt; &gt;</text>
</g>
<!-- Node8 -->
<g id="node8" class="node"><title>Node8</title>
<g id="a_node8"><a xlink:href="classfwCom_1_1Slot_3_01Slot_3_01R_07A_8_8_8_08_01_4_01_4.html" target="_top" xlink:title="fwCom::Slot\&lt; Slot\&lt;\l R(A...) \&gt; \&gt;">
<polygon fill="white" stroke="black" points="15,-1 15,-31 119,-31 119,-1 15,-1"/>
<text text-anchor="start" x="23" y="-19" font-family="Helvetica,sans-Serif" font-size="10.00">fwCom::Slot&lt; Slot&lt;</text>
<text text-anchor="middle" x="67" y="-8" font-family="Helvetica,sans-Serif" font-size="10.00"> R(A...) &gt; &gt;</text>
</a>
</g>
</g>
<!-- Node1&#45;&gt;Node8 -->
<g id="edge7" class="edge"><title>Node1&#45;&gt;Node8</title>
<path fill="none" stroke="midnightblue" d="M67,-58.5322C67,-49.3606 67,-39.2449 67,-31.2931"/>
<polygon fill="midnightblue" stroke="midnightblue" points="63.5001,-58.6789 67,-68.679 70.5001,-58.679 63.5001,-58.6789"/>
</g>
<!-- Node2 -->
<g id="node2" class="node"><title>Node2</title>
<g id="a_node2"><a xlink:href="classfwCom_1_1Slot_3_01R_07A_8_8_8_08_01_4.html" target="_top" xlink:title="fwCom::Slot\&lt; R(A...) \&gt;">
<polygon fill="white" stroke="black" points="7.5,-136.5 7.5,-155.5 126.5,-155.5 126.5,-136.5 7.5,-136.5"/>
<text text-anchor="middle" x="67" y="-143.5" font-family="Helvetica,sans-Serif" font-size="10.00">fwCom::Slot&lt; R(A...) &gt;</text>
</a>
</g>
</g>
<!-- Node2&#45;&gt;Node1 -->
<g id="edge1" class="edge"><title>Node2&#45;&gt;Node1</title>
<path fill="none" stroke="midnightblue" d="M67,-126.371C67,-117.585 67,-107.272 67,-99.1408"/>
<polygon fill="midnightblue" stroke="midnightblue" points="63.5001,-126.403 67,-136.403 70.5001,-126.403 63.5001,-126.403"/>
</g>
<!-- Node3 -->
<g id="node3" class="node"><title>Node3</title>
<g id="a_node3"><a xlink:href="structfwCom_1_1SlotCall_3_01R_07A_8_8_8_08_01_4.html" target="_top" xlink:title="Slot call interface (call with return value). ">
<polygon fill="white" stroke="black" points="14.5,-193 14.5,-223 119.5,-223 119.5,-193 14.5,-193"/>
<text text-anchor="start" x="22.5" y="-211" font-family="Helvetica,sans-Serif" font-size="10.00">fwCom::SlotCall&lt; R</text>
<text text-anchor="middle" x="67" y="-200" font-family="Helvetica,sans-Serif" font-size="10.00">(A...) &gt;</text>
</a>
</g>
</g>
<!-- Node3&#45;&gt;Node2 -->
<g id="edge2" class="edge"><title>Node3&#45;&gt;Node2</title>
<path fill="none" stroke="midnightblue" d="M67,-182.586C67,-173.074 67,-162.786 67,-155.731"/>
<polygon fill="midnightblue" stroke="midnightblue" points="63.5001,-182.781 67,-192.781 70.5001,-182.781 63.5001,-182.781"/>
</g>
<!-- Node4 -->
<g id="node4" class="node"><title>Node4</title>
<g id="a_node4"><a xlink:href="structfwCom_1_1SlotRun_3_01void_07A_8_8_8_08_01_4.html" target="_top" xlink:title="Slot run interface (call without return value). ">
<polygon fill="white" stroke="black" points="9,-261 9,-291 125,-291 125,-261 9,-261"/>
<text text-anchor="start" x="17" y="-279" font-family="Helvetica,sans-Serif" font-size="10.00">fwCom::SlotRun&lt; void</text>
<text text-anchor="middle" x="67" y="-268" font-family="Helvetica,sans-Serif" font-size="10.00">(A...) &gt;</text>
</a>
</g>
</g>
<!-- Node4&#45;&gt;Node3 -->
<g id="edge3" class="edge"><title>Node4&#45;&gt;Node3</title>
<path fill="none" stroke="midnightblue" d="M67,-250.532C67,-241.361 67,-231.245 67,-223.293"/>
<polygon fill="midnightblue" stroke="midnightblue" points="63.5001,-250.679 67,-260.679 70.5001,-250.679 63.5001,-250.679"/>
</g>
<!-- Node5 -->
<g id="node5" class="node"><title>Node5</title>
<g id="a_node5"><a xlink:href="structfwCom_1_1SlotBase.html" target="_top" xlink:title="Base class for Slot implementations. ">
<polygon fill="white" stroke="black" points="20,-328.5 20,-347.5 114,-347.5 114,-328.5 20,-328.5"/>
<text text-anchor="middle" x="67" y="-335.5" font-family="Helvetica,sans-Serif" font-size="10.00">fwCom::SlotBase</text>
</a>
</g>
</g>
<!-- Node5&#45;&gt;Node4 -->
<g id="edge4" class="edge"><title>Node5&#45;&gt;Node4</title>
<path fill="none" stroke="midnightblue" d="M67,-318.371C67,-309.585 67,-299.272 67,-291.141"/>
<polygon fill="midnightblue" stroke="midnightblue" points="63.5001,-318.403 67,-328.403 70.5001,-318.403 63.5001,-318.403"/>
</g>
<!-- Node6 -->
<g id="node6" class="node"><title>Node6</title>
<g id="a_node6"><a xlink:href="classfwCore_1_1BaseObject.html" target="_top" xlink:title="Base class for all FW4SPL&#39;s classes. ">
<polygon fill="white" stroke="black" points="14.5,-384.5 14.5,-403.5 119.5,-403.5 119.5,-384.5 14.5,-384.5"/>
<text text-anchor="middle" x="67" y="-391.5" font-family="Helvetica,sans-Serif" font-size="10.00">fwCore::BaseObject</text>
</a>
</g>
</g>
<!-- Node6&#45;&gt;Node5 -->
<g id="edge5" class="edge"><title>Node6&#45;&gt;Node5</title>
<path fill="none" stroke="midnightblue" d="M67,-373.805C67,-364.91 67,-354.78 67,-347.751"/>
<polygon fill="midnightblue" stroke="midnightblue" points="63.5001,-374.083 67,-384.083 70.5001,-374.083 63.5001,-374.083"/>
</g>
<!-- Node7 -->
<g id="node7" class="node"><title>Node7</title>
<polygon fill="white" stroke="#bfbfbf" points="1.5,-441 1.5,-471 132.5,-471 132.5,-441 1.5,-441"/>
<text text-anchor="start" x="9.5" y="-459" font-family="Helvetica,sans-Serif" font-size="10.00">std::enable_shared</text>
<text text-anchor="middle" x="67" y="-448" font-family="Helvetica,sans-Serif" font-size="10.00">_from_this&lt; BaseObject &gt;</text>
</g>
<!-- Node7&#45;&gt;Node6 -->
<g id="edge6" class="edge"><title>Node7&#45;&gt;Node6</title>
<path fill="none" stroke="midnightblue" d="M67,-430.586C67,-421.074 67,-410.786 67,-403.731"/>
<polygon fill="midnightblue" stroke="midnightblue" points="63.5001,-430.781 67,-440.781 70.5001,-430.781 63.5001,-430.781"/>
</g>
</g>
</svg>
        <g id="navigator" transform="translate(0 0)" fill="#404254">
                <rect fill="#f2f5e9" fill-opacity="0.5" stroke="#606060" stroke-width=".5" x="0" y="0" width="60" height="60"/>
                <use id="zoomplus" xlink:href="#zoomPlus" x="17" y="9" onmousedown="handleZoom(evt,'in')"/>
                <use id="zoomminus" xlink:href="#zoomMin" x="42" y="9" onmousedown="handleZoom(evt,'out')"/>
                <use id="reset" xlink:href="#resetDef" x="30" y="36" onmousedown="handleReset()"/>
                <g id="arrowUp" xlink:href="#dirArrow" transform="translate(30 24)" onmousedown="handlePan(0,-1)">
                  <use xlink:href="#rim" fill="#404040">
                        <set attributeName="fill" to="#808080" begin="arrowUp.mouseover" end="arrowUp.mouseout"/>
                  </use>
                  <path fill="none" stroke="white" stroke-width="1.5" d="M0,-3.0v7 M-2.5,-0.5L0,-3.0L2.5,-0.5"/>
                </g>
                <g id="arrowRight" xlink:href="#dirArrow" transform="rotate(90) translate(36 -43)" onmousedown="handlePan(1,0)">
                  <use xlink:href="#rim" fill="#404040">
                        <set attributeName="fill" to="#808080" begin="arrowRight.mouseover" end="arrowRight.mouseout"/>
                  </use>
                  <path fill="none" stroke="white" stroke-width="1.5" d="M0,-3.0v7 M-2.5,-0.5L0,-3.0L2.5,-0.5"/>
                </g>
                <g id="arrowDown" xlink:href="#dirArrow" transform="rotate(180) translate(-30 -48)" onmousedown="handlePan(0,1)">
                  <use xlink:href="#rim" fill="#404040">
                        <set attributeName="fill" to="#808080" begin="arrowDown.mouseover" end="arrowDown.mouseout"/>
                  </use>
                  <path fill="none" stroke="white" stroke-width="1.5" d="M0,-3.0v7 M-2.5,-0.5L0,-3.0L2.5,-0.5"/>
                </g>
                <g id="arrowLeft" xlink:href="#dirArrow" transform="rotate(270) translate(-36 17)" onmousedown="handlePan(-1,0)">
                  <use xlink:href="#rim" fill="#404040">
                        <set attributeName="fill" to="#808080" begin="arrowLeft.mouseover" end="arrowLeft.mouseout"/>
                  </use>
                  <path fill="none" stroke="white" stroke-width="1.5" d="M0,-3.0v7 M-2.5,-0.5L0,-3.0L2.5,-0.5"/>
                </g>
        </g>
        <svg viewBox="0 0 15 15" width="100%" height="30px" preserveAspectRatio="xMaxYMin meet">
         <g id="arrow_out" transform="scale(0.3 0.3)">
          <a xlink:href="classfwCom_1_1Slot_3_01std_1_1function_3_01R_07A_8_8_8_08_01_4_01_4__inherit__graph_org.svg" target="_base">
           <rect id="button" ry="5" rx="5" y="6" x="6" height="38" width="38"
                fill="#f2f5e9" fill-opacity="0.5" stroke="#606060" stroke-width="1.0"/>
           <path id="arrow"
             d="M 11.500037,31.436501 C 11.940474,20.09759 22.043105,11.32322 32.158766,21.979434 L 37.068811,17.246167 C 37.068811,17.246167 37.088388,32 37.088388,32 L 22.160133,31.978069 C 22.160133,31.978069 26.997745,27.140456 26.997745,27.140456 C 18.528582,18.264221 13.291696,25.230495 11.500037,31.436501 z"
             style="fill:#404040;"/>
          </a>
         </g>
        </svg>
</svg>
