<?xml version="1.0" encoding="UTF-8" standalone="no"?>
<!DOCTYPE svg PUBLIC "-//W3C//DTD SVG 1.1//EN"
 "http://www.w3.org/Graphics/SVG/1.1/DTD/svg11.dtd">
<!-- Generated by graphviz version 2.26.3 (20100126.1600)
 -->
<!-- Title: fwVtkIO::helper::Mesh::toVTKMesh Pages: 1 -->
<!--zoomable 510 -->
<svg id="main" version="1.1" xmlns="http://www.w3.org/2000/svg" xmlns:xlink="http://www.w3.org/1999/xlink" xml:space="preserve" onload="init(evt)">
<style type="text/css"><![CDATA[
.edge:hover path { stroke: red; }
.edge:hover polygon { stroke: red; fill: red; }
]]></style>
<script type="text/javascript"><![CDATA[
var edges = document.getElementsByTagName('g');
if (edges && edges.length) {
  for (var i=0;i<edges.length;i++) {
    if (edges[i].id.substr(0,4)=='edge') {
      edges[i].setAttribute('class','edge');
    }
  }
}
]]></script>
        <defs>
                <circle id="rim" cx="0" cy="0" r="7"/>
                <circle id="rim2" cx="0" cy="0" r="3.5"/>
                <g id="zoomPlus">
                        <use xlink:href="#rim" fill="#404040">
                                <set attributeName="fill" to="#808080" begin="zoomplus.mouseover" end="zoomplus.mouseout"/>
                        </use>
                        <path d="M-4,0h8M0,-4v8" fill="none" stroke="white" stroke-width="1.5" pointer-events="none"/>
                </g>
                <g id="zoomMin">
                        <use xlink:href="#rim" fill="#404040">
                                <set attributeName="fill" to="#808080" begin="zoomminus.mouseover" end="zoomminus.mouseout"/>
                        </use>
                        <path d="M-4,0h8" fill="none" stroke="white" stroke-width="1.5" pointer-events="none"/>
                </g>
                <g id="dirArrow">
                        <path fill="none" stroke="white" stroke-width="1.5" d="M0,-3.0v7 M-2.5,-0.5L0,-3.0L2.5,-0.5"/>
                </g>
               <g id="resetDef">
                       <use xlink:href="#rim2" fill="#404040">
                               <set attributeName="fill" to="#808080" begin="reset.mouseover" end="reset.mouseout"/>
                       </use>
               </g>
        </defs>

<script type="text/javascript">
var viewWidth = 482;
var viewHeight = 510;
var sectionId = 'dynsection-5';
</script>
<script xlink:href="svgpan.js"/>
<svg id="graph" class="graph">
<g id="viewport">
<title>fwVtkIO::helper::Mesh::toVTKMesh</title>
<polygon fill="white" stroke="white" points="-4,5 -4,-506 479,-506 479,5 -4,5"/>
<!-- Node1 -->
<g id="node1" class="node"><title>Node1</title>
<polygon fill="#bfbfbf" stroke="black" points="0.5,-234 0.5,-268 115.5,-268 115.5,-234 0.5,-234"/>
<text text-anchor="start" x="8.5" y="-255" font-family="Helvetica,sans-Serif" font-size="10.00">fwVtkIO::helper::Mesh</text>
<text text-anchor="middle" x="58" y="-242" font-family="Helvetica,sans-Serif" font-size="10.00">::toVTKMesh</text>
</g>
<!-- Node2 -->
<g id="node3" class="node"><title>Node2</title>
<a xlink:href="classfwComEd_1_1helper_1_1Mesh.html#aad34a8cb0bdc66ad0d03c56c6d62eb55" target="_top" xlink:title="Returns the internal corresponding array as a boost::multi_array_ref. ">
<polygon fill="white" stroke="black" points="173,-468 173,-502 295,-502 295,-468 173,-468"/>
<text text-anchor="start" x="181" y="-489" font-family="Helvetica,sans-Serif" font-size="10.00">fwComEd::helper::Mesh</text>
<text text-anchor="middle" x="234" y="-476" font-family="Helvetica,sans-Serif" font-size="10.00">::getCellData</text>
</a>
</g>
<!-- Node1&#45;&gt;Node2 -->
<g id="edge2" class="edge"><title>Node1&#45;&gt;Node2</title>
<path fill="none" stroke="midnightblue" d="M60.8528,-268.054C68.3536,-307.547 92.3226,-405.948 152,-459 155.579,-462.181 159.547,-464.974 163.752,-467.425"/>
<polygon fill="midnightblue" stroke="midnightblue" points="162.169,-470.546 172.665,-471.991 165.361,-464.316 162.169,-470.546"/>
</g>
<!-- Node3 -->
<g id="node5" class="node"><title>Node3</title>
<a xlink:href="classfwComEd_1_1helper_1_1Mesh.html#ad3ffc1c9f7b163b60ae7f3469436ad34" target="_top" xlink:title="Returns the internal corresponding array as a boost::multi_array_ref. ">
<polygon fill="white" stroke="black" points="173,-416 173,-450 295,-450 295,-416 173,-416"/>
<text text-anchor="start" x="181" y="-437" font-family="Helvetica,sans-Serif" font-size="10.00">fwComEd::helper::Mesh</text>
<text text-anchor="middle" x="234" y="-424" font-family="Helvetica,sans-Serif" font-size="10.00">::getCellDataOffsets</text>
</a>
</g>
<!-- Node1&#45;&gt;Node3 -->
<g id="edge4" class="edge"><title>Node1&#45;&gt;Node3</title>
<path fill="none" stroke="midnightblue" d="M63.7493,-268.326C75.2899,-300.453 104.33,-369.406 152,-407 155.593,-409.834 159.501,-412.361 163.596,-414.616"/>
<polygon fill="midnightblue" stroke="midnightblue" points="162.293,-417.875 172.813,-419.128 165.37,-411.588 162.293,-417.875"/>
</g>
<!-- Node4 -->
<g id="node7" class="node"><title>Node4</title>
<a xlink:href="classfwComEd_1_1helper_1_1Mesh.html#a58a002b566d6fb772c362c501e1833eb" target="_top" xlink:title="Returns the internal corresponding array as a boost::multi_array_ref. ">
<polygon fill="white" stroke="black" points="173,-364 173,-398 295,-398 295,-364 173,-364"/>
<text text-anchor="start" x="181" y="-385" font-family="Helvetica,sans-Serif" font-size="10.00">fwComEd::helper::Mesh</text>
<text text-anchor="middle" x="234" y="-372" font-family="Helvetica,sans-Serif" font-size="10.00">::getCellTypes</text>
</a>
</g>
<!-- Node1&#45;&gt;Node4 -->
<g id="edge6" class="edge"><title>Node1&#45;&gt;Node4</title>
<path fill="none" stroke="midnightblue" d="M69.2465,-268.334C85.0523,-291.364 115.971,-331.833 152,-355 155.604,-357.317 159.429,-359.442 163.382,-361.387"/>
<polygon fill="midnightblue" stroke="midnightblue" points="162.235,-364.709 172.791,-365.609 165.1,-358.322 162.235,-364.709"/>
</g>
<!-- Node5 -->
<g id="node9" class="node"><title>Node5</title>
<a xlink:href="classfwVtkIO_1_1helper_1_1Mesh.html#a8adecb26205f7dfe8cbf218fb59e1b04" target="_top" xlink:title="Update a vtkPolyData with cell color of fwData::Mesh. ">
<polygon fill="white" stroke="black" points="167.5,-312 167.5,-346 300.5,-346 300.5,-312 167.5,-312"/>
<text text-anchor="start" x="175.5" y="-333" font-family="Helvetica,sans-Serif" font-size="10.00">fwVtkIO::helper::Mesh</text>
<text text-anchor="middle" x="234" y="-320" font-family="Helvetica,sans-Serif" font-size="10.00">::updatePolyDataCellColor</text>
</a>
</g>
<!-- Node1&#45;&gt;Node5 -->
<g id="edge8" class="edge"><title>Node1&#45;&gt;Node5</title>
<path fill="none" stroke="midnightblue" d="M85.6469,-268.202C103.995,-279.136 128.871,-293.053 152,-303 156.399,-304.892 160.982,-306.718 165.635,-308.464"/>
<polygon fill="midnightblue" stroke="midnightblue" points="164.65,-311.83 175.245,-311.934 167.027,-305.246 164.65,-311.83"/>
</g>
<!-- Node7 -->
<g id="node13" class="node"><title>Node7</title>
<a xlink:href="classfwVtkIO_1_1helper_1_1Mesh.html#a88dad221d5b025f27f722066d6dec7fa" target="_top" xlink:title="Update a vtkPolyData with cell normals of fwData::Mesh. ">
<polygon fill="white" stroke="black" points="161,-260 161,-294 307,-294 307,-260 161,-260"/>
<text text-anchor="start" x="169" y="-281" font-family="Helvetica,sans-Serif" font-size="10.00">fwVtkIO::helper::Mesh</text>
<text text-anchor="middle" x="234" y="-268" font-family="Helvetica,sans-Serif" font-size="10.00">::updatePolyDataCellNormals</text>
</a>
</g>
<!-- Node1&#45;&gt;Node7 -->
<g id="edge12" class="edge"><title>Node1&#45;&gt;Node7</title>
<path fill="none" stroke="midnightblue" d="M115.629,-259.513C126.907,-261.179 138.944,-262.958 150.862,-264.718"/>
<polygon fill="midnightblue" stroke="midnightblue" points="150.421,-268.191 160.826,-266.19 151.444,-261.266 150.421,-268.191"/>
</g>
<!-- Node8 -->
<g id="node16" class="node"><title>Node8</title>
<a xlink:href="classfwVtkIO_1_1helper_1_1Mesh.html#ac44a7b651e3ed06c44fc18cc84d73510" target="_top" xlink:title="Update a vtkPolyData with cell texCoords of fwData::Mesh. ">
<polygon fill="white" stroke="black" points="155,-208 155,-242 313,-242 313,-208 155,-208"/>
<text text-anchor="start" x="163" y="-229" font-family="Helvetica,sans-Serif" font-size="10.00">fwVtkIO::helper::Mesh</text>
<text text-anchor="middle" x="234" y="-216" font-family="Helvetica,sans-Serif" font-size="10.00">::updatePolyDataCellTexCoords</text>
</a>
</g>
<!-- Node1&#45;&gt;Node8 -->
<g id="edge16" class="edge"><title>Node1&#45;&gt;Node8</title>
<path fill="none" stroke="midnightblue" d="M115.629,-242.487C125.028,-241.098 134.953,-239.632 144.897,-238.163"/>
<polygon fill="midnightblue" stroke="midnightblue" points="145.448,-241.62 154.829,-236.696 144.425,-234.695 145.448,-241.62"/>
</g>
<!-- Node9 -->
<g id="node19" class="node"><title>Node9</title>
<a xlink:href="classfwVtkIO_1_1helper_1_1Mesh.html#aa1c8b51d36cb2f2a1ea02db20ff0880f" target="_top" xlink:title="Update a vtkPolyData with point color of fwData::Mesh. ">
<polygon fill="white" stroke="black" points="165,-156 165,-190 303,-190 303,-156 165,-156"/>
<text text-anchor="start" x="173" y="-177" font-family="Helvetica,sans-Serif" font-size="10.00">fwVtkIO::helper::Mesh</text>
<text text-anchor="middle" x="234" y="-164" font-family="Helvetica,sans-Serif" font-size="10.00">::updatePolyDataPointColor</text>
</a>
</g>
<!-- Node1&#45;&gt;Node9 -->
<g id="edge20" class="edge"><title>Node1&#45;&gt;Node9</title>
<path fill="none" stroke="midnightblue" d="M85.6469,-233.798C103.995,-222.864 128.871,-208.947 152,-199 156.399,-197.108 160.982,-195.282 165.635,-193.536"/>
<polygon fill="midnightblue" stroke="midnightblue" points="167.027,-196.754 175.245,-190.066 164.65,-190.17 167.027,-196.754"/>
</g>
<!-- Node10 -->
<g id="node22" class="node"><title>Node10</title>
<a xlink:href="classfwVtkIO_1_1helper_1_1Mesh.html#a72bb2e49eff731c3fd0e189985f71dfb" target="_top" xlink:title="Update a vtkPolyData with point normals of fwData::Mesh. ">
<polygon fill="white" stroke="black" points="158,-104 158,-138 310,-138 310,-104 158,-104"/>
<text text-anchor="start" x="166" y="-125" font-family="Helvetica,sans-Serif" font-size="10.00">fwVtkIO::helper::Mesh</text>
<text text-anchor="middle" x="234" y="-112" font-family="Helvetica,sans-Serif" font-size="10.00">::updatePolyDataPointNormals</text>
</a>
</g>
<!-- Node1&#45;&gt;Node10 -->
<g id="edge24" class="edge"><title>Node1&#45;&gt;Node10</title>
<path fill="none" stroke="midnightblue" d="M69.2465,-233.666C85.0523,-210.636 115.971,-170.167 152,-147 154.473,-145.41 157.051,-143.91 159.702,-142.497"/>
<polygon fill="midnightblue" stroke="midnightblue" points="161.481,-145.525 168.958,-138.018 158.432,-139.224 161.481,-145.525"/>
</g>
<!-- Node11 -->
<g id="node25" class="node"><title>Node11</title>
<a xlink:href="classfwVtkIO_1_1helper_1_1Mesh.html#ab4fb3d508af3be5debf78b26be8658bc" target="_top" xlink:title="Update a vtkPolyData with ::fwData::Mesh::sptr points. ">
<polygon fill="white" stroke="black" points="174,-0 174,-34 294,-34 294,-0 174,-0"/>
<text text-anchor="start" x="182" y="-21" font-family="Helvetica,sans-Serif" font-size="10.00">fwVtkIO::helper::Mesh</text>
<text text-anchor="middle" x="234" y="-8" font-family="Helvetica,sans-Serif" font-size="10.00">::updatePolyDataPoints</text>
</a>
</g>
<!-- Node1&#45;&gt;Node11 -->
<g id="edge28" class="edge"><title>Node1&#45;&gt;Node11</title>
<path fill="none" stroke="midnightblue" d="M60.8528,-233.946C68.3536,-194.453 92.3226,-96.0522 152,-43 155.877,-39.5534 160.211,-36.5635 164.808,-33.9697"/>
<polygon fill="midnightblue" stroke="midnightblue" points="166.513,-37.031 173.919,-29.4542 163.404,-30.759 166.513,-37.031"/>
</g>
<!-- Node13 -->
<g id="node29" class="node"><title>Node13</title>
<a xlink:href="classfwVtkIO_1_1helper_1_1Mesh.html#ac9acb914d4c5fefa939fa1a4c8072b0c" target="_top" xlink:title="Update a vtkPolyData with point texCoords of fwData::Mesh. ">
<polygon fill="white" stroke="black" points="152.5,-52 152.5,-86 315.5,-86 315.5,-52 152.5,-52"/>
<text text-anchor="start" x="160.5" y="-73" font-family="Helvetica,sans-Serif" font-size="10.00">fwVtkIO::helper::Mesh</text>
<text text-anchor="middle" x="234" y="-60" font-family="Helvetica,sans-Serif" font-size="10.00">::updatePolyDataPointTexCoords</text>
</a>
</g>
<!-- Node1&#45;&gt;Node13 -->
<g id="edge32" class="edge"><title>Node1&#45;&gt;Node13</title>
<path fill="none" stroke="midnightblue" d="M63.7493,-233.674C75.2899,-201.547 104.33,-132.594 152,-95 153.763,-93.6099 155.601,-92.2934 157.5,-91.0467"/>
<polygon fill="midnightblue" stroke="midnightblue" points="159.278,-94.062 166.17,-86.0152 155.764,-88.0077 159.278,-94.062"/>
</g>
<!-- Node6 -->
<g id="node11" class="node"><title>Node6</title>
<a xlink:href="classfwComEd_1_1helper_1_1Array.html#a454626c01dea62da18bac37e36b568be" target="_top" xlink:title="Returns the begining/end of the buffer interpreted as a char buffer. ">
<polygon fill="white" stroke="black" points="352,-182 352,-216 474,-216 474,-182 352,-182"/>
<text text-anchor="start" x="360" y="-203" font-family="Helvetica,sans-Serif" font-size="10.00">fwComEd::helper::Array</text>
<text text-anchor="middle" x="413" y="-190" font-family="Helvetica,sans-Serif" font-size="10.00">::begin</text>
</a>
</g>
<!-- Node5&#45;&gt;Node6 -->
<g id="edge10" class="edge"><title>Node5&#45;&gt;Node6</title>
<path fill="none" stroke="midnightblue" d="M298.987,-311.895C304.928,-309.303 310.698,-306.351 316,-303 348.715,-282.323 377.734,-247.976 395.318,-224.452"/>
<polygon fill="midnightblue" stroke="midnightblue" points="398.187,-226.458 401.264,-216.32 392.536,-222.326 398.187,-226.458"/>
</g>
<!-- Node7&#45;&gt;Node6 -->
<g id="edge14" class="edge"><title>Node7&#45;&gt;Node6</title>
<path fill="none" stroke="midnightblue" d="M292.277,-259.994C300.333,-257.218 308.433,-254.195 316,-251 336.236,-242.455 357.858,-231.098 375.541,-221.178"/>
<polygon fill="midnightblue" stroke="midnightblue" points="377.435,-224.127 384.401,-216.144 373.977,-218.041 377.435,-224.127"/>
</g>
<!-- Node8&#45;&gt;Node6 -->
<g id="edge18" class="edge"><title>Node8&#45;&gt;Node6</title>
<path fill="none" stroke="midnightblue" d="M313.033,-213.52C322.593,-212.132 332.315,-210.72 341.754,-209.349"/>
<polygon fill="midnightblue" stroke="midnightblue" points="342.471,-212.781 351.864,-207.88 341.465,-205.854 342.471,-212.781"/>
</g>
<!-- Node9&#45;&gt;Node6 -->
<g id="edge22" class="edge"><title>Node9&#45;&gt;Node6</title>
<path fill="none" stroke="midnightblue" d="M303.206,-183.052C315.859,-184.89 329.084,-186.811 341.794,-188.657"/>
<polygon fill="midnightblue" stroke="midnightblue" points="341.458,-192.145 351.857,-190.119 342.464,-185.218 341.458,-192.145"/>
</g>
<!-- Node10&#45;&gt;Node6 -->
<g id="edge26" class="edge"><title>Node10&#45;&gt;Node6</title>
<path fill="none" stroke="midnightblue" d="M292.277,-138.006C300.333,-140.782 308.433,-143.805 316,-147 336.236,-155.545 357.858,-166.902 375.541,-176.822"/>
<polygon fill="midnightblue" stroke="midnightblue" points="373.977,-179.959 384.401,-181.856 377.435,-173.873 373.977,-179.959"/>
</g>
<!-- Node12 -->
<g id="node27" class="node"><title>Node12</title>
<a xlink:href="classfwComEd_1_1helper_1_1Mesh.html#ad001219292e78e4de2cc26673f942c7c" target="_top" xlink:title="Returns the internal corresponding array as a boost::multi_array_ref. ">
<polygon fill="white" stroke="black" points="352,-0 352,-34 474,-34 474,-0 352,-0"/>
<text text-anchor="start" x="360" y="-21" font-family="Helvetica,sans-Serif" font-size="10.00">fwComEd::helper::Mesh</text>
<text text-anchor="middle" x="413" y="-8" font-family="Helvetica,sans-Serif" font-size="10.00">::getPoints</text>
</a>
</g>
<!-- Node11&#45;&gt;Node12 -->
<g id="edge30" class="edge"><title>Node11&#45;&gt;Node12</title>
<path fill="none" stroke="midnightblue" d="M294.102,-17C309.349,-17 325.876,-17 341.622,-17"/>
<polygon fill="midnightblue" stroke="midnightblue" points="341.836,-20.5001 351.835,-17 341.835,-13.5001 341.836,-20.5001"/>
</g>
<!-- Node13&#45;&gt;Node6 -->
<g id="edge34" class="edge"><title>Node13&#45;&gt;Node6</title>
<path fill="none" stroke="midnightblue" d="M298.987,-86.1049C304.928,-88.6975 310.698,-91.6489 316,-95 348.715,-115.677 377.734,-150.024 395.318,-173.548"/>
<polygon fill="midnightblue" stroke="midnightblue" points="392.536,-175.674 401.264,-181.68 398.187,-171.542 392.536,-175.674"/>
</g>
</g>
</svg>
        <g id="navigator" transform="translate(0 0)" fill="#404254">
                <rect fill="#f2f5e9" fill-opacity="0.5" stroke="#606060" stroke-width=".5" x="0" y="0" width="60" height="60"/>
                <use id="zoomplus" xlink:href="#zoomPlus" x="17" y="9" onmousedown="handleZoom(evt,'in')"/>
                <use id="zoomminus" xlink:href="#zoomMin" x="42" y="9" onmousedown="handleZoom(evt,'out')"/>
                <use id="reset" xlink:href="#resetDef" x="30" y="36" onmousedown="handleReset()"/>
                <g id="arrowUp" xlink:href="#dirArrow" transform="translate(30 24)" onmousedown="handlePan(0,-1)">
                  <use xlink:href="#rim" fill="#404040">
                        <set attributeName="fill" to="#808080" begin="arrowUp.mouseover" end="arrowUp.mouseout"/>
                  </use>
                  <path fill="none" stroke="white" stroke-width="1.5" d="M0,-3.0v7 M-2.5,-0.5L0,-3.0L2.5,-0.5"/>
                </g>
                <g id="arrowRight" xlink:href="#dirArrow" transform="rotate(90) translate(36 -43)" onmousedown="handlePan(1,0)">
                  <use xlink:href="#rim" fill="#404040">
                        <set attributeName="fill" to="#808080" begin="arrowRight.mouseover" end="arrowRight.mouseout"/>
                  </use>
                  <path fill="none" stroke="white" stroke-width="1.5" d="M0,-3.0v7 M-2.5,-0.5L0,-3.0L2.5,-0.5"/>
                </g>
                <g id="arrowDown" xlink:href="#dirArrow" transform="rotate(180) translate(-30 -48)" onmousedown="handlePan(0,1)">
                  <use xlink:href="#rim" fill="#404040">
                        <set attributeName="fill" to="#808080" begin="arrowDown.mouseover" end="arrowDown.mouseout"/>
                  </use>
                  <path fill="none" stroke="white" stroke-width="1.5" d="M0,-3.0v7 M-2.5,-0.5L0,-3.0L2.5,-0.5"/>
                </g>
                <g id="arrowLeft" xlink:href="#dirArrow" transform="rotate(270) translate(-36 17)" onmousedown="handlePan(-1,0)">
                  <use xlink:href="#rim" fill="#404040">
                        <set attributeName="fill" to="#808080" begin="arrowLeft.mouseover" end="arrowLeft.mouseout"/>
                  </use>
                  <path fill="none" stroke="white" stroke-width="1.5" d="M0,-3.0v7 M-2.5,-0.5L0,-3.0L2.5,-0.5"/>
                </g>
        </g>
        <svg viewBox="0 0 15 15" width="100%" height="30px" preserveAspectRatio="xMaxYMin meet">
         <g id="arrow_out" transform="scale(0.3 0.3)">
          <a xlink:href="classfwVtkIO_1_1helper_1_1Mesh_a6f8618f0e77f5ed1290ef0c9d81a9e7a_cgraph_org.svg" target="_base">
           <rect id="button" ry="5" rx="5" y="6" x="6" height="38" width="38"
                fill="#f2f5e9" fill-opacity="0.5" stroke="#606060" stroke-width="1.0"/>
           <path id="arrow"
             d="M 11.500037,31.436501 C 11.940474,20.09759 22.043105,11.32322 32.158766,21.979434 L 37.068811,17.246167 C 37.068811,17.246167 37.088388,32 37.088388,32 L 22.160133,31.978069 C 22.160133,31.978069 26.997745,27.140456 26.997745,27.140456 C 18.528582,18.264221 13.291696,25.230495 11.500037,31.436501 z"
             style="fill:#404040;"/>
          </a>
         </g>
        </svg>
</svg>
