<?xml version="1.0" encoding="UTF-8" standalone="no"?>
<!DOCTYPE svg PUBLIC "-//W3C//DTD SVG 1.1//EN"
 "http://www.w3.org/Graphics/SVG/1.1/DTD/svg11.dtd">
<!-- Generated by graphviz version 2.26.3 (20100126.1600)
 -->
<!-- Title: fwGdcmIO::reader::tid::MeasurementReport::readSR Pages: 1 -->
<svg width="492pt" height="490pt"
 viewBox="0.00 0.00 492.00 490.00" xmlns="http://www.w3.org/2000/svg" xmlns:xlink="http://www.w3.org/1999/xlink">
<g id="graph1" class="graph" transform="scale(1 1) rotate(0) translate(4 486)">
<title>fwGdcmIO::reader::tid::MeasurementReport::readSR</title>
<polygon fill="white" stroke="white" points="-4,5 -4,-486 489,-486 489,5 -4,5"/>
<!-- Node1 -->
<g id="node1" class="node"><title>Node1</title>
<polygon fill="#bfbfbf" stroke="black" points="0.5,-213.5 0.5,-260.5 117.5,-260.5 117.5,-213.5 0.5,-213.5"/>
<text text-anchor="start" x="8.5" y="-247.5" font-family="Helvetica,sans-Serif" font-size="10.00">fwGdcmIO::reader::tid</text>
<text text-anchor="start" x="8.5" y="-234.5" font-family="Helvetica,sans-Serif" font-size="10.00">::MeasurementReport::</text>
<text text-anchor="middle" x="59" y="-221.5" font-family="Helvetica,sans-Serif" font-size="10.00">readSR</text>
</g>
<!-- Node2 -->
<g id="node3" class="node"><title>Node2</title>
<a xlink:href="classfwGdcmIO_1_1container_1_1sr_1_1DicomSRNode.html#a7c2799d7210bfa18927383c5a4a1543a" target="_top" xlink:title="Get Coded attribute. ">
<polygon fill="white" stroke="black" points="326.5,-316.5 326.5,-363.5 477.5,-363.5 477.5,-316.5 326.5,-316.5"/>
<text text-anchor="start" x="334.5" y="-350.5" font-family="Helvetica,sans-Serif" font-size="10.00">fwGdcmIO::container</text>
<text text-anchor="start" x="334.5" y="-337.5" font-family="Helvetica,sans-Serif" font-size="10.00">::sr::DicomSRNode::getCoded</text>
<text text-anchor="middle" x="402" y="-324.5" font-family="Helvetica,sans-Serif" font-size="10.00">Attribute</text>
</a>
</g>
<!-- Node1&#45;&gt;Node2 -->
<g id="edge2" class="edge"><title>Node1&#45;&gt;Node2</title>
<path fill="none" stroke="midnightblue" d="M92.7421,-260.77C110.28,-272.097 132.498,-284.907 154,-293 206.074,-312.599 267.499,-324.318 316.189,-331.153"/>
<polygon fill="midnightblue" stroke="midnightblue" points="315.997,-334.659 326.378,-332.538 316.94,-327.723 315.997,-334.659"/>
</g>
<!-- Node3 -->
<g id="node5" class="node"><title>Node3</title>
<a xlink:href="classfwGdcmIO_1_1container_1_1sr_1_1DicomSRNode.html#a57d396d35c50a5293cea96f15115558e" target="_top" xlink:title="Get Sub node container. ">
<polygon fill="white" stroke="black" points="320.5,-52.5 320.5,-99.5 483.5,-99.5 483.5,-52.5 320.5,-52.5"/>
<text text-anchor="start" x="328.5" y="-86.5" font-family="Helvetica,sans-Serif" font-size="10.00">fwGdcmIO::container</text>
<text text-anchor="start" x="328.5" y="-73.5" font-family="Helvetica,sans-Serif" font-size="10.00">::sr::DicomSRNode::getSubNode</text>
<text text-anchor="middle" x="402" y="-60.5" font-family="Helvetica,sans-Serif" font-size="10.00">Container</text>
</a>
</g>
<!-- Node1&#45;&gt;Node3 -->
<g id="edge4" class="edge"><title>Node1&#45;&gt;Node3</title>
<path fill="none" stroke="midnightblue" d="M97.751,-213.266C114.77,-203.183 135.135,-191.572 154,-182 225.874,-145.531 245.717,-140.271 320,-109 324.367,-107.162 328.873,-105.287 333.422,-103.411"/>
<polygon fill="midnightblue" stroke="midnightblue" points="334.862,-106.603 342.786,-99.5702 332.206,-100.127 334.862,-106.603"/>
</g>
<!-- Node4 -->
<g id="node7" class="node"><title>Node4</title>
<a xlink:href="classfwGdcmIO_1_1reader_1_1tid_1_1Fiducial.html#a1ae5908e2c27608344a2627b6ce07d7e" target="_top" xlink:title="Read a fiducial node. ">
<polygon fill="white" stroke="black" points="162.5,-250 162.5,-284 275.5,-284 275.5,-250 162.5,-250"/>
<text text-anchor="start" x="170.5" y="-271" font-family="Helvetica,sans-Serif" font-size="10.00">fwGdcmIO::reader::tid</text>
<text text-anchor="middle" x="219" y="-258" font-family="Helvetica,sans-Serif" font-size="10.00">::Fiducial::readNode</text>
</a>
</g>
<!-- Node1&#45;&gt;Node4 -->
<g id="edge6" class="edge"><title>Node1&#45;&gt;Node4</title>
<path fill="none" stroke="midnightblue" d="M117.67,-248.001C128.982,-250.122 140.909,-252.358 152.451,-254.522"/>
<polygon fill="midnightblue" stroke="midnightblue" points="151.997,-257.998 162.47,-256.401 153.287,-251.118 151.997,-257.998"/>
</g>
<!-- Node10 -->
<g id="node21" class="node"><title>Node10</title>
<a xlink:href="classfwGdcmIO_1_1reader_1_1tid_1_1Measurement.html#ac5729ad25d8d61e02befa5f41cb575b9" target="_top" xlink:title="Read a measurement node. ">
<polygon fill="white" stroke="black" points="154,-191 154,-225 284,-225 284,-191 154,-191"/>
<text text-anchor="start" x="162" y="-212" font-family="Helvetica,sans-Serif" font-size="10.00">fwGdcmIO::reader::tid</text>
<text text-anchor="middle" x="219" y="-199" font-family="Helvetica,sans-Serif" font-size="10.00">::Measurement::readNode</text>
</a>
</g>
<!-- Node1&#45;&gt;Node10 -->
<g id="edge22" class="edge"><title>Node1&#45;&gt;Node10</title>
<path fill="none" stroke="midnightblue" d="M117.67,-226.366C126.223,-224.816 135.128,-223.202 143.952,-221.602"/>
<polygon fill="midnightblue" stroke="midnightblue" points="144.642,-225.035 153.857,-219.807 143.393,-218.147 144.642,-225.035"/>
</g>
<!-- Node4&#45;&gt;Node2 -->
<g id="edge10" class="edge"><title>Node4&#45;&gt;Node2</title>
<path fill="none" stroke="midnightblue" d="M261.905,-284.115C283.263,-292.635 309.596,-303.139 333.646,-312.733"/>
<polygon fill="midnightblue" stroke="midnightblue" points="332.5,-316.044 343.085,-316.499 335.094,-309.542 332.5,-316.044"/>
</g>
<!-- Node4&#45;&gt;Node3 -->
<g id="edge18" class="edge"><title>Node4&#45;&gt;Node3</title>
<path fill="none" stroke="midnightblue" d="M264.805,-249.891C271.989,-245.589 278.759,-240.341 284,-234 320.832,-189.438 281.261,-151.915 320,-109 320.771,-108.146 321.568,-107.313 322.387,-106.502"/>
<polygon fill="midnightblue" stroke="midnightblue" points="324.972,-108.898 330.327,-99.7567 320.44,-103.564 324.972,-108.898"/>
</g>
<!-- Node5 -->
<g id="node9" class="node"><title>Node5</title>
<a xlink:href="classfwGdcmIO_1_1reader_1_1tid_1_1Fiducial.html#a4fea2a1e7fb11c2648a5075ece93ea50" target="_top" xlink:title="Add a landmark into the image. ">
<polygon fill="white" stroke="black" points="341.5,-448 341.5,-482 462.5,-482 462.5,-448 341.5,-448"/>
<text text-anchor="start" x="349.5" y="-469" font-family="Helvetica,sans-Serif" font-size="10.00">fwGdcmIO::reader::tid</text>
<text text-anchor="middle" x="402" y="-456" font-family="Helvetica,sans-Serif" font-size="10.00">::Fiducial::addLandmark</text>
</a>
</g>
<!-- Node4&#45;&gt;Node5 -->
<g id="edge8" class="edge"><title>Node4&#45;&gt;Node5</title>
<path fill="none" stroke="midnightblue" d="M224.39,-284.204C236.085,-318.734 267.081,-396.777 320,-439 323.743,-441.986 327.835,-444.633 332.129,-446.977"/>
<polygon fill="midnightblue" stroke="midnightblue" points="330.658,-450.153 341.181,-451.377 333.718,-443.858 330.658,-450.153"/>
</g>
<!-- Node6 -->
<g id="node12" class="node"><title>Node6</title>
<a xlink:href="classfwGdcmIO_1_1container_1_1sr_1_1DicomSRImageNode.html#a2f65fdeb23c3ddc094cc53b12faa559a" target="_top" xlink:title="Get Frame number. ">
<polygon fill="white" stroke="black" points="337,-184.5 337,-231.5 467,-231.5 467,-184.5 337,-184.5"/>
<text text-anchor="start" x="345" y="-218.5" font-family="Helvetica,sans-Serif" font-size="10.00">fwGdcmIO::container</text>
<text text-anchor="start" x="345" y="-205.5" font-family="Helvetica,sans-Serif" font-size="10.00">::sr::DicomSRImageNode</text>
<text text-anchor="middle" x="402" y="-192.5" font-family="Helvetica,sans-Serif" font-size="10.00">::getFrameNumber</text>
</a>
</g>
<!-- Node4&#45;&gt;Node6 -->
<g id="edge12" class="edge"><title>Node4&#45;&gt;Node6</title>
<path fill="none" stroke="midnightblue" d="M271.931,-249.935C289.19,-244.37 308.69,-238.083 327.24,-232.103"/>
<polygon fill="midnightblue" stroke="midnightblue" points="328.393,-235.409 336.837,-229.009 326.245,-228.746 328.393,-235.409"/>
</g>
<!-- Node7 -->
<g id="node14" class="node"><title>Node7</title>
<a xlink:href="classfwGdcmIO_1_1container_1_1sr_1_1DicomSRSCoordNode.html#a9eaa2156e38061adc9b6d5bb8de7626d" target="_top" xlink:title="Get Graphic data container. ">
<polygon fill="white" stroke="black" points="334,-118.5 334,-165.5 470,-165.5 470,-118.5 334,-118.5"/>
<text text-anchor="start" x="342" y="-152.5" font-family="Helvetica,sans-Serif" font-size="10.00">fwGdcmIO::container</text>
<text text-anchor="start" x="342" y="-139.5" font-family="Helvetica,sans-Serif" font-size="10.00">::sr::DicomSRSCoordNode</text>
<text text-anchor="middle" x="402" y="-126.5" font-family="Helvetica,sans-Serif" font-size="10.00">::getGraphicDataContainer</text>
</a>
</g>
<!-- Node4&#45;&gt;Node7 -->
<g id="edge14" class="edge"><title>Node4&#45;&gt;Node7</title>
<path fill="none" stroke="midnightblue" d="M261.099,-249.951C269.242,-245.504 277.31,-240.187 284,-234 306.552,-213.143 296.56,-194.854 320,-175 321.713,-173.549 323.497,-172.157 325.34,-170.82"/>
<polygon fill="midnightblue" stroke="midnightblue" points="327.299,-173.721 333.748,-165.315 323.465,-167.865 327.299,-173.721"/>
</g>
<!-- Node8 -->
<g id="node16" class="node"><title>Node8</title>
<a xlink:href="classfwGdcmIO_1_1container_1_1sr_1_1DicomSRSCoord3DNode.html#a33cf7f45a5c7ebb5a3f3b4b41dcf3201" target="_top" xlink:title="Get Graphic data container. ">
<polygon fill="white" stroke="black" points="327.5,-250.5 327.5,-297.5 476.5,-297.5 476.5,-250.5 327.5,-250.5"/>
<text text-anchor="start" x="335.5" y="-284.5" font-family="Helvetica,sans-Serif" font-size="10.00">fwGdcmIO::container</text>
<text text-anchor="start" x="335.5" y="-271.5" font-family="Helvetica,sans-Serif" font-size="10.00">::sr::DicomSRSCoord3DNode</text>
<text text-anchor="middle" x="402" y="-258.5" font-family="Helvetica,sans-Serif" font-size="10.00">::getGraphicDataContainer</text>
</a>
</g>
<!-- Node4&#45;&gt;Node8 -->
<g id="edge16" class="edge"><title>Node4&#45;&gt;Node8</title>
<path fill="none" stroke="midnightblue" d="M275.899,-269.176C288.986,-269.677 303.18,-270.22 317.165,-270.755"/>
<polygon fill="midnightblue" stroke="midnightblue" points="317.166,-274.257 327.293,-271.142 317.434,-267.263 317.166,-274.257"/>
</g>
<!-- Node9 -->
<g id="node19" class="node"><title>Node9</title>
<a xlink:href="classfwGdcmIO_1_1container_1_1sr_1_1DicomSRTextNode.html#a4f29913fbfad7b241c0b45aac7c81d43" target="_top" xlink:title="Get Text value. ">
<polygon fill="white" stroke="black" points="341,-382.5 341,-429.5 463,-429.5 463,-382.5 341,-382.5"/>
<text text-anchor="start" x="349" y="-416.5" font-family="Helvetica,sans-Serif" font-size="10.00">fwGdcmIO::container</text>
<text text-anchor="start" x="349" y="-403.5" font-family="Helvetica,sans-Serif" font-size="10.00">::sr::DicomSRTextNode</text>
<text text-anchor="middle" x="402" y="-390.5" font-family="Helvetica,sans-Serif" font-size="10.00">::getTextValue</text>
</a>
</g>
<!-- Node4&#45;&gt;Node9 -->
<g id="edge20" class="edge"><title>Node4&#45;&gt;Node9</title>
<path fill="none" stroke="midnightblue" d="M231.579,-284.227C249.123,-307.201 282.978,-347.884 320,-373 323.744,-375.54 327.714,-377.933 331.807,-380.178"/>
<polygon fill="midnightblue" stroke="midnightblue" points="330.431,-383.406 340.926,-384.86 333.628,-377.179 330.431,-383.406"/>
</g>
<!-- Node10&#45;&gt;Node2 -->
<g id="edge26" class="edge"><title>Node10&#45;&gt;Node2</title>
<path fill="none" stroke="midnightblue" d="M262.012,-225.174C269.904,-229.565 277.644,-234.829 284,-241 307.973,-264.275 295.035,-284.792 320,-307 321.34,-308.192 322.729,-309.344 324.159,-310.457"/>
<polygon fill="midnightblue" stroke="midnightblue" points="322.538,-313.593 332.75,-316.415 326.527,-307.84 322.538,-313.593"/>
</g>
<!-- Node10&#45;&gt;Node3 -->
<g id="edge34" class="edge"><title>Node10&#45;&gt;Node3</title>
<path fill="none" stroke="midnightblue" d="M232.754,-190.858C250.821,-169.283 284.446,-132.243 320,-109 322.408,-107.426 324.904,-105.905 327.461,-104.438"/>
<polygon fill="midnightblue" stroke="midnightblue" points="329.2,-107.477 336.353,-99.6612 325.887,-101.31 329.2,-107.477"/>
</g>
<!-- Node10&#45;&gt;Node6 -->
<g id="edge28" class="edge"><title>Node10&#45;&gt;Node6</title>
<path fill="none" stroke="midnightblue" d="M284.034,-208C297.84,-208 312.525,-208 326.677,-208"/>
<polygon fill="midnightblue" stroke="midnightblue" points="326.867,-211.5 336.867,-208 326.867,-204.5 326.867,-211.5"/>
</g>
<!-- Node10&#45;&gt;Node7 -->
<g id="edge30" class="edge"><title>Node10&#45;&gt;Node7</title>
<path fill="none" stroke="midnightblue" d="M266.603,-190.832C285.071,-184.171 306.665,-176.383 327.114,-169.008"/>
<polygon fill="midnightblue" stroke="midnightblue" points="328.507,-172.227 336.726,-165.541 326.132,-165.642 328.507,-172.227"/>
</g>
<!-- Node10&#45;&gt;Node8 -->
<g id="edge32" class="edge"><title>Node10&#45;&gt;Node8</title>
<path fill="none" stroke="midnightblue" d="M266.603,-225.168C285.071,-231.829 306.665,-239.617 327.114,-246.992"/>
<polygon fill="midnightblue" stroke="midnightblue" points="326.132,-250.358 336.726,-250.459 328.507,-243.773 326.132,-250.358"/>
</g>
<!-- Node11 -->
<g id="node23" class="node"><title>Node11</title>
<a xlink:href="classfwGdcmIO_1_1reader_1_1tid_1_1Measurement.html#a989a0a1a869539e86a264a6d6ad876e7" target="_top" xlink:title="Add a distance into the image. ">
<polygon fill="white" stroke="black" points="330.5,-0 330.5,-34 473.5,-34 473.5,-0 330.5,-0"/>
<text text-anchor="start" x="338.5" y="-21" font-family="Helvetica,sans-Serif" font-size="10.00">fwGdcmIO::reader::tid</text>
<text text-anchor="middle" x="402" y="-8" font-family="Helvetica,sans-Serif" font-size="10.00">::Measurement::addDistance</text>
</a>
</g>
<!-- Node10&#45;&gt;Node11 -->
<g id="edge24" class="edge"><title>Node10&#45;&gt;Node11</title>
<path fill="none" stroke="midnightblue" d="M224.781,-190.98C236.986,-157.595 268.565,-83.2727 320,-43 321.768,-41.6161 323.61,-40.305 325.513,-39.0631"/>
<polygon fill="midnightblue" stroke="midnightblue" points="327.287,-42.0806 334.196,-34.0485 323.786,-36.0189 327.287,-42.0806"/>
</g>
</g>
</svg>
