<?xml version="1.0" encoding="UTF-8" standalone="no"?>
<!DOCTYPE svg PUBLIC "-//W3C//DTD SVG 1.1//EN"
 "http://www.w3.org/Graphics/SVG/1.1/DTD/svg11.dtd">
<!-- Generated by graphviz version 2.36.0 (20140111.2315)
 -->
<!-- Title: fwGdcmIO::helper::StructuredReport::readSubNodeContainer Pages: 1 -->
<svg width="844pt" height="87pt"
 viewBox="0.00 0.00 844.00 87.00" xmlns="http://www.w3.org/2000/svg" xmlns:xlink="http://www.w3.org/1999/xlink">
<g id="graph0" class="graph" transform="scale(1 1) rotate(0) translate(4 83)">
<title>fwGdcmIO::helper::StructuredReport::readSubNodeContainer</title>
<polygon fill="white" stroke="none" points="-4,4 -4,-83 840,-83 840,4 -4,4"/>
<!-- Node1 -->
<g id="node1" class="node"><title>Node1</title>
<polygon fill="#bfbfbf" stroke="black" points="0.5,-0 0.5,-30 153.5,-30 153.5,-0 0.5,-0"/>
<text text-anchor="start" x="8.5" y="-18" font-family="Helvetica,sans-Serif" font-size="10.00">fwGdcmIO::helper::Structured</text>
<text text-anchor="middle" x="77" y="-7" font-family="Helvetica,sans-Serif" font-size="10.00">Report::readSubNodeContainer</text>
</g>
<!-- Node2 -->
<g id="node2" class="node"><title>Node2</title>
<g id="a_node2"><a xlink:href="classfwGdcmIO_1_1helper_1_1StructuredReport.html#a657a338a2860638988765197820a3b36" target="_top" xlink:title="Read a Structured Report. ">
<polygon fill="white" stroke="black" points="190.5,-49 190.5,-79 337.5,-79 337.5,-49 190.5,-49"/>
<text text-anchor="start" x="198.5" y="-67" font-family="Helvetica,sans-Serif" font-size="10.00">fwGdcmIO::helper::Structured</text>
<text text-anchor="middle" x="264" y="-56" font-family="Helvetica,sans-Serif" font-size="10.00">Report::readSR</text>
</a>
</g>
</g>
<!-- Node1&#45;&gt;Node2 -->
<g id="edge1" class="edge"><title>Node1&#45;&gt;Node2</title>
<path fill="none" stroke="midnightblue" d="M144.535,-32.6229C164.775,-37.9837 186.82,-43.8225 206.344,-48.9938"/>
<polygon fill="midnightblue" stroke="midnightblue" points="145.326,-29.2117 134.763,-30.0346 143.534,-35.9784 145.326,-29.2117"/>
</g>
<!-- Node6 -->
<g id="node6" class="node"><title>Node6</title>
<g id="a_node6"><a xlink:href="classfwGdcmIO_1_1helper_1_1StructuredReport.html#ab75588a691cedb860ea99f70f9259c6c" target="_top" xlink:title="Read a sub node and add it as a child to the parent node. ">
<polygon fill="white" stroke="black" points="190.5,-0 190.5,-30 337.5,-30 337.5,-0 190.5,-0"/>
<text text-anchor="start" x="198.5" y="-18" font-family="Helvetica,sans-Serif" font-size="10.00">fwGdcmIO::helper::Structured</text>
<text text-anchor="middle" x="264" y="-7" font-family="Helvetica,sans-Serif" font-size="10.00">Report::readSubNode</text>
</a>
</g>
</g>
<!-- Node1&#45;&gt;Node6 -->
<g id="edge5" class="edge"><title>Node1&#45;&gt;Node6</title>
<path fill="none" stroke="midnightblue" d="M163.586,-8.26679C172.556,-8.22315 181.613,-8.26457 190.417,-8.39105"/>
<polygon fill="midnightblue" stroke="midnightblue" points="163.483,-4.76743 153.513,-8.3522 163.543,-11.7672 163.483,-4.76743"/>
</g>
<!-- Node3 -->
<g id="node3" class="node"><title>Node3</title>
<g id="a_node3"><a xlink:href="classfwGdcmIO_1_1reader_1_1ie_1_1Document.html#ae6da9916273eb44ed3e2373ae9afcd35" target="_top" xlink:title="Read the Structured Report. ">
<polygon fill="white" stroke="black" points="374,-49 374,-79 484,-79 484,-49 374,-49"/>
<text text-anchor="start" x="382" y="-67" font-family="Helvetica,sans-Serif" font-size="10.00">fwGdcmIO::reader::ie</text>
<text text-anchor="middle" x="429" y="-56" font-family="Helvetica,sans-Serif" font-size="10.00">::Document::readSR</text>
</a>
</g>
</g>
<!-- Node2&#45;&gt;Node3 -->
<g id="edge2" class="edge"><title>Node2&#45;&gt;Node3</title>
<path fill="none" stroke="midnightblue" d="M348.111,-64C356.803,-64 365.472,-64 373.72,-64"/>
<polygon fill="midnightblue" stroke="midnightblue" points="347.918,-60.5001 337.918,-64 347.918,-67.5001 347.918,-60.5001"/>
</g>
<!-- Node4 -->
<g id="node4" class="node"><title>Node4</title>
<g id="a_node4"><a xlink:href="classfwGdcmIO_1_1reader_1_1iod_1_1ComprehensiveSRIOD.html#a748271e420dd95c9547a223b0e7a3568" target="_top" xlink:title="Read DICOM file. ">
<polygon fill="white" stroke="black" points="520,-49 520,-79 668,-79 668,-49 520,-49"/>
<text text-anchor="start" x="528" y="-67" font-family="Helvetica,sans-Serif" font-size="10.00">fwGdcmIO::reader::iod</text>
<text text-anchor="middle" x="594" y="-56" font-family="Helvetica,sans-Serif" font-size="10.00">::ComprehensiveSRIOD::read</text>
</a>
</g>
</g>
<!-- Node3&#45;&gt;Node4 -->
<g id="edge3" class="edge"><title>Node3&#45;&gt;Node4</title>
<path fill="none" stroke="midnightblue" d="M494.331,-64C502.697,-64 511.315,-64 519.812,-64"/>
<polygon fill="midnightblue" stroke="midnightblue" points="494.277,-60.5001 484.277,-64 494.277,-67.5001 494.277,-60.5001"/>
</g>
<!-- Node5 -->
<g id="node5" class="node"><title>Node5</title>
<g id="a_node5"><a xlink:href="classfwGdcmIO_1_1reader_1_1Series.html#aa27422bf5f7c9a5aa53793d0b1223c04" target="_top" xlink:title="Read DICOM series. ">
<polygon fill="white" stroke="black" points="704.5,-49 704.5,-79 835.5,-79 835.5,-49 704.5,-49"/>
<text text-anchor="start" x="712.5" y="-67" font-family="Helvetica,sans-Serif" font-size="10.00">fwGdcmIO::reader::Series</text>
<text text-anchor="middle" x="770" y="-56" font-family="Helvetica,sans-Serif" font-size="10.00">::read</text>
</a>
</g>
</g>
<!-- Node4&#45;&gt;Node5 -->
<g id="edge4" class="edge"><title>Node4&#45;&gt;Node5</title>
<path fill="none" stroke="midnightblue" d="M678.303,-64C687.087,-64 695.922,-64 704.447,-64"/>
<polygon fill="midnightblue" stroke="midnightblue" points="678.035,-60.5001 668.035,-64 678.035,-67.5001 678.035,-60.5001"/>
</g>
<!-- Node6&#45;&gt;Node1 -->
<g id="edge6" class="edge"><title>Node6&#45;&gt;Node1</title>
<path fill="none" stroke="midnightblue" d="M180.387,-21.7156C171.441,-21.7781 162.37,-21.7555 153.513,-21.6478"/>
<polygon fill="midnightblue" stroke="midnightblue" points="180.455,-25.2152 190.417,-21.609 180.38,-18.2156 180.455,-25.2152"/>
</g>
</g>
</svg>
