<?xml version="1.0" encoding="UTF-8" standalone="no"?>
<!DOCTYPE svg PUBLIC "-//W3C//DTD SVG 1.1//EN"
 "http://www.w3.org/Graphics/SVG/1.1/DTD/svg11.dtd">
<!-- Generated by graphviz version 2.36.0 (20140111.2315)
 -->
<!-- Title: visuVTKAdaptor::SImageText Pages: 1 -->
<!--zoomable 489 -->
<svg id="main" version="1.1" xmlns="http://www.w3.org/2000/svg" xmlns:xlink="http://www.w3.org/1999/xlink" xml:space="preserve" onload="init(evt)">
<style type="text/css"><![CDATA[
.edge:hover path { stroke: red; }
.edge:hover polygon { stroke: red; fill: red; }
]]></style>
<script type="text/javascript"><![CDATA[
var edges = document.getElementsByTagName('g');
if (edges && edges.length) {
  for (var i=0;i<edges.length;i++) {
    if (edges[i].id.substr(0,4)=='edge') {
      edges[i].setAttribute('class','edge');
    }
  }
}
]]></script>
        <defs>
                <circle id="rim" cx="0" cy="0" r="7"/>
                <circle id="rim2" cx="0" cy="0" r="3.5"/>
                <g id="zoomPlus">
                        <use xlink:href="#rim" fill="#404040">
                                <set attributeName="fill" to="#808080" begin="zoomplus.mouseover" end="zoomplus.mouseout"/>
                        </use>
                        <path d="M-4,0h8M0,-4v8" fill="none" stroke="white" stroke-width="1.5" pointer-events="none"/>
                </g>
                <g id="zoomMin">
                        <use xlink:href="#rim" fill="#404040">
                                <set attributeName="fill" to="#808080" begin="zoomminus.mouseover" end="zoomminus.mouseout"/>
                        </use>
                        <path d="M-4,0h8" fill="none" stroke="white" stroke-width="1.5" pointer-events="none"/>
                </g>
                <g id="dirArrow">
                        <path fill="none" stroke="white" stroke-width="1.5" d="M0,-3.0v7 M-2.5,-0.5L0,-3.0L2.5,-0.5"/>
                </g>
               <g id="resetDef">
                       <use xlink:href="#rim2" fill="#404040">
                               <set attributeName="fill" to="#808080" begin="reset.mouseover" end="reset.mouseout"/>
                       </use>
               </g>
        </defs>

<script type="text/javascript">
var viewWidth = 2174;
var viewHeight = 489;
var sectionId = 'dynsection-1';
</script>
<script xlink:href="svgpan.js"/>
<svg id="graph" class="graph">
<g id="viewport">
<title>visuVTKAdaptor::SImageText</title>
<polygon fill="white" stroke="none" points="-4,4 -4,-485 2170,-485 2170,4 -4,4"/>
<!-- Node1 -->
<g id="node1" class="node"><title>Node1</title>
<polygon fill="#bfbfbf" stroke="black" points="2018.5,-22.5 2018.5,-41.5 2165.5,-41.5 2165.5,-22.5 2018.5,-22.5"/>
<text text-anchor="middle" x="2092" y="-29.5" font-family="Helvetica,sans-Serif" font-size="10.00">visuVTKAdaptor::SImageText</text>
</g>
<!-- Node2 -->
<g id="node2" class="node"><title>Node2</title>
<g id="a_node2"><a xlink:href="classvisuVTKAdaptor_1_1SText.html" target="_top" xlink:title="Displays a text. ">
<polygon fill="white" stroke="black" points="1860,-49.5 1860,-68.5 1980,-68.5 1980,-49.5 1860,-49.5"/>
<text text-anchor="middle" x="1920" y="-56.5" font-family="Helvetica,sans-Serif" font-size="10.00">visuVTKAdaptor::SText</text>
</a>
</g>
</g>
<!-- Node2&#45;&gt;Node1 -->
<g id="edge1" class="edge"><title>Node2&#45;&gt;Node1</title>
<path fill="none" stroke="midnightblue" d="M1990.58,-47.9484C2003.99,-45.8189 2017.93,-43.6053 2031,-41.5293"/>
<polygon fill="midnightblue" stroke="midnightblue" points="1989.78,-44.5314 1980.46,-49.5567 1990.88,-51.4447 1989.78,-44.5314"/>
</g>
<!-- Node3 -->
<g id="node3" class="node"><title>Node3</title>
<g id="a_node3"><a xlink:href="classfwRenderVTK_1_1IAdaptor.html" target="_top" xlink:title="Base class for VTK adaptors. ">
<polygon fill="white" stroke="black" points="1700.5,-194.5 1700.5,-213.5 1821.5,-213.5 1821.5,-194.5 1700.5,-194.5"/>
<text text-anchor="middle" x="1761" y="-201.5" font-family="Helvetica,sans-Serif" font-size="10.00">fwRenderVTK::IAdaptor</text>
</a>
</g>
</g>
<!-- Node3&#45;&gt;Node2 -->
<g id="edge2" class="edge"><title>Node3&#45;&gt;Node2</title>
<path fill="none" stroke="midnightblue" d="M1779.83,-187.53C1812.73,-157.145 1882.03,-93.1469 1908.46,-68.739"/>
<polygon fill="midnightblue" stroke="midnightblue" points="1777.27,-185.13 1772.3,-194.486 1782.02,-190.273 1777.27,-185.13"/>
</g>
<!-- Node4 -->
<g id="node4" class="node"><title>Node4</title>
<g id="a_node4"><a xlink:href="classfwServices_1_1IService.html" target="_top" xlink:title="Base class for all services. ">
<polygon fill="white" stroke="black" points="1456.5,-194.5 1456.5,-213.5 1563.5,-213.5 1563.5,-194.5 1456.5,-194.5"/>
<text text-anchor="middle" x="1510" y="-201.5" font-family="Helvetica,sans-Serif" font-size="10.00">fwServices::IService</text>
</a>
</g>
</g>
<!-- Node4&#45;&gt;Node3 -->
<g id="edge3" class="edge"><title>Node4&#45;&gt;Node3</title>
<path fill="none" stroke="midnightblue" d="M1573.62,-204C1612.39,-204 1661.89,-204 1700.14,-204"/>
<polygon fill="midnightblue" stroke="midnightblue" points="1573.5,-200.5 1563.5,-204 1573.5,-207.5 1573.5,-200.5"/>
</g>
<!-- Node5 -->
<g id="node5" class="node"><title>Node5</title>
<g id="a_node5"><a xlink:href="classfwTools_1_1Object.html" target="_top" xlink:title="Define Base class for FW4SPL objects and services. ">
<polygon fill="white" stroke="black" points="385,-325.5 385,-344.5 471,-344.5 471,-325.5 385,-325.5"/>
<text text-anchor="middle" x="428" y="-332.5" font-family="Helvetica,sans-Serif" font-size="10.00">fwTools::Object</text>
</a>
</g>
</g>
<!-- Node5&#45;&gt;Node4 -->
<g id="edge4" class="edge"><title>Node5&#45;&gt;Node4</title>
<path fill="none" stroke="midnightblue" d="M481.059,-339.241C543.833,-343.981 652.564,-351 746,-351 746,-351 746,-351 1237,-351 1313.25,-351 1352.1,-388.863 1408,-337 1445.6,-302.113 1390.99,-260.49 1426,-223 1433.97,-214.465 1444.93,-209.388 1456.26,-206.448"/>
<polygon fill="midnightblue" stroke="midnightblue" points="481.251,-335.745 471.013,-338.472 480.717,-342.725 481.251,-335.745"/>
</g>
<!-- Node6 -->
<g id="node6" class="node"><title>Node6</title>
<g id="a_node6"><a xlink:href="classfwCore_1_1BaseObject.html" target="_top" xlink:title="Base class for all FW4SPL&#39;s classes. ">
<polygon fill="white" stroke="black" points="170.5,-357.5 170.5,-376.5 275.5,-376.5 275.5,-357.5 170.5,-357.5"/>
<text text-anchor="middle" x="223" y="-364.5" font-family="Helvetica,sans-Serif" font-size="10.00">fwCore::BaseObject</text>
</a>
</g>
</g>
<!-- Node6&#45;&gt;Node5 -->
<g id="edge5" class="edge"><title>Node6&#45;&gt;Node5</title>
<path fill="none" stroke="midnightblue" d="M285.922,-357.239C317.989,-352.184 356.305,-346.144 384.907,-341.635"/>
<polygon fill="midnightblue" stroke="midnightblue" points="285.084,-353.828 275.751,-358.842 286.174,-360.742 285.084,-353.828"/>
</g>
<!-- Node27 -->
<g id="node27" class="node"><title>Node27</title>
<g id="a_node27"><a xlink:href="structfwCom_1_1SlotConnectionBase.html" target="_top" xlink:title="Base class for Slot connection implementation. This class is for internal use purpose. ">
<polygon fill="white" stroke="black" points="356.5,-381.5 356.5,-400.5 499.5,-400.5 499.5,-381.5 356.5,-381.5"/>
<text text-anchor="middle" x="428" y="-388.5" font-family="Helvetica,sans-Serif" font-size="10.00">fwCom::SlotConnectionBase</text>
</a>
</g>
</g>
<!-- Node6&#45;&gt;Node27 -->
<g id="edge29" class="edge"><title>Node6&#45;&gt;Node27</title>
<path fill="none" stroke="midnightblue" d="M285.737,-374.299C307.977,-376.928 333.243,-379.915 356.196,-382.629"/>
<polygon fill="midnightblue" stroke="midnightblue" points="286.093,-370.817 275.751,-373.118 285.271,-377.768 286.093,-370.817"/>
</g>
<!-- Node7 -->
<g id="node7" class="node"><title>Node7</title>
<polygon fill="white" stroke="#bfbfbf" points="0.5,-352 0.5,-382 131.5,-382 131.5,-352 0.5,-352"/>
<text text-anchor="start" x="8.5" y="-370" font-family="Helvetica,sans-Serif" font-size="10.00">std::enable_shared</text>
<text text-anchor="middle" x="66" y="-359" font-family="Helvetica,sans-Serif" font-size="10.00">_from_this&lt; BaseObject &gt;</text>
</g>
<!-- Node7&#45;&gt;Node6 -->
<g id="edge6" class="edge"><title>Node7&#45;&gt;Node6</title>
<path fill="none" stroke="midnightblue" d="M142.089,-367C151.581,-367 161.12,-367 170.138,-367"/>
<polygon fill="midnightblue" stroke="midnightblue" points="141.836,-363.5 131.836,-367 141.836,-370.5 141.836,-363.5"/>
</g>
<!-- Node8 -->
<g id="node8" class="node"><title>Node8</title>
<polygon fill="white" stroke="#bfbfbf" points="187.5,-317.5 187.5,-336.5 258.5,-336.5 258.5,-317.5 187.5,-317.5"/>
<text text-anchor="middle" x="223" y="-324.5" font-family="Helvetica,sans-Serif" font-size="10.00">noncopyable</text>
</g>
<!-- Node8&#45;&gt;Node5 -->
<g id="edge7" class="edge"><title>Node8&#45;&gt;Node5</title>
<path fill="none" stroke="midnightblue" d="M269.184,-328.781C303.744,-330.143 351.048,-332.007 384.834,-333.338"/>
<polygon fill="midnightblue" stroke="midnightblue" points="269.027,-325.272 258.897,-328.375 268.751,-332.266 269.027,-325.272"/>
</g>
<!-- Node9 -->
<g id="node9" class="node"><title>Node9</title>
<g id="a_node9"><a xlink:href="classfwTools_1_1fwID.html" target="_top" xlink:title="Defines ID for fwTools::Object. It is used to associate ID with object. ">
<polygon fill="white" stroke="black" points="184,-279.5 184,-298.5 262,-298.5 262,-279.5 184,-279.5"/>
<text text-anchor="middle" x="223" y="-286.5" font-family="Helvetica,sans-Serif" font-size="10.00">fwTools::fwID</text>
</a>
</g>
</g>
<!-- Node9&#45;&gt;Node5 -->
<g id="edge8" class="edge"><title>Node9&#45;&gt;Node5</title>
<path fill="none" stroke="darkgreen" d="M271.973,-299.871C306.237,-307.635 351.902,-317.983 384.784,-325.434"/>
<polygon fill="darkgreen" stroke="darkgreen" points="272.709,-296.449 262.183,-297.652 271.162,-303.276 272.709,-296.449"/>
</g>
<!-- Node10 -->
<g id="node10" class="node"><title>Node10</title>
<g id="a_node10"><a xlink:href="classfwCom_1_1HasSlots.html" target="_top" xlink:title="This class proposes a mapping between a SlotKeyType and a SlotBase. ">
<polygon fill="white" stroke="black" points="1188.5,-169.5 1188.5,-188.5 1283.5,-188.5 1283.5,-169.5 1188.5,-169.5"/>
<text text-anchor="middle" x="1236" y="-176.5" font-family="Helvetica,sans-Serif" font-size="10.00">fwCom::HasSlots</text>
</a>
</g>
</g>
<!-- Node10&#45;&gt;Node4 -->
<g id="edge9" class="edge"><title>Node10&#45;&gt;Node4</title>
<path fill="none" stroke="midnightblue" d="M1293.96,-184.235C1341.83,-188.635 1409.73,-194.876 1456.35,-199.161"/>
<polygon fill="midnightblue" stroke="midnightblue" points="1294.04,-180.728 1283.76,-183.298 1293.4,-187.698 1294.04,-180.728"/>
</g>
<!-- Node11 -->
<g id="node11" class="node"><title>Node11</title>
<g id="a_node11"><a xlink:href="classfwCom_1_1Slots.html" target="_top" xlink:title="This class proposes a mapping between a SlotKeyType and a SlotBase. ">
<polygon fill="white" stroke="black" points="993.5,-183.5 993.5,-202.5 1070.5,-202.5 1070.5,-183.5 993.5,-183.5"/>
<text text-anchor="middle" x="1032" y="-190.5" font-family="Helvetica,sans-Serif" font-size="10.00">fwCom::Slots</text>
</a>
</g>
</g>
<!-- Node11&#45;&gt;Node10 -->
<g id="edge10" class="edge"><title>Node11&#45;&gt;Node10</title>
<path fill="none" stroke="#9a32cd" stroke-dasharray="5,2" d="M1080.7,-189.694C1113.25,-187.438 1156.15,-184.465 1188.45,-182.226"/>
<polygon fill="#9a32cd" stroke="#9a32cd" points="1080.26,-186.216 1070.52,-190.4 1080.74,-193.2 1080.26,-186.216"/>
<text text-anchor="middle" x="1134" y="-192" font-family="Helvetica,sans-Serif" font-size="10.00"> m_slots</text>
</g>
<!-- Node12 -->
<g id="node12" class="node"><title>Node12</title>
<polygon fill="white" stroke="#bfbfbf" points="671,-176 671,-206 823,-206 823,-176 671,-176"/>
<text text-anchor="start" x="679" y="-194" font-family="Helvetica,sans-Serif" font-size="10.00">std::map&lt; SlotKeyType,</text>
<text text-anchor="middle" x="747" y="-183" font-family="Helvetica,sans-Serif" font-size="10.00"> std::shared_ptr&lt; SlotBase &gt; &gt;</text>
</g>
<!-- Node12&#45;&gt;Node11 -->
<g id="edge11" class="edge"><title>Node12&#45;&gt;Node11</title>
<path fill="none" stroke="#9a32cd" stroke-dasharray="5,2" d="M833.239,-191.602C886.575,-191.979 952.649,-192.446 993.307,-192.734"/>
<polygon fill="#9a32cd" stroke="#9a32cd" points="833.12,-188.102 823.096,-191.531 833.071,-195.101 833.12,-188.102"/>
<text text-anchor="middle" x="904" y="-196" font-family="Helvetica,sans-Serif" font-size="10.00"> m_slots</text>
</g>
<!-- Node13 -->
<g id="node13" class="node"><title>Node13</title>
<g id="a_node13"><a xlink:title="STL class. ">
<polygon fill="white" stroke="#bfbfbf" points="398,-148.5 398,-167.5 458,-167.5 458,-148.5 398,-148.5"/>
<text text-anchor="middle" x="428" y="-155.5" font-family="Helvetica,sans-Serif" font-size="10.00">std::string</text>
</a>
</g>
</g>
<!-- Node13&#45;&gt;Node2 -->
<g id="edge35" class="edge"><title>Node13&#45;&gt;Node2</title>
<path fill="none" stroke="#9a32cd" stroke-dasharray="5,2" d="M453.27,-143.134C505.043,-112.882 630.996,-47 746,-47 746,-47 746,-47 1762,-47 1794.39,-47 1830.44,-49.5712 1859.81,-52.3333"/>
<polygon fill="#9a32cd" stroke="#9a32cd" points="451.301,-140.232 444.486,-148.344 454.872,-146.253 451.301,-140.232"/>
<text text-anchor="middle" x="1236" y="-105" font-family="Helvetica,sans-Serif" font-size="10.00"> m_text</text>
<text text-anchor="middle" x="1236" y="-94" font-family="Helvetica,sans-Serif" font-size="10.00">m_fontFamily</text>
<text text-anchor="middle" x="1236" y="-83" font-family="Helvetica,sans-Serif" font-size="10.00">m_hAlign</text>
<text text-anchor="middle" x="1236" y="-72" font-family="Helvetica,sans-Serif" font-size="10.00">m_textColor</text>
<text text-anchor="middle" x="1236" y="-61" font-family="Helvetica,sans-Serif" font-size="10.00">m_vAlign</text>
<text text-anchor="middle" x="1236" y="-50" font-family="Helvetica,sans-Serif" font-size="10.00">m_path</text>
</g>
<!-- Node13&#45;&gt;Node3 -->
<g id="edge34" class="edge"><title>Node13&#45;&gt;Node3</title>
<path fill="none" stroke="#9a32cd" stroke-dasharray="5,2" d="M468.404,-154.527C528.31,-149.554 645.915,-141 746,-141 746,-141 746,-141 1511,-141 1597.06,-141 1694.88,-176.808 1737.82,-194.432"/>
<polygon fill="#9a32cd" stroke="#9a32cd" points="467.925,-151.055 458.254,-155.381 468.512,-158.03 467.925,-151.055"/>
<text text-anchor="middle" x="1134" y="-166" font-family="Helvetica,sans-Serif" font-size="10.00"> m_pickerId</text>
<text text-anchor="middle" x="1134" y="-155" font-family="Helvetica,sans-Serif" font-size="10.00">m_transformId</text>
<text text-anchor="middle" x="1134" y="-144" font-family="Helvetica,sans-Serif" font-size="10.00">m_rendererId</text>
</g>
<!-- Node13&#45;&gt;Node12 -->
<g id="edge12" class="edge"><title>Node13&#45;&gt;Node12</title>
<path fill="none" stroke="#9a32cd" stroke-dasharray="5,2" d="M468.37,-160.053C512.285,-162.576 585.389,-167.472 648,-175 655.445,-175.895 663.19,-176.948 670.918,-178.079"/>
<polygon fill="#9a32cd" stroke="#9a32cd" points="468.306,-156.544 458.125,-159.477 467.913,-163.533 468.306,-156.544"/>
<text text-anchor="middle" x="583" y="-178" font-family="Helvetica,sans-Serif" font-size="10.00"> keys</text>
</g>
<!-- Node20 -->
<g id="node20" class="node"><title>Node20</title>
<polygon fill="white" stroke="#bfbfbf" points="666.5,-225 666.5,-255 827.5,-255 827.5,-225 666.5,-225"/>
<text text-anchor="start" x="674.5" y="-243" font-family="Helvetica,sans-Serif" font-size="10.00">std::map&lt; SignalKeyType,</text>
<text text-anchor="middle" x="747" y="-232" font-family="Helvetica,sans-Serif" font-size="10.00"> std::shared_ptr&lt; SignalBase &gt; &gt;</text>
</g>
<!-- Node13&#45;&gt;Node20 -->
<g id="edge20" class="edge"><title>Node13&#45;&gt;Node20</title>
<path fill="none" stroke="#9a32cd" stroke-dasharray="5,2" d="M465.488,-170.79C481.459,-176.047 500.509,-181.859 518,-186 574.952,-199.484 591.904,-190.31 648,-207 656.391,-209.497 657.808,-211.911 666,-215 675.122,-218.44 684.95,-221.791 694.488,-224.865"/>
<polygon fill="#9a32cd" stroke="#9a32cd" points="466.576,-167.464 455.983,-167.609 464.355,-174.102 466.576,-167.464"/>
<text text-anchor="middle" x="583" y="-210" font-family="Helvetica,sans-Serif" font-size="10.00"> keys</text>
</g>
<!-- Node14 -->
<g id="node14" class="node"><title>Node14</title>
<g id="a_node14"><a xlink:title="STL class. ">
<polygon fill="white" stroke="#bfbfbf" points="175.5,-143 175.5,-173 270.5,-173 270.5,-143 175.5,-143"/>
<text text-anchor="start" x="183.5" y="-161" font-family="Helvetica,sans-Serif" font-size="10.00">std::basic_string&lt;</text>
<text text-anchor="middle" x="223" y="-150" font-family="Helvetica,sans-Serif" font-size="10.00"> char &gt;</text>
</a>
</g>
</g>
<!-- Node14&#45;&gt;Node13 -->
<g id="edge13" class="edge"><title>Node14&#45;&gt;Node13</title>
<path fill="none" stroke="midnightblue" d="M281.005,-158C319.056,-158 367.51,-158 397.901,-158"/>
<polygon fill="midnightblue" stroke="midnightblue" points="280.572,-154.5 270.572,-158 280.572,-161.5 280.572,-154.5"/>
</g>
<!-- Node15 -->
<g id="node15" class="node"><title>Node15</title>
<g id="a_node15"><a xlink:title="STL class. ">
<polygon fill="white" stroke="#bfbfbf" points="382,-241.5 382,-260.5 474,-260.5 474,-241.5 382,-241.5"/>
<text text-anchor="middle" x="428" y="-248.5" font-family="Helvetica,sans-Serif" font-size="10.00">std::map&lt; K, T &gt;</text>
</a>
</g>
</g>
<!-- Node15&#45;&gt;Node12 -->
<g id="edge14" class="edge"><title>Node15&#45;&gt;Node12</title>
<path fill="none" stroke="orange" stroke-dasharray="5,2" d="M484.323,-243.375C546.554,-234.768 640.047,-221.73 648,-220 650.644,-219.425 673.025,-212.812 695.73,-206.046"/>
<polygon fill="orange" stroke="orange" points="483.668,-239.933 474.241,-244.769 484.626,-246.867 483.668,-239.933"/>
<text text-anchor="start" x="523.5" y="-253" font-family="Helvetica,sans-Serif" font-size="10.00"> &lt; SlotKeyType, std</text>
<text text-anchor="middle" x="583" y="-242" font-family="Helvetica,sans-Serif" font-size="10.00">::shared_ptr&lt; SlotBase &gt; &gt;</text>
</g>
<!-- Node15&#45;&gt;Node20 -->
<g id="edge21" class="edge"><title>Node15&#45;&gt;Node20</title>
<path fill="none" stroke="orange" stroke-dasharray="5,2" d="M484.181,-261.05C495.339,-262.695 507.016,-264.141 518,-265 575.602,-269.503 590.672,-272.197 648,-265 664.202,-262.966 681.566,-259.11 697.109,-255.025"/>
<polygon fill="orange" stroke="orange" points="484.533,-257.563 474.115,-259.495 483.463,-264.481 484.533,-257.563"/>
<text text-anchor="start" x="518.5" y="-284" font-family="Helvetica,sans-Serif" font-size="10.00"> &lt; SignalKeyType, std</text>
<text text-anchor="middle" x="583" y="-273" font-family="Helvetica,sans-Serif" font-size="10.00">::shared_ptr&lt; SignalBase &gt; &gt;</text>
</g>
<!-- Node16 -->
<g id="node16" class="node"><title>Node16</title>
<polygon fill="white" stroke="#bfbfbf" points="208.5,-241.5 208.5,-260.5 237.5,-260.5 237.5,-241.5 208.5,-241.5"/>
<text text-anchor="middle" x="223" y="-248.5" font-family="Helvetica,sans-Serif" font-size="10.00">K</text>
</g>
<!-- Node16&#45;&gt;Node15 -->
<g id="edge15" class="edge"><title>Node16&#45;&gt;Node15</title>
<path fill="none" stroke="#9a32cd" stroke-dasharray="5,2" d="M248.061,-251C280.885,-251 340.334,-251 381.658,-251"/>
<polygon fill="#9a32cd" stroke="#9a32cd" points="247.635,-247.5 237.635,-251 247.635,-254.5 247.635,-247.5"/>
<text text-anchor="middle" x="316" y="-254" font-family="Helvetica,sans-Serif" font-size="10.00"> keys</text>
</g>
<!-- Node17 -->
<g id="node17" class="node"><title>Node17</title>
<polygon fill="white" stroke="#bfbfbf" points="208.5,-429.5 208.5,-448.5 237.5,-448.5 237.5,-429.5 208.5,-429.5"/>
<text text-anchor="middle" x="223" y="-436.5" font-family="Helvetica,sans-Serif" font-size="10.00">T</text>
</g>
<!-- Node17&#45;&gt;Node15 -->
<g id="edge16" class="edge"><title>Node17&#45;&gt;Node15</title>
<path fill="none" stroke="#9a32cd" stroke-dasharray="5,2" d="M241.605,-422.503C266.867,-398.852 314.888,-353.972 356,-316 377.361,-296.27 402.485,-273.332 416.388,-260.662"/>
<polygon fill="#9a32cd" stroke="#9a32cd" points="239.147,-420.01 234.241,-429.4 243.932,-425.119 239.147,-420.01"/>
<text text-anchor="middle" x="316" y="-376" font-family="Helvetica,sans-Serif" font-size="10.00"> elements</text>
</g>
<!-- Node28 -->
<g id="node28" class="node"><title>Node28</title>
<g id="a_node28"><a xlink:title="STL class. ">
<polygon fill="white" stroke="#bfbfbf" points="378,-425.5 378,-444.5 478,-444.5 478,-425.5 378,-425.5"/>
<text text-anchor="middle" x="428" y="-432.5" font-family="Helvetica,sans-Serif" font-size="10.00">std::weak_ptr&lt; T &gt;</text>
</a>
</g>
</g>
<!-- Node17&#45;&gt;Node28 -->
<g id="edge31" class="edge"><title>Node17&#45;&gt;Node28</title>
<path fill="none" stroke="#9a32cd" stroke-dasharray="5,2" d="M247.742,-438.532C279.49,-437.907 336.552,-436.782 377.781,-435.97"/>
<polygon fill="#9a32cd" stroke="#9a32cd" points="247.564,-435.035 237.635,-438.731 247.702,-442.034 247.564,-435.035"/>
<text text-anchor="middle" x="316" y="-440" font-family="Helvetica,sans-Serif" font-size="10.00"> ptr</text>
</g>
<!-- Node29 -->
<g id="node29" class="node"><title>Node29</title>
<g id="a_node29"><a xlink:title="STL class. ">
<polygon fill="white" stroke="#bfbfbf" points="546.5,-461.5 546.5,-480.5 619.5,-480.5 619.5,-461.5 546.5,-461.5"/>
<text text-anchor="middle" x="583" y="-468.5" font-family="Helvetica,sans-Serif" font-size="10.00">std::list&lt; T &gt;</text>
</a>
</g>
</g>
<!-- Node17&#45;&gt;Node29 -->
<g id="edge33" class="edge"><title>Node17&#45;&gt;Node29</title>
<path fill="none" stroke="#9a32cd" stroke-dasharray="5,2" d="M247.554,-443.645C261.093,-446.163 278.448,-449.132 294,-451 384.568,-461.88 491.924,-467.399 546.422,-469.68"/>
<polygon fill="#9a32cd" stroke="#9a32cd" points="248.1,-440.186 237.622,-441.753 246.79,-447.063 248.1,-440.186"/>
<text text-anchor="middle" x="316" y="-458" font-family="Helvetica,sans-Serif" font-size="10.00"> elements</text>
</g>
<!-- Node18 -->
<g id="node18" class="node"><title>Node18</title>
<g id="a_node18"><a xlink:href="classfwCom_1_1HasSignals.html" target="_top" xlink:title="This class proposes a mapping between a SignalKeyType and a SignalBase. ">
<polygon fill="white" stroke="black" points="1184,-207.5 1184,-226.5 1288,-226.5 1288,-207.5 1184,-207.5"/>
<text text-anchor="middle" x="1236" y="-214.5" font-family="Helvetica,sans-Serif" font-size="10.00">fwCom::HasSignals</text>
</a>
</g>
</g>
<!-- Node18&#45;&gt;Node4 -->
<g id="edge17" class="edge"><title>Node18&#45;&gt;Node4</title>
<path fill="none" stroke="midnightblue" d="M1298.32,-214.069C1345.84,-211.798 1411,-208.684 1456.21,-206.523"/>
<polygon fill="midnightblue" stroke="midnightblue" points="1297.98,-210.581 1288.16,-214.555 1298.32,-217.573 1297.98,-210.581"/>
</g>
<!-- Node19 -->
<g id="node19" class="node"><title>Node19</title>
<g id="a_node19"><a xlink:href="classfwCom_1_1Signals.html" target="_top" xlink:title="This class proposes a mapping between a SignalKeyType and a SignalBase. ">
<polygon fill="white" stroke="black" points="989,-226.5 989,-245.5 1075,-245.5 1075,-226.5 989,-226.5"/>
<text text-anchor="middle" x="1032" y="-233.5" font-family="Helvetica,sans-Serif" font-size="10.00">fwCom::Signals</text>
</a>
</g>
</g>
<!-- Node19&#45;&gt;Node18 -->
<g id="edge18" class="edge"><title>Node19&#45;&gt;Node18</title>
<path fill="none" stroke="#9a32cd" stroke-dasharray="5,2" d="M1085.31,-231.08C1115.62,-228.229 1153.63,-224.654 1183.76,-221.82"/>
<polygon fill="#9a32cd" stroke="#9a32cd" points="1084.97,-227.596 1075.35,-232.017 1085.63,-234.565 1084.97,-227.596"/>
<text text-anchor="middle" x="1134" y="-233" font-family="Helvetica,sans-Serif" font-size="10.00"> m_signals</text>
</g>
<!-- Node20&#45;&gt;Node19 -->
<g id="edge19" class="edge"><title>Node20&#45;&gt;Node19</title>
<path fill="none" stroke="#9a32cd" stroke-dasharray="5,2" d="M837.865,-238.73C888.357,-238.016 949.015,-237.159 988.709,-236.598"/>
<polygon fill="#9a32cd" stroke="#9a32cd" points="837.534,-235.234 827.584,-238.875 837.633,-242.233 837.534,-235.234"/>
<text text-anchor="middle" x="904" y="-242" font-family="Helvetica,sans-Serif" font-size="10.00"> m_signals</text>
</g>
<!-- Node21 -->
<g id="node21" class="node"><title>Node21</title>
<polygon fill="white" stroke="#bfbfbf" points="1215.5,-245.5 1215.5,-264.5 1256.5,-264.5 1256.5,-245.5 1215.5,-245.5"/>
<text text-anchor="middle" x="1236" y="-252.5" font-family="Helvetica,sans-Serif" font-size="10.00">static</text>
</g>
<!-- Node21&#45;&gt;Node4 -->
<g id="edge22" class="edge"><title>Node21&#45;&gt;Node4</title>
<path fill="none" stroke="#9a32cd" stroke-dasharray="5,2" d="M1266.24,-247.278C1278.47,-244.181 1292.88,-240.711 1306,-238 1356.74,-227.515 1415.13,-218 1456.22,-211.72"/>
<polygon fill="#9a32cd" stroke="#9a32cd" points="1265.36,-243.891 1256.54,-249.767 1267.1,-250.671 1265.36,-243.891"/>
<text text-anchor="middle" x="1357" y="-329" font-family="Helvetica,sans-Serif" font-size="10.00"> s_STOPPED_SIG</text>
<text text-anchor="middle" x="1357" y="-318" font-family="Helvetica,sans-Serif" font-size="10.00">s_UPDATED_SIG</text>
<text text-anchor="middle" x="1357" y="-307" font-family="Helvetica,sans-Serif" font-size="10.00">s_UPDATE_SLOT</text>
<text text-anchor="middle" x="1357" y="-296" font-family="Helvetica,sans-Serif" font-size="10.00">s_STARTED_SIG</text>
<text text-anchor="middle" x="1357" y="-285" font-family="Helvetica,sans-Serif" font-size="10.00">s_SWAPKEY_SLOT</text>
<text text-anchor="middle" x="1357" y="-274" font-family="Helvetica,sans-Serif" font-size="10.00">s_SWAP_SLOT</text>
<text text-anchor="middle" x="1357" y="-263" font-family="Helvetica,sans-Serif" font-size="10.00">s_STOP_SLOT</text>
<text text-anchor="middle" x="1357" y="-252" font-family="Helvetica,sans-Serif" font-size="10.00">s_START_SLOT</text>
<text text-anchor="middle" x="1357" y="-241" font-family="Helvetica,sans-Serif" font-size="10.00">s_DEFAULT_OBJECT</text>
</g>
<!-- Node22 -->
<g id="node22" class="node"><title>Node22</title>
<g id="a_node22"><a xlink:href="classfwServices_1_1IHasServices.html" target="_top" xlink:title="Interface for objects that need to manage services. ">
<polygon fill="white" stroke="black" points="1444.5,-232.5 1444.5,-251.5 1575.5,-251.5 1575.5,-232.5 1444.5,-232.5"/>
<text text-anchor="middle" x="1510" y="-239.5" font-family="Helvetica,sans-Serif" font-size="10.00">fwServices::IHasServices</text>
</a>
</g>
</g>
<!-- Node22&#45;&gt;Node3 -->
<g id="edge23" class="edge"><title>Node22&#45;&gt;Node3</title>
<path fill="none" stroke="midnightblue" d="M1585.61,-232.157C1615.61,-228.037 1650.48,-223.038 1682,-218 1690.56,-216.632 1699.63,-215.089 1708.44,-213.541"/>
<polygon fill="midnightblue" stroke="midnightblue" points="1585.08,-228.698 1575.64,-233.52 1586.02,-235.634 1585.08,-228.698"/>
</g>
<!-- Node23 -->
<g id="node23" class="node"><title>Node23</title>
<g id="a_node23"><a xlink:href="classfwCom_1_1helper_1_1SigSlotConnection.html" target="_top" xlink:title="This class provides few tools to ease connect/disconnect between a signal emitter and a slot receiver...">
<polygon fill="white" stroke="black" points="1426.5,-322.5 1426.5,-341.5 1593.5,-341.5 1593.5,-322.5 1426.5,-322.5"/>
<text text-anchor="middle" x="1510" y="-329.5" font-family="Helvetica,sans-Serif" font-size="10.00">fwCom::helper::SigSlotConnection</text>
</a>
</g>
</g>
<!-- Node23&#45;&gt;Node3 -->
<g id="edge24" class="edge"><title>Node23&#45;&gt;Node3</title>
<path fill="none" stroke="#9a32cd" stroke-dasharray="5,2" d="M1538.89,-317.664C1590.15,-291.311 1698.07,-235.835 1741.41,-213.558"/>
<polygon fill="#9a32cd" stroke="#9a32cd" points="1537.01,-314.694 1529.72,-322.379 1540.21,-320.92 1537.01,-314.694"/>
<text text-anchor="middle" x="1647" y="-283" font-family="Helvetica,sans-Serif" font-size="10.00"> m_connections</text>
</g>
<!-- Node24 -->
<g id="node24" class="node"><title>Node24</title>
<polygon fill="white" stroke="#bfbfbf" points="1188.5,-389 1188.5,-419 1283.5,-419 1283.5,-389 1188.5,-389"/>
<text text-anchor="start" x="1196.5" y="-407" font-family="Helvetica,sans-Serif" font-size="10.00">std::list&lt; ::fwCom</text>
<text text-anchor="middle" x="1236" y="-396" font-family="Helvetica,sans-Serif" font-size="10.00">::Connection &gt;</text>
</g>
<!-- Node24&#45;&gt;Node23 -->
<g id="edge25" class="edge"><title>Node24&#45;&gt;Node23</title>
<path fill="none" stroke="#9a32cd" stroke-dasharray="5,2" d="M1293.79,-392.413C1327.23,-385.251 1370.23,-375.453 1408,-365 1433.25,-358.013 1461.56,-348.624 1481.77,-341.647"/>
<polygon fill="#9a32cd" stroke="#9a32cd" points="1292.79,-389.046 1283.74,-394.548 1294.25,-395.894 1292.79,-389.046"/>
<text text-anchor="middle" x="1357" y="-392" font-family="Helvetica,sans-Serif" font-size="10.00"> m_connections</text>
</g>
<!-- Node25 -->
<g id="node25" class="node"><title>Node25</title>
<g id="a_node25"><a xlink:href="structfwCom_1_1Connection.html" target="_top" xlink:title="Class managing Signal&#45;Slot connections. ">
<polygon fill="white" stroke="black" points="980,-394.5 980,-413.5 1084,-413.5 1084,-394.5 980,-394.5"/>
<text text-anchor="middle" x="1032" y="-401.5" font-family="Helvetica,sans-Serif" font-size="10.00">fwCom::Connection</text>
</a>
</g>
</g>
<!-- Node25&#45;&gt;Node24 -->
<g id="edge26" class="edge"><title>Node25&#45;&gt;Node24</title>
<path fill="none" stroke="#9a32cd" stroke-dasharray="5,2" d="M1094.25,-404C1124.47,-404 1160.35,-404 1188.32,-404"/>
<polygon fill="#9a32cd" stroke="#9a32cd" points="1094.23,-400.5 1084.23,-404 1094.23,-407.5 1094.23,-400.5"/>
<text text-anchor="middle" x="1134" y="-407" font-family="Helvetica,sans-Serif" font-size="10.00"> elements</text>
</g>
<!-- Node26 -->
<g id="node26" class="node"><title>Node26</title>
<polygon fill="white" stroke="#bfbfbf" points="671,-389 671,-419 823,-419 823,-389 671,-389"/>
<text text-anchor="start" x="679" y="-407" font-family="Helvetica,sans-Serif" font-size="10.00">std::weak_ptr&lt; SlotConnection</text>
<text text-anchor="middle" x="747" y="-396" font-family="Helvetica,sans-Serif" font-size="10.00">Base &gt;</text>
</g>
<!-- Node26&#45;&gt;Node25 -->
<g id="edge27" class="edge"><title>Node26&#45;&gt;Node25</title>
<path fill="none" stroke="#9a32cd" stroke-dasharray="5,2" d="M833.123,-404C880.888,-404 938.899,-404 979.723,-404"/>
<polygon fill="#9a32cd" stroke="#9a32cd" points="833.096,-400.5 823.096,-404 833.096,-407.5 833.096,-400.5"/>
<text text-anchor="middle" x="904" y="-407" font-family="Helvetica,sans-Serif" font-size="10.00"> m_connectionBase</text>
</g>
<!-- Node27&#45;&gt;Node26 -->
<g id="edge28" class="edge"><title>Node27&#45;&gt;Node26</title>
<path fill="none" stroke="#9a32cd" stroke-dasharray="5,2" d="M509.783,-394.313C559.313,-396.344 622.299,-398.927 670.773,-400.915"/>
<polygon fill="#9a32cd" stroke="#9a32cd" points="509.881,-390.814 499.746,-393.901 509.595,-397.808 509.881,-390.814"/>
<text text-anchor="middle" x="583" y="-402" font-family="Helvetica,sans-Serif" font-size="10.00"> ptr</text>
</g>
<!-- Node28&#45;&gt;Node26 -->
<g id="edge30" class="edge"><title>Node28&#45;&gt;Node26</title>
<path fill="none" stroke="orange" stroke-dasharray="5,2" d="M488.174,-429.213C539.757,-424.169 614.852,-416.825 670.706,-411.363"/>
<polygon fill="orange" stroke="orange" points="487.795,-425.734 478.183,-430.19 488.477,-432.7 487.795,-425.734"/>
<text text-anchor="middle" x="583" y="-428" font-family="Helvetica,sans-Serif" font-size="10.00"> &lt; SlotConnectionBase &gt;</text>
</g>
<!-- Node29&#45;&gt;Node24 -->
<g id="edge32" class="edge"><title>Node29&#45;&gt;Node24</title>
<path fill="none" stroke="orange" stroke-dasharray="5,2" d="M629.819,-468.857C728.375,-463.82 967.651,-449.299 1166,-419 1173.27,-417.889 1180.92,-416.475 1188.38,-414.961"/>
<polygon fill="orange" stroke="orange" points="629.427,-465.372 619.615,-469.37 629.779,-472.363 629.427,-465.372"/>
<text text-anchor="middle" x="904" y="-457" font-family="Helvetica,sans-Serif" font-size="10.00"> &lt; ::fwCom::Connection &gt;</text>
</g>
<!-- Node30 -->
<g id="node30" class="node"><title>Node30</title>
<g id="a_node30"><a xlink:href="classfwDataTools_1_1helper_1_1MedicalImageAdaptor.html" target="_top" xlink:title="Helpers for medical image. ">
<polygon fill="white" stroke="black" points="1861.5,-0 1861.5,-30 1978.5,-30 1978.5,-0 1861.5,-0"/>
<text text-anchor="start" x="1869.5" y="-18" font-family="Helvetica,sans-Serif" font-size="10.00">fwDataTools::helper</text>
<text text-anchor="middle" x="1920" y="-7" font-family="Helvetica,sans-Serif" font-size="10.00">::MedicalImageAdaptor</text>
</a>
</g>
</g>
<!-- Node30&#45;&gt;Node1 -->
<g id="edge36" class="edge"><title>Node30&#45;&gt;Node1</title>
<path fill="none" stroke="midnightblue" d="M1988.63,-21.7626C1998.42,-22.7424 2008.54,-23.7544 2018.43,-24.7435"/>
<polygon fill="midnightblue" stroke="midnightblue" points="1988.85,-18.2679 1978.55,-20.7554 1988.16,-25.2332 1988.85,-18.2679"/>
</g>
</g>
</svg>
        <g id="navigator" transform="translate(0 0)" fill="#404254">
                <rect fill="#f2f5e9" fill-opacity="0.5" stroke="#606060" stroke-width=".5" x="0" y="0" width="60" height="60"/>
                <use id="zoomplus" xlink:href="#zoomPlus" x="17" y="9" onmousedown="handleZoom(evt,'in')"/>
                <use id="zoomminus" xlink:href="#zoomMin" x="42" y="9" onmousedown="handleZoom(evt,'out')"/>
                <use id="reset" xlink:href="#resetDef" x="30" y="36" onmousedown="handleReset()"/>
                <g id="arrowUp" xlink:href="#dirArrow" transform="translate(30 24)" onmousedown="handlePan(0,-1)">
                  <use xlink:href="#rim" fill="#404040">
                        <set attributeName="fill" to="#808080" begin="arrowUp.mouseover" end="arrowUp.mouseout"/>
                  </use>
                  <path fill="none" stroke="white" stroke-width="1.5" d="M0,-3.0v7 M-2.5,-0.5L0,-3.0L2.5,-0.5"/>
                </g>
                <g id="arrowRight" xlink:href="#dirArrow" transform="rotate(90) translate(36 -43)" onmousedown="handlePan(1,0)">
                  <use xlink:href="#rim" fill="#404040">
                        <set attributeName="fill" to="#808080" begin="arrowRight.mouseover" end="arrowRight.mouseout"/>
                  </use>
                  <path fill="none" stroke="white" stroke-width="1.5" d="M0,-3.0v7 M-2.5,-0.5L0,-3.0L2.5,-0.5"/>
                </g>
                <g id="arrowDown" xlink:href="#dirArrow" transform="rotate(180) translate(-30 -48)" onmousedown="handlePan(0,1)">
                  <use xlink:href="#rim" fill="#404040">
                        <set attributeName="fill" to="#808080" begin="arrowDown.mouseover" end="arrowDown.mouseout"/>
                  </use>
                  <path fill="none" stroke="white" stroke-width="1.5" d="M0,-3.0v7 M-2.5,-0.5L0,-3.0L2.5,-0.5"/>
                </g>
                <g id="arrowLeft" xlink:href="#dirArrow" transform="rotate(270) translate(-36 17)" onmousedown="handlePan(-1,0)">
                  <use xlink:href="#rim" fill="#404040">
                        <set attributeName="fill" to="#808080" begin="arrowLeft.mouseover" end="arrowLeft.mouseout"/>
                  </use>
                  <path fill="none" stroke="white" stroke-width="1.5" d="M0,-3.0v7 M-2.5,-0.5L0,-3.0L2.5,-0.5"/>
                </g>
        </g>
        <svg viewBox="0 0 15 15" width="100%" height="30px" preserveAspectRatio="xMaxYMin meet">
         <g id="arrow_out" transform="scale(0.3 0.3)">
          <a xlink:href="classvisuVTKAdaptor_1_1SImageText__coll__graph_org.svg" target="_base">
           <rect id="button" ry="5" rx="5" y="6" x="6" height="38" width="38"
                fill="#f2f5e9" fill-opacity="0.5" stroke="#606060" stroke-width="1.0"/>
           <path id="arrow"
             d="M 11.500037,31.436501 C 11.940474,20.09759 22.043105,11.32322 32.158766,21.979434 L 37.068811,17.246167 C 37.068811,17.246167 37.088388,32 37.088388,32 L 22.160133,31.978069 C 22.160133,31.978069 26.997745,27.140456 26.997745,27.140456 C 18.528582,18.264221 13.291696,25.230495 11.500037,31.436501 z"
             style="fill:#404040;"/>
          </a>
         </g>
        </svg>
</svg>
