<?xml version="1.0" encoding="UTF-8" standalone="no"?>
<!DOCTYPE svg PUBLIC "-//W3C//DTD SVG 1.1//EN"
 "http://www.w3.org/Graphics/SVG/1.1/DTD/svg11.dtd">
<!-- Generated by graphviz version 2.26.3 (20100126.1600)
 -->
<!-- Title: fwDataIO::reader::DictionaryReader Pages: 1 -->
<!--zoomable 124 -->
<svg id="main" version="1.1" xmlns="http://www.w3.org/2000/svg" xmlns:xlink="http://www.w3.org/1999/xlink" xml:space="preserve" onload="init(evt)">
<style type="text/css"><![CDATA[
.edge:hover path { stroke: red; }
.edge:hover polygon { stroke: red; fill: red; }
]]></style>
<script type="text/javascript"><![CDATA[
var edges = document.getElementsByTagName('g');
if (edges && edges.length) {
  for (var i=0;i<edges.length;i++) {
    if (edges[i].id.substr(0,4)=='edge') {
      edges[i].setAttribute('class','edge');
    }
  }
}
]]></script>
        <defs>
                <circle id="rim" cx="0" cy="0" r="7"/>
                <circle id="rim2" cx="0" cy="0" r="3.5"/>
                <g id="zoomPlus">
                        <use xlink:href="#rim" fill="#404040">
                                <set attributeName="fill" to="#808080" begin="zoomplus.mouseover" end="zoomplus.mouseout"/>
                        </use>
                        <path d="M-4,0h8M0,-4v8" fill="none" stroke="white" stroke-width="1.5" pointer-events="none"/>
                </g>
                <g id="zoomMin">
                        <use xlink:href="#rim" fill="#404040">
                                <set attributeName="fill" to="#808080" begin="zoomminus.mouseover" end="zoomminus.mouseout"/>
                        </use>
                        <path d="M-4,0h8" fill="none" stroke="white" stroke-width="1.5" pointer-events="none"/>
                </g>
                <g id="dirArrow">
                        <path fill="none" stroke="white" stroke-width="1.5" d="M0,-3.0v7 M-2.5,-0.5L0,-3.0L2.5,-0.5"/>
                </g>
               <g id="resetDef">
                       <use xlink:href="#rim2" fill="#404040">
                               <set attributeName="fill" to="#808080" begin="reset.mouseover" end="reset.mouseout"/>
                       </use>
               </g>
        </defs>

<script type="text/javascript">
var viewWidth = 1116;
var viewHeight = 124;
var sectionId = 'dynsection-1';
</script>
<script xlink:href="svgpan.js"/>
<svg id="graph" class="graph">
<g id="viewport">
<title>fwDataIO::reader::DictionaryReader</title>
<polygon fill="white" stroke="white" points="-4,5 -4,-120 1113,-120 1113,5 -4,5"/>
<!-- Node1 -->
<g id="node1" class="node"><title>Node1</title>
<polygon fill="#bfbfbf" stroke="black" points="966,-33 966,-67 1108,-67 1108,-33 966,-33"/>
<text text-anchor="start" x="974" y="-54" font-family="Helvetica,sans-Serif" font-size="10.00">fwDataIO::reader::Dictionary</text>
<text text-anchor="middle" x="1037" y="-41" font-family="Helvetica,sans-Serif" font-size="10.00">Reader</text>
</g>
<!-- Node2 -->
<g id="node2" class="node"><title>Node2</title>
<a xlink:href="classfwDataIO_1_1reader_1_1GenericObjectReader.html" target="_top" xlink:title="fwDataIO::reader::Generic\lObjectReader\&lt; ::fwData\l::StructureTraitsDictionary \&gt;">
<polygon fill="white" stroke="black" points="788,-52.5 788,-99.5 928,-99.5 928,-52.5 788,-52.5"/>
<text text-anchor="start" x="796" y="-86.5" font-family="Helvetica,sans-Serif" font-size="10.00">fwDataIO::reader::Generic</text>
<text text-anchor="start" x="796" y="-73.5" font-family="Helvetica,sans-Serif" font-size="10.00">ObjectReader&lt; ::fwData</text>
<text text-anchor="middle" x="858" y="-60.5" font-family="Helvetica,sans-Serif" font-size="10.00">::StructureTraitsDictionary &gt;</text>
</a>
</g>
<!-- Node2&#45;&gt;Node1 -->
<g id="edge2" class="edge"><title>Node2&#45;&gt;Node1</title>
<path fill="none" stroke="midnightblue" d="M938.156,-64.3572C947.367,-63.0193 956.712,-61.6619 965.794,-60.3427"/>
<polygon fill="midnightblue" stroke="midnightblue" points="937.625,-60.8976 928.232,-65.7987 938.631,-67.8249 937.625,-60.8976"/>
</g>
<!-- Node3 -->
<g id="node4" class="node"><title>Node3</title>
<a xlink:href="classfwDataIO_1_1reader_1_1IObjectReader.html" target="_top" xlink:title="Base class for all object readers. ">
<polygon fill="white" stroke="black" points="314.5,-82 314.5,-116 443.5,-116 443.5,-82 314.5,-82"/>
<text text-anchor="start" x="322.5" y="-103" font-family="Helvetica,sans-Serif" font-size="10.00">fwDataIO::reader::IObject</text>
<text text-anchor="middle" x="379" y="-90" font-family="Helvetica,sans-Serif" font-size="10.00">Reader</text>
</a>
</g>
<!-- Node3&#45;&gt;Node2 -->
<g id="edge4" class="edge"><title>Node3&#45;&gt;Node2</title>
<path fill="none" stroke="midnightblue" d="M454.13,-106.792C533.212,-113.359 661.096,-119.331 770,-103 775.847,-102.123 781.843,-100.936 787.821,-99.5458"/>
<polygon fill="midnightblue" stroke="midnightblue" points="454.041,-103.272 443.779,-105.906 453.444,-110.247 454.041,-103.272"/>
</g>
<!-- Node6 -->
<g id="node10" class="node"><title>Node6</title>
<a xlink:href="classfwDataIO_1_1reader_1_1GenericObjectReader.html" target="_top" xlink:title="generic class for all object readers. ">
<polygon fill="white" stroke="black" points="482,-55 482,-89 630,-89 630,-55 482,-55"/>
<text text-anchor="start" x="490" y="-76" font-family="Helvetica,sans-Serif" font-size="10.00">fwDataIO::reader::Generic</text>
<text text-anchor="middle" x="556" y="-63" font-family="Helvetica,sans-Serif" font-size="10.00">ObjectReader&lt; DATATYPE &gt;</text>
</a>
</g>
<!-- Node3&#45;&gt;Node6 -->
<g id="edge12" class="edge"><title>Node3&#45;&gt;Node6</title>
<path fill="none" stroke="midnightblue" d="M453.691,-87.6064C463.038,-86.1806 472.596,-84.7227 481.933,-83.2984"/>
<polygon fill="midnightblue" stroke="midnightblue" points="453.01,-84.1697 443.652,-89.1378 454.066,-91.0897 453.01,-84.1697"/>
</g>
<!-- Node4 -->
<g id="node6" class="node"><title>Node4</title>
<a xlink:href="classfwCore_1_1BaseObject.html" target="_top" xlink:title="Base class for all FW4SPL&#39;s classes. ">
<polygon fill="white" stroke="black" points="170.5,-88.5 170.5,-109.5 275.5,-109.5 275.5,-88.5 170.5,-88.5"/>
<text text-anchor="middle" x="223" y="-96.5" font-family="Helvetica,sans-Serif" font-size="10.00">fwCore::BaseObject</text>
</a>
</g>
<!-- Node4&#45;&gt;Node3 -->
<g id="edge6" class="edge"><title>Node4&#45;&gt;Node3</title>
<path fill="none" stroke="midnightblue" d="M285.849,-99C295.232,-99 304.919,-99 314.338,-99"/>
<polygon fill="midnightblue" stroke="midnightblue" points="285.815,-95.5001 275.814,-99 285.814,-102.5 285.815,-95.5001"/>
</g>
<!-- Node5 -->
<g id="node8" class="node"><title>Node5</title>
<polygon fill="white" stroke="#bfbfbf" points="0.5,-82 0.5,-116 131.5,-116 131.5,-82 0.5,-82"/>
<text text-anchor="start" x="8.5" y="-103" font-family="Helvetica,sans-Serif" font-size="10.00">std::enable_shared</text>
<text text-anchor="middle" x="66" y="-90" font-family="Helvetica,sans-Serif" font-size="10.00">_from_this&lt; BaseObject &gt;</text>
</g>
<!-- Node5&#45;&gt;Node4 -->
<g id="edge8" class="edge"><title>Node5&#45;&gt;Node4</title>
<path fill="none" stroke="midnightblue" d="M141.751,-99C151.466,-99 161.238,-99 170.469,-99"/>
<polygon fill="midnightblue" stroke="midnightblue" points="141.672,-95.5001 131.672,-99 141.672,-102.5 141.672,-95.5001"/>
</g>
<!-- Node6&#45;&gt;Node2 -->
<g id="edge10" class="edge"><title>Node6&#45;&gt;Node2</title>
<path fill="none" stroke="orange" stroke-dasharray="5,2" d="M640.321,-73.1168C686.823,-73.7328 743.883,-74.4885 787.916,-75.0717"/>
<polygon fill="orange" stroke="orange" points="640.31,-69.6165 630.264,-72.9836 640.217,-76.6159 640.31,-69.6165"/>
<text text-anchor="start" x="648.5" y="-91" font-family="Helvetica,sans-Serif" font-size="10.00"> &lt; ::fwData::StructureTraits</text>
<text text-anchor="middle" x="709" y="-78" font-family="Helvetica,sans-Serif" font-size="10.00">Dictionary &gt;</text>
</g>
<!-- Node7 -->
<g id="node13" class="node"><title>Node7</title>
<a xlink:href="structfwData_1_1location_1_1enableSingleFile.html" target="_top" xlink:title="fwData::location::enable\lSingleFile\&lt; IObjectReader \&gt;">
<polygon fill="white" stroke="black" points="788,-0 788,-34 928,-34 928,-0 788,-0"/>
<text text-anchor="start" x="796" y="-21" font-family="Helvetica,sans-Serif" font-size="10.00">fwData::location::enable</text>
<text text-anchor="middle" x="858" y="-8" font-family="Helvetica,sans-Serif" font-size="10.00">SingleFile&lt; IObjectReader &gt;</text>
</a>
</g>
<!-- Node7&#45;&gt;Node1 -->
<g id="edge14" class="edge"><title>Node7&#45;&gt;Node1</title>
<path fill="none" stroke="midnightblue" d="M938.156,-31.7774C947.367,-33.4755 956.712,-35.1983 965.794,-36.8727"/>
<polygon fill="midnightblue" stroke="midnightblue" points="938.701,-28.3189 928.232,-29.9478 937.431,-35.2029 938.701,-28.3189"/>
</g>
<!-- Node8 -->
<g id="node15" class="node"><title>Node8</title>
<a xlink:href="structfwData_1_1location_1_1enableSingleFile.html" target="_top" xlink:title="This class is derived by reader/writer. ">
<polygon fill="white" stroke="black" points="495,-0 495,-34 617,-34 617,-0 495,-0"/>
<text text-anchor="start" x="503" y="-21" font-family="Helvetica,sans-Serif" font-size="10.00">fwData::location::enable</text>
<text text-anchor="middle" x="556" y="-8" font-family="Helvetica,sans-Serif" font-size="10.00">SingleFile&lt; RW &gt;</text>
</a>
</g>
<!-- Node8&#45;&gt;Node7 -->
<g id="edge16" class="edge"><title>Node8&#45;&gt;Node7</title>
<path fill="none" stroke="orange" stroke-dasharray="5,2" d="M627.225,-17C675.757,-17 739.713,-17 787.986,-17"/>
<polygon fill="orange" stroke="orange" points="627.114,-13.5001 617.114,-17 627.114,-20.5001 627.114,-13.5001"/>
<text text-anchor="middle" x="709" y="-21" font-family="Helvetica,sans-Serif" font-size="10.00"> &lt; IObjectReader &gt;</text>
</g>
</g>
</svg>
        <g id="navigator" transform="translate(0 0)" fill="#404254">
                <rect fill="#f2f5e9" fill-opacity="0.5" stroke="#606060" stroke-width=".5" x="0" y="0" width="60" height="60"/>
                <use id="zoomplus" xlink:href="#zoomPlus" x="17" y="9" onmousedown="handleZoom(evt,'in')"/>
                <use id="zoomminus" xlink:href="#zoomMin" x="42" y="9" onmousedown="handleZoom(evt,'out')"/>
                <use id="reset" xlink:href="#resetDef" x="30" y="36" onmousedown="handleReset()"/>
                <g id="arrowUp" xlink:href="#dirArrow" transform="translate(30 24)" onmousedown="handlePan(0,-1)">
                  <use xlink:href="#rim" fill="#404040">
                        <set attributeName="fill" to="#808080" begin="arrowUp.mouseover" end="arrowUp.mouseout"/>
                  </use>
                  <path fill="none" stroke="white" stroke-width="1.5" d="M0,-3.0v7 M-2.5,-0.5L0,-3.0L2.5,-0.5"/>
                </g>
                <g id="arrowRight" xlink:href="#dirArrow" transform="rotate(90) translate(36 -43)" onmousedown="handlePan(1,0)">
                  <use xlink:href="#rim" fill="#404040">
                        <set attributeName="fill" to="#808080" begin="arrowRight.mouseover" end="arrowRight.mouseout"/>
                  </use>
                  <path fill="none" stroke="white" stroke-width="1.5" d="M0,-3.0v7 M-2.5,-0.5L0,-3.0L2.5,-0.5"/>
                </g>
                <g id="arrowDown" xlink:href="#dirArrow" transform="rotate(180) translate(-30 -48)" onmousedown="handlePan(0,1)">
                  <use xlink:href="#rim" fill="#404040">
                        <set attributeName="fill" to="#808080" begin="arrowDown.mouseover" end="arrowDown.mouseout"/>
                  </use>
                  <path fill="none" stroke="white" stroke-width="1.5" d="M0,-3.0v7 M-2.5,-0.5L0,-3.0L2.5,-0.5"/>
                </g>
                <g id="arrowLeft" xlink:href="#dirArrow" transform="rotate(270) translate(-36 17)" onmousedown="handlePan(-1,0)">
                  <use xlink:href="#rim" fill="#404040">
                        <set attributeName="fill" to="#808080" begin="arrowLeft.mouseover" end="arrowLeft.mouseout"/>
                  </use>
                  <path fill="none" stroke="white" stroke-width="1.5" d="M0,-3.0v7 M-2.5,-0.5L0,-3.0L2.5,-0.5"/>
                </g>
        </g>
        <svg viewBox="0 0 15 15" width="100%" height="30px" preserveAspectRatio="xMaxYMin meet">
         <g id="arrow_out" transform="scale(0.3 0.3)">
          <a xlink:href="classfwDataIO_1_1reader_1_1DictionaryReader__coll__graph_org.svg" target="_base">
           <rect id="button" ry="5" rx="5" y="6" x="6" height="38" width="38"
                fill="#f2f5e9" fill-opacity="0.5" stroke="#606060" stroke-width="1.0"/>
           <path id="arrow"
             d="M 11.500037,31.436501 C 11.940474,20.09759 22.043105,11.32322 32.158766,21.979434 L 37.068811,17.246167 C 37.068811,17.246167 37.088388,32 37.088388,32 L 22.160133,31.978069 C 22.160133,31.978069 26.997745,27.140456 26.997745,27.140456 C 18.528582,18.264221 13.291696,25.230495 11.500037,31.436501 z"
             style="fill:#404040;"/>
          </a>
         </g>
        </svg>
</svg>
