<?xml version="1.0" encoding="UTF-8" standalone="no"?>
<!DOCTYPE svg PUBLIC "-//W3C//DTD SVG 1.1//EN"
 "http://www.w3.org/Graphics/SVG/1.1/DTD/svg11.dtd">
<!-- Generated by graphviz version 2.36.0 (20140111.2315)
 -->
<!-- Title: fwGdcmIO::writer::ie::InformationEntity&lt; DATATYPE &gt; Pages: 1 -->
<svg width="582pt" height="432pt"
 viewBox="0.00 0.00 582.00 432.00" xmlns="http://www.w3.org/2000/svg" xmlns:xlink="http://www.w3.org/1999/xlink">
<g id="graph0" class="graph" transform="scale(1 1) rotate(0) translate(4 428)">
<title>fwGdcmIO::writer::ie::InformationEntity&lt; DATATYPE &gt;</title>
<polygon fill="white" stroke="none" points="-4,4 -4,-428 578,-428 578,4 -4,4"/>
<!-- Node1 -->
<g id="node1" class="node"><title>Node1</title>
<polygon fill="#bfbfbf" stroke="black" points="0.5,-219.5 0.5,-260.5 107.5,-260.5 107.5,-219.5 0.5,-219.5"/>
<text text-anchor="start" x="8.5" y="-248.5" font-family="Helvetica,sans-Serif" font-size="10.00">fwGdcmIO::writer::ie</text>
<text text-anchor="start" x="8.5" y="-237.5" font-family="Helvetica,sans-Serif" font-size="10.00">::InformationEntity&lt;</text>
<text text-anchor="middle" x="54" y="-226.5" font-family="Helvetica,sans-Serif" font-size="10.00"> DATATYPE &gt;</text>
</g>
<!-- Node2 -->
<g id="node2" class="node"><title>Node2</title>
<g id="a_node2"><a xlink:href="classfwGdcmIO_1_1writer_1_1ie_1_1InformationEntity.html" target="_top" xlink:title="fwGdcmIO::writer::ie\l::InformationEntity\&lt;\l ::fwMedData::Equipment \&gt;">
<polygon fill="white" stroke="black" points="286.5,-382.5 286.5,-423.5 423.5,-423.5 423.5,-382.5 286.5,-382.5"/>
<text text-anchor="start" x="294.5" y="-411.5" font-family="Helvetica,sans-Serif" font-size="10.00">fwGdcmIO::writer::ie</text>
<text text-anchor="start" x="294.5" y="-400.5" font-family="Helvetica,sans-Serif" font-size="10.00">::InformationEntity&lt;</text>
<text text-anchor="middle" x="355" y="-389.5" font-family="Helvetica,sans-Serif" font-size="10.00"> ::fwMedData::Equipment &gt;</text>
</a>
</g>
</g>
<!-- Node1&#45;&gt;Node2 -->
<g id="edge1" class="edge"><title>Node1&#45;&gt;Node2</title>
<path fill="none" stroke="orange" stroke-dasharray="5,2" d="M71.4329,-269.427C83.989,-289.422 103.022,-315.04 126,-331 174.072,-364.388 238.356,-382.839 286.41,-392.678"/>
<polygon fill="orange" stroke="orange" points="74.3103,-267.422 66.1287,-260.691 68.3268,-271.055 74.3103,-267.422"/>
<text text-anchor="middle" x="195" y="-390" font-family="Helvetica,sans-Serif" font-size="10.00"> &lt; ::fwMedData::Equipment &gt;</text>
</g>
<!-- Node4 -->
<g id="node4" class="node"><title>Node4</title>
<g id="a_node4"><a xlink:href="classfwGdcmIO_1_1writer_1_1ie_1_1InformationEntity.html" target="_top" xlink:title="fwGdcmIO::writer::ie\l::InformationEntity\&lt;\l ::fwMedData::ModelSeries \&gt;">
<polygon fill="white" stroke="black" points="282.5,-318.5 282.5,-359.5 427.5,-359.5 427.5,-318.5 282.5,-318.5"/>
<text text-anchor="start" x="290.5" y="-347.5" font-family="Helvetica,sans-Serif" font-size="10.00">fwGdcmIO::writer::ie</text>
<text text-anchor="start" x="290.5" y="-336.5" font-family="Helvetica,sans-Serif" font-size="10.00">::InformationEntity&lt;</text>
<text text-anchor="middle" x="355" y="-325.5" font-family="Helvetica,sans-Serif" font-size="10.00"> ::fwMedData::ModelSeries &gt;</text>
</a>
</g>
</g>
<!-- Node1&#45;&gt;Node4 -->
<g id="edge3" class="edge"><title>Node1&#45;&gt;Node4</title>
<path fill="none" stroke="orange" stroke-dasharray="5,2" d="M102.696,-264.997C110.384,-268.593 118.336,-272.064 126,-275 177.158,-294.597 236.832,-311.133 282.296,-322.485"/>
<polygon fill="orange" stroke="orange" points="104.015,-261.748 93.4849,-260.576 100.985,-268.059 104.015,-261.748"/>
<text text-anchor="middle" x="195" y="-319" font-family="Helvetica,sans-Serif" font-size="10.00"> &lt; ::fwMedData::ModelSeries &gt;</text>
</g>
<!-- Node6 -->
<g id="node6" class="node"><title>Node6</title>
<g id="a_node6"><a xlink:href="classfwGdcmIO_1_1writer_1_1ie_1_1InformationEntity.html" target="_top" xlink:title="fwGdcmIO::writer::ie\l::InformationEntity\&lt;\l ::fwMedData::Series \&gt;">
<polygon fill="white" stroke="black" points="295.5,-250.5 295.5,-291.5 414.5,-291.5 414.5,-250.5 295.5,-250.5"/>
<text text-anchor="start" x="303.5" y="-279.5" font-family="Helvetica,sans-Serif" font-size="10.00">fwGdcmIO::writer::ie</text>
<text text-anchor="start" x="303.5" y="-268.5" font-family="Helvetica,sans-Serif" font-size="10.00">::InformationEntity&lt;</text>
<text text-anchor="middle" x="355" y="-257.5" font-family="Helvetica,sans-Serif" font-size="10.00"> ::fwMedData::Series &gt;</text>
</a>
</g>
</g>
<!-- Node1&#45;&gt;Node6 -->
<g id="edge5" class="edge"><title>Node1&#45;&gt;Node6</title>
<path fill="none" stroke="orange" stroke-dasharray="5,2" d="M117.936,-246.525C170.288,-251.953 244.245,-259.621 295.365,-264.921"/>
<polygon fill="orange" stroke="orange" points="118.075,-243.021 107.767,-245.471 117.353,-249.984 118.075,-243.021"/>
<text text-anchor="middle" x="195" y="-263" font-family="Helvetica,sans-Serif" font-size="10.00"> &lt; ::fwMedData::Series &gt;</text>
</g>
<!-- Node9 -->
<g id="node9" class="node"><title>Node9</title>
<g id="a_node9"><a xlink:href="classfwGdcmIO_1_1writer_1_1ie_1_1InformationEntity.html" target="_top" xlink:title="fwGdcmIO::writer::ie\l::InformationEntity\&lt;\l ::fwMedData::Study \&gt;">
<polygon fill="white" stroke="black" points="297,-190.5 297,-231.5 413,-231.5 413,-190.5 297,-190.5"/>
<text text-anchor="start" x="305" y="-219.5" font-family="Helvetica,sans-Serif" font-size="10.00">fwGdcmIO::writer::ie</text>
<text text-anchor="start" x="305" y="-208.5" font-family="Helvetica,sans-Serif" font-size="10.00">::InformationEntity&lt;</text>
<text text-anchor="middle" x="355" y="-197.5" font-family="Helvetica,sans-Serif" font-size="10.00"> ::fwMedData::Study &gt;</text>
</a>
</g>
</g>
<!-- Node1&#45;&gt;Node9 -->
<g id="edge8" class="edge"><title>Node1&#45;&gt;Node9</title>
<path fill="none" stroke="orange" stroke-dasharray="5,2" d="M117.8,-231.907C120.57,-231.592 123.313,-231.288 126,-231 184.078,-224.774 250.635,-219.104 296.783,-215.404"/>
<polygon fill="orange" stroke="orange" points="117.229,-228.45 107.704,-233.09 118.043,-235.403 117.229,-228.45"/>
<text text-anchor="middle" x="195" y="-234" font-family="Helvetica,sans-Serif" font-size="10.00"> &lt; ::fwMedData::Study &gt;</text>
</g>
<!-- Node11 -->
<g id="node11" class="node"><title>Node11</title>
<g id="a_node11"><a xlink:href="classfwGdcmIO_1_1writer_1_1ie_1_1InformationEntity.html" target="_top" xlink:title="fwGdcmIO::writer::ie\l::InformationEntity\&lt;\l ::fwData::Image \&gt;">
<polygon fill="white" stroke="black" points="301.5,-111.5 301.5,-152.5 408.5,-152.5 408.5,-111.5 301.5,-111.5"/>
<text text-anchor="start" x="309.5" y="-140.5" font-family="Helvetica,sans-Serif" font-size="10.00">fwGdcmIO::writer::ie</text>
<text text-anchor="start" x="309.5" y="-129.5" font-family="Helvetica,sans-Serif" font-size="10.00">::InformationEntity&lt;</text>
<text text-anchor="middle" x="355" y="-118.5" font-family="Helvetica,sans-Serif" font-size="10.00"> ::fwData::Image &gt;</text>
</a>
</g>
</g>
<!-- Node1&#45;&gt;Node11 -->
<g id="edge10" class="edge"><title>Node1&#45;&gt;Node11</title>
<path fill="none" stroke="orange" stroke-dasharray="5,2" d="M100.773,-214.632C109.049,-210.483 117.691,-206.427 126,-203 184.64,-178.817 254.627,-158.18 301.452,-145.488"/>
<polygon fill="orange" stroke="orange" points="98.9215,-211.648 91.6221,-219.328 102.117,-217.876 98.9215,-211.648"/>
<text text-anchor="middle" x="195" y="-206" font-family="Helvetica,sans-Serif" font-size="10.00"> &lt; ::fwData::Image &gt;</text>
</g>
<!-- Node15 -->
<g id="node15" class="node"><title>Node15</title>
<g id="a_node15"><a xlink:href="classfwGdcmIO_1_1writer_1_1ie_1_1InformationEntity.html" target="_top" xlink:title="fwGdcmIO::writer::ie\l::InformationEntity\&lt;\l ::fwMedData::Patient \&gt;">
<polygon fill="white" stroke="black" points="294,-13.5 294,-54.5 416,-54.5 416,-13.5 294,-13.5"/>
<text text-anchor="start" x="302" y="-42.5" font-family="Helvetica,sans-Serif" font-size="10.00">fwGdcmIO::writer::ie</text>
<text text-anchor="start" x="302" y="-31.5" font-family="Helvetica,sans-Serif" font-size="10.00">::InformationEntity&lt;</text>
<text text-anchor="middle" x="355" y="-20.5" font-family="Helvetica,sans-Serif" font-size="10.00"> ::fwMedData::Patient &gt;</text>
</a>
</g>
</g>
<!-- Node1&#45;&gt;Node15 -->
<g id="edge14" class="edge"><title>Node1&#45;&gt;Node15</title>
<path fill="none" stroke="orange" stroke-dasharray="5,2" d="M71.1326,-210.675C83.8434,-189.69 103.192,-161.918 126,-143 176.148,-101.405 244.836,-71.3891 293.681,-53.5152"/>
<polygon fill="orange" stroke="orange" points="67.997,-209.103 65.9361,-219.495 74.028,-212.656 67.997,-209.103"/>
<text text-anchor="middle" x="195" y="-146" font-family="Helvetica,sans-Serif" font-size="10.00"> &lt; ::fwMedData::Patient &gt;</text>
</g>
<!-- Node3 -->
<g id="node3" class="node"><title>Node3</title>
<g id="a_node3"><a xlink:href="classfwGdcmIO_1_1writer_1_1ie_1_1Equipment.html" target="_top" xlink:title="Equipment Information Entity class. ">
<polygon fill="white" stroke="black" points="466.5,-392 466.5,-422 573.5,-422 573.5,-392 466.5,-392"/>
<text text-anchor="start" x="474.5" y="-410" font-family="Helvetica,sans-Serif" font-size="10.00">fwGdcmIO::writer::ie</text>
<text text-anchor="middle" x="520" y="-399" font-family="Helvetica,sans-Serif" font-size="10.00">::Equipment</text>
</a>
</g>
</g>
<!-- Node2&#45;&gt;Node3 -->
<g id="edge2" class="edge"><title>Node2&#45;&gt;Node3</title>
<path fill="none" stroke="midnightblue" d="M433.808,-404.909C444.855,-405.18 455.993,-405.454 466.408,-405.709"/>
<polygon fill="midnightblue" stroke="midnightblue" points="433.793,-401.408 423.711,-404.662 433.622,-408.406 433.793,-401.408"/>
</g>
<!-- Node5 -->
<g id="node5" class="node"><title>Node5</title>
<g id="a_node5"><a xlink:href="classfwGdcmIO_1_1writer_1_1ie_1_1Surface.html" target="_top" xlink:title="Surface Information Entity class. ">
<polygon fill="white" stroke="black" points="466.5,-343 466.5,-373 573.5,-373 573.5,-343 466.5,-343"/>
<text text-anchor="start" x="474.5" y="-361" font-family="Helvetica,sans-Serif" font-size="10.00">fwGdcmIO::writer::ie</text>
<text text-anchor="middle" x="520" y="-350" font-family="Helvetica,sans-Serif" font-size="10.00">::Surface</text>
</a>
</g>
</g>
<!-- Node4&#45;&gt;Node5 -->
<g id="edge4" class="edge"><title>Node4&#45;&gt;Node5</title>
<path fill="none" stroke="midnightblue" d="M437.904,-348.547C447.457,-349.661 457.002,-350.773 466.015,-351.824"/>
<polygon fill="midnightblue" stroke="midnightblue" points="438.307,-345.07 427.969,-347.389 437.496,-352.023 438.307,-345.07"/>
</g>
<!-- Node7 -->
<g id="node7" class="node"><title>Node7</title>
<g id="a_node7"><a xlink:href="classfwGdcmIO_1_1writer_1_1ie_1_1FrameOfReference.html" target="_top" xlink:title="Frame Of Reference Information Entity class. ">
<polygon fill="white" stroke="black" points="466.5,-294 466.5,-324 573.5,-324 573.5,-294 466.5,-294"/>
<text text-anchor="start" x="474.5" y="-312" font-family="Helvetica,sans-Serif" font-size="10.00">fwGdcmIO::writer::ie</text>
<text text-anchor="middle" x="520" y="-301" font-family="Helvetica,sans-Serif" font-size="10.00">::FrameOfReference</text>
</a>
</g>
</g>
<!-- Node6&#45;&gt;Node7 -->
<g id="edge6" class="edge"><title>Node6&#45;&gt;Node7</title>
<path fill="none" stroke="midnightblue" d="M424.869,-287.055C438.787,-290.3 453.21,-293.662 466.458,-296.751"/>
<polygon fill="midnightblue" stroke="midnightblue" points="425.38,-283.581 414.847,-284.719 423.791,-290.398 425.38,-283.581"/>
</g>
<!-- Node8 -->
<g id="node8" class="node"><title>Node8</title>
<g id="a_node8"><a xlink:href="classfwGdcmIO_1_1writer_1_1ie_1_1Series.html" target="_top" xlink:title="Series Information Entity class. ">
<polygon fill="white" stroke="black" points="466.5,-245 466.5,-275 573.5,-275 573.5,-245 466.5,-245"/>
<text text-anchor="start" x="474.5" y="-263" font-family="Helvetica,sans-Serif" font-size="10.00">fwGdcmIO::writer::ie</text>
<text text-anchor="middle" x="520" y="-252" font-family="Helvetica,sans-Serif" font-size="10.00">::Series</text>
</a>
</g>
</g>
<!-- Node6&#45;&gt;Node8 -->
<g id="edge7" class="edge"><title>Node6&#45;&gt;Node8</title>
<path fill="none" stroke="midnightblue" d="M424.869,-266.352C438.787,-265.413 453.21,-264.44 466.458,-263.546"/>
<polygon fill="midnightblue" stroke="midnightblue" points="424.588,-262.863 414.847,-267.029 425.06,-269.847 424.588,-262.863"/>
</g>
<!-- Node10 -->
<g id="node10" class="node"><title>Node10</title>
<g id="a_node10"><a xlink:href="classfwGdcmIO_1_1writer_1_1ie_1_1Study.html" target="_top" xlink:title="Study Information Entity class. ">
<polygon fill="white" stroke="black" points="466.5,-196 466.5,-226 573.5,-226 573.5,-196 466.5,-196"/>
<text text-anchor="start" x="474.5" y="-214" font-family="Helvetica,sans-Serif" font-size="10.00">fwGdcmIO::writer::ie</text>
<text text-anchor="middle" x="520" y="-203" font-family="Helvetica,sans-Serif" font-size="10.00">::Study</text>
</a>
</g>
</g>
<!-- Node9&#45;&gt;Node10 -->
<g id="edge9" class="edge"><title>Node9&#45;&gt;Node10</title>
<path fill="none" stroke="midnightblue" d="M423.336,-211C437.702,-211 452.674,-211 466.392,-211"/>
<polygon fill="midnightblue" stroke="midnightblue" points="423.01,-207.5 413.009,-211 423.009,-214.5 423.01,-207.5"/>
</g>
<!-- Node12 -->
<g id="node12" class="node"><title>Node12</title>
<g id="a_node12"><a xlink:href="classfwGdcmIO_1_1writer_1_1ie_1_1Document.html" target="_top" xlink:title="Document Information Entity class. ">
<polygon fill="white" stroke="black" points="466.5,-147 466.5,-177 573.5,-177 573.5,-147 466.5,-147"/>
<text text-anchor="start" x="474.5" y="-165" font-family="Helvetica,sans-Serif" font-size="10.00">fwGdcmIO::writer::ie</text>
<text text-anchor="middle" x="520" y="-154" font-family="Helvetica,sans-Serif" font-size="10.00">::Document</text>
</a>
</g>
</g>
<!-- Node11&#45;&gt;Node12 -->
<g id="edge11" class="edge"><title>Node11&#45;&gt;Node12</title>
<path fill="none" stroke="midnightblue" d="M419.033,-143.601C434.669,-146.479 451.263,-149.533 466.344,-152.309"/>
<polygon fill="midnightblue" stroke="midnightblue" points="419.39,-140.108 408.921,-141.74 418.123,-146.992 419.39,-140.108"/>
</g>
<!-- Node13 -->
<g id="node13" class="node"><title>Node13</title>
<g id="a_node13"><a xlink:href="classfwGdcmIO_1_1writer_1_1ie_1_1Image.html" target="_top" xlink:title="Image Information Entity class. ">
<polygon fill="white" stroke="black" points="466.5,-98 466.5,-128 573.5,-128 573.5,-98 466.5,-98"/>
<text text-anchor="start" x="474.5" y="-116" font-family="Helvetica,sans-Serif" font-size="10.00">fwGdcmIO::writer::ie</text>
<text text-anchor="middle" x="520" y="-105" font-family="Helvetica,sans-Serif" font-size="10.00">::Image</text>
</a>
</g>
</g>
<!-- Node11&#45;&gt;Node13 -->
<g id="edge12" class="edge"><title>Node11&#45;&gt;Node13</title>
<path fill="none" stroke="midnightblue" d="M419.033,-124.653C434.669,-122.83 451.263,-120.896 466.344,-119.138"/>
<polygon fill="midnightblue" stroke="midnightblue" points="418.449,-121.197 408.921,-125.831 419.259,-128.15 418.449,-121.197"/>
</g>
<!-- Node14 -->
<g id="node14" class="node"><title>Node14</title>
<g id="a_node14"><a xlink:href="classfwGdcmIO_1_1writer_1_1ie_1_1SpatialFiducials.html" target="_top" xlink:title="Spatial Fiducials Information Entity class. ">
<polygon fill="white" stroke="black" points="466.5,-49 466.5,-79 573.5,-79 573.5,-49 466.5,-49"/>
<text text-anchor="start" x="474.5" y="-67" font-family="Helvetica,sans-Serif" font-size="10.00">fwGdcmIO::writer::ie</text>
<text text-anchor="middle" x="520" y="-56" font-family="Helvetica,sans-Serif" font-size="10.00">::SpatialFiducials</text>
</a>
</g>
</g>
<!-- Node11&#45;&gt;Node14 -->
<g id="edge13" class="edge"><title>Node11&#45;&gt;Node14</title>
<path fill="none" stroke="midnightblue" d="M414.627,-107.542C437.488,-98.0049 462.962,-87.3779 483.02,-79.01"/>
<polygon fill="midnightblue" stroke="midnightblue" points="413.229,-104.333 405.348,-111.413 415.924,-110.793 413.229,-104.333"/>
</g>
<!-- Node16 -->
<g id="node16" class="node"><title>Node16</title>
<g id="a_node16"><a xlink:href="classfwGdcmIO_1_1writer_1_1ie_1_1Patient.html" target="_top" xlink:title="Patient Information Entity class. ">
<polygon fill="white" stroke="black" points="466.5,-0 466.5,-30 573.5,-30 573.5,-0 466.5,-0"/>
<text text-anchor="start" x="474.5" y="-18" font-family="Helvetica,sans-Serif" font-size="10.00">fwGdcmIO::writer::ie</text>
<text text-anchor="middle" x="520" y="-7" font-family="Helvetica,sans-Serif" font-size="10.00">::Patient</text>
</a>
</g>
</g>
<!-- Node15&#45;&gt;Node16 -->
<g id="edge15" class="edge"><title>Node15&#45;&gt;Node16</title>
<path fill="none" stroke="midnightblue" d="M426.363,-25.7981C439.748,-24.2379 453.542,-22.6301 466.262,-21.1473"/>
<polygon fill="midnightblue" stroke="midnightblue" points="425.76,-22.3447 416.232,-26.9791 426.57,-29.2977 425.76,-22.3447"/>
</g>
</g>
</svg>
