<?xml version="1.0" encoding="UTF-8" standalone="no"?>
<!DOCTYPE svg PUBLIC "-//W3C//DTD SVG 1.1//EN"
 "http://www.w3.org/Graphics/SVG/1.1/DTD/svg11.dtd">
<!-- Generated by graphviz version 2.26.3 (20100126.1600)
 -->
<!-- Title: fwComEd::helper::MedicalImageAdaptor::getImageOrigin Pages: 1 -->
<svg width="586pt" height="160pt"
 viewBox="0.00 0.00 586.00 160.00" xmlns="http://www.w3.org/2000/svg" xmlns:xlink="http://www.w3.org/1999/xlink">
<g id="graph1" class="graph" transform="scale(1 1) rotate(0) translate(4 156)">
<title>fwComEd::helper::MedicalImageAdaptor::getImageOrigin</title>
<polygon fill="white" stroke="white" points="-4,5 -4,-156 583,-156 583,5 -4,5"/>
<!-- Node1 -->
<g id="node1" class="node"><title>Node1</title>
<polygon fill="#bfbfbf" stroke="black" points="0.5,-52 0.5,-86 149.5,-86 149.5,-52 0.5,-52"/>
<text text-anchor="start" x="8.5" y="-73" font-family="Helvetica,sans-Serif" font-size="10.00">fwComEd::helper::Medical</text>
<text text-anchor="middle" x="75" y="-60" font-family="Helvetica,sans-Serif" font-size="10.00">ImageAdaptor::getImageOrigin</text>
</g>
<!-- Node2 -->
<g id="node3" class="node"><title>Node2</title>
<a xlink:href="classfwComEd_1_1helper_1_1MedicalImageAdaptor.html#acf53576431af42e273c11a0c51c4d277" target="_top" xlink:title="Get the slice center. ">
<polygon fill="white" stroke="black" points="192.5,-104.5 192.5,-151.5 343.5,-151.5 343.5,-104.5 192.5,-104.5"/>
<text text-anchor="start" x="200.5" y="-138.5" font-family="Helvetica,sans-Serif" font-size="10.00">fwComEd::helper::Medical</text>
<text text-anchor="start" x="200.5" y="-125.5" font-family="Helvetica,sans-Serif" font-size="10.00">ImageAdaptor::getCurrentSlice</text>
<text text-anchor="middle" x="268" y="-112.5" font-family="Helvetica,sans-Serif" font-size="10.00">Center</text>
</a>
</g>
<!-- Node1&#45;&gt;Node2 -->
<g id="edge2" class="edge"><title>Node1&#45;&gt;Node2</title>
<path fill="none" stroke="midnightblue" d="M140.442,-89.0056C157.078,-94.0913 175.093,-99.5984 192.197,-104.827"/>
<polygon fill="midnightblue" stroke="midnightblue" points="141.41,-85.6417 130.824,-86.0652 139.364,-92.3359 141.41,-85.6417"/>
</g>
<!-- Node3 -->
<g id="node5" class="node"><title>Node3</title>
<a xlink:href="classfwComEd_1_1helper_1_1MedicalImageAdaptor.html#aa6fb95372eb7ca99b4464175145154fa" target="_top" xlink:title="Convert from world coordinates system to image coordinates system. ">
<polygon fill="white" stroke="black" points="186,-52 186,-86 350,-86 350,-52 186,-52"/>
<text text-anchor="start" x="194" y="-73" font-family="Helvetica,sans-Serif" font-size="10.00">fwComEd::helper::Medical</text>
<text text-anchor="middle" x="268" y="-60" font-family="Helvetica,sans-Serif" font-size="10.00">ImageAdaptor::sliceIndexToWorld</text>
</a>
</g>
<!-- Node1&#45;&gt;Node3 -->
<g id="edge4" class="edge"><title>Node1&#45;&gt;Node3</title>
<path fill="none" stroke="midnightblue" d="M159.737,-69C168.42,-69 177.233,-69 185.888,-69"/>
<polygon fill="midnightblue" stroke="midnightblue" points="159.619,-65.5001 149.619,-69 159.619,-72.5001 159.619,-65.5001"/>
</g>
<!-- Node4 -->
<g id="node7" class="node"><title>Node4</title>
<a xlink:href="classfwComEd_1_1helper_1_1MedicalImageAdaptor.html#ab9eff4141808affef1e0866892229f72" target="_top" xlink:title="Convert world coordinates to slice index coordinates. ">
<polygon fill="white" stroke="black" points="186,-0 186,-34 350,-34 350,-0 186,-0"/>
<text text-anchor="start" x="194" y="-21" font-family="Helvetica,sans-Serif" font-size="10.00">fwComEd::helper::Medical</text>
<text text-anchor="middle" x="268" y="-8" font-family="Helvetica,sans-Serif" font-size="10.00">ImageAdaptor::worldToSliceIndex</text>
</a>
</g>
<!-- Node1&#45;&gt;Node4 -->
<g id="edge6" class="edge"><title>Node1&#45;&gt;Node4</title>
<path fill="none" stroke="midnightblue" d="M148.098,-49.3053C166.718,-44.2885 186.575,-38.9384 204.663,-34.065"/>
<polygon fill="midnightblue" stroke="midnightblue" points="146.941,-45.9922 138.195,-51.9733 148.762,-52.7511 146.941,-45.9922"/>
</g>
<!-- Node5 -->
<g id="node9" class="node"><title>Node5</title>
<a xlink:href="classfwComEd_1_1helper_1_1MedicalImageAdaptor.html#a01ec81416078f961863b1fa1da85ccc7" target="_top" xlink:title="Convert coordinates in the world to coordinates in the image. ">
<polygon fill="white" stroke="black" points="386.5,-0 386.5,-34 577.5,-34 577.5,-0 386.5,-0"/>
<text text-anchor="start" x="394.5" y="-21" font-family="Helvetica,sans-Serif" font-size="10.00">fwComEd::helper::Medical</text>
<text text-anchor="middle" x="482" y="-8" font-family="Helvetica,sans-Serif" font-size="10.00">ImageAdaptor::worldToImageSliceIndex</text>
</a>
</g>
<!-- Node4&#45;&gt;Node5 -->
<g id="edge8" class="edge"><title>Node4&#45;&gt;Node5</title>
<path fill="none" stroke="midnightblue" d="M360.159,-17C368.768,-17 377.508,-17 386.15,-17"/>
<polygon fill="midnightblue" stroke="midnightblue" points="360.126,-13.5001 350.126,-17 360.126,-20.5001 360.126,-13.5001"/>
</g>
</g>
</svg>
