<?xml version="1.0" encoding="UTF-8" standalone="no"?>
<!DOCTYPE svg PUBLIC "-//W3C//DTD SVG 1.1//EN"
 "http://www.w3.org/Graphics/SVG/1.1/DTD/svg11.dtd">
<!-- Generated by graphviz version 2.36.0 (20140111.2315)
 -->
<!-- Title: fwVtkIO::MeshWriter Pages: 1 -->
<!--zoomable 152 -->
<svg id="main" version="1.1" xmlns="http://www.w3.org/2000/svg" xmlns:xlink="http://www.w3.org/1999/xlink" xml:space="preserve" onload="init(evt)">
<style type="text/css"><![CDATA[
.edge:hover path { stroke: red; }
.edge:hover polygon { stroke: red; fill: red; }
]]></style>
<script type="text/javascript"><![CDATA[
var edges = document.getElementsByTagName('g');
if (edges && edges.length) {
  for (var i=0;i<edges.length;i++) {
    if (edges[i].id.substr(0,4)=='edge') {
      edges[i].setAttribute('class','edge');
    }
  }
}
]]></script>
        <defs>
                <circle id="rim" cx="0" cy="0" r="7"/>
                <circle id="rim2" cx="0" cy="0" r="3.5"/>
                <g id="zoomPlus">
                        <use xlink:href="#rim" fill="#404040">
                                <set attributeName="fill" to="#808080" begin="zoomplus.mouseover" end="zoomplus.mouseout"/>
                        </use>
                        <path d="M-4,0h8M0,-4v8" fill="none" stroke="white" stroke-width="1.5" pointer-events="none"/>
                </g>
                <g id="zoomMin">
                        <use xlink:href="#rim" fill="#404040">
                                <set attributeName="fill" to="#808080" begin="zoomminus.mouseover" end="zoomminus.mouseout"/>
                        </use>
                        <path d="M-4,0h8" fill="none" stroke="white" stroke-width="1.5" pointer-events="none"/>
                </g>
                <g id="dirArrow">
                        <path fill="none" stroke="white" stroke-width="1.5" d="M0,-3.0v7 M-2.5,-0.5L0,-3.0L2.5,-0.5"/>
                </g>
               <g id="resetDef">
                       <use xlink:href="#rim2" fill="#404040">
                               <set attributeName="fill" to="#808080" begin="reset.mouseover" end="reset.mouseout"/>
                       </use>
               </g>
        </defs>

<script type="text/javascript">
var viewWidth = 1092;
var viewHeight = 152;
var sectionId = 'dynsection-1';
</script>
<script xlink:href="svgpan.js"/>
<svg id="graph" class="graph">
<g id="viewport">
<title>fwVtkIO::MeshWriter</title>
<polygon fill="white" stroke="none" points="-4,4 -4,-148 1088,-148 1088,4 -4,4"/>
<!-- Node1 -->
<g id="node1" class="node"><title>Node1</title>
<polygon fill="#bfbfbf" stroke="black" points="974.5,-45.5 974.5,-64.5 1083.5,-64.5 1083.5,-45.5 974.5,-45.5"/>
<text text-anchor="middle" x="1029" y="-52.5" font-family="Helvetica,sans-Serif" font-size="10.00">fwVtkIO::MeshWriter</text>
</g>
<!-- Node2 -->
<g id="node2" class="node"><title>Node2</title>
<g id="a_node2"><a xlink:href="classfwDataIO_1_1writer_1_1GenericObjectWriter.html" target="_top" xlink:title="fwDataIO::writer::Generic\lObjectWriter\&lt; ::fwData\l::Mesh \&gt;">
<polygon fill="white" stroke="black" points="808,-60.5 808,-101.5 936,-101.5 936,-60.5 808,-60.5"/>
<text text-anchor="start" x="816" y="-89.5" font-family="Helvetica,sans-Serif" font-size="10.00">fwDataIO::writer::Generic</text>
<text text-anchor="start" x="816" y="-78.5" font-family="Helvetica,sans-Serif" font-size="10.00">ObjectWriter&lt; ::fwData</text>
<text text-anchor="middle" x="872" y="-67.5" font-family="Helvetica,sans-Serif" font-size="10.00">::Mesh &gt;</text>
</a>
</g>
</g>
<!-- Node2&#45;&gt;Node1 -->
<g id="edge1" class="edge"><title>Node2&#45;&gt;Node1</title>
<path fill="none" stroke="midnightblue" d="M945.981,-68.7581C955.572,-67.1493 965.255,-65.525 974.441,-63.9841"/>
<polygon fill="midnightblue" stroke="midnightblue" points="945.328,-65.3186 936.044,-70.4248 946.486,-72.2222 945.328,-65.3186"/>
</g>
<!-- Node3 -->
<g id="node3" class="node"><title>Node3</title>
<g id="a_node3"><a xlink:href="classfwDataIO_1_1writer_1_1IObjectWriter.html" target="_top" xlink:title="Base class for all object writers. ">
<polygon fill="white" stroke="black" points="372,-87 372,-117 498,-117 498,-87 372,-87"/>
<text text-anchor="start" x="380" y="-105" font-family="Helvetica,sans-Serif" font-size="10.00">fwDataIO::writer::IObject</text>
<text text-anchor="middle" x="435" y="-94" font-family="Helvetica,sans-Serif" font-size="10.00">Writer</text>
</a>
</g>
</g>
<!-- Node3&#45;&gt;Node2 -->
<g id="edge2" class="edge"><title>Node3&#45;&gt;Node2</title>
<path fill="none" stroke="midnightblue" d="M508.499,-104.113C580.206,-105.37 692.974,-105.103 790,-95 795.82,-94.394 801.853,-93.6231 807.882,-92.7555"/>
<polygon fill="midnightblue" stroke="midnightblue" points="508.288,-100.609 498.224,-103.918 508.155,-107.608 508.288,-100.609"/>
</g>
<!-- Node8 -->
<g id="node8" class="node"><title>Node8</title>
<g id="a_node8"><a xlink:href="classfwDataIO_1_1writer_1_1GenericObjectWriter.html" target="_top" xlink:title="generic class for all object writers. ">
<polygon fill="white" stroke="black" points="536.5,-60 536.5,-90 679.5,-90 679.5,-60 536.5,-60"/>
<text text-anchor="start" x="544.5" y="-78" font-family="Helvetica,sans-Serif" font-size="10.00">fwDataIO::writer::Generic</text>
<text text-anchor="middle" x="608" y="-67" font-family="Helvetica,sans-Serif" font-size="10.00">ObjectWriter&lt; DATATYPE &gt;</text>
</a>
</g>
</g>
<!-- Node3&#45;&gt;Node8 -->
<g id="edge8" class="edge"><title>Node3&#45;&gt;Node8</title>
<path fill="none" stroke="midnightblue" d="M508.24,-90.5938C517.573,-89.1201 527.122,-87.6123 536.428,-86.143"/>
<polygon fill="midnightblue" stroke="midnightblue" points="507.55,-87.1591 498.219,-92.176 508.642,-94.0735 507.55,-87.1591"/>
</g>
<!-- Node4 -->
<g id="node4" class="node"><title>Node4</title>
<g id="a_node4"><a xlink:href="classfwCore_1_1BaseObject.html" target="_top" xlink:title="Base class for all FW4SPL&#39;s classes. ">
<polygon fill="white" stroke="black" points="170.5,-118.5 170.5,-137.5 275.5,-137.5 275.5,-118.5 170.5,-118.5"/>
<text text-anchor="middle" x="223" y="-125.5" font-family="Helvetica,sans-Serif" font-size="10.00">fwCore::BaseObject</text>
</a>
</g>
</g>
<!-- Node4&#45;&gt;Node3 -->
<g id="edge3" class="edge"><title>Node4&#45;&gt;Node3</title>
<path fill="none" stroke="midnightblue" d="M285.771,-120.352C312.845,-117 344.566,-113.073 371.701,-109.713"/>
<polygon fill="midnightblue" stroke="midnightblue" points="285.135,-116.904 275.641,-121.606 285.995,-123.851 285.135,-116.904"/>
</g>
<!-- Node5 -->
<g id="node5" class="node"><title>Node5</title>
<polygon fill="white" stroke="#bfbfbf" points="0.5,-114 0.5,-144 131.5,-144 131.5,-114 0.5,-114"/>
<text text-anchor="start" x="8.5" y="-132" font-family="Helvetica,sans-Serif" font-size="10.00">std::enable_shared</text>
<text text-anchor="middle" x="66" y="-121" font-family="Helvetica,sans-Serif" font-size="10.00">_from_this&lt; BaseObject &gt;</text>
</g>
<!-- Node5&#45;&gt;Node4 -->
<g id="edge4" class="edge"><title>Node5&#45;&gt;Node4</title>
<path fill="none" stroke="midnightblue" d="M142.089,-128.516C151.581,-128.454 161.12,-128.393 170.138,-128.335"/>
<polygon fill="midnightblue" stroke="midnightblue" points="141.813,-125.017 131.836,-128.582 141.858,-132.017 141.813,-125.017"/>
</g>
<!-- Node6 -->
<g id="node6" class="node"><title>Node6</title>
<g id="a_node6"><a xlink:title="STL class. ">
<polygon fill="white" stroke="#bfbfbf" points="193,-73.5 193,-92.5 253,-92.5 253,-73.5 193,-73.5"/>
<text text-anchor="middle" x="223" y="-80.5" font-family="Helvetica,sans-Serif" font-size="10.00">std::string</text>
</a>
</g>
</g>
<!-- Node6&#45;&gt;Node3 -->
<g id="edge5" class="edge"><title>Node6&#45;&gt;Node3</title>
<path fill="none" stroke="#9a32cd" stroke-dasharray="5,2" d="M263.442,-86.5685C293.941,-89.328 336.742,-93.2004 371.837,-96.3757"/>
<polygon fill="#9a32cd" stroke="#9a32cd" points="263.474,-83.0573 253.2,-85.6419 262.844,-90.0288 263.474,-83.0573"/>
<text text-anchor="middle" x="324" y="-98" font-family="Helvetica,sans-Serif" font-size="10.00"> m_extension</text>
</g>
<!-- Node7 -->
<g id="node7" class="node"><title>Node7</title>
<g id="a_node7"><a xlink:title="STL class. ">
<polygon fill="white" stroke="#bfbfbf" points="18.5,-65 18.5,-95 113.5,-95 113.5,-65 18.5,-65"/>
<text text-anchor="start" x="26.5" y="-83" font-family="Helvetica,sans-Serif" font-size="10.00">std::basic_string&lt;</text>
<text text-anchor="middle" x="66" y="-72" font-family="Helvetica,sans-Serif" font-size="10.00"> char &gt;</text>
</a>
</g>
</g>
<!-- Node7&#45;&gt;Node6 -->
<g id="edge6" class="edge"><title>Node7&#45;&gt;Node6</title>
<path fill="none" stroke="midnightblue" d="M123.677,-81.097C147.063,-81.5496 173.181,-82.0551 192.618,-82.4313"/>
<polygon fill="midnightblue" stroke="midnightblue" points="123.571,-77.5944 113.505,-80.9001 123.435,-84.5931 123.571,-77.5944"/>
</g>
<!-- Node8&#45;&gt;Node2 -->
<g id="edge7" class="edge"><title>Node8&#45;&gt;Node2</title>
<path fill="none" stroke="orange" stroke-dasharray="5,2" d="M689.586,-76.8455C727.64,-77.717 772.393,-78.7418 807.927,-79.5556"/>
<polygon fill="orange" stroke="orange" points="689.633,-73.3457 679.556,-76.6158 689.473,-80.3439 689.633,-73.3457"/>
<text text-anchor="middle" x="744" y="-83" font-family="Helvetica,sans-Serif" font-size="10.00"> &lt; ::fwData::Mesh &gt;</text>
</g>
<!-- Node9 -->
<g id="node9" class="node"><title>Node9</title>
<g id="a_node9"><a xlink:href="structfwData_1_1location_1_1enableSingleFile.html" target="_top" xlink:title="fwData::location::enable\lSingleFile\&lt; ::fwDataIO\l::writer::IObjectWriter \&gt;">
<polygon fill="white" stroke="black" points="811,-0.5 811,-41.5 933,-41.5 933,-0.5 811,-0.5"/>
<text text-anchor="start" x="819" y="-29.5" font-family="Helvetica,sans-Serif" font-size="10.00">fwData::location::enable</text>
<text text-anchor="start" x="819" y="-18.5" font-family="Helvetica,sans-Serif" font-size="10.00">SingleFile&lt; ::fwDataIO</text>
<text text-anchor="middle" x="872" y="-7.5" font-family="Helvetica,sans-Serif" font-size="10.00">::writer::IObjectWriter &gt;</text>
</a>
</g>
</g>
<!-- Node9&#45;&gt;Node1 -->
<g id="edge9" class="edge"><title>Node9&#45;&gt;Node1</title>
<path fill="none" stroke="midnightblue" d="M943.439,-36.451C957.375,-39.5081 971.619,-42.6325 984.347,-45.4245"/>
<polygon fill="midnightblue" stroke="midnightblue" points="943.889,-32.9666 933.371,-34.2426 942.389,-39.804 943.889,-32.9666"/>
</g>
<!-- Node10 -->
<g id="node10" class="node"><title>Node10</title>
<g id="a_node10"><a xlink:href="structfwData_1_1location_1_1enableSingleFile.html" target="_top" xlink:title="This class is derived by reader/writer. ">
<polygon fill="white" stroke="black" points="547,-6 547,-36 669,-36 669,-6 547,-6"/>
<text text-anchor="start" x="555" y="-24" font-family="Helvetica,sans-Serif" font-size="10.00">fwData::location::enable</text>
<text text-anchor="middle" x="608" y="-13" font-family="Helvetica,sans-Serif" font-size="10.00">SingleFile&lt; RW &gt;</text>
</a>
</g>
</g>
<!-- Node10&#45;&gt;Node9 -->
<g id="edge10" class="edge"><title>Node10&#45;&gt;Node9</title>
<path fill="none" stroke="orange" stroke-dasharray="5,2" d="M679.305,-21C720.328,-21 771.547,-21 810.718,-21"/>
<polygon fill="orange" stroke="orange" points="679.108,-17.5001 669.108,-21 679.108,-24.5001 679.108,-17.5001"/>
<text text-anchor="start" x="698.5" y="-35" font-family="Helvetica,sans-Serif" font-size="10.00"> &lt; ::fwDataIO::writer</text>
<text text-anchor="middle" x="744" y="-24" font-family="Helvetica,sans-Serif" font-size="10.00">::IObjectWriter &gt;</text>
</g>
</g>
</svg>
        <g id="navigator" transform="translate(0 0)" fill="#404254">
                <rect fill="#f2f5e9" fill-opacity="0.5" stroke="#606060" stroke-width=".5" x="0" y="0" width="60" height="60"/>
                <use id="zoomplus" xlink:href="#zoomPlus" x="17" y="9" onmousedown="handleZoom(evt,'in')"/>
                <use id="zoomminus" xlink:href="#zoomMin" x="42" y="9" onmousedown="handleZoom(evt,'out')"/>
                <use id="reset" xlink:href="#resetDef" x="30" y="36" onmousedown="handleReset()"/>
                <g id="arrowUp" xlink:href="#dirArrow" transform="translate(30 24)" onmousedown="handlePan(0,-1)">
                  <use xlink:href="#rim" fill="#404040">
                        <set attributeName="fill" to="#808080" begin="arrowUp.mouseover" end="arrowUp.mouseout"/>
                  </use>
                  <path fill="none" stroke="white" stroke-width="1.5" d="M0,-3.0v7 M-2.5,-0.5L0,-3.0L2.5,-0.5"/>
                </g>
                <g id="arrowRight" xlink:href="#dirArrow" transform="rotate(90) translate(36 -43)" onmousedown="handlePan(1,0)">
                  <use xlink:href="#rim" fill="#404040">
                        <set attributeName="fill" to="#808080" begin="arrowRight.mouseover" end="arrowRight.mouseout"/>
                  </use>
                  <path fill="none" stroke="white" stroke-width="1.5" d="M0,-3.0v7 M-2.5,-0.5L0,-3.0L2.5,-0.5"/>
                </g>
                <g id="arrowDown" xlink:href="#dirArrow" transform="rotate(180) translate(-30 -48)" onmousedown="handlePan(0,1)">
                  <use xlink:href="#rim" fill="#404040">
                        <set attributeName="fill" to="#808080" begin="arrowDown.mouseover" end="arrowDown.mouseout"/>
                  </use>
                  <path fill="none" stroke="white" stroke-width="1.5" d="M0,-3.0v7 M-2.5,-0.5L0,-3.0L2.5,-0.5"/>
                </g>
                <g id="arrowLeft" xlink:href="#dirArrow" transform="rotate(270) translate(-36 17)" onmousedown="handlePan(-1,0)">
                  <use xlink:href="#rim" fill="#404040">
                        <set attributeName="fill" to="#808080" begin="arrowLeft.mouseover" end="arrowLeft.mouseout"/>
                  </use>
                  <path fill="none" stroke="white" stroke-width="1.5" d="M0,-3.0v7 M-2.5,-0.5L0,-3.0L2.5,-0.5"/>
                </g>
        </g>
        <svg viewBox="0 0 15 15" width="100%" height="30px" preserveAspectRatio="xMaxYMin meet">
         <g id="arrow_out" transform="scale(0.3 0.3)">
          <a xlink:href="classfwVtkIO_1_1MeshWriter__coll__graph_org.svg" target="_base">
           <rect id="button" ry="5" rx="5" y="6" x="6" height="38" width="38"
                fill="#f2f5e9" fill-opacity="0.5" stroke="#606060" stroke-width="1.0"/>
           <path id="arrow"
             d="M 11.500037,31.436501 C 11.940474,20.09759 22.043105,11.32322 32.158766,21.979434 L 37.068811,17.246167 C 37.068811,17.246167 37.088388,32 37.088388,32 L 22.160133,31.978069 C 22.160133,31.978069 26.997745,27.140456 26.997745,27.140456 C 18.528582,18.264221 13.291696,25.230495 11.500037,31.436501 z"
             style="fill:#404040;"/>
          </a>
         </g>
        </svg>
</svg>
