<?xml version="1.0" encoding="UTF-8" standalone="no"?>
<!DOCTYPE svg PUBLIC "-//W3C//DTD SVG 1.1//EN"
 "http://www.w3.org/Graphics/SVG/1.1/DTD/svg11.dtd">
<!-- Generated by graphviz version 2.36.0 (20140111.2315)
 -->
<!-- Title: fwRuntime::profile::Uninitializer::apply Pages: 1 -->
<svg width="256pt" height="87pt"
 viewBox="0.00 0.00 256.00 87.00" xmlns="http://www.w3.org/2000/svg" xmlns:xlink="http://www.w3.org/1999/xlink">
<g id="graph0" class="graph" transform="scale(1 1) rotate(0) translate(4 83)">
<title>fwRuntime::profile::Uninitializer::apply</title>
<polygon fill="white" stroke="none" points="-4,4 -4,-83 252,-83 252,4 -4,4"/>
<!-- Node1 -->
<g id="node1" class="node"><title>Node1</title>
<polygon fill="#bfbfbf" stroke="black" points="0.5,-24 0.5,-54 103.5,-54 103.5,-24 0.5,-24"/>
<text text-anchor="start" x="8.5" y="-42" font-family="Helvetica,sans-Serif" font-size="10.00">fwRuntime::profile</text>
<text text-anchor="middle" x="52" y="-31" font-family="Helvetica,sans-Serif" font-size="10.00">::Uninitializer::apply</text>
</g>
<!-- Node2 -->
<g id="node2" class="node"><title>Node2</title>
<g id="a_node2"><a xlink:href="structfwRuntime_1_1Runtime.html#a9c4da5a51ec7a333c7748286e634aedc" target="_top" xlink:title="Retrieves the enabled bundle for the specified idenfier. ">
<polygon fill="white" stroke="black" points="140.5,-49 140.5,-79 247.5,-79 247.5,-49 140.5,-49"/>
<text text-anchor="start" x="148.5" y="-67" font-family="Helvetica,sans-Serif" font-size="10.00">fwRuntime::Runtime</text>
<text text-anchor="middle" x="194" y="-56" font-family="Helvetica,sans-Serif" font-size="10.00">::findEnabledBundle</text>
</a>
</g>
</g>
<!-- Node1&#45;&gt;Node2 -->
<g id="edge1" class="edge"><title>Node1&#45;&gt;Node2</title>
<path fill="none" stroke="midnightblue" d="M103.543,-48.0256C112.193,-49.5702 121.273,-51.1917 130.196,-52.785"/>
<polygon fill="midnightblue" stroke="midnightblue" points="129.712,-56.2539 140.172,-54.5664 130.943,-49.3629 129.712,-56.2539"/>
</g>
<!-- Node3 -->
<g id="node3" class="node"><title>Node3</title>
<g id="a_node3"><a xlink:href="structfwRuntime_1_1Runtime.html#acf43340892d940d12b36db78376fe08f" target="_top" xlink:title="Retrieves the default runtime instance. ">
<polygon fill="white" stroke="black" points="140.5,-0 140.5,-30 247.5,-30 247.5,-0 140.5,-0"/>
<text text-anchor="start" x="148.5" y="-18" font-family="Helvetica,sans-Serif" font-size="10.00">fwRuntime::Runtime</text>
<text text-anchor="middle" x="194" y="-7" font-family="Helvetica,sans-Serif" font-size="10.00">::getDefault</text>
</a>
</g>
</g>
<!-- Node1&#45;&gt;Node3 -->
<g id="edge2" class="edge"><title>Node1&#45;&gt;Node3</title>
<path fill="none" stroke="midnightblue" d="M103.543,-30.3354C112.193,-28.8526 121.273,-27.296 130.196,-25.7664"/>
<polygon fill="midnightblue" stroke="midnightblue" points="130.907,-29.1957 140.172,-24.0563 129.724,-22.2963 130.907,-29.1957"/>
</g>
</g>
</svg>
