<?xml version="1.0" encoding="UTF-8" standalone="no"?>
<!DOCTYPE svg PUBLIC "-//W3C//DTD SVG 1.1//EN"
 "http://www.w3.org/Graphics/SVG/1.1/DTD/svg11.dtd">
<!-- Generated by graphviz version 2.26.3 (20100126.1600)
 -->
<!-- Title: fwVtkIO::helper::Mesh::fromVTKGrid Pages: 1 -->
<svg width="292pt" height="42pt"
 viewBox="0.00 0.00 292.00 42.00" xmlns="http://www.w3.org/2000/svg" xmlns:xlink="http://www.w3.org/1999/xlink">
<g id="graph1" class="graph" transform="scale(1 1) rotate(0) translate(4 38)">
<title>fwVtkIO::helper::Mesh::fromVTKGrid</title>
<polygon fill="white" stroke="white" points="-4,5 -4,-38 289,-38 289,5 -4,5"/>
<!-- Node1 -->
<g id="node1" class="node"><title>Node1</title>
<polygon fill="#bfbfbf" stroke="black" points="0.5,-0 0.5,-34 115.5,-34 115.5,-0 0.5,-0"/>
<text text-anchor="start" x="8.5" y="-21" font-family="Helvetica,sans-Serif" font-size="10.00">fwVtkIO::helper::Mesh</text>
<text text-anchor="middle" x="58" y="-8" font-family="Helvetica,sans-Serif" font-size="10.00">::fromVTKGrid</text>
</g>
<!-- Node2 -->
<g id="node3" class="node"><title>Node2</title>
<a xlink:href="classfwVtkIO_1_1SeriesDBReader.html#aae0981697623203c49633157bb690549" target="_top" xlink:title="Destructor. ">
<polygon fill="white" stroke="black" points="152,-0 152,-34 284,-34 284,-0 152,-0"/>
<text text-anchor="start" x="160" y="-21" font-family="Helvetica,sans-Serif" font-size="10.00">fwVtkIO::SeriesDBReader</text>
<text text-anchor="middle" x="218" y="-8" font-family="Helvetica,sans-Serif" font-size="10.00">::~SeriesDBReader</text>
</a>
</g>
<!-- Node1&#45;&gt;Node2 -->
<g id="edge2" class="edge"><title>Node1&#45;&gt;Node2</title>
<path fill="none" stroke="midnightblue" d="M125.797,-17C134.441,-17 143.28,-17 151.897,-17"/>
<polygon fill="midnightblue" stroke="midnightblue" points="125.764,-13.5001 115.764,-17 125.764,-20.5001 125.764,-13.5001"/>
</g>
</g>
</svg>
