<?xml version="1.0" encoding="UTF-8" standalone="no"?>
<!DOCTYPE svg PUBLIC "-//W3C//DTD SVG 1.1//EN"
 "http://www.w3.org/Graphics/SVG/1.1/DTD/svg11.dtd">
<!-- Generated by graphviz version 2.26.3 (20100126.1600)
 -->
<!-- Title: fwGdcmIO::container::sr::DicomSRNumNode Pages: 1 -->
<svg width="443pt" height="400pt"
 viewBox="0.00 0.00 443.00 400.00" xmlns="http://www.w3.org/2000/svg" xmlns:xlink="http://www.w3.org/1999/xlink">
<g id="graph1" class="graph" transform="scale(1 1) rotate(0) translate(4 396)">
<title>fwGdcmIO::container::sr::DicomSRNumNode</title>
<polygon fill="white" stroke="white" points="-4,5 -4,-396 440,-396 440,5 -4,5"/>
<!-- Node1 -->
<g id="node1" class="node"><title>Node1</title>
<polygon fill="#bfbfbf" stroke="black" points="29,-1 29,-35 153,-35 153,-1 29,-1"/>
<text text-anchor="start" x="37" y="-22" font-family="Helvetica,sans-Serif" font-size="10.00">fwGdcmIO::container</text>
<text text-anchor="middle" x="91" y="-9" font-family="Helvetica,sans-Serif" font-size="10.00">::sr::DicomSRNumNode</text>
</g>
<!-- Node2 -->
<g id="node2" class="node"><title>Node2</title>
<a xlink:href="classfwGdcmIO_1_1container_1_1sr_1_1DicomSRNode.html" target="_top" xlink:title="This class defines a node in a SR document. ">
<polygon fill="white" stroke="black" points="160,-75 160,-109 270,-109 270,-75 160,-75"/>
<text text-anchor="start" x="168" y="-96" font-family="Helvetica,sans-Serif" font-size="10.00">fwGdcmIO::container</text>
<text text-anchor="middle" x="215" y="-83" font-family="Helvetica,sans-Serif" font-size="10.00">::sr::DicomSRNode</text>
</a>
</g>
<!-- Node2&#45;&gt;Node1 -->
<g id="edge2" class="edge"><title>Node2&#45;&gt;Node1</title>
<path fill="none" stroke="midnightblue" d="M177.436,-69.5826C158.856,-58.4944 136.79,-45.3262 119.604,-35.07"/>
<polygon fill="midnightblue" stroke="midnightblue" points="175.859,-72.7178 186.24,-74.8369 179.447,-66.7068 175.859,-72.7178"/>
</g>
<!-- Node3 -->
<g id="node4" class="node"><title>Node3</title>
<a xlink:href="classfwGdcmIO_1_1container_1_1DicomCodedAttribute.html" target="_top" xlink:title="This class defines a coded entry of a SR. ">
<polygon fill="white" stroke="black" points="0,-161 0,-195 116,-195 116,-161 0,-161"/>
<text text-anchor="start" x="8" y="-182" font-family="Helvetica,sans-Serif" font-size="10.00">fwGdcmIO::container</text>
<text text-anchor="middle" x="58" y="-169" font-family="Helvetica,sans-Serif" font-size="10.00">::DicomCodedAttribute</text>
</a>
</g>
<!-- Node3&#45;&gt;Node1 -->
<g id="edge18" class="edge"><title>Node3&#45;&gt;Node1</title>
<path fill="none" stroke="#9a32cd" stroke-dasharray="5,2" d="M50.7933,-150.958C46.361,-129.567 42.9212,-99.2095 51,-74 55.6671,-59.4365 65.6671,-45.4365 74.5003,-35.0774"/>
<polygon fill="#9a32cd" stroke="#9a32cd" points="47.4391,-151.992 53.074,-160.964 54.264,-150.436 47.4391,-151.992"/>
<text text-anchor="middle" x="101" y="-89.5" font-family="Helvetica,sans-Serif" font-size="10.00"> m_measurementUnits</text>
</g>
<!-- Node3&#45;&gt;Node2 -->
<g id="edge4" class="edge"><title>Node3&#45;&gt;Node2</title>
<path fill="none" stroke="#9a32cd" stroke-dasharray="5,2" d="M77.2932,-152.719C85.0897,-143.889 94.6855,-134.558 105,-128 114.666,-121.855 137.536,-114.044 159.934,-107.269"/>
<polygon fill="#9a32cd" stroke="#9a32cd" points="74.429,-150.687 70.6699,-160.592 79.7857,-155.193 74.429,-150.687"/>
<text text-anchor="middle" x="145" y="-132.5" font-family="Helvetica,sans-Serif" font-size="10.00"> m_codedAttribute</text>
</g>
<!-- Node4 -->
<g id="node6" class="node"><title>Node4</title>
<a xlink:title="STL class. ">
<polygon fill="white" stroke="#bfbfbf" points="99,-284.5 99,-305.5 159,-305.5 159,-284.5 99,-284.5"/>
<text text-anchor="middle" x="129" y="-292.5" font-family="Helvetica,sans-Serif" font-size="10.00">std::string</text>
</a>
</g>
<!-- Node4&#45;&gt;Node2 -->
<g id="edge10" class="edge"><title>Node4&#45;&gt;Node2</title>
<path fill="none" stroke="#9a32cd" stroke-dasharray="5,2" d="M168.113,-280.782C174.579,-276.879 180.599,-272.013 185,-266 194.234,-253.385 207.802,-150.383 212.932,-109.06"/>
<polygon fill="#9a32cd" stroke="#9a32cd" points="166.338,-277.761 159.129,-285.526 169.606,-283.951 166.338,-277.761"/>
<text text-anchor="middle" x="239.5" y="-182" font-family="Helvetica,sans-Serif" font-size="10.00"> m_relationship</text>
<text text-anchor="middle" x="239.5" y="-169" font-family="Helvetica,sans-Serif" font-size="10.00">m_type</text>
</g>
<!-- Node4&#45;&gt;Node3 -->
<g id="edge6" class="edge"><title>Node4&#45;&gt;Node3</title>
<path fill="none" stroke="#9a32cd" stroke-dasharray="5,2" d="M89.1871,-287.341C77.5215,-283.057 66.0244,-276.385 59,-266 44.7903,-244.992 48.5883,-214.227 53.0151,-195.192"/>
<polygon fill="#9a32cd" stroke="#9a32cd" points="88.3418,-290.745 98.9313,-290.408 90.443,-284.067 88.3418,-290.745"/>
<text text-anchor="middle" x="122" y="-257" font-family="Helvetica,sans-Serif" font-size="10.00"> m_codeMeaning</text>
<text text-anchor="middle" x="122" y="-244" font-family="Helvetica,sans-Serif" font-size="10.00">m_codingSchemeVersion</text>
<text text-anchor="middle" x="122" y="-231" font-family="Helvetica,sans-Serif" font-size="10.00">m_codingSchemeDesignator</text>
<text text-anchor="middle" x="122" y="-218" font-family="Helvetica,sans-Serif" font-size="10.00">m_codeValue</text>
</g>
<!-- Node5 -->
<g id="node8" class="node"><title>Node5</title>
<a xlink:title="STL class. ">
<polygon fill="white" stroke="#bfbfbf" points="81.5,-357 81.5,-391 176.5,-391 176.5,-357 81.5,-357"/>
<text text-anchor="start" x="89.5" y="-378" font-family="Helvetica,sans-Serif" font-size="10.00">std::basic_string&lt;</text>
<text text-anchor="middle" x="129" y="-365" font-family="Helvetica,sans-Serif" font-size="10.00"> char &gt;</text>
</a>
</g>
<!-- Node5&#45;&gt;Node4 -->
<g id="edge8" class="edge"><title>Node5&#45;&gt;Node4</title>
<path fill="none" stroke="midnightblue" d="M129,-346.623C129,-332.473 129,-316.024 129,-305.567"/>
<polygon fill="midnightblue" stroke="midnightblue" points="125.5,-346.858 129,-356.858 132.5,-346.858 125.5,-346.858"/>
</g>
<!-- Node6 -->
<g id="node11" class="node"><title>Node6</title>
<polygon fill="white" stroke="#bfbfbf" points="284,-161 284,-195 410,-195 410,-161 284,-161"/>
<text text-anchor="start" x="292" y="-182" font-family="Helvetica,sans-Serif" font-size="10.00">std::vector&lt; std::shared</text>
<text text-anchor="middle" x="347" y="-169" font-family="Helvetica,sans-Serif" font-size="10.00">_ptr&lt; DicomSRNode &gt; &gt;</text>
</g>
<!-- Node6&#45;&gt;Node2 -->
<g id="edge12" class="edge"><title>Node6&#45;&gt;Node2</title>
<path fill="none" stroke="#9a32cd" stroke-dasharray="5,2" d="M312.124,-155.278C289.936,-140.822 261.662,-122.401 241.349,-109.167"/>
<polygon fill="#9a32cd" stroke="#9a32cd" points="310.316,-158.277 320.605,-160.803 314.137,-152.412 310.316,-158.277"/>
<text text-anchor="middle" x="338" y="-132.5" font-family="Helvetica,sans-Serif" font-size="10.00"> m_subNodeContainer</text>
</g>
<!-- Node7 -->
<g id="node13" class="node"><title>Node7</title>
<a xlink:title="STL class. ">
<polygon fill="white" stroke="#bfbfbf" points="303.5,-284.5 303.5,-305.5 390.5,-305.5 390.5,-284.5 303.5,-284.5"/>
<text text-anchor="middle" x="347" y="-292.5" font-family="Helvetica,sans-Serif" font-size="10.00">std::vector&lt; T &gt;</text>
</a>
</g>
<!-- Node7&#45;&gt;Node6 -->
<g id="edge14" class="edge"><title>Node7&#45;&gt;Node6</title>
<path fill="none" stroke="orange" stroke-dasharray="5,2" d="M347,-274.008C347,-251.464 347,-216.069 347,-195.138"/>
<polygon fill="orange" stroke="orange" points="343.5,-274.203 347,-284.203 350.5,-274.203 343.5,-274.203"/>
<text text-anchor="start" x="347" y="-244" font-family="Helvetica,sans-Serif" font-size="10.00"> &lt; std::shared_ptr&lt;</text>
<text text-anchor="middle" x="391" y="-231" font-family="Helvetica,sans-Serif" font-size="10.00"> DicomSRNode &gt; &gt;</text>
</g>
<!-- Node8 -->
<g id="node15" class="node"><title>Node8</title>
<polygon fill="white" stroke="#bfbfbf" points="332.5,-363.5 332.5,-384.5 361.5,-384.5 361.5,-363.5 332.5,-363.5"/>
<text text-anchor="middle" x="347" y="-371.5" font-family="Helvetica,sans-Serif" font-size="10.00">T</text>
</g>
<!-- Node8&#45;&gt;Node7 -->
<g id="edge16" class="edge"><title>Node8&#45;&gt;Node7</title>
<path fill="none" stroke="#9a32cd" stroke-dasharray="5,2" d="M347,-353.284C347,-338.031 347,-317.907 347,-305.738"/>
<polygon fill="#9a32cd" stroke="#9a32cd" points="343.5,-353.346 347,-363.346 350.5,-353.346 343.5,-353.346"/>
<text text-anchor="middle" x="368.5" y="-328.5" font-family="Helvetica,sans-Serif" font-size="10.00"> elements</text>
</g>
</g>
</svg>
