<?xml version="1.0" encoding="UTF-8" standalone="no"?>
<!DOCTYPE svg PUBLIC "-//W3C//DTD SVG 1.1//EN"
 "http://www.w3.org/Graphics/SVG/1.1/DTD/svg11.dtd">
<!-- Generated by graphviz version 2.26.3 (20100126.1600)
 -->
<!-- Title: vtkCompositeMesh::RendererService Pages: 1 -->
<svg width="1714pt" height="231pt"
 viewBox="0.00 0.00 1714.00 231.00" xmlns="http://www.w3.org/2000/svg" xmlns:xlink="http://www.w3.org/1999/xlink">
<g id="graph1" class="graph" transform="scale(1 1) rotate(0) translate(4 227)">
<title>vtkCompositeMesh::RendererService</title>
<polygon fill="white" stroke="white" points="-4,5 -4,-227 1711,-227 1711,5 -4,5"/>
<!-- Node1 -->
<g id="node1" class="node"><title>Node1</title>
<polygon fill="#bfbfbf" stroke="black" points="1558.5,-0 1558.5,-34 1705.5,-34 1705.5,-0 1558.5,-0"/>
<text text-anchor="start" x="1566.5" y="-21" font-family="Helvetica,sans-Serif" font-size="10.00">vtkCompositeMesh::Renderer</text>
<text text-anchor="middle" x="1632" y="-8" font-family="Helvetica,sans-Serif" font-size="10.00">Service</text>
</g>
<!-- Node2 -->
<g id="node2" class="node"><title>Node2</title>
<a xlink:href="classfwRender_1_1IRender.html" target="_top" xlink:title="Defines the service interface managing the rendering service for object. ">
<polygon fill="white" stroke="black" points="1420.5,-59.5 1420.5,-80.5 1519.5,-80.5 1519.5,-59.5 1420.5,-59.5"/>
<text text-anchor="middle" x="1470" y="-67.5" font-family="Helvetica,sans-Serif" font-size="10.00">fwRender::IRender</text>
</a>
</g>
<!-- Node2&#45;&gt;Node1 -->
<g id="edge2" class="edge"><title>Node2&#45;&gt;Node1</title>
<path fill="none" stroke="midnightblue" d="M1512.17,-56.2049C1532.87,-49.4326 1558,-41.21 1579.89,-34.0476"/>
<polygon fill="midnightblue" stroke="midnightblue" points="1510.81,-52.966 1502.39,-59.402 1512.99,-59.619 1510.81,-52.966"/>
</g>
<!-- Node3 -->
<g id="node4" class="node"><title>Node3</title>
<a xlink:href="classfwGui_1_1IGuiContainerSrv.html" target="_top" xlink:title="Defines the service interface managing the layout. ">
<polygon fill="white" stroke="black" points="1250.5,-86.5 1250.5,-107.5 1373.5,-107.5 1373.5,-86.5 1250.5,-86.5"/>
<text text-anchor="middle" x="1312" y="-94.5" font-family="Helvetica,sans-Serif" font-size="10.00">fwGui::IGuiContainerSrv</text>
</a>
</g>
<!-- Node3&#45;&gt;Node2 -->
<g id="edge4" class="edge"><title>Node3&#45;&gt;Node2</title>
<path fill="none" stroke="midnightblue" d="M1383.4,-84.7986C1395.79,-82.6809 1408.44,-80.5201 1420.1,-78.5273"/>
<polygon fill="midnightblue" stroke="midnightblue" points="1382.81,-81.3493 1373.54,-86.4838 1383.99,-88.2492 1382.81,-81.3493"/>
</g>
<!-- Node4 -->
<g id="node6" class="node"><title>Node4</title>
<a xlink:href="classfwServices_1_1IService.html" target="_top" xlink:title="Base class for all services. ">
<polygon fill="white" stroke="black" points="1096.5,-90.5 1096.5,-111.5 1203.5,-111.5 1203.5,-90.5 1096.5,-90.5"/>
<text text-anchor="middle" x="1150" y="-98.5" font-family="Helvetica,sans-Serif" font-size="10.00">fwServices::IService</text>
</a>
</g>
<!-- Node4&#45;&gt;Node3 -->
<g id="edge6" class="edge"><title>Node4&#45;&gt;Node3</title>
<path fill="none" stroke="midnightblue" d="M1214.26,-99.4132C1226.19,-99.1188 1238.62,-98.812 1250.46,-98.5196"/>
<polygon fill="midnightblue" stroke="midnightblue" points="1213.85,-95.9222 1203.94,-99.6681 1214.03,-102.92 1213.85,-95.9222"/>
</g>
<!-- Node5 -->
<g id="node8" class="node"><title>Node5</title>
<a xlink:href="classfwTools_1_1Object.html" target="_top" xlink:title="Define Base class for FW4SPL objects and services. ">
<polygon fill="white" stroke="black" points="879,-155.5 879,-176.5 965,-176.5 965,-155.5 879,-155.5"/>
<text text-anchor="middle" x="922" y="-163.5" font-family="Helvetica,sans-Serif" font-size="10.00">fwTools::Object</text>
</a>
</g>
<!-- Node5&#45;&gt;Node4 -->
<g id="edge8" class="edge"><title>Node5&#45;&gt;Node4</title>
<path fill="none" stroke="midnightblue" d="M974.986,-154.165C1005.35,-147.032 1044.05,-137.344 1078,-127 1093,-122.429 1109.47,-116.548 1122.87,-111.536"/>
<polygon fill="midnightblue" stroke="midnightblue" points="973.974,-150.807 965.028,-156.483 975.561,-157.625 973.974,-150.807"/>
</g>
<!-- Node6 -->
<g id="node10" class="node"><title>Node6</title>
<a xlink:href="classfwCore_1_1BaseObject.html" target="_top" xlink:title="Base class for all FW4SPL&#39;s classes. ">
<polygon fill="white" stroke="black" points="680.5,-195.5 680.5,-216.5 785.5,-216.5 785.5,-195.5 680.5,-195.5"/>
<text text-anchor="middle" x="733" y="-203.5" font-family="Helvetica,sans-Serif" font-size="10.00">fwCore::BaseObject</text>
</a>
</g>
<!-- Node6&#45;&gt;Node5 -->
<g id="edge10" class="edge"><title>Node6&#45;&gt;Node5</title>
<path fill="none" stroke="midnightblue" d="M792.712,-193.363C820.64,-187.452 853.28,-180.544 878.777,-175.148"/>
<polygon fill="midnightblue" stroke="midnightblue" points="791.716,-189.996 782.658,-195.49 793.166,-196.844 791.716,-189.996"/>
</g>
<!-- Node7 -->
<g id="node12" class="node"><title>Node7</title>
<polygon fill="white" stroke="#bfbfbf" points="449.5,-189 449.5,-223 580.5,-223 580.5,-189 449.5,-189"/>
<text text-anchor="start" x="457.5" y="-210" font-family="Helvetica,sans-Serif" font-size="10.00">std::enable_shared</text>
<text text-anchor="middle" x="515" y="-197" font-family="Helvetica,sans-Serif" font-size="10.00">_from_this&lt; BaseObject &gt;</text>
</g>
<!-- Node7&#45;&gt;Node6 -->
<g id="edge12" class="edge"><title>Node7&#45;&gt;Node6</title>
<path fill="none" stroke="midnightblue" d="M590.959,-206C620.418,-206 653.435,-206 680.216,-206"/>
<polygon fill="midnightblue" stroke="midnightblue" points="590.703,-202.5 580.703,-206 590.703,-209.5 590.703,-202.5"/>
</g>
<!-- Node8 -->
<g id="node14" class="node"><title>Node8</title>
<a xlink:href="classfwTools_1_1fwID.html" target="_top" xlink:title="Defines ID for fwTools::Object. It is used to associate ID with object. ">
<polygon fill="white" stroke="black" points="694,-155.5 694,-176.5 772,-176.5 772,-155.5 694,-155.5"/>
<text text-anchor="middle" x="733" y="-163.5" font-family="Helvetica,sans-Serif" font-size="10.00">fwTools::fwID</text>
</a>
</g>
<!-- Node8&#45;&gt;Node5 -->
<g id="edge14" class="edge"><title>Node8&#45;&gt;Node5</title>
<path fill="none" stroke="darkgreen" d="M782.399,-166C812.353,-166 850.205,-166 878.936,-166"/>
<polygon fill="darkgreen" stroke="darkgreen" points="782.161,-162.5 772.161,-166 782.161,-169.5 782.161,-162.5"/>
</g>
<!-- Node9 -->
<g id="node16" class="node"><title>Node9</title>
<a xlink:href="classfwCom_1_1HasSlots.html" target="_top" xlink:title="This class proposes a mapping between a SlotKeyType and a SlotBase. ">
<polygon fill="white" stroke="black" points="874.5,-75.5 874.5,-96.5 969.5,-96.5 969.5,-75.5 874.5,-75.5"/>
<text text-anchor="middle" x="922" y="-83.5" font-family="Helvetica,sans-Serif" font-size="10.00">fwCom::HasSlots</text>
</a>
</g>
<!-- Node9&#45;&gt;Node4 -->
<g id="edge16" class="edge"><title>Node9&#45;&gt;Node4</title>
<path fill="none" stroke="midnightblue" d="M979.8,-89.8027C1015.56,-92.1551 1061.15,-95.1547 1096.15,-97.4571"/>
<polygon fill="midnightblue" stroke="midnightblue" points="979.727,-86.2903 969.519,-89.1262 979.267,-93.2752 979.727,-86.2903"/>
</g>
<!-- Node10 -->
<g id="node18" class="node"><title>Node10</title>
<a xlink:href="classfwCom_1_1Slots.html" target="_top" xlink:title="This class proposes a mapping between a SlotKeyType and a SlotBase. ">
<polygon fill="white" stroke="black" points="694.5,-69.5 694.5,-90.5 771.5,-90.5 771.5,-69.5 694.5,-69.5"/>
<text text-anchor="middle" x="733" y="-77.5" font-family="Helvetica,sans-Serif" font-size="10.00">fwCom::Slots</text>
</a>
</g>
<!-- Node10&#45;&gt;Node9 -->
<g id="edge18" class="edge"><title>Node10&#45;&gt;Node9</title>
<path fill="none" stroke="#9a32cd" stroke-dasharray="5,2" d="M781.832,-81.5502C810.292,-82.4537 846.028,-83.5882 874.293,-84.4855"/>
<polygon fill="#9a32cd" stroke="#9a32cd" points="781.809,-78.0478 771.703,-81.2287 781.587,-85.0443 781.809,-78.0478"/>
<text text-anchor="middle" x="828" y="-87" font-family="Helvetica,sans-Serif" font-size="10.00"> m_slots</text>
</g>
<!-- Node11 -->
<g id="node20" class="node"><title>Node11</title>
<polygon fill="white" stroke="#bfbfbf" points="439,-59 439,-93 591,-93 591,-59 439,-59"/>
<text text-anchor="start" x="447" y="-80" font-family="Helvetica,sans-Serif" font-size="10.00">std::map&lt; SlotKeyType,</text>
<text text-anchor="middle" x="515" y="-67" font-family="Helvetica,sans-Serif" font-size="10.00"> std::shared_ptr&lt; SlotBase &gt; &gt;</text>
</g>
<!-- Node11&#45;&gt;Node10 -->
<g id="edge20" class="edge"><title>Node11&#45;&gt;Node10</title>
<path fill="none" stroke="#9a32cd" stroke-dasharray="5,2" d="M601.588,-77.5888C633.782,-78.1795 668.703,-78.8202 694.45,-79.2927"/>
<polygon fill="#9a32cd" stroke="#9a32cd" points="601.308,-74.0831 591.246,-77.399 601.18,-81.082 601.308,-74.0831"/>
<text text-anchor="middle" x="638" y="-82" font-family="Helvetica,sans-Serif" font-size="10.00"> m_slots</text>
</g>
<!-- Node12 -->
<g id="node22" class="node"><title>Node12</title>
<a xlink:title="STL class. ">
<polygon fill="white" stroke="#bfbfbf" points="192,-136.5 192,-157.5 252,-157.5 252,-136.5 192,-136.5"/>
<text text-anchor="middle" x="222" y="-144.5" font-family="Helvetica,sans-Serif" font-size="10.00">std::string</text>
</a>
</g>
<!-- Node12&#45;&gt;Node11 -->
<g id="edge22" class="edge"><title>Node12&#45;&gt;Node11</title>
<path fill="none" stroke="#9a32cd" stroke-dasharray="5,2" d="M234.251,-127.757C245.538,-111.952 263.865,-90.6552 286,-81 312.563,-69.4137 383.108,-69.3997 438.944,-71.5365"/>
<polygon fill="#9a32cd" stroke="#9a32cd" points="231.171,-126.061 228.442,-136.299 236.96,-129.998 231.171,-126.061"/>
<text text-anchor="middle" x="351" y="-85" font-family="Helvetica,sans-Serif" font-size="10.00"> keys</text>
</g>
<!-- Node19 -->
<g id="node36" class="node"><title>Node19</title>
<polygon fill="white" stroke="#bfbfbf" points="434.5,-111 434.5,-145 595.5,-145 595.5,-111 434.5,-111"/>
<text text-anchor="start" x="442.5" y="-132" font-family="Helvetica,sans-Serif" font-size="10.00">std::map&lt; SignalKeyType,</text>
<text text-anchor="middle" x="515" y="-119" font-family="Helvetica,sans-Serif" font-size="10.00"> std::shared_ptr&lt; SignalBase &gt; &gt;</text>
</g>
<!-- Node12&#45;&gt;Node19 -->
<g id="edge38" class="edge"><title>Node12&#45;&gt;Node19</title>
<path fill="none" stroke="#9a32cd" stroke-dasharray="5,2" d="M262.565,-149.229C301.888,-150.864 363.173,-152.023 416,-147 422.011,-146.428 428.199,-145.666 434.409,-144.774"/>
<polygon fill="#9a32cd" stroke="#9a32cd" points="262.473,-145.721 252.327,-148.771 262.161,-152.714 262.473,-145.721"/>
<text text-anchor="middle" x="351" y="-154" font-family="Helvetica,sans-Serif" font-size="10.00"> keys</text>
</g>
<!-- Node13 -->
<g id="node24" class="node"><title>Node13</title>
<a xlink:title="STL class. ">
<polygon fill="white" stroke="#bfbfbf" points="0.5,-130 0.5,-164 95.5,-164 95.5,-130 0.5,-130"/>
<text text-anchor="start" x="8.5" y="-151" font-family="Helvetica,sans-Serif" font-size="10.00">std::basic_string&lt;</text>
<text text-anchor="middle" x="48" y="-138" font-family="Helvetica,sans-Serif" font-size="10.00"> char &gt;</text>
</a>
</g>
<!-- Node13&#45;&gt;Node12 -->
<g id="edge24" class="edge"><title>Node13&#45;&gt;Node12</title>
<path fill="none" stroke="midnightblue" d="M105.887,-147C134.618,-147 168.136,-147 191.754,-147"/>
<polygon fill="midnightblue" stroke="midnightblue" points="105.546,-143.5 95.5463,-147 105.546,-150.5 105.546,-143.5"/>
</g>
<!-- Node14 -->
<g id="node26" class="node"><title>Node14</title>
<a xlink:title="STL class. ">
<polygon fill="white" stroke="#bfbfbf" points="176,-48.5 176,-69.5 268,-69.5 268,-48.5 176,-48.5"/>
<text text-anchor="middle" x="222" y="-56.5" font-family="Helvetica,sans-Serif" font-size="10.00">std::map&lt; K, T &gt;</text>
</a>
</g>
<!-- Node14&#45;&gt;Node11 -->
<g id="edge26" class="edge"><title>Node14&#45;&gt;Node11</title>
<path fill="none" stroke="orange" stroke-dasharray="5,2" d="M254.626,-44.8301C264.514,-41.2081 275.532,-37.8239 286,-36 342.92,-26.0826 359.284,-24.9751 416,-36 438.928,-40.4569 463.269,-50.2165 482.077,-58.9792"/>
<polygon fill="orange" stroke="orange" points="253.244,-41.6121 245.178,-48.4823 255.768,-48.1413 253.244,-41.6121"/>
<text text-anchor="start" x="291.5" y="-53" font-family="Helvetica,sans-Serif" font-size="10.00"> &lt; SlotKeyType, std</text>
<text text-anchor="middle" x="351" y="-40" font-family="Helvetica,sans-Serif" font-size="10.00">::shared_ptr&lt; SlotBase &gt; &gt;</text>
</g>
<!-- Node14&#45;&gt;Node19 -->
<g id="edge40" class="edge"><title>Node14&#45;&gt;Node19</title>
<path fill="none" stroke="orange" stroke-dasharray="5,2" d="M244.198,-75.708C256.01,-83.7503 271.136,-92.7624 286,-98 299.969,-102.922 374.094,-112.156 434.283,-119.084"/>
<polygon fill="orange" stroke="orange" points="246.057,-72.7364 235.87,-69.8256 242.018,-78.4539 246.057,-72.7364"/>
<text text-anchor="start" x="286.5" y="-133" font-family="Helvetica,sans-Serif" font-size="10.00"> &lt; SignalKeyType, std</text>
<text text-anchor="middle" x="351" y="-120" font-family="Helvetica,sans-Serif" font-size="10.00">::shared_ptr&lt; SignalBase &gt; &gt;</text>
</g>
<!-- Node15 -->
<g id="node28" class="node"><title>Node15</title>
<polygon fill="white" stroke="#bfbfbf" points="33.5,-28.5 33.5,-49.5 62.5,-49.5 62.5,-28.5 33.5,-28.5"/>
<text text-anchor="middle" x="48" y="-36.5" font-family="Helvetica,sans-Serif" font-size="10.00">K</text>
</g>
<!-- Node15&#45;&gt;Node14 -->
<g id="edge28" class="edge"><title>Node15&#45;&gt;Node14</title>
<path fill="none" stroke="#9a32cd" stroke-dasharray="5,2" d="M72.9653,-38.825C95.339,-38.9788 129.004,-39.9782 158,-44 165.913,-45.0975 174.283,-46.7163 182.27,-48.4893"/>
<polygon fill="#9a32cd" stroke="#9a32cd" points="72.6745,-35.3246 62.669,-38.809 72.6635,-42.3246 72.6745,-35.3246"/>
<text text-anchor="middle" x="136" y="-48" font-family="Helvetica,sans-Serif" font-size="10.00"> keys</text>
</g>
<!-- Node16 -->
<g id="node30" class="node"><title>Node16</title>
<polygon fill="white" stroke="#bfbfbf" points="33.5,-68.5 33.5,-89.5 62.5,-89.5 62.5,-68.5 33.5,-68.5"/>
<text text-anchor="middle" x="48" y="-76.5" font-family="Helvetica,sans-Serif" font-size="10.00">T</text>
</g>
<!-- Node16&#45;&gt;Node14 -->
<g id="edge30" class="edge"><title>Node16&#45;&gt;Node14</title>
<path fill="none" stroke="#9a32cd" stroke-dasharray="5,2" d="M72.5869,-76.1739C99.3704,-73.0954 142.819,-68.1013 175.976,-64.2901"/>
<polygon fill="#9a32cd" stroke="#9a32cd" points="72.0708,-72.7101 62.5359,-77.3292 72.8701,-79.6643 72.0708,-72.7101"/>
<text text-anchor="middle" x="136" y="-75" font-family="Helvetica,sans-Serif" font-size="10.00"> elements</text>
</g>
<!-- Node17 -->
<g id="node32" class="node"><title>Node17</title>
<a xlink:href="classfwCom_1_1HasSignals.html" target="_top" xlink:title="This class proposes a mapping between a SignalKeyType and a SignalBase. ">
<polygon fill="white" stroke="black" points="870,-115.5 870,-136.5 974,-136.5 974,-115.5 870,-115.5"/>
<text text-anchor="middle" x="922" y="-123.5" font-family="Helvetica,sans-Serif" font-size="10.00">fwCom::HasSignals</text>
</a>
</g>
<!-- Node17&#45;&gt;Node4 -->
<g id="edge32" class="edge"><title>Node17&#45;&gt;Node4</title>
<path fill="none" stroke="midnightblue" d="M984.148,-119.186C1019.22,-115.34 1062.62,-110.581 1096.22,-106.897"/>
<polygon fill="midnightblue" stroke="midnightblue" points="983.581,-115.727 974.022,-120.296 984.344,-122.685 983.581,-115.727"/>
</g>
<!-- Node18 -->
<g id="node34" class="node"><title>Node18</title>
<a xlink:href="classfwCom_1_1Signals.html" target="_top" xlink:title="This class proposes a mapping between a SignalKeyType and a SignalBase. ">
<polygon fill="white" stroke="black" points="690,-115.5 690,-136.5 776,-136.5 776,-115.5 690,-115.5"/>
<text text-anchor="middle" x="733" y="-123.5" font-family="Helvetica,sans-Serif" font-size="10.00">fwCom::Signals</text>
</a>
</g>
<!-- Node18&#45;&gt;Node17 -->
<g id="edge34" class="edge"><title>Node18&#45;&gt;Node17</title>
<path fill="none" stroke="#9a32cd" stroke-dasharray="5,2" d="M786.454,-126C812.549,-126 843.828,-126 869.76,-126"/>
<polygon fill="#9a32cd" stroke="#9a32cd" points="786.36,-122.5 776.36,-126 786.36,-129.5 786.36,-122.5"/>
<text text-anchor="middle" x="828" y="-130" font-family="Helvetica,sans-Serif" font-size="10.00"> m_signals</text>
</g>
<!-- Node19&#45;&gt;Node18 -->
<g id="edge36" class="edge"><title>Node19&#45;&gt;Node18</title>
<path fill="none" stroke="#9a32cd" stroke-dasharray="5,2" d="M605.751,-127.167C634.826,-126.901 665.684,-126.618 689.73,-126.397"/>
<polygon fill="#9a32cd" stroke="#9a32cd" points="605.523,-123.669 595.556,-127.261 605.588,-130.669 605.523,-123.669"/>
<text text-anchor="middle" x="638" y="-131" font-family="Helvetica,sans-Serif" font-size="10.00"> m_signals</text>
</g>
<!-- Node20 -->
<g id="node40" class="node"><title>Node20</title>
<polygon fill="white" stroke="#bfbfbf" points="901.5,-7.5 901.5,-28.5 942.5,-28.5 942.5,-7.5 901.5,-7.5"/>
<text text-anchor="middle" x="922" y="-15.5" font-family="Helvetica,sans-Serif" font-size="10.00">static</text>
</g>
<!-- Node20&#45;&gt;Node1 -->
<g id="edge44" class="edge"><title>Node20&#45;&gt;Node1</title>
<path fill="none" stroke="#9a32cd" stroke-dasharray="5,2" d="M952.703,-14.2523C996.439,-9.24643 1079.23,-1 1150,-1 1150,-1 1150,-1 1470,-1 1498.97,-1 1530.71,-3.565 1558.36,-6.641"/>
<polygon fill="#9a32cd" stroke="#9a32cd" points="952.237,-10.7829 942.71,-15.4181 953.048,-17.7358 952.237,-10.7829"/>
<text text-anchor="middle" x="1312" y="-57" font-family="Helvetica,sans-Serif" font-size="10.00"> s_CAM_UPDATED_SIG</text>
<text text-anchor="start" x="1242.5" y="-44" font-family="Helvetica,sans-Serif" font-size="10.00">s_UPDATE_PIPELINE</text>
<text text-anchor="middle" x="1312" y="-31" font-family="Helvetica,sans-Serif" font-size="10.00">_SLOT</text>
<text text-anchor="start" x="1242.5" y="-18" font-family="Helvetica,sans-Serif" font-size="10.00">s_UPDATE_CAM_POSITION_</text>
<text text-anchor="middle" x="1312" y="-5" font-family="Helvetica,sans-Serif" font-size="10.00">SLOT</text>
</g>
<!-- Node20&#45;&gt;Node4 -->
<g id="edge42" class="edge"><title>Node20&#45;&gt;Node4</title>
<path fill="none" stroke="#9a32cd" stroke-dasharray="5,2" d="M952.764,-15.5445C985.35,-14.1936 1037.57,-15.6615 1078,-34 1106.15,-46.7662 1130.48,-74.9731 1142.33,-90.4048"/>
<polygon fill="#9a32cd" stroke="#9a32cd" points="952.312,-12.0636 942.512,-16.0905 952.684,-19.0537 952.312,-12.0636"/>
<text text-anchor="middle" x="1035" y="-77" font-family="Helvetica,sans-Serif" font-size="10.00"> s_UPDATE_SLOT</text>
<text text-anchor="middle" x="1035" y="-64" font-family="Helvetica,sans-Serif" font-size="10.00">s_SWAP_SLOT</text>
<text text-anchor="middle" x="1035" y="-51" font-family="Helvetica,sans-Serif" font-size="10.00">s_STOP_SLOT</text>
<text text-anchor="middle" x="1035" y="-38" font-family="Helvetica,sans-Serif" font-size="10.00">s_START_SLOT</text>
</g>
</g>
</svg>
