<?xml version="1.0" encoding="UTF-8" standalone="no"?>
<!DOCTYPE svg PUBLIC "-//W3C//DTD SVG 1.1//EN"
 "http://www.w3.org/Graphics/SVG/1.1/DTD/svg11.dtd">
<!-- Generated by graphviz version 2.26.3 (20100126.1600)
 -->
<!-- Title: fwVtkIO::helper::Mesh::updatePolyDataPointTexCoords Pages: 1 -->
<svg width="562pt" height="406pt"
 viewBox="0.00 0.00 562.00 406.00" xmlns="http://www.w3.org/2000/svg" xmlns:xlink="http://www.w3.org/1999/xlink">
<g id="graph1" class="graph" transform="scale(1 1) rotate(0) translate(4 402)">
<title>fwVtkIO::helper::Mesh::updatePolyDataPointTexCoords</title>
<polygon fill="white" stroke="white" points="-4,5 -4,-402 559,-402 559,5 -4,5"/>
<!-- Node1 -->
<g id="node1" class="node"><title>Node1</title>
<polygon fill="#bfbfbf" stroke="black" points="0.5,-156 0.5,-190 163.5,-190 163.5,-156 0.5,-156"/>
<text text-anchor="start" x="8.5" y="-177" font-family="Helvetica,sans-Serif" font-size="10.00">fwVtkIO::helper::Mesh</text>
<text text-anchor="middle" x="82" y="-164" font-family="Helvetica,sans-Serif" font-size="10.00">::updatePolyDataPointTexCoords</text>
</g>
<!-- Node2 -->
<g id="node3" class="node"><title>Node2</title>
<a xlink:href="classfwVtkIO_1_1helper_1_1Mesh.html#aa8f409baff52f2a52ec44ed91c21d54e" target="_top" xlink:title="Convert a ::fwData::Mesh::sptr to a vtkPolyData. ">
<polygon fill="white" stroke="black" points="203.5,-182 203.5,-216 318.5,-216 318.5,-182 203.5,-182"/>
<text text-anchor="start" x="211.5" y="-203" font-family="Helvetica,sans-Serif" font-size="10.00">fwVtkIO::helper::Mesh</text>
<text text-anchor="middle" x="261" y="-190" font-family="Helvetica,sans-Serif" font-size="10.00">::toVTKMesh</text>
</a>
</g>
<!-- Node1&#45;&gt;Node2 -->
<g id="edge2" class="edge"><title>Node1&#45;&gt;Node2</title>
<path fill="none" stroke="midnightblue" d="M173.696,-186.319C183.755,-187.78 193.777,-189.236 203.254,-190.612"/>
<polygon fill="midnightblue" stroke="midnightblue" points="174.042,-182.833 163.643,-184.859 173.036,-189.76 174.042,-182.833"/>
</g>
<!-- Node11 -->
<g id="node21" class="node"><title>Node11</title>
<a xlink:href="classvisuVTKAdaptor_1_1Mesh.html#abc8be571b66781eadc76ba531a6cacd0" target="_top" xlink:title="Slot: used to update point tex coords. ">
<polygon fill="white" stroke="black" points="200,-130 200,-164 322,-164 322,-130 200,-130"/>
<text text-anchor="start" x="208" y="-151" font-family="Helvetica,sans-Serif" font-size="10.00">visuVTKAdaptor::Mesh</text>
<text text-anchor="middle" x="261" y="-138" font-family="Helvetica,sans-Serif" font-size="10.00">::updatePointTexCoords</text>
</a>
</g>
<!-- Node1&#45;&gt;Node11 -->
<g id="edge20" class="edge"><title>Node1&#45;&gt;Node11</title>
<path fill="none" stroke="midnightblue" d="M173.652,-159.687C182.523,-158.399 191.367,-157.114 199.833,-155.885"/>
<polygon fill="midnightblue" stroke="midnightblue" points="173.036,-156.24 163.643,-161.141 174.042,-163.167 173.036,-156.24"/>
</g>
<!-- Node3 -->
<g id="node5" class="node"><title>Node3</title>
<a xlink:href="classfwVtkIO_1_1helper_1_1Mesh.html#a218b2e84b2b5d0b848eeb27664802430" target="_top" xlink:title="Compute the volume of the mesh using MassProperties vtk class. ">
<polygon fill="white" stroke="black" points="398.5,-364 398.5,-398 513.5,-398 513.5,-364 398.5,-364"/>
<text text-anchor="start" x="406.5" y="-385" font-family="Helvetica,sans-Serif" font-size="10.00">fwVtkIO::helper::Mesh</text>
<text text-anchor="middle" x="456" y="-372" font-family="Helvetica,sans-Serif" font-size="10.00">::computeVolume</text>
</a>
</g>
<!-- Node2&#45;&gt;Node3 -->
<g id="edge4" class="edge"><title>Node2&#45;&gt;Node3</title>
<path fill="none" stroke="midnightblue" d="M270.357,-225.605C284.061,-260.638 312.962,-321.683 358,-355 369.746,-363.689 384.176,-369.477 398.317,-373.331"/>
<polygon fill="midnightblue" stroke="midnightblue" points="273.552,-224.158 266.742,-216.042 267.004,-226.634 273.552,-224.158"/>
</g>
<!-- Node4 -->
<g id="node7" class="node"><title>Node4</title>
<a xlink:href="classvtkSimpleMesh_1_1SRenderer.html#adcc2173edd3798b5a768f4054be9c605" target="_top" xlink:title="This method is used to notify that the VTK camera position is updated. ">
<polygon fill="white" stroke="black" points="386,-312 386,-346 526,-346 526,-312 386,-312"/>
<text text-anchor="start" x="394" y="-333" font-family="Helvetica,sans-Serif" font-size="10.00">vtkSimpleMesh::SRenderer</text>
<text text-anchor="middle" x="456" y="-320" font-family="Helvetica,sans-Serif" font-size="10.00">::notifyCamPositionUpdated</text>
</a>
</g>
<!-- Node2&#45;&gt;Node4 -->
<g id="edge6" class="edge"><title>Node2&#45;&gt;Node4</title>
<path fill="none" stroke="midnightblue" d="M278.168,-224.402C295.562,-248.193 324.612,-282.997 358,-303 366.531,-308.111 376.071,-312.233 385.757,-315.553"/>
<polygon fill="midnightblue" stroke="midnightblue" points="280.96,-222.288 272.301,-216.183 275.262,-226.355 280.96,-222.288"/>
</g>
<!-- Node5 -->
<g id="node9" class="node"><title>Node5</title>
<a xlink:href="classvisuVTKAdaptor_1_1MeshesBoxWidget.html#a23d08ba7c328169d2dcee273709bae68" target="_top" xlink:title="Updates map from composite meshes. ">
<polygon fill="white" stroke="black" points="358.5,-260 358.5,-294 553.5,-294 553.5,-260 358.5,-260"/>
<text text-anchor="start" x="366.5" y="-281" font-family="Helvetica,sans-Serif" font-size="10.00">visuVTKAdaptor::MeshesBox</text>
<text text-anchor="middle" x="456" y="-268" font-family="Helvetica,sans-Serif" font-size="10.00">Widget::updateMeshMapFromComposite</text>
</a>
</g>
<!-- Node2&#45;&gt;Node5 -->
<g id="edge8" class="edge"><title>Node2&#45;&gt;Node5</title>
<path fill="none" stroke="midnightblue" d="M297.497,-221.175C315.282,-231.297 337.263,-242.82 358,-251 366.269,-254.262 375.089,-257.248 383.922,-259.942"/>
<polygon fill="midnightblue" stroke="midnightblue" points="299.017,-218.011 288.608,-216.036 295.513,-224.071 299.017,-218.011"/>
</g>
<!-- Node6 -->
<g id="node11" class="node"><title>Node6</title>
<a xlink:href="classvisuVTKAdaptor_1_1Mesh.html#a474502f1e378ab569e3a8288c515a0c3" target="_top" xlink:title="Creates normals adaptor if material has NORMALS, else remove normals adaptor. ">
<polygon fill="white" stroke="black" points="397,-208 397,-242 515,-242 515,-208 397,-208"/>
<text text-anchor="start" x="405" y="-229" font-family="Helvetica,sans-Serif" font-size="10.00">visuVTKAdaptor::Mesh</text>
<text text-anchor="middle" x="456" y="-216" font-family="Helvetica,sans-Serif" font-size="10.00">::updateOptionsMode</text>
</a>
</g>
<!-- Node2&#45;&gt;Node6 -->
<g id="edge10" class="edge"><title>Node2&#45;&gt;Node6</title>
<path fill="none" stroke="midnightblue" d="M328.712,-208.028C350.857,-210.981 375.271,-214.236 396.743,-217.099"/>
<polygon fill="midnightblue" stroke="midnightblue" points="329.09,-204.548 318.715,-206.695 328.165,-211.486 329.09,-204.548"/>
</g>
<!-- Node7 -->
<g id="node13" class="node"><title>Node7</title>
<a xlink:href="classvtkCompositeMesh_1_1RendererService.html#a09bd6b48288fab69dd537295a3c06eaf" target="_top" xlink:title="Updating method. ">
<polygon fill="white" stroke="black" points="382.5,-156 382.5,-190 529.5,-190 529.5,-156 382.5,-156"/>
<text text-anchor="start" x="390.5" y="-177" font-family="Helvetica,sans-Serif" font-size="10.00">vtkCompositeMesh::Renderer</text>
<text text-anchor="middle" x="456" y="-164" font-family="Helvetica,sans-Serif" font-size="10.00">Service::updating</text>
</a>
</g>
<!-- Node2&#45;&gt;Node7 -->
<g id="edge12" class="edge"><title>Node2&#45;&gt;Node7</title>
<path fill="none" stroke="midnightblue" d="M328.753,-189.966C346.106,-187.653 364.849,-185.153 382.478,-182.803"/>
<polygon fill="midnightblue" stroke="midnightblue" points="328.165,-186.514 318.715,-191.305 329.09,-193.452 328.165,-186.514"/>
</g>
<!-- Node8 -->
<g id="node15" class="node"><title>Node8</title>
<a xlink:href="classvtkSimpleMesh_1_1SRenderer.html#a3fee3edf43bb3c8ea39759ab42180fd2" target="_top" xlink:title="Updating method. ">
<polygon fill="white" stroke="black" points="387.5,-104 387.5,-138 524.5,-138 524.5,-104 387.5,-104"/>
<text text-anchor="start" x="395.5" y="-125" font-family="Helvetica,sans-Serif" font-size="10.00">vtkSimpleMesh::SRenderer</text>
<text text-anchor="middle" x="456" y="-112" font-family="Helvetica,sans-Serif" font-size="10.00">::updating</text>
</a>
</g>
<!-- Node2&#45;&gt;Node8 -->
<g id="edge14" class="edge"><title>Node2&#45;&gt;Node8</title>
<path fill="none" stroke="midnightblue" d="M313.292,-177.638C316.271,-176.135 319.193,-174.585 322,-173 339.184,-163.293 340.164,-155.45 358,-147 367.227,-142.629 377.303,-138.904 387.37,-135.757"/>
<polygon fill="midnightblue" stroke="midnightblue" points="311.735,-174.503 304.242,-181.994 314.771,-180.81 311.735,-174.503"/>
</g>
<!-- Node9 -->
<g id="node17" class="node"><title>Node9</title>
<a xlink:href="classfwVtkIO_1_1MeshWriter.html#a4b7876221138a425e3d24f1d441478ec" target="_top" xlink:title="Reading operator. ">
<polygon fill="white" stroke="black" points="401.5,-52 401.5,-86 510.5,-86 510.5,-52 401.5,-52"/>
<text text-anchor="start" x="409.5" y="-73" font-family="Helvetica,sans-Serif" font-size="10.00">fwVtkIO::MeshWriter</text>
<text text-anchor="middle" x="456" y="-60" font-family="Helvetica,sans-Serif" font-size="10.00">::write</text>
</a>
</g>
<!-- Node2&#45;&gt;Node9 -->
<g id="edge16" class="edge"><title>Node2&#45;&gt;Node9</title>
<path fill="none" stroke="midnightblue" d="M318.608,-176.04C319.783,-175.066 320.916,-174.053 322,-173 349.393,-146.403 328.77,-119.563 358,-95 370.196,-84.7513 386.016,-78.4995 401.374,-74.6994"/>
<polygon fill="midnightblue" stroke="midnightblue" points="316.454,-173.277 310.341,-181.931 320.516,-178.978 316.454,-173.277"/>
</g>
<!-- Node10 -->
<g id="node19" class="node"><title>Node10</title>
<a xlink:href="classfwVtkIO_1_1ModelSeriesObjWriter.html#a21ff94e553dd9c4476d4eb3bb08fba7f" target="_top" xlink:title="Destructor. ">
<polygon fill="white" stroke="black" points="379,-0 379,-34 533,-34 533,-0 379,-0"/>
<text text-anchor="start" x="387" y="-21" font-family="Helvetica,sans-Serif" font-size="10.00">fwVtkIO::ModelSeriesObjWriter</text>
<text text-anchor="middle" x="456" y="-8" font-family="Helvetica,sans-Serif" font-size="10.00">::~ModelSeriesObjWriter</text>
</a>
</g>
<!-- Node2&#45;&gt;Node10 -->
<g id="edge18" class="edge"><title>Node2&#45;&gt;Node10</title>
<path fill="none" stroke="midnightblue" d="M319.689,-175.455C320.489,-174.663 321.261,-173.845 322,-173 361.487,-127.889 315.379,-85.1626 358,-43 364.007,-37.0579 371.206,-32.4301 378.94,-28.8325"/>
<polygon fill="midnightblue" stroke="midnightblue" points="317.328,-172.864 311.81,-181.909 321.764,-178.28 317.328,-172.864"/>
</g>
</g>
</svg>
