<?xml version="1.0" encoding="UTF-8" standalone="no"?>
<!DOCTYPE svg PUBLIC "-//W3C//DTD SVG 1.1//EN"
 "http://www.w3.org/Graphics/SVG/1.1/DTD/svg11.dtd">
<!-- Generated by graphviz version 2.26.3 (20100126.1600)
 -->
<!-- Title: ioVTK::SImageSeriesWriter::updating Pages: 1 -->
<!--zoomable 174 -->
<svg id="main" version="1.1" xmlns="http://www.w3.org/2000/svg" xmlns:xlink="http://www.w3.org/1999/xlink" xml:space="preserve" onload="init(evt)">
<style type="text/css"><![CDATA[
.edge:hover path { stroke: red; }
.edge:hover polygon { stroke: red; fill: red; }
]]></style>
<script type="text/javascript"><![CDATA[
var edges = document.getElementsByTagName('g');
if (edges && edges.length) {
  for (var i=0;i<edges.length;i++) {
    if (edges[i].id.substr(0,4)=='edge') {
      edges[i].setAttribute('class','edge');
    }
  }
}
]]></script>
        <defs>
                <circle id="rim" cx="0" cy="0" r="7"/>
                <circle id="rim2" cx="0" cy="0" r="3.5"/>
                <g id="zoomPlus">
                        <use xlink:href="#rim" fill="#404040">
                                <set attributeName="fill" to="#808080" begin="zoomplus.mouseover" end="zoomplus.mouseout"/>
                        </use>
                        <path d="M-4,0h8M0,-4v8" fill="none" stroke="white" stroke-width="1.5" pointer-events="none"/>
                </g>
                <g id="zoomMin">
                        <use xlink:href="#rim" fill="#404040">
                                <set attributeName="fill" to="#808080" begin="zoomminus.mouseover" end="zoomminus.mouseout"/>
                        </use>
                        <path d="M-4,0h8" fill="none" stroke="white" stroke-width="1.5" pointer-events="none"/>
                </g>
                <g id="dirArrow">
                        <path fill="none" stroke="white" stroke-width="1.5" d="M0,-3.0v7 M-2.5,-0.5L0,-3.0L2.5,-0.5"/>
                </g>
               <g id="resetDef">
                       <use xlink:href="#rim2" fill="#404040">
                               <set attributeName="fill" to="#808080" begin="reset.mouseover" end="reset.mouseout"/>
                       </use>
               </g>
        </defs>

<script type="text/javascript">
var viewWidth = 862;
var viewHeight = 174;
var sectionId = 'dynsection-2';
</script>
<script xlink:href="svgpan.js"/>
<svg id="graph" class="graph">
<g id="viewport">
<title>ioVTK::SImageSeriesWriter::updating</title>
<polygon fill="white" stroke="white" points="-4,5 -4,-170 859,-170 859,5 -4,5"/>
<!-- Node1 -->
<g id="node1" class="node"><title>Node1</title>
<polygon fill="#bfbfbf" stroke="black" points="0.5,-66 0.5,-100 137.5,-100 137.5,-66 0.5,-66"/>
<text text-anchor="start" x="8.5" y="-87" font-family="Helvetica,sans-Serif" font-size="10.00">ioVTK::SImageSeriesWriter</text>
<text text-anchor="middle" x="69" y="-74" font-family="Helvetica,sans-Serif" font-size="10.00">::updating</text>
</g>
<!-- Node2 -->
<g id="node3" class="node"><title>Node2</title>
<a xlink:href="classio_1_1IWriter.html#a27c7be772bb681b127a81e0654a33ced" target="_top" xlink:title="Returns the file path setted by user or setted during service configuration. ">
<polygon fill="white" stroke="black" points="189.5,-144.5 189.5,-165.5 284.5,-165.5 284.5,-144.5 189.5,-144.5"/>
<text text-anchor="middle" x="237" y="-152.5" font-family="Helvetica,sans-Serif" font-size="10.00">io::IWriter::getFile</text>
</a>
</g>
<!-- Node1&#45;&gt;Node2 -->
<g id="edge2" class="edge"><title>Node1&#45;&gt;Node2</title>
<path fill="none" stroke="midnightblue" d="M100.589,-100.222C121.139,-111.029 148.723,-124.798 174,-135 179.386,-137.174 185.104,-139.27 190.813,-141.233"/>
<polygon fill="midnightblue" stroke="midnightblue" points="189.758,-144.571 200.352,-144.404 191.967,-137.928 189.758,-144.571"/>
</g>
<!-- Node4 -->
<g id="node7" class="node"><title>Node4</title>
<a xlink:href="classio_1_1IWriter.html#a7f364503bcff66b19dec1d2e9cd4c835" target="_top" xlink:title="Returns if a location has been defined ( by the configuration process or directly by user ) ...">
<polygon fill="white" stroke="black" points="178,-92 178,-126 296,-126 296,-92 178,-92"/>
<text text-anchor="start" x="186" y="-113" font-family="Helvetica,sans-Serif" font-size="10.00">io::IWriter::hasLocation</text>
<text text-anchor="middle" x="237" y="-100" font-family="Helvetica,sans-Serif" font-size="10.00">Defined</text>
</a>
</g>
<!-- Node1&#45;&gt;Node4 -->
<g id="edge6" class="edge"><title>Node1&#45;&gt;Node4</title>
<path fill="none" stroke="midnightblue" d="M137.817,-93.6502C147.703,-95.1802 157.88,-96.7552 167.774,-98.2865"/>
<polygon fill="midnightblue" stroke="midnightblue" points="167.541,-101.792 177.959,-99.8627 168.612,-94.8743 167.541,-101.792"/>
</g>
<!-- Node5 -->
<g id="node9" class="node"><title>Node5</title>
<a xlink:href="classioVTK_1_1SImageWriter.html#a58e1eac1284e3ac6fa2f46d270fc1d3a" target="_top" xlink:title="Save a VTK image. ">
<polygon fill="white" stroke="black" points="182,-40 182,-74 292,-74 292,-40 182,-40"/>
<text text-anchor="start" x="190" y="-61" font-family="Helvetica,sans-Serif" font-size="10.00">ioVTK::SImageWriter</text>
<text text-anchor="middle" x="237" y="-48" font-family="Helvetica,sans-Serif" font-size="10.00">::saveImage</text>
</a>
</g>
<!-- Node1&#45;&gt;Node5 -->
<g id="edge8" class="edge"><title>Node1&#45;&gt;Node5</title>
<path fill="none" stroke="midnightblue" d="M137.817,-72.3498C149.056,-70.6104 160.67,-68.8129 171.819,-67.0876"/>
<polygon fill="midnightblue" stroke="midnightblue" points="172.554,-70.5155 181.901,-65.5272 171.484,-63.5978 172.554,-70.5155"/>
</g>
<!-- Node10 -->
<g id="node19" class="node"><title>Node10</title>
<a xlink:href="classfwGui_1_1Cursor.html#a2123887d218bc28fd5ef4a5519083b9c" target="_top" xlink:title="Set the cursor. ">
<polygon fill="white" stroke="black" points="174,-0.5 174,-21.5 300,-21.5 300,-0.5 174,-0.5"/>
<text text-anchor="middle" x="237" y="-8.5" font-family="Helvetica,sans-Serif" font-size="10.00">fwGui::Cursor::setCursor</text>
</a>
</g>
<!-- Node1&#45;&gt;Node10 -->
<g id="edge18" class="edge"><title>Node1&#45;&gt;Node10</title>
<path fill="none" stroke="midnightblue" d="M100.589,-65.7779C121.139,-54.9712 148.723,-41.2022 174,-31 179.386,-28.8264 185.104,-26.7305 190.813,-24.7666"/>
<polygon fill="midnightblue" stroke="midnightblue" points="191.967,-28.0715 200.352,-21.5957 189.758,-21.4289 191.967,-28.0715"/>
</g>
<!-- Node3 -->
<g id="node5" class="node"><title>Node3</title>
<a xlink:href="classio_1_1IWriter.html#a1e024eeeca2c9614a373de74fcb1fa4e" target="_top" xlink:title="This method must be implemented by concrete service writers that use path file system to write data...">
<polygon fill="white" stroke="black" points="344.5,-144.5 344.5,-165.5 475.5,-165.5 475.5,-144.5 344.5,-144.5"/>
<text text-anchor="middle" x="410" y="-152.5" font-family="Helvetica,sans-Serif" font-size="10.00">io::IWriter::getIOPathType</text>
</a>
</g>
<!-- Node2&#45;&gt;Node3 -->
<g id="edge4" class="edge"><title>Node2&#45;&gt;Node3</title>
<path fill="none" stroke="midnightblue" d="M284.731,-155C299.971,-155 317.234,-155 333.968,-155"/>
<polygon fill="midnightblue" stroke="midnightblue" points="334.295,-158.5 344.295,-155 334.295,-151.5 334.295,-158.5"/>
</g>
<!-- Node6 -->
<g id="node11" class="node"><title>Node6</title>
<a xlink:href="classfwGui_1_1dialog_1_1MessageDialog.html#a8c59f4f1a8cd0319757d9207af8105bf" target="_top" xlink:title="fwGui::dialog::MessageDialog\l::showMessageDialog">
<polygon fill="white" stroke="black" points="336.5,-40 336.5,-74 483.5,-74 483.5,-40 336.5,-40"/>
<text text-anchor="start" x="344.5" y="-61" font-family="Helvetica,sans-Serif" font-size="10.00">fwGui::dialog::MessageDialog</text>
<text text-anchor="middle" x="410" y="-48" font-family="Helvetica,sans-Serif" font-size="10.00">::showMessageDialog</text>
</a>
</g>
<!-- Node5&#45;&gt;Node6 -->
<g id="edge10" class="edge"><title>Node5&#45;&gt;Node6</title>
<path fill="none" stroke="midnightblue" d="M292.214,-57C303.074,-57 314.695,-57 326.251,-57"/>
<polygon fill="midnightblue" stroke="midnightblue" points="326.368,-60.5001 336.368,-57 326.368,-53.5001 326.368,-60.5001"/>
</g>
<!-- Node7 -->
<g id="node13" class="node"><title>Node7</title>
<a xlink:href="classfwGui_1_1dialog_1_1MessageDialog.html#a7200cf2111a64af4a0c02bfb26fec8dc" target="_top" xlink:title="Add a button (OK, YES_NO, YES, NO, CANCEL) ">
<polygon fill="white" stroke="black" points="520.5,-66 520.5,-100 667.5,-100 667.5,-66 520.5,-66"/>
<text text-anchor="start" x="528.5" y="-87" font-family="Helvetica,sans-Serif" font-size="10.00">fwGui::dialog::MessageDialog</text>
<text text-anchor="middle" x="594" y="-74" font-family="Helvetica,sans-Serif" font-size="10.00">::addButton</text>
</a>
</g>
<!-- Node6&#45;&gt;Node7 -->
<g id="edge12" class="edge"><title>Node6&#45;&gt;Node7</title>
<path fill="none" stroke="midnightblue" d="M483.515,-67.388C492.315,-68.6315 501.351,-69.9082 510.281,-71.1702"/>
<polygon fill="midnightblue" stroke="midnightblue" points="509.91,-74.6524 520.302,-72.5861 510.89,-67.7213 509.91,-74.6524"/>
</g>
<!-- Node8 -->
<g id="node15" class="node"><title>Node8</title>
<a xlink:href="classfwGui_1_1dialog_1_1MessageDialog.html#a6d638d48bf997624e8483616a7e0c3f7" target="_top" xlink:title="Show the message box and return the clicked button. ">
<polygon fill="white" stroke="black" points="520.5,-14 520.5,-48 667.5,-48 667.5,-14 520.5,-14"/>
<text text-anchor="start" x="528.5" y="-35" font-family="Helvetica,sans-Serif" font-size="10.00">fwGui::dialog::MessageDialog</text>
<text text-anchor="middle" x="594" y="-22" font-family="Helvetica,sans-Serif" font-size="10.00">::show</text>
</a>
</g>
<!-- Node6&#45;&gt;Node8 -->
<g id="edge14" class="edge"><title>Node6&#45;&gt;Node8</title>
<path fill="none" stroke="midnightblue" d="M483.515,-46.612C492.315,-45.3685 501.351,-44.0918 510.281,-42.8298"/>
<polygon fill="midnightblue" stroke="midnightblue" points="510.89,-46.2787 520.302,-41.4139 509.91,-39.3476 510.89,-46.2787"/>
</g>
<!-- Node9 -->
<g id="node17" class="node"><title>Node9</title>
<a xlink:href="classfwGui_1_1dialog_1_1IMessageDialog.html#a3aafce0bcfa0fa0da4b5114ff798ddd7" target="_top" xlink:title="Show the message box and return the clicked button. ">
<polygon fill="white" stroke="black" points="704,-14 704,-48 854,-48 854,-14 704,-14"/>
<text text-anchor="start" x="712" y="-35" font-family="Helvetica,sans-Serif" font-size="10.00">fwGui::dialog::IMessageDialog</text>
<text text-anchor="middle" x="779" y="-22" font-family="Helvetica,sans-Serif" font-size="10.00">::show</text>
</a>
</g>
<!-- Node8&#45;&gt;Node9 -->
<g id="edge16" class="edge"><title>Node8&#45;&gt;Node9</title>
<path fill="none" stroke="midnightblue" d="M667.648,-31C676.194,-31 684.965,-31 693.65,-31"/>
<polygon fill="midnightblue" stroke="midnightblue" points="693.789,-34.5001 703.789,-31 693.789,-27.5001 693.789,-34.5001"/>
</g>
</g>
</svg>
        <g id="navigator" transform="translate(0 0)" fill="#404254">
                <rect fill="#f2f5e9" fill-opacity="0.5" stroke="#606060" stroke-width=".5" x="0" y="0" width="60" height="60"/>
                <use id="zoomplus" xlink:href="#zoomPlus" x="17" y="9" onmousedown="handleZoom(evt,'in')"/>
                <use id="zoomminus" xlink:href="#zoomMin" x="42" y="9" onmousedown="handleZoom(evt,'out')"/>
                <use id="reset" xlink:href="#resetDef" x="30" y="36" onmousedown="handleReset()"/>
                <g id="arrowUp" xlink:href="#dirArrow" transform="translate(30 24)" onmousedown="handlePan(0,-1)">
                  <use xlink:href="#rim" fill="#404040">
                        <set attributeName="fill" to="#808080" begin="arrowUp.mouseover" end="arrowUp.mouseout"/>
                  </use>
                  <path fill="none" stroke="white" stroke-width="1.5" d="M0,-3.0v7 M-2.5,-0.5L0,-3.0L2.5,-0.5"/>
                </g>
                <g id="arrowRight" xlink:href="#dirArrow" transform="rotate(90) translate(36 -43)" onmousedown="handlePan(1,0)">
                  <use xlink:href="#rim" fill="#404040">
                        <set attributeName="fill" to="#808080" begin="arrowRight.mouseover" end="arrowRight.mouseout"/>
                  </use>
                  <path fill="none" stroke="white" stroke-width="1.5" d="M0,-3.0v7 M-2.5,-0.5L0,-3.0L2.5,-0.5"/>
                </g>
                <g id="arrowDown" xlink:href="#dirArrow" transform="rotate(180) translate(-30 -48)" onmousedown="handlePan(0,1)">
                  <use xlink:href="#rim" fill="#404040">
                        <set attributeName="fill" to="#808080" begin="arrowDown.mouseover" end="arrowDown.mouseout"/>
                  </use>
                  <path fill="none" stroke="white" stroke-width="1.5" d="M0,-3.0v7 M-2.5,-0.5L0,-3.0L2.5,-0.5"/>
                </g>
                <g id="arrowLeft" xlink:href="#dirArrow" transform="rotate(270) translate(-36 17)" onmousedown="handlePan(-1,0)">
                  <use xlink:href="#rim" fill="#404040">
                        <set attributeName="fill" to="#808080" begin="arrowLeft.mouseover" end="arrowLeft.mouseout"/>
                  </use>
                  <path fill="none" stroke="white" stroke-width="1.5" d="M0,-3.0v7 M-2.5,-0.5L0,-3.0L2.5,-0.5"/>
                </g>
        </g>
        <svg viewBox="0 0 15 15" width="100%" height="30px" preserveAspectRatio="xMaxYMin meet">
         <g id="arrow_out" transform="scale(0.3 0.3)">
          <a xlink:href="classioVTK_1_1SImageSeriesWriter_af23185358cf4962f63e8ebc28fe24ab3_cgraph_org.svg" target="_base">
           <rect id="button" ry="5" rx="5" y="6" x="6" height="38" width="38"
                fill="#f2f5e9" fill-opacity="0.5" stroke="#606060" stroke-width="1.0"/>
           <path id="arrow"
             d="M 11.500037,31.436501 C 11.940474,20.09759 22.043105,11.32322 32.158766,21.979434 L 37.068811,17.246167 C 37.068811,17.246167 37.088388,32 37.088388,32 L 22.160133,31.978069 C 22.160133,31.978069 26.997745,27.140456 26.997745,27.140456 C 18.528582,18.264221 13.291696,25.230495 11.500037,31.436501 z"
             style="fill:#404040;"/>
          </a>
         </g>
        </svg>
</svg>
