<?xml version="1.0" encoding="UTF-8" standalone="no"?>
<!DOCTYPE svg PUBLIC "-//W3C//DTD SVG 1.1//EN"
 "http://www.w3.org/Graphics/SVG/1.1/DTD/svg11.dtd">
<!-- Generated by graphviz version 2.36.0 (20140111.2315)
 -->
<!-- Title: gui::action::SModifyLayout::configuring Pages: 1 -->
<svg width="278pt" height="87pt"
 viewBox="0.00 0.00 278.00 87.00" xmlns="http://www.w3.org/2000/svg" xmlns:xlink="http://www.w3.org/1999/xlink">
<g id="graph0" class="graph" transform="scale(1 1) rotate(0) translate(4 83)">
<title>gui::action::SModifyLayout::configuring</title>
<polygon fill="white" stroke="none" points="-4,4 -4,-83 274,-83 274,4 -4,4"/>
<!-- Node1 -->
<g id="node1" class="node"><title>Node1</title>
<polygon fill="#bfbfbf" stroke="black" points="0.5,-24 0.5,-54 133.5,-54 133.5,-24 0.5,-24"/>
<text text-anchor="start" x="8.5" y="-42" font-family="Helvetica,sans-Serif" font-size="10.00">gui::action::SModifyLayout</text>
<text text-anchor="middle" x="67" y="-31" font-family="Helvetica,sans-Serif" font-size="10.00">::configuring</text>
</g>
<!-- Node2 -->
<g id="node2" class="node"><title>Node2</title>
<g id="a_node2"><a xlink:href="classfwGui_1_1IActionSrv.html#aff17458150297ada203c39103fab6464" target="_top" xlink:title="Initialize the action. ">
<polygon fill="white" stroke="black" points="170,-49 170,-79 270,-79 270,-49 170,-49"/>
<text text-anchor="start" x="178" y="-67" font-family="Helvetica,sans-Serif" font-size="10.00">fwGui::IActionSrv::</text>
<text text-anchor="middle" x="220" y="-56" font-family="Helvetica,sans-Serif" font-size="10.00">initialize</text>
</a>
</g>
</g>
<!-- Node1&#45;&gt;Node2 -->
<g id="edge1" class="edge"><title>Node1&#45;&gt;Node2</title>
<path fill="none" stroke="midnightblue" d="M133.792,-49.8926C142.474,-51.3302 151.331,-52.7965 159.892,-54.214"/>
<polygon fill="midnightblue" stroke="midnightblue" points="159.342,-57.6703 169.779,-55.8508 160.485,-50.7643 159.342,-57.6703"/>
</g>
<!-- Node3 -->
<g id="node3" class="node"><title>Node3</title>
<g id="a_node3"><a xlink:href="classfwGui_1_1IActionSrv.html#a1678ee0448db8d8631286232eca3cec1" target="_top" xlink:title="Returns true if action is visible. ">
<polygon fill="white" stroke="black" points="170,-0 170,-30 270,-30 270,-0 170,-0"/>
<text text-anchor="start" x="178" y="-18" font-family="Helvetica,sans-Serif" font-size="10.00">fwGui::IActionSrv::</text>
<text text-anchor="middle" x="220" y="-7" font-family="Helvetica,sans-Serif" font-size="10.00">isVisible</text>
</a>
</g>
</g>
<!-- Node1&#45;&gt;Node3 -->
<g id="edge2" class="edge"><title>Node1&#45;&gt;Node3</title>
<path fill="none" stroke="midnightblue" d="M133.792,-28.5431C142.474,-27.163 151.331,-25.7553 159.892,-24.3946"/>
<polygon fill="midnightblue" stroke="midnightblue" points="160.452,-27.8496 169.779,-22.8232 159.353,-20.9364 160.452,-27.8496"/>
</g>
</g>
</svg>
