<?xml version="1.0" encoding="UTF-8" standalone="no"?>
<!DOCTYPE svg PUBLIC "-//W3C//DTD SVG 1.1//EN"
 "http://www.w3.org/Graphics/SVG/1.1/DTD/svg11.dtd">
<!-- Generated by graphviz version 2.36.0 (20140111.2315)
 -->
<!-- Title: scene2D::adaptor::SHistogram::starting Pages: 1 -->
<svg width="1030pt" height="137pt"
 viewBox="0.00 0.00 1030.00 137.00" xmlns="http://www.w3.org/2000/svg" xmlns:xlink="http://www.w3.org/1999/xlink">
<g id="graph0" class="graph" transform="scale(1 1) rotate(0) translate(4 133)">
<title>scene2D::adaptor::SHistogram::starting</title>
<polygon fill="white" stroke="none" points="-4,4 -4,-133 1026,-133 1026,4 -4,4"/>
<!-- Node1 -->
<g id="node1" class="node"><title>Node1</title>
<polygon fill="#bfbfbf" stroke="black" points="0,-44 0,-74 152,-74 152,-44 0,-44"/>
<text text-anchor="start" x="8" y="-62" font-family="Helvetica,sans-Serif" font-size="10.00">scene2D::adaptor::SHistogram</text>
<text text-anchor="middle" x="76" y="-51" font-family="Helvetica,sans-Serif" font-size="10.00">::starting</text>
</g>
<!-- Node2 -->
<g id="node2" class="node"><title>Node2</title>
<g id="a_node2"><a xlink:href="classscene2D_1_1adaptor_1_1SHistogram.html#a3a9f0b7dcef17da8b6b3c1e41073db6e" target="_top" xlink:title="Perform some computations according to object (this service is attached to) attribute values and its ...">
<polygon fill="white" stroke="black" points="188,-44 188,-74 340,-74 340,-44 188,-44"/>
<text text-anchor="start" x="196" y="-62" font-family="Helvetica,sans-Serif" font-size="10.00">scene2D::adaptor::SHistogram</text>
<text text-anchor="middle" x="264" y="-51" font-family="Helvetica,sans-Serif" font-size="10.00">::updating</text>
</a>
</g>
</g>
<!-- Node1&#45;&gt;Node2 -->
<g id="edge1" class="edge"><title>Node1&#45;&gt;Node2</title>
<path fill="none" stroke="midnightblue" d="M152.117,-59C160.596,-59 169.281,-59 177.875,-59"/>
<polygon fill="midnightblue" stroke="midnightblue" points="177.905,-62.5001 187.905,-59 177.905,-55.5001 177.905,-62.5001"/>
</g>
<!-- Node3 -->
<g id="node3" class="node"><title>Node3</title>
<g id="a_node3"><a xlink:href="classscene2D_1_1adaptor_1_1SHistogram.html#a49bf3778ed27a009279a69be89e92714" target="_top" xlink:title="Uninitialize the service activity. The stop() method is always invoked before destroying a service...">
<polygon fill="white" stroke="black" points="376,-88 376,-118 528,-118 528,-88 376,-88"/>
<text text-anchor="start" x="384" y="-106" font-family="Helvetica,sans-Serif" font-size="10.00">scene2D::adaptor::SHistogram</text>
<text text-anchor="middle" x="452" y="-95" font-family="Helvetica,sans-Serif" font-size="10.00">::stopping</text>
</a>
</g>
</g>
<!-- Node2&#45;&gt;Node3 -->
<g id="edge2" class="edge"><title>Node2&#45;&gt;Node3</title>
<path fill="none" stroke="midnightblue" d="M328.49,-74.0192C344.265,-77.7508 361.303,-81.7814 377.513,-85.616"/>
<polygon fill="midnightblue" stroke="midnightblue" points="376.943,-89.0777 387.48,-87.9738 378.554,-82.2657 376.943,-89.0777"/>
</g>
<!-- Node4 -->
<g id="node4" class="node"><title>Node4</title>
<g id="a_node4"><a xlink:href="classfwRenderQt_1_1IAdaptor.html#a19c26b1617582f56cb477d6c26bdb2b9" target="_top" xlink:title="Get the render that manages the IAdaptor. ">
<polygon fill="white" stroke="black" points="564,-66 564,-96 676,-96 676,-66 564,-66"/>
<text text-anchor="start" x="572" y="-84" font-family="Helvetica,sans-Serif" font-size="10.00">fwRenderQt::IAdaptor</text>
<text text-anchor="middle" x="620" y="-73" font-family="Helvetica,sans-Serif" font-size="10.00">::getScene2DRender</text>
</a>
</g>
</g>
<!-- Node2&#45;&gt;Node4 -->
<g id="edge9" class="edge"><title>Node2&#45;&gt;Node4</title>
<path fill="none" stroke="midnightblue" d="M340.074,-63.6656C403.483,-67.6063 493.365,-73.1922 553.802,-76.9482"/>
<polygon fill="midnightblue" stroke="midnightblue" points="553.787,-80.4539 563.985,-77.581 554.221,-73.4674 553.787,-80.4539"/>
</g>
<!-- Node9 -->
<g id="node9" class="node"><title>Node9</title>
<g id="a_node9"><a xlink:href="classfwRenderQt_1_1IAdaptor.html#aafb0b1479c046c3bedf55291c2226019" target="_top" xlink:title="fwRenderQt::IAdaptor\l::mapAdaptorToScene">
<polygon fill="white" stroke="black" points="395,-0 395,-30 509,-30 509,-0 395,-0"/>
<text text-anchor="start" x="403" y="-18" font-family="Helvetica,sans-Serif" font-size="10.00">fwRenderQt::IAdaptor</text>
<text text-anchor="middle" x="452" y="-7" font-family="Helvetica,sans-Serif" font-size="10.00">::mapAdaptorToScene</text>
</a>
</g>
</g>
<!-- Node2&#45;&gt;Node9 -->
<g id="edge8" class="edge"><title>Node2&#45;&gt;Node9</title>
<path fill="none" stroke="midnightblue" d="M328.49,-43.9808C346.778,-39.6547 366.764,-34.9269 385.189,-30.5683"/>
<polygon fill="midnightblue" stroke="midnightblue" points="386.027,-33.9667 394.952,-28.2586 384.415,-27.1547 386.027,-33.9667"/>
</g>
<!-- Node3&#45;&gt;Node4 -->
<g id="edge3" class="edge"><title>Node3&#45;&gt;Node4</title>
<path fill="none" stroke="midnightblue" d="M528.229,-93.0299C536.767,-91.8983 545.416,-90.7521 553.81,-89.6397"/>
<polygon fill="midnightblue" stroke="midnightblue" points="554.444,-93.0863 563.897,-88.3028 553.524,-86.147 554.444,-93.0863"/>
</g>
<!-- Node5 -->
<g id="node5" class="node"><title>Node5</title>
<g id="a_node5"><a xlink:href="classfwTools_1_1fwID.html#a387264565a48b0231a7eefb7b01512a1" target="_top" xlink:title="Returns the id of the object. If it is not set and the policy value is. ">
<polygon fill="white" stroke="black" points="721,-90.5 721,-109.5 829,-109.5 829,-90.5 721,-90.5"/>
<text text-anchor="middle" x="775" y="-97.5" font-family="Helvetica,sans-Serif" font-size="10.00">fwTools::fwID::getID</text>
</a>
</g>
</g>
<!-- Node4&#45;&gt;Node5 -->
<g id="edge4" class="edge"><title>Node4&#45;&gt;Node5</title>
<path fill="none" stroke="midnightblue" d="M676.237,-87.8594C687.491,-89.2571 699.412,-90.7375 710.916,-92.1661"/>
<polygon fill="midnightblue" stroke="midnightblue" points="710.535,-95.6456 720.891,-93.4047 711.398,-88.6989 710.535,-95.6456"/>
</g>
<!-- Node8 -->
<g id="node8" class="node"><title>Node8</title>
<g id="a_node8"><a xlink:href="classfwTools_1_1fwID.html#a49c219235064892bb906498913fe8175" target="_top" xlink:title="Retrieve the object attached to the given id. Return a null sptr if no correspondence exist...">
<polygon fill="white" stroke="black" points="712,-52.5 712,-71.5 838,-71.5 838,-52.5 712,-52.5"/>
<text text-anchor="middle" x="775" y="-59.5" font-family="Helvetica,sans-Serif" font-size="10.00">fwTools::fwID::getObject</text>
</a>
</g>
</g>
<!-- Node4&#45;&gt;Node8 -->
<g id="edge7" class="edge"><title>Node4&#45;&gt;Node8</title>
<path fill="none" stroke="midnightblue" d="M676.237,-74.1406C684.542,-73.1092 693.211,-72.0327 701.807,-70.9652"/>
<polygon fill="midnightblue" stroke="midnightblue" points="702.346,-74.4252 711.838,-69.7195 701.483,-67.4786 702.346,-74.4252"/>
</g>
<!-- Node6 -->
<g id="node6" class="node"><title>Node6</title>
<g id="a_node6"><a xlink:href="classfwTools_1_1fwID.html#a4ac18bb9c046c3fd04a4c8a80add7ae6" target="_top" xlink:title="fwTools::fwID::exist">
<polygon fill="white" stroke="black" points="895.5,-109.5 895.5,-128.5 1000.5,-128.5 1000.5,-109.5 895.5,-109.5"/>
<text text-anchor="middle" x="948" y="-116.5" font-family="Helvetica,sans-Serif" font-size="10.00">fwTools::fwID::exist</text>
</a>
</g>
</g>
<!-- Node5&#45;&gt;Node6 -->
<g id="edge5" class="edge"><title>Node5&#45;&gt;Node6</title>
<path fill="none" stroke="midnightblue" d="M829.168,-105.908C846.954,-107.884 866.928,-110.103 885.307,-112.145"/>
<polygon fill="midnightblue" stroke="midnightblue" points="885.005,-115.633 895.33,-113.259 885.778,-108.676 885.005,-115.633"/>
</g>
<!-- Node7 -->
<g id="node7" class="node"><title>Node7</title>
<g id="a_node7"><a xlink:href="classfwTools_1_1fwID.html#a03d6d0e2227b51a0630e145911445213" target="_top" xlink:title="return full object&#39;s classname with its namespace, i.e. fwCore::BaseObject ">
<polygon fill="white" stroke="black" points="874.5,-71.5 874.5,-90.5 1021.5,-90.5 1021.5,-71.5 874.5,-71.5"/>
<text text-anchor="middle" x="948" y="-78.5" font-family="Helvetica,sans-Serif" font-size="10.00">fwTools::fwID::getClassname</text>
</a>
</g>
</g>
<!-- Node5&#45;&gt;Node7 -->
<g id="edge6" class="edge"><title>Node5&#45;&gt;Node7</title>
<path fill="none" stroke="midnightblue" d="M829.168,-94.0924C840.351,-92.8499 852.399,-91.5112 864.372,-90.1808"/>
<polygon fill="midnightblue" stroke="midnightblue" points="864.839,-93.6506 874.392,-89.0676 864.066,-86.6934 864.839,-93.6506"/>
</g>
</g>
</svg>
