<?xml version="1.0" encoding="UTF-8" standalone="no"?>
<!DOCTYPE svg PUBLIC "-//W3C//DTD SVG 1.1//EN"
 "http://www.w3.org/Graphics/SVG/1.1/DTD/svg11.dtd">
<!-- Generated by graphviz version 2.26.3 (20100126.1600)
 -->
<!-- Title: fwServices::IAppConfigManager Pages: 1 -->
<svg width="340pt" height="276pt"
 viewBox="0.00 0.00 340.00 276.00" xmlns="http://www.w3.org/2000/svg" xmlns:xlink="http://www.w3.org/1999/xlink">
<g id="graph1" class="graph" transform="scale(1 1) rotate(0) translate(4 272)">
<title>fwServices::IAppConfigManager</title>
<polygon fill="white" stroke="white" points="-4,5 -4,-272 337,-272 337,5 -4,5"/>
<!-- Node1 -->
<g id="node1" class="node"><title>Node1</title>
<polygon fill="#bfbfbf" stroke="black" points="85,-58.5 85,-79.5 243,-79.5 243,-58.5 85,-58.5"/>
<text text-anchor="middle" x="164" y="-66.5" font-family="Helvetica,sans-Serif" font-size="10.00">fwServices::IAppConfigManager</text>
</g>
<!-- Node6 -->
<g id="node11" class="node"><title>Node6</title>
<a xlink:href="classfwServices_1_1AppConfigManager.html" target="_top" xlink:title="This class provides an API to manage config template. ">
<polygon fill="white" stroke="black" points="-0.5,-0.5 -0.5,-21.5 154.5,-21.5 154.5,-0.5 -0.5,-0.5"/>
<text text-anchor="middle" x="77" y="-8.5" font-family="Helvetica,sans-Serif" font-size="10.00">fwServices::AppConfigManager</text>
</a>
</g>
<!-- Node1&#45;&gt;Node6 -->
<g id="edge10" class="edge"><title>Node1&#45;&gt;Node6</title>
<path fill="none" stroke="midnightblue" d="M139.311,-52.5407C124.396,-42.5973 105.827,-30.2177 92.856,-21.5707"/>
<polygon fill="midnightblue" stroke="midnightblue" points="137.781,-55.727 148.043,-58.3619 141.664,-49.9027 137.781,-55.727"/>
</g>
<!-- Node7 -->
<g id="node13" class="node"><title>Node7</title>
<a xlink:href="classfwServices_1_1AppConfigManager2.html" target="_top" xlink:title="This class provides an API to manage config template. ">
<polygon fill="white" stroke="black" points="172,-0.5 172,-21.5 332,-21.5 332,-0.5 172,-0.5"/>
<text text-anchor="middle" x="252" y="-8.5" font-family="Helvetica,sans-Serif" font-size="10.00">fwServices::AppConfigManager2</text>
</a>
</g>
<!-- Node1&#45;&gt;Node7 -->
<g id="edge12" class="edge"><title>Node1&#45;&gt;Node7</title>
<path fill="none" stroke="midnightblue" d="M188.547,-52.8215C203.704,-42.8312 222.718,-30.2993 235.962,-21.5707"/>
<polygon fill="midnightblue" stroke="midnightblue" points="186.564,-49.9364 180.141,-58.3619 190.416,-55.7811 186.564,-49.9364"/>
</g>
<!-- Node2 -->
<g id="node2" class="node"><title>Node2</title>
<a xlink:href="classfwTools_1_1Object.html" target="_top" xlink:title="Define Base class for FW4SPL objects and services. ">
<polygon fill="white" stroke="black" points="121,-116.5 121,-137.5 207,-137.5 207,-116.5 121,-116.5"/>
<text text-anchor="middle" x="164" y="-124.5" font-family="Helvetica,sans-Serif" font-size="10.00">fwTools::Object</text>
</a>
</g>
<!-- Node2&#45;&gt;Node1 -->
<g id="edge2" class="edge"><title>Node2&#45;&gt;Node1</title>
<path fill="none" stroke="midnightblue" d="M164,-106.191C164,-97.1684 164,-86.9941 164,-79.5707"/>
<polygon fill="midnightblue" stroke="midnightblue" points="160.5,-106.362 164,-116.362 167.5,-106.362 160.5,-106.362"/>
</g>
<!-- Node3 -->
<g id="node4" class="node"><title>Node3</title>
<a xlink:href="classfwCore_1_1BaseObject.html" target="_top" xlink:title="Base class for all FW4SPL&#39;s classes. ">
<polygon fill="white" stroke="black" points="57.5,-174.5 57.5,-195.5 162.5,-195.5 162.5,-174.5 57.5,-174.5"/>
<text text-anchor="middle" x="110" y="-182.5" font-family="Helvetica,sans-Serif" font-size="10.00">fwCore::BaseObject</text>
</a>
</g>
<!-- Node3&#45;&gt;Node2 -->
<g id="edge4" class="edge"><title>Node3&#45;&gt;Node2</title>
<path fill="none" stroke="midnightblue" d="M126.917,-166.83C135.875,-157.208 146.563,-145.728 154.158,-137.571"/>
<polygon fill="midnightblue" stroke="midnightblue" points="124.157,-164.658 119.904,-174.362 129.28,-169.428 124.157,-164.658"/>
</g>
<!-- Node4 -->
<g id="node6" class="node"><title>Node4</title>
<polygon fill="white" stroke="#bfbfbf" points="44.5,-233 44.5,-267 175.5,-267 175.5,-233 44.5,-233"/>
<text text-anchor="start" x="52.5" y="-254" font-family="Helvetica,sans-Serif" font-size="10.00">std::enable_shared</text>
<text text-anchor="middle" x="110" y="-241" font-family="Helvetica,sans-Serif" font-size="10.00">_from_this&lt; BaseObject &gt;</text>
</g>
<!-- Node4&#45;&gt;Node3 -->
<g id="edge6" class="edge"><title>Node4&#45;&gt;Node3</title>
<path fill="none" stroke="midnightblue" d="M110,-222.688C110,-213.242 110,-203.195 110,-195.852"/>
<polygon fill="midnightblue" stroke="midnightblue" points="106.5,-222.922 110,-232.922 113.5,-222.922 106.5,-222.922"/>
</g>
<!-- Node5 -->
<g id="node8" class="node"><title>Node5</title>
<a xlink:href="classfwTools_1_1fwID.html" target="_top" xlink:title="Defines ID for fwTools::Object. It is used to associate ID with object. ">
<polygon fill="white" stroke="black" points="180,-174.5 180,-195.5 258,-195.5 258,-174.5 180,-174.5"/>
<text text-anchor="middle" x="219" y="-182.5" font-family="Helvetica,sans-Serif" font-size="10.00">fwTools::fwID</text>
</a>
</g>
<!-- Node5&#45;&gt;Node2 -->
<g id="edge8" class="edge"><title>Node5&#45;&gt;Node2</title>
<path fill="none" stroke="darkgreen" d="M201.77,-166.83C192.645,-157.208 181.76,-145.728 174.024,-137.571"/>
<polygon fill="darkgreen" stroke="darkgreen" points="199.492,-169.514 208.912,-174.362 204.571,-164.697 199.492,-169.514"/>
</g>
</g>
</svg>
