<?xml version="1.0" encoding="UTF-8" standalone="no"?>
<!DOCTYPE svg PUBLIC "-//W3C//DTD SVG 1.1//EN"
 "http://www.w3.org/Graphics/SVG/1.1/DTD/svg11.dtd">
<!-- Generated by graphviz version 2.36.0 (20140111.2315)
 -->
<!-- Title: fwGui::dialog::PulseProgressDialog Pages: 1 -->
<svg width="154pt" height="288pt"
 viewBox="0.00 0.00 154.00 288.00" xmlns="http://www.w3.org/2000/svg" xmlns:xlink="http://www.w3.org/1999/xlink">
<g id="graph0" class="graph" transform="scale(1 1) rotate(0) translate(4 284)">
<title>fwGui::dialog::PulseProgressDialog</title>
<polygon fill="white" stroke="none" points="-4,4 -4,-284 150,-284 150,4 -4,4"/>
<!-- Node1 -->
<g id="node1" class="node"><title>Node1</title>
<polygon fill="#bfbfbf" stroke="black" points="1.5,-1 1.5,-31 144.5,-31 144.5,-1 1.5,-1"/>
<text text-anchor="start" x="9.5" y="-19" font-family="Helvetica,sans-Serif" font-size="10.00">fwGui::dialog::PulseProgress</text>
<text text-anchor="middle" x="73" y="-8" font-family="Helvetica,sans-Serif" font-size="10.00">Dialog</text>
</g>
<!-- Node2 -->
<g id="node2" class="node"><title>Node2</title>
<g id="a_node2"><a xlink:href="classfwGui_1_1dialog_1_1IPulseProgressDialog.html" target="_top" xlink:title="Defines the generic Progress dialog for IHM. ">
<polygon fill="white" stroke="black" points="0,-69 0,-99 146,-99 146,-69 0,-69"/>
<text text-anchor="start" x="8" y="-87" font-family="Helvetica,sans-Serif" font-size="10.00">fwGui::dialog::IPulseProgress</text>
<text text-anchor="middle" x="73" y="-76" font-family="Helvetica,sans-Serif" font-size="10.00">Dialog</text>
</a>
</g>
</g>
<!-- Node2&#45;&gt;Node1 -->
<g id="edge1" class="edge"><title>Node2&#45;&gt;Node1</title>
<path fill="none" stroke="midnightblue" d="M73,-58.5322C73,-49.3606 73,-39.2449 73,-31.2931"/>
<polygon fill="midnightblue" stroke="midnightblue" points="69.5001,-58.6789 73,-68.679 76.5001,-58.679 69.5001,-58.6789"/>
</g>
<!-- Node3 -->
<g id="node3" class="node"><title>Node3</title>
<g id="a_node3"><a xlink:href="classfwGui_1_1GuiBaseObject.html" target="_top" xlink:title="Base class for all fwGui&#39;s classes. ">
<polygon fill="white" stroke="black" points="16,-136.5 16,-155.5 130,-155.5 130,-136.5 16,-136.5"/>
<text text-anchor="middle" x="73" y="-143.5" font-family="Helvetica,sans-Serif" font-size="10.00">fwGui::GuiBaseObject</text>
</a>
</g>
</g>
<!-- Node3&#45;&gt;Node2 -->
<g id="edge2" class="edge"><title>Node3&#45;&gt;Node2</title>
<path fill="none" stroke="midnightblue" d="M73,-126.371C73,-117.585 73,-107.272 73,-99.1408"/>
<polygon fill="midnightblue" stroke="midnightblue" points="69.5001,-126.403 73,-136.403 76.5001,-126.403 69.5001,-126.403"/>
</g>
<!-- Node4 -->
<g id="node4" class="node"><title>Node4</title>
<g id="a_node4"><a xlink:href="classfwCore_1_1BaseObject.html" target="_top" xlink:title="Base class for all FW4SPL&#39;s classes. ">
<polygon fill="white" stroke="black" points="20.5,-192.5 20.5,-211.5 125.5,-211.5 125.5,-192.5 20.5,-192.5"/>
<text text-anchor="middle" x="73" y="-199.5" font-family="Helvetica,sans-Serif" font-size="10.00">fwCore::BaseObject</text>
</a>
</g>
</g>
<!-- Node4&#45;&gt;Node3 -->
<g id="edge3" class="edge"><title>Node4&#45;&gt;Node3</title>
<path fill="none" stroke="midnightblue" d="M73,-181.805C73,-172.91 73,-162.78 73,-155.751"/>
<polygon fill="midnightblue" stroke="midnightblue" points="69.5001,-182.083 73,-192.083 76.5001,-182.083 69.5001,-182.083"/>
</g>
<!-- Node5 -->
<g id="node5" class="node"><title>Node5</title>
<polygon fill="white" stroke="#bfbfbf" points="7.5,-249 7.5,-279 138.5,-279 138.5,-249 7.5,-249"/>
<text text-anchor="start" x="15.5" y="-267" font-family="Helvetica,sans-Serif" font-size="10.00">std::enable_shared</text>
<text text-anchor="middle" x="73" y="-256" font-family="Helvetica,sans-Serif" font-size="10.00">_from_this&lt; BaseObject &gt;</text>
</g>
<!-- Node5&#45;&gt;Node4 -->
<g id="edge4" class="edge"><title>Node5&#45;&gt;Node4</title>
<path fill="none" stroke="midnightblue" d="M73,-238.586C73,-229.074 73,-218.786 73,-211.731"/>
<polygon fill="midnightblue" stroke="midnightblue" points="69.5001,-238.781 73,-248.781 76.5001,-238.781 69.5001,-238.781"/>
</g>
</g>
</svg>
