<?xml version="1.0" encoding="UTF-8" standalone="no"?>
<!DOCTYPE svg PUBLIC "-//W3C//DTD SVG 1.1//EN"
 "http://www.w3.org/Graphics/SVG/1.1/DTD/svg11.dtd">
<!-- Generated by graphviz version 2.26.3 (20100126.1600)
 -->
<!-- Title: fwGdcmIO::writer::ie::Document::writeSRDocumentGeneralModule Pages: 1 -->
<svg width="356pt" height="56pt"
 viewBox="0.00 0.00 356.00 56.00" xmlns="http://www.w3.org/2000/svg" xmlns:xlink="http://www.w3.org/1999/xlink">
<g id="graph1" class="graph" transform="scale(1 1) rotate(0) translate(4 52)">
<title>fwGdcmIO::writer::ie::Document::writeSRDocumentGeneralModule</title>
<polygon fill="white" stroke="white" points="-4,5 -4,-52 353,-52 353,5 -4,5"/>
<!-- Node1 -->
<g id="node1" class="node"><title>Node1</title>
<polygon fill="#bfbfbf" stroke="black" points="0,-0.5 0,-47.5 154,-47.5 154,-0.5 0,-0.5"/>
<text text-anchor="start" x="8" y="-34.5" font-family="Helvetica,sans-Serif" font-size="10.00">fwGdcmIO::writer::ie</text>
<text text-anchor="start" x="8" y="-21.5" font-family="Helvetica,sans-Serif" font-size="10.00">::Document::writeSRDocument</text>
<text text-anchor="middle" x="77" y="-8.5" font-family="Helvetica,sans-Serif" font-size="10.00">GeneralModule</text>
</g>
<!-- Node2 -->
<g id="node3" class="node"><title>Node2</title>
<a xlink:href="classfwGdcmIO_1_1writer_1_1ie_1_1Document.html#a7a0cd811f54801030d9db30873a2906a" target="_top" xlink:title="Write Pertinent Other Evidence Sequence (0040,A385) ">
<polygon fill="white" stroke="black" points="190,-0.5 190,-47.5 348,-47.5 348,-0.5 190,-0.5"/>
<text text-anchor="start" x="198" y="-34.5" font-family="Helvetica,sans-Serif" font-size="10.00">fwGdcmIO::writer::ie</text>
<text text-anchor="start" x="198" y="-21.5" font-family="Helvetica,sans-Serif" font-size="10.00">::Document::writePertinentOther</text>
<text text-anchor="middle" x="269" y="-8.5" font-family="Helvetica,sans-Serif" font-size="10.00">EvidenceSequence</text>
</a>
</g>
<!-- Node1&#45;&gt;Node2 -->
<g id="edge2" class="edge"><title>Node1&#45;&gt;Node2</title>
<path fill="none" stroke="midnightblue" d="M154.264,-24C162.561,-24 171.052,-24 179.477,-24"/>
<polygon fill="midnightblue" stroke="midnightblue" points="179.702,-27.5001 189.702,-24 179.702,-20.5001 179.702,-27.5001"/>
</g>
</g>
</svg>
