<?xml version="1.0" encoding="UTF-8" standalone="no"?>
<!DOCTYPE svg PUBLIC "-//W3C//DTD SVG 1.1//EN"
 "http://www.w3.org/Graphics/SVG/1.1/DTD/svg11.dtd">
<!-- Generated by graphviz version 2.26.3 (20100126.1600)
 -->
<!-- Title: fwServices::IController Pages: 1 -->
<!--zoomable 886 -->
<svg id="main" version="1.1" xmlns="http://www.w3.org/2000/svg" xmlns:xlink="http://www.w3.org/1999/xlink" xml:space="preserve" onload="init(evt)">
<style type="text/css"><![CDATA[
.edge:hover path { stroke: red; }
.edge:hover polygon { stroke: red; fill: red; }
]]></style>
<script type="text/javascript"><![CDATA[
var edges = document.getElementsByTagName('g');
if (edges && edges.length) {
  for (var i=0;i<edges.length;i++) {
    if (edges[i].id.substr(0,4)=='edge') {
      edges[i].setAttribute('class','edge');
    }
  }
}
]]></script>
        <defs>
                <circle id="rim" cx="0" cy="0" r="7"/>
                <circle id="rim2" cx="0" cy="0" r="3.5"/>
                <g id="zoomPlus">
                        <use xlink:href="#rim" fill="#404040">
                                <set attributeName="fill" to="#808080" begin="zoomplus.mouseover" end="zoomplus.mouseout"/>
                        </use>
                        <path d="M-4,0h8M0,-4v8" fill="none" stroke="white" stroke-width="1.5" pointer-events="none"/>
                </g>
                <g id="zoomMin">
                        <use xlink:href="#rim" fill="#404040">
                                <set attributeName="fill" to="#808080" begin="zoomminus.mouseover" end="zoomminus.mouseout"/>
                        </use>
                        <path d="M-4,0h8" fill="none" stroke="white" stroke-width="1.5" pointer-events="none"/>
                </g>
                <g id="dirArrow">
                        <path fill="none" stroke="white" stroke-width="1.5" d="M0,-3.0v7 M-2.5,-0.5L0,-3.0L2.5,-0.5"/>
                </g>
               <g id="resetDef">
                       <use xlink:href="#rim2" fill="#404040">
                               <set attributeName="fill" to="#808080" begin="reset.mouseover" end="reset.mouseout"/>
                       </use>
               </g>
        </defs>

<script type="text/javascript">
var viewWidth = 926;
var viewHeight = 886;
var sectionId = 'dynsection-0';
</script>
<script xlink:href="svgpan.js"/>
<svg id="graph" class="graph">
<g id="viewport">
<title>fwServices::IController</title>
<polygon fill="white" stroke="white" points="-4,5 -4,-882 923,-882 923,5 -4,5"/>
<!-- Node1 -->
<g id="node1" class="node"><title>Node1</title>
<polygon fill="#bfbfbf" stroke="black" points="594,-443.5 594,-464.5 710,-464.5 710,-443.5 594,-443.5"/>
<text text-anchor="middle" x="652" y="-451.5" font-family="Helvetica,sans-Serif" font-size="10.00">fwServices::IController</text>
</g>
<!-- Node9 -->
<g id="node17" class="node"><title>Node9</title>
<a xlink:href="classactivities_1_1SSeriesSignal.html" target="_top" xlink:title="This service emits a signal for each added series (the signal contains the added series) ...">
<polygon fill="white" stroke="black" points="770.5,-856.5 770.5,-877.5 893.5,-877.5 893.5,-856.5 770.5,-856.5"/>
<text text-anchor="middle" x="832" y="-864.5" font-family="Helvetica,sans-Serif" font-size="10.00">activities::SSeriesSignal</text>
</a>
</g>
<!-- Node1&#45;&gt;Node9 -->
<g id="edge16" class="edge"><title>Node1&#45;&gt;Node9</title>
<path fill="none" stroke="midnightblue" d="M654.132,-474.953C662.037,-548.507 692.034,-793.372 746,-847 752.741,-853.699 761.262,-858.327 770.304,-861.493"/>
<polygon fill="midnightblue" stroke="midnightblue" points="657.578,-474.255 653.053,-464.675 650.616,-474.986 657.578,-474.255"/>
</g>
<!-- Node10 -->
<g id="node19" class="node"><title>Node10</title>
<a xlink:href="classbasicRegistration_1_1SPointListRegistration.html" target="_top" xlink:title="Register a point list against a reference point list. Each point in the list to register is matched w...">
<polygon fill="white" stroke="black" points="775,-804 775,-838 889,-838 889,-804 775,-804"/>
<text text-anchor="start" x="783" y="-825" font-family="Helvetica,sans-Serif" font-size="10.00">basicRegistration::</text>
<text text-anchor="middle" x="832" y="-812" font-family="Helvetica,sans-Serif" font-size="10.00">SPointListRegistration</text>
</a>
</g>
<!-- Node1&#45;&gt;Node10 -->
<g id="edge18" class="edge"><title>Node1&#45;&gt;Node10</title>
<path fill="none" stroke="midnightblue" d="M655.039,-474.621C665.22,-541.061 700.088,-747.944 746,-795 753.843,-803.038 764.077,-808.612 774.737,-812.471"/>
<polygon fill="midnightblue" stroke="midnightblue" points="658.473,-473.925 653.522,-464.558 651.552,-474.968 658.473,-473.925"/>
</g>
<!-- Node11 -->
<g id="node21" class="node"><title>Node11</title>
<a xlink:href="classbasicRegistration_1_1STransformMesh.html" target="_top" xlink:title="basicRegistration::\lSTransformMesh">
<polygon fill="white" stroke="black" points="783,-752 783,-786 881,-786 881,-752 783,-752"/>
<text text-anchor="start" x="791" y="-773" font-family="Helvetica,sans-Serif" font-size="10.00">basicRegistration::</text>
<text text-anchor="middle" x="832" y="-760" font-family="Helvetica,sans-Serif" font-size="10.00">STransformMesh</text>
</a>
</g>
<!-- Node1&#45;&gt;Node11 -->
<g id="edge20" class="edge"><title>Node1&#45;&gt;Node11</title>
<path fill="none" stroke="midnightblue" d="M656.186,-474.913C668.534,-534.65 706.426,-704.244 746,-743 755.918,-752.713 769.334,-758.815 782.618,-762.643"/>
<polygon fill="midnightblue" stroke="midnightblue" points="659.551,-473.895 654.124,-464.796 652.692,-475.294 659.551,-473.895"/>
</g>
<!-- Node12 -->
<g id="node23" class="node"><title>Node12</title>
<a xlink:href="classctrlMemory_1_1LockDumpSrv.html" target="_top" xlink:title="This services dump lock object. Unlock it on stopping. ">
<polygon fill="white" stroke="black" points="765,-712.5 765,-733.5 899,-733.5 899,-712.5 765,-712.5"/>
<text text-anchor="middle" x="832" y="-720.5" font-family="Helvetica,sans-Serif" font-size="10.00">ctrlMemory::LockDumpSrv</text>
</a>
</g>
<!-- Node1&#45;&gt;Node12 -->
<g id="edge22" class="edge"><title>Node1&#45;&gt;Node12</title>
<path fill="none" stroke="midnightblue" d="M653.452,-474.813C657.963,-522.788 676,-641.709 746,-703 751.536,-707.847 758.019,-711.58 764.9,-714.445"/>
<polygon fill="midnightblue" stroke="midnightblue" points="656.928,-474.383 652.608,-464.709 649.953,-474.966 656.928,-474.383"/>
</g>
<!-- Node13 -->
<g id="node25" class="node"><title>Node13</title>
<a xlink:href="classctrlSelection_1_1BookmarkSrv.html" target="_top" xlink:title="This service bookmark its object with the name given in configuration. ">
<polygon fill="white" stroke="black" points="764,-672.5 764,-693.5 900,-693.5 900,-672.5 764,-672.5"/>
<text text-anchor="middle" x="832" y="-680.5" font-family="Helvetica,sans-Serif" font-size="10.00">ctrlSelection::BookmarkSrv</text>
</a>
</g>
<!-- Node1&#45;&gt;Node13 -->
<g id="edge24" class="edge"><title>Node1&#45;&gt;Node13</title>
<path fill="none" stroke="midnightblue" d="M655.094,-474.609C662.564,-516.831 685.638,-613.351 746,-663 751.327,-667.382 757.439,-670.841 763.895,-673.567"/>
<polygon fill="midnightblue" stroke="midnightblue" points="658.535,-473.959 653.45,-464.663 651.628,-475.1 658.535,-473.959"/>
</g>
<!-- Node14 -->
<g id="node27" class="node"><title>Node14</title>
<a xlink:href="classctrlSelection_1_1ImageUpdateAxis.html" target="_top" xlink:title="This service updates a fwData::Float given in configuration with the image axis. ">
<polygon fill="white" stroke="black" points="754.5,-632.5 754.5,-653.5 909.5,-653.5 909.5,-632.5 754.5,-632.5"/>
<text text-anchor="middle" x="832" y="-640.5" font-family="Helvetica,sans-Serif" font-size="10.00">ctrlSelection::ImageUpdateAxis</text>
</a>
</g>
<!-- Node1&#45;&gt;Node14 -->
<g id="edge26" class="edge"><title>Node1&#45;&gt;Node14</title>
<path fill="none" stroke="midnightblue" d="M657.464,-474.589C668.124,-510.576 695.217,-584.727 746,-623 751.019,-626.783 756.636,-629.867 762.532,-632.379"/>
<polygon fill="midnightblue" stroke="midnightblue" points="660.765,-473.397 654.676,-464.727 654.029,-475.302 660.765,-473.397"/>
</g>
<!-- Node15 -->
<g id="node29" class="node"><title>Node15</title>
<a xlink:href="classctrlSelection_1_1MedicalImageSrv.html" target="_top" xlink:title="This service convert its attached image to a medical image by adding specific fields. ">
<polygon fill="white" stroke="black" points="756,-592.5 756,-613.5 908,-613.5 908,-592.5 756,-592.5"/>
<text text-anchor="middle" x="832" y="-600.5" font-family="Helvetica,sans-Serif" font-size="10.00">ctrlSelection::MedicalImageSrv</text>
</a>
</g>
<!-- Node1&#45;&gt;Node15 -->
<g id="edge28" class="edge"><title>Node1&#45;&gt;Node15</title>
<path fill="none" stroke="midnightblue" d="M660.778,-473.745C674.605,-502.469 704.248,-555.359 746,-583 751.752,-586.808 758.139,-589.895 764.76,-592.397"/>
<polygon fill="midnightblue" stroke="midnightblue" points="663.948,-472.26 656.553,-464.673 657.602,-475.216 663.948,-472.26"/>
</g>
<!-- Node16 -->
<g id="node31" class="node"><title>Node16</title>
<a xlink:href="classfwServices_1_1SConfigController.html" target="_top" xlink:title="To manage configuration file defines in xml extension. ">
<polygon fill="white" stroke="black" points="757.5,-552.5 757.5,-573.5 906.5,-573.5 906.5,-552.5 757.5,-552.5"/>
<text text-anchor="middle" x="832" y="-560.5" font-family="Helvetica,sans-Serif" font-size="10.00">fwServices::SConfigController</text>
</a>
</g>
<!-- Node1&#45;&gt;Node16 -->
<g id="edge30" class="edge"><title>Node1&#45;&gt;Node16</title>
<path fill="none" stroke="midnightblue" d="M666.425,-472.623C683.282,-493.06 713.092,-525.308 746,-543 753.156,-546.847 761.035,-549.958 769.031,-552.474"/>
<polygon fill="midnightblue" stroke="midnightblue" points="669.018,-470.262 660.023,-464.665 663.564,-474.65 669.018,-470.262"/>
</g>
<!-- Node17 -->
<g id="node33" class="node"><title>Node17</title>
<a xlink:href="classioGdcm_1_1SDicomSeriesAnonymizer.html" target="_top" xlink:title="Service to anonymize a DicomSeries. ">
<polygon fill="white" stroke="black" points="746.5,-512.5 746.5,-533.5 917.5,-533.5 917.5,-512.5 746.5,-512.5"/>
<text text-anchor="middle" x="832" y="-520.5" font-family="Helvetica,sans-Serif" font-size="10.00">ioGdcm::SDicomSeriesAnonymizer</text>
</a>
</g>
<!-- Node1&#45;&gt;Node17 -->
<g id="edge32" class="edge"><title>Node1&#45;&gt;Node17</title>
<path fill="none" stroke="midnightblue" d="M677.748,-469.684C696.196,-480.35 721.934,-494.092 746,-503 755.919,-506.672 766.739,-509.817 777.253,-512.453"/>
<polygon fill="midnightblue" stroke="midnightblue" points="679.459,-466.63 669.065,-464.579 675.912,-472.664 679.459,-466.63"/>
</g>
<!-- Node18 -->
<g id="node35" class="node"><title>Node18</title>
<a xlink:href="classioPacs_1_1SPacsConfigurationInitializer.html" target="_top" xlink:title="This service is used to initialize a Pacs Configuration data. ">
<polygon fill="white" stroke="black" points="762,-460 762,-494 902,-494 902,-460 762,-460"/>
<text text-anchor="start" x="770" y="-481" font-family="Helvetica,sans-Serif" font-size="10.00">ioPacs::SPacsConfiguration</text>
<text text-anchor="middle" x="832" y="-468" font-family="Helvetica,sans-Serif" font-size="10.00">Initializer</text>
</a>
</g>
<!-- Node1&#45;&gt;Node18 -->
<g id="edge34" class="edge"><title>Node1&#45;&gt;Node18</title>
<path fill="none" stroke="midnightblue" d="M720.626,-462.769C734.149,-464.497 748.355,-466.312 761.924,-468.046"/>
<polygon fill="midnightblue" stroke="midnightblue" points="720.804,-459.263 710.441,-461.467 719.917,-466.207 720.804,-459.263"/>
</g>
<!-- Node19 -->
<g id="node37" class="node"><title>Node19</title>
<a xlink:href="classioPacs_1_1SProgressBarController.html" target="_top" xlink:title="This editor service is used to display a progress bar. ">
<polygon fill="white" stroke="black" points="754.5,-420.5 754.5,-441.5 909.5,-441.5 909.5,-420.5 754.5,-420.5"/>
<text text-anchor="middle" x="832" y="-428.5" font-family="Helvetica,sans-Serif" font-size="10.00">ioPacs::SProgressBarController</text>
</a>
</g>
<!-- Node1&#45;&gt;Node19 -->
<g id="edge36" class="edge"><title>Node1&#45;&gt;Node19</title>
<path fill="none" stroke="midnightblue" d="M720.428,-445.256C731.466,-443.846 742.963,-442.377 754.203,-440.941"/>
<polygon fill="midnightblue" stroke="midnightblue" points="719.917,-441.793 710.441,-446.533 720.804,-448.737 719.917,-441.793"/>
</g>
<!-- Node20 -->
<g id="node39" class="node"><title>Node20</title>
<a xlink:href="classioPacs_1_1SSeriesPuller.html" target="_top" xlink:title="This service is used to pull series from a PACS. ">
<polygon fill="white" stroke="black" points="776,-380.5 776,-401.5 888,-401.5 888,-380.5 776,-380.5"/>
<text text-anchor="middle" x="832" y="-388.5" font-family="Helvetica,sans-Serif" font-size="10.00">ioPacs::SSeriesPuller</text>
</a>
</g>
<!-- Node1&#45;&gt;Node20 -->
<g id="edge38" class="edge"><title>Node1&#45;&gt;Node20</title>
<path fill="none" stroke="midnightblue" d="M681.02,-438.889C699.292,-429.84 723.581,-418.648 746,-411 756.591,-407.387 768.135,-404.208 779.227,-401.51"/>
<polygon fill="midnightblue" stroke="midnightblue" points="679.419,-435.777 672.056,-443.396 682.563,-442.031 679.419,-435.777"/>
</g>
<!-- Node21 -->
<g id="node41" class="node"><title>Node21</title>
<a xlink:href="classioPacs_1_1SSeriesPusher.html" target="_top" xlink:title="This service is used to push a DICOM series to a PACS. ">
<polygon fill="white" stroke="black" points="773,-340.5 773,-361.5 891,-361.5 891,-340.5 773,-340.5"/>
<text text-anchor="middle" x="832" y="-348.5" font-family="Helvetica,sans-Serif" font-size="10.00">ioPacs::SSeriesPusher</text>
</a>
</g>
<!-- Node1&#45;&gt;Node21 -->
<g id="edge40" class="edge"><title>Node1&#45;&gt;Node21</title>
<path fill="none" stroke="midnightblue" d="M667.748,-435.497C685.012,-416.424 714.478,-387.248 746,-371 754.312,-366.716 763.545,-363.338 772.789,-360.678"/>
<polygon fill="midnightblue" stroke="midnightblue" points="664.917,-433.415 660.919,-443.226 670.163,-438.05 664.917,-433.415"/>
</g>
<!-- Node22 -->
<g id="node43" class="node"><title>Node22</title>
<a xlink:href="classmemory_1_1SDumpPolicy.html" target="_top" xlink:title="memory::SDumpPolicy">
<polygon fill="white" stroke="black" points="773,-300.5 773,-321.5 891,-321.5 891,-300.5 773,-300.5"/>
<text text-anchor="middle" x="832" y="-308.5" font-family="Helvetica,sans-Serif" font-size="10.00">memory::SDumpPolicy</text>
</a>
</g>
<!-- Node1&#45;&gt;Node22 -->
<g id="edge42" class="edge"><title>Node1&#45;&gt;Node22</title>
<path fill="none" stroke="midnightblue" d="M661.424,-434.401C675.726,-406.843 705.582,-357.1 746,-331 754.113,-325.761 763.441,-321.89 772.895,-319.03"/>
<polygon fill="midnightblue" stroke="midnightblue" points="658.232,-432.959 656.868,-443.465 664.486,-436.102 658.232,-432.959"/>
</g>
<!-- Node23 -->
<g id="node45" class="node"><title>Node23</title>
<a xlink:href="classscene2D_1_1processing_1_1SComputeHistogram.html" target="_top" xlink:title="The SComputeHistogram service computes the histogram of the image. ">
<polygon fill="white" stroke="black" points="775,-248 775,-282 889,-282 889,-248 775,-248"/>
<text text-anchor="start" x="783" y="-269" font-family="Helvetica,sans-Serif" font-size="10.00">scene2D::processing</text>
<text text-anchor="middle" x="832" y="-256" font-family="Helvetica,sans-Serif" font-size="10.00">::SComputeHistogram</text>
</a>
</g>
<!-- Node1&#45;&gt;Node23 -->
<g id="edge44" class="edge"><title>Node1&#45;&gt;Node23</title>
<path fill="none" stroke="midnightblue" d="M658.247,-433.514C669.839,-398.951 697.967,-329.105 746,-291 754.432,-284.311 764.566,-279.339 774.872,-275.645"/>
<polygon fill="midnightblue" stroke="midnightblue" points="654.794,-432.82 655.061,-443.411 661.457,-434.965 654.794,-432.82"/>
</g>
<!-- Node24 -->
<g id="node47" class="node"><title>Node24</title>
<a xlink:href="classTuto15MultithreadCtrl_1_1SIncrementArray.html" target="_top" xlink:title="This service increments all the values of a fwData::Array. ">
<polygon fill="white" stroke="black" points="777,-196 777,-230 887,-230 887,-196 777,-196"/>
<text text-anchor="start" x="785" y="-217" font-family="Helvetica,sans-Serif" font-size="10.00">Tuto15MultithreadCtrl</text>
<text text-anchor="middle" x="832" y="-204" font-family="Helvetica,sans-Serif" font-size="10.00">::SIncrementArray</text>
</a>
</g>
<!-- Node1&#45;&gt;Node24 -->
<g id="edge46" class="edge"><title>Node1&#45;&gt;Node24</title>
<path fill="none" stroke="midnightblue" d="M655.179,-433.134C662.806,-390.325 686.158,-292.136 746,-239 754.748,-231.233 765.751,-225.785 776.938,-221.964"/>
<polygon fill="midnightblue" stroke="midnightblue" points="651.691,-432.772 653.496,-443.212 658.595,-433.925 651.691,-432.772"/>
</g>
<!-- Node25 -->
<g id="node49" class="node"><title>Node25</title>
<a xlink:href="classTuto15MultithreadCtrl_1_1SReadArray.html" target="_top" xlink:title="This service initializes a fwData::Array with 10 values (0 to 9). ">
<polygon fill="white" stroke="black" points="777,-144 777,-178 887,-178 887,-144 777,-144"/>
<text text-anchor="start" x="785" y="-165" font-family="Helvetica,sans-Serif" font-size="10.00">Tuto15MultithreadCtrl</text>
<text text-anchor="middle" x="832" y="-152" font-family="Helvetica,sans-Serif" font-size="10.00">::SReadArray</text>
</a>
</g>
<!-- Node1&#45;&gt;Node25 -->
<g id="edge48" class="edge"><title>Node1&#45;&gt;Node25</title>
<path fill="none" stroke="midnightblue" d="M653.164,-433.057C657.084,-383.07 673.995,-255.841 746,-187 754.569,-178.808 765.629,-173.188 776.947,-169.336"/>
<polygon fill="midnightblue" stroke="midnightblue" points="649.656,-433.052 652.464,-443.268 656.639,-433.53 649.656,-433.052"/>
</g>
<!-- Node26 -->
<g id="node51" class="node"><title>Node26</title>
<a xlink:href="classTuto15MultithreadCtrl_1_1SShowArray.html" target="_top" xlink:title="This service displays the array values. ">
<polygon fill="white" stroke="black" points="777,-92 777,-126 887,-126 887,-92 777,-92"/>
<text text-anchor="start" x="785" y="-113" font-family="Helvetica,sans-Serif" font-size="10.00">Tuto15MultithreadCtrl</text>
<text text-anchor="middle" x="832" y="-100" font-family="Helvetica,sans-Serif" font-size="10.00">::SShowArray</text>
</a>
</g>
<!-- Node1&#45;&gt;Node26 -->
<g id="edge50" class="edge"><title>Node1&#45;&gt;Node26</title>
<path fill="none" stroke="midnightblue" d="M655.44,-433.473C666.464,-370.003 702.729,-178.576 746,-135 754.353,-126.588 765.326,-120.879 776.627,-117.01"/>
<polygon fill="midnightblue" stroke="midnightblue" points="651.968,-433.015 653.732,-443.462 658.868,-434.195 651.968,-433.015"/>
</g>
<!-- Node27 -->
<g id="node53" class="node"><title>Node27</title>
<a xlink:href="classuiMedData_1_1SSeriesViewer.html" target="_top" xlink:title="This Service allows to preview the selected series in the Vector. For the moment, it works only on a ...">
<polygon fill="white" stroke="black" points="765,-52.5 765,-73.5 899,-73.5 899,-52.5 765,-52.5"/>
<text text-anchor="middle" x="832" y="-60.5" font-family="Helvetica,sans-Serif" font-size="10.00">uiMedData::SSeriesViewer</text>
</a>
</g>
<!-- Node1&#45;&gt;Node27 -->
<g id="edge52" class="edge"><title>Node1&#45;&gt;Node27</title>
<path fill="none" stroke="midnightblue" d="M654.475,-432.848C663.214,-361.765 694.879,-133.126 746,-83 751.363,-77.7412 757.824,-73.7628 764.766,-70.7674"/>
<polygon fill="midnightblue" stroke="midnightblue" points="650.949,-432.85 653.229,-443.197 657.899,-433.687 650.949,-432.85"/>
</g>
<!-- Node28 -->
<g id="node55" class="node"><title>Node28</title>
<a xlink:href="classvtkSimpleMesh_1_1SSimpleMeshDeformation.html" target="_top" xlink:title="Service used to demonstrate how to deform a mesh. ">
<polygon fill="white" stroke="black" points="756.5,-0 756.5,-34 907.5,-34 907.5,-0 756.5,-0"/>
<text text-anchor="start" x="764.5" y="-21" font-family="Helvetica,sans-Serif" font-size="10.00">vtkSimpleMesh::SSimpleMesh</text>
<text text-anchor="middle" x="832" y="-8" font-family="Helvetica,sans-Serif" font-size="10.00">Deformation</text>
</a>
</g>
<!-- Node1&#45;&gt;Node28 -->
<g id="edge54" class="edge"><title>Node1&#45;&gt;Node28</title>
<path fill="none" stroke="midnightblue" d="M654.019,-433.188C661.722,-357.926 691.601,-101.273 746,-43 749.193,-39.5794 752.819,-36.6035 756.732,-34.0149"/>
<polygon fill="midnightblue" stroke="midnightblue" points="650.521,-432.995 653.008,-443.293 657.486,-433.692 650.521,-432.995"/>
</g>
<!-- Node2 -->
<g id="node2" class="node"><title>Node2</title>
<a xlink:href="classfwServices_1_1IService.html" target="_top" xlink:title="Base class for all services. ">
<polygon fill="white" stroke="black" points="450.5,-443.5 450.5,-464.5 557.5,-464.5 557.5,-443.5 450.5,-443.5"/>
<text text-anchor="middle" x="504" y="-451.5" font-family="Helvetica,sans-Serif" font-size="10.00">fwServices::IService</text>
</a>
</g>
<!-- Node2&#45;&gt;Node1 -->
<g id="edge2" class="edge"><title>Node2&#45;&gt;Node1</title>
<path fill="none" stroke="midnightblue" d="M567.897,-454C576.554,-454 585.399,-454 593.946,-454"/>
<polygon fill="midnightblue" stroke="midnightblue" points="567.85,-450.5 557.85,-454 567.85,-457.5 567.85,-450.5"/>
</g>
<!-- Node3 -->
<g id="node4" class="node"><title>Node3</title>
<a xlink:href="classfwTools_1_1Object.html" target="_top" xlink:title="Define Base class for FW4SPL objects and services. ">
<polygon fill="white" stroke="black" points="319,-483.5 319,-504.5 405,-504.5 405,-483.5 319,-483.5"/>
<text text-anchor="middle" x="362" y="-491.5" font-family="Helvetica,sans-Serif" font-size="10.00">fwTools::Object</text>
</a>
</g>
<!-- Node3&#45;&gt;Node2 -->
<g id="edge4" class="edge"><title>Node3&#45;&gt;Node2</title>
<path fill="none" stroke="midnightblue" d="M409.084,-480.737C427.727,-475.485 448.862,-469.532 466.447,-464.578"/>
<polygon fill="midnightblue" stroke="midnightblue" points="407.985,-477.41 399.309,-483.49 409.883,-484.148 407.985,-477.41"/>
</g>
<!-- Node4 -->
<g id="node6" class="node"><title>Node4</title>
<a xlink:href="classfwCore_1_1BaseObject.html" target="_top" xlink:title="Base class for all FW4SPL&#39;s classes. ">
<polygon fill="white" stroke="black" points="168.5,-503.5 168.5,-524.5 273.5,-524.5 273.5,-503.5 168.5,-503.5"/>
<text text-anchor="middle" x="221" y="-511.5" font-family="Helvetica,sans-Serif" font-size="10.00">fwCore::BaseObject</text>
</a>
</g>
<!-- Node4&#45;&gt;Node3 -->
<g id="edge6" class="edge"><title>Node4&#45;&gt;Node3</title>
<path fill="none" stroke="midnightblue" d="M283.757,-505.098C295.55,-503.426 307.635,-501.711 318.671,-500.146"/>
<polygon fill="midnightblue" stroke="midnightblue" points="282.913,-501.683 273.503,-506.553 283.896,-508.614 282.913,-501.683"/>
</g>
<!-- Node5 -->
<g id="node8" class="node"><title>Node5</title>
<polygon fill="white" stroke="#bfbfbf" points="0.5,-497 0.5,-531 131.5,-531 131.5,-497 0.5,-497"/>
<text text-anchor="start" x="8.5" y="-518" font-family="Helvetica,sans-Serif" font-size="10.00">std::enable_shared</text>
<text text-anchor="middle" x="66" y="-505" font-family="Helvetica,sans-Serif" font-size="10.00">_from_this&lt; BaseObject &gt;</text>
</g>
<!-- Node5&#45;&gt;Node4 -->
<g id="edge8" class="edge"><title>Node5&#45;&gt;Node4</title>
<path fill="none" stroke="midnightblue" d="M141.815,-514C150.778,-514 159.771,-514 168.315,-514"/>
<polygon fill="midnightblue" stroke="midnightblue" points="141.734,-510.5 131.734,-514 141.734,-517.5 141.734,-510.5"/>
</g>
<!-- Node6 -->
<g id="node10" class="node"><title>Node6</title>
<a xlink:href="classfwTools_1_1fwID.html" target="_top" xlink:title="Defines ID for fwTools::Object. It is used to associate ID with object. ">
<polygon fill="white" stroke="black" points="182,-463.5 182,-484.5 260,-484.5 260,-463.5 182,-463.5"/>
<text text-anchor="middle" x="221" y="-471.5" font-family="Helvetica,sans-Serif" font-size="10.00">fwTools::fwID</text>
</a>
</g>
<!-- Node6&#45;&gt;Node3 -->
<g id="edge10" class="edge"><title>Node6&#45;&gt;Node3</title>
<path fill="none" stroke="darkgreen" d="M270.417,-481.009C286.248,-483.255 303.641,-485.722 318.977,-487.897"/>
<polygon fill="darkgreen" stroke="darkgreen" points="270.669,-477.51 260.276,-479.571 269.686,-484.441 270.669,-477.51"/>
</g>
<!-- Node7 -->
<g id="node12" class="node"><title>Node7</title>
<a xlink:href="classfwCom_1_1HasSlots.html" target="_top" xlink:title="This class proposes a mapping between a SlotKeyType and a SlotBase. ">
<polygon fill="white" stroke="black" points="314.5,-443.5 314.5,-464.5 409.5,-464.5 409.5,-443.5 314.5,-443.5"/>
<text text-anchor="middle" x="362" y="-451.5" font-family="Helvetica,sans-Serif" font-size="10.00">fwCom::HasSlots</text>
</a>
</g>
<!-- Node7&#45;&gt;Node2 -->
<g id="edge12" class="edge"><title>Node7&#45;&gt;Node2</title>
<path fill="none" stroke="midnightblue" d="M419.975,-454C430.014,-454 440.412,-454 450.33,-454"/>
<polygon fill="midnightblue" stroke="midnightblue" points="419.679,-450.5 409.679,-454 419.679,-457.5 419.679,-450.5"/>
</g>
<!-- Node8 -->
<g id="node14" class="node"><title>Node8</title>
<a xlink:href="classfwCom_1_1HasSignals.html" target="_top" xlink:title="This class proposes a mapping between a SignalKeyType and a SignalBase. ">
<polygon fill="white" stroke="black" points="310,-403.5 310,-424.5 414,-424.5 414,-403.5 310,-403.5"/>
<text text-anchor="middle" x="362" y="-411.5" font-family="Helvetica,sans-Serif" font-size="10.00">fwCom::HasSignals</text>
</a>
</g>
<!-- Node8&#45;&gt;Node2 -->
<g id="edge14" class="edge"><title>Node8&#45;&gt;Node2</title>
<path fill="none" stroke="midnightblue" d="M409.084,-427.263C427.727,-432.515 448.862,-438.468 466.447,-443.422"/>
<polygon fill="midnightblue" stroke="midnightblue" points="409.883,-423.852 399.309,-424.51 407.985,-430.59 409.883,-423.852"/>
</g>
</g>
</svg>
        <g id="navigator" transform="translate(0 0)" fill="#404254">
                <rect fill="#f2f5e9" fill-opacity="0.5" stroke="#606060" stroke-width=".5" x="0" y="0" width="60" height="60"/>
                <use id="zoomplus" xlink:href="#zoomPlus" x="17" y="9" onmousedown="handleZoom(evt,'in')"/>
                <use id="zoomminus" xlink:href="#zoomMin" x="42" y="9" onmousedown="handleZoom(evt,'out')"/>
                <use id="reset" xlink:href="#resetDef" x="30" y="36" onmousedown="handleReset()"/>
                <g id="arrowUp" xlink:href="#dirArrow" transform="translate(30 24)" onmousedown="handlePan(0,-1)">
                  <use xlink:href="#rim" fill="#404040">
                        <set attributeName="fill" to="#808080" begin="arrowUp.mouseover" end="arrowUp.mouseout"/>
                  </use>
                  <path fill="none" stroke="white" stroke-width="1.5" d="M0,-3.0v7 M-2.5,-0.5L0,-3.0L2.5,-0.5"/>
                </g>
                <g id="arrowRight" xlink:href="#dirArrow" transform="rotate(90) translate(36 -43)" onmousedown="handlePan(1,0)">
                  <use xlink:href="#rim" fill="#404040">
                        <set attributeName="fill" to="#808080" begin="arrowRight.mouseover" end="arrowRight.mouseout"/>
                  </use>
                  <path fill="none" stroke="white" stroke-width="1.5" d="M0,-3.0v7 M-2.5,-0.5L0,-3.0L2.5,-0.5"/>
                </g>
                <g id="arrowDown" xlink:href="#dirArrow" transform="rotate(180) translate(-30 -48)" onmousedown="handlePan(0,1)">
                  <use xlink:href="#rim" fill="#404040">
                        <set attributeName="fill" to="#808080" begin="arrowDown.mouseover" end="arrowDown.mouseout"/>
                  </use>
                  <path fill="none" stroke="white" stroke-width="1.5" d="M0,-3.0v7 M-2.5,-0.5L0,-3.0L2.5,-0.5"/>
                </g>
                <g id="arrowLeft" xlink:href="#dirArrow" transform="rotate(270) translate(-36 17)" onmousedown="handlePan(-1,0)">
                  <use xlink:href="#rim" fill="#404040">
                        <set attributeName="fill" to="#808080" begin="arrowLeft.mouseover" end="arrowLeft.mouseout"/>
                  </use>
                  <path fill="none" stroke="white" stroke-width="1.5" d="M0,-3.0v7 M-2.5,-0.5L0,-3.0L2.5,-0.5"/>
                </g>
        </g>
        <svg viewBox="0 0 15 15" width="100%" height="30px" preserveAspectRatio="xMaxYMin meet">
         <g id="arrow_out" transform="scale(0.3 0.3)">
          <a xlink:href="classfwServices_1_1IController__inherit__graph_org.svg" target="_base">
           <rect id="button" ry="5" rx="5" y="6" x="6" height="38" width="38"
                fill="#f2f5e9" fill-opacity="0.5" stroke="#606060" stroke-width="1.0"/>
           <path id="arrow"
             d="M 11.500037,31.436501 C 11.940474,20.09759 22.043105,11.32322 32.158766,21.979434 L 37.068811,17.246167 C 37.068811,17.246167 37.088388,32 37.088388,32 L 22.160133,31.978069 C 22.160133,31.978069 26.997745,27.140456 26.997745,27.140456 C 18.528582,18.264221 13.291696,25.230495 11.500037,31.436501 z"
             style="fill:#404040;"/>
          </a>
         </g>
        </svg>
</svg>
