<?xml version="1.0" encoding="UTF-8" standalone="no"?>
<!DOCTYPE svg PUBLIC "-//W3C//DTD SVG 1.1//EN"
 "http://www.w3.org/Graphics/SVG/1.1/DTD/svg11.dtd">
<!-- Generated by graphviz version 2.26.3 (20100126.1600)
 -->
<!-- Title: ioPacs::SProgressBarController Pages: 1 -->
<!--zoomable 281 -->
<svg id="main" version="1.1" xmlns="http://www.w3.org/2000/svg" xmlns:xlink="http://www.w3.org/1999/xlink" xml:space="preserve" onload="init(evt)">
<style type="text/css"><![CDATA[
.edge:hover path { stroke: red; }
.edge:hover polygon { stroke: red; fill: red; }
]]></style>
<script type="text/javascript"><![CDATA[
var edges = document.getElementsByTagName('g');
if (edges && edges.length) {
  for (var i=0;i<edges.length;i++) {
    if (edges[i].id.substr(0,4)=='edge') {
      edges[i].setAttribute('class','edge');
    }
  }
}
]]></script>
        <defs>
                <circle id="rim" cx="0" cy="0" r="7"/>
                <circle id="rim2" cx="0" cy="0" r="3.5"/>
                <g id="zoomPlus">
                        <use xlink:href="#rim" fill="#404040">
                                <set attributeName="fill" to="#808080" begin="zoomplus.mouseover" end="zoomplus.mouseout"/>
                        </use>
                        <path d="M-4,0h8M0,-4v8" fill="none" stroke="white" stroke-width="1.5" pointer-events="none"/>
                </g>
                <g id="zoomMin">
                        <use xlink:href="#rim" fill="#404040">
                                <set attributeName="fill" to="#808080" begin="zoomminus.mouseover" end="zoomminus.mouseout"/>
                        </use>
                        <path d="M-4,0h8" fill="none" stroke="white" stroke-width="1.5" pointer-events="none"/>
                </g>
                <g id="dirArrow">
                        <path fill="none" stroke="white" stroke-width="1.5" d="M0,-3.0v7 M-2.5,-0.5L0,-3.0L2.5,-0.5"/>
                </g>
               <g id="resetDef">
                       <use xlink:href="#rim2" fill="#404040">
                               <set attributeName="fill" to="#808080" begin="reset.mouseover" end="reset.mouseout"/>
                       </use>
               </g>
        </defs>

<script type="text/javascript">
var viewWidth = 1576;
var viewHeight = 281;
var sectionId = 'dynsection-1';
</script>
<script xlink:href="svgpan.js"/>
<svg id="graph" class="graph">
<g id="viewport">
<title>ioPacs::SProgressBarController</title>
<polygon fill="white" stroke="white" points="-4,5 -4,-277 1573,-277 1573,5 -4,5"/>
<!-- Node1 -->
<g id="node1" class="node"><title>Node1</title>
<polygon fill="#bfbfbf" stroke="black" points="1412.5,-215.5 1412.5,-236.5 1567.5,-236.5 1567.5,-215.5 1412.5,-215.5"/>
<text text-anchor="middle" x="1490" y="-223.5" font-family="Helvetica,sans-Serif" font-size="10.00">ioPacs::SProgressBarController</text>
</g>
<!-- Node2 -->
<g id="node2" class="node"><title>Node2</title>
<a xlink:href="classfwServices_1_1IController.html" target="_top" xlink:title="This interface defines control service API. Does nothing particularly, can be considered as a default...">
<polygon fill="white" stroke="black" points="1258,-169.5 1258,-190.5 1374,-190.5 1374,-169.5 1258,-169.5"/>
<text text-anchor="middle" x="1316" y="-177.5" font-family="Helvetica,sans-Serif" font-size="10.00">fwServices::IController</text>
</a>
</g>
<!-- Node2&#45;&gt;Node1 -->
<g id="edge2" class="edge"><title>Node2&#45;&gt;Node1</title>
<path fill="none" stroke="midnightblue" d="M1365.87,-193.185C1392.65,-200.265 1425.21,-208.873 1450.27,-215.496"/>
<polygon fill="midnightblue" stroke="midnightblue" points="1366.48,-189.726 1355.92,-190.553 1364.69,-196.493 1366.48,-189.726"/>
</g>
<!-- Node3 -->
<g id="node4" class="node"><title>Node3</title>
<a xlink:href="classfwServices_1_1IService.html" target="_top" xlink:title="Base class for all services. ">
<polygon fill="white" stroke="black" points="1112.5,-74.5 1112.5,-95.5 1219.5,-95.5 1219.5,-74.5 1112.5,-74.5"/>
<text text-anchor="middle" x="1166" y="-82.5" font-family="Helvetica,sans-Serif" font-size="10.00">fwServices::IService</text>
</a>
</g>
<!-- Node3&#45;&gt;Node2 -->
<g id="edge4" class="edge"><title>Node3&#45;&gt;Node2</title>
<path fill="none" stroke="midnightblue" d="M1191.08,-100.886C1221.81,-120.346 1273.01,-152.773 1299.3,-169.423"/>
<polygon fill="midnightblue" stroke="midnightblue" points="1192.95,-97.9233 1182.63,-95.5296 1189.2,-103.837 1192.95,-97.9233"/>
</g>
<!-- Node4 -->
<g id="node6" class="node"><title>Node4</title>
<a xlink:href="classfwTools_1_1Object.html" target="_top" xlink:title="Define Base class for FW4SPL objects and services. ">
<polygon fill="white" stroke="black" points="879,-42.5 879,-63.5 965,-63.5 965,-42.5 879,-42.5"/>
<text text-anchor="middle" x="922" y="-50.5" font-family="Helvetica,sans-Serif" font-size="10.00">fwTools::Object</text>
</a>
</g>
<!-- Node4&#45;&gt;Node3 -->
<g id="edge6" class="edge"><title>Node4&#45;&gt;Node3</title>
<path fill="none" stroke="midnightblue" d="M975.044,-59.9566C1015.67,-65.285 1071.49,-72.6058 1112.29,-77.9558"/>
<polygon fill="midnightblue" stroke="midnightblue" points="975.431,-56.4774 965.061,-58.6473 974.521,-63.418 975.431,-56.4774"/>
</g>
<!-- Node5 -->
<g id="node8" class="node"><title>Node5</title>
<a xlink:href="classfwCore_1_1BaseObject.html" target="_top" xlink:title="Base class for all FW4SPL&#39;s classes. ">
<polygon fill="white" stroke="black" points="680.5,-42.5 680.5,-63.5 785.5,-63.5 785.5,-42.5 680.5,-42.5"/>
<text text-anchor="middle" x="733" y="-50.5" font-family="Helvetica,sans-Serif" font-size="10.00">fwCore::BaseObject</text>
</a>
</g>
<!-- Node5&#45;&gt;Node4 -->
<g id="edge8" class="edge"><title>Node5&#45;&gt;Node4</title>
<path fill="none" stroke="midnightblue" d="M795.871,-53C823.11,-53 854.312,-53 878.867,-53"/>
<polygon fill="midnightblue" stroke="midnightblue" points="795.647,-49.5001 785.647,-53 795.647,-56.5001 795.647,-49.5001"/>
</g>
<!-- Node6 -->
<g id="node10" class="node"><title>Node6</title>
<polygon fill="white" stroke="#bfbfbf" points="449.5,-52 449.5,-86 580.5,-86 580.5,-52 449.5,-52"/>
<text text-anchor="start" x="457.5" y="-73" font-family="Helvetica,sans-Serif" font-size="10.00">std::enable_shared</text>
<text text-anchor="middle" x="515" y="-60" font-family="Helvetica,sans-Serif" font-size="10.00">_from_this&lt; BaseObject &gt;</text>
</g>
<!-- Node6&#45;&gt;Node5 -->
<g id="edge10" class="edge"><title>Node6&#45;&gt;Node5</title>
<path fill="none" stroke="midnightblue" d="M590.959,-63.425C620.418,-61.2629 653.435,-58.8397 680.216,-56.874"/>
<polygon fill="midnightblue" stroke="midnightblue" points="590.42,-59.9551 580.703,-64.1778 590.932,-66.9363 590.42,-59.9551"/>
</g>
<!-- Node7 -->
<g id="node12" class="node"><title>Node7</title>
<a xlink:href="classfwTools_1_1fwID.html" target="_top" xlink:title="Defines ID for fwTools::Object. It is used to associate ID with object. ">
<polygon fill="white" stroke="black" points="694,-82.5 694,-103.5 772,-103.5 772,-82.5 694,-82.5"/>
<text text-anchor="middle" x="733" y="-90.5" font-family="Helvetica,sans-Serif" font-size="10.00">fwTools::fwID</text>
</a>
</g>
<!-- Node7&#45;&gt;Node4 -->
<g id="edge12" class="edge"><title>Node7&#45;&gt;Node4</title>
<path fill="none" stroke="darkgreen" d="M782.007,-82.6282C812.022,-76.2757 850.08,-68.2212 878.936,-62.1141"/>
<polygon fill="darkgreen" stroke="darkgreen" points="781.22,-79.2172 772.161,-84.712 782.669,-86.0655 781.22,-79.2172"/>
</g>
<!-- Node8 -->
<g id="node14" class="node"><title>Node8</title>
<a xlink:href="classfwCom_1_1HasSlots.html" target="_top" xlink:title="This class proposes a mapping between a SlotKeyType and a SlotBase. ">
<polygon fill="white" stroke="black" points="874.5,-190.5 874.5,-211.5 969.5,-211.5 969.5,-190.5 874.5,-190.5"/>
<text text-anchor="middle" x="922" y="-198.5" font-family="Helvetica,sans-Serif" font-size="10.00">fwCom::HasSlots</text>
</a>
</g>
<!-- Node8&#45;&gt;Node3 -->
<g id="edge14" class="edge"><title>Node8&#45;&gt;Node3</title>
<path fill="none" stroke="midnightblue" d="M969.075,-213.641C1005.53,-220.699 1056.03,-224.31 1094,-203 1136.06,-179.39 1156.46,-120.112 1163.28,-95.7302"/>
<polygon fill="midnightblue" stroke="midnightblue" points="969.693,-210.195 959.189,-211.576 968.262,-217.047 969.693,-210.195"/>
</g>
<!-- Node9 -->
<g id="node16" class="node"><title>Node9</title>
<a xlink:href="classfwCom_1_1Slots.html" target="_top" xlink:title="This class proposes a mapping between a SlotKeyType and a SlotBase. ">
<polygon fill="white" stroke="black" points="694.5,-183.5 694.5,-204.5 771.5,-204.5 771.5,-183.5 694.5,-183.5"/>
<text text-anchor="middle" x="733" y="-191.5" font-family="Helvetica,sans-Serif" font-size="10.00">fwCom::Slots</text>
</a>
</g>
<!-- Node9&#45;&gt;Node8 -->
<g id="edge16" class="edge"><title>Node9&#45;&gt;Node8</title>
<path fill="none" stroke="#9a32cd" stroke-dasharray="5,2" d="M781.832,-195.809C810.292,-196.863 846.028,-198.186 874.293,-199.233"/>
<polygon fill="#9a32cd" stroke="#9a32cd" points="781.826,-192.306 771.703,-195.433 781.567,-199.301 781.826,-192.306"/>
<text text-anchor="middle" x="828" y="-202" font-family="Helvetica,sans-Serif" font-size="10.00"> m_slots</text>
</g>
<!-- Node10 -->
<g id="node18" class="node"><title>Node10</title>
<polygon fill="white" stroke="#bfbfbf" points="439,-173 439,-207 591,-207 591,-173 439,-173"/>
<text text-anchor="start" x="447" y="-194" font-family="Helvetica,sans-Serif" font-size="10.00">std::map&lt; SlotKeyType,</text>
<text text-anchor="middle" x="515" y="-181" font-family="Helvetica,sans-Serif" font-size="10.00"> std::shared_ptr&lt; SlotBase &gt; &gt;</text>
</g>
<!-- Node10&#45;&gt;Node9 -->
<g id="edge18" class="edge"><title>Node10&#45;&gt;Node9</title>
<path fill="none" stroke="#9a32cd" stroke-dasharray="5,2" d="M601.588,-191.589C633.782,-192.179 668.703,-192.82 694.45,-193.293"/>
<polygon fill="#9a32cd" stroke="#9a32cd" points="601.308,-188.083 591.246,-191.399 601.18,-195.082 601.308,-188.083"/>
<text text-anchor="middle" x="638" y="-196" font-family="Helvetica,sans-Serif" font-size="10.00"> m_slots</text>
</g>
<!-- Node11 -->
<g id="node20" class="node"><title>Node11</title>
<a xlink:title="STL class. ">
<polygon fill="white" stroke="#bfbfbf" points="192,-202.5 192,-223.5 252,-223.5 252,-202.5 192,-202.5"/>
<text text-anchor="middle" x="222" y="-210.5" font-family="Helvetica,sans-Serif" font-size="10.00">std::string</text>
</a>
</g>
<!-- Node11&#45;&gt;Node10 -->
<g id="edge20" class="edge"><title>Node11&#45;&gt;Node10</title>
<path fill="none" stroke="#9a32cd" stroke-dasharray="5,2" d="M262.294,-209.837C307.647,-206.277 382.356,-200.412 438.808,-195.981"/>
<polygon fill="#9a32cd" stroke="#9a32cd" points="261.948,-206.353 252.253,-210.625 262.496,-213.332 261.948,-206.353"/>
<text text-anchor="middle" x="351" y="-211" font-family="Helvetica,sans-Serif" font-size="10.00"> keys</text>
</g>
<!-- Node18 -->
<g id="node34" class="node"><title>Node18</title>
<polygon fill="white" stroke="#bfbfbf" points="434.5,-0 434.5,-34 595.5,-34 595.5,-0 434.5,-0"/>
<text text-anchor="start" x="442.5" y="-21" font-family="Helvetica,sans-Serif" font-size="10.00">std::map&lt; SignalKeyType,</text>
<text text-anchor="middle" x="515" y="-8" font-family="Helvetica,sans-Serif" font-size="10.00"> std::shared_ptr&lt; SignalBase &gt; &gt;</text>
</g>
<!-- Node11&#45;&gt;Node18 -->
<g id="edge36" class="edge"><title>Node11&#45;&gt;Node18</title>
<path fill="none" stroke="#9a32cd" stroke-dasharray="5,2" d="M228.937,-192.592C238.083,-169.041 256.552,-131.107 286,-112 334.984,-80.2172 370.787,-129.951 416,-93 434.288,-78.0539 417.01,-59.4063 434,-43 437.506,-39.6144 441.454,-36.6697 445.672,-34.1083"/>
<polygon fill="#9a32cd" stroke="#9a32cd" points="225.541,-191.688 225.385,-202.282 232.113,-194.098 225.541,-191.688"/>
<text text-anchor="middle" x="351" y="-116" font-family="Helvetica,sans-Serif" font-size="10.00"> keys</text>
</g>
<!-- Node20 -->
<g id="node40" class="node"><title>Node20</title>
<polygon fill="white" stroke="#bfbfbf" points="439,-225.5 439,-272.5 591,-272.5 591,-225.5 439,-225.5"/>
<text text-anchor="start" x="447" y="-259.5" font-family="Helvetica,sans-Serif" font-size="10.00">std::map&lt; std::string,</text>
<text text-anchor="start" x="447" y="-246.5" font-family="Helvetica,sans-Serif" font-size="10.00">::fwGui::dialog::ProgressDialog</text>
<text text-anchor="middle" x="515" y="-233.5" font-family="Helvetica,sans-Serif" font-size="10.00">::sptr &gt;</text>
</g>
<!-- Node11&#45;&gt;Node20 -->
<g id="edge44" class="edge"><title>Node11&#45;&gt;Node20</title>
<path fill="none" stroke="#9a32cd" stroke-dasharray="5,2" d="M262.283,-220.312C270.135,-221.627 278.315,-222.921 286,-224 336.793,-231.131 394.168,-237.391 438.782,-241.864"/>
<polygon fill="#9a32cd" stroke="#9a32cd" points="262.665,-216.826 252.217,-218.586 261.482,-223.726 262.665,-216.826"/>
<text text-anchor="middle" x="351" y="-242" font-family="Helvetica,sans-Serif" font-size="10.00"> keys</text>
</g>
<!-- Node12 -->
<g id="node22" class="node"><title>Node12</title>
<a xlink:title="STL class. ">
<polygon fill="white" stroke="#bfbfbf" points="0.5,-196 0.5,-230 95.5,-230 95.5,-196 0.5,-196"/>
<text text-anchor="start" x="8.5" y="-217" font-family="Helvetica,sans-Serif" font-size="10.00">std::basic_string&lt;</text>
<text text-anchor="middle" x="48" y="-204" font-family="Helvetica,sans-Serif" font-size="10.00"> char &gt;</text>
</a>
</g>
<!-- Node12&#45;&gt;Node11 -->
<g id="edge22" class="edge"><title>Node12&#45;&gt;Node11</title>
<path fill="none" stroke="midnightblue" d="M105.887,-213C134.618,-213 168.136,-213 191.754,-213"/>
<polygon fill="midnightblue" stroke="midnightblue" points="105.546,-209.5 95.5463,-213 105.546,-216.5 105.546,-209.5"/>
</g>
<!-- Node13 -->
<g id="node24" class="node"><title>Node13</title>
<a xlink:title="STL class. ">
<polygon fill="white" stroke="#bfbfbf" points="176,-55.5 176,-76.5 268,-76.5 268,-55.5 176,-55.5"/>
<text text-anchor="middle" x="222" y="-63.5" font-family="Helvetica,sans-Serif" font-size="10.00">std::map&lt; K, T &gt;</text>
</a>
</g>
<!-- Node13&#45;&gt;Node10 -->
<g id="edge24" class="edge"><title>Node13&#45;&gt;Node10</title>
<path fill="none" stroke="orange" stroke-dasharray="5,2" d="M273.155,-53.5641C314.327,-46.4147 372.321,-43.0071 416,-67 428.967,-74.1226 425.181,-83.1221 434,-95 455.061,-123.365 482.14,-154.123 499.036,-172.727"/>
<polygon fill="orange" stroke="orange" points="272.257,-50.1713 263.07,-55.448 273.542,-57.0523 272.257,-50.1713"/>
<text text-anchor="start" x="291.5" y="-84" font-family="Helvetica,sans-Serif" font-size="10.00"> &lt; SlotKeyType, std</text>
<text text-anchor="middle" x="351" y="-71" font-family="Helvetica,sans-Serif" font-size="10.00">::shared_ptr&lt; SlotBase &gt; &gt;</text>
</g>
<!-- Node13&#45;&gt;Node18 -->
<g id="edge38" class="edge"><title>Node13&#45;&gt;Node18</title>
<path fill="none" stroke="orange" stroke-dasharray="5,2" d="M239.498,-47.9362C251.431,-36.966 268.242,-23.9626 286,-18 333.395,-2.08673 389.483,-1.56571 434.288,-5.15495"/>
<polygon fill="orange" stroke="orange" points="236.84,-45.6369 232.065,-55.0946 241.695,-50.679 236.84,-45.6369"/>
<text text-anchor="start" x="286.5" y="-35" font-family="Helvetica,sans-Serif" font-size="10.00"> &lt; SignalKeyType, std</text>
<text text-anchor="middle" x="351" y="-22" font-family="Helvetica,sans-Serif" font-size="10.00">::shared_ptr&lt; SignalBase &gt; &gt;</text>
</g>
<!-- Node13&#45;&gt;Node20 -->
<g id="edge46" class="edge"><title>Node13&#45;&gt;Node20</title>
<path fill="none" stroke="orange" stroke-dasharray="5,2" d="M236.215,-85.0675C247.962,-99.4113 265.923,-118.356 286,-129 338.059,-156.598 372.513,-115.242 416,-155 436.862,-174.073 415.036,-195.039 434,-216 437.158,-219.491 440.739,-222.62 444.594,-225.424"/>
<polygon fill="orange" stroke="orange" points="238.678,-82.5373 229.741,-76.8464 233.178,-86.8682 238.678,-82.5373"/>
<text text-anchor="start" x="298.5" y="-185" font-family="Helvetica,sans-Serif" font-size="10.00"> &lt; std::string,::fwGui</text>
<text text-anchor="start" x="298.5" y="-172" font-family="Helvetica,sans-Serif" font-size="10.00">::dialog::ProgressDialog</text>
<text text-anchor="middle" x="351" y="-159" font-family="Helvetica,sans-Serif" font-size="10.00">::sptr &gt;</text>
</g>
<!-- Node14 -->
<g id="node26" class="node"><title>Node14</title>
<polygon fill="white" stroke="#bfbfbf" points="33.5,-75.5 33.5,-96.5 62.5,-96.5 62.5,-75.5 33.5,-75.5"/>
<text text-anchor="middle" x="48" y="-83.5" font-family="Helvetica,sans-Serif" font-size="10.00">K</text>
</g>
<!-- Node14&#45;&gt;Node13 -->
<g id="edge26" class="edge"><title>Node14&#45;&gt;Node13</title>
<path fill="none" stroke="#9a32cd" stroke-dasharray="5,2" d="M72.5869,-83.1739C99.3704,-80.0954 142.819,-75.1013 175.976,-71.2901"/>
<polygon fill="#9a32cd" stroke="#9a32cd" points="72.0708,-79.7101 62.5359,-84.3292 72.8701,-86.6643 72.0708,-79.7101"/>
<text text-anchor="middle" x="136" y="-82" font-family="Helvetica,sans-Serif" font-size="10.00"> keys</text>
</g>
<!-- Node15 -->
<g id="node28" class="node"><title>Node15</title>
<polygon fill="white" stroke="#bfbfbf" points="33.5,-35.5 33.5,-56.5 62.5,-56.5 62.5,-35.5 33.5,-35.5"/>
<text text-anchor="middle" x="48" y="-43.5" font-family="Helvetica,sans-Serif" font-size="10.00">T</text>
</g>
<!-- Node15&#45;&gt;Node13 -->
<g id="edge28" class="edge"><title>Node15&#45;&gt;Node13</title>
<path fill="none" stroke="#9a32cd" stroke-dasharray="5,2" d="M72.8942,-47.8037C95.2211,-49.5307 128.857,-52.4023 158,-56 163.804,-56.7165 169.89,-57.5545 175.906,-58.4351"/>
<polygon fill="#9a32cd" stroke="#9a32cd" points="72.8576,-44.2911 62.6225,-47.0284 72.3307,-51.2712 72.8576,-44.2911"/>
<text text-anchor="middle" x="136" y="-60" font-family="Helvetica,sans-Serif" font-size="10.00"> elements</text>
</g>
<!-- Node16 -->
<g id="node30" class="node"><title>Node16</title>
<a xlink:href="classfwCom_1_1HasSignals.html" target="_top" xlink:title="This class proposes a mapping between a SignalKeyType and a SignalBase. ">
<polygon fill="white" stroke="black" points="870,-2.5 870,-23.5 974,-23.5 974,-2.5 870,-2.5"/>
<text text-anchor="middle" x="922" y="-10.5" font-family="Helvetica,sans-Serif" font-size="10.00">fwCom::HasSignals</text>
</a>
</g>
<!-- Node16&#45;&gt;Node3 -->
<g id="edge30" class="edge"><title>Node16&#45;&gt;Node3</title>
<path fill="none" stroke="midnightblue" d="M977.363,-25.9481C1011.28,-34.26 1055.44,-45.762 1094,-58 1109.4,-62.8867 1126.32,-69.1858 1139.89,-74.4705"/>
<polygon fill="midnightblue" stroke="midnightblue" points="978.176,-22.5441 967.632,-23.5823 976.522,-29.3459 978.176,-22.5441"/>
</g>
<!-- Node17 -->
<g id="node32" class="node"><title>Node17</title>
<a xlink:href="classfwCom_1_1Signals.html" target="_top" xlink:title="This class proposes a mapping between a SignalKeyType and a SignalBase. ">
<polygon fill="white" stroke="black" points="690,-2.5 690,-23.5 776,-23.5 776,-2.5 690,-2.5"/>
<text text-anchor="middle" x="733" y="-10.5" font-family="Helvetica,sans-Serif" font-size="10.00">fwCom::Signals</text>
</a>
</g>
<!-- Node17&#45;&gt;Node16 -->
<g id="edge32" class="edge"><title>Node17&#45;&gt;Node16</title>
<path fill="none" stroke="#9a32cd" stroke-dasharray="5,2" d="M786.454,-13C812.549,-13 843.828,-13 869.76,-13"/>
<polygon fill="#9a32cd" stroke="#9a32cd" points="786.36,-9.5001 776.36,-13 786.36,-16.5001 786.36,-9.5001"/>
<text text-anchor="middle" x="828" y="-17" font-family="Helvetica,sans-Serif" font-size="10.00"> m_signals</text>
</g>
<!-- Node18&#45;&gt;Node17 -->
<g id="edge34" class="edge"><title>Node18&#45;&gt;Node17</title>
<path fill="none" stroke="#9a32cd" stroke-dasharray="5,2" d="M605.751,-15.3348C634.826,-14.8014 665.684,-14.2352 689.73,-13.794"/>
<polygon fill="#9a32cd" stroke="#9a32cd" points="605.49,-11.8389 595.556,-15.5219 605.618,-18.8378 605.49,-11.8389"/>
<text text-anchor="middle" x="638" y="-20" font-family="Helvetica,sans-Serif" font-size="10.00"> m_signals</text>
</g>
<!-- Node19 -->
<g id="node38" class="node"><title>Node19</title>
<polygon fill="white" stroke="#bfbfbf" points="901.5,-82.5 901.5,-103.5 942.5,-103.5 942.5,-82.5 901.5,-82.5"/>
<text text-anchor="middle" x="922" y="-90.5" font-family="Helvetica,sans-Serif" font-size="10.00">static</text>
</g>
<!-- Node19&#45;&gt;Node3 -->
<g id="edge40" class="edge"><title>Node19&#45;&gt;Node3</title>
<path fill="none" stroke="#9a32cd" stroke-dasharray="5,2" d="M952.901,-89.2789C965.066,-87.9793 979.171,-86.6768 992,-86 1032.27,-83.8753 1077.86,-83.6947 1112.27,-84.0083"/>
<polygon fill="#9a32cd" stroke="#9a32cd" points="952.34,-85.8195 942.789,-90.4045 953.115,-92.7766 952.34,-85.8195"/>
<text text-anchor="middle" x="1043" y="-194" font-family="Helvetica,sans-Serif" font-size="10.00"> s_STOPPED_SIG</text>
<text text-anchor="middle" x="1043" y="-181" font-family="Helvetica,sans-Serif" font-size="10.00">s_UPDATED_SIG</text>
<text text-anchor="middle" x="1043" y="-168" font-family="Helvetica,sans-Serif" font-size="10.00">s_UPDATE_SLOT</text>
<text text-anchor="middle" x="1043" y="-155" font-family="Helvetica,sans-Serif" font-size="10.00">s_STARTED_SIG</text>
<text text-anchor="middle" x="1043" y="-142" font-family="Helvetica,sans-Serif" font-size="10.00">s_SWAPKEY_SLOT</text>
<text text-anchor="middle" x="1043" y="-129" font-family="Helvetica,sans-Serif" font-size="10.00">s_SWAP_SLOT</text>
<text text-anchor="middle" x="1043" y="-116" font-family="Helvetica,sans-Serif" font-size="10.00">s_STOP_SLOT</text>
<text text-anchor="middle" x="1043" y="-103" font-family="Helvetica,sans-Serif" font-size="10.00">s_START_SLOT</text>
<text text-anchor="middle" x="1043" y="-90" font-family="Helvetica,sans-Serif" font-size="10.00">s_DEFAULT_OBJECT</text>
</g>
<!-- Node20&#45;&gt;Node1 -->
<g id="edge42" class="edge"><title>Node20&#45;&gt;Node1</title>
<path fill="none" stroke="#9a32cd" stroke-dasharray="5,2" d="M601.175,-249.577C641.254,-249.799 689.561,-250 733,-250 733,-250 733,-250 1316,-250 1358.23,-250 1405.7,-242.975 1440.37,-236.527"/>
<polygon fill="#9a32cd" stroke="#9a32cd" points="601.19,-246.077 591.17,-249.521 601.15,-253.077 601.19,-246.077"/>
<text text-anchor="middle" x="1043" y="-254" font-family="Helvetica,sans-Serif" font-size="10.00"> m_progressDialogs</text>
</g>
</g>
</svg>
        <g id="navigator" transform="translate(0 0)" fill="#404254">
                <rect fill="#f2f5e9" fill-opacity="0.5" stroke="#606060" stroke-width=".5" x="0" y="0" width="60" height="60"/>
                <use id="zoomplus" xlink:href="#zoomPlus" x="17" y="9" onmousedown="handleZoom(evt,'in')"/>
                <use id="zoomminus" xlink:href="#zoomMin" x="42" y="9" onmousedown="handleZoom(evt,'out')"/>
                <use id="reset" xlink:href="#resetDef" x="30" y="36" onmousedown="handleReset()"/>
                <g id="arrowUp" xlink:href="#dirArrow" transform="translate(30 24)" onmousedown="handlePan(0,-1)">
                  <use xlink:href="#rim" fill="#404040">
                        <set attributeName="fill" to="#808080" begin="arrowUp.mouseover" end="arrowUp.mouseout"/>
                  </use>
                  <path fill="none" stroke="white" stroke-width="1.5" d="M0,-3.0v7 M-2.5,-0.5L0,-3.0L2.5,-0.5"/>
                </g>
                <g id="arrowRight" xlink:href="#dirArrow" transform="rotate(90) translate(36 -43)" onmousedown="handlePan(1,0)">
                  <use xlink:href="#rim" fill="#404040">
                        <set attributeName="fill" to="#808080" begin="arrowRight.mouseover" end="arrowRight.mouseout"/>
                  </use>
                  <path fill="none" stroke="white" stroke-width="1.5" d="M0,-3.0v7 M-2.5,-0.5L0,-3.0L2.5,-0.5"/>
                </g>
                <g id="arrowDown" xlink:href="#dirArrow" transform="rotate(180) translate(-30 -48)" onmousedown="handlePan(0,1)">
                  <use xlink:href="#rim" fill="#404040">
                        <set attributeName="fill" to="#808080" begin="arrowDown.mouseover" end="arrowDown.mouseout"/>
                  </use>
                  <path fill="none" stroke="white" stroke-width="1.5" d="M0,-3.0v7 M-2.5,-0.5L0,-3.0L2.5,-0.5"/>
                </g>
                <g id="arrowLeft" xlink:href="#dirArrow" transform="rotate(270) translate(-36 17)" onmousedown="handlePan(-1,0)">
                  <use xlink:href="#rim" fill="#404040">
                        <set attributeName="fill" to="#808080" begin="arrowLeft.mouseover" end="arrowLeft.mouseout"/>
                  </use>
                  <path fill="none" stroke="white" stroke-width="1.5" d="M0,-3.0v7 M-2.5,-0.5L0,-3.0L2.5,-0.5"/>
                </g>
        </g>
        <svg viewBox="0 0 15 15" width="100%" height="30px" preserveAspectRatio="xMaxYMin meet">
         <g id="arrow_out" transform="scale(0.3 0.3)">
          <a xlink:href="classioPacs_1_1SProgressBarController__coll__graph_org.svg" target="_base">
           <rect id="button" ry="5" rx="5" y="6" x="6" height="38" width="38"
                fill="#f2f5e9" fill-opacity="0.5" stroke="#606060" stroke-width="1.0"/>
           <path id="arrow"
             d="M 11.500037,31.436501 C 11.940474,20.09759 22.043105,11.32322 32.158766,21.979434 L 37.068811,17.246167 C 37.068811,17.246167 37.088388,32 37.088388,32 L 22.160133,31.978069 C 22.160133,31.978069 26.997745,27.140456 26.997745,27.140456 C 18.528582,18.264221 13.291696,25.230495 11.500037,31.436501 z"
             style="fill:#404040;"/>
          </a>
         </g>
        </svg>
</svg>
