<?xml version="1.0" encoding="UTF-8" standalone="no"?>
<!DOCTYPE svg PUBLIC "-//W3C//DTD SVG 1.1//EN"
 "http://www.w3.org/Graphics/SVG/1.1/DTD/svg11.dtd">
<!-- Generated by graphviz version 2.26.3 (20100126.1600)
 -->
<!-- Title: fwGui::dialog::SelectorDialog::showSelectorDialog Pages: 1 -->
<svg width="488pt" height="42pt"
 viewBox="0.00 0.00 488.00 42.00" xmlns="http://www.w3.org/2000/svg" xmlns:xlink="http://www.w3.org/1999/xlink">
<g id="graph1" class="graph" transform="scale(1 1) rotate(0) translate(4 38)">
<title>fwGui::dialog::SelectorDialog::showSelectorDialog</title>
<polygon fill="white" stroke="white" points="-4,5 -4,-38 485,-38 485,5 -4,5"/>
<!-- Node1 -->
<g id="node1" class="node"><title>Node1</title>
<polygon fill="#bfbfbf" stroke="black" points="0.5,-0 0.5,-34 143.5,-34 143.5,-0 0.5,-0"/>
<text text-anchor="start" x="8.5" y="-21" font-family="Helvetica,sans-Serif" font-size="10.00">fwGui::dialog::SelectorDialog</text>
<text text-anchor="middle" x="72" y="-8" font-family="Helvetica,sans-Serif" font-size="10.00">::showSelectorDialog</text>
</g>
<!-- Node2 -->
<g id="node3" class="node"><title>Node2</title>
<a xlink:href="classfwGui_1_1dialog_1_1SelectorDialog.html#a137fdaec96cb3003c9d72a8fe895b1fe" target="_top" xlink:title="Show the selector and return the selection. ">
<polygon fill="white" stroke="black" points="180.5,-0 180.5,-34 323.5,-34 323.5,-0 180.5,-0"/>
<text text-anchor="start" x="188.5" y="-21" font-family="Helvetica,sans-Serif" font-size="10.00">fwGui::dialog::SelectorDialog</text>
<text text-anchor="middle" x="252" y="-8" font-family="Helvetica,sans-Serif" font-size="10.00">::show</text>
</a>
</g>
<!-- Node1&#45;&gt;Node2 -->
<g id="edge2" class="edge"><title>Node1&#45;&gt;Node2</title>
<path fill="none" stroke="midnightblue" d="M143.658,-17C152.325,-17 161.23,-17 170.031,-17"/>
<polygon fill="midnightblue" stroke="midnightblue" points="170.295,-20.5001 180.295,-17 170.294,-13.5001 170.295,-20.5001"/>
</g>
<!-- Node3 -->
<g id="node5" class="node"><title>Node3</title>
<a xlink:href="classfwGui_1_1dialog_1_1ISelectorDialog.html#a85fd94baffc2f03205b9121e91eb29d6" target="_top" xlink:title="Show the selector and return the selection. ">
<polygon fill="white" stroke="black" points="360.5,-0 360.5,-34 479.5,-34 479.5,-0 360.5,-0"/>
<text text-anchor="start" x="368.5" y="-21" font-family="Helvetica,sans-Serif" font-size="10.00">fwGui::dialog::ISelector</text>
<text text-anchor="middle" x="420" y="-8" font-family="Helvetica,sans-Serif" font-size="10.00">Dialog::show</text>
</a>
</g>
<!-- Node2&#45;&gt;Node3 -->
<g id="edge4" class="edge"><title>Node2&#45;&gt;Node3</title>
<path fill="none" stroke="midnightblue" d="M323.734,-17C332.516,-17 341.481,-17 350.233,-17"/>
<polygon fill="midnightblue" stroke="midnightblue" points="350.386,-20.5001 360.386,-17 350.386,-13.5001 350.386,-20.5001"/>
</g>
</g>
</svg>
