<?xml version="1.0" encoding="UTF-8" standalone="no"?>
<!DOCTYPE svg PUBLIC "-//W3C//DTD SVG 1.1//EN"
 "http://www.w3.org/Graphics/SVG/1.1/DTD/svg11.dtd">
<!-- Generated by graphviz version 2.26.3 (20100126.1600)
 -->
<!-- Title: uiMedData::editor::SOrganTransformation Pages: 1 -->
<svg width="404pt" height="406pt"
 viewBox="0.00 0.00 404.00 406.00" xmlns="http://www.w3.org/2000/svg" xmlns:xlink="http://www.w3.org/1999/xlink">
<g id="graph1" class="graph" transform="scale(1 1) rotate(0) translate(4 402)">
<title>uiMedData::editor::SOrganTransformation</title>
<polygon fill="white" stroke="white" points="-4,5 -4,-402 401,-402 401,5 -4,5"/>
<!-- Node1 -->
<g id="node1" class="node"><title>Node1</title>
<polygon fill="#bfbfbf" stroke="black" points="123.5,-1 123.5,-35 238.5,-35 238.5,-1 123.5,-1"/>
<text text-anchor="start" x="131.5" y="-22" font-family="Helvetica,sans-Serif" font-size="10.00">uiMedData::editor::</text>
<text text-anchor="middle" x="181" y="-9" font-family="Helvetica,sans-Serif" font-size="10.00">SOrganTransformation</text>
</g>
<!-- Node2 -->
<g id="node2" class="node"><title>Node2</title>
<polygon fill="white" stroke="#bfbfbf" points="109.5,-72.5 109.5,-93.5 162.5,-93.5 162.5,-72.5 109.5,-72.5"/>
<text text-anchor="middle" x="136" y="-80.5" font-family="Helvetica,sans-Serif" font-size="10.00">QObject</text>
</g>
<!-- Node2&#45;&gt;Node1 -->
<g id="edge2" class="edge"><title>Node2&#45;&gt;Node1</title>
<path fill="none" stroke="midnightblue" d="M149.252,-63.8576C155.559,-54.7478 163.04,-43.9428 169.155,-35.1099"/>
<polygon fill="midnightblue" stroke="midnightblue" points="146.245,-62.0524 143.431,-72.2666 152.001,-66.0369 146.245,-62.0524"/>
</g>
<!-- Node3 -->
<g id="node4" class="node"><title>Node3</title>
<a xlink:href="classgui_1_1editor_1_1IEditor.html" target="_top" xlink:title="Defines the service interface managing the editor service for object. ">
<polygon fill="white" stroke="black" points="180,-72.5 180,-93.5 274,-93.5 274,-72.5 180,-72.5"/>
<text text-anchor="middle" x="227" y="-80.5" font-family="Helvetica,sans-Serif" font-size="10.00">gui::editor::IEditor</text>
</a>
</g>
<!-- Node3&#45;&gt;Node1 -->
<g id="edge4" class="edge"><title>Node3&#45;&gt;Node1</title>
<path fill="none" stroke="midnightblue" d="M213.453,-63.8576C207.006,-54.7478 199.36,-43.9428 193.109,-35.1099"/>
<polygon fill="midnightblue" stroke="midnightblue" points="210.77,-66.1257 219.404,-72.2666 216.484,-62.082 210.77,-66.1257"/>
</g>
<!-- Node4 -->
<g id="node6" class="node"><title>Node4</title>
<a xlink:href="classfwGui_1_1IGuiContainerSrv.html" target="_top" xlink:title="Defines the service interface managing the layout. ">
<polygon fill="white" stroke="black" points="165.5,-130.5 165.5,-151.5 288.5,-151.5 288.5,-130.5 165.5,-130.5"/>
<text text-anchor="middle" x="227" y="-138.5" font-family="Helvetica,sans-Serif" font-size="10.00">fwGui::IGuiContainerSrv</text>
</a>
</g>
<!-- Node4&#45;&gt;Node3 -->
<g id="edge6" class="edge"><title>Node4&#45;&gt;Node3</title>
<path fill="none" stroke="midnightblue" d="M227,-120.191C227,-111.168 227,-100.994 227,-93.5707"/>
<polygon fill="midnightblue" stroke="midnightblue" points="223.5,-120.362 227,-130.362 230.5,-120.362 223.5,-120.362"/>
</g>
<!-- Node5 -->
<g id="node8" class="node"><title>Node5</title>
<a xlink:href="classfwServices_1_1IService.html" target="_top" xlink:title="Base class for all services. ">
<polygon fill="white" stroke="black" points="173.5,-188.5 173.5,-209.5 280.5,-209.5 280.5,-188.5 173.5,-188.5"/>
<text text-anchor="middle" x="227" y="-196.5" font-family="Helvetica,sans-Serif" font-size="10.00">fwServices::IService</text>
</a>
</g>
<!-- Node5&#45;&gt;Node4 -->
<g id="edge8" class="edge"><title>Node5&#45;&gt;Node4</title>
<path fill="none" stroke="midnightblue" d="M227,-178.191C227,-169.168 227,-158.994 227,-151.571"/>
<polygon fill="midnightblue" stroke="midnightblue" points="223.5,-178.362 227,-188.362 230.5,-178.362 223.5,-178.362"/>
</g>
<!-- Node6 -->
<g id="node10" class="node"><title>Node6</title>
<a xlink:href="classfwTools_1_1Object.html" target="_top" xlink:title="Define Base class for FW4SPL objects and services. ">
<polygon fill="white" stroke="black" points="76,-246.5 76,-267.5 162,-267.5 162,-246.5 76,-246.5"/>
<text text-anchor="middle" x="119" y="-254.5" font-family="Helvetica,sans-Serif" font-size="10.00">fwTools::Object</text>
</a>
</g>
<!-- Node6&#45;&gt;Node5 -->
<g id="edge10" class="edge"><title>Node6&#45;&gt;Node5</title>
<path fill="none" stroke="midnightblue" d="M147.572,-241.656C166.378,-231.556 190.517,-218.593 207.223,-209.621"/>
<polygon fill="midnightblue" stroke="midnightblue" points="145.712,-238.682 138.558,-246.497 149.024,-244.849 145.712,-238.682"/>
</g>
<!-- Node7 -->
<g id="node12" class="node"><title>Node7</title>
<a xlink:href="classfwCore_1_1BaseObject.html" target="_top" xlink:title="Base class for all FW4SPL&#39;s classes. ">
<polygon fill="white" stroke="black" points="12.5,-304.5 12.5,-325.5 117.5,-325.5 117.5,-304.5 12.5,-304.5"/>
<text text-anchor="middle" x="65" y="-312.5" font-family="Helvetica,sans-Serif" font-size="10.00">fwCore::BaseObject</text>
</a>
</g>
<!-- Node7&#45;&gt;Node6 -->
<g id="edge12" class="edge"><title>Node7&#45;&gt;Node6</title>
<path fill="none" stroke="midnightblue" d="M81.917,-296.83C90.8755,-287.208 101.563,-275.728 109.158,-267.571"/>
<polygon fill="midnightblue" stroke="midnightblue" points="79.157,-294.658 74.9044,-304.362 84.2803,-299.428 79.157,-294.658"/>
</g>
<!-- Node8 -->
<g id="node14" class="node"><title>Node8</title>
<polygon fill="white" stroke="#bfbfbf" points="-0.5,-363 -0.5,-397 130.5,-397 130.5,-363 -0.5,-363"/>
<text text-anchor="start" x="7.5" y="-384" font-family="Helvetica,sans-Serif" font-size="10.00">std::enable_shared</text>
<text text-anchor="middle" x="65" y="-371" font-family="Helvetica,sans-Serif" font-size="10.00">_from_this&lt; BaseObject &gt;</text>
</g>
<!-- Node8&#45;&gt;Node7 -->
<g id="edge14" class="edge"><title>Node8&#45;&gt;Node7</title>
<path fill="none" stroke="midnightblue" d="M65,-352.688C65,-343.242 65,-333.195 65,-325.852"/>
<polygon fill="midnightblue" stroke="midnightblue" points="61.5001,-352.922 65,-362.922 68.5001,-352.922 61.5001,-352.922"/>
</g>
<!-- Node9 -->
<g id="node16" class="node"><title>Node9</title>
<a xlink:href="classfwTools_1_1fwID.html" target="_top" xlink:title="Defines ID for fwTools::Object. It is used to associate ID with object. ">
<polygon fill="white" stroke="black" points="135,-304.5 135,-325.5 213,-325.5 213,-304.5 135,-304.5"/>
<text text-anchor="middle" x="174" y="-312.5" font-family="Helvetica,sans-Serif" font-size="10.00">fwTools::fwID</text>
</a>
</g>
<!-- Node9&#45;&gt;Node6 -->
<g id="edge16" class="edge"><title>Node9&#45;&gt;Node6</title>
<path fill="none" stroke="darkgreen" d="M156.77,-296.83C147.645,-287.208 136.76,-275.728 129.024,-267.571"/>
<polygon fill="darkgreen" stroke="darkgreen" points="154.492,-299.514 163.912,-304.362 159.571,-294.697 154.492,-299.514"/>
</g>
<!-- Node10 -->
<g id="node18" class="node"><title>Node10</title>
<a xlink:href="classfwCom_1_1HasSlots.html" target="_top" xlink:title="This class proposes a mapping between a SlotKeyType and a SlotBase. ">
<polygon fill="white" stroke="black" points="179.5,-246.5 179.5,-267.5 274.5,-267.5 274.5,-246.5 179.5,-246.5"/>
<text text-anchor="middle" x="227" y="-254.5" font-family="Helvetica,sans-Serif" font-size="10.00">fwCom::HasSlots</text>
</a>
</g>
<!-- Node10&#45;&gt;Node5 -->
<g id="edge18" class="edge"><title>Node10&#45;&gt;Node5</title>
<path fill="none" stroke="midnightblue" d="M227,-236.191C227,-227.168 227,-216.994 227,-209.571"/>
<polygon fill="midnightblue" stroke="midnightblue" points="223.5,-236.362 227,-246.362 230.5,-236.362 223.5,-236.362"/>
</g>
<!-- Node11 -->
<g id="node20" class="node"><title>Node11</title>
<a xlink:href="classfwCom_1_1HasSignals.html" target="_top" xlink:title="This class proposes a mapping between a SignalKeyType and a SignalBase. ">
<polygon fill="white" stroke="black" points="292,-246.5 292,-267.5 396,-267.5 396,-246.5 292,-246.5"/>
<text text-anchor="middle" x="344" y="-254.5" font-family="Helvetica,sans-Serif" font-size="10.00">fwCom::HasSignals</text>
</a>
</g>
<!-- Node11&#45;&gt;Node5 -->
<g id="edge20" class="edge"><title>Node11&#45;&gt;Node5</title>
<path fill="none" stroke="midnightblue" d="M313.604,-241.932C293.152,-231.793 266.689,-218.675 248.426,-209.621"/>
<polygon fill="midnightblue" stroke="midnightblue" points="312.298,-245.191 322.812,-246.497 315.407,-238.919 312.298,-245.191"/>
</g>
</g>
</svg>
