<?xml version="1.0" encoding="UTF-8" standalone="no"?>
<!DOCTYPE svg PUBLIC "-//W3C//DTD SVG 1.1//EN"
 "http://www.w3.org/Graphics/SVG/1.1/DTD/svg11.dtd">
<!-- Generated by graphviz version 2.36.0 (20140111.2315)
 -->
<!-- Title: fwData::Integer Pages: 1 -->
<!--zoomable 468 -->
<svg id="main" version="1.1" xmlns="http://www.w3.org/2000/svg" xmlns:xlink="http://www.w3.org/1999/xlink" xml:space="preserve" onload="init(evt)">
<style type="text/css"><![CDATA[
.edge:hover path { stroke: red; }
.edge:hover polygon { stroke: red; fill: red; }
]]></style>
<script type="text/javascript"><![CDATA[
var edges = document.getElementsByTagName('g');
if (edges && edges.length) {
  for (var i=0;i<edges.length;i++) {
    if (edges[i].id.substr(0,4)=='edge') {
      edges[i].setAttribute('class','edge');
    }
  }
}
]]></script>
        <defs>
                <circle id="rim" cx="0" cy="0" r="7"/>
                <circle id="rim2" cx="0" cy="0" r="3.5"/>
                <g id="zoomPlus">
                        <use xlink:href="#rim" fill="#404040">
                                <set attributeName="fill" to="#808080" begin="zoomplus.mouseover" end="zoomplus.mouseout"/>
                        </use>
                        <path d="M-4,0h8M0,-4v8" fill="none" stroke="white" stroke-width="1.5" pointer-events="none"/>
                </g>
                <g id="zoomMin">
                        <use xlink:href="#rim" fill="#404040">
                                <set attributeName="fill" to="#808080" begin="zoomminus.mouseover" end="zoomminus.mouseout"/>
                        </use>
                        <path d="M-4,0h8" fill="none" stroke="white" stroke-width="1.5" pointer-events="none"/>
                </g>
                <g id="dirArrow">
                        <path fill="none" stroke="white" stroke-width="1.5" d="M0,-3.0v7 M-2.5,-0.5L0,-3.0L2.5,-0.5"/>
                </g>
               <g id="resetDef">
                       <use xlink:href="#rim2" fill="#404040">
                               <set attributeName="fill" to="#808080" begin="reset.mouseover" end="reset.mouseout"/>
                       </use>
               </g>
        </defs>

<script type="text/javascript">
var viewWidth = 412;
var viewHeight = 468;
var sectionId = 'dynsection-0';
</script>
<script xlink:href="svgpan.js"/>
<svg id="graph" class="graph">
<g id="viewport">
<title>fwData::Integer</title>
<polygon fill="white" stroke="none" points="-4,4 -4,-464 408,-464 408,4 -4,4"/>
<!-- Node1 -->
<g id="node1" class="node"><title>Node1</title>
<polygon fill="#bfbfbf" stroke="black" points="233,-0.5 233,-19.5 317,-19.5 317,-0.5 233,-0.5"/>
<text text-anchor="middle" x="275" y="-7.5" font-family="Helvetica,sans-Serif" font-size="10.00">fwData::Integer</text>
</g>
<!-- Node2 -->
<g id="node2" class="node"><title>Node2</title>
<g id="a_node2"><a xlink:href="classfwData_1_1GenericField.html" target="_top" xlink:title="fwData::GenericField\l\&lt; int \&gt;">
<polygon fill="white" stroke="black" points="220.5,-59 220.5,-89 329.5,-89 329.5,-59 220.5,-59"/>
<text text-anchor="start" x="228.5" y="-77" font-family="Helvetica,sans-Serif" font-size="10.00">fwData::GenericField</text>
<text text-anchor="middle" x="275" y="-66" font-family="Helvetica,sans-Serif" font-size="10.00">&lt; int &gt;</text>
</a>
</g>
</g>
<!-- Node2&#45;&gt;Node1 -->
<g id="edge1" class="edge"><title>Node2&#45;&gt;Node1</title>
<path fill="none" stroke="midnightblue" d="M275,-48.8706C275,-38.6625 275,-27.4077 275,-19.8419"/>
<polygon fill="midnightblue" stroke="midnightblue" points="271.5,-48.9312 275,-58.9312 278.5,-48.9313 271.5,-48.9312"/>
</g>
<!-- Node3 -->
<g id="node3" class="node"><title>Node3</title>
<g id="a_node3"><a xlink:href="classfwData_1_1GenericFieldBase.html" target="_top" xlink:title="GenericFieldBase define common operation on simple data. ">
<polygon fill="white" stroke="black" points="189.5,-196.5 189.5,-215.5 320.5,-215.5 320.5,-196.5 189.5,-196.5"/>
<text text-anchor="middle" x="255" y="-203.5" font-family="Helvetica,sans-Serif" font-size="10.00">fwData::GenericFieldBase</text>
</a>
</g>
</g>
<!-- Node3&#45;&gt;Node2 -->
<g id="edge2" class="edge"><title>Node3&#45;&gt;Node2</title>
<path fill="none" stroke="midnightblue" d="M256.484,-185.938C257.654,-172.494 259.506,-154.09 262,-138 264.6,-121.225 268.696,-102.16 271.594,-89.4389"/>
<polygon fill="midnightblue" stroke="midnightblue" points="252.964,-186.038 255.632,-196.291 259.94,-186.612 252.964,-186.038"/>
</g>
<!-- Node11 -->
<g id="node11" class="node"><title>Node11</title>
<g id="a_node11"><a xlink:href="classfwData_1_1GenericField.html" target="_top" xlink:title="Generic &quot;field&quot; object template. ">
<polygon fill="white" stroke="black" points="271.5,-138.5 271.5,-157.5 404.5,-157.5 404.5,-138.5 271.5,-138.5"/>
<text text-anchor="middle" x="338" y="-145.5" font-family="Helvetica,sans-Serif" font-size="10.00">fwData::GenericField&lt; T &gt;</text>
</a>
</g>
</g>
<!-- Node3&#45;&gt;Node11 -->
<g id="edge11" class="edge"><title>Node3&#45;&gt;Node11</title>
<path fill="none" stroke="midnightblue" d="M276.062,-190.789C291.584,-180.317 312.189,-166.415 325.275,-157.585"/>
<polygon fill="midnightblue" stroke="midnightblue" points="273.938,-188 267.606,-196.495 277.853,-193.803 273.938,-188"/>
</g>
<!-- Node4 -->
<g id="node4" class="node"><title>Node4</title>
<g id="a_node4"><a xlink:href="classfwData_1_1Object.html" target="_top" xlink:title="Base class for each data object. ">
<polygon fill="white" stroke="black" points="213.5,-254.5 213.5,-273.5 296.5,-273.5 296.5,-254.5 213.5,-254.5"/>
<text text-anchor="middle" x="255" y="-261.5" font-family="Helvetica,sans-Serif" font-size="10.00">fwData::Object</text>
</a>
</g>
</g>
<!-- Node4&#45;&gt;Node3 -->
<g id="edge3" class="edge"><title>Node4&#45;&gt;Node3</title>
<path fill="none" stroke="midnightblue" d="M255,-243.953C255,-234.287 255,-223.031 255,-215.505"/>
<polygon fill="midnightblue" stroke="midnightblue" points="251.5,-244.25 255,-254.25 258.5,-244.25 251.5,-244.25"/>
</g>
<!-- Node5 -->
<g id="node5" class="node"><title>Node5</title>
<g id="a_node5"><a xlink:href="classfwTools_1_1Object.html" target="_top" xlink:title="Define Base class for FW4SPL objects and services. ">
<polygon fill="white" stroke="black" points="128,-312.5 128,-331.5 214,-331.5 214,-312.5 128,-312.5"/>
<text text-anchor="middle" x="171" y="-319.5" font-family="Helvetica,sans-Serif" font-size="10.00">fwTools::Object</text>
</a>
</g>
</g>
<!-- Node5&#45;&gt;Node4 -->
<g id="edge4" class="edge"><title>Node5&#45;&gt;Node4</title>
<path fill="none" stroke="midnightblue" d="M192.316,-306.789C208.025,-296.317 228.878,-282.415 242.122,-273.585"/>
<polygon fill="midnightblue" stroke="midnightblue" points="190.137,-304.036 183.758,-312.495 194.02,-309.86 190.137,-304.036"/>
</g>
<!-- Node6 -->
<g id="node6" class="node"><title>Node6</title>
<g id="a_node6"><a xlink:href="classfwCore_1_1BaseObject.html" target="_top" xlink:title="Base class for all FW4SPL&#39;s classes. ">
<polygon fill="white" stroke="black" points="12.5,-370.5 12.5,-389.5 117.5,-389.5 117.5,-370.5 12.5,-370.5"/>
<text text-anchor="middle" x="65" y="-377.5" font-family="Helvetica,sans-Serif" font-size="10.00">fwCore::BaseObject</text>
</a>
</g>
</g>
<!-- Node6&#45;&gt;Node5 -->
<g id="edge5" class="edge"><title>Node6&#45;&gt;Node5</title>
<path fill="none" stroke="midnightblue" d="M89.9748,-365.806C109.99,-355.232 137.49,-340.703 154.749,-331.585"/>
<polygon fill="midnightblue" stroke="midnightblue" points="88.3061,-362.729 81.0991,-370.495 91.576,-368.918 88.3061,-362.729"/>
</g>
<!-- Node7 -->
<g id="node7" class="node"><title>Node7</title>
<polygon fill="white" stroke="#bfbfbf" points="-0.5,-429 -0.5,-459 130.5,-459 130.5,-429 -0.5,-429"/>
<text text-anchor="start" x="7.5" y="-447" font-family="Helvetica,sans-Serif" font-size="10.00">std::enable_shared</text>
<text text-anchor="middle" x="65" y="-436" font-family="Helvetica,sans-Serif" font-size="10.00">_from_this&lt; BaseObject &gt;</text>
</g>
<!-- Node7&#45;&gt;Node6 -->
<g id="edge6" class="edge"><title>Node7&#45;&gt;Node6</title>
<path fill="none" stroke="midnightblue" d="M65,-418.871C65,-408.663 65,-397.408 65,-389.842"/>
<polygon fill="midnightblue" stroke="midnightblue" points="61.5001,-418.931 65,-428.931 68.5001,-418.931 61.5001,-418.931"/>
</g>
<!-- Node8 -->
<g id="node8" class="node"><title>Node8</title>
<polygon fill="white" stroke="#bfbfbf" points="135.5,-370.5 135.5,-389.5 206.5,-389.5 206.5,-370.5 135.5,-370.5"/>
<text text-anchor="middle" x="171" y="-377.5" font-family="Helvetica,sans-Serif" font-size="10.00">noncopyable</text>
</g>
<!-- Node8&#45;&gt;Node5 -->
<g id="edge7" class="edge"><title>Node8&#45;&gt;Node5</title>
<path fill="none" stroke="midnightblue" d="M171,-359.953C171,-350.287 171,-339.031 171,-331.505"/>
<polygon fill="midnightblue" stroke="midnightblue" points="167.5,-360.25 171,-370.25 174.5,-360.25 167.5,-360.25"/>
</g>
<!-- Node9 -->
<g id="node9" class="node"><title>Node9</title>
<g id="a_node9"><a xlink:href="classfwTools_1_1fwID.html" target="_top" xlink:title="Defines ID for fwTools::Object. It is used to associate ID with object. ">
<polygon fill="white" stroke="black" points="225,-370.5 225,-389.5 303,-389.5 303,-370.5 225,-370.5"/>
<text text-anchor="middle" x="264" y="-377.5" font-family="Helvetica,sans-Serif" font-size="10.00">fwTools::fwID</text>
</a>
</g>
</g>
<!-- Node9&#45;&gt;Node5 -->
<g id="edge8" class="edge"><title>Node9&#45;&gt;Node5</title>
<path fill="none" stroke="darkgreen" d="M240.886,-365.082C223.441,-354.577 200.058,-340.497 185.258,-331.585"/>
<polygon fill="darkgreen" stroke="darkgreen" points="239.503,-368.335 249.875,-370.495 243.114,-362.338 239.503,-368.335"/>
</g>
<!-- Node10 -->
<g id="node10" class="node"><title>Node10</title>
<g id="a_node10"><a xlink:href="classfwCom_1_1HasSignals.html" target="_top" xlink:title="This class proposes a mapping between a SignalKeyType and a SignalBase. ">
<polygon fill="white" stroke="black" points="232,-312.5 232,-331.5 336,-331.5 336,-312.5 232,-312.5"/>
<text text-anchor="middle" x="284" y="-319.5" font-family="Helvetica,sans-Serif" font-size="10.00">fwCom::HasSignals</text>
</a>
</g>
</g>
<!-- Node10&#45;&gt;Node4 -->
<g id="edge9" class="edge"><title>Node10&#45;&gt;Node4</title>
<path fill="none" stroke="midnightblue" d="M274.784,-303.204C269.642,-293.273 263.471,-281.358 259.404,-273.505"/>
<polygon fill="midnightblue" stroke="midnightblue" points="271.762,-304.98 279.469,-312.25 277.978,-301.761 271.762,-304.98"/>
</g>
<!-- Node11&#45;&gt;Node2 -->
<g id="edge10" class="edge"><title>Node11&#45;&gt;Node2</title>
<path fill="none" stroke="orange" stroke-dasharray="5,2" d="M323.705,-130.663C312.786,-118.184 297.887,-101.156 287.453,-89.2316"/>
<polygon fill="orange" stroke="orange" points="321.307,-133.237 330.526,-138.458 326.575,-128.627 321.307,-133.237"/>
<text text-anchor="middle" x="329" y="-111.5" font-family="Helvetica,sans-Serif" font-size="10.00"> &lt; int &gt;</text>
</g>
</g>
</svg>
        <g id="navigator" transform="translate(0 0)" fill="#404254">
                <rect fill="#f2f5e9" fill-opacity="0.5" stroke="#606060" stroke-width=".5" x="0" y="0" width="60" height="60"/>
                <use id="zoomplus" xlink:href="#zoomPlus" x="17" y="9" onmousedown="handleZoom(evt,'in')"/>
                <use id="zoomminus" xlink:href="#zoomMin" x="42" y="9" onmousedown="handleZoom(evt,'out')"/>
                <use id="reset" xlink:href="#resetDef" x="30" y="36" onmousedown="handleReset()"/>
                <g id="arrowUp" xlink:href="#dirArrow" transform="translate(30 24)" onmousedown="handlePan(0,-1)">
                  <use xlink:href="#rim" fill="#404040">
                        <set attributeName="fill" to="#808080" begin="arrowUp.mouseover" end="arrowUp.mouseout"/>
                  </use>
                  <path fill="none" stroke="white" stroke-width="1.5" d="M0,-3.0v7 M-2.5,-0.5L0,-3.0L2.5,-0.5"/>
                </g>
                <g id="arrowRight" xlink:href="#dirArrow" transform="rotate(90) translate(36 -43)" onmousedown="handlePan(1,0)">
                  <use xlink:href="#rim" fill="#404040">
                        <set attributeName="fill" to="#808080" begin="arrowRight.mouseover" end="arrowRight.mouseout"/>
                  </use>
                  <path fill="none" stroke="white" stroke-width="1.5" d="M0,-3.0v7 M-2.5,-0.5L0,-3.0L2.5,-0.5"/>
                </g>
                <g id="arrowDown" xlink:href="#dirArrow" transform="rotate(180) translate(-30 -48)" onmousedown="handlePan(0,1)">
                  <use xlink:href="#rim" fill="#404040">
                        <set attributeName="fill" to="#808080" begin="arrowDown.mouseover" end="arrowDown.mouseout"/>
                  </use>
                  <path fill="none" stroke="white" stroke-width="1.5" d="M0,-3.0v7 M-2.5,-0.5L0,-3.0L2.5,-0.5"/>
                </g>
                <g id="arrowLeft" xlink:href="#dirArrow" transform="rotate(270) translate(-36 17)" onmousedown="handlePan(-1,0)">
                  <use xlink:href="#rim" fill="#404040">
                        <set attributeName="fill" to="#808080" begin="arrowLeft.mouseover" end="arrowLeft.mouseout"/>
                  </use>
                  <path fill="none" stroke="white" stroke-width="1.5" d="M0,-3.0v7 M-2.5,-0.5L0,-3.0L2.5,-0.5"/>
                </g>
        </g>
        <svg viewBox="0 0 15 15" width="100%" height="30px" preserveAspectRatio="xMaxYMin meet">
         <g id="arrow_out" transform="scale(0.3 0.3)">
          <a xlink:href="classfwData_1_1Integer__inherit__graph_org.svg" target="_base">
           <rect id="button" ry="5" rx="5" y="6" x="6" height="38" width="38"
                fill="#f2f5e9" fill-opacity="0.5" stroke="#606060" stroke-width="1.0"/>
           <path id="arrow"
             d="M 11.500037,31.436501 C 11.940474,20.09759 22.043105,11.32322 32.158766,21.979434 L 37.068811,17.246167 C 37.068811,17.246167 37.088388,32 37.088388,32 L 22.160133,31.978069 C 22.160133,31.978069 26.997745,27.140456 26.997745,27.140456 C 18.528582,18.264221 13.291696,25.230495 11.500037,31.436501 z"
             style="fill:#404040;"/>
          </a>
         </g>
        </svg>
</svg>
