<?xml version="1.0" encoding="UTF-8" standalone="no"?>
<!DOCTYPE svg PUBLIC "-//W3C//DTD SVG 1.1//EN"
 "http://www.w3.org/Graphics/SVG/1.1/DTD/svg11.dtd">
<!-- Generated by graphviz version 2.36.0 (20140111.2315)
 -->
<!-- Title: ioVTK::SModelSeriesObjWriter::updating Pages: 1 -->
<svg width="704pt" height="408pt"
 viewBox="0.00 0.00 704.00 408.00" xmlns="http://www.w3.org/2000/svg" xmlns:xlink="http://www.w3.org/1999/xlink">
<g id="graph0" class="graph" transform="scale(1 1) rotate(0) translate(4 404)">
<title>ioVTK::SModelSeriesObjWriter::updating</title>
<polygon fill="white" stroke="none" points="-4,4 -4,-404 700,-404 700,4 -4,4"/>
<!-- Node1 -->
<g id="node1" class="node"><title>Node1</title>
<polygon fill="#bfbfbf" stroke="black" points="0,-176 0,-206 152,-206 152,-176 0,-176"/>
<text text-anchor="start" x="8" y="-194" font-family="Helvetica,sans-Serif" font-size="10.00">ioVTK::SModelSeriesObjWriter</text>
<text text-anchor="middle" x="76" y="-183" font-family="Helvetica,sans-Serif" font-size="10.00">::updating</text>
</g>
<!-- Node2 -->
<g id="node2" class="node"><title>Node2</title>
<g id="a_node2"><a xlink:href="classfwGui_1_1dialog_1_1MessageDialog.html#a0fd1de2703432a2181724b7bdaa26cfd" target="_top" xlink:title="Add a button (OK, YES_NO, YES, NO, CANCEL) ">
<polygon fill="white" stroke="black" points="373.5,-370 373.5,-400 520.5,-400 520.5,-370 373.5,-370"/>
<text text-anchor="start" x="381.5" y="-388" font-family="Helvetica,sans-Serif" font-size="10.00">fwGui::dialog::MessageDialog</text>
<text text-anchor="middle" x="447" y="-377" font-family="Helvetica,sans-Serif" font-size="10.00">::addButton</text>
</a>
</g>
</g>
<!-- Node1&#45;&gt;Node2 -->
<g id="edge1" class="edge"><title>Node1&#45;&gt;Node2</title>
<path fill="none" stroke="midnightblue" d="M83.2681,-206.017C97.0967,-237.113 133.391,-308.442 188,-342 240.429,-374.218 309.648,-384.376 363.189,-386.801"/>
<polygon fill="midnightblue" stroke="midnightblue" points="363.214,-390.304 373.337,-387.177 363.473,-383.309 363.214,-390.304"/>
</g>
<!-- Node3 -->
<g id="node3" class="node"><title>Node3</title>
<g id="a_node3"><a xlink:href="classfwIO_1_1IWriter.html#a1d9aed16ebe0772e153175df8abbdbcd" target="_top" xlink:title="Returns folder path set by the user or set during service configuration. ">
<polygon fill="white" stroke="black" points="202.5,-137.5 202.5,-156.5 321.5,-156.5 321.5,-137.5 202.5,-137.5"/>
<text text-anchor="middle" x="262" y="-144.5" font-family="Helvetica,sans-Serif" font-size="10.00">fwIO::IWriter::getFolder</text>
</a>
</g>
</g>
<!-- Node1&#45;&gt;Node3 -->
<g id="edge2" class="edge"><title>Node1&#45;&gt;Node3</title>
<path fill="none" stroke="midnightblue" d="M139.808,-175.981C163.191,-170.389 189.38,-164.126 211.414,-158.857"/>
<polygon fill="midnightblue" stroke="midnightblue" points="212.309,-162.242 221.221,-156.512 210.681,-155.434 212.309,-162.242"/>
</g>
<!-- Node5 -->
<g id="node5" class="node"><title>Node5</title>
<g id="a_node5"><a xlink:href="classfwIO_1_1IWriter.html#ab941a614378b54582154b7369250a4f0" target="_top" xlink:title="Returns if a location has been defined ( by the configuration process or directly by user ) ...">
<polygon fill="white" stroke="black" points="196.5,-88 196.5,-118 327.5,-118 327.5,-88 196.5,-88"/>
<text text-anchor="start" x="204.5" y="-106" font-family="Helvetica,sans-Serif" font-size="10.00">fwIO::IWriter::hasLocation</text>
<text text-anchor="middle" x="262" y="-95" font-family="Helvetica,sans-Serif" font-size="10.00">Defined</text>
</a>
</g>
</g>
<!-- Node1&#45;&gt;Node5 -->
<g id="edge4" class="edge"><title>Node1&#45;&gt;Node5</title>
<path fill="none" stroke="midnightblue" d="M100.576,-175.904C122.597,-162.222 156.683,-142.102 188,-128 192.962,-125.766 198.188,-123.611 203.469,-121.566"/>
<polygon fill="midnightblue" stroke="midnightblue" points="204.843,-124.789 212.988,-118.013 202.395,-118.231 204.843,-124.789"/>
</g>
<!-- Node6 -->
<g id="node6" class="node"><title>Node6</title>
<g id="a_node6"><a xlink:href="classfwGui_1_1Cursor.html#a5ae94490f1d7142783205bd4e541ea3a" target="_top" xlink:title="Set the cursor. ">
<polygon fill="white" stroke="black" points="199,-49.5 199,-68.5 325,-68.5 325,-49.5 199,-49.5"/>
<text text-anchor="middle" x="262" y="-56.5" font-family="Helvetica,sans-Serif" font-size="10.00">fwGui::Cursor::setCursor</text>
</a>
</g>
</g>
<!-- Node1&#45;&gt;Node6 -->
<g id="edge5" class="edge"><title>Node1&#45;&gt;Node6</title>
<path fill="none" stroke="midnightblue" d="M87.7165,-175.624C105.606,-151.143 143.964,-103.476 188,-78 191.866,-75.7632 195.999,-73.7851 200.257,-72.0365"/>
<polygon fill="midnightblue" stroke="midnightblue" points="201.543,-75.2929 209.727,-68.5639 199.133,-68.7209 201.543,-75.2929"/>
</g>
<!-- Node7 -->
<g id="node7" class="node"><title>Node7</title>
<g id="a_node7"><a xlink:href="classfwGui_1_1Cursor.html#aeb413636f5020582ebb507ce61268b10" target="_top" xlink:title="Set the default cursor. ">
<polygon fill="white" stroke="black" points="198,-0 198,-30 326,-30 326,-0 198,-0"/>
<text text-anchor="start" x="206" y="-18" font-family="Helvetica,sans-Serif" font-size="10.00">fwGui::Cursor::setDefault</text>
<text text-anchor="middle" x="262" y="-7" font-family="Helvetica,sans-Serif" font-size="10.00">Cursor</text>
</a>
</g>
</g>
<!-- Node1&#45;&gt;Node7 -->
<g id="edge6" class="edge"><title>Node1&#45;&gt;Node7</title>
<path fill="none" stroke="midnightblue" d="M84.1931,-175.762C99.2258,-145.509 136.862,-77.554 188,-40 190.51,-38.1564 193.167,-36.4415 195.922,-34.8471"/>
<polygon fill="midnightblue" stroke="midnightblue" points="197.724,-37.8557 205.001,-30.1551 194.51,-31.6371 197.724,-37.8557"/>
</g>
<!-- Node8 -->
<g id="node8" class="node"><title>Node8</title>
<g id="a_node8"><a xlink:href="classfwGui_1_1dialog_1_1MessageDialog.html#a9dbf39afc43907c712116b7fc5311ec6" target="_top" xlink:title="Set the icon (CRITICAL, WARNING, INFO or QUESTION) ">
<polygon fill="white" stroke="black" points="373.5,-321 373.5,-351 520.5,-351 520.5,-321 373.5,-321"/>
<text text-anchor="start" x="381.5" y="-339" font-family="Helvetica,sans-Serif" font-size="10.00">fwGui::dialog::MessageDialog</text>
<text text-anchor="middle" x="447" y="-328" font-family="Helvetica,sans-Serif" font-size="10.00">::setIcon</text>
</a>
</g>
</g>
<!-- Node1&#45;&gt;Node8 -->
<g id="edge7" class="edge"><title>Node1&#45;&gt;Node8</title>
<path fill="none" stroke="midnightblue" d="M85.6118,-206.322C101.728,-233.324 139.266,-288.81 188,-313 242.113,-339.86 310.482,-344.863 363.242,-343.552"/>
<polygon fill="midnightblue" stroke="midnightblue" points="363.361,-347.05 373.24,-343.224 363.131,-340.054 363.361,-347.05"/>
</g>
<!-- Node9 -->
<g id="node9" class="node"><title>Node9</title>
<g id="a_node9"><a xlink:href="classfwGui_1_1dialog_1_1MessageDialog.html#a6d27474cbd9bac68c7103295d0eaa28e" target="_top" xlink:title="Set the message. ">
<polygon fill="white" stroke="black" points="188.5,-274 188.5,-304 335.5,-304 335.5,-274 188.5,-274"/>
<text text-anchor="start" x="196.5" y="-292" font-family="Helvetica,sans-Serif" font-size="10.00">fwGui::dialog::MessageDialog</text>
<text text-anchor="middle" x="262" y="-281" font-family="Helvetica,sans-Serif" font-size="10.00">::setMessage</text>
</a>
</g>
</g>
<!-- Node1&#45;&gt;Node9 -->
<g id="edge8" class="edge"><title>Node1&#45;&gt;Node9</title>
<path fill="none" stroke="midnightblue" d="M96.544,-206.056C118.034,-222.072 154.036,-247.348 188,-264 192.544,-266.228 197.338,-268.343 202.207,-270.33"/>
<polygon fill="midnightblue" stroke="midnightblue" points="201.031,-273.628 211.62,-273.988 203.567,-267.103 201.031,-273.628"/>
</g>
<!-- Node13 -->
<g id="node13" class="node"><title>Node13</title>
<g id="a_node13"><a xlink:href="classfwGui_1_1dialog_1_1MessageDialog.html#a3cf63b33285399c6249b0f7e087ba935" target="_top" xlink:title="Set the title of the message box. ">
<polygon fill="white" stroke="black" points="188.5,-225 188.5,-255 335.5,-255 335.5,-225 188.5,-225"/>
<text text-anchor="start" x="196.5" y="-243" font-family="Helvetica,sans-Serif" font-size="10.00">fwGui::dialog::MessageDialog</text>
<text text-anchor="middle" x="262" y="-232" font-family="Helvetica,sans-Serif" font-size="10.00">::setTitle</text>
</a>
</g>
</g>
<!-- Node1&#45;&gt;Node13 -->
<g id="edge14" class="edge"><title>Node1&#45;&gt;Node13</title>
<path fill="none" stroke="midnightblue" d="M133.457,-206.035C152.884,-211.208 174.811,-217.048 194.935,-222.407"/>
<polygon fill="midnightblue" stroke="midnightblue" points="194.086,-225.803 204.65,-224.994 195.888,-219.038 194.086,-225.803"/>
</g>
<!-- Node14 -->
<g id="node14" class="node"><title>Node14</title>
<g id="a_node14"><a xlink:href="classfwGui_1_1dialog_1_1MessageDialog.html#acb5a5e63ec47bb74c2c3136922a3a112" target="_top" xlink:title="Show the message box and return the clicked button. ">
<polygon fill="white" stroke="black" points="188.5,-176 188.5,-206 335.5,-206 335.5,-176 188.5,-176"/>
<text text-anchor="start" x="196.5" y="-194" font-family="Helvetica,sans-Serif" font-size="10.00">fwGui::dialog::MessageDialog</text>
<text text-anchor="middle" x="262" y="-183" font-family="Helvetica,sans-Serif" font-size="10.00">::show</text>
</a>
</g>
</g>
<!-- Node1&#45;&gt;Node14 -->
<g id="edge16" class="edge"><title>Node1&#45;&gt;Node14</title>
<path fill="none" stroke="midnightblue" d="M152.105,-191C160.676,-191 169.449,-191 178.114,-191"/>
<polygon fill="midnightblue" stroke="midnightblue" points="178.216,-194.5 188.216,-191 178.216,-187.5 178.216,-194.5"/>
</g>
<!-- Node4 -->
<g id="node4" class="node"><title>Node4</title>
<g id="a_node4"><a xlink:href="classfwIO_1_1IWriter.html#a3fe9198778ecfd870ad2cf6c657f1b40" target="_top" xlink:title="This method must be implemented by concrete service writers that use path file system to write data...">
<polygon fill="white" stroke="black" points="374.5,-125.5 374.5,-144.5 519.5,-144.5 519.5,-125.5 374.5,-125.5"/>
<text text-anchor="middle" x="447" y="-132.5" font-family="Helvetica,sans-Serif" font-size="10.00">fwIO::IWriter::getIOPathType</text>
</a>
</g>
</g>
<!-- Node3&#45;&gt;Node4 -->
<g id="edge3" class="edge"><title>Node3&#45;&gt;Node4</title>
<path fill="none" stroke="midnightblue" d="M321.657,-143.154C335.118,-142.271 349.671,-141.317 363.917,-140.383"/>
<polygon fill="midnightblue" stroke="midnightblue" points="364.466,-143.854 374.215,-139.707 364.008,-136.869 364.466,-143.854"/>
</g>
<!-- Node9&#45;&gt;Node2 -->
<g id="edge12" class="edge"><title>Node9&#45;&gt;Node2</title>
<path fill="none" stroke="midnightblue" d="M282.981,-304.23C304.176,-319.843 339.081,-344.035 372,-360 376.535,-362.2 381.314,-364.288 386.169,-366.25"/>
<polygon fill="midnightblue" stroke="midnightblue" points="384.968,-369.538 395.558,-369.865 387.483,-363.005 384.968,-369.538"/>
</g>
<!-- Node9&#45;&gt;Node8 -->
<g id="edge11" class="edge"><title>Node9&#45;&gt;Node8</title>
<path fill="none" stroke="midnightblue" d="M321.405,-304C339.316,-308.6 359.182,-313.702 377.692,-318.456"/>
<polygon fill="midnightblue" stroke="midnightblue" points="376.965,-321.883 387.522,-320.981 378.707,-315.103 376.965,-321.883"/>
</g>
<!-- Node10 -->
<g id="node10" class="node"><title>Node10</title>
<g id="a_node10"><a xlink:href="classfwServices_1_1registry_1_1ActiveWorkers.html#aae9d40e1fe222f0d14ac8284d3abf83c" target="_top" xlink:title="Get the default registered worker. ">
<polygon fill="white" stroke="black" points="378,-212.5 378,-253.5 516,-253.5 516,-212.5 378,-212.5"/>
<text text-anchor="start" x="386" y="-241.5" font-family="Helvetica,sans-Serif" font-size="10.00">fwServices::registry</text>
<text text-anchor="start" x="386" y="-230.5" font-family="Helvetica,sans-Serif" font-size="10.00">::ActiveWorkers::getDefault</text>
<text text-anchor="middle" x="447" y="-219.5" font-family="Helvetica,sans-Serif" font-size="10.00">Worker</text>
</a>
</g>
</g>
<!-- Node9&#45;&gt;Node10 -->
<g id="edge9" class="edge"><title>Node9&#45;&gt;Node10</title>
<path fill="none" stroke="midnightblue" d="M312.041,-273.993C329.611,-268.616 349.866,-262.418 369.219,-256.496"/>
<polygon fill="midnightblue" stroke="midnightblue" points="370.395,-259.796 378.933,-253.523 368.347,-253.103 370.395,-259.796"/>
</g>
<!-- Node12 -->
<g id="node12" class="node"><title>Node12</title>
<g id="a_node12"><a xlink:href="classfwGui_1_1dialog_1_1MessageDialog.html#ad415a257e60d23427dbfdd5e151af61b" target="_top" xlink:title="Set the default button. ">
<polygon fill="white" stroke="black" points="373.5,-272 373.5,-302 520.5,-302 520.5,-272 373.5,-272"/>
<text text-anchor="start" x="381.5" y="-290" font-family="Helvetica,sans-Serif" font-size="10.00">fwGui::dialog::MessageDialog</text>
<text text-anchor="middle" x="447" y="-279" font-family="Helvetica,sans-Serif" font-size="10.00">::setDefaultButton</text>
</a>
</g>
</g>
<!-- Node9&#45;&gt;Node12 -->
<g id="edge13" class="edge"><title>Node9&#45;&gt;Node12</title>
<path fill="none" stroke="midnightblue" d="M335.589,-288.207C344.75,-288.107 354.175,-288.004 363.474,-287.902"/>
<polygon fill="midnightblue" stroke="midnightblue" points="363.537,-291.402 373.499,-287.792 363.461,-284.402 363.537,-291.402"/>
</g>
<!-- Node11 -->
<g id="node11" class="node"><title>Node11</title>
<g id="a_node11"><a xlink:href="classfwServices_1_1registry_1_1ActiveWorkers.html#a96003a042657996f7297f459e927ae16" target="_top" xlink:title="Returns an instance of ActiveWorkers. ">
<polygon fill="white" stroke="black" points="558,-218 558,-248 696,-248 696,-218 558,-218"/>
<text text-anchor="start" x="566" y="-236" font-family="Helvetica,sans-Serif" font-size="10.00">fwServices::registry</text>
<text text-anchor="middle" x="627" y="-225" font-family="Helvetica,sans-Serif" font-size="10.00">::ActiveWorkers::getDefault</text>
</a>
</g>
</g>
<!-- Node10&#45;&gt;Node11 -->
<g id="edge10" class="edge"><title>Node10&#45;&gt;Node11</title>
<path fill="none" stroke="midnightblue" d="M516.056,-233C526.469,-233 537.287,-233 547.895,-233"/>
<polygon fill="midnightblue" stroke="midnightblue" points="547.982,-236.5 557.982,-233 547.982,-229.5 547.982,-236.5"/>
</g>
<!-- Node13&#45;&gt;Node10 -->
<g id="edge15" class="edge"><title>Node13&#45;&gt;Node10</title>
<path fill="none" stroke="midnightblue" d="M335.589,-237.223C346.176,-236.818 357.117,-236.4 367.809,-235.991"/>
<polygon fill="midnightblue" stroke="midnightblue" points="368.106,-239.482 377.965,-235.602 367.839,-232.487 368.106,-239.482"/>
</g>
<!-- Node14&#45;&gt;Node10 -->
<g id="edge18" class="edge"><title>Node14&#45;&gt;Node10</title>
<path fill="none" stroke="midnightblue" d="M328.55,-206.044C341.3,-208.97 354.782,-212.065 367.889,-215.073"/>
<polygon fill="midnightblue" stroke="midnightblue" points="367.291,-218.527 377.821,-217.352 368.857,-211.704 367.291,-218.527"/>
</g>
<!-- Node15 -->
<g id="node15" class="node"><title>Node15</title>
<g id="a_node15"><a xlink:href="classfwGui_1_1dialog_1_1IMessageDialog.html#a3aafce0bcfa0fa0da4b5114ff798ddd7" target="_top" xlink:title="Show the message box and return the clicked button. ">
<polygon fill="white" stroke="black" points="372,-164 372,-194 522,-194 522,-164 372,-164"/>
<text text-anchor="start" x="380" y="-182" font-family="Helvetica,sans-Serif" font-size="10.00">fwGui::dialog::IMessageDialog</text>
<text text-anchor="middle" x="447" y="-171" font-family="Helvetica,sans-Serif" font-size="10.00">::show</text>
</a>
</g>
</g>
<!-- Node14&#45;&gt;Node15 -->
<g id="edge17" class="edge"><title>Node14&#45;&gt;Node15</title>
<path fill="none" stroke="midnightblue" d="M335.589,-186.24C344.196,-185.676 353.036,-185.096 361.787,-184.522"/>
<polygon fill="midnightblue" stroke="midnightblue" points="362.25,-187.999 372,-183.852 361.792,-181.014 362.25,-187.999"/>
</g>
</g>
</svg>
