<?xml version="1.0" encoding="UTF-8" standalone="no"?>
<!DOCTYPE svg PUBLIC "-//W3C//DTD SVG 1.1//EN"
 "http://www.w3.org/Graphics/SVG/1.1/DTD/svg11.dtd">
<!-- Generated by graphviz version 2.26.3 (20100126.1600)
 -->
<!-- Title: uiMedData::editor::SOrganTransformation::starting Pages: 1 -->
<svg width="836pt" height="442pt"
 viewBox="0.00 0.00 836.00 442.00" xmlns="http://www.w3.org/2000/svg" xmlns:xlink="http://www.w3.org/1999/xlink">
<g id="graph1" class="graph" transform="scale(1 1) rotate(0) translate(4 438)">
<title>uiMedData::editor::SOrganTransformation::starting</title>
<polygon fill="white" stroke="white" points="-4,5 -4,-438 833,-438 833,5 -4,5"/>
<!-- Node1 -->
<g id="node1" class="node"><title>Node1</title>
<polygon fill="#bfbfbf" stroke="black" points="0.5,-238.5 0.5,-285.5 115.5,-285.5 115.5,-238.5 0.5,-238.5"/>
<text text-anchor="start" x="8.5" y="-272.5" font-family="Helvetica,sans-Serif" font-size="10.00">uiMedData::editor::</text>
<text text-anchor="start" x="8.5" y="-259.5" font-family="Helvetica,sans-Serif" font-size="10.00">SOrganTransformation</text>
<text text-anchor="middle" x="58" y="-246.5" font-family="Helvetica,sans-Serif" font-size="10.00">::starting</text>
</g>
<!-- Node2 -->
<g id="node3" class="node"><title>Node2</title>
<a xlink:href="classfwGui_1_1IGuiContainerSrv.html#ad196e4e9f0f17f9d49454df0cb3536f4" target="_top" xlink:title="Creates view, sub&#45;views and toolbar containers. Manages sub&#45;views and toobar services. ">
<polygon fill="white" stroke="black" points="152.5,-275 152.5,-309 275.5,-309 275.5,-275 152.5,-275"/>
<text text-anchor="start" x="160.5" y="-296" font-family="Helvetica,sans-Serif" font-size="10.00">fwGui::IGuiContainerSrv</text>
<text text-anchor="middle" x="214" y="-283" font-family="Helvetica,sans-Serif" font-size="10.00">::create</text>
</a>
</g>
<!-- Node1&#45;&gt;Node2 -->
<g id="edge2" class="edge"><title>Node1&#45;&gt;Node2</title>
<path fill="none" stroke="midnightblue" d="M115.645,-273.086C124.348,-274.759 133.414,-276.503 142.367,-278.224"/>
<polygon fill="midnightblue" stroke="midnightblue" points="141.921,-281.703 152.402,-280.154 143.243,-274.829 141.921,-281.703"/>
</g>
<!-- Node3 -->
<g id="node5" class="node"><title>Node3</title>
<a xlink:href="classuiMedData_1_1editor_1_1SOrganTransformation.html#a0fb102781c063dd7454135703bf4c1e8" target="_top" xlink:title="Perform some computations according to object (this service is attached to) attribute values and its ...">
<polygon fill="white" stroke="black" points="156.5,-209.5 156.5,-256.5 271.5,-256.5 271.5,-209.5 156.5,-209.5"/>
<text text-anchor="start" x="164.5" y="-243.5" font-family="Helvetica,sans-Serif" font-size="10.00">uiMedData::editor::</text>
<text text-anchor="start" x="164.5" y="-230.5" font-family="Helvetica,sans-Serif" font-size="10.00">SOrganTransformation</text>
<text text-anchor="middle" x="214" y="-217.5" font-family="Helvetica,sans-Serif" font-size="10.00">::updating</text>
</a>
</g>
<!-- Node1&#45;&gt;Node3 -->
<g id="edge4" class="edge"><title>Node1&#45;&gt;Node3</title>
<path fill="none" stroke="midnightblue" d="M115.645,-251.284C125.605,-249.432 136.041,-247.492 146.239,-245.597"/>
<polygon fill="midnightblue" stroke="midnightblue" points="147.139,-248.989 156.331,-243.72 145.86,-242.107 147.139,-248.989"/>
</g>
<!-- Node4 -->
<g id="node7" class="node"><title>Node4</title>
<a xlink:href="classfwTools_1_1fwID.html#a4ac18bb9c046c3fd04a4c8a80add7ae6" target="_top" xlink:title="fwTools::fwID::exist">
<polygon fill="white" stroke="black" points="335.5,-412.5 335.5,-433.5 440.5,-433.5 440.5,-412.5 335.5,-412.5"/>
<text text-anchor="middle" x="388" y="-420.5" font-family="Helvetica,sans-Serif" font-size="10.00">fwTools::fwID::exist</text>
</a>
</g>
<!-- Node3&#45;&gt;Node4 -->
<g id="edge6" class="edge"><title>Node3&#45;&gt;Node4</title>
<path fill="none" stroke="midnightblue" d="M266.632,-256.598C270.093,-259.43 273.276,-262.557 276,-266 315.061,-315.373 267.491,-358.475 312,-403 316.039,-407.041 320.79,-410.295 325.913,-412.911"/>
<polygon fill="midnightblue" stroke="midnightblue" points="324.887,-416.278 335.46,-416.964 327.623,-409.835 324.887,-416.278"/>
</g>
<!-- Node5 -->
<g id="node9" class="node"><title>Node5</title>
<a xlink:href="classfwTools_1_1fwID.html#a49c219235064892bb906498913fe8175" target="_top" xlink:title="Retrieve the object attached to the given id. Return a null sptr if no correspondence exist...">
<polygon fill="white" stroke="black" points="325,-372.5 325,-393.5 451,-393.5 451,-372.5 325,-372.5"/>
<text text-anchor="middle" x="388" y="-380.5" font-family="Helvetica,sans-Serif" font-size="10.00">fwTools::fwID::getObject</text>
</a>
</g>
<!-- Node3&#45;&gt;Node5 -->
<g id="edge8" class="edge"><title>Node3&#45;&gt;Node5</title>
<path fill="none" stroke="midnightblue" d="M265.969,-256.675C269.624,-259.5 273.03,-262.604 276,-266 306.27,-300.616 277.93,-332.117 312,-363 313.684,-364.526 315.47,-365.939 317.339,-367.245"/>
<polygon fill="midnightblue" stroke="midnightblue" points="315.598,-370.282 325.994,-372.324 319.141,-364.244 315.598,-370.282"/>
</g>
<!-- Node6 -->
<g id="node11" class="node"><title>Node6</title>
<a xlink:href="classfwDataTools_1_1helper_1_1Composite.html#a154193c5093752bec503b38219ef1da3" target="_top" xlink:title="Add an object in the composite. ">
<polygon fill="white" stroke="black" points="336,-320 336,-354 440,-354 440,-320 336,-320"/>
<text text-anchor="start" x="344" y="-341" font-family="Helvetica,sans-Serif" font-size="10.00">fwDataTools::helper</text>
<text text-anchor="middle" x="388" y="-328" font-family="Helvetica,sans-Serif" font-size="10.00">::Composite::add</text>
</a>
</g>
<!-- Node3&#45;&gt;Node6 -->
<g id="edge10" class="edge"><title>Node3&#45;&gt;Node6</title>
<path fill="none" stroke="midnightblue" d="M262.96,-256.566C267.536,-259.498 271.965,-262.652 276,-266 295.711,-282.354 291.049,-296.268 312,-311 316.492,-314.158 321.4,-316.96 326.489,-319.441"/>
<polygon fill="midnightblue" stroke="midnightblue" points="325.236,-322.714 335.797,-323.565 328.073,-316.314 325.236,-322.714"/>
</g>
<!-- Node7 -->
<g id="node13" class="node"><title>Node7</title>
<a xlink:href="classfwDataTools_1_1helper_1_1Composite.html#a8ddaeedaa099a7d492efb74eb938747e" target="_top" xlink:title="Replace an object in the composite. ">
<polygon fill="white" stroke="black" points="336,-268 336,-302 440,-302 440,-268 336,-268"/>
<text text-anchor="start" x="344" y="-289" font-family="Helvetica,sans-Serif" font-size="10.00">fwDataTools::helper</text>
<text text-anchor="middle" x="388" y="-276" font-family="Helvetica,sans-Serif" font-size="10.00">::Composite::swap</text>
</a>
</g>
<!-- Node3&#45;&gt;Node7 -->
<g id="edge12" class="edge"><title>Node3&#45;&gt;Node7</title>
<path fill="none" stroke="midnightblue" d="M271.939,-250.315C289.373,-255.525 308.565,-261.261 326.237,-266.542"/>
<polygon fill="midnightblue" stroke="midnightblue" points="325.294,-269.913 335.877,-269.423 327.298,-263.206 325.294,-269.913"/>
</g>
<!-- Node8 -->
<g id="node15" class="node"><title>Node8</title>
<a xlink:href="classfwDataTools_1_1helper_1_1Composite.html#af5a7791e48cf26e021b21c78c94a1a60" target="_top" xlink:title="Remove an object in the composite. ">
<polygon fill="white" stroke="black" points="334,-216 334,-250 442,-250 442,-216 334,-216"/>
<text text-anchor="start" x="342" y="-237" font-family="Helvetica,sans-Serif" font-size="10.00">fwDataTools::helper</text>
<text text-anchor="middle" x="388" y="-224" font-family="Helvetica,sans-Serif" font-size="10.00">::Composite::remove</text>
</a>
</g>
<!-- Node3&#45;&gt;Node8 -->
<g id="edge14" class="edge"><title>Node3&#45;&gt;Node8</title>
<path fill="none" stroke="midnightblue" d="M271.939,-233C288.477,-233 306.597,-233 323.501,-233"/>
<polygon fill="midnightblue" stroke="midnightblue" points="323.843,-236.5 333.843,-233 323.843,-229.5 323.843,-236.5"/>
</g>
<!-- Node9 -->
<g id="node17" class="node"><title>Node9</title>
<a xlink:href="classfwDataTools_1_1helper_1_1Composite.html#a97bee6deceafbd7a45f1907f9c183b2b" target="_top" xlink:title="Send the message of modification. ">
<polygon fill="white" stroke="black" points="336,-164 336,-198 440,-198 440,-164 336,-164"/>
<text text-anchor="start" x="344" y="-185" font-family="Helvetica,sans-Serif" font-size="10.00">fwDataTools::helper</text>
<text text-anchor="middle" x="388" y="-172" font-family="Helvetica,sans-Serif" font-size="10.00">::Composite::notify</text>
</a>
</g>
<!-- Node3&#45;&gt;Node9 -->
<g id="edge16" class="edge"><title>Node3&#45;&gt;Node9</title>
<path fill="none" stroke="midnightblue" d="M271.939,-215.685C289.373,-210.475 308.565,-204.739 326.237,-199.458"/>
<polygon fill="midnightblue" stroke="midnightblue" points="327.298,-202.794 335.877,-196.577 325.294,-196.087 327.298,-202.794"/>
</g>
<!-- Node10 -->
<g id="node19" class="node"><title>Node10</title>
<a xlink:href="classfwDataTools_1_1TransformationMatrix3D.html#a256871106e953e3af3d6263cb201011d" target="_top" xlink:title="Set the matrix to identity. ">
<polygon fill="white" stroke="black" points="316.5,-112 316.5,-146 459.5,-146 459.5,-112 316.5,-112"/>
<text text-anchor="start" x="324.5" y="-133" font-family="Helvetica,sans-Serif" font-size="10.00">fwDataTools::Transformation</text>
<text text-anchor="middle" x="388" y="-120" font-family="Helvetica,sans-Serif" font-size="10.00">Matrix3D::identity</text>
</a>
</g>
<!-- Node3&#45;&gt;Node10 -->
<g id="edge18" class="edge"><title>Node3&#45;&gt;Node10</title>
<path fill="none" stroke="midnightblue" d="M238.88,-209.195C257.726,-192.206 284.916,-169.829 312,-155 315.09,-153.308 318.311,-151.697 321.606,-150.167"/>
<polygon fill="midnightblue" stroke="midnightblue" points="323.264,-153.263 331.043,-146.07 320.477,-146.841 323.264,-153.263"/>
</g>
<!-- Node12 -->
<g id="node23" class="node"><title>Node12</title>
<a xlink:href="classfwData_1_1Object.html#a31ab9432e327456d6e1e4e7a231f0a28" target="_top" xlink:title="return a copy of the source. if source is a null pointer, return a null pointer. ">
<polygon fill="white" stroke="black" points="333,-72.5 333,-93.5 443,-93.5 443,-72.5 333,-72.5"/>
<text text-anchor="middle" x="388" y="-80.5" font-family="Helvetica,sans-Serif" font-size="10.00">fwData::Object::copy</text>
</a>
</g>
<!-- Node3&#45;&gt;Node12 -->
<g id="edge22" class="edge"><title>Node3&#45;&gt;Node12</title>
<path fill="none" stroke="midnightblue" d="M225.421,-209.458C240.918,-180.037 271.399,-130.248 312,-103 315.569,-100.605 319.41,-98.4966 323.402,-96.6406"/>
<polygon fill="midnightblue" stroke="midnightblue" points="324.998,-99.7695 332.936,-92.7515 322.354,-93.288 324.998,-99.7695"/>
</g>
<!-- Node13 -->
<g id="node25" class="node"><title>Node13</title>
<a xlink:href="classfwData_1_1TransformationMatrix3D.html#adc1df1c74caab46d2b7964a7e446d33d" target="_top" xlink:title="Defines shallow copy. ">
<polygon fill="white" stroke="black" points="312,-20 312,-54 464,-54 464,-20 312,-20"/>
<text text-anchor="start" x="320" y="-41" font-family="Helvetica,sans-Serif" font-size="10.00">fwData::TransformationMatrix3</text>
<text text-anchor="middle" x="388" y="-28" font-family="Helvetica,sans-Serif" font-size="10.00">D::shallowCopy</text>
</a>
</g>
<!-- Node3&#45;&gt;Node13 -->
<g id="edge24" class="edge"><title>Node3&#45;&gt;Node13</title>
<path fill="none" stroke="midnightblue" d="M221.515,-209.378C234.312,-172.849 263.737,-102.731 312,-63 313.534,-61.737 315.133,-60.5341 316.785,-59.3884"/>
<polygon fill="midnightblue" stroke="midnightblue" points="318.707,-62.3157 325.427,-54.1245 315.066,-56.3373 318.707,-62.3157"/>
</g>
<!-- Node11 -->
<g id="node21" class="node"><title>Node11</title>
<a xlink:href="classfwDataTools_1_1TransformationMatrix3D.html#a9ee61541355c4202837e69d4c26d52e9" target="_top" xlink:title="Multiply two matrices. ">
<polygon fill="white" stroke="black" points="510.5,-112 510.5,-146 653.5,-146 653.5,-112 510.5,-112"/>
<text text-anchor="start" x="518.5" y="-133" font-family="Helvetica,sans-Serif" font-size="10.00">fwDataTools::Transformation</text>
<text text-anchor="middle" x="582" y="-120" font-family="Helvetica,sans-Serif" font-size="10.00">Matrix3D::multiply</text>
</a>
</g>
<!-- Node10&#45;&gt;Node11 -->
<g id="edge20" class="edge"><title>Node10&#45;&gt;Node11</title>
<path fill="none" stroke="midnightblue" d="M459.687,-129C472.847,-129 486.675,-129 500.107,-129"/>
<polygon fill="midnightblue" stroke="midnightblue" points="500.284,-132.5 510.284,-129 500.284,-125.5 500.284,-132.5"/>
</g>
<!-- Node14 -->
<g id="node27" class="node"><title>Node14</title>
<a xlink:href="classfwData_1_1TransformationMatrix3D.html#a3759ee85cb1671a5e6975260a5c50139" target="_top" xlink:title="return object&#39;s classname given by fwCore::Demangler::getClassname() ">
<polygon fill="white" stroke="black" points="506,-40 506,-74 658,-74 658,-40 506,-40"/>
<text text-anchor="start" x="514" y="-61" font-family="Helvetica,sans-Serif" font-size="10.00">fwData::TransformationMatrix3</text>
<text text-anchor="middle" x="582" y="-48" font-family="Helvetica,sans-Serif" font-size="10.00">D::getClassname</text>
</a>
</g>
<!-- Node13&#45;&gt;Node14 -->
<g id="edge26" class="edge"><title>Node13&#45;&gt;Node14</title>
<path fill="none" stroke="midnightblue" d="M464.117,-44.8471C474.494,-45.9169 485.206,-47.0213 495.747,-48.1079"/>
<polygon fill="midnightblue" stroke="midnightblue" points="495.478,-51.5986 505.784,-49.1427 496.196,-44.6355 495.478,-51.5986"/>
</g>
<!-- Node15 -->
<g id="node29" class="node"><title>Node15</title>
<a xlink:href="classfwData_1_1Object.html#a2090bd852b5a41b67b474ac45bc18349" target="_top" xlink:title="A shallow copy of fields (objects in m_children) ">
<polygon fill="white" stroke="black" points="500,-0.5 500,-21.5 664,-21.5 664,-0.5 500,-0.5"/>
<text text-anchor="middle" x="582" y="-8.5" font-family="Helvetica,sans-Serif" font-size="10.00">fwData::Object::fieldShallowCopy</text>
</a>
</g>
<!-- Node13&#45;&gt;Node15 -->
<g id="edge28" class="edge"><title>Node13&#45;&gt;Node15</title>
<path fill="none" stroke="midnightblue" d="M464.117,-26.7987C473.729,-25.5106 483.628,-24.1839 493.412,-22.8726"/>
<polygon fill="midnightblue" stroke="midnightblue" points="494.103,-26.3114 503.549,-21.514 493.173,-19.3734 494.103,-26.3114"/>
</g>
<!-- Node16 -->
<g id="node31" class="node"><title>Node16</title>
<a xlink:href="classfwData_1_1Object.html#aee66b43149101a063cb2c0d19ac75e03" target="_top" xlink:title="Replace the field map content. ">
<polygon fill="white" stroke="black" points="700,-0.5 700,-21.5 828,-21.5 828,-0.5 700,-0.5"/>
<text text-anchor="middle" x="764" y="-8.5" font-family="Helvetica,sans-Serif" font-size="10.00">fwData::Object::setFields</text>
</a>
</g>
<!-- Node15&#45;&gt;Node16 -->
<g id="edge30" class="edge"><title>Node15&#45;&gt;Node16</title>
<path fill="none" stroke="midnightblue" d="M664.214,-11C672.72,-11 681.328,-11 689.74,-11"/>
<polygon fill="midnightblue" stroke="midnightblue" points="689.881,-14.5001 699.881,-11 689.881,-7.5001 689.881,-14.5001"/>
</g>
</g>
</svg>
