<?xml version="1.0" encoding="UTF-8" standalone="no"?>
<!DOCTYPE svg PUBLIC "-//W3C//DTD SVG 1.1//EN"
 "http://www.w3.org/Graphics/SVG/1.1/DTD/svg11.dtd">
<!-- Generated by graphviz version 2.26.3 (20100126.1600)
 -->
<!-- Title: fwServices::AppConfigManager Pages: 1 -->
<!--zoomable 354 -->
<svg id="main" version="1.1" xmlns="http://www.w3.org/2000/svg" xmlns:xlink="http://www.w3.org/1999/xlink" xml:space="preserve" onload="init(evt)">
<style type="text/css"><![CDATA[
.edge:hover path { stroke: red; }
.edge:hover polygon { stroke: red; fill: red; }
]]></style>
<script type="text/javascript"><![CDATA[
var edges = document.getElementsByTagName('g');
if (edges && edges.length) {
  for (var i=0;i<edges.length;i++) {
    if (edges[i].id.substr(0,4)=='edge') {
      edges[i].setAttribute('class','edge');
    }
  }
}
]]></script>
        <defs>
                <circle id="rim" cx="0" cy="0" r="7"/>
                <circle id="rim2" cx="0" cy="0" r="3.5"/>
                <g id="zoomPlus">
                        <use xlink:href="#rim" fill="#404040">
                                <set attributeName="fill" to="#808080" begin="zoomplus.mouseover" end="zoomplus.mouseout"/>
                        </use>
                        <path d="M-4,0h8M0,-4v8" fill="none" stroke="white" stroke-width="1.5" pointer-events="none"/>
                </g>
                <g id="zoomMin">
                        <use xlink:href="#rim" fill="#404040">
                                <set attributeName="fill" to="#808080" begin="zoomminus.mouseover" end="zoomminus.mouseout"/>
                        </use>
                        <path d="M-4,0h8" fill="none" stroke="white" stroke-width="1.5" pointer-events="none"/>
                </g>
                <g id="dirArrow">
                        <path fill="none" stroke="white" stroke-width="1.5" d="M0,-3.0v7 M-2.5,-0.5L0,-3.0L2.5,-0.5"/>
                </g>
               <g id="resetDef">
                       <use xlink:href="#rim2" fill="#404040">
                               <set attributeName="fill" to="#808080" begin="reset.mouseover" end="reset.mouseout"/>
                       </use>
               </g>
        </defs>

<script type="text/javascript">
var viewWidth = 1974;
var viewHeight = 354;
var sectionId = 'dynsection-1';
</script>
<script xlink:href="svgpan.js"/>
<svg id="graph" class="graph">
<g id="viewport">
<title>fwServices::AppConfigManager</title>
<polygon fill="white" stroke="white" points="-4,5 -4,-350 1971,-350 1971,5 -4,5"/>
<!-- Node1 -->
<g id="node1" class="node"><title>Node1</title>
<polygon fill="#bfbfbf" stroke="black" points="1810.5,-146.5 1810.5,-167.5 1965.5,-167.5 1965.5,-146.5 1810.5,-146.5"/>
<text text-anchor="middle" x="1888" y="-154.5" font-family="Helvetica,sans-Serif" font-size="10.00">fwServices::AppConfigManager</text>
</g>
<!-- Node2 -->
<g id="node2" class="node"><title>Node2</title>
<a xlink:href="classfwServices_1_1IAppConfigManager.html" target="_top" xlink:title="This class provides an interface to manage configurations template. ">
<polygon fill="white" stroke="black" points="648,-286.5 648,-307.5 806,-307.5 806,-286.5 648,-286.5"/>
<text text-anchor="middle" x="727" y="-294.5" font-family="Helvetica,sans-Serif" font-size="10.00">fwServices::IAppConfigManager</text>
</a>
</g>
<!-- Node2&#45;&gt;Node1 -->
<g id="edge2" class="edge"><title>Node2&#45;&gt;Node1</title>
<path fill="none" stroke="midnightblue" d="M816.387,-294.285C876.261,-292.696 956.851,-291 1028,-291 1028,-291 1028,-291 1608,-291 1722.25,-291 1839.29,-199.104 1876.15,-167.515"/>
<polygon fill="midnightblue" stroke="midnightblue" points="816.112,-290.791 806.21,-294.56 816.3,-297.789 816.112,-290.791"/>
</g>
<!-- Node3 -->
<g id="node4" class="node"><title>Node3</title>
<a xlink:href="classfwTools_1_1Object.html" target="_top" xlink:title="Define Base class for FW4SPL objects and services. ">
<polygon fill="white" stroke="black" points="385,-324.5 385,-345.5 471,-345.5 471,-324.5 385,-324.5"/>
<text text-anchor="middle" x="428" y="-332.5" font-family="Helvetica,sans-Serif" font-size="10.00">fwTools::Object</text>
</a>
</g>
<!-- Node3&#45;&gt;Node2 -->
<g id="edge4" class="edge"><title>Node3&#45;&gt;Node2</title>
<path fill="none" stroke="midnightblue" d="M481.029,-330.029C521.829,-326.01 579.575,-319.899 630,-313 641.837,-311.38 654.453,-309.45 666.538,-307.5"/>
<polygon fill="midnightblue" stroke="midnightblue" points="480.648,-326.549 471.036,-331.005 481.329,-333.516 480.648,-326.549"/>
</g>
<!-- Node4 -->
<g id="node6" class="node"><title>Node4</title>
<a xlink:href="classfwCore_1_1BaseObject.html" target="_top" xlink:title="Base class for all FW4SPL&#39;s classes. ">
<polygon fill="white" stroke="black" points="170.5,-267.5 170.5,-288.5 275.5,-288.5 275.5,-267.5 170.5,-267.5"/>
<text text-anchor="middle" x="223" y="-275.5" font-family="Helvetica,sans-Serif" font-size="10.00">fwCore::BaseObject</text>
</a>
</g>
<!-- Node4&#45;&gt;Node3 -->
<g id="edge6" class="edge"><title>Node4&#45;&gt;Node3</title>
<path fill="none" stroke="midnightblue" d="M270.575,-291.24C295.934,-298.296 327.664,-307.123 356,-315 366.999,-318.058 378.945,-321.376 389.885,-324.416"/>
<polygon fill="midnightblue" stroke="midnightblue" points="271.408,-287.839 260.836,-288.53 269.531,-294.583 271.408,-287.839"/>
</g>
<!-- Node15 -->
<g id="node28" class="node"><title>Node15</title>
<a xlink:href="structfwCom_1_1SlotConnectionBase.html" target="_top" xlink:title="Base class for Slot connection implementation. This class is for internal use purpose. ">
<polygon fill="white" stroke="black" points="356.5,-244.5 356.5,-265.5 499.5,-265.5 499.5,-244.5 356.5,-244.5"/>
<text text-anchor="middle" x="428" y="-252.5" font-family="Helvetica,sans-Serif" font-size="10.00">fwCom::SlotConnectionBase</text>
</a>
</g>
<!-- Node4&#45;&gt;Node15 -->
<g id="edge30" class="edge"><title>Node4&#45;&gt;Node15</title>
<path fill="none" stroke="midnightblue" d="M285.56,-270.981C307.898,-268.475 333.236,-265.632 356.285,-263.046"/>
<polygon fill="midnightblue" stroke="midnightblue" points="285.074,-267.514 275.526,-272.107 285.854,-274.47 285.074,-267.514"/>
</g>
<!-- Node5 -->
<g id="node8" class="node"><title>Node5</title>
<polygon fill="white" stroke="#bfbfbf" points="0.5,-261 0.5,-295 131.5,-295 131.5,-261 0.5,-261"/>
<text text-anchor="start" x="8.5" y="-282" font-family="Helvetica,sans-Serif" font-size="10.00">std::enable_shared</text>
<text text-anchor="middle" x="66" y="-269" font-family="Helvetica,sans-Serif" font-size="10.00">_from_this&lt; BaseObject &gt;</text>
</g>
<!-- Node5&#45;&gt;Node4 -->
<g id="edge8" class="edge"><title>Node5&#45;&gt;Node4</title>
<path fill="none" stroke="midnightblue" d="M141.751,-278C151.466,-278 161.238,-278 170.469,-278"/>
<polygon fill="midnightblue" stroke="midnightblue" points="141.672,-274.5 131.672,-278 141.672,-281.5 141.672,-274.5"/>
</g>
<!-- Node6 -->
<g id="node10" class="node"><title>Node6</title>
<a xlink:href="classfwTools_1_1fwID.html" target="_top" xlink:title="Defines ID for fwTools::Object. It is used to associate ID with object. ">
<polygon fill="white" stroke="black" points="184,-324.5 184,-345.5 262,-345.5 262,-324.5 184,-324.5"/>
<text text-anchor="middle" x="223" y="-332.5" font-family="Helvetica,sans-Serif" font-size="10.00">fwTools::fwID</text>
</a>
</g>
<!-- Node6&#45;&gt;Node3 -->
<g id="edge10" class="edge"><title>Node6&#45;&gt;Node3</title>
<path fill="none" stroke="darkgreen" d="M272.314,-335C306.636,-335 351.963,-335 384.851,-335"/>
<polygon fill="darkgreen" stroke="darkgreen" points="272.041,-331.5 262.041,-335 272.041,-338.5 272.041,-331.5"/>
</g>
<!-- Node7 -->
<g id="node12" class="node"><title>Node7</title>
<polygon fill="white" stroke="#bfbfbf" points="407.5,-284.5 407.5,-305.5 448.5,-305.5 448.5,-284.5 407.5,-284.5"/>
<text text-anchor="middle" x="428" y="-292.5" font-family="Helvetica,sans-Serif" font-size="10.00">static</text>
</g>
<!-- Node7&#45;&gt;Node2 -->
<g id="edge12" class="edge"><title>Node7&#45;&gt;Node2</title>
<path fill="none" stroke="#9a32cd" stroke-dasharray="5,2" d="M458.653,-295.205C502.834,-295.501 585.916,-296.056 647.981,-296.471"/>
<polygon fill="#9a32cd" stroke="#9a32cd" points="458.575,-291.705 448.551,-295.137 458.528,-298.704 458.575,-291.705"/>
<text text-anchor="middle" x="574" y="-300" font-family="Helvetica,sans-Serif" font-size="10.00"> s_VERSION</text>
</g>
<!-- Node8 -->
<g id="node14" class="node"><title>Node8</title>
<polygon fill="white" stroke="#bfbfbf" points="1116.5,-140 1116.5,-174 1243.5,-174 1243.5,-140 1116.5,-140"/>
<text text-anchor="start" x="1124.5" y="-161" font-family="Helvetica,sans-Serif" font-size="10.00">std::vector&lt; ::fwServices</text>
<text text-anchor="middle" x="1180" y="-148" font-family="Helvetica,sans-Serif" font-size="10.00">::IService::wptr &gt;</text>
</g>
<!-- Node8&#45;&gt;Node1 -->
<g id="edge14" class="edge"><title>Node8&#45;&gt;Node1</title>
<path fill="none" stroke="#9a32cd" stroke-dasharray="5,2" d="M1253.99,-157C1388.78,-157 1673.06,-157 1810.44,-157"/>
<polygon fill="#9a32cd" stroke="#9a32cd" points="1253.77,-153.5 1243.77,-157 1253.77,-160.5 1253.77,-153.5"/>
<text text-anchor="middle" x="1471" y="-174" font-family="Helvetica,sans-Serif" font-size="10.00"> m_startedSrv</text>
<text text-anchor="middle" x="1471" y="-161" font-family="Helvetica,sans-Serif" font-size="10.00">m_createdSrv</text>
</g>
<!-- Node9 -->
<g id="node16" class="node"><title>Node9</title>
<a xlink:title="STL class. ">
<polygon fill="white" stroke="#bfbfbf" points="683.5,-114.5 683.5,-135.5 770.5,-135.5 770.5,-114.5 683.5,-114.5"/>
<text text-anchor="middle" x="727" y="-122.5" font-family="Helvetica,sans-Serif" font-size="10.00">std::vector&lt; T &gt;</text>
</a>
</g>
<!-- Node9&#45;&gt;Node8 -->
<g id="edge16" class="edge"><title>Node9&#45;&gt;Node8</title>
<path fill="none" stroke="orange" stroke-dasharray="5,2" d="M780.921,-129.591C794.944,-130.746 810.034,-131.953 824,-133 926.234,-140.661 1045.07,-148.448 1116.31,-152.995"/>
<polygon fill="orange" stroke="orange" points="781.185,-126.101 770.93,-128.763 780.607,-133.077 781.185,-126.101"/>
<text text-anchor="start" x="827.5" y="-159" font-family="Helvetica,sans-Serif" font-size="10.00"> &lt; ::fwServices::IService</text>
<text text-anchor="middle" x="882" y="-146" font-family="Helvetica,sans-Serif" font-size="10.00">::wptr &gt;</text>
</g>
<!-- Node20 -->
<g id="node41" class="node"><title>Node20</title>
<polygon fill="white" stroke="#bfbfbf" points="1527.5,-107.5 1527.5,-128.5 1688.5,-128.5 1688.5,-107.5 1527.5,-107.5"/>
<text text-anchor="middle" x="1608" y="-115.5" font-family="Helvetica,sans-Serif" font-size="10.00">std::vector&lt; ProxyConnections &gt;</text>
</g>
<!-- Node9&#45;&gt;Node20 -->
<g id="edge54" class="edge"><title>Node9&#45;&gt;Node20</title>
<path fill="none" stroke="orange" stroke-dasharray="5,2" d="M780.903,-123.724C855.992,-122.016 996.336,-119.077 1116,-118 1260.99,-116.696 1430.02,-117.121 1527.46,-117.556"/>
<polygon fill="orange" stroke="orange" points="780.667,-120.228 770.75,-123.956 780.827,-127.226 780.667,-120.228"/>
<text text-anchor="middle" x="1180" y="-122" font-family="Helvetica,sans-Serif" font-size="10.00"> &lt; ProxyConnections &gt;</text>
</g>
<!-- Node22 -->
<g id="node45" class="node"><title>Node22</title>
<polygon fill="white" stroke="#bfbfbf" points="958,-64.5 958,-85.5 1098,-85.5 1098,-64.5 958,-64.5"/>
<text text-anchor="middle" x="1028" y="-72.5" font-family="Helvetica,sans-Serif" font-size="10.00">std::vector&lt; ProxyEltType &gt;</text>
</g>
<!-- Node9&#45;&gt;Node22 -->
<g id="edge50" class="edge"><title>Node9&#45;&gt;Node22</title>
<path fill="none" stroke="orange" stroke-dasharray="5,2" d="M761.799,-110.849C780.026,-104.032 802.892,-96.4005 824,-92 868.011,-82.8247 918.339,-78.5662 957.994,-76.6057"/>
<polygon fill="orange" stroke="orange" points="760.548,-107.58 752.458,-114.422 763.049,-114.118 760.548,-107.58"/>
<text text-anchor="middle" x="882" y="-96" font-family="Helvetica,sans-Serif" font-size="10.00"> &lt; ProxyEltType &gt;</text>
</g>
<!-- Node10 -->
<g id="node18" class="node"><title>Node10</title>
<polygon fill="white" stroke="#bfbfbf" points="208.5,-165.5 208.5,-186.5 237.5,-186.5 237.5,-165.5 208.5,-165.5"/>
<text text-anchor="middle" x="223" y="-173.5" font-family="Helvetica,sans-Serif" font-size="10.00">T</text>
</g>
<!-- Node10&#45;&gt;Node9 -->
<g id="edge18" class="edge"><title>Node10&#45;&gt;Node9</title>
<path fill="none" stroke="#9a32cd" stroke-dasharray="5,2" d="M247.727,-172.309C274.402,-168.407 318.146,-162.243 356,-158 474.081,-144.765 613.79,-133.528 683.244,-128.239"/>
<polygon fill="#9a32cd" stroke="#9a32cd" points="247.116,-168.861 237.734,-173.781 248.137,-175.786 247.116,-168.861"/>
<text text-anchor="middle" x="428" y="-162" font-family="Helvetica,sans-Serif" font-size="10.00"> elements</text>
</g>
<!-- Node16 -->
<g id="node31" class="node"><title>Node16</title>
<a xlink:title="STL class. ">
<polygon fill="white" stroke="#bfbfbf" points="378,-204.5 378,-225.5 478,-225.5 478,-204.5 378,-204.5"/>
<text text-anchor="middle" x="428" y="-212.5" font-family="Helvetica,sans-Serif" font-size="10.00">std::weak_ptr&lt; T &gt;</text>
</a>
</g>
<!-- Node10&#45;&gt;Node16 -->
<g id="edge34" class="edge"><title>Node10&#45;&gt;Node16</title>
<path fill="none" stroke="#9a32cd" stroke-dasharray="5,2" d="M247.685,-181.892C261.307,-185.061 278.548,-188.935 294,-192 321.668,-197.488 352.704,-202.864 377.934,-207.037"/>
<polygon fill="#9a32cd" stroke="#9a32cd" points="248.174,-178.412 237.639,-179.531 246.573,-185.226 248.174,-178.412"/>
<text text-anchor="middle" x="316" y="-204" font-family="Helvetica,sans-Serif" font-size="10.00"> ptr</text>
</g>
<!-- Node17 -->
<g id="node34" class="node"><title>Node17</title>
<a xlink:title="STL class. ">
<polygon fill="white" stroke="#bfbfbf" points="537.5,-167.5 537.5,-188.5 610.5,-188.5 610.5,-167.5 537.5,-167.5"/>
<text text-anchor="middle" x="574" y="-175.5" font-family="Helvetica,sans-Serif" font-size="10.00">std::list&lt; T &gt;</text>
</a>
</g>
<!-- Node10&#45;&gt;Node17 -->
<g id="edge38" class="edge"><title>Node10&#45;&gt;Node17</title>
<path fill="none" stroke="#9a32cd" stroke-dasharray="5,2" d="M247.751,-175.566C261.393,-175.348 278.631,-175.108 294,-175 381.26,-174.386 483.811,-176.108 537.309,-177.192"/>
<polygon fill="#9a32cd" stroke="#9a32cd" points="247.626,-172.067 237.685,-175.733 247.742,-179.066 247.626,-172.067"/>
<text text-anchor="middle" x="316" y="-179" font-family="Helvetica,sans-Serif" font-size="10.00"> elements</text>
</g>
<!-- Node11 -->
<g id="node20" class="node"><title>Node11</title>
<a xlink:href="classfwCom_1_1helper_1_1SigSlotConnection.html" target="_top" xlink:title="This class provides few tools to ease connect/disconnect between a signal emitter and a slot receiver...">
<polygon fill="white" stroke="black" points="1524.5,-190.5 1524.5,-211.5 1691.5,-211.5 1691.5,-190.5 1524.5,-190.5"/>
<text text-anchor="middle" x="1608" y="-198.5" font-family="Helvetica,sans-Serif" font-size="10.00">fwCom::helper::SigSlotConnection</text>
</a>
</g>
<!-- Node11&#45;&gt;Node1 -->
<g id="edge20" class="edge"><title>Node11&#45;&gt;Node1</title>
<path fill="none" stroke="#9a32cd" stroke-dasharray="5,2" d="M1685.11,-188.882C1727.71,-182.188 1780.12,-173.953 1821,-167.529"/>
<polygon fill="#9a32cd" stroke="#9a32cd" points="1684.4,-185.451 1675.07,-190.461 1685.49,-192.366 1684.4,-185.451"/>
<text text-anchor="middle" x="1751" y="-189" font-family="Helvetica,sans-Serif" font-size="10.00"> m_connections</text>
</g>
<!-- Node12 -->
<g id="node22" class="node"><title>Node12</title>
<polygon fill="white" stroke="#bfbfbf" points="1292.5,-189 1292.5,-223 1387.5,-223 1387.5,-189 1292.5,-189"/>
<text text-anchor="start" x="1300.5" y="-210" font-family="Helvetica,sans-Serif" font-size="10.00">std::list&lt; ::fwCom</text>
<text text-anchor="middle" x="1340" y="-197" font-family="Helvetica,sans-Serif" font-size="10.00">::Connection &gt;</text>
</g>
<!-- Node12&#45;&gt;Node11 -->
<g id="edge22" class="edge"><title>Node12&#45;&gt;Node11</title>
<path fill="none" stroke="#9a32cd" stroke-dasharray="5,2" d="M1397.7,-204.924C1434.62,-204.235 1483.14,-203.329 1524.28,-202.562"/>
<polygon fill="#9a32cd" stroke="#9a32cd" points="1397.54,-201.426 1387.6,-205.112 1397.67,-208.425 1397.54,-201.426"/>
<text text-anchor="middle" x="1471" y="-208" font-family="Helvetica,sans-Serif" font-size="10.00"> m_connections</text>
</g>
<!-- Node13 -->
<g id="node24" class="node"><title>Node13</title>
<a xlink:href="structfwCom_1_1Connection.html" target="_top" xlink:title="Class managing Signal&#45;Slot connections. ">
<polygon fill="white" stroke="black" points="976,-235.5 976,-256.5 1080,-256.5 1080,-235.5 976,-235.5"/>
<text text-anchor="middle" x="1028" y="-243.5" font-family="Helvetica,sans-Serif" font-size="10.00">fwCom::Connection</text>
</a>
</g>
<!-- Node13&#45;&gt;Node12 -->
<g id="edge24" class="edge"><title>Node13&#45;&gt;Node12</title>
<path fill="none" stroke="#9a32cd" stroke-dasharray="5,2" d="M1090.49,-238.897C1133.65,-233.888 1192.35,-226.873 1244,-220 1259.69,-217.911 1276.81,-215.469 1292.18,-213.214"/>
<polygon fill="#9a32cd" stroke="#9a32cd" points="1089.95,-235.435 1080.42,-240.061 1090.76,-242.389 1089.95,-235.435"/>
<text text-anchor="middle" x="1180" y="-239" font-family="Helvetica,sans-Serif" font-size="10.00"> elements</text>
</g>
<!-- Node14 -->
<g id="node26" class="node"><title>Node14</title>
<polygon fill="white" stroke="#bfbfbf" points="651,-234 651,-268 803,-268 803,-234 651,-234"/>
<text text-anchor="start" x="659" y="-255" font-family="Helvetica,sans-Serif" font-size="10.00">std::weak_ptr&lt; SlotConnection</text>
<text text-anchor="middle" x="727" y="-242" font-family="Helvetica,sans-Serif" font-size="10.00">Base &gt;</text>
</g>
<!-- Node14&#45;&gt;Node13 -->
<g id="edge26" class="edge"><title>Node14&#45;&gt;Node13</title>
<path fill="none" stroke="#9a32cd" stroke-dasharray="5,2" d="M813.657,-249.561C866.116,-248.689 931.279,-247.607 975.899,-246.865"/>
<polygon fill="#9a32cd" stroke="#9a32cd" points="813.285,-246.066 803.344,-249.732 813.401,-253.065 813.285,-246.066"/>
<text text-anchor="middle" x="882" y="-253" font-family="Helvetica,sans-Serif" font-size="10.00"> m_connectionBase</text>
</g>
<!-- Node15&#45;&gt;Node14 -->
<g id="edge28" class="edge"><title>Node15&#45;&gt;Node14</title>
<path fill="none" stroke="#9a32cd" stroke-dasharray="5,2" d="M509.707,-253.907C553.694,-253.318 607.616,-252.597 650.74,-252.02"/>
<polygon fill="#9a32cd" stroke="#9a32cd" points="509.57,-250.408 499.618,-254.042 509.664,-257.408 509.57,-250.408"/>
<text text-anchor="middle" x="574" y="-257" font-family="Helvetica,sans-Serif" font-size="10.00"> ptr</text>
</g>
<!-- Node16&#45;&gt;Node14 -->
<g id="edge32" class="edge"><title>Node16&#45;&gt;Node14</title>
<path fill="none" stroke="orange" stroke-dasharray="5,2" d="M488.498,-219.959C528.691,-223.507 582.592,-228.75 630,-235 636.769,-235.892 643.79,-236.896 650.82,-237.956"/>
<polygon fill="orange" stroke="orange" points="488.593,-216.454 478.327,-219.071 487.985,-223.427 488.593,-216.454"/>
<text text-anchor="middle" x="574" y="-239" font-family="Helvetica,sans-Serif" font-size="10.00"> &lt; SlotConnectionBase &gt;</text>
</g>
<!-- Node17&#45;&gt;Node12 -->
<g id="edge36" class="edge"><title>Node17&#45;&gt;Node12</title>
<path fill="none" stroke="orange" stroke-dasharray="5,2" d="M620.83,-179.712C757.513,-184.708 1154.92,-199.235 1292.48,-204.263"/>
<polygon fill="orange" stroke="orange" points="620.809,-176.209 610.688,-179.341 620.553,-183.204 620.809,-176.209"/>
<text text-anchor="middle" x="882" y="-196" font-family="Helvetica,sans-Serif" font-size="10.00"> &lt; ::fwCom::Connection &gt;</text>
</g>
<!-- Node18 -->
<g id="node37" class="node"><title>Node18</title>
<a xlink:title="STL class. ">
<polygon fill="white" stroke="#bfbfbf" points="998,-6.5 998,-27.5 1058,-27.5 1058,-6.5 998,-6.5"/>
<text text-anchor="middle" x="1028" y="-14.5" font-family="Helvetica,sans-Serif" font-size="10.00">std::string</text>
</a>
</g>
<!-- Node18&#45;&gt;Node1 -->
<g id="edge40" class="edge"><title>Node18&#45;&gt;Node1</title>
<path fill="none" stroke="#9a32cd" stroke-dasharray="5,2" d="M1068.22,-18.8671C1111.61,-20.9675 1182.74,-24.6588 1244,-29 1490.06,-46.4369 1555.89,-45.5701 1792,-117 1818.27,-124.947 1847.19,-137.559 1866.35,-146.494"/>
<polygon fill="#9a32cd" stroke="#9a32cd" points="1068.23,-15.3636 1058.07,-18.3805 1067.89,-22.3555 1068.23,-15.3636"/>
<text text-anchor="middle" x="1471" y="-55" font-family="Helvetica,sans-Serif" font-size="10.00"> m_configId</text>
</g>
<!-- Node21 -->
<g id="node43" class="node"><title>Node21</title>
<a xlink:href="structfwServices_1_1AppConfigManager_1_1ProxyConnections.html" target="_top" xlink:title="fwServices::AppConfigManager\l::ProxyConnections">
<polygon fill="white" stroke="black" points="1262.5,-53 1262.5,-87 1417.5,-87 1417.5,-53 1262.5,-53"/>
<text text-anchor="start" x="1270.5" y="-74" font-family="Helvetica,sans-Serif" font-size="10.00">fwServices::AppConfigManager</text>
<text text-anchor="middle" x="1340" y="-61" font-family="Helvetica,sans-Serif" font-size="10.00">::ProxyConnections</text>
</a>
</g>
<!-- Node18&#45;&gt;Node21 -->
<g id="edge52" class="edge"><title>Node18&#45;&gt;Node21</title>
<path fill="none" stroke="#9a32cd" stroke-dasharray="5,2" d="M1067.94,-23.5324C1111.31,-30.6546 1182.6,-42.4478 1244,-53 1250.01,-54.0321 1256.22,-55.1102 1262.47,-56.2008"/>
<polygon fill="#9a32cd" stroke="#9a32cd" points="1068.5,-20.078 1058.07,-21.9126 1067.37,-26.9856 1068.5,-20.078"/>
<text text-anchor="middle" x="1180" y="-57" font-family="Helvetica,sans-Serif" font-size="10.00"> m_channel</text>
</g>
<!-- Node19 -->
<g id="node39" class="node"><title>Node19</title>
<a xlink:title="STL class. ">
<polygon fill="white" stroke="#bfbfbf" points="679.5,-0 679.5,-34 774.5,-34 774.5,-0 679.5,-0"/>
<text text-anchor="start" x="687.5" y="-21" font-family="Helvetica,sans-Serif" font-size="10.00">std::basic_string&lt;</text>
<text text-anchor="middle" x="727" y="-8" font-family="Helvetica,sans-Serif" font-size="10.00"> char &gt;</text>
</a>
</g>
<!-- Node19&#45;&gt;Node18 -->
<g id="edge42" class="edge"><title>Node19&#45;&gt;Node18</title>
<path fill="none" stroke="midnightblue" d="M784.973,-17C848.612,-17 948.32,-17 997.906,-17"/>
<polygon fill="midnightblue" stroke="midnightblue" points="784.694,-13.5001 774.694,-17 784.694,-20.5001 784.694,-13.5001"/>
</g>
<!-- Node20&#45;&gt;Node1 -->
<g id="edge44" class="edge"><title>Node20&#45;&gt;Node1</title>
<path fill="none" stroke="#9a32cd" stroke-dasharray="5,2" d="M1698.58,-120.14C1728.48,-121.846 1761.81,-124.829 1792,-130 1814.01,-133.771 1838.22,-140.597 1856.82,-146.442"/>
<polygon fill="#9a32cd" stroke="#9a32cd" points="1698.75,-116.644 1688.58,-119.608 1698.38,-123.634 1698.75,-116.644"/>
<text text-anchor="middle" x="1751" y="-134" font-family="Helvetica,sans-Serif" font-size="10.00"> m_vectProxyCtns</text>
</g>
<!-- Node21&#45;&gt;Node20 -->
<g id="edge46" class="edge"><title>Node21&#45;&gt;Node20</title>
<path fill="none" stroke="#9a32cd" stroke-dasharray="5,2" d="M1427.56,-79.6427C1452.96,-82.9692 1480.67,-87.1117 1506,-92 1527.71,-96.1907 1551.69,-102.228 1570.93,-107.431"/>
<polygon fill="#9a32cd" stroke="#9a32cd" points="1427.95,-76.1632 1417.58,-78.3613 1427.06,-83.1062 1427.95,-76.1632"/>
<text text-anchor="middle" x="1471" y="-96" font-family="Helvetica,sans-Serif" font-size="10.00"> elements</text>
</g>
<!-- Node22&#45;&gt;Node21 -->
<g id="edge48" class="edge"><title>Node22&#45;&gt;Node21</title>
<path fill="none" stroke="#9a32cd" stroke-dasharray="5,2" d="M1108.27,-71.2148C1110.88,-71.1355 1113.46,-71.0634 1116,-71 1164.69,-69.7851 1219.36,-69.5197 1262.5,-69.5654"/>
<polygon fill="#9a32cd" stroke="#9a32cd" points="1108,-67.7217 1098.12,-71.5536 1108.23,-74.7178 1108,-67.7217"/>
<text text-anchor="middle" x="1180" y="-88" font-family="Helvetica,sans-Serif" font-size="10.00"> m_slots</text>
<text text-anchor="middle" x="1180" y="-75" font-family="Helvetica,sans-Serif" font-size="10.00">m_signals</text>
</g>
</g>
</svg>
        <g id="navigator" transform="translate(0 0)" fill="#404254">
                <rect fill="#f2f5e9" fill-opacity="0.5" stroke="#606060" stroke-width=".5" x="0" y="0" width="60" height="60"/>
                <use id="zoomplus" xlink:href="#zoomPlus" x="17" y="9" onmousedown="handleZoom(evt,'in')"/>
                <use id="zoomminus" xlink:href="#zoomMin" x="42" y="9" onmousedown="handleZoom(evt,'out')"/>
                <use id="reset" xlink:href="#resetDef" x="30" y="36" onmousedown="handleReset()"/>
                <g id="arrowUp" xlink:href="#dirArrow" transform="translate(30 24)" onmousedown="handlePan(0,-1)">
                  <use xlink:href="#rim" fill="#404040">
                        <set attributeName="fill" to="#808080" begin="arrowUp.mouseover" end="arrowUp.mouseout"/>
                  </use>
                  <path fill="none" stroke="white" stroke-width="1.5" d="M0,-3.0v7 M-2.5,-0.5L0,-3.0L2.5,-0.5"/>
                </g>
                <g id="arrowRight" xlink:href="#dirArrow" transform="rotate(90) translate(36 -43)" onmousedown="handlePan(1,0)">
                  <use xlink:href="#rim" fill="#404040">
                        <set attributeName="fill" to="#808080" begin="arrowRight.mouseover" end="arrowRight.mouseout"/>
                  </use>
                  <path fill="none" stroke="white" stroke-width="1.5" d="M0,-3.0v7 M-2.5,-0.5L0,-3.0L2.5,-0.5"/>
                </g>
                <g id="arrowDown" xlink:href="#dirArrow" transform="rotate(180) translate(-30 -48)" onmousedown="handlePan(0,1)">
                  <use xlink:href="#rim" fill="#404040">
                        <set attributeName="fill" to="#808080" begin="arrowDown.mouseover" end="arrowDown.mouseout"/>
                  </use>
                  <path fill="none" stroke="white" stroke-width="1.5" d="M0,-3.0v7 M-2.5,-0.5L0,-3.0L2.5,-0.5"/>
                </g>
                <g id="arrowLeft" xlink:href="#dirArrow" transform="rotate(270) translate(-36 17)" onmousedown="handlePan(-1,0)">
                  <use xlink:href="#rim" fill="#404040">
                        <set attributeName="fill" to="#808080" begin="arrowLeft.mouseover" end="arrowLeft.mouseout"/>
                  </use>
                  <path fill="none" stroke="white" stroke-width="1.5" d="M0,-3.0v7 M-2.5,-0.5L0,-3.0L2.5,-0.5"/>
                </g>
        </g>
        <svg viewBox="0 0 15 15" width="100%" height="30px" preserveAspectRatio="xMaxYMin meet">
         <g id="arrow_out" transform="scale(0.3 0.3)">
          <a xlink:href="classfwServices_1_1AppConfigManager__coll__graph_org.svg" target="_base">
           <rect id="button" ry="5" rx="5" y="6" x="6" height="38" width="38"
                fill="#f2f5e9" fill-opacity="0.5" stroke="#606060" stroke-width="1.0"/>
           <path id="arrow"
             d="M 11.500037,31.436501 C 11.940474,20.09759 22.043105,11.32322 32.158766,21.979434 L 37.068811,17.246167 C 37.068811,17.246167 37.088388,32 37.088388,32 L 22.160133,31.978069 C 22.160133,31.978069 26.997745,27.140456 26.997745,27.140456 C 18.528582,18.264221 13.291696,25.230495 11.500037,31.436501 z"
             style="fill:#404040;"/>
          </a>
         </g>
        </svg>
</svg>
