<?xml version="1.0" encoding="UTF-8" standalone="no"?>
<!DOCTYPE svg PUBLIC "-//W3C//DTD SVG 1.1//EN"
 "http://www.w3.org/Graphics/SVG/1.1/DTD/svg11.dtd">
<!-- Generated by graphviz version 2.26.3 (20100126.1600)
 -->
<!-- Title: fwGdcmIO::container::sr::DicomSRNumNode::writeMeasuredValueSequence Pages: 1 -->
<svg width="324pt" height="56pt"
 viewBox="0.00 0.00 324.00 56.00" xmlns="http://www.w3.org/2000/svg" xmlns:xlink="http://www.w3.org/1999/xlink">
<g id="graph1" class="graph" transform="scale(1 1) rotate(0) translate(4 52)">
<title>fwGdcmIO::container::sr::DicomSRNumNode::writeMeasuredValueSequence</title>
<polygon fill="white" stroke="white" points="-4,5 -4,-52 321,-52 321,5 -4,5"/>
<!-- Node1 -->
<g id="node1" class="node"><title>Node1</title>
<polygon fill="#bfbfbf" stroke="black" points="0.5,-0.5 0.5,-47.5 155.5,-47.5 155.5,-0.5 0.5,-0.5"/>
<text text-anchor="start" x="8.5" y="-34.5" font-family="Helvetica,sans-Serif" font-size="10.00">fwGdcmIO::container</text>
<text text-anchor="start" x="8.5" y="-21.5" font-family="Helvetica,sans-Serif" font-size="10.00">::sr::DicomSRNumNode</text>
<text text-anchor="middle" x="78" y="-8.5" font-family="Helvetica,sans-Serif" font-size="10.00">::writeMeasuredValueSequence</text>
</g>
<!-- Node2 -->
<g id="node3" class="node"><title>Node2</title>
<a xlink:href="classfwGdcmIO_1_1container_1_1sr_1_1DicomSRNumNode.html#a9b8b27ebf4db380c5a0a5b503c9abc9d" target="_top" xlink:title="Write the SR node in the dataset. ">
<polygon fill="white" stroke="black" points="192,-0.5 192,-47.5 316,-47.5 316,-0.5 192,-0.5"/>
<text text-anchor="start" x="200" y="-34.5" font-family="Helvetica,sans-Serif" font-size="10.00">fwGdcmIO::container</text>
<text text-anchor="start" x="200" y="-21.5" font-family="Helvetica,sans-Serif" font-size="10.00">::sr::DicomSRNumNode</text>
<text text-anchor="middle" x="254" y="-8.5" font-family="Helvetica,sans-Serif" font-size="10.00">::write</text>
</a>
</g>
<!-- Node1&#45;&gt;Node2 -->
<g id="edge2" class="edge"><title>Node1&#45;&gt;Node2</title>
<path fill="none" stroke="midnightblue" d="M165.928,-24C174.652,-24 183.377,-24 191.759,-24"/>
<polygon fill="midnightblue" stroke="midnightblue" points="165.709,-20.5001 155.708,-24 165.708,-27.5001 165.709,-20.5001"/>
</g>
</g>
</svg>
