<?xml version="1.0" encoding="UTF-8" standalone="no"?>
<!DOCTYPE svg PUBLIC "-//W3C//DTD SVG 1.1//EN"
 "http://www.w3.org/Graphics/SVG/1.1/DTD/svg11.dtd">
<!-- Generated by graphviz version 2.26.3 (20100126.1600)
 -->
<!-- Title: fwDataTools::helper::Composite::clear Pages: 1 -->
<svg width="290pt" height="94pt"
 viewBox="0.00 0.00 290.00 94.00" xmlns="http://www.w3.org/2000/svg" xmlns:xlink="http://www.w3.org/1999/xlink">
<g id="graph1" class="graph" transform="scale(1 1) rotate(0) translate(4 90)">
<title>fwDataTools::helper::Composite::clear</title>
<polygon fill="white" stroke="white" points="-4,5 -4,-90 287,-90 287,5 -4,5"/>
<!-- Node1 -->
<g id="node1" class="node"><title>Node1</title>
<polygon fill="#bfbfbf" stroke="black" points="0,-26 0,-60 104,-60 104,-26 0,-26"/>
<text text-anchor="start" x="8" y="-47" font-family="Helvetica,sans-Serif" font-size="10.00">fwDataTools::helper</text>
<text text-anchor="middle" x="52" y="-34" font-family="Helvetica,sans-Serif" font-size="10.00">::Composite::clear</text>
</g>
<!-- Node2 -->
<g id="node3" class="node"><title>Node2</title>
<a xlink:href="classuiTF_1_1TransferFunctionEditor.html#a006c626999f31c5401f66a4984c23e55" target="_top" xlink:title="Stop the TransferFunctionEditor, disconnect Buttons and Combo Box, delete them and clean the containe...">
<polygon fill="white" stroke="black" points="140.5,-52 140.5,-86 281.5,-86 281.5,-52 140.5,-52"/>
<text text-anchor="start" x="148.5" y="-73" font-family="Helvetica,sans-Serif" font-size="10.00">uiTF::TransferFunctionEditor</text>
<text text-anchor="middle" x="211" y="-60" font-family="Helvetica,sans-Serif" font-size="10.00">::stopping</text>
</a>
</g>
<!-- Node1&#45;&gt;Node2 -->
<g id="edge2" class="edge"><title>Node1&#45;&gt;Node2</title>
<path fill="none" stroke="midnightblue" d="M114.029,-53.143C122.653,-54.5533 131.566,-56.0108 140.334,-57.4446"/>
<polygon fill="midnightblue" stroke="midnightblue" points="114.496,-49.6731 104.063,-51.5134 113.367,-56.5814 114.496,-49.6731"/>
</g>
<!-- Node3 -->
<g id="node5" class="node"><title>Node3</title>
<a xlink:href="classctrlSelection_1_1updater_1_1SDrop.html#adbc78740644bacf4db708dd301332c3b" target="_top" xlink:title="Destructor. Do nothing. ">
<polygon fill="white" stroke="black" points="156.5,-0 156.5,-34 265.5,-34 265.5,-0 156.5,-0"/>
<text text-anchor="start" x="164.5" y="-21" font-family="Helvetica,sans-Serif" font-size="10.00">ctrlSelection::updater</text>
<text text-anchor="middle" x="211" y="-8" font-family="Helvetica,sans-Serif" font-size="10.00">::SDrop::~SDrop</text>
</a>
</g>
<!-- Node1&#45;&gt;Node3 -->
<g id="edge4" class="edge"><title>Node1&#45;&gt;Node3</title>
<path fill="none" stroke="midnightblue" d="M114.066,-32.8509C128.023,-30.5686 142.734,-28.163 156.361,-25.9346"/>
<polygon fill="midnightblue" stroke="midnightblue" points="113.367,-29.4186 104.063,-34.4866 114.496,-36.3269 113.367,-29.4186"/>
</g>
</g>
</svg>
