<?xml version="1.0" encoding="UTF-8" standalone="no"?>
<!DOCTYPE svg PUBLIC "-//W3C//DTD SVG 1.1//EN"
 "http://www.w3.org/Graphics/SVG/1.1/DTD/svg11.dtd">
<!-- Generated by graphviz version 2.26.3 (20100126.1600)
 -->
<!-- Title: ioVTK::SMeshWriter::updating Pages: 1 -->
<!--zoomable 252 -->
<svg id="main" version="1.1" xmlns="http://www.w3.org/2000/svg" xmlns:xlink="http://www.w3.org/1999/xlink" xml:space="preserve" onload="init(evt)">
<style type="text/css"><![CDATA[
.edge:hover path { stroke: red; }
.edge:hover polygon { stroke: red; fill: red; }
]]></style>
<script type="text/javascript"><![CDATA[
var edges = document.getElementsByTagName('g');
if (edges && edges.length) {
  for (var i=0;i<edges.length;i++) {
    if (edges[i].id.substr(0,4)=='edge') {
      edges[i].setAttribute('class','edge');
    }
  }
}
]]></script>
        <defs>
                <circle id="rim" cx="0" cy="0" r="7"/>
                <circle id="rim2" cx="0" cy="0" r="3.5"/>
                <g id="zoomPlus">
                        <use xlink:href="#rim" fill="#404040">
                                <set attributeName="fill" to="#808080" begin="zoomplus.mouseover" end="zoomplus.mouseout"/>
                        </use>
                        <path d="M-4,0h8M0,-4v8" fill="none" stroke="white" stroke-width="1.5" pointer-events="none"/>
                </g>
                <g id="zoomMin">
                        <use xlink:href="#rim" fill="#404040">
                                <set attributeName="fill" to="#808080" begin="zoomminus.mouseover" end="zoomminus.mouseout"/>
                        </use>
                        <path d="M-4,0h8" fill="none" stroke="white" stroke-width="1.5" pointer-events="none"/>
                </g>
                <g id="dirArrow">
                        <path fill="none" stroke="white" stroke-width="1.5" d="M0,-3.0v7 M-2.5,-0.5L0,-3.0L2.5,-0.5"/>
                </g>
               <g id="resetDef">
                       <use xlink:href="#rim2" fill="#404040">
                               <set attributeName="fill" to="#808080" begin="reset.mouseover" end="reset.mouseout"/>
                       </use>
               </g>
        </defs>

<script type="text/javascript">
var viewWidth = 670;
var viewHeight = 252;
var sectionId = 'dynsection-3';
</script>
<script xlink:href="svgpan.js"/>
<svg id="graph" class="graph">
<g id="viewport">
<title>ioVTK::SMeshWriter::updating</title>
<polygon fill="white" stroke="white" points="-4,5 -4,-248 667,-248 667,5 -4,5"/>
<!-- Node1 -->
<g id="node1" class="node"><title>Node1</title>
<polygon fill="#bfbfbf" stroke="black" points="0.5,-124 0.5,-158 107.5,-158 107.5,-124 0.5,-124"/>
<text text-anchor="start" x="8.5" y="-145" font-family="Helvetica,sans-Serif" font-size="10.00">ioVTK::SMeshWriter</text>
<text text-anchor="middle" x="54" y="-132" font-family="Helvetica,sans-Serif" font-size="10.00">::updating</text>
</g>
<!-- Node2 -->
<g id="node3" class="node"><title>Node2</title>
<a xlink:href="classio_1_1IWriter.html#a27c7be772bb681b127a81e0654a33ced" target="_top" xlink:title="Returns the file path setted by user or setted during service configuration. ">
<polygon fill="white" stroke="black" points="170.5,-222.5 170.5,-243.5 265.5,-243.5 265.5,-222.5 170.5,-222.5"/>
<text text-anchor="middle" x="218" y="-230.5" font-family="Helvetica,sans-Serif" font-size="10.00">io::IWriter::getFile</text>
</a>
</g>
<!-- Node1&#45;&gt;Node2 -->
<g id="edge2" class="edge"><title>Node1&#45;&gt;Node2</title>
<path fill="none" stroke="midnightblue" d="M71.0731,-158.289C88.1292,-174.625 115.803,-198.7 144,-213 149.246,-215.661 154.887,-217.999 160.63,-220.047"/>
<polygon fill="midnightblue" stroke="midnightblue" points="159.747,-223.44 170.339,-223.224 161.924,-216.787 159.747,-223.44"/>
</g>
<!-- Node4 -->
<g id="node7" class="node"><title>Node4</title>
<a xlink:href="classio_1_1IWriter.html#a7f364503bcff66b19dec1d2e9cd4c835" target="_top" xlink:title="Returns if a location has been defined ( by the configuration process or directly by user ) ...">
<polygon fill="white" stroke="black" points="159,-170 159,-204 277,-204 277,-170 159,-170"/>
<text text-anchor="start" x="167" y="-191" font-family="Helvetica,sans-Serif" font-size="10.00">io::IWriter::hasLocation</text>
<text text-anchor="middle" x="218" y="-178" font-family="Helvetica,sans-Serif" font-size="10.00">Defined</text>
</a>
</g>
<!-- Node1&#45;&gt;Node4 -->
<g id="edge6" class="edge"><title>Node1&#45;&gt;Node4</title>
<path fill="none" stroke="midnightblue" d="M107.7,-156.062C120.855,-159.752 135.117,-163.752 148.883,-167.614"/>
<polygon fill="midnightblue" stroke="midnightblue" points="148.222,-171.063 158.796,-170.394 150.113,-164.323 148.222,-171.063"/>
</g>
<!-- Node5 -->
<g id="node9" class="node"><title>Node5</title>
<a xlink:href="classfwGui_1_1Cursor.html#a2123887d218bc28fd5ef4a5519083b9c" target="_top" xlink:title="Set the cursor. ">
<polygon fill="white" stroke="black" points="155,-130.5 155,-151.5 281,-151.5 281,-130.5 155,-130.5"/>
<text text-anchor="middle" x="218" y="-138.5" font-family="Helvetica,sans-Serif" font-size="10.00">fwGui::Cursor::setCursor</text>
</a>
</g>
<!-- Node1&#45;&gt;Node5 -->
<g id="edge8" class="edge"><title>Node1&#45;&gt;Node5</title>
<path fill="none" stroke="midnightblue" d="M107.7,-141C119.45,-141 132.084,-141 144.458,-141"/>
<polygon fill="midnightblue" stroke="midnightblue" points="144.766,-144.5 154.766,-141 144.766,-137.5 144.766,-144.5"/>
</g>
<!-- Node6 -->
<g id="node11" class="node"><title>Node6</title>
<a xlink:href="classfwGui_1_1Cursor.html#aba3651c51ebf7162b047e0c151630f79" target="_top" xlink:title="Set the default cursor. ">
<polygon fill="white" stroke="black" points="154,-78 154,-112 282,-112 282,-78 154,-78"/>
<text text-anchor="start" x="162" y="-99" font-family="Helvetica,sans-Serif" font-size="10.00">fwGui::Cursor::setDefault</text>
<text text-anchor="middle" x="218" y="-86" font-family="Helvetica,sans-Serif" font-size="10.00">Cursor</text>
</a>
</g>
<!-- Node1&#45;&gt;Node6 -->
<g id="edge10" class="edge"><title>Node1&#45;&gt;Node6</title>
<path fill="none" stroke="midnightblue" d="M107.7,-125.938C120.479,-122.353 134.303,-118.476 147.702,-114.718"/>
<polygon fill="midnightblue" stroke="midnightblue" points="148.679,-118.079 157.362,-112.008 146.788,-111.339 148.679,-118.079"/>
</g>
<!-- Node7 -->
<g id="node13" class="node"><title>Node7</title>
<a xlink:href="classfwGui_1_1dialog_1_1MessageDialog.html#a8c59f4f1a8cd0319757d9207af8105bf" target="_top" xlink:title="fwGui::dialog::MessageDialog\l::showMessageDialog">
<polygon fill="white" stroke="black" points="144.5,-26 144.5,-60 291.5,-60 291.5,-26 144.5,-26"/>
<text text-anchor="start" x="152.5" y="-47" font-family="Helvetica,sans-Serif" font-size="10.00">fwGui::dialog::MessageDialog</text>
<text text-anchor="middle" x="218" y="-34" font-family="Helvetica,sans-Serif" font-size="10.00">::showMessageDialog</text>
</a>
</g>
<!-- Node1&#45;&gt;Node7 -->
<g id="edge12" class="edge"><title>Node1&#45;&gt;Node7</title>
<path fill="none" stroke="midnightblue" d="M71.6424,-123.86C88.9004,-107.863 116.526,-84.235 144,-69 147.009,-67.3315 150.145,-65.7392 153.353,-64.2241"/>
<polygon fill="midnightblue" stroke="midnightblue" points="154.812,-67.406 162.541,-60.1601 151.98,-61.0042 154.812,-67.406"/>
</g>
<!-- Node3 -->
<g id="node5" class="node"><title>Node3</title>
<a xlink:href="classio_1_1IWriter.html#a1e024eeeca2c9614a373de74fcb1fa4e" target="_top" xlink:title="This method must be implemented by concrete service writers that use path file system to write data...">
<polygon fill="white" stroke="black" points="336.5,-222.5 336.5,-243.5 467.5,-243.5 467.5,-222.5 336.5,-222.5"/>
<text text-anchor="middle" x="402" y="-230.5" font-family="Helvetica,sans-Serif" font-size="10.00">io::IWriter::getIOPathType</text>
</a>
</g>
<!-- Node2&#45;&gt;Node3 -->
<g id="edge4" class="edge"><title>Node2&#45;&gt;Node3</title>
<path fill="none" stroke="midnightblue" d="M265.864,-233C284.264,-233 305.751,-233 326.146,-233"/>
<polygon fill="midnightblue" stroke="midnightblue" points="326.369,-236.5 336.369,-233 326.369,-229.5 326.369,-236.5"/>
</g>
<!-- Node8 -->
<g id="node15" class="node"><title>Node8</title>
<a xlink:href="classfwGui_1_1dialog_1_1MessageDialog.html#a7200cf2111a64af4a0c02bfb26fec8dc" target="_top" xlink:title="Add a button (OK, YES_NO, YES, NO, CANCEL) ">
<polygon fill="white" stroke="black" points="328.5,-52 328.5,-86 475.5,-86 475.5,-52 328.5,-52"/>
<text text-anchor="start" x="336.5" y="-73" font-family="Helvetica,sans-Serif" font-size="10.00">fwGui::dialog::MessageDialog</text>
<text text-anchor="middle" x="402" y="-60" font-family="Helvetica,sans-Serif" font-size="10.00">::addButton</text>
</a>
</g>
<!-- Node7&#45;&gt;Node8 -->
<g id="edge14" class="edge"><title>Node7&#45;&gt;Node8</title>
<path fill="none" stroke="midnightblue" d="M291.515,-53.388C300.315,-54.6315 309.351,-55.9082 318.281,-57.1702"/>
<polygon fill="midnightblue" stroke="midnightblue" points="317.91,-60.6524 328.302,-58.5861 318.89,-53.7213 317.91,-60.6524"/>
</g>
<!-- Node9 -->
<g id="node17" class="node"><title>Node9</title>
<a xlink:href="classfwGui_1_1dialog_1_1MessageDialog.html#a6d638d48bf997624e8483616a7e0c3f7" target="_top" xlink:title="Show the message box and return the clicked button. ">
<polygon fill="white" stroke="black" points="328.5,-0 328.5,-34 475.5,-34 475.5,-0 328.5,-0"/>
<text text-anchor="start" x="336.5" y="-21" font-family="Helvetica,sans-Serif" font-size="10.00">fwGui::dialog::MessageDialog</text>
<text text-anchor="middle" x="402" y="-8" font-family="Helvetica,sans-Serif" font-size="10.00">::show</text>
</a>
</g>
<!-- Node7&#45;&gt;Node9 -->
<g id="edge16" class="edge"><title>Node7&#45;&gt;Node9</title>
<path fill="none" stroke="midnightblue" d="M291.515,-32.612C300.315,-31.3685 309.351,-30.0918 318.281,-28.8298"/>
<polygon fill="midnightblue" stroke="midnightblue" points="318.89,-32.2787 328.302,-27.4139 317.91,-25.3476 318.89,-32.2787"/>
</g>
<!-- Node10 -->
<g id="node19" class="node"><title>Node10</title>
<a xlink:href="classfwGui_1_1dialog_1_1IMessageDialog.html#a3aafce0bcfa0fa0da4b5114ff798ddd7" target="_top" xlink:title="Show the message box and return the clicked button. ">
<polygon fill="white" stroke="black" points="512,-0 512,-34 662,-34 662,-0 512,-0"/>
<text text-anchor="start" x="520" y="-21" font-family="Helvetica,sans-Serif" font-size="10.00">fwGui::dialog::IMessageDialog</text>
<text text-anchor="middle" x="587" y="-8" font-family="Helvetica,sans-Serif" font-size="10.00">::show</text>
</a>
</g>
<!-- Node9&#45;&gt;Node10 -->
<g id="edge18" class="edge"><title>Node9&#45;&gt;Node10</title>
<path fill="none" stroke="midnightblue" d="M475.648,-17C484.194,-17 492.965,-17 501.65,-17"/>
<polygon fill="midnightblue" stroke="midnightblue" points="501.789,-20.5001 511.789,-17 501.789,-13.5001 501.789,-20.5001"/>
</g>
</g>
</svg>
        <g id="navigator" transform="translate(0 0)" fill="#404254">
                <rect fill="#f2f5e9" fill-opacity="0.5" stroke="#606060" stroke-width=".5" x="0" y="0" width="60" height="60"/>
                <use id="zoomplus" xlink:href="#zoomPlus" x="17" y="9" onmousedown="handleZoom(evt,'in')"/>
                <use id="zoomminus" xlink:href="#zoomMin" x="42" y="9" onmousedown="handleZoom(evt,'out')"/>
                <use id="reset" xlink:href="#resetDef" x="30" y="36" onmousedown="handleReset()"/>
                <g id="arrowUp" xlink:href="#dirArrow" transform="translate(30 24)" onmousedown="handlePan(0,-1)">
                  <use xlink:href="#rim" fill="#404040">
                        <set attributeName="fill" to="#808080" begin="arrowUp.mouseover" end="arrowUp.mouseout"/>
                  </use>
                  <path fill="none" stroke="white" stroke-width="1.5" d="M0,-3.0v7 M-2.5,-0.5L0,-3.0L2.5,-0.5"/>
                </g>
                <g id="arrowRight" xlink:href="#dirArrow" transform="rotate(90) translate(36 -43)" onmousedown="handlePan(1,0)">
                  <use xlink:href="#rim" fill="#404040">
                        <set attributeName="fill" to="#808080" begin="arrowRight.mouseover" end="arrowRight.mouseout"/>
                  </use>
                  <path fill="none" stroke="white" stroke-width="1.5" d="M0,-3.0v7 M-2.5,-0.5L0,-3.0L2.5,-0.5"/>
                </g>
                <g id="arrowDown" xlink:href="#dirArrow" transform="rotate(180) translate(-30 -48)" onmousedown="handlePan(0,1)">
                  <use xlink:href="#rim" fill="#404040">
                        <set attributeName="fill" to="#808080" begin="arrowDown.mouseover" end="arrowDown.mouseout"/>
                  </use>
                  <path fill="none" stroke="white" stroke-width="1.5" d="M0,-3.0v7 M-2.5,-0.5L0,-3.0L2.5,-0.5"/>
                </g>
                <g id="arrowLeft" xlink:href="#dirArrow" transform="rotate(270) translate(-36 17)" onmousedown="handlePan(-1,0)">
                  <use xlink:href="#rim" fill="#404040">
                        <set attributeName="fill" to="#808080" begin="arrowLeft.mouseover" end="arrowLeft.mouseout"/>
                  </use>
                  <path fill="none" stroke="white" stroke-width="1.5" d="M0,-3.0v7 M-2.5,-0.5L0,-3.0L2.5,-0.5"/>
                </g>
        </g>
        <svg viewBox="0 0 15 15" width="100%" height="30px" preserveAspectRatio="xMaxYMin meet">
         <g id="arrow_out" transform="scale(0.3 0.3)">
          <a xlink:href="classioVTK_1_1SMeshWriter_aad0a2c966bc1bba1c6a1df9c027b184d_cgraph_org.svg" target="_base">
           <rect id="button" ry="5" rx="5" y="6" x="6" height="38" width="38"
                fill="#f2f5e9" fill-opacity="0.5" stroke="#606060" stroke-width="1.0"/>
           <path id="arrow"
             d="M 11.500037,31.436501 C 11.940474,20.09759 22.043105,11.32322 32.158766,21.979434 L 37.068811,17.246167 C 37.068811,17.246167 37.088388,32 37.088388,32 L 22.160133,31.978069 C 22.160133,31.978069 26.997745,27.140456 26.997745,27.140456 C 18.528582,18.264221 13.291696,25.230495 11.500037,31.436501 z"
             style="fill:#404040;"/>
          </a>
         </g>
        </svg>
</svg>
