<?xml version="1.0" encoding="UTF-8" standalone="no"?>
<!DOCTYPE svg PUBLIC "-//W3C//DTD SVG 1.1//EN"
 "http://www.w3.org/Graphics/SVG/1.1/DTD/svg11.dtd">
<!-- Generated by graphviz version 2.36.0 (20140111.2315)
 -->
<!-- Title: fwStructuralPatch::creator::fwData::Landmarks1 Pages: 1 -->
<svg width="150pt" height="232pt"
 viewBox="0.00 0.00 150.00 232.00" xmlns="http://www.w3.org/2000/svg" xmlns:xlink="http://www.w3.org/1999/xlink">
<g id="graph0" class="graph" transform="scale(1 1) rotate(0) translate(4 228)">
<title>fwStructuralPatch::creator::fwData::Landmarks1</title>
<polygon fill="white" stroke="none" points="-4,4 -4,-228 146,-228 146,4 -4,4"/>
<!-- Node1 -->
<g id="node1" class="node"><title>Node1</title>
<polygon fill="#bfbfbf" stroke="black" points="-0.5,-1 -0.5,-31 142.5,-31 142.5,-1 -0.5,-1"/>
<text text-anchor="start" x="7.5" y="-19" font-family="Helvetica,sans-Serif" font-size="10.00">fwStructuralPatch::</text>
<text text-anchor="middle" x="71" y="-8" font-family="Helvetica,sans-Serif" font-size="10.00">creator::fwData::Landmarks1</text>
</g>
<!-- Node2 -->
<g id="node2" class="node"><title>Node2</title>
<g id="a_node2"><a xlink:href="classfwAtomsPatch_1_1IStructuralCreator.html" target="_top" xlink:title="Base class of all structural creators. Creates a new atom object with the default values correspondin...">
<polygon fill="white" stroke="black" points="5,-69 5,-99 137,-99 137,-69 5,-69"/>
<text text-anchor="start" x="13" y="-87" font-family="Helvetica,sans-Serif" font-size="10.00">fwAtomsPatch::IStructural</text>
<text text-anchor="middle" x="71" y="-76" font-family="Helvetica,sans-Serif" font-size="10.00">Creator</text>
</a>
</g>
</g>
<!-- Node2&#45;&gt;Node1 -->
<g id="edge1" class="edge"><title>Node2&#45;&gt;Node1</title>
<path fill="none" stroke="midnightblue" d="M71,-58.5322C71,-49.3606 71,-39.2449 71,-31.2931"/>
<polygon fill="midnightblue" stroke="midnightblue" points="67.5001,-58.6789 71,-68.679 74.5001,-58.679 67.5001,-58.6789"/>
</g>
<!-- Node3 -->
<g id="node3" class="node"><title>Node3</title>
<g id="a_node3"><a xlink:href="classfwCore_1_1BaseObject.html" target="_top" xlink:title="Base class for all FW4SPL&#39;s classes. ">
<polygon fill="white" stroke="black" points="18.5,-136.5 18.5,-155.5 123.5,-155.5 123.5,-136.5 18.5,-136.5"/>
<text text-anchor="middle" x="71" y="-143.5" font-family="Helvetica,sans-Serif" font-size="10.00">fwCore::BaseObject</text>
</a>
</g>
</g>
<!-- Node3&#45;&gt;Node2 -->
<g id="edge2" class="edge"><title>Node3&#45;&gt;Node2</title>
<path fill="none" stroke="midnightblue" d="M71,-126.371C71,-117.585 71,-107.272 71,-99.1408"/>
<polygon fill="midnightblue" stroke="midnightblue" points="67.5001,-126.403 71,-136.403 74.5001,-126.403 67.5001,-126.403"/>
</g>
<!-- Node4 -->
<g id="node4" class="node"><title>Node4</title>
<polygon fill="white" stroke="#bfbfbf" points="5.5,-193 5.5,-223 136.5,-223 136.5,-193 5.5,-193"/>
<text text-anchor="start" x="13.5" y="-211" font-family="Helvetica,sans-Serif" font-size="10.00">std::enable_shared</text>
<text text-anchor="middle" x="71" y="-200" font-family="Helvetica,sans-Serif" font-size="10.00">_from_this&lt; BaseObject &gt;</text>
</g>
<!-- Node4&#45;&gt;Node3 -->
<g id="edge3" class="edge"><title>Node4&#45;&gt;Node3</title>
<path fill="none" stroke="midnightblue" d="M71,-182.586C71,-173.074 71,-162.786 71,-155.731"/>
<polygon fill="midnightblue" stroke="midnightblue" points="67.5001,-182.781 71,-192.781 74.5001,-182.781 67.5001,-182.781"/>
</g>
</g>
</svg>
