<?xml version="1.0" encoding="UTF-8" standalone="no"?>
<!DOCTYPE svg PUBLIC "-//W3C//DTD SVG 1.1//EN"
 "http://www.w3.org/Graphics/SVG/1.1/DTD/svg11.dtd">
<!-- Generated by graphviz version 2.36.0 (20140111.2315)
 -->
<!-- Title: visuVTKAdaptor::SImageMultiDistances Pages: 1 -->
<!--zoomable 383 -->
<svg id="main" version="1.1" xmlns="http://www.w3.org/2000/svg" xmlns:xlink="http://www.w3.org/1999/xlink" xml:space="preserve" onload="init(evt)">
<style type="text/css"><![CDATA[
.edge:hover path { stroke: red; }
.edge:hover polygon { stroke: red; fill: red; }
]]></style>
<script type="text/javascript"><![CDATA[
var edges = document.getElementsByTagName('g');
if (edges && edges.length) {
  for (var i=0;i<edges.length;i++) {
    if (edges[i].id.substr(0,4)=='edge') {
      edges[i].setAttribute('class','edge');
    }
  }
}
]]></script>
        <defs>
                <circle id="rim" cx="0" cy="0" r="7"/>
                <circle id="rim2" cx="0" cy="0" r="3.5"/>
                <g id="zoomPlus">
                        <use xlink:href="#rim" fill="#404040">
                                <set attributeName="fill" to="#808080" begin="zoomplus.mouseover" end="zoomplus.mouseout"/>
                        </use>
                        <path d="M-4,0h8M0,-4v8" fill="none" stroke="white" stroke-width="1.5" pointer-events="none"/>
                </g>
                <g id="zoomMin">
                        <use xlink:href="#rim" fill="#404040">
                                <set attributeName="fill" to="#808080" begin="zoomminus.mouseover" end="zoomminus.mouseout"/>
                        </use>
                        <path d="M-4,0h8" fill="none" stroke="white" stroke-width="1.5" pointer-events="none"/>
                </g>
                <g id="dirArrow">
                        <path fill="none" stroke="white" stroke-width="1.5" d="M0,-3.0v7 M-2.5,-0.5L0,-3.0L2.5,-0.5"/>
                </g>
               <g id="resetDef">
                       <use xlink:href="#rim2" fill="#404040">
                               <set attributeName="fill" to="#808080" begin="reset.mouseover" end="reset.mouseout"/>
                       </use>
               </g>
        </defs>

<script type="text/javascript">
var viewWidth = 2076;
var viewHeight = 383;
var sectionId = 'dynsection-1';
</script>
<script xlink:href="svgpan.js"/>
<svg id="graph" class="graph">
<g id="viewport">
<title>visuVTKAdaptor::SImageMultiDistances</title>
<polygon fill="white" stroke="none" points="-4,4 -4,-379 2072,-379 2072,4 -4,4"/>
<!-- Node1 -->
<g id="node1" class="node"><title>Node1</title>
<polygon fill="#bfbfbf" stroke="black" points="1918.5,-319 1918.5,-349 2067.5,-349 2067.5,-319 1918.5,-319"/>
<text text-anchor="start" x="1926.5" y="-337" font-family="Helvetica,sans-Serif" font-size="10.00">visuVTKAdaptor::SImageMulti</text>
<text text-anchor="middle" x="1993" y="-326" font-family="Helvetica,sans-Serif" font-size="10.00">Distances</text>
</g>
<!-- Node2 -->
<g id="node2" class="node"><title>Node2</title>
<g id="a_node2"><a xlink:href="classfwRenderVTK_1_1IAdaptor.html" target="_top" xlink:title="Base class for VTK adaptors. ">
<polygon fill="white" stroke="black" points="1758.5,-273.5 1758.5,-292.5 1879.5,-292.5 1879.5,-273.5 1758.5,-273.5"/>
<text text-anchor="middle" x="1819" y="-280.5" font-family="Helvetica,sans-Serif" font-size="10.00">fwRenderVTK::IAdaptor</text>
</a>
</g>
</g>
<!-- Node2&#45;&gt;Node1 -->
<g id="edge1" class="edge"><title>Node2&#45;&gt;Node1</title>
<path fill="none" stroke="midnightblue" d="M1862.17,-295.504C1886.03,-302.58 1916.04,-311.478 1941.2,-318.936"/>
<polygon fill="midnightblue" stroke="midnightblue" points="1862.93,-292.08 1852.35,-292.593 1860.94,-298.791 1862.93,-292.08"/>
</g>
<!-- Node3 -->
<g id="node3" class="node"><title>Node3</title>
<g id="a_node3"><a xlink:href="classfwServices_1_1IService.html" target="_top" xlink:title="Base class for all services. ">
<polygon fill="white" stroke="black" points="1512.5,-88.5 1512.5,-107.5 1619.5,-107.5 1619.5,-88.5 1512.5,-88.5"/>
<text text-anchor="middle" x="1566" y="-95.5" font-family="Helvetica,sans-Serif" font-size="10.00">fwServices::IService</text>
</a>
</g>
</g>
<!-- Node3&#45;&gt;Node2 -->
<g id="edge2" class="edge"><title>Node3&#45;&gt;Node2</title>
<path fill="none" stroke="midnightblue" d="M1588.39,-113.766C1638.88,-150.976 1764.25,-243.384 1804.99,-273.41"/>
<polygon fill="midnightblue" stroke="midnightblue" points="1590.27,-110.802 1580.14,-107.686 1586.11,-116.436 1590.27,-110.802"/>
</g>
<!-- Node4 -->
<g id="node4" class="node"><title>Node4</title>
<g id="a_node4"><a xlink:href="classfwTools_1_1Object.html" target="_top" xlink:title="Define Base class for FW4SPL objects and services. ">
<polygon fill="white" stroke="black" points="385,-35.5 385,-54.5 471,-54.5 471,-35.5 385,-35.5"/>
<text text-anchor="middle" x="428" y="-42.5" font-family="Helvetica,sans-Serif" font-size="10.00">fwTools::Object</text>
</a>
</g>
</g>
<!-- Node4&#45;&gt;Node3 -->
<g id="edge3" class="edge"><title>Node4&#45;&gt;Node3</title>
<path fill="none" stroke="midnightblue" d="M481.087,-42.6147C543.888,-39.9483 652.645,-36 746,-36 746,-36 746,-36 1269,-36 1370.07,-36 1486.51,-71.0569 1538.05,-88.4484"/>
<polygon fill="midnightblue" stroke="midnightblue" points="480.877,-39.1204 471.037,-43.0471 481.178,-46.1139 480.877,-39.1204"/>
</g>
<!-- Node5 -->
<g id="node5" class="node"><title>Node5</title>
<g id="a_node5"><a xlink:href="classfwCore_1_1BaseObject.html" target="_top" xlink:title="Base class for all FW4SPL&#39;s classes. ">
<polygon fill="white" stroke="black" points="170.5,-80.5 170.5,-99.5 275.5,-99.5 275.5,-80.5 170.5,-80.5"/>
<text text-anchor="middle" x="223" y="-87.5" font-family="Helvetica,sans-Serif" font-size="10.00">fwCore::BaseObject</text>
</a>
</g>
</g>
<!-- Node5&#45;&gt;Node4 -->
<g id="edge4" class="edge"><title>Node5&#45;&gt;Node4</title>
<path fill="none" stroke="midnightblue" d="M277.147,-78.2187C310.703,-70.7801 353.46,-61.3019 384.707,-54.3753"/>
<polygon fill="midnightblue" stroke="midnightblue" points="276.057,-74.8753 267.051,-80.4567 277.572,-81.7094 276.057,-74.8753"/>
</g>
<!-- Node26 -->
<g id="node26" class="node"><title>Node26</title>
<g id="a_node26"><a xlink:href="structfwCom_1_1SlotConnectionBase.html" target="_top" xlink:title="Base class for Slot connection implementation. This class is for internal use purpose. ">
<polygon fill="white" stroke="black" points="356.5,-245.5 356.5,-264.5 499.5,-264.5 499.5,-245.5 356.5,-245.5"/>
<text text-anchor="middle" x="428" y="-252.5" font-family="Helvetica,sans-Serif" font-size="10.00">fwCom::SlotConnectionBase</text>
</a>
</g>
</g>
<!-- Node5&#45;&gt;Node26 -->
<g id="edge28" class="edge"><title>Node5&#45;&gt;Node26</title>
<path fill="none" stroke="midnightblue" d="M266.725,-104.238C270.048,-106.227 273.196,-108.471 276,-111 288.697,-122.451 284.856,-130.552 294,-145 318.623,-183.908 319.242,-200.27 356,-228 366.107,-235.624 378.618,-241.327 390.309,-245.478"/>
<polygon fill="midnightblue" stroke="midnightblue" points="268.128,-101.024 257.635,-99.5538 264.921,-107.246 268.128,-101.024"/>
</g>
<!-- Node6 -->
<g id="node6" class="node"><title>Node6</title>
<polygon fill="white" stroke="#bfbfbf" points="0.5,-75 0.5,-105 131.5,-105 131.5,-75 0.5,-75"/>
<text text-anchor="start" x="8.5" y="-93" font-family="Helvetica,sans-Serif" font-size="10.00">std::enable_shared</text>
<text text-anchor="middle" x="66" y="-82" font-family="Helvetica,sans-Serif" font-size="10.00">_from_this&lt; BaseObject &gt;</text>
</g>
<!-- Node6&#45;&gt;Node5 -->
<g id="edge5" class="edge"><title>Node6&#45;&gt;Node5</title>
<path fill="none" stroke="midnightblue" d="M142.089,-90C151.581,-90 161.12,-90 170.138,-90"/>
<polygon fill="midnightblue" stroke="midnightblue" points="141.836,-86.5001 131.836,-90 141.836,-93.5001 141.836,-86.5001"/>
</g>
<!-- Node7 -->
<g id="node7" class="node"><title>Node7</title>
<polygon fill="white" stroke="#bfbfbf" points="187.5,-38.5 187.5,-57.5 258.5,-57.5 258.5,-38.5 187.5,-38.5"/>
<text text-anchor="middle" x="223" y="-45.5" font-family="Helvetica,sans-Serif" font-size="10.00">noncopyable</text>
</g>
<!-- Node7&#45;&gt;Node4 -->
<g id="edge6" class="edge"><title>Node7&#45;&gt;Node4</title>
<path fill="none" stroke="midnightblue" d="M269.184,-47.3323C303.744,-46.8215 351.048,-46.1224 384.834,-45.6231"/>
<polygon fill="midnightblue" stroke="midnightblue" points="268.844,-43.8368 258.897,-47.4843 268.948,-50.836 268.844,-43.8368"/>
</g>
<!-- Node8 -->
<g id="node8" class="node"><title>Node8</title>
<g id="a_node8"><a xlink:href="classfwTools_1_1fwID.html" target="_top" xlink:title="Defines ID for fwTools::Object. It is used to associate ID with object. ">
<polygon fill="white" stroke="black" points="184,-0.5 184,-19.5 262,-19.5 262,-0.5 184,-0.5"/>
<text text-anchor="middle" x="223" y="-7.5" font-family="Helvetica,sans-Serif" font-size="10.00">fwTools::fwID</text>
</a>
</g>
</g>
<!-- Node8&#45;&gt;Node4 -->
<g id="edge7" class="edge"><title>Node8&#45;&gt;Node4</title>
<path fill="none" stroke="darkgreen" d="M272.415,-18.3474C306.629,-24.2464 352.043,-32.0763 384.784,-37.7214"/>
<polygon fill="darkgreen" stroke="darkgreen" points="272.632,-14.8333 262.183,-16.5832 271.443,-21.7315 272.632,-14.8333"/>
</g>
<!-- Node9 -->
<g id="node9" class="node"><title>Node9</title>
<g id="a_node9"><a xlink:href="classfwCom_1_1HasSlots.html" target="_top" xlink:title="This class proposes a mapping between a SlotKeyType and a SlotBase. ">
<polygon fill="white" stroke="black" points="1220.5,-64.5 1220.5,-83.5 1315.5,-83.5 1315.5,-64.5 1220.5,-64.5"/>
<text text-anchor="middle" x="1268" y="-71.5" font-family="Helvetica,sans-Serif" font-size="10.00">fwCom::HasSlots</text>
</a>
</g>
</g>
<!-- Node9&#45;&gt;Node3 -->
<g id="edge8" class="edge"><title>Node9&#45;&gt;Node3</title>
<path fill="none" stroke="midnightblue" d="M1325.65,-78.5932C1379.54,-82.9628 1459.97,-89.4841 1512.46,-93.7399"/>
<polygon fill="midnightblue" stroke="midnightblue" points="1325.83,-75.0961 1315.58,-77.7764 1325.26,-82.0732 1325.83,-75.0961"/>
</g>
<!-- Node10 -->
<g id="node10" class="node"><title>Node10</title>
<g id="a_node10"><a xlink:href="classfwCom_1_1Slots.html" target="_top" xlink:title="This class proposes a mapping between a SlotKeyType and a SlotBase. ">
<polygon fill="white" stroke="black" points="965.5,-68.5 965.5,-87.5 1042.5,-87.5 1042.5,-68.5 965.5,-68.5"/>
<text text-anchor="middle" x="1004" y="-75.5" font-family="Helvetica,sans-Serif" font-size="10.00">fwCom::Slots</text>
</a>
</g>
</g>
<!-- Node10&#45;&gt;Node9 -->
<g id="edge9" class="edge"><title>Node10&#45;&gt;Node9</title>
<path fill="none" stroke="#9a32cd" stroke-dasharray="5,2" d="M1052.59,-77.2734C1100.19,-76.5468 1172.93,-75.4361 1220.24,-74.7139"/>
<polygon fill="#9a32cd" stroke="#9a32cd" points="1052.48,-73.7746 1042.54,-77.4269 1052.59,-80.7737 1052.48,-73.7746"/>
<text text-anchor="middle" x="1136" y="-80" font-family="Helvetica,sans-Serif" font-size="10.00"> m_slots</text>
</g>
<!-- Node11 -->
<g id="node11" class="node"><title>Node11</title>
<polygon fill="white" stroke="#bfbfbf" points="671,-70 671,-100 823,-100 823,-70 671,-70"/>
<text text-anchor="start" x="679" y="-88" font-family="Helvetica,sans-Serif" font-size="10.00">std::map&lt; SlotKeyType,</text>
<text text-anchor="middle" x="747" y="-77" font-family="Helvetica,sans-Serif" font-size="10.00"> std::shared_ptr&lt; SlotBase &gt; &gt;</text>
</g>
<!-- Node11&#45;&gt;Node10 -->
<g id="edge10" class="edge"><title>Node11&#45;&gt;Node10</title>
<path fill="none" stroke="#9a32cd" stroke-dasharray="5,2" d="M833.141,-82.6628C877.911,-81.4338 930.542,-79.989 965.22,-79.0371"/>
<polygon fill="#9a32cd" stroke="#9a32cd" points="833.029,-79.1644 823.129,-82.9376 833.222,-86.1618 833.029,-79.1644"/>
<text text-anchor="middle" x="890" y="-86" font-family="Helvetica,sans-Serif" font-size="10.00"> m_slots</text>
</g>
<!-- Node12 -->
<g id="node12" class="node"><title>Node12</title>
<g id="a_node12"><a xlink:title="STL class. ">
<polygon fill="white" stroke="#bfbfbf" points="398,-199.5 398,-218.5 458,-218.5 458,-199.5 398,-199.5"/>
<text text-anchor="middle" x="428" y="-206.5" font-family="Helvetica,sans-Serif" font-size="10.00">std::string</text>
</a>
</g>
</g>
<!-- Node12&#45;&gt;Node2 -->
<g id="edge33" class="edge"><title>Node12&#45;&gt;Node2</title>
<path fill="none" stroke="#9a32cd" stroke-dasharray="5,2" d="M468.424,-215.144C483.851,-217.331 501.719,-219.596 518,-221 1019.61,-264.243 1147.95,-226.128 1650,-264 1686,-266.716 1726.19,-271.208 1758.23,-275.143"/>
<polygon fill="#9a32cd" stroke="#9a32cd" points="468.583,-211.63 458.184,-213.654 467.576,-218.557 468.583,-211.63"/>
<text text-anchor="middle" x="1136" y="-271" font-family="Helvetica,sans-Serif" font-size="10.00"> m_pickerId</text>
<text text-anchor="middle" x="1136" y="-260" font-family="Helvetica,sans-Serif" font-size="10.00">m_transformId</text>
<text text-anchor="middle" x="1136" y="-249" font-family="Helvetica,sans-Serif" font-size="10.00">m_rendererId</text>
</g>
<!-- Node12&#45;&gt;Node11 -->
<g id="edge11" class="edge"><title>Node12&#45;&gt;Node11</title>
<path fill="none" stroke="#9a32cd" stroke-dasharray="5,2" d="M459.181,-195.261C476.16,-188.01 497.921,-179.501 518,-174 574.447,-158.535 602.173,-189.405 648,-153 664.544,-139.858 650.354,-123.199 666,-109 669.758,-105.589 673.984,-102.663 678.48,-100.151"/>
<polygon fill="#9a32cd" stroke="#9a32cd" points="457.557,-192.151 449.786,-199.352 460.352,-198.568 457.557,-192.151"/>
<text text-anchor="middle" x="583" y="-177" font-family="Helvetica,sans-Serif" font-size="10.00"> keys</text>
</g>
<!-- Node19 -->
<g id="node19" class="node"><title>Node19</title>
<polygon fill="white" stroke="#bfbfbf" points="666.5,-119 666.5,-149 827.5,-149 827.5,-119 666.5,-119"/>
<text text-anchor="start" x="674.5" y="-137" font-family="Helvetica,sans-Serif" font-size="10.00">std::map&lt; SignalKeyType,</text>
<text text-anchor="middle" x="747" y="-126" font-family="Helvetica,sans-Serif" font-size="10.00"> std::shared_ptr&lt; SignalBase &gt; &gt;</text>
</g>
<!-- Node12&#45;&gt;Node19 -->
<g id="edge19" class="edge"><title>Node12&#45;&gt;Node19</title>
<path fill="none" stroke="#9a32cd" stroke-dasharray="5,2" d="M468.172,-209.662C512.709,-209.372 587.128,-205.693 648,-187 675.921,-178.426 704.999,-161.527 724.156,-149.107"/>
<polygon fill="#9a32cd" stroke="#9a32cd" points="468.056,-206.162 458.059,-209.673 468.063,-213.162 468.056,-206.162"/>
<text text-anchor="middle" x="583" y="-211" font-family="Helvetica,sans-Serif" font-size="10.00"> keys</text>
</g>
<!-- Node13 -->
<g id="node13" class="node"><title>Node13</title>
<g id="a_node13"><a xlink:title="STL class. ">
<polygon fill="white" stroke="#bfbfbf" points="175.5,-194 175.5,-224 270.5,-224 270.5,-194 175.5,-194"/>
<text text-anchor="start" x="183.5" y="-212" font-family="Helvetica,sans-Serif" font-size="10.00">std::basic_string&lt;</text>
<text text-anchor="middle" x="223" y="-201" font-family="Helvetica,sans-Serif" font-size="10.00"> char &gt;</text>
</a>
</g>
</g>
<!-- Node13&#45;&gt;Node12 -->
<g id="edge12" class="edge"><title>Node13&#45;&gt;Node12</title>
<path fill="none" stroke="midnightblue" d="M281.005,-209C319.056,-209 367.51,-209 397.901,-209"/>
<polygon fill="midnightblue" stroke="midnightblue" points="280.572,-205.5 270.572,-209 280.572,-212.5 280.572,-205.5"/>
</g>
<!-- Node14 -->
<g id="node14" class="node"><title>Node14</title>
<g id="a_node14"><a xlink:title="STL class. ">
<polygon fill="white" stroke="#bfbfbf" points="382,-120.5 382,-139.5 474,-139.5 474,-120.5 382,-120.5"/>
<text text-anchor="middle" x="428" y="-127.5" font-family="Helvetica,sans-Serif" font-size="10.00">std::map&lt; K, T &gt;</text>
</a>
</g>
</g>
<!-- Node14&#45;&gt;Node11 -->
<g id="edge13" class="edge"><title>Node14&#45;&gt;Node11</title>
<path fill="none" stroke="orange" stroke-dasharray="5,2" d="M466.227,-117.311C482.019,-112.404 500.733,-107.208 518,-104 568.475,-94.6229 626.101,-89.8712 670.79,-87.4647"/>
<polygon fill="orange" stroke="orange" points="464.781,-114.098 456.316,-120.47 466.907,-120.767 464.781,-114.098"/>
<text text-anchor="start" x="523.5" y="-118" font-family="Helvetica,sans-Serif" font-size="10.00"> &lt; SlotKeyType, std</text>
<text text-anchor="middle" x="583" y="-107" font-family="Helvetica,sans-Serif" font-size="10.00">::shared_ptr&lt; SlotBase &gt; &gt;</text>
</g>
<!-- Node14&#45;&gt;Node19 -->
<g id="edge20" class="edge"><title>Node14&#45;&gt;Node19</title>
<path fill="none" stroke="orange" stroke-dasharray="5,2" d="M484.564,-129.855C528.834,-129.835 592.394,-130.022 648,-131 653.957,-131.105 660.116,-131.237 666.312,-131.387"/>
<polygon fill="orange" stroke="orange" points="484.299,-126.355 474.302,-129.863 484.305,-133.355 484.299,-126.355"/>
<text text-anchor="start" x="518.5" y="-145" font-family="Helvetica,sans-Serif" font-size="10.00"> &lt; SignalKeyType, std</text>
<text text-anchor="middle" x="583" y="-134" font-family="Helvetica,sans-Serif" font-size="10.00">::shared_ptr&lt; SignalBase &gt; &gt;</text>
</g>
<!-- Node15 -->
<g id="node15" class="node"><title>Node15</title>
<polygon fill="white" stroke="#bfbfbf" points="208.5,-120.5 208.5,-139.5 237.5,-139.5 237.5,-120.5 208.5,-120.5"/>
<text text-anchor="middle" x="223" y="-127.5" font-family="Helvetica,sans-Serif" font-size="10.00">K</text>
</g>
<!-- Node15&#45;&gt;Node14 -->
<g id="edge14" class="edge"><title>Node15&#45;&gt;Node14</title>
<path fill="none" stroke="#9a32cd" stroke-dasharray="5,2" d="M248.061,-130C280.885,-130 340.334,-130 381.658,-130"/>
<polygon fill="#9a32cd" stroke="#9a32cd" points="247.635,-126.5 237.635,-130 247.635,-133.5 247.635,-126.5"/>
<text text-anchor="middle" x="316" y="-133" font-family="Helvetica,sans-Serif" font-size="10.00"> keys</text>
</g>
<!-- Node16 -->
<g id="node16" class="node"><title>Node16</title>
<polygon fill="white" stroke="#bfbfbf" points="208.5,-291.5 208.5,-310.5 237.5,-310.5 237.5,-291.5 208.5,-291.5"/>
<text text-anchor="middle" x="223" y="-298.5" font-family="Helvetica,sans-Serif" font-size="10.00">T</text>
</g>
<!-- Node16&#45;&gt;Node14 -->
<g id="edge15" class="edge"><title>Node16&#45;&gt;Node14</title>
<path fill="none" stroke="#9a32cd" stroke-dasharray="5,2" d="M243.277,-284.762C284.953,-249.656 382.364,-167.599 415.63,-139.577"/>
<polygon fill="#9a32cd" stroke="#9a32cd" points="240.889,-282.197 235.496,-291.316 245.399,-287.551 240.889,-282.197"/>
<text text-anchor="middle" x="316" y="-244" font-family="Helvetica,sans-Serif" font-size="10.00"> elements</text>
</g>
<!-- Node27 -->
<g id="node27" class="node"><title>Node27</title>
<g id="a_node27"><a xlink:title="STL class. ">
<polygon fill="white" stroke="#bfbfbf" points="378,-291.5 378,-310.5 478,-310.5 478,-291.5 378,-291.5"/>
<text text-anchor="middle" x="428" y="-298.5" font-family="Helvetica,sans-Serif" font-size="10.00">std::weak_ptr&lt; T &gt;</text>
</a>
</g>
</g>
<!-- Node16&#45;&gt;Node27 -->
<g id="edge30" class="edge"><title>Node16&#45;&gt;Node27</title>
<path fill="none" stroke="#9a32cd" stroke-dasharray="5,2" d="M247.742,-301C279.49,-301 336.552,-301 377.781,-301"/>
<polygon fill="#9a32cd" stroke="#9a32cd" points="247.635,-297.5 237.635,-301 247.635,-304.5 247.635,-297.5"/>
<text text-anchor="middle" x="316" y="-304" font-family="Helvetica,sans-Serif" font-size="10.00"> ptr</text>
</g>
<!-- Node28 -->
<g id="node28" class="node"><title>Node28</title>
<g id="a_node28"><a xlink:title="STL class. ">
<polygon fill="white" stroke="#bfbfbf" points="967.5,-329.5 967.5,-348.5 1040.5,-348.5 1040.5,-329.5 967.5,-329.5"/>
<text text-anchor="middle" x="1004" y="-336.5" font-family="Helvetica,sans-Serif" font-size="10.00">std::list&lt; T &gt;</text>
</a>
</g>
</g>
<!-- Node16&#45;&gt;Node28 -->
<g id="edge32" class="edge"><title>Node16&#45;&gt;Node28</title>
<path fill="none" stroke="#9a32cd" stroke-dasharray="5,2" d="M247.488,-306.934C261.005,-310.122 278.36,-313.832 294,-316 321.351,-319.792 328.418,-318.706 356,-320 588.921,-330.93 869.325,-336.624 967.212,-338.389"/>
<polygon fill="#9a32cd" stroke="#9a32cd" points="248.12,-303.486 237.576,-304.529 246.469,-310.288 248.12,-303.486"/>
<text text-anchor="middle" x="583" y="-334" font-family="Helvetica,sans-Serif" font-size="10.00"> elements</text>
</g>
<!-- Node17 -->
<g id="node17" class="node"><title>Node17</title>
<g id="a_node17"><a xlink:href="classfwCom_1_1HasSignals.html" target="_top" xlink:title="This class proposes a mapping between a SignalKeyType and a SignalBase. ">
<polygon fill="white" stroke="black" points="1216,-102.5 1216,-121.5 1320,-121.5 1320,-102.5 1216,-102.5"/>
<text text-anchor="middle" x="1268" y="-109.5" font-family="Helvetica,sans-Serif" font-size="10.00">fwCom::HasSignals</text>
</a>
</g>
</g>
<!-- Node17&#45;&gt;Node3 -->
<g id="edge16" class="edge"><title>Node17&#45;&gt;Node3</title>
<path fill="none" stroke="midnightblue" d="M1330.31,-109.1C1384.08,-106.557 1461.42,-102.899 1512.41,-100.487"/>
<polygon fill="midnightblue" stroke="midnightblue" points="1330.04,-105.609 1320.22,-109.577 1330.38,-112.601 1330.04,-105.609"/>
</g>
<!-- Node18 -->
<g id="node18" class="node"><title>Node18</title>
<g id="a_node18"><a xlink:href="classfwCom_1_1Signals.html" target="_top" xlink:title="This class proposes a mapping between a SignalKeyType and a SignalBase. ">
<polygon fill="white" stroke="black" points="961,-115.5 961,-134.5 1047,-134.5 1047,-115.5 961,-115.5"/>
<text text-anchor="middle" x="1004" y="-122.5" font-family="Helvetica,sans-Serif" font-size="10.00">fwCom::Signals</text>
</a>
</g>
</g>
<!-- Node18&#45;&gt;Node17 -->
<g id="edge17" class="edge"><title>Node18&#45;&gt;Node17</title>
<path fill="none" stroke="#9a32cd" stroke-dasharray="5,2" d="M1057.16,-122.412C1103.15,-120.13 1169.78,-116.824 1215.56,-114.553"/>
<polygon fill="#9a32cd" stroke="#9a32cd" points="1056.91,-118.92 1047.09,-122.911 1057.26,-125.911 1056.91,-118.92"/>
<text text-anchor="middle" x="1136" y="-125" font-family="Helvetica,sans-Serif" font-size="10.00"> m_signals</text>
</g>
<!-- Node19&#45;&gt;Node18 -->
<g id="edge18" class="edge"><title>Node19&#45;&gt;Node18</title>
<path fill="none" stroke="#9a32cd" stroke-dasharray="5,2" d="M837.864,-130.828C879.755,-129.35 927.6,-127.661 960.969,-126.483"/>
<polygon fill="#9a32cd" stroke="#9a32cd" points="837.505,-127.339 827.635,-131.189 837.752,-134.334 837.505,-127.339"/>
<text text-anchor="middle" x="890" y="-134" font-family="Helvetica,sans-Serif" font-size="10.00"> m_signals</text>
</g>
<!-- Node20 -->
<g id="node20" class="node"><title>Node20</title>
<polygon fill="white" stroke="#bfbfbf" points="1247.5,-140.5 1247.5,-159.5 1288.5,-159.5 1288.5,-140.5 1247.5,-140.5"/>
<text text-anchor="middle" x="1268" y="-147.5" font-family="Helvetica,sans-Serif" font-size="10.00">static</text>
</g>
<!-- Node20&#45;&gt;Node3 -->
<g id="edge21" class="edge"><title>Node20&#45;&gt;Node3</title>
<path fill="none" stroke="#9a32cd" stroke-dasharray="5,2" d="M1298.45,-141.579C1310.62,-138.292 1324.92,-134.677 1338,-132 1397.34,-119.852 1466.24,-110.143 1512.43,-104.26"/>
<polygon fill="#9a32cd" stroke="#9a32cd" points="1297.51,-138.208 1288.8,-144.237 1299.37,-144.957 1297.51,-138.208"/>
<text text-anchor="middle" x="1401" y="-223" font-family="Helvetica,sans-Serif" font-size="10.00"> s_STOPPED_SIG</text>
<text text-anchor="middle" x="1401" y="-212" font-family="Helvetica,sans-Serif" font-size="10.00">s_UPDATED_SIG</text>
<text text-anchor="middle" x="1401" y="-201" font-family="Helvetica,sans-Serif" font-size="10.00">s_UPDATE_SLOT</text>
<text text-anchor="middle" x="1401" y="-190" font-family="Helvetica,sans-Serif" font-size="10.00">s_STARTED_SIG</text>
<text text-anchor="middle" x="1401" y="-179" font-family="Helvetica,sans-Serif" font-size="10.00">s_SWAPKEY_SLOT</text>
<text text-anchor="middle" x="1401" y="-168" font-family="Helvetica,sans-Serif" font-size="10.00">s_SWAP_SLOT</text>
<text text-anchor="middle" x="1401" y="-157" font-family="Helvetica,sans-Serif" font-size="10.00">s_STOP_SLOT</text>
<text text-anchor="middle" x="1401" y="-146" font-family="Helvetica,sans-Serif" font-size="10.00">s_START_SLOT</text>
<text text-anchor="middle" x="1401" y="-135" font-family="Helvetica,sans-Serif" font-size="10.00">s_DEFAULT_OBJECT</text>
</g>
<!-- Node21 -->
<g id="node21" class="node"><title>Node21</title>
<g id="a_node21"><a xlink:href="classfwServices_1_1IHasServices.html" target="_top" xlink:title="Interface for objects that need to manage services. ">
<polygon fill="white" stroke="black" points="1500.5,-311.5 1500.5,-330.5 1631.5,-330.5 1631.5,-311.5 1500.5,-311.5"/>
<text text-anchor="middle" x="1566" y="-318.5" font-family="Helvetica,sans-Serif" font-size="10.00">fwServices::IHasServices</text>
</a>
</g>
</g>
<!-- Node21&#45;&gt;Node2 -->
<g id="edge22" class="edge"><title>Node21&#45;&gt;Node2</title>
<path fill="none" stroke="midnightblue" d="M1641.76,-312.019C1672.29,-308.104 1707.89,-303.217 1740,-298 1749.94,-296.385 1760.55,-294.472 1770.64,-292.561"/>
<polygon fill="midnightblue" stroke="midnightblue" points="1641.1,-308.576 1631.62,-313.309 1641.98,-315.52 1641.1,-308.576"/>
</g>
<!-- Node22 -->
<g id="node22" class="node"><title>Node22</title>
<g id="a_node22"><a xlink:href="classfwCom_1_1helper_1_1SigSlotConnection.html" target="_top" xlink:title="This class provides few tools to ease connect/disconnect between a signal emitter and a slot receiver...">
<polygon fill="white" stroke="black" points="1482.5,-273.5 1482.5,-292.5 1649.5,-292.5 1649.5,-273.5 1482.5,-273.5"/>
<text text-anchor="middle" x="1566" y="-280.5" font-family="Helvetica,sans-Serif" font-size="10.00">fwCom::helper::SigSlotConnection</text>
</a>
</g>
</g>
<!-- Node22&#45;&gt;Node2 -->
<g id="edge23" class="edge"><title>Node22&#45;&gt;Node2</title>
<path fill="none" stroke="#9a32cd" stroke-dasharray="5,2" d="M1659.67,-283C1692.69,-283 1728.98,-283 1758.48,-283"/>
<polygon fill="#9a32cd" stroke="#9a32cd" points="1659.53,-279.5 1649.53,-283 1659.53,-286.5 1659.53,-279.5"/>
<text text-anchor="middle" x="1704" y="-286" font-family="Helvetica,sans-Serif" font-size="10.00"> m_connections</text>
</g>
<!-- Node23 -->
<g id="node23" class="node"><title>Node23</title>
<polygon fill="white" stroke="#bfbfbf" points="1220.5,-276 1220.5,-306 1315.5,-306 1315.5,-276 1220.5,-276"/>
<text text-anchor="start" x="1228.5" y="-294" font-family="Helvetica,sans-Serif" font-size="10.00">std::list&lt; ::fwCom</text>
<text text-anchor="middle" x="1268" y="-283" font-family="Helvetica,sans-Serif" font-size="10.00">::Connection &gt;</text>
</g>
<!-- Node23&#45;&gt;Node22 -->
<g id="edge24" class="edge"><title>Node23&#45;&gt;Node22</title>
<path fill="none" stroke="#9a32cd" stroke-dasharray="5,2" d="M1325.6,-289.47C1369.98,-288.271 1432.37,-286.585 1482.34,-285.234"/>
<polygon fill="#9a32cd" stroke="#9a32cd" points="1325.48,-285.972 1315.58,-289.741 1325.67,-292.97 1325.48,-285.972"/>
<text text-anchor="middle" x="1401" y="-293" font-family="Helvetica,sans-Serif" font-size="10.00"> m_connections</text>
</g>
<!-- Node24 -->
<g id="node24" class="node"><title>Node24</title>
<g id="a_node24"><a xlink:href="structfwCom_1_1Connection.html" target="_top" xlink:title="Class managing Signal&#45;Slot connections. ">
<polygon fill="white" stroke="black" points="952,-281.5 952,-300.5 1056,-300.5 1056,-281.5 952,-281.5"/>
<text text-anchor="middle" x="1004" y="-288.5" font-family="Helvetica,sans-Serif" font-size="10.00">fwCom::Connection</text>
</a>
</g>
</g>
<!-- Node24&#45;&gt;Node23 -->
<g id="edge25" class="edge"><title>Node24&#45;&gt;Node23</title>
<path fill="none" stroke="#9a32cd" stroke-dasharray="5,2" d="M1066.22,-291C1113.31,-291 1177.4,-291 1220.39,-291"/>
<polygon fill="#9a32cd" stroke="#9a32cd" points="1066.14,-287.5 1056.14,-291 1066.14,-294.5 1066.14,-287.5"/>
<text text-anchor="middle" x="1136" y="-294" font-family="Helvetica,sans-Serif" font-size="10.00"> elements</text>
</g>
<!-- Node25 -->
<g id="node25" class="node"><title>Node25</title>
<polygon fill="white" stroke="#bfbfbf" points="671,-276 671,-306 823,-306 823,-276 671,-276"/>
<text text-anchor="start" x="679" y="-294" font-family="Helvetica,sans-Serif" font-size="10.00">std::weak_ptr&lt; SlotConnection</text>
<text text-anchor="middle" x="747" y="-283" font-family="Helvetica,sans-Serif" font-size="10.00">Base &gt;</text>
</g>
<!-- Node25&#45;&gt;Node24 -->
<g id="edge26" class="edge"><title>Node25&#45;&gt;Node24</title>
<path fill="none" stroke="#9a32cd" stroke-dasharray="5,2" d="M833.242,-291C872.537,-291 917.87,-291 951.799,-291"/>
<polygon fill="#9a32cd" stroke="#9a32cd" points="833.129,-287.5 823.129,-291 833.129,-294.5 833.129,-287.5"/>
<text text-anchor="middle" x="890" y="-294" font-family="Helvetica,sans-Serif" font-size="10.00"> m_connectionBase</text>
</g>
<!-- Node26&#45;&gt;Node25 -->
<g id="edge27" class="edge"><title>Node26&#45;&gt;Node25</title>
<path fill="none" stroke="#9a32cd" stroke-dasharray="5,2" d="M509.783,-264.174C559.313,-269.799 622.299,-276.952 670.773,-282.457"/>
<polygon fill="#9a32cd" stroke="#9a32cd" points="510.078,-260.685 499.746,-263.034 509.288,-267.64 510.078,-260.685"/>
<text text-anchor="middle" x="583" y="-283" font-family="Helvetica,sans-Serif" font-size="10.00"> ptr</text>
</g>
<!-- Node27&#45;&gt;Node25 -->
<g id="edge29" class="edge"><title>Node27&#45;&gt;Node25</title>
<path fill="none" stroke="orange" stroke-dasharray="5,2" d="M488.497,-299.123C540.07,-297.496 614.968,-295.133 670.706,-293.375"/>
<polygon fill="orange" stroke="orange" points="488.068,-295.635 478.183,-299.448 488.289,-302.631 488.068,-295.635"/>
<text text-anchor="middle" x="583" y="-302" font-family="Helvetica,sans-Serif" font-size="10.00"> &lt; SlotConnectionBase &gt;</text>
</g>
<!-- Node28&#45;&gt;Node23 -->
<g id="edge31" class="edge"><title>Node28&#45;&gt;Node23</title>
<path fill="none" stroke="orange" stroke-dasharray="5,2" d="M1050.8,-330.326C1058.54,-328.872 1066.5,-327.387 1074,-326 1123.89,-316.776 1181.09,-306.433 1220.18,-299.398"/>
<polygon fill="orange" stroke="orange" points="1049.98,-326.918 1040.8,-332.206 1051.28,-333.797 1049.98,-326.918"/>
<text text-anchor="middle" x="1136" y="-329" font-family="Helvetica,sans-Serif" font-size="10.00"> &lt; ::fwCom::Connection &gt;</text>
</g>
<!-- Node29 -->
<g id="node29" class="node"><title>Node29</title>
<polygon fill="white" stroke="#bfbfbf" points="1338.5,-344 1338.5,-374 1463.5,-374 1463.5,-344 1338.5,-344"/>
<text text-anchor="start" x="1346.5" y="-362" font-family="Helvetica,sans-Serif" font-size="10.00">std::list&lt; ::fwRenderVTK</text>
<text text-anchor="middle" x="1401" y="-351" font-family="Helvetica,sans-Serif" font-size="10.00">::IAdaptor::sptr &gt;</text>
</g>
<!-- Node28&#45;&gt;Node29 -->
<g id="edge35" class="edge"><title>Node28&#45;&gt;Node29</title>
<path fill="none" stroke="orange" stroke-dasharray="5,2" d="M1050.74,-341.316C1121.78,-344.913 1258.72,-351.847 1338.39,-355.881"/>
<polygon fill="orange" stroke="orange" points="1050.91,-337.82 1040.75,-340.81 1050.56,-344.811 1050.91,-337.82"/>
<text text-anchor="start" x="1074.5" y="-363" font-family="Helvetica,sans-Serif" font-size="10.00"> &lt; ::fwRenderVTK::IAdaptor</text>
<text text-anchor="middle" x="1136" y="-352" font-family="Helvetica,sans-Serif" font-size="10.00">::sptr &gt;</text>
</g>
<!-- Node29&#45;&gt;Node1 -->
<g id="edge34" class="edge"><title>Node29&#45;&gt;Node1</title>
<path fill="none" stroke="#9a32cd" stroke-dasharray="5,2" d="M1474.01,-355.949C1586.91,-351.165 1804.44,-341.948 1918.35,-337.121"/>
<polygon fill="#9a32cd" stroke="#9a32cd" points="1473.59,-352.463 1463.75,-356.384 1473.89,-359.457 1473.59,-352.463"/>
<text text-anchor="middle" x="1704" y="-351" font-family="Helvetica,sans-Serif" font-size="10.00"> m_subServices</text>
</g>
</g>
</svg>
        <g id="navigator" transform="translate(0 0)" fill="#404254">
                <rect fill="#f2f5e9" fill-opacity="0.5" stroke="#606060" stroke-width=".5" x="0" y="0" width="60" height="60"/>
                <use id="zoomplus" xlink:href="#zoomPlus" x="17" y="9" onmousedown="handleZoom(evt,'in')"/>
                <use id="zoomminus" xlink:href="#zoomMin" x="42" y="9" onmousedown="handleZoom(evt,'out')"/>
                <use id="reset" xlink:href="#resetDef" x="30" y="36" onmousedown="handleReset()"/>
                <g id="arrowUp" xlink:href="#dirArrow" transform="translate(30 24)" onmousedown="handlePan(0,-1)">
                  <use xlink:href="#rim" fill="#404040">
                        <set attributeName="fill" to="#808080" begin="arrowUp.mouseover" end="arrowUp.mouseout"/>
                  </use>
                  <path fill="none" stroke="white" stroke-width="1.5" d="M0,-3.0v7 M-2.5,-0.5L0,-3.0L2.5,-0.5"/>
                </g>
                <g id="arrowRight" xlink:href="#dirArrow" transform="rotate(90) translate(36 -43)" onmousedown="handlePan(1,0)">
                  <use xlink:href="#rim" fill="#404040">
                        <set attributeName="fill" to="#808080" begin="arrowRight.mouseover" end="arrowRight.mouseout"/>
                  </use>
                  <path fill="none" stroke="white" stroke-width="1.5" d="M0,-3.0v7 M-2.5,-0.5L0,-3.0L2.5,-0.5"/>
                </g>
                <g id="arrowDown" xlink:href="#dirArrow" transform="rotate(180) translate(-30 -48)" onmousedown="handlePan(0,1)">
                  <use xlink:href="#rim" fill="#404040">
                        <set attributeName="fill" to="#808080" begin="arrowDown.mouseover" end="arrowDown.mouseout"/>
                  </use>
                  <path fill="none" stroke="white" stroke-width="1.5" d="M0,-3.0v7 M-2.5,-0.5L0,-3.0L2.5,-0.5"/>
                </g>
                <g id="arrowLeft" xlink:href="#dirArrow" transform="rotate(270) translate(-36 17)" onmousedown="handlePan(-1,0)">
                  <use xlink:href="#rim" fill="#404040">
                        <set attributeName="fill" to="#808080" begin="arrowLeft.mouseover" end="arrowLeft.mouseout"/>
                  </use>
                  <path fill="none" stroke="white" stroke-width="1.5" d="M0,-3.0v7 M-2.5,-0.5L0,-3.0L2.5,-0.5"/>
                </g>
        </g>
        <svg viewBox="0 0 15 15" width="100%" height="30px" preserveAspectRatio="xMaxYMin meet">
         <g id="arrow_out" transform="scale(0.3 0.3)">
          <a xlink:href="classvisuVTKAdaptor_1_1SImageMultiDistances__coll__graph_org.svg" target="_base">
           <rect id="button" ry="5" rx="5" y="6" x="6" height="38" width="38"
                fill="#f2f5e9" fill-opacity="0.5" stroke="#606060" stroke-width="1.0"/>
           <path id="arrow"
             d="M 11.500037,31.436501 C 11.940474,20.09759 22.043105,11.32322 32.158766,21.979434 L 37.068811,17.246167 C 37.068811,17.246167 37.088388,32 37.088388,32 L 22.160133,31.978069 C 22.160133,31.978069 26.997745,27.140456 26.997745,27.140456 C 18.528582,18.264221 13.291696,25.230495 11.500037,31.436501 z"
             style="fill:#404040;"/>
          </a>
         </g>
        </svg>
</svg>
