<?xml version="1.0" encoding="UTF-8" standalone="no"?>
<!DOCTYPE svg PUBLIC "-//W3C//DTD SVG 1.1//EN"
 "http://www.w3.org/Graphics/SVG/1.1/DTD/svg11.dtd">
<!-- Generated by graphviz version 2.26.3 (20100126.1600)
 -->
<!-- Title: fwGui::registrar::ToolBarRegistrar Pages: 1 -->
<svg width="836pt" height="224pt"
 viewBox="0.00 0.00 836.00 224.00" xmlns="http://www.w3.org/2000/svg" xmlns:xlink="http://www.w3.org/1999/xlink">
<g id="graph1" class="graph" transform="scale(1 1) rotate(0) translate(4 220)">
<title>fwGui::registrar::ToolBarRegistrar</title>
<polygon fill="white" stroke="white" points="-4,5 -4,-220 833,-220 833,5 -4,5"/>
<!-- Node1 -->
<g id="node1" class="node"><title>Node1</title>
<polygon fill="#bfbfbf" stroke="black" points="704.5,-111 704.5,-145 827.5,-145 827.5,-111 704.5,-111"/>
<text text-anchor="start" x="712.5" y="-132" font-family="Helvetica,sans-Serif" font-size="10.00">fwGui::registrar::ToolBar</text>
<text text-anchor="middle" x="766" y="-119" font-family="Helvetica,sans-Serif" font-size="10.00">Registrar</text>
</g>
<!-- Node2 -->
<g id="node2" class="node"><title>Node2</title>
<a xlink:href="classfwGui_1_1GuiBaseObject.html" target="_top" xlink:title="Base class for all fwGui&#39;s classes. ">
<polygon fill="white" stroke="black" points="490,-188.5 490,-209.5 604,-209.5 604,-188.5 490,-188.5"/>
<text text-anchor="middle" x="547" y="-196.5" font-family="Helvetica,sans-Serif" font-size="10.00">fwGui::GuiBaseObject</text>
</a>
</g>
<!-- Node2&#45;&gt;Node1 -->
<g id="edge2" class="edge"><title>Node2&#45;&gt;Node1</title>
<path fill="none" stroke="midnightblue" d="M614.246,-189.575C637.389,-185.255 663.205,-179.217 686,-171 704.542,-164.316 724.05,-153.907 739.16,-145.005"/>
<polygon fill="midnightblue" stroke="midnightblue" points="613.391,-186.172 604.165,-191.381 614.626,-193.062 613.391,-186.172"/>
</g>
<!-- Node3 -->
<g id="node4" class="node"><title>Node3</title>
<a xlink:href="classfwCore_1_1BaseObject.html" target="_top" xlink:title="Base class for all FW4SPL&#39;s classes. ">
<polygon fill="white" stroke="black" points="212.5,-188.5 212.5,-209.5 317.5,-209.5 317.5,-188.5 212.5,-188.5"/>
<text text-anchor="middle" x="265" y="-196.5" font-family="Helvetica,sans-Serif" font-size="10.00">fwCore::BaseObject</text>
</a>
</g>
<!-- Node3&#45;&gt;Node2 -->
<g id="edge4" class="edge"><title>Node3&#45;&gt;Node2</title>
<path fill="none" stroke="midnightblue" d="M327.762,-199C376.207,-199 442.683,-199 489.699,-199"/>
<polygon fill="midnightblue" stroke="midnightblue" points="327.711,-195.5 317.711,-199 327.711,-202.5 327.711,-195.5"/>
</g>
<!-- Node4 -->
<g id="node6" class="node"><title>Node4</title>
<polygon fill="white" stroke="#bfbfbf" points="0.5,-182 0.5,-216 131.5,-216 131.5,-182 0.5,-182"/>
<text text-anchor="start" x="8.5" y="-203" font-family="Helvetica,sans-Serif" font-size="10.00">std::enable_shared</text>
<text text-anchor="middle" x="66" y="-190" font-family="Helvetica,sans-Serif" font-size="10.00">_from_this&lt; BaseObject &gt;</text>
</g>
<!-- Node4&#45;&gt;Node3 -->
<g id="edge6" class="edge"><title>Node4&#45;&gt;Node3</title>
<path fill="none" stroke="midnightblue" d="M141.983,-199C165.434,-199 190.734,-199 212.256,-199"/>
<polygon fill="midnightblue" stroke="midnightblue" points="141.712,-195.5 131.712,-199 141.712,-202.5 141.712,-195.5"/>
</g>
<!-- Node5 -->
<g id="node8" class="node"><title>Node5</title>
<polygon fill="white" stroke="#bfbfbf" points="492,-73.5 492,-120.5 602,-120.5 602,-73.5 492,-73.5"/>
<text text-anchor="start" x="500" y="-107.5" font-family="Helvetica,sans-Serif" font-size="10.00">std::map&lt; std::string,</text>
<text text-anchor="start" x="500" y="-94.5" font-family="Helvetica,sans-Serif" font-size="10.00"> std::pair&lt; unsigned</text>
<text text-anchor="middle" x="547" y="-81.5" font-family="Helvetica,sans-Serif" font-size="10.00"> int, bool &gt; &gt;</text>
</g>
<!-- Node5&#45;&gt;Node1 -->
<g id="edge8" class="edge"><title>Node5&#45;&gt;Node1</title>
<path fill="none" stroke="#9a32cd" stroke-dasharray="5,2" d="M612.292,-97.0481C635.678,-97.9171 662.148,-99.8838 686,-104 695.717,-105.677 705.916,-108.156 715.656,-110.893"/>
<polygon fill="#9a32cd" stroke="#9a32cd" points="612.236,-93.5447 602.132,-96.7309 612.017,-100.541 612.236,-93.5447"/>
<text text-anchor="middle" x="654" y="-134" font-family="Helvetica,sans-Serif" font-size="10.00"> m_actionSids</text>
<text text-anchor="middle" x="654" y="-121" font-family="Helvetica,sans-Serif" font-size="10.00">m_editorSids</text>
<text text-anchor="middle" x="654" y="-108" font-family="Helvetica,sans-Serif" font-size="10.00">m_menuSids</text>
</g>
<!-- Node6 -->
<g id="node10" class="node"><title>Node6</title>
<a xlink:title="STL class. ">
<polygon fill="white" stroke="#bfbfbf" points="235,-131.5 235,-152.5 295,-152.5 295,-131.5 235,-131.5"/>
<text text-anchor="middle" x="265" y="-139.5" font-family="Helvetica,sans-Serif" font-size="10.00">std::string</text>
</a>
</g>
<!-- Node6&#45;&gt;Node1 -->
<g id="edge20" class="edge"><title>Node6&#45;&gt;Node1</title>
<path fill="none" stroke="#9a32cd" stroke-dasharray="5,2" d="M305.637,-144.652C380.884,-148.996 546.922,-155.926 686,-143 691.91,-142.451 698.033,-141.678 704.142,-140.77"/>
<polygon fill="#9a32cd" stroke="#9a32cd" points="305.398,-141.132 295.208,-144.033 304.983,-148.12 305.398,-141.132"/>
<text text-anchor="middle" x="547" y="-154" font-family="Helvetica,sans-Serif" font-size="10.00"> m_sid</text>
</g>
<!-- Node6&#45;&gt;Node5 -->
<g id="edge10" class="edge"><title>Node6&#45;&gt;Node5</title>
<path fill="none" stroke="#9a32cd" stroke-dasharray="5,2" d="M305.2,-135.117C315.255,-133.42 326.018,-131.624 336,-130 388.881,-121.396 449.291,-111.991 491.881,-105.431"/>
<polygon fill="#9a32cd" stroke="#9a32cd" points="304.317,-131.717 295.042,-136.838 305.487,-138.618 304.317,-131.717"/>
<text text-anchor="middle" x="404" y="-134" font-family="Helvetica,sans-Serif" font-size="10.00"> keys</text>
</g>
<!-- Node7 -->
<g id="node12" class="node"><title>Node7</title>
<a xlink:title="STL class. ">
<polygon fill="white" stroke="#bfbfbf" points="18.5,-125 18.5,-159 113.5,-159 113.5,-125 18.5,-125"/>
<text text-anchor="start" x="26.5" y="-146" font-family="Helvetica,sans-Serif" font-size="10.00">std::basic_string&lt;</text>
<text text-anchor="middle" x="66" y="-133" font-family="Helvetica,sans-Serif" font-size="10.00"> char &gt;</text>
</a>
</g>
<!-- Node7&#45;&gt;Node6 -->
<g id="edge12" class="edge"><title>Node7&#45;&gt;Node6</title>
<path fill="none" stroke="midnightblue" d="M124.108,-142C160.329,-142 205.457,-142 234.731,-142"/>
<polygon fill="midnightblue" stroke="midnightblue" points="123.665,-138.5 113.665,-142 123.665,-145.5 123.665,-138.5"/>
</g>
<!-- Node8 -->
<g id="node14" class="node"><title>Node8</title>
<a xlink:title="STL class. ">
<polygon fill="white" stroke="#bfbfbf" points="219,-56.5 219,-77.5 311,-77.5 311,-56.5 219,-56.5"/>
<text text-anchor="middle" x="265" y="-64.5" font-family="Helvetica,sans-Serif" font-size="10.00">std::map&lt; K, T &gt;</text>
</a>
</g>
<!-- Node8&#45;&gt;Node5 -->
<g id="edge14" class="edge"><title>Node8&#45;&gt;Node5</title>
<path fill="none" stroke="orange" stroke-dasharray="5,2" d="M321.11,-61.8165C363.052,-59.255 421.599,-58.469 472,-68 478.859,-69.297 485.899,-71.1936 492.789,-73.4061"/>
<polygon fill="orange" stroke="orange" points="320.835,-58.327 311.088,-62.4815 321.298,-65.3116 320.835,-58.327"/>
<text text-anchor="start" x="360.5" y="-98" font-family="Helvetica,sans-Serif" font-size="10.00"> &lt; std::string, std</text>
<text text-anchor="start" x="360.5" y="-85" font-family="Helvetica,sans-Serif" font-size="10.00">::pair&lt; unsigned int,</text>
<text text-anchor="middle" x="404" y="-72" font-family="Helvetica,sans-Serif" font-size="10.00"> bool &gt; &gt;</text>
</g>
<!-- Node9 -->
<g id="node16" class="node"><title>Node9</title>
<polygon fill="white" stroke="#bfbfbf" points="51.5,-79.5 51.5,-100.5 80.5,-100.5 80.5,-79.5 51.5,-79.5"/>
<text text-anchor="middle" x="66" y="-87.5" font-family="Helvetica,sans-Serif" font-size="10.00">K</text>
</g>
<!-- Node9&#45;&gt;Node8 -->
<g id="edge16" class="edge"><title>Node9&#45;&gt;Node8</title>
<path fill="none" stroke="#9a32cd" stroke-dasharray="5,2" d="M90.8601,-87.1267C122.807,-83.4343 178.896,-76.9517 218.783,-72.3417"/>
<polygon fill="#9a32cd" stroke="#9a32cd" points="90.1649,-83.6837 80.6329,-88.3088 90.9687,-90.6374 90.1649,-83.6837"/>
<text text-anchor="middle" x="172" y="-83" font-family="Helvetica,sans-Serif" font-size="10.00"> keys</text>
</g>
<!-- Node10 -->
<g id="node18" class="node"><title>Node10</title>
<polygon fill="white" stroke="#bfbfbf" points="51.5,-23.5 51.5,-44.5 80.5,-44.5 80.5,-23.5 51.5,-23.5"/>
<text text-anchor="middle" x="66" y="-31.5" font-family="Helvetica,sans-Serif" font-size="10.00">T</text>
</g>
<!-- Node10&#45;&gt;Node8 -->
<g id="edge18" class="edge"><title>Node10&#45;&gt;Node8</title>
<path fill="none" stroke="#9a32cd" stroke-dasharray="5,2" d="M90.8601,-38.1225C122.807,-43.4203 178.896,-52.7215 218.783,-59.3358"/>
<polygon fill="#9a32cd" stroke="#9a32cd" points="91.0708,-34.6098 80.6329,-36.4266 89.9256,-41.5154 91.0708,-34.6098"/>
<text text-anchor="middle" x="172" y="-58" font-family="Helvetica,sans-Serif" font-size="10.00"> elements</text>
</g>
<!-- Node12 -->
<g id="node23" class="node"><title>Node12</title>
<a xlink:title="STL class. ">
<polygon fill="white" stroke="#bfbfbf" points="221.5,-7.5 221.5,-28.5 308.5,-28.5 308.5,-7.5 221.5,-7.5"/>
<text text-anchor="middle" x="265" y="-15.5" font-family="Helvetica,sans-Serif" font-size="10.00">std::vector&lt; T &gt;</text>
</a>
</g>
<!-- Node10&#45;&gt;Node12 -->
<g id="edge26" class="edge"><title>Node10&#45;&gt;Node12</title>
<path fill="none" stroke="#9a32cd" stroke-dasharray="5,2" d="M90.781,-28.4447C107.429,-24.9922 129.914,-20.8674 150,-19 173.558,-16.8098 199.947,-16.433 221.499,-16.6601"/>
<polygon fill="#9a32cd" stroke="#9a32cd" points="89.8144,-25.0721 80.7673,-30.5858 91.2781,-31.9174 89.8144,-25.0721"/>
<text text-anchor="middle" x="172" y="-23" font-family="Helvetica,sans-Serif" font-size="10.00"> elements</text>
</g>
<!-- Node11 -->
<g id="node21" class="node"><title>Node11</title>
<polygon fill="white" stroke="#bfbfbf" points="490.5,-0.5 490.5,-47.5 603.5,-47.5 603.5,-0.5 490.5,-0.5"/>
<text text-anchor="start" x="498.5" y="-34.5" font-family="Helvetica,sans-Serif" font-size="10.00">std::vector&lt; ::fwGui</text>
<text text-anchor="start" x="498.5" y="-21.5" font-family="Helvetica,sans-Serif" font-size="10.00">::IMenuItemCallback::</text>
<text text-anchor="middle" x="547" y="-8.5" font-family="Helvetica,sans-Serif" font-size="10.00">sptr &gt;</text>
</g>
<!-- Node11&#45;&gt;Node1 -->
<g id="edge22" class="edge"><title>Node11&#45;&gt;Node1</title>
<path fill="none" stroke="#9a32cd" stroke-dasharray="5,2" d="M613.164,-48.1972C636.531,-57.3842 662.764,-68.4385 686,-80 704.562,-89.2357 724.562,-101.236 739.921,-110.927"/>
<polygon fill="#9a32cd" stroke="#9a32cd" points="614.273,-44.8732 603.684,-44.5099 611.735,-51.397 614.273,-44.8732"/>
<text text-anchor="middle" x="654" y="-84" font-family="Helvetica,sans-Serif" font-size="10.00"> m_callbacks</text>
</g>
<!-- Node12&#45;&gt;Node11 -->
<g id="edge24" class="edge"><title>Node12&#45;&gt;Node11</title>
<path fill="none" stroke="orange" stroke-dasharray="5,2" d="M318.86,-17.3504C360.649,-17.0666 420.019,-17.1435 472,-19 477.869,-19.2096 483.992,-19.5 490.098,-19.8363"/>
<polygon fill="orange" stroke="orange" points="318.603,-13.8522 308.63,-17.4295 318.657,-20.852 318.603,-13.8522"/>
<text text-anchor="start" x="336.5" y="-36" font-family="Helvetica,sans-Serif" font-size="10.00"> &lt; ::fwGui::IMenuItemCallback</text>
<text text-anchor="middle" x="404" y="-23" font-family="Helvetica,sans-Serif" font-size="10.00">::sptr &gt;</text>
</g>
</g>
</svg>
