<?xml version="1.0" encoding="UTF-8" standalone="no"?>
<!DOCTYPE svg PUBLIC "-//W3C//DTD SVG 1.1//EN"
 "http://www.w3.org/Graphics/SVG/1.1/DTD/svg11.dtd">
<!-- Generated by graphviz version 2.36.0 (20140111.2315)
 -->
<!-- Title: fwGdcmIO::writer::SeriesDB Pages: 1 -->
<svg width="1168pt" height="190pt"
 viewBox="0.00 0.00 1168.00 190.00" xmlns="http://www.w3.org/2000/svg" xmlns:xlink="http://www.w3.org/1999/xlink">
<g id="graph0" class="graph" transform="scale(1 1) rotate(0) translate(4 186)">
<title>fwGdcmIO::writer::SeriesDB</title>
<polygon fill="white" stroke="none" points="-4,4 -4,-186 1164,-186 1164,4 -4,4"/>
<!-- Node1 -->
<g id="node1" class="node"><title>Node1</title>
<polygon fill="#bfbfbf" stroke="black" points="1018,-49.5 1018,-68.5 1160,-68.5 1160,-49.5 1018,-49.5"/>
<text text-anchor="middle" x="1089" y="-56.5" font-family="Helvetica,sans-Serif" font-size="10.00">fwGdcmIO::writer::SeriesDB</text>
</g>
<!-- Node2 -->
<g id="node2" class="node"><title>Node2</title>
<g id="a_node2"><a xlink:href="classfwDataIO_1_1writer_1_1GenericObjectWriter.html" target="_top" xlink:title="fwDataIO::writer::Generic\lObjectWriter\&lt; ::fwMedData\l::SeriesDB \&gt;">
<polygon fill="white" stroke="black" points="842.5,-98.5 842.5,-139.5 979.5,-139.5 979.5,-98.5 842.5,-98.5"/>
<text text-anchor="start" x="850.5" y="-127.5" font-family="Helvetica,sans-Serif" font-size="10.00">fwDataIO::writer::Generic</text>
<text text-anchor="start" x="850.5" y="-116.5" font-family="Helvetica,sans-Serif" font-size="10.00">ObjectWriter&lt; ::fwMedData</text>
<text text-anchor="middle" x="911" y="-105.5" font-family="Helvetica,sans-Serif" font-size="10.00">::SeriesDB &gt;</text>
</a>
</g>
</g>
<!-- Node2&#45;&gt;Node1 -->
<g id="edge1" class="edge"><title>Node2&#45;&gt;Node1</title>
<path fill="none" stroke="midnightblue" d="M982.081,-95.1089C1009.3,-85.8283 1038.92,-75.7333 1059.89,-68.5829"/>
<polygon fill="midnightblue" stroke="midnightblue" points="980.905,-91.8118 972.569,-98.3514 983.164,-98.4374 980.905,-91.8118"/>
</g>
<!-- Node3 -->
<g id="node3" class="node"><title>Node3</title>
<g id="a_node3"><a xlink:href="classfwDataIO_1_1writer_1_1IObjectWriter.html" target="_top" xlink:title="Base class for all object writers. ">
<polygon fill="white" stroke="black" points="372,-125 372,-155 498,-155 498,-125 372,-125"/>
<text text-anchor="start" x="380" y="-143" font-family="Helvetica,sans-Serif" font-size="10.00">fwDataIO::writer::IObject</text>
<text text-anchor="middle" x="435" y="-132" font-family="Helvetica,sans-Serif" font-size="10.00">Writer</text>
</a>
</g>
</g>
<!-- Node3&#45;&gt;Node2 -->
<g id="edge2" class="edge"><title>Node3&#45;&gt;Node2</title>
<path fill="none" stroke="midnightblue" d="M508.539,-142.03C586.629,-143.437 714.406,-143.486 824,-133 829.873,-132.438 835.952,-131.722 842.039,-130.913"/>
<polygon fill="midnightblue" stroke="midnightblue" points="508.393,-138.527 498.327,-141.833 508.258,-145.526 508.393,-138.527"/>
</g>
<!-- Node8 -->
<g id="node8" class="node"><title>Node8</title>
<g id="a_node8"><a xlink:href="classfwDataIO_1_1writer_1_1GenericObjectWriter.html" target="_top" xlink:title="generic class for all object writers. ">
<polygon fill="white" stroke="black" points="536.5,-98 536.5,-128 679.5,-128 679.5,-98 536.5,-98"/>
<text text-anchor="start" x="544.5" y="-116" font-family="Helvetica,sans-Serif" font-size="10.00">fwDataIO::writer::Generic</text>
<text text-anchor="middle" x="608" y="-105" font-family="Helvetica,sans-Serif" font-size="10.00">ObjectWriter&lt; DATATYPE &gt;</text>
</a>
</g>
</g>
<!-- Node3&#45;&gt;Node8 -->
<g id="edge8" class="edge"><title>Node3&#45;&gt;Node8</title>
<path fill="none" stroke="midnightblue" d="M508.24,-128.594C517.573,-127.12 527.122,-125.612 536.428,-124.143"/>
<polygon fill="midnightblue" stroke="midnightblue" points="507.55,-125.159 498.219,-130.176 508.642,-132.073 507.55,-125.159"/>
</g>
<!-- Node4 -->
<g id="node4" class="node"><title>Node4</title>
<g id="a_node4"><a xlink:href="classfwCore_1_1BaseObject.html" target="_top" xlink:title="Base class for all FW4SPL&#39;s classes. ">
<polygon fill="white" stroke="black" points="170.5,-156.5 170.5,-175.5 275.5,-175.5 275.5,-156.5 170.5,-156.5"/>
<text text-anchor="middle" x="223" y="-163.5" font-family="Helvetica,sans-Serif" font-size="10.00">fwCore::BaseObject</text>
</a>
</g>
</g>
<!-- Node4&#45;&gt;Node3 -->
<g id="edge3" class="edge"><title>Node4&#45;&gt;Node3</title>
<path fill="none" stroke="midnightblue" d="M285.771,-158.352C312.845,-155 344.566,-151.073 371.701,-147.713"/>
<polygon fill="midnightblue" stroke="midnightblue" points="285.135,-154.904 275.641,-159.606 285.995,-161.851 285.135,-154.904"/>
</g>
<!-- Node5 -->
<g id="node5" class="node"><title>Node5</title>
<polygon fill="white" stroke="#bfbfbf" points="0.5,-152 0.5,-182 131.5,-182 131.5,-152 0.5,-152"/>
<text text-anchor="start" x="8.5" y="-170" font-family="Helvetica,sans-Serif" font-size="10.00">std::enable_shared</text>
<text text-anchor="middle" x="66" y="-159" font-family="Helvetica,sans-Serif" font-size="10.00">_from_this&lt; BaseObject &gt;</text>
</g>
<!-- Node5&#45;&gt;Node4 -->
<g id="edge4" class="edge"><title>Node5&#45;&gt;Node4</title>
<path fill="none" stroke="midnightblue" d="M142.089,-166.516C151.581,-166.454 161.12,-166.393 170.138,-166.335"/>
<polygon fill="midnightblue" stroke="midnightblue" points="141.813,-163.017 131.836,-166.582 141.858,-170.017 141.813,-163.017"/>
</g>
<!-- Node6 -->
<g id="node6" class="node"><title>Node6</title>
<g id="a_node6"><a xlink:title="STL class. ">
<polygon fill="white" stroke="#bfbfbf" points="193,-111.5 193,-130.5 253,-130.5 253,-111.5 193,-111.5"/>
<text text-anchor="middle" x="223" y="-118.5" font-family="Helvetica,sans-Serif" font-size="10.00">std::string</text>
</a>
</g>
</g>
<!-- Node6&#45;&gt;Node3 -->
<g id="edge5" class="edge"><title>Node6&#45;&gt;Node3</title>
<path fill="none" stroke="#9a32cd" stroke-dasharray="5,2" d="M263.442,-124.569C293.941,-127.328 336.742,-131.2 371.837,-134.376"/>
<polygon fill="#9a32cd" stroke="#9a32cd" points="263.474,-121.057 253.2,-123.642 262.844,-128.029 263.474,-121.057"/>
<text text-anchor="middle" x="324" y="-135" font-family="Helvetica,sans-Serif" font-size="10.00"> m_extension</text>
</g>
<!-- Node7 -->
<g id="node7" class="node"><title>Node7</title>
<g id="a_node7"><a xlink:title="STL class. ">
<polygon fill="white" stroke="#bfbfbf" points="18.5,-103 18.5,-133 113.5,-133 113.5,-103 18.5,-103"/>
<text text-anchor="start" x="26.5" y="-121" font-family="Helvetica,sans-Serif" font-size="10.00">std::basic_string&lt;</text>
<text text-anchor="middle" x="66" y="-110" font-family="Helvetica,sans-Serif" font-size="10.00"> char &gt;</text>
</a>
</g>
</g>
<!-- Node7&#45;&gt;Node6 -->
<g id="edge6" class="edge"><title>Node7&#45;&gt;Node6</title>
<path fill="none" stroke="midnightblue" d="M123.677,-119.097C147.063,-119.55 173.181,-120.055 192.618,-120.431"/>
<polygon fill="midnightblue" stroke="midnightblue" points="123.571,-115.594 113.505,-118.9 123.435,-122.593 123.571,-115.594"/>
</g>
<!-- Node8&#45;&gt;Node2 -->
<g id="edge7" class="edge"><title>Node8&#45;&gt;Node2</title>
<path fill="none" stroke="orange" stroke-dasharray="5,2" d="M689.57,-114.606C737.333,-115.558 797.18,-116.751 842.457,-117.654"/>
<polygon fill="orange" stroke="orange" points="689.639,-111.107 679.571,-114.407 689.499,-118.105 689.639,-111.107"/>
<text text-anchor="middle" x="761" y="-121" font-family="Helvetica,sans-Serif" font-size="10.00"> &lt; ::fwMedData::SeriesDB &gt;</text>
</g>
<!-- Node9 -->
<g id="node9" class="node"><title>Node9</title>
<g id="a_node9"><a xlink:href="structfwData_1_1location_1_1enableFolder.html" target="_top" xlink:title="fwData::location::enable\lFolder\&lt; ::fwDataIO::writer\l::IObjectWriter \&gt;">
<polygon fill="white" stroke="black" points="845.5,-38.5 845.5,-79.5 976.5,-79.5 976.5,-38.5 845.5,-38.5"/>
<text text-anchor="start" x="853.5" y="-67.5" font-family="Helvetica,sans-Serif" font-size="10.00">fwData::location::enable</text>
<text text-anchor="start" x="853.5" y="-56.5" font-family="Helvetica,sans-Serif" font-size="10.00">Folder&lt; ::fwDataIO::writer</text>
<text text-anchor="middle" x="911" y="-45.5" font-family="Helvetica,sans-Serif" font-size="10.00">::IObjectWriter &gt;</text>
</a>
</g>
</g>
<!-- Node9&#45;&gt;Node1 -->
<g id="edge9" class="edge"><title>Node9&#45;&gt;Node1</title>
<path fill="none" stroke="midnightblue" d="M986.743,-59C997.054,-59 1007.61,-59 1017.84,-59"/>
<polygon fill="midnightblue" stroke="midnightblue" points="986.537,-55.5001 976.537,-59 986.536,-62.5001 986.537,-55.5001"/>
</g>
<!-- Node10 -->
<g id="node10" class="node"><title>Node10</title>
<g id="a_node10"><a xlink:href="structfwData_1_1location_1_1enableFolder.html" target="_top" xlink:title="This class is derived by reader/writer. ">
<polygon fill="white" stroke="black" points="547,-44 547,-74 669,-74 669,-44 547,-44"/>
<text text-anchor="start" x="555" y="-62" font-family="Helvetica,sans-Serif" font-size="10.00">fwData::location::enable</text>
<text text-anchor="middle" x="608" y="-51" font-family="Helvetica,sans-Serif" font-size="10.00">Folder&lt; RW &gt;</text>
</a>
</g>
</g>
<!-- Node10&#45;&gt;Node9 -->
<g id="edge10" class="edge"><title>Node10&#45;&gt;Node9</title>
<path fill="none" stroke="orange" stroke-dasharray="5,2" d="M679.32,-59C729.556,-59 796.624,-59 845.491,-59"/>
<polygon fill="orange" stroke="orange" points="679.188,-55.5001 669.188,-59 679.188,-62.5001 679.188,-55.5001"/>
<text text-anchor="start" x="715.5" y="-73" font-family="Helvetica,sans-Serif" font-size="10.00"> &lt; ::fwDataIO::writer</text>
<text text-anchor="middle" x="761" y="-62" font-family="Helvetica,sans-Serif" font-size="10.00">::IObjectWriter &gt;</text>
</g>
<!-- Node11 -->
<g id="node11" class="node"><title>Node11</title>
<g id="a_node11"><a xlink:href="classfwTools_1_1ProgressAdviser.html" target="_top" xlink:title="Subclasses Inherited from ProgressAdviser can notify progression This class is used as base class to ...">
<polygon fill="white" stroke="black" points="846.5,-0.5 846.5,-19.5 975.5,-19.5 975.5,-0.5 846.5,-0.5"/>
<text text-anchor="middle" x="911" y="-7.5" font-family="Helvetica,sans-Serif" font-size="10.00">fwTools::ProgressAdviser</text>
</a>
</g>
</g>
<!-- Node11&#45;&gt;Node1 -->
<g id="edge11" class="edge"><title>Node11&#45;&gt;Node1</title>
<path fill="none" stroke="midnightblue" d="M956.216,-22.3101C986.434,-30.7232 1025.9,-41.7098 1053.73,-49.4601"/>
<polygon fill="midnightblue" stroke="midnightblue" points="956.925,-18.8744 946.352,-19.564 955.047,-25.6179 956.925,-18.8744"/>
</g>
<!-- Node12 -->
<g id="node12" class="node"><title>Node12</title>
<polygon fill="white" stroke="#bfbfbf" points="580,-0.5 580,-19.5 636,-19.5 636,-0.5 580,-0.5"/>
<text text-anchor="middle" x="608" y="-7.5" font-family="Helvetica,sans-Serif" font-size="10.00">trackable</text>
</g>
<!-- Node12&#45;&gt;Node11 -->
<g id="edge12" class="edge"><title>Node12&#45;&gt;Node11</title>
<path fill="none" stroke="midnightblue" d="M646.274,-10C696.199,-10 785.522,-10 846.243,-10"/>
<polygon fill="midnightblue" stroke="midnightblue" points="646.243,-6.5001 636.243,-10 646.243,-13.5001 646.243,-6.5001"/>
</g>
</g>
</svg>
