<?xml version="1.0" encoding="UTF-8" standalone="no"?>
<!DOCTYPE svg PUBLIC "-//W3C//DTD SVG 1.1//EN"
 "http://www.w3.org/Graphics/SVG/1.1/DTD/svg11.dtd">
<!-- Generated by graphviz version 2.26.3 (20100126.1600)
 -->
<!-- Title: fwDataIO::reader::GenericObjectReader&lt; DATATYPE &gt; Pages: 1 -->
<svg width="1162pt" height="638pt"
 viewBox="0.00 0.00 1162.00 638.00" xmlns="http://www.w3.org/2000/svg" xmlns:xlink="http://www.w3.org/1999/xlink">
<g id="graph1" class="graph" transform="scale(1 1) rotate(0) translate(4 634)">
<title>fwDataIO::reader::GenericObjectReader&lt; DATATYPE &gt;</title>
<polygon fill="white" stroke="white" points="-4,5 -4,-634 1159,-634 1159,5 -4,5"/>
<!-- Node1 -->
<g id="node1" class="node"><title>Node1</title>
<polygon fill="#bfbfbf" stroke="black" points="482,-337 482,-371 630,-371 630,-337 482,-337"/>
<text text-anchor="start" x="490" y="-358" font-family="Helvetica,sans-Serif" font-size="10.00">fwDataIO::reader::Generic</text>
<text text-anchor="middle" x="556" y="-345" font-family="Helvetica,sans-Serif" font-size="10.00">ObjectReader&lt; DATATYPE &gt;</text>
</g>
<!-- Node5 -->
<g id="node9" class="node"><title>Node5</title>
<a xlink:href="classfwDataIO_1_1reader_1_1GenericObjectReader.html" target="_top" xlink:title="fwDataIO::reader::Generic\lObjectReader\&lt; ::fwData\l::Mesh \&gt;">
<polygon fill="white" stroke="black" points="804.5,-555.5 804.5,-602.5 935.5,-602.5 935.5,-555.5 804.5,-555.5"/>
<text text-anchor="start" x="812.5" y="-589.5" font-family="Helvetica,sans-Serif" font-size="10.00">fwDataIO::reader::Generic</text>
<text text-anchor="start" x="812.5" y="-576.5" font-family="Helvetica,sans-Serif" font-size="10.00">ObjectReader&lt; ::fwData</text>
<text text-anchor="middle" x="870" y="-563.5" font-family="Helvetica,sans-Serif" font-size="10.00">::Mesh &gt;</text>
</a>
</g>
<!-- Node1&#45;&gt;Node5 -->
<g id="edge8" class="edge"><title>Node1&#45;&gt;Node5</title>
<path fill="none" stroke="orange" stroke-dasharray="5,2" d="M567.152,-380.704C581.53,-412.122 609.357,-463.93 648,-495 693.603,-531.667 756.92,-553.502 804.268,-565.677"/>
<polygon fill="orange" stroke="orange" points="570.22,-378.989 562.96,-371.272 563.824,-381.832 570.22,-378.989"/>
<text text-anchor="middle" x="711" y="-560" font-family="Helvetica,sans-Serif" font-size="10.00"> &lt; ::fwData::Mesh &gt;</text>
</g>
<!-- Node8 -->
<g id="node15" class="node"><title>Node8</title>
<a xlink:href="classfwDataIO_1_1reader_1_1GenericObjectReader.html" target="_top" xlink:title="fwDataIO::reader::Generic\lObjectReader\&lt; ::fwMedData\l::SeriesDB \&gt;">
<polygon fill="white" stroke="black" points="799,-469.5 799,-516.5 941,-516.5 941,-469.5 799,-469.5"/>
<text text-anchor="start" x="807" y="-503.5" font-family="Helvetica,sans-Serif" font-size="10.00">fwDataIO::reader::Generic</text>
<text text-anchor="start" x="807" y="-490.5" font-family="Helvetica,sans-Serif" font-size="10.00">ObjectReader&lt; ::fwMedData</text>
<text text-anchor="middle" x="870" y="-477.5" font-family="Helvetica,sans-Serif" font-size="10.00">::SeriesDB &gt;</text>
</a>
</g>
<!-- Node1&#45;&gt;Node8 -->
<g id="edge14" class="edge"><title>Node1&#45;&gt;Node8</title>
<path fill="none" stroke="orange" stroke-dasharray="5,2" d="M577.283,-378.897C594.536,-397.544 620.439,-422.28 648,-437 694.982,-462.093 753.605,-476.26 798.81,-484.064"/>
<polygon fill="orange" stroke="orange" points="579.74,-376.396 570.438,-371.325 574.548,-381.09 579.74,-376.396"/>
<text text-anchor="middle" x="711" y="-482" font-family="Helvetica,sans-Serif" font-size="10.00"> &lt; ::fwMedData::SeriesDB &gt;</text>
</g>
<!-- Node12 -->
<g id="node23" class="node"><title>Node12</title>
<a xlink:href="classfwDataIO_1_1reader_1_1GenericObjectReader.html" target="_top" xlink:title="fwDataIO::reader::Generic\lObjectReader\&lt; ::fwData\l::StructureTraitsDictionary \&gt;">
<polygon fill="white" stroke="black" points="800,-396.5 800,-443.5 940,-443.5 940,-396.5 800,-396.5"/>
<text text-anchor="start" x="808" y="-430.5" font-family="Helvetica,sans-Serif" font-size="10.00">fwDataIO::reader::Generic</text>
<text text-anchor="start" x="808" y="-417.5" font-family="Helvetica,sans-Serif" font-size="10.00">ObjectReader&lt; ::fwData</text>
<text text-anchor="middle" x="870" y="-404.5" font-family="Helvetica,sans-Serif" font-size="10.00">::StructureTraitsDictionary &gt;</text>
</a>
</g>
<!-- Node1&#45;&gt;Node12 -->
<g id="edge22" class="edge"><title>Node1&#45;&gt;Node12</title>
<path fill="none" stroke="orange" stroke-dasharray="5,2" d="M613.6,-374.288C624.915,-377.845 636.762,-381.274 648,-384 698.277,-396.196 755.98,-405.412 799.954,-411.464"/>
<polygon fill="orange" stroke="orange" points="614.414,-370.873 603.822,-371.143 612.271,-377.537 614.414,-370.873"/>
<text text-anchor="start" x="650.5" y="-424" font-family="Helvetica,sans-Serif" font-size="10.00"> &lt; ::fwData::StructureTraits</text>
<text text-anchor="middle" x="711" y="-411" font-family="Helvetica,sans-Serif" font-size="10.00">Dictionary &gt;</text>
</g>
<!-- Node14 -->
<g id="node27" class="node"><title>Node14</title>
<a xlink:href="classfwDataIO_1_1reader_1_1GenericObjectReader.html" target="_top" xlink:title="fwDataIO::reader::Generic\lObjectReader\&lt; ::fwData\l::TransformationMatrix3D \&gt;">
<polygon fill="white" stroke="black" points="801.5,-330.5 801.5,-377.5 938.5,-377.5 938.5,-330.5 801.5,-330.5"/>
<text text-anchor="start" x="809.5" y="-364.5" font-family="Helvetica,sans-Serif" font-size="10.00">fwDataIO::reader::Generic</text>
<text text-anchor="start" x="809.5" y="-351.5" font-family="Helvetica,sans-Serif" font-size="10.00">ObjectReader&lt; ::fwData</text>
<text text-anchor="middle" x="870" y="-338.5" font-family="Helvetica,sans-Serif" font-size="10.00">::TransformationMatrix3D &gt;</text>
</a>
</g>
<!-- Node1&#45;&gt;Node14 -->
<g id="edge26" class="edge"><title>Node1&#45;&gt;Node14</title>
<path fill="none" stroke="orange" stroke-dasharray="5,2" d="M640.245,-354C690.665,-354 753.94,-354 801.314,-354"/>
<polygon fill="orange" stroke="orange" points="640.016,-350.5 630.016,-354 640.016,-357.5 640.016,-350.5"/>
<text text-anchor="start" x="650.5" y="-371" font-family="Helvetica,sans-Serif" font-size="10.00"> &lt; ::fwData::Transformation</text>
<text text-anchor="middle" x="711" y="-358" font-family="Helvetica,sans-Serif" font-size="10.00">Matrix3D &gt;</text>
</g>
<!-- Node16 -->
<g id="node31" class="node"><title>Node16</title>
<a xlink:href="classfwDataIO_1_1reader_1_1GenericObjectReader.html" target="_top" xlink:title="fwDataIO::reader::Generic\lObjectReader\&lt; ::fwData\l::Array \&gt;">
<polygon fill="white" stroke="black" points="804.5,-264.5 804.5,-311.5 935.5,-311.5 935.5,-264.5 804.5,-264.5"/>
<text text-anchor="start" x="812.5" y="-298.5" font-family="Helvetica,sans-Serif" font-size="10.00">fwDataIO::reader::Generic</text>
<text text-anchor="start" x="812.5" y="-285.5" font-family="Helvetica,sans-Serif" font-size="10.00">ObjectReader&lt; ::fwData</text>
<text text-anchor="middle" x="870" y="-272.5" font-family="Helvetica,sans-Serif" font-size="10.00">::Array &gt;</text>
</a>
</g>
<!-- Node1&#45;&gt;Node16 -->
<g id="edge30" class="edge"><title>Node1&#45;&gt;Node16</title>
<path fill="none" stroke="orange" stroke-dasharray="5,2" d="M639.819,-336.382C691.438,-325.532 756.653,-311.825 804.477,-301.772"/>
<polygon fill="orange" stroke="orange" points="639.082,-332.96 630.016,-338.442 640.522,-339.811 639.082,-332.96"/>
<text text-anchor="middle" x="711" y="-339" font-family="Helvetica,sans-Serif" font-size="10.00"> &lt; ::fwData::Array &gt;</text>
</g>
<!-- Node19 -->
<g id="node37" class="node"><title>Node19</title>
<a xlink:href="classfwDataIO_1_1reader_1_1GenericObjectReader.html" target="_top" xlink:title="fwDataIO::reader::Generic\lObjectReader\&lt; ::fwData\l::Image \&gt;">
<polygon fill="white" stroke="black" points="804.5,-127.5 804.5,-174.5 935.5,-174.5 935.5,-127.5 804.5,-127.5"/>
<text text-anchor="start" x="812.5" y="-161.5" font-family="Helvetica,sans-Serif" font-size="10.00">fwDataIO::reader::Generic</text>
<text text-anchor="start" x="812.5" y="-148.5" font-family="Helvetica,sans-Serif" font-size="10.00">ObjectReader&lt; ::fwData</text>
<text text-anchor="middle" x="870" y="-135.5" font-family="Helvetica,sans-Serif" font-size="10.00">::Image &gt;</text>
</a>
</g>
<!-- Node1&#45;&gt;Node19 -->
<g id="edge36" class="edge"><title>Node1&#45;&gt;Node19</title>
<path fill="none" stroke="orange" stroke-dasharray="5,2" d="M590.33,-331.045C607.589,-319.553 628.855,-305.469 648,-293 712.599,-250.928 788.337,-202.721 832.564,-174.682"/>
<polygon fill="orange" stroke="orange" points="588.082,-328.337 581.702,-336.796 591.964,-334.162 588.082,-328.337"/>
<text text-anchor="middle" x="711" y="-297" font-family="Helvetica,sans-Serif" font-size="10.00"> &lt; ::fwData::Image &gt;</text>
</g>
<!-- Node25 -->
<g id="node49" class="node"><title>Node25</title>
<a xlink:href="classfwDataIO_1_1reader_1_1GenericObjectReader.html" target="_top" xlink:title="fwDataIO::reader::Generic\lObjectReader\&lt; ::fwData::Tag \&gt;">
<polygon fill="white" stroke="black" points="792.5,-25 792.5,-59 947.5,-59 947.5,-25 792.5,-25"/>
<text text-anchor="start" x="800.5" y="-46" font-family="Helvetica,sans-Serif" font-size="10.00">fwDataIO::reader::Generic</text>
<text text-anchor="middle" x="870" y="-33" font-family="Helvetica,sans-Serif" font-size="10.00">ObjectReader&lt; ::fwData::Tag &gt;</text>
</a>
</g>
<!-- Node1&#45;&gt;Node25 -->
<g id="edge48" class="edge"><title>Node1&#45;&gt;Node25</title>
<path fill="none" stroke="orange" stroke-dasharray="5,2" d="M567.613,-327.249C582.753,-294.452 611.644,-238.383 648,-199 705.476,-136.739 791.495,-84.6014 837.773,-59.001"/>
<polygon fill="orange" stroke="orange" points="564.299,-326.083 563.363,-336.636 570.676,-328.97 564.299,-326.083"/>
<text text-anchor="middle" x="711" y="-203" font-family="Helvetica,sans-Serif" font-size="10.00"> &lt; ::fwData::Tag &gt;</text>
</g>
<!-- Node2 -->
<g id="node2" class="node"><title>Node2</title>
<a xlink:href="classfwDataIO_1_1reader_1_1IObjectReader.html" target="_top" xlink:title="Base class for all object readers. ">
<polygon fill="white" stroke="black" points="314.5,-337 314.5,-371 443.5,-371 443.5,-337 314.5,-337"/>
<text text-anchor="start" x="322.5" y="-358" font-family="Helvetica,sans-Serif" font-size="10.00">fwDataIO::reader::IObject</text>
<text text-anchor="middle" x="379" y="-345" font-family="Helvetica,sans-Serif" font-size="10.00">Reader</text>
</a>
</g>
<!-- Node2&#45;&gt;Node1 -->
<g id="edge2" class="edge"><title>Node2&#45;&gt;Node1</title>
<path fill="none" stroke="midnightblue" d="M453.691,-354C463.038,-354 472.596,-354 481.933,-354"/>
<polygon fill="midnightblue" stroke="midnightblue" points="453.652,-350.5 443.652,-354 453.652,-357.5 453.652,-350.5"/>
</g>
<!-- Node3 -->
<g id="node4" class="node"><title>Node3</title>
<a xlink:href="classfwCore_1_1BaseObject.html" target="_top" xlink:title="Base class for all FW4SPL&#39;s classes. ">
<polygon fill="white" stroke="black" points="170.5,-343.5 170.5,-364.5 275.5,-364.5 275.5,-343.5 170.5,-343.5"/>
<text text-anchor="middle" x="223" y="-351.5" font-family="Helvetica,sans-Serif" font-size="10.00">fwCore::BaseObject</text>
</a>
</g>
<!-- Node3&#45;&gt;Node2 -->
<g id="edge4" class="edge"><title>Node3&#45;&gt;Node2</title>
<path fill="none" stroke="midnightblue" d="M285.849,-354C295.232,-354 304.919,-354 314.338,-354"/>
<polygon fill="midnightblue" stroke="midnightblue" points="285.815,-350.5 275.814,-354 285.814,-357.5 285.815,-350.5"/>
</g>
<!-- Node4 -->
<g id="node6" class="node"><title>Node4</title>
<polygon fill="white" stroke="#bfbfbf" points="0.5,-337 0.5,-371 131.5,-371 131.5,-337 0.5,-337"/>
<text text-anchor="start" x="8.5" y="-358" font-family="Helvetica,sans-Serif" font-size="10.00">std::enable_shared</text>
<text text-anchor="middle" x="66" y="-345" font-family="Helvetica,sans-Serif" font-size="10.00">_from_this&lt; BaseObject &gt;</text>
</g>
<!-- Node4&#45;&gt;Node3 -->
<g id="edge6" class="edge"><title>Node4&#45;&gt;Node3</title>
<path fill="none" stroke="midnightblue" d="M141.751,-354C151.466,-354 161.238,-354 170.469,-354"/>
<polygon fill="midnightblue" stroke="midnightblue" points="141.672,-350.5 131.672,-354 141.672,-357.5 141.672,-350.5"/>
</g>
<!-- Node6 -->
<g id="node11" class="node"><title>Node6</title>
<a xlink:href="classfwDataIO_1_1reader_1_1MeshReader.html" target="_top" xlink:title="Mesh reader. Read file format .trian. ">
<polygon fill="white" stroke="black" points="993.5,-608.5 993.5,-629.5 1146.5,-629.5 1146.5,-608.5 993.5,-608.5"/>
<text text-anchor="middle" x="1070" y="-616.5" font-family="Helvetica,sans-Serif" font-size="10.00">fwDataIO::reader::MeshReader</text>
</a>
</g>
<!-- Node5&#45;&gt;Node6 -->
<g id="edge10" class="edge"><title>Node5&#45;&gt;Node6</title>
<path fill="none" stroke="midnightblue" d="M945.866,-594.173C969.757,-598.951 995.602,-604.12 1017.49,-608.499"/>
<polygon fill="midnightblue" stroke="midnightblue" points="946.257,-590.682 935.764,-592.153 944.884,-597.546 946.257,-590.682"/>
</g>
<!-- Node7 -->
<g id="node13" class="node"><title>Node7</title>
<a xlink:href="classfwVtkIO_1_1MeshReader.html" target="_top" xlink:title="Read a mesh.Read a VTK Mesh using the VTK lib. ">
<polygon fill="white" stroke="black" points="1013,-568.5 1013,-589.5 1127,-589.5 1127,-568.5 1013,-568.5"/>
<text text-anchor="middle" x="1070" y="-576.5" font-family="Helvetica,sans-Serif" font-size="10.00">fwVtkIO::MeshReader</text>
</a>
</g>
<!-- Node5&#45;&gt;Node7 -->
<g id="edge12" class="edge"><title>Node5&#45;&gt;Node7</title>
<path fill="none" stroke="midnightblue" d="M945.853,-579C968.107,-579 992.058,-579 1012.93,-579"/>
<polygon fill="midnightblue" stroke="midnightblue" points="945.765,-575.5 935.764,-579 945.764,-582.5 945.765,-575.5"/>
</g>
<!-- Node9 -->
<g id="node17" class="node"><title>Node9</title>
<a xlink:href="classfwVtkIO_1_1SeriesDBReader.html" target="_top" xlink:title="Read a SeriesDB.Read VTK Mesh or Image files using the VTK lib, convert to ModelSeries or ImageSeries...">
<polygon fill="white" stroke="black" points="1004,-528.5 1004,-549.5 1136,-549.5 1136,-528.5 1004,-528.5"/>
<text text-anchor="middle" x="1070" y="-536.5" font-family="Helvetica,sans-Serif" font-size="10.00">fwVtkIO::SeriesDBReader</text>
</a>
</g>
<!-- Node8&#45;&gt;Node9 -->
<g id="edge16" class="edge"><title>Node8&#45;&gt;Node9</title>
<path fill="none" stroke="midnightblue" d="M950.903,-511.608C975.838,-517.343 1002.42,-523.456 1024.13,-528.449"/>
<polygon fill="midnightblue" stroke="midnightblue" points="951.606,-508.178 941.076,-509.347 950.037,-515 951.606,-508.178"/>
</g>
<!-- Node10 -->
<g id="node19" class="node"><title>Node10</title>
<a xlink:href="classvtkGdcmIO_1_1SeriesDBLazyReader.html" target="_top" xlink:title="Reads DICOM data from a directory path in order to create a SeriesDB object in lazy mode...">
<polygon fill="white" stroke="black" points="986.5,-488.5 986.5,-509.5 1153.5,-509.5 1153.5,-488.5 986.5,-488.5"/>
<text text-anchor="middle" x="1070" y="-496.5" font-family="Helvetica,sans-Serif" font-size="10.00">vtkGdcmIO::SeriesDBLazyReader</text>
</a>
</g>
<!-- Node8&#45;&gt;Node10 -->
<g id="edge18" class="edge"><title>Node8&#45;&gt;Node10</title>
<path fill="none" stroke="midnightblue" d="M951.119,-495.434C962.667,-495.78 974.565,-496.137 986.164,-496.485"/>
<polygon fill="midnightblue" stroke="midnightblue" points="951.176,-491.934 941.076,-495.132 950.966,-498.931 951.176,-491.934"/>
</g>
<!-- Node11 -->
<g id="node21" class="node"><title>Node11</title>
<a xlink:href="classvtkGdcmIO_1_1SeriesDBReader.html" target="_top" xlink:title="Reads DICOM data from a directory path in order to create a SeriesDB object. ">
<polygon fill="white" stroke="black" points="997,-448.5 997,-469.5 1143,-469.5 1143,-448.5 997,-448.5"/>
<text text-anchor="middle" x="1070" y="-456.5" font-family="Helvetica,sans-Serif" font-size="10.00">vtkGdcmIO::SeriesDBReader</text>
</a>
</g>
<!-- Node8&#45;&gt;Node11 -->
<g id="edge20" class="edge"><title>Node8&#45;&gt;Node11</title>
<path fill="none" stroke="midnightblue" d="M950.944,-479.24C970.011,-475.998 990.038,-472.594 1008.11,-469.521"/>
<polygon fill="midnightblue" stroke="midnightblue" points="950.348,-475.791 941.076,-480.917 951.521,-482.692 950.348,-475.791"/>
</g>
<!-- Node13 -->
<g id="node25" class="node"><title>Node13</title>
<a xlink:href="classfwDataIO_1_1reader_1_1DictionaryReader.html" target="_top" xlink:title="Dictionary reader. Read file with .dic extension. ">
<polygon fill="white" stroke="black" points="999,-396 999,-430 1141,-430 1141,-396 999,-396"/>
<text text-anchor="start" x="1007" y="-417" font-family="Helvetica,sans-Serif" font-size="10.00">fwDataIO::reader::Dictionary</text>
<text text-anchor="middle" x="1070" y="-404" font-family="Helvetica,sans-Serif" font-size="10.00">Reader</text>
</a>
</g>
<!-- Node12&#45;&gt;Node13 -->
<g id="edge24" class="edge"><title>Node12&#45;&gt;Node13</title>
<path fill="none" stroke="midnightblue" d="M950.62,-417.178C966.608,-416.619 983.282,-416.035 998.924,-415.488"/>
<polygon fill="midnightblue" stroke="midnightblue" points="950.103,-413.694 940.231,-417.542 950.348,-420.69 950.103,-413.694"/>
</g>
<!-- Node15 -->
<g id="node29" class="node"><title>Node15</title>
<a xlink:href="classfwDataIO_1_1reader_1_1TransformationMatrix3DReader.html" target="_top" xlink:title="Reader for transformation of 3D Matrix. Read file format .trf. ">
<polygon fill="white" stroke="black" points="988.5,-344 988.5,-378 1151.5,-378 1151.5,-344 988.5,-344"/>
<text text-anchor="start" x="996.5" y="-365" font-family="Helvetica,sans-Serif" font-size="10.00">fwDataIO::reader::Transformation</text>
<text text-anchor="middle" x="1070" y="-352" font-family="Helvetica,sans-Serif" font-size="10.00">Matrix3DReader</text>
</a>
</g>
<!-- Node14&#45;&gt;Node15 -->
<g id="edge28" class="edge"><title>Node14&#45;&gt;Node15</title>
<path fill="none" stroke="midnightblue" d="M948.853,-356.76C961.857,-357.215 975.361,-357.688 988.43,-358.145"/>
<polygon fill="midnightblue" stroke="midnightblue" points="948.665,-353.251 938.549,-356.399 948.42,-360.247 948.665,-353.251"/>
</g>
<!-- Node17 -->
<g id="node33" class="node"><title>Node17</title>
<a xlink:href="classfwDataIO_1_1reader_1_1ArrayReader.html" target="_top" xlink:title="Array Reader. Read file format .raw. ">
<polygon fill="white" stroke="black" points="994,-304.5 994,-325.5 1146,-325.5 1146,-304.5 994,-304.5"/>
<text text-anchor="middle" x="1070" y="-312.5" font-family="Helvetica,sans-Serif" font-size="10.00">fwDataIO::reader::ArrayReader</text>
</a>
</g>
<!-- Node16&#45;&gt;Node17 -->
<g id="edge32" class="edge"><title>Node16&#45;&gt;Node17</title>
<path fill="none" stroke="midnightblue" d="M945.924,-298.25C961.595,-300.365 978.104,-302.594 993.785,-304.711"/>
<polygon fill="midnightblue" stroke="midnightblue" points="946.143,-294.748 935.764,-296.878 945.206,-301.685 946.143,-294.748"/>
</g>
<!-- Node18 -->
<g id="node35" class="node"><title>Node18</title>
<a xlink:href="classfwDataIO_1_1reader_1_1GzArrayReader.html" target="_top" xlink:title="Array Reader. Read file format .raw.gz. ">
<polygon fill="white" stroke="black" points="1003,-252 1003,-286 1137,-286 1137,-252 1003,-252"/>
<text text-anchor="start" x="1011" y="-273" font-family="Helvetica,sans-Serif" font-size="10.00">fwDataIO::reader::GzArray</text>
<text text-anchor="middle" x="1070" y="-260" font-family="Helvetica,sans-Serif" font-size="10.00">Reader</text>
</a>
</g>
<!-- Node16&#45;&gt;Node18 -->
<g id="edge34" class="edge"><title>Node16&#45;&gt;Node18</title>
<path fill="none" stroke="midnightblue" d="M945.75,-280.804C964.518,-279.021 984.5,-277.123 1002.83,-275.381"/>
<polygon fill="midnightblue" stroke="midnightblue" points="945.389,-277.322 935.764,-281.752 946.051,-284.291 945.389,-277.322"/>
</g>
<!-- Node20 -->
<g id="node39" class="node"><title>Node20</title>
<a xlink:href="classfwDataIO_1_1reader_1_1GzBufferImageReader.html" target="_top" xlink:title="Image Reader. Read file format .raw.gz. ">
<polygon fill="white" stroke="black" points="1001.5,-200 1001.5,-234 1138.5,-234 1138.5,-200 1001.5,-200"/>
<text text-anchor="start" x="1009.5" y="-221" font-family="Helvetica,sans-Serif" font-size="10.00">fwDataIO::reader::GzBuffer</text>
<text text-anchor="middle" x="1070" y="-208" font-family="Helvetica,sans-Serif" font-size="10.00">ImageReader</text>
</a>
</g>
<!-- Node19&#45;&gt;Node20 -->
<g id="edge38" class="edge"><title>Node19&#45;&gt;Node20</title>
<path fill="none" stroke="midnightblue" d="M945.273,-177.346C958.806,-181.972 972.803,-186.683 986,-191 994.996,-193.942 1004.56,-196.985 1013.89,-199.906"/>
<polygon fill="midnightblue" stroke="midnightblue" points="946.113,-173.934 935.518,-174 943.842,-180.556 946.113,-173.934"/>
</g>
<!-- Node21 -->
<g id="node41" class="node"><title>Node21</title>
<a xlink:href="classfwItkIO_1_1ImageReader.html" target="_top" xlink:title="fwItkIO::ImageReader">
<polygon fill="white" stroke="black" points="1013.5,-160.5 1013.5,-181.5 1126.5,-181.5 1126.5,-160.5 1013.5,-160.5"/>
<text text-anchor="middle" x="1070" y="-168.5" font-family="Helvetica,sans-Serif" font-size="10.00">fwItkIO::ImageReader</text>
</a>
</g>
<!-- Node19&#45;&gt;Node21 -->
<g id="edge40" class="edge"><title>Node19&#45;&gt;Node21</title>
<path fill="none" stroke="midnightblue" d="M945.899,-158.59C968.257,-160.826 992.324,-163.232 1013.26,-165.326"/>
<polygon fill="midnightblue" stroke="midnightblue" points="946.063,-155.089 935.764,-157.576 945.367,-162.054 946.063,-155.089"/>
</g>
<!-- Node22 -->
<g id="node43" class="node"><title>Node22</title>
<a xlink:href="classfwVtkIO_1_1ImageReader.html" target="_top" xlink:title="Read an image.Read a VTK Image using the VTK lib. ">
<polygon fill="white" stroke="black" points="1011.5,-120.5 1011.5,-141.5 1128.5,-141.5 1128.5,-120.5 1011.5,-120.5"/>
<text text-anchor="middle" x="1070" y="-128.5" font-family="Helvetica,sans-Serif" font-size="10.00">fwVtkIO::ImageReader</text>
</a>
</g>
<!-- Node19&#45;&gt;Node22 -->
<g id="edge42" class="edge"><title>Node19&#45;&gt;Node22</title>
<path fill="none" stroke="midnightblue" d="M945.913,-143.409C967.564,-141.244 990.817,-138.918 1011.27,-136.873"/>
<polygon fill="midnightblue" stroke="midnightblue" points="945.367,-139.946 935.764,-144.424 946.063,-146.911 945.367,-139.946"/>
</g>
<!-- Node23 -->
<g id="node45" class="node"><title>Node23</title>
<a xlink:href="classfwVtkIO_1_1MetaImageReader.html" target="_top" xlink:title="Read a MetaImage.Read a MetaImage using the VTK lib. ">
<polygon fill="white" stroke="black" points="1000.5,-80.5 1000.5,-101.5 1139.5,-101.5 1139.5,-80.5 1000.5,-80.5"/>
<text text-anchor="middle" x="1070" y="-88.5" font-family="Helvetica,sans-Serif" font-size="10.00">fwVtkIO::MetaImageReader</text>
</a>
</g>
<!-- Node19&#45;&gt;Node23 -->
<g id="edge44" class="edge"><title>Node19&#45;&gt;Node23</title>
<path fill="none" stroke="midnightblue" d="M944.145,-124.222C957.98,-119.571 972.371,-114.962 986,-111 997.66,-107.61 1010.35,-104.364 1022.25,-101.508"/>
<polygon fill="midnightblue" stroke="midnightblue" points="943.014,-120.909 934.672,-127.441 945.267,-127.537 943.014,-120.909"/>
</g>
<!-- Node24 -->
<g id="node47" class="node"><title>Node24</title>
<a xlink:href="classfwVtkIO_1_1VtiImageReader.html" target="_top" xlink:title="Read an image.Read a VTK Image using the VTK lib. ">
<polygon fill="white" stroke="black" points="1005.5,-40.5 1005.5,-61.5 1134.5,-61.5 1134.5,-40.5 1005.5,-40.5"/>
<text text-anchor="middle" x="1070" y="-48.5" font-family="Helvetica,sans-Serif" font-size="10.00">fwVtkIO::VtiImageReader</text>
</a>
</g>
<!-- Node19&#45;&gt;Node24 -->
<g id="edge46" class="edge"><title>Node19&#45;&gt;Node24</title>
<path fill="none" stroke="midnightblue" d="M905.799,-121.124C927.73,-104.19 957.065,-83.8779 986,-71 994.491,-67.2207 1003.8,-64.099 1013.02,-61.5379"/>
<polygon fill="midnightblue" stroke="midnightblue" points="903.476,-118.498 897.772,-127.426 907.799,-124.003 903.476,-118.498"/>
</g>
<!-- Node26 -->
<g id="node51" class="node"><title>Node26</title>
<a xlink:href="classfwDataIO_1_1reader_1_1TagReader.html" target="_top" xlink:title="Tag Reader. Read file format .tag. ">
<polygon fill="white" stroke="black" points="997,-0.5 997,-21.5 1143,-21.5 1143,-0.5 997,-0.5"/>
<text text-anchor="middle" x="1070" y="-8.5" font-family="Helvetica,sans-Serif" font-size="10.00">fwDataIO::reader::TagReader</text>
</a>
</g>
<!-- Node25&#45;&gt;Node26 -->
<g id="edge50" class="edge"><title>Node25&#45;&gt;Node26</title>
<path fill="none" stroke="midnightblue" d="M957.832,-28.3861C972.703,-26.0811 987.938,-23.7196 1002.2,-21.5097"/>
<polygon fill="midnightblue" stroke="midnightblue" points="956.957,-24.9797 947.611,-29.9702 958.03,-31.8971 956.957,-24.9797"/>
</g>
</g>
</svg>
