<?xml version="1.0" encoding="UTF-8" standalone="no"?>
<!DOCTYPE svg PUBLIC "-//W3C//DTD SVG 1.1//EN"
 "http://www.w3.org/Graphics/SVG/1.1/DTD/svg11.dtd">
<!-- Generated by graphviz version 2.26.3 (20100126.1600)
 -->
<!-- Title: fwGui::dialog::LocationDialog::show Pages: 1 -->
<svg width="308pt" height="42pt"
 viewBox="0.00 0.00 308.00 42.00" xmlns="http://www.w3.org/2000/svg" xmlns:xlink="http://www.w3.org/1999/xlink">
<g id="graph1" class="graph" transform="scale(1 1) rotate(0) translate(4 38)">
<title>fwGui::dialog::LocationDialog::show</title>
<polygon fill="white" stroke="white" points="-4,5 -4,-38 305,-38 305,5 -4,5"/>
<!-- Node1 -->
<g id="node1" class="node"><title>Node1</title>
<polygon fill="#bfbfbf" stroke="black" points="0,-0 0,-34 144,-34 144,-0 0,-0"/>
<text text-anchor="start" x="8" y="-21" font-family="Helvetica,sans-Serif" font-size="10.00">fwGui::dialog::LocationDialog</text>
<text text-anchor="middle" x="72" y="-8" font-family="Helvetica,sans-Serif" font-size="10.00">::show</text>
</g>
<!-- Node2 -->
<g id="node3" class="node"><title>Node2</title>
<a xlink:href="classfwGui_1_1dialog_1_1ILocationDialog.html#afe365e8bbb4d1aa519e2d003eefe4070" target="_top" xlink:title="fwGui::dialog::ILocation\lDialog::show">
<polygon fill="white" stroke="black" points="180.5,-0 180.5,-34 299.5,-34 299.5,-0 180.5,-0"/>
<text text-anchor="start" x="188.5" y="-21" font-family="Helvetica,sans-Serif" font-size="10.00">fwGui::dialog::ILocation</text>
<text text-anchor="middle" x="240" y="-8" font-family="Helvetica,sans-Serif" font-size="10.00">Dialog::show</text>
</a>
</g>
<!-- Node1&#45;&gt;Node2 -->
<g id="edge2" class="edge"><title>Node1&#45;&gt;Node2</title>
<path fill="none" stroke="midnightblue" d="M144.222,-17C152.915,-17 161.78,-17 170.434,-17"/>
<polygon fill="midnightblue" stroke="midnightblue" points="170.474,-20.5001 180.474,-17 170.474,-13.5001 170.474,-20.5001"/>
</g>
</g>
</svg>
