<?xml version="1.0" encoding="UTF-8" standalone="no"?>
<!DOCTYPE svg PUBLIC "-//W3C//DTD SVG 1.1//EN"
 "http://www.w3.org/Graphics/SVG/1.1/DTD/svg11.dtd">
<!-- Generated by graphviz version 2.26.3 (20100126.1600)
 -->
<!-- Title: ioQt::SPdfWriter::configuring Pages: 1 -->
<!--zoomable 169 -->
<svg id="main" version="1.1" xmlns="http://www.w3.org/2000/svg" xmlns:xlink="http://www.w3.org/1999/xlink" xml:space="preserve" onload="init(evt)">
<style type="text/css"><![CDATA[
.edge:hover path { stroke: red; }
.edge:hover polygon { stroke: red; fill: red; }
]]></style>
<script type="text/javascript"><![CDATA[
var edges = document.getElementsByTagName('g');
if (edges && edges.length) {
  for (var i=0;i<edges.length;i++) {
    if (edges[i].id.substr(0,4)=='edge') {
      edges[i].setAttribute('class','edge');
    }
  }
}
]]></script>
        <defs>
                <circle id="rim" cx="0" cy="0" r="7"/>
                <circle id="rim2" cx="0" cy="0" r="3.5"/>
                <g id="zoomPlus">
                        <use xlink:href="#rim" fill="#404040">
                                <set attributeName="fill" to="#808080" begin="zoomplus.mouseover" end="zoomplus.mouseout"/>
                        </use>
                        <path d="M-4,0h8M0,-4v8" fill="none" stroke="white" stroke-width="1.5" pointer-events="none"/>
                </g>
                <g id="zoomMin">
                        <use xlink:href="#rim" fill="#404040">
                                <set attributeName="fill" to="#808080" begin="zoomminus.mouseover" end="zoomminus.mouseout"/>
                        </use>
                        <path d="M-4,0h8" fill="none" stroke="white" stroke-width="1.5" pointer-events="none"/>
                </g>
                <g id="dirArrow">
                        <path fill="none" stroke="white" stroke-width="1.5" d="M0,-3.0v7 M-2.5,-0.5L0,-3.0L2.5,-0.5"/>
                </g>
               <g id="resetDef">
                       <use xlink:href="#rim2" fill="#404040">
                               <set attributeName="fill" to="#808080" begin="reset.mouseover" end="reset.mouseout"/>
                       </use>
               </g>
        </defs>

<script type="text/javascript">
var viewWidth = 652;
var viewHeight = 169;
var sectionId = 'dynsection-4';
</script>
<script xlink:href="svgpan.js"/>
<svg id="graph" class="graph">
<g id="viewport">
<title>ioQt::SPdfWriter::configuring</title>
<polygon fill="white" stroke="white" points="-4,5 -4,-165.354 649,-165.354 649,5 -4,5"/>
<!-- Node1 -->
<g id="node1" class="node"><title>Node1</title>
<polygon fill="#bfbfbf" stroke="black" points="0,-58.5 0,-79.5 142,-79.5 142,-58.5 0,-58.5"/>
<text text-anchor="middle" x="71" y="-66.5" font-family="Helvetica,sans-Serif" font-size="10.00">ioQt::SPdfWriter::configuring</text>
</g>
<!-- Node2 -->
<g id="node3" class="node"><title>Node2</title>
<a xlink:href="classio_1_1IWriter.html#ae079442b16d7bacf5525fa2796c77a99" target="_top" xlink:title="This method proposes to parse xml configuration to retrieve file/files/folder paths. ">
<polygon fill="white" stroke="black" points="199.5,-104.5 199.5,-125.5 312.5,-125.5 312.5,-104.5 199.5,-104.5"/>
<text text-anchor="middle" x="256" y="-112.5" font-family="Helvetica,sans-Serif" font-size="10.00">io::IWriter::configuring</text>
</a>
</g>
<!-- Node1&#45;&gt;Node2 -->
<g id="edge2" class="edge"><title>Node1&#45;&gt;Node2</title>
<path fill="none" stroke="midnightblue" d="M113.443,-79.5533C140.353,-86.2445 175.351,-94.9467 203.935,-102.054"/>
<polygon fill="midnightblue" stroke="midnightblue" points="203.206,-105.479 213.755,-104.496 204.895,-98.6861 203.206,-105.479"/>
</g>
<!-- Node7 -->
<g id="node16" class="node"><title>Node7</title>
<a xlink:href="structfwRuntime_1_1ConfigurationElementContainer.html#ada9c86a62b6a940936827606c264c371" target="_top" xlink:title="Returns the configuration element container. ">
<polygon fill="white" stroke="black" points="178.5,-52 178.5,-86 333.5,-86 333.5,-52 178.5,-52"/>
<text text-anchor="start" x="186.5" y="-73" font-family="Helvetica,sans-Serif" font-size="10.00">fwRuntime::Configuration</text>
<text text-anchor="middle" x="256" y="-60" font-family="Helvetica,sans-Serif" font-size="10.00">ElementContainer::getElements</text>
</a>
</g>
<!-- Node1&#45;&gt;Node7 -->
<g id="edge18" class="edge"><title>Node1&#45;&gt;Node7</title>
<path fill="none" stroke="midnightblue" d="M142.261,-69C150.748,-69 159.486,-69 168.17,-69"/>
<polygon fill="midnightblue" stroke="midnightblue" points="168.32,-72.5001 178.32,-69 168.32,-65.5001 168.32,-72.5001"/>
</g>
<!-- Node8 -->
<g id="node18" class="node"><title>Node8</title>
<a xlink:href="classfwServices_1_1IService.html#ac0ac1a469b4be20ba958fa08996cd662" target="_top" xlink:title="Streaming a service. ">
<polygon fill="white" stroke="black" points="202.5,-0 202.5,-34 309.5,-34 309.5,-0 202.5,-0"/>
<text text-anchor="start" x="210.5" y="-21" font-family="Helvetica,sans-Serif" font-size="10.00">fwServices::IService</text>
<text text-anchor="middle" x="256" y="-8" font-family="Helvetica,sans-Serif" font-size="10.00">::isVersion2</text>
</a>
</g>
<!-- Node1&#45;&gt;Node8 -->
<g id="edge20" class="edge"><title>Node1&#45;&gt;Node8</title>
<path fill="none" stroke="midnightblue" d="M108.438,-58.477C132.616,-51.681 164.685,-42.6669 192.75,-34.7784"/>
<polygon fill="midnightblue" stroke="midnightblue" points="193.811,-38.116 202.49,-32.0406 191.916,-31.3771 193.811,-38.116"/>
</g>
<!-- Node3 -->
<g id="node5" class="node"><title>Node3</title>
<a xlink:href="classio_1_1IWriter.html#a1e024eeeca2c9614a373de74fcb1fa4e" target="_top" xlink:title="This method must be implemented by concrete service writers that use path file system to write data...">
<polygon fill="white" stroke="black" points="512.5,-104.5 512.5,-125.5 643.5,-125.5 643.5,-104.5 512.5,-104.5"/>
<text text-anchor="middle" x="578" y="-112.5" font-family="Helvetica,sans-Serif" font-size="10.00">io::IWriter::getIOPathType</text>
</a>
</g>
<!-- Node2&#45;&gt;Node3 -->
<g id="edge4" class="edge"><title>Node2&#45;&gt;Node3</title>
<path fill="none" stroke="midnightblue" d="M278.965,-125.651C301.563,-135.502 337.331,-149.435 370,-155 416.442,-162.911 429.709,-163.752 476,-155 501.378,-150.202 528.53,-139.241 548.434,-130.004"/>
<polygon fill="midnightblue" stroke="midnightblue" points="550.063,-133.105 557.584,-125.643 547.051,-126.786 550.063,-133.105"/>
</g>
<!-- Node4 -->
<g id="node7" class="node"><title>Node4</title>
<a xlink:href="classio_1_1IWriter.html#ab72fabf86c951e3bcdf42273f27cd576" target="_top" xlink:title="Sets file path. ">
<polygon fill="white" stroke="black" points="375.5,-124.5 375.5,-145.5 470.5,-145.5 470.5,-124.5 375.5,-124.5"/>
<text text-anchor="middle" x="423" y="-132.5" font-family="Helvetica,sans-Serif" font-size="10.00">io::IWriter::setFile</text>
</a>
</g>
<!-- Node2&#45;&gt;Node4 -->
<g id="edge6" class="edge"><title>Node2&#45;&gt;Node4</title>
<path fill="none" stroke="midnightblue" d="M312.539,-121.771C329.465,-123.798 348.046,-126.024 365.061,-128.061"/>
<polygon fill="midnightblue" stroke="midnightblue" points="365.079,-131.588 375.424,-129.302 365.911,-124.638 365.079,-131.588"/>
</g>
<!-- Node5 -->
<g id="node10" class="node"><title>Node5</title>
<a xlink:href="classio_1_1IWriter.html#a87be6dd4f95c43b32384d175de30a9fa" target="_top" xlink:title="Sets file paths. ">
<polygon fill="white" stroke="black" points="373,-84.5 373,-105.5 473,-105.5 473,-84.5 373,-84.5"/>
<text text-anchor="middle" x="423" y="-92.5" font-family="Helvetica,sans-Serif" font-size="10.00">io::IWriter::setFiles</text>
</a>
</g>
<!-- Node2&#45;&gt;Node5 -->
<g id="edge10" class="edge"><title>Node2&#45;&gt;Node5</title>
<path fill="none" stroke="midnightblue" d="M312.539,-108.229C328.759,-106.286 346.501,-104.162 362.926,-102.194"/>
<polygon fill="midnightblue" stroke="midnightblue" points="363.445,-105.657 372.958,-100.993 362.613,-98.7071 363.445,-105.657"/>
</g>
<!-- Node6 -->
<g id="node13" class="node"><title>Node6</title>
<a xlink:href="classio_1_1IWriter.html#ab705f4f0deeacacc3cd7c48a077be284" target="_top" xlink:title="Sets folder path. ">
<polygon fill="white" stroke="black" points="370,-44.5 370,-65.5 476,-65.5 476,-44.5 370,-44.5"/>
<text text-anchor="middle" x="423" y="-52.5" font-family="Helvetica,sans-Serif" font-size="10.00">io::IWriter::setFolder</text>
</a>
</g>
<!-- Node2&#45;&gt;Node6 -->
<g id="edge14" class="edge"><title>Node2&#45;&gt;Node6</title>
<path fill="none" stroke="midnightblue" d="M305.296,-104.403C314.957,-101.757 324.909,-98.6211 334,-95 351.004,-88.2271 353.393,-82.6961 370,-75 374.179,-73.0635 378.602,-71.1663 383.04,-69.3588"/>
<polygon fill="midnightblue" stroke="midnightblue" points="384.666,-72.4803 392.693,-65.5645 382.106,-65.9656 384.666,-72.4803"/>
</g>
<!-- Node4&#45;&gt;Node3 -->
<g id="edge8" class="edge"><title>Node4&#45;&gt;Node3</title>
<path fill="none" stroke="midnightblue" d="M470.77,-128.836C480.746,-127.549 491.497,-126.162 502.205,-124.78"/>
<polygon fill="midnightblue" stroke="midnightblue" points="502.961,-128.212 512.431,-123.461 502.065,-121.269 502.961,-128.212"/>
</g>
<!-- Node5&#45;&gt;Node3 -->
<g id="edge12" class="edge"><title>Node5&#45;&gt;Node3</title>
<path fill="none" stroke="midnightblue" d="M473.324,-101.493C482.575,-102.687 492.417,-103.957 502.222,-105.222"/>
<polygon fill="midnightblue" stroke="midnightblue" points="502.035,-108.727 512.4,-106.536 502.93,-101.785 502.035,-108.727"/>
</g>
<!-- Node6&#45;&gt;Node3 -->
<g id="edge16" class="edge"><title>Node6&#45;&gt;Node3</title>
<path fill="none" stroke="midnightblue" d="M451.082,-65.5198C459.136,-68.5579 467.923,-71.8923 476,-75 497.869,-83.4139 522.31,-92.9924 541.784,-100.666"/>
<polygon fill="midnightblue" stroke="midnightblue" points="540.605,-103.964 551.192,-104.378 543.174,-97.4525 540.605,-103.964"/>
</g>
</g>
</svg>
        <g id="navigator" transform="translate(0 0)" fill="#404254">
                <rect fill="#f2f5e9" fill-opacity="0.5" stroke="#606060" stroke-width=".5" x="0" y="0" width="60" height="60"/>
                <use id="zoomplus" xlink:href="#zoomPlus" x="17" y="9" onmousedown="handleZoom(evt,'in')"/>
                <use id="zoomminus" xlink:href="#zoomMin" x="42" y="9" onmousedown="handleZoom(evt,'out')"/>
                <use id="reset" xlink:href="#resetDef" x="30" y="36" onmousedown="handleReset()"/>
                <g id="arrowUp" xlink:href="#dirArrow" transform="translate(30 24)" onmousedown="handlePan(0,-1)">
                  <use xlink:href="#rim" fill="#404040">
                        <set attributeName="fill" to="#808080" begin="arrowUp.mouseover" end="arrowUp.mouseout"/>
                  </use>
                  <path fill="none" stroke="white" stroke-width="1.5" d="M0,-3.0v7 M-2.5,-0.5L0,-3.0L2.5,-0.5"/>
                </g>
                <g id="arrowRight" xlink:href="#dirArrow" transform="rotate(90) translate(36 -43)" onmousedown="handlePan(1,0)">
                  <use xlink:href="#rim" fill="#404040">
                        <set attributeName="fill" to="#808080" begin="arrowRight.mouseover" end="arrowRight.mouseout"/>
                  </use>
                  <path fill="none" stroke="white" stroke-width="1.5" d="M0,-3.0v7 M-2.5,-0.5L0,-3.0L2.5,-0.5"/>
                </g>
                <g id="arrowDown" xlink:href="#dirArrow" transform="rotate(180) translate(-30 -48)" onmousedown="handlePan(0,1)">
                  <use xlink:href="#rim" fill="#404040">
                        <set attributeName="fill" to="#808080" begin="arrowDown.mouseover" end="arrowDown.mouseout"/>
                  </use>
                  <path fill="none" stroke="white" stroke-width="1.5" d="M0,-3.0v7 M-2.5,-0.5L0,-3.0L2.5,-0.5"/>
                </g>
                <g id="arrowLeft" xlink:href="#dirArrow" transform="rotate(270) translate(-36 17)" onmousedown="handlePan(-1,0)">
                  <use xlink:href="#rim" fill="#404040">
                        <set attributeName="fill" to="#808080" begin="arrowLeft.mouseover" end="arrowLeft.mouseout"/>
                  </use>
                  <path fill="none" stroke="white" stroke-width="1.5" d="M0,-3.0v7 M-2.5,-0.5L0,-3.0L2.5,-0.5"/>
                </g>
        </g>
        <svg viewBox="0 0 15 15" width="100%" height="30px" preserveAspectRatio="xMaxYMin meet">
         <g id="arrow_out" transform="scale(0.3 0.3)">
          <a xlink:href="classioQt_1_1SPdfWriter_a8db1ef80560ec7086beb70860b6bd82e_cgraph_org.svg" target="_base">
           <rect id="button" ry="5" rx="5" y="6" x="6" height="38" width="38"
                fill="#f2f5e9" fill-opacity="0.5" stroke="#606060" stroke-width="1.0"/>
           <path id="arrow"
             d="M 11.500037,31.436501 C 11.940474,20.09759 22.043105,11.32322 32.158766,21.979434 L 37.068811,17.246167 C 37.068811,17.246167 37.088388,32 37.088388,32 L 22.160133,31.978069 C 22.160133,31.978069 26.997745,27.140456 26.997745,27.140456 C 18.528582,18.264221 13.291696,25.230495 11.500037,31.436501 z"
             style="fill:#404040;"/>
          </a>
         </g>
        </svg>
</svg>
