<?xml version="1.0" encoding="UTF-8" standalone="no"?>
<!DOCTYPE svg PUBLIC "-//W3C//DTD SVG 1.1//EN"
 "http://www.w3.org/Graphics/SVG/1.1/DTD/svg11.dtd">
<!-- Generated by graphviz version 2.26.3 (20100126.1600)
 -->
<!-- Title: fwRenderVTK::IVtkAdaptorService::stopping Pages: 1 -->
<svg width="818pt" height="140pt"
 viewBox="0.00 0.00 818.00 140.00" xmlns="http://www.w3.org/2000/svg" xmlns:xlink="http://www.w3.org/1999/xlink">
<g id="graph1" class="graph" transform="scale(1 1) rotate(0) translate(4 136)">
<title>fwRenderVTK::IVtkAdaptorService::stopping</title>
<polygon fill="white" stroke="white" points="-4,5 -4,-136 815,-136 815,5 -4,5"/>
<!-- Node1 -->
<g id="node1" class="node"><title>Node1</title>
<polygon fill="#bfbfbf" stroke="black" points="0,-26 0,-60 136,-60 136,-26 0,-26"/>
<text text-anchor="start" x="8" y="-47" font-family="Helvetica,sans-Serif" font-size="10.00">fwRenderVTK::IVtkAdaptor</text>
<text text-anchor="middle" x="68" y="-34" font-family="Helvetica,sans-Serif" font-size="10.00">Service::stopping</text>
</g>
<!-- Node2 -->
<g id="node3" class="node"><title>Node2</title>
<a xlink:href="classfwRenderVTK_1_1IVtkAdaptorService.html#a3960bcd2e88db0bdfb559352fbd4163e" target="_top" xlink:title="notify a render request iff vtkPipeline is modified ">
<polygon fill="white" stroke="black" points="172,-26 172,-60 308,-60 308,-26 172,-26"/>
<text text-anchor="start" x="180" y="-47" font-family="Helvetica,sans-Serif" font-size="10.00">fwRenderVTK::IVtkAdaptor</text>
<text text-anchor="middle" x="240" y="-34" font-family="Helvetica,sans-Serif" font-size="10.00">Service::requestRender</text>
</a>
</g>
<!-- Node1&#45;&gt;Node2 -->
<g id="edge2" class="edge"><title>Node1&#45;&gt;Node2</title>
<path fill="none" stroke="midnightblue" d="M136.473,-43C144.732,-43 153.216,-43 161.602,-43"/>
<polygon fill="midnightblue" stroke="midnightblue" points="161.762,-46.5001 171.762,-43 161.762,-39.5001 161.762,-46.5001"/>
</g>
<!-- Node3 -->
<g id="node5" class="node"><title>Node3</title>
<a xlink:href="classfwServices_1_1IService.html#a31aadcf24b9fc5cc8984489900cfa988" target="_top" xlink:title="Return the object associated to service. ">
<polygon fill="white" stroke="black" points="368.5,-52 368.5,-86 475.5,-86 475.5,-52 368.5,-52"/>
<text text-anchor="start" x="376.5" y="-73" font-family="Helvetica,sans-Serif" font-size="10.00">fwServices::IService</text>
<text text-anchor="middle" x="422" y="-60" font-family="Helvetica,sans-Serif" font-size="10.00">::getObject</text>
</a>
</g>
<!-- Node2&#45;&gt;Node3 -->
<g id="edge4" class="edge"><title>Node2&#45;&gt;Node3</title>
<path fill="none" stroke="midnightblue" d="M308.029,-52.7184C324.501,-55.0715 342.047,-57.5781 358.31,-59.9014"/>
<polygon fill="midnightblue" stroke="midnightblue" points="357.855,-63.3719 368.249,-61.3213 358.845,-56.4422 357.855,-63.3719"/>
</g>
<!-- Node8 -->
<g id="node15" class="node"><title>Node8</title>
<a xlink:href="classfwRenderVTK_1_1IVtkAdaptorService.html#a35b3188375865d89005fcf3afb11f59d" target="_top" xlink:title="fwRenderVTK::IVtkAdaptor\lService::setVtkPipelineModified">
<polygon fill="white" stroke="black" points="344.5,-0 344.5,-34 499.5,-34 499.5,-0 344.5,-0"/>
<text text-anchor="start" x="352.5" y="-21" font-family="Helvetica,sans-Serif" font-size="10.00">fwRenderVTK::IVtkAdaptor</text>
<text text-anchor="middle" x="422" y="-8" font-family="Helvetica,sans-Serif" font-size="10.00">Service::setVtkPipelineModified</text>
</a>
</g>
<!-- Node2&#45;&gt;Node8 -->
<g id="edge14" class="edge"><title>Node2&#45;&gt;Node8</title>
<path fill="none" stroke="midnightblue" d="M308.029,-33.2816C316.612,-32.0555 325.486,-30.7877 334.319,-29.5258"/>
<polygon fill="midnightblue" stroke="midnightblue" points="334.852,-32.9854 344.256,-28.1063 333.862,-26.0557 334.852,-32.9854"/>
</g>
<!-- Node4 -->
<g id="node7" class="node"><title>Node4</title>
<a xlink:href="classfwTools_1_1fwID.html#a387264565a48b0231a7eefb7b01512a1" target="_top" xlink:title="Returns the id of the object. If it is not set and the policy value is. ">
<polygon fill="white" stroke="black" points="536,-81.5 536,-102.5 644,-102.5 644,-81.5 536,-81.5"/>
<text text-anchor="middle" x="590" y="-89.5" font-family="Helvetica,sans-Serif" font-size="10.00">fwTools::fwID::getID</text>
</a>
</g>
<!-- Node3&#45;&gt;Node4 -->
<g id="edge6" class="edge"><title>Node3&#45;&gt;Node4</title>
<path fill="none" stroke="midnightblue" d="M475.618,-76.3406C491.523,-78.518 509.107,-80.9253 525.62,-83.186"/>
<polygon fill="midnightblue" stroke="midnightblue" points="525.356,-86.6824 535.738,-84.5713 526.305,-79.7471 525.356,-86.6824"/>
</g>
<!-- Node7 -->
<g id="node13" class="node"><title>Node7</title>
<a xlink:href="classfwServices_1_1IService.html#a84affebc8258fcec7a32770854b56f9b" target="_top" xlink:title="return object&#39;s classname given by fwCore::Demangler::getClassname() ">
<polygon fill="white" stroke="black" points="536.5,-29 536.5,-63 643.5,-63 643.5,-29 536.5,-29"/>
<text text-anchor="start" x="544.5" y="-50" font-family="Helvetica,sans-Serif" font-size="10.00">fwServices::IService</text>
<text text-anchor="middle" x="590" y="-37" font-family="Helvetica,sans-Serif" font-size="10.00">::getClassname</text>
</a>
</g>
<!-- Node3&#45;&gt;Node7 -->
<g id="edge12" class="edge"><title>Node3&#45;&gt;Node7</title>
<path fill="none" stroke="midnightblue" d="M475.618,-61.6594C491.682,-59.4602 509.459,-57.0265 526.115,-54.7462"/>
<polygon fill="midnightblue" stroke="midnightblue" points="526.882,-58.1739 536.315,-53.3497 525.933,-51.2386 526.882,-58.1739"/>
</g>
<!-- Node5 -->
<g id="node9" class="node"><title>Node5</title>
<a xlink:href="classfwTools_1_1fwID.html#a862fc692341b55fe08041f0b35507df6" target="_top" xlink:title="return object&#39;s classname given by fwCore::Demangler::getRootedClassname() ">
<polygon fill="white" stroke="black" points="680.5,-98 680.5,-132 809.5,-132 809.5,-98 680.5,-98"/>
<text text-anchor="start" x="688.5" y="-119" font-family="Helvetica,sans-Serif" font-size="10.00">fwTools::fwID::getRooted</text>
<text text-anchor="middle" x="745" y="-106" font-family="Helvetica,sans-Serif" font-size="10.00">Classname</text>
</a>
</g>
<!-- Node4&#45;&gt;Node5 -->
<g id="edge8" class="edge"><title>Node4&#45;&gt;Node5</title>
<path fill="none" stroke="midnightblue" d="M644.211,-100.044C652.711,-101.305 661.622,-102.628 670.482,-103.942"/>
<polygon fill="midnightblue" stroke="midnightblue" points="670.032,-107.414 680.437,-105.42 671.06,-100.49 670.032,-107.414"/>
</g>
<!-- Node6 -->
<g id="node11" class="node"><title>Node6</title>
<a xlink:href="classfwTools_1_1fwID.html#a4ac18bb9c046c3fd04a4c8a80add7ae6" target="_top" xlink:title="fwTools::fwID::exist">
<polygon fill="white" stroke="black" points="692.5,-58.5 692.5,-79.5 797.5,-79.5 797.5,-58.5 692.5,-58.5"/>
<text text-anchor="middle" x="745" y="-66.5" font-family="Helvetica,sans-Serif" font-size="10.00">fwTools::fwID::exist</text>
</a>
</g>
<!-- Node4&#45;&gt;Node6 -->
<g id="edge10" class="edge"><title>Node4&#45;&gt;Node6</title>
<path fill="none" stroke="midnightblue" d="M644.211,-83.9557C656.542,-82.126 669.739,-80.1677 682.387,-78.2909"/>
<polygon fill="midnightblue" stroke="midnightblue" points="683.008,-81.7373 692.386,-76.8073 681.98,-74.8131 683.008,-81.7373"/>
</g>
</g>
</svg>
