<?xml version="1.0" encoding="UTF-8" standalone="no"?>
<!DOCTYPE svg PUBLIC "-//W3C//DTD SVG 1.1//EN"
 "http://www.w3.org/Graphics/SVG/1.1/DTD/svg11.dtd">
<!-- Generated by graphviz version 2.36.0 (20140111.2315)
 -->
<!-- Title: uiMedDataQt::SSeriesViewer::updating Pages: 1 -->
<svg width="558pt" height="214pt"
 viewBox="0.00 0.00 558.00 214.00" xmlns="http://www.w3.org/2000/svg" xmlns:xlink="http://www.w3.org/1999/xlink">
<g id="graph0" class="graph" transform="scale(1 1) rotate(0) translate(4 210)">
<title>uiMedDataQt::SSeriesViewer::updating</title>
<polygon fill="white" stroke="none" points="-4,4 -4,-210 554,-210 554,4 -4,4"/>
<!-- Node1 -->
<g id="node1" class="node"><title>Node1</title>
<polygon fill="#bfbfbf" stroke="black" points="0.5,-88 0.5,-118 145.5,-118 145.5,-88 0.5,-88"/>
<text text-anchor="start" x="8.5" y="-106" font-family="Helvetica,sans-Serif" font-size="10.00">uiMedDataQt::SSeriesViewer</text>
<text text-anchor="middle" x="73" y="-95" font-family="Helvetica,sans-Serif" font-size="10.00">::updating</text>
</g>
<!-- Node2 -->
<g id="node2" class="node"><title>Node2</title>
<g id="a_node2"><a xlink:href="classuiMedDataQt_1_1SSeriesViewer.html#a73d947390b4cc9cb31ae28541be59a09" target="_top" xlink:title="return object&#39;s classname without its namespace, i.e. BaseObject ">
<polygon fill="white" stroke="black" points="201.5,-176 201.5,-206 346.5,-206 346.5,-176 201.5,-176"/>
<text text-anchor="start" x="209.5" y="-194" font-family="Helvetica,sans-Serif" font-size="10.00">uiMedDataQt::SSeriesViewer</text>
<text text-anchor="middle" x="274" y="-183" font-family="Helvetica,sans-Serif" font-size="10.00">::classname</text>
</a>
</g>
</g>
<!-- Node1&#45;&gt;Node2 -->
<g id="edge1" class="edge"><title>Node1&#45;&gt;Node2</title>
<path fill="none" stroke="midnightblue" d="M95.868,-118.051C117.082,-132.087 150.585,-152.789 182,-166 187.748,-168.418 193.799,-170.669 199.935,-172.75"/>
<polygon fill="midnightblue" stroke="midnightblue" points="199.025,-176.134 209.617,-175.879 201.178,-169.473 199.025,-176.134"/>
</g>
<!-- Node3 -->
<g id="node3" class="node"><title>Node3</title>
<g id="a_node3"><a xlink:href="classfwTools_1_1fwID.html#a387264565a48b0231a7eefb7b01512a1" target="_top" xlink:title="Returns the id of the object. If it is not set and the policy value is. ">
<polygon fill="white" stroke="black" points="220,-137.5 220,-156.5 328,-156.5 328,-137.5 220,-137.5"/>
<text text-anchor="middle" x="274" y="-144.5" font-family="Helvetica,sans-Serif" font-size="10.00">fwTools::fwID::getID</text>
</a>
</g>
</g>
<!-- Node1&#45;&gt;Node3 -->
<g id="edge2" class="edge"><title>Node1&#45;&gt;Node3</title>
<path fill="none" stroke="midnightblue" d="M141.4,-118.003C154.848,-120.989 168.872,-124.099 182,-127 194.093,-129.672 207.092,-132.535 219.373,-135.236"/>
<polygon fill="midnightblue" stroke="midnightblue" points="218.967,-138.73 229.485,-137.458 220.47,-131.893 218.967,-138.73"/>
</g>
<!-- Node6 -->
<g id="node6" class="node"><title>Node6</title>
<g id="a_node6"><a xlink:href="classfwServices_1_1registry_1_1AppConfig.html#a82fae51e58bd27b63f7307e258f38b70" target="_top" xlink:title="Create an unique identifier. ">
<polygon fill="white" stroke="black" points="196,-88 196,-118 352,-118 352,-88 196,-88"/>
<text text-anchor="start" x="204" y="-106" font-family="Helvetica,sans-Serif" font-size="10.00">fwServices::registry</text>
<text text-anchor="middle" x="274" y="-95" font-family="Helvetica,sans-Serif" font-size="10.00">::AppConfig::getUniqueIdentifier</text>
</a>
</g>
</g>
<!-- Node1&#45;&gt;Node6 -->
<g id="edge5" class="edge"><title>Node1&#45;&gt;Node6</title>
<path fill="none" stroke="midnightblue" d="M145.562,-103C158.526,-103 172.179,-103 185.538,-103"/>
<polygon fill="midnightblue" stroke="midnightblue" points="185.68,-106.5 195.68,-103 185.68,-99.5001 185.68,-106.5"/>
</g>
<!-- Node7 -->
<g id="node7" class="node"><title>Node7</title>
<g id="a_node7"><a xlink:href="classuiMedDataQt_1_1SSeriesViewer.html#a296e06027c5b6488b6801cd1df3efd62" target="_top" xlink:title="Write information in a stream. ">
<polygon fill="white" stroke="black" points="201.5,-39 201.5,-69 346.5,-69 346.5,-39 201.5,-39"/>
<text text-anchor="start" x="209.5" y="-57" font-family="Helvetica,sans-Serif" font-size="10.00">uiMedDataQt::SSeriesViewer</text>
<text text-anchor="middle" x="274" y="-46" font-family="Helvetica,sans-Serif" font-size="10.00">::info</text>
</a>
</g>
</g>
<!-- Node1&#45;&gt;Node7 -->
<g id="edge6" class="edge"><title>Node1&#45;&gt;Node7</title>
<path fill="none" stroke="midnightblue" d="M135.059,-87.9654C156.262,-82.7446 180.216,-76.8463 202.142,-71.4474"/>
<polygon fill="midnightblue" stroke="midnightblue" points="203.183,-74.7957 212.057,-69.0062 201.51,-67.9987 203.183,-74.7957"/>
</g>
<!-- Node8 -->
<g id="node8" class="node"><title>Node8</title>
<g id="a_node8"><a xlink:href="classfwServices_1_1IAppConfigManager.html#a0ff391f480a5c6edef5aa64e2d7c79f6" target="_top" xlink:title="fwServices::IAppConfigManager::New">
<polygon fill="white" stroke="black" points="182,-0.5 182,-19.5 366,-19.5 366,-0.5 182,-0.5"/>
<text text-anchor="middle" x="274" y="-7.5" font-family="Helvetica,sans-Serif" font-size="10.00">fwServices::IAppConfigManager::New</text>
</a>
</g>
</g>
<!-- Node1&#45;&gt;Node8 -->
<g id="edge7" class="edge"><title>Node1&#45;&gt;Node8</title>
<path fill="none" stroke="midnightblue" d="M91.8586,-87.7697C112.315,-71.1113 147.476,-44.8151 182,-30 188.925,-27.0283 196.343,-24.4759 203.845,-22.2885"/>
<polygon fill="midnightblue" stroke="midnightblue" points="204.982,-25.607 213.722,-19.6187 203.155,-18.8495 204.982,-25.607"/>
</g>
<!-- Node4 -->
<g id="node4" class="node"><title>Node4</title>
<g id="a_node4"><a xlink:href="classfwTools_1_1fwID.html#a4ac18bb9c046c3fd04a4c8a80add7ae6" target="_top" xlink:title="fwTools::fwID::exist">
<polygon fill="white" stroke="black" points="423.5,-156.5 423.5,-175.5 528.5,-175.5 528.5,-156.5 423.5,-156.5"/>
<text text-anchor="middle" x="476" y="-163.5" font-family="Helvetica,sans-Serif" font-size="10.00">fwTools::fwID::exist</text>
</a>
</g>
</g>
<!-- Node3&#45;&gt;Node4 -->
<g id="edge3" class="edge"><title>Node3&#45;&gt;Node4</title>
<path fill="none" stroke="midnightblue" d="M328.071,-152.042C354.238,-154.528 385.949,-157.54 413.204,-160.129"/>
<polygon fill="midnightblue" stroke="midnightblue" points="413.125,-163.638 423.411,-161.099 413.787,-156.669 413.125,-163.638"/>
</g>
<!-- Node5 -->
<g id="node5" class="node"><title>Node5</title>
<g id="a_node5"><a xlink:href="classfwTools_1_1fwID.html#a03d6d0e2227b51a0630e145911445213" target="_top" xlink:title="return full object&#39;s classname with its namespace, i.e. fwCore::BaseObject ">
<polygon fill="white" stroke="black" points="402.5,-118.5 402.5,-137.5 549.5,-137.5 549.5,-118.5 402.5,-118.5"/>
<text text-anchor="middle" x="476" y="-125.5" font-family="Helvetica,sans-Serif" font-size="10.00">fwTools::fwID::getClassname</text>
</a>
</g>
</g>
<!-- Node3&#45;&gt;Node5 -->
<g id="edge4" class="edge"><title>Node3&#45;&gt;Node5</title>
<path fill="none" stroke="midnightblue" d="M328.071,-141.958C347.752,-140.089 370.569,-137.921 392.268,-135.86"/>
<polygon fill="midnightblue" stroke="midnightblue" points="392.852,-139.32 402.476,-134.89 392.19,-132.351 392.852,-139.32"/>
</g>
</g>
</svg>
