<?xml version="1.0" encoding="UTF-8" standalone="no"?>
<!DOCTYPE svg PUBLIC "-//W3C//DTD SVG 1.1//EN"
 "http://www.w3.org/Graphics/SVG/1.1/DTD/svg11.dtd">
<!-- Generated by graphviz version 2.26.3 (20100126.1600)
 -->
<!-- Title: fwDcmtkIO::reader::rgblookup::ImageRGBLookupLazySource::read Pages: 1 -->
<svg width="376pt" height="56pt"
 viewBox="0.00 0.00 376.00 56.00" xmlns="http://www.w3.org/2000/svg" xmlns:xlink="http://www.w3.org/1999/xlink">
<g id="graph1" class="graph" transform="scale(1 1) rotate(0) translate(4 52)">
<title>fwDcmtkIO::reader::rgblookup::ImageRGBLookupLazySource::read</title>
<polygon fill="white" stroke="white" points="-4,5 -4,-52 373,-52 373,5 -4,5"/>
<!-- Node1 -->
<g id="node1" class="node"><title>Node1</title>
<polygon fill="#bfbfbf" stroke="black" points="0,-0.5 0,-47.5 166,-47.5 166,-0.5 0,-0.5"/>
<text text-anchor="start" x="8" y="-34.5" font-family="Helvetica,sans-Serif" font-size="10.00">fwDcmtkIO::reader::</text>
<text text-anchor="start" x="8" y="-21.5" font-family="Helvetica,sans-Serif" font-size="10.00">rgblookup::ImageRGBLookupLazy</text>
<text text-anchor="middle" x="83" y="-8.5" font-family="Helvetica,sans-Serif" font-size="10.00">Source::read</text>
</g>
<!-- Node2 -->
<g id="node3" class="node"><title>Node2</title>
<a xlink:href="classfwDcmtkIO_1_1reader_1_1rgblookup_1_1ImageRGBLookupLazyReader.html#a5560c13432e92d1166296ae00ebc07d7" target="_top" xlink:title="Create an instance buffer according to the image type. The template T is used to determine color form...">
<polygon fill="white" stroke="black" points="202,-0.5 202,-47.5 368,-47.5 368,-0.5 202,-0.5"/>
<text text-anchor="start" x="210" y="-34.5" font-family="Helvetica,sans-Serif" font-size="10.00">fwDcmtkIO::reader::</text>
<text text-anchor="start" x="210" y="-21.5" font-family="Helvetica,sans-Serif" font-size="10.00">rgblookup::ImageRGBLookupLazy</text>
<text text-anchor="middle" x="285" y="-8.5" font-family="Helvetica,sans-Serif" font-size="10.00">Reader::createInstanceBuffer</text>
</a>
</g>
<!-- Node1&#45;&gt;Node2 -->
<g id="edge2" class="edge"><title>Node1&#45;&gt;Node2</title>
<path fill="none" stroke="midnightblue" d="M166.036,-24C174.561,-24 183.262,-24 191.887,-24"/>
<polygon fill="midnightblue" stroke="midnightblue" points="191.96,-27.5001 201.96,-24 191.96,-20.5001 191.96,-27.5001"/>
</g>
</g>
</svg>
