<?xml version="1.0" encoding="UTF-8" standalone="no"?>
<!DOCTYPE svg PUBLIC "-//W3C//DTD SVG 1.1//EN"
 "http://www.w3.org/Graphics/SVG/1.1/DTD/svg11.dtd">
<!-- Generated by graphviz version 2.26.3 (20100126.1600)
 -->
<!-- Title: fwGdcmIO::reader::tid::Fiducial::addLandmark Pages: 1 -->
<svg width="932pt" height="56pt"
 viewBox="0.00 0.00 932.00 56.00" xmlns="http://www.w3.org/2000/svg" xmlns:xlink="http://www.w3.org/1999/xlink">
<g id="graph1" class="graph" transform="scale(1 1) rotate(0) translate(4 52)">
<title>fwGdcmIO::reader::tid::Fiducial::addLandmark</title>
<polygon fill="white" stroke="white" points="-4,5 -4,-52 929,-52 929,5 -4,5"/>
<!-- Node1 -->
<g id="node1" class="node"><title>Node1</title>
<polygon fill="#bfbfbf" stroke="black" points="0.5,-7 0.5,-41 121.5,-41 121.5,-7 0.5,-7"/>
<text text-anchor="start" x="8.5" y="-28" font-family="Helvetica,sans-Serif" font-size="10.00">fwGdcmIO::reader::tid</text>
<text text-anchor="middle" x="61" y="-15" font-family="Helvetica,sans-Serif" font-size="10.00">::Fiducial::addLandmark</text>
</g>
<!-- Node2 -->
<g id="node3" class="node"><title>Node2</title>
<a xlink:href="classfwGdcmIO_1_1reader_1_1tid_1_1Fiducial.html#a1ae5908e2c27608344a2627b6ce07d7e" target="_top" xlink:title="Read a fiducial node. ">
<polygon fill="white" stroke="black" points="158.5,-7 158.5,-41 271.5,-41 271.5,-7 158.5,-7"/>
<text text-anchor="start" x="166.5" y="-28" font-family="Helvetica,sans-Serif" font-size="10.00">fwGdcmIO::reader::tid</text>
<text text-anchor="middle" x="215" y="-15" font-family="Helvetica,sans-Serif" font-size="10.00">::Fiducial::readNode</text>
</a>
</g>
<!-- Node1&#45;&gt;Node2 -->
<g id="edge2" class="edge"><title>Node1&#45;&gt;Node2</title>
<path fill="none" stroke="midnightblue" d="M132.039,-24C140.77,-24 149.603,-24 158.087,-24"/>
<polygon fill="midnightblue" stroke="midnightblue" points="131.865,-20.5001 121.865,-24 131.865,-27.5001 131.865,-20.5001"/>
</g>
<!-- Node3 -->
<g id="node5" class="node"><title>Node3</title>
<a xlink:href="classfwGdcmIO_1_1reader_1_1tid_1_1MeasurementReport.html#a5e961cd53fcf137cd30bb64a429e0576" target="_top" xlink:title="Create Measurement Report template root node. ">
<polygon fill="white" stroke="black" points="308.5,-0.5 308.5,-47.5 425.5,-47.5 425.5,-0.5 308.5,-0.5"/>
<text text-anchor="start" x="316.5" y="-34.5" font-family="Helvetica,sans-Serif" font-size="10.00">fwGdcmIO::reader::tid</text>
<text text-anchor="start" x="316.5" y="-21.5" font-family="Helvetica,sans-Serif" font-size="10.00">::MeasurementReport::</text>
<text text-anchor="middle" x="367" y="-8.5" font-family="Helvetica,sans-Serif" font-size="10.00">readSR</text>
</a>
</g>
<!-- Node2&#45;&gt;Node3 -->
<g id="edge4" class="edge"><title>Node2&#45;&gt;Node3</title>
<path fill="none" stroke="midnightblue" d="M281.847,-24C290.666,-24 299.652,-24 308.321,-24"/>
<polygon fill="midnightblue" stroke="midnightblue" points="281.599,-20.5001 271.599,-24 281.599,-27.5001 281.599,-20.5001"/>
</g>
<!-- Node4 -->
<g id="node7" class="node"><title>Node4</title>
<a xlink:href="classfwGdcmIO_1_1reader_1_1ie_1_1Document.html#ae6da9916273eb44ed3e2373ae9afcd35" target="_top" xlink:title="Read the Structured Report. ">
<polygon fill="white" stroke="black" points="462,-7 462,-41 572,-41 572,-7 462,-7"/>
<text text-anchor="start" x="470" y="-28" font-family="Helvetica,sans-Serif" font-size="10.00">fwGdcmIO::reader::ie</text>
<text text-anchor="middle" x="517" y="-15" font-family="Helvetica,sans-Serif" font-size="10.00">::Document::readSR</text>
</a>
</g>
<!-- Node3&#45;&gt;Node4 -->
<g id="edge6" class="edge"><title>Node3&#45;&gt;Node4</title>
<path fill="none" stroke="midnightblue" d="M435.931,-24C444.582,-24 453.341,-24 461.745,-24"/>
<polygon fill="midnightblue" stroke="midnightblue" points="435.853,-20.5001 425.853,-24 435.853,-27.5001 435.853,-20.5001"/>
</g>
<!-- Node5 -->
<g id="node9" class="node"><title>Node5</title>
<a xlink:href="classfwGdcmIO_1_1reader_1_1iod_1_1ComprehensiveSRIOD.html#a748271e420dd95c9547a223b0e7a3568" target="_top" xlink:title="Read a DICOM File. ">
<polygon fill="white" stroke="black" points="608,-7 608,-41 756,-41 756,-7 608,-7"/>
<text text-anchor="start" x="616" y="-28" font-family="Helvetica,sans-Serif" font-size="10.00">fwGdcmIO::reader::iod</text>
<text text-anchor="middle" x="682" y="-15" font-family="Helvetica,sans-Serif" font-size="10.00">::ComprehensiveSRIOD::read</text>
</a>
</g>
<!-- Node4&#45;&gt;Node5 -->
<g id="edge8" class="edge"><title>Node4&#45;&gt;Node5</title>
<path fill="none" stroke="midnightblue" d="M582.477,-24C590.857,-24 599.482,-24 607.986,-24"/>
<polygon fill="midnightblue" stroke="midnightblue" points="582.402,-20.5001 572.402,-24 582.402,-27.5001 582.402,-20.5001"/>
</g>
<!-- Node6 -->
<g id="node11" class="node"><title>Node6</title>
<a xlink:href="classfwGdcmIO_1_1reader_1_1Series.html#a6a37a4d62baf8ed22f884c755372dfc0" target="_top" xlink:title="Destructor. ">
<polygon fill="white" stroke="black" points="792.5,-7 792.5,-41 923.5,-41 923.5,-7 792.5,-7"/>
<text text-anchor="start" x="800.5" y="-28" font-family="Helvetica,sans-Serif" font-size="10.00">fwGdcmIO::reader::Series</text>
<text text-anchor="middle" x="858" y="-15" font-family="Helvetica,sans-Serif" font-size="10.00">::~Series</text>
</a>
</g>
<!-- Node5&#45;&gt;Node6 -->
<g id="edge10" class="edge"><title>Node5&#45;&gt;Node6</title>
<path fill="none" stroke="midnightblue" d="M766.339,-24C775.073,-24 783.854,-24 792.339,-24"/>
<polygon fill="midnightblue" stroke="midnightblue" points="766.13,-20.5001 756.13,-24 766.13,-27.5001 766.13,-20.5001"/>
</g>
</g>
</svg>
