<?xml version="1.0" encoding="UTF-8" standalone="no"?>
<!DOCTYPE svg PUBLIC "-//W3C//DTD SVG 1.1//EN"
 "http://www.w3.org/Graphics/SVG/1.1/DTD/svg11.dtd">
<!-- Generated by graphviz version 2.36.0 (20140111.2315)
 -->
<!-- Title: fwData::Graph::getEdges Pages: 1 -->
<svg width="322pt" height="115pt"
 viewBox="0.00 0.00 322.00 115.00" xmlns="http://www.w3.org/2000/svg" xmlns:xlink="http://www.w3.org/1999/xlink">
<g id="graph0" class="graph" transform="scale(1 1) rotate(0) translate(4 111)">
<title>fwData::Graph::getEdges</title>
<polygon fill="white" stroke="none" points="-4,4 -4,-111 318,-111 318,4 -4,4"/>
<!-- Node1 -->
<g id="node1" class="node"><title>Node1</title>
<polygon fill="#bfbfbf" stroke="black" points="0,-49.5 0,-68.5 128,-68.5 128,-49.5 0,-49.5"/>
<text text-anchor="middle" x="64" y="-56.5" font-family="Helvetica,sans-Serif" font-size="10.00">fwData::Graph::getEdges</text>
</g>
<!-- Node2 -->
<g id="node2" class="node"><title>Node2</title>
<g id="a_node2"><a xlink:href="classfwData_1_1Graph.html#a57ba33bf8f159d677e9e7264e3f87bb8" target="_top" xlink:title="Get input edges. ">
<polygon fill="white" stroke="black" points="164.5,-87.5 164.5,-106.5 313.5,-106.5 313.5,-87.5 164.5,-87.5"/>
<text text-anchor="middle" x="239" y="-94.5" font-family="Helvetica,sans-Serif" font-size="10.00">fwData::Graph::getInputEdges</text>
</a>
</g>
</g>
<!-- Node1&#45;&gt;Node2 -->
<g id="edge1" class="edge"><title>Node1&#45;&gt;Node2</title>
<path fill="none" stroke="midnightblue" d="M118.505,-70.7526C142.967,-76.1258 171.571,-82.4086 194.659,-87.4799"/>
<polygon fill="midnightblue" stroke="midnightblue" points="119.173,-67.316 108.655,-68.589 117.671,-74.153 119.173,-67.316"/>
</g>
<!-- Node3 -->
<g id="node3" class="node"><title>Node3</title>
<g id="a_node3"><a xlink:href="classfwData_1_1Graph.html#a18ec67612448aa0c9134180634cd1ea8" target="_top" xlink:title="Get a vector of nodes. ">
<polygon fill="white" stroke="black" points="175,-49.5 175,-68.5 303,-68.5 303,-49.5 175,-49.5"/>
<text text-anchor="middle" x="239" y="-56.5" font-family="Helvetica,sans-Serif" font-size="10.00">fwData::Graph::getNodes</text>
</a>
</g>
</g>
<!-- Node1&#45;&gt;Node3 -->
<g id="edge2" class="edge"><title>Node1&#45;&gt;Node3</title>
<path fill="none" stroke="midnightblue" d="M138.497,-59C150.596,-59 163.043,-59 174.86,-59"/>
<polygon fill="midnightblue" stroke="midnightblue" points="138.437,-55.5001 128.436,-59 138.436,-62.5001 138.437,-55.5001"/>
</g>
<!-- Node4 -->
<g id="node4" class="node"><title>Node4</title>
<g id="a_node4"><a xlink:href="classfwData_1_1Graph.html#a389614ee13fa19b50c4854f6ebd1b694" target="_top" xlink:title="Get output edges. ">
<polygon fill="white" stroke="black" points="174.5,-0 174.5,-30 303.5,-30 303.5,-0 174.5,-0"/>
<text text-anchor="start" x="182.5" y="-18" font-family="Helvetica,sans-Serif" font-size="10.00">fwData::Graph::getOutput</text>
<text text-anchor="middle" x="239" y="-7" font-family="Helvetica,sans-Serif" font-size="10.00">Edges</text>
</a>
</g>
</g>
<!-- Node1&#45;&gt;Node4 -->
<g id="edge3" class="edge"><title>Node1&#45;&gt;Node4</title>
<path fill="none" stroke="midnightblue" d="M112.285,-46.9739C132.805,-41.7547 157.061,-35.5856 178.766,-30.0654"/>
<polygon fill="midnightblue" stroke="midnightblue" points="111.367,-43.5957 102.538,-49.4527 113.093,-50.3797 111.367,-43.5957"/>
</g>
</g>
</svg>
