<?xml version="1.0" encoding="UTF-8" standalone="no"?>
<!DOCTYPE svg PUBLIC "-//W3C//DTD SVG 1.1//EN"
 "http://www.w3.org/Graphics/SVG/1.1/DTD/svg11.dtd">
<!-- Generated by graphviz version 2.26.3 (20100126.1600)
 -->
<!-- Title: fwRuntime::profile::Uninitializer::apply Pages: 1 -->
<svg width="256pt" height="94pt"
 viewBox="0.00 0.00 256.00 94.00" xmlns="http://www.w3.org/2000/svg" xmlns:xlink="http://www.w3.org/1999/xlink">
<g id="graph1" class="graph" transform="scale(1 1) rotate(0) translate(4 90)">
<title>fwRuntime::profile::Uninitializer::apply</title>
<polygon fill="white" stroke="white" points="-4,5 -4,-90 253,-90 253,5 -4,5"/>
<!-- Node1 -->
<g id="node1" class="node"><title>Node1</title>
<polygon fill="#bfbfbf" stroke="black" points="0.5,-26 0.5,-60 103.5,-60 103.5,-26 0.5,-26"/>
<text text-anchor="start" x="8.5" y="-47" font-family="Helvetica,sans-Serif" font-size="10.00">fwRuntime::profile</text>
<text text-anchor="middle" x="52" y="-34" font-family="Helvetica,sans-Serif" font-size="10.00">::Uninitializer::apply</text>
</g>
<!-- Node2 -->
<g id="node3" class="node"><title>Node2</title>
<a xlink:href="structfwRuntime_1_1Runtime.html#aa7a79fcdb77983835e28ddc61fe822ac" target="_top" xlink:title="Retrieves the bundle for the specified idenfier. ">
<polygon fill="white" stroke="black" points="140.5,-52 140.5,-86 247.5,-86 247.5,-52 140.5,-52"/>
<text text-anchor="start" x="148.5" y="-73" font-family="Helvetica,sans-Serif" font-size="10.00">fwRuntime::Runtime</text>
<text text-anchor="middle" x="194" y="-60" font-family="Helvetica,sans-Serif" font-size="10.00">::findBundle</text>
</a>
</g>
<!-- Node1&#45;&gt;Node2 -->
<g id="edge2" class="edge"><title>Node1&#45;&gt;Node2</title>
<path fill="none" stroke="midnightblue" d="M103.667,-52.4601C112.309,-54.0426 121.365,-55.7007 130.268,-57.3307"/>
<polygon fill="midnightblue" stroke="midnightblue" points="129.756,-60.7951 140.223,-59.1534 131.016,-53.9095 129.756,-60.7951"/>
</g>
<!-- Node3 -->
<g id="node5" class="node"><title>Node3</title>
<a xlink:href="structfwRuntime_1_1Runtime.html#acf43340892d940d12b36db78376fe08f" target="_top" xlink:title="Retrieves the default runtime instance. ">
<polygon fill="white" stroke="black" points="140.5,-0 140.5,-34 247.5,-34 247.5,-0 140.5,-0"/>
<text text-anchor="start" x="148.5" y="-21" font-family="Helvetica,sans-Serif" font-size="10.00">fwRuntime::Runtime</text>
<text text-anchor="middle" x="194" y="-8" font-family="Helvetica,sans-Serif" font-size="10.00">::getDefault</text>
</a>
</g>
<!-- Node1&#45;&gt;Node3 -->
<g id="edge4" class="edge"><title>Node1&#45;&gt;Node3</title>
<path fill="none" stroke="midnightblue" d="M103.667,-33.5399C112.309,-31.9574 121.365,-30.2993 130.268,-28.6693"/>
<polygon fill="midnightblue" stroke="midnightblue" points="131.016,-32.0905 140.223,-26.8466 129.756,-25.2049 131.016,-32.0905"/>
</g>
</g>
</svg>
