<?xml version="1.0" encoding="UTF-8" standalone="no"?>
<!DOCTYPE svg PUBLIC "-//W3C//DTD SVG 1.1//EN"
 "http://www.w3.org/Graphics/SVG/1.1/DTD/svg11.dtd">
<!-- Generated by graphviz version 2.36.0 (20140111.2315)
 -->
<!-- Title: fwStructuralPatch::fwData::Patient::V1ToFwMedDataPatientV1::apply Pages: 1 -->
<svg width="472pt" height="262pt"
 viewBox="0.00 0.00 472.00 262.00" xmlns="http://www.w3.org/2000/svg" xmlns:xlink="http://www.w3.org/1999/xlink">
<g id="graph0" class="graph" transform="scale(1 1) rotate(0) translate(4 258)">
<title>fwStructuralPatch::fwData::Patient::V1ToFwMedDataPatientV1::apply</title>
<polygon fill="white" stroke="none" points="-4,4 -4,-258 468,-258 468,4 -4,4"/>
<!-- Node1 -->
<g id="node1" class="node"><title>Node1</title>
<polygon fill="#bfbfbf" stroke="black" points="0,-116.5 0,-157.5 146,-157.5 146,-116.5 0,-116.5"/>
<text text-anchor="start" x="8" y="-145.5" font-family="Helvetica,sans-Serif" font-size="10.00">fwStructuralPatch::</text>
<text text-anchor="start" x="8" y="-134.5" font-family="Helvetica,sans-Serif" font-size="10.00">fwData::Patient::V1ToFwMed</text>
<text text-anchor="middle" x="73" y="-123.5" font-family="Helvetica,sans-Serif" font-size="10.00">DataPatientV1::apply</text>
</g>
<!-- Node2 -->
<g id="node2" class="node"><title>Node2</title>
<g id="a_node2"><a xlink:href="namespacefwTools.html#a464648f2bcf775ded44af140d87d084f" target="_top" xlink:title="Convert a boost time to a string date. ">
<polygon fill="white" stroke="black" points="202,-234.5 202,-253.5 294,-253.5 294,-234.5 202,-234.5"/>
<text text-anchor="middle" x="248" y="-241.5" font-family="Helvetica,sans-Serif" font-size="10.00">fwTools::getDate</text>
</a>
</g>
</g>
<!-- Node1&#45;&gt;Node2 -->
<g id="edge1" class="edge"><title>Node1&#45;&gt;Node2</title>
<path fill="none" stroke="midnightblue" d="M94.1058,-157.62C114.544,-177.491 147.962,-207.104 182,-225 186.263,-227.242 190.827,-229.252 195.485,-231.049"/>
<polygon fill="midnightblue" stroke="midnightblue" points="194.52,-234.419 205.115,-234.44 196.845,-227.817 194.52,-234.419"/>
</g>
<!-- Node3 -->
<g id="node3" class="node"><title>Node3</title>
<g id="a_node3"><a xlink:href="classfwAtoms_1_1String.html#a5e58c24f782dcaf06b0e7fc8d3fc689d" target="_top" xlink:title="Construct a new Object represented a string. ">
<polygon fill="white" stroke="black" points="191.5,-196.5 191.5,-215.5 304.5,-215.5 304.5,-196.5 191.5,-196.5"/>
<text text-anchor="middle" x="248" y="-203.5" font-family="Helvetica,sans-Serif" font-size="10.00">fwAtoms::String::New</text>
</a>
</g>
</g>
<!-- Node1&#45;&gt;Node3 -->
<g id="edge2" class="edge"><title>Node1&#45;&gt;Node3</title>
<path fill="none" stroke="midnightblue" d="M116.048,-157.584C135.815,-166.87 159.858,-177.61 182,-186 188.831,-188.589 196.158,-191.094 203.341,-193.406"/>
<polygon fill="midnightblue" stroke="midnightblue" points="202.398,-196.778 212.987,-196.427 204.49,-190.098 202.398,-196.778"/>
</g>
<!-- Node4 -->
<g id="node4" class="node"><title>Node4</title>
<g id="a_node4"><a xlink:href="classfwAtomsPatch_1_1helper_1_1Object.html#a73ade512c5c20f6dc200b88d417568d7" target="_top" xlink:title="Removes an attribute. ">
<polygon fill="white" stroke="black" points="185,-147 185,-177 311,-177 311,-147 185,-147"/>
<text text-anchor="start" x="193" y="-165" font-family="Helvetica,sans-Serif" font-size="10.00">fwAtomsPatch::helper</text>
<text text-anchor="middle" x="248" y="-154" font-family="Helvetica,sans-Serif" font-size="10.00">::Object::removeAttribute</text>
</a>
</g>
</g>
<!-- Node1&#45;&gt;Node4 -->
<g id="edge3" class="edge"><title>Node1&#45;&gt;Node4</title>
<path fill="none" stroke="midnightblue" d="M146.115,-147.421C155.579,-148.789 165.279,-150.191 174.746,-151.559"/>
<polygon fill="midnightblue" stroke="midnightblue" points="174.506,-155.06 184.903,-153.027 175.507,-148.132 174.506,-155.06"/>
</g>
<!-- Node7 -->
<g id="node7" class="node"><title>Node7</title>
<g id="a_node7"><a xlink:href="classfwAtomsPatch_1_1helper_1_1Object.html#a665f67b00ad445fdb12943c96d965025" target="_top" xlink:title="Renames an attribute. ">
<polygon fill="white" stroke="black" points="185,-98 185,-128 311,-128 311,-98 185,-98"/>
<text text-anchor="start" x="193" y="-116" font-family="Helvetica,sans-Serif" font-size="10.00">fwAtomsPatch::helper</text>
<text text-anchor="middle" x="248" y="-105" font-family="Helvetica,sans-Serif" font-size="10.00">::Object::renameAttribute</text>
</a>
</g>
</g>
<!-- Node1&#45;&gt;Node7 -->
<g id="edge6" class="edge"><title>Node1&#45;&gt;Node7</title>
<path fill="none" stroke="midnightblue" d="M146.115,-126.996C155.579,-125.683 165.279,-124.337 174.746,-123.024"/>
<polygon fill="midnightblue" stroke="midnightblue" points="175.479,-126.456 184.903,-121.615 174.517,-119.522 175.479,-126.456"/>
</g>
<!-- Node8 -->
<g id="node8" class="node"><title>Node8</title>
<g id="a_node8"><a xlink:href="classfwAtomsPatch_1_1helper_1_1Object.html#aa5596a46cf7f0d2f5170f86a8fa6a27a" target="_top" xlink:title="Replaces an attribute. ">
<polygon fill="white" stroke="black" points="185.5,-49 185.5,-79 310.5,-79 310.5,-49 185.5,-49"/>
<text text-anchor="start" x="193.5" y="-67" font-family="Helvetica,sans-Serif" font-size="10.00">fwAtomsPatch::helper</text>
<text text-anchor="middle" x="248" y="-56" font-family="Helvetica,sans-Serif" font-size="10.00">::Object::replaceAttribute</text>
</a>
</g>
</g>
<!-- Node1&#45;&gt;Node8 -->
<g id="edge9" class="edge"><title>Node1&#45;&gt;Node8</title>
<path fill="none" stroke="midnightblue" d="M117.304,-116.49C136.915,-107.425 160.479,-96.8416 182,-88 186.36,-86.2086 190.909,-84.4032 195.486,-82.6302"/>
<polygon fill="midnightblue" stroke="midnightblue" points="196.773,-85.8852 204.869,-79.051 194.278,-79.3448 196.773,-85.8852"/>
</g>
<!-- Node9 -->
<g id="node9" class="node"><title>Node9</title>
<g id="a_node9"><a xlink:href="classfwAtomsPatch_1_1IStructuralPatch.html#a726107d852575ef665641f0c4ea43209" target="_top" xlink:title="Updates the version of the patched object. ">
<polygon fill="white" stroke="black" points="182,-0 182,-30 314,-30 314,-0 182,-0"/>
<text text-anchor="start" x="190" y="-18" font-family="Helvetica,sans-Serif" font-size="10.00">fwAtomsPatch::IStructural</text>
<text text-anchor="middle" x="248" y="-7" font-family="Helvetica,sans-Serif" font-size="10.00">Patch::updateVersion</text>
</a>
</g>
</g>
<!-- Node1&#45;&gt;Node9 -->
<g id="edge12" class="edge"><title>Node1&#45;&gt;Node9</title>
<path fill="none" stroke="midnightblue" d="M92.0646,-116.471C112.161,-94.6987 146.499,-60.5366 182,-39 184.64,-37.3983 187.405,-35.8764 190.242,-34.4345"/>
<polygon fill="midnightblue" stroke="midnightblue" points="191.917,-37.5146 199.487,-30.1019 188.947,-31.1761 191.917,-37.5146"/>
</g>
<!-- Node5 -->
<g id="node5" class="node"><title>Node5</title>
<g id="a_node5"><a xlink:href="namespacefwAtomsPatch_1_1helper.html#a49db7036b323f4c23effd6ca3e020996" target="_top" xlink:title="Get classname of an object. ">
<polygon fill="white" stroke="black" points="350.5,-122 350.5,-152 463.5,-152 463.5,-122 350.5,-122"/>
<text text-anchor="start" x="358.5" y="-140" font-family="Helvetica,sans-Serif" font-size="10.00">fwAtomsPatch::helper</text>
<text text-anchor="middle" x="407" y="-129" font-family="Helvetica,sans-Serif" font-size="10.00">::getClassname</text>
</a>
</g>
</g>
<!-- Node4&#45;&gt;Node5 -->
<g id="edge4" class="edge"><title>Node4&#45;&gt;Node5</title>
<path fill="none" stroke="midnightblue" d="M311.051,-152.119C320.656,-150.59 330.606,-149.005 340.289,-147.464"/>
<polygon fill="midnightblue" stroke="midnightblue" points="340.932,-150.905 350.257,-145.876 339.831,-143.992 340.932,-150.905"/>
</g>
<!-- Node6 -->
<g id="node6" class="node"><title>Node6</title>
<g id="a_node6"><a xlink:href="namespacefwAtomsPatch_1_1helper.html#a87463944cf2233827a11abde6cad8635" target="_top" xlink:title="Get version of an object. ">
<polygon fill="white" stroke="black" points="350.5,-73 350.5,-103 463.5,-103 463.5,-73 350.5,-73"/>
<text text-anchor="start" x="358.5" y="-91" font-family="Helvetica,sans-Serif" font-size="10.00">fwAtomsPatch::helper</text>
<text text-anchor="middle" x="407" y="-80" font-family="Helvetica,sans-Serif" font-size="10.00">::getVersion</text>
</a>
</g>
</g>
<!-- Node4&#45;&gt;Node6 -->
<g id="edge5" class="edge"><title>Node4&#45;&gt;Node6</title>
<path fill="none" stroke="midnightblue" d="M292.247,-146.908C299.629,-143.898 307.128,-140.557 314,-137 331.078,-128.161 333.161,-122.286 350,-113 353.416,-111.116 357.002,-109.26 360.638,-107.461"/>
<polygon fill="midnightblue" stroke="midnightblue" points="362.199,-110.594 369.714,-103.126 359.182,-104.278 362.199,-110.594"/>
</g>
<!-- Node7&#45;&gt;Node5 -->
<g id="edge7" class="edge"><title>Node7&#45;&gt;Node5</title>
<path fill="none" stroke="midnightblue" d="M311.051,-122.485C320.656,-123.954 330.606,-125.475 340.289,-126.955"/>
<polygon fill="midnightblue" stroke="midnightblue" points="339.843,-130.427 350.257,-128.479 340.901,-123.508 339.843,-130.427"/>
</g>
<!-- Node7&#45;&gt;Node6 -->
<g id="edge8" class="edge"><title>Node7&#45;&gt;Node6</title>
<path fill="none" stroke="midnightblue" d="M311.051,-103.119C320.656,-101.59 330.606,-100.005 340.289,-98.4635"/>
<polygon fill="midnightblue" stroke="midnightblue" points="340.932,-101.905 350.257,-96.8762 339.831,-94.9924 340.932,-101.905"/>
</g>
<!-- Node8&#45;&gt;Node5 -->
<g id="edge10" class="edge"><title>Node8&#45;&gt;Node5</title>
<path fill="none" stroke="midnightblue" d="M293.997,-79.0434C300.813,-81.7699 307.675,-84.7803 314,-88 331.137,-96.7234 333.161,-102.714 350,-112 353.416,-113.884 357.002,-115.74 360.638,-117.539"/>
<polygon fill="midnightblue" stroke="midnightblue" points="359.182,-120.722 369.714,-121.874 362.199,-114.406 359.182,-120.722"/>
</g>
<!-- Node8&#45;&gt;Node6 -->
<g id="edge11" class="edge"><title>Node8&#45;&gt;Node6</title>
<path fill="none" stroke="midnightblue" d="M310.6,-73.4166C320.355,-74.9078 330.476,-76.4549 340.32,-77.9597"/>
<polygon fill="midnightblue" stroke="midnightblue" points="340.038,-81.4572 350.452,-79.5086 341.096,-74.5375 340.038,-81.4572"/>
</g>
</g>
</svg>
