<?xml version="1.0" encoding="UTF-8" standalone="no"?>
<!DOCTYPE svg PUBLIC "-//W3C//DTD SVG 1.1//EN"
 "http://www.w3.org/Graphics/SVG/1.1/DTD/svg11.dtd">
<!-- Generated by graphviz version 2.36.0 (20140111.2315)
 -->
<!-- Title: fwJobs::IJob::setTotalWorkUnits Pages: 1 -->
<svg width="480pt" height="38pt"
 viewBox="0.00 0.00 480.00 38.00" xmlns="http://www.w3.org/2000/svg" xmlns:xlink="http://www.w3.org/1999/xlink">
<g id="graph0" class="graph" transform="scale(1 1) rotate(0) translate(4 34)">
<title>fwJobs::IJob::setTotalWorkUnits</title>
<polygon fill="white" stroke="none" points="-4,4 -4,-34 476,-34 476,4 -4,4"/>
<!-- Node1 -->
<g id="node1" class="node"><title>Node1</title>
<polygon fill="#bfbfbf" stroke="black" points="0.5,-0 0.5,-30 137.5,-30 137.5,-0 0.5,-0"/>
<text text-anchor="start" x="8.5" y="-18" font-family="Helvetica,sans-Serif" font-size="10.00">fwJobs::IJob::setTotalWork</text>
<text text-anchor="middle" x="69" y="-7" font-family="Helvetica,sans-Serif" font-size="10.00">Units</text>
</g>
<!-- Node2 -->
<g id="node2" class="node"><title>Node2</title>
<g id="a_node2"><a xlink:href="classfwJobs_1_1IJob.html#a0d9adb92a5cdb544ba8a34f5d58a223d" target="_top" xlink:title="Setter on total work units. ">
<polygon fill="white" stroke="black" points="174.5,-0 174.5,-30 311.5,-30 311.5,-0 174.5,-0"/>
<text text-anchor="start" x="182.5" y="-18" font-family="Helvetica,sans-Serif" font-size="10.00">fwJobs::IJob::setTotalWork</text>
<text text-anchor="middle" x="243" y="-7" font-family="Helvetica,sans-Serif" font-size="10.00">UnitsUpgradeLock</text>
</a>
</g>
</g>
<!-- Node1&#45;&gt;Node2 -->
<g id="edge1" class="edge"><title>Node1&#45;&gt;Node2</title>
<path fill="none" stroke="midnightblue" d="M137.979,-15C146.55,-15 155.372,-15 164.082,-15"/>
<polygon fill="midnightblue" stroke="midnightblue" points="164.233,-18.5001 174.233,-15 164.233,-11.5001 164.233,-18.5001"/>
</g>
<!-- Node3 -->
<g id="node3" class="node"><title>Node3</title>
<g id="a_node3"><a xlink:href="classfwJobs_1_1IJob.html#a595dfbfd3e0884592a9a8e79e2539107" target="_top" xlink:title="Setter on done work units. ">
<polygon fill="white" stroke="black" points="348.5,-5.5 348.5,-24.5 471.5,-24.5 471.5,-5.5 348.5,-5.5"/>
<text text-anchor="middle" x="410" y="-12.5" font-family="Helvetica,sans-Serif" font-size="10.00">fwJobs::IJob::doneWork</text>
</a>
</g>
</g>
<!-- Node2&#45;&gt;Node3 -->
<g id="edge2" class="edge"><title>Node2&#45;&gt;Node3</title>
<path fill="none" stroke="midnightblue" d="M311.588,-15C320.351,-15 329.347,-15 338.162,-15"/>
<polygon fill="midnightblue" stroke="midnightblue" points="338.401,-18.5001 348.401,-15 338.401,-11.5001 338.401,-18.5001"/>
</g>
</g>
</svg>
