<?xml version="1.0" encoding="UTF-8" standalone="no"?>
<!DOCTYPE svg PUBLIC "-//W3C//DTD SVG 1.1//EN"
 "http://www.w3.org/Graphics/SVG/1.1/DTD/svg11.dtd">
<!-- Generated by graphviz version 2.36.0 (20140111.2315)
 -->
<!-- Title: fwDataTools::helper::MedicalImageAdaptor::createTransferFunction Pages: 1 -->
<svg width="294pt" height="206pt"
 viewBox="0.00 0.00 294.00 206.00" xmlns="http://www.w3.org/2000/svg" xmlns:xlink="http://www.w3.org/1999/xlink">
<g id="graph0" class="graph" transform="scale(1 1) rotate(0) translate(4 202)">
<title>fwDataTools::helper::MedicalImageAdaptor::createTransferFunction</title>
<polygon fill="white" stroke="none" points="-4,4 -4,-202 290,-202 290,4 -4,4"/>
<!-- Node1 -->
<g id="node1" class="node"><title>Node1</title>
<polygon fill="#bfbfbf" stroke="black" points="0.5,-78.5 0.5,-119.5 123.5,-119.5 123.5,-78.5 0.5,-78.5"/>
<text text-anchor="start" x="8.5" y="-107.5" font-family="Helvetica,sans-Serif" font-size="10.00">fwDataTools::helper</text>
<text text-anchor="start" x="8.5" y="-96.5" font-family="Helvetica,sans-Serif" font-size="10.00">::MedicalImageAdaptor</text>
<text text-anchor="middle" x="62" y="-85.5" font-family="Helvetica,sans-Serif" font-size="10.00">::createTransferFunction</text>
</g>
<!-- Node2 -->
<g id="node2" class="node"><title>Node2</title>
<g id="a_node2"><a xlink:href="classfwDataTools_1_1helper_1_1Composite.html#a154193c5093752bec503b38219ef1da3" target="_top" xlink:title="Add an object in the composite. ">
<polygon fill="white" stroke="black" points="171,-168 171,-198 275,-198 275,-168 171,-168"/>
<text text-anchor="start" x="179" y="-186" font-family="Helvetica,sans-Serif" font-size="10.00">fwDataTools::helper</text>
<text text-anchor="middle" x="223" y="-175" font-family="Helvetica,sans-Serif" font-size="10.00">::Composite::add</text>
</a>
</g>
</g>
<!-- Node1&#45;&gt;Node2 -->
<g id="edge1" class="edge"><title>Node1&#45;&gt;Node2</title>
<path fill="none" stroke="midnightblue" d="M94.1505,-119.738C112.819,-131.709 137.271,-146.601 160,-158 164.018,-160.015 168.24,-161.993 172.512,-163.899"/>
<polygon fill="midnightblue" stroke="midnightblue" points="171.315,-167.194 181.883,-167.941 174.087,-160.767 171.315,-167.194"/>
</g>
<!-- Node3 -->
<g id="node3" class="node"><title>Node3</title>
<g id="a_node3"><a xlink:href="classfwDataTools_1_1fieldHelper_1_1MedicalImageHelpers.html#a1aa6e7bebb9f96a8e60a14aecc352e99" target="_top" xlink:title="Check if the image is valid. ">
<polygon fill="white" stroke="black" points="160.5,-108.5 160.5,-149.5 285.5,-149.5 285.5,-108.5 160.5,-108.5"/>
<text text-anchor="start" x="168.5" y="-137.5" font-family="Helvetica,sans-Serif" font-size="10.00">fwDataTools::fieldHelper</text>
<text text-anchor="start" x="168.5" y="-126.5" font-family="Helvetica,sans-Serif" font-size="10.00">::MedicalImageHelpers::</text>
<text text-anchor="middle" x="223" y="-115.5" font-family="Helvetica,sans-Serif" font-size="10.00">checkImageValidity</text>
</a>
</g>
</g>
<!-- Node1&#45;&gt;Node3 -->
<g id="edge2" class="edge"><title>Node1&#45;&gt;Node3</title>
<path fill="none" stroke="midnightblue" d="M123.565,-110.427C132.3,-112.076 141.36,-113.785 150.287,-115.469"/>
<polygon fill="midnightblue" stroke="midnightblue" points="149.81,-118.941 160.286,-117.356 151.108,-112.062 149.81,-118.941"/>
</g>
<!-- Node4 -->
<g id="node4" class="node"><title>Node4</title>
<g id="a_node4"><a xlink:href="classfwDataTools_1_1fieldHelper_1_1MedicalImageHelpers.html#abb0d7ac24314c1b1a988f27b8b17354a" target="_top" xlink:title="Return minimum and maximum values contained in image. If image min or max value is out of MINMAXTYPE ...">
<polygon fill="white" stroke="black" points="160.5,-48.5 160.5,-89.5 285.5,-89.5 285.5,-48.5 160.5,-48.5"/>
<text text-anchor="start" x="168.5" y="-77.5" font-family="Helvetica,sans-Serif" font-size="10.00">fwDataTools::fieldHelper</text>
<text text-anchor="start" x="168.5" y="-66.5" font-family="Helvetica,sans-Serif" font-size="10.00">::MedicalImageHelpers::</text>
<text text-anchor="middle" x="223" y="-55.5" font-family="Helvetica,sans-Serif" font-size="10.00">getMinMax</text>
</a>
</g>
</g>
<!-- Node1&#45;&gt;Node4 -->
<g id="edge3" class="edge"><title>Node1&#45;&gt;Node4</title>
<path fill="none" stroke="midnightblue" d="M123.565,-87.5727C132.3,-85.9245 141.36,-84.2152 150.287,-82.5308"/>
<polygon fill="midnightblue" stroke="midnightblue" points="151.108,-85.9377 160.286,-80.6442 149.81,-79.0591 151.108,-85.9377"/>
</g>
<!-- Node5 -->
<g id="node5" class="node"><title>Node5</title>
<g id="a_node5"><a xlink:href="classfwDataTools_1_1helper_1_1Composite.html#a97bee6deceafbd7a45f1907f9c183b2b" target="_top" xlink:title="Send the message of modification. ">
<polygon fill="white" stroke="black" points="171,-0 171,-30 275,-30 275,-0 171,-0"/>
<text text-anchor="start" x="179" y="-18" font-family="Helvetica,sans-Serif" font-size="10.00">fwDataTools::helper</text>
<text text-anchor="middle" x="223" y="-7" font-family="Helvetica,sans-Serif" font-size="10.00">::Composite::notify</text>
</a>
</g>
</g>
<!-- Node1&#45;&gt;Node5 -->
<g id="edge4" class="edge"><title>Node1&#45;&gt;Node5</title>
<path fill="none" stroke="midnightblue" d="M93.1836,-78.3187C111.92,-65.9948 136.775,-50.5542 160,-39 163.349,-37.334 166.843,-35.7051 170.393,-34.1308"/>
<polygon fill="midnightblue" stroke="midnightblue" points="172.026,-37.2398 179.856,-30.1026 169.284,-30.7991 172.026,-37.2398"/>
</g>
</g>
</svg>
