<?xml version="1.0" encoding="UTF-8" standalone="no"?>
<!DOCTYPE svg PUBLIC "-//W3C//DTD SVG 1.1//EN"
 "http://www.w3.org/Graphics/SVG/1.1/DTD/svg11.dtd">
<!-- Generated by graphviz version 2.36.0 (20140111.2315)
 -->
<!-- Title: fwRenderVTK::OffScreenInteractorManager Pages: 1 -->
<svg width="178pt" height="232pt"
 viewBox="0.00 0.00 178.00 232.00" xmlns="http://www.w3.org/2000/svg" xmlns:xlink="http://www.w3.org/1999/xlink">
<g id="graph0" class="graph" transform="scale(1 1) rotate(0) translate(4 228)">
<title>fwRenderVTK::OffScreenInteractorManager</title>
<polygon fill="white" stroke="none" points="-4,4 -4,-228 174,-228 174,4 -4,4"/>
<!-- Node1 -->
<g id="node1" class="node"><title>Node1</title>
<polygon fill="#bfbfbf" stroke="black" points="0,-1 0,-31 170,-31 170,-1 0,-1"/>
<text text-anchor="start" x="8" y="-19" font-family="Helvetica,sans-Serif" font-size="10.00">fwRenderVTK::OffScreenInteractor</text>
<text text-anchor="middle" x="85" y="-8" font-family="Helvetica,sans-Serif" font-size="10.00">Manager</text>
</g>
<!-- Node2 -->
<g id="node2" class="node"><title>Node2</title>
<g id="a_node2"><a xlink:href="classfwRenderVTK_1_1IVtkRenderWindowInteractorManager.html" target="_top" xlink:title="Defines a class to manage vtkRenderWindowInteractor in a window. ">
<polygon fill="white" stroke="black" points="0.5,-69 0.5,-99 169.5,-99 169.5,-69 0.5,-69"/>
<text text-anchor="start" x="8.5" y="-87" font-family="Helvetica,sans-Serif" font-size="10.00">fwRenderVTK::IVtkRenderWindow</text>
<text text-anchor="middle" x="85" y="-76" font-family="Helvetica,sans-Serif" font-size="10.00">InteractorManager</text>
</a>
</g>
</g>
<!-- Node2&#45;&gt;Node1 -->
<g id="edge1" class="edge"><title>Node2&#45;&gt;Node1</title>
<path fill="none" stroke="midnightblue" d="M85,-58.5322C85,-49.3606 85,-39.2449 85,-31.2931"/>
<polygon fill="midnightblue" stroke="midnightblue" points="81.5001,-58.6789 85,-68.679 88.5001,-58.679 81.5001,-58.6789"/>
</g>
<!-- Node3 -->
<g id="node3" class="node"><title>Node3</title>
<g id="a_node3"><a xlink:href="classfwCore_1_1BaseObject.html" target="_top" xlink:title="Base class for all FW4SPL&#39;s classes. ">
<polygon fill="white" stroke="black" points="32.5,-136.5 32.5,-155.5 137.5,-155.5 137.5,-136.5 32.5,-136.5"/>
<text text-anchor="middle" x="85" y="-143.5" font-family="Helvetica,sans-Serif" font-size="10.00">fwCore::BaseObject</text>
</a>
</g>
</g>
<!-- Node3&#45;&gt;Node2 -->
<g id="edge2" class="edge"><title>Node3&#45;&gt;Node2</title>
<path fill="none" stroke="midnightblue" d="M85,-126.371C85,-117.585 85,-107.272 85,-99.1408"/>
<polygon fill="midnightblue" stroke="midnightblue" points="81.5001,-126.403 85,-136.403 88.5001,-126.403 81.5001,-126.403"/>
</g>
<!-- Node4 -->
<g id="node4" class="node"><title>Node4</title>
<polygon fill="white" stroke="#bfbfbf" points="19.5,-193 19.5,-223 150.5,-223 150.5,-193 19.5,-193"/>
<text text-anchor="start" x="27.5" y="-211" font-family="Helvetica,sans-Serif" font-size="10.00">std::enable_shared</text>
<text text-anchor="middle" x="85" y="-200" font-family="Helvetica,sans-Serif" font-size="10.00">_from_this&lt; BaseObject &gt;</text>
</g>
<!-- Node4&#45;&gt;Node3 -->
<g id="edge3" class="edge"><title>Node4&#45;&gt;Node3</title>
<path fill="none" stroke="midnightblue" d="M85,-182.586C85,-173.074 85,-162.786 85,-155.731"/>
<polygon fill="midnightblue" stroke="midnightblue" points="81.5001,-182.781 85,-192.781 88.5001,-182.781 81.5001,-182.781"/>
</g>
</g>
</svg>
