<?xml version="1.0" encoding="UTF-8" standalone="no"?>
<!DOCTYPE svg PUBLIC "-//W3C//DTD SVG 1.1//EN"
 "http://www.w3.org/Graphics/SVG/1.1/DTD/svg11.dtd">
<!-- Generated by graphviz version 2.36.0 (20140111.2315)
 -->
<!-- Title: visuVTKAdaptor::SMedical3DCamera::stopping Pages: 1 -->
<svg width="640pt" height="185pt"
 viewBox="0.00 0.00 640.00 185.00" xmlns="http://www.w3.org/2000/svg" xmlns:xlink="http://www.w3.org/1999/xlink">
<g id="graph0" class="graph" transform="scale(1 1) rotate(0) translate(4 181)">
<title>visuVTKAdaptor::SMedical3DCamera::stopping</title>
<polygon fill="white" stroke="none" points="-4,4 -4,-181 636,-181 636,4 -4,4"/>
<!-- Node1 -->
<g id="node1" class="node"><title>Node1</title>
<polygon fill="#bfbfbf" stroke="black" points="0,-98 0,-128 140,-128 140,-98 0,-98"/>
<text text-anchor="start" x="8" y="-116" font-family="Helvetica,sans-Serif" font-size="10.00">visuVTKAdaptor::SMedical3</text>
<text text-anchor="middle" x="70" y="-105" font-family="Helvetica,sans-Serif" font-size="10.00">DCamera::stopping</text>
</g>
<!-- Node2 -->
<g id="node2" class="node"><title>Node2</title>
<g id="a_node2"><a xlink:href="classfwRenderVTK_1_1IAdaptor.html#a2865c053e101328ca2cf3ca8306d4d10" target="_top" xlink:title="Returns the renderer. ">
<polygon fill="white" stroke="black" points="185.5,-147 185.5,-177 306.5,-177 306.5,-147 185.5,-147"/>
<text text-anchor="start" x="193.5" y="-165" font-family="Helvetica,sans-Serif" font-size="10.00">fwRenderVTK::IAdaptor</text>
<text text-anchor="middle" x="246" y="-154" font-family="Helvetica,sans-Serif" font-size="10.00">::getRenderer</text>
</a>
</g>
</g>
<!-- Node1&#45;&gt;Node2 -->
<g id="edge1" class="edge"><title>Node1&#45;&gt;Node2</title>
<path fill="none" stroke="midnightblue" d="M124.626,-128.101C142.737,-133.202 163.124,-138.943 181.9,-144.23"/>
<polygon fill="midnightblue" stroke="midnightblue" points="180.977,-147.607 191.552,-146.948 182.875,-140.869 180.977,-147.607"/>
</g>
<!-- Node3 -->
<g id="node3" class="node"><title>Node3</title>
<g id="a_node3"><a xlink:href="classfwRenderVTK_1_1IAdaptor.html#a0fd9eb8ee07f2e7d53b27c6bbe8994eb" target="_top" xlink:title="End&#45;user have to call this method when a vtk structure has been modified, thus a render request will ...">
<polygon fill="white" stroke="black" points="185,-98 185,-128 307,-128 307,-98 185,-98"/>
<text text-anchor="start" x="193" y="-116" font-family="Helvetica,sans-Serif" font-size="10.00">fwRenderVTK::IAdaptor</text>
<text text-anchor="middle" x="246" y="-105" font-family="Helvetica,sans-Serif" font-size="10.00">::setVtkPipelineModified</text>
</a>
</g>
</g>
<!-- Node1&#45;&gt;Node3 -->
<g id="edge2" class="edge"><title>Node1&#45;&gt;Node3</title>
<path fill="none" stroke="midnightblue" d="M140.019,-113C151.352,-113 163.11,-113 174.478,-113"/>
<polygon fill="midnightblue" stroke="midnightblue" points="174.786,-116.5 184.786,-113 174.786,-109.5 174.786,-116.5"/>
</g>
<!-- Node4 -->
<g id="node4" class="node"><title>Node4</title>
<g id="a_node4"><a xlink:href="classvisuVTKAdaptor_1_1SMedical3DCamera.html#ad11efd273d6ea543546328739d115a62" target="_top" xlink:title="Perform some computations according to object (this service is attached to) attribute values and its ...">
<polygon fill="white" stroke="black" points="176,-49 176,-79 316,-79 316,-49 176,-49"/>
<text text-anchor="start" x="184" y="-67" font-family="Helvetica,sans-Serif" font-size="10.00">visuVTKAdaptor::SMedical3</text>
<text text-anchor="middle" x="246" y="-56" font-family="Helvetica,sans-Serif" font-size="10.00">DCamera::updating</text>
</a>
</g>
</g>
<!-- Node1&#45;&gt;Node4 -->
<g id="edge3" class="edge"><title>Node1&#45;&gt;Node4</title>
<path fill="none" stroke="midnightblue" d="M124.626,-97.8986C142.737,-92.7981 163.124,-87.0571 181.9,-81.7695"/>
<polygon fill="midnightblue" stroke="midnightblue" points="182.875,-85.1313 191.552,-79.0516 180.977,-78.3933 182.875,-85.1313"/>
</g>
<!-- Node5 -->
<g id="node5" class="node"><title>Node5</title>
<g id="a_node5"><a xlink:href="classfwRenderVTK_1_1IAdaptor.html#a46ef60802ac6cd7002a6199512963775" target="_top" xlink:title="notify a render request iff vtkPipeline is modified ">
<polygon fill="white" stroke="black" points="352.5,-49 352.5,-79 473.5,-79 473.5,-49 352.5,-49"/>
<text text-anchor="start" x="360.5" y="-67" font-family="Helvetica,sans-Serif" font-size="10.00">fwRenderVTK::IAdaptor</text>
<text text-anchor="middle" x="413" y="-56" font-family="Helvetica,sans-Serif" font-size="10.00">::requestRender</text>
</a>
</g>
</g>
<!-- Node4&#45;&gt;Node5 -->
<g id="edge4" class="edge"><title>Node4&#45;&gt;Node5</title>
<path fill="none" stroke="midnightblue" d="M316.019,-64C324.715,-64 333.616,-64 342.321,-64"/>
<polygon fill="midnightblue" stroke="midnightblue" points="342.428,-67.5001 352.428,-64 342.428,-60.5001 342.428,-67.5001"/>
</g>
<!-- Node6 -->
<g id="node6" class="node"><title>Node6</title>
<g id="a_node6"><a xlink:href="classfwRenderVTK_1_1IAdaptor.html#a908f43b79c3c619e7e56cd4b5a08dd79" target="_top" xlink:title="Returd the associated render service. ">
<polygon fill="white" stroke="black" points="510.5,-98 510.5,-128 631.5,-128 631.5,-98 510.5,-98"/>
<text text-anchor="start" x="518.5" y="-116" font-family="Helvetica,sans-Serif" font-size="10.00">fwRenderVTK::IAdaptor</text>
<text text-anchor="middle" x="571" y="-105" font-family="Helvetica,sans-Serif" font-size="10.00">::getRenderService</text>
</a>
</g>
</g>
<!-- Node5&#45;&gt;Node6 -->
<g id="edge5" class="edge"><title>Node5&#45;&gt;Node6</title>
<path fill="none" stroke="midnightblue" d="M462.078,-79.1014C478.018,-84.1083 495.924,-89.7324 512.5,-94.939"/>
<polygon fill="midnightblue" stroke="midnightblue" points="511.491,-98.2908 522.081,-97.9484 513.589,-91.6125 511.491,-98.2908"/>
</g>
<!-- Node7 -->
<g id="node7" class="node"><title>Node7</title>
<g id="a_node7"><a xlink:href="classfwServices_1_1IService.html#a7284059e3031206537f48fa53a7e89d0" target="_top" xlink:title="Return the global process status. ">
<polygon fill="white" stroke="black" points="517.5,-49 517.5,-79 624.5,-79 624.5,-49 517.5,-49"/>
<text text-anchor="start" x="525.5" y="-67" font-family="Helvetica,sans-Serif" font-size="10.00">fwServices::IService</text>
<text text-anchor="middle" x="571" y="-56" font-family="Helvetica,sans-Serif" font-size="10.00">::getStatus</text>
</a>
</g>
</g>
<!-- Node5&#45;&gt;Node7 -->
<g id="edge6" class="edge"><title>Node5&#45;&gt;Node7</title>
<path fill="none" stroke="midnightblue" d="M473.868,-64C484.854,-64 496.348,-64 507.411,-64"/>
<polygon fill="midnightblue" stroke="midnightblue" points="507.423,-67.5001 517.423,-64 507.423,-60.5001 507.423,-67.5001"/>
</g>
<!-- Node8 -->
<g id="node8" class="node"><title>Node8</title>
<g id="a_node8"><a xlink:href="classfwRenderVTK_1_1IAdaptor.html#a40e8583048160a35d175fdfe6c081881" target="_top" xlink:title="Returns true if the service automatically triggers the rendering. ">
<polygon fill="white" stroke="black" points="510.5,-0 510.5,-30 631.5,-30 631.5,-0 510.5,-0"/>
<text text-anchor="start" x="518.5" y="-18" font-family="Helvetica,sans-Serif" font-size="10.00">fwRenderVTK::IAdaptor</text>
<text text-anchor="middle" x="571" y="-7" font-family="Helvetica,sans-Serif" font-size="10.00">::getAutoRender</text>
</a>
</g>
</g>
<!-- Node5&#45;&gt;Node8 -->
<g id="edge7" class="edge"><title>Node5&#45;&gt;Node8</title>
<path fill="none" stroke="midnightblue" d="M462.078,-48.8986C478.018,-43.8917 495.924,-38.2676 512.5,-33.061"/>
<polygon fill="midnightblue" stroke="midnightblue" points="513.589,-36.3875 522.081,-30.0516 511.491,-29.7092 513.589,-36.3875"/>
</g>
</g>
</svg>
