<?xml version="1.0" encoding="UTF-8" standalone="no"?>
<!DOCTYPE svg PUBLIC "-//W3C//DTD SVG 1.1//EN"
 "http://www.w3.org/Graphics/SVG/1.1/DTD/svg11.dtd">
<!-- Generated by graphviz version 2.36.0 (20140111.2315)
 -->
<!-- Title: fwGdcmIO::helper::StructuredReport::readSubNodeContainer Pages: 1 -->
<svg width="548pt" height="38pt"
 viewBox="0.00 0.00 548.00 38.00" xmlns="http://www.w3.org/2000/svg" xmlns:xlink="http://www.w3.org/1999/xlink">
<g id="graph0" class="graph" transform="scale(1 1) rotate(0) translate(4 34)">
<title>fwGdcmIO::helper::StructuredReport::readSubNodeContainer</title>
<polygon fill="white" stroke="none" points="-4,4 -4,-34 544,-34 544,4 -4,4"/>
<!-- Node1 -->
<g id="node1" class="node"><title>Node1</title>
<polygon fill="#bfbfbf" stroke="black" points="0.5,-0 0.5,-30 153.5,-30 153.5,-0 0.5,-0"/>
<text text-anchor="start" x="8.5" y="-18" font-family="Helvetica,sans-Serif" font-size="10.00">fwGdcmIO::helper::Structured</text>
<text text-anchor="middle" x="77" y="-7" font-family="Helvetica,sans-Serif" font-size="10.00">Report::readSubNodeContainer</text>
</g>
<!-- Node2 -->
<g id="node2" class="node"><title>Node2</title>
<g id="a_node2"><a xlink:href="classfwGdcmIO_1_1helper_1_1StructuredReport.html#ab75588a691cedb860ea99f70f9259c6c" target="_top" xlink:title="Read a sub node and add it as a child to the parent node. ">
<polygon fill="white" stroke="black" points="190.5,-0 190.5,-30 337.5,-30 337.5,-0 190.5,-0"/>
<text text-anchor="start" x="198.5" y="-18" font-family="Helvetica,sans-Serif" font-size="10.00">fwGdcmIO::helper::Structured</text>
<text text-anchor="middle" x="264" y="-7" font-family="Helvetica,sans-Serif" font-size="10.00">Report::readSubNode</text>
</a>
</g>
</g>
<!-- Node1&#45;&gt;Node2 -->
<g id="edge1" class="edge"><title>Node1&#45;&gt;Node2</title>
<path fill="none" stroke="midnightblue" d="M153.513,-8.3522C162.37,-8.24454 171.441,-8.22194 180.387,-8.28439"/>
<polygon fill="midnightblue" stroke="midnightblue" points="180.38,-11.7844 190.417,-8.39105 180.455,-4.78482 180.38,-11.7844"/>
</g>
<!-- Node2&#45;&gt;Node1 -->
<g id="edge3" class="edge"><title>Node2&#45;&gt;Node1</title>
<path fill="none" stroke="midnightblue" d="M190.417,-21.609C181.613,-21.7354 172.556,-21.7768 163.586,-21.7332"/>
<polygon fill="midnightblue" stroke="midnightblue" points="163.543,-18.2328 153.513,-21.6478 163.483,-25.2326 163.543,-18.2328"/>
</g>
<!-- Node3 -->
<g id="node3" class="node"><title>Node3</title>
<g id="a_node3"><a xlink:href="classfwGdcmIO_1_1container_1_1sr_1_1DicomSRNode.html#a37378b0c8dac3a7c538dd8571ee933b3" target="_top" xlink:title="Add a sub node. ">
<polygon fill="white" stroke="black" points="374.5,-0 374.5,-30 539.5,-30 539.5,-0 374.5,-0"/>
<text text-anchor="start" x="382.5" y="-18" font-family="Helvetica,sans-Serif" font-size="10.00">fwGdcmIO::container</text>
<text text-anchor="middle" x="457" y="-7" font-family="Helvetica,sans-Serif" font-size="10.00">::sr::DicomSRNode::addSubNode</text>
</a>
</g>
</g>
<!-- Node2&#45;&gt;Node3 -->
<g id="edge2" class="edge"><title>Node2&#45;&gt;Node3</title>
<path fill="none" stroke="midnightblue" d="M337.754,-15C346.316,-15 355.137,-15 363.92,-15"/>
<polygon fill="midnightblue" stroke="midnightblue" points="364.195,-18.5001 374.195,-15 364.195,-11.5001 364.195,-18.5001"/>
</g>
</g>
</svg>
