<?xml version="1.0" encoding="UTF-8" standalone="no"?>
<!DOCTYPE svg PUBLIC "-//W3C//DTD SVG 1.1//EN"
 "http://www.w3.org/Graphics/SVG/1.1/DTD/svg11.dtd">
<!-- Generated by graphviz version 2.36.0 (20140111.2315)
 -->
<!-- Title: uiImageQt::ImageTransparency::swapping Pages: 1 -->
<svg width="542pt" height="147pt"
 viewBox="0.00 0.00 542.00 147.00" xmlns="http://www.w3.org/2000/svg" xmlns:xlink="http://www.w3.org/1999/xlink">
<g id="graph0" class="graph" transform="scale(1 1) rotate(0) translate(4 143)">
<title>uiImageQt::ImageTransparency::swapping</title>
<polygon fill="white" stroke="none" points="-4,4 -4,-143 538,-143 538,4 -4,4"/>
<!-- Node1 -->
<g id="node1" class="node"><title>Node1</title>
<polygon fill="#bfbfbf" stroke="black" points="0,-49 0,-79 154,-79 154,-49 0,-49"/>
<text text-anchor="start" x="8" y="-67" font-family="Helvetica,sans-Serif" font-size="10.00">uiImageQt::ImageTransparency</text>
<text text-anchor="middle" x="77" y="-56" font-family="Helvetica,sans-Serif" font-size="10.00">::swapping</text>
</g>
<!-- Node2 -->
<g id="node2" class="node"><title>Node2</title>
<g id="a_node2"><a xlink:href="classuiImageQt_1_1ImageTransparency.html#ad0732755333e301b7d133e8c2c0c99f2" target="_top" xlink:title="Perform some computations according to object (this service is attached to) attribute values and its ...">
<polygon fill="white" stroke="black" points="190,-49 190,-79 344,-79 344,-49 190,-49"/>
<text text-anchor="start" x="198" y="-67" font-family="Helvetica,sans-Serif" font-size="10.00">uiImageQt::ImageTransparency</text>
<text text-anchor="middle" x="267" y="-56" font-family="Helvetica,sans-Serif" font-size="10.00">::updating</text>
</a>
</g>
</g>
<!-- Node1&#45;&gt;Node2 -->
<g id="edge1" class="edge"><title>Node1&#45;&gt;Node2</title>
<path fill="none" stroke="midnightblue" d="M154.196,-64C162.517,-64 171.032,-64 179.466,-64"/>
<polygon fill="midnightblue" stroke="midnightblue" points="179.696,-67.5001 189.696,-64 179.696,-60.5001 179.696,-67.5001"/>
</g>
<!-- Node3 -->
<g id="node3" class="node"><title>Node3</title>
<g id="a_node3"><a xlink:href="classfwDataTools_1_1fieldHelper_1_1MedicalImageHelpers.html#a1aa6e7bebb9f96a8e60a14aecc352e99" target="_top" xlink:title="Check if the image is valid. ">
<polygon fill="white" stroke="black" points="394.5,-97.5 394.5,-138.5 519.5,-138.5 519.5,-97.5 394.5,-97.5"/>
<text text-anchor="start" x="402.5" y="-126.5" font-family="Helvetica,sans-Serif" font-size="10.00">fwDataTools::fieldHelper</text>
<text text-anchor="start" x="402.5" y="-115.5" font-family="Helvetica,sans-Serif" font-size="10.00">::MedicalImageHelpers::</text>
<text text-anchor="middle" x="457" y="-104.5" font-family="Helvetica,sans-Serif" font-size="10.00">checkImageValidity</text>
</a>
</g>
</g>
<!-- Node2&#45;&gt;Node3 -->
<g id="edge2" class="edge"><title>Node2&#45;&gt;Node3</title>
<path fill="none" stroke="midnightblue" d="M320.368,-79.042C340.248,-84.7522 363.242,-91.3567 384.584,-97.4869"/>
<polygon fill="midnightblue" stroke="midnightblue" points="383.679,-100.868 394.257,-100.265 385.612,-94.1404 383.679,-100.868"/>
</g>
<!-- Node4 -->
<g id="node4" class="node"><title>Node4</title>
<g id="a_node4"><a xlink:href="classuiImageQt_1_1ImageTransparency.html#a9cbd43b9f01f3d22c0ba973fef84f803" target="_top" xlink:title="This method is called when the transparency value change moving slider. ">
<polygon fill="white" stroke="black" points="380,-49 380,-79 534,-79 534,-49 380,-49"/>
<text text-anchor="start" x="388" y="-67" font-family="Helvetica,sans-Serif" font-size="10.00">uiImageQt::ImageTransparency</text>
<text text-anchor="middle" x="457" y="-56" font-family="Helvetica,sans-Serif" font-size="10.00">::onModifyTransparency</text>
</a>
</g>
</g>
<!-- Node2&#45;&gt;Node4 -->
<g id="edge3" class="edge"><title>Node2&#45;&gt;Node4</title>
<path fill="none" stroke="midnightblue" d="M344.196,-64C352.517,-64 361.032,-64 369.466,-64"/>
<polygon fill="midnightblue" stroke="midnightblue" points="369.696,-67.5001 379.696,-64 369.696,-60.5001 369.696,-67.5001"/>
</g>
<!-- Node5 -->
<g id="node5" class="node"><title>Node5</title>
<g id="a_node5"><a xlink:href="classuiImageQt_1_1ImageTransparency.html#aef44e0ed3bb6a67f20c24bbd059f73fe" target="_top" xlink:title="This method is called when the visibility value change using action shortcut. ">
<polygon fill="white" stroke="black" points="380,-0 380,-30 534,-30 534,-0 380,-0"/>
<text text-anchor="start" x="388" y="-18" font-family="Helvetica,sans-Serif" font-size="10.00">uiImageQt::ImageTransparency</text>
<text text-anchor="middle" x="457" y="-7" font-family="Helvetica,sans-Serif" font-size="10.00">::onModifyVisibility</text>
</a>
</g>
</g>
<!-- Node2&#45;&gt;Node5 -->
<g id="edge4" class="edge"><title>Node2&#45;&gt;Node5</title>
<path fill="none" stroke="midnightblue" d="M325.684,-48.9654C345.534,-43.7917 367.937,-37.9525 388.499,-32.5934"/>
<polygon fill="midnightblue" stroke="midnightblue" points="389.631,-35.9152 398.425,-30.0062 387.866,-29.1415 389.631,-35.9152"/>
</g>
</g>
</svg>
