<?xml version="1.0" encoding="UTF-8" standalone="no"?>
<!DOCTYPE svg PUBLIC "-//W3C//DTD SVG 1.1//EN"
 "http://www.w3.org/Graphics/SVG/1.1/DTD/svg11.dtd">
<!-- Generated by graphviz version 2.36.0 (20140111.2315)
 -->
<!-- Title: fwGdcmIO::reader::tid::MeasurementReport::readSR Pages: 1 -->
<svg width="624pt" height="48pt"
 viewBox="0.00 0.00 624.00 48.00" xmlns="http://www.w3.org/2000/svg" xmlns:xlink="http://www.w3.org/1999/xlink">
<g id="graph0" class="graph" transform="scale(1 1) rotate(0) translate(4 44)">
<title>fwGdcmIO::reader::tid::MeasurementReport::readSR</title>
<polygon fill="white" stroke="none" points="-4,4 -4,-44 620,-44 620,4 -4,4"/>
<!-- Node1 -->
<g id="node1" class="node"><title>Node1</title>
<polygon fill="#bfbfbf" stroke="black" points="0.5,0.5 0.5,-40.5 117.5,-40.5 117.5,0.5 0.5,0.5"/>
<text text-anchor="start" x="8.5" y="-28.5" font-family="Helvetica,sans-Serif" font-size="10.00">fwGdcmIO::reader::tid</text>
<text text-anchor="start" x="8.5" y="-17.5" font-family="Helvetica,sans-Serif" font-size="10.00">::MeasurementReport::</text>
<text text-anchor="middle" x="59" y="-6.5" font-family="Helvetica,sans-Serif" font-size="10.00">readSR</text>
</g>
<!-- Node2 -->
<g id="node2" class="node"><title>Node2</title>
<g id="a_node2"><a xlink:href="classfwGdcmIO_1_1reader_1_1ie_1_1Document.html#ae6da9916273eb44ed3e2373ae9afcd35" target="_top" xlink:title="Read the Structured Report. ">
<polygon fill="white" stroke="black" points="154,-5 154,-35 264,-35 264,-5 154,-5"/>
<text text-anchor="start" x="162" y="-23" font-family="Helvetica,sans-Serif" font-size="10.00">fwGdcmIO::reader::ie</text>
<text text-anchor="middle" x="209" y="-12" font-family="Helvetica,sans-Serif" font-size="10.00">::Document::readSR</text>
</a>
</g>
</g>
<!-- Node1&#45;&gt;Node2 -->
<g id="edge1" class="edge"><title>Node1&#45;&gt;Node2</title>
<path fill="none" stroke="midnightblue" d="M127.754,-20C136.435,-20 145.232,-20 153.662,-20"/>
<polygon fill="midnightblue" stroke="midnightblue" points="127.644,-16.5001 117.644,-20 127.644,-23.5001 127.644,-16.5001"/>
</g>
<!-- Node3 -->
<g id="node3" class="node"><title>Node3</title>
<g id="a_node3"><a xlink:href="classfwGdcmIO_1_1reader_1_1iod_1_1ComprehensiveSRIOD.html#a748271e420dd95c9547a223b0e7a3568" target="_top" xlink:title="Read DICOM file. ">
<polygon fill="white" stroke="black" points="300,-5 300,-35 448,-35 448,-5 300,-5"/>
<text text-anchor="start" x="308" y="-23" font-family="Helvetica,sans-Serif" font-size="10.00">fwGdcmIO::reader::iod</text>
<text text-anchor="middle" x="374" y="-12" font-family="Helvetica,sans-Serif" font-size="10.00">::ComprehensiveSRIOD::read</text>
</a>
</g>
</g>
<!-- Node2&#45;&gt;Node3 -->
<g id="edge2" class="edge"><title>Node2&#45;&gt;Node3</title>
<path fill="none" stroke="midnightblue" d="M274.331,-20C282.697,-20 291.315,-20 299.812,-20"/>
<polygon fill="midnightblue" stroke="midnightblue" points="274.277,-16.5001 264.277,-20 274.277,-23.5001 274.277,-16.5001"/>
</g>
<!-- Node4 -->
<g id="node4" class="node"><title>Node4</title>
<g id="a_node4"><a xlink:href="classfwGdcmIO_1_1reader_1_1Series.html#aa27422bf5f7c9a5aa53793d0b1223c04" target="_top" xlink:title="Read DICOM series. ">
<polygon fill="white" stroke="black" points="484.5,-5 484.5,-35 615.5,-35 615.5,-5 484.5,-5"/>
<text text-anchor="start" x="492.5" y="-23" font-family="Helvetica,sans-Serif" font-size="10.00">fwGdcmIO::reader::Series</text>
<text text-anchor="middle" x="550" y="-12" font-family="Helvetica,sans-Serif" font-size="10.00">::read</text>
</a>
</g>
</g>
<!-- Node3&#45;&gt;Node4 -->
<g id="edge3" class="edge"><title>Node3&#45;&gt;Node4</title>
<path fill="none" stroke="midnightblue" d="M458.303,-20C467.087,-20 475.922,-20 484.447,-20"/>
<polygon fill="midnightblue" stroke="midnightblue" points="458.035,-16.5001 448.035,-20 458.035,-23.5001 458.035,-16.5001"/>
</g>
</g>
</svg>
