<?xml version="1.0" encoding="UTF-8" standalone="no"?>
<!DOCTYPE svg PUBLIC "-//W3C//DTD SVG 1.1//EN"
 "http://www.w3.org/Graphics/SVG/1.1/DTD/svg11.dtd">
<!-- Generated by graphviz version 2.36.0 (20140111.2315)
 -->
<!-- Title: scene2D::adaptor::STransferFunction::stopping Pages: 1 -->
<svg width="646pt" height="85pt"
 viewBox="0.00 0.00 646.00 85.00" xmlns="http://www.w3.org/2000/svg" xmlns:xlink="http://www.w3.org/1999/xlink">
<g id="graph0" class="graph" transform="scale(1 1) rotate(0) translate(4 81)">
<title>scene2D::adaptor::STransferFunction::stopping</title>
<polygon fill="white" stroke="none" points="-4,4 -4,-81 642,-81 642,4 -4,4"/>
<!-- Node1 -->
<g id="node1" class="node"><title>Node1</title>
<polygon fill="#bfbfbf" stroke="black" points="0.5,-14 0.5,-44 143.5,-44 143.5,-14 0.5,-14"/>
<text text-anchor="start" x="8.5" y="-32" font-family="Helvetica,sans-Serif" font-size="10.00">scene2D::adaptor::STransfer</text>
<text text-anchor="middle" x="72" y="-21" font-family="Helvetica,sans-Serif" font-size="10.00">Function::stopping</text>
</g>
<!-- Node2 -->
<g id="node2" class="node"><title>Node2</title>
<g id="a_node2"><a xlink:href="classfwRenderQt_1_1IAdaptor.html#a19c26b1617582f56cb477d6c26bdb2b9" target="_top" xlink:title="Get the render that manages the IAdaptor. ">
<polygon fill="white" stroke="black" points="180,-14 180,-44 292,-44 292,-14 180,-14"/>
<text text-anchor="start" x="188" y="-32" font-family="Helvetica,sans-Serif" font-size="10.00">fwRenderQt::IAdaptor</text>
<text text-anchor="middle" x="236" y="-21" font-family="Helvetica,sans-Serif" font-size="10.00">::getScene2DRender</text>
</a>
</g>
</g>
<!-- Node1&#45;&gt;Node2 -->
<g id="edge1" class="edge"><title>Node1&#45;&gt;Node2</title>
<path fill="none" stroke="midnightblue" d="M143.584,-29C152.192,-29 160.959,-29 169.489,-29"/>
<polygon fill="midnightblue" stroke="midnightblue" points="169.748,-32.5001 179.748,-29 169.748,-25.5001 169.748,-32.5001"/>
</g>
<!-- Node3 -->
<g id="node3" class="node"><title>Node3</title>
<g id="a_node3"><a xlink:href="classfwTools_1_1fwID.html#a387264565a48b0231a7eefb7b01512a1" target="_top" xlink:title="Returns the id of the object. If it is not set and the policy value is. ">
<polygon fill="white" stroke="black" points="337,-38.5 337,-57.5 445,-57.5 445,-38.5 337,-38.5"/>
<text text-anchor="middle" x="391" y="-45.5" font-family="Helvetica,sans-Serif" font-size="10.00">fwTools::fwID::getID</text>
</a>
</g>
</g>
<!-- Node2&#45;&gt;Node3 -->
<g id="edge2" class="edge"><title>Node2&#45;&gt;Node3</title>
<path fill="none" stroke="midnightblue" d="M292.237,-35.8594C303.491,-37.2571 315.412,-38.7375 326.916,-40.1661"/>
<polygon fill="midnightblue" stroke="midnightblue" points="326.535,-43.6456 336.891,-41.4047 327.398,-36.6989 326.535,-43.6456"/>
</g>
<!-- Node6 -->
<g id="node6" class="node"><title>Node6</title>
<g id="a_node6"><a xlink:href="classfwTools_1_1fwID.html#a49c219235064892bb906498913fe8175" target="_top" xlink:title="Retrieve the object attached to the given id. Return a null sptr if no correspondence exist...">
<polygon fill="white" stroke="black" points="328,-0.5 328,-19.5 454,-19.5 454,-0.5 328,-0.5"/>
<text text-anchor="middle" x="391" y="-7.5" font-family="Helvetica,sans-Serif" font-size="10.00">fwTools::fwID::getObject</text>
</a>
</g>
</g>
<!-- Node2&#45;&gt;Node6 -->
<g id="edge5" class="edge"><title>Node2&#45;&gt;Node6</title>
<path fill="none" stroke="midnightblue" d="M292.237,-22.1406C300.542,-21.1092 309.211,-20.0327 317.807,-18.9652"/>
<polygon fill="midnightblue" stroke="midnightblue" points="318.346,-22.4252 327.838,-17.7195 317.483,-15.4786 318.346,-22.4252"/>
</g>
<!-- Node4 -->
<g id="node4" class="node"><title>Node4</title>
<g id="a_node4"><a xlink:href="classfwTools_1_1fwID.html#a4ac18bb9c046c3fd04a4c8a80add7ae6" target="_top" xlink:title="fwTools::fwID::exist">
<polygon fill="white" stroke="black" points="511.5,-57.5 511.5,-76.5 616.5,-76.5 616.5,-57.5 511.5,-57.5"/>
<text text-anchor="middle" x="564" y="-64.5" font-family="Helvetica,sans-Serif" font-size="10.00">fwTools::fwID::exist</text>
</a>
</g>
</g>
<!-- Node3&#45;&gt;Node4 -->
<g id="edge3" class="edge"><title>Node3&#45;&gt;Node4</title>
<path fill="none" stroke="midnightblue" d="M445.168,-53.9076C462.954,-55.8837 482.928,-58.1031 501.307,-60.1453"/>
<polygon fill="midnightblue" stroke="midnightblue" points="501.005,-63.6331 511.33,-61.2589 501.778,-56.6759 501.005,-63.6331"/>
</g>
<!-- Node5 -->
<g id="node5" class="node"><title>Node5</title>
<g id="a_node5"><a xlink:href="classfwTools_1_1fwID.html#a03d6d0e2227b51a0630e145911445213" target="_top" xlink:title="return full object&#39;s classname with its namespace, i.e. fwCore::BaseObject ">
<polygon fill="white" stroke="black" points="490.5,-19.5 490.5,-38.5 637.5,-38.5 637.5,-19.5 490.5,-19.5"/>
<text text-anchor="middle" x="564" y="-26.5" font-family="Helvetica,sans-Serif" font-size="10.00">fwTools::fwID::getClassname</text>
</a>
</g>
</g>
<!-- Node3&#45;&gt;Node5 -->
<g id="edge4" class="edge"><title>Node3&#45;&gt;Node5</title>
<path fill="none" stroke="midnightblue" d="M445.168,-42.0924C456.351,-40.8499 468.399,-39.5112 480.372,-38.1808"/>
<polygon fill="midnightblue" stroke="midnightblue" points="480.839,-41.6506 490.392,-37.0676 480.066,-34.6934 480.839,-41.6506"/>
</g>
</g>
</svg>
