<?xml version="1.0" encoding="UTF-8" standalone="no"?>
<!DOCTYPE svg PUBLIC "-//W3C//DTD SVG 1.1//EN"
 "http://www.w3.org/Graphics/SVG/1.1/DTD/svg11.dtd">
<!-- Generated by graphviz version 2.36.0 (20140111.2315)
 -->
<!-- Title: fwTest::generator::Mesh::generateMesh Pages: 1 -->
<!--zoomable 87 -->
<svg id="main" version="1.1" xmlns="http://www.w3.org/2000/svg" xmlns:xlink="http://www.w3.org/1999/xlink" xml:space="preserve" onload="init(evt)">
<style type="text/css"><![CDATA[
.edge:hover path { stroke: red; }
.edge:hover polygon { stroke: red; fill: red; }
]]></style>
<script type="text/javascript"><![CDATA[
var edges = document.getElementsByTagName('g');
if (edges && edges.length) {
  for (var i=0;i<edges.length;i++) {
    if (edges[i].id.substr(0,4)=='edge') {
      edges[i].setAttribute('class','edge');
    }
  }
}
]]></script>
        <defs>
                <circle id="rim" cx="0" cy="0" r="7"/>
                <circle id="rim2" cx="0" cy="0" r="3.5"/>
                <g id="zoomPlus">
                        <use xlink:href="#rim" fill="#404040">
                                <set attributeName="fill" to="#808080" begin="zoomplus.mouseover" end="zoomplus.mouseout"/>
                        </use>
                        <path d="M-4,0h8M0,-4v8" fill="none" stroke="white" stroke-width="1.5" pointer-events="none"/>
                </g>
                <g id="zoomMin">
                        <use xlink:href="#rim" fill="#404040">
                                <set attributeName="fill" to="#808080" begin="zoomminus.mouseover" end="zoomminus.mouseout"/>
                        </use>
                        <path d="M-4,0h8" fill="none" stroke="white" stroke-width="1.5" pointer-events="none"/>
                </g>
                <g id="dirArrow">
                        <path fill="none" stroke="white" stroke-width="1.5" d="M0,-3.0v7 M-2.5,-0.5L0,-3.0L2.5,-0.5"/>
                </g>
               <g id="resetDef">
                       <use xlink:href="#rim2" fill="#404040">
                               <set attributeName="fill" to="#808080" begin="reset.mouseover" end="reset.mouseout"/>
                       </use>
               </g>
        </defs>

<script type="text/javascript">
var viewWidth = 686;
var viewHeight = 87;
var sectionId = 'dynsection-3';
</script>
<script xlink:href="svgpan.js"/>
<svg id="graph" class="graph">
<g id="viewport">
<title>fwTest::generator::Mesh::generateMesh</title>
<polygon fill="white" stroke="none" points="-4,4 -4,-83 682,-83 682,4 -4,4"/>
<!-- Node1 -->
<g id="node1" class="node"><title>Node1</title>
<polygon fill="#bfbfbf" stroke="black" points="0,-24 0,-54 108,-54 108,-24 0,-24"/>
<text text-anchor="start" x="8" y="-42" font-family="Helvetica,sans-Serif" font-size="10.00">fwTest::generator::</text>
<text text-anchor="middle" x="54" y="-31" font-family="Helvetica,sans-Serif" font-size="10.00">Mesh::generateMesh</text>
</g>
<!-- Node2 -->
<g id="node2" class="node"><title>Node2</title>
<g id="a_node2"><a xlink:href="classfwTest_1_1generator_1_1SeriesDB.html#adf39c6a1621bbd47984fa653c503a587" target="_top" xlink:title="Generate a reconstruction. ">
<polygon fill="white" stroke="black" points="144,-24 144,-54 312,-54 312,-24 144,-24"/>
<text text-anchor="start" x="152" y="-42" font-family="Helvetica,sans-Serif" font-size="10.00">fwTest::generator::</text>
<text text-anchor="middle" x="228" y="-31" font-family="Helvetica,sans-Serif" font-size="10.00">SeriesDB::generateReconstruction</text>
</a>
</g>
</g>
<!-- Node1&#45;&gt;Node2 -->
<g id="edge1" class="edge"><title>Node1&#45;&gt;Node2</title>
<path fill="none" stroke="midnightblue" d="M118.056,-39C126.439,-39 135.136,-39 143.796,-39"/>
<polygon fill="midnightblue" stroke="midnightblue" points="118.009,-35.5001 108.009,-39 118.009,-42.5001 118.009,-35.5001"/>
</g>
<!-- Node3 -->
<g id="node3" class="node"><title>Node3</title>
<g id="a_node3"><a xlink:href="classfwTest_1_1generator_1_1Object.html#a3bd0ae3313d9d8c4de1dbc9239327d2c" target="_top" xlink:title="Creates a Resection with 2 planes, 1 input Reconstruction and 1 output Reconstruction. ">
<polygon fill="white" stroke="black" points="354.5,-49 354.5,-79 487.5,-79 487.5,-49 354.5,-49"/>
<text text-anchor="start" x="362.5" y="-67" font-family="Helvetica,sans-Serif" font-size="10.00">fwTest::generator::</text>
<text text-anchor="middle" x="421" y="-56" font-family="Helvetica,sans-Serif" font-size="10.00">Object::generateResection</text>
</a>
</g>
</g>
<!-- Node2&#45;&gt;Node3 -->
<g id="edge2" class="edge"><title>Node2&#45;&gt;Node3</title>
<path fill="none" stroke="midnightblue" d="M322.159,-51.1936C333.012,-52.6141 343.905,-54.0399 354.277,-55.3975"/>
<polygon fill="midnightblue" stroke="midnightblue" points="322.589,-47.7202 312.22,-49.8926 321.681,-54.661 322.589,-47.7202"/>
</g>
<!-- Node5 -->
<g id="node5" class="node"><title>Node5</title>
<g id="a_node5"><a xlink:href="classfwTest_1_1generator_1_1SeriesDB.html#a0ee07722d0f1c74347d0966dc85049ac" target="_top" xlink:title="Returns a ModelSeries containing random Reconstructions. ">
<polygon fill="white" stroke="black" points="348,-0 348,-30 494,-30 494,-0 348,-0"/>
<text text-anchor="start" x="356" y="-18" font-family="Helvetica,sans-Serif" font-size="10.00">fwTest::generator::</text>
<text text-anchor="middle" x="421" y="-7" font-family="Helvetica,sans-Serif" font-size="10.00">SeriesDB::createModelSeries</text>
</a>
</g>
</g>
<!-- Node2&#45;&gt;Node5 -->
<g id="edge4" class="edge"><title>Node2&#45;&gt;Node5</title>
<path fill="none" stroke="midnightblue" d="M322.273,-27.2798C330.86,-26.2008 339.472,-25.1187 347.829,-24.0686"/>
<polygon fill="midnightblue" stroke="midnightblue" points="321.705,-23.8235 312.22,-28.5431 322.578,-30.7689 321.705,-23.8235"/>
</g>
<!-- Node4 -->
<g id="node4" class="node"><title>Node4</title>
<g id="a_node4"><a xlink:href="classfwTest_1_1generator_1_1Object.html#aec8448030a011689b1c3832dd325d401" target="_top" xlink:title="Creates a ResectionDB containing one Resection. ">
<polygon fill="white" stroke="black" points="530.5,-49 530.5,-79 677.5,-79 677.5,-49 530.5,-49"/>
<text text-anchor="start" x="538.5" y="-67" font-family="Helvetica,sans-Serif" font-size="10.00">fwTest::generator::</text>
<text text-anchor="middle" x="604" y="-56" font-family="Helvetica,sans-Serif" font-size="10.00">Object::generateResectionDB</text>
</a>
</g>
</g>
<!-- Node3&#45;&gt;Node4 -->
<g id="edge3" class="edge"><title>Node3&#45;&gt;Node4</title>
<path fill="none" stroke="midnightblue" d="M497.8,-64C508.549,-64 519.583,-64 530.272,-64"/>
<polygon fill="midnightblue" stroke="midnightblue" points="497.601,-60.5001 487.601,-64 497.601,-67.5001 497.601,-60.5001"/>
</g>
<!-- Node6 -->
<g id="node6" class="node"><title>Node6</title>
<g id="a_node6"><a xlink:href="classfwTest_1_1generator_1_1SeriesDB.html#a0de89a71e6ef0a53ebdfa94e71a1f4a0" target="_top" xlink:title="Creates a SeriesDB. ">
<polygon fill="white" stroke="black" points="537,-0 537,-30 671,-30 671,-0 537,-0"/>
<text text-anchor="start" x="545" y="-18" font-family="Helvetica,sans-Serif" font-size="10.00">fwTest::generator::</text>
<text text-anchor="middle" x="604" y="-7" font-family="Helvetica,sans-Serif" font-size="10.00">SeriesDB::createSeriesDB</text>
</a>
</g>
</g>
<!-- Node5&#45;&gt;Node6 -->
<g id="edge5" class="edge"><title>Node5&#45;&gt;Node6</title>
<path fill="none" stroke="midnightblue" d="M504.388,-15C515.236,-15 526.24,-15 536.771,-15"/>
<polygon fill="midnightblue" stroke="midnightblue" points="504.056,-11.5001 494.056,-15 504.056,-18.5001 504.056,-11.5001"/>
</g>
</g>
</svg>
        <g id="navigator" transform="translate(0 0)" fill="#404254">
                <rect fill="#f2f5e9" fill-opacity="0.5" stroke="#606060" stroke-width=".5" x="0" y="0" width="60" height="60"/>
                <use id="zoomplus" xlink:href="#zoomPlus" x="17" y="9" onmousedown="handleZoom(evt,'in')"/>
                <use id="zoomminus" xlink:href="#zoomMin" x="42" y="9" onmousedown="handleZoom(evt,'out')"/>
                <use id="reset" xlink:href="#resetDef" x="30" y="36" onmousedown="handleReset()"/>
                <g id="arrowUp" xlink:href="#dirArrow" transform="translate(30 24)" onmousedown="handlePan(0,-1)">
                  <use xlink:href="#rim" fill="#404040">
                        <set attributeName="fill" to="#808080" begin="arrowUp.mouseover" end="arrowUp.mouseout"/>
                  </use>
                  <path fill="none" stroke="white" stroke-width="1.5" d="M0,-3.0v7 M-2.5,-0.5L0,-3.0L2.5,-0.5"/>
                </g>
                <g id="arrowRight" xlink:href="#dirArrow" transform="rotate(90) translate(36 -43)" onmousedown="handlePan(1,0)">
                  <use xlink:href="#rim" fill="#404040">
                        <set attributeName="fill" to="#808080" begin="arrowRight.mouseover" end="arrowRight.mouseout"/>
                  </use>
                  <path fill="none" stroke="white" stroke-width="1.5" d="M0,-3.0v7 M-2.5,-0.5L0,-3.0L2.5,-0.5"/>
                </g>
                <g id="arrowDown" xlink:href="#dirArrow" transform="rotate(180) translate(-30 -48)" onmousedown="handlePan(0,1)">
                  <use xlink:href="#rim" fill="#404040">
                        <set attributeName="fill" to="#808080" begin="arrowDown.mouseover" end="arrowDown.mouseout"/>
                  </use>
                  <path fill="none" stroke="white" stroke-width="1.5" d="M0,-3.0v7 M-2.5,-0.5L0,-3.0L2.5,-0.5"/>
                </g>
                <g id="arrowLeft" xlink:href="#dirArrow" transform="rotate(270) translate(-36 17)" onmousedown="handlePan(-1,0)">
                  <use xlink:href="#rim" fill="#404040">
                        <set attributeName="fill" to="#808080" begin="arrowLeft.mouseover" end="arrowLeft.mouseout"/>
                  </use>
                  <path fill="none" stroke="white" stroke-width="1.5" d="M0,-3.0v7 M-2.5,-0.5L0,-3.0L2.5,-0.5"/>
                </g>
        </g>
        <svg viewBox="0 0 15 15" width="100%" height="30px" preserveAspectRatio="xMaxYMin meet">
         <g id="arrow_out" transform="scale(0.3 0.3)">
          <a xlink:href="classfwTest_1_1generator_1_1Mesh_ae5d79650e93f60cbd24c0401274aa507_icgraph_org.svg" target="_base">
           <rect id="button" ry="5" rx="5" y="6" x="6" height="38" width="38"
                fill="#f2f5e9" fill-opacity="0.5" stroke="#606060" stroke-width="1.0"/>
           <path id="arrow"
             d="M 11.500037,31.436501 C 11.940474,20.09759 22.043105,11.32322 32.158766,21.979434 L 37.068811,17.246167 C 37.068811,17.246167 37.088388,32 37.088388,32 L 22.160133,31.978069 C 22.160133,31.978069 26.997745,27.140456 26.997745,27.140456 C 18.528582,18.264221 13.291696,25.230495 11.500037,31.436501 z"
             style="fill:#404040;"/>
          </a>
         </g>
        </svg>
</svg>
