<?xml version="1.0" encoding="UTF-8" standalone="no"?>
<!DOCTYPE svg PUBLIC "-//W3C//DTD SVG 1.1//EN"
 "http://www.w3.org/Graphics/SVG/1.1/DTD/svg11.dtd">
<!-- Generated by graphviz version 2.26.3 (20100126.1600)
 -->
<!-- Title: ioAtoms::SWriter::configuring Pages: 1 -->
<svg width="614pt" height="126pt"
 viewBox="0.00 0.00 614.00 125.89" xmlns="http://www.w3.org/2000/svg" xmlns:xlink="http://www.w3.org/1999/xlink">
<g id="graph1" class="graph" transform="scale(1 1) rotate(0) translate(4 121.892)">
<title>ioAtoms::SWriter::configuring</title>
<polygon fill="white" stroke="white" points="-4,5 -4,-121.892 611,-121.892 611,5 -4,5"/>
<!-- Node1 -->
<g id="node1" class="node"><title>Node1</title>
<polygon fill="#bfbfbf" stroke="black" points="0.5,-60.5 0.5,-81.5 145.5,-81.5 145.5,-60.5 0.5,-60.5"/>
<text text-anchor="middle" x="73" y="-68.5" font-family="Helvetica,sans-Serif" font-size="10.00">ioAtoms::SWriter::configuring</text>
</g>
<!-- Node2 -->
<g id="node3" class="node"><title>Node2</title>
<a xlink:href="classio_1_1IWriter.html#ae079442b16d7bacf5525fa2796c77a99" target="_top" xlink:title="This method proposes to parse xml configuration to retrieve file/files/folder paths. ">
<polygon fill="white" stroke="black" points="182.5,-60.5 182.5,-81.5 295.5,-81.5 295.5,-60.5 182.5,-60.5"/>
<text text-anchor="middle" x="239" y="-68.5" font-family="Helvetica,sans-Serif" font-size="10.00">io::IWriter::configuring</text>
</a>
</g>
<!-- Node1&#45;&gt;Node2 -->
<g id="edge2" class="edge"><title>Node1&#45;&gt;Node2</title>
<path fill="none" stroke="midnightblue" d="M145.81,-71C154.638,-71 163.623,-71 172.356,-71"/>
<polygon fill="midnightblue" stroke="midnightblue" points="172.468,-74.5001 182.468,-71 172.468,-67.5001 172.468,-74.5001"/>
</g>
<!-- Node3 -->
<g id="node5" class="node"><title>Node3</title>
<a xlink:href="classio_1_1IWriter.html#a1e024eeeca2c9614a373de74fcb1fa4e" target="_top" xlink:title="This method must be implemented by concrete service writers that use path file system to write data...">
<polygon fill="white" stroke="black" points="474.5,-60.5 474.5,-81.5 605.5,-81.5 605.5,-60.5 474.5,-60.5"/>
<text text-anchor="middle" x="540" y="-68.5" font-family="Helvetica,sans-Serif" font-size="10.00">io::IWriter::getIOPathType</text>
</a>
</g>
<!-- Node2&#45;&gt;Node3 -->
<g id="edge4" class="edge"><title>Node2&#45;&gt;Node3</title>
<path fill="none" stroke="midnightblue" d="M257.494,-81.635C275.75,-91.4747 304.801,-105.399 332,-111 378.143,-120.502 391.709,-119.752 438,-111 463.378,-106.202 490.53,-95.2408 510.434,-86.0041"/>
<polygon fill="midnightblue" stroke="midnightblue" points="512.063,-89.1051 519.584,-81.6429 509.051,-82.7862 512.063,-89.1051"/>
</g>
<!-- Node4 -->
<g id="node7" class="node"><title>Node4</title>
<a xlink:href="classio_1_1IWriter.html#ab72fabf86c951e3bcdf42273f27cd576" target="_top" xlink:title="Sets file path. ">
<polygon fill="white" stroke="black" points="337.5,-80.5 337.5,-101.5 432.5,-101.5 432.5,-80.5 337.5,-80.5"/>
<text text-anchor="middle" x="385" y="-88.5" font-family="Helvetica,sans-Serif" font-size="10.00">io::IWriter::setFile</text>
</a>
</g>
<!-- Node2&#45;&gt;Node4 -->
<g id="edge6" class="edge"><title>Node2&#45;&gt;Node4</title>
<path fill="none" stroke="midnightblue" d="M295.865,-78.7898C306.074,-80.1882 316.726,-81.6474 326.967,-83.0502"/>
<polygon fill="midnightblue" stroke="midnightblue" points="326.657,-86.5404 337.039,-84.43 327.607,-79.6052 326.657,-86.5404"/>
</g>
<!-- Node5 -->
<g id="node10" class="node"><title>Node5</title>
<a xlink:href="classio_1_1IWriter.html#a87be6dd4f95c43b32384d175de30a9fa" target="_top" xlink:title="Sets file paths. ">
<polygon fill="white" stroke="black" points="335,-40.5 335,-61.5 435,-61.5 435,-40.5 335,-40.5"/>
<text text-anchor="middle" x="385" y="-48.5" font-family="Helvetica,sans-Serif" font-size="10.00">io::IWriter::setFiles</text>
</a>
</g>
<!-- Node2&#45;&gt;Node5 -->
<g id="edge10" class="edge"><title>Node2&#45;&gt;Node5</title>
<path fill="none" stroke="midnightblue" d="M295.865,-63.2102C305.273,-61.9215 315.058,-60.5812 324.55,-59.2808"/>
<polygon fill="midnightblue" stroke="midnightblue" points="325.272,-62.7148 334.704,-57.8899 324.321,-55.7795 325.272,-62.7148"/>
</g>
<!-- Node6 -->
<g id="node13" class="node"><title>Node6</title>
<a xlink:href="classio_1_1IWriter.html#ab705f4f0deeacacc3cd7c48a077be284" target="_top" xlink:title="Sets folder path. ">
<polygon fill="white" stroke="black" points="332,-0.5 332,-21.5 438,-21.5 438,-0.5 332,-0.5"/>
<text text-anchor="middle" x="385" y="-8.5" font-family="Helvetica,sans-Serif" font-size="10.00">io::IWriter::setFolder</text>
</a>
</g>
<!-- Node2&#45;&gt;Node6 -->
<g id="edge14" class="edge"><title>Node2&#45;&gt;Node6</title>
<path fill="none" stroke="midnightblue" d="M262.961,-60.3394C281.669,-52.1022 308.366,-40.536 332,-31 336.78,-29.0715 341.823,-27.0944 346.823,-25.1694"/>
<polygon fill="midnightblue" stroke="midnightblue" points="348.203,-28.3892 356.302,-21.5584 345.711,-21.8479 348.203,-28.3892"/>
</g>
<!-- Node4&#45;&gt;Node3 -->
<g id="edge8" class="edge"><title>Node4&#45;&gt;Node3</title>
<path fill="none" stroke="midnightblue" d="M432.77,-84.8361C442.746,-83.5489 453.497,-82.1616 464.205,-80.78"/>
<polygon fill="midnightblue" stroke="midnightblue" points="464.961,-84.2115 474.431,-79.4605 464.065,-77.2691 464.961,-84.2115"/>
</g>
<!-- Node5&#45;&gt;Node3 -->
<g id="edge12" class="edge"><title>Node5&#45;&gt;Node3</title>
<path fill="none" stroke="midnightblue" d="M435.324,-57.4934C444.575,-58.687 454.417,-59.957 464.222,-61.2222"/>
<polygon fill="midnightblue" stroke="midnightblue" points="464.035,-64.727 474.4,-62.5355 464.93,-57.7845 464.035,-64.727"/>
</g>
<!-- Node6&#45;&gt;Node3 -->
<g id="edge16" class="edge"><title>Node6&#45;&gt;Node3</title>
<path fill="none" stroke="midnightblue" d="M413.082,-21.5198C421.136,-24.5579 429.923,-27.8923 438,-31 459.869,-39.4139 484.31,-48.9924 503.784,-56.6665"/>
<polygon fill="midnightblue" stroke="midnightblue" points="502.605,-59.9641 513.192,-60.3782 505.174,-53.4525 502.605,-59.9641"/>
</g>
</g>
</svg>
