<?xml version="1.0" encoding="UTF-8" standalone="no"?>
<!DOCTYPE svg PUBLIC "-//W3C//DTD SVG 1.1//EN"
 "http://www.w3.org/Graphics/SVG/1.1/DTD/svg11.dtd">
<!-- Generated by graphviz version 2.26.3 (20100126.1600)
 -->
<!-- Title: fwDataTools::helper::Mesh::setPointTexCoord Pages: 1 -->
<svg width="464pt" height="198pt"
 viewBox="0.00 0.00 464.00 198.00" xmlns="http://www.w3.org/2000/svg" xmlns:xlink="http://www.w3.org/1999/xlink">
<g id="graph1" class="graph" transform="scale(1 1) rotate(0) translate(4 194)">
<title>fwDataTools::helper::Mesh::setPointTexCoord</title>
<polygon fill="white" stroke="white" points="-4,5 -4,-194 461,-194 461,5 -4,5"/>
<!-- Node1 -->
<g id="node1" class="node"><title>Node1</title>
<polygon fill="#bfbfbf" stroke="black" points="0.5,-130 0.5,-164 131.5,-164 131.5,-130 0.5,-130"/>
<text text-anchor="start" x="8.5" y="-151" font-family="Helvetica,sans-Serif" font-size="10.00">fwDataTools::helper</text>
<text text-anchor="middle" x="66" y="-138" font-family="Helvetica,sans-Serif" font-size="10.00">::Mesh::setPointTexCoord</text>
</g>
<!-- Node2 -->
<g id="node3" class="node"><title>Node2</title>
<a xlink:href="classfwVtkIO_1_1helper_1_1Mesh.html#a8a29efe0aeb5bce720275754c641839b" target="_top" xlink:title="Convert a vtkUnstructuredGrid to a ::fwData::Mesh::sptr. ">
<polygon fill="white" stroke="black" points="168.5,-156 168.5,-190 283.5,-190 283.5,-156 168.5,-156"/>
<text text-anchor="start" x="176.5" y="-177" font-family="Helvetica,sans-Serif" font-size="10.00">fwVtkIO::helper::Mesh</text>
<text text-anchor="middle" x="226" y="-164" font-family="Helvetica,sans-Serif" font-size="10.00">::fromVTKGrid</text>
</a>
</g>
<!-- Node1&#45;&gt;Node2 -->
<g id="edge2" class="edge"><title>Node1&#45;&gt;Node2</title>
<path fill="none" stroke="midnightblue" d="M141.601,-159.285C150.562,-160.741 159.596,-162.209 168.253,-163.616"/>
<polygon fill="midnightblue" stroke="midnightblue" points="141.972,-155.8 131.54,-157.65 140.849,-162.709 141.972,-155.8"/>
</g>
<!-- Node4 -->
<g id="node7" class="node"><title>Node4</title>
<a xlink:href="classfwVtkIO_1_1helper_1_1Mesh.html#a802a45b11d1140aca0e8001a1fe0115c" target="_top" xlink:title="Convert a vtkPolyData to a ::fwData::Mesh::sptr. ">
<polygon fill="white" stroke="black" points="168.5,-104 168.5,-138 283.5,-138 283.5,-104 168.5,-104"/>
<text text-anchor="start" x="176.5" y="-125" font-family="Helvetica,sans-Serif" font-size="10.00">fwVtkIO::helper::Mesh</text>
<text text-anchor="middle" x="226" y="-112" font-family="Helvetica,sans-Serif" font-size="10.00">::fromVTKMesh</text>
</a>
</g>
<!-- Node1&#45;&gt;Node4 -->
<g id="edge6" class="edge"><title>Node1&#45;&gt;Node4</title>
<path fill="none" stroke="midnightblue" d="M141.601,-134.715C150.562,-133.259 159.596,-131.791 168.253,-130.384"/>
<polygon fill="midnightblue" stroke="midnightblue" points="140.849,-131.291 131.54,-136.35 141.972,-138.2 140.849,-131.291"/>
</g>
<!-- Node3 -->
<g id="node5" class="node"><title>Node3</title>
<a xlink:href="classfwVtkIO_1_1SeriesDBReader.html#aae0981697623203c49633157bb690549" target="_top" xlink:title="Destructor. ">
<polygon fill="white" stroke="black" points="322,-156 322,-190 454,-190 454,-156 322,-156"/>
<text text-anchor="start" x="330" y="-177" font-family="Helvetica,sans-Serif" font-size="10.00">fwVtkIO::SeriesDBReader</text>
<text text-anchor="middle" x="388" y="-164" font-family="Helvetica,sans-Serif" font-size="10.00">::~SeriesDBReader</text>
</a>
</g>
<!-- Node2&#45;&gt;Node3 -->
<g id="edge4" class="edge"><title>Node2&#45;&gt;Node3</title>
<path fill="none" stroke="midnightblue" d="M293.572,-173C302.899,-173 312.47,-173 321.772,-173"/>
<polygon fill="midnightblue" stroke="midnightblue" points="293.571,-169.5 283.571,-173 293.571,-176.5 293.571,-169.5"/>
</g>
<!-- Node4&#45;&gt;Node3 -->
<g id="edge10" class="edge"><title>Node4&#45;&gt;Node3</title>
<path fill="none" stroke="midnightblue" d="M288.872,-141.181C304.06,-146.056 320.143,-151.219 334.836,-155.935"/>
<polygon fill="midnightblue" stroke="midnightblue" points="289.636,-137.751 279.045,-138.027 287.497,-144.416 289.636,-137.751"/>
</g>
<!-- Node5 -->
<g id="node9" class="node"><title>Node5</title>
<a xlink:href="classfwVtkIO_1_1MeshReader.html#a3ce860f834cbf651c5f16169b6d9add6" target="_top" xlink:title="Reading operator. ">
<polygon fill="white" stroke="black" points="331,-104 331,-138 445,-138 445,-104 331,-104"/>
<text text-anchor="start" x="339" y="-125" font-family="Helvetica,sans-Serif" font-size="10.00">fwVtkIO::MeshReader</text>
<text text-anchor="middle" x="388" y="-112" font-family="Helvetica,sans-Serif" font-size="10.00">::read</text>
</a>
</g>
<!-- Node4&#45;&gt;Node5 -->
<g id="edge8" class="edge"><title>Node4&#45;&gt;Node5</title>
<path fill="none" stroke="midnightblue" d="M293.808,-121C306.144,-121 318.898,-121 330.887,-121"/>
<polygon fill="midnightblue" stroke="midnightblue" points="293.571,-117.5 283.571,-121 293.571,-124.5 293.571,-117.5"/>
</g>
<!-- Node6 -->
<g id="node12" class="node"><title>Node6</title>
<a xlink:href="classopVTKMesh_1_1action_1_1SMeshCreation.html#a2a8bbc46634438d2ec3d21d09b7aeab6" target="_top" xlink:title="Process the mesh creation from the image. ">
<polygon fill="white" stroke="black" points="324.5,-52 324.5,-86 451.5,-86 451.5,-52 324.5,-52"/>
<text text-anchor="start" x="332.5" y="-73" font-family="Helvetica,sans-Serif" font-size="10.00">opVTKMesh::action::</text>
<text text-anchor="middle" x="388" y="-60" font-family="Helvetica,sans-Serif" font-size="10.00">SMeshCreation::updating</text>
</a>
</g>
<!-- Node4&#45;&gt;Node6 -->
<g id="edge12" class="edge"><title>Node4&#45;&gt;Node6</title>
<path fill="none" stroke="midnightblue" d="M288.872,-100.819C304.06,-95.9438 320.143,-90.7811 334.836,-86.065"/>
<polygon fill="midnightblue" stroke="midnightblue" points="287.497,-97.5844 279.045,-103.973 289.636,-104.249 287.497,-97.5844"/>
</g>
<!-- Node7 -->
<g id="node14" class="node"><title>Node7</title>
<a xlink:href="classopVTKMesh_1_1SVTKMesher.html#a00ba928142b136a8e6a597b0fc469860" target="_top" xlink:title="Perform some computations according to object (this service is attached to) attribute values and its ...">
<polygon fill="white" stroke="black" points="320.5,-0 320.5,-34 455.5,-34 455.5,-0 320.5,-0"/>
<text text-anchor="start" x="328.5" y="-21" font-family="Helvetica,sans-Serif" font-size="10.00">opVTKMesh::SVTKMesher</text>
<text text-anchor="middle" x="388" y="-8" font-family="Helvetica,sans-Serif" font-size="10.00">::updating</text>
</a>
</g>
<!-- Node4&#45;&gt;Node7 -->
<g id="edge14" class="edge"><title>Node4&#45;&gt;Node7</title>
<path fill="none" stroke="midnightblue" d="M250.77,-96.5582C268.799,-79.7843 294.438,-57.94 320,-43 325.565,-39.7474 331.612,-36.7588 337.727,-34.0582"/>
<polygon fill="midnightblue" stroke="midnightblue" points="247.906,-94.4494 243.049,-103.865 252.718,-99.5334 247.906,-94.4494"/>
</g>
</g>
</svg>
