<?xml version="1.0" encoding="UTF-8" standalone="no"?>
<!DOCTYPE svg PUBLIC "-//W3C//DTD SVG 1.1//EN"
 "http://www.w3.org/Graphics/SVG/1.1/DTD/svg11.dtd">
<!-- Generated by graphviz version 2.26.3 (20100126.1600)
 -->
<!-- Title: fwDataIO::writer::GenericObjectWriter&lt; DATATYPE &gt; Pages: 1 -->
<!--zoomable 789 -->
<svg id="main" version="1.1" xmlns="http://www.w3.org/2000/svg" xmlns:xlink="http://www.w3.org/1999/xlink" xml:space="preserve" onload="init(evt)">
<style type="text/css"><![CDATA[
.edge:hover path { stroke: red; }
.edge:hover polygon { stroke: red; fill: red; }
]]></style>
<script type="text/javascript"><![CDATA[
var edges = document.getElementsByTagName('g');
if (edges && edges.length) {
  for (var i=0;i<edges.length;i++) {
    if (edges[i].id.substr(0,4)=='edge') {
      edges[i].setAttribute('class','edge');
    }
  }
}
]]></script>
        <defs>
                <circle id="rim" cx="0" cy="0" r="7"/>
                <circle id="rim2" cx="0" cy="0" r="3.5"/>
                <g id="zoomPlus">
                        <use xlink:href="#rim" fill="#404040">
                                <set attributeName="fill" to="#808080" begin="zoomplus.mouseover" end="zoomplus.mouseout"/>
                        </use>
                        <path d="M-4,0h8M0,-4v8" fill="none" stroke="white" stroke-width="1.5" pointer-events="none"/>
                </g>
                <g id="zoomMin">
                        <use xlink:href="#rim" fill="#404040">
                                <set attributeName="fill" to="#808080" begin="zoomminus.mouseover" end="zoomminus.mouseout"/>
                        </use>
                        <path d="M-4,0h8" fill="none" stroke="white" stroke-width="1.5" pointer-events="none"/>
                </g>
                <g id="dirArrow">
                        <path fill="none" stroke="white" stroke-width="1.5" d="M0,-3.0v7 M-2.5,-0.5L0,-3.0L2.5,-0.5"/>
                </g>
               <g id="resetDef">
                       <use xlink:href="#rim2" fill="#404040">
                               <set attributeName="fill" to="#808080" begin="reset.mouseover" end="reset.mouseout"/>
                       </use>
               </g>
        </defs>

<script type="text/javascript">
var viewWidth = 1142;
var viewHeight = 789;
var sectionId = 'dynsection-0';
</script>
<script xlink:href="svgpan.js"/>
<svg id="graph" class="graph">
<g id="viewport">
<title>fwDataIO::writer::GenericObjectWriter&lt; DATATYPE &gt;</title>
<polygon fill="white" stroke="white" points="-4,5 -4,-785 1139,-785 1139,5 -4,5"/>
<!-- Node1 -->
<g id="node1" class="node"><title>Node1</title>
<polygon fill="#bfbfbf" stroke="black" points="478.5,-469 478.5,-503 621.5,-503 621.5,-469 478.5,-469"/>
<text text-anchor="start" x="486.5" y="-490" font-family="Helvetica,sans-Serif" font-size="10.00">fwDataIO::writer::Generic</text>
<text text-anchor="middle" x="550" y="-477" font-family="Helvetica,sans-Serif" font-size="10.00">ObjectWriter&lt; DATATYPE &gt;</text>
</g>
<!-- Node5 -->
<g id="node9" class="node"><title>Node5</title>
<a xlink:href="classfwDataIO_1_1writer_1_1GenericObjectWriter.html" target="_top" xlink:title="fwDataIO::writer::Generic\lObjectWriter\&lt; ::fwMedData\l::ModelSeries \&gt;">
<polygon fill="white" stroke="black" points="798.5,-733.5 798.5,-780.5 935.5,-780.5 935.5,-733.5 798.5,-733.5"/>
<text text-anchor="start" x="806.5" y="-767.5" font-family="Helvetica,sans-Serif" font-size="10.00">fwDataIO::writer::Generic</text>
<text text-anchor="start" x="806.5" y="-754.5" font-family="Helvetica,sans-Serif" font-size="10.00">ObjectWriter&lt; ::fwMedData</text>
<text text-anchor="middle" x="867" y="-741.5" font-family="Helvetica,sans-Serif" font-size="10.00">::ModelSeries &gt;</text>
</a>
</g>
<!-- Node1&#45;&gt;Node5 -->
<g id="edge8" class="edge"><title>Node1&#45;&gt;Node5</title>
<path fill="none" stroke="orange" stroke-dasharray="5,2" d="M554.666,-513.261C563.509,-556.581 586.807,-641.028 640,-688 683.92,-726.784 749.12,-743.771 798.389,-751.209"/>
<polygon fill="orange" stroke="orange" points="558.052,-512.337 552.72,-503.181 551.179,-513.664 558.052,-512.337"/>
<text text-anchor="middle" x="710" y="-751" font-family="Helvetica,sans-Serif" font-size="10.00"> &lt; ::fwMedData::ModelSeries &gt;</text>
</g>
<!-- Node7 -->
<g id="node13" class="node"><title>Node7</title>
<a xlink:href="classfwDataIO_1_1writer_1_1GenericObjectWriter.html" target="_top" xlink:title="fwDataIO::writer::Generic\lObjectWriter\&lt; ::fwData\l::Mesh \&gt;">
<polygon fill="white" stroke="black" points="803,-660.5 803,-707.5 931,-707.5 931,-660.5 803,-660.5"/>
<text text-anchor="start" x="811" y="-694.5" font-family="Helvetica,sans-Serif" font-size="10.00">fwDataIO::writer::Generic</text>
<text text-anchor="start" x="811" y="-681.5" font-family="Helvetica,sans-Serif" font-size="10.00">ObjectWriter&lt; ::fwData</text>
<text text-anchor="middle" x="867" y="-668.5" font-family="Helvetica,sans-Serif" font-size="10.00">::Mesh &gt;</text>
</a>
</g>
<!-- Node1&#45;&gt;Node7 -->
<g id="edge12" class="edge"><title>Node1&#45;&gt;Node7</title>
<path fill="none" stroke="orange" stroke-dasharray="5,2" d="M561.969,-512.395C576.441,-541.42 603.477,-587.452 640,-614 688.204,-649.039 754.314,-666.825 802.758,-675.671"/>
<polygon fill="orange" stroke="orange" points="565.054,-510.734 557.548,-503.257 558.753,-513.783 565.054,-510.734"/>
<text text-anchor="middle" x="710" y="-675" font-family="Helvetica,sans-Serif" font-size="10.00"> &lt; ::fwData::Mesh &gt;</text>
</g>
<!-- Node10 -->
<g id="node19" class="node"><title>Node10</title>
<a xlink:href="classfwDataIO_1_1writer_1_1GenericObjectWriter.html" target="_top" xlink:title="fwDataIO::writer::Generic\lObjectWriter\&lt; ::fwMedData\l::SeriesDB \&gt;">
<polygon fill="white" stroke="black" points="798.5,-594.5 798.5,-641.5 935.5,-641.5 935.5,-594.5 798.5,-594.5"/>
<text text-anchor="start" x="806.5" y="-628.5" font-family="Helvetica,sans-Serif" font-size="10.00">fwDataIO::writer::Generic</text>
<text text-anchor="start" x="806.5" y="-615.5" font-family="Helvetica,sans-Serif" font-size="10.00">ObjectWriter&lt; ::fwMedData</text>
<text text-anchor="middle" x="867" y="-602.5" font-family="Helvetica,sans-Serif" font-size="10.00">::SeriesDB &gt;</text>
</a>
</g>
<!-- Node1&#45;&gt;Node10 -->
<g id="edge18" class="edge"><title>Node1&#45;&gt;Node10</title>
<path fill="none" stroke="orange" stroke-dasharray="5,2" d="M578.176,-509.211C595.23,-522.344 617.893,-538.242 640,-549 690.741,-573.693 752.184,-591.718 798.343,-603.14"/>
<polygon fill="orange" stroke="orange" points="580.31,-506.437 570.281,-503.02 575.991,-511.945 580.31,-506.437"/>
<text text-anchor="middle" x="710" y="-601" font-family="Helvetica,sans-Serif" font-size="10.00"> &lt; ::fwMedData::SeriesDB &gt;</text>
</g>
<!-- Node13 -->
<g id="node25" class="node"><title>Node13</title>
<a xlink:href="classfwDataIO_1_1writer_1_1GenericObjectWriter.html" target="_top" xlink:title="fwDataIO::writer::Generic\lObjectWriter\&lt; ::fwMedData\l::ImageSeries \&gt;">
<polygon fill="white" stroke="black" points="798.5,-528.5 798.5,-575.5 935.5,-575.5 935.5,-528.5 798.5,-528.5"/>
<text text-anchor="start" x="806.5" y="-562.5" font-family="Helvetica,sans-Serif" font-size="10.00">fwDataIO::writer::Generic</text>
<text text-anchor="start" x="806.5" y="-549.5" font-family="Helvetica,sans-Serif" font-size="10.00">ObjectWriter&lt; ::fwMedData</text>
<text text-anchor="middle" x="867" y="-536.5" font-family="Helvetica,sans-Serif" font-size="10.00">::ImageSeries &gt;</text>
</a>
</g>
<!-- Node1&#45;&gt;Node13 -->
<g id="edge24" class="edge"><title>Node1&#45;&gt;Node13</title>
<path fill="none" stroke="orange" stroke-dasharray="5,2" d="M631.353,-502.938C683.106,-513.713 749.371,-527.509 798.443,-537.726"/>
<polygon fill="orange" stroke="orange" points="632.04,-499.506 621.536,-500.894 630.613,-506.359 632.04,-499.506"/>
<text text-anchor="middle" x="710" y="-536" font-family="Helvetica,sans-Serif" font-size="10.00"> &lt; ::fwMedData::ImageSeries &gt;</text>
</g>
<!-- Node15 -->
<g id="node29" class="node"><title>Node15</title>
<a xlink:href="classfwDataIO_1_1writer_1_1GenericObjectWriter.html" target="_top" xlink:title="fwDataIO::writer::Generic\lObjectWriter\&lt; ::fwMedData\l::Series \&gt;">
<polygon fill="white" stroke="black" points="798.5,-462.5 798.5,-509.5 935.5,-509.5 935.5,-462.5 798.5,-462.5"/>
<text text-anchor="start" x="806.5" y="-496.5" font-family="Helvetica,sans-Serif" font-size="10.00">fwDataIO::writer::Generic</text>
<text text-anchor="start" x="806.5" y="-483.5" font-family="Helvetica,sans-Serif" font-size="10.00">ObjectWriter&lt; ::fwMedData</text>
<text text-anchor="middle" x="867" y="-470.5" font-family="Helvetica,sans-Serif" font-size="10.00">::Series &gt;</text>
</a>
</g>
<!-- Node1&#45;&gt;Node15 -->
<g id="edge28" class="edge"><title>Node1&#45;&gt;Node15</title>
<path fill="none" stroke="orange" stroke-dasharray="5,2" d="M631.676,-486C683.381,-486 749.473,-486 798.443,-486"/>
<polygon fill="orange" stroke="orange" points="631.536,-482.5 621.536,-486 631.536,-489.5 631.536,-482.5"/>
<text text-anchor="middle" x="710" y="-490" font-family="Helvetica,sans-Serif" font-size="10.00"> &lt; ::fwMedData::Series &gt;</text>
</g>
<!-- Node17 -->
<g id="node33" class="node"><title>Node17</title>
<a xlink:href="classfwDataIO_1_1writer_1_1GenericObjectWriter.html" target="_top" xlink:title="fwDataIO::writer::Generic\lObjectWriter\&lt; ::fwMedData\l::DicomSeries \&gt;">
<polygon fill="white" stroke="black" points="798.5,-396.5 798.5,-443.5 935.5,-443.5 935.5,-396.5 798.5,-396.5"/>
<text text-anchor="start" x="806.5" y="-430.5" font-family="Helvetica,sans-Serif" font-size="10.00">fwDataIO::writer::Generic</text>
<text text-anchor="start" x="806.5" y="-417.5" font-family="Helvetica,sans-Serif" font-size="10.00">ObjectWriter&lt; ::fwMedData</text>
<text text-anchor="middle" x="867" y="-404.5" font-family="Helvetica,sans-Serif" font-size="10.00">::DicomSeries &gt;</text>
</a>
</g>
<!-- Node1&#45;&gt;Node17 -->
<g id="edge32" class="edge"><title>Node1&#45;&gt;Node17</title>
<path fill="none" stroke="orange" stroke-dasharray="5,2" d="M631.353,-469.062C683.106,-458.287 749.371,-444.491 798.443,-434.274"/>
<polygon fill="orange" stroke="orange" points="630.613,-465.641 621.536,-471.106 632.04,-472.494 630.613,-465.641"/>
<text text-anchor="middle" x="710" y="-471" font-family="Helvetica,sans-Serif" font-size="10.00"> &lt; ::fwMedData::DicomSeries &gt;</text>
</g>
<!-- Node19 -->
<g id="node37" class="node"><title>Node19</title>
<a xlink:href="classfwDataIO_1_1writer_1_1GenericObjectWriter.html" target="_top" xlink:title="fwDataIO::writer::Generic\lObjectWriter\&lt; ::fwData\l::TransformationMatrix3D \&gt;">
<polygon fill="white" stroke="black" points="798.5,-330.5 798.5,-377.5 935.5,-377.5 935.5,-330.5 798.5,-330.5"/>
<text text-anchor="start" x="806.5" y="-364.5" font-family="Helvetica,sans-Serif" font-size="10.00">fwDataIO::writer::Generic</text>
<text text-anchor="start" x="806.5" y="-351.5" font-family="Helvetica,sans-Serif" font-size="10.00">ObjectWriter&lt; ::fwData</text>
<text text-anchor="middle" x="867" y="-338.5" font-family="Helvetica,sans-Serif" font-size="10.00">::TransformationMatrix3D &gt;</text>
</a>
</g>
<!-- Node1&#45;&gt;Node19 -->
<g id="edge36" class="edge"><title>Node1&#45;&gt;Node19</title>
<path fill="none" stroke="orange" stroke-dasharray="5,2" d="M572.803,-461.514C589.799,-444.666 614.405,-423.052 640,-410 689.812,-384.599 751.742,-370.32 798.327,-362.548"/>
<polygon fill="orange" stroke="orange" points="570.079,-459.292 565.554,-468.872 575.066,-464.205 570.079,-459.292"/>
<text text-anchor="start" x="649.5" y="-427" font-family="Helvetica,sans-Serif" font-size="10.00"> &lt; ::fwData::Transformation</text>
<text text-anchor="middle" x="710" y="-414" font-family="Helvetica,sans-Serif" font-size="10.00">Matrix3D &gt;</text>
</g>
<!-- Node21 -->
<g id="node41" class="node"><title>Node21</title>
<a xlink:href="classfwDataIO_1_1writer_1_1GenericObjectWriter.html" target="_top" xlink:title="fwDataIO::writer::Generic\lObjectWriter\&lt; ::fwData\l::Array \&gt;">
<polygon fill="white" stroke="black" points="803,-264.5 803,-311.5 931,-311.5 931,-264.5 803,-264.5"/>
<text text-anchor="start" x="811" y="-298.5" font-family="Helvetica,sans-Serif" font-size="10.00">fwDataIO::writer::Generic</text>
<text text-anchor="start" x="811" y="-285.5" font-family="Helvetica,sans-Serif" font-size="10.00">ObjectWriter&lt; ::fwData</text>
<text text-anchor="middle" x="867" y="-272.5" font-family="Helvetica,sans-Serif" font-size="10.00">::Array &gt;</text>
</a>
</g>
<!-- Node1&#45;&gt;Node21 -->
<g id="edge40" class="edge"><title>Node1&#45;&gt;Node21</title>
<path fill="none" stroke="orange" stroke-dasharray="5,2" d="M560.532,-459.625C574.227,-428.717 601.089,-378.157 640,-350 687.908,-315.333 754.213,-300.047 802.794,-293.309"/>
<polygon fill="orange" stroke="orange" points="557.272,-458.346 556.549,-468.916 563.706,-461.103 557.272,-458.346"/>
<text text-anchor="middle" x="710" y="-354" font-family="Helvetica,sans-Serif" font-size="10.00"> &lt; ::fwData::Array &gt;</text>
</g>
<!-- Node24 -->
<g id="node47" class="node"><title>Node24</title>
<a xlink:href="classfwDataIO_1_1writer_1_1GenericObjectWriter.html" target="_top" xlink:title="fwDataIO::writer::Generic\lObjectWriter\&lt; ::fwData\l::Image \&gt;">
<polygon fill="white" stroke="black" points="803,-107.5 803,-154.5 931,-154.5 931,-107.5 803,-107.5"/>
<text text-anchor="start" x="811" y="-141.5" font-family="Helvetica,sans-Serif" font-size="10.00">fwDataIO::writer::Generic</text>
<text text-anchor="start" x="811" y="-128.5" font-family="Helvetica,sans-Serif" font-size="10.00">ObjectWriter&lt; ::fwData</text>
<text text-anchor="middle" x="867" y="-115.5" font-family="Helvetica,sans-Serif" font-size="10.00">::Image &gt;</text>
</a>
</g>
<!-- Node1&#45;&gt;Node24 -->
<g id="edge46" class="edge"><title>Node1&#45;&gt;Node24</title>
<path fill="none" stroke="orange" stroke-dasharray="5,2" d="M556.462,-458.929C567.611,-416.801 593.825,-334.719 640,-280 688.188,-222.896 763.723,-179.386 814.269,-154.527"/>
<polygon fill="orange" stroke="orange" points="553.04,-458.182 553.949,-468.738 559.821,-459.919 553.04,-458.182"/>
<text text-anchor="middle" x="710" y="-284" font-family="Helvetica,sans-Serif" font-size="10.00"> &lt; ::fwData::Image &gt;</text>
</g>
<!-- Node2 -->
<g id="node2" class="node"><title>Node2</title>
<a xlink:href="classfwDataIO_1_1writer_1_1IObjectWriter.html" target="_top" xlink:title="Base class for all object writers. ">
<polygon fill="white" stroke="black" points="314,-469 314,-503 440,-503 440,-469 314,-469"/>
<text text-anchor="start" x="322" y="-490" font-family="Helvetica,sans-Serif" font-size="10.00">fwDataIO::writer::IObject</text>
<text text-anchor="middle" x="377" y="-477" font-family="Helvetica,sans-Serif" font-size="10.00">Writer</text>
</a>
</g>
<!-- Node2&#45;&gt;Node1 -->
<g id="edge2" class="edge"><title>Node2&#45;&gt;Node1</title>
<path fill="none" stroke="midnightblue" d="M450.691,-486C459.868,-486 469.241,-486 478.385,-486"/>
<polygon fill="midnightblue" stroke="midnightblue" points="450.437,-482.5 440.436,-486 450.436,-489.5 450.437,-482.5"/>
</g>
<!-- Node3 -->
<g id="node4" class="node"><title>Node3</title>
<a xlink:href="classfwCore_1_1BaseObject.html" target="_top" xlink:title="Base class for all FW4SPL&#39;s classes. ">
<polygon fill="white" stroke="black" points="170.5,-475.5 170.5,-496.5 275.5,-496.5 275.5,-475.5 170.5,-475.5"/>
<text text-anchor="middle" x="223" y="-483.5" font-family="Helvetica,sans-Serif" font-size="10.00">fwCore::BaseObject</text>
</a>
</g>
<!-- Node3&#45;&gt;Node2 -->
<g id="edge4" class="edge"><title>Node3&#45;&gt;Node2</title>
<path fill="none" stroke="midnightblue" d="M285.824,-486C295.04,-486 304.536,-486 313.761,-486"/>
<polygon fill="midnightblue" stroke="midnightblue" points="285.567,-482.5 275.567,-486 285.567,-489.5 285.567,-482.5"/>
</g>
<!-- Node4 -->
<g id="node6" class="node"><title>Node4</title>
<polygon fill="white" stroke="#bfbfbf" points="0.5,-469 0.5,-503 131.5,-503 131.5,-469 0.5,-469"/>
<text text-anchor="start" x="8.5" y="-490" font-family="Helvetica,sans-Serif" font-size="10.00">std::enable_shared</text>
<text text-anchor="middle" x="66" y="-477" font-family="Helvetica,sans-Serif" font-size="10.00">_from_this&lt; BaseObject &gt;</text>
</g>
<!-- Node4&#45;&gt;Node3 -->
<g id="edge6" class="edge"><title>Node4&#45;&gt;Node3</title>
<path fill="none" stroke="midnightblue" d="M141.751,-486C151.466,-486 161.238,-486 170.469,-486"/>
<polygon fill="midnightblue" stroke="midnightblue" points="141.672,-482.5 131.672,-486 141.672,-489.5 141.672,-482.5"/>
</g>
<!-- Node6 -->
<g id="node11" class="node"><title>Node6</title>
<a xlink:href="classfwVtkIO_1_1ModelSeriesObjWriter.html" target="_top" xlink:title="Write a fwData::Reconstruction.Write a fwData::Reconstruction as .obj file using the VTK lib and the ...">
<polygon fill="white" stroke="black" points="977,-749.5 977,-770.5 1131,-770.5 1131,-749.5 977,-749.5"/>
<text text-anchor="middle" x="1054" y="-757.5" font-family="Helvetica,sans-Serif" font-size="10.00">fwVtkIO::ModelSeriesObjWriter</text>
</a>
</g>
<!-- Node5&#45;&gt;Node6 -->
<g id="edge10" class="edge"><title>Node5&#45;&gt;Node6</title>
<path fill="none" stroke="midnightblue" d="M945.775,-758.264C956.081,-758.429 966.631,-758.598 976.909,-758.763"/>
<polygon fill="midnightblue" stroke="midnightblue" points="945.625,-754.761 935.57,-758.1 945.513,-761.76 945.625,-754.761"/>
</g>
<!-- Node8 -->
<g id="node15" class="node"><title>Node8</title>
<a xlink:href="classfwDataIO_1_1writer_1_1MeshWriter.html" target="_top" xlink:title="Mesh writer. Write file format .trian. ">
<polygon fill="white" stroke="black" points="981.5,-709.5 981.5,-730.5 1126.5,-730.5 1126.5,-709.5 981.5,-709.5"/>
<text text-anchor="middle" x="1054" y="-717.5" font-family="Helvetica,sans-Serif" font-size="10.00">fwDataIO::writer::MeshWriter</text>
</a>
</g>
<!-- Node7&#45;&gt;Node8 -->
<g id="edge14" class="edge"><title>Node7&#45;&gt;Node8</title>
<path fill="none" stroke="midnightblue" d="M941.124,-698.27C960.546,-702.009 981.135,-705.972 999.335,-709.476"/>
<polygon fill="midnightblue" stroke="midnightblue" points="941.575,-694.792 931.093,-696.339 940.251,-701.666 941.575,-694.792"/>
</g>
<!-- Node9 -->
<g id="node17" class="node"><title>Node9</title>
<a xlink:href="classfwVtkIO_1_1MeshWriter.html" target="_top" xlink:title="Write a mesh.Write a VTK Mesh using the VTK lib. ">
<polygon fill="white" stroke="black" points="999.5,-669.5 999.5,-690.5 1108.5,-690.5 1108.5,-669.5 999.5,-669.5"/>
<text text-anchor="middle" x="1054" y="-677.5" font-family="Helvetica,sans-Serif" font-size="10.00">fwVtkIO::MeshWriter</text>
</a>
</g>
<!-- Node7&#45;&gt;Node9 -->
<g id="edge16" class="edge"><title>Node7&#45;&gt;Node9</title>
<path fill="none" stroke="midnightblue" d="M941.124,-682.414C960.546,-681.999 981.135,-681.559 999.335,-681.169"/>
<polygon fill="midnightblue" stroke="midnightblue" points="941.016,-678.916 931.093,-682.629 941.166,-685.914 941.016,-678.916"/>
</g>
<!-- Node11 -->
<g id="node21" class="node"><title>Node11</title>
<a xlink:href="classfwGdcmIO_1_1helper_1_1DicomSeriesDBWriter.html" target="_top" xlink:title="fwGdcmIO::helper::DicomSeries\lDBWriter">
<polygon fill="white" stroke="black" points="975,-617 975,-651 1133,-651 1133,-617 975,-617"/>
<text text-anchor="start" x="983" y="-638" font-family="Helvetica,sans-Serif" font-size="10.00">fwGdcmIO::helper::DicomSeries</text>
<text text-anchor="middle" x="1054" y="-625" font-family="Helvetica,sans-Serif" font-size="10.00">DBWriter</text>
</a>
</g>
<!-- Node10&#45;&gt;Node11 -->
<g id="edge20" class="edge"><title>Node10&#45;&gt;Node11</title>
<path fill="none" stroke="midnightblue" d="M945.603,-624.725C955.324,-625.557 965.266,-626.408 974.994,-627.24"/>
<polygon fill="midnightblue" stroke="midnightblue" points="945.832,-621.232 935.57,-623.867 945.235,-628.207 945.832,-621.232"/>
</g>
<!-- Node12 -->
<g id="node23" class="node"><title>Node12</title>
<a xlink:href="classfwGdcmIO_1_1writer_1_1SeriesDB.html" target="_top" xlink:title="This class manages patient writing, in DICOM file format. ">
<polygon fill="white" stroke="black" points="983,-577.5 983,-598.5 1125,-598.5 1125,-577.5 983,-577.5"/>
<text text-anchor="middle" x="1054" y="-585.5" font-family="Helvetica,sans-Serif" font-size="10.00">fwGdcmIO::writer::SeriesDB</text>
</a>
</g>
<!-- Node10&#45;&gt;Node12 -->
<g id="edge22" class="edge"><title>Node10&#45;&gt;Node12</title>
<path fill="none" stroke="midnightblue" d="M945.768,-605.363C959.91,-603.095 974.514,-600.752 988.241,-598.55"/>
<polygon fill="midnightblue" stroke="midnightblue" points="944.889,-601.96 935.57,-606.999 945.998,-608.871 944.889,-601.96"/>
</g>
<!-- Node14 -->
<g id="node27" class="node"><title>Node14</title>
<a xlink:href="classvtkGdcmIO_1_1ImageSeriesWriter.html" target="_top" xlink:title="Write an ImageSeries in DICOM format. ">
<polygon fill="white" stroke="black" points="977,-537.5 977,-558.5 1131,-558.5 1131,-537.5 977,-537.5"/>
<text text-anchor="middle" x="1054" y="-545.5" font-family="Helvetica,sans-Serif" font-size="10.00">vtkGdcmIO::ImageSeriesWriter</text>
</a>
</g>
<!-- Node13&#45;&gt;Node14 -->
<g id="edge26" class="edge"><title>Node13&#45;&gt;Node14</title>
<path fill="none" stroke="midnightblue" d="M945.775,-550.315C956.081,-550.095 966.631,-549.869 976.909,-549.649"/>
<polygon fill="midnightblue" stroke="midnightblue" points="945.493,-546.82 935.57,-550.533 945.643,-553.819 945.493,-546.82"/>
</g>
<!-- Node16 -->
<g id="node31" class="node"><title>Node16</title>
<a xlink:href="classfwGdcmIO_1_1writer_1_1Series.html" target="_top" xlink:title="This class handles DICOM files writing. It defines needs of data storage and delegates writing to app...">
<polygon fill="white" stroke="black" points="990,-475.5 990,-496.5 1118,-496.5 1118,-475.5 990,-475.5"/>
<text text-anchor="middle" x="1054" y="-483.5" font-family="Helvetica,sans-Serif" font-size="10.00">fwGdcmIO::writer::Series</text>
</a>
</g>
<!-- Node15&#45;&gt;Node16 -->
<g id="edge30" class="edge"><title>Node15&#45;&gt;Node16</title>
<path fill="none" stroke="midnightblue" d="M945.655,-486C960.365,-486 975.579,-486 989.788,-486"/>
<polygon fill="midnightblue" stroke="midnightblue" points="945.57,-482.5 935.57,-486 945.57,-489.5 945.57,-482.5"/>
</g>
<!-- Node18 -->
<g id="node35" class="node"><title>Node18</title>
<a xlink:href="classfwGdcmIO_1_1helper_1_1DicomSeriesWriter.html" target="_top" xlink:title="Write a DicomSeries in DICOM format. ">
<polygon fill="white" stroke="black" points="975,-403 975,-437 1133,-437 1133,-403 975,-403"/>
<text text-anchor="start" x="983" y="-424" font-family="Helvetica,sans-Serif" font-size="10.00">fwGdcmIO::helper::DicomSeries</text>
<text text-anchor="middle" x="1054" y="-411" font-family="Helvetica,sans-Serif" font-size="10.00">Writer</text>
</a>
</g>
<!-- Node17&#45;&gt;Node18 -->
<g id="edge34" class="edge"><title>Node17&#45;&gt;Node18</title>
<path fill="none" stroke="midnightblue" d="M945.603,-420C955.324,-420 965.266,-420 974.994,-420"/>
<polygon fill="midnightblue" stroke="midnightblue" points="945.57,-416.5 935.57,-420 945.57,-423.5 945.57,-416.5"/>
</g>
<!-- Node20 -->
<g id="node39" class="node"><title>Node20</title>
<a xlink:href="classfwDataIO_1_1writer_1_1TransformationMatrix3DWriter.html" target="_top" xlink:title="Writer for transformation of 3D Matrix. Write file format .trf. ">
<polygon fill="white" stroke="black" points="974,-344 974,-378 1134,-378 1134,-344 974,-344"/>
<text text-anchor="start" x="982" y="-365" font-family="Helvetica,sans-Serif" font-size="10.00">fwDataIO::writer::Transformation</text>
<text text-anchor="middle" x="1054" y="-352" font-family="Helvetica,sans-Serif" font-size="10.00">Matrix3DWriter</text>
</a>
</g>
<!-- Node19&#45;&gt;Node20 -->
<g id="edge38" class="edge"><title>Node19&#45;&gt;Node20</title>
<path fill="none" stroke="midnightblue" d="M945.57,-356.941C954.876,-357.289 964.385,-357.645 973.714,-357.995"/>
<polygon fill="midnightblue" stroke="midnightblue" points="945.694,-353.443 935.57,-356.567 945.432,-360.439 945.694,-353.443"/>
</g>
<!-- Node22 -->
<g id="node43" class="node"><title>Node22</title>
<a xlink:href="classfwDataIO_1_1writer_1_1ArrayWriter.html" target="_top" xlink:title="Array Writer. Write file format .raw. ">
<polygon fill="white" stroke="black" points="982,-304.5 982,-325.5 1126,-325.5 1126,-304.5 982,-304.5"/>
<text text-anchor="middle" x="1054" y="-312.5" font-family="Helvetica,sans-Serif" font-size="10.00">fwDataIO::writer::ArrayWriter</text>
</a>
</g>
<!-- Node21&#45;&gt;Node22 -->
<g id="edge42" class="edge"><title>Node21&#45;&gt;Node22</title>
<path fill="none" stroke="midnightblue" d="M941.226,-298.717C954.644,-300.654 968.615,-302.672 981.968,-304.6"/>
<polygon fill="midnightblue" stroke="midnightblue" points="941.491,-295.219 931.093,-297.254 940.49,-302.147 941.491,-295.219"/>
</g>
<!-- Node23 -->
<g id="node45" class="node"><title>Node23</title>
<a xlink:href="classfwDataIO_1_1writer_1_1GzArrayWriter.html" target="_top" xlink:title="Array Writer. Write file format .raw.gz. ">
<polygon fill="white" stroke="black" points="988.5,-252 988.5,-286 1119.5,-286 1119.5,-252 988.5,-252"/>
<text text-anchor="start" x="996.5" y="-273" font-family="Helvetica,sans-Serif" font-size="10.00">fwDataIO::writer::GzArray</text>
<text text-anchor="middle" x="1054" y="-260" font-family="Helvetica,sans-Serif" font-size="10.00">Writer</text>
</a>
</g>
<!-- Node21&#45;&gt;Node23 -->
<g id="edge44" class="edge"><title>Node21&#45;&gt;Node23</title>
<path fill="none" stroke="midnightblue" d="M941.213,-280.46C956.807,-278.875 973.149,-277.215 988.401,-275.665"/>
<polygon fill="midnightblue" stroke="midnightblue" points="940.688,-276.995 931.093,-281.488 941.396,-283.959 940.688,-276.995"/>
</g>
<!-- Node25 -->
<g id="node49" class="node"><title>Node25</title>
<a xlink:href="classfwDataIO_1_1writer_1_1GzBufferImageWriter.html" target="_top" xlink:title="Image Writer. Write file format .raw.gz. ">
<polygon fill="white" stroke="black" points="987,-200 987,-234 1121,-234 1121,-200 987,-200"/>
<text text-anchor="start" x="995" y="-221" font-family="Helvetica,sans-Serif" font-size="10.00">fwDataIO::writer::GzBuffer</text>
<text text-anchor="middle" x="1054" y="-208" font-family="Helvetica,sans-Serif" font-size="10.00">ImageWriter</text>
</a>
</g>
<!-- Node24&#45;&gt;Node25 -->
<g id="edge48" class="edge"><title>Node24&#45;&gt;Node25</title>
<path fill="none" stroke="midnightblue" d="M913.465,-159.686C931.898,-170.362 953.545,-182.045 974,-191 981.224,-194.163 988.96,-197.148 996.671,-199.89"/>
<polygon fill="midnightblue" stroke="midnightblue" points="915.091,-156.582 904.695,-154.543 911.55,-162.621 915.091,-156.582"/>
</g>
<!-- Node26 -->
<g id="node51" class="node"><title>Node26</title>
<a xlink:href="classfwItkIO_1_1ImageWriter.html" target="_top" xlink:title="fwItkIO::ImageWriter">
<polygon fill="white" stroke="black" points="1000,-160.5 1000,-181.5 1108,-181.5 1108,-160.5 1000,-160.5"/>
<text text-anchor="middle" x="1054" y="-168.5" font-family="Helvetica,sans-Serif" font-size="10.00">fwItkIO::ImageWriter</text>
</a>
</g>
<!-- Node24&#45;&gt;Node26 -->
<g id="edge50" class="edge"><title>Node24&#45;&gt;Node26</title>
<path fill="none" stroke="midnightblue" d="M941.124,-146.855C962.501,-151.428 985.291,-156.303 1004.76,-160.466"/>
<polygon fill="midnightblue" stroke="midnightblue" points="941.604,-143.379 931.093,-144.71 940.14,-150.224 941.604,-143.379"/>
</g>
<!-- Node27 -->
<g id="node53" class="node"><title>Node27</title>
<a xlink:href="classfwItkIO_1_1JpgImageWriter.html" target="_top" xlink:title="fwItkIO::JpgImageWriter">
<polygon fill="white" stroke="black" points="992,-120.5 992,-141.5 1116,-141.5 1116,-120.5 992,-120.5"/>
<text text-anchor="middle" x="1054" y="-128.5" font-family="Helvetica,sans-Serif" font-size="10.00">fwItkIO::JpgImageWriter</text>
</a>
</g>
<!-- Node24&#45;&gt;Node27 -->
<g id="edge52" class="edge"><title>Node24&#45;&gt;Node27</title>
<path fill="none" stroke="midnightblue" d="M941.384,-131C958.122,-131 975.713,-131 991.887,-131"/>
<polygon fill="midnightblue" stroke="midnightblue" points="941.093,-127.5 931.093,-131 941.093,-134.5 941.093,-127.5"/>
</g>
<!-- Node28 -->
<g id="node55" class="node"><title>Node28</title>
<a xlink:href="classfwVtkIO_1_1ImageWriter.html" target="_top" xlink:title="Write an image.Write a VTK Image using the VTK lib. ">
<polygon fill="white" stroke="black" points="998,-80.5 998,-101.5 1110,-101.5 1110,-80.5 998,-80.5"/>
<text text-anchor="middle" x="1054" y="-88.5" font-family="Helvetica,sans-Serif" font-size="10.00">fwVtkIO::ImageWriter</text>
</a>
</g>
<!-- Node24&#45;&gt;Node28 -->
<g id="edge54" class="edge"><title>Node24&#45;&gt;Node28</title>
<path fill="none" stroke="midnightblue" d="M941.124,-115.145C962.501,-110.572 985.291,-105.697 1004.76,-101.534"/>
<polygon fill="midnightblue" stroke="midnightblue" points="940.14,-111.776 931.093,-117.29 941.604,-118.621 940.14,-111.776"/>
</g>
<!-- Node29 -->
<g id="node57" class="node"><title>Node29</title>
<a xlink:href="classfwVtkIO_1_1MetaImageWriter.html" target="_top" xlink:title="Write a MetaImage.Write a MetaImage using the VTK lib. ">
<polygon fill="white" stroke="black" points="987,-40.5 987,-61.5 1121,-61.5 1121,-40.5 987,-40.5"/>
<text text-anchor="middle" x="1054" y="-48.5" font-family="Helvetica,sans-Serif" font-size="10.00">fwVtkIO::MetaImageWriter</text>
</a>
</g>
<!-- Node24&#45;&gt;Node29 -->
<g id="edge56" class="edge"><title>Node24&#45;&gt;Node29</title>
<path fill="none" stroke="midnightblue" d="M912.252,-102.097C930.834,-91.1756 952.907,-79.3764 974,-71 983.181,-67.3541 993.224,-64.2207 1003,-61.5883"/>
<polygon fill="midnightblue" stroke="midnightblue" points="910.219,-99.2344 903.43,-107.369 913.81,-105.243 910.219,-99.2344"/>
</g>
<!-- Node30 -->
<g id="node59" class="node"><title>Node30</title>
<a xlink:href="classfwVtkIO_1_1VtiImageWriter.html" target="_top" xlink:title="Write an image.Write a VTK Image using the VTK lib. ">
<polygon fill="white" stroke="black" points="992,-0.5 992,-21.5 1116,-21.5 1116,-0.5 992,-0.5"/>
<text text-anchor="middle" x="1054" y="-8.5" font-family="Helvetica,sans-Serif" font-size="10.00">fwVtkIO::VtiImageWriter</text>
</a>
</g>
<!-- Node24&#45;&gt;Node30 -->
<g id="edge58" class="edge"><title>Node24&#45;&gt;Node30</title>
<path fill="none" stroke="midnightblue" d="M892.793,-99.5444C912.737,-77.2297 942.234,-48.2834 974,-31 981.042,-27.1684 988.832,-24.0561 996.704,-21.5318"/>
<polygon fill="midnightblue" stroke="midnightblue" points="890.105,-97.3019 886.149,-107.131 895.371,-101.914 890.105,-97.3019"/>
</g>
</g>
</svg>
        <g id="navigator" transform="translate(0 0)" fill="#404254">
                <rect fill="#f2f5e9" fill-opacity="0.5" stroke="#606060" stroke-width=".5" x="0" y="0" width="60" height="60"/>
                <use id="zoomplus" xlink:href="#zoomPlus" x="17" y="9" onmousedown="handleZoom(evt,'in')"/>
                <use id="zoomminus" xlink:href="#zoomMin" x="42" y="9" onmousedown="handleZoom(evt,'out')"/>
                <use id="reset" xlink:href="#resetDef" x="30" y="36" onmousedown="handleReset()"/>
                <g id="arrowUp" xlink:href="#dirArrow" transform="translate(30 24)" onmousedown="handlePan(0,-1)">
                  <use xlink:href="#rim" fill="#404040">
                        <set attributeName="fill" to="#808080" begin="arrowUp.mouseover" end="arrowUp.mouseout"/>
                  </use>
                  <path fill="none" stroke="white" stroke-width="1.5" d="M0,-3.0v7 M-2.5,-0.5L0,-3.0L2.5,-0.5"/>
                </g>
                <g id="arrowRight" xlink:href="#dirArrow" transform="rotate(90) translate(36 -43)" onmousedown="handlePan(1,0)">
                  <use xlink:href="#rim" fill="#404040">
                        <set attributeName="fill" to="#808080" begin="arrowRight.mouseover" end="arrowRight.mouseout"/>
                  </use>
                  <path fill="none" stroke="white" stroke-width="1.5" d="M0,-3.0v7 M-2.5,-0.5L0,-3.0L2.5,-0.5"/>
                </g>
                <g id="arrowDown" xlink:href="#dirArrow" transform="rotate(180) translate(-30 -48)" onmousedown="handlePan(0,1)">
                  <use xlink:href="#rim" fill="#404040">
                        <set attributeName="fill" to="#808080" begin="arrowDown.mouseover" end="arrowDown.mouseout"/>
                  </use>
                  <path fill="none" stroke="white" stroke-width="1.5" d="M0,-3.0v7 M-2.5,-0.5L0,-3.0L2.5,-0.5"/>
                </g>
                <g id="arrowLeft" xlink:href="#dirArrow" transform="rotate(270) translate(-36 17)" onmousedown="handlePan(-1,0)">
                  <use xlink:href="#rim" fill="#404040">
                        <set attributeName="fill" to="#808080" begin="arrowLeft.mouseover" end="arrowLeft.mouseout"/>
                  </use>
                  <path fill="none" stroke="white" stroke-width="1.5" d="M0,-3.0v7 M-2.5,-0.5L0,-3.0L2.5,-0.5"/>
                </g>
        </g>
        <svg viewBox="0 0 15 15" width="100%" height="30px" preserveAspectRatio="xMaxYMin meet">
         <g id="arrow_out" transform="scale(0.3 0.3)">
          <a xlink:href="classfwDataIO_1_1writer_1_1GenericObjectWriter__inherit__graph_org.svg" target="_base">
           <rect id="button" ry="5" rx="5" y="6" x="6" height="38" width="38"
                fill="#f2f5e9" fill-opacity="0.5" stroke="#606060" stroke-width="1.0"/>
           <path id="arrow"
             d="M 11.500037,31.436501 C 11.940474,20.09759 22.043105,11.32322 32.158766,21.979434 L 37.068811,17.246167 C 37.068811,17.246167 37.088388,32 37.088388,32 L 22.160133,31.978069 C 22.160133,31.978069 26.997745,27.140456 26.997745,27.140456 C 18.528582,18.264221 13.291696,25.230495 11.500037,31.436501 z"
             style="fill:#404040;"/>
          </a>
         </g>
        </svg>
</svg>
