<?xml version="1.0" encoding="UTF-8" standalone="no"?>
<!DOCTYPE svg PUBLIC "-//W3C//DTD SVG 1.1//EN"
 "http://www.w3.org/Graphics/SVG/1.1/DTD/svg11.dtd">
<!-- Generated by graphviz version 2.26.3 (20100126.1600)
 -->
<!-- Title: visuVTKAdaptor::Reconstruction Pages: 1 -->
<!--zoomable 564 -->
<svg id="main" version="1.1" xmlns="http://www.w3.org/2000/svg" xmlns:xlink="http://www.w3.org/1999/xlink" xml:space="preserve" onload="init(evt)">
<style type="text/css"><![CDATA[
.edge:hover path { stroke: red; }
.edge:hover polygon { stroke: red; fill: red; }
]]></style>
<script type="text/javascript"><![CDATA[
var edges = document.getElementsByTagName('g');
if (edges && edges.length) {
  for (var i=0;i<edges.length;i++) {
    if (edges[i].id.substr(0,4)=='edge') {
      edges[i].setAttribute('class','edge');
    }
  }
}
]]></script>
        <defs>
                <circle id="rim" cx="0" cy="0" r="7"/>
                <circle id="rim2" cx="0" cy="0" r="3.5"/>
                <g id="zoomPlus">
                        <use xlink:href="#rim" fill="#404040">
                                <set attributeName="fill" to="#808080" begin="zoomplus.mouseover" end="zoomplus.mouseout"/>
                        </use>
                        <path d="M-4,0h8M0,-4v8" fill="none" stroke="white" stroke-width="1.5" pointer-events="none"/>
                </g>
                <g id="zoomMin">
                        <use xlink:href="#rim" fill="#404040">
                                <set attributeName="fill" to="#808080" begin="zoomminus.mouseover" end="zoomminus.mouseout"/>
                        </use>
                        <path d="M-4,0h8" fill="none" stroke="white" stroke-width="1.5" pointer-events="none"/>
                </g>
                <g id="dirArrow">
                        <path fill="none" stroke="white" stroke-width="1.5" d="M0,-3.0v7 M-2.5,-0.5L0,-3.0L2.5,-0.5"/>
                </g>
               <g id="resetDef">
                       <use xlink:href="#rim2" fill="#404040">
                               <set attributeName="fill" to="#808080" begin="reset.mouseover" end="reset.mouseout"/>
                       </use>
               </g>
        </defs>

<script type="text/javascript">
var viewWidth = 2172;
var viewHeight = 564;
var sectionId = 'dynsection-1';
</script>
<script xlink:href="svgpan.js"/>
<svg id="graph" class="graph">
<g id="viewport">
<title>visuVTKAdaptor::Reconstruction</title>
<polygon fill="white" stroke="white" points="-4,5 -4,-560.257 2169,-560.257 2169,5 -4,5"/>
<!-- Node1 -->
<g id="node1" class="node"><title>Node1</title>
<polygon fill="#bfbfbf" stroke="black" points="2004,-272.757 2004,-293.757 2164,-293.757 2164,-272.757 2004,-272.757"/>
<text text-anchor="middle" x="2084" y="-280.757" font-family="Helvetica,sans-Serif" font-size="10.00">visuVTKAdaptor::Reconstruction</text>
</g>
<!-- Node2 -->
<g id="node2" class="node"><title>Node2</title>
<a xlink:href="classfwRenderVTK_1_1IVtkAdaptorService.html" target="_top" xlink:title="fwRenderVTK::IVtkAdaptor\lService">
<polygon fill="white" stroke="black" points="1830,-266.257 1830,-300.257 1966,-300.257 1966,-266.257 1830,-266.257"/>
<text text-anchor="start" x="1838" y="-287.257" font-family="Helvetica,sans-Serif" font-size="10.00">fwRenderVTK::IVtkAdaptor</text>
<text text-anchor="middle" x="1898" y="-274.257" font-family="Helvetica,sans-Serif" font-size="10.00">Service</text>
</a>
</g>
<!-- Node2&#45;&gt;Node1 -->
<g id="edge2" class="edge"><title>Node2&#45;&gt;Node1</title>
<path fill="none" stroke="midnightblue" d="M1976.36,-283.257C1985.44,-283.257 1994.72,-283.257 2003.82,-283.257"/>
<polygon fill="midnightblue" stroke="midnightblue" points="1976.2,-279.757 1966.2,-283.257 1976.2,-286.757 1976.2,-279.757"/>
</g>
<!-- Node3 -->
<g id="node4" class="node"><title>Node3</title>
<a xlink:href="classfwServices_1_1IService.html" target="_top" xlink:title="Base class for all services. ">
<polygon fill="white" stroke="black" points="1490.5,-304.757 1490.5,-325.757 1597.5,-325.757 1597.5,-304.757 1490.5,-304.757"/>
<text text-anchor="middle" x="1544" y="-312.757" font-family="Helvetica,sans-Serif" font-size="10.00">fwServices::IService</text>
</a>
</g>
<!-- Node3&#45;&gt;Node2 -->
<g id="edge4" class="edge"><title>Node3&#45;&gt;Node2</title>
<path fill="none" stroke="midnightblue" d="M1607.91,-309.479C1670.54,-303.818 1765.67,-295.219 1829.75,-289.426"/>
<polygon fill="midnightblue" stroke="midnightblue" points="1607.41,-306.01 1597.76,-310.397 1608.04,-312.982 1607.41,-306.01"/>
</g>
<!-- Node4 -->
<g id="node6" class="node"><title>Node4</title>
<a xlink:href="classfwTools_1_1Object.html" target="_top" xlink:title="Define Base class for FW4SPL objects and services. ">
<polygon fill="white" stroke="black" points="385,-280.757 385,-301.757 471,-301.757 471,-280.757 385,-280.757"/>
<text text-anchor="middle" x="428" y="-288.757" font-family="Helvetica,sans-Serif" font-size="10.00">fwTools::Object</text>
</a>
</g>
<!-- Node4&#45;&gt;Node3 -->
<g id="edge6" class="edge"><title>Node4&#45;&gt;Node3</title>
<path fill="none" stroke="midnightblue" d="M481.252,-292.402C669.376,-296.448 1301.53,-310.042 1490.32,-314.102"/>
<polygon fill="midnightblue" stroke="midnightblue" points="481.138,-288.899 471.065,-292.183 480.987,-295.897 481.138,-288.899"/>
</g>
<!-- Node5 -->
<g id="node8" class="node"><title>Node5</title>
<a xlink:href="classfwCore_1_1BaseObject.html" target="_top" xlink:title="Base class for all FW4SPL&#39;s classes. ">
<polygon fill="white" stroke="black" points="170.5,-217.757 170.5,-238.757 275.5,-238.757 275.5,-217.757 170.5,-217.757"/>
<text text-anchor="middle" x="223" y="-225.757" font-family="Helvetica,sans-Serif" font-size="10.00">fwCore::BaseObject</text>
</a>
</g>
<!-- Node5&#45;&gt;Node4 -->
<g id="edge8" class="edge"><title>Node5&#45;&gt;Node4</title>
<path fill="none" stroke="midnightblue" d="M263.079,-242.138C273.146,-245.532 283.946,-249.096 294,-252.257 326.244,-262.393 363.137,-273.063 390.038,-280.675"/>
<polygon fill="midnightblue" stroke="midnightblue" points="263.905,-238.722 253.311,-238.821 261.654,-245.35 263.905,-238.722"/>
</g>
<!-- Node26 -->
<g id="node53" class="node"><title>Node26</title>
<a xlink:href="structfwCom_1_1SlotConnectionBase.html" target="_top" xlink:title="Base class for Slot connection implementation. This class is for internal use purpose. ">
<polygon fill="white" stroke="black" points="356.5,-194.757 356.5,-215.757 499.5,-215.757 499.5,-194.757 356.5,-194.757"/>
<text text-anchor="middle" x="428" y="-202.757" font-family="Helvetica,sans-Serif" font-size="10.00">fwCom::SlotConnectionBase</text>
</a>
</g>
<!-- Node5&#45;&gt;Node26 -->
<g id="edge58" class="edge"><title>Node5&#45;&gt;Node26</title>
<path fill="none" stroke="midnightblue" d="M285.806,-220.22C288.575,-219.89 291.315,-219.567 294,-219.257 314.215,-216.92 336.166,-214.554 356.339,-212.45"/>
<polygon fill="midnightblue" stroke="midnightblue" points="285.22,-216.765 275.714,-221.444 286.063,-223.714 285.22,-216.765"/>
</g>
<!-- Node6 -->
<g id="node10" class="node"><title>Node6</title>
<polygon fill="white" stroke="#bfbfbf" points="0.5,-211.257 0.5,-245.257 131.5,-245.257 131.5,-211.257 0.5,-211.257"/>
<text text-anchor="start" x="8.5" y="-232.257" font-family="Helvetica,sans-Serif" font-size="10.00">std::enable_shared</text>
<text text-anchor="middle" x="66" y="-219.257" font-family="Helvetica,sans-Serif" font-size="10.00">_from_this&lt; BaseObject &gt;</text>
</g>
<!-- Node6&#45;&gt;Node5 -->
<g id="edge10" class="edge"><title>Node6&#45;&gt;Node5</title>
<path fill="none" stroke="midnightblue" d="M141.751,-228.257C151.466,-228.257 161.238,-228.257 170.469,-228.257"/>
<polygon fill="midnightblue" stroke="midnightblue" points="141.672,-224.757 131.672,-228.257 141.672,-231.757 141.672,-224.757"/>
</g>
<!-- Node7 -->
<g id="node12" class="node"><title>Node7</title>
<a xlink:href="classfwTools_1_1fwID.html" target="_top" xlink:title="Defines ID for fwTools::Object. It is used to associate ID with object. ">
<polygon fill="white" stroke="black" points="184,-280.757 184,-301.757 262,-301.757 262,-280.757 184,-280.757"/>
<text text-anchor="middle" x="223" y="-288.757" font-family="Helvetica,sans-Serif" font-size="10.00">fwTools::fwID</text>
</a>
</g>
<!-- Node7&#45;&gt;Node4 -->
<g id="edge12" class="edge"><title>Node7&#45;&gt;Node4</title>
<path fill="none" stroke="darkgreen" d="M272.314,-291.257C306.636,-291.257 351.963,-291.257 384.851,-291.257"/>
<polygon fill="darkgreen" stroke="darkgreen" points="272.041,-287.757 262.041,-291.257 272.041,-294.757 272.041,-287.757"/>
</g>
<!-- Node8 -->
<g id="node14" class="node"><title>Node8</title>
<a xlink:href="classfwCom_1_1HasSlots.html" target="_top" xlink:title="This class proposes a mapping between a SlotKeyType and a SlotBase. ">
<polygon fill="white" stroke="black" points="1222.5,-379.757 1222.5,-400.757 1317.5,-400.757 1317.5,-379.757 1222.5,-379.757"/>
<text text-anchor="middle" x="1270" y="-387.757" font-family="Helvetica,sans-Serif" font-size="10.00">fwCom::HasSlots</text>
</a>
</g>
<!-- Node8&#45;&gt;Node3 -->
<g id="edge14" class="edge"><title>Node8&#45;&gt;Node3</title>
<path fill="none" stroke="midnightblue" d="M1319.82,-377.155C1354.19,-368.061 1400.91,-355.591 1442,-344.257 1463.65,-338.284 1487.83,-331.418 1507.21,-325.866"/>
<polygon fill="midnightblue" stroke="midnightblue" points="1318.79,-373.806 1310.02,-379.745 1320.58,-380.573 1318.79,-373.806"/>
</g>
<!-- Node9 -->
<g id="node16" class="node"><title>Node9</title>
<a xlink:href="classfwCom_1_1Slots.html" target="_top" xlink:title="This class proposes a mapping between a SlotKeyType and a SlotBase. ">
<polygon fill="white" stroke="black" points="1027.5,-397.757 1027.5,-418.757 1104.5,-418.757 1104.5,-397.757 1027.5,-397.757"/>
<text text-anchor="middle" x="1066" y="-405.757" font-family="Helvetica,sans-Serif" font-size="10.00">fwCom::Slots</text>
</a>
</g>
<!-- Node9&#45;&gt;Node8 -->
<g id="edge16" class="edge"><title>Node9&#45;&gt;Node8</title>
<path fill="none" stroke="#9a32cd" stroke-dasharray="5,2" d="M1115.04,-403.93C1147.58,-401.059 1190.06,-397.31 1222.32,-394.464"/>
<polygon fill="#9a32cd" stroke="#9a32cd" points="1114.5,-400.463 1104.85,-404.829 1115.12,-407.436 1114.5,-400.463"/>
<text text-anchor="middle" x="1168" y="-405.257" font-family="Helvetica,sans-Serif" font-size="10.00"> m_slots</text>
</g>
<!-- Node10 -->
<g id="node18" class="node"><title>Node10</title>
<polygon fill="white" stroke="#bfbfbf" points="679,-395.257 679,-429.257 831,-429.257 831,-395.257 679,-395.257"/>
<text text-anchor="start" x="687" y="-416.257" font-family="Helvetica,sans-Serif" font-size="10.00">std::map&lt; SlotKeyType,</text>
<text text-anchor="middle" x="755" y="-403.257" font-family="Helvetica,sans-Serif" font-size="10.00"> std::shared_ptr&lt; SlotBase &gt; &gt;</text>
</g>
<!-- Node10&#45;&gt;Node9 -->
<g id="edge18" class="edge"><title>Node10&#45;&gt;Node9</title>
<path fill="none" stroke="#9a32cd" stroke-dasharray="5,2" d="M841.455,-411.145C902.318,-410.362 980.89,-409.351 1027.13,-408.757"/>
<polygon fill="#9a32cd" stroke="#9a32cd" points="841.033,-407.65 831.079,-411.278 841.123,-414.649 841.033,-407.65"/>
<text text-anchor="middle" x="925" y="-414.257" font-family="Helvetica,sans-Serif" font-size="10.00"> m_slots</text>
</g>
<!-- Node11 -->
<g id="node20" class="node"><title>Node11</title>
<a xlink:title="STL class. ">
<polygon fill="white" stroke="#bfbfbf" points="398,-464.757 398,-485.757 458,-485.757 458,-464.757 398,-464.757"/>
<text text-anchor="middle" x="428" y="-472.757" font-family="Helvetica,sans-Serif" font-size="10.00">std::string</text>
</a>
</g>
<!-- Node11&#45;&gt;Node1 -->
<g id="edge70" class="edge"><title>Node11&#45;&gt;Node1</title>
<path fill="none" stroke="#9a32cd" stroke-dasharray="5,2" d="M467.845,-489.058C528.878,-508.934 649.539,-543.257 755,-543.257 755,-543.257 755,-543.257 1898,-543.257 2022.88,-543.257 2071.92,-342.413 2081.97,-293.771"/>
<polygon fill="#9a32cd" stroke="#9a32cd" points="468.812,-485.692 458.219,-485.882 466.618,-492.339 468.812,-485.692"/>
<text text-anchor="middle" x="1270" y="-547.257" font-family="Helvetica,sans-Serif" font-size="10.00"> m_clippingPlanesId</text>
</g>
<!-- Node11&#45;&gt;Node2 -->
<g id="edge68" class="edge"><title>Node11&#45;&gt;Node2</title>
<path fill="none" stroke="#9a32cd" stroke-dasharray="5,2" d="M468.277,-478.092C529.972,-482.183 651.598,-489.257 755,-489.257 755,-489.257 755,-489.257 1544,-489.257 1693.68,-489.257 1836.55,-349.976 1882.61,-300.466"/>
<polygon fill="#9a32cd" stroke="#9a32cd" points="468.399,-474.592 458.187,-477.413 467.93,-481.576 468.399,-474.592"/>
<text text-anchor="middle" x="1168" y="-519.257" font-family="Helvetica,sans-Serif" font-size="10.00"> m_pickerId</text>
<text text-anchor="middle" x="1168" y="-506.257" font-family="Helvetica,sans-Serif" font-size="10.00">m_transformId</text>
<text text-anchor="middle" x="1168" y="-493.257" font-family="Helvetica,sans-Serif" font-size="10.00">m_rendererId</text>
</g>
<!-- Node11&#45;&gt;Node10 -->
<g id="edge20" class="edge"><title>Node11&#45;&gt;Node10</title>
<path fill="none" stroke="#9a32cd" stroke-dasharray="5,2" d="M468.425,-469.419C523.982,-461.303 621.031,-446.762 656,-439.257 669.238,-436.415 683.341,-432.881 696.629,-429.316"/>
<polygon fill="#9a32cd" stroke="#9a32cd" points="467.618,-466 458.227,-470.905 468.628,-472.927 467.618,-466"/>
<text text-anchor="middle" x="587" y="-465.257" font-family="Helvetica,sans-Serif" font-size="10.00"> keys</text>
</g>
<!-- Node18 -->
<g id="node34" class="node"><title>Node18</title>
<polygon fill="white" stroke="#bfbfbf" points="674.5,-323.257 674.5,-357.257 835.5,-357.257 835.5,-323.257 674.5,-323.257"/>
<text text-anchor="start" x="682.5" y="-344.257" font-family="Helvetica,sans-Serif" font-size="10.00">std::map&lt; SignalKeyType,</text>
<text text-anchor="middle" x="755" y="-331.257" font-family="Helvetica,sans-Serif" font-size="10.00"> std::shared_ptr&lt; SignalBase &gt; &gt;</text>
</g>
<!-- Node11&#45;&gt;Node18 -->
<g id="edge36" class="edge"><title>Node11&#45;&gt;Node18</title>
<path fill="none" stroke="#9a32cd" stroke-dasharray="5,2" d="M439.081,-455.829C453.794,-432.023 482.149,-392.486 518,-373.257 572.559,-343.993 594.682,-362.813 656,-354.257 662.017,-353.417 668.24,-352.545 674.499,-351.666"/>
<polygon fill="#9a32cd" stroke="#9a32cd" points="435.917,-454.3 433.792,-464.68 441.926,-457.891 435.917,-454.3"/>
<text text-anchor="middle" x="587" y="-377.257" font-family="Helvetica,sans-Serif" font-size="10.00"> keys</text>
</g>
<!-- Node12 -->
<g id="node22" class="node"><title>Node12</title>
<a xlink:title="STL class. ">
<polygon fill="white" stroke="#bfbfbf" points="175.5,-458.257 175.5,-492.257 270.5,-492.257 270.5,-458.257 175.5,-458.257"/>
<text text-anchor="start" x="183.5" y="-479.257" font-family="Helvetica,sans-Serif" font-size="10.00">std::basic_string&lt;</text>
<text text-anchor="middle" x="223" y="-466.257" font-family="Helvetica,sans-Serif" font-size="10.00"> char &gt;</text>
</a>
</g>
<!-- Node12&#45;&gt;Node11 -->
<g id="edge22" class="edge"><title>Node12&#45;&gt;Node11</title>
<path fill="none" stroke="midnightblue" d="M280.986,-475.257C319.035,-475.257 367.241,-475.257 397.862,-475.257"/>
<polygon fill="midnightblue" stroke="midnightblue" points="280.546,-471.757 270.546,-475.257 280.546,-478.757 280.546,-471.757"/>
</g>
<!-- Node13 -->
<g id="node24" class="node"><title>Node13</title>
<a xlink:title="STL class. ">
<polygon fill="white" stroke="#bfbfbf" points="382,-320.757 382,-341.757 474,-341.757 474,-320.757 382,-320.757"/>
<text text-anchor="middle" x="428" y="-328.757" font-family="Helvetica,sans-Serif" font-size="10.00">std::map&lt; K, T &gt;</text>
</a>
</g>
<!-- Node13&#45;&gt;Node10 -->
<g id="edge24" class="edge"><title>Node13&#45;&gt;Node10</title>
<path fill="none" stroke="orange" stroke-dasharray="5,2" d="M447.95,-348.503C465.238,-362.371 491.568,-381.013 518,-390.257 546.767,-400.317 621.063,-406.088 678.872,-409.172"/>
<polygon fill="orange" stroke="orange" points="449.721,-345.426 439.781,-341.761 445.265,-350.825 449.721,-345.426"/>
<text text-anchor="start" x="527.5" y="-424.257" font-family="Helvetica,sans-Serif" font-size="10.00"> &lt; SlotKeyType, std</text>
<text text-anchor="middle" x="587" y="-411.257" font-family="Helvetica,sans-Serif" font-size="10.00">::shared_ptr&lt; SlotBase &gt; &gt;</text>
</g>
<!-- Node13&#45;&gt;Node18 -->
<g id="edge38" class="edge"><title>Node13&#45;&gt;Node18</title>
<path fill="none" stroke="orange" stroke-dasharray="5,2" d="M484.322,-329.091C495.48,-328.743 507.109,-328.438 518,-328.257 579.325,-327.235 594.778,-324.56 656,-328.257 661.962,-328.617 668.115,-329.098 674.3,-329.66"/>
<polygon fill="orange" stroke="orange" points="484.121,-325.595 474.241,-329.42 484.349,-332.592 484.121,-325.595"/>
<text text-anchor="start" x="522.5" y="-345.257" font-family="Helvetica,sans-Serif" font-size="10.00"> &lt; SignalKeyType, std</text>
<text text-anchor="middle" x="587" y="-332.257" font-family="Helvetica,sans-Serif" font-size="10.00">::shared_ptr&lt; SignalBase &gt; &gt;</text>
</g>
<!-- Node14 -->
<g id="node26" class="node"><title>Node14</title>
<polygon fill="white" stroke="#bfbfbf" points="208.5,-320.757 208.5,-341.757 237.5,-341.757 237.5,-320.757 208.5,-320.757"/>
<text text-anchor="middle" x="223" y="-328.757" font-family="Helvetica,sans-Serif" font-size="10.00">K</text>
</g>
<!-- Node14&#45;&gt;Node13 -->
<g id="edge26" class="edge"><title>Node14&#45;&gt;Node13</title>
<path fill="none" stroke="#9a32cd" stroke-dasharray="5,2" d="M247.935,-331.257C281.131,-331.257 340.462,-331.257 381.914,-331.257"/>
<polygon fill="#9a32cd" stroke="#9a32cd" points="247.743,-327.757 237.743,-331.257 247.743,-334.757 247.743,-327.757"/>
<text text-anchor="middle" x="316" y="-335.257" font-family="Helvetica,sans-Serif" font-size="10.00"> keys</text>
</g>
<!-- Node15 -->
<g id="node28" class="node"><title>Node15</title>
<polygon fill="white" stroke="#bfbfbf" points="208.5,-136.757 208.5,-157.757 237.5,-157.757 237.5,-136.757 208.5,-136.757"/>
<text text-anchor="middle" x="223" y="-144.757" font-family="Helvetica,sans-Serif" font-size="10.00">T</text>
</g>
<!-- Node15&#45;&gt;Node13 -->
<g id="edge28" class="edge"><title>Node15&#45;&gt;Node13</title>
<path fill="none" stroke="#9a32cd" stroke-dasharray="5,2" d="M239.299,-165.483C249.921,-177.49 263.987,-193.637 276,-208.257 312.8,-253.04 307.858,-278.975 356,-311.257 363.758,-316.459 372.848,-320.317 381.906,-323.175"/>
<polygon fill="#9a32cd" stroke="#9a32cd" points="241.822,-163.053 232.564,-157.902 236.589,-167.703 241.822,-163.053"/>
<text text-anchor="middle" x="316" y="-299.257" font-family="Helvetica,sans-Serif" font-size="10.00"> elements</text>
</g>
<!-- Node21 -->
<g id="node42" class="node"><title>Node21</title>
<a xlink:title="STL class. ">
<polygon fill="white" stroke="#bfbfbf" points="384.5,-72.7567 384.5,-93.7567 471.5,-93.7567 471.5,-72.7567 384.5,-72.7567"/>
<text text-anchor="middle" x="428" y="-80.7567" font-family="Helvetica,sans-Serif" font-size="10.00">std::vector&lt; T &gt;</text>
</a>
</g>
<!-- Node15&#45;&gt;Node21 -->
<g id="edge46" class="edge"><title>Node15&#45;&gt;Node21</title>
<path fill="none" stroke="#9a32cd" stroke-dasharray="5,2" d="M246.772,-133.214C260.243,-125.77 277.631,-117.003 294,-111.257 323.376,-100.944 357.776,-93.8533 384.367,-89.388"/>
<polygon fill="#9a32cd" stroke="#9a32cd" points="244.702,-130.364 237.725,-138.338 248.151,-136.455 244.702,-130.364"/>
<text text-anchor="middle" x="316" y="-115.257" font-family="Helvetica,sans-Serif" font-size="10.00"> elements</text>
</g>
<!-- Node27 -->
<g id="node56" class="node"><title>Node27</title>
<a xlink:title="STL class. ">
<polygon fill="white" stroke="#bfbfbf" points="378,-116.757 378,-137.757 478,-137.757 478,-116.757 378,-116.757"/>
<text text-anchor="middle" x="428" y="-124.757" font-family="Helvetica,sans-Serif" font-size="10.00">std::weak_ptr&lt; T &gt;</text>
</a>
</g>
<!-- Node15&#45;&gt;Node27 -->
<g id="edge62" class="edge"><title>Node15&#45;&gt;Node27</title>
<path fill="none" stroke="#9a32cd" stroke-dasharray="5,2" d="M247.545,-140.505C261.126,-137.078 278.371,-133.232 294,-131.257 321.593,-127.769 352.624,-126.665 377.871,-126.481"/>
<polygon fill="#9a32cd" stroke="#9a32cd" points="246.331,-137.204 237.54,-143.118 248.1,-143.977 246.331,-137.204"/>
<text text-anchor="middle" x="316" y="-135.257" font-family="Helvetica,sans-Serif" font-size="10.00"> ptr</text>
</g>
<!-- Node28 -->
<g id="node59" class="node"><title>Node28</title>
<a xlink:title="STL class. ">
<polygon fill="white" stroke="#bfbfbf" points="550.5,-181.757 550.5,-202.757 623.5,-202.757 623.5,-181.757 550.5,-181.757"/>
<text text-anchor="middle" x="587" y="-189.757" font-family="Helvetica,sans-Serif" font-size="10.00">std::list&lt; T &gt;</text>
</a>
</g>
<!-- Node15&#45;&gt;Node28 -->
<g id="edge66" class="edge"><title>Node15&#45;&gt;Node28</title>
<path fill="none" stroke="#9a32cd" stroke-dasharray="5,2" d="M247.898,-150.335C310.798,-158.111 476.337,-178.576 550.341,-187.725"/>
<polygon fill="#9a32cd" stroke="#9a32cd" points="248.074,-146.83 237.72,-149.076 247.215,-153.777 248.074,-146.83"/>
<text text-anchor="middle" x="316" y="-166.257" font-family="Helvetica,sans-Serif" font-size="10.00"> elements</text>
</g>
<!-- Node16 -->
<g id="node30" class="node"><title>Node16</title>
<a xlink:href="classfwCom_1_1HasSignals.html" target="_top" xlink:title="This class proposes a mapping between a SignalKeyType and a SignalBase. ">
<polygon fill="white" stroke="black" points="1218,-329.757 1218,-350.757 1322,-350.757 1322,-329.757 1218,-329.757"/>
<text text-anchor="middle" x="1270" y="-337.757" font-family="Helvetica,sans-Serif" font-size="10.00">fwCom::HasSignals</text>
</a>
</g>
<!-- Node16&#45;&gt;Node3 -->
<g id="edge30" class="edge"><title>Node16&#45;&gt;Node3</title>
<path fill="none" stroke="midnightblue" d="M1332.64,-335.554C1365.27,-333.005 1405.8,-329.681 1442,-326.257 1457.69,-324.772 1474.73,-322.999 1490.3,-321.315"/>
<polygon fill="midnightblue" stroke="midnightblue" points="1332.04,-332.09 1322.35,-336.354 1332.59,-339.069 1332.04,-332.09"/>
</g>
<!-- Node17 -->
<g id="node32" class="node"><title>Node17</title>
<a xlink:href="classfwCom_1_1Signals.html" target="_top" xlink:title="This class proposes a mapping between a SignalKeyType and a SignalBase. ">
<polygon fill="white" stroke="black" points="1023,-329.757 1023,-350.757 1109,-350.757 1109,-329.757 1023,-329.757"/>
<text text-anchor="middle" x="1066" y="-337.757" font-family="Helvetica,sans-Serif" font-size="10.00">fwCom::Signals</text>
</a>
</g>
<!-- Node17&#45;&gt;Node16 -->
<g id="edge32" class="edge"><title>Node17&#45;&gt;Node16</title>
<path fill="none" stroke="#9a32cd" stroke-dasharray="5,2" d="M1119.65,-340.257C1149.96,-340.257 1187.68,-340.257 1217.75,-340.257"/>
<polygon fill="#9a32cd" stroke="#9a32cd" points="1119.26,-336.757 1109.26,-340.257 1119.26,-343.757 1119.26,-336.757"/>
<text text-anchor="middle" x="1168" y="-344.257" font-family="Helvetica,sans-Serif" font-size="10.00"> m_signals</text>
</g>
<!-- Node18&#45;&gt;Node17 -->
<g id="edge34" class="edge"><title>Node18&#45;&gt;Node17</title>
<path fill="none" stroke="#9a32cd" stroke-dasharray="5,2" d="M846.229,-340.257C904.503,-340.257 977.392,-340.257 1022.83,-340.257"/>
<polygon fill="#9a32cd" stroke="#9a32cd" points="845.9,-336.757 835.9,-340.257 845.9,-343.757 845.9,-336.757"/>
<text text-anchor="middle" x="925" y="-344.257" font-family="Helvetica,sans-Serif" font-size="10.00"> m_signals</text>
</g>
<!-- Node19 -->
<g id="node38" class="node"><title>Node19</title>
<polygon fill="white" stroke="#bfbfbf" points="1249.5,-168.757 1249.5,-189.757 1290.5,-189.757 1290.5,-168.757 1249.5,-168.757"/>
<text text-anchor="middle" x="1270" y="-176.757" font-family="Helvetica,sans-Serif" font-size="10.00">static</text>
</g>
<!-- Node19&#45;&gt;Node1 -->
<g id="edge72" class="edge"><title>Node19&#45;&gt;Node1</title>
<path fill="none" stroke="#9a32cd" stroke-dasharray="5,2" d="M1300.72,-171.207C1312.86,-168.412 1327,-165.634 1340,-164.257 1385.08,-159.481 1396.68,-163.216 1442,-164.257 1606.57,-168.035 1650.74,-148.174 1812,-181.257 1909.33,-201.223 2017.93,-250.862 2062.83,-272.682"/>
<polygon fill="#9a32cd" stroke="#9a32cd" points="1299.55,-167.89 1290.64,-173.633 1301.18,-174.695 1299.55,-167.89"/>
<text text-anchor="start" x="1646" y="-224.257" font-family="Helvetica,sans-Serif" font-size="10.00"> s_UPDATE_VISIBILITY</text>
<text text-anchor="middle" x="1729" y="-211.257" font-family="Helvetica,sans-Serif" font-size="10.00">_SLOT</text>
<text text-anchor="middle" x="1729" y="-198.257" font-family="Helvetica,sans-Serif" font-size="10.00">s_UPDATE_MESH_SLOT</text>
<text text-anchor="middle" x="1729" y="-185.257" font-family="Helvetica,sans-Serif" font-size="10.00">s_UPDATE_NORMAL_MODE_SLOT</text>
</g>
<!-- Node19&#45;&gt;Node3 -->
<g id="edge40" class="edge"><title>Node19&#45;&gt;Node3</title>
<path fill="none" stroke="#9a32cd" stroke-dasharray="5,2" d="M1300.6,-172.67C1336.55,-166.553 1397.01,-161.453 1442,-184.257 1494.45,-210.842 1528.08,-278.243 1539.58,-304.528"/>
<polygon fill="#9a32cd" stroke="#9a32cd" points="1299.91,-169.238 1290.7,-174.485 1301.17,-176.123 1299.91,-169.238"/>
<text text-anchor="middle" x="1391" y="-292.257" font-family="Helvetica,sans-Serif" font-size="10.00"> s_STOPPED_SIG</text>
<text text-anchor="middle" x="1391" y="-279.257" font-family="Helvetica,sans-Serif" font-size="10.00">s_UPDATED_SIG</text>
<text text-anchor="middle" x="1391" y="-266.257" font-family="Helvetica,sans-Serif" font-size="10.00">s_UPDATE_SLOT</text>
<text text-anchor="middle" x="1391" y="-253.257" font-family="Helvetica,sans-Serif" font-size="10.00">s_STARTED_SIG</text>
<text text-anchor="middle" x="1391" y="-240.257" font-family="Helvetica,sans-Serif" font-size="10.00">s_SWAPKEY_SLOT</text>
<text text-anchor="middle" x="1391" y="-227.257" font-family="Helvetica,sans-Serif" font-size="10.00">s_SWAP_SLOT</text>
<text text-anchor="middle" x="1391" y="-214.257" font-family="Helvetica,sans-Serif" font-size="10.00">s_STOP_SLOT</text>
<text text-anchor="middle" x="1391" y="-201.257" font-family="Helvetica,sans-Serif" font-size="10.00">s_START_SLOT</text>
<text text-anchor="middle" x="1391" y="-188.257" font-family="Helvetica,sans-Serif" font-size="10.00">s_DEFAULT_OBJECT</text>
</g>
<!-- Node20 -->
<g id="node40" class="node"><title>Node20</title>
<polygon fill="white" stroke="#bfbfbf" points="854.5,-61.2567 854.5,-95.2567 995.5,-95.2567 995.5,-61.2567 854.5,-61.2567"/>
<text text-anchor="start" x="862.5" y="-82.2567" font-family="Helvetica,sans-Serif" font-size="10.00">std::vector&lt; ::fwRenderVTK</text>
<text text-anchor="middle" x="925" y="-69.2567" font-family="Helvetica,sans-Serif" font-size="10.00">::IVtkAdaptorService::wptr &gt;</text>
</g>
<!-- Node20&#45;&gt;Node2 -->
<g id="edge42" class="edge"><title>Node20&#45;&gt;Node2</title>
<path fill="none" stroke="#9a32cd" stroke-dasharray="5,2" d="M982.897,-58.1046C1115.39,-16.05 1443.4,64.3959 1628,-97.2567 1665.93,-130.471 1610.49,-173.469 1646,-209.257 1698.7,-262.367 1741.2,-213.073 1812,-237.257 1832.99,-244.426 1855.02,-256.303 1871.53,-266.193"/>
<polygon fill="#9a32cd" stroke="#9a32cd" points="981.77,-54.7903 973.322,-61.1853 983.914,-61.4539 981.77,-54.7903"/>
<text text-anchor="middle" x="1270" y="-10.2567" font-family="Helvetica,sans-Serif" font-size="10.00"> m_subServices</text>
</g>
<!-- Node21&#45;&gt;Node20 -->
<g id="edge44" class="edge"><title>Node21&#45;&gt;Node20</title>
<path fill="none" stroke="orange" stroke-dasharray="5,2" d="M481.684,-82.7166C571.926,-81.8087 753.986,-79.9771 854.445,-78.9665"/>
<polygon fill="orange" stroke="orange" points="481.634,-79.2168 471.67,-82.8173 481.705,-86.2164 481.634,-79.2168"/>
<text text-anchor="start" x="518" y="-100.257" font-family="Helvetica,sans-Serif" font-size="10.00"> &lt; ::fwRenderVTK::IVtkAdaptor</text>
<text text-anchor="middle" x="587" y="-87.2567" font-family="Helvetica,sans-Serif" font-size="10.00">Service::wptr &gt;</text>
</g>
<!-- Node22 -->
<g id="node45" class="node"><title>Node22</title>
<a xlink:href="classfwCom_1_1helper_1_1SigSlotConnection.html" target="_top" xlink:title="This class provides few tools to ease connect/disconnect between a signal emitter and a slot receiver...">
<polygon fill="white" stroke="black" points="1460.5,-106.757 1460.5,-127.757 1627.5,-127.757 1627.5,-106.757 1460.5,-106.757"/>
<text text-anchor="middle" x="1544" y="-114.757" font-family="Helvetica,sans-Serif" font-size="10.00">fwCom::helper::SigSlotConnection</text>
</a>
</g>
<!-- Node22&#45;&gt;Node2 -->
<g id="edge48" class="edge"><title>Node22&#45;&gt;Node2</title>
<path fill="none" stroke="#9a32cd" stroke-dasharray="5,2" d="M1554.86,-137.056C1570.95,-164.349 1603.82,-212.912 1646,-237.257 1676.57,-254.902 1766.13,-268.352 1829.77,-276.024"/>
<polygon fill="#9a32cd" stroke="#9a32cd" points="1557.71,-134.988 1549.71,-128.047 1551.64,-138.465 1557.71,-134.988"/>
<text text-anchor="middle" x="1729" y="-277.257" font-family="Helvetica,sans-Serif" font-size="10.00"> m_connections</text>
</g>
<!-- Node23 -->
<g id="node47" class="node"><title>Node23</title>
<polygon fill="white" stroke="#bfbfbf" points="1222.5,-113.257 1222.5,-147.257 1317.5,-147.257 1317.5,-113.257 1222.5,-113.257"/>
<text text-anchor="start" x="1230.5" y="-134.257" font-family="Helvetica,sans-Serif" font-size="10.00">std::list&lt; ::fwCom</text>
<text text-anchor="middle" x="1270" y="-121.257" font-family="Helvetica,sans-Serif" font-size="10.00">::Connection &gt;</text>
</g>
<!-- Node23&#45;&gt;Node22 -->
<g id="edge50" class="edge"><title>Node23&#45;&gt;Node22</title>
<path fill="none" stroke="#9a32cd" stroke-dasharray="5,2" d="M1327.93,-124.145C1332.01,-123.812 1336.07,-123.511 1340,-123.257 1379.42,-120.709 1423.21,-119.242 1460.07,-118.398"/>
<polygon fill="#9a32cd" stroke="#9a32cd" points="1327.44,-120.674 1317.78,-125.026 1328.05,-127.648 1327.44,-120.674"/>
<text text-anchor="middle" x="1391" y="-127.257" font-family="Helvetica,sans-Serif" font-size="10.00"> m_connections</text>
</g>
<!-- Node24 -->
<g id="node49" class="node"><title>Node24</title>
<a xlink:href="structfwCom_1_1Connection.html" target="_top" xlink:title="Class managing Signal&#45;Slot connections. ">
<polygon fill="white" stroke="black" points="1014,-119.757 1014,-140.757 1118,-140.757 1118,-119.757 1014,-119.757"/>
<text text-anchor="middle" x="1066" y="-127.757" font-family="Helvetica,sans-Serif" font-size="10.00">fwCom::Connection</text>
</a>
</g>
<!-- Node24&#45;&gt;Node23 -->
<g id="edge52" class="edge"><title>Node24&#45;&gt;Node23</title>
<path fill="none" stroke="#9a32cd" stroke-dasharray="5,2" d="M1128.04,-130.257C1158.32,-130.257 1194.18,-130.257 1222.28,-130.257"/>
<polygon fill="#9a32cd" stroke="#9a32cd" points="1128.01,-126.757 1118.01,-130.257 1128.01,-133.757 1128.01,-126.757"/>
<text text-anchor="middle" x="1168" y="-134.257" font-family="Helvetica,sans-Serif" font-size="10.00"> elements</text>
</g>
<!-- Node25 -->
<g id="node51" class="node"><title>Node25</title>
<polygon fill="white" stroke="#bfbfbf" points="679,-113.257 679,-147.257 831,-147.257 831,-113.257 679,-113.257"/>
<text text-anchor="start" x="687" y="-134.257" font-family="Helvetica,sans-Serif" font-size="10.00">std::weak_ptr&lt; SlotConnection</text>
<text text-anchor="middle" x="755" y="-121.257" font-family="Helvetica,sans-Serif" font-size="10.00">Base &gt;</text>
</g>
<!-- Node25&#45;&gt;Node24 -->
<g id="edge54" class="edge"><title>Node25&#45;&gt;Node24</title>
<path fill="none" stroke="#9a32cd" stroke-dasharray="5,2" d="M841.225,-130.257C896.526,-130.257 966.52,-130.257 1013.59,-130.257"/>
<polygon fill="#9a32cd" stroke="#9a32cd" points="841.079,-126.757 831.079,-130.257 841.079,-133.757 841.079,-126.757"/>
<text text-anchor="middle" x="925" y="-134.257" font-family="Helvetica,sans-Serif" font-size="10.00"> m_connectionBase</text>
</g>
<!-- Node26&#45;&gt;Node25 -->
<g id="edge56" class="edge"><title>Node26&#45;&gt;Node25</title>
<path fill="none" stroke="#9a32cd" stroke-dasharray="5,2" d="M453.862,-189.379C471.342,-179.4 495.293,-167.151 518,-160.257 525.763,-157.899 612.607,-147.213 678.941,-139.261"/>
<polygon fill="#9a32cd" stroke="#9a32cd" points="451.73,-186.571 444.865,-194.641 455.264,-192.613 451.73,-186.571"/>
<text text-anchor="middle" x="587" y="-164.257" font-family="Helvetica,sans-Serif" font-size="10.00"> ptr</text>
</g>
<!-- Node27&#45;&gt;Node25 -->
<g id="edge60" class="edge"><title>Node27&#45;&gt;Node25</title>
<path fill="none" stroke="orange" stroke-dasharray="5,2" d="M488.356,-127.262C534.316,-127.328 599.148,-127.558 656,-128.257 663.392,-128.348 671.093,-128.464 678.792,-128.596"/>
<polygon fill="orange" stroke="orange" points="488.268,-123.762 478.264,-127.249 488.26,-130.762 488.268,-123.762"/>
<text text-anchor="middle" x="587" y="-132.257" font-family="Helvetica,sans-Serif" font-size="10.00"> &lt; SlotConnectionBase &gt;</text>
</g>
<!-- Node28&#45;&gt;Node23 -->
<g id="edge64" class="edge"><title>Node28&#45;&gt;Node23</title>
<path fill="none" stroke="orange" stroke-dasharray="5,2" d="M633.563,-191.454C736.376,-189.111 990.304,-180.186 1200,-147.257 1207.29,-146.112 1214.94,-144.592 1222.39,-142.93"/>
<polygon fill="orange" stroke="orange" points="633.434,-187.956 623.513,-191.673 633.586,-194.954 633.434,-187.956"/>
<text text-anchor="middle" x="925" y="-186.257" font-family="Helvetica,sans-Serif" font-size="10.00"> &lt; ::fwCom::Connection &gt;</text>
</g>
</g>
</svg>
        <g id="navigator" transform="translate(0 0)" fill="#404254">
                <rect fill="#f2f5e9" fill-opacity="0.5" stroke="#606060" stroke-width=".5" x="0" y="0" width="60" height="60"/>
                <use id="zoomplus" xlink:href="#zoomPlus" x="17" y="9" onmousedown="handleZoom(evt,'in')"/>
                <use id="zoomminus" xlink:href="#zoomMin" x="42" y="9" onmousedown="handleZoom(evt,'out')"/>
                <use id="reset" xlink:href="#resetDef" x="30" y="36" onmousedown="handleReset()"/>
                <g id="arrowUp" xlink:href="#dirArrow" transform="translate(30 24)" onmousedown="handlePan(0,-1)">
                  <use xlink:href="#rim" fill="#404040">
                        <set attributeName="fill" to="#808080" begin="arrowUp.mouseover" end="arrowUp.mouseout"/>
                  </use>
                  <path fill="none" stroke="white" stroke-width="1.5" d="M0,-3.0v7 M-2.5,-0.5L0,-3.0L2.5,-0.5"/>
                </g>
                <g id="arrowRight" xlink:href="#dirArrow" transform="rotate(90) translate(36 -43)" onmousedown="handlePan(1,0)">
                  <use xlink:href="#rim" fill="#404040">
                        <set attributeName="fill" to="#808080" begin="arrowRight.mouseover" end="arrowRight.mouseout"/>
                  </use>
                  <path fill="none" stroke="white" stroke-width="1.5" d="M0,-3.0v7 M-2.5,-0.5L0,-3.0L2.5,-0.5"/>
                </g>
                <g id="arrowDown" xlink:href="#dirArrow" transform="rotate(180) translate(-30 -48)" onmousedown="handlePan(0,1)">
                  <use xlink:href="#rim" fill="#404040">
                        <set attributeName="fill" to="#808080" begin="arrowDown.mouseover" end="arrowDown.mouseout"/>
                  </use>
                  <path fill="none" stroke="white" stroke-width="1.5" d="M0,-3.0v7 M-2.5,-0.5L0,-3.0L2.5,-0.5"/>
                </g>
                <g id="arrowLeft" xlink:href="#dirArrow" transform="rotate(270) translate(-36 17)" onmousedown="handlePan(-1,0)">
                  <use xlink:href="#rim" fill="#404040">
                        <set attributeName="fill" to="#808080" begin="arrowLeft.mouseover" end="arrowLeft.mouseout"/>
                  </use>
                  <path fill="none" stroke="white" stroke-width="1.5" d="M0,-3.0v7 M-2.5,-0.5L0,-3.0L2.5,-0.5"/>
                </g>
        </g>
        <svg viewBox="0 0 15 15" width="100%" height="30px" preserveAspectRatio="xMaxYMin meet">
         <g id="arrow_out" transform="scale(0.3 0.3)">
          <a xlink:href="classvisuVTKAdaptor_1_1Reconstruction__coll__graph_org.svg" target="_base">
           <rect id="button" ry="5" rx="5" y="6" x="6" height="38" width="38"
                fill="#f2f5e9" fill-opacity="0.5" stroke="#606060" stroke-width="1.0"/>
           <path id="arrow"
             d="M 11.500037,31.436501 C 11.940474,20.09759 22.043105,11.32322 32.158766,21.979434 L 37.068811,17.246167 C 37.068811,17.246167 37.088388,32 37.088388,32 L 22.160133,31.978069 C 22.160133,31.978069 26.997745,27.140456 26.997745,27.140456 C 18.528582,18.264221 13.291696,25.230495 11.500037,31.436501 z"
             style="fill:#404040;"/>
          </a>
         </g>
        </svg>
</svg>
