<?xml version="1.0" encoding="UTF-8" standalone="no"?>
<!DOCTYPE svg PUBLIC "-//W3C//DTD SVG 1.1//EN"
 "http://www.w3.org/Graphics/SVG/1.1/DTD/svg11.dtd">
<!-- Generated by graphviz version 2.36.0 (20140111.2315)
 -->
<!-- Title: visuVTKAdaptor::SPointList::configuring Pages: 1 -->
<!--zoomable 185 -->
<svg id="main" version="1.1" xmlns="http://www.w3.org/2000/svg" xmlns:xlink="http://www.w3.org/1999/xlink" xml:space="preserve" onload="init(evt)">
<style type="text/css"><![CDATA[
.edge:hover path { stroke: red; }
.edge:hover polygon { stroke: red; fill: red; }
]]></style>
<script type="text/javascript"><![CDATA[
var edges = document.getElementsByTagName('g');
if (edges && edges.length) {
  for (var i=0;i<edges.length;i++) {
    if (edges[i].id.substr(0,4)=='edge') {
      edges[i].setAttribute('class','edge');
    }
  }
}
]]></script>
        <defs>
                <circle id="rim" cx="0" cy="0" r="7"/>
                <circle id="rim2" cx="0" cy="0" r="3.5"/>
                <g id="zoomPlus">
                        <use xlink:href="#rim" fill="#404040">
                                <set attributeName="fill" to="#808080" begin="zoomplus.mouseover" end="zoomplus.mouseout"/>
                        </use>
                        <path d="M-4,0h8M0,-4v8" fill="none" stroke="white" stroke-width="1.5" pointer-events="none"/>
                </g>
                <g id="zoomMin">
                        <use xlink:href="#rim" fill="#404040">
                                <set attributeName="fill" to="#808080" begin="zoomminus.mouseover" end="zoomminus.mouseout"/>
                        </use>
                        <path d="M-4,0h8" fill="none" stroke="white" stroke-width="1.5" pointer-events="none"/>
                </g>
                <g id="dirArrow">
                        <path fill="none" stroke="white" stroke-width="1.5" d="M0,-3.0v7 M-2.5,-0.5L0,-3.0L2.5,-0.5"/>
                </g>
               <g id="resetDef">
                       <use xlink:href="#rim2" fill="#404040">
                               <set attributeName="fill" to="#808080" begin="reset.mouseover" end="reset.mouseout"/>
                       </use>
               </g>
        </defs>

<script type="text/javascript">
var viewWidth = 608;
var viewHeight = 185;
var sectionId = 'dynsection-2';
</script>
<script xlink:href="svgpan.js"/>
<svg id="graph" class="graph">
<g id="viewport">
<title>visuVTKAdaptor::SPointList::configuring</title>
<polygon fill="white" stroke="none" points="-4,4 -4,-181 604,-181 604,4 -4,4"/>
<!-- Node1 -->
<g id="node1" class="node"><title>Node1</title>
<polygon fill="#bfbfbf" stroke="black" points="0.5,-121 0.5,-151 139.5,-151 139.5,-121 0.5,-121"/>
<text text-anchor="start" x="8.5" y="-139" font-family="Helvetica,sans-Serif" font-size="10.00">visuVTKAdaptor::SPointList</text>
<text text-anchor="middle" x="70" y="-128" font-family="Helvetica,sans-Serif" font-size="10.00">::configuring</text>
</g>
<!-- Node2 -->
<g id="node2" class="node"><title>Node2</title>
<g id="a_node2"><a xlink:href="classfwRenderVTK_1_1IAdaptor.html#abf451ddaeae9fad7eca28360d271e4a4" target="_top" xlink:title="Parse the xml configuration for renderer, picker and transform. ">
<polygon fill="white" stroke="black" points="176.5,-98 176.5,-128 297.5,-128 297.5,-98 176.5,-98"/>
<text text-anchor="start" x="184.5" y="-116" font-family="Helvetica,sans-Serif" font-size="10.00">fwRenderVTK::IAdaptor</text>
<text text-anchor="middle" x="237" y="-105" font-family="Helvetica,sans-Serif" font-size="10.00">::configureParams</text>
</a>
</g>
</g>
<!-- Node1&#45;&gt;Node2 -->
<g id="edge1" class="edge"><title>Node1&#45;&gt;Node2</title>
<path fill="none" stroke="midnightblue" d="M139.541,-126.446C148.419,-125.208 157.519,-123.94 166.413,-122.7"/>
<polygon fill="midnightblue" stroke="midnightblue" points="166.925,-126.163 176.346,-121.315 165.958,-119.23 166.925,-126.163"/>
</g>
<!-- Node3 -->
<g id="node3" class="node"><title>Node3</title>
<g id="a_node3"><a xlink:href="classfwServices_1_1IService.html#a25c0048bcdd35e4453d3d418db22b78f" target="_top" xlink:title="Return the configuration, in an boost property tree. ">
<polygon fill="white" stroke="black" points="341.5,-147 341.5,-177 448.5,-177 448.5,-147 341.5,-147"/>
<text text-anchor="start" x="349.5" y="-165" font-family="Helvetica,sans-Serif" font-size="10.00">fwServices::IService</text>
<text text-anchor="middle" x="395" y="-154" font-family="Helvetica,sans-Serif" font-size="10.00">::getConfigTree</text>
</a>
</g>
</g>
<!-- Node1&#45;&gt;Node3 -->
<g id="edge7" class="edge"><title>Node1&#45;&gt;Node3</title>
<path fill="none" stroke="midnightblue" d="M139.895,-141.546C196.551,-146.106 276.173,-152.515 331.118,-156.938"/>
<polygon fill="midnightblue" stroke="midnightblue" points="331.173,-160.454 341.421,-157.768 331.734,-153.476 331.173,-160.454"/>
</g>
<!-- Node2&#45;&gt;Node3 -->
<g id="edge2" class="edge"><title>Node2&#45;&gt;Node3</title>
<path fill="none" stroke="midnightblue" d="M286.078,-128.101C302.018,-133.108 319.924,-138.732 336.5,-143.939"/>
<polygon fill="midnightblue" stroke="midnightblue" points="335.491,-147.291 346.081,-146.948 337.589,-140.613 335.491,-147.291"/>
</g>
<!-- Node5 -->
<g id="node5" class="node"><title>Node5</title>
<g id="a_node5"><a xlink:href="classfwRenderVTK_1_1IAdaptor.html#a5d9b171d416c78dc0d28d20fa042b9d5" target="_top" xlink:title="Sets the identifier of the picker used by this adaptor. ">
<polygon fill="white" stroke="black" points="334.5,-98 334.5,-128 455.5,-128 455.5,-98 334.5,-98"/>
<text text-anchor="start" x="342.5" y="-116" font-family="Helvetica,sans-Serif" font-size="10.00">fwRenderVTK::IAdaptor</text>
<text text-anchor="middle" x="395" y="-105" font-family="Helvetica,sans-Serif" font-size="10.00">::setPickerId</text>
</a>
</g>
</g>
<!-- Node2&#45;&gt;Node5 -->
<g id="edge4" class="edge"><title>Node2&#45;&gt;Node5</title>
<path fill="none" stroke="midnightblue" d="M297.868,-113C306.452,-113 315.346,-113 324.103,-113"/>
<polygon fill="midnightblue" stroke="midnightblue" points="324.293,-116.5 334.293,-113 324.293,-109.5 324.293,-116.5"/>
</g>
<!-- Node6 -->
<g id="node6" class="node"><title>Node6</title>
<g id="a_node6"><a xlink:href="classfwRenderVTK_1_1IAdaptor.html#abe92b6474f5e78b46749b976869cc272" target="_top" xlink:title="Sets the renderer identifier. ">
<polygon fill="white" stroke="black" points="334.5,-49 334.5,-79 455.5,-79 455.5,-49 334.5,-49"/>
<text text-anchor="start" x="342.5" y="-67" font-family="Helvetica,sans-Serif" font-size="10.00">fwRenderVTK::IAdaptor</text>
<text text-anchor="middle" x="395" y="-56" font-family="Helvetica,sans-Serif" font-size="10.00">::setRendererId</text>
</a>
</g>
</g>
<!-- Node2&#45;&gt;Node6 -->
<g id="edge5" class="edge"><title>Node2&#45;&gt;Node6</title>
<path fill="none" stroke="midnightblue" d="M286.078,-97.8986C302.018,-92.8917 319.924,-87.2676 336.5,-82.061"/>
<polygon fill="midnightblue" stroke="midnightblue" points="337.589,-85.3875 346.081,-79.0516 335.491,-78.7092 337.589,-85.3875"/>
</g>
<!-- Node7 -->
<g id="node7" class="node"><title>Node7</title>
<g id="a_node7"><a xlink:href="classfwRenderVTK_1_1IAdaptor.html#ab071873fa3b3836f5b0d16bd02160da1" target="_top" xlink:title="Sets the identifier of the transform used by this adaptor. ">
<polygon fill="white" stroke="black" points="334.5,-0 334.5,-30 455.5,-30 455.5,-0 334.5,-0"/>
<text text-anchor="start" x="342.5" y="-18" font-family="Helvetica,sans-Serif" font-size="10.00">fwRenderVTK::IAdaptor</text>
<text text-anchor="middle" x="395" y="-7" font-family="Helvetica,sans-Serif" font-size="10.00">::setTransformId</text>
</a>
</g>
</g>
<!-- Node2&#45;&gt;Node7 -->
<g id="edge6" class="edge"><title>Node2&#45;&gt;Node7</title>
<path fill="none" stroke="midnightblue" d="M254.671,-97.8256C273.058,-81.6647 304.026,-56.1062 334,-39 336.826,-37.3873 339.781,-35.832 342.801,-34.3418"/>
<polygon fill="midnightblue" stroke="midnightblue" points="344.392,-37.4619 351.986,-30.0742 341.442,-31.1137 344.392,-37.4619"/>
</g>
<!-- Node4 -->
<g id="node4" class="node"><title>Node4</title>
<g id="a_node4"><a xlink:href="classfwServices_1_1IService.html#a21ea949603d87785b9a62522d98e2d8c" target="_top" xlink:title="Return the configuration, in an xml format read using runtime library. ">
<polygon fill="white" stroke="black" points="492.5,-147 492.5,-177 599.5,-177 599.5,-147 492.5,-147"/>
<text text-anchor="start" x="500.5" y="-165" font-family="Helvetica,sans-Serif" font-size="10.00">fwServices::IService</text>
<text text-anchor="middle" x="546" y="-154" font-family="Helvetica,sans-Serif" font-size="10.00">::getConfiguration</text>
</a>
</g>
</g>
<!-- Node3&#45;&gt;Node4 -->
<g id="edge3" class="edge"><title>Node3&#45;&gt;Node4</title>
<path fill="none" stroke="midnightblue" d="M448.532,-162C459.437,-162 471.032,-162 482.261,-162"/>
<polygon fill="midnightblue" stroke="midnightblue" points="482.44,-165.5 492.44,-162 482.44,-158.5 482.44,-165.5"/>
</g>
</g>
</svg>
        <g id="navigator" transform="translate(0 0)" fill="#404254">
                <rect fill="#f2f5e9" fill-opacity="0.5" stroke="#606060" stroke-width=".5" x="0" y="0" width="60" height="60"/>
                <use id="zoomplus" xlink:href="#zoomPlus" x="17" y="9" onmousedown="handleZoom(evt,'in')"/>
                <use id="zoomminus" xlink:href="#zoomMin" x="42" y="9" onmousedown="handleZoom(evt,'out')"/>
                <use id="reset" xlink:href="#resetDef" x="30" y="36" onmousedown="handleReset()"/>
                <g id="arrowUp" xlink:href="#dirArrow" transform="translate(30 24)" onmousedown="handlePan(0,-1)">
                  <use xlink:href="#rim" fill="#404040">
                        <set attributeName="fill" to="#808080" begin="arrowUp.mouseover" end="arrowUp.mouseout"/>
                  </use>
                  <path fill="none" stroke="white" stroke-width="1.5" d="M0,-3.0v7 M-2.5,-0.5L0,-3.0L2.5,-0.5"/>
                </g>
                <g id="arrowRight" xlink:href="#dirArrow" transform="rotate(90) translate(36 -43)" onmousedown="handlePan(1,0)">
                  <use xlink:href="#rim" fill="#404040">
                        <set attributeName="fill" to="#808080" begin="arrowRight.mouseover" end="arrowRight.mouseout"/>
                  </use>
                  <path fill="none" stroke="white" stroke-width="1.5" d="M0,-3.0v7 M-2.5,-0.5L0,-3.0L2.5,-0.5"/>
                </g>
                <g id="arrowDown" xlink:href="#dirArrow" transform="rotate(180) translate(-30 -48)" onmousedown="handlePan(0,1)">
                  <use xlink:href="#rim" fill="#404040">
                        <set attributeName="fill" to="#808080" begin="arrowDown.mouseover" end="arrowDown.mouseout"/>
                  </use>
                  <path fill="none" stroke="white" stroke-width="1.5" d="M0,-3.0v7 M-2.5,-0.5L0,-3.0L2.5,-0.5"/>
                </g>
                <g id="arrowLeft" xlink:href="#dirArrow" transform="rotate(270) translate(-36 17)" onmousedown="handlePan(-1,0)">
                  <use xlink:href="#rim" fill="#404040">
                        <set attributeName="fill" to="#808080" begin="arrowLeft.mouseover" end="arrowLeft.mouseout"/>
                  </use>
                  <path fill="none" stroke="white" stroke-width="1.5" d="M0,-3.0v7 M-2.5,-0.5L0,-3.0L2.5,-0.5"/>
                </g>
        </g>
        <svg viewBox="0 0 15 15" width="100%" height="30px" preserveAspectRatio="xMaxYMin meet">
         <g id="arrow_out" transform="scale(0.3 0.3)">
          <a xlink:href="classvisuVTKAdaptor_1_1SPointList_abca9c975e9749acfdfa3c4e3f48af12c_cgraph_org.svg" target="_base">
           <rect id="button" ry="5" rx="5" y="6" x="6" height="38" width="38"
                fill="#f2f5e9" fill-opacity="0.5" stroke="#606060" stroke-width="1.0"/>
           <path id="arrow"
             d="M 11.500037,31.436501 C 11.940474,20.09759 22.043105,11.32322 32.158766,21.979434 L 37.068811,17.246167 C 37.068811,17.246167 37.088388,32 37.088388,32 L 22.160133,31.978069 C 22.160133,31.978069 26.997745,27.140456 26.997745,27.140456 C 18.528582,18.264221 13.291696,25.230495 11.500037,31.436501 z"
             style="fill:#404040;"/>
          </a>
         </g>
        </svg>
</svg>
