<?xml version="1.0" encoding="UTF-8" standalone="no"?>
<!DOCTYPE svg PUBLIC "-//W3C//DTD SVG 1.1//EN"
 "http://www.w3.org/Graphics/SVG/1.1/DTD/svg11.dtd">
<!-- Generated by graphviz version 2.26.3 (20100126.1600)
 -->
<!-- Title: fwDataTools::Mesh::shakePointNormals Pages: 1 -->
<svg width="302pt" height="42pt"
 viewBox="0.00 0.00 302.00 42.00" xmlns="http://www.w3.org/2000/svg" xmlns:xlink="http://www.w3.org/1999/xlink">
<g id="graph1" class="graph" transform="scale(1 1) rotate(0) translate(4 38)">
<title>fwDataTools::Mesh::shakePointNormals</title>
<polygon fill="white" stroke="white" points="-4,5 -4,-38 299,-38 299,5 -4,5"/>
<!-- Node1 -->
<g id="node1" class="node"><title>Node1</title>
<polygon fill="#bfbfbf" stroke="black" points="0,-0 0,-34 108,-34 108,-0 0,-0"/>
<text text-anchor="start" x="8" y="-21" font-family="Helvetica,sans-Serif" font-size="10.00">fwDataTools::Mesh::</text>
<text text-anchor="middle" x="54" y="-8" font-family="Helvetica,sans-Serif" font-size="10.00">shakePointNormals</text>
</g>
<!-- Node2 -->
<g id="node3" class="node"><title>Node2</title>
<a xlink:href="classioData_1_1action_1_1SMeshModifier.html#af89ab56597240f82d15f44f98b0d1290" target="_top" xlink:title="Process the action: modifies the mesh using the selected functor. ">
<polygon fill="white" stroke="black" points="144.5,-0 144.5,-34 293.5,-34 293.5,-0 144.5,-0"/>
<text text-anchor="start" x="152.5" y="-21" font-family="Helvetica,sans-Serif" font-size="10.00">ioData::action::SMeshModifier</text>
<text text-anchor="middle" x="219" y="-8" font-family="Helvetica,sans-Serif" font-size="10.00">::updating</text>
</a>
</g>
<!-- Node1&#45;&gt;Node2 -->
<g id="edge2" class="edge"><title>Node1&#45;&gt;Node2</title>
<path fill="none" stroke="midnightblue" d="M118.041,-17C126.704,-17 135.654,-17 144.48,-17"/>
<polygon fill="midnightblue" stroke="midnightblue" points="118.027,-13.5001 108.027,-17 118.027,-20.5001 118.027,-13.5001"/>
</g>
</g>
</svg>
