<?xml version="1.0" encoding="UTF-8" standalone="no"?>
<!DOCTYPE svg PUBLIC "-//W3C//DTD SVG 1.1//EN"
 "http://www.w3.org/Graphics/SVG/1.1/DTD/svg11.dtd">
<!-- Generated by graphviz version 2.26.3 (20100126.1600)
 -->
<!-- Title: uiVisu::BasicFloatEditor::onModifyValue Pages: 1 -->
<svg width="288pt" height="94pt"
 viewBox="0.00 0.00 288.00 94.00" xmlns="http://www.w3.org/2000/svg" xmlns:xlink="http://www.w3.org/1999/xlink">
<g id="graph1" class="graph" transform="scale(1 1) rotate(0) translate(4 90)">
<title>uiVisu::BasicFloatEditor::onModifyValue</title>
<polygon fill="white" stroke="white" points="-4,5 -4,-90 285,-90 285,5 -4,5"/>
<!-- Node1 -->
<g id="node1" class="node"><title>Node1</title>
<polygon fill="#bfbfbf" stroke="black" points="0,-26 0,-60 122,-60 122,-26 0,-26"/>
<text text-anchor="start" x="8" y="-47" font-family="Helvetica,sans-Serif" font-size="10.00">uiVisu::BasicFloatEditor</text>
<text text-anchor="middle" x="61" y="-34" font-family="Helvetica,sans-Serif" font-size="10.00">::onModifyValue</text>
</g>
<!-- Node2 -->
<g id="node3" class="node"><title>Node2</title>
<a xlink:href="classuiVisu_1_1BasicFloatEditor.html#a2f27105006349c039a124dcc5a302f1b" target="_top" xlink:title="Install the layout. ">
<polygon fill="white" stroke="black" points="158,-52 158,-86 280,-86 280,-52 158,-52"/>
<text text-anchor="start" x="166" y="-73" font-family="Helvetica,sans-Serif" font-size="10.00">uiVisu::BasicFloatEditor</text>
<text text-anchor="middle" x="219" y="-60" font-family="Helvetica,sans-Serif" font-size="10.00">::starting</text>
</a>
</g>
<!-- Node1&#45;&gt;Node2 -->
<g id="edge2" class="edge"><title>Node1&#45;&gt;Node2</title>
<path fill="none" stroke="midnightblue" d="M132.086,-54.6976C140.673,-56.1108 149.387,-57.5447 157.815,-58.9316"/>
<polygon fill="midnightblue" stroke="midnightblue" points="132.523,-51.2225 122.087,-53.0523 131.386,-58.1296 132.523,-51.2225"/>
</g>
<!-- Node3 -->
<g id="node5" class="node"><title>Node3</title>
<a xlink:href="classuiVisu_1_1BasicFloatEditor.html#a1b4348b4b2ccf2c1288fc469d15ea71f" target="_top" xlink:title="Destroy the layout. ">
<polygon fill="white" stroke="black" points="158,-0 158,-34 280,-34 280,-0 158,-0"/>
<text text-anchor="start" x="166" y="-21" font-family="Helvetica,sans-Serif" font-size="10.00">uiVisu::BasicFloatEditor</text>
<text text-anchor="middle" x="219" y="-8" font-family="Helvetica,sans-Serif" font-size="10.00">::stopping</text>
</a>
</g>
<!-- Node1&#45;&gt;Node3 -->
<g id="edge4" class="edge"><title>Node1&#45;&gt;Node3</title>
<path fill="none" stroke="midnightblue" d="M132.086,-31.3024C140.673,-29.8892 149.387,-28.4553 157.815,-27.0684"/>
<polygon fill="midnightblue" stroke="midnightblue" points="131.386,-27.8704 122.087,-32.9477 132.523,-34.7775 131.386,-27.8704"/>
</g>
</g>
</svg>
