<?xml version="1.0" encoding="UTF-8" standalone="no"?>
<!DOCTYPE svg PUBLIC "-//W3C//DTD SVG 1.1//EN"
 "http://www.w3.org/Graphics/SVG/1.1/DTD/svg11.dtd">
<!-- Generated by graphviz version 2.36.0 (20140111.2315)
 -->
<!-- Title: fwCore::fwProfileScopeAvg Pages: 1 -->
<svg width="259pt" height="292pt"
 viewBox="0.00 0.00 259.00 292.00" xmlns="http://www.w3.org/2000/svg" xmlns:xlink="http://www.w3.org/1999/xlink">
<g id="graph0" class="graph" transform="scale(1 1) rotate(0) translate(4 288)">
<title>fwCore::fwProfileScopeAvg</title>
<polygon fill="white" stroke="none" points="-4,4 -4,-288 255,-288 255,4 -4,4"/>
<!-- Node1 -->
<g id="node1" class="node"><title>Node1</title>
<polygon fill="#bfbfbf" stroke="black" points="20.5,-0.5 20.5,-19.5 157.5,-19.5 157.5,-0.5 20.5,-0.5"/>
<text text-anchor="middle" x="89" y="-7.5" font-family="Helvetica,sans-Serif" font-size="10.00">fwCore::fwProfileScopeAvg</text>
</g>
<!-- Node2 -->
<g id="node2" class="node"><title>Node2</title>
<g id="a_node2"><a xlink:href="classfwCore_1_1fwProfileFrameTimer.html" target="_top" xlink:title="This class holds a timer. It allows to compute the elapsed time between two profiling scopes...">
<polygon fill="white" stroke="black" points="106.5,-68.5 106.5,-87.5 251.5,-87.5 251.5,-68.5 106.5,-68.5"/>
<text text-anchor="middle" x="179" y="-75.5" font-family="Helvetica,sans-Serif" font-size="10.00">fwCore::fwProfileFrameTimer</text>
</a>
</g>
</g>
<!-- Node2&#45;&gt;Node1 -->
<g id="edge1" class="edge"><title>Node2&#45;&gt;Node1</title>
<path fill="none" stroke="#9a32cd" stroke-dasharray="5,2" d="M159.166,-62.4551C141.286,-49.3431 115.593,-30.5016 100.769,-19.6305"/>
<polygon fill="#9a32cd" stroke="#9a32cd" points="157.1,-65.2804 167.234,-68.3717 161.24,-59.6356 157.1,-65.2804"/>
<text text-anchor="middle" x="175.5" y="-41.5" font-family="Helvetica,sans-Serif" font-size="10.00"> m_frameTimer</text>
</g>
<!-- Node3 -->
<g id="node3" class="node"><title>Node3</title>
<g id="a_node3"><a xlink:href="classfwCore_1_1HiResTimer.html" target="_top" xlink:title="This class provide a timer (stopwatch). HiResTimer is able to measure the elapsed time with a few mic...">
<polygon fill="white" stroke="black" points="11.5,-136.5 11.5,-155.5 118.5,-155.5 118.5,-136.5 11.5,-136.5"/>
<text text-anchor="middle" x="65" y="-143.5" font-family="Helvetica,sans-Serif" font-size="10.00">fwCore::HiResTimer</text>
</a>
</g>
</g>
<!-- Node3&#45;&gt;Node1 -->
<g id="edge5" class="edge"><title>Node3&#45;&gt;Node1</title>
<path fill="none" stroke="#9a32cd" stroke-dasharray="5,2" d="M60.2632,-126.267C57.052,-110.505 54.1859,-87.4829 59,-68 63.5602,-49.5443 75.2933,-30.4643 82.6618,-19.7277"/>
<polygon fill="#9a32cd" stroke="#9a32cd" points="56.9177,-127.339 62.5576,-136.308 63.7418,-125.779 56.9177,-127.339"/>
<text text-anchor="middle" x="78.5" y="-75.5" font-family="Helvetica,sans-Serif" font-size="10.00"> m_timer</text>
</g>
<!-- Node3&#45;&gt;Node2 -->
<g id="edge2" class="edge"><title>Node3&#45;&gt;Node2</title>
<path fill="none" stroke="#9a32cd" stroke-dasharray="5,2" d="M88.5944,-131.34C111.285,-118.204 144.889,-98.7487 164.093,-87.6305"/>
<polygon fill="#9a32cd" stroke="#9a32cd" points="86.8041,-128.332 79.9035,-136.372 90.3114,-134.39 86.8041,-128.332"/>
<text text-anchor="middle" x="151.5" y="-109.5" font-family="Helvetica,sans-Serif" font-size="10.00"> m_timer</text>
</g>
<!-- Node4 -->
<g id="node4" class="node"><title>Node4</title>
<g id="a_node4"><a xlink:href="classfwCore_1_1BaseObject.html" target="_top" xlink:title="Base class for all FW4SPL&#39;s classes. ">
<polygon fill="white" stroke="black" points="12.5,-194.5 12.5,-213.5 117.5,-213.5 117.5,-194.5 12.5,-194.5"/>
<text text-anchor="middle" x="65" y="-201.5" font-family="Helvetica,sans-Serif" font-size="10.00">fwCore::BaseObject</text>
</a>
</g>
</g>
<!-- Node4&#45;&gt;Node3 -->
<g id="edge3" class="edge"><title>Node4&#45;&gt;Node3</title>
<path fill="none" stroke="midnightblue" d="M65,-183.953C65,-174.287 65,-163.031 65,-155.505"/>
<polygon fill="midnightblue" stroke="midnightblue" points="61.5001,-184.25 65,-194.25 68.5001,-184.25 61.5001,-184.25"/>
</g>
<!-- Node5 -->
<g id="node5" class="node"><title>Node5</title>
<polygon fill="white" stroke="#bfbfbf" points="-0.5,-253 -0.5,-283 130.5,-283 130.5,-253 -0.5,-253"/>
<text text-anchor="start" x="7.5" y="-271" font-family="Helvetica,sans-Serif" font-size="10.00">std::enable_shared</text>
<text text-anchor="middle" x="65" y="-260" font-family="Helvetica,sans-Serif" font-size="10.00">_from_this&lt; BaseObject &gt;</text>
</g>
<!-- Node5&#45;&gt;Node4 -->
<g id="edge4" class="edge"><title>Node5&#45;&gt;Node4</title>
<path fill="none" stroke="midnightblue" d="M65,-242.871C65,-232.663 65,-221.408 65,-213.842"/>
<polygon fill="midnightblue" stroke="midnightblue" points="61.5001,-242.931 65,-252.931 68.5001,-242.931 61.5001,-242.931"/>
</g>
</g>
</svg>
