<?xml version="1.0" encoding="UTF-8" standalone="no"?>
<!DOCTYPE svg PUBLIC "-//W3C//DTD SVG 1.1//EN"
 "http://www.w3.org/Graphics/SVG/1.1/DTD/svg11.dtd">
<!-- Generated by graphviz version 2.36.0 (20140111.2315)
 -->
<!-- Title: fwGui::layoutManager::MenuLayoutManager::destroyLayout Pages: 1 -->
<svg width="280pt" height="48pt"
 viewBox="0.00 0.00 280.00 48.00" xmlns="http://www.w3.org/2000/svg" xmlns:xlink="http://www.w3.org/1999/xlink">
<g id="graph0" class="graph" transform="scale(1 1) rotate(0) translate(4 44)">
<title>fwGui::layoutManager::MenuLayoutManager::destroyLayout</title>
<polygon fill="white" stroke="none" points="-4,4 -4,-44 276,-44 276,4 -4,4"/>
<!-- Node1 -->
<g id="node1" class="node"><title>Node1</title>
<polygon fill="#bfbfbf" stroke="black" points="0.5,0.5 0.5,-40.5 119.5,-40.5 119.5,0.5 0.5,0.5"/>
<text text-anchor="start" x="8.5" y="-28.5" font-family="Helvetica,sans-Serif" font-size="10.00">fwGui::layoutManager</text>
<text text-anchor="start" x="8.5" y="-17.5" font-family="Helvetica,sans-Serif" font-size="10.00">::MenuLayoutManager::</text>
<text text-anchor="middle" x="60" y="-6.5" font-family="Helvetica,sans-Serif" font-size="10.00">destroyLayout</text>
</g>
<!-- Node2 -->
<g id="node2" class="node"><title>Node2</title>
<g id="a_node2"><a xlink:href="classfwGui_1_1layoutManager_1_1IMenuLayoutManager.html#a75bdf9f3d93eb6fc2cac8ce228ef22f5" target="_top" xlink:title="Helper to destroy local actions. ">
<polygon fill="white" stroke="black" points="156,0.5 156,-40.5 272,-40.5 272,0.5 156,0.5"/>
<text text-anchor="start" x="164" y="-28.5" font-family="Helvetica,sans-Serif" font-size="10.00">fwGui::layoutManager</text>
<text text-anchor="start" x="164" y="-17.5" font-family="Helvetica,sans-Serif" font-size="10.00">::IMenuLayoutManager</text>
<text text-anchor="middle" x="214" y="-6.5" font-family="Helvetica,sans-Serif" font-size="10.00">::destroyActions</text>
</a>
</g>
</g>
<!-- Node1&#45;&gt;Node2 -->
<g id="edge1" class="edge"><title>Node1&#45;&gt;Node2</title>
<path fill="none" stroke="midnightblue" d="M119.767,-20C128.294,-20 137.125,-20 145.802,-20"/>
<polygon fill="midnightblue" stroke="midnightblue" points="145.889,-23.5001 155.889,-20 145.889,-16.5001 145.889,-23.5001"/>
</g>
</g>
</svg>
