<?xml version="1.0" encoding="UTF-8" standalone="no"?>
<!DOCTYPE svg PUBLIC "-//W3C//DTD SVG 1.1//EN"
 "http://www.w3.org/Graphics/SVG/1.1/DTD/svg11.dtd">
<!-- Generated by graphviz version 2.36.0 (20140111.2315)
 -->
<!-- Title: fwVtkIO::helper::Mesh::updateGridCellColor Pages: 1 -->
<svg width="264pt" height="38pt"
 viewBox="0.00 0.00 264.00 38.00" xmlns="http://www.w3.org/2000/svg" xmlns:xlink="http://www.w3.org/1999/xlink">
<g id="graph0" class="graph" transform="scale(1 1) rotate(0) translate(4 34)">
<title>fwVtkIO::helper::Mesh::updateGridCellColor</title>
<polygon fill="white" stroke="none" points="-4,4 -4,-34 260,-34 260,4 -4,4"/>
<!-- Node1 -->
<g id="node1" class="node"><title>Node1</title>
<polygon fill="#bfbfbf" stroke="black" points="0.5,-0 0.5,-30 115.5,-30 115.5,-0 0.5,-0"/>
<text text-anchor="start" x="8.5" y="-18" font-family="Helvetica,sans-Serif" font-size="10.00">fwVtkIO::helper::Mesh</text>
<text text-anchor="middle" x="58" y="-7" font-family="Helvetica,sans-Serif" font-size="10.00">::updateGridCellColor</text>
</g>
<!-- Node2 -->
<g id="node2" class="node"><title>Node2</title>
<g id="a_node2"><a xlink:href="classfwDataTools_1_1helper_1_1Array.html#a17c77d0c960d6e0cbefd90235f9761f0" target="_top" xlink:title="Returns the begining/end of the buffer interpreted as a char buffer. ">
<polygon fill="white" stroke="black" points="152,-0 152,-30 256,-30 256,-0 152,-0"/>
<text text-anchor="start" x="160" y="-18" font-family="Helvetica,sans-Serif" font-size="10.00">fwDataTools::helper</text>
<text text-anchor="middle" x="204" y="-7" font-family="Helvetica,sans-Serif" font-size="10.00">::Array::begin</text>
</a>
</g>
</g>
<!-- Node1&#45;&gt;Node2 -->
<g id="edge1" class="edge"><title>Node1&#45;&gt;Node2</title>
<path fill="none" stroke="midnightblue" d="M115.913,-15C124.296,-15 132.965,-15 141.437,-15"/>
<polygon fill="midnightblue" stroke="midnightblue" points="141.642,-18.5001 151.642,-15 141.642,-11.5001 141.642,-18.5001"/>
</g>
</g>
</svg>
