<?xml version="1.0" encoding="UTF-8" standalone="no"?>
<!DOCTYPE svg PUBLIC "-//W3C//DTD SVG 1.1//EN"
 "http://www.w3.org/Graphics/SVG/1.1/DTD/svg11.dtd">
<!-- Generated by graphviz version 2.26.3 (20100126.1600)
 -->
<!-- Title: fwActivities::IActivityValidator::checkRequirements Pages: 1 -->
<svg width="340pt" height="94pt"
 viewBox="0.00 0.00 340.00 94.00" xmlns="http://www.w3.org/2000/svg" xmlns:xlink="http://www.w3.org/1999/xlink">
<g id="graph1" class="graph" transform="scale(1 1) rotate(0) translate(4 90)">
<title>fwActivities::IActivityValidator::checkRequirements</title>
<polygon fill="white" stroke="white" points="-4,5 -4,-90 337,-90 337,5 -4,5"/>
<!-- Node1 -->
<g id="node1" class="node"><title>Node1</title>
<polygon fill="#bfbfbf" stroke="black" points="0,-26 0,-60 148,-60 148,-26 0,-26"/>
<text text-anchor="start" x="8" y="-47" font-family="Helvetica,sans-Serif" font-size="10.00">fwActivities::IActivityValidator</text>
<text text-anchor="middle" x="74" y="-34" font-family="Helvetica,sans-Serif" font-size="10.00">::checkRequirements</text>
</g>
<!-- Node2 -->
<g id="node3" class="node"><title>Node2</title>
<a xlink:href="classfwActivities_1_1IActivityValidator.html#acf96caef0f0955c7e4c3f09576703957" target="_top" xlink:title="Calls the object validator if it is defined. ">
<polygon fill="white" stroke="black" points="184,-52 184,-86 332,-86 332,-52 184,-52"/>
<text text-anchor="start" x="192" y="-73" font-family="Helvetica,sans-Serif" font-size="10.00">fwActivities::IActivityValidator</text>
<text text-anchor="middle" x="258" y="-60" font-family="Helvetica,sans-Serif" font-size="10.00">::checkObject</text>
</a>
</g>
<!-- Node1&#45;&gt;Node2 -->
<g id="edge2" class="edge"><title>Node1&#45;&gt;Node2</title>
<path fill="none" stroke="midnightblue" d="M148.044,-53.4628C156.514,-54.6596 165.195,-55.8862 173.784,-57.0999"/>
<polygon fill="midnightblue" stroke="midnightblue" points="173.416,-60.5826 183.808,-58.5163 174.396,-53.6515 173.416,-60.5826"/>
</g>
<!-- Node3 -->
<g id="node5" class="node"><title>Node3</title>
<a xlink:href="classfwActivities_1_1registry_1_1Activities.html#a96b15391d34df7160015ac8654486fad" target="_top" xlink:title="Return the default global instance of Activities. ">
<polygon fill="white" stroke="black" points="201,-0 201,-34 315,-34 315,-0 201,-0"/>
<text text-anchor="start" x="209" y="-21" font-family="Helvetica,sans-Serif" font-size="10.00">fwActivities::registry</text>
<text text-anchor="middle" x="258" y="-8" font-family="Helvetica,sans-Serif" font-size="10.00">::Activities::getDefault</text>
</a>
</g>
<!-- Node1&#45;&gt;Node3 -->
<g id="edge4" class="edge"><title>Node1&#45;&gt;Node3</title>
<path fill="none" stroke="midnightblue" d="M148.044,-32.5372C162.187,-30.5388 176.919,-28.4571 190.832,-26.4911"/>
<polygon fill="midnightblue" stroke="midnightblue" points="191.386,-29.9477 200.798,-25.0829 190.406,-23.0166 191.386,-29.9477"/>
</g>
</g>
</svg>
