<?xml version="1.0" encoding="UTF-8" standalone="no"?>
<!DOCTYPE svg PUBLIC "-//W3C//DTD SVG 1.1//EN"
 "http://www.w3.org/Graphics/SVG/1.1/DTD/svg11.dtd">
<!-- Generated by graphviz version 2.36.0 (20140111.2315)
 -->
<!-- Title: fwAtomsPatch::IStructuralPatch::apply Pages: 1 -->
<svg width="290pt" height="87pt"
 viewBox="0.00 0.00 290.00 87.00" xmlns="http://www.w3.org/2000/svg" xmlns:xlink="http://www.w3.org/1999/xlink">
<g id="graph0" class="graph" transform="scale(1 1) rotate(0) translate(4 83)">
<title>fwAtomsPatch::IStructuralPatch::apply</title>
<polygon fill="white" stroke="none" points="-4,4 -4,-83 286,-83 286,4 -4,4"/>
<!-- Node1 -->
<g id="node1" class="node"><title>Node1</title>
<polygon fill="#bfbfbf" stroke="black" points="0,-24 0,-54 132,-54 132,-24 0,-24"/>
<text text-anchor="start" x="8" y="-42" font-family="Helvetica,sans-Serif" font-size="10.00">fwAtomsPatch::IStructural</text>
<text text-anchor="middle" x="66" y="-31" font-family="Helvetica,sans-Serif" font-size="10.00">Patch::apply</text>
</g>
<!-- Node2 -->
<g id="node2" class="node"><title>Node2</title>
<g id="a_node2"><a xlink:href="namespacefwAtomsPatch_1_1helper.html#a49db7036b323f4c23effd6ca3e020996" target="_top" xlink:title="Get classname of an object. ">
<polygon fill="white" stroke="black" points="168.5,-49 168.5,-79 281.5,-79 281.5,-49 168.5,-49"/>
<text text-anchor="start" x="176.5" y="-67" font-family="Helvetica,sans-Serif" font-size="10.00">fwAtomsPatch::helper</text>
<text text-anchor="middle" x="225" y="-56" font-family="Helvetica,sans-Serif" font-size="10.00">::getClassname</text>
</a>
</g>
</g>
<!-- Node1&#45;&gt;Node2 -->
<g id="edge1" class="edge"><title>Node1&#45;&gt;Node2</title>
<path fill="none" stroke="midnightblue" d="M132.218,-49.3851C140.817,-50.7543 149.635,-52.1584 158.242,-53.529"/>
<polygon fill="midnightblue" stroke="midnightblue" points="157.799,-57.0024 168.225,-55.1186 158.899,-50.0895 157.799,-57.0024"/>
</g>
<!-- Node3 -->
<g id="node3" class="node"><title>Node3</title>
<g id="a_node3"><a xlink:href="namespacefwAtomsPatch_1_1helper.html#a87463944cf2233827a11abde6cad8635" target="_top" xlink:title="Get version of an object. ">
<polygon fill="white" stroke="black" points="168.5,-0 168.5,-30 281.5,-30 281.5,-0 168.5,-0"/>
<text text-anchor="start" x="176.5" y="-18" font-family="Helvetica,sans-Serif" font-size="10.00">fwAtomsPatch::helper</text>
<text text-anchor="middle" x="225" y="-7" font-family="Helvetica,sans-Serif" font-size="10.00">::getVersion</text>
</a>
</g>
</g>
<!-- Node1&#45;&gt;Node3 -->
<g id="edge2" class="edge"><title>Node1&#45;&gt;Node3</title>
<path fill="none" stroke="midnightblue" d="M132.218,-29.0303C140.817,-27.7159 149.635,-26.368 158.242,-25.0522"/>
<polygon fill="midnightblue" stroke="midnightblue" points="158.868,-28.4972 168.225,-23.5262 157.811,-21.5776 158.868,-28.4972"/>
</g>
</g>
</svg>
