<?xml version="1.0" encoding="UTF-8" standalone="no"?>
<!DOCTYPE svg PUBLIC "-//W3C//DTD SVG 1.1//EN"
 "http://www.w3.org/Graphics/SVG/1.1/DTD/svg11.dtd">
<!-- Generated by graphviz version 2.36.0 (20140111.2315)
 -->
<!-- Title: scene2D::adaptor::SCurvedHistogram::configuring Pages: 1 -->
<!--zoomable 131 -->
<svg id="main" version="1.1" xmlns="http://www.w3.org/2000/svg" xmlns:xlink="http://www.w3.org/1999/xlink" xml:space="preserve" onload="init(evt)">
<style type="text/css"><![CDATA[
.edge:hover path { stroke: red; }
.edge:hover polygon { stroke: red; fill: red; }
]]></style>
<script type="text/javascript"><![CDATA[
var edges = document.getElementsByTagName('g');
if (edges && edges.length) {
  for (var i=0;i<edges.length;i++) {
    if (edges[i].id.substr(0,4)=='edge') {
      edges[i].setAttribute('class','edge');
    }
  }
}
]]></script>
        <defs>
                <circle id="rim" cx="0" cy="0" r="7"/>
                <circle id="rim2" cx="0" cy="0" r="3.5"/>
                <g id="zoomPlus">
                        <use xlink:href="#rim" fill="#404040">
                                <set attributeName="fill" to="#808080" begin="zoomplus.mouseover" end="zoomplus.mouseout"/>
                        </use>
                        <path d="M-4,0h8M0,-4v8" fill="none" stroke="white" stroke-width="1.5" pointer-events="none"/>
                </g>
                <g id="zoomMin">
                        <use xlink:href="#rim" fill="#404040">
                                <set attributeName="fill" to="#808080" begin="zoomminus.mouseover" end="zoomminus.mouseout"/>
                        </use>
                        <path d="M-4,0h8" fill="none" stroke="white" stroke-width="1.5" pointer-events="none"/>
                </g>
                <g id="dirArrow">
                        <path fill="none" stroke="white" stroke-width="1.5" d="M0,-3.0v7 M-2.5,-0.5L0,-3.0L2.5,-0.5"/>
                </g>
               <g id="resetDef">
                       <use xlink:href="#rim2" fill="#404040">
                               <set attributeName="fill" to="#808080" begin="reset.mouseover" end="reset.mouseout"/>
                       </use>
               </g>
        </defs>

<script type="text/javascript">
var viewWidth = 800;
var viewHeight = 131;
var sectionId = 'dynsection-2';
</script>
<script xlink:href="svgpan.js"/>
<svg id="graph" class="graph">
<g id="viewport">
<title>scene2D::adaptor::SCurvedHistogram::configuring</title>
<polygon fill="white" stroke="none" points="-4,4 -4,-127 796,-127 796,4 -4,4"/>
<!-- Node1 -->
<g id="node1" class="node"><title>Node1</title>
<polygon fill="#bfbfbf" stroke="black" points="0,-49 0,-79 138,-79 138,-49 0,-49"/>
<text text-anchor="start" x="8" y="-67" font-family="Helvetica,sans-Serif" font-size="10.00">scene2D::adaptor::SCurved</text>
<text text-anchor="middle" x="69" y="-56" font-family="Helvetica,sans-Serif" font-size="10.00">Histogram::configuring</text>
</g>
<!-- Node2 -->
<g id="node2" class="node"><title>Node2</title>
<g id="a_node2"><a xlink:href="classfwRenderQt_1_1IAdaptor.html#abf7a27283ed8b08c6a54221c52ad4b84" target="_top" xlink:title="Parse the xml configuration for Axis, z value and opacity. ">
<polygon fill="white" stroke="black" points="180,-49 180,-79 292,-79 292,-49 180,-49"/>
<text text-anchor="start" x="188" y="-67" font-family="Helvetica,sans-Serif" font-size="10.00">fwRenderQt::IAdaptor</text>
<text text-anchor="middle" x="236" y="-56" font-family="Helvetica,sans-Serif" font-size="10.00">::configureParams</text>
</a>
</g>
</g>
<!-- Node1&#45;&gt;Node2 -->
<g id="edge1" class="edge"><title>Node1&#45;&gt;Node2</title>
<path fill="none" stroke="midnightblue" d="M138.064,-64C148.517,-64 159.289,-64 169.681,-64"/>
<polygon fill="midnightblue" stroke="midnightblue" points="169.919,-67.5001 179.919,-64 169.919,-60.5001 169.919,-67.5001"/>
</g>
<!-- Node3 -->
<g id="node3" class="node"><title>Node3</title>
<g id="a_node3"><a xlink:href="classfwServices_1_1IService.html#a25c0048bcdd35e4453d3d418db22b78f" target="_top" xlink:title="Return the configuration, in an boost property tree. ">
<polygon fill="white" stroke="black" points="336.5,-93 336.5,-123 443.5,-123 443.5,-93 336.5,-93"/>
<text text-anchor="start" x="344.5" y="-111" font-family="Helvetica,sans-Serif" font-size="10.00">fwServices::IService</text>
<text text-anchor="middle" x="390" y="-100" font-family="Helvetica,sans-Serif" font-size="10.00">::getConfigTree</text>
</a>
</g>
</g>
<!-- Node1&#45;&gt;Node3 -->
<g id="edge9" class="edge"><title>Node1&#45;&gt;Node3</title>
<path fill="none" stroke="midnightblue" d="M128.853,-79.027C143.525,-82.3729 159.273,-85.6268 174,-88 224.881,-96.1995 283.118,-101.36 326.137,-104.381"/>
<polygon fill="midnightblue" stroke="midnightblue" points="325.963,-107.877 336.178,-105.067 326.44,-100.894 325.963,-107.877"/>
</g>
<!-- Node10 -->
<g id="node10" class="node"><title>Node10</title>
<g id="a_node10"><a xlink:href="classfwRenderQt_1_1data_1_1InitQtPen.html#a74cb0245a793100b5c2492129b19646c" target="_top" xlink:title="Set a pen a color. ">
<polygon fill="white" stroke="black" points="174,-0 174,-30 298,-30 298,-0 174,-0"/>
<text text-anchor="start" x="182" y="-18" font-family="Helvetica,sans-Serif" font-size="10.00">fwRenderQt::data::InitQt</text>
<text text-anchor="middle" x="236" y="-7" font-family="Helvetica,sans-Serif" font-size="10.00">Pen::setPenColor</text>
</a>
</g>
</g>
<!-- Node1&#45;&gt;Node10 -->
<g id="edge10" class="edge"><title>Node1&#45;&gt;Node10</title>
<path fill="none" stroke="midnightblue" d="M120.852,-48.8986C137.869,-43.8449 157.004,-38.1624 174.673,-32.9152"/>
<polygon fill="midnightblue" stroke="midnightblue" points="175.726,-36.2536 184.316,-30.0516 173.733,-29.5433 175.726,-36.2536"/>
</g>
<!-- Node2&#45;&gt;Node3 -->
<g id="edge2" class="edge"><title>Node2&#45;&gt;Node3</title>
<path fill="none" stroke="midnightblue" d="M288.885,-79.0192C301.289,-82.61 314.65,-86.4776 327.444,-90.181"/>
<polygon fill="midnightblue" stroke="midnightblue" points="326.512,-93.5551 337.091,-92.9738 328.459,-86.8312 326.512,-93.5551"/>
</g>
<!-- Node5 -->
<g id="node5" class="node"><title>Node5</title>
<g id="a_node5"><a xlink:href="classfwRenderQt_1_1IAdaptor.html#a19c26b1617582f56cb477d6c26bdb2b9" target="_top" xlink:title="Get the render that manages the IAdaptor. ">
<polygon fill="white" stroke="black" points="334,-44 334,-74 446,-74 446,-44 334,-44"/>
<text text-anchor="start" x="342" y="-62" font-family="Helvetica,sans-Serif" font-size="10.00">fwRenderQt::IAdaptor</text>
<text text-anchor="middle" x="390" y="-51" font-family="Helvetica,sans-Serif" font-size="10.00">::getScene2DRender</text>
</a>
</g>
</g>
<!-- Node2&#45;&gt;Node5 -->
<g id="edge4" class="edge"><title>Node2&#45;&gt;Node5</title>
<path fill="none" stroke="midnightblue" d="M292.305,-62.1807C302.598,-61.8422 313.438,-61.4856 323.99,-61.1385"/>
<polygon fill="midnightblue" stroke="midnightblue" points="324.111,-64.6365 333.99,-60.8095 323.881,-57.6403 324.111,-64.6365"/>
</g>
<!-- Node4 -->
<g id="node4" class="node"><title>Node4</title>
<g id="a_node4"><a xlink:href="classfwServices_1_1IService.html#a21ea949603d87785b9a62522d98e2d8c" target="_top" xlink:title="Return the configuration, in an xml format read using runtime library. ">
<polygon fill="white" stroke="black" points="491.5,-93 491.5,-123 598.5,-123 598.5,-93 491.5,-93"/>
<text text-anchor="start" x="499.5" y="-111" font-family="Helvetica,sans-Serif" font-size="10.00">fwServices::IService</text>
<text text-anchor="middle" x="545" y="-100" font-family="Helvetica,sans-Serif" font-size="10.00">::getConfiguration</text>
</a>
</g>
</g>
<!-- Node3&#45;&gt;Node4 -->
<g id="edge3" class="edge"><title>Node3&#45;&gt;Node4</title>
<path fill="none" stroke="midnightblue" d="M443.654,-108C455.675,-108 468.568,-108 480.973,-108"/>
<polygon fill="midnightblue" stroke="midnightblue" points="481.249,-111.5 491.249,-108 481.249,-104.5 481.249,-111.5"/>
</g>
<!-- Node6 -->
<g id="node6" class="node"><title>Node6</title>
<g id="a_node6"><a xlink:href="classfwTools_1_1fwID.html#a387264565a48b0231a7eefb7b01512a1" target="_top" xlink:title="Returns the id of the object. If it is not set and the policy value is. ">
<polygon fill="white" stroke="black" points="491,-52.5 491,-71.5 599,-71.5 599,-52.5 491,-52.5"/>
<text text-anchor="middle" x="545" y="-59.5" font-family="Helvetica,sans-Serif" font-size="10.00">fwTools::fwID::getID</text>
</a>
</g>
</g>
<!-- Node5&#45;&gt;Node6 -->
<g id="edge5" class="edge"><title>Node5&#45;&gt;Node6</title>
<path fill="none" stroke="midnightblue" d="M446.237,-60.0831C457.377,-60.3015 469.172,-60.5328 480.567,-60.7562"/>
<polygon fill="midnightblue" stroke="midnightblue" points="480.824,-64.2618 490.891,-60.9586 480.961,-57.2632 480.824,-64.2618"/>
</g>
<!-- Node9 -->
<g id="node9" class="node"><title>Node9</title>
<g id="a_node9"><a xlink:href="classfwTools_1_1fwID.html#a49c219235064892bb906498913fe8175" target="_top" xlink:title="Retrieve the object attached to the given id. Return a null sptr if no correspondence exist...">
<polygon fill="white" stroke="black" points="482,-14.5 482,-33.5 608,-33.5 608,-14.5 482,-14.5"/>
<text text-anchor="middle" x="545" y="-21.5" font-family="Helvetica,sans-Serif" font-size="10.00">fwTools::fwID::getObject</text>
</a>
</g>
</g>
<!-- Node5&#45;&gt;Node9 -->
<g id="edge8" class="edge"><title>Node5&#45;&gt;Node9</title>
<path fill="none" stroke="midnightblue" d="M446.237,-46.3642C461.259,-42.9278 477.469,-39.2195 492.288,-35.8296"/>
<polygon fill="midnightblue" stroke="midnightblue" points="493.325,-39.1827 502.293,-33.5408 491.764,-32.359 493.325,-39.1827"/>
</g>
<!-- Node7 -->
<g id="node7" class="node"><title>Node7</title>
<g id="a_node7"><a xlink:href="classfwTools_1_1fwID.html#a4ac18bb9c046c3fd04a4c8a80add7ae6" target="_top" xlink:title="fwTools::fwID::exist">
<polygon fill="white" stroke="black" points="665.5,-71.5 665.5,-90.5 770.5,-90.5 770.5,-71.5 665.5,-71.5"/>
<text text-anchor="middle" x="718" y="-78.5" font-family="Helvetica,sans-Serif" font-size="10.00">fwTools::fwID::exist</text>
</a>
</g>
</g>
<!-- Node6&#45;&gt;Node7 -->
<g id="edge6" class="edge"><title>Node6&#45;&gt;Node7</title>
<path fill="none" stroke="midnightblue" d="M599.168,-67.9076C616.954,-69.8837 636.928,-72.1031 655.307,-74.1453"/>
<polygon fill="midnightblue" stroke="midnightblue" points="655.005,-77.6331 665.33,-75.2589 655.778,-70.6759 655.005,-77.6331"/>
</g>
<!-- Node8 -->
<g id="node8" class="node"><title>Node8</title>
<g id="a_node8"><a xlink:href="classfwTools_1_1fwID.html#a03d6d0e2227b51a0630e145911445213" target="_top" xlink:title="return full object&#39;s classname with its namespace, i.e. fwCore::BaseObject ">
<polygon fill="white" stroke="black" points="644.5,-33.5 644.5,-52.5 791.5,-52.5 791.5,-33.5 644.5,-33.5"/>
<text text-anchor="middle" x="718" y="-40.5" font-family="Helvetica,sans-Serif" font-size="10.00">fwTools::fwID::getClassname</text>
</a>
</g>
</g>
<!-- Node6&#45;&gt;Node8 -->
<g id="edge7" class="edge"><title>Node6&#45;&gt;Node8</title>
<path fill="none" stroke="midnightblue" d="M599.168,-56.0924C610.351,-54.8499 622.399,-53.5112 634.372,-52.1808"/>
<polygon fill="midnightblue" stroke="midnightblue" points="634.839,-55.6506 644.392,-51.0676 634.066,-48.6934 634.839,-55.6506"/>
</g>
</g>
</svg>
        <g id="navigator" transform="translate(0 0)" fill="#404254">
                <rect fill="#f2f5e9" fill-opacity="0.5" stroke="#606060" stroke-width=".5" x="0" y="0" width="60" height="60"/>
                <use id="zoomplus" xlink:href="#zoomPlus" x="17" y="9" onmousedown="handleZoom(evt,'in')"/>
                <use id="zoomminus" xlink:href="#zoomMin" x="42" y="9" onmousedown="handleZoom(evt,'out')"/>
                <use id="reset" xlink:href="#resetDef" x="30" y="36" onmousedown="handleReset()"/>
                <g id="arrowUp" xlink:href="#dirArrow" transform="translate(30 24)" onmousedown="handlePan(0,-1)">
                  <use xlink:href="#rim" fill="#404040">
                        <set attributeName="fill" to="#808080" begin="arrowUp.mouseover" end="arrowUp.mouseout"/>
                  </use>
                  <path fill="none" stroke="white" stroke-width="1.5" d="M0,-3.0v7 M-2.5,-0.5L0,-3.0L2.5,-0.5"/>
                </g>
                <g id="arrowRight" xlink:href="#dirArrow" transform="rotate(90) translate(36 -43)" onmousedown="handlePan(1,0)">
                  <use xlink:href="#rim" fill="#404040">
                        <set attributeName="fill" to="#808080" begin="arrowRight.mouseover" end="arrowRight.mouseout"/>
                  </use>
                  <path fill="none" stroke="white" stroke-width="1.5" d="M0,-3.0v7 M-2.5,-0.5L0,-3.0L2.5,-0.5"/>
                </g>
                <g id="arrowDown" xlink:href="#dirArrow" transform="rotate(180) translate(-30 -48)" onmousedown="handlePan(0,1)">
                  <use xlink:href="#rim" fill="#404040">
                        <set attributeName="fill" to="#808080" begin="arrowDown.mouseover" end="arrowDown.mouseout"/>
                  </use>
                  <path fill="none" stroke="white" stroke-width="1.5" d="M0,-3.0v7 M-2.5,-0.5L0,-3.0L2.5,-0.5"/>
                </g>
                <g id="arrowLeft" xlink:href="#dirArrow" transform="rotate(270) translate(-36 17)" onmousedown="handlePan(-1,0)">
                  <use xlink:href="#rim" fill="#404040">
                        <set attributeName="fill" to="#808080" begin="arrowLeft.mouseover" end="arrowLeft.mouseout"/>
                  </use>
                  <path fill="none" stroke="white" stroke-width="1.5" d="M0,-3.0v7 M-2.5,-0.5L0,-3.0L2.5,-0.5"/>
                </g>
        </g>
        <svg viewBox="0 0 15 15" width="100%" height="30px" preserveAspectRatio="xMaxYMin meet">
         <g id="arrow_out" transform="scale(0.3 0.3)">
          <a xlink:href="classscene2D_1_1adaptor_1_1SCurvedHistogram_adc759d4bd9f49f9ccee4363b760737bc_cgraph_org.svg" target="_base">
           <rect id="button" ry="5" rx="5" y="6" x="6" height="38" width="38"
                fill="#f2f5e9" fill-opacity="0.5" stroke="#606060" stroke-width="1.0"/>
           <path id="arrow"
             d="M 11.500037,31.436501 C 11.940474,20.09759 22.043105,11.32322 32.158766,21.979434 L 37.068811,17.246167 C 37.068811,17.246167 37.088388,32 37.088388,32 L 22.160133,31.978069 C 22.160133,31.978069 26.997745,27.140456 26.997745,27.140456 C 18.528582,18.264221 13.291696,25.230495 11.500037,31.436501 z"
             style="fill:#404040;"/>
          </a>
         </g>
        </svg>
</svg>
