<?xml version="1.0" encoding="UTF-8" standalone="no"?>
<!DOCTYPE svg PUBLIC "-//W3C//DTD SVG 1.1//EN"
 "http://www.w3.org/Graphics/SVG/1.1/DTD/svg11.dtd">
<!-- Generated by graphviz version 2.36.0 (20140111.2315)
 -->
<!-- Title: Tuto14MeshGenerator::SMeshModifier::starting Pages: 1 -->
<svg width="280pt" height="87pt"
 viewBox="0.00 0.00 280.00 87.00" xmlns="http://www.w3.org/2000/svg" xmlns:xlink="http://www.w3.org/1999/xlink">
<g id="graph0" class="graph" transform="scale(1 1) rotate(0) translate(4 83)">
<title>Tuto14MeshGenerator::SMeshModifier::starting</title>
<polygon fill="white" stroke="none" points="-4,4 -4,-83 276,-83 276,4 -4,4"/>
<!-- Node1 -->
<g id="node1" class="node"><title>Node1</title>
<polygon fill="#bfbfbf" stroke="black" points="0,-24 0,-54 126,-54 126,-24 0,-24"/>
<text text-anchor="start" x="8" y="-42" font-family="Helvetica,sans-Serif" font-size="10.00">Tuto14MeshGenerator</text>
<text text-anchor="middle" x="63" y="-31" font-family="Helvetica,sans-Serif" font-size="10.00">::SMeshModifier::starting</text>
</g>
<!-- Node2 -->
<g id="node2" class="node"><title>Node2</title>
<g id="a_node2"><a xlink:href="classfwGui_1_1IActionSrv.html#a20b100e05fdb519b1619466924a2ee48" target="_top" xlink:title="Method called when the action service is starting. ">
<polygon fill="white" stroke="black" points="162,-49 162,-79 272,-79 272,-49 162,-49"/>
<text text-anchor="start" x="170" y="-67" font-family="Helvetica,sans-Serif" font-size="10.00">fwGui::IActionSrv::</text>
<text text-anchor="middle" x="217" y="-56" font-family="Helvetica,sans-Serif" font-size="10.00">actionServiceStarting</text>
</a>
</g>
</g>
<!-- Node1&#45;&gt;Node2 -->
<g id="edge1" class="edge"><title>Node1&#45;&gt;Node2</title>
<path fill="none" stroke="midnightblue" d="M126.263,-49.2406C134.748,-50.6362 143.47,-52.0708 151.986,-53.4714"/>
<polygon fill="midnightblue" stroke="midnightblue" points="151.427,-56.9263 161.862,-55.0957 152.563,-50.0191 151.427,-56.9263"/>
</g>
<!-- Node3 -->
<g id="node3" class="node"><title>Node3</title>
<g id="a_node3"><a xlink:href="classfwDataTools_1_1Mesh.html#af6a1f0acae5567b1a3997092f28d6273" target="_top" xlink:title="Initialize &#39;rand&#39; seed. ">
<polygon fill="white" stroke="black" points="163,-0 163,-30 271,-30 271,-0 163,-0"/>
<text text-anchor="start" x="171" y="-18" font-family="Helvetica,sans-Serif" font-size="10.00">fwDataTools::Mesh::</text>
<text text-anchor="middle" x="217" y="-7" font-family="Helvetica,sans-Serif" font-size="10.00">initRand</text>
</a>
</g>
</g>
<!-- Node1&#45;&gt;Node3 -->
<g id="edge2" class="edge"><title>Node1&#45;&gt;Node3</title>
<path fill="none" stroke="midnightblue" d="M126.263,-29.169C134.984,-27.792 143.955,-26.3755 152.695,-24.9955"/>
<polygon fill="midnightblue" stroke="midnightblue" points="153.489,-28.4135 162.821,-23.3967 152.398,-21.4992 153.489,-28.4135"/>
</g>
</g>
</svg>
