<?xml version="1.0" encoding="UTF-8" standalone="no"?>
<!DOCTYPE svg PUBLIC "-//W3C//DTD SVG 1.1//EN"
 "http://www.w3.org/Graphics/SVG/1.1/DTD/svg11.dtd">
<!-- Generated by graphviz version 2.26.3 (20100126.1600)
 -->
<!-- Title: fwGdcmIO::helper::DicomSeriesDBWriter Pages: 1 -->
<svg width="1126pt" height="201pt"
 viewBox="0.00 0.00 1126.00 201.00" xmlns="http://www.w3.org/2000/svg" xmlns:xlink="http://www.w3.org/1999/xlink">
<g id="graph1" class="graph" transform="scale(1 1) rotate(0) translate(4 197)">
<title>fwGdcmIO::helper::DicomSeriesDBWriter</title>
<polygon fill="white" stroke="white" points="-4,5 -4,-197 1123,-197 1123,5 -4,5"/>
<!-- Node1 -->
<g id="node1" class="node"><title>Node1</title>
<polygon fill="#bfbfbf" stroke="black" points="960,-73 960,-107 1118,-107 1118,-73 960,-73"/>
<text text-anchor="start" x="968" y="-94" font-family="Helvetica,sans-Serif" font-size="10.00">fwGdcmIO::helper::DicomSeries</text>
<text text-anchor="middle" x="1039" y="-81" font-family="Helvetica,sans-Serif" font-size="10.00">DBWriter</text>
</g>
<!-- Node2 -->
<g id="node2" class="node"><title>Node2</title>
<a xlink:href="classfwDataIO_1_1writer_1_1GenericObjectWriter.html" target="_top" xlink:title="fwDataIO::writer::Generic\lObjectWriter\&lt; ::fwMedData\l::SeriesDB \&gt;">
<polygon fill="white" stroke="black" points="784.5,-132.5 784.5,-179.5 921.5,-179.5 921.5,-132.5 784.5,-132.5"/>
<text text-anchor="start" x="792.5" y="-166.5" font-family="Helvetica,sans-Serif" font-size="10.00">fwDataIO::writer::Generic</text>
<text text-anchor="start" x="792.5" y="-153.5" font-family="Helvetica,sans-Serif" font-size="10.00">ObjectWriter&lt; ::fwMedData</text>
<text text-anchor="middle" x="853" y="-140.5" font-family="Helvetica,sans-Serif" font-size="10.00">::SeriesDB &gt;</text>
</a>
</g>
<!-- Node2&#45;&gt;Node1 -->
<g id="edge2" class="edge"><title>Node2&#45;&gt;Node1</title>
<path fill="none" stroke="midnightblue" d="M928.916,-129.062C949.927,-121.606 972.144,-113.723 991.074,-107.006"/>
<polygon fill="midnightblue" stroke="midnightblue" points="927.616,-125.809 919.363,-132.452 929.957,-132.406 927.616,-125.809"/>
</g>
<!-- Node3 -->
<g id="node4" class="node"><title>Node3</title>
<a xlink:href="classfwDataIO_1_1writer_1_1IObjectWriter.html" target="_top" xlink:title="Base class for all object writers. ">
<polygon fill="white" stroke="black" points="314,-159 314,-193 440,-193 440,-159 314,-159"/>
<text text-anchor="start" x="322" y="-180" font-family="Helvetica,sans-Serif" font-size="10.00">fwDataIO::writer::IObject</text>
<text text-anchor="middle" x="377" y="-167" font-family="Helvetica,sans-Serif" font-size="10.00">Writer</text>
</a>
</g>
<!-- Node3&#45;&gt;Node2 -->
<g id="edge4" class="edge"><title>Node3&#45;&gt;Node2</title>
<path fill="none" stroke="midnightblue" d="M450.424,-178.429C528.784,-180.19 656.468,-180.672 766,-170 771.938,-169.421 778.086,-168.694 784.243,-167.877"/>
<polygon fill="midnightblue" stroke="midnightblue" points="450.254,-174.924 440.174,-178.185 450.088,-181.922 450.254,-174.924"/>
</g>
<!-- Node6 -->
<g id="node10" class="node"><title>Node6</title>
<a xlink:href="classfwDataIO_1_1writer_1_1GenericObjectWriter.html" target="_top" xlink:title="generic class for all object writers. ">
<polygon fill="white" stroke="black" points="478.5,-132 478.5,-166 621.5,-166 621.5,-132 478.5,-132"/>
<text text-anchor="start" x="486.5" y="-153" font-family="Helvetica,sans-Serif" font-size="10.00">fwDataIO::writer::Generic</text>
<text text-anchor="middle" x="550" y="-140" font-family="Helvetica,sans-Serif" font-size="10.00">ObjectWriter&lt; DATATYPE &gt;</text>
</a>
</g>
<!-- Node3&#45;&gt;Node6 -->
<g id="edge12" class="edge"><title>Node3&#45;&gt;Node6</title>
<path fill="none" stroke="midnightblue" d="M450.395,-164.545C459.666,-163.098 469.143,-161.619 478.385,-160.177"/>
<polygon fill="midnightblue" stroke="midnightblue" points="449.777,-161.099 440.436,-166.1 450.857,-168.016 449.777,-161.099"/>
</g>
<!-- Node4 -->
<g id="node6" class="node"><title>Node4</title>
<a xlink:href="classfwCore_1_1BaseObject.html" target="_top" xlink:title="Base class for all FW4SPL&#39;s classes. ">
<polygon fill="white" stroke="black" points="170.5,-165.5 170.5,-186.5 275.5,-186.5 275.5,-165.5 170.5,-165.5"/>
<text text-anchor="middle" x="223" y="-173.5" font-family="Helvetica,sans-Serif" font-size="10.00">fwCore::BaseObject</text>
</a>
</g>
<!-- Node4&#45;&gt;Node3 -->
<g id="edge6" class="edge"><title>Node4&#45;&gt;Node3</title>
<path fill="none" stroke="midnightblue" d="M285.824,-176C295.04,-176 304.536,-176 313.761,-176"/>
<polygon fill="midnightblue" stroke="midnightblue" points="285.567,-172.5 275.567,-176 285.567,-179.5 285.567,-172.5"/>
</g>
<!-- Node5 -->
<g id="node8" class="node"><title>Node5</title>
<polygon fill="white" stroke="#bfbfbf" points="0.5,-159 0.5,-193 131.5,-193 131.5,-159 0.5,-159"/>
<text text-anchor="start" x="8.5" y="-180" font-family="Helvetica,sans-Serif" font-size="10.00">std::enable_shared</text>
<text text-anchor="middle" x="66" y="-167" font-family="Helvetica,sans-Serif" font-size="10.00">_from_this&lt; BaseObject &gt;</text>
</g>
<!-- Node5&#45;&gt;Node4 -->
<g id="edge8" class="edge"><title>Node5&#45;&gt;Node4</title>
<path fill="none" stroke="midnightblue" d="M141.751,-176C151.466,-176 161.238,-176 170.469,-176"/>
<polygon fill="midnightblue" stroke="midnightblue" points="141.672,-172.5 131.672,-176 141.672,-179.5 141.672,-172.5"/>
</g>
<!-- Node6&#45;&gt;Node2 -->
<g id="edge10" class="edge"><title>Node6&#45;&gt;Node2</title>
<path fill="none" stroke="orange" stroke-dasharray="5,2" d="M632.101,-150.897C679.77,-151.998 739.133,-153.369 784.313,-154.413"/>
<polygon fill="orange" stroke="orange" points="631.885,-147.391 621.807,-150.659 631.723,-154.389 631.885,-147.391"/>
<text text-anchor="middle" x="703" y="-157" font-family="Helvetica,sans-Serif" font-size="10.00"> &lt; ::fwMedData::SeriesDB &gt;</text>
</g>
<!-- Node7 -->
<g id="node13" class="node"><title>Node7</title>
<a xlink:href="structfwData_1_1location_1_1enableFolder.html" target="_top" xlink:title="fwData::location::enable\lFolder\&lt; ::fwDataIO::writer\l::IObjectWriter \&gt;">
<polygon fill="white" stroke="black" points="787.5,-66.5 787.5,-113.5 918.5,-113.5 918.5,-66.5 787.5,-66.5"/>
<text text-anchor="start" x="795.5" y="-100.5" font-family="Helvetica,sans-Serif" font-size="10.00">fwData::location::enable</text>
<text text-anchor="start" x="795.5" y="-87.5" font-family="Helvetica,sans-Serif" font-size="10.00">Folder&lt; ::fwDataIO::writer</text>
<text text-anchor="middle" x="853" y="-74.5" font-family="Helvetica,sans-Serif" font-size="10.00">::IObjectWriter &gt;</text>
</a>
</g>
<!-- Node7&#45;&gt;Node1 -->
<g id="edge14" class="edge"><title>Node7&#45;&gt;Node1</title>
<path fill="none" stroke="midnightblue" d="M928.754,-90C939.048,-90 949.635,-90 959.984,-90"/>
<polygon fill="midnightblue" stroke="midnightblue" points="928.577,-86.5001 918.577,-90 928.577,-93.5001 928.577,-86.5001"/>
</g>
<!-- Node8 -->
<g id="node15" class="node"><title>Node8</title>
<a xlink:href="structfwData_1_1location_1_1enableFolder.html" target="_top" xlink:title="This class is derived by reader/writer. ">
<polygon fill="white" stroke="black" points="489,-73 489,-107 611,-107 611,-73 489,-73"/>
<text text-anchor="start" x="497" y="-94" font-family="Helvetica,sans-Serif" font-size="10.00">fwData::location::enable</text>
<text text-anchor="middle" x="550" y="-81" font-family="Helvetica,sans-Serif" font-size="10.00">Folder&lt; RW &gt;</text>
</a>
</g>
<!-- Node8&#45;&gt;Node7 -->
<g id="edge16" class="edge"><title>Node8&#45;&gt;Node7</title>
<path fill="none" stroke="orange" stroke-dasharray="5,2" d="M621.454,-90C671.693,-90 738.406,-90 787.315,-90"/>
<polygon fill="orange" stroke="orange" points="621.317,-86.5001 611.317,-90 621.317,-93.5001 621.317,-86.5001"/>
<text text-anchor="start" x="657.5" y="-107" font-family="Helvetica,sans-Serif" font-size="10.00"> &lt; ::fwDataIO::writer</text>
<text text-anchor="middle" x="703" y="-94" font-family="Helvetica,sans-Serif" font-size="10.00">::IObjectWriter &gt;</text>
</g>
<!-- Node9 -->
<g id="node17" class="node"><title>Node9</title>
<a xlink:href="structfwData_1_1location_1_1enableSingleFile.html" target="_top" xlink:title="fwData::location::enable\lSingleFile\&lt; ::fwDataIO\l::writer::IObjectWriter \&gt;">
<polygon fill="white" stroke="black" points="792,-0.5 792,-47.5 914,-47.5 914,-0.5 792,-0.5"/>
<text text-anchor="start" x="800" y="-34.5" font-family="Helvetica,sans-Serif" font-size="10.00">fwData::location::enable</text>
<text text-anchor="start" x="800" y="-21.5" font-family="Helvetica,sans-Serif" font-size="10.00">SingleFile&lt; ::fwDataIO</text>
<text text-anchor="middle" x="853" y="-8.5" font-family="Helvetica,sans-Serif" font-size="10.00">::writer::IObjectWriter &gt;</text>
</a>
</g>
<!-- Node9&#45;&gt;Node1 -->
<g id="edge18" class="edge"><title>Node9&#45;&gt;Node1</title>
<path fill="none" stroke="midnightblue" d="M923.678,-49.0794C946.19,-57.0673 970.555,-65.7131 991.064,-72.9906"/>
<polygon fill="midnightblue" stroke="midnightblue" points="924.756,-45.7479 914.161,-45.7023 922.415,-52.3449 924.756,-45.7479"/>
</g>
<!-- Node10 -->
<g id="node19" class="node"><title>Node10</title>
<a xlink:href="structfwData_1_1location_1_1enableSingleFile.html" target="_top" xlink:title="This class is derived by reader/writer. ">
<polygon fill="white" stroke="black" points="489,-7 489,-41 611,-41 611,-7 489,-7"/>
<text text-anchor="start" x="497" y="-28" font-family="Helvetica,sans-Serif" font-size="10.00">fwData::location::enable</text>
<text text-anchor="middle" x="550" y="-15" font-family="Helvetica,sans-Serif" font-size="10.00">SingleFile&lt; RW &gt;</text>
</a>
</g>
<!-- Node10&#45;&gt;Node9 -->
<g id="edge20" class="edge"><title>Node10&#45;&gt;Node9</title>
<path fill="none" stroke="orange" stroke-dasharray="5,2" d="M621.429,-24C673.215,-24 742.516,-24 791.775,-24"/>
<polygon fill="orange" stroke="orange" points="621.317,-20.5001 611.317,-24 621.317,-27.5001 621.317,-20.5001"/>
<text text-anchor="start" x="657.5" y="-41" font-family="Helvetica,sans-Serif" font-size="10.00"> &lt; ::fwDataIO::writer</text>
<text text-anchor="middle" x="703" y="-28" font-family="Helvetica,sans-Serif" font-size="10.00">::IObjectWriter &gt;</text>
</g>
</g>
</svg>
