<?xml version="1.0" encoding="UTF-8" standalone="no"?>
<!DOCTYPE svg PUBLIC "-//W3C//DTD SVG 1.1//EN"
 "http://www.w3.org/Graphics/SVG/1.1/DTD/svg11.dtd">
<!-- Generated by graphviz version 2.26.3 (20100126.1600)
 -->
<!-- Title: fwServices::IController Pages: 1 -->
<svg width="910pt" height="530pt"
 viewBox="0.00 0.00 910.00 530.00" xmlns="http://www.w3.org/2000/svg" xmlns:xlink="http://www.w3.org/1999/xlink">
<g id="graph1" class="graph" transform="scale(1 1) rotate(0) translate(4 526)">
<title>fwServices::IController</title>
<polygon fill="white" stroke="white" points="-4,5 -4,-526 907,-526 907,5 -4,5"/>
<!-- Node1 -->
<g id="node1" class="node"><title>Node1</title>
<polygon fill="#bfbfbf" stroke="black" points="594,-277.5 594,-298.5 710,-298.5 710,-277.5 594,-277.5"/>
<text text-anchor="middle" x="652" y="-285.5" font-family="Helvetica,sans-Serif" font-size="10.00">fwServices::IController</text>
</g>
<!-- Node9 -->
<g id="node17" class="node"><title>Node9</title>
<a xlink:href="classctrlMemory_1_1LockDumpSrv.html" target="_top" xlink:title="This services dump lock object. Unlock it on stopping. ">
<polygon fill="white" stroke="black" points="757,-500.5 757,-521.5 891,-521.5 891,-500.5 757,-500.5"/>
<text text-anchor="middle" x="824" y="-508.5" font-family="Helvetica,sans-Serif" font-size="10.00">ctrlMemory::LockDumpSrv</text>
</a>
</g>
<!-- Node1&#45;&gt;Node9 -->
<g id="edge16" class="edge"><title>Node1&#45;&gt;Node9</title>
<path fill="none" stroke="midnightblue" d="M655.538,-308.762C663.69,-350.024 687.754,-442.527 746,-491 750.621,-494.845 755.89,-497.963 761.459,-500.489"/>
<polygon fill="midnightblue" stroke="midnightblue" points="658.951,-307.971 653.683,-298.779 652.069,-309.25 658.951,-307.971"/>
</g>
<!-- Node10 -->
<g id="node19" class="node"><title>Node10</title>
<a xlink:href="classctrlSelection_1_1BookmarkSrv.html" target="_top" xlink:title="This service bookmark its object with the name given in configuration. ">
<polygon fill="white" stroke="black" points="756,-460.5 756,-481.5 892,-481.5 892,-460.5 756,-460.5"/>
<text text-anchor="middle" x="824" y="-468.5" font-family="Helvetica,sans-Serif" font-size="10.00">ctrlSelection::BookmarkSrv</text>
</a>
</g>
<!-- Node1&#45;&gt;Node10 -->
<g id="edge18" class="edge"><title>Node1&#45;&gt;Node10</title>
<path fill="none" stroke="midnightblue" d="M658.076,-308.706C669.411,-343.599 697.166,-413.927 746,-451 751.011,-454.804 756.67,-457.888 762.595,-460.389"/>
<polygon fill="midnightblue" stroke="midnightblue" points="661.279,-307.219 654.967,-298.709 654.595,-309.298 661.279,-307.219"/>
</g>
<!-- Node11 -->
<g id="node21" class="node"><title>Node11</title>
<a xlink:href="classctrlSelection_1_1ImageUpdateAxis.html" target="_top" xlink:title="This service updates a fwData::Float given in configuration with the image axis. ">
<polygon fill="white" stroke="black" points="746.5,-420.5 746.5,-441.5 901.5,-441.5 901.5,-420.5 746.5,-420.5"/>
<text text-anchor="middle" x="824" y="-428.5" font-family="Helvetica,sans-Serif" font-size="10.00">ctrlSelection::ImageUpdateAxis</text>
</a>
</g>
<!-- Node1&#45;&gt;Node11 -->
<g id="edge20" class="edge"><title>Node1&#45;&gt;Node11</title>
<path fill="none" stroke="midnightblue" d="M661.72,-307.887C676.202,-335.377 706.078,-384.579 746,-411 751.829,-414.858 758.356,-417.971 765.087,-420.484"/>
<polygon fill="midnightblue" stroke="midnightblue" points="664.757,-306.137 657.091,-298.824 658.523,-309.321 664.757,-306.137"/>
</g>
<!-- Node12 -->
<g id="node23" class="node"><title>Node12</title>
<a xlink:href="classctrlSelection_1_1MedicalImageSrv.html" target="_top" xlink:title="This service convert its attached image to a medical image by adding specific fields. ">
<polygon fill="white" stroke="black" points="748,-380.5 748,-401.5 900,-401.5 900,-380.5 748,-380.5"/>
<text text-anchor="middle" x="824" y="-388.5" font-family="Helvetica,sans-Serif" font-size="10.00">ctrlSelection::MedicalImageSrv</text>
</a>
</g>
<!-- Node1&#45;&gt;Node12 -->
<g id="edge22" class="edge"><title>Node1&#45;&gt;Node12</title>
<path fill="none" stroke="midnightblue" d="M667.822,-306.363C685.146,-325.319 714.662,-354.399 746,-371 753.165,-374.796 761.087,-377.898 769.055,-380.426"/>
<polygon fill="midnightblue" stroke="midnightblue" points="670.237,-303.812 660.965,-298.685 665.016,-308.475 670.237,-303.812"/>
</g>
<!-- Node13 -->
<g id="node25" class="node"><title>Node13</title>
<a xlink:href="classfwServices_1_1SConfigController.html" target="_top" xlink:title="To manage configuration file defines in xml extension. ">
<polygon fill="white" stroke="black" points="749.5,-340.5 749.5,-361.5 898.5,-361.5 898.5,-340.5 749.5,-340.5"/>
<text text-anchor="middle" x="824" y="-348.5" font-family="Helvetica,sans-Serif" font-size="10.00">fwServices::SConfigController</text>
</a>
</g>
<!-- Node1&#45;&gt;Node13 -->
<g id="edge24" class="edge"><title>Node1&#45;&gt;Node13</title>
<path fill="none" stroke="midnightblue" d="M681.437,-303.108C699.69,-312.06 723.813,-323.151 746,-331 756.016,-334.543 766.96,-337.746 777.398,-340.497"/>
<polygon fill="midnightblue" stroke="midnightblue" points="682.981,-299.967 672.468,-298.65 679.865,-306.235 682.981,-299.967"/>
</g>
<!-- Node14 -->
<g id="node27" class="node"><title>Node14</title>
<a xlink:href="classmemory_1_1SDumpPolicy.html" target="_top" xlink:title="memory::SDumpPolicy">
<polygon fill="white" stroke="black" points="765,-300.5 765,-321.5 883,-321.5 883,-300.5 765,-300.5"/>
<text text-anchor="middle" x="824" y="-308.5" font-family="Helvetica,sans-Serif" font-size="10.00">memory::SDumpPolicy</text>
</a>
</g>
<!-- Node1&#45;&gt;Node14 -->
<g id="edge26" class="edge"><title>Node1&#45;&gt;Node14</title>
<path fill="none" stroke="midnightblue" d="M720.315,-297.135C735.081,-299.11 750.575,-301.181 764.95,-303.104"/>
<polygon fill="midnightblue" stroke="midnightblue" points="720.607,-293.643 710.231,-295.787 719.679,-300.581 720.607,-293.643"/>
</g>
<!-- Node15 -->
<g id="node29" class="node"><title>Node15</title>
<a xlink:href="classscene2D_1_1processing_1_1SComputeHistogram.html" target="_top" xlink:title="The SComputeHistogram service computes the histogram of the image. ">
<polygon fill="white" stroke="black" points="767,-248 767,-282 881,-282 881,-248 767,-248"/>
<text text-anchor="start" x="775" y="-269" font-family="Helvetica,sans-Serif" font-size="10.00">scene2D::processing</text>
<text text-anchor="middle" x="824" y="-256" font-family="Helvetica,sans-Serif" font-size="10.00">::SComputeHistogram</text>
</a>
</g>
<!-- Node1&#45;&gt;Node15 -->
<g id="edge28" class="edge"><title>Node1&#45;&gt;Node15</title>
<path fill="none" stroke="midnightblue" d="M720.268,-278.871C735.751,-276.801 752.036,-274.623 766.995,-272.623"/>
<polygon fill="midnightblue" stroke="midnightblue" points="719.679,-275.419 710.231,-280.213 720.607,-282.357 719.679,-275.419"/>
</g>
<!-- Node16 -->
<g id="node31" class="node"><title>Node16</title>
<a xlink:href="classTuto15MultithreadCtrl_1_1SIncrementArray.html" target="_top" xlink:title="This service increments all the values of a fwData::Array. ">
<polygon fill="white" stroke="black" points="769,-196 769,-230 879,-230 879,-196 769,-196"/>
<text text-anchor="start" x="777" y="-217" font-family="Helvetica,sans-Serif" font-size="10.00">Tuto15MultithreadCtrl</text>
<text text-anchor="middle" x="824" y="-204" font-family="Helvetica,sans-Serif" font-size="10.00">::SIncrementArray</text>
</a>
</g>
<!-- Node1&#45;&gt;Node16 -->
<g id="edge30" class="edge"><title>Node1&#45;&gt;Node16</title>
<path fill="none" stroke="midnightblue" d="M679.055,-272.433C697.546,-262.161 722.81,-248.836 746,-239 753.359,-235.879 761.231,-232.879 769.039,-230.097"/>
<polygon fill="midnightblue" stroke="midnightblue" points="677.311,-269.398 670.306,-277.347 680.739,-275.502 677.311,-269.398"/>
</g>
<!-- Node17 -->
<g id="node33" class="node"><title>Node17</title>
<a xlink:href="classTuto15MultithreadCtrl_1_1SReadArray.html" target="_top" xlink:title="This service initializes a fwData::Array with 10 values (0 to 9). ">
<polygon fill="white" stroke="black" points="769,-144 769,-178 879,-178 879,-144 769,-144"/>
<text text-anchor="start" x="777" y="-165" font-family="Helvetica,sans-Serif" font-size="10.00">Tuto15MultithreadCtrl</text>
<text text-anchor="middle" x="824" y="-152" font-family="Helvetica,sans-Serif" font-size="10.00">::SReadArray</text>
</a>
</g>
<!-- Node1&#45;&gt;Node17 -->
<g id="edge32" class="edge"><title>Node1&#45;&gt;Node17</title>
<path fill="none" stroke="midnightblue" d="M665.209,-268.773C681.668,-246.175 711.824,-208.979 746,-187 752.963,-182.522 760.775,-178.738 768.694,-175.564"/>
<polygon fill="midnightblue" stroke="midnightblue" points="662.157,-267.026 659.212,-277.204 667.861,-271.084 662.157,-267.026"/>
</g>
<!-- Node18 -->
<g id="node35" class="node"><title>Node18</title>
<a xlink:href="classTuto15MultithreadCtrl_1_1SShowArray.html" target="_top" xlink:title="This service displays the array values. ">
<polygon fill="white" stroke="black" points="769,-92 769,-126 879,-126 879,-92 769,-92"/>
<text text-anchor="start" x="777" y="-113" font-family="Helvetica,sans-Serif" font-size="10.00">Tuto15MultithreadCtrl</text>
<text text-anchor="middle" x="824" y="-100" font-family="Helvetica,sans-Serif" font-size="10.00">::SShowArray</text>
</a>
</g>
<!-- Node1&#45;&gt;Node18 -->
<g id="edge34" class="edge"><title>Node1&#45;&gt;Node18</title>
<path fill="none" stroke="midnightblue" d="M659.076,-267.961C671.575,-235.399 700.607,-171.022 746,-135 752.709,-129.676 760.557,-125.42 768.643,-122.023"/>
<polygon fill="midnightblue" stroke="midnightblue" points="655.794,-266.746 655.6,-277.339 662.358,-269.179 655.794,-266.746"/>
</g>
<!-- Node19 -->
<g id="node37" class="node"><title>Node19</title>
<a xlink:href="classuiMedData_1_1SSeriesViewer.html" target="_top" xlink:title="This Service allows to preview the selected series in the Vector. For the moment, it works only on a ...">
<polygon fill="white" stroke="black" points="757,-52.5 757,-73.5 891,-73.5 891,-52.5 757,-52.5"/>
<text text-anchor="middle" x="824" y="-60.5" font-family="Helvetica,sans-Serif" font-size="10.00">uiMedData::SSeriesViewer</text>
</a>
</g>
<!-- Node1&#45;&gt;Node19 -->
<g id="edge36" class="edge"><title>Node1&#45;&gt;Node19</title>
<path fill="none" stroke="midnightblue" d="M655.473,-267.037C663.509,-225.377 687.372,-131.976 746,-83 750.506,-79.2358 755.633,-76.1684 761.056,-73.6704"/>
<polygon fill="midnightblue" stroke="midnightblue" points="651.986,-266.653 653.648,-277.117 658.874,-267.901 651.986,-266.653"/>
</g>
<!-- Node20 -->
<g id="node39" class="node"><title>Node20</title>
<a xlink:href="classvtkSimpleMesh_1_1SSimpleMeshDeformation.html" target="_top" xlink:title="Service used to deform a mesh. ">
<polygon fill="white" stroke="black" points="748.5,-0 748.5,-34 899.5,-34 899.5,-0 748.5,-0"/>
<text text-anchor="start" x="756.5" y="-21" font-family="Helvetica,sans-Serif" font-size="10.00">vtkSimpleMesh::SSimpleMesh</text>
<text text-anchor="middle" x="824" y="-8" font-family="Helvetica,sans-Serif" font-size="10.00">Deformation</text>
</a>
</g>
<!-- Node1&#45;&gt;Node20 -->
<g id="edge38" class="edge"><title>Node1&#45;&gt;Node20</title>
<path fill="none" stroke="midnightblue" d="M654.033,-267.329C659.722,-220.626 679.996,-106.124 746,-43 749.507,-39.6456 753.459,-36.7237 757.675,-34.1784"/>
<polygon fill="midnightblue" stroke="midnightblue" points="650.536,-267.105 652.906,-277.432 657.493,-267.881 650.536,-267.105"/>
</g>
<!-- Node2 -->
<g id="node2" class="node"><title>Node2</title>
<a xlink:href="classfwServices_1_1IService.html" target="_top" xlink:title="Base class for all services. ">
<polygon fill="white" stroke="black" points="450.5,-277.5 450.5,-298.5 557.5,-298.5 557.5,-277.5 450.5,-277.5"/>
<text text-anchor="middle" x="504" y="-285.5" font-family="Helvetica,sans-Serif" font-size="10.00">fwServices::IService</text>
</a>
</g>
<!-- Node2&#45;&gt;Node1 -->
<g id="edge2" class="edge"><title>Node2&#45;&gt;Node1</title>
<path fill="none" stroke="midnightblue" d="M567.897,-288C576.554,-288 585.399,-288 593.946,-288"/>
<polygon fill="midnightblue" stroke="midnightblue" points="567.85,-284.5 557.85,-288 567.85,-291.5 567.85,-284.5"/>
</g>
<!-- Node3 -->
<g id="node4" class="node"><title>Node3</title>
<a xlink:href="classfwTools_1_1Object.html" target="_top" xlink:title="Define Base class for FW4SPL objects and services. ">
<polygon fill="white" stroke="black" points="319,-317.5 319,-338.5 405,-338.5 405,-317.5 319,-317.5"/>
<text text-anchor="middle" x="362" y="-325.5" font-family="Helvetica,sans-Serif" font-size="10.00">fwTools::Object</text>
</a>
</g>
<!-- Node3&#45;&gt;Node2 -->
<g id="edge4" class="edge"><title>Node3&#45;&gt;Node2</title>
<path fill="none" stroke="midnightblue" d="M409.084,-314.737C427.727,-309.485 448.862,-303.532 466.447,-298.578"/>
<polygon fill="midnightblue" stroke="midnightblue" points="407.985,-311.41 399.309,-317.49 409.883,-318.148 407.985,-311.41"/>
</g>
<!-- Node4 -->
<g id="node6" class="node"><title>Node4</title>
<a xlink:href="classfwCore_1_1BaseObject.html" target="_top" xlink:title="Base class for all FW4SPL&#39;s classes. ">
<polygon fill="white" stroke="black" points="168.5,-337.5 168.5,-358.5 273.5,-358.5 273.5,-337.5 168.5,-337.5"/>
<text text-anchor="middle" x="221" y="-345.5" font-family="Helvetica,sans-Serif" font-size="10.00">fwCore::BaseObject</text>
</a>
</g>
<!-- Node4&#45;&gt;Node3 -->
<g id="edge6" class="edge"><title>Node4&#45;&gt;Node3</title>
<path fill="none" stroke="midnightblue" d="M283.757,-339.098C295.55,-337.426 307.635,-335.711 318.671,-334.146"/>
<polygon fill="midnightblue" stroke="midnightblue" points="282.913,-335.683 273.503,-340.553 283.896,-342.614 282.913,-335.683"/>
</g>
<!-- Node5 -->
<g id="node8" class="node"><title>Node5</title>
<polygon fill="white" stroke="#bfbfbf" points="0.5,-331 0.5,-365 131.5,-365 131.5,-331 0.5,-331"/>
<text text-anchor="start" x="8.5" y="-352" font-family="Helvetica,sans-Serif" font-size="10.00">std::enable_shared</text>
<text text-anchor="middle" x="66" y="-339" font-family="Helvetica,sans-Serif" font-size="10.00">_from_this&lt; BaseObject &gt;</text>
</g>
<!-- Node5&#45;&gt;Node4 -->
<g id="edge8" class="edge"><title>Node5&#45;&gt;Node4</title>
<path fill="none" stroke="midnightblue" d="M141.815,-348C150.778,-348 159.771,-348 168.315,-348"/>
<polygon fill="midnightblue" stroke="midnightblue" points="141.734,-344.5 131.734,-348 141.734,-351.5 141.734,-344.5"/>
</g>
<!-- Node6 -->
<g id="node10" class="node"><title>Node6</title>
<a xlink:href="classfwTools_1_1fwID.html" target="_top" xlink:title="Defines ID for fwTools::Object. It is used to associate ID with object. ">
<polygon fill="white" stroke="black" points="182,-297.5 182,-318.5 260,-318.5 260,-297.5 182,-297.5"/>
<text text-anchor="middle" x="221" y="-305.5" font-family="Helvetica,sans-Serif" font-size="10.00">fwTools::fwID</text>
</a>
</g>
<!-- Node6&#45;&gt;Node3 -->
<g id="edge10" class="edge"><title>Node6&#45;&gt;Node3</title>
<path fill="none" stroke="darkgreen" d="M270.417,-315.009C286.248,-317.255 303.641,-319.722 318.977,-321.897"/>
<polygon fill="darkgreen" stroke="darkgreen" points="270.669,-311.51 260.276,-313.571 269.686,-318.441 270.669,-311.51"/>
</g>
<!-- Node7 -->
<g id="node12" class="node"><title>Node7</title>
<a xlink:href="classfwCom_1_1HasSlots.html" target="_top" xlink:title="This class proposes a mapping between a SlotKeyType and a SlotBase. ">
<polygon fill="white" stroke="black" points="314.5,-277.5 314.5,-298.5 409.5,-298.5 409.5,-277.5 314.5,-277.5"/>
<text text-anchor="middle" x="362" y="-285.5" font-family="Helvetica,sans-Serif" font-size="10.00">fwCom::HasSlots</text>
</a>
</g>
<!-- Node7&#45;&gt;Node2 -->
<g id="edge12" class="edge"><title>Node7&#45;&gt;Node2</title>
<path fill="none" stroke="midnightblue" d="M419.975,-288C430.014,-288 440.412,-288 450.33,-288"/>
<polygon fill="midnightblue" stroke="midnightblue" points="419.679,-284.5 409.679,-288 419.679,-291.5 419.679,-284.5"/>
</g>
<!-- Node8 -->
<g id="node14" class="node"><title>Node8</title>
<a xlink:href="classfwCom_1_1HasSignals.html" target="_top" xlink:title="This class proposes a mapping between a SignalKeyType and a SignalBase. ">
<polygon fill="white" stroke="black" points="310,-237.5 310,-258.5 414,-258.5 414,-237.5 310,-237.5"/>
<text text-anchor="middle" x="362" y="-245.5" font-family="Helvetica,sans-Serif" font-size="10.00">fwCom::HasSignals</text>
</a>
</g>
<!-- Node8&#45;&gt;Node2 -->
<g id="edge14" class="edge"><title>Node8&#45;&gt;Node2</title>
<path fill="none" stroke="midnightblue" d="M409.084,-261.263C427.727,-266.515 448.862,-272.468 466.447,-277.422"/>
<polygon fill="midnightblue" stroke="midnightblue" points="409.883,-257.852 399.309,-258.51 407.985,-264.59 409.883,-257.852"/>
</g>
</g>
</svg>
