<?xml version="1.0" encoding="UTF-8" standalone="no"?>
<!DOCTYPE svg PUBLIC "-//W3C//DTD SVG 1.1//EN"
 "http://www.w3.org/Graphics/SVG/1.1/DTD/svg11.dtd">
<!-- Generated by graphviz version 2.36.0 (20140111.2315)
 -->
<!-- Title: fwGdcmIO::writer::ie::Surface Pages: 1 -->
<svg width="726pt" height="97pt"
 viewBox="0.00 0.00 726.00 97.00" xmlns="http://www.w3.org/2000/svg" xmlns:xlink="http://www.w3.org/1999/xlink">
<g id="graph0" class="graph" transform="scale(1 1) rotate(0) translate(4 93)">
<title>fwGdcmIO::writer::ie::Surface</title>
<polygon fill="white" stroke="none" points="-4,4 -4,-93 722,-93 722,4 -4,4"/>
<!-- Node1 -->
<g id="node1" class="node"><title>Node1</title>
<polygon fill="#bfbfbf" stroke="black" points="610.5,-20 610.5,-50 717.5,-50 717.5,-20 610.5,-20"/>
<text text-anchor="start" x="618.5" y="-38" font-family="Helvetica,sans-Serif" font-size="10.00">fwGdcmIO::writer::ie</text>
<text text-anchor="middle" x="664" y="-27" font-family="Helvetica,sans-Serif" font-size="10.00">::Surface</text>
</g>
<!-- Node2 -->
<g id="node2" class="node"><title>Node2</title>
<g id="a_node2"><a xlink:href="classfwGdcmIO_1_1writer_1_1ie_1_1InformationEntity.html" target="_top" xlink:title="fwGdcmIO::writer::ie\l::InformationEntity\&lt;\l ::fwMedData::ModelSeries \&gt;">
<polygon fill="white" stroke="black" points="285.5,-48.5 285.5,-89.5 430.5,-89.5 430.5,-48.5 285.5,-48.5"/>
<text text-anchor="start" x="293.5" y="-77.5" font-family="Helvetica,sans-Serif" font-size="10.00">fwGdcmIO::writer::ie</text>
<text text-anchor="start" x="293.5" y="-66.5" font-family="Helvetica,sans-Serif" font-size="10.00">::InformationEntity&lt;</text>
<text text-anchor="middle" x="358" y="-55.5" font-family="Helvetica,sans-Serif" font-size="10.00"> ::fwMedData::ModelSeries &gt;</text>
</a>
</g>
</g>
<!-- Node2&#45;&gt;Node1 -->
<g id="edge1" class="edge"><title>Node2&#45;&gt;Node1</title>
<path fill="none" stroke="midnightblue" d="M440.878,-59.8426C494.755,-53.8168 563.685,-46.1076 610.363,-40.887"/>
<polygon fill="midnightblue" stroke="midnightblue" points="440.208,-56.3956 430.659,-60.9855 440.986,-63.3523 440.208,-56.3956"/>
</g>
<!-- Node3 -->
<g id="node3" class="node"><title>Node3</title>
<g id="a_node3"><a xlink:href="classfwGdcmIO_1_1writer_1_1ie_1_1InformationEntity.html" target="_top" xlink:title="InformationEntity base class used to write modules. ">
<polygon fill="white" stroke="black" points="0.5,-48.5 0.5,-89.5 107.5,-89.5 107.5,-48.5 0.5,-48.5"/>
<text text-anchor="start" x="8.5" y="-77.5" font-family="Helvetica,sans-Serif" font-size="10.00">fwGdcmIO::writer::ie</text>
<text text-anchor="start" x="8.5" y="-66.5" font-family="Helvetica,sans-Serif" font-size="10.00">::InformationEntity&lt;</text>
<text text-anchor="middle" x="54" y="-55.5" font-family="Helvetica,sans-Serif" font-size="10.00"> DATATYPE &gt;</text>
</a>
</g>
</g>
<!-- Node3&#45;&gt;Node2 -->
<g id="edge2" class="edge"><title>Node3&#45;&gt;Node2</title>
<path fill="none" stroke="orange" stroke-dasharray="5,2" d="M117.733,-69C166.61,-69 234.501,-69 285.484,-69"/>
<polygon fill="orange" stroke="orange" points="117.604,-65.5001 107.604,-69 117.604,-72.5001 117.604,-65.5001"/>
<text text-anchor="middle" x="195" y="-72" font-family="Helvetica,sans-Serif" font-size="10.00"> &lt; ::fwMedData::ModelSeries &gt;</text>
</g>
<!-- Node4 -->
<g id="node4" class="node"><title>Node4</title>
<g id="a_node4"><a xlink:href="classfwGdcmIO_1_1helper_1_1SegmentedPropertyRegistry.html" target="_top" xlink:title="Registry of Segment Properties. This class defines a registry which links a structure type to an entr...">
<polygon fill="white" stroke="black" points="282,-0 282,-30 434,-30 434,-0 282,-0"/>
<text text-anchor="start" x="290" y="-18" font-family="Helvetica,sans-Serif" font-size="10.00">fwGdcmIO::helper::Segmented</text>
<text text-anchor="middle" x="358" y="-7" font-family="Helvetica,sans-Serif" font-size="10.00">PropertyRegistry</text>
</a>
</g>
</g>
<!-- Node4&#45;&gt;Node1 -->
<g id="edge3" class="edge"><title>Node4&#45;&gt;Node1</title>
<path fill="none" stroke="#9a32cd" stroke-dasharray="5,2" d="M444.145,-20.3581C488.271,-23.1662 543.035,-26.6998 592,-30 597.918,-30.3989 604.113,-30.8239 610.272,-31.2514"/>
<polygon fill="#9a32cd" stroke="#9a32cd" points="444.236,-16.857 434.035,-19.7156 443.792,-23.8429 444.236,-16.857"/>
<text text-anchor="middle" x="522" y="-33" font-family="Helvetica,sans-Serif" font-size="10.00"> m_segmentedPropertyRegistry</text>
</g>
</g>
</svg>
