<?xml version="1.0" encoding="UTF-8" standalone="no"?>
<!DOCTYPE svg PUBLIC "-//W3C//DTD SVG 1.1//EN"
 "http://www.w3.org/Graphics/SVG/1.1/DTD/svg11.dtd">
<!-- Generated by graphviz version 2.26.3 (20100126.1600)
 -->
<!-- Title: fwComEd::helper::MedicalImageAdaptor::getImageSpacing Pages: 1 -->
<!--zoomable 175 -->
<svg id="main" version="1.1" xmlns="http://www.w3.org/2000/svg" xmlns:xlink="http://www.w3.org/1999/xlink" xml:space="preserve" onload="init(evt)">
<style type="text/css"><![CDATA[
.edge:hover path { stroke: red; }
.edge:hover polygon { stroke: red; fill: red; }
]]></style>
<script type="text/javascript"><![CDATA[
var edges = document.getElementsByTagName('g');
if (edges && edges.length) {
  for (var i=0;i<edges.length;i++) {
    if (edges[i].id.substr(0,4)=='edge') {
      edges[i].setAttribute('class','edge');
    }
  }
}
]]></script>
        <defs>
                <circle id="rim" cx="0" cy="0" r="7"/>
                <circle id="rim2" cx="0" cy="0" r="3.5"/>
                <g id="zoomPlus">
                        <use xlink:href="#rim" fill="#404040">
                                <set attributeName="fill" to="#808080" begin="zoomplus.mouseover" end="zoomplus.mouseout"/>
                        </use>
                        <path d="M-4,0h8M0,-4v8" fill="none" stroke="white" stroke-width="1.5" pointer-events="none"/>
                </g>
                <g id="zoomMin">
                        <use xlink:href="#rim" fill="#404040">
                                <set attributeName="fill" to="#808080" begin="zoomminus.mouseover" end="zoomminus.mouseout"/>
                        </use>
                        <path d="M-4,0h8" fill="none" stroke="white" stroke-width="1.5" pointer-events="none"/>
                </g>
                <g id="dirArrow">
                        <path fill="none" stroke="white" stroke-width="1.5" d="M0,-3.0v7 M-2.5,-0.5L0,-3.0L2.5,-0.5"/>
                </g>
               <g id="resetDef">
                       <use xlink:href="#rim2" fill="#404040">
                               <set attributeName="fill" to="#808080" begin="reset.mouseover" end="reset.mouseout"/>
                       </use>
               </g>
        </defs>

<script type="text/javascript">
var viewWidth = 596;
var viewHeight = 175;
var sectionId = 'dynsection-9';
</script>
<script xlink:href="svgpan.js"/>
<svg id="graph" class="graph">
<g id="viewport">
<title>fwComEd::helper::MedicalImageAdaptor::getImageSpacing</title>
<polygon fill="white" stroke="white" points="-4,5 -4,-171 593,-171 593,5 -4,5"/>
<!-- Node1 -->
<g id="node1" class="node"><title>Node1</title>
<polygon fill="#bfbfbf" stroke="black" points="0.5,-78 0.5,-112 159.5,-112 159.5,-78 0.5,-78"/>
<text text-anchor="start" x="8.5" y="-99" font-family="Helvetica,sans-Serif" font-size="10.00">fwComEd::helper::Medical</text>
<text text-anchor="middle" x="80" y="-86" font-family="Helvetica,sans-Serif" font-size="10.00">ImageAdaptor::getImageSpacing</text>
</g>
<!-- Node2 -->
<g id="node3" class="node"><title>Node2</title>
<a xlink:href="classfwComEd_1_1helper_1_1MedicalImageAdaptor.html#acf53576431af42e273c11a0c51c4d277" target="_top" xlink:title="Get the slice center. ">
<polygon fill="white" stroke="black" points="416.5,-119.5 416.5,-166.5 567.5,-166.5 567.5,-119.5 416.5,-119.5"/>
<text text-anchor="start" x="424.5" y="-153.5" font-family="Helvetica,sans-Serif" font-size="10.00">fwComEd::helper::Medical</text>
<text text-anchor="start" x="424.5" y="-140.5" font-family="Helvetica,sans-Serif" font-size="10.00">ImageAdaptor::getCurrentSlice</text>
<text text-anchor="middle" x="492" y="-127.5" font-family="Helvetica,sans-Serif" font-size="10.00">Center</text>
</a>
</g>
<!-- Node1&#45;&gt;Node2 -->
<g id="edge2" class="edge"><title>Node1&#45;&gt;Node2</title>
<path fill="none" stroke="midnightblue" d="M117.866,-116.873C139.885,-128.32 168.618,-141.143 196,-147 269.626,-162.748 355.921,-159.162 416.274,-153.213"/>
<polygon fill="midnightblue" stroke="midnightblue" points="119.335,-113.69 108.863,-112.076 116.043,-119.867 119.335,-113.69"/>
</g>
<!-- Node3 -->
<g id="node5" class="node"><title>Node3</title>
<a xlink:href="classfwComEd_1_1helper_1_1MedicalImageAdaptor.html#a447806b32c775350ae60350bb4a733b6" target="_top" xlink:title="Get the image size ( = dataSize * spacing ). ">
<polygon fill="white" stroke="black" points="206.5,-104 206.5,-138 349.5,-138 349.5,-104 206.5,-104"/>
<text text-anchor="start" x="214.5" y="-125" font-family="Helvetica,sans-Serif" font-size="10.00">fwComEd::helper::Medical</text>
<text text-anchor="middle" x="278" y="-112" font-family="Helvetica,sans-Serif" font-size="10.00">ImageAdaptor::getImageSize</text>
</a>
</g>
<!-- Node1&#45;&gt;Node3 -->
<g id="edge4" class="edge"><title>Node1&#45;&gt;Node3</title>
<path fill="none" stroke="midnightblue" d="M169.911,-106.806C182.164,-108.415 194.605,-110.049 206.474,-111.608"/>
<polygon fill="midnightblue" stroke="midnightblue" points="170.049,-103.295 159.678,-105.463 169.137,-110.235 170.049,-103.295"/>
</g>
<!-- Node4 -->
<g id="node8" class="node"><title>Node4</title>
<a xlink:href="classfwComEd_1_1helper_1_1MedicalImageAdaptor.html#aa6fb95372eb7ca99b4464175145154fa" target="_top" xlink:title="Convert from world coordinates system to image coordinates system. ">
<polygon fill="white" stroke="black" points="196,-52 196,-86 360,-86 360,-52 196,-52"/>
<text text-anchor="start" x="204" y="-73" font-family="Helvetica,sans-Serif" font-size="10.00">fwComEd::helper::Medical</text>
<text text-anchor="middle" x="278" y="-60" font-family="Helvetica,sans-Serif" font-size="10.00">ImageAdaptor::sliceIndexToWorld</text>
</a>
</g>
<!-- Node1&#45;&gt;Node4 -->
<g id="edge8" class="edge"><title>Node1&#45;&gt;Node4</title>
<path fill="none" stroke="midnightblue" d="M169.819,-83.2056C178.508,-82.0646 187.292,-80.9111 195.901,-79.7807"/>
<polygon fill="midnightblue" stroke="midnightblue" points="169.137,-79.7649 159.678,-84.5372 170.049,-86.7054 169.137,-79.7649"/>
</g>
<!-- Node5 -->
<g id="node10" class="node"><title>Node5</title>
<a xlink:href="classfwComEd_1_1helper_1_1MedicalImageAdaptor.html#ab9eff4141808affef1e0866892229f72" target="_top" xlink:title="Convert world coordinates to slice index coordinates. ">
<polygon fill="white" stroke="black" points="196,-0 196,-34 360,-34 360,-0 196,-0"/>
<text text-anchor="start" x="204" y="-21" font-family="Helvetica,sans-Serif" font-size="10.00">fwComEd::helper::Medical</text>
<text text-anchor="middle" x="278" y="-8" font-family="Helvetica,sans-Serif" font-size="10.00">ImageAdaptor::worldToSliceIndex</text>
</a>
</g>
<!-- Node1&#45;&gt;Node5 -->
<g id="edge10" class="edge"><title>Node1&#45;&gt;Node5</title>
<path fill="none" stroke="midnightblue" d="M124.509,-73.6113C145.888,-63.7095 172.019,-52.1428 196,-43 204.094,-39.9143 212.729,-36.8922 221.245,-34.0633"/>
<polygon fill="midnightblue" stroke="midnightblue" points="122.934,-70.4839 115.353,-77.8846 125.895,-76.8271 122.934,-70.4839"/>
</g>
<!-- Node3&#45;&gt;Node2 -->
<g id="edge6" class="edge"><title>Node3&#45;&gt;Node2</title>
<path fill="none" stroke="midnightblue" d="M359.521,-129.381C378.228,-131.304 398.038,-133.34 416.478,-135.236"/>
<polygon fill="midnightblue" stroke="midnightblue" points="359.862,-125.897 349.556,-128.356 359.146,-132.861 359.862,-125.897"/>
</g>
<!-- Node6 -->
<g id="node12" class="node"><title>Node6</title>
<a xlink:href="classfwComEd_1_1helper_1_1MedicalImageAdaptor.html#a01ec81416078f961863b1fa1da85ccc7" target="_top" xlink:title="Convert coordinates in the world to coordinates in the image. ">
<polygon fill="white" stroke="black" points="396.5,-0 396.5,-34 587.5,-34 587.5,-0 396.5,-0"/>
<text text-anchor="start" x="404.5" y="-21" font-family="Helvetica,sans-Serif" font-size="10.00">fwComEd::helper::Medical</text>
<text text-anchor="middle" x="492" y="-8" font-family="Helvetica,sans-Serif" font-size="10.00">ImageAdaptor::worldToImageSliceIndex</text>
</a>
</g>
<!-- Node5&#45;&gt;Node6 -->
<g id="edge12" class="edge"><title>Node5&#45;&gt;Node6</title>
<path fill="none" stroke="midnightblue" d="M370.159,-17C378.768,-17 387.508,-17 396.15,-17"/>
<polygon fill="midnightblue" stroke="midnightblue" points="370.126,-13.5001 360.126,-17 370.126,-20.5001 370.126,-13.5001"/>
</g>
</g>
</svg>
        <g id="navigator" transform="translate(0 0)" fill="#404254">
                <rect fill="#f2f5e9" fill-opacity="0.5" stroke="#606060" stroke-width=".5" x="0" y="0" width="60" height="60"/>
                <use id="zoomplus" xlink:href="#zoomPlus" x="17" y="9" onmousedown="handleZoom(evt,'in')"/>
                <use id="zoomminus" xlink:href="#zoomMin" x="42" y="9" onmousedown="handleZoom(evt,'out')"/>
                <use id="reset" xlink:href="#resetDef" x="30" y="36" onmousedown="handleReset()"/>
                <g id="arrowUp" xlink:href="#dirArrow" transform="translate(30 24)" onmousedown="handlePan(0,-1)">
                  <use xlink:href="#rim" fill="#404040">
                        <set attributeName="fill" to="#808080" begin="arrowUp.mouseover" end="arrowUp.mouseout"/>
                  </use>
                  <path fill="none" stroke="white" stroke-width="1.5" d="M0,-3.0v7 M-2.5,-0.5L0,-3.0L2.5,-0.5"/>
                </g>
                <g id="arrowRight" xlink:href="#dirArrow" transform="rotate(90) translate(36 -43)" onmousedown="handlePan(1,0)">
                  <use xlink:href="#rim" fill="#404040">
                        <set attributeName="fill" to="#808080" begin="arrowRight.mouseover" end="arrowRight.mouseout"/>
                  </use>
                  <path fill="none" stroke="white" stroke-width="1.5" d="M0,-3.0v7 M-2.5,-0.5L0,-3.0L2.5,-0.5"/>
                </g>
                <g id="arrowDown" xlink:href="#dirArrow" transform="rotate(180) translate(-30 -48)" onmousedown="handlePan(0,1)">
                  <use xlink:href="#rim" fill="#404040">
                        <set attributeName="fill" to="#808080" begin="arrowDown.mouseover" end="arrowDown.mouseout"/>
                  </use>
                  <path fill="none" stroke="white" stroke-width="1.5" d="M0,-3.0v7 M-2.5,-0.5L0,-3.0L2.5,-0.5"/>
                </g>
                <g id="arrowLeft" xlink:href="#dirArrow" transform="rotate(270) translate(-36 17)" onmousedown="handlePan(-1,0)">
                  <use xlink:href="#rim" fill="#404040">
                        <set attributeName="fill" to="#808080" begin="arrowLeft.mouseover" end="arrowLeft.mouseout"/>
                  </use>
                  <path fill="none" stroke="white" stroke-width="1.5" d="M0,-3.0v7 M-2.5,-0.5L0,-3.0L2.5,-0.5"/>
                </g>
        </g>
        <svg viewBox="0 0 15 15" width="100%" height="30px" preserveAspectRatio="xMaxYMin meet">
         <g id="arrow_out" transform="scale(0.3 0.3)">
          <a xlink:href="classfwComEd_1_1helper_1_1MedicalImageAdaptor_ab151a5e40a286ae6fe40c065b4962026_icgraph_org.svg" target="_base">
           <rect id="button" ry="5" rx="5" y="6" x="6" height="38" width="38"
                fill="#f2f5e9" fill-opacity="0.5" stroke="#606060" stroke-width="1.0"/>
           <path id="arrow"
             d="M 11.500037,31.436501 C 11.940474,20.09759 22.043105,11.32322 32.158766,21.979434 L 37.068811,17.246167 C 37.068811,17.246167 37.088388,32 37.088388,32 L 22.160133,31.978069 C 22.160133,31.978069 26.997745,27.140456 26.997745,27.140456 C 18.528582,18.264221 13.291696,25.230495 11.500037,31.436501 z"
             style="fill:#404040;"/>
          </a>
         </g>
        </svg>
</svg>
