<?xml version="1.0" encoding="UTF-8" standalone="no"?>
<!DOCTYPE svg PUBLIC "-//W3C//DTD SVG 1.1//EN"
 "http://www.w3.org/Graphics/SVG/1.1/DTD/svg11.dtd">
<!-- Generated by graphviz version 2.36.0 (20140111.2315)
 -->
<!-- Title: fwDataIO::reader::ArrayReader Pages: 1 -->
<svg width="1092pt" height="116pt"
 viewBox="0.00 0.00 1092.00 116.00" xmlns="http://www.w3.org/2000/svg" xmlns:xlink="http://www.w3.org/1999/xlink">
<g id="graph0" class="graph" transform="scale(1 1) rotate(0) translate(4 112)">
<title>fwDataIO::reader::ArrayReader</title>
<polygon fill="white" stroke="none" points="-4,4 -4,-112 1088,-112 1088,4 -4,4"/>
<!-- Node1 -->
<g id="node1" class="node"><title>Node1</title>
<polygon fill="#bfbfbf" stroke="black" points="932,-35.5 932,-54.5 1084,-54.5 1084,-35.5 932,-35.5"/>
<text text-anchor="middle" x="1008" y="-42.5" font-family="Helvetica,sans-Serif" font-size="10.00">fwDataIO::reader::ArrayReader</text>
</g>
<!-- Node2 -->
<g id="node2" class="node"><title>Node2</title>
<g id="a_node2"><a xlink:href="classfwDataIO_1_1reader_1_1GenericObjectReader.html" target="_top" xlink:title="fwDataIO::reader::Generic\lObjectReader\&lt; ::fwData\l::Array \&gt;">
<polygon fill="white" stroke="black" points="758.5,-48.5 758.5,-89.5 889.5,-89.5 889.5,-48.5 758.5,-48.5"/>
<text text-anchor="start" x="766.5" y="-77.5" font-family="Helvetica,sans-Serif" font-size="10.00">fwDataIO::reader::Generic</text>
<text text-anchor="start" x="766.5" y="-66.5" font-family="Helvetica,sans-Serif" font-size="10.00">ObjectReader&lt; ::fwData</text>
<text text-anchor="middle" x="824" y="-55.5" font-family="Helvetica,sans-Serif" font-size="10.00">::Array &gt;</text>
</a>
</g>
</g>
<!-- Node2&#45;&gt;Node1 -->
<g id="edge1" class="edge"><title>Node2&#45;&gt;Node1</title>
<path fill="none" stroke="midnightblue" d="M899.742,-59.1439C911.323,-57.6168 923.266,-56.0419 934.789,-54.5223"/>
<polygon fill="midnightblue" stroke="midnightblue" points="899.135,-55.6935 889.679,-60.4709 900.051,-62.6334 899.135,-55.6935"/>
</g>
<!-- Node3 -->
<g id="node3" class="node"><title>Node3</title>
<g id="a_node3"><a xlink:href="classfwDataIO_1_1reader_1_1IObjectReader.html" target="_top" xlink:title="Base class for all object readers. ">
<polygon fill="white" stroke="black" points="314.5,-78 314.5,-108 443.5,-108 443.5,-78 314.5,-78"/>
<text text-anchor="start" x="322.5" y="-96" font-family="Helvetica,sans-Serif" font-size="10.00">fwDataIO::reader::IObject</text>
<text text-anchor="middle" x="379" y="-85" font-family="Helvetica,sans-Serif" font-size="10.00">Reader</text>
</a>
</g>
</g>
<!-- Node3&#45;&gt;Node2 -->
<g id="edge2" class="edge"><title>Node3&#45;&gt;Node2</title>
<path fill="none" stroke="midnightblue" d="M453.977,-95.0797C457.364,-95.0747 460.718,-95.0494 464,-95 584.993,-93.1782 615.762,-96.6142 736,-83 743.297,-82.1738 750.916,-81.1653 758.48,-80.0718"/>
<polygon fill="midnightblue" stroke="midnightblue" points="453.764,-91.5789 443.749,-95.0377 453.735,-98.5788 453.764,-91.5789"/>
</g>
<!-- Node6 -->
<g id="node6" class="node"><title>Node6</title>
<g id="a_node6"><a xlink:href="classfwDataIO_1_1reader_1_1GenericObjectReader.html" target="_top" xlink:title="generic class for all object readers. ">
<polygon fill="white" stroke="black" points="482,-51 482,-81 630,-81 630,-51 482,-51"/>
<text text-anchor="start" x="490" y="-69" font-family="Helvetica,sans-Serif" font-size="10.00">fwDataIO::reader::Generic</text>
<text text-anchor="middle" x="556" y="-58" font-family="Helvetica,sans-Serif" font-size="10.00">ObjectReader&lt; DATATYPE &gt;</text>
</a>
</g>
</g>
<!-- Node3&#45;&gt;Node6 -->
<g id="edge6" class="edge"><title>Node3&#45;&gt;Node6</title>
<path fill="none" stroke="midnightblue" d="M453.69,-81.6306C463.018,-80.1916 472.56,-78.7193 481.878,-77.2816"/>
<polygon fill="midnightblue" stroke="midnightblue" points="453.023,-78.192 443.674,-83.176 454.091,-85.1102 453.023,-78.192"/>
</g>
<!-- Node4 -->
<g id="node4" class="node"><title>Node4</title>
<g id="a_node4"><a xlink:href="classfwCore_1_1BaseObject.html" target="_top" xlink:title="Base class for all FW4SPL&#39;s classes. ">
<polygon fill="white" stroke="black" points="170.5,-83.5 170.5,-102.5 275.5,-102.5 275.5,-83.5 170.5,-83.5"/>
<text text-anchor="middle" x="223" y="-90.5" font-family="Helvetica,sans-Serif" font-size="10.00">fwCore::BaseObject</text>
</a>
</g>
</g>
<!-- Node4&#45;&gt;Node3 -->
<g id="edge3" class="edge"><title>Node4&#45;&gt;Node3</title>
<path fill="none" stroke="midnightblue" d="M285.776,-93C295.195,-93 304.931,-93 314.388,-93"/>
<polygon fill="midnightblue" stroke="midnightblue" points="285.708,-89.5001 275.708,-93 285.708,-96.5001 285.708,-89.5001"/>
</g>
<!-- Node5 -->
<g id="node5" class="node"><title>Node5</title>
<polygon fill="white" stroke="#bfbfbf" points="0.5,-78 0.5,-108 131.5,-108 131.5,-78 0.5,-78"/>
<text text-anchor="start" x="8.5" y="-96" font-family="Helvetica,sans-Serif" font-size="10.00">std::enable_shared</text>
<text text-anchor="middle" x="66" y="-85" font-family="Helvetica,sans-Serif" font-size="10.00">_from_this&lt; BaseObject &gt;</text>
</g>
<!-- Node5&#45;&gt;Node4 -->
<g id="edge4" class="edge"><title>Node5&#45;&gt;Node4</title>
<path fill="none" stroke="midnightblue" d="M142.089,-93C151.581,-93 161.12,-93 170.138,-93"/>
<polygon fill="midnightblue" stroke="midnightblue" points="141.836,-89.5001 131.836,-93 141.836,-96.5001 141.836,-89.5001"/>
</g>
<!-- Node6&#45;&gt;Node2 -->
<g id="edge5" class="edge"><title>Node6&#45;&gt;Node2</title>
<path fill="none" stroke="orange" stroke-dasharray="5,2" d="M640.091,-66.9371C678.206,-67.367 722.718,-67.869 758.287,-68.2702"/>
<polygon fill="orange" stroke="orange" points="640.076,-63.4368 630.038,-66.8237 639.997,-70.4364 640.076,-63.4368"/>
<text text-anchor="middle" x="692" y="-71" font-family="Helvetica,sans-Serif" font-size="10.00"> &lt; ::fwData::Array &gt;</text>
</g>
<!-- Node7 -->
<g id="node7" class="node"><title>Node7</title>
<g id="a_node7"><a xlink:href="structfwData_1_1location_1_1enableSingleFile.html" target="_top" xlink:title="fwData::location::enable\lSingleFile\&lt; IObjectReader \&gt;">
<polygon fill="white" stroke="black" points="754,-0 754,-30 894,-30 894,-0 754,-0"/>
<text text-anchor="start" x="762" y="-18" font-family="Helvetica,sans-Serif" font-size="10.00">fwData::location::enable</text>
<text text-anchor="middle" x="824" y="-7" font-family="Helvetica,sans-Serif" font-size="10.00">SingleFile&lt; IObjectReader &gt;</text>
</a>
</g>
</g>
<!-- Node7&#45;&gt;Node1 -->
<g id="edge7" class="edge"><title>Node7&#45;&gt;Node1</title>
<path fill="none" stroke="midnightblue" d="M903.98,-28.0186C919.194,-30.5265 934.864,-33.1095 949.249,-35.4807"/>
<polygon fill="midnightblue" stroke="midnightblue" points="904.502,-24.5576 894.066,-26.3845 903.363,-31.4644 904.502,-24.5576"/>
</g>
<!-- Node8 -->
<g id="node8" class="node"><title>Node8</title>
<g id="a_node8"><a xlink:href="structfwData_1_1location_1_1enableSingleFile.html" target="_top" xlink:title="This class is derived by reader/writer. ">
<polygon fill="white" stroke="black" points="495,-0 495,-30 617,-30 617,-0 495,-0"/>
<text text-anchor="start" x="503" y="-18" font-family="Helvetica,sans-Serif" font-size="10.00">fwData::location::enable</text>
<text text-anchor="middle" x="556" y="-7" font-family="Helvetica,sans-Serif" font-size="10.00">SingleFile&lt; RW &gt;</text>
</a>
</g>
</g>
<!-- Node8&#45;&gt;Node7 -->
<g id="edge8" class="edge"><title>Node8&#45;&gt;Node7</title>
<path fill="none" stroke="orange" stroke-dasharray="5,2" d="M627.272,-15C666.375,-15 714.862,-15 753.793,-15"/>
<polygon fill="orange" stroke="orange" points="627.027,-11.5001 617.027,-15 627.027,-18.5001 627.027,-11.5001"/>
<text text-anchor="middle" x="692" y="-18" font-family="Helvetica,sans-Serif" font-size="10.00"> &lt; IObjectReader &gt;</text>
</g>
</g>
</svg>
