<?xml version="1.0" encoding="UTF-8" standalone="no"?>
<!DOCTYPE svg PUBLIC "-//W3C//DTD SVG 1.1//EN"
 "http://www.w3.org/Graphics/SVG/1.1/DTD/svg11.dtd">
<!-- Generated by graphviz version 2.26.3 (20100126.1600)
 -->
<!-- Title: fwAtomsPatch::IStructuralPatch Pages: 1 -->
<!--zoomable 750 -->
<svg id="main" version="1.1" xmlns="http://www.w3.org/2000/svg" xmlns:xlink="http://www.w3.org/1999/xlink" xml:space="preserve" onload="init(evt)">
<style type="text/css"><![CDATA[
.edge:hover path { stroke: red; }
.edge:hover polygon { stroke: red; fill: red; }
]]></style>
<script type="text/javascript"><![CDATA[
var edges = document.getElementsByTagName('g');
if (edges && edges.length) {
  for (var i=0;i<edges.length;i++) {
    if (edges[i].id.substr(0,4)=='edge') {
      edges[i].setAttribute('class','edge');
    }
  }
}
]]></script>
        <defs>
                <circle id="rim" cx="0" cy="0" r="7"/>
                <circle id="rim2" cx="0" cy="0" r="3.5"/>
                <g id="zoomPlus">
                        <use xlink:href="#rim" fill="#404040">
                                <set attributeName="fill" to="#808080" begin="zoomplus.mouseover" end="zoomplus.mouseout"/>
                        </use>
                        <path d="M-4,0h8M0,-4v8" fill="none" stroke="white" stroke-width="1.5" pointer-events="none"/>
                </g>
                <g id="zoomMin">
                        <use xlink:href="#rim" fill="#404040">
                                <set attributeName="fill" to="#808080" begin="zoomminus.mouseover" end="zoomminus.mouseout"/>
                        </use>
                        <path d="M-4,0h8" fill="none" stroke="white" stroke-width="1.5" pointer-events="none"/>
                </g>
                <g id="dirArrow">
                        <path fill="none" stroke="white" stroke-width="1.5" d="M0,-3.0v7 M-2.5,-0.5L0,-3.0L2.5,-0.5"/>
                </g>
               <g id="resetDef">
                       <use xlink:href="#rim2" fill="#404040">
                               <set attributeName="fill" to="#808080" begin="reset.mouseover" end="reset.mouseout"/>
                       </use>
               </g>
        </defs>

<script type="text/javascript">
var viewWidth = 804;
var viewHeight = 750;
var sectionId = 'dynsection-0';
</script>
<script xlink:href="svgpan.js"/>
<svg id="graph" class="graph">
<g id="viewport">
<title>fwAtomsPatch::IStructuralPatch</title>
<polygon fill="white" stroke="white" points="-4,5 -4,-746 801,-746 801,5 -4,5"/>
<!-- Node1 -->
<g id="node1" class="node"><title>Node1</title>
<polygon fill="#bfbfbf" stroke="black" points="462,-382 462,-416 594,-416 594,-382 462,-382"/>
<text text-anchor="start" x="470" y="-403" font-family="Helvetica,sans-Serif" font-size="10.00">fwAtomsPatch::IStructural</text>
<text text-anchor="middle" x="528" y="-390" font-family="Helvetica,sans-Serif" font-size="10.00">Patch</text>
</g>
<!-- Node5 -->
<g id="node9" class="node"><title>Node5</title>
<a xlink:href="classfwStructuralPatch_1_1fwData_1_1Acquisition_1_1V1ToFwMedDataImageSeriesV1.html" target="_top" xlink:title="Transforms an acquisition in version &#39;1&#39; to an image series in version &#39;1&#39;. ">
<polygon fill="white" stroke="black" points="630,-694.5 630,-741.5 796,-741.5 796,-694.5 630,-694.5"/>
<text text-anchor="start" x="638" y="-728.5" font-family="Helvetica,sans-Serif" font-size="10.00">fwStructuralPatch::</text>
<text text-anchor="start" x="638" y="-715.5" font-family="Helvetica,sans-Serif" font-size="10.00">fwData::Acquisition</text>
<text text-anchor="middle" x="713" y="-702.5" font-family="Helvetica,sans-Serif" font-size="10.00">::V1ToFwMedDataImageSeriesV1</text>
</a>
</g>
<!-- Node1&#45;&gt;Node5 -->
<g id="edge8" class="edge"><title>Node1&#45;&gt;Node5</title>
<path fill="none" stroke="midnightblue" d="M530.322,-426.166C536.492,-481.965 558.112,-610.487 630,-685 633.338,-688.46 637.084,-691.565 641.091,-694.352"/>
<polygon fill="midnightblue" stroke="midnightblue" points="533.783,-425.605 529.284,-416.013 526.819,-426.318 533.783,-425.605"/>
</g>
<!-- Node6 -->
<g id="node11" class="node"><title>Node6</title>
<a xlink:href="classfwStructuralPatch_1_1fwData_1_1Image_1_1V1ToV2.html" target="_top" xlink:title="Structural patch to convert a fwData::Image from version &#39;1&#39; to version &#39;2&#39;. ">
<polygon fill="white" stroke="black" points="652,-642 652,-676 774,-676 774,-642 652,-642"/>
<text text-anchor="start" x="660" y="-663" font-family="Helvetica,sans-Serif" font-size="10.00">fwStructuralPatch::</text>
<text text-anchor="middle" x="713" y="-650" font-family="Helvetica,sans-Serif" font-size="10.00">fwData::Image::V1ToV2</text>
</a>
</g>
<!-- Node1&#45;&gt;Node6 -->
<g id="edge10" class="edge"><title>Node1&#45;&gt;Node6</title>
<path fill="none" stroke="midnightblue" d="M532.333,-426.33C541.476,-474.967 567.308,-576.709 630,-633 636.292,-638.65 643.803,-643.072 651.698,-646.533"/>
<polygon fill="midnightblue" stroke="midnightblue" points="535.736,-425.479 530.536,-416.249 528.845,-426.708 535.736,-425.479"/>
</g>
<!-- Node7 -->
<g id="node13" class="node"><title>Node7</title>
<a xlink:href="classfwStructuralPatch_1_1fwData_1_1Material_1_1V1ToV2.html" target="_top" xlink:title="Structural patch to convert a fwData::Image from version &#39;1&#39; to version &#39;2&#39;. ">
<polygon fill="white" stroke="black" points="648,-590 648,-624 778,-624 778,-590 648,-590"/>
<text text-anchor="start" x="656" y="-611" font-family="Helvetica,sans-Serif" font-size="10.00">fwStructuralPatch::</text>
<text text-anchor="middle" x="713" y="-598" font-family="Helvetica,sans-Serif" font-size="10.00">fwData::Material::V1ToV2</text>
</a>
</g>
<!-- Node1&#45;&gt;Node7 -->
<g id="edge12" class="edge"><title>Node1&#45;&gt;Node7</title>
<path fill="none" stroke="midnightblue" d="M535.962,-425.876C549.085,-465.568 579.011,-539.618 630,-581 635.393,-585.377 641.528,-589.021 647.964,-592.053"/>
<polygon fill="midnightblue" stroke="midnightblue" points="539.218,-424.568 532.843,-416.106 532.55,-426.697 539.218,-424.568"/>
</g>
<!-- Node8 -->
<g id="node15" class="node"><title>Node8</title>
<a xlink:href="classfwStructuralPatch_1_1fwData_1_1Material_1_1V2ToV3.html" target="_top" xlink:title="Structural patch to convert a fwData::Image from version &#39;1&#39; to version &#39;2&#39;. ">
<polygon fill="white" stroke="black" points="648,-538 648,-572 778,-572 778,-538 648,-538"/>
<text text-anchor="start" x="656" y="-559" font-family="Helvetica,sans-Serif" font-size="10.00">fwStructuralPatch::</text>
<text text-anchor="middle" x="713" y="-546" font-family="Helvetica,sans-Serif" font-size="10.00">fwData::Material::V2ToV3</text>
</a>
</g>
<!-- Node1&#45;&gt;Node8 -->
<g id="edge14" class="edge"><title>Node1&#45;&gt;Node8</title>
<path fill="none" stroke="midnightblue" d="M541.865,-424.899C558.872,-454.274 590.386,-501.634 630,-529 635.467,-532.776 641.506,-536.023 647.76,-538.81"/>
<polygon fill="midnightblue" stroke="midnightblue" points="544.827,-423.026 536.861,-416.041 538.733,-426.47 544.827,-423.026"/>
</g>
<!-- Node9 -->
<g id="node17" class="node"><title>Node9</title>
<a xlink:href="classfwStructuralPatch_1_1fwData_1_1Material_1_1V3ToV4.html" target="_top" xlink:title="Structural patch to convert a fwData::Material from version &#39;3&#39; to version &#39;4&#39;. ">
<polygon fill="white" stroke="black" points="648,-486 648,-520 778,-520 778,-486 648,-486"/>
<text text-anchor="start" x="656" y="-507" font-family="Helvetica,sans-Serif" font-size="10.00">fwStructuralPatch::</text>
<text text-anchor="middle" x="713" y="-494" font-family="Helvetica,sans-Serif" font-size="10.00">fwData::Material::V3ToV4</text>
</a>
</g>
<!-- Node1&#45;&gt;Node9 -->
<g id="edge16" class="edge"><title>Node1&#45;&gt;Node9</title>
<path fill="none" stroke="midnightblue" d="M553.788,-422.823C573.434,-439.906 601.82,-462.393 630,-477 636.301,-480.266 643.086,-483.209 649.965,-485.838"/>
<polygon fill="midnightblue" stroke="midnightblue" points="555.999,-420.106 546.189,-416.104 551.362,-425.35 555.999,-420.106"/>
</g>
<!-- Node10 -->
<g id="node19" class="node"><title>Node10</title>
<a xlink:href="classfwStructuralPatch_1_1fwData_1_1Mesh_1_1V1ToV2.html" target="_top" xlink:title="Structural patch to convert a fwData::Mesh from version &#39;1&#39; to version &#39;2&#39;. ">
<polygon fill="white" stroke="black" points="653.5,-434 653.5,-468 772.5,-468 772.5,-434 653.5,-434"/>
<text text-anchor="start" x="661.5" y="-455" font-family="Helvetica,sans-Serif" font-size="10.00">fwStructuralPatch::</text>
<text text-anchor="middle" x="713" y="-442" font-family="Helvetica,sans-Serif" font-size="10.00">fwData::Mesh::V1ToV2</text>
</a>
</g>
<!-- Node1&#45;&gt;Node10 -->
<g id="edge18" class="edge"><title>Node1&#45;&gt;Node10</title>
<path fill="none" stroke="midnightblue" d="M598.216,-418.737C616.347,-423.833 635.693,-429.27 653.235,-434.201"/>
<polygon fill="midnightblue" stroke="midnightblue" points="599.15,-415.363 588.576,-416.027 597.256,-422.102 599.15,-415.363"/>
</g>
<!-- Node11 -->
<g id="node21" class="node"><title>Node11</title>
<a xlink:href="classfwStructuralPatch_1_1fwData_1_1Mesh_1_1V1ToV3.html" target="_top" xlink:title="Structural patch to convert a fwData::Mesh from version &#39;1&#39; to version &#39;3&#39;. ">
<polygon fill="white" stroke="black" points="653.5,-382 653.5,-416 772.5,-416 772.5,-382 653.5,-382"/>
<text text-anchor="start" x="661.5" y="-403" font-family="Helvetica,sans-Serif" font-size="10.00">fwStructuralPatch::</text>
<text text-anchor="middle" x="713" y="-390" font-family="Helvetica,sans-Serif" font-size="10.00">fwData::Mesh::V1ToV3</text>
</a>
</g>
<!-- Node1&#45;&gt;Node11 -->
<g id="edge20" class="edge"><title>Node1&#45;&gt;Node11</title>
<path fill="none" stroke="midnightblue" d="M604.142,-399C620.602,-399 637.775,-399 653.487,-399"/>
<polygon fill="midnightblue" stroke="midnightblue" points="604.006,-395.5 594.006,-399 604.006,-402.5 604.006,-395.5"/>
</g>
<!-- Node12 -->
<g id="node23" class="node"><title>Node12</title>
<a xlink:href="classfwStructuralPatch_1_1fwData_1_1Mesh_1_1V2ToV3.html" target="_top" xlink:title="Structural patch to convert a fwData::Mesh from version &#39;2&#39; to version &#39;3&#39;. ">
<polygon fill="white" stroke="black" points="653.5,-330 653.5,-364 772.5,-364 772.5,-330 653.5,-330"/>
<text text-anchor="start" x="661.5" y="-351" font-family="Helvetica,sans-Serif" font-size="10.00">fwStructuralPatch::</text>
<text text-anchor="middle" x="713" y="-338" font-family="Helvetica,sans-Serif" font-size="10.00">fwData::Mesh::V2ToV3</text>
</a>
</g>
<!-- Node1&#45;&gt;Node12 -->
<g id="edge22" class="edge"><title>Node1&#45;&gt;Node12</title>
<path fill="none" stroke="midnightblue" d="M598.216,-379.263C616.347,-374.167 635.693,-368.73 653.235,-363.799"/>
<polygon fill="midnightblue" stroke="midnightblue" points="597.256,-375.898 588.576,-381.973 599.15,-382.637 597.256,-375.898"/>
</g>
<!-- Node13 -->
<g id="node25" class="node"><title>Node13</title>
<a xlink:href="classfwStructuralPatch_1_1fwData_1_1Patient_1_1V1ToFwMedDataPatientV1.html" target="_top" xlink:title="Transforms a ::fwData::Patient to a fwMedData::Patient. ">
<polygon fill="white" stroke="black" points="640,-264.5 640,-311.5 786,-311.5 786,-264.5 640,-264.5"/>
<text text-anchor="start" x="648" y="-298.5" font-family="Helvetica,sans-Serif" font-size="10.00">fwStructuralPatch::</text>
<text text-anchor="start" x="648" y="-285.5" font-family="Helvetica,sans-Serif" font-size="10.00">fwData::Patient::V1ToFwMed</text>
<text text-anchor="middle" x="713" y="-272.5" font-family="Helvetica,sans-Serif" font-size="10.00">DataPatientV1</text>
</a>
</g>
<!-- Node1&#45;&gt;Node13 -->
<g id="edge24" class="edge"><title>Node1&#45;&gt;Node13</title>
<path fill="none" stroke="midnightblue" d="M554.86,-375.171C574.639,-358.47 602.727,-336.458 630,-321 635.801,-317.712 641.995,-314.598 648.286,-311.691"/>
<polygon fill="midnightblue" stroke="midnightblue" points="552.505,-372.579 547.182,-381.74 557.056,-377.898 552.505,-372.579"/>
</g>
<!-- Node14 -->
<g id="node27" class="node"><title>Node14</title>
<a xlink:href="classfwStructuralPatch_1_1fwData_1_1Reconstruction_1_1V1ToV2.html" target="_top" xlink:title="Structural patch to convert a fwData::Reconstruction from version &#39;1&#39; to version &#39;2&#39;. ">
<polygon fill="white" stroke="black" points="653,-198.5 653,-245.5 773,-245.5 773,-198.5 653,-198.5"/>
<text text-anchor="start" x="661" y="-232.5" font-family="Helvetica,sans-Serif" font-size="10.00">fwStructuralPatch::</text>
<text text-anchor="start" x="661" y="-219.5" font-family="Helvetica,sans-Serif" font-size="10.00">fwData::Reconstruction</text>
<text text-anchor="middle" x="713" y="-206.5" font-family="Helvetica,sans-Serif" font-size="10.00">::V1ToV2</text>
</a>
</g>
<!-- Node1&#45;&gt;Node14 -->
<g id="edge26" class="edge"><title>Node1&#45;&gt;Node14</title>
<path fill="none" stroke="midnightblue" d="M540.567,-372.785C557.041,-340.933 588.755,-287.44 630,-255 636.826,-249.632 644.637,-245.033 652.676,-241.124"/>
<polygon fill="midnightblue" stroke="midnightblue" points="537.334,-371.424 535.951,-381.928 543.582,-374.579 537.334,-371.424"/>
</g>
<!-- Node15 -->
<g id="node29" class="node"><title>Node15</title>
<a xlink:href="classfwStructuralPatch_1_1fwData_1_1Reconstruction_1_1V2ToV3.html" target="_top" xlink:title="Structural patch to convert a fwData::Reconstruction from version &#39;2&#39; to version &#39;3&#39;. ">
<polygon fill="white" stroke="black" points="653,-132.5 653,-179.5 773,-179.5 773,-132.5 653,-132.5"/>
<text text-anchor="start" x="661" y="-166.5" font-family="Helvetica,sans-Serif" font-size="10.00">fwStructuralPatch::</text>
<text text-anchor="start" x="661" y="-153.5" font-family="Helvetica,sans-Serif" font-size="10.00">fwData::Reconstruction</text>
<text text-anchor="middle" x="713" y="-140.5" font-family="Helvetica,sans-Serif" font-size="10.00">::V2ToV3</text>
</a>
</g>
<!-- Node1&#45;&gt;Node15 -->
<g id="edge28" class="edge"><title>Node1&#45;&gt;Node15</title>
<path fill="none" stroke="midnightblue" d="M534.303,-372.049C545.922,-327.993 574.74,-240.329 630,-189 636.59,-182.879 644.454,-177.838 652.677,-173.701"/>
<polygon fill="midnightblue" stroke="midnightblue" points="530.906,-371.209 531.836,-381.763 537.69,-372.933 530.906,-371.209"/>
</g>
<!-- Node16 -->
<g id="node31" class="node"><title>Node16</title>
<a xlink:href="classfwStructuralPatch_1_1fwData_1_1Study_1_1V1ToFwMedDataStudyV1.html" target="_top" xlink:title="Transforms a ::fwData::Study to a fwMedData::Study. ">
<polygon fill="white" stroke="black" points="632,-66.5 632,-113.5 794,-113.5 794,-66.5 632,-66.5"/>
<text text-anchor="start" x="640" y="-100.5" font-family="Helvetica,sans-Serif" font-size="10.00">fwStructuralPatch::</text>
<text text-anchor="start" x="640" y="-87.5" font-family="Helvetica,sans-Serif" font-size="10.00">fwData::Study::V1ToFwMedData</text>
<text text-anchor="middle" x="713" y="-74.5" font-family="Helvetica,sans-Serif" font-size="10.00">StudyV1</text>
</a>
</g>
<!-- Node1&#45;&gt;Node16 -->
<g id="edge30" class="edge"><title>Node1&#45;&gt;Node16</title>
<path fill="none" stroke="midnightblue" d="M530.757,-371.651C537.648,-317.193 560.406,-194.315 630,-123 633.357,-119.56 637.119,-116.468 641.137,-113.693"/>
<polygon fill="midnightblue" stroke="midnightblue" points="527.245,-371.552 529.549,-381.893 534.196,-372.372 527.245,-371.552"/>
</g>
<!-- Node17 -->
<g id="node33" class="node"><title>Node17</title>
<a xlink:href="classfwStructuralPatch_1_1fwData_1_1TransformationMatrix3D_1_1V1ToV2.html" target="_top" xlink:title="Structural patch to convert a fwData::Mesh from version &#39;1&#39; to version &#39;2&#39;. ">
<polygon fill="white" stroke="black" points="637,-0.5 637,-47.5 789,-47.5 789,-0.5 637,-0.5"/>
<text text-anchor="start" x="645" y="-34.5" font-family="Helvetica,sans-Serif" font-size="10.00">fwStructuralPatch::</text>
<text text-anchor="start" x="645" y="-21.5" font-family="Helvetica,sans-Serif" font-size="10.00">fwData::TransformationMatrix3</text>
<text text-anchor="middle" x="713" y="-8.5" font-family="Helvetica,sans-Serif" font-size="10.00">D::V1ToV2</text>
</a>
</g>
<!-- Node1&#45;&gt;Node17 -->
<g id="edge32" class="edge"><title>Node1&#45;&gt;Node17</title>
<path fill="none" stroke="midnightblue" d="M532.951,-371.781C546.6,-299.386 586.632,-104.39 630,-57 633.141,-53.5681 636.685,-50.4873 640.495,-47.7226"/>
<polygon fill="midnightblue" stroke="midnightblue" points="529.453,-371.452 531.061,-381.924 536.334,-372.734 529.453,-371.452"/>
</g>
<!-- Node2 -->
<g id="node2" class="node"><title>Node2</title>
<a xlink:href="classfwAtomsPatch_1_1IPatch.html" target="_top" xlink:title="Base class of all patches. ">
<polygon fill="white" stroke="black" points="310,-388.5 310,-409.5 426,-409.5 426,-388.5 310,-388.5"/>
<text text-anchor="middle" x="368" y="-396.5" font-family="Helvetica,sans-Serif" font-size="10.00">fwAtomsPatch::IPatch</text>
</a>
</g>
<!-- Node2&#45;&gt;Node1 -->
<g id="edge2" class="edge"><title>Node2&#45;&gt;Node1</title>
<path fill="none" stroke="midnightblue" d="M436.429,-399C444.895,-399 453.538,-399 461.967,-399"/>
<polygon fill="midnightblue" stroke="midnightblue" points="436.216,-395.5 426.216,-399 436.216,-402.5 436.216,-395.5"/>
</g>
<!-- Node3 -->
<g id="node4" class="node"><title>Node3</title>
<a xlink:href="classfwCore_1_1BaseObject.html" target="_top" xlink:title="Base class for all FW4SPL&#39;s classes. ">
<polygon fill="white" stroke="black" points="168.5,-388.5 168.5,-409.5 273.5,-409.5 273.5,-388.5 168.5,-388.5"/>
<text text-anchor="middle" x="221" y="-396.5" font-family="Helvetica,sans-Serif" font-size="10.00">fwCore::BaseObject</text>
</a>
</g>
<!-- Node3&#45;&gt;Node2 -->
<g id="edge4" class="edge"><title>Node3&#45;&gt;Node2</title>
<path fill="none" stroke="midnightblue" d="M283.75,-399C292.455,-399 301.366,-399 309.98,-399"/>
<polygon fill="midnightblue" stroke="midnightblue" points="283.655,-395.5 273.655,-399 283.655,-402.5 283.655,-395.5"/>
</g>
<!-- Node4 -->
<g id="node6" class="node"><title>Node4</title>
<polygon fill="white" stroke="#bfbfbf" points="0.5,-382 0.5,-416 131.5,-416 131.5,-382 0.5,-382"/>
<text text-anchor="start" x="8.5" y="-403" font-family="Helvetica,sans-Serif" font-size="10.00">std::enable_shared</text>
<text text-anchor="middle" x="66" y="-390" font-family="Helvetica,sans-Serif" font-size="10.00">_from_this&lt; BaseObject &gt;</text>
</g>
<!-- Node4&#45;&gt;Node3 -->
<g id="edge6" class="edge"><title>Node4&#45;&gt;Node3</title>
<path fill="none" stroke="midnightblue" d="M141.815,-399C150.778,-399 159.771,-399 168.315,-399"/>
<polygon fill="midnightblue" stroke="midnightblue" points="141.734,-395.5 131.734,-399 141.734,-402.5 141.734,-395.5"/>
</g>
</g>
</svg>
        <g id="navigator" transform="translate(0 0)" fill="#404254">
                <rect fill="#f2f5e9" fill-opacity="0.5" stroke="#606060" stroke-width=".5" x="0" y="0" width="60" height="60"/>
                <use id="zoomplus" xlink:href="#zoomPlus" x="17" y="9" onmousedown="handleZoom(evt,'in')"/>
                <use id="zoomminus" xlink:href="#zoomMin" x="42" y="9" onmousedown="handleZoom(evt,'out')"/>
                <use id="reset" xlink:href="#resetDef" x="30" y="36" onmousedown="handleReset()"/>
                <g id="arrowUp" xlink:href="#dirArrow" transform="translate(30 24)" onmousedown="handlePan(0,-1)">
                  <use xlink:href="#rim" fill="#404040">
                        <set attributeName="fill" to="#808080" begin="arrowUp.mouseover" end="arrowUp.mouseout"/>
                  </use>
                  <path fill="none" stroke="white" stroke-width="1.5" d="M0,-3.0v7 M-2.5,-0.5L0,-3.0L2.5,-0.5"/>
                </g>
                <g id="arrowRight" xlink:href="#dirArrow" transform="rotate(90) translate(36 -43)" onmousedown="handlePan(1,0)">
                  <use xlink:href="#rim" fill="#404040">
                        <set attributeName="fill" to="#808080" begin="arrowRight.mouseover" end="arrowRight.mouseout"/>
                  </use>
                  <path fill="none" stroke="white" stroke-width="1.5" d="M0,-3.0v7 M-2.5,-0.5L0,-3.0L2.5,-0.5"/>
                </g>
                <g id="arrowDown" xlink:href="#dirArrow" transform="rotate(180) translate(-30 -48)" onmousedown="handlePan(0,1)">
                  <use xlink:href="#rim" fill="#404040">
                        <set attributeName="fill" to="#808080" begin="arrowDown.mouseover" end="arrowDown.mouseout"/>
                  </use>
                  <path fill="none" stroke="white" stroke-width="1.5" d="M0,-3.0v7 M-2.5,-0.5L0,-3.0L2.5,-0.5"/>
                </g>
                <g id="arrowLeft" xlink:href="#dirArrow" transform="rotate(270) translate(-36 17)" onmousedown="handlePan(-1,0)">
                  <use xlink:href="#rim" fill="#404040">
                        <set attributeName="fill" to="#808080" begin="arrowLeft.mouseover" end="arrowLeft.mouseout"/>
                  </use>
                  <path fill="none" stroke="white" stroke-width="1.5" d="M0,-3.0v7 M-2.5,-0.5L0,-3.0L2.5,-0.5"/>
                </g>
        </g>
        <svg viewBox="0 0 15 15" width="100%" height="30px" preserveAspectRatio="xMaxYMin meet">
         <g id="arrow_out" transform="scale(0.3 0.3)">
          <a xlink:href="classfwAtomsPatch_1_1IStructuralPatch__inherit__graph_org.svg" target="_base">
           <rect id="button" ry="5" rx="5" y="6" x="6" height="38" width="38"
                fill="#f2f5e9" fill-opacity="0.5" stroke="#606060" stroke-width="1.0"/>
           <path id="arrow"
             d="M 11.500037,31.436501 C 11.940474,20.09759 22.043105,11.32322 32.158766,21.979434 L 37.068811,17.246167 C 37.068811,17.246167 37.088388,32 37.088388,32 L 22.160133,31.978069 C 22.160133,31.978069 26.997745,27.140456 26.997745,27.140456 C 18.528582,18.264221 13.291696,25.230495 11.500037,31.436501 z"
             style="fill:#404040;"/>
          </a>
         </g>
        </svg>
</svg>
