<?xml version="1.0" encoding="UTF-8" standalone="no"?>
<!DOCTYPE svg PUBLIC "-//W3C//DTD SVG 1.1//EN"
 "http://www.w3.org/Graphics/SVG/1.1/DTD/svg11.dtd">
<!-- Generated by graphviz version 2.26.3 (20100126.1600)
 -->
<!-- Title: ioVTK::SSeriesDBReader::configureWithIHM Pages: 1 -->
<svg width="492pt" height="434pt"
 viewBox="0.00 0.00 492.00 434.00" xmlns="http://www.w3.org/2000/svg" xmlns:xlink="http://www.w3.org/1999/xlink">
<g id="graph1" class="graph" transform="scale(1 1) rotate(0) translate(4 430)">
<title>ioVTK::SSeriesDBReader::configureWithIHM</title>
<polygon fill="white" stroke="white" points="-4,5 -4,-430 489,-430 489,5 -4,5"/>
<!-- Node1 -->
<g id="node1" class="node"><title>Node1</title>
<polygon fill="#bfbfbf" stroke="black" points="0,-202 0,-236 130,-236 130,-202 0,-202"/>
<text text-anchor="start" x="8" y="-223" font-family="Helvetica,sans-Serif" font-size="10.00">ioVTK::SSeriesDBReader</text>
<text text-anchor="middle" x="65" y="-210" font-family="Helvetica,sans-Serif" font-size="10.00">::configureWithIHM</text>
</g>
<!-- Node2 -->
<g id="node3" class="node"><title>Node2</title>
<a xlink:href="classfwGui_1_1dialog_1_1LocationDialog.html#ac2807f263dc1b320c8c85590432cfd65" target="_top" xlink:title="specify some filtering when browsing files: ">
<polygon fill="white" stroke="black" points="166,-392 166,-426 310,-426 310,-392 166,-392"/>
<text text-anchor="start" x="174" y="-413" font-family="Helvetica,sans-Serif" font-size="10.00">fwGui::dialog::LocationDialog</text>
<text text-anchor="middle" x="238" y="-400" font-family="Helvetica,sans-Serif" font-size="10.00">::addFilter</text>
</a>
</g>
<!-- Node1&#45;&gt;Node2 -->
<g id="edge2" class="edge"><title>Node1&#45;&gt;Node2</title>
<path fill="none" stroke="midnightblue" d="M71.1437,-236.253C83.7832,-269.372 115.797,-342.181 166,-383 167.547,-384.258 169.159,-385.457 170.825,-386.601"/>
<polygon fill="midnightblue" stroke="midnightblue" points="169.165,-389.688 179.533,-391.869 172.788,-383.698 169.165,-389.688"/>
</g>
<!-- Node3 -->
<g id="node5" class="node"><title>Node3</title>
<a xlink:href="classio_1_1IReader.html#aa27f4602b0fd733eb3f69820c2bba8e2" target="_top" xlink:title="Clear any location set by the setFile/setFiles/setFolder setter. ">
<polygon fill="white" stroke="black" points="171,-352.5 171,-373.5 305,-373.5 305,-352.5 171,-352.5"/>
<text text-anchor="middle" x="238" y="-360.5" font-family="Helvetica,sans-Serif" font-size="10.00">io::IReader::clearLocations</text>
</a>
</g>
<!-- Node1&#45;&gt;Node3 -->
<g id="edge4" class="edge"><title>Node1&#45;&gt;Node3</title>
<path fill="none" stroke="midnightblue" d="M74.3271,-236.274C89.7717,-263.214 123.242,-315.041 166,-343 169.115,-345.037 172.436,-346.868 175.877,-348.515"/>
<polygon fill="midnightblue" stroke="midnightblue" points="174.637,-351.79 185.211,-352.456 177.36,-345.342 174.637,-351.79"/>
</g>
<!-- Node4 -->
<g id="node7" class="node"><title>Node4</title>
<a xlink:href="classfwGui_1_1dialog_1_1LocationDialog.html#ac9089689132bcc8570ac04165effbcf4" target="_top" xlink:title="Save the specified default location for the dialog in preferences (if available) ">
<polygon fill="white" stroke="black" points="166,-300 166,-334 310,-334 310,-300 166,-300"/>
<text text-anchor="start" x="174" y="-321" font-family="Helvetica,sans-Serif" font-size="10.00">fwGui::dialog::LocationDialog</text>
<text text-anchor="middle" x="238" y="-308" font-family="Helvetica,sans-Serif" font-size="10.00">::saveDefaultLocation</text>
</a>
</g>
<!-- Node1&#45;&gt;Node4 -->
<g id="edge6" class="edge"><title>Node1&#45;&gt;Node4</title>
<path fill="none" stroke="midnightblue" d="M85.5749,-236.235C105.252,-252.076 136.249,-275.4 166,-291 169.252,-292.705 172.64,-294.345 176.097,-295.913"/>
<polygon fill="midnightblue" stroke="midnightblue" points="174.796,-299.163 185.365,-299.896 177.559,-292.732 174.796,-299.163"/>
</g>
<!-- Node5 -->
<g id="node9" class="node"><title>Node5</title>
<a xlink:href="classfwGui_1_1dialog_1_1LocationDialog.html#a3b0e0ea5f0b57d21986daa33ef83d732" target="_top" xlink:title="Set the initial location for the dialog. ">
<polygon fill="white" stroke="black" points="166,-248 166,-282 310,-282 310,-248 166,-248"/>
<text text-anchor="start" x="174" y="-269" font-family="Helvetica,sans-Serif" font-size="10.00">fwGui::dialog::LocationDialog</text>
<text text-anchor="middle" x="238" y="-256" font-family="Helvetica,sans-Serif" font-size="10.00">::setDefaultLocation</text>
</a>
</g>
<!-- Node1&#45;&gt;Node5 -->
<g id="edge8" class="edge"><title>Node1&#45;&gt;Node5</title>
<path fill="none" stroke="midnightblue" d="M129.419,-236.129C140.638,-239.112 152.389,-242.236 163.845,-245.282"/>
<polygon fill="midnightblue" stroke="midnightblue" points="163.252,-248.746 173.816,-247.934 165.051,-241.981 163.252,-248.746"/>
</g>
<!-- Node6 -->
<g id="node11" class="node"><title>Node6</title>
<a xlink:href="classio_1_1IReader.html#ab88bb607b2ae550cb250628f0e1b26a2" target="_top" xlink:title="Sets file paths. ">
<polygon fill="white" stroke="black" points="185.5,-208.5 185.5,-229.5 290.5,-229.5 290.5,-208.5 185.5,-208.5"/>
<text text-anchor="middle" x="238" y="-216.5" font-family="Helvetica,sans-Serif" font-size="10.00">io::IReader::setFiles</text>
</a>
</g>
<!-- Node1&#45;&gt;Node6 -->
<g id="edge10" class="edge"><title>Node1&#45;&gt;Node6</title>
<path fill="none" stroke="midnightblue" d="M130.404,-219C145.033,-219 160.52,-219 175.047,-219"/>
<polygon fill="midnightblue" stroke="midnightblue" points="175.43,-222.5 185.43,-219 175.43,-215.5 175.43,-222.5"/>
</g>
<!-- Node8 -->
<g id="node15" class="node"><title>Node8</title>
<a xlink:href="classfwGui_1_1dialog_1_1LocationDialog.html#a5ea39af6405130f2c6ef27a2820be238" target="_top" xlink:title="allow to set option to the file dialog mode=READ/WRITE, check=FILE_MUST_EXIST ">
<polygon fill="white" stroke="black" points="166,-156 166,-190 310,-190 310,-156 166,-156"/>
<text text-anchor="start" x="174" y="-177" font-family="Helvetica,sans-Serif" font-size="10.00">fwGui::dialog::LocationDialog</text>
<text text-anchor="middle" x="238" y="-164" font-family="Helvetica,sans-Serif" font-size="10.00">::setOption</text>
</a>
</g>
<!-- Node1&#45;&gt;Node8 -->
<g id="edge14" class="edge"><title>Node1&#45;&gt;Node8</title>
<path fill="none" stroke="midnightblue" d="M129.419,-201.871C140.638,-198.888 152.389,-195.764 163.845,-192.718"/>
<polygon fill="midnightblue" stroke="midnightblue" points="165.051,-196.019 173.816,-190.066 163.252,-189.254 165.051,-196.019"/>
</g>
<!-- Node9 -->
<g id="node17" class="node"><title>Node9</title>
<a xlink:href="classfwGui_1_1dialog_1_1LocationDialog.html#a9682346d8118fcb4f9fe4caf4eaa76c0" target="_top" xlink:title="Set the title for the dialog. ">
<polygon fill="white" stroke="black" points="166,-104 166,-138 310,-138 310,-104 166,-104"/>
<text text-anchor="start" x="174" y="-125" font-family="Helvetica,sans-Serif" font-size="10.00">fwGui::dialog::LocationDialog</text>
<text text-anchor="middle" x="238" y="-112" font-family="Helvetica,sans-Serif" font-size="10.00">::setTitle</text>
</a>
</g>
<!-- Node1&#45;&gt;Node9 -->
<g id="edge16" class="edge"><title>Node1&#45;&gt;Node9</title>
<path fill="none" stroke="midnightblue" d="M85.5749,-201.765C105.252,-185.924 136.249,-162.6 166,-147 169.252,-145.295 172.64,-143.655 176.097,-142.087"/>
<polygon fill="midnightblue" stroke="midnightblue" points="177.559,-145.268 185.365,-138.104 174.796,-138.837 177.559,-145.268"/>
</g>
<!-- Node10 -->
<g id="node19" class="node"><title>Node10</title>
<a xlink:href="classfwGui_1_1dialog_1_1LocationDialog.html#a1382f6205288dc457f233c67a2f0284e" target="_top" xlink:title="Set the type of location for the dialog (SINGLE_FILE, FORLDER, MULTI_FILES) ">
<polygon fill="white" stroke="black" points="166,-52 166,-86 310,-86 310,-52 166,-52"/>
<text text-anchor="start" x="174" y="-73" font-family="Helvetica,sans-Serif" font-size="10.00">fwGui::dialog::LocationDialog</text>
<text text-anchor="middle" x="238" y="-60" font-family="Helvetica,sans-Serif" font-size="10.00">::setType</text>
</a>
</g>
<!-- Node1&#45;&gt;Node10 -->
<g id="edge18" class="edge"><title>Node1&#45;&gt;Node10</title>
<path fill="none" stroke="midnightblue" d="M74.8442,-201.672C90.7523,-175.128 124.555,-124.394 166,-95 167.894,-93.6569 169.864,-92.3761 171.892,-91.1552"/>
<polygon fill="midnightblue" stroke="midnightblue" points="173.961,-94.0153 181.093,-86.1797 170.631,-87.858 173.961,-94.0153"/>
</g>
<!-- Node11 -->
<g id="node21" class="node"><title>Node11</title>
<a xlink:href="classfwGui_1_1dialog_1_1LocationDialog.html#a6733599f0a055082253618428082766f" target="_top" xlink:title="Display the dialog. ">
<polygon fill="white" stroke="black" points="166,-0 166,-34 310,-34 310,-0 166,-0"/>
<text text-anchor="start" x="174" y="-21" font-family="Helvetica,sans-Serif" font-size="10.00">fwGui::dialog::LocationDialog</text>
<text text-anchor="middle" x="238" y="-8" font-family="Helvetica,sans-Serif" font-size="10.00">::show</text>
</a>
</g>
<!-- Node1&#45;&gt;Node11 -->
<g id="edge20" class="edge"><title>Node1&#45;&gt;Node11</title>
<path fill="none" stroke="midnightblue" d="M70.3271,-201.843C82.0021,-166.974 113.107,-87.3866 166,-43 167.365,-41.8547 168.784,-40.758 170.248,-39.7081"/>
<polygon fill="midnightblue" stroke="midnightblue" points="172.443,-42.4639 179.062,-34.1916 168.729,-36.5303 172.443,-42.4639"/>
</g>
<!-- Node7 -->
<g id="node13" class="node"><title>Node7</title>
<a xlink:href="classio_1_1IReader.html#ac73aed04c8a34ddfb41dc006440e50ad" target="_top" xlink:title="This method must be implemented by concrete service readers that use path file system to read data...">
<polygon fill="white" stroke="black" points="346.5,-208.5 346.5,-229.5 483.5,-229.5 483.5,-208.5 346.5,-208.5"/>
<text text-anchor="middle" x="415" y="-216.5" font-family="Helvetica,sans-Serif" font-size="10.00">io::IReader::getIOPathType</text>
</a>
</g>
<!-- Node6&#45;&gt;Node7 -->
<g id="edge12" class="edge"><title>Node6&#45;&gt;Node7</title>
<path fill="none" stroke="midnightblue" d="M290.627,-219C305.005,-219 320.903,-219 336.393,-219"/>
<polygon fill="midnightblue" stroke="midnightblue" points="336.492,-222.5 346.492,-219 336.492,-215.5 336.492,-222.5"/>
</g>
<!-- Node12 -->
<g id="node23" class="node"><title>Node12</title>
<a xlink:href="classfwGui_1_1dialog_1_1ILocationDialog.html#afe365e8bbb4d1aa519e2d003eefe4070" target="_top" xlink:title="fwGui::dialog::ILocation\lDialog::show">
<polygon fill="white" stroke="black" points="355.5,-0 355.5,-34 474.5,-34 474.5,-0 355.5,-0"/>
<text text-anchor="start" x="363.5" y="-21" font-family="Helvetica,sans-Serif" font-size="10.00">fwGui::dialog::ILocation</text>
<text text-anchor="middle" x="415" y="-8" font-family="Helvetica,sans-Serif" font-size="10.00">Dialog::show</text>
</a>
</g>
<!-- Node11&#45;&gt;Node12 -->
<g id="edge22" class="edge"><title>Node11&#45;&gt;Node12</title>
<path fill="none" stroke="midnightblue" d="M310.248,-17C321.856,-17 333.849,-17 345.393,-17"/>
<polygon fill="midnightblue" stroke="midnightblue" points="345.401,-20.5001 355.401,-17 345.401,-13.5001 345.401,-20.5001"/>
</g>
</g>
</svg>
