<?xml version="1.0" encoding="UTF-8" standalone="no"?>
<!DOCTYPE svg PUBLIC "-//W3C//DTD SVG 1.1//EN"
 "http://www.w3.org/Graphics/SVG/1.1/DTD/svg11.dtd">
<!-- Generated by graphviz version 2.36.0 (20140111.2315)
 -->
<!-- Title: uiMedDataQt::widget::Selector::getSeries Pages: 1 -->
<svg width="466pt" height="87pt"
 viewBox="0.00 0.00 466.00 87.00" xmlns="http://www.w3.org/2000/svg" xmlns:xlink="http://www.w3.org/1999/xlink">
<g id="graph0" class="graph" transform="scale(1 1) rotate(0) translate(4 83)">
<title>uiMedDataQt::widget::Selector::getSeries</title>
<polygon fill="white" stroke="none" points="-4,4 -4,-83 462,-83 462,4 -4,4"/>
<!-- Node1 -->
<g id="node1" class="node"><title>Node1</title>
<polygon fill="#bfbfbf" stroke="black" points="0.5,-24 0.5,-54 109.5,-54 109.5,-24 0.5,-24"/>
<text text-anchor="start" x="8.5" y="-42" font-family="Helvetica,sans-Serif" font-size="10.00">uiMedDataQt::widget</text>
<text text-anchor="middle" x="55" y="-31" font-family="Helvetica,sans-Serif" font-size="10.00">::Selector::getSeries</text>
</g>
<!-- Node2 -->
<g id="node2" class="node"><title>Node2</title>
<g id="a_node2"><a xlink:href="classuiMedDataQt_1_1widget_1_1Selector.html#aea7d3cda5f1e7c1e1c295e25d760434a" target="_top" xlink:title="Deletes the selected items and notify the deleted series. ">
<polygon fill="white" stroke="black" points="152.5,-49 152.5,-79 283.5,-79 283.5,-49 152.5,-49"/>
<text text-anchor="start" x="160.5" y="-67" font-family="Helvetica,sans-Serif" font-size="10.00">uiMedDataQt::widget</text>
<text text-anchor="middle" x="218" y="-56" font-family="Helvetica,sans-Serif" font-size="10.00">::Selector::deleteSelection</text>
</a>
</g>
</g>
<!-- Node1&#45;&gt;Node2 -->
<g id="edge1" class="edge"><title>Node1&#45;&gt;Node2</title>
<path fill="none" stroke="midnightblue" d="M119.761,-48.9007C130.508,-50.5696 141.672,-52.3031 152.439,-53.975"/>
<polygon fill="midnightblue" stroke="midnightblue" points="120.029,-45.4006 109.611,-47.3246 118.955,-52.3177 120.029,-45.4006"/>
</g>
<!-- Node4 -->
<g id="node4" class="node"><title>Node4</title>
<g id="a_node4"><a xlink:href="classuiMedDataQt_1_1widget_1_1Selector.html#a4ba7fd6a12528da27759c4d8624e7ce8" target="_top" xlink:title="Slot called when the selection changed. Emits a signal containing the new selected/deselected series...">
<polygon fill="white" stroke="black" points="146.5,-0 146.5,-30 289.5,-30 289.5,-0 146.5,-0"/>
<text text-anchor="start" x="154.5" y="-18" font-family="Helvetica,sans-Serif" font-size="10.00">uiMedDataQt::widget</text>
<text text-anchor="middle" x="218" y="-7" font-family="Helvetica,sans-Serif" font-size="10.00">::Selector::selectionChanged</text>
</a>
</g>
</g>
<!-- Node1&#45;&gt;Node4 -->
<g id="edge3" class="edge"><title>Node1&#45;&gt;Node4</title>
<path fill="none" stroke="midnightblue" d="M119.747,-29.4973C128.513,-28.1906 137.557,-26.8425 146.436,-25.5188"/>
<polygon fill="midnightblue" stroke="midnightblue" points="118.985,-26.0721 109.611,-31.0083 120.017,-32.9956 118.985,-26.0721"/>
</g>
<!-- Node3 -->
<g id="node3" class="node"><title>Node3</title>
<g id="a_node3"><a xlink:href="classuiMedDataQt_1_1widget_1_1Selector.html#a9497c20b855e53c95a39e7f2b805bacd" target="_top" xlink:title="Catch the delete key event and remove the selected items. ">
<polygon fill="white" stroke="black" points="326.5,-49 326.5,-79 457.5,-79 457.5,-49 326.5,-49"/>
<text text-anchor="start" x="334.5" y="-67" font-family="Helvetica,sans-Serif" font-size="10.00">uiMedDataQt::widget</text>
<text text-anchor="middle" x="392" y="-56" font-family="Helvetica,sans-Serif" font-size="10.00">::Selector::keyPressEvent</text>
</a>
</g>
</g>
<!-- Node2&#45;&gt;Node3 -->
<g id="edge2" class="edge"><title>Node2&#45;&gt;Node3</title>
<path fill="none" stroke="midnightblue" d="M293.837,-64C304.682,-64 315.768,-64 326.389,-64"/>
<polygon fill="midnightblue" stroke="midnightblue" points="293.536,-60.5001 283.536,-64 293.536,-67.5001 293.536,-60.5001"/>
</g>
</g>
</svg>
