<?xml version="1.0" encoding="UTF-8" standalone="no"?>
<!DOCTYPE svg PUBLIC "-//W3C//DTD SVG 1.1//EN"
 "http://www.w3.org/Graphics/SVG/1.1/DTD/svg11.dtd">
<!-- Generated by graphviz version 2.36.0 (20140111.2315)
 -->
<!-- Title: fwTools::fwID Pages: 1 -->
<!--zoomable 1559 -->
<svg id="main" version="1.1" xmlns="http://www.w3.org/2000/svg" xmlns:xlink="http://www.w3.org/1999/xlink" xml:space="preserve" onload="init(evt)">
<style type="text/css"><![CDATA[
.edge:hover path { stroke: red; }
.edge:hover polygon { stroke: red; fill: red; }
]]></style>
<script type="text/javascript"><![CDATA[
var edges = document.getElementsByTagName('g');
if (edges && edges.length) {
  for (var i=0;i<edges.length;i++) {
    if (edges[i].id.substr(0,4)=='edge') {
      edges[i].setAttribute('class','edge');
    }
  }
}
]]></script>
        <defs>
                <circle id="rim" cx="0" cy="0" r="7"/>
                <circle id="rim2" cx="0" cy="0" r="3.5"/>
                <g id="zoomPlus">
                        <use xlink:href="#rim" fill="#404040">
                                <set attributeName="fill" to="#808080" begin="zoomplus.mouseover" end="zoomplus.mouseout"/>
                        </use>
                        <path d="M-4,0h8M0,-4v8" fill="none" stroke="white" stroke-width="1.5" pointer-events="none"/>
                </g>
                <g id="zoomMin">
                        <use xlink:href="#rim" fill="#404040">
                                <set attributeName="fill" to="#808080" begin="zoomminus.mouseover" end="zoomminus.mouseout"/>
                        </use>
                        <path d="M-4,0h8" fill="none" stroke="white" stroke-width="1.5" pointer-events="none"/>
                </g>
                <g id="dirArrow">
                        <path fill="none" stroke="white" stroke-width="1.5" d="M0,-3.0v7 M-2.5,-0.5L0,-3.0L2.5,-0.5"/>
                </g>
               <g id="resetDef">
                       <use xlink:href="#rim2" fill="#404040">
                               <set attributeName="fill" to="#808080" begin="reset.mouseover" end="reset.mouseout"/>
                       </use>
               </g>
        </defs>

<script type="text/javascript">
var viewWidth = 610;
var viewHeight = 1559;
var sectionId = 'dynsection-0';
</script>
<script xlink:href="svgpan.js"/>
<svg id="graph" class="graph">
<g id="viewport">
<title>fwTools::fwID</title>
<polygon fill="white" stroke="none" points="-4,4 -4,-1555 606,-1555 606,4 -4,4"/>
<!-- Node1 -->
<g id="node1" class="node"><title>Node1</title>
<polygon fill="#bfbfbf" stroke="black" points="0,-703.5 0,-722.5 78,-722.5 78,-703.5 0,-703.5"/>
<text text-anchor="middle" x="39" y="-710.5" font-family="Helvetica,sans-Serif" font-size="10.00">fwTools::fwID</text>
</g>
<!-- Node2 -->
<g id="node2" class="node"><title>Node2</title>
<g id="a_node2"><a xlink:href="classfwTools_1_1Object.html" target="_top" xlink:title="Define Base class for FW4SPL objects and services. ">
<polygon fill="white" stroke="black" points="114,-703.5 114,-722.5 200,-722.5 200,-703.5 114,-703.5"/>
<text text-anchor="middle" x="157" y="-710.5" font-family="Helvetica,sans-Serif" font-size="10.00">fwTools::Object</text>
</a>
</g>
</g>
<!-- Node1&#45;&gt;Node2 -->
<g id="edge1" class="edge"><title>Node1&#45;&gt;Node2</title>
<path fill="none" stroke="darkgreen" d="M88.3842,-713C96.8016,-713 105.497,-713 113.734,-713"/>
<polygon fill="darkgreen" stroke="darkgreen" points="88.3043,-709.5 78.3042,-713 88.3042,-716.5 88.3043,-709.5"/>
</g>
<!-- Node3 -->
<g id="node3" class="node"><title>Node3</title>
<g id="a_node3"><a xlink:href="classfwAtomsPatch_1_1patcher_1_1IPatcher.html" target="_top" xlink:title="Base class of all patchers. ">
<polygon fill="white" stroke="black" points="255.5,-1160 255.5,-1190 374.5,-1190 374.5,-1160 255.5,-1160"/>
<text text-anchor="start" x="263.5" y="-1178" font-family="Helvetica,sans-Serif" font-size="10.00">fwAtomsPatch::patcher</text>
<text text-anchor="middle" x="315" y="-1167" font-family="Helvetica,sans-Serif" font-size="10.00">::IPatcher</text>
</a>
</g>
</g>
<!-- Node2&#45;&gt;Node3 -->
<g id="edge2" class="edge"><title>Node2&#45;&gt;Node3</title>
<path fill="none" stroke="midnightblue" d="M164.569,-732.453C190.519,-809.307 285.617,-1090.94 308.853,-1159.76"/>
<polygon fill="midnightblue" stroke="midnightblue" points="167.774,-731.004 161.258,-722.65 161.141,-733.244 167.774,-731.004"/>
</g>
<!-- Node5 -->
<g id="node5" class="node"><title>Node5</title>
<g id="a_node5"><a xlink:href="classfwData_1_1Object.html" target="_top" xlink:title="Base class for each data object. ">
<polygon fill="white" stroke="black" points="273.5,-760.5 273.5,-779.5 356.5,-779.5 356.5,-760.5 273.5,-760.5"/>
<text text-anchor="middle" x="315" y="-767.5" font-family="Helvetica,sans-Serif" font-size="10.00">fwData::Object</text>
</a>
</g>
</g>
<!-- Node2&#45;&gt;Node5 -->
<g id="edge4" class="edge"><title>Node2&#45;&gt;Node5</title>
<path fill="none" stroke="midnightblue" d="M183.986,-727.403C198.872,-735.206 218.1,-744.544 236,-751 247.931,-755.303 261.236,-758.948 273.43,-761.858"/>
<polygon fill="midnightblue" stroke="midnightblue" points="185.357,-724.168 174.888,-722.542 182.059,-730.342 185.357,-724.168"/>
</g>
<!-- Node46 -->
<g id="node46" class="node"><title>Node46</title>
<g id="a_node46"><a xlink:href="classfwDicomIOFilter_1_1IFilter.html" target="_top" xlink:title="Base class for Dicom instance filter. ">
<polygon fill="white" stroke="red" points="255.5,-722.5 255.5,-741.5 374.5,-741.5 374.5,-722.5 255.5,-722.5"/>
<text text-anchor="middle" x="315" y="-729.5" font-family="Helvetica,sans-Serif" font-size="10.00">fwDicomIOFilter::IFilter</text>
</a>
</g>
</g>
<!-- Node2&#45;&gt;Node46 -->
<g id="edge45" class="edge"><title>Node2&#45;&gt;Node46</title>
<path fill="none" stroke="midnightblue" d="M210.453,-719.388C224.875,-721.145 240.606,-723.061 255.353,-724.857"/>
<polygon fill="midnightblue" stroke="midnightblue" points="210.566,-715.876 200.216,-718.142 209.719,-722.825 210.566,-715.876"/>
</g>
<!-- Node47 -->
<g id="node47" class="node"><title>Node47</title>
<g id="a_node47"><a xlink:href="classfwLog_1_1Logger.html" target="_top" xlink:title="Logger class used to store logs. ">
<polygon fill="white" stroke="black" points="276,-684.5 276,-703.5 354,-703.5 354,-684.5 276,-684.5"/>
<text text-anchor="middle" x="315" y="-691.5" font-family="Helvetica,sans-Serif" font-size="10.00">fwLog::Logger</text>
</a>
</g>
</g>
<!-- Node2&#45;&gt;Node47 -->
<g id="edge46" class="edge"><title>Node2&#45;&gt;Node47</title>
<path fill="none" stroke="midnightblue" d="M210.157,-706.648C231.61,-704.035 256.003,-701.064 275.755,-698.658"/>
<polygon fill="midnightblue" stroke="midnightblue" points="209.719,-703.175 200.216,-707.858 210.566,-710.124 209.719,-703.175"/>
</g>
<!-- Node48 -->
<g id="node48" class="node"><title>Node48</title>
<g id="a_node48"><a xlink:href="classfwServices_1_1IAppConfigManager.html" target="_top" xlink:title="This class provides an interface to manage configurations template. ">
<polygon fill="white" stroke="red" points="236,-646.5 236,-665.5 394,-665.5 394,-646.5 236,-646.5"/>
<text text-anchor="middle" x="315" y="-653.5" font-family="Helvetica,sans-Serif" font-size="10.00">fwServices::IAppConfigManager</text>
</a>
</g>
</g>
<!-- Node2&#45;&gt;Node48 -->
<g id="edge47" class="edge"><title>Node2&#45;&gt;Node48</title>
<path fill="none" stroke="midnightblue" d="M183.986,-698.597C198.872,-690.794 218.1,-681.456 236,-675 246.095,-671.359 257.174,-668.189 267.732,-665.537"/>
<polygon fill="midnightblue" stroke="midnightblue" points="182.059,-695.658 174.888,-703.458 185.357,-701.832 182.059,-695.658"/>
</g>
<!-- Node49 -->
<g id="node49" class="node"><title>Node49</title>
<g id="a_node49"><a xlink:href="classfwServices_1_1IService.html" target="_top" xlink:title="Base class for all services. ">
<polygon fill="white" stroke="red" points="261.5,-608.5 261.5,-627.5 368.5,-627.5 368.5,-608.5 261.5,-608.5"/>
<text text-anchor="middle" x="315" y="-615.5" font-family="Helvetica,sans-Serif" font-size="10.00">fwServices::IService</text>
</a>
</g>
</g>
<!-- Node2&#45;&gt;Node49 -->
<g id="edge48" class="edge"><title>Node2&#45;&gt;Node49</title>
<path fill="none" stroke="midnightblue" d="M171.49,-695.166C185.655,-677.708 209.519,-651.662 236,-637 243.804,-632.679 252.581,-629.331 261.356,-626.74"/>
<polygon fill="midnightblue" stroke="midnightblue" points="168.439,-693.383 165.004,-703.406 173.939,-697.713 168.439,-693.383"/>
</g>
<!-- Node4 -->
<g id="node4" class="node"><title>Node4</title>
<g id="a_node4"><a xlink:href="classfwAtomsPatch_1_1patcher_1_1DefaultPatcher.html" target="_top" xlink:title="Default patcher. ">
<polygon fill="white" stroke="red" points="456.5,-1521 456.5,-1551 575.5,-1551 575.5,-1521 456.5,-1521"/>
<text text-anchor="start" x="464.5" y="-1539" font-family="Helvetica,sans-Serif" font-size="10.00">fwAtomsPatch::patcher</text>
<text text-anchor="middle" x="516" y="-1528" font-family="Helvetica,sans-Serif" font-size="10.00">::DefaultPatcher</text>
</a>
</g>
</g>
<!-- Node3&#45;&gt;Node4 -->
<g id="edge3" class="edge"><title>Node3&#45;&gt;Node4</title>
<path fill="none" stroke="midnightblue" d="M316.991,-1200.4C320.82,-1262.66 339.442,-1424.09 430,-1511 437.324,-1518.03 446.522,-1523.1 456.14,-1526.75"/>
<polygon fill="midnightblue" stroke="midnightblue" points="320.48,-1200.1 316.449,-1190.3 313.49,-1200.47 320.48,-1200.1"/>
</g>
<!-- Node6 -->
<g id="node6" class="node"><title>Node6</title>
<g id="a_node6"><a xlink:href="classfwData_1_1Array.html" target="_top" xlink:title="Provides a way to manage a view on a multidimentionnal array. ">
<polygon fill="white" stroke="black" points="477.5,-1482.5 477.5,-1501.5 554.5,-1501.5 554.5,-1482.5 477.5,-1482.5"/>
<text text-anchor="middle" x="516" y="-1489.5" font-family="Helvetica,sans-Serif" font-size="10.00">fwData::Array</text>
</a>
</g>
</g>
<!-- Node5&#45;&gt;Node6 -->
<g id="edge5" class="edge"><title>Node5&#45;&gt;Node6</title>
<path fill="none" stroke="midnightblue" d="M320.682,-789.588C333.91,-845.522 372.02,-1010.91 394,-1150 405.273,-1221.34 381.787,-1419.23 430,-1473 441.81,-1486.17 460.58,-1491.27 477.481,-1492.93"/>
<polygon fill="midnightblue" stroke="midnightblue" points="324.033,-788.55 318.316,-779.63 317.223,-790.168 324.033,-788.55"/>
</g>
<!-- Node7 -->
<g id="node7" class="node"><title>Node7</title>
<g id="a_node7"><a xlink:href="classfwData_1_1Color.html" target="_top" xlink:title="This class defines color object. ">
<polygon fill="white" stroke="black" points="477.5,-1444.5 477.5,-1463.5 554.5,-1463.5 554.5,-1444.5 477.5,-1444.5"/>
<text text-anchor="middle" x="516" y="-1451.5" font-family="Helvetica,sans-Serif" font-size="10.00">fwData::Color</text>
</a>
</g>
</g>
<!-- Node5&#45;&gt;Node7 -->
<g id="edge6" class="edge"><title>Node5&#45;&gt;Node7</title>
<path fill="none" stroke="midnightblue" d="M320.58,-789.604C333.537,-845.583 371.002,-1011.07 394,-1150 404.426,-1212.98 387.038,-1387.78 430,-1435 441.805,-1447.97 460.364,-1453.09 477.132,-1454.81"/>
<polygon fill="midnightblue" stroke="midnightblue" points="323.937,-788.586 318.264,-779.638 317.118,-790.171 323.937,-788.586"/>
</g>
<!-- Node8 -->
<g id="node8" class="node"><title>Node8</title>
<g id="a_node8"><a xlink:href="classfwData_1_1Composite.html" target="_top" xlink:title="This class defines a composite object. ">
<polygon fill="white" stroke="black" points="465.5,-1406.5 465.5,-1425.5 566.5,-1425.5 566.5,-1406.5 465.5,-1406.5"/>
<text text-anchor="middle" x="516" y="-1413.5" font-family="Helvetica,sans-Serif" font-size="10.00">fwData::Composite</text>
</a>
</g>
</g>
<!-- Node5&#45;&gt;Node8 -->
<g id="edge7" class="edge"><title>Node5&#45;&gt;Node8</title>
<path fill="none" stroke="midnightblue" d="M320.446,-789.627C333.051,-845.665 369.677,-1011.3 394,-1150 403.581,-1204.64 392.279,-1356.33 430,-1397 439.152,-1406.87 452.214,-1412.17 465.361,-1414.89"/>
<polygon fill="midnightblue" stroke="midnightblue" points="323.811,-788.634 318.195,-779.65 316.982,-790.175 323.811,-788.634"/>
</g>
<!-- Node9 -->
<g id="node9" class="node"><title>Node9</title>
<g id="a_node9"><a xlink:href="classfwData_1_1Edge.html" target="_top" xlink:title="This class defines an edge object. ">
<polygon fill="white" stroke="black" points="477.5,-1368.5 477.5,-1387.5 554.5,-1387.5 554.5,-1368.5 477.5,-1368.5"/>
<text text-anchor="middle" x="516" y="-1375.5" font-family="Helvetica,sans-Serif" font-size="10.00">fwData::Edge</text>
</a>
</g>
</g>
<!-- Node5&#45;&gt;Node9 -->
<g id="edge8" class="edge"><title>Node5&#45;&gt;Node9</title>
<path fill="none" stroke="midnightblue" d="M320.266,-789.66C332.395,-845.785 367.887,-1011.62 394,-1150 402.739,-1196.31 397.507,-1324.86 430,-1359 442.093,-1371.71 460.679,-1376.8 477.391,-1378.57"/>
<polygon fill="midnightblue" stroke="midnightblue" points="323.639,-788.7 318.103,-779.667 316.798,-790.181 323.639,-788.7"/>
</g>
<!-- Node10 -->
<g id="node10" class="node"><title>Node10</title>
<g id="a_node10"><a xlink:href="classfwData_1_1GenericFieldBase.html" target="_top" xlink:title="GenericFieldBase define common operation on simple data. ">
<polygon fill="white" stroke="red" points="450.5,-1330.5 450.5,-1349.5 581.5,-1349.5 581.5,-1330.5 450.5,-1330.5"/>
<text text-anchor="middle" x="516" y="-1337.5" font-family="Helvetica,sans-Serif" font-size="10.00">fwData::GenericFieldBase</text>
</a>
</g>
</g>
<!-- Node5&#45;&gt;Node10 -->
<g id="edge9" class="edge"><title>Node5&#45;&gt;Node10</title>
<path fill="none" stroke="midnightblue" d="M320.007,-789.548C340.081,-887.441 428.785,-1319.77 430,-1321 435.728,-1326.82 442.821,-1331.03 450.449,-1334.05"/>
<polygon fill="midnightblue" stroke="midnightblue" points="323.393,-788.633 317.956,-779.54 316.535,-790.039 323.393,-788.633"/>
</g>
<!-- Node11 -->
<g id="node11" class="node"><title>Node11</title>
<g id="a_node11"><a xlink:href="classfwData_1_1Graph.html" target="_top" xlink:title="This class defines a graph object. ">
<polygon fill="white" stroke="black" points="476,-1292.5 476,-1311.5 556,-1311.5 556,-1292.5 476,-1292.5"/>
<text text-anchor="middle" x="516" y="-1299.5" font-family="Helvetica,sans-Serif" font-size="10.00">fwData::Graph</text>
</a>
</g>
</g>
<!-- Node5&#45;&gt;Node11 -->
<g id="edge10" class="edge"><title>Node5&#45;&gt;Node11</title>
<path fill="none" stroke="midnightblue" d="M320.059,-789.61C339.315,-882.474 420.91,-1273.9 430,-1283 441.968,-1294.98 459.733,-1300.12 475.933,-1302.1"/>
<polygon fill="midnightblue" stroke="midnightblue" points="323.44,-788.68 317.984,-779.598 316.586,-790.101 323.44,-788.68"/>
</g>
<!-- Node12 -->
<g id="node12" class="node"><title>Node12</title>
<g id="a_node12"><a xlink:href="classfwData_1_1Histogram.html" target="_top" xlink:title="This class defines the histogram of an image. ">
<polygon fill="white" stroke="black" points="466.5,-1254.5 466.5,-1273.5 565.5,-1273.5 565.5,-1254.5 466.5,-1254.5"/>
<text text-anchor="middle" x="516" y="-1261.5" font-family="Helvetica,sans-Serif" font-size="10.00">fwData::Histogram</text>
</a>
</g>
</g>
<!-- Node5&#45;&gt;Node12 -->
<g id="edge11" class="edge"><title>Node5&#45;&gt;Node12</title>
<path fill="none" stroke="midnightblue" d="M319.42,-789.454C334.552,-874.609 396.237,-1211.76 430,-1245 439.698,-1254.55 453.083,-1259.73 466.363,-1262.44"/>
<polygon fill="midnightblue" stroke="midnightblue" points="322.858,-788.796 317.67,-779.558 315.965,-790.015 322.858,-788.796"/>
</g>
<!-- Node13 -->
<g id="node13" class="node"><title>Node13</title>
<g id="a_node13"><a xlink:href="classfwData_1_1Image.html" target="_top" xlink:title="This class defines an image. ">
<polygon fill="white" stroke="black" points="475.5,-1216.5 475.5,-1235.5 556.5,-1235.5 556.5,-1216.5 475.5,-1216.5"/>
<text text-anchor="middle" x="516" y="-1223.5" font-family="Helvetica,sans-Serif" font-size="10.00">fwData::Image</text>
</a>
</g>
</g>
<!-- Node5&#45;&gt;Node13 -->
<g id="edge12" class="edge"><title>Node5&#45;&gt;Node13</title>
<path fill="none" stroke="midnightblue" d="M318.421,-789.734C328.285,-866.918 367.892,-1147.05 430,-1207 441.967,-1218.55 459.344,-1223.68 475.271,-1225.78"/>
<polygon fill="midnightblue" stroke="midnightblue" points="321.856,-788.996 317.138,-779.509 314.911,-789.867 321.856,-788.996"/>
</g>
<!-- Node14 -->
<g id="node14" class="node"><title>Node14</title>
<g id="a_node14"><a xlink:href="classfwData_1_1Landmarks.html" target="_top" xlink:title="This class defines a list of 3D points inside groups. ">
<polygon fill="white" stroke="black" points="465,-1178.5 465,-1197.5 567,-1197.5 567,-1178.5 465,-1178.5"/>
<text text-anchor="middle" x="516" y="-1185.5" font-family="Helvetica,sans-Serif" font-size="10.00">fwData::Landmarks</text>
</a>
</g>
</g>
<!-- Node5&#45;&gt;Node14 -->
<g id="edge13" class="edge"><title>Node5&#45;&gt;Node14</title>
<path fill="none" stroke="midnightblue" d="M318.964,-789.88C330.248,-862.926 372.792,-1115.04 430,-1169 439.46,-1177.92 452.156,-1183 464.847,-1185.8"/>
<polygon fill="midnightblue" stroke="midnightblue" points="322.388,-789.112 317.424,-779.752 315.467,-790.164 322.388,-789.112"/>
</g>
<!-- Node15 -->
<g id="node15" class="node"><title>Node15</title>
<g id="a_node15"><a xlink:href="classfwData_1_1Line.html" target="_top" xlink:title="This class defines a Line defined by two points. ">
<polygon fill="white" stroke="black" points="480,-1140.5 480,-1159.5 552,-1159.5 552,-1140.5 480,-1140.5"/>
<text text-anchor="middle" x="516" y="-1147.5" font-family="Helvetica,sans-Serif" font-size="10.00">fwData::Line</text>
</a>
</g>
</g>
<!-- Node5&#45;&gt;Node15 -->
<g id="edge14" class="edge"><title>Node5&#45;&gt;Node15</title>
<path fill="none" stroke="midnightblue" d="M315.844,-789.706C316.496,-850.493 327.179,-1036.66 430,-1131 443.37,-1143.27 462.883,-1148.21 479.841,-1150"/>
<polygon fill="midnightblue" stroke="midnightblue" points="319.343,-789.566 315.821,-779.574 312.343,-789.582 319.343,-789.566"/>
</g>
<!-- Node16 -->
<g id="node16" class="node"><title>Node16</title>
<g id="a_node16"><a xlink:href="classfwData_1_1List.html" target="_top" xlink:title="This class defines a list of objects. ">
<polygon fill="white" stroke="black" points="481,-1102.5 481,-1121.5 551,-1121.5 551,-1102.5 481,-1102.5"/>
<text text-anchor="middle" x="516" y="-1109.5" font-family="Helvetica,sans-Serif" font-size="10.00">fwData::List</text>
</a>
</g>
</g>
<!-- Node5&#45;&gt;Node16 -->
<g id="edge15" class="edge"><title>Node5&#45;&gt;Node16</title>
<path fill="none" stroke="midnightblue" d="M316.69,-789.865C319.788,-846.549 336.781,-1010.29 430,-1093 443.799,-1105.24 463.751,-1110.13 480.857,-1111.9"/>
<polygon fill="midnightblue" stroke="midnightblue" points="320.181,-789.565 316.228,-779.735 313.188,-789.884 320.181,-789.565"/>
</g>
<!-- Node17 -->
<g id="node17" class="node"><title>Node17</title>
<g id="a_node17"><a xlink:href="classfwData_1_1location_1_1ILocation.html" target="_top" xlink:title="Abstract class to define a location ( fileSystem, directory(IES) etc.... ) ">
<polygon fill="white" stroke="red" points="449,-1064.5 449,-1083.5 583,-1083.5 583,-1064.5 449,-1064.5"/>
<text text-anchor="middle" x="516" y="-1071.5" font-family="Helvetica,sans-Serif" font-size="10.00">fwData::location::ILocation</text>
</a>
</g>
</g>
<!-- Node5&#45;&gt;Node17 -->
<g id="edge16" class="edge"><title>Node5&#45;&gt;Node17</title>
<path fill="none" stroke="midnightblue" d="M317.748,-789.929C323.439,-842.128 346.24,-983.716 430,-1055 435.527,-1059.7 441.97,-1063.31 448.791,-1066.07"/>
<polygon fill="midnightblue" stroke="midnightblue" points="321.202,-789.294 316.731,-779.689 314.236,-789.986 321.202,-789.294"/>
</g>
<!-- Node18 -->
<g id="node18" class="node"><title>Node18</title>
<g id="a_node18"><a xlink:href="classfwData_1_1Material.html" target="_top" xlink:title="This class defines a material. A material is represented by an ambient color and a diffuse color...">
<polygon fill="white" stroke="black" points="471.5,-1026.5 471.5,-1045.5 560.5,-1045.5 560.5,-1026.5 471.5,-1026.5"/>
<text text-anchor="middle" x="516" y="-1033.5" font-family="Helvetica,sans-Serif" font-size="10.00">fwData::Material</text>
</a>
</g>
</g>
<!-- Node5&#45;&gt;Node18 -->
<g id="edge17" class="edge"><title>Node5&#45;&gt;Node18</title>
<path fill="none" stroke="midnightblue" d="M319.07,-789.787C327.488,-837.011 355.48,-956.843 430,-1017 441.648,-1026.4 456.999,-1031.37 471.447,-1033.94"/>
<polygon fill="midnightblue" stroke="midnightblue" points="322.478,-788.944 317.372,-779.66 315.574,-790.102 322.478,-788.944"/>
</g>
<!-- Node19 -->
<g id="node19" class="node"><title>Node19</title>
<g id="a_node19"><a xlink:href="classfwData_1_1Mesh.html" target="_top" xlink:title="Data holding a geometric structure composed of points, lines, triangles, quads or polygons...">
<polygon fill="white" stroke="black" points="477,-988.5 477,-1007.5 555,-1007.5 555,-988.5 477,-988.5"/>
<text text-anchor="middle" x="516" y="-995.5" font-family="Helvetica,sans-Serif" font-size="10.00">fwData::Mesh</text>
</a>
</g>
</g>
<!-- Node5&#45;&gt;Node19 -->
<g id="edge18" class="edge"><title>Node5&#45;&gt;Node19</title>
<path fill="none" stroke="midnightblue" d="M320.79,-789.562C332.095,-831.382 364.545,-929.686 430,-979 443.406,-989.1 461.166,-994.013 476.985,-996.339"/>
<polygon fill="midnightblue" stroke="midnightblue" points="324.152,-788.582 318.257,-779.778 317.375,-790.336 324.152,-788.582"/>
</g>
<!-- Node20 -->
<g id="node20" class="node"><title>Node20</title>
<g id="a_node20"><a xlink:href="classfwData_1_1Node.html" target="_top" xlink:title="This class defines a node. A node is represented by input and output ports. ">
<polygon fill="white" stroke="black" points="477.5,-950.5 477.5,-969.5 554.5,-969.5 554.5,-950.5 477.5,-950.5"/>
<text text-anchor="middle" x="516" y="-957.5" font-family="Helvetica,sans-Serif" font-size="10.00">fwData::Node</text>
</a>
</g>
</g>
<!-- Node5&#45;&gt;Node20 -->
<g id="edge19" class="edge"><title>Node5&#45;&gt;Node20</title>
<path fill="none" stroke="midnightblue" d="M323.193,-789.381C337.584,-825.334 373.476,-902.217 430,-941 443.84,-950.496 461.658,-955.329 477.403,-957.758"/>
<polygon fill="midnightblue" stroke="midnightblue" points="326.291,-787.688 319.418,-779.625 319.763,-790.215 326.291,-787.688"/>
</g>
<!-- Node21 -->
<g id="node21" class="node"><title>Node21</title>
<g id="a_node21"><a xlink:href="classfwData_1_1Plane.html" target="_top" xlink:title="This class defines a plane defined by tree points. ">
<polygon fill="white" stroke="black" points="476.5,-912.5 476.5,-931.5 555.5,-931.5 555.5,-912.5 476.5,-912.5"/>
<text text-anchor="middle" x="516" y="-919.5" font-family="Helvetica,sans-Serif" font-size="10.00">fwData::Plane</text>
</a>
</g>
</g>
<!-- Node5&#45;&gt;Node21 -->
<g id="edge20" class="edge"><title>Node5&#45;&gt;Node21</title>
<path fill="none" stroke="midnightblue" d="M326.292,-788.293C343.683,-817.423 381.754,-874.011 430,-903 443.869,-911.333 460.993,-916.019 476.229,-918.652"/>
<polygon fill="midnightblue" stroke="midnightblue" points="329.257,-786.429 321.202,-779.546 323.207,-789.95 329.257,-786.429"/>
</g>
<!-- Node22 -->
<g id="node22" class="node"><title>Node22</title>
<g id="a_node22"><a xlink:href="classfwData_1_1PlaneList.html" target="_top" xlink:title="This class defines a list of planes. ">
<polygon fill="white" stroke="black" points="468.5,-874.5 468.5,-893.5 563.5,-893.5 563.5,-874.5 468.5,-874.5"/>
<text text-anchor="middle" x="516" y="-881.5" font-family="Helvetica,sans-Serif" font-size="10.00">fwData::PlaneList</text>
</a>
</g>
</g>
<!-- Node5&#45;&gt;Node22 -->
<g id="edge21" class="edge"><title>Node5&#45;&gt;Node22</title>
<path fill="none" stroke="midnightblue" d="M331.288,-786.98C351.658,-808.518 389.826,-845.229 430,-865 441.803,-870.809 455.401,-874.864 468.211,-877.686"/>
<polygon fill="midnightblue" stroke="midnightblue" points="333.751,-784.488 324.385,-779.535 328.617,-789.248 333.751,-784.488"/>
</g>
<!-- Node23 -->
<g id="node23" class="node"><title>Node23</title>
<g id="a_node23"><a xlink:href="classfwData_1_1Point.html" target="_top" xlink:title="This class define a 3D point. ">
<polygon fill="white" stroke="black" points="477.5,-836.5 477.5,-855.5 554.5,-855.5 554.5,-836.5 477.5,-836.5"/>
<text text-anchor="middle" x="516" y="-843.5" font-family="Helvetica,sans-Serif" font-size="10.00">fwData::Point</text>
</a>
</g>
</g>
<!-- Node5&#45;&gt;Node23 -->
<g id="edge22" class="edge"><title>Node5&#45;&gt;Node23</title>
<path fill="none" stroke="midnightblue" d="M340.967,-784.715C363.556,-797.479 398.077,-815.644 430,-827 445.101,-832.372 462.27,-836.553 477.205,-839.608"/>
<polygon fill="midnightblue" stroke="midnightblue" points="342.476,-781.545 332.059,-779.61 338.995,-787.619 342.476,-781.545"/>
</g>
<!-- Node24 -->
<g id="node24" class="node"><title>Node24</title>
<g id="a_node24"><a xlink:href="classfwData_1_1PointList.html" target="_top" xlink:title="This class defines a list of points. ">
<polygon fill="white" stroke="black" points="470,-798.5 470,-817.5 562,-817.5 562,-798.5 470,-798.5"/>
<text text-anchor="middle" x="516" y="-805.5" font-family="Helvetica,sans-Serif" font-size="10.00">fwData::PointList</text>
</a>
</g>
</g>
<!-- Node5&#45;&gt;Node24 -->
<g id="edge23" class="edge"><title>Node5&#45;&gt;Node24</title>
<path fill="none" stroke="midnightblue" d="M366.736,-779.688C398.517,-785.757 439.116,-793.51 469.792,-799.367"/>
<polygon fill="midnightblue" stroke="midnightblue" points="367.23,-776.219 356.751,-777.782 365.917,-783.095 367.23,-776.219"/>
</g>
<!-- Node25 -->
<g id="node25" class="node"><title>Node25</title>
<g id="a_node25"><a xlink:href="classfwData_1_1Port.html" target="_top" xlink:title="A port is defined by an identifier and a type. ">
<polygon fill="white" stroke="black" points="480,-760.5 480,-779.5 552,-779.5 552,-760.5 480,-760.5"/>
<text text-anchor="middle" x="516" y="-767.5" font-family="Helvetica,sans-Serif" font-size="10.00">fwData::Port</text>
</a>
</g>
</g>
<!-- Node5&#45;&gt;Node25 -->
<g id="edge24" class="edge"><title>Node5&#45;&gt;Node25</title>
<path fill="none" stroke="midnightblue" d="M366.896,-770C402.313,-770 448.621,-770 479.957,-770"/>
<polygon fill="midnightblue" stroke="midnightblue" points="366.751,-766.5 356.751,-770 366.751,-773.5 366.751,-766.5"/>
</g>
<!-- Node26 -->
<g id="node26" class="node"><title>Node26</title>
<g id="a_node26"><a xlink:href="classfwData_1_1ProcessObject.html" target="_top" xlink:title="Provides the notion of Process Object: object having inputs and outputs. ">
<polygon fill="white" stroke="black" points="456.5,-722.5 456.5,-741.5 575.5,-741.5 575.5,-722.5 456.5,-722.5"/>
<text text-anchor="middle" x="516" y="-729.5" font-family="Helvetica,sans-Serif" font-size="10.00">fwData::ProcessObject</text>
</a>
</g>
</g>
<!-- Node5&#45;&gt;Node26 -->
<g id="edge25" class="edge"><title>Node5&#45;&gt;Node26</title>
<path fill="none" stroke="midnightblue" d="M366.666,-760.325C396.874,-754.557 435.067,-747.264 465.133,-741.522"/>
<polygon fill="midnightblue" stroke="midnightblue" points="365.917,-756.905 356.751,-762.218 367.23,-763.781 365.917,-756.905"/>
</g>
<!-- Node27 -->
<g id="node27" class="node"><title>Node27</title>
<g id="a_node27"><a xlink:href="classfwData_1_1Reconstruction.html" target="_top" xlink:title="This class defines a reconstruction object. ">
<polygon fill="white" stroke="black" points="456,-684.5 456,-703.5 576,-703.5 576,-684.5 456,-684.5"/>
<text text-anchor="middle" x="516" y="-691.5" font-family="Helvetica,sans-Serif" font-size="10.00">fwData::Reconstruction</text>
</a>
</g>
</g>
<!-- Node5&#45;&gt;Node27 -->
<g id="edge26" class="edge"><title>Node5&#45;&gt;Node27</title>
<path fill="none" stroke="midnightblue" d="M366.425,-762.211C375.97,-759.51 385.589,-755.879 394,-751 414.123,-739.326 409.766,-724.482 430,-713 437.891,-708.522 446.752,-705.1 455.695,-702.484"/>
<polygon fill="midnightblue" stroke="midnightblue" points="365.398,-758.86 356.559,-764.702 367.112,-765.647 365.398,-758.86"/>
</g>
<!-- Node28 -->
<g id="node28" class="node"><title>Node28</title>
<g id="a_node28"><a xlink:href="classfwData_1_1ReconstructionTraits.html" target="_top" xlink:title="This class defines Reconstruction traits. ">
<polygon fill="white" stroke="black" points="443.5,-646.5 443.5,-665.5 588.5,-665.5 588.5,-646.5 443.5,-646.5"/>
<text text-anchor="middle" x="516" y="-653.5" font-family="Helvetica,sans-Serif" font-size="10.00">fwData::ReconstructionTraits</text>
</a>
</g>
</g>
<!-- Node5&#45;&gt;Node28 -->
<g id="edge27" class="edge"><title>Node5&#45;&gt;Node28</title>
<path fill="none" stroke="midnightblue" d="M366.599,-764.576C376.447,-761.704 386.139,-757.405 394,-751 422.976,-727.392 400.801,-698.332 430,-675 434.843,-671.13 440.316,-668.012 446.091,-665.505"/>
<polygon fill="midnightblue" stroke="midnightblue" points="365.635,-761.209 356.762,-766.999 367.308,-768.006 365.635,-761.209"/>
</g>
<!-- Node29 -->
<g id="node29" class="node"><title>Node29</title>
<g id="a_node29"><a xlink:href="classfwData_1_1Resection.html" target="_top" xlink:title="This class defines a resection. ">
<polygon fill="white" stroke="black" points="467,-608.5 467,-627.5 565,-627.5 565,-608.5 467,-608.5"/>
<text text-anchor="middle" x="516" y="-615.5" font-family="Helvetica,sans-Serif" font-size="10.00">fwData::Resection</text>
</a>
</g>
</g>
<!-- Node5&#45;&gt;Node29 -->
<g id="edge28" class="edge"><title>Node5&#45;&gt;Node29</title>
<path fill="none" stroke="midnightblue" d="M366.692,-765.557C376.706,-762.635 386.442,-758.069 394,-751 432.807,-714.708 390.85,-672.922 430,-637 440.028,-627.799 453.51,-622.72 466.779,-620"/>
<polygon fill="midnightblue" stroke="midnightblue" points="365.565,-762.227 356.656,-767.961 367.196,-769.035 365.565,-762.227"/>
</g>
<!-- Node30 -->
<g id="node30" class="node"><title>Node30</title>
<g id="a_node30"><a xlink:href="classfwData_1_1ResectionDB.html" target="_top" xlink:title="This class defines a resection container. ">
<polygon fill="white" stroke="black" points="459.5,-570.5 459.5,-589.5 572.5,-589.5 572.5,-570.5 459.5,-570.5"/>
<text text-anchor="middle" x="516" y="-577.5" font-family="Helvetica,sans-Serif" font-size="10.00">fwData::ResectionDB</text>
</a>
</g>
</g>
<!-- Node5&#45;&gt;Node30 -->
<g id="edge29" class="edge"><title>Node5&#45;&gt;Node30</title>
<path fill="none" stroke="midnightblue" d="M366.473,-766.148C376.683,-763.214 386.555,-758.492 394,-751 442.934,-701.753 380.6,-647.779 430,-599 437.962,-591.138 448.423,-586.234 459.274,-583.234"/>
<polygon fill="midnightblue" stroke="midnightblue" points="365.589,-762.761 356.649,-768.447 367.183,-769.577 365.589,-762.761"/>
</g>
<!-- Node31 -->
<g id="node31" class="node"><title>Node31</title>
<g id="a_node31"><a xlink:href="classfwData_1_1ROITraits.html" target="_top" xlink:title="This class defines ROI traits. ">
<polygon fill="white" stroke="black" points="467.5,-532.5 467.5,-551.5 564.5,-551.5 564.5,-532.5 467.5,-532.5"/>
<text text-anchor="middle" x="516" y="-539.5" font-family="Helvetica,sans-Serif" font-size="10.00">fwData::ROITraits</text>
</a>
</g>
</g>
<!-- Node5&#45;&gt;Node31 -->
<g id="edge30" class="edge"><title>Node5&#45;&gt;Node31</title>
<path fill="none" stroke="midnightblue" d="M366.728,-766.396C376.925,-763.449 386.727,-758.659 394,-751 453.183,-688.676 370.227,-622.758 430,-561 439.78,-550.895 453.672,-545.625 467.398,-543.01"/>
<polygon fill="midnightblue" stroke="midnightblue" points="365.843,-763.009 356.901,-768.692 367.435,-769.825 365.843,-763.009"/>
</g>
<!-- Node32 -->
<g id="node32" class="node"><title>Node32</title>
<g id="a_node32"><a xlink:href="classfwData_1_1Spline.html" target="_top" xlink:title="This class defines a spline object. ">
<polygon fill="white" stroke="black" points="475.5,-494.5 475.5,-513.5 556.5,-513.5 556.5,-494.5 475.5,-494.5"/>
<text text-anchor="middle" x="516" y="-501.5" font-family="Helvetica,sans-Serif" font-size="10.00">fwData::Spline</text>
</a>
</g>
</g>
<!-- Node5&#45;&gt;Node32 -->
<g id="edge31" class="edge"><title>Node5&#45;&gt;Node32</title>
<path fill="none" stroke="midnightblue" d="M366.598,-766.649C376.896,-763.701 386.774,-758.847 394,-751 463.494,-675.535 359.791,-597.801 430,-523 441.487,-510.762 458.993,-505.564 475.138,-503.603"/>
<polygon fill="midnightblue" stroke="midnightblue" points="365.633,-763.279 356.67,-768.927 367.199,-770.102 365.633,-763.279"/>
</g>
<!-- Node33 -->
<g id="node33" class="node"><title>Node33</title>
<g id="a_node33"><a xlink:href="classfwData_1_1StructureTraits.html" target="_top" xlink:title="This class defines structure traits. ">
<polygon fill="white" stroke="black" points="456.5,-456.5 456.5,-475.5 575.5,-475.5 575.5,-456.5 456.5,-456.5"/>
<text text-anchor="middle" x="516" y="-463.5" font-family="Helvetica,sans-Serif" font-size="10.00">fwData::StructureTraits</text>
</a>
</g>
</g>
<!-- Node5&#45;&gt;Node33 -->
<g id="edge32" class="edge"><title>Node5&#45;&gt;Node33</title>
<path fill="none" stroke="midnightblue" d="M366.727,-766.766C377.018,-763.812 386.861,-758.927 394,-751 473.841,-662.355 349.32,-572.882 430,-485 437.056,-477.314 446.483,-472.391 456.491,-469.3"/>
<polygon fill="midnightblue" stroke="midnightblue" points="365.761,-763.396 356.796,-769.042 367.325,-770.219 365.761,-763.396"/>
</g>
<!-- Node34 -->
<g id="node34" class="node"><title>Node34</title>
<g id="a_node34"><a xlink:href="classfwData_1_1StructureTraitsDictionary.html" target="_top" xlink:title="This class defines a dictionary of structure traits. ">
<polygon fill="white" stroke="black" points="434.5,-418.5 434.5,-437.5 597.5,-437.5 597.5,-418.5 434.5,-418.5"/>
<text text-anchor="middle" x="516" y="-425.5" font-family="Helvetica,sans-Serif" font-size="10.00">fwData::StructureTraitsDictionary</text>
</a>
</g>
</g>
<!-- Node5&#45;&gt;Node34 -->
<g id="edge33" class="edge"><title>Node5&#45;&gt;Node34</title>
<path fill="none" stroke="midnightblue" d="M366.824,-766.853C377.111,-763.895 386.927,-758.986 394,-751 484.209,-649.151 338.826,-547.987 430,-447 433.344,-443.296 437.238,-440.232 441.485,-437.703"/>
<polygon fill="midnightblue" stroke="midnightblue" points="365.858,-763.483 356.892,-769.128 367.421,-770.307 365.858,-763.483"/>
</g>
<!-- Node35 -->
<g id="node35" class="node"><title>Node35</title>
<g id="a_node35"><a xlink:href="classfwData_1_1Tag.html" target="_top" xlink:title="This class represent a tag. A tag contains a list of points. ">
<polygon fill="white" stroke="black" points="480.5,-380.5 480.5,-399.5 551.5,-399.5 551.5,-380.5 480.5,-380.5"/>
<text text-anchor="middle" x="516" y="-387.5" font-family="Helvetica,sans-Serif" font-size="10.00">fwData::Tag</text>
</a>
</g>
</g>
<!-- Node5&#45;&gt;Node35 -->
<g id="edge34" class="edge"><title>Node5&#45;&gt;Node35</title>
<path fill="none" stroke="midnightblue" d="M366.595,-767.008C376.99,-764.056 386.909,-759.111 394,-751 494.593,-635.93 328.318,-523.108 430,-409 442.474,-395.001 462.807,-390.106 480.458,-388.78"/>
<polygon fill="midnightblue" stroke="midnightblue" points="365.55,-763.656 356.562,-769.265 367.086,-770.485 365.55,-763.656"/>
</g>
<!-- Node36 -->
<g id="node36" class="node"><title>Node36</title>
<g id="a_node36"><a xlink:href="classfwData_1_1TransferFunction.html" target="_top" xlink:title="This class defines a transfer function. ">
<polygon fill="white" stroke="black" points="452,-342.5 452,-361.5 580,-361.5 580,-342.5 452,-342.5"/>
<text text-anchor="middle" x="516" y="-349.5" font-family="Helvetica,sans-Serif" font-size="10.00">fwData::TransferFunction</text>
</a>
</g>
</g>
<!-- Node5&#45;&gt;Node36 -->
<g id="edge35" class="edge"><title>Node5&#45;&gt;Node36</title>
<path fill="none" stroke="midnightblue" d="M366.657,-767.062C377.049,-764.108 386.952,-759.148 394,-751 449.493,-686.849 373.899,-434.621 430,-371 435.901,-364.309 443.596,-359.692 451.946,-356.55"/>
<polygon fill="midnightblue" stroke="midnightblue" points="365.611,-763.709 356.622,-769.318 367.146,-770.539 365.611,-763.709"/>
</g>
<!-- Node37 -->
<g id="node37" class="node"><title>Node37</title>
<g id="a_node37"><a xlink:href="classfwData_1_1TransformationMatrix3D.html" target="_top" xlink:title="This class represents a 3D transformation matrix (4x4). ">
<polygon fill="white" stroke="black" points="436.5,-304.5 436.5,-323.5 595.5,-323.5 595.5,-304.5 436.5,-304.5"/>
<text text-anchor="middle" x="516" y="-311.5" font-family="Helvetica,sans-Serif" font-size="10.00">fwData::TransformationMatrix3D</text>
</a>
</g>
</g>
<!-- Node5&#45;&gt;Node37 -->
<g id="edge36" class="edge"><title>Node5&#45;&gt;Node37</title>
<path fill="none" stroke="midnightblue" d="M366.708,-767.106C377.097,-764.15 386.987,-759.178 394,-751 454.693,-680.228 368.636,-403.191 430,-333 433.284,-329.243 437.134,-326.139 441.35,-323.582"/>
<polygon fill="midnightblue" stroke="midnightblue" points="365.661,-763.753 356.672,-769.361 367.196,-770.583 365.661,-763.753"/>
</g>
<!-- Node38 -->
<g id="node38" class="node"><title>Node38</title>
<g id="a_node38"><a xlink:href="classfwData_1_1Vector.html" target="_top" xlink:title="This class defines a vector of objects. ">
<polygon fill="white" stroke="black" points="474.5,-266.5 474.5,-285.5 557.5,-285.5 557.5,-266.5 474.5,-266.5"/>
<text text-anchor="middle" x="516" y="-273.5" font-family="Helvetica,sans-Serif" font-size="10.00">fwData::Vector</text>
</a>
</g>
</g>
<!-- Node5&#45;&gt;Node38 -->
<g id="edge37" class="edge"><title>Node5&#45;&gt;Node38</title>
<path fill="none" stroke="midnightblue" d="M366.751,-767.142C377.138,-764.184 387.016,-759.203 394,-751 459.897,-673.604 363.37,-371.765 430,-295 440.903,-282.439 458.13,-277.164 474.233,-275.234"/>
<polygon fill="midnightblue" stroke="midnightblue" points="365.704,-763.79 356.714,-769.397 367.238,-770.62 365.704,-763.79"/>
</g>
<!-- Node39 -->
<g id="node39" class="node"><title>Node39</title>
<g id="a_node39"><a xlink:href="classfwMedData_1_1Equipment.html" target="_top" xlink:title="Holds equipment information. ">
<polygon fill="white" stroke="black" points="456.5,-228.5 456.5,-247.5 575.5,-247.5 575.5,-228.5 456.5,-228.5"/>
<text text-anchor="middle" x="516" y="-235.5" font-family="Helvetica,sans-Serif" font-size="10.00">fwMedData::Equipment</text>
</a>
</g>
</g>
<!-- Node5&#45;&gt;Node39 -->
<g id="edge38" class="edge"><title>Node5&#45;&gt;Node39</title>
<path fill="none" stroke="midnightblue" d="M366.787,-767.173C377.173,-764.214 387.041,-759.224 394,-751 465.102,-666.978 358.102,-340.342 430,-257 436.815,-249.1 446.132,-244.078 456.106,-240.957"/>
<polygon fill="midnightblue" stroke="midnightblue" points="365.74,-763.821 356.75,-769.427 367.273,-770.651 365.74,-763.821"/>
</g>
<!-- Node40 -->
<g id="node40" class="node"><title>Node40</title>
<g id="a_node40"><a xlink:href="classfwMedData_1_1Patient.html" target="_top" xlink:title="Holds patient information. ">
<polygon fill="white" stroke="black" points="464,-190.5 464,-209.5 568,-209.5 568,-190.5 464,-190.5"/>
<text text-anchor="middle" x="516" y="-197.5" font-family="Helvetica,sans-Serif" font-size="10.00">fwMedData::Patient</text>
</a>
</g>
</g>
<!-- Node5&#45;&gt;Node40 -->
<g id="edge39" class="edge"><title>Node5&#45;&gt;Node40</title>
<path fill="none" stroke="midnightblue" d="M366.818,-767.199C377.203,-764.239 387.062,-759.242 394,-751 470.309,-660.35 352.832,-308.92 430,-219 438.567,-209.017 451.129,-203.625 463.98,-200.856"/>
<polygon fill="midnightblue" stroke="midnightblue" points="365.771,-763.847 356.78,-769.453 367.304,-770.677 365.771,-763.847"/>
</g>
<!-- Node41 -->
<g id="node41" class="node"><title>Node41</title>
<g id="a_node41"><a xlink:href="classfwMedData_1_1Series.html" target="_top" xlink:title="Holds series information. ">
<polygon fill="white" stroke="red" points="465.5,-152.5 465.5,-171.5 566.5,-171.5 566.5,-152.5 465.5,-152.5"/>
<text text-anchor="middle" x="516" y="-159.5" font-family="Helvetica,sans-Serif" font-size="10.00">fwMedData::Series</text>
</a>
</g>
</g>
<!-- Node5&#45;&gt;Node41 -->
<g id="edge40" class="edge"><title>Node5&#45;&gt;Node41</title>
<path fill="none" stroke="midnightblue" d="M366.846,-767.222C377.228,-764.261 387.081,-759.257 394,-751 475.517,-653.72 347.561,-277.5 430,-181 438.84,-170.653 451.97,-165.233 465.281,-162.554"/>
<polygon fill="midnightblue" stroke="midnightblue" points="365.797,-763.87 356.807,-769.475 367.33,-770.7 365.797,-763.87"/>
</g>
<!-- Node42 -->
<g id="node42" class="node"><title>Node42</title>
<g id="a_node42"><a xlink:href="classfwMedData_1_1SeriesDB.html" target="_top" xlink:title="Holds series data. ">
<polygon fill="white" stroke="black" points="458.5,-114.5 458.5,-133.5 573.5,-133.5 573.5,-114.5 458.5,-114.5"/>
<text text-anchor="middle" x="516" y="-121.5" font-family="Helvetica,sans-Serif" font-size="10.00">fwMedData::SeriesDB</text>
</a>
</g>
</g>
<!-- Node5&#45;&gt;Node42 -->
<g id="edge41" class="edge"><title>Node5&#45;&gt;Node42</title>
<path fill="none" stroke="midnightblue" d="M366.869,-767.242C377.251,-764.28 387.097,-759.271 394,-751 480.727,-647.089 342.289,-246.081 430,-143 437.251,-134.478 447.413,-129.295 458.196,-126.233"/>
<polygon fill="midnightblue" stroke="midnightblue" points="365.821,-763.89 356.83,-769.494 367.354,-770.72 365.821,-763.89"/>
</g>
<!-- Node43 -->
<g id="node43" class="node"><title>Node43</title>
<g id="a_node43"><a xlink:href="classfwMedData_1_1Study.html" target="_top" xlink:title="Holds study information. ">
<polygon fill="white" stroke="black" points="467,-76.5 467,-95.5 565,-95.5 565,-76.5 467,-76.5"/>
<text text-anchor="middle" x="516" y="-83.5" font-family="Helvetica,sans-Serif" font-size="10.00">fwMedData::Study</text>
</a>
</g>
</g>
<!-- Node5&#45;&gt;Node43 -->
<g id="edge42" class="edge"><title>Node5&#45;&gt;Node43</title>
<path fill="none" stroke="midnightblue" d="M366.89,-767.259C377.271,-764.296 387.111,-759.283 394,-751 485.937,-640.457 337.016,-214.664 430,-105 439.095,-94.274 452.799,-88.8337 466.564,-86.2541"/>
<polygon fill="midnightblue" stroke="midnightblue" points="365.842,-763.907 356.85,-769.511 367.374,-770.738 365.842,-763.907"/>
</g>
<!-- Node44 -->
<g id="node44" class="node"><title>Node44</title>
<g id="a_node44"><a xlink:href="classfwPacsIO_1_1data_1_1PacsConfiguration.html" target="_top" xlink:title="This class defines a Pacs configuration. ">
<polygon fill="white" stroke="black" points="430.5,-38.5 430.5,-57.5 601.5,-57.5 601.5,-38.5 430.5,-38.5"/>
<text text-anchor="middle" x="516" y="-45.5" font-family="Helvetica,sans-Serif" font-size="10.00">fwPacsIO::data::PacsConfiguration</text>
</a>
</g>
</g>
<!-- Node5&#45;&gt;Node44 -->
<g id="edge43" class="edge"><title>Node5&#45;&gt;Node44</title>
<path fill="none" stroke="midnightblue" d="M366.909,-767.275C377.289,-764.311 387.124,-759.294 394,-751 491.148,-633.824 331.742,-183.247 430,-67 433.124,-63.3045 436.794,-60.236 440.827,-57.6955"/>
<polygon fill="midnightblue" stroke="midnightblue" points="365.86,-763.923 356.869,-769.527 367.392,-770.753 365.86,-763.923"/>
</g>
<!-- Node45 -->
<g id="node45" class="node"><title>Node45</title>
<g id="a_node45"><a xlink:href="classfwRenderQt_1_1data_1_1Viewport.html" target="_top" xlink:title="Manage the current viewport of the fwRenderQt. ">
<polygon fill="white" stroke="black" points="447,-0.5 447,-19.5 585,-19.5 585,-0.5 447,-0.5"/>
<text text-anchor="middle" x="516" y="-7.5" font-family="Helvetica,sans-Serif" font-size="10.00">fwRenderQt::data::Viewport</text>
</a>
</g>
</g>
<!-- Node5&#45;&gt;Node45 -->
<g id="edge44" class="edge"><title>Node5&#45;&gt;Node45</title>
<path fill="none" stroke="midnightblue" d="M366.926,-767.289C377.305,-764.324 387.135,-759.303 394,-751 496.36,-627.19 326.467,-151.831 430,-29 434.58,-23.5659 440.344,-19.4868 446.702,-16.4481"/>
<polygon fill="midnightblue" stroke="midnightblue" points="365.877,-763.937 356.885,-769.54 367.409,-770.767 365.877,-763.937"/>
</g>
</g>
</svg>
        <g id="navigator" transform="translate(0 0)" fill="#404254">
                <rect fill="#f2f5e9" fill-opacity="0.5" stroke="#606060" stroke-width=".5" x="0" y="0" width="60" height="60"/>
                <use id="zoomplus" xlink:href="#zoomPlus" x="17" y="9" onmousedown="handleZoom(evt,'in')"/>
                <use id="zoomminus" xlink:href="#zoomMin" x="42" y="9" onmousedown="handleZoom(evt,'out')"/>
                <use id="reset" xlink:href="#resetDef" x="30" y="36" onmousedown="handleReset()"/>
                <g id="arrowUp" xlink:href="#dirArrow" transform="translate(30 24)" onmousedown="handlePan(0,-1)">
                  <use xlink:href="#rim" fill="#404040">
                        <set attributeName="fill" to="#808080" begin="arrowUp.mouseover" end="arrowUp.mouseout"/>
                  </use>
                  <path fill="none" stroke="white" stroke-width="1.5" d="M0,-3.0v7 M-2.5,-0.5L0,-3.0L2.5,-0.5"/>
                </g>
                <g id="arrowRight" xlink:href="#dirArrow" transform="rotate(90) translate(36 -43)" onmousedown="handlePan(1,0)">
                  <use xlink:href="#rim" fill="#404040">
                        <set attributeName="fill" to="#808080" begin="arrowRight.mouseover" end="arrowRight.mouseout"/>
                  </use>
                  <path fill="none" stroke="white" stroke-width="1.5" d="M0,-3.0v7 M-2.5,-0.5L0,-3.0L2.5,-0.5"/>
                </g>
                <g id="arrowDown" xlink:href="#dirArrow" transform="rotate(180) translate(-30 -48)" onmousedown="handlePan(0,1)">
                  <use xlink:href="#rim" fill="#404040">
                        <set attributeName="fill" to="#808080" begin="arrowDown.mouseover" end="arrowDown.mouseout"/>
                  </use>
                  <path fill="none" stroke="white" stroke-width="1.5" d="M0,-3.0v7 M-2.5,-0.5L0,-3.0L2.5,-0.5"/>
                </g>
                <g id="arrowLeft" xlink:href="#dirArrow" transform="rotate(270) translate(-36 17)" onmousedown="handlePan(-1,0)">
                  <use xlink:href="#rim" fill="#404040">
                        <set attributeName="fill" to="#808080" begin="arrowLeft.mouseover" end="arrowLeft.mouseout"/>
                  </use>
                  <path fill="none" stroke="white" stroke-width="1.5" d="M0,-3.0v7 M-2.5,-0.5L0,-3.0L2.5,-0.5"/>
                </g>
        </g>
        <svg viewBox="0 0 15 15" width="100%" height="30px" preserveAspectRatio="xMaxYMin meet">
         <g id="arrow_out" transform="scale(0.3 0.3)">
          <a xlink:href="classfwTools_1_1fwID__inherit__graph_org.svg" target="_base">
           <rect id="button" ry="5" rx="5" y="6" x="6" height="38" width="38"
                fill="#f2f5e9" fill-opacity="0.5" stroke="#606060" stroke-width="1.0"/>
           <path id="arrow"
             d="M 11.500037,31.436501 C 11.940474,20.09759 22.043105,11.32322 32.158766,21.979434 L 37.068811,17.246167 C 37.068811,17.246167 37.088388,32 37.088388,32 L 22.160133,31.978069 C 22.160133,31.978069 26.997745,27.140456 26.997745,27.140456 C 18.528582,18.264221 13.291696,25.230495 11.500037,31.436501 z"
             style="fill:#404040;"/>
          </a>
         </g>
        </svg>
</svg>
