<?xml version="1.0" encoding="UTF-8" standalone="no"?>
<!DOCTYPE svg PUBLIC "-//W3C//DTD SVG 1.1//EN"
 "http://www.w3.org/Graphics/SVG/1.1/DTD/svg11.dtd">
<!-- Generated by graphviz version 2.36.0 (20140111.2315)
 -->
<!-- Title: fwGdcmIO::container::sr::DicomSRNode::createConceptNameCodeSequence Pages: 1 -->
<!--zoomable 470 -->
<svg id="main" version="1.1" xmlns="http://www.w3.org/2000/svg" xmlns:xlink="http://www.w3.org/1999/xlink" xml:space="preserve" onload="init(evt)">
<style type="text/css"><![CDATA[
.edge:hover path { stroke: red; }
.edge:hover polygon { stroke: red; fill: red; }
]]></style>
<script type="text/javascript"><![CDATA[
var edges = document.getElementsByTagName('g');
if (edges && edges.length) {
  for (var i=0;i<edges.length;i++) {
    if (edges[i].id.substr(0,4)=='edge') {
      edges[i].setAttribute('class','edge');
    }
  }
}
]]></script>
        <defs>
                <circle id="rim" cx="0" cy="0" r="7"/>
                <circle id="rim2" cx="0" cy="0" r="3.5"/>
                <g id="zoomPlus">
                        <use xlink:href="#rim" fill="#404040">
                                <set attributeName="fill" to="#808080" begin="zoomplus.mouseover" end="zoomplus.mouseout"/>
                        </use>
                        <path d="M-4,0h8M0,-4v8" fill="none" stroke="white" stroke-width="1.5" pointer-events="none"/>
                </g>
                <g id="zoomMin">
                        <use xlink:href="#rim" fill="#404040">
                                <set attributeName="fill" to="#808080" begin="zoomminus.mouseover" end="zoomminus.mouseout"/>
                        </use>
                        <path d="M-4,0h8" fill="none" stroke="white" stroke-width="1.5" pointer-events="none"/>
                </g>
                <g id="dirArrow">
                        <path fill="none" stroke="white" stroke-width="1.5" d="M0,-3.0v7 M-2.5,-0.5L0,-3.0L2.5,-0.5"/>
                </g>
               <g id="resetDef">
                       <use xlink:href="#rim2" fill="#404040">
                               <set attributeName="fill" to="#808080" begin="reset.mouseover" end="reset.mouseout"/>
                       </use>
               </g>
        </defs>

<script type="text/javascript">
var viewWidth = 560;
var viewHeight = 470;
var sectionId = 'dynsection-4';
</script>
<script xlink:href="svgpan.js"/>
<svg id="graph" class="graph">
<g id="viewport">
<title>fwGdcmIO::container::sr::DicomSRNode::createConceptNameCodeSequence</title>
<polygon fill="white" stroke="none" points="-4,4 -4,-466 556,-466 556,4 -4,4"/>
<!-- Node1 -->
<g id="node1" class="node"><title>Node1</title>
<polygon fill="#bfbfbf" stroke="black" points="0.5,-210.5 0.5,-251.5 173.5,-251.5 173.5,-210.5 0.5,-210.5"/>
<text text-anchor="start" x="8.5" y="-239.5" font-family="Helvetica,sans-Serif" font-size="10.00">fwGdcmIO::container</text>
<text text-anchor="start" x="8.5" y="-228.5" font-family="Helvetica,sans-Serif" font-size="10.00">::sr::DicomSRNode::createConcept</text>
<text text-anchor="middle" x="87" y="-217.5" font-family="Helvetica,sans-Serif" font-size="10.00">NameCodeSequence</text>
</g>
<!-- Node2 -->
<g id="node2" class="node"><title>Node2</title>
<g id="a_node2"><a xlink:href="classfwGdcmIO_1_1container_1_1sr_1_1DicomSRNode.html#acfec19097b1797c2c3f8f98dad0e03b5" target="_top" xlink:title="Write the SR node in the dataset. ">
<polygon fill="white" stroke="black" points="223,-216 223,-246 353,-246 353,-216 223,-216"/>
<text text-anchor="start" x="231" y="-234" font-family="Helvetica,sans-Serif" font-size="10.00">fwGdcmIO::container</text>
<text text-anchor="middle" x="288" y="-223" font-family="Helvetica,sans-Serif" font-size="10.00">::sr::DicomSRNode::write</text>
</a>
</g>
</g>
<!-- Node1&#45;&gt;Node2 -->
<g id="edge1" class="edge"><title>Node1&#45;&gt;Node2</title>
<path fill="none" stroke="midnightblue" d="M183.676,-231C196.964,-231 210.343,-231 222.863,-231"/>
<polygon fill="midnightblue" stroke="midnightblue" points="183.549,-227.5 173.549,-231 183.549,-234.5 183.549,-227.5"/>
</g>
<!-- Node3 -->
<g id="node3" class="node"><title>Node3</title>
<g id="a_node3"><a xlink:href="classfwGdcmIO_1_1container_1_1sr_1_1DicomSRCodeNode.html#a0f15869bfe1b6a52fd008b855fdb8c27" target="_top" xlink:title="Write the SR node in the dataset. ">
<polygon fill="white" stroke="black" points="414,-420.5 414,-461.5 540,-461.5 540,-420.5 414,-420.5"/>
<text text-anchor="start" x="422" y="-449.5" font-family="Helvetica,sans-Serif" font-size="10.00">fwGdcmIO::container</text>
<text text-anchor="start" x="422" y="-438.5" font-family="Helvetica,sans-Serif" font-size="10.00">::sr::DicomSRCodeNode</text>
<text text-anchor="middle" x="477" y="-427.5" font-family="Helvetica,sans-Serif" font-size="10.00">::write</text>
</a>
</g>
</g>
<!-- Node1&#45;&gt;Node3 -->
<g id="edge10" class="edge"><title>Node1&#45;&gt;Node3</title>
<path fill="none" stroke="midnightblue" d="M129.908,-257.068C189.293,-293.501 301.862,-360.709 402,-410 409.248,-413.568 417.011,-417.11 424.682,-420.456"/>
<polygon fill="midnightblue" stroke="midnightblue" points="131.544,-253.965 121.192,-251.708 127.877,-259.928 131.544,-253.965"/>
</g>
<!-- Node11 -->
<g id="node11" class="node"><title>Node11</title>
<g id="a_node11"><a xlink:href="classfwGdcmIO_1_1container_1_1sr_1_1DicomSRNumNode.html#aae2d6b9763b48e84425eafc4d2066e5c" target="_top" xlink:title="Write a Measured Value Sequence. ">
<polygon fill="white" stroke="black" points="210.5,-93.5 210.5,-134.5 365.5,-134.5 365.5,-93.5 210.5,-93.5"/>
<text text-anchor="start" x="218.5" y="-122.5" font-family="Helvetica,sans-Serif" font-size="10.00">fwGdcmIO::container</text>
<text text-anchor="start" x="218.5" y="-111.5" font-family="Helvetica,sans-Serif" font-size="10.00">::sr::DicomSRNumNode</text>
<text text-anchor="middle" x="288" y="-100.5" font-family="Helvetica,sans-Serif" font-size="10.00">::writeMeasuredValueSequence</text>
</a>
</g>
</g>
<!-- Node1&#45;&gt;Node11 -->
<g id="edge11" class="edge"><title>Node1&#45;&gt;Node11</title>
<path fill="none" stroke="midnightblue" d="M131.965,-205.151C168.051,-183.935 218.473,-154.29 251.898,-134.638"/>
<polygon fill="midnightblue" stroke="midnightblue" points="129.966,-202.267 123.119,-210.352 133.514,-208.301 129.966,-202.267"/>
</g>
<!-- Node2&#45;&gt;Node3 -->
<g id="edge2" class="edge"><title>Node2&#45;&gt;Node3</title>
<path fill="none" stroke="midnightblue" d="M303.03,-254.963C330.161,-301.034 388.351,-398.452 402,-410 406.572,-413.869 411.697,-417.312 417.058,-420.364"/>
<polygon fill="midnightblue" stroke="midnightblue" points="305.974,-253.065 297.89,-246.217 299.939,-256.612 305.974,-253.065"/>
</g>
<!-- Node4 -->
<g id="node4" class="node"><title>Node4</title>
<g id="a_node4"><a xlink:href="classfwGdcmIO_1_1container_1_1sr_1_1DicomSRContainerNode.html#a390b772987554b05cb09233b9dbb020e" target="_top" xlink:title="Write the SR node in the dataset. ">
<polygon fill="white" stroke="black" points="404.5,-360.5 404.5,-401.5 549.5,-401.5 549.5,-360.5 404.5,-360.5"/>
<text text-anchor="start" x="412.5" y="-389.5" font-family="Helvetica,sans-Serif" font-size="10.00">fwGdcmIO::container</text>
<text text-anchor="start" x="412.5" y="-378.5" font-family="Helvetica,sans-Serif" font-size="10.00">::sr::DicomSRContainerNode</text>
<text text-anchor="middle" x="477" y="-367.5" font-family="Helvetica,sans-Serif" font-size="10.00">::write</text>
</a>
</g>
</g>
<!-- Node2&#45;&gt;Node4 -->
<g id="edge3" class="edge"><title>Node2&#45;&gt;Node4</title>
<path fill="none" stroke="midnightblue" d="M306.237,-254.299C326.636,-280.516 362.813,-322.961 402,-350 407.503,-353.797 413.544,-357.26 419.728,-360.381"/>
<polygon fill="midnightblue" stroke="midnightblue" points="308.8,-251.889 299.943,-246.076 303.242,-256.144 308.8,-251.889"/>
</g>
<!-- Node5 -->
<g id="node5" class="node"><title>Node5</title>
<g id="a_node5"><a xlink:href="classfwGdcmIO_1_1container_1_1sr_1_1DicomSRImageNode.html#a62a17c1df8699d0356a385bc78307b7f" target="_top" xlink:title="Write the SR node in the dataset. ">
<polygon fill="white" stroke="black" points="412,-300.5 412,-341.5 542,-341.5 542,-300.5 412,-300.5"/>
<text text-anchor="start" x="420" y="-329.5" font-family="Helvetica,sans-Serif" font-size="10.00">fwGdcmIO::container</text>
<text text-anchor="start" x="420" y="-318.5" font-family="Helvetica,sans-Serif" font-size="10.00">::sr::DicomSRImageNode</text>
<text text-anchor="middle" x="477" y="-307.5" font-family="Helvetica,sans-Serif" font-size="10.00">::write</text>
</a>
</g>
</g>
<!-- Node2&#45;&gt;Node5 -->
<g id="edge4" class="edge"><title>Node2&#45;&gt;Node5</title>
<path fill="none" stroke="midnightblue" d="M325.503,-251.059C347.445,-262.865 376.057,-277.82 402,-290 409.439,-293.493 417.38,-297.022 425.196,-300.386"/>
<polygon fill="midnightblue" stroke="midnightblue" points="326.996,-247.888 316.535,-246.21 323.666,-254.045 326.996,-247.888"/>
</g>
<!-- Node6 -->
<g id="node6" class="node"><title>Node6</title>
<g id="a_node6"><a xlink:href="classfwGdcmIO_1_1container_1_1sr_1_1DicomSRNumNode.html#a9b8b27ebf4db380c5a0a5b503c9abc9d" target="_top" xlink:title="Write the SR node in the dataset. ">
<polygon fill="white" stroke="black" points="415,-0.5 415,-41.5 539,-41.5 539,-0.5 415,-0.5"/>
<text text-anchor="start" x="423" y="-29.5" font-family="Helvetica,sans-Serif" font-size="10.00">fwGdcmIO::container</text>
<text text-anchor="start" x="423" y="-18.5" font-family="Helvetica,sans-Serif" font-size="10.00">::sr::DicomSRNumNode</text>
<text text-anchor="middle" x="477" y="-7.5" font-family="Helvetica,sans-Serif" font-size="10.00">::write</text>
</a>
</g>
</g>
<!-- Node2&#45;&gt;Node6 -->
<g id="edge5" class="edge"><title>Node2&#45;&gt;Node6</title>
<path fill="none" stroke="midnightblue" d="M312.534,-208.616C329.18,-191.795 351.102,-167.525 366,-143 388.797,-105.474 371.142,-82.2359 402,-51 405.8,-47.1538 410.159,-43.7833 414.819,-40.8327"/>
<polygon fill="midnightblue" stroke="midnightblue" points="309.933,-206.266 305.301,-215.794 314.864,-211.234 309.933,-206.266"/>
</g>
<!-- Node7 -->
<g id="node7" class="node"><title>Node7</title>
<g id="a_node7"><a xlink:href="classfwGdcmIO_1_1container_1_1sr_1_1DicomSRSCoord3DNode.html#a6c0ef7e97e69c66e6c0465af5883c1da" target="_top" xlink:title="Write the SR node in the dataset. ">
<polygon fill="white" stroke="black" points="402.5,-240.5 402.5,-281.5 551.5,-281.5 551.5,-240.5 402.5,-240.5"/>
<text text-anchor="start" x="410.5" y="-269.5" font-family="Helvetica,sans-Serif" font-size="10.00">fwGdcmIO::container</text>
<text text-anchor="start" x="410.5" y="-258.5" font-family="Helvetica,sans-Serif" font-size="10.00">::sr::DicomSRSCoord3DNode</text>
<text text-anchor="middle" x="477" y="-247.5" font-family="Helvetica,sans-Serif" font-size="10.00">::write</text>
</a>
</g>
</g>
<!-- Node2&#45;&gt;Node7 -->
<g id="edge6" class="edge"><title>Node2&#45;&gt;Node7</title>
<path fill="none" stroke="midnightblue" d="M363.277,-242.916C376.136,-244.979 389.501,-247.123 402.343,-249.183"/>
<polygon fill="midnightblue" stroke="midnightblue" points="363.521,-239.411 353.093,-241.282 362.412,-246.322 363.521,-239.411"/>
</g>
<!-- Node8 -->
<g id="node8" class="node"><title>Node8</title>
<g id="a_node8"><a xlink:href="classfwGdcmIO_1_1container_1_1sr_1_1DicomSRSCoordNode.html#a840f5b842ea56b6e2c9dd0dfce7aaa90" target="_top" xlink:title="Write the SR node in the dataset. ">
<polygon fill="white" stroke="black" points="409,-180.5 409,-221.5 545,-221.5 545,-180.5 409,-180.5"/>
<text text-anchor="start" x="417" y="-209.5" font-family="Helvetica,sans-Serif" font-size="10.00">fwGdcmIO::container</text>
<text text-anchor="start" x="417" y="-198.5" font-family="Helvetica,sans-Serif" font-size="10.00">::sr::DicomSRSCoordNode</text>
<text text-anchor="middle" x="477" y="-187.5" font-family="Helvetica,sans-Serif" font-size="10.00">::write</text>
</a>
</g>
</g>
<!-- Node2&#45;&gt;Node8 -->
<g id="edge7" class="edge"><title>Node2&#45;&gt;Node8</title>
<path fill="none" stroke="midnightblue" d="M363.354,-219.072C378.362,-216.664 394.058,-214.146 408.803,-211.78"/>
<polygon fill="midnightblue" stroke="midnightblue" points="362.412,-215.678 353.093,-220.718 363.521,-222.589 362.412,-215.678"/>
</g>
<!-- Node9 -->
<g id="node9" class="node"><title>Node9</title>
<g id="a_node9"><a xlink:href="classfwGdcmIO_1_1container_1_1sr_1_1DicomSRTextNode.html#a21a308a8dfc0d87a9043a02ae13e3176" target="_top" xlink:title="Write the SR node in the dataset. ">
<polygon fill="white" stroke="black" points="416,-120.5 416,-161.5 538,-161.5 538,-120.5 416,-120.5"/>
<text text-anchor="start" x="424" y="-149.5" font-family="Helvetica,sans-Serif" font-size="10.00">fwGdcmIO::container</text>
<text text-anchor="start" x="424" y="-138.5" font-family="Helvetica,sans-Serif" font-size="10.00">::sr::DicomSRTextNode</text>
<text text-anchor="middle" x="477" y="-127.5" font-family="Helvetica,sans-Serif" font-size="10.00">::write</text>
</a>
</g>
</g>
<!-- Node2&#45;&gt;Node9 -->
<g id="edge8" class="edge"><title>Node2&#45;&gt;Node9</title>
<path fill="none" stroke="midnightblue" d="M324.528,-210.925C346.55,-198.787 375.582,-183.329 402,-171 408.784,-167.834 415.998,-164.669 423.16,-161.645"/>
<polygon fill="midnightblue" stroke="midnightblue" points="322.596,-207.995 315.548,-215.905 325.991,-214.117 322.596,-207.995"/>
</g>
<!-- Node10 -->
<g id="node10" class="node"><title>Node10</title>
<g id="a_node10"><a xlink:href="classfwGdcmIO_1_1container_1_1sr_1_1DicomSRUIDRefNode.html#a20c728d0bc5a240f57d31dc7ac9ac83c" target="_top" xlink:title="Write the SR node in the dataset. ">
<polygon fill="white" stroke="black" points="408.5,-60.5 408.5,-101.5 545.5,-101.5 545.5,-60.5 408.5,-60.5"/>
<text text-anchor="start" x="416.5" y="-89.5" font-family="Helvetica,sans-Serif" font-size="10.00">fwGdcmIO::container</text>
<text text-anchor="start" x="416.5" y="-78.5" font-family="Helvetica,sans-Serif" font-size="10.00">::sr::DicomSRUIDRefNode</text>
<text text-anchor="middle" x="477" y="-67.5" font-family="Helvetica,sans-Serif" font-size="10.00">::write</text>
</a>
</g>
</g>
<!-- Node2&#45;&gt;Node10 -->
<g id="edge9" class="edge"><title>Node2&#45;&gt;Node10</title>
<path fill="none" stroke="midnightblue" d="M308.596,-207.944C334.996,-177.293 381.082,-125.32 402,-111 407.033,-107.554 412.522,-104.407 418.162,-101.557"/>
<polygon fill="midnightblue" stroke="midnightblue" points="305.876,-205.74 302.022,-215.609 311.189,-210.297 305.876,-205.74"/>
</g>
<!-- Node11&#45;&gt;Node6 -->
<g id="edge12" class="edge"><title>Node11&#45;&gt;Node6</title>
<path fill="none" stroke="midnightblue" d="M332.418,-88.141C353.163,-76.2157 378.533,-62.2456 402,-51 408.751,-47.7649 415.946,-44.5598 423.098,-41.516"/>
<polygon fill="midnightblue" stroke="midnightblue" points="330.434,-85.2455 323.534,-93.2854 333.942,-91.3033 330.434,-85.2455"/>
</g>
</g>
</svg>
        <g id="navigator" transform="translate(0 0)" fill="#404254">
                <rect fill="#f2f5e9" fill-opacity="0.5" stroke="#606060" stroke-width=".5" x="0" y="0" width="60" height="60"/>
                <use id="zoomplus" xlink:href="#zoomPlus" x="17" y="9" onmousedown="handleZoom(evt,'in')"/>
                <use id="zoomminus" xlink:href="#zoomMin" x="42" y="9" onmousedown="handleZoom(evt,'out')"/>
                <use id="reset" xlink:href="#resetDef" x="30" y="36" onmousedown="handleReset()"/>
                <g id="arrowUp" xlink:href="#dirArrow" transform="translate(30 24)" onmousedown="handlePan(0,-1)">
                  <use xlink:href="#rim" fill="#404040">
                        <set attributeName="fill" to="#808080" begin="arrowUp.mouseover" end="arrowUp.mouseout"/>
                  </use>
                  <path fill="none" stroke="white" stroke-width="1.5" d="M0,-3.0v7 M-2.5,-0.5L0,-3.0L2.5,-0.5"/>
                </g>
                <g id="arrowRight" xlink:href="#dirArrow" transform="rotate(90) translate(36 -43)" onmousedown="handlePan(1,0)">
                  <use xlink:href="#rim" fill="#404040">
                        <set attributeName="fill" to="#808080" begin="arrowRight.mouseover" end="arrowRight.mouseout"/>
                  </use>
                  <path fill="none" stroke="white" stroke-width="1.5" d="M0,-3.0v7 M-2.5,-0.5L0,-3.0L2.5,-0.5"/>
                </g>
                <g id="arrowDown" xlink:href="#dirArrow" transform="rotate(180) translate(-30 -48)" onmousedown="handlePan(0,1)">
                  <use xlink:href="#rim" fill="#404040">
                        <set attributeName="fill" to="#808080" begin="arrowDown.mouseover" end="arrowDown.mouseout"/>
                  </use>
                  <path fill="none" stroke="white" stroke-width="1.5" d="M0,-3.0v7 M-2.5,-0.5L0,-3.0L2.5,-0.5"/>
                </g>
                <g id="arrowLeft" xlink:href="#dirArrow" transform="rotate(270) translate(-36 17)" onmousedown="handlePan(-1,0)">
                  <use xlink:href="#rim" fill="#404040">
                        <set attributeName="fill" to="#808080" begin="arrowLeft.mouseover" end="arrowLeft.mouseout"/>
                  </use>
                  <path fill="none" stroke="white" stroke-width="1.5" d="M0,-3.0v7 M-2.5,-0.5L0,-3.0L2.5,-0.5"/>
                </g>
        </g>
        <svg viewBox="0 0 15 15" width="100%" height="30px" preserveAspectRatio="xMaxYMin meet">
         <g id="arrow_out" transform="scale(0.3 0.3)">
          <a xlink:href="classfwGdcmIO_1_1container_1_1sr_1_1DicomSRNode_a2db112a4479d6d5815f14b883459088b_icgraph_org.svg" target="_base">
           <rect id="button" ry="5" rx="5" y="6" x="6" height="38" width="38"
                fill="#f2f5e9" fill-opacity="0.5" stroke="#606060" stroke-width="1.0"/>
           <path id="arrow"
             d="M 11.500037,31.436501 C 11.940474,20.09759 22.043105,11.32322 32.158766,21.979434 L 37.068811,17.246167 C 37.068811,17.246167 37.088388,32 37.088388,32 L 22.160133,31.978069 C 22.160133,31.978069 26.997745,27.140456 26.997745,27.140456 C 18.528582,18.264221 13.291696,25.230495 11.500037,31.436501 z"
             style="fill:#404040;"/>
          </a>
         </g>
        </svg>
</svg>
