<?xml version="1.0" encoding="UTF-8" standalone="no"?>
<!DOCTYPE svg PUBLIC "-//W3C//DTD SVG 1.1//EN"
 "http://www.w3.org/Graphics/SVG/1.1/DTD/svg11.dtd">
<!-- Generated by graphviz version 2.36.0 (20140111.2315)
 -->
<!-- Title: uiMeasurementQt::editor::SLandmarks::stopping Pages: 1 -->
<svg width="640pt" height="48pt"
 viewBox="0.00 0.00 640.00 48.00" xmlns="http://www.w3.org/2000/svg" xmlns:xlink="http://www.w3.org/1999/xlink">
<g id="graph0" class="graph" transform="scale(1 1) rotate(0) translate(4 44)">
<title>uiMeasurementQt::editor::SLandmarks::stopping</title>
<polygon fill="white" stroke="none" points="-4,4 -4,-44 636,-44 636,4 -4,4"/>
<!-- Node1 -->
<g id="node1" class="node"><title>Node1</title>
<polygon fill="#bfbfbf" stroke="black" points="0,-5 0,-35 124,-35 124,-5 0,-5"/>
<text text-anchor="start" x="8" y="-23" font-family="Helvetica,sans-Serif" font-size="10.00">uiMeasurementQt::editor</text>
<text text-anchor="middle" x="62" y="-12" font-family="Helvetica,sans-Serif" font-size="10.00">::SLandmarks::stopping</text>
</g>
<!-- Node2 -->
<g id="node2" class="node"><title>Node2</title>
<g id="a_node2"><a xlink:href="classfwGui_1_1IGuiContainerSrv.html#a7f9bdbb8b884d1fe3fd42a3ebfcd4184" target="_top" xlink:title="Stops sub&#45;views and toobar services. Destroys view, sub&#45;views and toolbar containers. ">
<polygon fill="white" stroke="black" points="160.5,-5 160.5,-35 283.5,-35 283.5,-5 160.5,-5"/>
<text text-anchor="start" x="168.5" y="-23" font-family="Helvetica,sans-Serif" font-size="10.00">fwGui::IGuiContainerSrv</text>
<text text-anchor="middle" x="222" y="-12" font-family="Helvetica,sans-Serif" font-size="10.00">::destroy</text>
</a>
</g>
</g>
<!-- Node1&#45;&gt;Node2 -->
<g id="edge1" class="edge"><title>Node1&#45;&gt;Node2</title>
<path fill="none" stroke="midnightblue" d="M124.087,-20C132.638,-20 141.484,-20 150.196,-20"/>
<polygon fill="midnightblue" stroke="midnightblue" points="150.336,-23.5001 160.336,-20 150.336,-16.5001 150.336,-23.5001"/>
</g>
<!-- Node3 -->
<g id="node3" class="node"><title>Node3</title>
<g id="a_node3"><a xlink:href="classfwServices_1_1registry_1_1ActiveWorkers.html#aae9d40e1fe222f0d14ac8284d3abf83c" target="_top" xlink:title="Get the default registered worker. ">
<polygon fill="white" stroke="black" points="320,0.5 320,-40.5 458,-40.5 458,0.5 320,0.5"/>
<text text-anchor="start" x="328" y="-28.5" font-family="Helvetica,sans-Serif" font-size="10.00">fwServices::registry</text>
<text text-anchor="start" x="328" y="-17.5" font-family="Helvetica,sans-Serif" font-size="10.00">::ActiveWorkers::getDefault</text>
<text text-anchor="middle" x="389" y="-6.5" font-family="Helvetica,sans-Serif" font-size="10.00">Worker</text>
</a>
</g>
</g>
<!-- Node2&#45;&gt;Node3 -->
<g id="edge2" class="edge"><title>Node2&#45;&gt;Node3</title>
<path fill="none" stroke="midnightblue" d="M283.503,-20C292.031,-20 300.897,-20 309.699,-20"/>
<polygon fill="midnightblue" stroke="midnightblue" points="309.978,-23.5001 319.978,-20 309.978,-16.5001 309.978,-23.5001"/>
</g>
<!-- Node4 -->
<g id="node4" class="node"><title>Node4</title>
<g id="a_node4"><a xlink:href="classfwServices_1_1registry_1_1ActiveWorkers.html#a96003a042657996f7297f459e927ae16" target="_top" xlink:title="Returns an instance of ActiveWorkers. ">
<polygon fill="white" stroke="black" points="494,-5 494,-35 632,-35 632,-5 494,-5"/>
<text text-anchor="start" x="502" y="-23" font-family="Helvetica,sans-Serif" font-size="10.00">fwServices::registry</text>
<text text-anchor="middle" x="563" y="-12" font-family="Helvetica,sans-Serif" font-size="10.00">::ActiveWorkers::getDefault</text>
</a>
</g>
</g>
<!-- Node3&#45;&gt;Node4 -->
<g id="edge3" class="edge"><title>Node3&#45;&gt;Node4</title>
<path fill="none" stroke="midnightblue" d="M458.473,-20C466.732,-20 475.216,-20 483.602,-20"/>
<polygon fill="midnightblue" stroke="midnightblue" points="483.762,-23.5001 493.762,-20 483.762,-16.5001 483.762,-23.5001"/>
</g>
</g>
</svg>
