<?xml version="1.0" encoding="UTF-8" standalone="no"?>
<!DOCTYPE svg PUBLIC "-//W3C//DTD SVG 1.1//EN"
 "http://www.w3.org/Graphics/SVG/1.1/DTD/svg11.dtd">
<!-- Generated by graphviz version 2.26.3 (20100126.1600)
 -->
<!-- Title: scene2D::adaptor::TransferFunction::doSwap Pages: 1 -->
<!--zoomable 318 -->
<svg id="main" version="1.1" xmlns="http://www.w3.org/2000/svg" xmlns:xlink="http://www.w3.org/1999/xlink" xml:space="preserve" onload="init(evt)">
<style type="text/css"><![CDATA[
.edge:hover path { stroke: red; }
.edge:hover polygon { stroke: red; fill: red; }
]]></style>
<script type="text/javascript"><![CDATA[
var edges = document.getElementsByTagName('g');
if (edges && edges.length) {
  for (var i=0;i<edges.length;i++) {
    if (edges[i].id.substr(0,4)=='edge') {
      edges[i].setAttribute('class','edge');
    }
  }
}
]]></script>
        <defs>
                <circle id="rim" cx="0" cy="0" r="7"/>
                <circle id="rim2" cx="0" cy="0" r="3.5"/>
                <g id="zoomPlus">
                        <use xlink:href="#rim" fill="#404040">
                                <set attributeName="fill" to="#808080" begin="zoomplus.mouseover" end="zoomplus.mouseout"/>
                        </use>
                        <path d="M-4,0h8M0,-4v8" fill="none" stroke="white" stroke-width="1.5" pointer-events="none"/>
                </g>
                <g id="zoomMin">
                        <use xlink:href="#rim" fill="#404040">
                                <set attributeName="fill" to="#808080" begin="zoomminus.mouseover" end="zoomminus.mouseout"/>
                        </use>
                        <path d="M-4,0h8" fill="none" stroke="white" stroke-width="1.5" pointer-events="none"/>
                </g>
                <g id="dirArrow">
                        <path fill="none" stroke="white" stroke-width="1.5" d="M0,-3.0v7 M-2.5,-0.5L0,-3.0L2.5,-0.5"/>
                </g>
               <g id="resetDef">
                       <use xlink:href="#rim2" fill="#404040">
                               <set attributeName="fill" to="#808080" begin="reset.mouseover" end="reset.mouseout"/>
                       </use>
               </g>
        </defs>

<script type="text/javascript">
var viewWidth = 952;
var viewHeight = 318;
var sectionId = 'dynsection-4';
</script>
<script xlink:href="svgpan.js"/>
<svg id="graph" class="graph">
<g id="viewport">
<title>scene2D::adaptor::TransferFunction::doSwap</title>
<polygon fill="white" stroke="white" points="-4,5 -4,-314 949,-314 949,5 -4,5"/>
<!-- Node1 -->
<g id="node1" class="node"><title>Node1</title>
<polygon fill="#bfbfbf" stroke="black" points="0,-75 0,-109 136,-109 136,-75 0,-75"/>
<text text-anchor="start" x="8" y="-96" font-family="Helvetica,sans-Serif" font-size="10.00">scene2D::adaptor::Transfer</text>
<text text-anchor="middle" x="68" y="-83" font-family="Helvetica,sans-Serif" font-size="10.00">Function::doSwap</text>
</g>
<!-- Node2 -->
<g id="node3" class="node"><title>Node2</title>
<a xlink:href="classscene2D_1_1adaptor_1_1TransferFunction.html#a30a485999be455171cd8318f306d7fc0" target="_top" xlink:title="scene2D::adaptor::Transfer\lFunction::doUpdate">
<polygon fill="white" stroke="black" points="195,-141 195,-175 331,-175 331,-141 195,-141"/>
<text text-anchor="start" x="203" y="-162" font-family="Helvetica,sans-Serif" font-size="10.00">scene2D::adaptor::Transfer</text>
<text text-anchor="middle" x="263" y="-149" font-family="Helvetica,sans-Serif" font-size="10.00">Function::doUpdate</text>
</a>
</g>
<!-- Node1&#45;&gt;Node2 -->
<g id="edge2" class="edge"><title>Node1&#45;&gt;Node2</title>
<path fill="none" stroke="midnightblue" d="M118.471,-109.082C144.301,-117.825 175.921,-128.527 202.992,-137.69"/>
<polygon fill="midnightblue" stroke="midnightblue" points="202.146,-141.098 212.741,-140.989 204.391,-134.468 202.146,-141.098"/>
</g>
<!-- Node13 -->
<g id="node29" class="node"><title>Node13</title>
<a xlink:href="classfwComEd_1_1helper_1_1MedicalImageAdaptor.html#a845eaea142fe0fffe8cac740f83f4c4f" target="_top" xlink:title="Install connections to listen TF modifications. ">
<polygon fill="white" stroke="black" points="175,-75 175,-109 351,-109 351,-75 175,-75"/>
<text text-anchor="start" x="183" y="-96" font-family="Helvetica,sans-Serif" font-size="10.00">fwComEd::helper::Medical</text>
<text text-anchor="middle" x="263" y="-83" font-family="Helvetica,sans-Serif" font-size="10.00">ImageAdaptor::installTFConnections</text>
</a>
</g>
<!-- Node1&#45;&gt;Node13 -->
<g id="edge32" class="edge"><title>Node1&#45;&gt;Node13</title>
<path fill="none" stroke="midnightblue" d="M136.202,-92C145.494,-92 155.178,-92 164.87,-92"/>
<polygon fill="midnightblue" stroke="midnightblue" points="164.958,-95.5001 174.958,-92 164.958,-88.5001 164.958,-95.5001"/>
</g>
<!-- Node16 -->
<g id="node35" class="node"><title>Node16</title>
<a xlink:href="classfwComEd_1_1helper_1_1MedicalImageAdaptor.html#aa84a2bd51463a191c673bcd0b07a7cb9" target="_top" xlink:title="Remove the TF connections. ">
<polygon fill="white" stroke="black" points="172,-23 172,-57 354,-57 354,-23 172,-23"/>
<text text-anchor="start" x="180" y="-44" font-family="Helvetica,sans-Serif" font-size="10.00">fwComEd::helper::Medical</text>
<text text-anchor="middle" x="263" y="-31" font-family="Helvetica,sans-Serif" font-size="10.00">ImageAdaptor::removeTFConnections</text>
</a>
</g>
<!-- Node1&#45;&gt;Node16 -->
<g id="edge38" class="edge"><title>Node1&#45;&gt;Node16</title>
<path fill="none" stroke="midnightblue" d="M131.85,-74.9733C150.2,-70.08 170.363,-64.7033 189.257,-59.6647"/>
<polygon fill="midnightblue" stroke="midnightblue" points="190.246,-63.0235 199.006,-57.065 188.442,-56.2599 190.246,-63.0235"/>
</g>
<!-- Node3 -->
<g id="node5" class="node"><title>Node3</title>
<a xlink:href="classfwComEd_1_1helper_1_1MedicalImageAdaptor.html#a3d27d250eb47bec918554189318ed543" target="_top" xlink:title="Update the image information (slice index, min/max,...) ">
<polygon fill="white" stroke="black" points="394.5,-200 394.5,-234 555.5,-234 555.5,-200 394.5,-200"/>
<text text-anchor="start" x="402.5" y="-221" font-family="Helvetica,sans-Serif" font-size="10.00">fwComEd::helper::Medical</text>
<text text-anchor="middle" x="475" y="-208" font-family="Helvetica,sans-Serif" font-size="10.00">ImageAdaptor::updateImageInfos</text>
</a>
</g>
<!-- Node2&#45;&gt;Node3 -->
<g id="edge4" class="edge"><title>Node2&#45;&gt;Node3</title>
<path fill="none" stroke="midnightblue" d="M324.319,-175.065C349.259,-182.006 378.239,-190.071 404.082,-197.263"/>
<polygon fill="midnightblue" stroke="midnightblue" points="403.246,-200.664 413.819,-199.973 405.123,-193.92 403.246,-200.664"/>
</g>
<!-- Node4 -->
<g id="node7" class="node"><title>Node4</title>
<a xlink:href="classfwComEd_1_1helper_1_1MedicalImageAdaptor.html#a82c1509bc6a0113a631c234702c67a54" target="_top" xlink:title="Update the transfer function information. ">
<polygon fill="white" stroke="black" points="400.5,-134.5 400.5,-181.5 549.5,-181.5 549.5,-134.5 400.5,-134.5"/>
<text text-anchor="start" x="408.5" y="-168.5" font-family="Helvetica,sans-Serif" font-size="10.00">fwComEd::helper::Medical</text>
<text text-anchor="start" x="408.5" y="-155.5" font-family="Helvetica,sans-Serif" font-size="10.00">ImageAdaptor::updateTransfer</text>
<text text-anchor="middle" x="475" y="-142.5" font-family="Helvetica,sans-Serif" font-size="10.00">Function</text>
</a>
</g>
<!-- Node2&#45;&gt;Node4 -->
<g id="edge6" class="edge"><title>Node2&#45;&gt;Node4</title>
<path fill="none" stroke="midnightblue" d="M331.245,-158C350.005,-158 370.58,-158 390.152,-158"/>
<polygon fill="midnightblue" stroke="midnightblue" points="390.28,-161.5 400.28,-158 390.28,-154.5 390.28,-161.5"/>
</g>
<!-- Node5 -->
<g id="node9" class="node"><title>Node5</title>
<a xlink:href="classfwTools_1_1fwID.html#a49c219235064892bb906498913fe8175" target="_top" xlink:title="Retrieve the object attached to the given id. Return a null sptr if no correspondence exist...">
<polygon fill="white" stroke="black" points="605,-246.5 605,-267.5 731,-267.5 731,-246.5 605,-246.5"/>
<text text-anchor="middle" x="668" y="-254.5" font-family="Helvetica,sans-Serif" font-size="10.00">fwTools::fwID::getObject</text>
</a>
</g>
<!-- Node4&#45;&gt;Node5 -->
<g id="edge8" class="edge"><title>Node4&#45;&gt;Node5</title>
<path fill="none" stroke="midnightblue" d="M544.213,-181.535C549.731,-184.401 555.07,-187.553 560,-191 579.872,-204.898 575.88,-218.464 596,-232 602.189,-236.164 609.144,-239.706 616.227,-242.699"/>
<polygon fill="midnightblue" stroke="midnightblue" points="615.317,-246.1 625.906,-246.446 617.844,-239.572 615.317,-246.1"/>
</g>
<!-- Node6 -->
<g id="node11" class="node"><title>Node6</title>
<a xlink:href="classfwComEd_1_1fieldHelper_1_1MedicalImageHelpers.html#a5a9e6da3b6d58f66360a937620f547b1" target="_top" xlink:title="Check if the image is valid. ">
<polygon fill="white" stroke="black" points="801.5,-262.5 801.5,-309.5 918.5,-309.5 918.5,-262.5 801.5,-262.5"/>
<text text-anchor="start" x="809.5" y="-296.5" font-family="Helvetica,sans-Serif" font-size="10.00">fwComEd::fieldHelper</text>
<text text-anchor="start" x="809.5" y="-283.5" font-family="Helvetica,sans-Serif" font-size="10.00">::MedicalImageHelpers</text>
<text text-anchor="middle" x="860" y="-270.5" font-family="Helvetica,sans-Serif" font-size="10.00">::checkImageValidity</text>
</a>
</g>
<!-- Node4&#45;&gt;Node6 -->
<g id="edge10" class="edge"><title>Node4&#45;&gt;Node6</title>
<path fill="none" stroke="midnightblue" d="M536.344,-181.609C559.984,-190.537 584.148,-199.412 596,-203 658.939,-222.053 677.684,-216 740,-237 756.592,-242.592 759.848,-246.242 776,-253 781.059,-255.117 786.305,-257.272 791.592,-259.414"/>
<polygon fill="midnightblue" stroke="midnightblue" points="790.537,-262.763 801.121,-263.248 793.15,-256.269 790.537,-262.763"/>
</g>
<!-- Node7 -->
<g id="node13" class="node"><title>Node7</title>
<a xlink:href="classfwComEd_1_1fieldHelper_1_1MedicalImageHelpers.html#ae4e6699751faeb6ca802855220b384a2" target="_top" xlink:title="Return minimum and maximum values contained in image. If image min or max value is out of MINMAXTYPE ...">
<polygon fill="white" stroke="black" points="801.5,-196.5 801.5,-243.5 918.5,-243.5 918.5,-196.5 801.5,-196.5"/>
<text text-anchor="start" x="809.5" y="-230.5" font-family="Helvetica,sans-Serif" font-size="10.00">fwComEd::fieldHelper</text>
<text text-anchor="start" x="809.5" y="-217.5" font-family="Helvetica,sans-Serif" font-size="10.00">::MedicalImageHelpers</text>
<text text-anchor="middle" x="860" y="-204.5" font-family="Helvetica,sans-Serif" font-size="10.00">::getMinMax</text>
</a>
</g>
<!-- Node4&#45;&gt;Node7 -->
<g id="edge12" class="edge"><title>Node4&#45;&gt;Node7</title>
<path fill="none" stroke="midnightblue" d="M549.688,-170.028C619.575,-181.282 723.122,-197.957 791.077,-208.901"/>
<polygon fill="midnightblue" stroke="midnightblue" points="790.823,-212.405 801.252,-210.539 791.936,-205.494 790.823,-212.405"/>
</g>
<!-- Node8 -->
<g id="node15" class="node"><title>Node8</title>
<a xlink:href="classfwComEd_1_1helper_1_1Composite.html#a9a13f6097cbb512bb6cdfab6987b4b5b" target="_top" xlink:title="Add an object in the composite. ">
<polygon fill="white" stroke="black" points="776.5,-52.5 776.5,-73.5 943.5,-73.5 943.5,-52.5 776.5,-52.5"/>
<text text-anchor="middle" x="860" y="-60.5" font-family="Helvetica,sans-Serif" font-size="10.00">fwComEd::helper::Composite::add</text>
</a>
</g>
<!-- Node4&#45;&gt;Node8 -->
<g id="edge14" class="edge"><title>Node4&#45;&gt;Node8</title>
<path fill="none" stroke="midnightblue" d="M536.884,-134.373C544.689,-131.277 552.546,-128.101 560,-125 576.166,-118.274 579.249,-114.097 596,-109 651.393,-92.1457 715.321,-80.8071 766.394,-73.6048"/>
<polygon fill="midnightblue" stroke="midnightblue" points="767.003,-77.0539 776.431,-72.219 766.046,-70.1197 767.003,-77.0539"/>
</g>
<!-- Node9 -->
<g id="node17" class="node"><title>Node9</title>
<a xlink:href="classfwComEd_1_1helper_1_1Composite.html#a7ee86890a448cf9e0680f6d97a91eb4b" target="_top" xlink:title="Send the message of modification. ">
<polygon fill="white" stroke="black" points="787,-0 787,-34 933,-34 933,-0 787,-0"/>
<text text-anchor="start" x="795" y="-21" font-family="Helvetica,sans-Serif" font-size="10.00">fwComEd::helper::Composite</text>
<text text-anchor="middle" x="860" y="-8" font-family="Helvetica,sans-Serif" font-size="10.00">::notify</text>
</a>
</g>
<!-- Node4&#45;&gt;Node9 -->
<g id="edge16" class="edge"><title>Node4&#45;&gt;Node9</title>
<path fill="none" stroke="midnightblue" d="M545.942,-134.353C550.9,-131.541 555.65,-128.431 560,-125 582.071,-107.593 572.598,-88.5719 596,-73 649.521,-37.3862 721.509,-23.8615 776.794,-18.9783"/>
<polygon fill="midnightblue" stroke="midnightblue" points="777.228,-22.4549 786.914,-18.1637 776.666,-15.4774 777.228,-22.4549"/>
</g>
<!-- Node10 -->
<g id="node19" class="node"><title>Node10</title>
<a xlink:href="classfwComEd_1_1helper_1_1Image.html#a433706f74a7d6de3853c8489dcab54ec" target="_top" xlink:title="Create transfer function pool if the pool is not present, NOT GENERATE MESSAGE. ">
<polygon fill="white" stroke="black" points="596.5,-118 596.5,-152 739.5,-152 739.5,-118 596.5,-118"/>
<text text-anchor="start" x="604.5" y="-139" font-family="Helvetica,sans-Serif" font-size="10.00">fwComEd::helper::Image</text>
<text text-anchor="middle" x="668" y="-126" font-family="Helvetica,sans-Serif" font-size="10.00">::createTransferFunctionPool</text>
</a>
</g>
<!-- Node4&#45;&gt;Node10 -->
<g id="edge18" class="edge"><title>Node4&#45;&gt;Node10</title>
<path fill="none" stroke="midnightblue" d="M549.619,-149.108C561.635,-147.676 574.129,-146.187 586.301,-144.736"/>
<polygon fill="midnightblue" stroke="midnightblue" points="586.917,-148.188 596.433,-143.529 586.089,-141.237 586.917,-148.188"/>
</g>
<!-- Node10&#45;&gt;Node6 -->
<g id="edge22" class="edge"><title>Node10&#45;&gt;Node6</title>
<path fill="none" stroke="midnightblue" d="M687.532,-152.024C702.544,-165.499 723.444,-185.129 740,-204 757.822,-224.314 754.581,-236.522 776,-253 780.971,-256.825 786.442,-260.26 792.134,-263.334"/>
<polygon fill="midnightblue" stroke="midnightblue" points="790.711,-266.536 801.221,-267.872 793.838,-260.273 790.711,-266.536"/>
</g>
<!-- Node10&#45;&gt;Node7 -->
<g id="edge24" class="edge"><title>Node10&#45;&gt;Node7</title>
<path fill="none" stroke="midnightblue" d="M709.896,-152.019C719.87,-156.35 730.401,-161.157 740,-166 756.537,-174.345 759.33,-178.923 776,-187 781.149,-189.495 786.538,-191.949 791.994,-194.324"/>
<polygon fill="midnightblue" stroke="midnightblue" points="790.636,-197.55 801.208,-198.239 793.373,-191.107 790.636,-197.55"/>
</g>
<!-- Node10&#45;&gt;Node8 -->
<g id="edge20" class="edge"><title>Node10&#45;&gt;Node8</title>
<path fill="none" stroke="midnightblue" d="M698.898,-117.922C720.093,-106.762 749.134,-92.5408 776,-83 783.072,-80.4885 790.591,-78.1944 798.11,-76.1288"/>
<polygon fill="midnightblue" stroke="midnightblue" points="799.174,-79.4682 807.959,-73.5458 797.399,-72.6972 799.174,-79.4682"/>
</g>
<!-- Node10&#45;&gt;Node9 -->
<g id="edge28" class="edge"><title>Node10&#45;&gt;Node9</title>
<path fill="none" stroke="midnightblue" d="M683.954,-117.66C703.724,-97.1285 739.311,-63.18 776,-43 779.104,-41.2929 782.335,-39.6816 785.645,-38.1629"/>
<polygon fill="midnightblue" stroke="midnightblue" points="787.308,-41.2589 795.141,-34.1249 784.569,-34.817 787.308,-41.2589"/>
</g>
<!-- Node11 -->
<g id="node24" class="node"><title>Node11</title>
<a xlink:href="classfwComEd_1_1helper_1_1Field.html#a3d4bfe6d337875d690d45ac96676a781" target="_top" xlink:title="Send the built message. ">
<polygon fill="white" stroke="black" points="800.5,-144 800.5,-178 919.5,-178 919.5,-144 800.5,-144"/>
<text text-anchor="start" x="808.5" y="-165" font-family="Helvetica,sans-Serif" font-size="10.00">fwComEd::helper::Field</text>
<text text-anchor="middle" x="860" y="-152" font-family="Helvetica,sans-Serif" font-size="10.00">::notify</text>
</a>
</g>
<!-- Node10&#45;&gt;Node11 -->
<g id="edge26" class="edge"><title>Node10&#45;&gt;Node11</title>
<path fill="none" stroke="midnightblue" d="M739.767,-144.718C756.261,-146.952 773.777,-149.324 790.188,-151.546"/>
<polygon fill="midnightblue" stroke="midnightblue" points="789.864,-155.034 800.243,-152.908 790.804,-148.098 789.864,-155.034"/>
</g>
<!-- Node12 -->
<g id="node27" class="node"><title>Node12</title>
<a xlink:href="classfwComEd_1_1helper_1_1Field.html#ac9e8f0e7afff01116aa299d64ec47280" target="_top" xlink:title="Register field with specified name. If the name does already exist, the matching field will be replac...">
<polygon fill="white" stroke="black" points="800.5,-92 800.5,-126 919.5,-126 919.5,-92 800.5,-92"/>
<text text-anchor="start" x="808.5" y="-113" font-family="Helvetica,sans-Serif" font-size="10.00">fwComEd::helper::Field</text>
<text text-anchor="middle" x="860" y="-100" font-family="Helvetica,sans-Serif" font-size="10.00">::setField</text>
</a>
</g>
<!-- Node10&#45;&gt;Node12 -->
<g id="edge30" class="edge"><title>Node10&#45;&gt;Node12</title>
<path fill="none" stroke="midnightblue" d="M739.767,-125.282C756.261,-123.048 773.777,-120.676 790.188,-118.454"/>
<polygon fill="midnightblue" stroke="midnightblue" points="790.804,-121.902 800.243,-117.092 789.864,-114.966 790.804,-121.902"/>
</g>
<!-- Node14 -->
<g id="node31" class="node"><title>Node14</title>
<a xlink:href="classfwComEd_1_1helper_1_1MedicalImageAdaptor.html#a1567ce5e6975bc02c55bd4b3035996f4" target="_top" xlink:title="Get the current transfer function selection. ">
<polygon fill="white" stroke="black" points="390,-68.5 390,-115.5 560,-115.5 560,-68.5 390,-68.5"/>
<text text-anchor="start" x="398" y="-102.5" font-family="Helvetica,sans-Serif" font-size="10.00">fwComEd::helper::Medical</text>
<text text-anchor="start" x="398" y="-89.5" font-family="Helvetica,sans-Serif" font-size="10.00">ImageAdaptor::getTransferFunction</text>
<text text-anchor="middle" x="475" y="-76.5" font-family="Helvetica,sans-Serif" font-size="10.00">Selection</text>
</a>
</g>
<!-- Node13&#45;&gt;Node14 -->
<g id="edge34" class="edge"><title>Node13&#45;&gt;Node14</title>
<path fill="none" stroke="midnightblue" d="M351.065,-92C360.506,-92 370.142,-92 379.662,-92"/>
<polygon fill="midnightblue" stroke="midnightblue" points="379.932,-95.5001 389.932,-92 379.932,-88.5001 379.932,-95.5001"/>
</g>
<!-- Node15 -->
<g id="node33" class="node"><title>Node15</title>
<a xlink:href="classfwComEd_1_1helper_1_1MedicalImageAdaptor.html#a80f33a841d4848c99f4becebed7c4641" target="_top" xlink:title="Get the current transfer function. ">
<polygon fill="white" stroke="black" points="390,-16 390,-50 560,-50 560,-16 390,-16"/>
<text text-anchor="start" x="398" y="-37" font-family="Helvetica,sans-Serif" font-size="10.00">fwComEd::helper::Medical</text>
<text text-anchor="middle" x="475" y="-24" font-family="Helvetica,sans-Serif" font-size="10.00">ImageAdaptor::getTransferFunction</text>
</a>
</g>
<!-- Node13&#45;&gt;Node15 -->
<g id="edge36" class="edge"><title>Node13&#45;&gt;Node15</title>
<path fill="none" stroke="midnightblue" d="M324.319,-74.9348C349.259,-67.9939 378.239,-59.9288 404.082,-52.7365"/>
<polygon fill="midnightblue" stroke="midnightblue" points="405.123,-56.0799 413.819,-50.0269 403.246,-49.3362 405.123,-56.0799"/>
</g>
</g>
</svg>
        <g id="navigator" transform="translate(0 0)" fill="#404254">
                <rect fill="#f2f5e9" fill-opacity="0.5" stroke="#606060" stroke-width=".5" x="0" y="0" width="60" height="60"/>
                <use id="zoomplus" xlink:href="#zoomPlus" x="17" y="9" onmousedown="handleZoom(evt,'in')"/>
                <use id="zoomminus" xlink:href="#zoomMin" x="42" y="9" onmousedown="handleZoom(evt,'out')"/>
                <use id="reset" xlink:href="#resetDef" x="30" y="36" onmousedown="handleReset()"/>
                <g id="arrowUp" xlink:href="#dirArrow" transform="translate(30 24)" onmousedown="handlePan(0,-1)">
                  <use xlink:href="#rim" fill="#404040">
                        <set attributeName="fill" to="#808080" begin="arrowUp.mouseover" end="arrowUp.mouseout"/>
                  </use>
                  <path fill="none" stroke="white" stroke-width="1.5" d="M0,-3.0v7 M-2.5,-0.5L0,-3.0L2.5,-0.5"/>
                </g>
                <g id="arrowRight" xlink:href="#dirArrow" transform="rotate(90) translate(36 -43)" onmousedown="handlePan(1,0)">
                  <use xlink:href="#rim" fill="#404040">
                        <set attributeName="fill" to="#808080" begin="arrowRight.mouseover" end="arrowRight.mouseout"/>
                  </use>
                  <path fill="none" stroke="white" stroke-width="1.5" d="M0,-3.0v7 M-2.5,-0.5L0,-3.0L2.5,-0.5"/>
                </g>
                <g id="arrowDown" xlink:href="#dirArrow" transform="rotate(180) translate(-30 -48)" onmousedown="handlePan(0,1)">
                  <use xlink:href="#rim" fill="#404040">
                        <set attributeName="fill" to="#808080" begin="arrowDown.mouseover" end="arrowDown.mouseout"/>
                  </use>
                  <path fill="none" stroke="white" stroke-width="1.5" d="M0,-3.0v7 M-2.5,-0.5L0,-3.0L2.5,-0.5"/>
                </g>
                <g id="arrowLeft" xlink:href="#dirArrow" transform="rotate(270) translate(-36 17)" onmousedown="handlePan(-1,0)">
                  <use xlink:href="#rim" fill="#404040">
                        <set attributeName="fill" to="#808080" begin="arrowLeft.mouseover" end="arrowLeft.mouseout"/>
                  </use>
                  <path fill="none" stroke="white" stroke-width="1.5" d="M0,-3.0v7 M-2.5,-0.5L0,-3.0L2.5,-0.5"/>
                </g>
        </g>
        <svg viewBox="0 0 15 15" width="100%" height="30px" preserveAspectRatio="xMaxYMin meet">
         <g id="arrow_out" transform="scale(0.3 0.3)">
          <a xlink:href="classscene2D_1_1adaptor_1_1TransferFunction_a68b01fe89662003807bebf531e5c80af_cgraph_org.svg" target="_base">
           <rect id="button" ry="5" rx="5" y="6" x="6" height="38" width="38"
                fill="#f2f5e9" fill-opacity="0.5" stroke="#606060" stroke-width="1.0"/>
           <path id="arrow"
             d="M 11.500037,31.436501 C 11.940474,20.09759 22.043105,11.32322 32.158766,21.979434 L 37.068811,17.246167 C 37.068811,17.246167 37.088388,32 37.088388,32 L 22.160133,31.978069 C 22.160133,31.978069 26.997745,27.140456 26.997745,27.140456 C 18.528582,18.264221 13.291696,25.230495 11.500037,31.436501 z"
             style="fill:#404040;"/>
          </a>
         </g>
        </svg>
</svg>
