<?xml version="1.0" encoding="UTF-8" standalone="no"?>
<!DOCTYPE svg PUBLIC "-//W3C//DTD SVG 1.1//EN"
 "http://www.w3.org/Graphics/SVG/1.1/DTD/svg11.dtd">
<!-- Generated by graphviz version 2.36.0 (20140111.2315)
 -->
<!-- Title: fwGdcmIO::helper::Fiducial::containsDistances Pages: 1 -->
<svg width="296pt" height="38pt"
 viewBox="0.00 0.00 296.00 38.00" xmlns="http://www.w3.org/2000/svg" xmlns:xlink="http://www.w3.org/1999/xlink">
<g id="graph0" class="graph" transform="scale(1 1) rotate(0) translate(4 34)">
<title>fwGdcmIO::helper::Fiducial::containsDistances</title>
<polygon fill="white" stroke="none" points="-4,4 -4,-34 292,-34 292,4 -4,4"/>
<!-- Node1 -->
<g id="node1" class="node"><title>Node1</title>
<polygon fill="#bfbfbf" stroke="black" points="0,-0 0,-30 136,-30 136,-0 0,-0"/>
<text text-anchor="start" x="8" y="-18" font-family="Helvetica,sans-Serif" font-size="10.00">fwGdcmIO::helper::Fiducial</text>
<text text-anchor="middle" x="68" y="-7" font-family="Helvetica,sans-Serif" font-size="10.00">::containsDistances</text>
</g>
<!-- Node2 -->
<g id="node2" class="node"><title>Node2</title>
<g id="a_node2"><a xlink:href="classfwMedData_1_1SeriesDB.html#a31baf9c6592eacf11a9860502f52388d" target="_top" xlink:title="Series container. ">
<polygon fill="white" stroke="black" points="172.5,-0 172.5,-30 287.5,-30 287.5,-0 172.5,-0"/>
<text text-anchor="start" x="180.5" y="-18" font-family="Helvetica,sans-Serif" font-size="10.00">fwMedData::SeriesDB</text>
<text text-anchor="middle" x="230" y="-7" font-family="Helvetica,sans-Serif" font-size="10.00">::getContainer</text>
</a>
</g>
</g>
<!-- Node1&#45;&gt;Node2 -->
<g id="edge1" class="edge"><title>Node1&#45;&gt;Node2</title>
<path fill="none" stroke="midnightblue" d="M136.391,-15C144.891,-15 153.586,-15 162.079,-15"/>
<polygon fill="midnightblue" stroke="midnightblue" points="162.312,-18.5001 172.312,-15 162.312,-11.5001 162.312,-18.5001"/>
</g>
</g>
</svg>
