<?xml version="1.0" encoding="UTF-8" standalone="no"?>
<!DOCTYPE svg PUBLIC "-//W3C//DTD SVG 1.1//EN"
 "http://www.w3.org/Graphics/SVG/1.1/DTD/svg11.dtd">
<!-- Generated by graphviz version 2.26.3 (20100126.1600)
 -->
<!-- Title: fwComEd::helper::Composite::notify Pages: 1 -->
<!--zoomable 406 -->
<svg id="main" version="1.1" xmlns="http://www.w3.org/2000/svg" xmlns:xlink="http://www.w3.org/1999/xlink" xml:space="preserve" onload="init(evt)">
<style type="text/css"><![CDATA[
.edge:hover path { stroke: red; }
.edge:hover polygon { stroke: red; fill: red; }
]]></style>
<script type="text/javascript"><![CDATA[
var edges = document.getElementsByTagName('g');
if (edges && edges.length) {
  for (var i=0;i<edges.length;i++) {
    if (edges[i].id.substr(0,4)=='edge') {
      edges[i].setAttribute('class','edge');
    }
  }
}
]]></script>
        <defs>
                <circle id="rim" cx="0" cy="0" r="7"/>
                <circle id="rim2" cx="0" cy="0" r="3.5"/>
                <g id="zoomPlus">
                        <use xlink:href="#rim" fill="#404040">
                                <set attributeName="fill" to="#808080" begin="zoomplus.mouseover" end="zoomplus.mouseout"/>
                        </use>
                        <path d="M-4,0h8M0,-4v8" fill="none" stroke="white" stroke-width="1.5" pointer-events="none"/>
                </g>
                <g id="zoomMin">
                        <use xlink:href="#rim" fill="#404040">
                                <set attributeName="fill" to="#808080" begin="zoomminus.mouseover" end="zoomminus.mouseout"/>
                        </use>
                        <path d="M-4,0h8" fill="none" stroke="white" stroke-width="1.5" pointer-events="none"/>
                </g>
                <g id="dirArrow">
                        <path fill="none" stroke="white" stroke-width="1.5" d="M0,-3.0v7 M-2.5,-0.5L0,-3.0L2.5,-0.5"/>
                </g>
               <g id="resetDef">
                       <use xlink:href="#rim2" fill="#404040">
                               <set attributeName="fill" to="#808080" begin="reset.mouseover" end="reset.mouseout"/>
                       </use>
               </g>
        </defs>

<script type="text/javascript">
var viewWidth = 886;
var viewHeight = 406;
var sectionId = 'dynsection-1';
</script>
<script xlink:href="svgpan.js"/>
<svg id="graph" class="graph">
<g id="viewport">
<title>fwComEd::helper::Composite::notify</title>
<polygon fill="white" stroke="white" points="-4,5 -4,-402 883,-402 883,5 -4,5"/>
<!-- Node1 -->
<g id="node1" class="node"><title>Node1</title>
<polygon fill="#bfbfbf" stroke="black" points="0,-108 0,-142 146,-142 146,-108 0,-108"/>
<text text-anchor="start" x="8" y="-129" font-family="Helvetica,sans-Serif" font-size="10.00">fwComEd::helper::Composite</text>
<text text-anchor="middle" x="73" y="-116" font-family="Helvetica,sans-Serif" font-size="10.00">::notify</text>
</g>
<!-- Node2 -->
<g id="node3" class="node"><title>Node2</title>
<a xlink:href="classfwComEd_1_1helper_1_1Image.html#a433706f74a7d6de3853c8489dcab54ec" target="_top" xlink:title="Create transfer function pool if the pool is not present, NOT GENERATE MESSAGE. ">
<polygon fill="white" stroke="black" points="182.5,-153 182.5,-187 325.5,-187 325.5,-153 182.5,-153"/>
<text text-anchor="start" x="190.5" y="-174" font-family="Helvetica,sans-Serif" font-size="10.00">fwComEd::helper::Image</text>
<text text-anchor="middle" x="254" y="-161" font-family="Helvetica,sans-Serif" font-size="10.00">::createTransferFunctionPool</text>
</a>
</g>
<!-- Node1&#45;&gt;Node2 -->
<g id="edge2" class="edge"><title>Node1&#45;&gt;Node2</title>
<path fill="none" stroke="midnightblue" d="M151.331,-144.474C162.696,-147.3 174.322,-150.191 185.475,-152.963"/>
<polygon fill="midnightblue" stroke="midnightblue" points="151.977,-141.029 141.428,-142.013 150.288,-147.822 151.977,-141.029"/>
</g>
<!-- Node3 -->
<g id="node5" class="node"><title>Node3</title>
<a xlink:href="classfwComEd_1_1helper_1_1MedicalImageAdaptor.html#a82c1509bc6a0113a631c234702c67a54" target="_top" xlink:title="Update the transfer function information. ">
<polygon fill="white" stroke="black" points="362.5,-146.5 362.5,-193.5 511.5,-193.5 511.5,-146.5 362.5,-146.5"/>
<text text-anchor="start" x="370.5" y="-180.5" font-family="Helvetica,sans-Serif" font-size="10.00">fwComEd::helper::Medical</text>
<text text-anchor="start" x="370.5" y="-167.5" font-family="Helvetica,sans-Serif" font-size="10.00">ImageAdaptor::updateTransfer</text>
<text text-anchor="middle" x="437" y="-154.5" font-family="Helvetica,sans-Serif" font-size="10.00">Function</text>
</a>
</g>
<!-- Node1&#45;&gt;Node3 -->
<g id="edge36" class="edge"><title>Node1&#45;&gt;Node3</title>
<path fill="none" stroke="midnightblue" d="M156.162,-127.994C205.699,-130.585 269.691,-135.344 326,-144 337.835,-145.819 350.276,-148.231 362.375,-150.853"/>
<polygon fill="midnightblue" stroke="midnightblue" points="156.3,-124.497 146.137,-127.489 155.948,-131.488 156.3,-124.497"/>
</g>
<!-- Node16 -->
<g id="node31" class="node"><title>Node16</title>
<a xlink:href="classuiImage_1_1WindowLevel.html#af89ef9fdebdd2a92ed56c06ac0bb4e14" target="_top" xlink:title="Swap current tf and notify other services. ">
<polygon fill="white" stroke="black" points="187,-56 187,-90 321,-90 321,-56 187,-56"/>
<text text-anchor="start" x="195" y="-77" font-family="Helvetica,sans-Serif" font-size="10.00">uiImage::WindowLevel</text>
<text text-anchor="middle" x="254" y="-64" font-family="Helvetica,sans-Serif" font-size="10.00">::swapCurrentTFAndNotify</text>
</a>
</g>
<!-- Node1&#45;&gt;Node16 -->
<g id="edge30" class="edge"><title>Node1&#45;&gt;Node16</title>
<path fill="none" stroke="midnightblue" d="M142.278,-105.097C159.53,-100.141 177.872,-94.871 194.601,-90.065"/>
<polygon fill="midnightblue" stroke="midnightblue" points="140.911,-101.848 132.266,-107.973 142.844,-108.576 140.911,-101.848"/>
</g>
<!-- Node2&#45;&gt;Node3 -->
<g id="edge4" class="edge"><title>Node2&#45;&gt;Node3</title>
<path fill="none" stroke="midnightblue" d="M335.581,-170C344.54,-170 353.627,-170 362.494,-170"/>
<polygon fill="midnightblue" stroke="midnightblue" points="335.539,-166.5 325.539,-170 335.539,-173.5 335.539,-166.5"/>
</g>
<!-- Node4 -->
<g id="node7" class="node"><title>Node4</title>
<a xlink:href="classscene2D_1_1adaptor_1_1Negato.html#ab581aa5d2b01f9e078c6f6e86cf7a059" target="_top" xlink:title="Pure virtual &#45;&gt; implemented in the subclasses. ">
<polygon fill="white" stroke="black" points="550.5,-313 550.5,-347 681.5,-347 681.5,-313 550.5,-313"/>
<text text-anchor="start" x="558.5" y="-334" font-family="Helvetica,sans-Serif" font-size="10.00">scene2D::adaptor::Negato</text>
<text text-anchor="middle" x="616" y="-321" font-family="Helvetica,sans-Serif" font-size="10.00">::doStart</text>
</a>
</g>
<!-- Node3&#45;&gt;Node4 -->
<g id="edge6" class="edge"><title>Node3&#45;&gt;Node4</title>
<path fill="none" stroke="midnightblue" d="M471.036,-200.423C508.356,-233.782 566.916,-286.126 596.905,-312.932"/>
<polygon fill="midnightblue" stroke="midnightblue" points="473.2,-197.663 463.412,-193.609 468.535,-202.882 473.2,-197.663"/>
</g>
<!-- Node6 -->
<g id="node11" class="node"><title>Node6</title>
<a xlink:href="classscene2D_1_1adaptor_1_1TransferFunction.html#a30a485999be455171cd8318f306d7fc0" target="_top" xlink:title="scene2D::adaptor::Transfer\lFunction::doUpdate">
<polygon fill="white" stroke="black" points="548,-207 548,-241 684,-241 684,-207 548,-207"/>
<text text-anchor="start" x="556" y="-228" font-family="Helvetica,sans-Serif" font-size="10.00">scene2D::adaptor::Transfer</text>
<text text-anchor="middle" x="616" y="-215" font-family="Helvetica,sans-Serif" font-size="10.00">Function::doUpdate</text>
</a>
</g>
<!-- Node3&#45;&gt;Node6 -->
<g id="edge10" class="edge"><title>Node3&#45;&gt;Node6</title>
<path fill="none" stroke="midnightblue" d="M521.441,-195.474C534.349,-199.368 547.398,-203.304 559.509,-206.958"/>
<polygon fill="midnightblue" stroke="midnightblue" points="522.201,-192.047 511.616,-192.51 520.179,-198.749 522.201,-192.047"/>
</g>
<!-- Node12 -->
<g id="node23" class="node"><title>Node12</title>
<a xlink:href="classuiImage_1_1WindowLevel.html#a1b6f272c5e0c02df115981d240d304d8" target="_top" xlink:title="Update editor information from the image. ">
<polygon fill="white" stroke="black" points="558,-53 558,-87 674,-87 674,-53 558,-53"/>
<text text-anchor="start" x="566" y="-74" font-family="Helvetica,sans-Serif" font-size="10.00">uiImage::WindowLevel</text>
<text text-anchor="middle" x="616" y="-61" font-family="Helvetica,sans-Serif" font-size="10.00">::updating</text>
</a>
</g>
<!-- Node3&#45;&gt;Node12 -->
<g id="edge22" class="edge"><title>Node3&#45;&gt;Node12</title>
<path fill="none" stroke="midnightblue" d="M488.46,-141.251C519.806,-123.74 558.8,-101.955 585.364,-87.1151"/>
<polygon fill="midnightblue" stroke="midnightblue" points="486.444,-138.369 479.421,-146.301 489.858,-144.48 486.444,-138.369"/>
</g>
<!-- Node15 -->
<g id="node29" class="node"><title>Node15</title>
<a xlink:href="classuiImage_1_1WindowLevel.html#a11dece0c998a2fad0a9cb2d63ef1083a" target="_top" xlink:title="Called when transfer function windowing is modified. ">
<polygon fill="white" stroke="black" points="556.5,-153 556.5,-187 675.5,-187 675.5,-153 556.5,-153"/>
<text text-anchor="start" x="564.5" y="-174" font-family="Helvetica,sans-Serif" font-size="10.00">uiImage::WindowLevel</text>
<text text-anchor="middle" x="616" y="-161" font-family="Helvetica,sans-Serif" font-size="10.00">::updatingTFWindowing</text>
</a>
</g>
<!-- Node3&#45;&gt;Node15 -->
<g id="edge28" class="edge"><title>Node3&#45;&gt;Node15</title>
<path fill="none" stroke="midnightblue" d="M521.855,-170C533.561,-170 545.373,-170 556.487,-170"/>
<polygon fill="midnightblue" stroke="midnightblue" points="521.616,-166.5 511.616,-170 521.616,-173.5 521.616,-166.5"/>
</g>
<!-- Node5 -->
<g id="node9" class="node"><title>Node5</title>
<a xlink:href="classscene2D_1_1adaptor_1_1Negato.html#a24e98bab91a1c85dc77c215ebdca71aa" target="_top" xlink:title="Pure virtual &#45;&gt; implemented in the subclasses. ">
<polygon fill="white" stroke="black" points="733.5,-364 733.5,-398 864.5,-398 864.5,-364 733.5,-364"/>
<text text-anchor="start" x="741.5" y="-385" font-family="Helvetica,sans-Serif" font-size="10.00">scene2D::adaptor::Negato</text>
<text text-anchor="middle" x="799" y="-372" font-family="Helvetica,sans-Serif" font-size="10.00">::doSwap</text>
</a>
</g>
<!-- Node4&#45;&gt;Node5 -->
<g id="edge8" class="edge"><title>Node4&#45;&gt;Node5</title>
<path fill="none" stroke="midnightblue" d="M686.955,-349.774C703.76,-354.458 721.541,-359.413 737.867,-363.963"/>
<polygon fill="midnightblue" stroke="midnightblue" points="687.763,-346.366 677.191,-347.053 685.884,-353.109 687.763,-346.366"/>
</g>
<!-- Node7 -->
<g id="node13" class="node"><title>Node7</title>
<a xlink:href="classscene2D_1_1adaptor_1_1TransferFunction.html#af58b0c35880641014f0b87e345fb4e60" target="_top" xlink:title="scene2D::adaptor::Transfer\lFunction::doStart">
<polygon fill="white" stroke="black" points="731,-312 731,-346 867,-346 867,-312 731,-312"/>
<text text-anchor="start" x="739" y="-333" font-family="Helvetica,sans-Serif" font-size="10.00">scene2D::adaptor::Transfer</text>
<text text-anchor="middle" x="799" y="-320" font-family="Helvetica,sans-Serif" font-size="10.00">Function::doStart</text>
</a>
</g>
<!-- Node6&#45;&gt;Node7 -->
<g id="edge12" class="edge"><title>Node6&#45;&gt;Node7</title>
<path fill="none" stroke="midnightblue" d="M642.384,-247.997C662.461,-265.233 691.421,-287.984 720,-303 726.263,-306.291 733.023,-309.275 739.86,-311.948"/>
<polygon fill="midnightblue" stroke="midnightblue" points="644.453,-245.157 634.616,-241.221 639.852,-250.432 644.453,-245.157"/>
</g>
<!-- Node8 -->
<g id="node15" class="node"><title>Node8</title>
<a xlink:href="classscene2D_1_1adaptor_1_1TransferFunction.html#add849cc6e389ee0f3deed02c928a12ad" target="_top" xlink:title="Called when transfer function points are modified. ">
<polygon fill="white" stroke="black" points="730.5,-260 730.5,-294 867.5,-294 867.5,-260 730.5,-260"/>
<text text-anchor="start" x="738.5" y="-281" font-family="Helvetica,sans-Serif" font-size="10.00">scene2D::adaptor::Transfer</text>
<text text-anchor="middle" x="799" y="-268" font-family="Helvetica,sans-Serif" font-size="10.00">Function::updatingTFPoints</text>
</a>
</g>
<!-- Node6&#45;&gt;Node8 -->
<g id="edge14" class="edge"><title>Node6&#45;&gt;Node8</title>
<path fill="none" stroke="midnightblue" d="M684.623,-243.875C702.908,-249.17 722.495,-254.843 740.201,-259.971"/>
<polygon fill="midnightblue" stroke="midnightblue" points="685.489,-240.481 674.91,-241.061 683.541,-247.205 685.489,-240.481"/>
</g>
<!-- Node9 -->
<g id="node17" class="node"><title>Node9</title>
<a xlink:href="classscene2D_1_1adaptor_1_1TransferFunction.html#a1c3a798a1f7627474219cbe841871589" target="_top" xlink:title="Called when transfer function windowing is modified. ">
<polygon fill="white" stroke="black" points="720.5,-208 720.5,-242 877.5,-242 877.5,-208 720.5,-208"/>
<text text-anchor="start" x="728.5" y="-229" font-family="Helvetica,sans-Serif" font-size="10.00">scene2D::adaptor::Transfer</text>
<text text-anchor="middle" x="799" y="-216" font-family="Helvetica,sans-Serif" font-size="10.00">Function::updatingTFWindowing</text>
</a>
</g>
<!-- Node6&#45;&gt;Node9 -->
<g id="edge16" class="edge"><title>Node6&#45;&gt;Node9</title>
<path fill="none" stroke="midnightblue" d="M694.201,-224.427C702.849,-224.475 711.659,-224.523 720.313,-224.57"/>
<polygon fill="midnightblue" stroke="midnightblue" points="694.161,-220.927 684.142,-224.372 694.123,-227.927 694.161,-220.927"/>
</g>
<!-- Node10 -->
<g id="node19" class="node"><title>Node10</title>
<a xlink:href="classscene2D_1_1adaptor_1_1TransferFunction.html#a68b01fe89662003807bebf531e5c80af" target="_top" xlink:title="scene2D::adaptor::Transfer\lFunction::doSwap">
<polygon fill="white" stroke="black" points="731,-156 731,-190 867,-190 867,-156 731,-156"/>
<text text-anchor="start" x="739" y="-177" font-family="Helvetica,sans-Serif" font-size="10.00">scene2D::adaptor::Transfer</text>
<text text-anchor="middle" x="799" y="-164" font-family="Helvetica,sans-Serif" font-size="10.00">Function::doSwap</text>
</a>
</g>
<!-- Node6&#45;&gt;Node10 -->
<g id="edge18" class="edge"><title>Node6&#45;&gt;Node10</title>
<path fill="none" stroke="midnightblue" d="M686.955,-204.226C703.76,-199.542 721.541,-194.587 737.867,-190.037"/>
<polygon fill="midnightblue" stroke="midnightblue" points="685.884,-200.891 677.191,-206.947 687.763,-207.634 685.884,-200.891"/>
</g>
<!-- Node11 -->
<g id="node21" class="node"><title>Node11</title>
<a xlink:href="classscene2D_1_1adaptor_1_1TransferFunction.html#a00aec38d472c0714930eaf411d0e0a68" target="_top" xlink:title="scene2D::adaptor::Transfer\lFunction::processInteraction">
<polygon fill="white" stroke="black" points="729,-104 729,-138 869,-138 869,-104 729,-104"/>
<text text-anchor="start" x="737" y="-125" font-family="Helvetica,sans-Serif" font-size="10.00">scene2D::adaptor::Transfer</text>
<text text-anchor="middle" x="799" y="-112" font-family="Helvetica,sans-Serif" font-size="10.00">Function::processInteraction</text>
</a>
</g>
<!-- Node6&#45;&gt;Node11 -->
<g id="edge20" class="edge"><title>Node6&#45;&gt;Node11</title>
<path fill="none" stroke="midnightblue" d="M675.263,-202.035C678.316,-200.16 681.252,-198.15 684,-196 705.284,-179.349 698.125,-162.867 720,-147 724.675,-143.609 729.818,-140.643 735.168,-138.051"/>
<polygon fill="midnightblue" stroke="midnightblue" points="673.441,-199.044 666.41,-206.969 676.849,-205.158 673.441,-199.044"/>
</g>
<!-- Node13 -->
<g id="node25" class="node"><title>Node13</title>
<a xlink:href="classuiImage_1_1WindowLevel.html#a30238b79b9c852e349d7f08fc06765a6" target="_top" xlink:title="Swap of image. ">
<polygon fill="white" stroke="black" points="741,-52 741,-86 857,-86 857,-52 741,-52"/>
<text text-anchor="start" x="749" y="-73" font-family="Helvetica,sans-Serif" font-size="10.00">uiImage::WindowLevel</text>
<text text-anchor="middle" x="799" y="-60" font-family="Helvetica,sans-Serif" font-size="10.00">::swapping</text>
</a>
</g>
<!-- Node12&#45;&gt;Node13 -->
<g id="edge24" class="edge"><title>Node12&#45;&gt;Node13</title>
<path fill="none" stroke="midnightblue" d="M684.346,-69.6265C702.984,-69.5247 722.994,-69.4153 740.998,-69.317"/>
<polygon fill="midnightblue" stroke="midnightblue" points="684.134,-66.1275 674.154,-69.6822 684.173,-73.1274 684.134,-66.1275"/>
</g>
<!-- Node14 -->
<g id="node27" class="node"><title>Node14</title>
<a xlink:href="classuiImage_1_1WindowLevel.html#ad39c747b18b452868f8c5cd6bd74e956" target="_top" xlink:title="Called when transfer function points are modified. ">
<polygon fill="white" stroke="black" points="741,-0 741,-34 857,-34 857,-0 741,-0"/>
<text text-anchor="start" x="749" y="-21" font-family="Helvetica,sans-Serif" font-size="10.00">uiImage::WindowLevel</text>
<text text-anchor="middle" x="799" y="-8" font-family="Helvetica,sans-Serif" font-size="10.00">::updatingTFPoints</text>
</a>
</g>
<!-- Node12&#45;&gt;Node14 -->
<g id="edge26" class="edge"><title>Node12&#45;&gt;Node14</title>
<path fill="none" stroke="midnightblue" d="M683.828,-50.3557C702.613,-44.9152 722.828,-39.0608 740.998,-33.7985"/>
<polygon fill="midnightblue" stroke="midnightblue" points="682.785,-47.0139 674.154,-53.1576 684.733,-53.7376 682.785,-47.0139"/>
</g>
<!-- Node16&#45;&gt;Node12 -->
<g id="edge32" class="edge"><title>Node16&#45;&gt;Node12</title>
<path fill="none" stroke="midnightblue" d="M331.449,-72.3582C399.288,-71.796 496.374,-70.9914 557.784,-70.4825"/>
<polygon fill="midnightblue" stroke="midnightblue" points="331.212,-68.8599 321.241,-72.4428 331.27,-75.8597 331.212,-68.8599"/>
</g>
<!-- Node17 -->
<g id="node34" class="node"><title>Node17</title>
<a xlink:href="classuiImage_1_1WindowLevel.html#a63a6f880a42e7a8186e6b9ac066a56c3" target="_top" xlink:title="Overrides. ">
<polygon fill="white" stroke="black" points="379,-11 379,-45 495,-45 495,-11 379,-11"/>
<text text-anchor="start" x="387" y="-32" font-family="Helvetica,sans-Serif" font-size="10.00">uiImage::WindowLevel</text>
<text text-anchor="middle" x="437" y="-19" font-family="Helvetica,sans-Serif" font-size="10.00">::info</text>
</a>
</g>
<!-- Node16&#45;&gt;Node17 -->
<g id="edge34" class="edge"><title>Node16&#45;&gt;Node17</title>
<path fill="none" stroke="midnightblue" d="M331.002,-54.0651C347.056,-50.1173 363.721,-46.0194 378.952,-42.274"/>
<polygon fill="midnightblue" stroke="midnightblue" points="329.978,-50.7125 321.103,-56.4992 331.65,-57.51 329.978,-50.7125"/>
</g>
</g>
</svg>
        <g id="navigator" transform="translate(0 0)" fill="#404254">
                <rect fill="#f2f5e9" fill-opacity="0.5" stroke="#606060" stroke-width=".5" x="0" y="0" width="60" height="60"/>
                <use id="zoomplus" xlink:href="#zoomPlus" x="17" y="9" onmousedown="handleZoom(evt,'in')"/>
                <use id="zoomminus" xlink:href="#zoomMin" x="42" y="9" onmousedown="handleZoom(evt,'out')"/>
                <use id="reset" xlink:href="#resetDef" x="30" y="36" onmousedown="handleReset()"/>
                <g id="arrowUp" xlink:href="#dirArrow" transform="translate(30 24)" onmousedown="handlePan(0,-1)">
                  <use xlink:href="#rim" fill="#404040">
                        <set attributeName="fill" to="#808080" begin="arrowUp.mouseover" end="arrowUp.mouseout"/>
                  </use>
                  <path fill="none" stroke="white" stroke-width="1.5" d="M0,-3.0v7 M-2.5,-0.5L0,-3.0L2.5,-0.5"/>
                </g>
                <g id="arrowRight" xlink:href="#dirArrow" transform="rotate(90) translate(36 -43)" onmousedown="handlePan(1,0)">
                  <use xlink:href="#rim" fill="#404040">
                        <set attributeName="fill" to="#808080" begin="arrowRight.mouseover" end="arrowRight.mouseout"/>
                  </use>
                  <path fill="none" stroke="white" stroke-width="1.5" d="M0,-3.0v7 M-2.5,-0.5L0,-3.0L2.5,-0.5"/>
                </g>
                <g id="arrowDown" xlink:href="#dirArrow" transform="rotate(180) translate(-30 -48)" onmousedown="handlePan(0,1)">
                  <use xlink:href="#rim" fill="#404040">
                        <set attributeName="fill" to="#808080" begin="arrowDown.mouseover" end="arrowDown.mouseout"/>
                  </use>
                  <path fill="none" stroke="white" stroke-width="1.5" d="M0,-3.0v7 M-2.5,-0.5L0,-3.0L2.5,-0.5"/>
                </g>
                <g id="arrowLeft" xlink:href="#dirArrow" transform="rotate(270) translate(-36 17)" onmousedown="handlePan(-1,0)">
                  <use xlink:href="#rim" fill="#404040">
                        <set attributeName="fill" to="#808080" begin="arrowLeft.mouseover" end="arrowLeft.mouseout"/>
                  </use>
                  <path fill="none" stroke="white" stroke-width="1.5" d="M0,-3.0v7 M-2.5,-0.5L0,-3.0L2.5,-0.5"/>
                </g>
        </g>
        <svg viewBox="0 0 15 15" width="100%" height="30px" preserveAspectRatio="xMaxYMin meet">
         <g id="arrow_out" transform="scale(0.3 0.3)">
          <a xlink:href="classfwComEd_1_1helper_1_1Composite_a7ee86890a448cf9e0680f6d97a91eb4b_icgraph_org.svg" target="_base">
           <rect id="button" ry="5" rx="5" y="6" x="6" height="38" width="38"
                fill="#f2f5e9" fill-opacity="0.5" stroke="#606060" stroke-width="1.0"/>
           <path id="arrow"
             d="M 11.500037,31.436501 C 11.940474,20.09759 22.043105,11.32322 32.158766,21.979434 L 37.068811,17.246167 C 37.068811,17.246167 37.088388,32 37.088388,32 L 22.160133,31.978069 C 22.160133,31.978069 26.997745,27.140456 26.997745,27.140456 C 18.528582,18.264221 13.291696,25.230495 11.500037,31.436501 z"
             style="fill:#404040;"/>
          </a>
         </g>
        </svg>
</svg>
