<?xml version="1.0" encoding="UTF-8" standalone="no"?>
<!DOCTYPE svg PUBLIC "-//W3C//DTD SVG 1.1//EN"
 "http://www.w3.org/Graphics/SVG/1.1/DTD/svg11.dtd">
<!-- Generated by graphviz version 2.26.3 (20100126.1600)
 -->
<!-- Title: fwDataIO::writer::IObjectWriter::getObject Pages: 1 -->
<svg width="486pt" height="198pt"
 viewBox="0.00 0.00 486.00 198.00" xmlns="http://www.w3.org/2000/svg" xmlns:xlink="http://www.w3.org/1999/xlink">
<g id="graph1" class="graph" transform="scale(1 1) rotate(0) translate(4 194)">
<title>fwDataIO::writer::IObjectWriter::getObject</title>
<polygon fill="white" stroke="white" points="-4,5 -4,-194 483,-194 483,5 -4,5"/>
<!-- Node1 -->
<g id="node1" class="node"><title>Node1</title>
<polygon fill="#bfbfbf" stroke="black" points="0,-78 0,-112 126,-112 126,-78 0,-78"/>
<text text-anchor="start" x="8" y="-99" font-family="Helvetica,sans-Serif" font-size="10.00">fwDataIO::writer::IObject</text>
<text text-anchor="middle" x="63" y="-86" font-family="Helvetica,sans-Serif" font-size="10.00">Writer::getObject</text>
</g>
<!-- Node2 -->
<g id="node3" class="node"><title>Node2</title>
<a xlink:href="classfwDataIO_1_1writer_1_1GenericObjectWriter.html#a01948ea212247d0307e4e90eb9e9f58d" target="_top" xlink:title="m_object getter. ">
<polygon fill="white" stroke="black" points="162,-71.5 162,-118.5 308,-118.5 308,-71.5 162,-71.5"/>
<text text-anchor="start" x="170" y="-105.5" font-family="Helvetica,sans-Serif" font-size="10.00">fwDataIO::writer::Generic</text>
<text text-anchor="start" x="170" y="-92.5" font-family="Helvetica,sans-Serif" font-size="10.00">ObjectWriter&lt; ::fwData</text>
<text text-anchor="middle" x="235" y="-79.5" font-family="Helvetica,sans-Serif" font-size="10.00">::Image &gt;::getConcreteObject</text>
</a>
</g>
<!-- Node1&#45;&gt;Node2 -->
<g id="edge2" class="edge"><title>Node1&#45;&gt;Node2</title>
<path fill="none" stroke="midnightblue" d="M136.258,-95C144.697,-95 153.304,-95 161.743,-95"/>
<polygon fill="midnightblue" stroke="midnightblue" points="136.07,-91.5001 126.07,-95 136.07,-98.5001 136.07,-91.5001"/>
</g>
<!-- Node3 -->
<g id="node5" class="node"><title>Node3</title>
<a xlink:href="classfwDataIO_1_1writer_1_1GzBufferImageWriter.html#aa26798cd3adb569571d93fd0c60db0ac" target="_top" xlink:title="Read the file with zlib API. ">
<polygon fill="white" stroke="black" points="344,-156 344,-190 478,-190 478,-156 344,-156"/>
<text text-anchor="start" x="352" y="-177" font-family="Helvetica,sans-Serif" font-size="10.00">fwDataIO::writer::GzBuffer</text>
<text text-anchor="middle" x="411" y="-164" font-family="Helvetica,sans-Serif" font-size="10.00">ImageWriter::write</text>
</a>
</g>
<!-- Node2&#45;&gt;Node3 -->
<g id="edge4" class="edge"><title>Node2&#45;&gt;Node3</title>
<path fill="none" stroke="midnightblue" d="M291.52,-122.953C308.294,-130.979 326.785,-139.566 344,-147 350.987,-150.017 358.449,-153.073 365.762,-155.977"/>
<polygon fill="midnightblue" stroke="midnightblue" points="292.926,-119.745 282.397,-118.562 289.89,-126.052 292.926,-119.745"/>
</g>
<!-- Node4 -->
<g id="node7" class="node"><title>Node4</title>
<a xlink:href="classfwVtkIO_1_1ImageWriter.html#aa9444e002741c2916aac123df75d3e6b" target="_top" xlink:title="Writing operator. ">
<polygon fill="white" stroke="black" points="355,-104 355,-138 467,-138 467,-104 355,-104"/>
<text text-anchor="start" x="363" y="-125" font-family="Helvetica,sans-Serif" font-size="10.00">fwVtkIO::ImageWriter</text>
<text text-anchor="middle" x="411" y="-112" font-family="Helvetica,sans-Serif" font-size="10.00">::write</text>
</a>
</g>
<!-- Node2&#45;&gt;Node4 -->
<g id="edge6" class="edge"><title>Node2&#45;&gt;Node4</title>
<path fill="none" stroke="midnightblue" d="M318.039,-107.267C330.477,-109.105 343.048,-110.962 354.754,-112.691"/>
<polygon fill="midnightblue" stroke="midnightblue" points="318.515,-103.8 308.111,-105.8 317.492,-110.724 318.515,-103.8"/>
</g>
<!-- Node5 -->
<g id="node9" class="node"><title>Node5</title>
<a xlink:href="classfwVtkIO_1_1MetaImageWriter.html#a4625a4c12540b13cacdf883272fb1773" target="_top" xlink:title="Writing operator. ">
<polygon fill="white" stroke="black" points="344,-52 344,-86 478,-86 478,-52 344,-52"/>
<text text-anchor="start" x="352" y="-73" font-family="Helvetica,sans-Serif" font-size="10.00">fwVtkIO::MetaImageWriter</text>
<text text-anchor="middle" x="411" y="-60" font-family="Helvetica,sans-Serif" font-size="10.00">::write</text>
</a>
</g>
<!-- Node2&#45;&gt;Node5 -->
<g id="edge8" class="edge"><title>Node2&#45;&gt;Node5</title>
<path fill="none" stroke="midnightblue" d="M318.14,-82.718C326.723,-81.4499 335.369,-80.1727 343.749,-78.9348"/>
<polygon fill="midnightblue" stroke="midnightblue" points="317.492,-79.2756 308.111,-84.1995 318.515,-86.2005 317.492,-79.2756"/>
</g>
<!-- Node6 -->
<g id="node11" class="node"><title>Node6</title>
<a xlink:href="classfwVtkIO_1_1VtiImageWriter.html#a89163e3a950b9a24ae2fe5c51fa0d5e6" target="_top" xlink:title="Writing operator. ">
<polygon fill="white" stroke="black" points="349,-0 349,-34 473,-34 473,-0 349,-0"/>
<text text-anchor="start" x="357" y="-21" font-family="Helvetica,sans-Serif" font-size="10.00">fwVtkIO::VtiImageWriter</text>
<text text-anchor="middle" x="411" y="-8" font-family="Helvetica,sans-Serif" font-size="10.00">::write</text>
</a>
</g>
<!-- Node2&#45;&gt;Node6 -->
<g id="edge10" class="edge"><title>Node2&#45;&gt;Node6</title>
<path fill="none" stroke="midnightblue" d="M291.52,-67.0474C308.294,-59.021 326.785,-50.4344 344,-43 350.987,-39.9826 358.449,-36.9269 365.762,-34.0226"/>
<polygon fill="midnightblue" stroke="midnightblue" points="289.89,-63.9476 282.397,-71.438 292.926,-70.2551 289.89,-63.9476"/>
</g>
</g>
</svg>
