<?xml version="1.0" encoding="UTF-8" standalone="no"?>
<!DOCTYPE svg PUBLIC "-//W3C//DTD SVG 1.1//EN"
 "http://www.w3.org/Graphics/SVG/1.1/DTD/svg11.dtd">
<!-- Generated by graphviz version 2.36.0 (20140111.2315)
 -->
<!-- Title: ioVTK::SImageWriter::saveImage Pages: 1 -->
<!--zoomable 119 -->
<svg id="main" version="1.1" xmlns="http://www.w3.org/2000/svg" xmlns:xlink="http://www.w3.org/1999/xlink" xml:space="preserve" onload="init(evt)">
<style type="text/css"><![CDATA[
.edge:hover path { stroke: red; }
.edge:hover polygon { stroke: red; fill: red; }
]]></style>
<script type="text/javascript"><![CDATA[
var edges = document.getElementsByTagName('g');
if (edges && edges.length) {
  for (var i=0;i<edges.length;i++) {
    if (edges[i].id.substr(0,4)=='edge') {
      edges[i].setAttribute('class','edge');
    }
  }
}
]]></script>
        <defs>
                <circle id="rim" cx="0" cy="0" r="7"/>
                <circle id="rim2" cx="0" cy="0" r="3.5"/>
                <g id="zoomPlus">
                        <use xlink:href="#rim" fill="#404040">
                                <set attributeName="fill" to="#808080" begin="zoomplus.mouseover" end="zoomplus.mouseout"/>
                        </use>
                        <path d="M-4,0h8M0,-4v8" fill="none" stroke="white" stroke-width="1.5" pointer-events="none"/>
                </g>
                <g id="zoomMin">
                        <use xlink:href="#rim" fill="#404040">
                                <set attributeName="fill" to="#808080" begin="zoomminus.mouseover" end="zoomminus.mouseout"/>
                        </use>
                        <path d="M-4,0h8" fill="none" stroke="white" stroke-width="1.5" pointer-events="none"/>
                </g>
                <g id="dirArrow">
                        <path fill="none" stroke="white" stroke-width="1.5" d="M0,-3.0v7 M-2.5,-0.5L0,-3.0L2.5,-0.5"/>
                </g>
               <g id="resetDef">
                       <use xlink:href="#rim2" fill="#404040">
                               <set attributeName="fill" to="#808080" begin="reset.mouseover" end="reset.mouseout"/>
                       </use>
               </g>
        </defs>

<script type="text/javascript">
var viewWidth = 846;
var viewHeight = 119;
var sectionId = 'dynsection-4';
</script>
<script xlink:href="svgpan.js"/>
<svg id="graph" class="graph">
<g id="viewport">
<title>ioVTK::SImageWriter::saveImage</title>
<polygon fill="white" stroke="none" points="-4,4 -4,-115 842,-115 842,4 -4,4"/>
<!-- Node1 -->
<g id="node1" class="node"><title>Node1</title>
<polygon fill="#bfbfbf" stroke="black" points="0,-56 0,-86 110,-86 110,-56 0,-56"/>
<text text-anchor="start" x="8" y="-74" font-family="Helvetica,sans-Serif" font-size="10.00">ioVTK::SImageWriter</text>
<text text-anchor="middle" x="55" y="-63" font-family="Helvetica,sans-Serif" font-size="10.00">::saveImage</text>
</g>
<!-- Node2 -->
<g id="node2" class="node"><title>Node2</title>
<g id="a_node2"><a xlink:href="classfwGui_1_1dialog_1_1MessageDialog.html#a8c59f4f1a8cd0319757d9207af8105bf" target="_top" xlink:title="fwGui::dialog::MessageDialog\l::showMessageDialog">
<polygon fill="white" stroke="black" points="146.5,-56 146.5,-86 293.5,-86 293.5,-56 146.5,-56"/>
<text text-anchor="start" x="154.5" y="-74" font-family="Helvetica,sans-Serif" font-size="10.00">fwGui::dialog::MessageDialog</text>
<text text-anchor="middle" x="220" y="-63" font-family="Helvetica,sans-Serif" font-size="10.00">::showMessageDialog</text>
</a>
</g>
</g>
<!-- Node1&#45;&gt;Node2 -->
<g id="edge1" class="edge"><title>Node1&#45;&gt;Node2</title>
<path fill="none" stroke="midnightblue" d="M110.277,-71C118.597,-71 127.345,-71 136.115,-71"/>
<polygon fill="midnightblue" stroke="midnightblue" points="136.395,-74.5001 146.395,-71 136.395,-67.5001 136.395,-74.5001"/>
</g>
<!-- Node3 -->
<g id="node3" class="node"><title>Node3</title>
<g id="a_node3"><a xlink:href="classfwGui_1_1dialog_1_1MessageDialog.html#a0fd1de2703432a2181724b7bdaa26cfd" target="_top" xlink:title="Add a button (OK, YES_NO, YES, NO, CANCEL) ">
<polygon fill="white" stroke="black" points="330.5,-81 330.5,-111 477.5,-111 477.5,-81 330.5,-81"/>
<text text-anchor="start" x="338.5" y="-99" font-family="Helvetica,sans-Serif" font-size="10.00">fwGui::dialog::MessageDialog</text>
<text text-anchor="middle" x="404" y="-88" font-family="Helvetica,sans-Serif" font-size="10.00">::addButton</text>
</a>
</g>
</g>
<!-- Node2&#45;&gt;Node3 -->
<g id="edge2" class="edge"><title>Node2&#45;&gt;Node3</title>
<path fill="none" stroke="midnightblue" d="M293.716,-80.9884C302.492,-82.194 311.505,-83.4321 320.41,-84.6553"/>
<polygon fill="midnightblue" stroke="midnightblue" points="320.016,-88.1339 330.4,-86.0274 320.969,-81.1991 320.016,-88.1339"/>
</g>
<!-- Node4 -->
<g id="node4" class="node"><title>Node4</title>
<g id="a_node4"><a xlink:href="classfwGui_1_1dialog_1_1MessageDialog.html#acb5a5e63ec47bb74c2c3136922a3a112" target="_top" xlink:title="Show the message box and return the clicked button. ">
<polygon fill="white" stroke="black" points="330.5,-32 330.5,-62 477.5,-62 477.5,-32 330.5,-32"/>
<text text-anchor="start" x="338.5" y="-50" font-family="Helvetica,sans-Serif" font-size="10.00">fwGui::dialog::MessageDialog</text>
<text text-anchor="middle" x="404" y="-39" font-family="Helvetica,sans-Serif" font-size="10.00">::show</text>
</a>
</g>
</g>
<!-- Node2&#45;&gt;Node4 -->
<g id="edge3" class="edge"><title>Node2&#45;&gt;Node4</title>
<path fill="none" stroke="midnightblue" d="M293.716,-61.4111C302.492,-60.2538 311.505,-59.0652 320.41,-57.891"/>
<polygon fill="midnightblue" stroke="midnightblue" points="320.943,-61.3511 330.4,-56.5737 320.028,-54.4112 320.943,-61.3511"/>
</g>
<!-- Node5 -->
<g id="node5" class="node"><title>Node5</title>
<g id="a_node5"><a xlink:href="classfwGui_1_1dialog_1_1IMessageDialog.html#a3aafce0bcfa0fa0da4b5114ff798ddd7" target="_top" xlink:title="Show the message box and return the clicked button. ">
<polygon fill="white" stroke="black" points="514,-59 514,-89 664,-89 664,-59 514,-59"/>
<text text-anchor="start" x="522" y="-77" font-family="Helvetica,sans-Serif" font-size="10.00">fwGui::dialog::IMessageDialog</text>
<text text-anchor="middle" x="589" y="-66" font-family="Helvetica,sans-Serif" font-size="10.00">::show</text>
</a>
</g>
</g>
<!-- Node4&#45;&gt;Node5 -->
<g id="edge4" class="edge"><title>Node4&#45;&gt;Node5</title>
<path fill="none" stroke="midnightblue" d="M477.589,-57.7099C486.29,-58.9936 495.229,-60.3124 504.073,-61.6173"/>
<polygon fill="midnightblue" stroke="midnightblue" points="503.596,-65.0847 514,-63.0819 504.618,-58.1597 503.596,-65.0847"/>
</g>
<!-- Node6 -->
<g id="node6" class="node"><title>Node6</title>
<g id="a_node6"><a xlink:href="classfwServices_1_1registry_1_1ActiveWorkers.html#aae9d40e1fe222f0d14ac8284d3abf83c" target="_top" xlink:title="Get the default registered worker. ">
<polygon fill="white" stroke="black" points="520,0.5 520,-40.5 658,-40.5 658,0.5 520,0.5"/>
<text text-anchor="start" x="528" y="-28.5" font-family="Helvetica,sans-Serif" font-size="10.00">fwServices::registry</text>
<text text-anchor="start" x="528" y="-17.5" font-family="Helvetica,sans-Serif" font-size="10.00">::ActiveWorkers::getDefault</text>
<text text-anchor="middle" x="589" y="-6.5" font-family="Helvetica,sans-Serif" font-size="10.00">Worker</text>
</a>
</g>
</g>
<!-- Node4&#45;&gt;Node6 -->
<g id="edge5" class="edge"><title>Node4&#45;&gt;Node6</title>
<path fill="none" stroke="midnightblue" d="M477.589,-36.2901C488.176,-34.7281 499.117,-33.1139 509.809,-31.5363"/>
<polygon fill="midnightblue" stroke="midnightblue" points="510.583,-34.9601 519.965,-30.0379 509.561,-28.0351 510.583,-34.9601"/>
</g>
<!-- Node7 -->
<g id="node7" class="node"><title>Node7</title>
<g id="a_node7"><a xlink:href="classfwServices_1_1registry_1_1ActiveWorkers.html#a96003a042657996f7297f459e927ae16" target="_top" xlink:title="Returns an instance of ActiveWorkers. ">
<polygon fill="white" stroke="black" points="700,-5 700,-35 838,-35 838,-5 700,-5"/>
<text text-anchor="start" x="708" y="-23" font-family="Helvetica,sans-Serif" font-size="10.00">fwServices::registry</text>
<text text-anchor="middle" x="769" y="-12" font-family="Helvetica,sans-Serif" font-size="10.00">::ActiveWorkers::getDefault</text>
</a>
</g>
</g>
<!-- Node6&#45;&gt;Node7 -->
<g id="edge6" class="edge"><title>Node6&#45;&gt;Node7</title>
<path fill="none" stroke="midnightblue" d="M658.056,-20C668.469,-20 679.287,-20 689.895,-20"/>
<polygon fill="midnightblue" stroke="midnightblue" points="689.982,-23.5001 699.982,-20 689.982,-16.5001 689.982,-23.5001"/>
</g>
</g>
</svg>
        <g id="navigator" transform="translate(0 0)" fill="#404254">
                <rect fill="#f2f5e9" fill-opacity="0.5" stroke="#606060" stroke-width=".5" x="0" y="0" width="60" height="60"/>
                <use id="zoomplus" xlink:href="#zoomPlus" x="17" y="9" onmousedown="handleZoom(evt,'in')"/>
                <use id="zoomminus" xlink:href="#zoomMin" x="42" y="9" onmousedown="handleZoom(evt,'out')"/>
                <use id="reset" xlink:href="#resetDef" x="30" y="36" onmousedown="handleReset()"/>
                <g id="arrowUp" xlink:href="#dirArrow" transform="translate(30 24)" onmousedown="handlePan(0,-1)">
                  <use xlink:href="#rim" fill="#404040">
                        <set attributeName="fill" to="#808080" begin="arrowUp.mouseover" end="arrowUp.mouseout"/>
                  </use>
                  <path fill="none" stroke="white" stroke-width="1.5" d="M0,-3.0v7 M-2.5,-0.5L0,-3.0L2.5,-0.5"/>
                </g>
                <g id="arrowRight" xlink:href="#dirArrow" transform="rotate(90) translate(36 -43)" onmousedown="handlePan(1,0)">
                  <use xlink:href="#rim" fill="#404040">
                        <set attributeName="fill" to="#808080" begin="arrowRight.mouseover" end="arrowRight.mouseout"/>
                  </use>
                  <path fill="none" stroke="white" stroke-width="1.5" d="M0,-3.0v7 M-2.5,-0.5L0,-3.0L2.5,-0.5"/>
                </g>
                <g id="arrowDown" xlink:href="#dirArrow" transform="rotate(180) translate(-30 -48)" onmousedown="handlePan(0,1)">
                  <use xlink:href="#rim" fill="#404040">
                        <set attributeName="fill" to="#808080" begin="arrowDown.mouseover" end="arrowDown.mouseout"/>
                  </use>
                  <path fill="none" stroke="white" stroke-width="1.5" d="M0,-3.0v7 M-2.5,-0.5L0,-3.0L2.5,-0.5"/>
                </g>
                <g id="arrowLeft" xlink:href="#dirArrow" transform="rotate(270) translate(-36 17)" onmousedown="handlePan(-1,0)">
                  <use xlink:href="#rim" fill="#404040">
                        <set attributeName="fill" to="#808080" begin="arrowLeft.mouseover" end="arrowLeft.mouseout"/>
                  </use>
                  <path fill="none" stroke="white" stroke-width="1.5" d="M0,-3.0v7 M-2.5,-0.5L0,-3.0L2.5,-0.5"/>
                </g>
        </g>
        <svg viewBox="0 0 15 15" width="100%" height="30px" preserveAspectRatio="xMaxYMin meet">
         <g id="arrow_out" transform="scale(0.3 0.3)">
          <a xlink:href="classioVTK_1_1SImageWriter_adcec9a3b49f43fc045289052535f80be_cgraph_org.svg" target="_base">
           <rect id="button" ry="5" rx="5" y="6" x="6" height="38" width="38"
                fill="#f2f5e9" fill-opacity="0.5" stroke="#606060" stroke-width="1.0"/>
           <path id="arrow"
             d="M 11.500037,31.436501 C 11.940474,20.09759 22.043105,11.32322 32.158766,21.979434 L 37.068811,17.246167 C 37.068811,17.246167 37.088388,32 37.088388,32 L 22.160133,31.978069 C 22.160133,31.978069 26.997745,27.140456 26.997745,27.140456 C 18.528582,18.264221 13.291696,25.230495 11.500037,31.436501 z"
             style="fill:#404040;"/>
          </a>
         </g>
        </svg>
</svg>
