<?xml version="1.0" encoding="UTF-8" standalone="no"?>
<!DOCTYPE svg PUBLIC "-//W3C//DTD SVG 1.1//EN"
 "http://www.w3.org/Graphics/SVG/1.1/DTD/svg11.dtd">
<!-- Generated by graphviz version 2.36.0 (20140111.2315)
 -->
<!-- Title: uiTF::TransferFunctionEditor::initTransferFunctions Pages: 1 -->
<!--zoomable 224 -->
<svg id="main" version="1.1" xmlns="http://www.w3.org/2000/svg" xmlns:xlink="http://www.w3.org/1999/xlink" xml:space="preserve" onload="init(evt)">
<style type="text/css"><![CDATA[
.edge:hover path { stroke: red; }
.edge:hover polygon { stroke: red; fill: red; }
]]></style>
<script type="text/javascript"><![CDATA[
var edges = document.getElementsByTagName('g');
if (edges && edges.length) {
  for (var i=0;i<edges.length;i++) {
    if (edges[i].id.substr(0,4)=='edge') {
      edges[i].setAttribute('class','edge');
    }
  }
}
]]></script>
        <defs>
                <circle id="rim" cx="0" cy="0" r="7"/>
                <circle id="rim2" cx="0" cy="0" r="3.5"/>
                <g id="zoomPlus">
                        <use xlink:href="#rim" fill="#404040">
                                <set attributeName="fill" to="#808080" begin="zoomplus.mouseover" end="zoomplus.mouseout"/>
                        </use>
                        <path d="M-4,0h8M0,-4v8" fill="none" stroke="white" stroke-width="1.5" pointer-events="none"/>
                </g>
                <g id="zoomMin">
                        <use xlink:href="#rim" fill="#404040">
                                <set attributeName="fill" to="#808080" begin="zoomminus.mouseover" end="zoomminus.mouseout"/>
                        </use>
                        <path d="M-4,0h8" fill="none" stroke="white" stroke-width="1.5" pointer-events="none"/>
                </g>
                <g id="dirArrow">
                        <path fill="none" stroke="white" stroke-width="1.5" d="M0,-3.0v7 M-2.5,-0.5L0,-3.0L2.5,-0.5"/>
                </g>
               <g id="resetDef">
                       <use xlink:href="#rim2" fill="#404040">
                               <set attributeName="fill" to="#808080" begin="reset.mouseover" end="reset.mouseout"/>
                       </use>
               </g>
        </defs>

<script type="text/javascript">
var viewWidth = 518;
var viewHeight = 224;
var sectionId = 'dynsection-4';
</script>
<script xlink:href="svgpan.js"/>
<svg id="graph" class="graph">
<g id="viewport">
<title>uiTF::TransferFunctionEditor::initTransferFunctions</title>
<polygon fill="white" stroke="none" points="-4,4 -4,-220 514,-220 514,4 -4,4"/>
<!-- Node1 -->
<g id="node1" class="node"><title>Node1</title>
<polygon fill="#bfbfbf" stroke="black" points="0.5,-93 0.5,-123 141.5,-123 141.5,-93 0.5,-93"/>
<text text-anchor="start" x="8.5" y="-111" font-family="Helvetica,sans-Serif" font-size="10.00">uiTF::TransferFunctionEditor</text>
<text text-anchor="middle" x="71" y="-100" font-family="Helvetica,sans-Serif" font-size="10.00">::initTransferFunctions</text>
</g>
<!-- Node2 -->
<g id="node2" class="node"><title>Node2</title>
<g id="a_node2"><a xlink:href="classfwDataTools_1_1helper_1_1Composite.html#a154193c5093752bec503b38219ef1da3" target="_top" xlink:title="Add an object in the composite. ">
<polygon fill="white" stroke="black" points="203,-186 203,-216 307,-216 307,-186 203,-186"/>
<text text-anchor="start" x="211" y="-204" font-family="Helvetica,sans-Serif" font-size="10.00">fwDataTools::helper</text>
<text text-anchor="middle" x="255" y="-193" font-family="Helvetica,sans-Serif" font-size="10.00">::Composite::add</text>
</a>
</g>
</g>
<!-- Node1&#45;&gt;Node2 -->
<g id="edge1" class="edge"><title>Node1&#45;&gt;Node2</title>
<path fill="none" stroke="midnightblue" d="M92.2124,-123.175C112.902,-138.165 146.411,-160.97 178,-176 182.86,-178.312 187.991,-180.498 193.198,-182.541"/>
<polygon fill="midnightblue" stroke="midnightblue" points="192.019,-185.837 202.612,-186.063 194.472,-179.281 192.019,-185.837"/>
</g>
<!-- Node3 -->
<g id="node3" class="node"><title>Node3</title>
<g id="a_node3"><a xlink:href="classuiTF_1_1TransferFunctionEditor.html#ab8f6c8ed9d7f6380f7b82744e0329671" target="_top" xlink:title="uiTF::TransferFunctionEditor\l::createTransferFunctionName">
<polygon fill="white" stroke="black" points="180.5,-137 180.5,-167 329.5,-167 329.5,-137 180.5,-137"/>
<text text-anchor="start" x="188.5" y="-155" font-family="Helvetica,sans-Serif" font-size="10.00">uiTF::TransferFunctionEditor</text>
<text text-anchor="middle" x="255" y="-144" font-family="Helvetica,sans-Serif" font-size="10.00">::createTransferFunctionName</text>
</a>
</g>
</g>
<!-- Node1&#45;&gt;Node3 -->
<g id="edge2" class="edge"><title>Node1&#45;&gt;Node3</title>
<path fill="none" stroke="midnightblue" d="M134.125,-123.019C149.56,-126.751 166.232,-130.781 182.093,-134.616"/>
<polygon fill="midnightblue" stroke="midnightblue" points="181.304,-138.026 191.846,-136.974 182.949,-131.222 181.304,-138.026"/>
</g>
<!-- Node4 -->
<g id="node4" class="node"><title>Node4</title>
<g id="a_node4"><a xlink:href="classuiTF_1_1TransferFunctionEditor.html#af875b788086224c01a85fa3da6c5f4f8" target="_top" xlink:title="Check if the image contain the specified TF. ">
<polygon fill="white" stroke="black" points="368.5,-115 368.5,-145 509.5,-145 509.5,-115 368.5,-115"/>
<text text-anchor="start" x="376.5" y="-133" font-family="Helvetica,sans-Serif" font-size="10.00">uiTF::TransferFunctionEditor</text>
<text text-anchor="middle" x="439" y="-122" font-family="Helvetica,sans-Serif" font-size="10.00">::hasTransferFunctionName</text>
</a>
</g>
</g>
<!-- Node1&#45;&gt;Node4 -->
<g id="edge4" class="edge"><title>Node1&#45;&gt;Node4</title>
<path fill="none" stroke="midnightblue" d="M141.703,-112.19C203.423,-115.9 293.489,-121.314 358.102,-125.197"/>
<polygon fill="midnightblue" stroke="midnightblue" points="358.053,-128.701 368.245,-125.807 358.473,-121.713 358.053,-128.701"/>
</g>
<!-- Node5 -->
<g id="node5" class="node"><title>Node5</title>
<g id="a_node5"><a xlink:href="classfwDataTools_1_1helper_1_1Composite.html#a97bee6deceafbd7a45f1907f9c183b2b" target="_top" xlink:title="Send the message of modification. ">
<polygon fill="white" stroke="black" points="203,-49 203,-79 307,-79 307,-49 203,-49"/>
<text text-anchor="start" x="211" y="-67" font-family="Helvetica,sans-Serif" font-size="10.00">fwDataTools::helper</text>
<text text-anchor="middle" x="255" y="-56" font-family="Helvetica,sans-Serif" font-size="10.00">::Composite::notify</text>
</a>
</g>
</g>
<!-- Node1&#45;&gt;Node5 -->
<g id="edge5" class="edge"><title>Node1&#45;&gt;Node5</title>
<path fill="none" stroke="midnightblue" d="M134.125,-92.9808C153.067,-88.4015 173.87,-83.372 192.753,-78.8068"/>
<polygon fill="midnightblue" stroke="midnightblue" points="193.829,-82.1477 202.727,-76.3958 192.184,-75.3437 193.829,-82.1477"/>
</g>
<!-- Node6 -->
<g id="node6" class="node"><title>Node6</title>
<g id="a_node6"><a xlink:href="classuiTF_1_1TransferFunctionEditor.html#a8135602aa27bbb5b9bfe23536c1392ef" target="_top" xlink:title="Update the TF preset from the TF pool. ">
<polygon fill="white" stroke="black" points="178,-0 178,-30 332,-30 332,-0 178,-0"/>
<text text-anchor="start" x="186" y="-18" font-family="Helvetica,sans-Serif" font-size="10.00">uiTF::TransferFunctionEditor</text>
<text text-anchor="middle" x="255" y="-7" font-family="Helvetica,sans-Serif" font-size="10.00">::updateTransferFunctionPreset</text>
</a>
</g>
</g>
<!-- Node1&#45;&gt;Node6 -->
<g id="edge6" class="edge"><title>Node1&#45;&gt;Node6</title>
<path fill="none" stroke="midnightblue" d="M92.2124,-92.825C112.902,-77.8348 146.411,-55.0297 178,-40 182.662,-37.7817 187.573,-35.6805 192.562,-33.7092"/>
<polygon fill="midnightblue" stroke="midnightblue" points="194.079,-36.8781 202.207,-30.0817 191.615,-30.3261 194.079,-36.8781"/>
</g>
<!-- Node3&#45;&gt;Node4 -->
<g id="edge3" class="edge"><title>Node3&#45;&gt;Node4</title>
<path fill="none" stroke="midnightblue" d="M329.502,-143.115C339.02,-141.965 348.805,-140.782 358.416,-139.62"/>
<polygon fill="midnightblue" stroke="midnightblue" points="358.844,-143.094 368.352,-138.419 358.004,-136.144 358.844,-143.094"/>
</g>
</g>
</svg>
        <g id="navigator" transform="translate(0 0)" fill="#404254">
                <rect fill="#f2f5e9" fill-opacity="0.5" stroke="#606060" stroke-width=".5" x="0" y="0" width="60" height="60"/>
                <use id="zoomplus" xlink:href="#zoomPlus" x="17" y="9" onmousedown="handleZoom(evt,'in')"/>
                <use id="zoomminus" xlink:href="#zoomMin" x="42" y="9" onmousedown="handleZoom(evt,'out')"/>
                <use id="reset" xlink:href="#resetDef" x="30" y="36" onmousedown="handleReset()"/>
                <g id="arrowUp" xlink:href="#dirArrow" transform="translate(30 24)" onmousedown="handlePan(0,-1)">
                  <use xlink:href="#rim" fill="#404040">
                        <set attributeName="fill" to="#808080" begin="arrowUp.mouseover" end="arrowUp.mouseout"/>
                  </use>
                  <path fill="none" stroke="white" stroke-width="1.5" d="M0,-3.0v7 M-2.5,-0.5L0,-3.0L2.5,-0.5"/>
                </g>
                <g id="arrowRight" xlink:href="#dirArrow" transform="rotate(90) translate(36 -43)" onmousedown="handlePan(1,0)">
                  <use xlink:href="#rim" fill="#404040">
                        <set attributeName="fill" to="#808080" begin="arrowRight.mouseover" end="arrowRight.mouseout"/>
                  </use>
                  <path fill="none" stroke="white" stroke-width="1.5" d="M0,-3.0v7 M-2.5,-0.5L0,-3.0L2.5,-0.5"/>
                </g>
                <g id="arrowDown" xlink:href="#dirArrow" transform="rotate(180) translate(-30 -48)" onmousedown="handlePan(0,1)">
                  <use xlink:href="#rim" fill="#404040">
                        <set attributeName="fill" to="#808080" begin="arrowDown.mouseover" end="arrowDown.mouseout"/>
                  </use>
                  <path fill="none" stroke="white" stroke-width="1.5" d="M0,-3.0v7 M-2.5,-0.5L0,-3.0L2.5,-0.5"/>
                </g>
                <g id="arrowLeft" xlink:href="#dirArrow" transform="rotate(270) translate(-36 17)" onmousedown="handlePan(-1,0)">
                  <use xlink:href="#rim" fill="#404040">
                        <set attributeName="fill" to="#808080" begin="arrowLeft.mouseover" end="arrowLeft.mouseout"/>
                  </use>
                  <path fill="none" stroke="white" stroke-width="1.5" d="M0,-3.0v7 M-2.5,-0.5L0,-3.0L2.5,-0.5"/>
                </g>
        </g>
        <svg viewBox="0 0 15 15" width="100%" height="30px" preserveAspectRatio="xMaxYMin meet">
         <g id="arrow_out" transform="scale(0.3 0.3)">
          <a xlink:href="classuiTF_1_1TransferFunctionEditor_a5c2684053c12f9a2165bfe077b7d5315_cgraph_org.svg" target="_base">
           <rect id="button" ry="5" rx="5" y="6" x="6" height="38" width="38"
                fill="#f2f5e9" fill-opacity="0.5" stroke="#606060" stroke-width="1.0"/>
           <path id="arrow"
             d="M 11.500037,31.436501 C 11.940474,20.09759 22.043105,11.32322 32.158766,21.979434 L 37.068811,17.246167 C 37.068811,17.246167 37.088388,32 37.088388,32 L 22.160133,31.978069 C 22.160133,31.978069 26.997745,27.140456 26.997745,27.140456 C 18.528582,18.264221 13.291696,25.230495 11.500037,31.436501 z"
             style="fill:#404040;"/>
          </a>
         </g>
        </svg>
</svg>
