<?xml version="1.0" encoding="UTF-8" standalone="no"?>
<!DOCTYPE svg PUBLIC "-//W3C//DTD SVG 1.1//EN"
 "http://www.w3.org/Graphics/SVG/1.1/DTD/svg11.dtd">
<!-- Generated by graphviz version 2.36.0 (20140111.2315)
 -->
<!-- Title: fwGdcmIO::reader::tid::Fiducial::readNode Pages: 1 -->
<svg width="774pt" height="48pt"
 viewBox="0.00 0.00 774.00 48.00" xmlns="http://www.w3.org/2000/svg" xmlns:xlink="http://www.w3.org/1999/xlink">
<g id="graph0" class="graph" transform="scale(1 1) rotate(0) translate(4 44)">
<title>fwGdcmIO::reader::tid::Fiducial::readNode</title>
<polygon fill="white" stroke="none" points="-4,4 -4,-44 770,-44 770,4 -4,4"/>
<!-- Node1 -->
<g id="node1" class="node"><title>Node1</title>
<polygon fill="#bfbfbf" stroke="black" points="0.5,-5 0.5,-35 113.5,-35 113.5,-5 0.5,-5"/>
<text text-anchor="start" x="8.5" y="-23" font-family="Helvetica,sans-Serif" font-size="10.00">fwGdcmIO::reader::tid</text>
<text text-anchor="middle" x="57" y="-12" font-family="Helvetica,sans-Serif" font-size="10.00">::Fiducial::readNode</text>
</g>
<!-- Node2 -->
<g id="node2" class="node"><title>Node2</title>
<g id="a_node2"><a xlink:href="classfwGdcmIO_1_1reader_1_1tid_1_1MeasurementReport.html#a3a0661680b11eefdcd75220d1a687117" target="_top" xlink:title="Create Measurement Report template root node. ">
<polygon fill="white" stroke="black" points="150.5,0.5 150.5,-40.5 267.5,-40.5 267.5,0.5 150.5,0.5"/>
<text text-anchor="start" x="158.5" y="-28.5" font-family="Helvetica,sans-Serif" font-size="10.00">fwGdcmIO::reader::tid</text>
<text text-anchor="start" x="158.5" y="-17.5" font-family="Helvetica,sans-Serif" font-size="10.00">::MeasurementReport::</text>
<text text-anchor="middle" x="209" y="-6.5" font-family="Helvetica,sans-Serif" font-size="10.00">readSR</text>
</a>
</g>
</g>
<!-- Node1&#45;&gt;Node2 -->
<g id="edge1" class="edge"><title>Node1&#45;&gt;Node2</title>
<path fill="none" stroke="midnightblue" d="M124.039,-20C132.805,-20 141.736,-20 150.345,-20"/>
<polygon fill="midnightblue" stroke="midnightblue" points="123.854,-16.5001 113.854,-20 123.854,-23.5001 123.854,-16.5001"/>
</g>
<!-- Node3 -->
<g id="node3" class="node"><title>Node3</title>
<g id="a_node3"><a xlink:href="classfwGdcmIO_1_1reader_1_1ie_1_1Document.html#ae6da9916273eb44ed3e2373ae9afcd35" target="_top" xlink:title="Read the Structured Report. ">
<polygon fill="white" stroke="black" points="304,-5 304,-35 414,-35 414,-5 304,-5"/>
<text text-anchor="start" x="312" y="-23" font-family="Helvetica,sans-Serif" font-size="10.00">fwGdcmIO::reader::ie</text>
<text text-anchor="middle" x="359" y="-12" font-family="Helvetica,sans-Serif" font-size="10.00">::Document::readSR</text>
</a>
</g>
</g>
<!-- Node2&#45;&gt;Node3 -->
<g id="edge2" class="edge"><title>Node2&#45;&gt;Node3</title>
<path fill="none" stroke="midnightblue" d="M277.754,-20C286.435,-20 295.232,-20 303.662,-20"/>
<polygon fill="midnightblue" stroke="midnightblue" points="277.644,-16.5001 267.644,-20 277.644,-23.5001 277.644,-16.5001"/>
</g>
<!-- Node4 -->
<g id="node4" class="node"><title>Node4</title>
<g id="a_node4"><a xlink:href="classfwGdcmIO_1_1reader_1_1iod_1_1ComprehensiveSRIOD.html#a748271e420dd95c9547a223b0e7a3568" target="_top" xlink:title="Read DICOM file. ">
<polygon fill="white" stroke="black" points="450,-5 450,-35 598,-35 598,-5 450,-5"/>
<text text-anchor="start" x="458" y="-23" font-family="Helvetica,sans-Serif" font-size="10.00">fwGdcmIO::reader::iod</text>
<text text-anchor="middle" x="524" y="-12" font-family="Helvetica,sans-Serif" font-size="10.00">::ComprehensiveSRIOD::read</text>
</a>
</g>
</g>
<!-- Node3&#45;&gt;Node4 -->
<g id="edge3" class="edge"><title>Node3&#45;&gt;Node4</title>
<path fill="none" stroke="midnightblue" d="M424.331,-20C432.697,-20 441.315,-20 449.812,-20"/>
<polygon fill="midnightblue" stroke="midnightblue" points="424.277,-16.5001 414.277,-20 424.277,-23.5001 424.277,-16.5001"/>
</g>
<!-- Node5 -->
<g id="node5" class="node"><title>Node5</title>
<g id="a_node5"><a xlink:href="classfwGdcmIO_1_1reader_1_1Series.html#aa27422bf5f7c9a5aa53793d0b1223c04" target="_top" xlink:title="Read DICOM series. ">
<polygon fill="white" stroke="black" points="634.5,-5 634.5,-35 765.5,-35 765.5,-5 634.5,-5"/>
<text text-anchor="start" x="642.5" y="-23" font-family="Helvetica,sans-Serif" font-size="10.00">fwGdcmIO::reader::Series</text>
<text text-anchor="middle" x="700" y="-12" font-family="Helvetica,sans-Serif" font-size="10.00">::read</text>
</a>
</g>
</g>
<!-- Node4&#45;&gt;Node5 -->
<g id="edge4" class="edge"><title>Node4&#45;&gt;Node5</title>
<path fill="none" stroke="midnightblue" d="M608.303,-20C617.087,-20 625.922,-20 634.447,-20"/>
<polygon fill="midnightblue" stroke="midnightblue" points="608.035,-16.5001 598.035,-20 608.035,-23.5001 608.035,-16.5001"/>
</g>
</g>
</svg>
