<?xml version="1.0" encoding="UTF-8" standalone="no"?>
<!DOCTYPE svg PUBLIC "-//W3C//DTD SVG 1.1//EN"
 "http://www.w3.org/Graphics/SVG/1.1/DTD/svg11.dtd">
<!-- Generated by graphviz version 2.26.3 (20100126.1600)
 -->
<!-- Title: scene2D::adaptor::Histogram Pages: 1 -->
<svg width="1624pt" height="290pt"
 viewBox="0.00 0.00 1624.00 290.00" xmlns="http://www.w3.org/2000/svg" xmlns:xlink="http://www.w3.org/1999/xlink">
<g id="graph1" class="graph" transform="scale(1 1) rotate(0) translate(4 286)">
<title>scene2D::adaptor::Histogram</title>
<polygon fill="white" stroke="white" points="-4,5 -4,-286 1621,-286 1621,5 -4,5"/>
<!-- Node1 -->
<g id="node1" class="node"><title>Node1</title>
<polygon fill="#bfbfbf" stroke="black" points="1470.5,-0.5 1470.5,-21.5 1615.5,-21.5 1615.5,-0.5 1470.5,-0.5"/>
<text text-anchor="middle" x="1543" y="-8.5" font-family="Helvetica,sans-Serif" font-size="10.00">scene2D::adaptor::Histogram</text>
</g>
<!-- Node2 -->
<g id="node2" class="node"><title>Node2</title>
<a xlink:href="classscene2D_1_1adaptor_1_1IAdaptor.html" target="_top" xlink:title="Root class for all scene2D adaptors. ">
<polygon fill="white" stroke="black" points="1294.5,-86.5 1294.5,-107.5 1431.5,-107.5 1431.5,-86.5 1294.5,-86.5"/>
<text text-anchor="middle" x="1363" y="-94.5" font-family="Helvetica,sans-Serif" font-size="10.00">scene2D::adaptor::IAdaptor</text>
</a>
</g>
<!-- Node2&#45;&gt;Node1 -->
<g id="edge2" class="edge"><title>Node2&#45;&gt;Node1</title>
<path fill="none" stroke="midnightblue" d="M1394.18,-82.1016C1430.31,-64.8409 1488.93,-36.8319 1520.75,-21.6315"/>
<polygon fill="midnightblue" stroke="midnightblue" points="1392.59,-78.9856 1385.07,-86.4547 1395.6,-85.3017 1392.59,-78.9856"/>
</g>
<!-- Node3 -->
<g id="node4" class="node"><title>Node3</title>
<a xlink:href="classfwServices_1_1IService.html" target="_top" xlink:title="Base class for all services. ">
<polygon fill="white" stroke="black" points="1112.5,-149.5 1112.5,-170.5 1219.5,-170.5 1219.5,-149.5 1112.5,-149.5"/>
<text text-anchor="middle" x="1166" y="-157.5" font-family="Helvetica,sans-Serif" font-size="10.00">fwServices::IService</text>
</a>
</g>
<!-- Node3&#45;&gt;Node2 -->
<g id="edge4" class="edge"><title>Node3&#45;&gt;Node2</title>
<path fill="none" stroke="midnightblue" d="M1208.8,-146.311C1245.18,-134.68 1296.64,-118.222 1329.92,-107.579"/>
<polygon fill="midnightblue" stroke="midnightblue" points="1207.43,-143.075 1198.97,-149.455 1209.56,-149.743 1207.43,-143.075"/>
</g>
<!-- Node4 -->
<g id="node6" class="node"><title>Node4</title>
<a xlink:href="classfwTools_1_1Object.html" target="_top" xlink:title="Define Base class for FW4SPL objects and services. ">
<polygon fill="white" stroke="black" points="879,-214.5 879,-235.5 965,-235.5 965,-214.5 879,-214.5"/>
<text text-anchor="middle" x="922" y="-222.5" font-family="Helvetica,sans-Serif" font-size="10.00">fwTools::Object</text>
</a>
</g>
<!-- Node4&#45;&gt;Node3 -->
<g id="edge6" class="edge"><title>Node4&#45;&gt;Node3</title>
<path fill="none" stroke="midnightblue" d="M975.38,-214.671C1009.56,-207.622 1054.72,-197.498 1094,-186 1109.18,-181.557 1125.8,-175.627 1139.25,-170.552"/>
<polygon fill="midnightblue" stroke="midnightblue" points="974.241,-211.332 965.142,-216.759 975.639,-218.19 974.241,-211.332"/>
</g>
<!-- Node5 -->
<g id="node8" class="node"><title>Node5</title>
<a xlink:href="classfwCore_1_1BaseObject.html" target="_top" xlink:title="Base class for all FW4SPL&#39;s classes. ">
<polygon fill="white" stroke="black" points="680.5,-254.5 680.5,-275.5 785.5,-275.5 785.5,-254.5 680.5,-254.5"/>
<text text-anchor="middle" x="733" y="-262.5" font-family="Helvetica,sans-Serif" font-size="10.00">fwCore::BaseObject</text>
</a>
</g>
<!-- Node5&#45;&gt;Node4 -->
<g id="edge8" class="edge"><title>Node5&#45;&gt;Node4</title>
<path fill="none" stroke="midnightblue" d="M792.712,-252.363C820.64,-246.452 853.28,-239.544 878.777,-234.148"/>
<polygon fill="midnightblue" stroke="midnightblue" points="791.716,-248.996 782.658,-254.49 793.166,-255.844 791.716,-248.996"/>
</g>
<!-- Node6 -->
<g id="node10" class="node"><title>Node6</title>
<polygon fill="white" stroke="#bfbfbf" points="449.5,-248 449.5,-282 580.5,-282 580.5,-248 449.5,-248"/>
<text text-anchor="start" x="457.5" y="-269" font-family="Helvetica,sans-Serif" font-size="10.00">std::enable_shared</text>
<text text-anchor="middle" x="515" y="-256" font-family="Helvetica,sans-Serif" font-size="10.00">_from_this&lt; BaseObject &gt;</text>
</g>
<!-- Node6&#45;&gt;Node5 -->
<g id="edge10" class="edge"><title>Node6&#45;&gt;Node5</title>
<path fill="none" stroke="midnightblue" d="M590.959,-265C620.418,-265 653.435,-265 680.216,-265"/>
<polygon fill="midnightblue" stroke="midnightblue" points="590.703,-261.5 580.703,-265 590.703,-268.5 590.703,-261.5"/>
</g>
<!-- Node7 -->
<g id="node12" class="node"><title>Node7</title>
<a xlink:href="classfwTools_1_1fwID.html" target="_top" xlink:title="Defines ID for fwTools::Object. It is used to associate ID with object. ">
<polygon fill="white" stroke="black" points="694,-214.5 694,-235.5 772,-235.5 772,-214.5 694,-214.5"/>
<text text-anchor="middle" x="733" y="-222.5" font-family="Helvetica,sans-Serif" font-size="10.00">fwTools::fwID</text>
</a>
</g>
<!-- Node7&#45;&gt;Node4 -->
<g id="edge12" class="edge"><title>Node7&#45;&gt;Node4</title>
<path fill="none" stroke="darkgreen" d="M782.399,-225C812.353,-225 850.205,-225 878.936,-225"/>
<polygon fill="darkgreen" stroke="darkgreen" points="782.161,-221.5 772.161,-225 782.161,-228.5 782.161,-221.5"/>
</g>
<!-- Node8 -->
<g id="node14" class="node"><title>Node8</title>
<a xlink:href="classfwCom_1_1HasSlots.html" target="_top" xlink:title="This class proposes a mapping between a SlotKeyType and a SlotBase. ">
<polygon fill="white" stroke="black" points="874.5,-134.5 874.5,-155.5 969.5,-155.5 969.5,-134.5 874.5,-134.5"/>
<text text-anchor="middle" x="922" y="-142.5" font-family="Helvetica,sans-Serif" font-size="10.00">fwCom::HasSlots</text>
</a>
</g>
<!-- Node8&#45;&gt;Node3 -->
<g id="edge14" class="edge"><title>Node8&#45;&gt;Node3</title>
<path fill="none" stroke="midnightblue" d="M979.783,-148.552C1019.88,-151.017 1072.91,-154.277 1112.12,-156.688"/>
<polygon fill="midnightblue" stroke="midnightblue" points="979.821,-145.048 969.625,-147.928 979.391,-152.035 979.821,-145.048"/>
</g>
<!-- Node9 -->
<g id="node16" class="node"><title>Node9</title>
<a xlink:href="classfwCom_1_1Slots.html" target="_top" xlink:title="This class proposes a mapping between a SlotKeyType and a SlotBase. ">
<polygon fill="white" stroke="black" points="694.5,-128.5 694.5,-149.5 771.5,-149.5 771.5,-128.5 694.5,-128.5"/>
<text text-anchor="middle" x="733" y="-136.5" font-family="Helvetica,sans-Serif" font-size="10.00">fwCom::Slots</text>
</a>
</g>
<!-- Node9&#45;&gt;Node8 -->
<g id="edge16" class="edge"><title>Node9&#45;&gt;Node8</title>
<path fill="none" stroke="#9a32cd" stroke-dasharray="5,2" d="M781.832,-140.55C810.292,-141.454 846.028,-142.588 874.293,-143.485"/>
<polygon fill="#9a32cd" stroke="#9a32cd" points="781.809,-137.048 771.703,-140.229 781.587,-144.044 781.809,-137.048"/>
<text text-anchor="middle" x="828" y="-146" font-family="Helvetica,sans-Serif" font-size="10.00"> m_slots</text>
</g>
<!-- Node10 -->
<g id="node18" class="node"><title>Node10</title>
<polygon fill="white" stroke="#bfbfbf" points="439,-118 439,-152 591,-152 591,-118 439,-118"/>
<text text-anchor="start" x="447" y="-139" font-family="Helvetica,sans-Serif" font-size="10.00">std::map&lt; SlotKeyType,</text>
<text text-anchor="middle" x="515" y="-126" font-family="Helvetica,sans-Serif" font-size="10.00"> std::shared_ptr&lt; SlotBase &gt; &gt;</text>
</g>
<!-- Node10&#45;&gt;Node9 -->
<g id="edge18" class="edge"><title>Node10&#45;&gt;Node9</title>
<path fill="none" stroke="#9a32cd" stroke-dasharray="5,2" d="M601.588,-136.589C633.782,-137.179 668.703,-137.82 694.45,-138.293"/>
<polygon fill="#9a32cd" stroke="#9a32cd" points="601.308,-133.083 591.246,-136.399 601.18,-140.082 601.308,-133.083"/>
<text text-anchor="middle" x="638" y="-141" font-family="Helvetica,sans-Serif" font-size="10.00"> m_slots</text>
</g>
<!-- Node11 -->
<g id="node20" class="node"><title>Node11</title>
<a xlink:title="STL class. ">
<polygon fill="white" stroke="#bfbfbf" points="192,-195.5 192,-216.5 252,-216.5 252,-195.5 192,-195.5"/>
<text text-anchor="middle" x="222" y="-203.5" font-family="Helvetica,sans-Serif" font-size="10.00">std::string</text>
</a>
</g>
<!-- Node11&#45;&gt;Node10 -->
<g id="edge20" class="edge"><title>Node11&#45;&gt;Node10</title>
<path fill="none" stroke="#9a32cd" stroke-dasharray="5,2" d="M234.251,-186.757C245.538,-170.952 263.865,-149.655 286,-140 312.563,-128.414 383.108,-128.4 438.944,-130.537"/>
<polygon fill="#9a32cd" stroke="#9a32cd" points="231.171,-185.061 228.442,-195.299 236.96,-188.998 231.171,-185.061"/>
<text text-anchor="middle" x="351" y="-144" font-family="Helvetica,sans-Serif" font-size="10.00"> keys</text>
</g>
<!-- Node18 -->
<g id="node34" class="node"><title>Node18</title>
<polygon fill="white" stroke="#bfbfbf" points="434.5,-170 434.5,-204 595.5,-204 595.5,-170 434.5,-170"/>
<text text-anchor="start" x="442.5" y="-191" font-family="Helvetica,sans-Serif" font-size="10.00">std::map&lt; SignalKeyType,</text>
<text text-anchor="middle" x="515" y="-178" font-family="Helvetica,sans-Serif" font-size="10.00"> std::shared_ptr&lt; SignalBase &gt; &gt;</text>
</g>
<!-- Node11&#45;&gt;Node18 -->
<g id="edge36" class="edge"><title>Node11&#45;&gt;Node18</title>
<path fill="none" stroke="#9a32cd" stroke-dasharray="5,2" d="M262.565,-208.229C301.888,-209.864 363.173,-211.023 416,-206 422.011,-205.428 428.199,-204.666 434.409,-203.774"/>
<polygon fill="#9a32cd" stroke="#9a32cd" points="262.473,-204.721 252.327,-207.771 262.161,-211.714 262.473,-204.721"/>
<text text-anchor="middle" x="351" y="-213" font-family="Helvetica,sans-Serif" font-size="10.00"> keys</text>
</g>
<!-- Node12 -->
<g id="node22" class="node"><title>Node12</title>
<a xlink:title="STL class. ">
<polygon fill="white" stroke="#bfbfbf" points="0.5,-189 0.5,-223 95.5,-223 95.5,-189 0.5,-189"/>
<text text-anchor="start" x="8.5" y="-210" font-family="Helvetica,sans-Serif" font-size="10.00">std::basic_string&lt;</text>
<text text-anchor="middle" x="48" y="-197" font-family="Helvetica,sans-Serif" font-size="10.00"> char &gt;</text>
</a>
</g>
<!-- Node12&#45;&gt;Node11 -->
<g id="edge22" class="edge"><title>Node12&#45;&gt;Node11</title>
<path fill="none" stroke="midnightblue" d="M105.887,-206C134.618,-206 168.136,-206 191.754,-206"/>
<polygon fill="midnightblue" stroke="midnightblue" points="105.546,-202.5 95.5463,-206 105.546,-209.5 105.546,-202.5"/>
</g>
<!-- Node13 -->
<g id="node24" class="node"><title>Node13</title>
<a xlink:title="STL class. ">
<polygon fill="white" stroke="#bfbfbf" points="176,-107.5 176,-128.5 268,-128.5 268,-107.5 176,-107.5"/>
<text text-anchor="middle" x="222" y="-115.5" font-family="Helvetica,sans-Serif" font-size="10.00">std::map&lt; K, T &gt;</text>
</a>
</g>
<!-- Node13&#45;&gt;Node10 -->
<g id="edge24" class="edge"><title>Node13&#45;&gt;Node10</title>
<path fill="none" stroke="orange" stroke-dasharray="5,2" d="M254.626,-103.83C264.514,-100.208 275.532,-96.8239 286,-95 342.92,-85.0826 359.284,-83.9751 416,-95 438.928,-99.4569 463.269,-109.216 482.077,-117.979"/>
<polygon fill="orange" stroke="orange" points="253.244,-100.612 245.178,-107.482 255.768,-107.141 253.244,-100.612"/>
<text text-anchor="start" x="291.5" y="-112" font-family="Helvetica,sans-Serif" font-size="10.00"> &lt; SlotKeyType, std</text>
<text text-anchor="middle" x="351" y="-99" font-family="Helvetica,sans-Serif" font-size="10.00">::shared_ptr&lt; SlotBase &gt; &gt;</text>
</g>
<!-- Node13&#45;&gt;Node18 -->
<g id="edge38" class="edge"><title>Node13&#45;&gt;Node18</title>
<path fill="none" stroke="orange" stroke-dasharray="5,2" d="M244.198,-134.708C256.01,-142.75 271.136,-151.762 286,-157 299.969,-161.922 374.094,-171.156 434.283,-178.084"/>
<polygon fill="orange" stroke="orange" points="246.057,-131.736 235.87,-128.826 242.018,-137.454 246.057,-131.736"/>
<text text-anchor="start" x="286.5" y="-192" font-family="Helvetica,sans-Serif" font-size="10.00"> &lt; SignalKeyType, std</text>
<text text-anchor="middle" x="351" y="-179" font-family="Helvetica,sans-Serif" font-size="10.00">::shared_ptr&lt; SignalBase &gt; &gt;</text>
</g>
<!-- Node14 -->
<g id="node26" class="node"><title>Node14</title>
<polygon fill="white" stroke="#bfbfbf" points="33.5,-87.5 33.5,-108.5 62.5,-108.5 62.5,-87.5 33.5,-87.5"/>
<text text-anchor="middle" x="48" y="-95.5" font-family="Helvetica,sans-Serif" font-size="10.00">K</text>
</g>
<!-- Node14&#45;&gt;Node13 -->
<g id="edge26" class="edge"><title>Node14&#45;&gt;Node13</title>
<path fill="none" stroke="#9a32cd" stroke-dasharray="5,2" d="M72.9653,-97.825C95.339,-97.9788 129.004,-98.9782 158,-103 165.913,-104.098 174.283,-105.716 182.27,-107.489"/>
<polygon fill="#9a32cd" stroke="#9a32cd" points="72.6745,-94.3246 62.669,-97.809 72.6635,-101.325 72.6745,-94.3246"/>
<text text-anchor="middle" x="136" y="-107" font-family="Helvetica,sans-Serif" font-size="10.00"> keys</text>
</g>
<!-- Node15 -->
<g id="node28" class="node"><title>Node15</title>
<polygon fill="white" stroke="#bfbfbf" points="33.5,-127.5 33.5,-148.5 62.5,-148.5 62.5,-127.5 33.5,-127.5"/>
<text text-anchor="middle" x="48" y="-135.5" font-family="Helvetica,sans-Serif" font-size="10.00">T</text>
</g>
<!-- Node15&#45;&gt;Node13 -->
<g id="edge28" class="edge"><title>Node15&#45;&gt;Node13</title>
<path fill="none" stroke="#9a32cd" stroke-dasharray="5,2" d="M72.5869,-135.174C99.3704,-132.095 142.819,-127.101 175.976,-123.29"/>
<polygon fill="#9a32cd" stroke="#9a32cd" points="72.0708,-131.71 62.5359,-136.329 72.8701,-138.664 72.0708,-131.71"/>
<text text-anchor="middle" x="136" y="-134" font-family="Helvetica,sans-Serif" font-size="10.00"> elements</text>
</g>
<!-- Node16 -->
<g id="node30" class="node"><title>Node16</title>
<a xlink:href="classfwCom_1_1HasSignals.html" target="_top" xlink:title="This class proposes a mapping between a SignalKeyType and a SignalBase. ">
<polygon fill="white" stroke="black" points="870,-174.5 870,-195.5 974,-195.5 974,-174.5 870,-174.5"/>
<text text-anchor="middle" x="922" y="-182.5" font-family="Helvetica,sans-Serif" font-size="10.00">fwCom::HasSignals</text>
</a>
</g>
<!-- Node16&#45;&gt;Node3 -->
<g id="edge30" class="edge"><title>Node16&#45;&gt;Node3</title>
<path fill="none" stroke="midnightblue" d="M984.116,-178.636C1023.71,-174.578 1074.51,-169.374 1112.35,-165.497"/>
<polygon fill="midnightblue" stroke="midnightblue" points="983.636,-175.166 974.045,-179.668 984.35,-182.13 983.636,-175.166"/>
</g>
<!-- Node17 -->
<g id="node32" class="node"><title>Node17</title>
<a xlink:href="classfwCom_1_1Signals.html" target="_top" xlink:title="This class proposes a mapping between a SignalKeyType and a SignalBase. ">
<polygon fill="white" stroke="black" points="690,-174.5 690,-195.5 776,-195.5 776,-174.5 690,-174.5"/>
<text text-anchor="middle" x="733" y="-182.5" font-family="Helvetica,sans-Serif" font-size="10.00">fwCom::Signals</text>
</a>
</g>
<!-- Node17&#45;&gt;Node16 -->
<g id="edge32" class="edge"><title>Node17&#45;&gt;Node16</title>
<path fill="none" stroke="#9a32cd" stroke-dasharray="5,2" d="M786.454,-185C812.549,-185 843.828,-185 869.76,-185"/>
<polygon fill="#9a32cd" stroke="#9a32cd" points="786.36,-181.5 776.36,-185 786.36,-188.5 786.36,-181.5"/>
<text text-anchor="middle" x="828" y="-189" font-family="Helvetica,sans-Serif" font-size="10.00"> m_signals</text>
</g>
<!-- Node18&#45;&gt;Node17 -->
<g id="edge34" class="edge"><title>Node18&#45;&gt;Node17</title>
<path fill="none" stroke="#9a32cd" stroke-dasharray="5,2" d="M605.751,-186.167C634.826,-185.901 665.684,-185.618 689.73,-185.397"/>
<polygon fill="#9a32cd" stroke="#9a32cd" points="605.523,-182.669 595.556,-186.261 605.588,-189.669 605.523,-182.669"/>
<text text-anchor="middle" x="638" y="-190" font-family="Helvetica,sans-Serif" font-size="10.00"> m_signals</text>
</g>
<!-- Node19 -->
<g id="node38" class="node"><title>Node19</title>
<polygon fill="white" stroke="#bfbfbf" points="901.5,-1.5 901.5,-22.5 942.5,-22.5 942.5,-1.5 901.5,-1.5"/>
<text text-anchor="middle" x="922" y="-9.5" font-family="Helvetica,sans-Serif" font-size="10.00">static</text>
</g>
<!-- Node19&#45;&gt;Node1 -->
<g id="edge42" class="edge"><title>Node19&#45;&gt;Node1</title>
<path fill="none" stroke="#9a32cd" stroke-dasharray="5,2" d="M952.671,-10.4008C964.903,-9.83749 979.114,-9.276 992,-9 1037.32,-8.02924 1048.67,-8.89904 1094,-9 1226.71,-9.29557 1381.49,-10.0826 1470.29,-10.5766"/>
<polygon fill="#9a32cd" stroke="#9a32cd" points="952.335,-6.91287 942.515,-10.8893 952.671,-13.9048 952.335,-6.91287"/>
<text text-anchor="middle" x="1257" y="-14" font-family="Helvetica,sans-Serif" font-size="10.00"> SCALE</text>
</g>
<!-- Node19&#45;&gt;Node3 -->
<g id="edge40" class="edge"><title>Node19&#45;&gt;Node3</title>
<path fill="none" stroke="#9a32cd" stroke-dasharray="5,2" d="M953.016,-11.4675C996.165,-11.2938 1071.54,-13.2181 1094,-28 1138.48,-57.2772 1157.79,-123.715 1163.8,-149.498"/>
<polygon fill="#9a32cd" stroke="#9a32cd" points="952.764,-7.96936 942.792,-11.5504 952.82,-14.9691 952.764,-7.96936"/>
<text text-anchor="middle" x="1043" y="-136" font-family="Helvetica,sans-Serif" font-size="10.00"> s_STOPPED_SIG</text>
<text text-anchor="middle" x="1043" y="-123" font-family="Helvetica,sans-Serif" font-size="10.00">s_UPDATED_SIG</text>
<text text-anchor="middle" x="1043" y="-110" font-family="Helvetica,sans-Serif" font-size="10.00">s_UPDATE_SLOT</text>
<text text-anchor="middle" x="1043" y="-97" font-family="Helvetica,sans-Serif" font-size="10.00">s_STARTED_SIG</text>
<text text-anchor="middle" x="1043" y="-84" font-family="Helvetica,sans-Serif" font-size="10.00">s_SWAPKEY_SLOT</text>
<text text-anchor="middle" x="1043" y="-71" font-family="Helvetica,sans-Serif" font-size="10.00">s_SWAP_SLOT</text>
<text text-anchor="middle" x="1043" y="-58" font-family="Helvetica,sans-Serif" font-size="10.00">s_STOP_SLOT</text>
<text text-anchor="middle" x="1043" y="-45" font-family="Helvetica,sans-Serif" font-size="10.00">s_START_SLOT</text>
<text text-anchor="middle" x="1043" y="-32" font-family="Helvetica,sans-Serif" font-size="10.00">s_DEFAULT_OBJECT</text>
</g>
</g>
</svg>
