<?xml version="1.0" encoding="UTF-8" standalone="no"?>
<!DOCTYPE svg PUBLIC "-//W3C//DTD SVG 1.1//EN"
 "http://www.w3.org/Graphics/SVG/1.1/DTD/svg11.dtd">
<!-- Generated by graphviz version 2.36.0 (20140111.2315)
 -->
<!-- Title: fwIO::IReader::getFile Pages: 1 -->
<svg width="308pt" height="420pt"
 viewBox="0.00 0.00 308.00 420.00" xmlns="http://www.w3.org/2000/svg" xmlns:xlink="http://www.w3.org/1999/xlink">
<g id="graph0" class="graph" transform="scale(1 1) rotate(0) translate(4 416)">
<title>fwIO::IReader::getFile</title>
<polygon fill="white" stroke="none" points="-4,4 -4,-416 304,-416 304,4 -4,4"/>
<!-- Node1 -->
<g id="node1" class="node"><title>Node1</title>
<polygon fill="#bfbfbf" stroke="black" points="0.5,-191.5 0.5,-210.5 113.5,-210.5 113.5,-191.5 0.5,-191.5"/>
<text text-anchor="middle" x="57" y="-198.5" font-family="Helvetica,sans-Serif" font-size="10.00">fwIO::IReader::getFile</text>
</g>
<!-- Node2 -->
<g id="node2" class="node"><title>Node2</title>
<g id="a_node2"><a xlink:href="classioITK_1_1InrImageReaderService.html#a62e14b7e3c6cd34e40b504754ad7beb2" target="_top" xlink:title="Override. ">
<polygon fill="white" stroke="black" points="150.5,-382 150.5,-412 299.5,-412 299.5,-382 150.5,-382"/>
<text text-anchor="start" x="158.5" y="-400" font-family="Helvetica,sans-Serif" font-size="10.00">ioITK::InrImageReaderService</text>
<text text-anchor="middle" x="225" y="-389" font-family="Helvetica,sans-Serif" font-size="10.00">::updating</text>
</a>
</g>
</g>
<!-- Node1&#45;&gt;Node2 -->
<g id="edge1" class="edge"><title>Node1&#45;&gt;Node2</title>
<path fill="none" stroke="midnightblue" d="M63.3695,-220.774C73.9824,-256.184 100.971,-330.577 150,-372 154.558,-375.851 159.735,-379.116 165.184,-381.884"/>
<polygon fill="midnightblue" stroke="midnightblue" points="66.6128,-219.386 60.492,-210.738 59.8839,-221.316 66.6128,-219.386"/>
</g>
<!-- Node3 -->
<g id="node3" class="node"><title>Node3</title>
<g id="a_node3"><a xlink:href="classioTuto_1_1ExternalDataReaderService.html#ac3550101d66e01de163925748b9637ed" target="_top" xlink:title="Updating method. This method is called by update() from base service ( fwServices::IService ) ...">
<polygon fill="white" stroke="black" points="156,-333 156,-363 294,-363 294,-333 156,-333"/>
<text text-anchor="start" x="164" y="-351" font-family="Helvetica,sans-Serif" font-size="10.00">ioTuto::ExternalDataReader</text>
<text text-anchor="middle" x="225" y="-340" font-family="Helvetica,sans-Serif" font-size="10.00">Service::updating</text>
</a>
</g>
</g>
<!-- Node1&#45;&gt;Node3 -->
<g id="edge2" class="edge"><title>Node1&#45;&gt;Node3</title>
<path fill="none" stroke="midnightblue" d="M67.4848,-219.877C81.8205,-246.571 111.473,-295.189 150,-323 155.278,-326.81 161.178,-330.07 167.281,-332.852"/>
<polygon fill="midnightblue" stroke="midnightblue" points="70.4824,-218.056 62.7538,-210.808 64.2762,-221.293 70.4824,-218.056"/>
</g>
<!-- Node4 -->
<g id="node4" class="node"><title>Node4</title>
<g id="a_node4"><a xlink:href="classioData_1_1TransformationMatrix3DReaderService.html#ae6aeebc67e64891b57a091aa749c7c76" target="_top" xlink:title="Updating method. This method is called by update() from base service ( fwServices::IService ) ...">
<polygon fill="white" stroke="black" points="150.5,-284 150.5,-314 299.5,-314 299.5,-284 150.5,-284"/>
<text text-anchor="start" x="158.5" y="-302" font-family="Helvetica,sans-Serif" font-size="10.00">ioData::TransformationMatrix3</text>
<text text-anchor="middle" x="225" y="-291" font-family="Helvetica,sans-Serif" font-size="10.00">DReaderService::updating</text>
</a>
</g>
</g>
<!-- Node1&#45;&gt;Node4 -->
<g id="edge3" class="edge"><title>Node1&#45;&gt;Node4</title>
<path fill="none" stroke="midnightblue" d="M75.3555,-217.831C92.9354,-234.103 121.525,-258.508 150,-274 156.79,-277.694 164.224,-280.982 171.68,-283.863"/>
<polygon fill="midnightblue" stroke="midnightblue" points="77.3346,-214.886 67.6585,-210.571 72.5314,-219.979 77.3346,-214.886"/>
</g>
<!-- Node5 -->
<g id="node5" class="node"><title>Node5</title>
<g id="a_node5"><a xlink:href="classioData_1_1SAttachmentSeriesReader.html#a20166c9d3e9398d066e91ee87259878c" target="_top" xlink:title="Updating method. This method is called by update() from base service ( fwServices::IService ) ...">
<polygon fill="white" stroke="black" points="157,-235 157,-265 293,-265 293,-235 157,-235"/>
<text text-anchor="start" x="165" y="-253" font-family="Helvetica,sans-Serif" font-size="10.00">ioData::SAttachmentSeries</text>
<text text-anchor="middle" x="225" y="-242" font-family="Helvetica,sans-Serif" font-size="10.00">Reader::updating</text>
</a>
</g>
</g>
<!-- Node1&#45;&gt;Node5 -->
<g id="edge4" class="edge"><title>Node1&#45;&gt;Node5</title>
<path fill="none" stroke="midnightblue" d="M100.191,-213.454C122.365,-219.999 149.711,-228.071 173.058,-234.963"/>
<polygon fill="midnightblue" stroke="midnightblue" points="100.982,-210.038 90.4005,-210.564 99.0005,-216.752 100.982,-210.038"/>
</g>
<!-- Node6 -->
<g id="node6" class="node"><title>Node6</title>
<g id="a_node6"><a xlink:href="classioVTK_1_1SImageSeriesReader.html#a4b42eec6b44b74ae7286255333bf01cb" target="_top" xlink:title="Updating method. ">
<polygon fill="white" stroke="black" points="153.5,-186 153.5,-216 296.5,-216 296.5,-186 153.5,-186"/>
<text text-anchor="start" x="161.5" y="-204" font-family="Helvetica,sans-Serif" font-size="10.00">ioVTK::SImageSeriesReader</text>
<text text-anchor="middle" x="225" y="-193" font-family="Helvetica,sans-Serif" font-size="10.00">::updating</text>
</a>
</g>
</g>
<!-- Node1&#45;&gt;Node6 -->
<g id="edge5" class="edge"><title>Node1&#45;&gt;Node6</title>
<path fill="none" stroke="midnightblue" d="M123.74,-201C133.476,-201 143.544,-201 153.374,-201"/>
<polygon fill="midnightblue" stroke="midnightblue" points="123.737,-197.5 113.737,-201 123.737,-204.5 123.737,-197.5"/>
</g>
<!-- Node7 -->
<g id="node7" class="node"><title>Node7</title>
<g id="a_node7"><a xlink:href="classioVTK_1_1SMeshReader.html#a9a4981473454592747506098f7098111" target="_top" xlink:title="Updating method. ">
<polygon fill="white" stroke="black" points="169,-137 169,-167 281,-167 281,-137 169,-137"/>
<text text-anchor="start" x="177" y="-155" font-family="Helvetica,sans-Serif" font-size="10.00">ioVTK::SMeshReader</text>
<text text-anchor="middle" x="225" y="-144" font-family="Helvetica,sans-Serif" font-size="10.00">::updating</text>
</a>
</g>
</g>
<!-- Node1&#45;&gt;Node7 -->
<g id="edge6" class="edge"><title>Node1&#45;&gt;Node7</title>
<path fill="none" stroke="midnightblue" d="M100.191,-188.546C122.365,-182.001 149.711,-173.929 173.058,-167.037"/>
<polygon fill="midnightblue" stroke="midnightblue" points="99.0005,-185.248 90.4005,-191.436 100.982,-191.962 99.0005,-185.248"/>
</g>
<!-- Node8 -->
<g id="node8" class="node"><title>Node8</title>
<g id="a_node8"><a xlink:href="classioData_1_1STrianMeshReader.html#a246185ef50b8966c770d4a7ebd24ea54" target="_top" xlink:title="Updating method. This method is called by update() from base service ( fwServices::IService ) ...">
<polygon fill="white" stroke="black" points="157.5,-88 157.5,-118 292.5,-118 292.5,-88 157.5,-88"/>
<text text-anchor="start" x="165.5" y="-106" font-family="Helvetica,sans-Serif" font-size="10.00">ioData::STrianMeshReader</text>
<text text-anchor="middle" x="225" y="-95" font-family="Helvetica,sans-Serif" font-size="10.00">::updating</text>
</a>
</g>
</g>
<!-- Node1&#45;&gt;Node8 -->
<g id="edge7" class="edge"><title>Node1&#45;&gt;Node8</title>
<path fill="none" stroke="midnightblue" d="M75.3555,-184.169C92.9354,-167.897 121.525,-143.492 150,-128 156.79,-124.306 164.224,-121.018 171.68,-118.137"/>
<polygon fill="midnightblue" stroke="midnightblue" points="72.5314,-182.021 67.6585,-191.429 77.3346,-187.114 72.5314,-182.021"/>
</g>
<!-- Node9 -->
<g id="node9" class="node"><title>Node9</title>
<g id="a_node9"><a xlink:href="classioVTK_1_1SImageReader.html#afcbc09386d2bff33b89cc473cc23b2ff" target="_top" xlink:title="Updating method execute the read process. ">
<polygon fill="white" stroke="black" points="167.5,-39 167.5,-69 282.5,-69 282.5,-39 167.5,-39"/>
<text text-anchor="start" x="175.5" y="-57" font-family="Helvetica,sans-Serif" font-size="10.00">ioVTK::SImageReader</text>
<text text-anchor="middle" x="225" y="-46" font-family="Helvetica,sans-Serif" font-size="10.00">::updating</text>
</a>
</g>
</g>
<!-- Node1&#45;&gt;Node9 -->
<g id="edge8" class="edge"><title>Node1&#45;&gt;Node9</title>
<path fill="none" stroke="midnightblue" d="M67.4848,-182.123C81.8205,-155.429 111.473,-106.811 150,-79 155.278,-75.1903 161.178,-71.9303 167.281,-69.1479"/>
<polygon fill="midnightblue" stroke="midnightblue" points="64.2762,-180.707 62.7538,-191.192 70.4824,-183.944 64.2762,-180.707"/>
</g>
<!-- Node10 -->
<g id="node10" class="node"><title>Node10</title>
<g id="a_node10"><a xlink:href="classioAtoms_1_1SReader.html#a994e648bfb71466f74412518de6b9ca0" target="_top" xlink:title="Tests file extension, applies the good atom reader, and converts atom in fwData::Composite. ">
<polygon fill="white" stroke="black" points="155,-0.5 155,-19.5 295,-19.5 295,-0.5 155,-0.5"/>
<text text-anchor="middle" x="225" y="-7.5" font-family="Helvetica,sans-Serif" font-size="10.00">ioAtoms::SReader::updating</text>
</a>
</g>
</g>
<!-- Node1&#45;&gt;Node10 -->
<g id="edge9" class="edge"><title>Node1&#45;&gt;Node10</title>
<path fill="none" stroke="midnightblue" d="M62.9901,-181.388C73.1102,-145.681 99.4962,-70.0598 150,-30 155.526,-25.6168 161.936,-22.1912 168.626,-19.5147"/>
<polygon fill="midnightblue" stroke="midnightblue" points="59.5944,-180.537 60.3629,-191.104 66.3518,-182.364 59.5944,-180.537"/>
</g>
</g>
</svg>
