<?xml version="1.0" encoding="UTF-8" standalone="no"?>
<!DOCTYPE svg PUBLIC "-//W3C//DTD SVG 1.1//EN"
 "http://www.w3.org/Graphics/SVG/1.1/DTD/svg11.dtd">
<!-- Generated by graphviz version 2.36.0 (20140111.2315)
 -->
<!-- Title: fwZip::IReadArchive Pages: 1 -->
<svg width="258pt" height="84pt"
 viewBox="0.00 0.00 258.00 84.00" xmlns="http://www.w3.org/2000/svg" xmlns:xlink="http://www.w3.org/1999/xlink">
<g id="graph0" class="graph" transform="scale(1 1) rotate(0) translate(4 80)">
<title>fwZip::IReadArchive</title>
<polygon fill="white" stroke="none" points="-4,4 -4,-80 254,-80 254,4 -4,4"/>
<!-- Node1 -->
<g id="node1" class="node"><title>Node1</title>
<polygon fill="#bfbfbf" stroke="black" points="72,-56.5 72,-75.5 178,-75.5 178,-56.5 72,-56.5"/>
<text text-anchor="middle" x="125" y="-63.5" font-family="Helvetica,sans-Serif" font-size="10.00">fwZip::IReadArchive</text>
</g>
<!-- Node2 -->
<g id="node2" class="node"><title>Node2</title>
<g id="a_node2"><a xlink:href="classfwZip_1_1ReadDirArchive.html" target="_top" xlink:title="This class defines functions to read a file in a file system archive. ">
<polygon fill="white" stroke="black" points="0,-0.5 0,-19.5 116,-19.5 116,-0.5 0,-0.5"/>
<text text-anchor="middle" x="58" y="-7.5" font-family="Helvetica,sans-Serif" font-size="10.00">fwZip::ReadDirArchive</text>
</a>
</g>
</g>
<!-- Node1&#45;&gt;Node2 -->
<g id="edge1" class="edge"><title>Node1&#45;&gt;Node2</title>
<path fill="none" stroke="midnightblue" d="M106.165,-49.8197C94.1616,-40.1452 79.0283,-27.9481 68.9606,-19.8339"/>
<polygon fill="midnightblue" stroke="midnightblue" points="104.253,-52.7738 114.235,-56.324 108.646,-47.3236 104.253,-52.7738"/>
</g>
<!-- Node3 -->
<g id="node3" class="node"><title>Node3</title>
<g id="a_node3"><a xlink:href="classfwZip_1_1ReadZipArchive.html" target="_top" xlink:title="This class defines functions to read a file in a zip archive. ">
<polygon fill="white" stroke="black" points="134,-0.5 134,-19.5 250,-19.5 250,-0.5 134,-0.5"/>
<text text-anchor="middle" x="192" y="-7.5" font-family="Helvetica,sans-Serif" font-size="10.00">fwZip::ReadZipArchive</text>
</a>
</g>
</g>
<!-- Node1&#45;&gt;Node3 -->
<g id="edge2" class="edge"><title>Node1&#45;&gt;Node3</title>
<path fill="none" stroke="midnightblue" d="M143.835,-49.8197C155.838,-40.1452 170.972,-27.9481 181.039,-19.8339"/>
<polygon fill="midnightblue" stroke="midnightblue" points="141.354,-47.3236 135.765,-56.324 145.747,-52.7738 141.354,-47.3236"/>
</g>
</g>
</svg>
