<?xml version="1.0" encoding="UTF-8" standalone="no"?>
<!DOCTYPE svg PUBLIC "-//W3C//DTD SVG 1.1//EN"
 "http://www.w3.org/Graphics/SVG/1.1/DTD/svg11.dtd">
<!-- Generated by graphviz version 2.36.0 (20140111.2315)
 -->
<!-- Title: fwGui::dialog::LocationDialog Pages: 1 -->
<svg width="290pt" height="316pt"
 viewBox="0.00 0.00 290.00 316.00" xmlns="http://www.w3.org/2000/svg" xmlns:xlink="http://www.w3.org/1999/xlink">
<g id="graph0" class="graph" transform="scale(1 1) rotate(0) translate(4 312)">
<title>fwGui::dialog::LocationDialog</title>
<polygon fill="white" stroke="none" points="-4,4 -4,-312 286,-312 286,4 -4,4"/>
<!-- Node1 -->
<g id="node1" class="node"><title>Node1</title>
<polygon fill="#bfbfbf" stroke="black" points="65,-0.5 65,-19.5 209,-19.5 209,-0.5 65,-0.5"/>
<text text-anchor="middle" x="137" y="-7.5" font-family="Helvetica,sans-Serif" font-size="10.00">fwGui::dialog::LocationDialog</text>
</g>
<!-- Node2 -->
<g id="node2" class="node"><title>Node2</title>
<g id="a_node2"><a xlink:href="classfwGui_1_1dialog_1_1ILocationDialog.html" target="_top" xlink:title="fwGui::dialog::ILocation\lDialog">
<polygon fill="white" stroke="black" points="77.5,-59 77.5,-89 196.5,-89 196.5,-59 77.5,-59"/>
<text text-anchor="start" x="85.5" y="-77" font-family="Helvetica,sans-Serif" font-size="10.00">fwGui::dialog::ILocation</text>
<text text-anchor="middle" x="137" y="-66" font-family="Helvetica,sans-Serif" font-size="10.00">Dialog</text>
</a>
</g>
</g>
<!-- Node2&#45;&gt;Node1 -->
<g id="edge1" class="edge"><title>Node2&#45;&gt;Node1</title>
<path fill="none" stroke="midnightblue" d="M137,-48.8706C137,-38.6625 137,-27.4077 137,-19.8419"/>
<polygon fill="midnightblue" stroke="midnightblue" points="133.5,-48.9312 137,-58.9312 140.5,-48.9313 133.5,-48.9312"/>
</g>
<!-- Node3 -->
<g id="node3" class="node"><title>Node3</title>
<g id="a_node3"><a xlink:href="classfwGui_1_1GuiBaseObject.html" target="_top" xlink:title="Base class for all fwGui&#39;s classes. ">
<polygon fill="white" stroke="black" points="8,-160.5 8,-179.5 122,-179.5 122,-160.5 8,-160.5"/>
<text text-anchor="middle" x="65" y="-167.5" font-family="Helvetica,sans-Serif" font-size="10.00">fwGui::GuiBaseObject</text>
</a>
</g>
</g>
<!-- Node3&#45;&gt;Node2 -->
<g id="edge2" class="edge"><title>Node3&#45;&gt;Node2</title>
<path fill="none" stroke="midnightblue" d="M78.0682,-151.939C91.8576,-133.936 113.337,-105.893 126.201,-89.0982"/>
<polygon fill="midnightblue" stroke="midnightblue" points="74.9468,-150.258 71.6445,-160.325 80.5039,-154.515 74.9468,-150.258"/>
</g>
<!-- Node4 -->
<g id="node4" class="node"><title>Node4</title>
<g id="a_node4"><a xlink:href="classfwCore_1_1BaseObject.html" target="_top" xlink:title="Base class for all FW4SPL&#39;s classes. ">
<polygon fill="white" stroke="black" points="12.5,-218.5 12.5,-237.5 117.5,-237.5 117.5,-218.5 12.5,-218.5"/>
<text text-anchor="middle" x="65" y="-225.5" font-family="Helvetica,sans-Serif" font-size="10.00">fwCore::BaseObject</text>
</a>
</g>
</g>
<!-- Node4&#45;&gt;Node3 -->
<g id="edge3" class="edge"><title>Node4&#45;&gt;Node3</title>
<path fill="none" stroke="midnightblue" d="M65,-207.953C65,-198.287 65,-187.031 65,-179.505"/>
<polygon fill="midnightblue" stroke="midnightblue" points="61.5001,-208.25 65,-218.25 68.5001,-208.25 61.5001,-208.25"/>
</g>
<!-- Node5 -->
<g id="node5" class="node"><title>Node5</title>
<polygon fill="white" stroke="#bfbfbf" points="-0.5,-277 -0.5,-307 130.5,-307 130.5,-277 -0.5,-277"/>
<text text-anchor="start" x="7.5" y="-295" font-family="Helvetica,sans-Serif" font-size="10.00">std::enable_shared</text>
<text text-anchor="middle" x="65" y="-284" font-family="Helvetica,sans-Serif" font-size="10.00">_from_this&lt; BaseObject &gt;</text>
</g>
<!-- Node5&#45;&gt;Node4 -->
<g id="edge4" class="edge"><title>Node5&#45;&gt;Node4</title>
<path fill="none" stroke="midnightblue" d="M65,-266.871C65,-256.663 65,-245.408 65,-237.842"/>
<polygon fill="midnightblue" stroke="midnightblue" points="61.5001,-266.931 65,-276.931 68.5001,-266.931 61.5001,-266.931"/>
</g>
<!-- Node6 -->
<g id="node6" class="node"><title>Node6</title>
<polygon fill="white" stroke="#bfbfbf" points="140.5,-160.5 140.5,-179.5 181.5,-179.5 181.5,-160.5 140.5,-160.5"/>
<text text-anchor="middle" x="161" y="-167.5" font-family="Helvetica,sans-Serif" font-size="10.00">static</text>
</g>
<!-- Node6&#45;&gt;Node2 -->
<g id="edge5" class="edge"><title>Node6&#45;&gt;Node2</title>
<path fill="none" stroke="#9a32cd" stroke-dasharray="5,2" d="M156.259,-150.43C151.656,-132.401 144.77,-105.431 140.6,-89.0982"/>
<polygon fill="#9a32cd" stroke="#9a32cd" points="152.92,-151.502 158.785,-160.325 159.702,-149.77 152.92,-151.502"/>
<text text-anchor="middle" x="218" y="-133.5" font-family="Helvetica,sans-Serif" font-size="10.00"> SOFTWARE_UI</text>
<text text-anchor="middle" x="218" y="-122.5" font-family="Helvetica,sans-Serif" font-size="10.00">REGISTRY_KEY</text>
<text text-anchor="middle" x="218" y="-111.5" font-family="Helvetica,sans-Serif" font-size="10.00">DLG_DEFAULT_LOCATION</text>
</g>
</g>
</svg>
