<?xml version="1.0" encoding="UTF-8" standalone="no"?>
<!DOCTYPE svg PUBLIC "-//W3C//DTD SVG 1.1//EN"
 "http://www.w3.org/Graphics/SVG/1.1/DTD/svg11.dtd">
<!-- Generated by graphviz version 2.26.3 (20100126.1600)
 -->
<!-- Title: fwAtomsPatch::ISemanticPatch::addContext Pages: 1 -->
<svg width="340pt" height="320pt"
 viewBox="0.00 0.00 340.00 320.00" xmlns="http://www.w3.org/2000/svg" xmlns:xlink="http://www.w3.org/1999/xlink">
<g id="graph1" class="graph" transform="scale(1 1) rotate(0) translate(4 316)">
<title>fwAtomsPatch::ISemanticPatch::addContext</title>
<polygon fill="white" stroke="white" points="-4,5 -4,-316 337,-316 337,5 -4,5"/>
<!-- Node1 -->
<g id="node1" class="node"><title>Node1</title>
<polygon fill="#bfbfbf" stroke="black" points="0.5,-139 0.5,-173 157.5,-173 157.5,-139 0.5,-139"/>
<text text-anchor="start" x="8.5" y="-160" font-family="Helvetica,sans-Serif" font-size="10.00">fwAtomsPatch::ISemanticPatch</text>
<text text-anchor="middle" x="79" y="-147" font-family="Helvetica,sans-Serif" font-size="10.00">::addContext</text>
</g>
<!-- Node2 -->
<g id="node3" class="node"><title>Node2</title>
<a xlink:href="classfwMDSemanticPatch_1_1V1_1_1V2_1_1fwData_1_1Acquisition.html#a4b517ed024c42334fd2c9fb49fc93804" target="_top" xlink:title="Constructor. ">
<polygon fill="white" stroke="black" points="194,-264.5 194,-311.5 332,-311.5 332,-264.5 194,-264.5"/>
<text text-anchor="start" x="202" y="-298.5" font-family="Helvetica,sans-Serif" font-size="10.00">fwMDSemanticPatch::</text>
<text text-anchor="start" x="202" y="-285.5" font-family="Helvetica,sans-Serif" font-size="10.00">V1::V2::fwData::Acquisition</text>
<text text-anchor="middle" x="263" y="-272.5" font-family="Helvetica,sans-Serif" font-size="10.00">::Acquisition</text>
</a>
</g>
<!-- Node1&#45;&gt;Node2 -->
<g id="edge2" class="edge"><title>Node1&#45;&gt;Node2</title>
<path fill="none" stroke="midnightblue" d="M103.494,-180.495C125.781,-201.92 160.258,-232.969 194,-255 199.003,-258.267 204.38,-261.405 209.843,-264.358"/>
<polygon fill="midnightblue" stroke="midnightblue" points="105.751,-177.808 96.14,-173.349 100.872,-182.829 105.751,-177.808"/>
</g>
<!-- Node3 -->
<g id="node5" class="node"><title>Node3</title>
<a xlink:href="classfwMDSemanticPatch_1_1V1_1_1V2_1_1fwData_1_1Composite.html#a300265001b085b23c4b9fb79bd27e34e" target="_top" xlink:title="Constructor. ">
<polygon fill="white" stroke="black" points="194.5,-198.5 194.5,-245.5 331.5,-245.5 331.5,-198.5 194.5,-198.5"/>
<text text-anchor="start" x="202.5" y="-232.5" font-family="Helvetica,sans-Serif" font-size="10.00">fwMDSemanticPatch::</text>
<text text-anchor="start" x="202.5" y="-219.5" font-family="Helvetica,sans-Serif" font-size="10.00">V1::V2::fwData::Composite</text>
<text text-anchor="middle" x="263" y="-206.5" font-family="Helvetica,sans-Serif" font-size="10.00">::Composite</text>
</a>
</g>
<!-- Node1&#45;&gt;Node3 -->
<g id="edge4" class="edge"><title>Node1&#45;&gt;Node3</title>
<path fill="none" stroke="midnightblue" d="M136.434,-176.601C155.758,-183.533 177.463,-191.318 197.369,-198.459"/>
<polygon fill="midnightblue" stroke="midnightblue" points="137.458,-173.25 126.864,-173.168 135.095,-179.839 137.458,-173.25"/>
</g>
<!-- Node4 -->
<g id="node7" class="node"><title>Node4</title>
<a xlink:href="classfwMDSemanticPatch_1_1V2_1_1V03AGO_1_1fwData_1_1Image.html#a4c23b70b0078c898c28117cc987ca497" target="_top" xlink:title="Constructor. ">
<polygon fill="white" stroke="black" points="204.5,-132.5 204.5,-179.5 321.5,-179.5 321.5,-132.5 204.5,-132.5"/>
<text text-anchor="start" x="212.5" y="-166.5" font-family="Helvetica,sans-Serif" font-size="10.00">fwMDSemanticPatch::</text>
<text text-anchor="start" x="212.5" y="-153.5" font-family="Helvetica,sans-Serif" font-size="10.00">V2::V03AGO::fwData::</text>
<text text-anchor="middle" x="263" y="-140.5" font-family="Helvetica,sans-Serif" font-size="10.00">Image::Image</text>
</a>
</g>
<!-- Node1&#45;&gt;Node4 -->
<g id="edge6" class="edge"><title>Node1&#45;&gt;Node4</title>
<path fill="none" stroke="midnightblue" d="M167.572,-156C180.092,-156 192.697,-156 204.458,-156"/>
<polygon fill="midnightblue" stroke="midnightblue" points="167.566,-152.5 157.566,-156 167.566,-159.5 167.566,-152.5"/>
</g>
<!-- Node5 -->
<g id="node9" class="node"><title>Node5</title>
<a xlink:href="classfwMDSemanticPatch_1_1V1_1_1V2_1_1fwData_1_1Patient.html#af34d7593aee6534e995703883265583c" target="_top" xlink:title="Constructor. ">
<polygon fill="white" stroke="black" points="202.5,-66.5 202.5,-113.5 323.5,-113.5 323.5,-66.5 202.5,-66.5"/>
<text text-anchor="start" x="210.5" y="-100.5" font-family="Helvetica,sans-Serif" font-size="10.00">fwMDSemanticPatch::</text>
<text text-anchor="start" x="210.5" y="-87.5" font-family="Helvetica,sans-Serif" font-size="10.00">V1::V2::fwData::Patient</text>
<text text-anchor="middle" x="263" y="-74.5" font-family="Helvetica,sans-Serif" font-size="10.00">::Patient</text>
</a>
</g>
<!-- Node1&#45;&gt;Node5 -->
<g id="edge8" class="edge"><title>Node1&#45;&gt;Node5</title>
<path fill="none" stroke="midnightblue" d="M136.547,-135.358C157.409,-127.875 181.034,-119.401 202.17,-111.82"/>
<polygon fill="midnightblue" stroke="midnightblue" points="135.095,-132.161 126.864,-138.832 137.458,-138.75 135.095,-132.161"/>
</g>
<!-- Node6 -->
<g id="node11" class="node"><title>Node6</title>
<a xlink:href="classfwMDSemanticPatch_1_1V1_1_1V2_1_1fwData_1_1Study.html#a079a7919631b475dbe57149df70ecff8" target="_top" xlink:title="Constructor. ">
<polygon fill="white" stroke="black" points="205,-0.5 205,-47.5 321,-47.5 321,-0.5 205,-0.5"/>
<text text-anchor="start" x="213" y="-34.5" font-family="Helvetica,sans-Serif" font-size="10.00">fwMDSemanticPatch::</text>
<text text-anchor="start" x="213" y="-21.5" font-family="Helvetica,sans-Serif" font-size="10.00">V1::V2::fwData::Study</text>
<text text-anchor="middle" x="263" y="-8.5" font-family="Helvetica,sans-Serif" font-size="10.00">::Study</text>
</a>
</g>
<!-- Node1&#45;&gt;Node6 -->
<g id="edge10" class="edge"><title>Node1&#45;&gt;Node6</title>
<path fill="none" stroke="midnightblue" d="M103.494,-131.505C125.781,-110.08 160.258,-79.0313 194,-57 199.003,-53.7331 204.38,-50.5951 209.843,-47.6416"/>
<polygon fill="midnightblue" stroke="midnightblue" points="100.872,-129.171 96.14,-138.651 105.751,-134.192 100.872,-129.171"/>
</g>
</g>
</svg>
