<?xml version="1.0" encoding="UTF-8" standalone="no"?>
<!DOCTYPE svg PUBLIC "-//W3C//DTD SVG 1.1//EN"
 "http://www.w3.org/Graphics/SVG/1.1/DTD/svg11.dtd">
<!-- Generated by graphviz version 2.36.0 (20140111.2315)
 -->
<!-- Title: fwIO::IReader::getFiles Pages: 1 -->
<svg width="306pt" height="136pt"
 viewBox="0.00 0.00 306.00 136.00" xmlns="http://www.w3.org/2000/svg" xmlns:xlink="http://www.w3.org/1999/xlink">
<g id="graph0" class="graph" transform="scale(1 1) rotate(0) translate(4 132)">
<title>fwIO::IReader::getFiles</title>
<polygon fill="white" stroke="none" points="-4,4 -4,-132 302,-132 302,4 -4,4"/>
<!-- Node1 -->
<g id="node1" class="node"><title>Node1</title>
<polygon fill="#bfbfbf" stroke="black" points="0.5,-54.5 0.5,-73.5 119.5,-73.5 119.5,-54.5 0.5,-54.5"/>
<text text-anchor="middle" x="60" y="-61.5" font-family="Helvetica,sans-Serif" font-size="10.00">fwIO::IReader::getFiles</text>
</g>
<!-- Node2 -->
<g id="node2" class="node"><title>Node2</title>
<g id="a_node2"><a xlink:href="classioITK_1_1SInrSeriesDBReader.html#ac6fbb30c0116b633a344bcbda4adaa9b" target="_top" xlink:title="Reads inr files specified by user (configure or configureWithIHM) and pushes them into SeriesDB...">
<polygon fill="white" stroke="black" points="158.5,-98 158.5,-128 295.5,-128 295.5,-98 158.5,-98"/>
<text text-anchor="start" x="166.5" y="-116" font-family="Helvetica,sans-Serif" font-size="10.00">ioITK::SInrSeriesDBReader</text>
<text text-anchor="middle" x="227" y="-105" font-family="Helvetica,sans-Serif" font-size="10.00">::updating</text>
</a>
</g>
</g>
<!-- Node1&#45;&gt;Node2 -->
<g id="edge1" class="edge"><title>Node1&#45;&gt;Node2</title>
<path fill="none" stroke="midnightblue" d="M102.937,-76.4541C124.977,-82.9992 152.159,-91.0713 175.365,-97.963"/>
<polygon fill="midnightblue" stroke="midnightblue" points="103.788,-73.0557 93.2054,-73.564 101.795,-79.7661 103.788,-73.0557"/>
</g>
<!-- Node3 -->
<g id="node3" class="node"><title>Node3</title>
<g id="a_node3"><a xlink:href="classioVTK_1_1SModelSeriesReader.html#a5036b8aa51e398bea0a771ca1103e91f" target="_top" xlink:title="Updating method. ">
<polygon fill="white" stroke="black" points="156,-49 156,-79 298,-79 298,-49 156,-49"/>
<text text-anchor="start" x="164" y="-67" font-family="Helvetica,sans-Serif" font-size="10.00">ioVTK::SModelSeriesReader</text>
<text text-anchor="middle" x="227" y="-56" font-family="Helvetica,sans-Serif" font-size="10.00">::updating</text>
</a>
</g>
</g>
<!-- Node1&#45;&gt;Node3 -->
<g id="edge2" class="edge"><title>Node1&#45;&gt;Node3</title>
<path fill="none" stroke="midnightblue" d="M129.707,-64C138.388,-64 147.278,-64 155.978,-64"/>
<polygon fill="midnightblue" stroke="midnightblue" points="129.637,-60.5001 119.637,-64 129.637,-67.5001 129.637,-60.5001"/>
</g>
<!-- Node4 -->
<g id="node4" class="node"><title>Node4</title>
<g id="a_node4"><a xlink:href="classioVTK_1_1SSeriesDBReader.html#a59e6112ef3970343bed1a41f16c24e46" target="_top" xlink:title="Updating method. ">
<polygon fill="white" stroke="black" points="162,-0 162,-30 292,-30 292,-0 162,-0"/>
<text text-anchor="start" x="170" y="-18" font-family="Helvetica,sans-Serif" font-size="10.00">ioVTK::SSeriesDBReader</text>
<text text-anchor="middle" x="227" y="-7" font-family="Helvetica,sans-Serif" font-size="10.00">::updating</text>
</a>
</g>
</g>
<!-- Node1&#45;&gt;Node4 -->
<g id="edge3" class="edge"><title>Node1&#45;&gt;Node4</title>
<path fill="none" stroke="midnightblue" d="M102.937,-51.5459C124.977,-45.0008 152.159,-36.9287 175.365,-30.037"/>
<polygon fill="midnightblue" stroke="midnightblue" points="101.795,-48.2339 93.2054,-54.436 103.788,-54.9443 101.795,-48.2339"/>
</g>
</g>
</svg>
