<?xml version="1.0" encoding="UTF-8" standalone="no"?>
<!DOCTYPE svg PUBLIC "-//W3C//DTD SVG 1.1//EN"
 "http://www.w3.org/Graphics/SVG/1.1/DTD/svg11.dtd">
<!-- Generated by graphviz version 2.36.0 (20140111.2315)
 -->
<!-- Title: ioVTK::SSeriesDBReader::configuring Pages: 1 -->
<!--zoomable 191 -->
<svg id="main" version="1.1" xmlns="http://www.w3.org/2000/svg" xmlns:xlink="http://www.w3.org/1999/xlink" xml:space="preserve" onload="init(evt)">
<style type="text/css"><![CDATA[
.edge:hover path { stroke: red; }
.edge:hover polygon { stroke: red; fill: red; }
]]></style>
<script type="text/javascript"><![CDATA[
var edges = document.getElementsByTagName('g');
if (edges && edges.length) {
  for (var i=0;i<edges.length;i++) {
    if (edges[i].id.substr(0,4)=='edge') {
      edges[i].setAttribute('class','edge');
    }
  }
}
]]></script>
        <defs>
                <circle id="rim" cx="0" cy="0" r="7"/>
                <circle id="rim2" cx="0" cy="0" r="3.5"/>
                <g id="zoomPlus">
                        <use xlink:href="#rim" fill="#404040">
                                <set attributeName="fill" to="#808080" begin="zoomplus.mouseover" end="zoomplus.mouseout"/>
                        </use>
                        <path d="M-4,0h8M0,-4v8" fill="none" stroke="white" stroke-width="1.5" pointer-events="none"/>
                </g>
                <g id="zoomMin">
                        <use xlink:href="#rim" fill="#404040">
                                <set attributeName="fill" to="#808080" begin="zoomminus.mouseover" end="zoomminus.mouseout"/>
                        </use>
                        <path d="M-4,0h8" fill="none" stroke="white" stroke-width="1.5" pointer-events="none"/>
                </g>
                <g id="dirArrow">
                        <path fill="none" stroke="white" stroke-width="1.5" d="M0,-3.0v7 M-2.5,-0.5L0,-3.0L2.5,-0.5"/>
                </g>
               <g id="resetDef">
                       <use xlink:href="#rim2" fill="#404040">
                               <set attributeName="fill" to="#808080" begin="reset.mouseover" end="reset.mouseout"/>
                       </use>
               </g>
        </defs>

<script type="text/javascript">
var viewWidth = 654;
var viewHeight = 191;
var sectionId = 'dynsection-3';
</script>
<script xlink:href="svgpan.js"/>
<svg id="graph" class="graph">
<g id="viewport">
<title>ioVTK::SSeriesDBReader::configuring</title>
<polygon fill="white" stroke="none" points="-4,4 -4,-187 650,-187 650,4 -4,4"/>
<!-- Node1 -->
<g id="node1" class="node"><title>Node1</title>
<polygon fill="#bfbfbf" stroke="black" points="0,-71 0,-101 130,-101 130,-71 0,-71"/>
<text text-anchor="start" x="8" y="-89" font-family="Helvetica,sans-Serif" font-size="10.00">ioVTK::SSeriesDBReader</text>
<text text-anchor="middle" x="65" y="-78" font-family="Helvetica,sans-Serif" font-size="10.00">::configuring</text>
</g>
<!-- Node2 -->
<g id="node2" class="node"><title>Node2</title>
<g id="a_node2"><a xlink:href="classfwIO_1_1IReader.html#ad80f423d4b9760b528827c37c4c2e4af" target="_top" xlink:title="This method proposes to parse xml configuration to retrieve file/files/folder paths. ">
<polygon fill="white" stroke="black" points="166.5,-76.5 166.5,-95.5 297.5,-95.5 297.5,-76.5 166.5,-76.5"/>
<text text-anchor="middle" x="232" y="-83.5" font-family="Helvetica,sans-Serif" font-size="10.00">fwIO::IReader::configuring</text>
</a>
</g>
</g>
<!-- Node1&#45;&gt;Node2 -->
<g id="edge1" class="edge"><title>Node1&#45;&gt;Node2</title>
<path fill="none" stroke="midnightblue" d="M130.266,-86C138.786,-86 147.579,-86 156.256,-86"/>
<polygon fill="midnightblue" stroke="midnightblue" points="156.367,-89.5001 166.367,-86 156.367,-82.5001 156.367,-89.5001"/>
</g>
<!-- Node3 -->
<g id="node3" class="node"><title>Node3</title>
<g id="a_node3"><a xlink:href="classfwServices_1_1IService.html#a25c0048bcdd35e4453d3d418db22b78f" target="_top" xlink:title="Return the configuration, in an boost property tree. ">
<polygon fill="white" stroke="black" points="343.5,-153 343.5,-183 450.5,-183 450.5,-153 343.5,-153"/>
<text text-anchor="start" x="351.5" y="-171" font-family="Helvetica,sans-Serif" font-size="10.00">fwServices::IService</text>
<text text-anchor="middle" x="397" y="-160" font-family="Helvetica,sans-Serif" font-size="10.00">::getConfigTree</text>
</a>
</g>
</g>
<!-- Node2&#45;&gt;Node3 -->
<g id="edge2" class="edge"><title>Node2&#45;&gt;Node3</title>
<path fill="none" stroke="midnightblue" d="M251.177,-95.5303C271.344,-106.064 304.885,-123.464 334,-138 340.767,-141.378 347.975,-144.919 354.992,-148.335"/>
<polygon fill="midnightblue" stroke="midnightblue" points="353.86,-151.675 364.385,-152.889 356.914,-145.377 353.86,-151.675"/>
</g>
<!-- Node5 -->
<g id="node5" class="node"><title>Node5</title>
<g id="a_node5"><a xlink:href="classfwIO_1_1IReader.html#a43c81518d1a068b245d853f71cb406f0" target="_top" xlink:title="This method must be implemented by concrete service readers that use path file system to read data...">
<polygon fill="white" stroke="black" points="496,-57.5 496,-76.5 646,-76.5 646,-57.5 496,-57.5"/>
<text text-anchor="middle" x="571" y="-64.5" font-family="Helvetica,sans-Serif" font-size="10.00">fwIO::IReader::getIOPathType</text>
</a>
</g>
</g>
<!-- Node2&#45;&gt;Node5 -->
<g id="edge4" class="edge"><title>Node2&#45;&gt;Node5</title>
<path fill="none" stroke="midnightblue" d="M273.849,-95.5069C319.49,-104.72 395.452,-115.835 460,-105 487.82,-100.33 518.013,-89.4513 539.717,-80.525"/>
<polygon fill="midnightblue" stroke="midnightblue" points="541.196,-83.6996 549.052,-76.5904 538.477,-77.2491 541.196,-83.6996"/>
</g>
<!-- Node6 -->
<g id="node6" class="node"><title>Node6</title>
<g id="a_node6"><a xlink:href="classfwIO_1_1IReader.html#aee6fcc4735a644ab4aff652317b8aea7" target="_top" xlink:title="Sets file path. ">
<polygon fill="white" stroke="black" points="340.5,-76.5 340.5,-95.5 453.5,-95.5 453.5,-76.5 340.5,-76.5"/>
<text text-anchor="middle" x="397" y="-83.5" font-family="Helvetica,sans-Serif" font-size="10.00">fwIO::IReader::setFile</text>
</a>
</g>
</g>
<!-- Node2&#45;&gt;Node6 -->
<g id="edge5" class="edge"><title>Node2&#45;&gt;Node6</title>
<path fill="none" stroke="midnightblue" d="M297.89,-86C308.52,-86 319.544,-86 330.196,-86"/>
<polygon fill="midnightblue" stroke="midnightblue" points="330.27,-89.5001 340.27,-86 330.27,-82.5001 330.27,-89.5001"/>
</g>
<!-- Node7 -->
<g id="node7" class="node"><title>Node7</title>
<g id="a_node7"><a xlink:href="classfwIO_1_1IReader.html#ae0257a1f040382abb71da2481d1411b8" target="_top" xlink:title="Sets file paths. ">
<polygon fill="white" stroke="black" points="337.5,-38.5 337.5,-57.5 456.5,-57.5 456.5,-38.5 337.5,-38.5"/>
<text text-anchor="middle" x="397" y="-45.5" font-family="Helvetica,sans-Serif" font-size="10.00">fwIO::IReader::setFiles</text>
</a>
</g>
</g>
<!-- Node2&#45;&gt;Node7 -->
<g id="edge7" class="edge"><title>Node2&#45;&gt;Node7</title>
<path fill="none" stroke="midnightblue" d="M274.132,-76.411C295.738,-71.3739 322.409,-65.1562 345.286,-59.8229"/>
<polygon fill="midnightblue" stroke="midnightblue" points="346.22,-63.1991 355.164,-57.5201 344.63,-56.3819 346.22,-63.1991"/>
</g>
<!-- Node8 -->
<g id="node8" class="node"><title>Node8</title>
<g id="a_node8"><a xlink:href="classfwIO_1_1IReader.html#a96c435e1ac3db3eb513f9f2667ca497a" target="_top" xlink:title="Sets folder path. ">
<polygon fill="white" stroke="black" points="334.5,-0.5 334.5,-19.5 459.5,-19.5 459.5,-0.5 334.5,-0.5"/>
<text text-anchor="middle" x="397" y="-7.5" font-family="Helvetica,sans-Serif" font-size="10.00">fwIO::IReader::setFolder</text>
</a>
</g>
</g>
<!-- Node2&#45;&gt;Node8 -->
<g id="edge9" class="edge"><title>Node2&#45;&gt;Node8</title>
<path fill="none" stroke="midnightblue" d="M247.541,-76.4565C266.718,-64.1878 301.808,-42.8227 334,-29 339.172,-26.7791 344.689,-24.7009 350.219,-22.7944"/>
<polygon fill="midnightblue" stroke="midnightblue" points="351.7,-25.9924 360.115,-19.5545 349.522,-19.3399 351.7,-25.9924"/>
</g>
<!-- Node4 -->
<g id="node4" class="node"><title>Node4</title>
<g id="a_node4"><a xlink:href="classfwServices_1_1IService.html#a21ea949603d87785b9a62522d98e2d8c" target="_top" xlink:title="Return the configuration, in an xml format read using runtime library. ">
<polygon fill="white" stroke="black" points="517.5,-153 517.5,-183 624.5,-183 624.5,-153 517.5,-153"/>
<text text-anchor="start" x="525.5" y="-171" font-family="Helvetica,sans-Serif" font-size="10.00">fwServices::IService</text>
<text text-anchor="middle" x="571" y="-160" font-family="Helvetica,sans-Serif" font-size="10.00">::getConfiguration</text>
</a>
</g>
</g>
<!-- Node3&#45;&gt;Node4 -->
<g id="edge3" class="edge"><title>Node3&#45;&gt;Node4</title>
<path fill="none" stroke="midnightblue" d="M450.54,-168C468.462,-168 488.68,-168 507.318,-168"/>
<polygon fill="midnightblue" stroke="midnightblue" points="507.485,-171.5 517.485,-168 507.485,-164.5 507.485,-171.5"/>
</g>
<!-- Node6&#45;&gt;Node5 -->
<g id="edge6" class="edge"><title>Node6&#45;&gt;Node5</title>
<path fill="none" stroke="midnightblue" d="M453.843,-79.8312C464.132,-78.6947 475.081,-77.4853 485.986,-76.2806"/>
<polygon fill="midnightblue" stroke="midnightblue" points="486.414,-79.7547 495.97,-75.1778 485.646,-72.797 486.414,-79.7547"/>
</g>
<!-- Node7&#45;&gt;Node5 -->
<g id="edge8" class="edge"><title>Node7&#45;&gt;Node5</title>
<path fill="none" stroke="midnightblue" d="M456.712,-54.4856C466.029,-55.5148 475.823,-56.5968 485.59,-57.6757"/>
<polygon fill="midnightblue" stroke="midnightblue" points="485.413,-61.1773 495.737,-58.7966 486.182,-54.2197 485.413,-61.1773"/>
</g>
<!-- Node8&#45;&gt;Node5 -->
<g id="edge10" class="edge"><title>Node8&#45;&gt;Node5</title>
<path fill="none" stroke="midnightblue" d="M429.928,-19.5489C439.609,-22.5078 450.259,-25.8261 460,-29 484.544,-36.9976 511.989,-46.4775 533.325,-53.968"/>
<polygon fill="midnightblue" stroke="midnightblue" points="532.372,-57.3429 542.966,-57.3634 534.697,-50.7404 532.372,-57.3429"/>
</g>
</g>
</svg>
        <g id="navigator" transform="translate(0 0)" fill="#404254">
                <rect fill="#f2f5e9" fill-opacity="0.5" stroke="#606060" stroke-width=".5" x="0" y="0" width="60" height="60"/>
                <use id="zoomplus" xlink:href="#zoomPlus" x="17" y="9" onmousedown="handleZoom(evt,'in')"/>
                <use id="zoomminus" xlink:href="#zoomMin" x="42" y="9" onmousedown="handleZoom(evt,'out')"/>
                <use id="reset" xlink:href="#resetDef" x="30" y="36" onmousedown="handleReset()"/>
                <g id="arrowUp" xlink:href="#dirArrow" transform="translate(30 24)" onmousedown="handlePan(0,-1)">
                  <use xlink:href="#rim" fill="#404040">
                        <set attributeName="fill" to="#808080" begin="arrowUp.mouseover" end="arrowUp.mouseout"/>
                  </use>
                  <path fill="none" stroke="white" stroke-width="1.5" d="M0,-3.0v7 M-2.5,-0.5L0,-3.0L2.5,-0.5"/>
                </g>
                <g id="arrowRight" xlink:href="#dirArrow" transform="rotate(90) translate(36 -43)" onmousedown="handlePan(1,0)">
                  <use xlink:href="#rim" fill="#404040">
                        <set attributeName="fill" to="#808080" begin="arrowRight.mouseover" end="arrowRight.mouseout"/>
                  </use>
                  <path fill="none" stroke="white" stroke-width="1.5" d="M0,-3.0v7 M-2.5,-0.5L0,-3.0L2.5,-0.5"/>
                </g>
                <g id="arrowDown" xlink:href="#dirArrow" transform="rotate(180) translate(-30 -48)" onmousedown="handlePan(0,1)">
                  <use xlink:href="#rim" fill="#404040">
                        <set attributeName="fill" to="#808080" begin="arrowDown.mouseover" end="arrowDown.mouseout"/>
                  </use>
                  <path fill="none" stroke="white" stroke-width="1.5" d="M0,-3.0v7 M-2.5,-0.5L0,-3.0L2.5,-0.5"/>
                </g>
                <g id="arrowLeft" xlink:href="#dirArrow" transform="rotate(270) translate(-36 17)" onmousedown="handlePan(-1,0)">
                  <use xlink:href="#rim" fill="#404040">
                        <set attributeName="fill" to="#808080" begin="arrowLeft.mouseover" end="arrowLeft.mouseout"/>
                  </use>
                  <path fill="none" stroke="white" stroke-width="1.5" d="M0,-3.0v7 M-2.5,-0.5L0,-3.0L2.5,-0.5"/>
                </g>
        </g>
        <svg viewBox="0 0 15 15" width="100%" height="30px" preserveAspectRatio="xMaxYMin meet">
         <g id="arrow_out" transform="scale(0.3 0.3)">
          <a xlink:href="classioVTK_1_1SSeriesDBReader_a51915e9ed974143f3cc7f4133a5319de_cgraph_org.svg" target="_base">
           <rect id="button" ry="5" rx="5" y="6" x="6" height="38" width="38"
                fill="#f2f5e9" fill-opacity="0.5" stroke="#606060" stroke-width="1.0"/>
           <path id="arrow"
             d="M 11.500037,31.436501 C 11.940474,20.09759 22.043105,11.32322 32.158766,21.979434 L 37.068811,17.246167 C 37.068811,17.246167 37.088388,32 37.088388,32 L 22.160133,31.978069 C 22.160133,31.978069 26.997745,27.140456 26.997745,27.140456 C 18.528582,18.264221 13.291696,25.230495 11.500037,31.436501 z"
             style="fill:#404040;"/>
          </a>
         </g>
        </svg>
</svg>
