<?xml version="1.0" encoding="UTF-8" standalone="no"?>
<!DOCTYPE svg PUBLIC "-//W3C//DTD SVG 1.1//EN"
 "http://www.w3.org/Graphics/SVG/1.1/DTD/svg11.dtd">
<!-- Generated by graphviz version 2.26.3 (20100126.1600)
 -->
<!-- Title: fwAtoms::Boolean::New Pages: 1 -->
<!--zoomable 269 -->
<svg id="main" version="1.1" xmlns="http://www.w3.org/2000/svg" xmlns:xlink="http://www.w3.org/1999/xlink" xml:space="preserve" onload="init(evt)">
<style type="text/css"><![CDATA[
.edge:hover path { stroke: red; }
.edge:hover polygon { stroke: red; fill: red; }
]]></style>
<script type="text/javascript"><![CDATA[
var edges = document.getElementsByTagName('g');
if (edges && edges.length) {
  for (var i=0;i<edges.length;i++) {
    if (edges[i].id.substr(0,4)=='edge') {
      edges[i].setAttribute('class','edge');
    }
  }
}
]]></script>
        <defs>
                <circle id="rim" cx="0" cy="0" r="7"/>
                <circle id="rim2" cx="0" cy="0" r="3.5"/>
                <g id="zoomPlus">
                        <use xlink:href="#rim" fill="#404040">
                                <set attributeName="fill" to="#808080" begin="zoomplus.mouseover" end="zoomplus.mouseout"/>
                        </use>
                        <path d="M-4,0h8M0,-4v8" fill="none" stroke="white" stroke-width="1.5" pointer-events="none"/>
                </g>
                <g id="zoomMin">
                        <use xlink:href="#rim" fill="#404040">
                                <set attributeName="fill" to="#808080" begin="zoomminus.mouseover" end="zoomminus.mouseout"/>
                        </use>
                        <path d="M-4,0h8" fill="none" stroke="white" stroke-width="1.5" pointer-events="none"/>
                </g>
                <g id="dirArrow">
                        <path fill="none" stroke="white" stroke-width="1.5" d="M0,-3.0v7 M-2.5,-0.5L0,-3.0L2.5,-0.5"/>
                </g>
               <g id="resetDef">
                       <use xlink:href="#rim2" fill="#404040">
                               <set attributeName="fill" to="#808080" begin="reset.mouseover" end="reset.mouseout"/>
                       </use>
               </g>
        </defs>

<script type="text/javascript">
var viewWidth = 704;
var viewHeight = 269;
var sectionId = 'dynsection-2';
</script>
<script xlink:href="svgpan.js"/>
<svg id="graph" class="graph">
<g id="viewport">
<title>fwAtoms::Boolean::New</title>
<polygon fill="white" stroke="white" points="-4,5 -4,-265 701,-265 701,5 -4,5"/>
<!-- Node1 -->
<g id="node1" class="node"><title>Node1</title>
<polygon fill="#bfbfbf" stroke="black" points="0.5,-153.5 0.5,-174.5 123.5,-174.5 123.5,-153.5 0.5,-153.5"/>
<text text-anchor="middle" x="62" y="-161.5" font-family="Helvetica,sans-Serif" font-size="10.00">fwAtoms::Boolean::New</text>
</g>
<!-- Node2 -->
<g id="node3" class="node"><title>Node2</title>
<a xlink:href="classfwStructuralPatch_1_1fwData_1_1Material_1_1V2ToV3.html#aa9d4d492cf3e9df85226696f08256402" target="_top" xlink:title="Applies patch. ">
<polygon fill="white" stroke="black" points="171,-213.5 171,-260.5 301,-260.5 301,-213.5 171,-213.5"/>
<text text-anchor="start" x="179" y="-247.5" font-family="Helvetica,sans-Serif" font-size="10.00">fwStructuralPatch::</text>
<text text-anchor="start" x="179" y="-234.5" font-family="Helvetica,sans-Serif" font-size="10.00">fwData::Material::V2ToV3</text>
<text text-anchor="middle" x="236" y="-221.5" font-family="Helvetica,sans-Serif" font-size="10.00">::apply</text>
</a>
</g>
<!-- Node1&#45;&gt;Node2 -->
<g id="edge2" class="edge"><title>Node1&#45;&gt;Node2</title>
<path fill="none" stroke="midnightblue" d="M96.6068,-178.519C120.345,-188.478 152.376,-201.916 179.747,-213.4"/>
<polygon fill="midnightblue" stroke="midnightblue" points="97.8765,-175.256 87.3011,-174.615 95.1684,-181.711 97.8765,-175.256"/>
</g>
<!-- Node3 -->
<g id="node5" class="node"><title>Node3</title>
<a xlink:href="classfwAtoms_1_1Boolean.html#a3ce882a6768054b5fd2a3c8cfcf4c506" target="_top" xlink:title="Returns a clone object. ">
<polygon fill="white" stroke="black" points="173,-173.5 173,-194.5 299,-194.5 299,-173.5 173,-173.5"/>
<text text-anchor="middle" x="236" y="-181.5" font-family="Helvetica,sans-Serif" font-size="10.00">fwAtoms::Boolean::clone</text>
</a>
</g>
<!-- Node1&#45;&gt;Node3 -->
<g id="edge4" class="edge"><title>Node1&#45;&gt;Node3</title>
<path fill="none" stroke="midnightblue" d="M134.053,-172.282C146.942,-173.763 160.282,-175.297 172.896,-176.747"/>
<polygon fill="midnightblue" stroke="midnightblue" points="134.17,-168.772 123.836,-171.108 133.371,-175.727 134.17,-168.772"/>
</g>
<!-- Node4 -->
<g id="node7" class="node"><title>Node4</title>
<a xlink:href="classfwAtoms_1_1Boolean.html#a543c61c58581d50f16b16301aa5f44f5" target="_top" xlink:title="Construct an object storing a bool value. ">
<polygon fill="white" stroke="black" points="174.5,-133.5 174.5,-154.5 297.5,-154.5 297.5,-133.5 174.5,-133.5"/>
<text text-anchor="middle" x="236" y="-141.5" font-family="Helvetica,sans-Serif" font-size="10.00">fwAtoms::Boolean::New</text>
</a>
</g>
<!-- Node1&#45;&gt;Node4 -->
<g id="edge6" class="edge"><title>Node1&#45;&gt;Node4</title>
<path fill="none" stroke="midnightblue" d="M133.976,-155.727C147.39,-154.185 161.295,-152.587 174.363,-151.085"/>
<polygon fill="midnightblue" stroke="midnightblue" points="133.371,-152.273 123.836,-156.892 134.17,-159.228 133.371,-152.273"/>
</g>
<!-- Node5 -->
<g id="node9" class="node"><title>Node5</title>
<a xlink:href="classfwAtomsPatch_1_1patcher_1_1DefaultPatcher.html#a6c0626726a1a7ea6d86e93509886bb8d" target="_top" xlink:title="Process atom base. ">
<polygon fill="white" stroke="black" points="160.5,-81 160.5,-115 311.5,-115 311.5,-81 160.5,-81"/>
<text text-anchor="start" x="168.5" y="-102" font-family="Helvetica,sans-Serif" font-size="10.00">fwAtomsPatch::patcher</text>
<text text-anchor="middle" x="236" y="-89" font-family="Helvetica,sans-Serif" font-size="10.00">::DefaultPatcher::processBase</text>
</a>
</g>
<!-- Node1&#45;&gt;Node5 -->
<g id="edge8" class="edge"><title>Node1&#45;&gt;Node5</title>
<path fill="none" stroke="midnightblue" d="M96.1285,-149.503C114.878,-141.682 138.606,-132.018 160,-124 167.966,-121.015 176.45,-117.976 184.754,-115.078"/>
<polygon fill="midnightblue" stroke="midnightblue" points="94.6862,-146.313 86.8165,-153.406 97.3922,-152.768 94.6862,-146.313"/>
</g>
<!-- Node6 -->
<g id="node11" class="node"><title>Node6</title>
<a xlink:href="classfwAtomsPatch_1_1patcher_1_1DefaultPatcher.html#a513ee60f7c2943947f77d71214a3577b" target="_top" xlink:title="Process structural atom object. ">
<polygon fill="white" stroke="black" points="351,-170.5 351,-217.5 521,-217.5 521,-170.5 351,-170.5"/>
<text text-anchor="start" x="359" y="-204.5" font-family="Helvetica,sans-Serif" font-size="10.00">fwAtomsPatch::patcher</text>
<text text-anchor="start" x="359" y="-191.5" font-family="Helvetica,sans-Serif" font-size="10.00">::DefaultPatcher::processStructural</text>
<text text-anchor="middle" x="436" y="-178.5" font-family="Helvetica,sans-Serif" font-size="10.00">Object</text>
</a>
</g>
<!-- Node5&#45;&gt;Node6 -->
<g id="edge10" class="edge"><title>Node5&#45;&gt;Node6</title>
<path fill="none" stroke="midnightblue" d="M319.753,-120.904C331.122,-131.277 331.946,-141.506 348,-152 359.199,-159.32 372.253,-165.337 384.824,-170.43"/>
<polygon fill="midnightblue" stroke="midnightblue" points="321.734,-118.014 311.646,-114.777 317.513,-123.598 321.734,-118.014"/>
</g>
<!-- Node8 -->
<g id="node16" class="node"><title>Node8</title>
<a xlink:href="classfwAtomsPatch_1_1patcher_1_1DefaultPatcher.html#a33dbe235559ece16106c531558646257" target="_top" xlink:title="Process contextual atom object. ">
<polygon fill="white" stroke="black" points="348,-104.5 348,-151.5 524,-151.5 524,-104.5 348,-104.5"/>
<text text-anchor="start" x="356" y="-138.5" font-family="Helvetica,sans-Serif" font-size="10.00">fwAtomsPatch::patcher</text>
<text text-anchor="start" x="356" y="-125.5" font-family="Helvetica,sans-Serif" font-size="10.00">::DefaultPatcher::processContextual</text>
<text text-anchor="middle" x="436" y="-112.5" font-family="Helvetica,sans-Serif" font-size="10.00">Object</text>
</a>
</g>
<!-- Node5&#45;&gt;Node8 -->
<g id="edge16" class="edge"><title>Node5&#45;&gt;Node8</title>
<path fill="none" stroke="midnightblue" d="M321.697,-104.166C330.36,-105.39 339.169,-106.705 347.856,-108.071"/>
<polygon fill="midnightblue" stroke="midnightblue" points="321.996,-100.674 311.611,-102.773 321.039,-107.609 321.996,-100.674"/>
</g>
<!-- Node9 -->
<g id="node20" class="node"><title>Node9</title>
<a xlink:href="classfwAtomsPatch_1_1patcher_1_1DefaultPatcher.html#ad8ced6b1e5871b12510de5d93de38e7c" target="_top" xlink:title="Process atom mapping. ">
<polygon fill="white" stroke="black" points="353.5,-52 353.5,-86 518.5,-86 518.5,-52 353.5,-52"/>
<text text-anchor="start" x="361.5" y="-73" font-family="Helvetica,sans-Serif" font-size="10.00">fwAtomsPatch::patcher</text>
<text text-anchor="middle" x="436" y="-60" font-family="Helvetica,sans-Serif" font-size="10.00">::DefaultPatcher::processMapping</text>
</a>
</g>
<!-- Node5&#45;&gt;Node9 -->
<g id="edge22" class="edge"><title>Node5&#45;&gt;Node9</title>
<path fill="none" stroke="midnightblue" d="M318.479,-79.3835C329.959,-77.5959 341.758,-75.8841 353.244,-74.3397"/>
<polygon fill="midnightblue" stroke="midnightblue" points="317.814,-75.9452 308.487,-80.9717 318.913,-82.8584 317.814,-75.9452"/>
</g>
<!-- Node10 -->
<g id="node23" class="node"><title>Node10</title>
<a xlink:href="classfwAtomsPatch_1_1patcher_1_1DefaultPatcher.html#a81996b6b891e6815401d5eebeb0121be" target="_top" xlink:title="Process atom sequence. ">
<polygon fill="white" stroke="black" points="350,-0 350,-34 522,-34 522,-0 350,-0"/>
<text text-anchor="start" x="358" y="-21" font-family="Helvetica,sans-Serif" font-size="10.00">fwAtomsPatch::patcher</text>
<text text-anchor="middle" x="436" y="-8" font-family="Helvetica,sans-Serif" font-size="10.00">::DefaultPatcher::processSequence</text>
</a>
</g>
<!-- Node5&#45;&gt;Node10 -->
<g id="edge26" class="edge"><title>Node5&#45;&gt;Node10</title>
<path fill="none" stroke="midnightblue" d="M263.589,-75.5135C285.906,-61.9387 318.378,-45.5535 348,-34 348.594,-33.7685 349.19,-33.5378 349.79,-33.3081"/>
<polygon fill="midnightblue" stroke="midnightblue" points="261.569,-72.6496 254.978,-80.9443 265.303,-78.5705 261.569,-72.6496"/>
</g>
<!-- Node6&#45;&gt;Node5 -->
<g id="edge14" class="edge"><title>Node6&#45;&gt;Node5</title>
<path fill="none" stroke="midnightblue" d="M342.541,-165.573C329.08,-153.83 328.508,-143.45 312,-133 299.982,-125.392 285.475,-119.719 272.371,-115.078"/>
<polygon fill="midnightblue" stroke="midnightblue" points="340.807,-168.648 350.907,-171.846 345.006,-163.047 340.807,-168.648"/>
</g>
<!-- Node7 -->
<g id="node13" class="node"><title>Node7</title>
<a xlink:href="classfwAtomsPatch_1_1patcher_1_1DefaultPatcher.html#aafb56ac01f01452173281d95c85d7ff7" target="_top" xlink:title="Apply the patch to the specified object. ">
<polygon fill="white" stroke="black" points="560.5,-137.5 560.5,-184.5 695.5,-184.5 695.5,-137.5 560.5,-137.5"/>
<text text-anchor="start" x="568.5" y="-171.5" font-family="Helvetica,sans-Serif" font-size="10.00">fwAtomsPatch::patcher</text>
<text text-anchor="start" x="568.5" y="-158.5" font-family="Helvetica,sans-Serif" font-size="10.00">::DefaultPatcher::transform</text>
<text text-anchor="middle" x="628" y="-145.5" font-family="Helvetica,sans-Serif" font-size="10.00">Object</text>
</a>
</g>
<!-- Node6&#45;&gt;Node7 -->
<g id="edge12" class="edge"><title>Node6&#45;&gt;Node7</title>
<path fill="none" stroke="midnightblue" d="M530.944,-177.682C540.856,-175.978 550.783,-174.272 560.302,-172.636"/>
<polygon fill="midnightblue" stroke="midnightblue" points="530.315,-174.238 521.052,-179.382 531.501,-181.137 530.315,-174.238"/>
</g>
<!-- Node8&#45;&gt;Node5 -->
<g id="edge20" class="edge"><title>Node8&#45;&gt;Node5</title>
<path fill="none" stroke="midnightblue" d="M337.559,-119.983C326.982,-118.406 316.381,-116.726 306.231,-115.012"/>
<polygon fill="midnightblue" stroke="midnightblue" points="337.276,-123.479 347.677,-121.461 338.288,-116.552 337.276,-123.479"/>
</g>
<!-- Node8&#45;&gt;Node7 -->
<g id="edge18" class="edge"><title>Node8&#45;&gt;Node7</title>
<path fill="none" stroke="midnightblue" d="M534.101,-144.861C542.936,-146.38 551.747,-147.894 560.234,-149.353"/>
<polygon fill="midnightblue" stroke="midnightblue" points="534.581,-141.392 524.133,-143.148 533.395,-148.291 534.581,-141.392"/>
</g>
<!-- Node9&#45;&gt;Node5 -->
<g id="edge24" class="edge"><title>Node9&#45;&gt;Node5</title>
<path fill="none" stroke="midnightblue" d="M353.571,-87.6088C339.679,-89.7723 325.319,-91.825 311.611,-93.6047"/>
<polygon fill="midnightblue" stroke="midnightblue" points="354.261,-91.043 363.588,-86.0161 353.162,-84.1298 354.261,-91.043"/>
</g>
<!-- Node10&#45;&gt;Node5 -->
<g id="edge28" class="edge"><title>Node10&#45;&gt;Node5</title>
<path fill="none" stroke="midnightblue" d="M390.982,-37.2869C377.038,-41.7618 361.734,-46.6432 348,-52 326.204,-60.5012 302.864,-71.6183 283.163,-80.9554"/>
<polygon fill="midnightblue" stroke="midnightblue" points="392.413,-40.503 400.853,-34.0994 390.261,-33.8417 392.413,-40.503"/>
</g>
</g>
</svg>
        <g id="navigator" transform="translate(0 0)" fill="#404254">
                <rect fill="#f2f5e9" fill-opacity="0.5" stroke="#606060" stroke-width=".5" x="0" y="0" width="60" height="60"/>
                <use id="zoomplus" xlink:href="#zoomPlus" x="17" y="9" onmousedown="handleZoom(evt,'in')"/>
                <use id="zoomminus" xlink:href="#zoomMin" x="42" y="9" onmousedown="handleZoom(evt,'out')"/>
                <use id="reset" xlink:href="#resetDef" x="30" y="36" onmousedown="handleReset()"/>
                <g id="arrowUp" xlink:href="#dirArrow" transform="translate(30 24)" onmousedown="handlePan(0,-1)">
                  <use xlink:href="#rim" fill="#404040">
                        <set attributeName="fill" to="#808080" begin="arrowUp.mouseover" end="arrowUp.mouseout"/>
                  </use>
                  <path fill="none" stroke="white" stroke-width="1.5" d="M0,-3.0v7 M-2.5,-0.5L0,-3.0L2.5,-0.5"/>
                </g>
                <g id="arrowRight" xlink:href="#dirArrow" transform="rotate(90) translate(36 -43)" onmousedown="handlePan(1,0)">
                  <use xlink:href="#rim" fill="#404040">
                        <set attributeName="fill" to="#808080" begin="arrowRight.mouseover" end="arrowRight.mouseout"/>
                  </use>
                  <path fill="none" stroke="white" stroke-width="1.5" d="M0,-3.0v7 M-2.5,-0.5L0,-3.0L2.5,-0.5"/>
                </g>
                <g id="arrowDown" xlink:href="#dirArrow" transform="rotate(180) translate(-30 -48)" onmousedown="handlePan(0,1)">
                  <use xlink:href="#rim" fill="#404040">
                        <set attributeName="fill" to="#808080" begin="arrowDown.mouseover" end="arrowDown.mouseout"/>
                  </use>
                  <path fill="none" stroke="white" stroke-width="1.5" d="M0,-3.0v7 M-2.5,-0.5L0,-3.0L2.5,-0.5"/>
                </g>
                <g id="arrowLeft" xlink:href="#dirArrow" transform="rotate(270) translate(-36 17)" onmousedown="handlePan(-1,0)">
                  <use xlink:href="#rim" fill="#404040">
                        <set attributeName="fill" to="#808080" begin="arrowLeft.mouseover" end="arrowLeft.mouseout"/>
                  </use>
                  <path fill="none" stroke="white" stroke-width="1.5" d="M0,-3.0v7 M-2.5,-0.5L0,-3.0L2.5,-0.5"/>
                </g>
        </g>
        <svg viewBox="0 0 15 15" width="100%" height="30px" preserveAspectRatio="xMaxYMin meet">
         <g id="arrow_out" transform="scale(0.3 0.3)">
          <a xlink:href="classfwAtoms_1_1Boolean_a599ffe94152e39127c3ba7b18a649d15_icgraph_org.svg" target="_base">
           <rect id="button" ry="5" rx="5" y="6" x="6" height="38" width="38"
                fill="#f2f5e9" fill-opacity="0.5" stroke="#606060" stroke-width="1.0"/>
           <path id="arrow"
             d="M 11.500037,31.436501 C 11.940474,20.09759 22.043105,11.32322 32.158766,21.979434 L 37.068811,17.246167 C 37.068811,17.246167 37.088388,32 37.088388,32 L 22.160133,31.978069 C 22.160133,31.978069 26.997745,27.140456 26.997745,27.140456 C 18.528582,18.264221 13.291696,25.230495 11.500037,31.436501 z"
             style="fill:#404040;"/>
          </a>
         </g>
        </svg>
</svg>
