<?xml version="1.0" encoding="UTF-8" standalone="no"?>
<!DOCTYPE svg PUBLIC "-//W3C//DTD SVG 1.1//EN"
 "http://www.w3.org/Graphics/SVG/1.1/DTD/svg11.dtd">
<!-- Generated by graphviz version 2.36.0 (20140111.2315)
 -->
<!-- Title: fwMDSemanticPatch::V1::V2::fwData::Acquisition::apply Pages: 1 -->
<svg width="484pt" height="139pt"
 viewBox="0.00 0.00 484.00 139.00" xmlns="http://www.w3.org/2000/svg" xmlns:xlink="http://www.w3.org/1999/xlink">
<g id="graph0" class="graph" transform="scale(1 1) rotate(0) translate(4 135)">
<title>fwMDSemanticPatch::V1::V2::fwData::Acquisition::apply</title>
<polygon fill="white" stroke="none" points="-4,4 -4,-135 480,-135 480,4 -4,4"/>
<!-- Node1 -->
<g id="node1" class="node"><title>Node1</title>
<polygon fill="#bfbfbf" stroke="black" points="0,-62.5 0,-103.5 138,-103.5 138,-62.5 0,-62.5"/>
<text text-anchor="start" x="8" y="-91.5" font-family="Helvetica,sans-Serif" font-size="10.00">fwMDSemanticPatch::</text>
<text text-anchor="start" x="8" y="-80.5" font-family="Helvetica,sans-Serif" font-size="10.00">V1::V2::fwData::Acquisition</text>
<text text-anchor="middle" x="69" y="-69.5" font-family="Helvetica,sans-Serif" font-size="10.00">::apply</text>
</g>
<!-- Node2 -->
<g id="node2" class="node"><title>Node2</title>
<g id="a_node2"><a xlink:href="classfwTools_1_1UUID.html#a1dc0d3db04daaf5671d0012d9d716cee" target="_top" xlink:title="Return a new extended UUID;. ">
<polygon fill="white" stroke="black" points="174,-111.5 174,-130.5 326,-130.5 326,-111.5 174,-111.5"/>
<text text-anchor="middle" x="250" y="-118.5" font-family="Helvetica,sans-Serif" font-size="10.00">fwTools::UUID::generateUUID</text>
</a>
</g>
</g>
<!-- Node1&#45;&gt;Node2 -->
<g id="edge1" class="edge"><title>Node1&#45;&gt;Node2</title>
<path fill="none" stroke="midnightblue" d="M138.183,-97.4746C156.6,-101.384 176.297,-105.566 193.899,-109.303"/>
<polygon fill="midnightblue" stroke="midnightblue" points="193.487,-112.793 203.996,-111.446 194.941,-105.946 193.487,-112.793"/>
</g>
<!-- Node3 -->
<g id="node3" class="node"><title>Node3</title>
<g id="a_node3"><a xlink:href="classfwAtoms_1_1String.html#a5e58c24f782dcaf06b0e7fc8d3fc689d" target="_top" xlink:title="Construct a new Object represented a string. ">
<polygon fill="white" stroke="black" points="193.5,-73.5 193.5,-92.5 306.5,-92.5 306.5,-73.5 193.5,-73.5"/>
<text text-anchor="middle" x="250" y="-80.5" font-family="Helvetica,sans-Serif" font-size="10.00">fwAtoms::String::New</text>
</a>
</g>
</g>
<!-- Node1&#45;&gt;Node3 -->
<g id="edge2" class="edge"><title>Node1&#45;&gt;Node3</title>
<path fill="none" stroke="midnightblue" d="M138.183,-83C153.034,-83 168.716,-83 183.461,-83"/>
<polygon fill="midnightblue" stroke="midnightblue" points="183.498,-86.5001 193.498,-83 183.498,-79.5001 183.498,-86.5001"/>
</g>
<!-- Node4 -->
<g id="node4" class="node"><title>Node4</title>
<g id="a_node4"><a xlink:href="classfwAtomsPatch_1_1helper_1_1Object.html#aa5596a46cf7f0d2f5170f86a8fa6a27a" target="_top" xlink:title="Replaces an attribute. ">
<polygon fill="white" stroke="black" points="187.5,-24 187.5,-54 312.5,-54 312.5,-24 187.5,-24"/>
<text text-anchor="start" x="195.5" y="-42" font-family="Helvetica,sans-Serif" font-size="10.00">fwAtomsPatch::helper</text>
<text text-anchor="middle" x="250" y="-31" font-family="Helvetica,sans-Serif" font-size="10.00">::Object::replaceAttribute</text>
</a>
</g>
</g>
<!-- Node1&#45;&gt;Node4 -->
<g id="edge3" class="edge"><title>Node1&#45;&gt;Node4</title>
<path fill="none" stroke="midnightblue" d="M138.183,-66.24C151.173,-63.0468 164.8,-59.6972 177.88,-56.4821"/>
<polygon fill="midnightblue" stroke="midnightblue" points="178.88,-59.8405 187.755,-54.0546 177.209,-53.0428 178.88,-59.8405"/>
</g>
<!-- Node5 -->
<g id="node5" class="node"><title>Node5</title>
<g id="a_node5"><a xlink:href="namespacefwAtomsPatch_1_1helper.html#a49db7036b323f4c23effd6ca3e020996" target="_top" xlink:title="Get classname of an object. ">
<polygon fill="white" stroke="black" points="362.5,-49 362.5,-79 475.5,-79 475.5,-49 362.5,-49"/>
<text text-anchor="start" x="370.5" y="-67" font-family="Helvetica,sans-Serif" font-size="10.00">fwAtomsPatch::helper</text>
<text text-anchor="middle" x="419" y="-56" font-family="Helvetica,sans-Serif" font-size="10.00">::getClassname</text>
</a>
</g>
</g>
<!-- Node4&#45;&gt;Node5 -->
<g id="edge4" class="edge"><title>Node4&#45;&gt;Node5</title>
<path fill="none" stroke="midnightblue" d="M312.71,-48.238C325.54,-50.1587 339.108,-52.1899 352.083,-54.1322"/>
<polygon fill="midnightblue" stroke="midnightblue" points="351.928,-57.6479 362.336,-55.6671 352.965,-50.7251 351.928,-57.6479"/>
</g>
<!-- Node6 -->
<g id="node6" class="node"><title>Node6</title>
<g id="a_node6"><a xlink:href="namespacefwAtomsPatch_1_1helper.html#a87463944cf2233827a11abde6cad8635" target="_top" xlink:title="Get version of an object. ">
<polygon fill="white" stroke="black" points="362.5,-0 362.5,-30 475.5,-30 475.5,-0 362.5,-0"/>
<text text-anchor="start" x="370.5" y="-18" font-family="Helvetica,sans-Serif" font-size="10.00">fwAtomsPatch::helper</text>
<text text-anchor="middle" x="419" y="-7" font-family="Helvetica,sans-Serif" font-size="10.00">::getVersion</text>
</a>
</g>
</g>
<!-- Node4&#45;&gt;Node6 -->
<g id="edge5" class="edge"><title>Node4&#45;&gt;Node6</title>
<path fill="none" stroke="midnightblue" d="M312.71,-30.1315C325.54,-28.2876 339.108,-26.3377 352.083,-24.4731"/>
<polygon fill="midnightblue" stroke="midnightblue" points="352.936,-27.8866 362.336,-22.9996 351.94,-20.9578 352.936,-27.8866"/>
</g>
</g>
</svg>
