<?xml version="1.0" encoding="UTF-8" standalone="no"?>
<!DOCTYPE svg PUBLIC "-//W3C//DTD SVG 1.1//EN"
 "http://www.w3.org/Graphics/SVG/1.1/DTD/svg11.dtd">
<!-- Generated by graphviz version 2.36.0 (20140111.2315)
 -->
<!-- Title: fwGui::dialog::LocationDialog::addFilter Pages: 1 -->
<!--zoomable 1214 -->
<svg id="main" version="1.1" xmlns="http://www.w3.org/2000/svg" xmlns:xlink="http://www.w3.org/1999/xlink" xml:space="preserve" onload="init(evt)">
<style type="text/css"><![CDATA[
.edge:hover path { stroke: red; }
.edge:hover polygon { stroke: red; fill: red; }
]]></style>
<script type="text/javascript"><![CDATA[
var edges = document.getElementsByTagName('g');
if (edges && edges.length) {
  for (var i=0;i<edges.length;i++) {
    if (edges[i].id.substr(0,4)=='edge') {
      edges[i].setAttribute('class','edge');
    }
  }
}
]]></script>
        <defs>
                <circle id="rim" cx="0" cy="0" r="7"/>
                <circle id="rim2" cx="0" cy="0" r="3.5"/>
                <g id="zoomPlus">
                        <use xlink:href="#rim" fill="#404040">
                                <set attributeName="fill" to="#808080" begin="zoomplus.mouseover" end="zoomplus.mouseout"/>
                        </use>
                        <path d="M-4,0h8M0,-4v8" fill="none" stroke="white" stroke-width="1.5" pointer-events="none"/>
                </g>
                <g id="zoomMin">
                        <use xlink:href="#rim" fill="#404040">
                                <set attributeName="fill" to="#808080" begin="zoomminus.mouseover" end="zoomminus.mouseout"/>
                        </use>
                        <path d="M-4,0h8" fill="none" stroke="white" stroke-width="1.5" pointer-events="none"/>
                </g>
                <g id="dirArrow">
                        <path fill="none" stroke="white" stroke-width="1.5" d="M0,-3.0v7 M-2.5,-0.5L0,-3.0L2.5,-0.5"/>
                </g>
               <g id="resetDef">
                       <use xlink:href="#rim2" fill="#404040">
                               <set attributeName="fill" to="#808080" begin="reset.mouseover" end="reset.mouseout"/>
                       </use>
               </g>
        </defs>

<script type="text/javascript">
var viewWidth = 536;
var viewHeight = 1214;
var sectionId = 'dynsection-2';
</script>
<script xlink:href="svgpan.js"/>
<svg id="graph" class="graph">
<g id="viewport">
<title>fwGui::dialog::LocationDialog::addFilter</title>
<polygon fill="white" stroke="none" points="-4,4 -4,-1210 532,-1210 532,4 -4,4"/>
<!-- Node1 -->
<g id="node1" class="node"><title>Node1</title>
<polygon fill="#bfbfbf" stroke="black" points="0,-588 0,-618 144,-618 144,-588 0,-588"/>
<text text-anchor="start" x="8" y="-606" font-family="Helvetica,sans-Serif" font-size="10.00">fwGui::dialog::LocationDialog</text>
<text text-anchor="middle" x="72" y="-595" font-family="Helvetica,sans-Serif" font-size="10.00">::addFilter</text>
</g>
<!-- Node2 -->
<g id="node2" class="node"><title>Node2</title>
<g id="a_node2"><a xlink:href="classioData_1_1TransformationMatrix3DReaderService.html#a51914cfd29d9d55b2332e5cebfa10739" target="_top" xlink:title="Configure the image path. ">
<polygon fill="white" stroke="black" points="180.5,-1176 180.5,-1206 353.5,-1206 353.5,-1176 180.5,-1176"/>
<text text-anchor="start" x="188.5" y="-1194" font-family="Helvetica,sans-Serif" font-size="10.00">ioData::TransformationMatrix3</text>
<text text-anchor="middle" x="267" y="-1183" font-family="Helvetica,sans-Serif" font-size="10.00">DReaderService::configureWithIHM</text>
</a>
</g>
</g>
<!-- Node1&#45;&gt;Node2 -->
<g id="edge1" class="edge"><title>Node1&#45;&gt;Node2</title>
<path fill="none" stroke="midnightblue" d="M74.3834,-628.438C80.2668,-727.369 106.371,-1085.01 180,-1166 183.452,-1169.8 187.442,-1173.03 191.776,-1175.78"/>
<polygon fill="midnightblue" stroke="midnightblue" points="77.8621,-627.965 73.7918,-618.183 70.8737,-628.368 77.8621,-627.965"/>
</g>
<!-- Node3 -->
<g id="node3" class="node"><title>Node3</title>
<g id="a_node3"><a xlink:href="classioData_1_1TransformationMatrix3DWriterService.html#a51b6f045e8fccdedab2293bfbb537cbc" target="_top" xlink:title="Configure the matrix path. ">
<polygon fill="white" stroke="black" points="183,-1127 183,-1157 351,-1157 351,-1127 183,-1127"/>
<text text-anchor="start" x="191" y="-1145" font-family="Helvetica,sans-Serif" font-size="10.00">ioData::TransformationMatrix3</text>
<text text-anchor="middle" x="267" y="-1134" font-family="Helvetica,sans-Serif" font-size="10.00">DWriterService::configureWithIHM</text>
</a>
</g>
</g>
<!-- Node1&#45;&gt;Node3 -->
<g id="edge2" class="edge"><title>Node1&#45;&gt;Node3</title>
<path fill="none" stroke="midnightblue" d="M74.8748,-628.314C82.274,-721.517 112.412,-1043.95 180,-1117 183.59,-1120.88 187.744,-1124.17 192.248,-1126.96"/>
<polygon fill="midnightblue" stroke="midnightblue" points="78.3467,-627.815 74.0842,-618.116 71.3677,-628.356 78.3467,-627.815"/>
</g>
<!-- Node4 -->
<g id="node4" class="node"><title>Node4</title>
<g id="a_node4"><a xlink:href="classioData_1_1SAttachmentSeriesReader.html#a3e927735c102e43906cac6a1b3b100b0" target="_top" xlink:title="Configure the attachment path. ">
<polygon fill="white" stroke="black" points="199,-1078 199,-1108 335,-1108 335,-1078 199,-1078"/>
<text text-anchor="start" x="207" y="-1096" font-family="Helvetica,sans-Serif" font-size="10.00">ioData::SAttachmentSeries</text>
<text text-anchor="middle" x="267" y="-1085" font-family="Helvetica,sans-Serif" font-size="10.00">Reader::configureWithIHM</text>
</a>
</g>
</g>
<!-- Node1&#45;&gt;Node4 -->
<g id="edge3" class="edge"><title>Node1&#45;&gt;Node4</title>
<path fill="none" stroke="midnightblue" d="M75.4888,-628.441C84.5456,-715.972 118.486,-1002.89 180,-1068 185.339,-1073.65 191.873,-1078.05 198.932,-1081.47"/>
<polygon fill="midnightblue" stroke="midnightblue" points="78.9552,-627.933 74.463,-618.338 71.991,-628.64 78.9552,-627.933"/>
</g>
<!-- Node5 -->
<g id="node5" class="node"><title>Node5</title>
<g id="a_node5"><a xlink:href="classioData_1_1STrianMeshReader.html#a9a6c53b6609f28d0f82b487623ac6247" target="_top" xlink:title="Configure the mesh path. ">
<polygon fill="white" stroke="black" points="199.5,-1029 199.5,-1059 334.5,-1059 334.5,-1029 199.5,-1029"/>
<text text-anchor="start" x="207.5" y="-1047" font-family="Helvetica,sans-Serif" font-size="10.00">ioData::STrianMeshReader</text>
<text text-anchor="middle" x="267" y="-1036" font-family="Helvetica,sans-Serif" font-size="10.00">::configureWithIHM</text>
</a>
</g>
</g>
<!-- Node1&#45;&gt;Node5 -->
<g id="edge4" class="edge"><title>Node1&#45;&gt;Node5</title>
<path fill="none" stroke="midnightblue" d="M76.2201,-628.362C87.0282,-709.65 124.479,-961.723 180,-1019 185.519,-1024.69 192.253,-1029.11 199.497,-1032.53"/>
<polygon fill="midnightblue" stroke="midnightblue" points="79.6405,-627.525 74.8727,-618.064 72.6996,-628.433 79.6405,-627.525"/>
</g>
<!-- Node6 -->
<g id="node6" class="node"><title>Node6</title>
<g id="a_node6"><a xlink:href="classioITK_1_1SImageSeriesWriter.html#aafd1a733319ebbd4e726e64c2da1d876" target="_top" xlink:title="Override. ">
<polygon fill="white" stroke="black" points="200,-980 200,-1010 334,-1010 334,-980 200,-980"/>
<text text-anchor="start" x="208" y="-998" font-family="Helvetica,sans-Serif" font-size="10.00">ioITK::SImageSeriesWriter</text>
<text text-anchor="middle" x="267" y="-987" font-family="Helvetica,sans-Serif" font-size="10.00">::configureWithIHM</text>
</a>
</g>
</g>
<!-- Node1&#45;&gt;Node6 -->
<g id="edge5" class="edge"><title>Node1&#45;&gt;Node6</title>
<path fill="none" stroke="midnightblue" d="M72.5825,-628.397C72.929,-694.475 83.2508,-873.327 180,-970 185.609,-975.605 192.397,-979.969 199.671,-983.364"/>
<polygon fill="midnightblue" stroke="midnightblue" points="76.0831,-628.107 72.6077,-618.099 69.0831,-628.09 76.0831,-628.107"/>
</g>
<!-- Node7 -->
<g id="node7" class="node"><title>Node7</title>
<g id="a_node7"><a xlink:href="classioVTK_1_1SImageSeriesReader.html#ab295b79ebbce44db3a891ff6ba956f5a" target="_top" xlink:title="Configure the image path. ">
<polygon fill="white" stroke="black" points="195.5,-931 195.5,-961 338.5,-961 338.5,-931 195.5,-931"/>
<text text-anchor="start" x="203.5" y="-949" font-family="Helvetica,sans-Serif" font-size="10.00">ioVTK::SImageSeriesReader</text>
<text text-anchor="middle" x="267" y="-938" font-family="Helvetica,sans-Serif" font-size="10.00">::configureWithIHM</text>
</a>
</g>
</g>
<!-- Node1&#45;&gt;Node7 -->
<g id="edge6" class="edge"><title>Node1&#45;&gt;Node7</title>
<path fill="none" stroke="midnightblue" d="M73.9178,-628.249C77.4857,-688.044 94.9138,-839.388 180,-921 184.488,-925.305 189.674,-928.875 195.229,-931.835"/>
<polygon fill="midnightblue" stroke="midnightblue" points="77.4093,-627.993 73.3996,-618.187 70.4186,-628.353 77.4093,-627.993"/>
</g>
<!-- Node8 -->
<g id="node8" class="node"><title>Node8</title>
<g id="a_node8"><a xlink:href="classioVTK_1_1SMeshReader.html#a218f6464f0d4e16ba8e58f1bfc985516" target="_top" xlink:title="Configure the image path. ">
<polygon fill="white" stroke="black" points="211,-882 211,-912 323,-912 323,-882 211,-882"/>
<text text-anchor="start" x="219" y="-900" font-family="Helvetica,sans-Serif" font-size="10.00">ioVTK::SMeshReader</text>
<text text-anchor="middle" x="267" y="-889" font-family="Helvetica,sans-Serif" font-size="10.00">::configureWithIHM</text>
</a>
</g>
</g>
<!-- Node1&#45;&gt;Node8 -->
<g id="edge7" class="edge"><title>Node1&#45;&gt;Node8</title>
<path fill="none" stroke="midnightblue" d="M75.7044,-628.3C82.7491,-681.442 106.55,-805.262 180,-872 188.631,-879.842 199.586,-885.235 210.763,-888.941"/>
<polygon fill="midnightblue" stroke="midnightblue" points="79.1416,-627.575 74.4436,-618.079 72.1943,-628.432 79.1416,-627.575"/>
</g>
<!-- Node9 -->
<g id="node9" class="node"><title>Node9</title>
<g id="a_node9"><a xlink:href="classioVTK_1_1SImageReader.html#a64610b57ca2da396aff847f585ffd958" target="_top" xlink:title="Configure the image path with a dialogBox. ">
<polygon fill="white" stroke="black" points="209.5,-833 209.5,-863 324.5,-863 324.5,-833 209.5,-833"/>
<text text-anchor="start" x="217.5" y="-851" font-family="Helvetica,sans-Serif" font-size="10.00">ioVTK::SImageReader</text>
<text text-anchor="middle" x="267" y="-840" font-family="Helvetica,sans-Serif" font-size="10.00">::configureWithIHM</text>
</a>
</g>
</g>
<!-- Node1&#45;&gt;Node9 -->
<g id="edge8" class="edge"><title>Node1&#45;&gt;Node9</title>
<path fill="none" stroke="midnightblue" d="M78.1673,-628.109C88.891,-673.805 117.925,-770.661 180,-823 188.44,-830.116 198.813,-835.208 209.399,-838.851"/>
<polygon fill="midnightblue" stroke="midnightblue" points="81.5382,-627.145 75.9336,-618.154 74.708,-628.678 81.5382,-627.145"/>
</g>
<!-- Node10 -->
<g id="node10" class="node"><title>Node10</title>
<g id="a_node10"><a xlink:href="classioITK_1_1InrImageWriterService.html#abb343496da0f21ca34205ac663796c40" target="_top" xlink:title="Override. ">
<polygon fill="white" stroke="black" points="195.5,-784 195.5,-814 338.5,-814 338.5,-784 195.5,-784"/>
<text text-anchor="start" x="203.5" y="-802" font-family="Helvetica,sans-Serif" font-size="10.00">ioITK::InrImageWriterService</text>
<text text-anchor="middle" x="267" y="-791" font-family="Helvetica,sans-Serif" font-size="10.00">::configureWithIHM</text>
</a>
</g>
</g>
<!-- Node1&#45;&gt;Node10 -->
<g id="edge9" class="edge"><title>Node1&#45;&gt;Node10</title>
<path fill="none" stroke="midnightblue" d="M81.8223,-627.751C96.3968,-665.076 129.056,-735.49 180,-774 185.085,-777.844 190.748,-781.098 196.672,-783.853"/>
<polygon fill="midnightblue" stroke="midnightblue" points="85.0037,-626.269 78.191,-618.155 78.4568,-628.746 85.0037,-626.269"/>
</g>
<!-- Node11 -->
<g id="node11" class="node"><title>Node11</title>
<g id="a_node11"><a xlink:href="classioITK_1_1InrImageReaderService.html#a775edd656c6bae5eaee8ba6f58fd6fe5" target="_top" xlink:title="Override. ">
<polygon fill="white" stroke="black" points="192.5,-735 192.5,-765 341.5,-765 341.5,-735 192.5,-735"/>
<text text-anchor="start" x="200.5" y="-753" font-family="Helvetica,sans-Serif" font-size="10.00">ioITK::InrImageReaderService</text>
<text text-anchor="middle" x="267" y="-742" font-family="Helvetica,sans-Serif" font-size="10.00">::configureWithIHM</text>
</a>
</g>
</g>
<!-- Node1&#45;&gt;Node11 -->
<g id="edge10" class="edge"><title>Node1&#45;&gt;Node11</title>
<path fill="none" stroke="midnightblue" d="M87.7881,-626.881C106.107,-654.504 139.857,-699.448 180,-725 186.034,-728.841 192.676,-732.108 199.513,-734.885"/>
<polygon fill="midnightblue" stroke="midnightblue" points="90.5569,-624.718 82.1804,-618.231 84.683,-628.526 90.5569,-624.718"/>
</g>
<!-- Node12 -->
<g id="node12" class="node"><title>Node12</title>
<g id="a_node12"><a xlink:href="classioVTK_1_1SModelSeriesReader.html#ae83ac548ee61b6d1c8aadfc4481ccf37" target="_top" xlink:title="Configure the mesh path. ">
<polygon fill="white" stroke="black" points="196,-686 196,-716 338,-716 338,-686 196,-686"/>
<text text-anchor="start" x="204" y="-704" font-family="Helvetica,sans-Serif" font-size="10.00">ioVTK::SModelSeriesReader</text>
<text text-anchor="middle" x="267" y="-693" font-family="Helvetica,sans-Serif" font-size="10.00">::configureWithIHM</text>
</a>
</g>
</g>
<!-- Node1&#45;&gt;Node12 -->
<g id="edge11" class="edge"><title>Node1&#45;&gt;Node12</title>
<path fill="none" stroke="midnightblue" d="M99.2632,-624.418C120.091,-640.51 150.506,-662.086 180,-676 187.875,-679.715 196.42,-683.001 204.965,-685.868"/>
<polygon fill="midnightblue" stroke="midnightblue" points="101.256,-621.533 91.2279,-618.113 96.9347,-627.04 101.256,-621.533"/>
</g>
<!-- Node13 -->
<g id="node13" class="node"><title>Node13</title>
<g id="a_node13"><a xlink:href="classioVTK_1_1SImageSeriesWriter.html#acc815ffcb428d242d33b39ef8be80494" target="_top" xlink:title="Configure the image path. ">
<polygon fill="white" stroke="black" points="198.5,-637 198.5,-667 335.5,-667 335.5,-637 198.5,-637"/>
<text text-anchor="start" x="206.5" y="-655" font-family="Helvetica,sans-Serif" font-size="10.00">ioVTK::SImageSeriesWriter</text>
<text text-anchor="middle" x="267" y="-644" font-family="Helvetica,sans-Serif" font-size="10.00">::configureWithIHM</text>
</a>
</g>
</g>
<!-- Node1&#45;&gt;Node13 -->
<g id="edge12" class="edge"><title>Node1&#45;&gt;Node13</title>
<path fill="none" stroke="midnightblue" d="M142.125,-620.55C163.319,-625.931 186.433,-631.799 206.894,-636.994"/>
<polygon fill="midnightblue" stroke="midnightblue" points="142.772,-617.103 132.218,-618.035 141.049,-623.888 142.772,-617.103"/>
</g>
<!-- Node14 -->
<g id="node14" class="node"><title>Node14</title>
<g id="a_node14"><a xlink:href="classioVTK_1_1SMeshWriter.html#af91b7576cc4e180cd8ae01568b13ea19" target="_top" xlink:title="Configure the mesh path. ">
<polygon fill="white" stroke="black" points="213.5,-588 213.5,-618 320.5,-618 320.5,-588 213.5,-588"/>
<text text-anchor="start" x="221.5" y="-606" font-family="Helvetica,sans-Serif" font-size="10.00">ioVTK::SMeshWriter</text>
<text text-anchor="middle" x="267" y="-595" font-family="Helvetica,sans-Serif" font-size="10.00">::configureWithIHM</text>
</a>
</g>
</g>
<!-- Node1&#45;&gt;Node14 -->
<g id="edge13" class="edge"><title>Node1&#45;&gt;Node14</title>
<path fill="none" stroke="midnightblue" d="M154.082,-603C174.075,-603 194.973,-603 213.226,-603"/>
<polygon fill="midnightblue" stroke="midnightblue" points="154.044,-599.5 144.044,-603 154.044,-606.5 154.044,-599.5"/>
</g>
<!-- Node15 -->
<g id="node15" class="node"><title>Node15</title>
<g id="a_node15"><a xlink:href="classioData_1_1MeshWriterService.html#a3b01f38286d494654d742549db95d10c" target="_top" xlink:title="Configure the mesh path. ">
<polygon fill="white" stroke="black" points="200,-539 200,-569 334,-569 334,-539 200,-539"/>
<text text-anchor="start" x="208" y="-557" font-family="Helvetica,sans-Serif" font-size="10.00">ioData::MeshWriterService</text>
<text text-anchor="middle" x="267" y="-546" font-family="Helvetica,sans-Serif" font-size="10.00">::configureWithIHM</text>
</a>
</g>
</g>
<!-- Node1&#45;&gt;Node15 -->
<g id="edge14" class="edge"><title>Node1&#45;&gt;Node15</title>
<path fill="none" stroke="midnightblue" d="M142.125,-585.45C163.319,-580.069 186.433,-574.201 206.894,-569.006"/>
<polygon fill="midnightblue" stroke="midnightblue" points="141.049,-582.112 132.218,-587.965 142.772,-588.897 141.049,-582.112"/>
</g>
<!-- Node16 -->
<g id="node16" class="node"><title>Node16</title>
<g id="a_node16"><a xlink:href="classioVTK_1_1SImageWriter.html#ad36eb0b11e89c2a91a698273474dfb12" target="_top" xlink:title="Configure the image path. ">
<polygon fill="white" stroke="black" points="212,-490 212,-520 322,-520 322,-490 212,-490"/>
<text text-anchor="start" x="220" y="-508" font-family="Helvetica,sans-Serif" font-size="10.00">ioVTK::SImageWriter</text>
<text text-anchor="middle" x="267" y="-497" font-family="Helvetica,sans-Serif" font-size="10.00">::configureWithIHM</text>
</a>
</g>
</g>
<!-- Node1&#45;&gt;Node16 -->
<g id="edge15" class="edge"><title>Node1&#45;&gt;Node16</title>
<path fill="none" stroke="midnightblue" d="M99.2632,-581.582C120.091,-565.49 150.506,-543.914 180,-530 189.984,-525.29 201.045,-521.269 211.818,-517.918"/>
<polygon fill="midnightblue" stroke="midnightblue" points="96.9347,-578.96 91.2279,-587.887 101.256,-584.467 96.9347,-578.96"/>
</g>
<!-- Node17 -->
<g id="node17" class="node"><title>Node17</title>
<g id="a_node17"><a xlink:href="classioVTK_1_1SSeriesDBReader.html#a6c0961dd70dd22180f193c2b233c1b4a" target="_top" xlink:title="Configure the vtk file path. ">
<polygon fill="white" stroke="black" points="202,-441 202,-471 332,-471 332,-441 202,-441"/>
<text text-anchor="start" x="210" y="-459" font-family="Helvetica,sans-Serif" font-size="10.00">ioVTK::SSeriesDBReader</text>
<text text-anchor="middle" x="267" y="-448" font-family="Helvetica,sans-Serif" font-size="10.00">::configureWithIHM</text>
</a>
</g>
</g>
<!-- Node1&#45;&gt;Node17 -->
<g id="edge16" class="edge"><title>Node1&#45;&gt;Node17</title>
<path fill="none" stroke="midnightblue" d="M87.7881,-579.119C106.107,-551.496 139.857,-506.552 180,-481 186.69,-476.742 194.127,-473.188 201.749,-470.227"/>
<polygon fill="midnightblue" stroke="midnightblue" points="84.683,-577.474 82.1804,-587.769 90.5569,-581.282 84.683,-577.474"/>
</g>
<!-- Node18 -->
<g id="node18" class="node"><title>Node18</title>
<g id="a_node18"><a xlink:href="classioITK_1_1SInrSeriesDBReader.html#a586c1de76f71571b49e915730e035f53" target="_top" xlink:title="Configure the inr files path. ">
<polygon fill="white" stroke="black" points="198.5,-392 198.5,-422 335.5,-422 335.5,-392 198.5,-392"/>
<text text-anchor="start" x="206.5" y="-410" font-family="Helvetica,sans-Serif" font-size="10.00">ioITK::SInrSeriesDBReader</text>
<text text-anchor="middle" x="267" y="-399" font-family="Helvetica,sans-Serif" font-size="10.00">::configureWithIHM</text>
</a>
</g>
</g>
<!-- Node1&#45;&gt;Node18 -->
<g id="edge17" class="edge"><title>Node1&#45;&gt;Node18</title>
<path fill="none" stroke="midnightblue" d="M81.8223,-578.249C96.3968,-540.924 129.056,-470.51 180,-432 185.582,-427.781 191.858,-424.272 198.413,-421.355"/>
<polygon fill="midnightblue" stroke="midnightblue" points="78.4568,-577.254 78.191,-587.845 85.0037,-579.731 78.4568,-577.254"/>
</g>
<!-- Node19 -->
<g id="node19" class="node"><title>Node19</title>
<g id="a_node19"><a xlink:href="classioTuto_1_1ExternalDataReaderService.html#aad4df71c7adaa24e88b6c59b48ceec23" target="_top" xlink:title="Configure the image path. ">
<polygon fill="white" stroke="black" points="198,-343 198,-373 336,-373 336,-343 198,-343"/>
<text text-anchor="start" x="206" y="-361" font-family="Helvetica,sans-Serif" font-size="10.00">ioTuto::ExternalDataReader</text>
<text text-anchor="middle" x="267" y="-350" font-family="Helvetica,sans-Serif" font-size="10.00">Service::configureWithIHM</text>
</a>
</g>
</g>
<!-- Node1&#45;&gt;Node19 -->
<g id="edge18" class="edge"><title>Node1&#45;&gt;Node19</title>
<path fill="none" stroke="midnightblue" d="M78.1673,-577.891C88.891,-532.195 117.925,-435.339 180,-383 185.349,-378.49 191.475,-374.793 197.939,-371.762"/>
<polygon fill="midnightblue" stroke="midnightblue" points="74.708,-577.322 75.9336,-587.846 81.5382,-578.855 74.708,-577.322"/>
</g>
<!-- Node21 -->
<g id="node21" class="node"><title>Node21</title>
<g id="a_node21"><a xlink:href="classioAtoms_1_1SWriter.html#a1ba1c2daea9078a8e0512f1e012d280a" target="_top" xlink:title="Propose to create a medical data file. ">
<polygon fill="white" stroke="black" points="198.5,-294 198.5,-324 335.5,-324 335.5,-294 198.5,-294"/>
<text text-anchor="start" x="206.5" y="-312" font-family="Helvetica,sans-Serif" font-size="10.00">ioAtoms::SWriter::configure</text>
<text text-anchor="middle" x="267" y="-301" font-family="Helvetica,sans-Serif" font-size="10.00">WithIHM</text>
</a>
</g>
</g>
<!-- Node1&#45;&gt;Node21 -->
<g id="edge20" class="edge"><title>Node1&#45;&gt;Node21</title>
<path fill="none" stroke="midnightblue" d="M75.7044,-577.7C82.7491,-524.558 106.55,-400.738 180,-334 185.409,-329.086 191.73,-325.133 198.447,-321.955"/>
<polygon fill="midnightblue" stroke="midnightblue" points="72.1943,-577.568 74.4436,-587.921 79.1416,-578.425 72.1943,-577.568"/>
</g>
<!-- Node22 -->
<g id="node22" class="node"><title>Node22</title>
<g id="a_node22"><a xlink:href="classioAtoms_1_1SReader.html#ab17fcb079a049399e4380bfe2d115fdc" target="_top" xlink:title="Propose to choose a medical data file (*.json,*.jsonz,*.xml or *.xmlz) ">
<polygon fill="white" stroke="black" points="195.5,-245 195.5,-275 338.5,-275 338.5,-245 195.5,-245"/>
<text text-anchor="start" x="203.5" y="-263" font-family="Helvetica,sans-Serif" font-size="10.00">ioAtoms::SReader::configure</text>
<text text-anchor="middle" x="267" y="-252" font-family="Helvetica,sans-Serif" font-size="10.00">WithIHM</text>
</a>
</g>
</g>
<!-- Node1&#45;&gt;Node22 -->
<g id="edge21" class="edge"><title>Node1&#45;&gt;Node22</title>
<path fill="none" stroke="midnightblue" d="M73.9178,-577.751C77.4857,-517.956 94.9138,-366.612 180,-285 184.488,-280.695 189.674,-277.125 195.229,-274.165"/>
<polygon fill="midnightblue" stroke="midnightblue" points="70.4186,-577.647 73.3996,-587.813 77.4093,-578.007 70.4186,-577.647"/>
</g>
<!-- Node23 -->
<g id="node23" class="node"><title>Node23</title>
<g id="a_node23"><a xlink:href="classioQt_1_1SPdfWriter.html#afeda479edb94288918089649ec290bfc" target="_top" xlink:title="Configure the image path. ">
<polygon fill="white" stroke="black" points="200,-196 200,-226 334,-226 334,-196 200,-196"/>
<text text-anchor="start" x="208" y="-214" font-family="Helvetica,sans-Serif" font-size="10.00">ioQt::SPdfWriter::configure</text>
<text text-anchor="middle" x="267" y="-203" font-family="Helvetica,sans-Serif" font-size="10.00">WithIHM</text>
</a>
</g>
</g>
<!-- Node1&#45;&gt;Node23 -->
<g id="edge22" class="edge"><title>Node1&#45;&gt;Node23</title>
<path fill="none" stroke="midnightblue" d="M72.5825,-577.603C72.929,-511.525 83.2508,-332.673 180,-236 185.609,-230.395 192.397,-226.031 199.671,-222.636"/>
<polygon fill="midnightblue" stroke="midnightblue" points="69.0831,-577.91 72.6077,-587.901 76.0831,-577.893 69.0831,-577.91"/>
</g>
<!-- Node25 -->
<g id="node25" class="node"><title>Node25</title>
<g id="a_node25"><a xlink:href="classuiVisu_1_1action_1_1SSnapshot.html#a9004cc1fb364bed3608eda7e3a90bae2" target="_top" xlink:title="Write information in a stream. ">
<polygon fill="white" stroke="black" points="202,-147 202,-177 332,-177 332,-147 202,-147"/>
<text text-anchor="start" x="210" y="-165" font-family="Helvetica,sans-Serif" font-size="10.00">uiVisu::action::SSnapshot</text>
<text text-anchor="middle" x="267" y="-154" font-family="Helvetica,sans-Serif" font-size="10.00">::info</text>
</a>
</g>
</g>
<!-- Node1&#45;&gt;Node25 -->
<g id="edge24" class="edge"><title>Node1&#45;&gt;Node25</title>
<path fill="none" stroke="midnightblue" d="M76.2201,-577.638C87.0282,-496.35 124.479,-244.277 180,-187 186.06,-180.748 193.584,-176.035 201.642,-172.487"/>
<polygon fill="midnightblue" stroke="midnightblue" points="72.6996,-577.567 74.8727,-587.936 79.6405,-578.475 72.6996,-577.567"/>
</g>
<!-- Node26 -->
<g id="node26" class="node"><title>Node26</title>
<g id="a_node26"><a xlink:href="classuiVisuQt_1_1SnapshotEditor.html#a99aa67697e104a08b0e397bf9dc532c6" target="_top" xlink:title="Show a file dialog and notify the scene must be printed. ">
<polygon fill="white" stroke="black" points="203.5,-98 203.5,-128 330.5,-128 330.5,-98 203.5,-98"/>
<text text-anchor="start" x="211.5" y="-116" font-family="Helvetica,sans-Serif" font-size="10.00">uiVisuQt::SnapshotEditor</text>
<text text-anchor="middle" x="267" y="-105" font-family="Helvetica,sans-Serif" font-size="10.00">::onSnapButton</text>
</a>
</g>
</g>
<!-- Node1&#45;&gt;Node26 -->
<g id="edge25" class="edge"><title>Node1&#45;&gt;Node26</title>
<path fill="none" stroke="midnightblue" d="M75.4888,-577.559C84.5456,-490.028 118.486,-203.106 180,-138 186.407,-131.219 194.535,-126.243 203.225,-122.599"/>
<polygon fill="midnightblue" stroke="midnightblue" points="71.991,-577.36 74.463,-587.662 78.9552,-578.067 71.991,-577.36"/>
</g>
<!-- Node28 -->
<g id="node28" class="node"><title>Node28</title>
<g id="a_node28"><a xlink:href="classuiMeasurement_1_1action_1_1LoadLandmark.html#a2e7afe9d6df98c607ff4df0ce58c48c0" target="_top" xlink:title="Perform some computations according to object (this service is attached to) attribute values and its ...">
<polygon fill="white" stroke="black" points="202.5,-49 202.5,-79 331.5,-79 331.5,-49 202.5,-49"/>
<text text-anchor="start" x="210.5" y="-67" font-family="Helvetica,sans-Serif" font-size="10.00">uiMeasurement::action</text>
<text text-anchor="middle" x="267" y="-56" font-family="Helvetica,sans-Serif" font-size="10.00">::LoadLandmark::updating</text>
</a>
</g>
</g>
<!-- Node1&#45;&gt;Node28 -->
<g id="edge27" class="edge"><title>Node1&#45;&gt;Node28</title>
<path fill="none" stroke="midnightblue" d="M74.8748,-577.686C82.274,-484.483 112.412,-162.052 180,-89 186.124,-82.3804 193.888,-77.4771 202.234,-73.8521"/>
<polygon fill="midnightblue" stroke="midnightblue" points="71.3677,-577.644 74.0842,-587.884 78.3467,-578.185 71.3677,-577.644"/>
</g>
<!-- Node29 -->
<g id="node29" class="node"><title>Node29</title>
<g id="a_node29"><a xlink:href="classuiMeasurement_1_1action_1_1SaveLandmark.html#ab3b113c1ff0407131500636fe9ab59ae" target="_top" xlink:title="Perform some computations according to object (this service is attached to) attribute values and its ...">
<polygon fill="white" stroke="black" points="201.5,-0 201.5,-30 332.5,-30 332.5,-0 201.5,-0"/>
<text text-anchor="start" x="209.5" y="-18" font-family="Helvetica,sans-Serif" font-size="10.00">uiMeasurement::action</text>
<text text-anchor="middle" x="267" y="-7" font-family="Helvetica,sans-Serif" font-size="10.00">::SaveLandmark::updating</text>
</a>
</g>
</g>
<!-- Node1&#45;&gt;Node29 -->
<g id="edge28" class="edge"><title>Node1&#45;&gt;Node29</title>
<path fill="none" stroke="midnightblue" d="M74.3834,-577.562C80.2668,-478.631 106.371,-120.985 180,-40 185.857,-33.5574 193.267,-28.7372 201.27,-25.1378"/>
<polygon fill="midnightblue" stroke="midnightblue" points="70.8737,-577.632 73.7918,-587.817 77.8621,-578.035 70.8737,-577.632"/>
</g>
<!-- Node20 -->
<g id="node20" class="node"><title>Node20</title>
<g id="a_node20"><a xlink:href="classioTuto_1_1ExternalDataReaderService.html#ac3550101d66e01de163925748b9637ed" target="_top" xlink:title="Updating method. This method is called by update() from base service ( fwServices::IService ) ...">
<polygon fill="white" stroke="black" points="390,-343 390,-373 528,-373 528,-343 390,-343"/>
<text text-anchor="start" x="398" y="-361" font-family="Helvetica,sans-Serif" font-size="10.00">ioTuto::ExternalDataReader</text>
<text text-anchor="middle" x="459" y="-350" font-family="Helvetica,sans-Serif" font-size="10.00">Service::updating</text>
</a>
</g>
</g>
<!-- Node19&#45;&gt;Node20 -->
<g id="edge19" class="edge"><title>Node19&#45;&gt;Node20</title>
<path fill="none" stroke="midnightblue" d="M346.422,-358C360.809,-358 375.72,-358 389.779,-358"/>
<polygon fill="midnightblue" stroke="midnightblue" points="346.058,-354.5 336.058,-358 346.058,-361.5 346.058,-354.5"/>
</g>
<!-- Node24 -->
<g id="node24" class="node"><title>Node24</title>
<g id="a_node24"><a xlink:href="classioQt_1_1SPdfWriter.html#afa3b9b49011fb9941fd74acb6e997158" target="_top" xlink:title="Updating method. Creates a new PDF. ">
<polygon fill="white" stroke="black" points="393.5,-201.5 393.5,-220.5 524.5,-220.5 524.5,-201.5 393.5,-201.5"/>
<text text-anchor="middle" x="459" y="-208.5" font-family="Helvetica,sans-Serif" font-size="10.00">ioQt::SPdfWriter::updating</text>
</a>
</g>
</g>
<!-- Node23&#45;&gt;Node24 -->
<g id="edge23" class="edge"><title>Node23&#45;&gt;Node24</title>
<path fill="none" stroke="midnightblue" d="M344.206,-211C360.487,-211 377.535,-211 393.332,-211"/>
<polygon fill="midnightblue" stroke="midnightblue" points="344.186,-207.5 334.186,-211 344.186,-214.5 344.186,-207.5"/>
</g>
<!-- Node27 -->
<g id="node27" class="node"><title>Node27</title>
<g id="a_node27"><a xlink:href="classuiVisuQt_1_1SnapshotEditor.html#a39abf1134cec6e659703ce47057a3e8f" target="_top" xlink:title="Install the layout. ">
<polygon fill="white" stroke="black" points="395.5,-98 395.5,-128 522.5,-128 522.5,-98 395.5,-98"/>
<text text-anchor="start" x="403.5" y="-116" font-family="Helvetica,sans-Serif" font-size="10.00">uiVisuQt::SnapshotEditor</text>
<text text-anchor="middle" x="459" y="-105" font-family="Helvetica,sans-Serif" font-size="10.00">::starting</text>
</a>
</g>
</g>
<!-- Node26&#45;&gt;Node27 -->
<g id="edge26" class="edge"><title>Node26&#45;&gt;Node27</title>
<path fill="none" stroke="midnightblue" d="M340.871,-113C358.828,-113 377.901,-113 395.326,-113"/>
<polygon fill="midnightblue" stroke="midnightblue" points="340.74,-109.5 330.74,-113 340.74,-116.5 340.74,-109.5"/>
</g>
</g>
</svg>
        <g id="navigator" transform="translate(0 0)" fill="#404254">
                <rect fill="#f2f5e9" fill-opacity="0.5" stroke="#606060" stroke-width=".5" x="0" y="0" width="60" height="60"/>
                <use id="zoomplus" xlink:href="#zoomPlus" x="17" y="9" onmousedown="handleZoom(evt,'in')"/>
                <use id="zoomminus" xlink:href="#zoomMin" x="42" y="9" onmousedown="handleZoom(evt,'out')"/>
                <use id="reset" xlink:href="#resetDef" x="30" y="36" onmousedown="handleReset()"/>
                <g id="arrowUp" xlink:href="#dirArrow" transform="translate(30 24)" onmousedown="handlePan(0,-1)">
                  <use xlink:href="#rim" fill="#404040">
                        <set attributeName="fill" to="#808080" begin="arrowUp.mouseover" end="arrowUp.mouseout"/>
                  </use>
                  <path fill="none" stroke="white" stroke-width="1.5" d="M0,-3.0v7 M-2.5,-0.5L0,-3.0L2.5,-0.5"/>
                </g>
                <g id="arrowRight" xlink:href="#dirArrow" transform="rotate(90) translate(36 -43)" onmousedown="handlePan(1,0)">
                  <use xlink:href="#rim" fill="#404040">
                        <set attributeName="fill" to="#808080" begin="arrowRight.mouseover" end="arrowRight.mouseout"/>
                  </use>
                  <path fill="none" stroke="white" stroke-width="1.5" d="M0,-3.0v7 M-2.5,-0.5L0,-3.0L2.5,-0.5"/>
                </g>
                <g id="arrowDown" xlink:href="#dirArrow" transform="rotate(180) translate(-30 -48)" onmousedown="handlePan(0,1)">
                  <use xlink:href="#rim" fill="#404040">
                        <set attributeName="fill" to="#808080" begin="arrowDown.mouseover" end="arrowDown.mouseout"/>
                  </use>
                  <path fill="none" stroke="white" stroke-width="1.5" d="M0,-3.0v7 M-2.5,-0.5L0,-3.0L2.5,-0.5"/>
                </g>
                <g id="arrowLeft" xlink:href="#dirArrow" transform="rotate(270) translate(-36 17)" onmousedown="handlePan(-1,0)">
                  <use xlink:href="#rim" fill="#404040">
                        <set attributeName="fill" to="#808080" begin="arrowLeft.mouseover" end="arrowLeft.mouseout"/>
                  </use>
                  <path fill="none" stroke="white" stroke-width="1.5" d="M0,-3.0v7 M-2.5,-0.5L0,-3.0L2.5,-0.5"/>
                </g>
        </g>
        <svg viewBox="0 0 15 15" width="100%" height="30px" preserveAspectRatio="xMaxYMin meet">
         <g id="arrow_out" transform="scale(0.3 0.3)">
          <a xlink:href="classfwGui_1_1dialog_1_1LocationDialog_a7b7d0bcd1a3da8e2fa4308174b086fce_icgraph_org.svg" target="_base">
           <rect id="button" ry="5" rx="5" y="6" x="6" height="38" width="38"
                fill="#f2f5e9" fill-opacity="0.5" stroke="#606060" stroke-width="1.0"/>
           <path id="arrow"
             d="M 11.500037,31.436501 C 11.940474,20.09759 22.043105,11.32322 32.158766,21.979434 L 37.068811,17.246167 C 37.068811,17.246167 37.088388,32 37.088388,32 L 22.160133,31.978069 C 22.160133,31.978069 26.997745,27.140456 26.997745,27.140456 C 18.528582,18.264221 13.291696,25.230495 11.500037,31.436501 z"
             style="fill:#404040;"/>
          </a>
         </g>
        </svg>
</svg>
