<?xml version="1.0" encoding="UTF-8" standalone="no"?>
<!DOCTYPE svg PUBLIC "-//W3C//DTD SVG 1.1//EN"
 "http://www.w3.org/Graphics/SVG/1.1/DTD/svg11.dtd">
<!-- Generated by graphviz version 2.36.0 (20140111.2315)
 -->
<!-- Title: fwMedData::SeriesDB Pages: 1 -->
<!--zoomable 347 -->
<svg id="main" version="1.1" xmlns="http://www.w3.org/2000/svg" xmlns:xlink="http://www.w3.org/1999/xlink" xml:space="preserve" onload="init(evt)">
<style type="text/css"><![CDATA[
.edge:hover path { stroke: red; }
.edge:hover polygon { stroke: red; fill: red; }
]]></style>
<script type="text/javascript"><![CDATA[
var edges = document.getElementsByTagName('g');
if (edges && edges.length) {
  for (var i=0;i<edges.length;i++) {
    if (edges[i].id.substr(0,4)=='edge') {
      edges[i].setAttribute('class','edge');
    }
  }
}
]]></script>
        <defs>
                <circle id="rim" cx="0" cy="0" r="7"/>
                <circle id="rim2" cx="0" cy="0" r="3.5"/>
                <g id="zoomPlus">
                        <use xlink:href="#rim" fill="#404040">
                                <set attributeName="fill" to="#808080" begin="zoomplus.mouseover" end="zoomplus.mouseout"/>
                        </use>
                        <path d="M-4,0h8M0,-4v8" fill="none" stroke="white" stroke-width="1.5" pointer-events="none"/>
                </g>
                <g id="zoomMin">
                        <use xlink:href="#rim" fill="#404040">
                                <set attributeName="fill" to="#808080" begin="zoomminus.mouseover" end="zoomminus.mouseout"/>
                        </use>
                        <path d="M-4,0h8" fill="none" stroke="white" stroke-width="1.5" pointer-events="none"/>
                </g>
                <g id="dirArrow">
                        <path fill="none" stroke="white" stroke-width="1.5" d="M0,-3.0v7 M-2.5,-0.5L0,-3.0L2.5,-0.5"/>
                </g>
               <g id="resetDef">
                       <use xlink:href="#rim2" fill="#404040">
                               <set attributeName="fill" to="#808080" begin="reset.mouseover" end="reset.mouseout"/>
                       </use>
               </g>
        </defs>

<script type="text/javascript">
var viewWidth = 1496;
var viewHeight = 347;
var sectionId = 'dynsection-1';
</script>
<script xlink:href="svgpan.js"/>
<svg id="graph" class="graph">
<g id="viewport">
<title>fwMedData::SeriesDB</title>
<polygon fill="white" stroke="none" points="-4,4 -4,-343 1492,-343 1492,4 -4,4"/>
<!-- Node1 -->
<g id="node1" class="node"><title>Node1</title>
<polygon fill="#bfbfbf" stroke="black" points="1372.5,-48.5 1372.5,-67.5 1487.5,-67.5 1487.5,-48.5 1372.5,-48.5"/>
<text text-anchor="middle" x="1430" y="-55.5" font-family="Helvetica,sans-Serif" font-size="10.00">fwMedData::SeriesDB</text>
</g>
<!-- Node2 -->
<g id="node2" class="node"><title>Node2</title>
<g id="a_node2"><a xlink:href="classfwData_1_1Object.html" target="_top" xlink:title="Base class for each data object. ">
<polygon fill="white" stroke="black" points="1228.5,-162.5 1228.5,-181.5 1311.5,-181.5 1311.5,-162.5 1228.5,-162.5"/>
<text text-anchor="middle" x="1270" y="-169.5" font-family="Helvetica,sans-Serif" font-size="10.00">fwData::Object</text>
</a>
</g>
</g>
<!-- Node2&#45;&gt;Node1 -->
<g id="edge1" class="edge"><title>Node2&#45;&gt;Node1</title>
<path fill="none" stroke="midnightblue" d="M1292.73,-156.325C1325.88,-132.403 1388.13,-87.4875 1415.5,-67.738"/>
<polygon fill="midnightblue" stroke="midnightblue" points="1290.26,-153.787 1284.2,-162.477 1294.36,-159.464 1290.26,-153.787"/>
</g>
<!-- Node3 -->
<g id="node3" class="node"><title>Node3</title>
<g id="a_node3"><a xlink:href="classfwTools_1_1Object.html" target="_top" xlink:title="Define Base class for FW4SPL objects and services. ">
<polygon fill="white" stroke="black" points="965,-260.5 965,-279.5 1051,-279.5 1051,-260.5 965,-260.5"/>
<text text-anchor="middle" x="1008" y="-267.5" font-family="Helvetica,sans-Serif" font-size="10.00">fwTools::Object</text>
</a>
</g>
</g>
<!-- Node3&#45;&gt;Node2 -->
<g id="edge2" class="edge"><title>Node3&#45;&gt;Node2</title>
<path fill="none" stroke="midnightblue" d="M1048.83,-257.279C1085.34,-245.366 1140.74,-226.647 1188,-208 1209.04,-199.697 1232.63,-189.059 1248.9,-181.506"/>
<polygon fill="midnightblue" stroke="midnightblue" points="1047.49,-254.036 1039.06,-260.454 1049.65,-260.694 1047.49,-254.036"/>
</g>
<!-- Node4 -->
<g id="node4" class="node"><title>Node4</title>
<g id="a_node4"><a xlink:href="classfwCore_1_1BaseObject.html" target="_top" xlink:title="Base class for all FW4SPL&#39;s classes. ">
<polygon fill="white" stroke="black" points="766.5,-314.5 766.5,-333.5 871.5,-333.5 871.5,-314.5 766.5,-314.5"/>
<text text-anchor="middle" x="819" y="-321.5" font-family="Helvetica,sans-Serif" font-size="10.00">fwCore::BaseObject</text>
</a>
</g>
</g>
<!-- Node4&#45;&gt;Node3 -->
<g id="edge3" class="edge"><title>Node4&#45;&gt;Node3</title>
<path fill="none" stroke="midnightblue" d="M866.459,-311.904C888.244,-306.104 914.518,-298.924 938,-292 951.145,-288.124 965.606,-283.56 977.878,-279.597"/>
<polygon fill="midnightblue" stroke="midnightblue" points="865.561,-308.521 856.792,-314.467 867.355,-315.288 865.561,-308.521"/>
</g>
<!-- Node5 -->
<g id="node5" class="node"><title>Node5</title>
<polygon fill="white" stroke="#bfbfbf" points="461.5,-309 461.5,-339 592.5,-339 592.5,-309 461.5,-309"/>
<text text-anchor="start" x="469.5" y="-327" font-family="Helvetica,sans-Serif" font-size="10.00">std::enable_shared</text>
<text text-anchor="middle" x="527" y="-316" font-family="Helvetica,sans-Serif" font-size="10.00">_from_this&lt; BaseObject &gt;</text>
</g>
<!-- Node5&#45;&gt;Node4 -->
<g id="edge4" class="edge"><title>Node5&#45;&gt;Node4</title>
<path fill="none" stroke="midnightblue" d="M602.745,-324C653.946,-324 720.561,-324 766.038,-324"/>
<polygon fill="midnightblue" stroke="midnightblue" points="602.721,-320.5 592.721,-324 602.721,-327.5 602.721,-320.5"/>
</g>
<!-- Node6 -->
<g id="node6" class="node"><title>Node6</title>
<polygon fill="white" stroke="#bfbfbf" points="783.5,-276.5 783.5,-295.5 854.5,-295.5 854.5,-276.5 783.5,-276.5"/>
<text text-anchor="middle" x="819" y="-283.5" font-family="Helvetica,sans-Serif" font-size="10.00">noncopyable</text>
</g>
<!-- Node6&#45;&gt;Node3 -->
<g id="edge5" class="edge"><title>Node6&#45;&gt;Node3</title>
<path fill="none" stroke="midnightblue" d="M865.051,-282.145C895.415,-279.547 935.199,-276.143 964.922,-273.6"/>
<polygon fill="midnightblue" stroke="midnightblue" points="864.4,-278.688 854.735,-283.028 864.997,-285.663 864.4,-278.688"/>
</g>
<!-- Node7 -->
<g id="node7" class="node"><title>Node7</title>
<g id="a_node7"><a xlink:href="classfwTools_1_1fwID.html" target="_top" xlink:title="Defines ID for fwTools::Object. It is used to associate ID with object. ">
<polygon fill="white" stroke="black" points="780,-238.5 780,-257.5 858,-257.5 858,-238.5 780,-238.5"/>
<text text-anchor="middle" x="819" y="-245.5" font-family="Helvetica,sans-Serif" font-size="10.00">fwTools::fwID</text>
</a>
</g>
</g>
<!-- Node7&#45;&gt;Node3 -->
<g id="edge6" class="edge"><title>Node7&#45;&gt;Node3</title>
<path fill="none" stroke="darkgreen" d="M868.49,-253.705C898.347,-257.217 936.246,-261.676 964.85,-265.041"/>
<polygon fill="darkgreen" stroke="darkgreen" points="868.634,-250.198 858.293,-252.505 867.816,-257.15 868.634,-250.198"/>
</g>
<!-- Node8 -->
<g id="node8" class="node"><title>Node8</title>
<g id="a_node8"><a xlink:href="classfwCom_1_1HasSignals.html" target="_top" xlink:title="This class proposes a mapping between a SignalKeyType and a SignalBase. ">
<polygon fill="white" stroke="black" points="956,-200.5 956,-219.5 1060,-219.5 1060,-200.5 956,-200.5"/>
<text text-anchor="middle" x="1008" y="-207.5" font-family="Helvetica,sans-Serif" font-size="10.00">fwCom::HasSignals</text>
</a>
</g>
</g>
<!-- Node8&#45;&gt;Node2 -->
<g id="edge7" class="edge"><title>Node8&#45;&gt;Node2</title>
<path fill="none" stroke="midnightblue" d="M1070.34,-202.359C1104.94,-197.903 1148.93,-191.993 1188,-186 1201.12,-183.988 1215.4,-181.59 1228.26,-179.352"/>
<polygon fill="midnightblue" stroke="midnightblue" points="1069.86,-198.892 1060.38,-203.635 1070.75,-205.835 1069.86,-198.892"/>
</g>
<!-- Node9 -->
<g id="node9" class="node"><title>Node9</title>
<g id="a_node9"><a xlink:href="classfwCom_1_1Signals.html" target="_top" xlink:title="This class proposes a mapping between a SignalKeyType and a SignalBase. ">
<polygon fill="white" stroke="black" points="776,-200.5 776,-219.5 862,-219.5 862,-200.5 776,-200.5"/>
<text text-anchor="middle" x="819" y="-207.5" font-family="Helvetica,sans-Serif" font-size="10.00">fwCom::Signals</text>
</a>
</g>
</g>
<!-- Node9&#45;&gt;Node8 -->
<g id="edge8" class="edge"><title>Node9&#45;&gt;Node8</title>
<path fill="none" stroke="#9a32cd" stroke-dasharray="5,2" d="M872.499,-210C898.543,-210 929.878,-210 955.749,-210"/>
<polygon fill="#9a32cd" stroke="#9a32cd" points="872.433,-206.5 862.433,-210 872.433,-213.5 872.433,-206.5"/>
<text text-anchor="middle" x="914" y="-213" font-family="Helvetica,sans-Serif" font-size="10.00"> m_signals</text>
</g>
<!-- Node10 -->
<g id="node10" class="node"><title>Node10</title>
<polygon fill="white" stroke="#bfbfbf" points="446.5,-195 446.5,-225 607.5,-225 607.5,-195 446.5,-195"/>
<text text-anchor="start" x="454.5" y="-213" font-family="Helvetica,sans-Serif" font-size="10.00">std::map&lt; SignalKeyType,</text>
<text text-anchor="middle" x="527" y="-202" font-family="Helvetica,sans-Serif" font-size="10.00"> std::shared_ptr&lt; SignalBase &gt; &gt;</text>
</g>
<!-- Node10&#45;&gt;Node9 -->
<g id="edge9" class="edge"><title>Node10&#45;&gt;Node9</title>
<path fill="none" stroke="#9a32cd" stroke-dasharray="5,2" d="M617.657,-210C670.314,-210 734.429,-210 775.713,-210"/>
<polygon fill="#9a32cd" stroke="#9a32cd" points="617.627,-206.5 607.627,-210 617.627,-213.5 617.627,-206.5"/>
<text text-anchor="middle" x="687" y="-213" font-family="Helvetica,sans-Serif" font-size="10.00"> m_signals</text>
</g>
<!-- Node11 -->
<g id="node11" class="node"><title>Node11</title>
<g id="a_node11"><a xlink:title="STL class. ">
<polygon fill="white" stroke="#bfbfbf" points="198,-207.5 198,-226.5 258,-226.5 258,-207.5 198,-207.5"/>
<text text-anchor="middle" x="228" y="-214.5" font-family="Helvetica,sans-Serif" font-size="10.00">std::string</text>
</a>
</g>
</g>
<!-- Node11&#45;&gt;Node10 -->
<g id="edge10" class="edge"><title>Node11&#45;&gt;Node10</title>
<path fill="none" stroke="#9a32cd" stroke-dasharray="5,2" d="M268.268,-216.074C313.403,-215.011 388.655,-213.237 446.226,-211.88"/>
<polygon fill="#9a32cd" stroke="#9a32cd" points="267.933,-212.581 258.018,-216.316 268.098,-219.579 267.933,-212.581"/>
<text text-anchor="middle" x="363" y="-218" font-family="Helvetica,sans-Serif" font-size="10.00"> keys</text>
</g>
<!-- Node16 -->
<g id="node16" class="node"><title>Node16</title>
<polygon fill="white" stroke="#bfbfbf" points="459.5,-127.5 459.5,-168.5 594.5,-168.5 594.5,-127.5 459.5,-127.5"/>
<text text-anchor="start" x="467.5" y="-156.5" font-family="Helvetica,sans-Serif" font-size="10.00">std::unordered_map</text>
<text text-anchor="start" x="467.5" y="-145.5" font-family="Helvetica,sans-Serif" font-size="10.00">&lt; FieldNameType,::fwData</text>
<text text-anchor="middle" x="527" y="-134.5" font-family="Helvetica,sans-Serif" font-size="10.00">::Object::sptr &gt;</text>
</g>
<!-- Node11&#45;&gt;Node16 -->
<g id="edge16" class="edge"><title>Node11&#45;&gt;Node16</title>
<path fill="none" stroke="#9a32cd" stroke-dasharray="5,2" d="M267.573,-203.741C272.048,-201.254 276.319,-198.356 280,-195 292.345,-183.743 283.902,-170.965 298,-162 345.688,-131.676 410.931,-130.773 459.41,-135.934"/>
<polygon fill="#9a32cd" stroke="#9a32cd" points="265.69,-200.765 258.228,-208.286 268.752,-207.06 265.69,-200.765"/>
<text text-anchor="middle" x="363" y="-165" font-family="Helvetica,sans-Serif" font-size="10.00"> keys</text>
</g>
<!-- Node12 -->
<g id="node12" class="node"><title>Node12</title>
<g id="a_node12"><a xlink:title="STL class. ">
<polygon fill="white" stroke="#bfbfbf" points="0.5,-202 0.5,-232 95.5,-232 95.5,-202 0.5,-202"/>
<text text-anchor="start" x="8.5" y="-220" font-family="Helvetica,sans-Serif" font-size="10.00">std::basic_string&lt;</text>
<text text-anchor="middle" x="48" y="-209" font-family="Helvetica,sans-Serif" font-size="10.00"> char &gt;</text>
</a>
</g>
</g>
<!-- Node12&#45;&gt;Node11 -->
<g id="edge11" class="edge"><title>Node12&#45;&gt;Node11</title>
<path fill="none" stroke="midnightblue" d="M105.897,-217C136.5,-217 172.952,-217 197.812,-217"/>
<polygon fill="midnightblue" stroke="midnightblue" points="105.767,-213.5 95.7674,-217 105.767,-220.5 105.767,-213.5"/>
</g>
<!-- Node13 -->
<g id="node13" class="node"><title>Node13</title>
<g id="a_node13"><a xlink:title="STL class. ">
<polygon fill="white" stroke="#bfbfbf" points="182,-166.5 182,-185.5 274,-185.5 274,-166.5 182,-166.5"/>
<text text-anchor="middle" x="228" y="-173.5" font-family="Helvetica,sans-Serif" font-size="10.00">std::map&lt; K, T &gt;</text>
</a>
</g>
</g>
<!-- Node13&#45;&gt;Node10 -->
<g id="edge12" class="edge"><title>Node13&#45;&gt;Node10</title>
<path fill="none" stroke="orange" stroke-dasharray="5,2" d="M284.392,-175.972C324.469,-176.635 379.824,-178.956 428,-186 442.559,-188.129 458.115,-191.445 472.446,-194.939"/>
<polygon fill="orange" stroke="orange" points="284.334,-172.471 274.288,-175.835 284.239,-179.471 284.334,-172.471"/>
<text text-anchor="start" x="298.5" y="-200" font-family="Helvetica,sans-Serif" font-size="10.00"> &lt; SignalKeyType, std</text>
<text text-anchor="middle" x="363" y="-189" font-family="Helvetica,sans-Serif" font-size="10.00">::shared_ptr&lt; SignalBase &gt; &gt;</text>
</g>
<!-- Node14 -->
<g id="node14" class="node"><title>Node14</title>
<polygon fill="white" stroke="#bfbfbf" points="33.5,-133.5 33.5,-152.5 62.5,-152.5 62.5,-133.5 33.5,-133.5"/>
<text text-anchor="middle" x="48" y="-140.5" font-family="Helvetica,sans-Serif" font-size="10.00">K</text>
</g>
<!-- Node14&#45;&gt;Node13 -->
<g id="edge13" class="edge"><title>Node14&#45;&gt;Node13</title>
<path fill="none" stroke="#9a32cd" stroke-dasharray="5,2" d="M72.6583,-147.386C100.425,-152.534 147.087,-161.185 181.85,-167.63"/>
<polygon fill="#9a32cd" stroke="#9a32cd" points="73.1423,-143.916 62.6718,-145.535 71.8662,-150.799 73.1423,-143.916"/>
<text text-anchor="middle" x="136" y="-166" font-family="Helvetica,sans-Serif" font-size="10.00"> keys</text>
</g>
<!-- Node17 -->
<g id="node17" class="node"><title>Node17</title>
<g id="a_node17"><a xlink:title="STL class. ">
<polygon fill="white" stroke="#bfbfbf" points="176.5,-88 176.5,-118 279.5,-118 279.5,-88 176.5,-88"/>
<text text-anchor="start" x="184.5" y="-106" font-family="Helvetica,sans-Serif" font-size="10.00">std::unordered_map</text>
<text text-anchor="middle" x="228" y="-95" font-family="Helvetica,sans-Serif" font-size="10.00">&lt; K, T &gt;</text>
</a>
</g>
</g>
<!-- Node14&#45;&gt;Node17 -->
<g id="edge18" class="edge"><title>Node14&#45;&gt;Node17</title>
<path fill="none" stroke="#9a32cd" stroke-dasharray="5,2" d="M71.2536,-128.308C83.3686,-121.114 98.9272,-113.131 114,-109 133.989,-103.522 156.694,-101.54 176.482,-101.103"/>
<polygon fill="#9a32cd" stroke="#9a32cd" points="69.3926,-125.343 62.7255,-133.577 73.0723,-131.298 69.3926,-125.343"/>
<text text-anchor="middle" x="136" y="-112" font-family="Helvetica,sans-Serif" font-size="10.00"> keys</text>
</g>
<!-- Node15 -->
<g id="node15" class="node"><title>Node15</title>
<polygon fill="white" stroke="#bfbfbf" points="33.5,-64.5 33.5,-83.5 62.5,-83.5 62.5,-64.5 33.5,-64.5"/>
<text text-anchor="middle" x="48" y="-71.5" font-family="Helvetica,sans-Serif" font-size="10.00">T</text>
</g>
<!-- Node15&#45;&gt;Node13 -->
<g id="edge14" class="edge"><title>Node15&#45;&gt;Node13</title>
<path fill="none" stroke="#9a32cd" stroke-dasharray="5,2" d="M69.8348,-90.1214C82.2969,-99.4105 98.6479,-110.993 114,-120 132.689,-130.965 138.558,-131.431 158,-141 175.113,-149.423 194.471,-159.27 208.318,-166.37"/>
<polygon fill="#9a32cd" stroke="#9a32cd" points="71.6051,-87.0721 61.5177,-83.8325 67.3832,-92.6556 71.6051,-87.0721"/>
<text text-anchor="middle" x="136" y="-144" font-family="Helvetica,sans-Serif" font-size="10.00"> elements</text>
</g>
<!-- Node15&#45;&gt;Node17 -->
<g id="edge19" class="edge"><title>Node15&#45;&gt;Node17</title>
<path fill="none" stroke="#9a32cd" stroke-dasharray="5,2" d="M72.7811,-71.6798C95.041,-70.1033 129.107,-69.2233 158,-75 171.184,-77.636 185.044,-82.7513 196.854,-87.8965"/>
<polygon fill="#9a32cd" stroke="#9a32cd" points="72.2744,-68.2094 62.5916,-72.5097 72.8428,-75.1863 72.2744,-68.2094"/>
<text text-anchor="middle" x="136" y="-78" font-family="Helvetica,sans-Serif" font-size="10.00"> elements</text>
</g>
<!-- Node20 -->
<g id="node20" class="node"><title>Node20</title>
<g id="a_node20"><a xlink:title="STL class. ">
<polygon fill="white" stroke="#bfbfbf" points="184.5,-24.5 184.5,-43.5 271.5,-43.5 271.5,-24.5 184.5,-24.5"/>
<text text-anchor="middle" x="228" y="-31.5" font-family="Helvetica,sans-Serif" font-size="10.00">std::vector&lt; T &gt;</text>
</a>
</g>
</g>
<!-- Node15&#45;&gt;Node20 -->
<g id="edge23" class="edge"><title>Node15&#45;&gt;Node20</title>
<path fill="none" stroke="#9a32cd" stroke-dasharray="5,2" d="M72.5269,-67.0088C84.8247,-63.4756 100.16,-59.2584 114,-56 137.151,-50.5496 163.196,-45.4126 184.442,-41.4754"/>
<polygon fill="#9a32cd" stroke="#9a32cd" points="71.2374,-63.7389 62.6156,-69.8964 73.1955,-70.4595 71.2374,-63.7389"/>
<text text-anchor="middle" x="136" y="-59" font-family="Helvetica,sans-Serif" font-size="10.00"> elements</text>
</g>
<!-- Node16&#45;&gt;Node2 -->
<g id="edge15" class="edge"><title>Node16&#45;&gt;Node2</title>
<path fill="none" stroke="#9a32cd" stroke-dasharray="5,2" d="M605.18,-150.5C761.154,-155.552 1109.16,-166.823 1228.17,-170.678"/>
<polygon fill="#9a32cd" stroke="#9a32cd" points="604.846,-146.987 594.738,-150.162 604.619,-153.984 604.846,-146.987"/>
<text text-anchor="middle" x="914" y="-165" font-family="Helvetica,sans-Serif" font-size="10.00"> m_fields</text>
</g>
<!-- Node17&#45;&gt;Node16 -->
<g id="edge17" class="edge"><title>Node17&#45;&gt;Node16</title>
<path fill="none" stroke="orange" stroke-dasharray="5,2" d="M289.595,-96.8477C329.392,-94.3802 382.341,-94.1002 428,-104 449.507,-108.663 472.009,-118.376 490.019,-127.492"/>
<polygon fill="orange" stroke="orange" points="289.252,-93.3629 279.514,-97.5366 289.729,-100.347 289.252,-93.3629"/>
<text text-anchor="start" x="302" y="-118" font-family="Helvetica,sans-Serif" font-size="10.00"> &lt; FieldNameType,::fwData</text>
<text text-anchor="middle" x="363" y="-107" font-family="Helvetica,sans-Serif" font-size="10.00">::Object::sptr &gt;</text>
</g>
<!-- Node18 -->
<g id="node18" class="node"><title>Node18</title>
<polygon fill="white" stroke="#bfbfbf" points="987.5,-65.5 987.5,-84.5 1028.5,-84.5 1028.5,-65.5 987.5,-65.5"/>
<text text-anchor="middle" x="1008" y="-72.5" font-family="Helvetica,sans-Serif" font-size="10.00">static</text>
</g>
<!-- Node18&#45;&gt;Node1 -->
<g id="edge24" class="edge"><title>Node18&#45;&gt;Node1</title>
<path fill="none" stroke="#9a32cd" stroke-dasharray="5,2" d="M1038.71,-73.6847C1050.89,-73.1519 1065.12,-72.5368 1078,-72 1181.89,-67.6696 1303.09,-62.8974 1372.46,-60.1927"/>
<polygon fill="#9a32cd" stroke="#9a32cd" points="1038.47,-70.1922 1028.63,-74.1278 1038.77,-77.1854 1038.47,-70.1922"/>
<text text-anchor="middle" x="1270" y="-81" font-family="Helvetica,sans-Serif" font-size="10.00"> s_ADDED_SERIES_SIG</text>
<text text-anchor="middle" x="1270" y="-70" font-family="Helvetica,sans-Serif" font-size="10.00">s_REMOVED_SERIES_SIG</text>
</g>
<!-- Node18&#45;&gt;Node2 -->
<g id="edge20" class="edge"><title>Node18&#45;&gt;Node2</title>
<path fill="none" stroke="#9a32cd" stroke-dasharray="5,2" d="M1038.74,-71.9319C1075.6,-69.415 1139.48,-69.3369 1188,-92 1222.2,-107.975 1250.46,-144.645 1262.6,-162.236"/>
<polygon fill="#9a32cd" stroke="#9a32cd" points="1038.34,-68.4518 1028.65,-72.729 1038.9,-75.4301 1038.34,-68.4518"/>
<text text-anchor="middle" x="1133" y="-150" font-family="Helvetica,sans-Serif" font-size="10.00"> s_MODIFIED_SIG</text>
<text text-anchor="start" x="1078" y="-139" font-family="Helvetica,sans-Serif" font-size="10.00">s_REMOVED_FIELDS</text>
<text text-anchor="middle" x="1133" y="-128" font-family="Helvetica,sans-Serif" font-size="10.00">_SIG</text>
<text text-anchor="start" x="1078" y="-117" font-family="Helvetica,sans-Serif" font-size="10.00">s_CHANGED_FIELDS</text>
<text text-anchor="middle" x="1133" y="-106" font-family="Helvetica,sans-Serif" font-size="10.00">_SIG</text>
<text text-anchor="middle" x="1133" y="-95" font-family="Helvetica,sans-Serif" font-size="10.00">s_ADDED_FIELDS_SIG</text>
</g>
<!-- Node19 -->
<g id="node19" class="node"><title>Node19</title>
<polygon fill="white" stroke="#bfbfbf" points="626.5,-0 626.5,-30 747.5,-30 747.5,-0 626.5,-0"/>
<text text-anchor="start" x="634.5" y="-18" font-family="Helvetica,sans-Serif" font-size="10.00">std::vector&lt; std::shared</text>
<text text-anchor="middle" x="687" y="-7" font-family="Helvetica,sans-Serif" font-size="10.00">_ptr&lt; Series &gt; &gt;</text>
</g>
<!-- Node19&#45;&gt;Node1 -->
<g id="edge21" class="edge"><title>Node19&#45;&gt;Node1</title>
<path fill="none" stroke="#9a32cd" stroke-dasharray="5,2" d="M757.798,-13.5901C802.227,-12.8113 860.992,-12 913,-12 913,-12 913,-12 1271,-12 1322.71,-12 1380.28,-34.9951 1409.58,-48.4688"/>
<polygon fill="#9a32cd" stroke="#9a32cd" points="757.622,-10.0926 747.687,-13.7711 757.748,-17.0915 757.622,-10.0926"/>
<text text-anchor="middle" x="1008" y="-15" font-family="Helvetica,sans-Serif" font-size="10.00"> m_container</text>
</g>
<!-- Node20&#45;&gt;Node19 -->
<g id="edge22" class="edge"><title>Node20&#45;&gt;Node19</title>
<path fill="none" stroke="orange" stroke-dasharray="5,2" d="M281.6,-31.8131C367.214,-28.2537 536.17,-21.2293 626.21,-17.4858"/>
<polygon fill="orange" stroke="orange" points="281.429,-28.3171 271.583,-32.2296 281.72,-35.3111 281.429,-28.3171"/>
<text text-anchor="start" x="321" y="-45" font-family="Helvetica,sans-Serif" font-size="10.00"> &lt; std::shared_ptr&lt;</text>
<text text-anchor="middle" x="363" y="-34" font-family="Helvetica,sans-Serif" font-size="10.00"> Series &gt; &gt;</text>
</g>
</g>
</svg>
        <g id="navigator" transform="translate(0 0)" fill="#404254">
                <rect fill="#f2f5e9" fill-opacity="0.5" stroke="#606060" stroke-width=".5" x="0" y="0" width="60" height="60"/>
                <use id="zoomplus" xlink:href="#zoomPlus" x="17" y="9" onmousedown="handleZoom(evt,'in')"/>
                <use id="zoomminus" xlink:href="#zoomMin" x="42" y="9" onmousedown="handleZoom(evt,'out')"/>
                <use id="reset" xlink:href="#resetDef" x="30" y="36" onmousedown="handleReset()"/>
                <g id="arrowUp" xlink:href="#dirArrow" transform="translate(30 24)" onmousedown="handlePan(0,-1)">
                  <use xlink:href="#rim" fill="#404040">
                        <set attributeName="fill" to="#808080" begin="arrowUp.mouseover" end="arrowUp.mouseout"/>
                  </use>
                  <path fill="none" stroke="white" stroke-width="1.5" d="M0,-3.0v7 M-2.5,-0.5L0,-3.0L2.5,-0.5"/>
                </g>
                <g id="arrowRight" xlink:href="#dirArrow" transform="rotate(90) translate(36 -43)" onmousedown="handlePan(1,0)">
                  <use xlink:href="#rim" fill="#404040">
                        <set attributeName="fill" to="#808080" begin="arrowRight.mouseover" end="arrowRight.mouseout"/>
                  </use>
                  <path fill="none" stroke="white" stroke-width="1.5" d="M0,-3.0v7 M-2.5,-0.5L0,-3.0L2.5,-0.5"/>
                </g>
                <g id="arrowDown" xlink:href="#dirArrow" transform="rotate(180) translate(-30 -48)" onmousedown="handlePan(0,1)">
                  <use xlink:href="#rim" fill="#404040">
                        <set attributeName="fill" to="#808080" begin="arrowDown.mouseover" end="arrowDown.mouseout"/>
                  </use>
                  <path fill="none" stroke="white" stroke-width="1.5" d="M0,-3.0v7 M-2.5,-0.5L0,-3.0L2.5,-0.5"/>
                </g>
                <g id="arrowLeft" xlink:href="#dirArrow" transform="rotate(270) translate(-36 17)" onmousedown="handlePan(-1,0)">
                  <use xlink:href="#rim" fill="#404040">
                        <set attributeName="fill" to="#808080" begin="arrowLeft.mouseover" end="arrowLeft.mouseout"/>
                  </use>
                  <path fill="none" stroke="white" stroke-width="1.5" d="M0,-3.0v7 M-2.5,-0.5L0,-3.0L2.5,-0.5"/>
                </g>
        </g>
        <svg viewBox="0 0 15 15" width="100%" height="30px" preserveAspectRatio="xMaxYMin meet">
         <g id="arrow_out" transform="scale(0.3 0.3)">
          <a xlink:href="classfwMedData_1_1SeriesDB__coll__graph_org.svg" target="_base">
           <rect id="button" ry="5" rx="5" y="6" x="6" height="38" width="38"
                fill="#f2f5e9" fill-opacity="0.5" stroke="#606060" stroke-width="1.0"/>
           <path id="arrow"
             d="M 11.500037,31.436501 C 11.940474,20.09759 22.043105,11.32322 32.158766,21.979434 L 37.068811,17.246167 C 37.068811,17.246167 37.088388,32 37.088388,32 L 22.160133,31.978069 C 22.160133,31.978069 26.997745,27.140456 26.997745,27.140456 C 18.528582,18.264221 13.291696,25.230495 11.500037,31.436501 z"
             style="fill:#404040;"/>
          </a>
         </g>
        </svg>
</svg>
