<?xml version="1.0" encoding="UTF-8" standalone="no"?>
<!DOCTYPE svg PUBLIC "-//W3C//DTD SVG 1.1//EN"
 "http://www.w3.org/Graphics/SVG/1.1/DTD/svg11.dtd">
<!-- Generated by graphviz version 2.26.3 (20100126.1600)
 -->
<!-- Title: fwGdcmIO::container::sr::DicomSRContainerNode Pages: 1 -->
<!--zoomable 163 -->
<svg id="main" version="1.1" xmlns="http://www.w3.org/2000/svg" xmlns:xlink="http://www.w3.org/1999/xlink" xml:space="preserve" onload="init(evt)">
<style type="text/css"><![CDATA[
.edge:hover path { stroke: red; }
.edge:hover polygon { stroke: red; fill: red; }
]]></style>
<script type="text/javascript"><![CDATA[
var edges = document.getElementsByTagName('g');
if (edges && edges.length) {
  for (var i=0;i<edges.length;i++) {
    if (edges[i].id.substr(0,4)=='edge') {
      edges[i].setAttribute('class','edge');
    }
  }
}
]]></script>
        <defs>
                <circle id="rim" cx="0" cy="0" r="7"/>
                <circle id="rim2" cx="0" cy="0" r="3.5"/>
                <g id="zoomPlus">
                        <use xlink:href="#rim" fill="#404040">
                                <set attributeName="fill" to="#808080" begin="zoomplus.mouseover" end="zoomplus.mouseout"/>
                        </use>
                        <path d="M-4,0h8M0,-4v8" fill="none" stroke="white" stroke-width="1.5" pointer-events="none"/>
                </g>
                <g id="zoomMin">
                        <use xlink:href="#rim" fill="#404040">
                                <set attributeName="fill" to="#808080" begin="zoomminus.mouseover" end="zoomminus.mouseout"/>
                        </use>
                        <path d="M-4,0h8" fill="none" stroke="white" stroke-width="1.5" pointer-events="none"/>
                </g>
                <g id="dirArrow">
                        <path fill="none" stroke="white" stroke-width="1.5" d="M0,-3.0v7 M-2.5,-0.5L0,-3.0L2.5,-0.5"/>
                </g>
               <g id="resetDef">
                       <use xlink:href="#rim2" fill="#404040">
                               <set attributeName="fill" to="#808080" begin="reset.mouseover" end="reset.mouseout"/>
                       </use>
               </g>
        </defs>

<script type="text/javascript">
var viewWidth = 988;
var viewHeight = 163;
var sectionId = 'dynsection-1';
</script>
<script xlink:href="svgpan.js"/>
<svg id="graph" class="graph">
<g id="viewport">
<title>fwGdcmIO::container::sr::DicomSRContainerNode</title>
<polygon fill="white" stroke="white" points="-4,5 -4,-159 985,-159 985,5 -4,5"/>
<!-- Node1 -->
<g id="node1" class="node"><title>Node1</title>
<polygon fill="#bfbfbf" stroke="black" points="834.5,-52 834.5,-86 979.5,-86 979.5,-52 834.5,-52"/>
<text text-anchor="start" x="842.5" y="-73" font-family="Helvetica,sans-Serif" font-size="10.00">fwGdcmIO::container</text>
<text text-anchor="middle" x="907" y="-60" font-family="Helvetica,sans-Serif" font-size="10.00">::sr::DicomSRContainerNode</text>
</g>
<!-- Node2 -->
<g id="node2" class="node"><title>Node2</title>
<a xlink:href="classfwGdcmIO_1_1container_1_1sr_1_1DicomSRNode.html" target="_top" xlink:title="This class defines a node in a SR document. ">
<polygon fill="white" stroke="black" points="686,-52 686,-86 796,-86 796,-52 686,-52"/>
<text text-anchor="start" x="694" y="-73" font-family="Helvetica,sans-Serif" font-size="10.00">fwGdcmIO::container</text>
<text text-anchor="middle" x="741" y="-60" font-family="Helvetica,sans-Serif" font-size="10.00">::sr::DicomSRNode</text>
</a>
</g>
<!-- Node2&#45;&gt;Node1 -->
<g id="edge2" class="edge"><title>Node2&#45;&gt;Node1</title>
<path fill="none" stroke="midnightblue" d="M806.432,-69C815.563,-69 824.99,-69 834.245,-69"/>
<polygon fill="midnightblue" stroke="midnightblue" points="806.276,-65.5001 796.276,-69 806.276,-72.5001 806.276,-65.5001"/>
</g>
<!-- Node3 -->
<g id="node4" class="node"><title>Node3</title>
<a xlink:href="classfwGdcmIO_1_1container_1_1DicomCodedAttribute.html" target="_top" xlink:title="This class defines a coded entry of a SR. ">
<polygon fill="white" stroke="black" points="431,-52 431,-86 547,-86 547,-52 431,-52"/>
<text text-anchor="start" x="439" y="-73" font-family="Helvetica,sans-Serif" font-size="10.00">fwGdcmIO::container</text>
<text text-anchor="middle" x="489" y="-60" font-family="Helvetica,sans-Serif" font-size="10.00">::DicomCodedAttribute</text>
</a>
</g>
<!-- Node3&#45;&gt;Node2 -->
<g id="edge4" class="edge"><title>Node3&#45;&gt;Node2</title>
<path fill="none" stroke="#9a32cd" stroke-dasharray="5,2" d="M557.153,-69C597.486,-69 647.918,-69 685.755,-69"/>
<polygon fill="#9a32cd" stroke="#9a32cd" points="557.13,-65.5001 547.13,-69 557.13,-72.5001 557.13,-65.5001"/>
<text text-anchor="middle" x="619" y="-73" font-family="Helvetica,sans-Serif" font-size="10.00"> m_codedAttribute</text>
</g>
<!-- Node4 -->
<g id="node6" class="node"><title>Node4</title>
<a xlink:title="STL class. ">
<polygon fill="white" stroke="#bfbfbf" points="190,-89.5 190,-110.5 250,-110.5 250,-89.5 190,-89.5"/>
<text text-anchor="middle" x="220" y="-97.5" font-family="Helvetica,sans-Serif" font-size="10.00">std::string</text>
</a>
</g>
<!-- Node4&#45;&gt;Node2 -->
<g id="edge10" class="edge"><title>Node4&#45;&gt;Node2</title>
<path fill="none" stroke="#9a32cd" stroke-dasharray="5,2" d="M255.96,-113.685C264.382,-116.304 273.408,-118.648 282,-120 452.128,-146.761 498.545,-116.733 668,-86 673.762,-84.955 679.753,-83.7521 685.716,-82.4791"/>
<polygon fill="#9a32cd" stroke="#9a32cd" points="257.004,-110.344 246.411,-110.528 254.807,-116.99 257.004,-110.344"/>
<text text-anchor="middle" x="489" y="-146" font-family="Helvetica,sans-Serif" font-size="10.00"> m_relationship</text>
<text text-anchor="middle" x="489" y="-133" font-family="Helvetica,sans-Serif" font-size="10.00">m_type</text>
</g>
<!-- Node4&#45;&gt;Node3 -->
<g id="edge6" class="edge"><title>Node4&#45;&gt;Node3</title>
<path fill="none" stroke="#9a32cd" stroke-dasharray="5,2" d="M244.121,-84.1393C255.181,-77.7851 268.758,-71.2158 282,-68 331.067,-56.0844 388.626,-57.5492 430.576,-61.2965"/>
<polygon fill="#9a32cd" stroke="#9a32cd" points="242.24,-81.1862 235.485,-89.348 245.855,-87.1803 242.24,-81.1862"/>
<text text-anchor="middle" x="345" y="-111" font-family="Helvetica,sans-Serif" font-size="10.00"> m_codeMeaning</text>
<text text-anchor="middle" x="345" y="-98" font-family="Helvetica,sans-Serif" font-size="10.00">m_codingSchemeVersion</text>
<text text-anchor="middle" x="345" y="-85" font-family="Helvetica,sans-Serif" font-size="10.00">m_codingSchemeDesignator</text>
<text text-anchor="middle" x="345" y="-72" font-family="Helvetica,sans-Serif" font-size="10.00">m_codeValue</text>
</g>
<!-- Node5 -->
<g id="node8" class="node"><title>Node5</title>
<a xlink:title="STL class. ">
<polygon fill="white" stroke="#bfbfbf" points="0.5,-83 0.5,-117 95.5,-117 95.5,-83 0.5,-83"/>
<text text-anchor="start" x="8.5" y="-104" font-family="Helvetica,sans-Serif" font-size="10.00">std::basic_string&lt;</text>
<text text-anchor="middle" x="48" y="-91" font-family="Helvetica,sans-Serif" font-size="10.00"> char &gt;</text>
</a>
</g>
<!-- Node5&#45;&gt;Node4 -->
<g id="edge8" class="edge"><title>Node5&#45;&gt;Node4</title>
<path fill="none" stroke="midnightblue" d="M106.049,-100C134.184,-100 166.797,-100 189.906,-100"/>
<polygon fill="midnightblue" stroke="midnightblue" points="105.912,-96.5001 95.9116,-100 105.912,-103.5 105.912,-96.5001"/>
</g>
<!-- Node6 -->
<g id="node11" class="node"><title>Node6</title>
<polygon fill="white" stroke="#bfbfbf" points="426,-0 426,-34 552,-34 552,-0 426,-0"/>
<text text-anchor="start" x="434" y="-21" font-family="Helvetica,sans-Serif" font-size="10.00">std::vector&lt; std::shared</text>
<text text-anchor="middle" x="489" y="-8" font-family="Helvetica,sans-Serif" font-size="10.00">_ptr&lt; DicomSRNode &gt; &gt;</text>
</g>
<!-- Node6&#45;&gt;Node2 -->
<g id="edge12" class="edge"><title>Node6&#45;&gt;Node2</title>
<path fill="none" stroke="#9a32cd" stroke-dasharray="5,2" d="M561.951,-30.6529C594.466,-36.8957 633.205,-44.5493 668,-52 673.726,-53.2261 679.694,-54.5464 685.643,-55.89"/>
<polygon fill="#9a32cd" stroke="#9a32cd" points="562.55,-27.2042 552.071,-28.7626 561.235,-34.0795 562.55,-27.2042"/>
<text text-anchor="middle" x="619" y="-56" font-family="Helvetica,sans-Serif" font-size="10.00"> m_subNodeContainer</text>
</g>
<!-- Node7 -->
<g id="node13" class="node"><title>Node7</title>
<a xlink:title="STL class. ">
<polygon fill="white" stroke="#bfbfbf" points="176.5,-6.5 176.5,-27.5 263.5,-27.5 263.5,-6.5 176.5,-6.5"/>
<text text-anchor="middle" x="220" y="-14.5" font-family="Helvetica,sans-Serif" font-size="10.00">std::vector&lt; T &gt;</text>
</a>
</g>
<!-- Node7&#45;&gt;Node6 -->
<g id="edge14" class="edge"><title>Node7&#45;&gt;Node6</title>
<path fill="none" stroke="orange" stroke-dasharray="5,2" d="M273.705,-17C317.596,-17 379.725,-17 425.969,-17"/>
<polygon fill="orange" stroke="orange" points="273.519,-13.5001 263.518,-17 273.518,-20.5001 273.519,-13.5001"/>
<text text-anchor="start" x="301" y="-34" font-family="Helvetica,sans-Serif" font-size="10.00"> &lt; std::shared_ptr&lt;</text>
<text text-anchor="middle" x="345" y="-21" font-family="Helvetica,sans-Serif" font-size="10.00"> DicomSRNode &gt; &gt;</text>
</g>
<!-- Node8 -->
<g id="node15" class="node"><title>Node8</title>
<polygon fill="white" stroke="#bfbfbf" points="33.5,-6.5 33.5,-27.5 62.5,-27.5 62.5,-6.5 33.5,-6.5"/>
<text text-anchor="middle" x="48" y="-14.5" font-family="Helvetica,sans-Serif" font-size="10.00">T</text>
</g>
<!-- Node8&#45;&gt;Node7 -->
<g id="edge16" class="edge"><title>Node8&#45;&gt;Node7</title>
<path fill="none" stroke="#9a32cd" stroke-dasharray="5,2" d="M72.7886,-17C99.7525,-17 143.383,-17 176.159,-17"/>
<polygon fill="#9a32cd" stroke="#9a32cd" points="72.6647,-13.5001 62.6646,-17 72.6646,-20.5001 72.6647,-13.5001"/>
<text text-anchor="middle" x="136" y="-21" font-family="Helvetica,sans-Serif" font-size="10.00"> elements</text>
</g>
</g>
</svg>
        <g id="navigator" transform="translate(0 0)" fill="#404254">
                <rect fill="#f2f5e9" fill-opacity="0.5" stroke="#606060" stroke-width=".5" x="0" y="0" width="60" height="60"/>
                <use id="zoomplus" xlink:href="#zoomPlus" x="17" y="9" onmousedown="handleZoom(evt,'in')"/>
                <use id="zoomminus" xlink:href="#zoomMin" x="42" y="9" onmousedown="handleZoom(evt,'out')"/>
                <use id="reset" xlink:href="#resetDef" x="30" y="36" onmousedown="handleReset()"/>
                <g id="arrowUp" xlink:href="#dirArrow" transform="translate(30 24)" onmousedown="handlePan(0,-1)">
                  <use xlink:href="#rim" fill="#404040">
                        <set attributeName="fill" to="#808080" begin="arrowUp.mouseover" end="arrowUp.mouseout"/>
                  </use>
                  <path fill="none" stroke="white" stroke-width="1.5" d="M0,-3.0v7 M-2.5,-0.5L0,-3.0L2.5,-0.5"/>
                </g>
                <g id="arrowRight" xlink:href="#dirArrow" transform="rotate(90) translate(36 -43)" onmousedown="handlePan(1,0)">
                  <use xlink:href="#rim" fill="#404040">
                        <set attributeName="fill" to="#808080" begin="arrowRight.mouseover" end="arrowRight.mouseout"/>
                  </use>
                  <path fill="none" stroke="white" stroke-width="1.5" d="M0,-3.0v7 M-2.5,-0.5L0,-3.0L2.5,-0.5"/>
                </g>
                <g id="arrowDown" xlink:href="#dirArrow" transform="rotate(180) translate(-30 -48)" onmousedown="handlePan(0,1)">
                  <use xlink:href="#rim" fill="#404040">
                        <set attributeName="fill" to="#808080" begin="arrowDown.mouseover" end="arrowDown.mouseout"/>
                  </use>
                  <path fill="none" stroke="white" stroke-width="1.5" d="M0,-3.0v7 M-2.5,-0.5L0,-3.0L2.5,-0.5"/>
                </g>
                <g id="arrowLeft" xlink:href="#dirArrow" transform="rotate(270) translate(-36 17)" onmousedown="handlePan(-1,0)">
                  <use xlink:href="#rim" fill="#404040">
                        <set attributeName="fill" to="#808080" begin="arrowLeft.mouseover" end="arrowLeft.mouseout"/>
                  </use>
                  <path fill="none" stroke="white" stroke-width="1.5" d="M0,-3.0v7 M-2.5,-0.5L0,-3.0L2.5,-0.5"/>
                </g>
        </g>
        <svg viewBox="0 0 15 15" width="100%" height="30px" preserveAspectRatio="xMaxYMin meet">
         <g id="arrow_out" transform="scale(0.3 0.3)">
          <a xlink:href="classfwGdcmIO_1_1container_1_1sr_1_1DicomSRContainerNode__coll__graph_org.svg" target="_base">
           <rect id="button" ry="5" rx="5" y="6" x="6" height="38" width="38"
                fill="#f2f5e9" fill-opacity="0.5" stroke="#606060" stroke-width="1.0"/>
           <path id="arrow"
             d="M 11.500037,31.436501 C 11.940474,20.09759 22.043105,11.32322 32.158766,21.979434 L 37.068811,17.246167 C 37.068811,17.246167 37.088388,32 37.088388,32 L 22.160133,31.978069 C 22.160133,31.978069 26.997745,27.140456 26.997745,27.140456 C 18.528582,18.264221 13.291696,25.230495 11.500037,31.436501 z"
             style="fill:#404040;"/>
          </a>
         </g>
        </svg>
</svg>
