<?xml version="1.0" encoding="UTF-8" standalone="no"?>
<!DOCTYPE svg PUBLIC "-//W3C//DTD SVG 1.1//EN"
 "http://www.w3.org/Graphics/SVG/1.1/DTD/svg11.dtd">
<!-- Generated by graphviz version 2.36.0 (20140111.2315)
 -->
<!-- Title: fwStructuralPatch::fwData::Image::V1ToV2::apply Pages: 1 -->
<svg width="448pt" height="150pt"
 viewBox="0.00 0.00 448.00 150.00" xmlns="http://www.w3.org/2000/svg" xmlns:xlink="http://www.w3.org/1999/xlink">
<g id="graph0" class="graph" transform="scale(1 1) rotate(0) translate(4 146)">
<title>fwStructuralPatch::fwData::Image::V1ToV2::apply</title>
<polygon fill="white" stroke="none" points="-4,4 -4,-146 444,-146 444,4 -4,4"/>
<!-- Node1 -->
<g id="node1" class="node"><title>Node1</title>
<polygon fill="#bfbfbf" stroke="black" points="0,-38.5 0,-79.5 122,-79.5 122,-38.5 0,-38.5"/>
<text text-anchor="start" x="8" y="-67.5" font-family="Helvetica,sans-Serif" font-size="10.00">fwStructuralPatch::</text>
<text text-anchor="start" x="8" y="-56.5" font-family="Helvetica,sans-Serif" font-size="10.00">fwData::Image::V1ToV2</text>
<text text-anchor="middle" x="61" y="-45.5" font-family="Helvetica,sans-Serif" font-size="10.00">::apply</text>
</g>
<!-- Node2 -->
<g id="node2" class="node"><title>Node2</title>
<g id="a_node2"><a xlink:href="classfwAtomsPatch_1_1helper_1_1Object.html#a22c79fb36d0b05c4146c99084f4e29df" target="_top" xlink:title="Adds a new attribute in the current object. ">
<polygon fill="white" stroke="black" points="167.5,-88 167.5,-118 280.5,-118 280.5,-88 167.5,-88"/>
<text text-anchor="start" x="175.5" y="-106" font-family="Helvetica,sans-Serif" font-size="10.00">fwAtomsPatch::helper</text>
<text text-anchor="middle" x="224" y="-95" font-family="Helvetica,sans-Serif" font-size="10.00">::Object::addAttribute</text>
</a>
</g>
</g>
<!-- Node1&#45;&gt;Node2 -->
<g id="edge1" class="edge"><title>Node1&#45;&gt;Node2</title>
<path fill="none" stroke="midnightblue" d="M122.409,-75.5092C134.12,-78.7097 146.437,-82.0759 158.28,-85.3125"/>
<polygon fill="midnightblue" stroke="midnightblue" points="157.523,-88.7341 168.092,-87.9942 159.369,-81.9817 157.523,-88.7341"/>
</g>
<!-- Node5 -->
<g id="node5" class="node"><title>Node5</title>
<g id="a_node5"><a xlink:href="classfwAtoms_1_1Numeric.html#a5eaa3cb6b8d2370fb5001b662a1073ef" target="_top" xlink:title="Build a new numeric type. ">
<polygon fill="white" stroke="black" points="161.5,-49.5 161.5,-68.5 286.5,-68.5 286.5,-49.5 161.5,-49.5"/>
<text text-anchor="middle" x="224" y="-56.5" font-family="Helvetica,sans-Serif" font-size="10.00">fwAtoms::Numeric::New</text>
</a>
</g>
</g>
<!-- Node1&#45;&gt;Node5 -->
<g id="edge4" class="edge"><title>Node1&#45;&gt;Node5</title>
<path fill="none" stroke="midnightblue" d="M122.409,-59C131.878,-59 141.745,-59 151.436,-59"/>
<polygon fill="midnightblue" stroke="midnightblue" points="151.448,-62.5001 161.448,-59 151.448,-55.5001 151.448,-62.5001"/>
</g>
<!-- Node6 -->
<g id="node6" class="node"><title>Node6</title>
<g id="a_node6"><a xlink:href="classfwAtomsPatch_1_1IStructuralPatch.html#a726107d852575ef665641f0c4ea43209" target="_top" xlink:title="Updates the version of the patched object. ">
<polygon fill="white" stroke="black" points="158,-0 158,-30 290,-30 290,-0 158,-0"/>
<text text-anchor="start" x="166" y="-18" font-family="Helvetica,sans-Serif" font-size="10.00">fwAtomsPatch::IStructural</text>
<text text-anchor="middle" x="224" y="-7" font-family="Helvetica,sans-Serif" font-size="10.00">Patch::updateVersion</text>
</a>
</g>
</g>
<!-- Node1&#45;&gt;Node6 -->
<g id="edge5" class="edge"><title>Node1&#45;&gt;Node6</title>
<path fill="none" stroke="midnightblue" d="M122.409,-42.4908C134.12,-39.2903 146.437,-35.9241 158.28,-32.6875"/>
<polygon fill="midnightblue" stroke="midnightblue" points="159.369,-36.0183 168.092,-30.0058 157.523,-29.2659 159.369,-36.0183"/>
</g>
<!-- Node3 -->
<g id="node3" class="node"><title>Node3</title>
<g id="a_node3"><a xlink:href="namespacefwAtomsPatch_1_1helper.html#a49db7036b323f4c23effd6ca3e020996" target="_top" xlink:title="Get classname of an object. ">
<polygon fill="white" stroke="black" points="326.5,-112 326.5,-142 439.5,-142 439.5,-112 326.5,-112"/>
<text text-anchor="start" x="334.5" y="-130" font-family="Helvetica,sans-Serif" font-size="10.00">fwAtomsPatch::helper</text>
<text text-anchor="middle" x="383" y="-119" font-family="Helvetica,sans-Serif" font-size="10.00">::getClassname</text>
</a>
</g>
</g>
<!-- Node2&#45;&gt;Node3 -->
<g id="edge2" class="edge"><title>Node2&#45;&gt;Node3</title>
<path fill="none" stroke="midnightblue" d="M280.794,-111.529C292.247,-113.28 304.405,-115.138 316.172,-116.937"/>
<polygon fill="midnightblue" stroke="midnightblue" points="315.971,-120.447 326.385,-118.498 317.029,-113.527 315.971,-120.447"/>
</g>
<!-- Node4 -->
<g id="node4" class="node"><title>Node4</title>
<g id="a_node4"><a xlink:href="namespacefwAtomsPatch_1_1helper.html#a87463944cf2233827a11abde6cad8635" target="_top" xlink:title="Get version of an object. ">
<polygon fill="white" stroke="black" points="326.5,-63 326.5,-93 439.5,-93 439.5,-63 326.5,-63"/>
<text text-anchor="start" x="334.5" y="-81" font-family="Helvetica,sans-Serif" font-size="10.00">fwAtomsPatch::helper</text>
<text text-anchor="middle" x="383" y="-70" font-family="Helvetica,sans-Serif" font-size="10.00">::getVersion</text>
</a>
</g>
</g>
<!-- Node2&#45;&gt;Node4 -->
<g id="edge3" class="edge"><title>Node2&#45;&gt;Node4</title>
<path fill="none" stroke="midnightblue" d="M280.794,-94.1155C292.247,-92.2919 304.405,-90.356 316.172,-88.4822"/>
<polygon fill="midnightblue" stroke="midnightblue" points="317.06,-91.8849 326.385,-86.8558 315.959,-84.972 317.06,-91.8849"/>
</g>
</g>
</svg>
