<?xml version="1.0" encoding="UTF-8" standalone="no"?>
<!DOCTYPE svg PUBLIC "-//W3C//DTD SVG 1.1//EN"
 "http://www.w3.org/Graphics/SVG/1.1/DTD/svg11.dtd">
<!-- Generated by graphviz version 2.26.3 (20100126.1600)
 -->
<!-- Title: fwComEd::helper::Image::createTransferFunctionPool Pages: 1 -->
<svg width="704pt" height="406pt"
 viewBox="0.00 0.00 704.00 406.00" xmlns="http://www.w3.org/2000/svg" xmlns:xlink="http://www.w3.org/1999/xlink">
<g id="graph1" class="graph" transform="scale(1 1) rotate(0) translate(4 402)">
<title>fwComEd::helper::Image::createTransferFunctionPool</title>
<polygon fill="white" stroke="white" points="-4,5 -4,-402 701,-402 701,5 -4,5"/>
<!-- Node1 -->
<g id="node1" class="node"><title>Node1</title>
<polygon fill="#bfbfbf" stroke="black" points="0.5,-130 0.5,-164 143.5,-164 143.5,-130 0.5,-130"/>
<text text-anchor="start" x="8.5" y="-151" font-family="Helvetica,sans-Serif" font-size="10.00">fwComEd::helper::Image</text>
<text text-anchor="middle" x="72" y="-138" font-family="Helvetica,sans-Serif" font-size="10.00">::createTransferFunctionPool</text>
</g>
<!-- Node2 -->
<g id="node3" class="node"><title>Node2</title>
<a xlink:href="classfwComEd_1_1helper_1_1MedicalImageAdaptor.html#a82c1509bc6a0113a631c234702c67a54" target="_top" xlink:title="Update the transfer function information. ">
<polygon fill="white" stroke="black" points="180.5,-123.5 180.5,-170.5 329.5,-170.5 329.5,-123.5 180.5,-123.5"/>
<text text-anchor="start" x="188.5" y="-157.5" font-family="Helvetica,sans-Serif" font-size="10.00">fwComEd::helper::Medical</text>
<text text-anchor="start" x="188.5" y="-144.5" font-family="Helvetica,sans-Serif" font-size="10.00">ImageAdaptor::updateTransfer</text>
<text text-anchor="middle" x="255" y="-131.5" font-family="Helvetica,sans-Serif" font-size="10.00">Function</text>
</a>
</g>
<!-- Node1&#45;&gt;Node2 -->
<g id="edge2" class="edge"><title>Node1&#45;&gt;Node2</title>
<path fill="none" stroke="midnightblue" d="M153.581,-147C162.54,-147 171.627,-147 180.494,-147"/>
<polygon fill="midnightblue" stroke="midnightblue" points="153.539,-143.5 143.539,-147 153.539,-150.5 153.539,-143.5"/>
</g>
<!-- Node3 -->
<g id="node5" class="node"><title>Node3</title>
<a xlink:href="classscene2D_1_1adaptor_1_1Negato.html#ab581aa5d2b01f9e078c6f6e86cf7a059" target="_top" xlink:title="Pure virtual &#45;&gt; implemented in the subclasses. ">
<polygon fill="white" stroke="black" points="368.5,-312 368.5,-346 499.5,-346 499.5,-312 368.5,-312"/>
<text text-anchor="start" x="376.5" y="-333" font-family="Helvetica,sans-Serif" font-size="10.00">scene2D::adaptor::Negato</text>
<text text-anchor="middle" x="434" y="-320" font-family="Helvetica,sans-Serif" font-size="10.00">::doStart</text>
</a>
</g>
<!-- Node2&#45;&gt;Node3 -->
<g id="edge4" class="edge"><title>Node2&#45;&gt;Node3</title>
<path fill="none" stroke="midnightblue" d="M285.652,-178.166C323.693,-216.844 387.209,-281.425 417.263,-311.983"/>
<polygon fill="midnightblue" stroke="midnightblue" points="287.909,-175.469 278.401,-170.793 282.918,-180.377 287.909,-175.469"/>
</g>
<!-- Node5 -->
<g id="node9" class="node"><title>Node5</title>
<a xlink:href="classscene2D_1_1adaptor_1_1TransferFunction.html#a30a485999be455171cd8318f306d7fc0" target="_top" xlink:title="scene2D::adaptor::Transfer\lFunction::doUpdate">
<polygon fill="white" stroke="black" points="366,-182 366,-216 502,-216 502,-182 366,-182"/>
<text text-anchor="start" x="374" y="-203" font-family="Helvetica,sans-Serif" font-size="10.00">scene2D::adaptor::Transfer</text>
<text text-anchor="middle" x="434" y="-190" font-family="Helvetica,sans-Serif" font-size="10.00">Function::doUpdate</text>
</a>
</g>
<!-- Node2&#45;&gt;Node5 -->
<g id="edge8" class="edge"><title>Node2&#45;&gt;Node5</title>
<path fill="none" stroke="midnightblue" d="M339.33,-171.498C351.498,-175.033 363.794,-178.605 375.315,-181.952"/>
<polygon fill="midnightblue" stroke="midnightblue" points="340.195,-168.105 329.616,-168.676 338.243,-174.827 340.195,-168.105"/>
</g>
<!-- Node11 -->
<g id="node21" class="node"><title>Node11</title>
<a xlink:href="classuiImage_1_1WindowLevel.html#a1b6f272c5e0c02df115981d240d304d8" target="_top" xlink:title="Update editor information from the image. ">
<polygon fill="white" stroke="black" points="376,-78 376,-112 492,-112 492,-78 376,-78"/>
<text text-anchor="start" x="384" y="-99" font-family="Helvetica,sans-Serif" font-size="10.00">uiImage::WindowLevel</text>
<text text-anchor="middle" x="434" y="-86" font-family="Helvetica,sans-Serif" font-size="10.00">::updating</text>
</a>
</g>
<!-- Node2&#45;&gt;Node11 -->
<g id="edge20" class="edge"><title>Node2&#45;&gt;Node11</title>
<path fill="none" stroke="midnightblue" d="M339.453,-122.466C351.775,-118.887 364.225,-115.27 375.865,-111.888"/>
<polygon fill="midnightblue" stroke="midnightblue" points="338.243,-119.173 329.616,-125.324 340.195,-125.895 338.243,-119.173"/>
</g>
<!-- Node14 -->
<g id="node27" class="node"><title>Node14</title>
<a xlink:href="classuiImage_1_1WindowLevel.html#a11dece0c998a2fad0a9cb2d63ef1083a" target="_top" xlink:title="Called when transfer function windowing is modified. ">
<polygon fill="white" stroke="black" points="374.5,-26 374.5,-60 493.5,-60 493.5,-26 374.5,-26"/>
<text text-anchor="start" x="382.5" y="-47" font-family="Helvetica,sans-Serif" font-size="10.00">uiImage::WindowLevel</text>
<text text-anchor="middle" x="434" y="-34" font-family="Helvetica,sans-Serif" font-size="10.00">::updatingTFWindowing</text>
</a>
</g>
<!-- Node2&#45;&gt;Node14 -->
<g id="edge26" class="edge"><title>Node2&#45;&gt;Node14</title>
<path fill="none" stroke="midnightblue" d="M292.295,-117.293C313.16,-101.589 340.116,-82.7685 366,-69 372.026,-65.7947 378.535,-62.7848 385.056,-60.0305"/>
<polygon fill="midnightblue" stroke="midnightblue" points="290.159,-114.52 284.324,-123.363 294.4,-120.089 290.159,-114.52"/>
</g>
<!-- Node4 -->
<g id="node7" class="node"><title>Node4</title>
<a xlink:href="classscene2D_1_1adaptor_1_1Negato.html#a24e98bab91a1c85dc77c215ebdca71aa" target="_top" xlink:title="Pure virtual &#45;&gt; implemented in the subclasses. ">
<polygon fill="white" stroke="black" points="551.5,-364 551.5,-398 682.5,-398 682.5,-364 551.5,-364"/>
<text text-anchor="start" x="559.5" y="-385" font-family="Helvetica,sans-Serif" font-size="10.00">scene2D::adaptor::Negato</text>
<text text-anchor="middle" x="617" y="-372" font-family="Helvetica,sans-Serif" font-size="10.00">::doSwap</text>
</a>
</g>
<!-- Node3&#45;&gt;Node4 -->
<g id="edge6" class="edge"><title>Node3&#45;&gt;Node4</title>
<path fill="none" stroke="midnightblue" d="M503.554,-348.764C521.139,-353.761 539.873,-359.084 556.944,-363.935"/>
<polygon fill="midnightblue" stroke="midnightblue" points="504.497,-345.393 493.921,-346.027 502.584,-352.127 504.497,-345.393"/>
</g>
<!-- Node6 -->
<g id="node11" class="node"><title>Node6</title>
<a xlink:href="classscene2D_1_1adaptor_1_1TransferFunction.html#af58b0c35880641014f0b87e345fb4e60" target="_top" xlink:title="scene2D::adaptor::Transfer\lFunction::doStart">
<polygon fill="white" stroke="black" points="549,-312 549,-346 685,-346 685,-312 549,-312"/>
<text text-anchor="start" x="557" y="-333" font-family="Helvetica,sans-Serif" font-size="10.00">scene2D::adaptor::Transfer</text>
<text text-anchor="middle" x="617" y="-320" font-family="Helvetica,sans-Serif" font-size="10.00">Function::doStart</text>
</a>
</g>
<!-- Node5&#45;&gt;Node6 -->
<g id="edge10" class="edge"><title>Node5&#45;&gt;Node6</title>
<path fill="none" stroke="midnightblue" d="M453.404,-224.316C472.578,-247.743 503.913,-282.022 538,-303 543.411,-306.33 549.295,-309.283 555.331,-311.891"/>
<polygon fill="midnightblue" stroke="midnightblue" points="455.897,-221.829 446.908,-216.221 450.437,-226.21 455.897,-221.829"/>
</g>
<!-- Node7 -->
<g id="node13" class="node"><title>Node7</title>
<a xlink:href="classscene2D_1_1adaptor_1_1TransferFunction.html#add849cc6e389ee0f3deed02c928a12ad" target="_top" xlink:title="Called when transfer function points are modified. ">
<polygon fill="white" stroke="black" points="548.5,-260 548.5,-294 685.5,-294 685.5,-260 548.5,-260"/>
<text text-anchor="start" x="556.5" y="-281" font-family="Helvetica,sans-Serif" font-size="10.00">scene2D::adaptor::Transfer</text>
<text text-anchor="middle" x="617" y="-268" font-family="Helvetica,sans-Serif" font-size="10.00">Function::updatingTFPoints</text>
</a>
</g>
<!-- Node5&#45;&gt;Node7 -->
<g id="edge12" class="edge"><title>Node5&#45;&gt;Node7</title>
<path fill="none" stroke="midnightblue" d="M474.283,-220.859C493.306,-230.734 516.506,-242.145 538,-251 545.61,-254.135 553.747,-257.163 561.8,-259.976"/>
<polygon fill="midnightblue" stroke="midnightblue" points="475.787,-217.696 465.306,-216.153 472.537,-223.896 475.787,-217.696"/>
</g>
<!-- Node8 -->
<g id="node15" class="node"><title>Node8</title>
<a xlink:href="classscene2D_1_1adaptor_1_1TransferFunction.html#a1c3a798a1f7627474219cbe841871589" target="_top" xlink:title="Called when transfer function windowing is modified. ">
<polygon fill="white" stroke="black" points="538.5,-208 538.5,-242 695.5,-242 695.5,-208 538.5,-208"/>
<text text-anchor="start" x="546.5" y="-229" font-family="Helvetica,sans-Serif" font-size="10.00">scene2D::adaptor::Transfer</text>
<text text-anchor="middle" x="617" y="-216" font-family="Helvetica,sans-Serif" font-size="10.00">Function::updatingTFWindowing</text>
</a>
</g>
<!-- Node5&#45;&gt;Node8 -->
<g id="edge14" class="edge"><title>Node5&#45;&gt;Node8</title>
<path fill="none" stroke="midnightblue" d="M512.201,-210.111C520.849,-211.339 529.659,-212.591 538.313,-213.82"/>
<polygon fill="midnightblue" stroke="midnightblue" points="512.535,-206.623 502.142,-208.681 511.551,-213.553 512.535,-206.623"/>
</g>
<!-- Node9 -->
<g id="node17" class="node"><title>Node9</title>
<a xlink:href="classscene2D_1_1adaptor_1_1TransferFunction.html#a68b01fe89662003807bebf531e5c80af" target="_top" xlink:title="scene2D::adaptor::Transfer\lFunction::doSwap">
<polygon fill="white" stroke="black" points="549,-156 549,-190 685,-190 685,-156 549,-156"/>
<text text-anchor="start" x="557" y="-177" font-family="Helvetica,sans-Serif" font-size="10.00">scene2D::adaptor::Transfer</text>
<text text-anchor="middle" x="617" y="-164" font-family="Helvetica,sans-Serif" font-size="10.00">Function::doSwap</text>
</a>
</g>
<!-- Node5&#45;&gt;Node9 -->
<g id="edge16" class="edge"><title>Node5&#45;&gt;Node9</title>
<path fill="none" stroke="midnightblue" d="M512.259,-187.881C524.416,-186.154 536.89,-184.382 548.801,-182.69"/>
<polygon fill="midnightblue" stroke="midnightblue" points="511.551,-184.447 502.142,-189.319 512.535,-191.377 511.551,-184.447"/>
</g>
<!-- Node10 -->
<g id="node19" class="node"><title>Node10</title>
<a xlink:href="classscene2D_1_1adaptor_1_1TransferFunction.html#a00aec38d472c0714930eaf411d0e0a68" target="_top" xlink:title="scene2D::adaptor::Transfer\lFunction::processInteraction">
<polygon fill="white" stroke="black" points="547,-104 547,-138 687,-138 687,-104 547,-104"/>
<text text-anchor="start" x="555" y="-125" font-family="Helvetica,sans-Serif" font-size="10.00">scene2D::adaptor::Transfer</text>
<text text-anchor="middle" x="617" y="-112" font-family="Helvetica,sans-Serif" font-size="10.00">Function::processInteraction</text>
</a>
</g>
<!-- Node5&#45;&gt;Node10 -->
<g id="edge18" class="edge"><title>Node5&#45;&gt;Node10</title>
<path fill="none" stroke="midnightblue" d="M474.283,-177.141C493.306,-167.266 516.506,-155.855 538,-147 545.61,-143.865 553.747,-140.837 561.8,-138.024"/>
<polygon fill="midnightblue" stroke="midnightblue" points="472.537,-174.104 465.306,-181.847 475.787,-180.304 472.537,-174.104"/>
</g>
<!-- Node12 -->
<g id="node23" class="node"><title>Node12</title>
<a xlink:href="classuiImage_1_1WindowLevel.html#a30238b79b9c852e349d7f08fc06765a6" target="_top" xlink:title="Swap of image. ">
<polygon fill="white" stroke="black" points="559,-52 559,-86 675,-86 675,-52 559,-52"/>
<text text-anchor="start" x="567" y="-73" font-family="Helvetica,sans-Serif" font-size="10.00">uiImage::WindowLevel</text>
<text text-anchor="middle" x="617" y="-60" font-family="Helvetica,sans-Serif" font-size="10.00">::swapping</text>
</a>
</g>
<!-- Node11&#45;&gt;Node12 -->
<g id="edge22" class="edge"><title>Node11&#45;&gt;Node12</title>
<path fill="none" stroke="midnightblue" d="M502.087,-85.3264C520.799,-82.6679 540.911,-79.8105 558.998,-77.2408"/>
<polygon fill="midnightblue" stroke="midnightblue" points="501.562,-81.8658 492.154,-86.7377 502.547,-88.7962 501.562,-81.8658"/>
</g>
<!-- Node13 -->
<g id="node25" class="node"><title>Node13</title>
<a xlink:href="classuiImage_1_1WindowLevel.html#ad39c747b18b452868f8c5cd6bd74e956" target="_top" xlink:title="Called when transfer function points are modified. ">
<polygon fill="white" stroke="black" points="559,-0 559,-34 675,-34 675,-0 559,-0"/>
<text text-anchor="start" x="567" y="-21" font-family="Helvetica,sans-Serif" font-size="10.00">uiImage::WindowLevel</text>
<text text-anchor="middle" x="617" y="-8" font-family="Helvetica,sans-Serif" font-size="10.00">::updatingTFPoints</text>
</a>
</g>
<!-- Node11&#45;&gt;Node13 -->
<g id="edge24" class="edge"><title>Node11&#45;&gt;Node13</title>
<path fill="none" stroke="midnightblue" d="M492.567,-73.7556C495.796,-72.2294 498.961,-70.6418 502,-69 519.364,-59.6186 520.419,-51.9686 538,-43 544.56,-39.6537 551.641,-36.6089 558.776,-33.8781"/>
<polygon fill="midnightblue" stroke="midnightblue" points="491.039,-70.6046 483.345,-77.8883 493.902,-76.9924 491.039,-70.6046"/>
</g>
</g>
</svg>
