<?xml version="1.0" encoding="UTF-8" standalone="no"?>
<!DOCTYPE svg PUBLIC "-//W3C//DTD SVG 1.1//EN"
 "http://www.w3.org/Graphics/SVG/1.1/DTD/svg11.dtd">
<!-- Generated by graphviz version 2.26.3 (20100126.1600)
 -->
<!-- Title: fwDataIO::writer::IObjectWriter Pages: 1 -->
<svg width="1142pt" height="577pt"
 viewBox="0.00 0.00 1142.00 577.00" xmlns="http://www.w3.org/2000/svg" xmlns:xlink="http://www.w3.org/1999/xlink">
<g id="graph1" class="graph" transform="scale(1 1) rotate(0) translate(4 573)">
<title>fwDataIO::writer::IObjectWriter</title>
<polygon fill="white" stroke="white" points="-4,5 -4,-573 1139,-573 1139,5 -4,5"/>
<!-- Node1 -->
<g id="node1" class="node"><title>Node1</title>
<polygon fill="#bfbfbf" stroke="black" points="314,-341 314,-375 440,-375 440,-341 314,-341"/>
<text text-anchor="start" x="322" y="-362" font-family="Helvetica,sans-Serif" font-size="10.00">fwDataIO::writer::IObject</text>
<text text-anchor="middle" x="377" y="-349" font-family="Helvetica,sans-Serif" font-size="10.00">Writer</text>
</g>
<!-- Node4 -->
<g id="node7" class="node"><title>Node4</title>
<a xlink:href="classfwDataIO_1_1writer_1_1GenericObjectWriter.html" target="_top" xlink:title="generic class for all object writers. ">
<polygon fill="white" stroke="black" points="478.5,-341 478.5,-375 621.5,-375 621.5,-341 478.5,-341"/>
<text text-anchor="start" x="486.5" y="-362" font-family="Helvetica,sans-Serif" font-size="10.00">fwDataIO::writer::Generic</text>
<text text-anchor="middle" x="550" y="-349" font-family="Helvetica,sans-Serif" font-size="10.00">ObjectWriter&lt; DATATYPE &gt;</text>
</a>
</g>
<!-- Node1&#45;&gt;Node4 -->
<g id="edge6" class="edge"><title>Node1&#45;&gt;Node4</title>
<path fill="none" stroke="midnightblue" d="M450.691,-358C459.868,-358 469.241,-358 478.385,-358"/>
<polygon fill="midnightblue" stroke="midnightblue" points="450.437,-354.5 440.436,-358 450.436,-361.5 450.437,-354.5"/>
</g>
<!-- Node5 -->
<g id="node9" class="node"><title>Node5</title>
<a xlink:href="classfwDataIO_1_1writer_1_1GenericObjectWriter.html" target="_top" xlink:title="fwDataIO::writer::Generic\lObjectWriter\&lt; ::fwMedData\l::ModelSeries \&gt;">
<polygon fill="white" stroke="black" points="798.5,-383.5 798.5,-430.5 935.5,-430.5 935.5,-383.5 798.5,-383.5"/>
<text text-anchor="start" x="806.5" y="-417.5" font-family="Helvetica,sans-Serif" font-size="10.00">fwDataIO::writer::Generic</text>
<text text-anchor="start" x="806.5" y="-404.5" font-family="Helvetica,sans-Serif" font-size="10.00">ObjectWriter&lt; ::fwMedData</text>
<text text-anchor="middle" x="867" y="-391.5" font-family="Helvetica,sans-Serif" font-size="10.00">::ModelSeries &gt;</text>
</a>
</g>
<!-- Node1&#45;&gt;Node5 -->
<g id="edge56" class="edge"><title>Node1&#45;&gt;Node5</title>
<path fill="none" stroke="midnightblue" d="M431.71,-378.434C484.25,-396.893 566.295,-422.696 640,-433 701.623,-441.615 718.433,-442.003 780,-433 785.927,-432.133 792.012,-430.951 798.077,-429.566"/>
<polygon fill="midnightblue" stroke="midnightblue" points="432.846,-375.123 422.252,-375.078 430.506,-381.72 432.846,-375.123"/>
</g>
<!-- Node7 -->
<g id="node13" class="node"><title>Node7</title>
<a xlink:href="classfwDataIO_1_1writer_1_1GenericObjectWriter.html" target="_top" xlink:title="fwDataIO::writer::Generic\lObjectWriter\&lt; ::fwData\l::Mesh \&gt;">
<polygon fill="white" stroke="black" points="803,-453.5 803,-500.5 931,-500.5 931,-453.5 803,-453.5"/>
<text text-anchor="start" x="811" y="-487.5" font-family="Helvetica,sans-Serif" font-size="10.00">fwDataIO::writer::Generic</text>
<text text-anchor="start" x="811" y="-474.5" font-family="Helvetica,sans-Serif" font-size="10.00">ObjectWriter&lt; ::fwData</text>
<text text-anchor="middle" x="867" y="-461.5" font-family="Helvetica,sans-Serif" font-size="10.00">::Mesh &gt;</text>
</a>
</g>
<!-- Node1&#45;&gt;Node7 -->
<g id="edge50" class="edge"><title>Node1&#45;&gt;Node7</title>
<path fill="none" stroke="midnightblue" d="M407.471,-381.064C454.369,-414.791 548.443,-475.563 640,-494 694.239,-504.922 757.044,-498.814 802.824,-491.036"/>
<polygon fill="midnightblue" stroke="midnightblue" points="409.419,-378.153 399.274,-375.097 405.299,-383.812 409.419,-378.153"/>
</g>
<!-- Node10 -->
<g id="node19" class="node"><title>Node10</title>
<a xlink:href="classfwDataIO_1_1writer_1_1GenericObjectWriter.html" target="_top" xlink:title="fwDataIO::writer::Generic\lObjectWriter\&lt; ::fwMedData\l::ImageSeries \&gt;">
<polygon fill="white" stroke="black" points="798.5,-521.5 798.5,-568.5 935.5,-568.5 935.5,-521.5 798.5,-521.5"/>
<text text-anchor="start" x="806.5" y="-555.5" font-family="Helvetica,sans-Serif" font-size="10.00">fwDataIO::writer::Generic</text>
<text text-anchor="start" x="806.5" y="-542.5" font-family="Helvetica,sans-Serif" font-size="10.00">ObjectWriter&lt; ::fwMedData</text>
<text text-anchor="middle" x="867" y="-529.5" font-family="Helvetica,sans-Serif" font-size="10.00">::ImageSeries &gt;</text>
</a>
</g>
<!-- Node1&#45;&gt;Node10 -->
<g id="edge54" class="edge"><title>Node1&#45;&gt;Node10</title>
<path fill="none" stroke="midnightblue" d="M393.004,-383.987C410.576,-410.271 441.238,-450.059 478,-472 578.158,-531.779 716.526,-544.378 798.393,-546.081"/>
<polygon fill="midnightblue" stroke="midnightblue" points="395.738,-381.772 387.345,-375.305 389.873,-385.594 395.738,-381.772"/>
</g>
<!-- Node12 -->
<g id="node23" class="node"><title>Node12</title>
<a xlink:href="classfwDataIO_1_1writer_1_1GenericObjectWriter.html" target="_top" xlink:title="fwDataIO::writer::Generic\lObjectWriter\&lt; ::fwData\l::TransformationMatrix3D \&gt;">
<polygon fill="white" stroke="black" points="798.5,-311.5 798.5,-358.5 935.5,-358.5 935.5,-311.5 798.5,-311.5"/>
<text text-anchor="start" x="806.5" y="-345.5" font-family="Helvetica,sans-Serif" font-size="10.00">fwDataIO::writer::Generic</text>
<text text-anchor="start" x="806.5" y="-332.5" font-family="Helvetica,sans-Serif" font-size="10.00">ObjectWriter&lt; ::fwData</text>
<text text-anchor="middle" x="867" y="-319.5" font-family="Helvetica,sans-Serif" font-size="10.00">::TransformationMatrix3D &gt;</text>
</a>
</g>
<!-- Node1&#45;&gt;Node12 -->
<g id="edge52" class="edge"><title>Node1&#45;&gt;Node12</title>
<path fill="none" stroke="midnightblue" d="M414.091,-335.955C487.588,-295.367 655.379,-218.282 780,-279 791.669,-284.685 787.878,-293.874 798,-302 802.246,-305.408 806.901,-308.571 811.726,-311.48"/>
<polygon fill="midnightblue" stroke="midnightblue" points="412.197,-333.004 405.188,-340.949 415.622,-339.109 412.197,-333.004"/>
</g>
<!-- Node14 -->
<g id="node27" class="node"><title>Node14</title>
<a xlink:href="classfwDataIO_1_1writer_1_1GenericObjectWriter.html" target="_top" xlink:title="fwDataIO::writer::Generic\lObjectWriter\&lt; ::fwData\l::Array \&gt;">
<polygon fill="white" stroke="black" points="803,-245.5 803,-292.5 931,-292.5 931,-245.5 803,-245.5"/>
<text text-anchor="start" x="811" y="-279.5" font-family="Helvetica,sans-Serif" font-size="10.00">fwDataIO::writer::Generic</text>
<text text-anchor="start" x="811" y="-266.5" font-family="Helvetica,sans-Serif" font-size="10.00">ObjectWriter&lt; ::fwData</text>
<text text-anchor="middle" x="867" y="-253.5" font-family="Helvetica,sans-Serif" font-size="10.00">::Array &gt;</text>
</a>
</g>
<!-- Node1&#45;&gt;Node14 -->
<g id="edge46" class="edge"><title>Node1&#45;&gt;Node14</title>
<path fill="none" stroke="midnightblue" d="M395.482,-332.797C413.841,-309.602 444.091,-276.004 478,-257 542.603,-220.794 566.459,-226.727 640,-218 701.789,-210.667 719.952,-201.697 780,-218 799.938,-223.413 819.98,-234.672 835.794,-245.237"/>
<polygon fill="midnightblue" stroke="midnightblue" points="392.621,-330.775 389.271,-340.826 398.158,-335.058 392.621,-330.775"/>
</g>
<!-- Node17 -->
<g id="node33" class="node"><title>Node17</title>
<a xlink:href="classfwDataIO_1_1writer_1_1GenericObjectWriter.html" target="_top" xlink:title="fwDataIO::writer::Generic\lObjectWriter\&lt; ::fwData\l::Image \&gt;">
<polygon fill="white" stroke="black" points="803,-115.5 803,-162.5 931,-162.5 931,-115.5 803,-115.5"/>
<text text-anchor="start" x="811" y="-149.5" font-family="Helvetica,sans-Serif" font-size="10.00">fwDataIO::writer::Generic</text>
<text text-anchor="start" x="811" y="-136.5" font-family="Helvetica,sans-Serif" font-size="10.00">ObjectWriter&lt; ::fwData</text>
<text text-anchor="middle" x="867" y="-123.5" font-family="Helvetica,sans-Serif" font-size="10.00">::Image &gt;</text>
</a>
</g>
<!-- Node1&#45;&gt;Node17 -->
<g id="edge48" class="edge"><title>Node1&#45;&gt;Node17</title>
<path fill="none" stroke="midnightblue" d="M388.384,-331.603C403.791,-299.21 434.449,-245.134 478,-217 578.237,-152.248 720.964,-139.415 802.762,-137.884"/>
<polygon fill="midnightblue" stroke="midnightblue" points="385.103,-330.36 384.096,-340.907 391.46,-333.291 385.103,-330.36"/>
</g>
<!-- Node2 -->
<g id="node2" class="node"><title>Node2</title>
<a xlink:href="classfwCore_1_1BaseObject.html" target="_top" xlink:title="Base class for all FW4SPL&#39;s classes. ">
<polygon fill="white" stroke="black" points="170.5,-347.5 170.5,-368.5 275.5,-368.5 275.5,-347.5 170.5,-347.5"/>
<text text-anchor="middle" x="223" y="-355.5" font-family="Helvetica,sans-Serif" font-size="10.00">fwCore::BaseObject</text>
</a>
</g>
<!-- Node2&#45;&gt;Node1 -->
<g id="edge2" class="edge"><title>Node2&#45;&gt;Node1</title>
<path fill="none" stroke="midnightblue" d="M285.824,-358C295.04,-358 304.536,-358 313.761,-358"/>
<polygon fill="midnightblue" stroke="midnightblue" points="285.567,-354.5 275.567,-358 285.567,-361.5 285.567,-354.5"/>
</g>
<!-- Node3 -->
<g id="node4" class="node"><title>Node3</title>
<polygon fill="white" stroke="#bfbfbf" points="0.5,-341 0.5,-375 131.5,-375 131.5,-341 0.5,-341"/>
<text text-anchor="start" x="8.5" y="-362" font-family="Helvetica,sans-Serif" font-size="10.00">std::enable_shared</text>
<text text-anchor="middle" x="66" y="-349" font-family="Helvetica,sans-Serif" font-size="10.00">_from_this&lt; BaseObject &gt;</text>
</g>
<!-- Node3&#45;&gt;Node2 -->
<g id="edge4" class="edge"><title>Node3&#45;&gt;Node2</title>
<path fill="none" stroke="midnightblue" d="M141.751,-358C151.466,-358 161.238,-358 170.469,-358"/>
<polygon fill="midnightblue" stroke="midnightblue" points="141.672,-354.5 131.672,-358 141.672,-361.5 141.672,-354.5"/>
</g>
<!-- Node4&#45;&gt;Node5 -->
<g id="edge8" class="edge"><title>Node4&#45;&gt;Node5</title>
<path fill="none" stroke="orange" stroke-dasharray="5,2" d="M631.733,-364.317C675.872,-368.461 731.176,-374.837 780,-384 785.988,-385.124 792.171,-386.439 798.351,-387.861"/>
<polygon fill="orange" stroke="orange" points="631.908,-360.818 621.629,-363.388 631.267,-367.789 631.908,-360.818"/>
<text text-anchor="middle" x="710" y="-388" font-family="Helvetica,sans-Serif" font-size="10.00"> &lt; ::fwMedData::ModelSeries &gt;</text>
</g>
<!-- Node4&#45;&gt;Node7 -->
<g id="edge12" class="edge"><title>Node4&#45;&gt;Node7</title>
<path fill="none" stroke="orange" stroke-dasharray="5,2" d="M597.091,-379.235C610.833,-385.206 625.937,-391.552 640,-397 701.336,-420.762 718.018,-422.979 780,-445 787.582,-447.694 795.522,-450.556 803.389,-453.418"/>
<polygon fill="orange" stroke="orange" points="598.389,-375.983 587.825,-375.177 595.581,-382.395 598.389,-375.983"/>
<text text-anchor="middle" x="710" y="-449" font-family="Helvetica,sans-Serif" font-size="10.00"> &lt; ::fwData::Mesh &gt;</text>
</g>
<!-- Node4&#45;&gt;Node10 -->
<g id="edge18" class="edge"><title>Node4&#45;&gt;Node10</title>
<path fill="none" stroke="orange" stroke-dasharray="5,2" d="M567.484,-383.444C583.941,-405.743 610.428,-437.683 640,-458 666.481,-476.194 741.754,-503.519 798.417,-522.679"/>
<polygon fill="orange" stroke="orange" points="570.167,-381.182 561.476,-375.123 564.492,-385.28 570.167,-381.182"/>
<text text-anchor="middle" x="710" y="-519" font-family="Helvetica,sans-Serif" font-size="10.00"> &lt; ::fwMedData::ImageSeries &gt;</text>
</g>
<!-- Node4&#45;&gt;Node12 -->
<g id="edge22" class="edge"><title>Node4&#45;&gt;Node12</title>
<path fill="none" stroke="orange" stroke-dasharray="5,2" d="M617.522,-338.818C625.055,-337.255 632.657,-335.923 640,-335 692.885,-328.349 753.25,-328.726 798.431,-330.561"/>
<polygon fill="orange" stroke="orange" points="616.695,-335.417 607.686,-340.993 618.206,-342.251 616.695,-335.417"/>
<text text-anchor="start" x="649.5" y="-352" font-family="Helvetica,sans-Serif" font-size="10.00"> &lt; ::fwData::Transformation</text>
<text text-anchor="middle" x="710" y="-339" font-family="Helvetica,sans-Serif" font-size="10.00">Matrix3D &gt;</text>
</g>
<!-- Node4&#45;&gt;Node14 -->
<g id="edge26" class="edge"><title>Node4&#45;&gt;Node14</title>
<path fill="none" stroke="orange" stroke-dasharray="5,2" d="M587.988,-336.124C603.675,-327.862 622.302,-319.014 640,-313 693.403,-294.854 756.563,-283.373 802.684,-276.707"/>
<polygon fill="orange" stroke="orange" points="586.269,-333.075 579.121,-340.896 589.586,-339.239 586.269,-333.075"/>
<text text-anchor="middle" x="710" y="-317" font-family="Helvetica,sans-Serif" font-size="10.00"> &lt; ::fwData::Array &gt;</text>
</g>
<!-- Node4&#45;&gt;Node17 -->
<g id="edge32" class="edge"><title>Node4&#45;&gt;Node17</title>
<path fill="none" stroke="orange" stroke-dasharray="5,2" d="M570.197,-333.024C587.361,-312.814 613.391,-284.449 640,-264 694.935,-221.782 765.923,-185.123 813.77,-162.612"/>
<polygon fill="orange" stroke="orange" points="567.363,-330.956 563.629,-340.871 572.731,-335.449 567.363,-330.956"/>
<text text-anchor="middle" x="710" y="-268" font-family="Helvetica,sans-Serif" font-size="10.00"> &lt; ::fwData::Image &gt;</text>
</g>
<!-- Node6 -->
<g id="node11" class="node"><title>Node6</title>
<a xlink:href="classfwVtkIO_1_1ModelSeriesObjWriter.html" target="_top" xlink:title="Write a fwData::Reconstruction.Write a fwData::Reconstruction as .obj file using the VTK lib and the ...">
<polygon fill="white" stroke="black" points="977,-396.5 977,-417.5 1131,-417.5 1131,-396.5 977,-396.5"/>
<text text-anchor="middle" x="1054" y="-404.5" font-family="Helvetica,sans-Serif" font-size="10.00">fwVtkIO::ModelSeriesObjWriter</text>
</a>
</g>
<!-- Node5&#45;&gt;Node6 -->
<g id="edge10" class="edge"><title>Node5&#45;&gt;Node6</title>
<path fill="none" stroke="midnightblue" d="M945.775,-407C956.081,-407 966.631,-407 976.909,-407"/>
<polygon fill="midnightblue" stroke="midnightblue" points="945.57,-403.5 935.57,-407 945.57,-410.5 945.57,-403.5"/>
</g>
<!-- Node8 -->
<g id="node15" class="node"><title>Node8</title>
<a xlink:href="classfwDataIO_1_1writer_1_1MeshWriter.html" target="_top" xlink:title="Mesh writer. Write file format .trian. ">
<polygon fill="white" stroke="black" points="981.5,-445.5 981.5,-466.5 1126.5,-466.5 1126.5,-445.5 981.5,-445.5"/>
<text text-anchor="middle" x="1054" y="-453.5" font-family="Helvetica,sans-Serif" font-size="10.00">fwDataIO::writer::MeshWriter</text>
</a>
</g>
<!-- Node7&#45;&gt;Node8 -->
<g id="edge14" class="edge"><title>Node7&#45;&gt;Node8</title>
<path fill="none" stroke="midnightblue" d="M941.094,-468.679C954.334,-467.192 968.118,-465.644 981.319,-464.162"/>
<polygon fill="midnightblue" stroke="midnightblue" points="940.64,-465.208 931.093,-469.802 941.421,-472.164 940.64,-465.208"/>
</g>
<!-- Node9 -->
<g id="node17" class="node"><title>Node9</title>
<a xlink:href="classfwVtkIO_1_1MeshWriter.html" target="_top" xlink:title="Write a mesh.Write a VTK Mesh using the VTK lib. ">
<polygon fill="white" stroke="black" points="999.5,-485.5 999.5,-506.5 1108.5,-506.5 1108.5,-485.5 999.5,-485.5"/>
<text text-anchor="middle" x="1054" y="-493.5" font-family="Helvetica,sans-Serif" font-size="10.00">fwVtkIO::MeshWriter</text>
</a>
</g>
<!-- Node7&#45;&gt;Node9 -->
<g id="edge16" class="edge"><title>Node7&#45;&gt;Node9</title>
<path fill="none" stroke="midnightblue" d="M941.124,-484.531C960.546,-486.505 981.135,-488.597 999.335,-490.446"/>
<polygon fill="midnightblue" stroke="midnightblue" points="941.396,-481.041 931.093,-483.512 940.688,-488.005 941.396,-481.041"/>
</g>
<!-- Node11 -->
<g id="node21" class="node"><title>Node11</title>
<a xlink:href="classvtkGdcmIO_1_1ImageSeriesWriter.html" target="_top" xlink:title="Write an ImageSeries in DICOM format. ">
<polygon fill="white" stroke="black" points="977,-534.5 977,-555.5 1131,-555.5 1131,-534.5 977,-534.5"/>
<text text-anchor="middle" x="1054" y="-542.5" font-family="Helvetica,sans-Serif" font-size="10.00">vtkGdcmIO::ImageSeriesWriter</text>
</a>
</g>
<!-- Node10&#45;&gt;Node11 -->
<g id="edge20" class="edge"><title>Node10&#45;&gt;Node11</title>
<path fill="none" stroke="midnightblue" d="M945.775,-545C956.081,-545 966.631,-545 976.909,-545"/>
<polygon fill="midnightblue" stroke="midnightblue" points="945.57,-541.5 935.57,-545 945.57,-548.5 945.57,-541.5"/>
</g>
<!-- Node13 -->
<g id="node25" class="node"><title>Node13</title>
<a xlink:href="classfwDataIO_1_1writer_1_1TransformationMatrix3DWriter.html" target="_top" xlink:title="Writer for transformation of 3D Matrix. Write file format .trf. ">
<polygon fill="white" stroke="black" points="974,-344 974,-378 1134,-378 1134,-344 974,-344"/>
<text text-anchor="start" x="982" y="-365" font-family="Helvetica,sans-Serif" font-size="10.00">fwDataIO::writer::Transformation</text>
<text text-anchor="middle" x="1054" y="-352" font-family="Helvetica,sans-Serif" font-size="10.00">Matrix3DWriter</text>
</a>
</g>
<!-- Node12&#45;&gt;Node13 -->
<g id="edge24" class="edge"><title>Node12&#45;&gt;Node13</title>
<path fill="none" stroke="midnightblue" d="M945.57,-345.924C954.876,-347.218 964.385,-348.54 973.714,-349.837"/>
<polygon fill="midnightblue" stroke="midnightblue" points="945.957,-342.444 935.57,-344.534 944.993,-349.378 945.957,-342.444"/>
</g>
<!-- Node15 -->
<g id="node29" class="node"><title>Node15</title>
<a xlink:href="classfwDataIO_1_1writer_1_1ArrayWriter.html" target="_top" xlink:title="Array Writer. Write file format .raw. ">
<polygon fill="white" stroke="black" points="982,-304.5 982,-325.5 1126,-325.5 1126,-304.5 982,-304.5"/>
<text text-anchor="middle" x="1054" y="-312.5" font-family="Helvetica,sans-Serif" font-size="10.00">fwDataIO::writer::ArrayWriter</text>
</a>
</g>
<!-- Node14&#45;&gt;Node15 -->
<g id="edge28" class="edge"><title>Node14&#45;&gt;Node15</title>
<path fill="none" stroke="midnightblue" d="M940.832,-287.162C964.681,-293.028 990.318,-299.335 1011.15,-304.46"/>
<polygon fill="midnightblue" stroke="midnightblue" points="941.64,-283.756 931.093,-284.766 939.968,-290.554 941.64,-283.756"/>
</g>
<!-- Node16 -->
<g id="node31" class="node"><title>Node16</title>
<a xlink:href="classfwDataIO_1_1writer_1_1GzArrayWriter.html" target="_top" xlink:title="Array Writer. Write file format .raw.gz. ">
<polygon fill="white" stroke="black" points="988.5,-252 988.5,-286 1119.5,-286 1119.5,-252 988.5,-252"/>
<text text-anchor="start" x="996.5" y="-273" font-family="Helvetica,sans-Serif" font-size="10.00">fwDataIO::writer::GzArray</text>
<text text-anchor="middle" x="1054" y="-260" font-family="Helvetica,sans-Serif" font-size="10.00">Writer</text>
</a>
</g>
<!-- Node14&#45;&gt;Node16 -->
<g id="edge30" class="edge"><title>Node14&#45;&gt;Node16</title>
<path fill="none" stroke="midnightblue" d="M941.213,-269C956.807,-269 973.149,-269 988.401,-269"/>
<polygon fill="midnightblue" stroke="midnightblue" points="941.093,-265.5 931.093,-269 941.093,-272.5 941.093,-265.5"/>
</g>
<!-- Node18 -->
<g id="node35" class="node"><title>Node18</title>
<a xlink:href="classfwDataIO_1_1writer_1_1GzBufferImageWriter.html" target="_top" xlink:title="Image Writer. Write file format .raw.gz. ">
<polygon fill="white" stroke="black" points="987,-200 987,-234 1121,-234 1121,-200 987,-200"/>
<text text-anchor="start" x="995" y="-221" font-family="Helvetica,sans-Serif" font-size="10.00">fwDataIO::writer::GzBuffer</text>
<text text-anchor="middle" x="1054" y="-208" font-family="Helvetica,sans-Serif" font-size="10.00">ImageWriter</text>
</a>
</g>
<!-- Node17&#45;&gt;Node18 -->
<g id="edge34" class="edge"><title>Node17&#45;&gt;Node18</title>
<path fill="none" stroke="midnightblue" d="M921.027,-167.052C937.787,-175.265 956.464,-183.929 974,-191 981.72,-194.113 989.969,-197.129 998.127,-199.936"/>
<polygon fill="midnightblue" stroke="midnightblue" points="922.447,-163.85 911.932,-162.549 919.341,-170.123 922.447,-163.85"/>
</g>
<!-- Node19 -->
<g id="node37" class="node"><title>Node19</title>
<a xlink:href="classfwItkIO_1_1ImageWriter.html" target="_top" xlink:title="fwItkIO::ImageWriter">
<polygon fill="white" stroke="black" points="1000,-160.5 1000,-181.5 1108,-181.5 1108,-160.5 1000,-160.5"/>
<text text-anchor="middle" x="1054" y="-168.5" font-family="Helvetica,sans-Serif" font-size="10.00">fwItkIO::ImageWriter</text>
</a>
</g>
<!-- Node17&#45;&gt;Node19 -->
<g id="edge36" class="edge"><title>Node17&#45;&gt;Node19</title>
<path fill="none" stroke="midnightblue" d="M940.951,-151.655C960.641,-155.024 981.541,-158.601 999.945,-161.75"/>
<polygon fill="midnightblue" stroke="midnightblue" points="941.54,-148.205 931.093,-149.968 940.36,-155.104 941.54,-148.205"/>
</g>
<!-- Node20 -->
<g id="node39" class="node"><title>Node20</title>
<a xlink:href="classfwItkIO_1_1JpgImageWriter.html" target="_top" xlink:title="fwItkIO::JpgImageWriter">
<polygon fill="white" stroke="black" points="992,-120.5 992,-141.5 1116,-141.5 1116,-120.5 992,-120.5"/>
<text text-anchor="middle" x="1054" y="-128.5" font-family="Helvetica,sans-Serif" font-size="10.00">fwItkIO::JpgImageWriter</text>
</a>
</g>
<!-- Node17&#45;&gt;Node20 -->
<g id="edge38" class="edge"><title>Node17&#45;&gt;Node20</title>
<path fill="none" stroke="midnightblue" d="M941.384,-135.818C958.122,-135.102 975.713,-134.349 991.887,-133.657"/>
<polygon fill="midnightblue" stroke="midnightblue" points="940.934,-132.334 931.093,-136.258 941.234,-139.327 940.934,-132.334"/>
</g>
<!-- Node21 -->
<g id="node41" class="node"><title>Node21</title>
<a xlink:href="classfwVtkIO_1_1ImageWriter.html" target="_top" xlink:title="Write an image.Write a VTK Image using the VTK lib. ">
<polygon fill="white" stroke="black" points="998,-80.5 998,-101.5 1110,-101.5 1110,-80.5 998,-80.5"/>
<text text-anchor="middle" x="1054" y="-88.5" font-family="Helvetica,sans-Serif" font-size="10.00">fwVtkIO::ImageWriter</text>
</a>
</g>
<!-- Node17&#45;&gt;Node21 -->
<g id="edge40" class="edge"><title>Node17&#45;&gt;Node21</title>
<path fill="none" stroke="midnightblue" d="M940.867,-119.557C951.966,-116.669 963.281,-113.742 974,-111 986.205,-107.877 999.473,-104.538 1011.63,-101.501"/>
<polygon fill="midnightblue" stroke="midnightblue" points="939.983,-116.171 931.19,-122.08 941.749,-122.944 939.983,-116.171"/>
</g>
<!-- Node22 -->
<g id="node43" class="node"><title>Node22</title>
<a xlink:href="classfwVtkIO_1_1MetaImageWriter.html" target="_top" xlink:title="Write a MetaImage.Write a MetaImage using the VTK lib. ">
<polygon fill="white" stroke="black" points="987,-40.5 987,-61.5 1121,-61.5 1121,-40.5 987,-40.5"/>
<text text-anchor="middle" x="1054" y="-48.5" font-family="Helvetica,sans-Serif" font-size="10.00">fwVtkIO::MetaImageWriter</text>
</a>
</g>
<!-- Node17&#45;&gt;Node22 -->
<g id="edge42" class="edge"><title>Node17&#45;&gt;Node22</title>
<path fill="none" stroke="midnightblue" d="M906.588,-109.52C926.067,-96.1662 950.392,-81.1361 974,-71 982.682,-67.2722 992.205,-64.1372 1001.56,-61.5371"/>
<polygon fill="midnightblue" stroke="midnightblue" points="904.476,-106.726 898.276,-115.317 908.48,-112.467 904.476,-106.726"/>
</g>
<!-- Node23 -->
<g id="node45" class="node"><title>Node23</title>
<a xlink:href="classfwVtkIO_1_1VtiImageWriter.html" target="_top" xlink:title="Write an image.Write a VTK Image using the VTK lib. ">
<polygon fill="white" stroke="black" points="992,-0.5 992,-21.5 1116,-21.5 1116,-0.5 992,-0.5"/>
<text text-anchor="middle" x="1054" y="-8.5" font-family="Helvetica,sans-Serif" font-size="10.00">fwVtkIO::VtiImageWriter</text>
</a>
</g>
<!-- Node17&#45;&gt;Node23 -->
<g id="edge44" class="edge"><title>Node17&#45;&gt;Node23</title>
<path fill="none" stroke="midnightblue" d="M890.199,-107.546C909.864,-83.1094 940.203,-50.2397 974,-31 980.718,-27.1754 988.162,-24.0744 995.726,-21.5619"/>
<polygon fill="midnightblue" stroke="midnightblue" points="887.389,-105.457 883.95,-115.478 892.888,-109.789 887.389,-105.457"/>
</g>
</g>
</svg>
