<?xml version="1.0" encoding="UTF-8" standalone="no"?>
<!DOCTYPE svg PUBLIC "-//W3C//DTD SVG 1.1//EN"
 "http://www.w3.org/Graphics/SVG/1.1/DTD/svg11.dtd">
<!-- Generated by graphviz version 2.36.0 (20140111.2315)
 -->
<!-- Title: fwDataIO::writer::GenericObjectWriter&lt; DATATYPE &gt; Pages: 1 -->
<svg width="251pt" height="248pt"
 viewBox="0.00 0.00 251.00 248.00" xmlns="http://www.w3.org/2000/svg" xmlns:xlink="http://www.w3.org/1999/xlink">
<g id="graph0" class="graph" transform="scale(1 1) rotate(0) translate(4 244)">
<title>fwDataIO::writer::GenericObjectWriter&lt; DATATYPE &gt;</title>
<polygon fill="white" stroke="none" points="-4,4 -4,-244 247,-244 247,4 -4,4"/>
<!-- Node1 -->
<g id="node1" class="node"><title>Node1</title>
<polygon fill="#bfbfbf" stroke="black" points="69.5,-1 69.5,-31 212.5,-31 212.5,-1 69.5,-1"/>
<text text-anchor="start" x="77.5" y="-19" font-family="Helvetica,sans-Serif" font-size="10.00">fwDataIO::writer::Generic</text>
<text text-anchor="middle" x="141" y="-8" font-family="Helvetica,sans-Serif" font-size="10.00">ObjectWriter&lt; DATATYPE &gt;</text>
</g>
<!-- Node2 -->
<g id="node2" class="node"><title>Node2</title>
<g id="a_node2"><a xlink:href="classfwDataIO_1_1writer_1_1IObjectWriter.html" target="_top" xlink:title="Base class for all object writers. ">
<polygon fill="white" stroke="black" points="78,-71 78,-101 204,-101 204,-71 78,-71"/>
<text text-anchor="start" x="86" y="-89" font-family="Helvetica,sans-Serif" font-size="10.00">fwDataIO::writer::IObject</text>
<text text-anchor="middle" x="141" y="-78" font-family="Helvetica,sans-Serif" font-size="10.00">Writer</text>
</a>
</g>
</g>
<!-- Node2&#45;&gt;Node1 -->
<g id="edge1" class="edge"><title>Node2&#45;&gt;Node1</title>
<path fill="none" stroke="midnightblue" d="M141,-60.7688C141,-50.8141 141,-39.6384 141,-31.0716"/>
<polygon fill="midnightblue" stroke="midnightblue" points="137.5,-60.9103 141,-70.9104 144.5,-60.9104 137.5,-60.9103"/>
</g>
<!-- Node3 -->
<g id="node3" class="node"><title>Node3</title>
<g id="a_node3"><a xlink:href="classfwCore_1_1BaseObject.html" target="_top" xlink:title="Base class for all FW4SPL&#39;s classes. ">
<polygon fill="white" stroke="black" points="20.5,-150.5 20.5,-169.5 125.5,-169.5 125.5,-150.5 20.5,-150.5"/>
<text text-anchor="middle" x="73" y="-157.5" font-family="Helvetica,sans-Serif" font-size="10.00">fwCore::BaseObject</text>
</a>
</g>
</g>
<!-- Node3&#45;&gt;Node2 -->
<g id="edge2" class="edge"><title>Node3&#45;&gt;Node2</title>
<path fill="none" stroke="midnightblue" d="M88.0902,-143.022C99.9055,-130.512 116.188,-113.271 127.559,-101.232"/>
<polygon fill="midnightblue" stroke="midnightblue" points="85.3892,-140.785 81.0675,-150.458 90.4783,-145.591 85.3892,-140.785"/>
</g>
<!-- Node4 -->
<g id="node4" class="node"><title>Node4</title>
<polygon fill="white" stroke="#bfbfbf" points="-0.5,-209 -0.5,-239 130.5,-239 130.5,-209 -0.5,-209"/>
<text text-anchor="start" x="7.5" y="-227" font-family="Helvetica,sans-Serif" font-size="10.00">std::enable_shared</text>
<text text-anchor="middle" x="65" y="-216" font-family="Helvetica,sans-Serif" font-size="10.00">_from_this&lt; BaseObject &gt;</text>
</g>
<!-- Node4&#45;&gt;Node3 -->
<g id="edge3" class="edge"><title>Node4&#45;&gt;Node3</title>
<path fill="none" stroke="midnightblue" d="M68.1135,-198.871C69.4306,-188.663 70.8829,-177.408 71.8591,-169.842"/>
<polygon fill="midnightblue" stroke="midnightblue" points="64.6239,-198.566 66.8153,-208.931 71.5663,-199.461 64.6239,-198.566"/>
</g>
<!-- Node5 -->
<g id="node5" class="node"><title>Node5</title>
<g id="a_node5"><a xlink:title="STL class. ">
<polygon fill="white" stroke="#bfbfbf" points="159,-150.5 159,-169.5 219,-169.5 219,-150.5 159,-150.5"/>
<text text-anchor="middle" x="189" y="-157.5" font-family="Helvetica,sans-Serif" font-size="10.00">std::string</text>
</a>
</g>
</g>
<!-- Node5&#45;&gt;Node2 -->
<g id="edge4" class="edge"><title>Node5&#45;&gt;Node2</title>
<path fill="none" stroke="#9a32cd" stroke-dasharray="5,2" d="M177.626,-141.938C169.354,-129.531 158.285,-112.927 150.488,-101.232"/>
<polygon fill="#9a32cd" stroke="#9a32cd" points="174.846,-144.079 183.305,-150.458 180.67,-140.196 174.846,-144.079"/>
<text text-anchor="middle" x="200.5" y="-123.5" font-family="Helvetica,sans-Serif" font-size="10.00"> m_extension</text>
</g>
<!-- Node6 -->
<g id="node6" class="node"><title>Node6</title>
<g id="a_node6"><a xlink:title="STL class. ">
<polygon fill="white" stroke="#bfbfbf" points="148.5,-209 148.5,-239 243.5,-239 243.5,-209 148.5,-209"/>
<text text-anchor="start" x="156.5" y="-227" font-family="Helvetica,sans-Serif" font-size="10.00">std::basic_string&lt;</text>
<text text-anchor="middle" x="196" y="-216" font-family="Helvetica,sans-Serif" font-size="10.00"> char &gt;</text>
</a>
</g>
</g>
<!-- Node6&#45;&gt;Node5 -->
<g id="edge5" class="edge"><title>Node6&#45;&gt;Node5</title>
<path fill="none" stroke="midnightblue" d="M193.276,-198.871C192.123,-188.663 190.852,-177.408 189.998,-169.842"/>
<polygon fill="midnightblue" stroke="midnightblue" points="189.812,-199.387 194.412,-208.931 196.768,-198.602 189.812,-199.387"/>
</g>
</g>
</svg>
