<?xml version="1.0" encoding="UTF-8" standalone="no"?>
<!DOCTYPE svg PUBLIC "-//W3C//DTD SVG 1.1//EN"
 "http://www.w3.org/Graphics/SVG/1.1/DTD/svg11.dtd">
<!-- Generated by graphviz version 2.36.0 (20140111.2315)
 -->
<!-- Title: fwCore::util::FactoryRegistry&lt; RETURN_TYPE(), KEY_TYPE, FACTORY_HOLDER &gt; Pages: 1 -->
<!--zoomable 100 -->
<svg id="main" version="1.1" xmlns="http://www.w3.org/2000/svg" xmlns:xlink="http://www.w3.org/1999/xlink" xml:space="preserve" onload="init(evt)">
<style type="text/css"><![CDATA[
.edge:hover path { stroke: red; }
.edge:hover polygon { stroke: red; fill: red; }
]]></style>
<script type="text/javascript"><![CDATA[
var edges = document.getElementsByTagName('g');
if (edges && edges.length) {
  for (var i=0;i<edges.length;i++) {
    if (edges[i].id.substr(0,4)=='edge') {
      edges[i].setAttribute('class','edge');
    }
  }
}
]]></script>
        <defs>
                <circle id="rim" cx="0" cy="0" r="7"/>
                <circle id="rim2" cx="0" cy="0" r="3.5"/>
                <g id="zoomPlus">
                        <use xlink:href="#rim" fill="#404040">
                                <set attributeName="fill" to="#808080" begin="zoomplus.mouseover" end="zoomplus.mouseout"/>
                        </use>
                        <path d="M-4,0h8M0,-4v8" fill="none" stroke="white" stroke-width="1.5" pointer-events="none"/>
                </g>
                <g id="zoomMin">
                        <use xlink:href="#rim" fill="#404040">
                                <set attributeName="fill" to="#808080" begin="zoomminus.mouseover" end="zoomminus.mouseout"/>
                        </use>
                        <path d="M-4,0h8" fill="none" stroke="white" stroke-width="1.5" pointer-events="none"/>
                </g>
                <g id="dirArrow">
                        <path fill="none" stroke="white" stroke-width="1.5" d="M0,-3.0v7 M-2.5,-0.5L0,-3.0L2.5,-0.5"/>
                </g>
               <g id="resetDef">
                       <use xlink:href="#rim2" fill="#404040">
                               <set attributeName="fill" to="#808080" begin="reset.mouseover" end="reset.mouseout"/>
                       </use>
               </g>
        </defs>

<script type="text/javascript">
var viewWidth = 1300;
var viewHeight = 100;
var sectionId = 'dynsection-1';
</script>
<script xlink:href="svgpan.js"/>
<svg id="graph" class="graph">
<g id="viewport">
<title>fwCore::util::FactoryRegistry&lt; RETURN_TYPE(), KEY_TYPE, FACTORY_HOLDER &gt;</title>
<polygon fill="white" stroke="none" points="-4,4 -4,-96 1296,-96 1296,4 -4,4"/>
<!-- Node1 -->
<g id="node1" class="node"><title>Node1</title>
<polygon fill="#bfbfbf" stroke="black" points="1124.5,-33.5 1124.5,-74.5 1291.5,-74.5 1291.5,-33.5 1124.5,-33.5"/>
<text text-anchor="start" x="1132.5" y="-62.5" font-family="Helvetica,sans-Serif" font-size="10.00">fwCore::util::FactoryRegistry</text>
<text text-anchor="start" x="1132.5" y="-51.5" font-family="Helvetica,sans-Serif" font-size="10.00">&lt; RETURN_TYPE(), KEY_TYPE,</text>
<text text-anchor="middle" x="1208" y="-40.5" font-family="Helvetica,sans-Serif" font-size="10.00"> FACTORY_HOLDER &gt;</text>
</g>
<!-- Node2 -->
<g id="node2" class="node"><title>Node2</title>
<g id="a_node2"><a xlink:href="classfwCore_1_1util_1_1FactoryRegistryBase.html" target="_top" xlink:title="fwCore::util::FactoryRegistry\lBase\&lt; RETURN_TYPE(), KEY_TYPE \&gt;">
<polygon fill="white" stroke="black" points="890.5,-39 890.5,-69 1085.5,-69 1085.5,-39 890.5,-39"/>
<text text-anchor="start" x="898.5" y="-57" font-family="Helvetica,sans-Serif" font-size="10.00">fwCore::util::FactoryRegistry</text>
<text text-anchor="middle" x="988" y="-46" font-family="Helvetica,sans-Serif" font-size="10.00">Base&lt; RETURN_TYPE(), KEY_TYPE &gt;</text>
</a>
</g>
</g>
<!-- Node2&#45;&gt;Node1 -->
<g id="edge1" class="edge"><title>Node2&#45;&gt;Node1</title>
<path fill="none" stroke="midnightblue" d="M1095.65,-54C1105.34,-54 1115.05,-54 1124.49,-54"/>
<polygon fill="midnightblue" stroke="midnightblue" points="1095.57,-50.5001 1085.57,-54 1095.57,-57.5001 1095.57,-50.5001"/>
</g>
<!-- Node3 -->
<g id="node3" class="node"><title>Node3</title>
<polygon fill="white" stroke="#bfbfbf" points="360,-48 360,-78 466,-78 466,-48 360,-48"/>
<text text-anchor="start" x="368" y="-66" font-family="Helvetica,sans-Serif" font-size="10.00">std::map&lt; KeyType,</text>
<text text-anchor="middle" x="413" y="-55" font-family="Helvetica,sans-Serif" font-size="10.00"> FactoryType &gt;</text>
</g>
<!-- Node3&#45;&gt;Node2 -->
<g id="edge2" class="edge"><title>Node3&#45;&gt;Node2</title>
<path fill="none" stroke="#9a32cd" stroke-dasharray="5,2" d="M476.332,-64.9327C564.494,-67.2574 730.634,-70.1348 872,-64 878.007,-63.7393 884.185,-63.4024 890.411,-63.0108"/>
<polygon fill="#9a32cd" stroke="#9a32cd" points="476.324,-61.4313 466.233,-64.6598 476.135,-68.4288 476.324,-61.4313"/>
<text text-anchor="middle" x="643" y="-70" font-family="Helvetica,sans-Serif" font-size="10.00"> m_registry</text>
</g>
<!-- Node7 -->
<g id="node7" class="node"><title>Node7</title>
<g id="a_node7"><a xlink:href="classfwCore_1_1util_1_1FactoryRegistryBase.html" target="_top" xlink:title="FactoryRegistryBase is a class used to store factories. ">
<polygon fill="white" stroke="black" points="552,-0.5 552,-41.5 734,-41.5 734,-0.5 552,-0.5"/>
<text text-anchor="start" x="560" y="-29.5" font-family="Helvetica,sans-Serif" font-size="10.00">fwCore::util::FactoryRegistry</text>
<text text-anchor="start" x="560" y="-18.5" font-family="Helvetica,sans-Serif" font-size="10.00">Base&lt; FACTORY_SIGNATURE,</text>
<text text-anchor="middle" x="643" y="-7.5" font-family="Helvetica,sans-Serif" font-size="10.00"> KEY_TYPE, FACTORY_HOLDER &gt;</text>
</a>
</g>
</g>
<!-- Node3&#45;&gt;Node7 -->
<g id="edge7" class="edge"><title>Node3&#45;&gt;Node7</title>
<path fill="none" stroke="#9a32cd" stroke-dasharray="5,2" d="M476.107,-51.5591C499.408,-47.2669 526.386,-42.2974 551.727,-37.6293"/>
<polygon fill="#9a32cd" stroke="#9a32cd" points="475.222,-48.1632 466.022,-53.417 476.491,-55.0474 475.222,-48.1632"/>
<text text-anchor="middle" x="509" y="-52" font-family="Helvetica,sans-Serif" font-size="10.00"> m_registry</text>
</g>
<!-- Node4 -->
<g id="node4" class="node"><title>Node4</title>
<g id="a_node4"><a xlink:title="STL class. ">
<polygon fill="white" stroke="#bfbfbf" points="110,-53.5 110,-72.5 202,-72.5 202,-53.5 110,-53.5"/>
<text text-anchor="middle" x="156" y="-60.5" font-family="Helvetica,sans-Serif" font-size="10.00">std::map&lt; K, T &gt;</text>
</a>
</g>
</g>
<!-- Node4&#45;&gt;Node3 -->
<g id="edge3" class="edge"><title>Node4&#45;&gt;Node3</title>
<path fill="none" stroke="orange" stroke-dasharray="5,2" d="M212.204,-63C256.063,-63 316.971,-63 359.978,-63"/>
<polygon fill="orange" stroke="orange" points="212.002,-59.5001 202.002,-63 212.002,-66.5001 212.002,-59.5001"/>
<text text-anchor="middle" x="281" y="-66" font-family="Helvetica,sans-Serif" font-size="10.00"> &lt; KeyType, FactoryType &gt;</text>
</g>
<!-- Node5 -->
<g id="node5" class="node"><title>Node5</title>
<polygon fill="white" stroke="#bfbfbf" points="0.5,-72.5 0.5,-91.5 29.5,-91.5 29.5,-72.5 0.5,-72.5"/>
<text text-anchor="middle" x="15" y="-79.5" font-family="Helvetica,sans-Serif" font-size="10.00">K</text>
</g>
<!-- Node5&#45;&gt;Node4 -->
<g id="edge4" class="edge"><title>Node5&#45;&gt;Node4</title>
<path fill="none" stroke="#9a32cd" stroke-dasharray="5,2" d="M39.542,-78.782C58.7209,-76.1605 86.3624,-72.3821 109.791,-69.1796"/>
<polygon fill="#9a32cd" stroke="#9a32cd" points="39.0148,-75.3215 29.581,-80.1436 39.9629,-82.257 39.0148,-75.3215"/>
<text text-anchor="middle" x="70" y="-80" font-family="Helvetica,sans-Serif" font-size="10.00"> keys</text>
</g>
<!-- Node6 -->
<g id="node6" class="node"><title>Node6</title>
<polygon fill="white" stroke="#bfbfbf" points="0.5,-34.5 0.5,-53.5 29.5,-53.5 29.5,-34.5 0.5,-34.5"/>
<text text-anchor="middle" x="15" y="-41.5" font-family="Helvetica,sans-Serif" font-size="10.00">T</text>
</g>
<!-- Node6&#45;&gt;Node4 -->
<g id="edge5" class="edge"><title>Node6&#45;&gt;Node4</title>
<path fill="none" stroke="#9a32cd" stroke-dasharray="5,2" d="M39.542,-47.218C58.7209,-49.8395 86.3624,-53.6179 109.791,-56.8204"/>
<polygon fill="#9a32cd" stroke="#9a32cd" points="39.9629,-43.743 29.581,-45.8564 39.0148,-50.6785 39.9629,-43.743"/>
<text text-anchor="middle" x="70" y="-57" font-family="Helvetica,sans-Serif" font-size="10.00"> elements</text>
</g>
<!-- Node7&#45;&gt;Node2 -->
<g id="edge6" class="edge"><title>Node7&#45;&gt;Node2</title>
<path fill="none" stroke="orange" stroke-dasharray="5,2" d="M744.153,-29.9602C783.956,-33.5902 830.151,-37.8895 872,-42 877.993,-42.5887 884.161,-43.2042 890.38,-43.8321"/>
<polygon fill="orange" stroke="orange" points="744.454,-26.4732 734.178,-29.0522 743.819,-33.4443 744.454,-26.4732"/>
<text text-anchor="start" x="752.5" y="-56" font-family="Helvetica,sans-Serif" font-size="10.00"> &lt; RETURN_TYPE(), KEY</text>
<text text-anchor="middle" x="812" y="-45" font-family="Helvetica,sans-Serif" font-size="10.00">_TYPE &gt;</text>
</g>
</g>
</svg>
        <g id="navigator" transform="translate(0 0)" fill="#404254">
                <rect fill="#f2f5e9" fill-opacity="0.5" stroke="#606060" stroke-width=".5" x="0" y="0" width="60" height="60"/>
                <use id="zoomplus" xlink:href="#zoomPlus" x="17" y="9" onmousedown="handleZoom(evt,'in')"/>
                <use id="zoomminus" xlink:href="#zoomMin" x="42" y="9" onmousedown="handleZoom(evt,'out')"/>
                <use id="reset" xlink:href="#resetDef" x="30" y="36" onmousedown="handleReset()"/>
                <g id="arrowUp" xlink:href="#dirArrow" transform="translate(30 24)" onmousedown="handlePan(0,-1)">
                  <use xlink:href="#rim" fill="#404040">
                        <set attributeName="fill" to="#808080" begin="arrowUp.mouseover" end="arrowUp.mouseout"/>
                  </use>
                  <path fill="none" stroke="white" stroke-width="1.5" d="M0,-3.0v7 M-2.5,-0.5L0,-3.0L2.5,-0.5"/>
                </g>
                <g id="arrowRight" xlink:href="#dirArrow" transform="rotate(90) translate(36 -43)" onmousedown="handlePan(1,0)">
                  <use xlink:href="#rim" fill="#404040">
                        <set attributeName="fill" to="#808080" begin="arrowRight.mouseover" end="arrowRight.mouseout"/>
                  </use>
                  <path fill="none" stroke="white" stroke-width="1.5" d="M0,-3.0v7 M-2.5,-0.5L0,-3.0L2.5,-0.5"/>
                </g>
                <g id="arrowDown" xlink:href="#dirArrow" transform="rotate(180) translate(-30 -48)" onmousedown="handlePan(0,1)">
                  <use xlink:href="#rim" fill="#404040">
                        <set attributeName="fill" to="#808080" begin="arrowDown.mouseover" end="arrowDown.mouseout"/>
                  </use>
                  <path fill="none" stroke="white" stroke-width="1.5" d="M0,-3.0v7 M-2.5,-0.5L0,-3.0L2.5,-0.5"/>
                </g>
                <g id="arrowLeft" xlink:href="#dirArrow" transform="rotate(270) translate(-36 17)" onmousedown="handlePan(-1,0)">
                  <use xlink:href="#rim" fill="#404040">
                        <set attributeName="fill" to="#808080" begin="arrowLeft.mouseover" end="arrowLeft.mouseout"/>
                  </use>
                  <path fill="none" stroke="white" stroke-width="1.5" d="M0,-3.0v7 M-2.5,-0.5L0,-3.0L2.5,-0.5"/>
                </g>
        </g>
        <svg viewBox="0 0 15 15" width="100%" height="30px" preserveAspectRatio="xMaxYMin meet">
         <g id="arrow_out" transform="scale(0.3 0.3)">
          <a xlink:href="classfwCore_1_1util_1_1FactoryRegistry_3_01RETURN__TYPE_07_08_00_01KEY__TYPE_00_01FACTORY__HOLDER_01_4__coll__graph_org.svg" target="_base">
           <rect id="button" ry="5" rx="5" y="6" x="6" height="38" width="38"
                fill="#f2f5e9" fill-opacity="0.5" stroke="#606060" stroke-width="1.0"/>
           <path id="arrow"
             d="M 11.500037,31.436501 C 11.940474,20.09759 22.043105,11.32322 32.158766,21.979434 L 37.068811,17.246167 C 37.068811,17.246167 37.088388,32 37.088388,32 L 22.160133,31.978069 C 22.160133,31.978069 26.997745,27.140456 26.997745,27.140456 C 18.528582,18.264221 13.291696,25.230495 11.500037,31.436501 z"
             style="fill:#404040;"/>
          </a>
         </g>
        </svg>
</svg>
