<?xml version="1.0" encoding="UTF-8" standalone="no"?>
<!DOCTYPE svg PUBLIC "-//W3C//DTD SVG 1.1//EN"
 "http://www.w3.org/Graphics/SVG/1.1/DTD/svg11.dtd">
<!-- Generated by graphviz version 2.36.0 (20140111.2315)
 -->
<!-- Title: fwRenderQt::IAdaptor::mapAdaptorToScene Pages: 1 -->
<!--zoomable 703 -->
<svg id="main" version="1.1" xmlns="http://www.w3.org/2000/svg" xmlns:xlink="http://www.w3.org/1999/xlink" xml:space="preserve" onload="init(evt)">
<style type="text/css"><![CDATA[
.edge:hover path { stroke: red; }
.edge:hover polygon { stroke: red; fill: red; }
]]></style>
<script type="text/javascript"><![CDATA[
var edges = document.getElementsByTagName('g');
if (edges && edges.length) {
  for (var i=0;i<edges.length;i++) {
    if (edges[i].id.substr(0,4)=='edge') {
      edges[i].setAttribute('class','edge');
    }
  }
}
]]></script>
        <defs>
                <circle id="rim" cx="0" cy="0" r="7"/>
                <circle id="rim2" cx="0" cy="0" r="3.5"/>
                <g id="zoomPlus">
                        <use xlink:href="#rim" fill="#404040">
                                <set attributeName="fill" to="#808080" begin="zoomplus.mouseover" end="zoomplus.mouseout"/>
                        </use>
                        <path d="M-4,0h8M0,-4v8" fill="none" stroke="white" stroke-width="1.5" pointer-events="none"/>
                </g>
                <g id="zoomMin">
                        <use xlink:href="#rim" fill="#404040">
                                <set attributeName="fill" to="#808080" begin="zoomminus.mouseover" end="zoomminus.mouseout"/>
                        </use>
                        <path d="M-4,0h8" fill="none" stroke="white" stroke-width="1.5" pointer-events="none"/>
                </g>
                <g id="dirArrow">
                        <path fill="none" stroke="white" stroke-width="1.5" d="M0,-3.0v7 M-2.5,-0.5L0,-3.0L2.5,-0.5"/>
                </g>
               <g id="resetDef">
                       <use xlink:href="#rim2" fill="#404040">
                               <set attributeName="fill" to="#808080" begin="reset.mouseover" end="reset.mouseout"/>
                       </use>
               </g>
        </defs>

<script type="text/javascript">
var viewWidth = 540;
var viewHeight = 703;
var sectionId = 'dynsection-4';
</script>
<script xlink:href="svgpan.js"/>
<svg id="graph" class="graph">
<g id="viewport">
<title>fwRenderQt::IAdaptor::mapAdaptorToScene</title>
<polygon fill="white" stroke="none" points="-4,4 -4,-699 536,-699 536,4 -4,4"/>
<!-- Node1 -->
<g id="node1" class="node"><title>Node1</title>
<polygon fill="#bfbfbf" stroke="black" points="0,-376 0,-406 114,-406 114,-376 0,-376"/>
<text text-anchor="start" x="8" y="-394" font-family="Helvetica,sans-Serif" font-size="10.00">fwRenderQt::IAdaptor</text>
<text text-anchor="middle" x="57" y="-383" font-family="Helvetica,sans-Serif" font-size="10.00">::mapAdaptorToScene</text>
</g>
<!-- Node2 -->
<g id="node2" class="node"><title>Node2</title>
<g id="a_node2"><a xlink:href="classscene2D_1_1adaptor_1_1SLine.html#a46cf96985b4a46778fc7692f59e014e9" target="_top" xlink:title="Configure the service before starting. Apply the configuration to service. ">
<polygon fill="white" stroke="black" points="176.5,-665 176.5,-695 301.5,-695 301.5,-665 176.5,-665"/>
<text text-anchor="start" x="184.5" y="-683" font-family="Helvetica,sans-Serif" font-size="10.00">scene2D::adaptor::SLine</text>
<text text-anchor="middle" x="239" y="-672" font-family="Helvetica,sans-Serif" font-size="10.00">::configuring</text>
</a>
</g>
</g>
<!-- Node1&#45;&gt;Node2 -->
<g id="edge1" class="edge"><title>Node1&#45;&gt;Node2</title>
<path fill="none" stroke="midnightblue" d="M59.3239,-416.16C63.4584,-468.44 80.4433,-589.4 150,-655 157.395,-661.974 166.592,-667.024 176.229,-670.675"/>
<polygon fill="midnightblue" stroke="midnightblue" points="62.8091,-415.823 58.6224,-406.091 55.826,-416.31 62.8091,-415.823"/>
</g>
<!-- Node3 -->
<g id="node3" class="node"><title>Node3</title>
<g id="a_node3"><a xlink:href="classscene2D_1_1adaptor_1_1SGrid2D.html#a15145c97eb968885eec0784b175853fe" target="_top" xlink:title="Configure the service before starting. Apply the configuration to service. ">
<polygon fill="white" stroke="black" points="174,-616 174,-646 304,-646 304,-616 174,-616"/>
<text text-anchor="start" x="182" y="-634" font-family="Helvetica,sans-Serif" font-size="10.00">scene2D::adaptor::SGrid2</text>
<text text-anchor="middle" x="239" y="-623" font-family="Helvetica,sans-Serif" font-size="10.00">D::configuring</text>
</a>
</g>
</g>
<!-- Node1&#45;&gt;Node3 -->
<g id="edge2" class="edge"><title>Node1&#45;&gt;Node3</title>
<path fill="none" stroke="midnightblue" d="M61.6063,-416.123C69.3885,-460.988 91.9945,-554.958 150,-606 156.916,-612.085 165.215,-616.697 173.915,-620.189"/>
<polygon fill="midnightblue" stroke="midnightblue" points="65.0326,-415.386 59.9721,-406.078 58.1234,-416.51 65.0326,-415.386"/>
</g>
<!-- Node4 -->
<g id="node4" class="node"><title>Node4</title>
<g id="a_node4"><a xlink:href="classscene2D_1_1adaptor_1_1STransferFunction.html#a4744f61fb1a98d7ba1f3b759b4a814d0" target="_top" xlink:title="Configure the service before starting. Apply the configuration to service. ">
<polygon fill="white" stroke="black" points="167.5,-567 167.5,-597 310.5,-597 310.5,-567 167.5,-567"/>
<text text-anchor="start" x="175.5" y="-585" font-family="Helvetica,sans-Serif" font-size="10.00">scene2D::adaptor::STransfer</text>
<text text-anchor="middle" x="239" y="-574" font-family="Helvetica,sans-Serif" font-size="10.00">Function::configuring</text>
</a>
</g>
</g>
<!-- Node1&#45;&gt;Node4 -->
<g id="edge3" class="edge"><title>Node1&#45;&gt;Node4</title>
<path fill="none" stroke="midnightblue" d="M65.839,-415.801C78.1957,-451.002 105.486,-515.253 150,-552 157.344,-558.063 165.977,-562.924 174.915,-566.816"/>
<polygon fill="midnightblue" stroke="midnightblue" points="69.1373,-414.628 62.6141,-406.28 62.5073,-416.874 69.1373,-414.628"/>
</g>
<!-- Node5 -->
<g id="node5" class="node"><title>Node5</title>
<g id="a_node5"><a xlink:href="classscene2D_1_1adaptor_1_1SViewportRangeSelector.html#abbc810f77fe133fbda862b5273efeabd" target="_top" xlink:title="scene2D::adaptor::SViewport\lRangeSelector::processInteraction">
<polygon fill="white" stroke="black" points="364.5,-430 364.5,-460 531.5,-460 531.5,-430 364.5,-430"/>
<text text-anchor="start" x="372.5" y="-448" font-family="Helvetica,sans-Serif" font-size="10.00">scene2D::adaptor::SViewport</text>
<text text-anchor="middle" x="448" y="-437" font-family="Helvetica,sans-Serif" font-size="10.00">RangeSelector::processInteraction</text>
</a>
</g>
</g>
<!-- Node1&#45;&gt;Node5 -->
<g id="edge4" class="edge"><title>Node1&#45;&gt;Node5</title>
<path fill="none" stroke="midnightblue" d="M67.6272,-415.905C80.9397,-446.408 108.169,-496.649 150,-518 220.463,-553.965 251.864,-539.492 328,-518 367.887,-506.741 407.583,-477.952 429.547,-460.075"/>
<polygon fill="midnightblue" stroke="midnightblue" points="70.7337,-414.262 63.645,-406.388 64.2761,-416.964 70.7337,-414.262"/>
</g>
<!-- Node6 -->
<g id="node6" class="node"><title>Node6</title>
<g id="a_node6"><a xlink:href="classscene2D_1_1adaptor_1_1STransferFunction.html#a48f63547f7e8c450d0299e7a1066a58a" target="_top" xlink:title="scene2D::adaptor::STransfer\lFunction::processInteraction">
<polygon fill="white" stroke="black" points="167.5,-479 167.5,-509 310.5,-509 310.5,-479 167.5,-479"/>
<text text-anchor="start" x="175.5" y="-497" font-family="Helvetica,sans-Serif" font-size="10.00">scene2D::adaptor::STransfer</text>
<text text-anchor="middle" x="239" y="-486" font-family="Helvetica,sans-Serif" font-size="10.00">Function::processInteraction</text>
</a>
</g>
</g>
<!-- Node1&#45;&gt;Node6 -->
<g id="edge5" class="edge"><title>Node1&#45;&gt;Node6</title>
<path fill="none" stroke="midnightblue" d="M79.2208,-413.66C96.6963,-431.087 122.923,-454.557 150,-469 157.147,-472.812 164.939,-476.098 172.835,-478.915"/>
<polygon fill="midnightblue" stroke="midnightblue" points="81.3371,-410.819 71.8356,-406.132 76.3402,-415.721 81.3371,-410.819"/>
</g>
<!-- Node7 -->
<g id="node7" class="node"><title>Node7</title>
<g id="a_node7"><a xlink:href="classscene2D_1_1adaptor_1_1SViewportRangeSelector.html#a14b3f5f09a2acfaa7002305b8171757a" target="_top" xlink:title="Initialize the service activity. ">
<polygon fill="white" stroke="black" points="375.5,-379 375.5,-409 520.5,-409 520.5,-379 375.5,-379"/>
<text text-anchor="start" x="383.5" y="-397" font-family="Helvetica,sans-Serif" font-size="10.00">scene2D::adaptor::SViewport</text>
<text text-anchor="middle" x="448" y="-386" font-family="Helvetica,sans-Serif" font-size="10.00">RangeSelector::starting</text>
</a>
</g>
</g>
<!-- Node1&#45;&gt;Node7 -->
<g id="edge6" class="edge"><title>Node1&#45;&gt;Node7</title>
<path fill="none" stroke="midnightblue" d="M124.575,-391.513C194.376,-392.052 303.674,-392.895 375.328,-393.447"/>
<polygon fill="midnightblue" stroke="midnightblue" points="124.175,-388.01 114.148,-391.433 124.121,-395.01 124.175,-388.01"/>
</g>
<!-- Node8 -->
<g id="node8" class="node"><title>Node8</title>
<g id="a_node8"><a xlink:href="classscene2D_1_1adaptor_1_1SCurvedHistogram.html#ae30c443433ddb65e077e6a1350779339" target="_top" xlink:title="Initialize the service activity. ">
<polygon fill="white" stroke="black" points="379,-311 379,-341 517,-341 517,-311 379,-311"/>
<text text-anchor="start" x="387" y="-329" font-family="Helvetica,sans-Serif" font-size="10.00">scene2D::adaptor::SCurved</text>
<text text-anchor="middle" x="448" y="-318" font-family="Helvetica,sans-Serif" font-size="10.00">Histogram::starting</text>
</a>
</g>
</g>
<!-- Node1&#45;&gt;Node8 -->
<g id="edge7" class="edge"><title>Node1&#45;&gt;Node8</title>
<path fill="none" stroke="midnightblue" d="M124.303,-379.921C195.21,-368.073 307.102,-349.376 378.749,-337.404"/>
<polygon fill="midnightblue" stroke="midnightblue" points="123.435,-376.518 114.148,-381.618 124.589,-383.422 123.435,-376.518"/>
</g>
<!-- Node9 -->
<g id="node9" class="node"><title>Node9</title>
<g id="a_node9"><a xlink:href="classscene2D_1_1adaptor_1_1SViewportRangeSelector.html#adbeb4447cbbc11e12f0e2505868f83f0" target="_top" xlink:title="scene2D::adaptor::SViewport\lRangeSelector::updateViewportFrom\lShutter">
<polygon fill="white" stroke="black" points="150.5,-419.5 150.5,-460.5 327.5,-460.5 327.5,-419.5 150.5,-419.5"/>
<text text-anchor="start" x="158.5" y="-448.5" font-family="Helvetica,sans-Serif" font-size="10.00">scene2D::adaptor::SViewport</text>
<text text-anchor="start" x="158.5" y="-437.5" font-family="Helvetica,sans-Serif" font-size="10.00">RangeSelector::updateViewportFrom</text>
<text text-anchor="middle" x="239" y="-426.5" font-family="Helvetica,sans-Serif" font-size="10.00">Shutter</text>
</a>
</g>
</g>
<!-- Node1&#45;&gt;Node9 -->
<g id="edge8" class="edge"><title>Node1&#45;&gt;Node9</title>
<path fill="none" stroke="midnightblue" d="M123.473,-408.823C136.155,-412.276 149.541,-415.919 162.513,-419.451"/>
<polygon fill="midnightblue" stroke="midnightblue" points="124.043,-405.351 113.475,-406.101 122.204,-412.105 124.043,-405.351"/>
</g>
<!-- Node10 -->
<g id="node10" class="node"><title>Node10</title>
<g id="a_node10"><a xlink:href="classscene2D_1_1adaptor_1_1SViewportUpdater.html#ae33d0325a031da94703f23ab51b2931b" target="_top" xlink:title="Perform some computations according to object (this service is attached to) attribute values and its ...">
<polygon fill="white" stroke="black" points="166.5,-245 166.5,-275 311.5,-275 311.5,-245 166.5,-245"/>
<text text-anchor="start" x="174.5" y="-263" font-family="Helvetica,sans-Serif" font-size="10.00">scene2D::adaptor::SViewport</text>
<text text-anchor="middle" x="239" y="-252" font-family="Helvetica,sans-Serif" font-size="10.00">Updater::updating</text>
</a>
</g>
</g>
<!-- Node1&#45;&gt;Node10 -->
<g id="edge11" class="edge"><title>Node1&#45;&gt;Node10</title>
<path fill="none" stroke="midnightblue" d="M72.4516,-367.011C88.4249,-342.539 116.391,-305.233 150,-284 155.489,-280.532 161.477,-277.56 167.663,-275.013"/>
<polygon fill="midnightblue" stroke="midnightblue" points="69.3387,-365.384 66.9302,-375.701 75.247,-369.138 69.3387,-365.384"/>
</g>
<!-- Node12 -->
<g id="node12" class="node"><title>Node12</title>
<g id="a_node12"><a xlink:href="classscene2D_1_1adaptor_1_1SHistogram.html#a3a9f0b7dcef17da8b6b3c1e41073db6e" target="_top" xlink:title="Perform some computations according to object (this service is attached to) attribute values and its ...">
<polygon fill="white" stroke="black" points="163,-196 163,-226 315,-226 315,-196 163,-196"/>
<text text-anchor="start" x="171" y="-214" font-family="Helvetica,sans-Serif" font-size="10.00">scene2D::adaptor::SHistogram</text>
<text text-anchor="middle" x="239" y="-203" font-family="Helvetica,sans-Serif" font-size="10.00">::updating</text>
</a>
</g>
</g>
<!-- Node1&#45;&gt;Node12 -->
<g id="edge13" class="edge"><title>Node1&#45;&gt;Node12</title>
<path fill="none" stroke="midnightblue" d="M65.9185,-366.148C78.2531,-331.488 105.384,-269.066 150,-235 154.531,-231.54 159.528,-228.579 164.77,-226.045"/>
<polygon fill="midnightblue" stroke="midnightblue" points="62.4901,-365.356 62.5626,-375.951 69.1128,-367.624 62.4901,-365.356"/>
</g>
<!-- Node14 -->
<g id="node14" class="node"><title>Node14</title>
<g id="a_node14"><a xlink:href="classscene2D_1_1adaptor_1_1SAxis.html#a63fc2bf3609324f4c1463933ee0e9f0e" target="_top" xlink:title="Perform some computations according to object (this service is attached to) attribute values and its ...">
<polygon fill="white" stroke="black" points="176,-147 176,-177 302,-177 302,-147 176,-147"/>
<text text-anchor="start" x="184" y="-165" font-family="Helvetica,sans-Serif" font-size="10.00">scene2D::adaptor::SAxis</text>
<text text-anchor="middle" x="239" y="-154" font-family="Helvetica,sans-Serif" font-size="10.00">::updating</text>
</a>
</g>
</g>
<!-- Node1&#45;&gt;Node14 -->
<g id="edge15" class="edge"><title>Node1&#45;&gt;Node14</title>
<path fill="none" stroke="midnightblue" d="M62.1574,-365.745C70.6458,-322.375 94.1131,-233.804 150,-186 157.461,-179.618 166.47,-174.92 175.839,-171.464"/>
<polygon fill="midnightblue" stroke="midnightblue" points="58.685,-365.275 60.3115,-375.745 65.5687,-366.546 58.685,-365.275"/>
</g>
<!-- Node17 -->
<g id="node17" class="node"><title>Node17</title>
<g id="a_node17"><a xlink:href="classscene2D_1_1adaptor_1_1SCurvedHistogram.html#afc21a1d00f0f6602b0cf1636c891aeea" target="_top" xlink:title="Perform some computations according to object (this service is attached to) attribute values and its ...">
<polygon fill="white" stroke="black" points="170,-294 170,-324 308,-324 308,-294 170,-294"/>
<text text-anchor="start" x="178" y="-312" font-family="Helvetica,sans-Serif" font-size="10.00">scene2D::adaptor::SCurved</text>
<text text-anchor="middle" x="239" y="-301" font-family="Helvetica,sans-Serif" font-size="10.00">Histogram::updating</text>
</a>
</g>
</g>
<!-- Node1&#45;&gt;Node17 -->
<g id="edge18" class="edge"><title>Node1&#45;&gt;Node17</title>
<path fill="none" stroke="midnightblue" d="M90.5404,-370.643C107.805,-360.351 129.614,-348.141 150,-339 162.225,-333.519 175.773,-328.438 188.501,-324.075"/>
<polygon fill="midnightblue" stroke="midnightblue" points="88.7103,-367.659 81.9578,-375.824 92.3277,-373.652 88.7103,-367.659"/>
</g>
<!-- Node18 -->
<g id="node18" class="node"><title>Node18</title>
<g id="a_node18"><a xlink:href="classscene2D_1_1adaptor_1_1SScaleValues.html#a9d877fd1225e147e78623c8bc70a9455" target="_top" xlink:title="Do nothing. ">
<polygon fill="white" stroke="black" points="173.5,-49 173.5,-79 304.5,-79 304.5,-49 173.5,-49"/>
<text text-anchor="start" x="181.5" y="-67" font-family="Helvetica,sans-Serif" font-size="10.00">scene2D::adaptor::SScale</text>
<text text-anchor="middle" x="239" y="-56" font-family="Helvetica,sans-Serif" font-size="10.00">Values::updating</text>
</a>
</g>
</g>
<!-- Node1&#45;&gt;Node18 -->
<g id="edge20" class="edge"><title>Node1&#45;&gt;Node18</title>
<path fill="none" stroke="midnightblue" d="M62.4568,-366.155C71.9809,-318.225 97.8287,-211.186 150,-137 166.9,-112.969 193.671,-92.3252 213.252,-79.184"/>
<polygon fill="midnightblue" stroke="midnightblue" points="59.0196,-365.495 60.5716,-375.976 65.8941,-366.815 59.0196,-365.495"/>
</g>
<!-- Node9&#45;&gt;Node5 -->
<g id="edge10" class="edge"><title>Node9&#45;&gt;Node5</title>
<path fill="none" stroke="midnightblue" d="M338.068,-442.369C346.86,-442.581 355.705,-442.795 364.347,-443.004"/>
<polygon fill="midnightblue" stroke="midnightblue" points="337.868,-438.863 327.787,-442.12 337.699,-445.861 337.868,-438.863"/>
</g>
<!-- Node9&#45;&gt;Node7 -->
<g id="edge9" class="edge"><title>Node9&#45;&gt;Node7</title>
<path fill="none" stroke="midnightblue" d="M337.568,-418.318C351.75,-415.167 366.081,-411.982 379.491,-409.002"/>
<polygon fill="midnightblue" stroke="midnightblue" points="336.789,-414.906 327.787,-420.492 338.308,-421.739 336.789,-414.906"/>
</g>
<!-- Node11 -->
<g id="node11" class="node"><title>Node11</title>
<g id="a_node11"><a xlink:href="classscene2D_1_1adaptor_1_1SViewportUpdater.html#aa3dd8fa2101c6c70f5d7ddf974df5e81" target="_top" xlink:title="Initialize the service activity. ">
<polygon fill="white" stroke="black" points="375.5,-245 375.5,-275 520.5,-275 520.5,-245 375.5,-245"/>
<text text-anchor="start" x="383.5" y="-263" font-family="Helvetica,sans-Serif" font-size="10.00">scene2D::adaptor::SViewport</text>
<text text-anchor="middle" x="448" y="-252" font-family="Helvetica,sans-Serif" font-size="10.00">Updater::starting</text>
</a>
</g>
</g>
<!-- Node10&#45;&gt;Node11 -->
<g id="edge12" class="edge"><title>Node10&#45;&gt;Node11</title>
<path fill="none" stroke="midnightblue" d="M321.844,-260C339.568,-260 358.179,-260 375.47,-260"/>
<polygon fill="midnightblue" stroke="midnightblue" points="321.528,-256.5 311.528,-260 321.527,-263.5 321.528,-256.5"/>
</g>
<!-- Node13 -->
<g id="node13" class="node"><title>Node13</title>
<g id="a_node13"><a xlink:href="classscene2D_1_1adaptor_1_1SHistogram.html#a09e742e9092f6f08c71154de2b379791" target="_top" xlink:title="Initialize the service activity. ">
<polygon fill="white" stroke="black" points="372,-196 372,-226 524,-226 524,-196 372,-196"/>
<text text-anchor="start" x="380" y="-214" font-family="Helvetica,sans-Serif" font-size="10.00">scene2D::adaptor::SHistogram</text>
<text text-anchor="middle" x="448" y="-203" font-family="Helvetica,sans-Serif" font-size="10.00">::starting</text>
</a>
</g>
</g>
<!-- Node12&#45;&gt;Node13 -->
<g id="edge14" class="edge"><title>Node12&#45;&gt;Node13</title>
<path fill="none" stroke="midnightblue" d="M325.116,-211C340.621,-211 356.695,-211 371.884,-211"/>
<polygon fill="midnightblue" stroke="midnightblue" points="325.024,-207.5 315.024,-211 325.024,-214.5 325.024,-207.5"/>
</g>
<!-- Node15 -->
<g id="node15" class="node"><title>Node15</title>
<g id="a_node15"><a xlink:href="classscene2D_1_1adaptor_1_1SAxis.html#ab91c51662db3ecc15e923125c0770d43" target="_top" xlink:title="Initialize the service activity. ">
<polygon fill="white" stroke="black" points="385,-147 385,-177 511,-177 511,-147 385,-147"/>
<text text-anchor="start" x="393" y="-165" font-family="Helvetica,sans-Serif" font-size="10.00">scene2D::adaptor::SAxis</text>
<text text-anchor="middle" x="448" y="-154" font-family="Helvetica,sans-Serif" font-size="10.00">::starting</text>
</a>
</g>
</g>
<!-- Node14&#45;&gt;Node15 -->
<g id="edge16" class="edge"><title>Node14&#45;&gt;Node15</title>
<path fill="none" stroke="midnightblue" d="M312.114,-162C335.849,-162 362.017,-162 384.937,-162"/>
<polygon fill="midnightblue" stroke="midnightblue" points="312.107,-158.5 302.107,-162 312.107,-165.5 312.107,-158.5"/>
</g>
<!-- Node16 -->
<g id="node16" class="node"><title>Node16</title>
<g id="a_node16"><a xlink:href="classscene2D_1_1adaptor_1_1SAxis.html#a53a8f289f444a2bb9c34b0788bc21aa4" target="_top" xlink:title="Manage the given events. ">
<polygon fill="white" stroke="black" points="385,-98 385,-128 511,-128 511,-98 385,-98"/>
<text text-anchor="start" x="393" y="-116" font-family="Helvetica,sans-Serif" font-size="10.00">scene2D::adaptor::SAxis</text>
<text text-anchor="middle" x="448" y="-105" font-family="Helvetica,sans-Serif" font-size="10.00">::processInteraction</text>
</a>
</g>
</g>
<!-- Node14&#45;&gt;Node16 -->
<g id="edge17" class="edge"><title>Node14&#45;&gt;Node16</title>
<path fill="none" stroke="midnightblue" d="M312.114,-144.93C335.849,-139.311 362.017,-133.117 384.937,-127.691"/>
<polygon fill="midnightblue" stroke="midnightblue" points="311.032,-141.589 302.107,-147.298 312.644,-148.401 311.032,-141.589"/>
</g>
<!-- Node17&#45;&gt;Node8 -->
<g id="edge19" class="edge"><title>Node17&#45;&gt;Node8</title>
<path fill="none" stroke="midnightblue" d="M318.074,-315.412C338.079,-317.055 359.435,-318.809 378.893,-320.407"/>
<polygon fill="midnightblue" stroke="midnightblue" points="318.319,-311.92 308.066,-314.59 317.746,-318.897 318.319,-311.92"/>
</g>
<!-- Node19 -->
<g id="node19" class="node"><title>Node19</title>
<g id="a_node19"><a xlink:href="classscene2D_1_1adaptor_1_1SScaleValues.html#adb68fbe789b70ea5e3e03423612d56bf" target="_top" xlink:title="Initialize the layer, set the pen style to DashLine and call the draw() function. ...">
<polygon fill="white" stroke="black" points="382.5,-49 382.5,-79 513.5,-79 513.5,-49 382.5,-49"/>
<text text-anchor="start" x="390.5" y="-67" font-family="Helvetica,sans-Serif" font-size="10.00">scene2D::adaptor::SScale</text>
<text text-anchor="middle" x="448" y="-56" font-family="Helvetica,sans-Serif" font-size="10.00">Values::starting</text>
</a>
</g>
</g>
<!-- Node18&#45;&gt;Node19 -->
<g id="edge21" class="edge"><title>Node18&#45;&gt;Node19</title>
<path fill="none" stroke="midnightblue" d="M314.691,-64C336.886,-64 361.001,-64 382.49,-64"/>
<polygon fill="midnightblue" stroke="midnightblue" points="314.645,-60.5001 304.645,-64 314.645,-67.5001 314.645,-60.5001"/>
</g>
<!-- Node20 -->
<g id="node20" class="node"><title>Node20</title>
<g id="a_node20"><a xlink:href="classscene2D_1_1adaptor_1_1SScaleValues.html#afdcc9357ae6f6acb908b96901747bdd3" target="_top" xlink:title="Manage the given events. ">
<polygon fill="white" stroke="black" points="381.5,-0 381.5,-30 514.5,-30 514.5,-0 381.5,-0"/>
<text text-anchor="start" x="389.5" y="-18" font-family="Helvetica,sans-Serif" font-size="10.00">scene2D::adaptor::SScale</text>
<text text-anchor="middle" x="448" y="-7" font-family="Helvetica,sans-Serif" font-size="10.00">Values::processInteraction</text>
</a>
</g>
</g>
<!-- Node18&#45;&gt;Node20 -->
<g id="edge22" class="edge"><title>Node18&#45;&gt;Node20</title>
<path fill="none" stroke="midnightblue" d="M313.522,-46.5962C336.421,-41.1757 361.463,-35.248 383.607,-30.0062"/>
<polygon fill="midnightblue" stroke="midnightblue" points="312.438,-43.2559 303.514,-48.9654 314.051,-50.0677 312.438,-43.2559"/>
</g>
</g>
</svg>
        <g id="navigator" transform="translate(0 0)" fill="#404254">
                <rect fill="#f2f5e9" fill-opacity="0.5" stroke="#606060" stroke-width=".5" x="0" y="0" width="60" height="60"/>
                <use id="zoomplus" xlink:href="#zoomPlus" x="17" y="9" onmousedown="handleZoom(evt,'in')"/>
                <use id="zoomminus" xlink:href="#zoomMin" x="42" y="9" onmousedown="handleZoom(evt,'out')"/>
                <use id="reset" xlink:href="#resetDef" x="30" y="36" onmousedown="handleReset()"/>
                <g id="arrowUp" xlink:href="#dirArrow" transform="translate(30 24)" onmousedown="handlePan(0,-1)">
                  <use xlink:href="#rim" fill="#404040">
                        <set attributeName="fill" to="#808080" begin="arrowUp.mouseover" end="arrowUp.mouseout"/>
                  </use>
                  <path fill="none" stroke="white" stroke-width="1.5" d="M0,-3.0v7 M-2.5,-0.5L0,-3.0L2.5,-0.5"/>
                </g>
                <g id="arrowRight" xlink:href="#dirArrow" transform="rotate(90) translate(36 -43)" onmousedown="handlePan(1,0)">
                  <use xlink:href="#rim" fill="#404040">
                        <set attributeName="fill" to="#808080" begin="arrowRight.mouseover" end="arrowRight.mouseout"/>
                  </use>
                  <path fill="none" stroke="white" stroke-width="1.5" d="M0,-3.0v7 M-2.5,-0.5L0,-3.0L2.5,-0.5"/>
                </g>
                <g id="arrowDown" xlink:href="#dirArrow" transform="rotate(180) translate(-30 -48)" onmousedown="handlePan(0,1)">
                  <use xlink:href="#rim" fill="#404040">
                        <set attributeName="fill" to="#808080" begin="arrowDown.mouseover" end="arrowDown.mouseout"/>
                  </use>
                  <path fill="none" stroke="white" stroke-width="1.5" d="M0,-3.0v7 M-2.5,-0.5L0,-3.0L2.5,-0.5"/>
                </g>
                <g id="arrowLeft" xlink:href="#dirArrow" transform="rotate(270) translate(-36 17)" onmousedown="handlePan(-1,0)">
                  <use xlink:href="#rim" fill="#404040">
                        <set attributeName="fill" to="#808080" begin="arrowLeft.mouseover" end="arrowLeft.mouseout"/>
                  </use>
                  <path fill="none" stroke="white" stroke-width="1.5" d="M0,-3.0v7 M-2.5,-0.5L0,-3.0L2.5,-0.5"/>
                </g>
        </g>
        <svg viewBox="0 0 15 15" width="100%" height="30px" preserveAspectRatio="xMaxYMin meet">
         <g id="arrow_out" transform="scale(0.3 0.3)">
          <a xlink:href="classfwRenderQt_1_1IAdaptor_aafb0b1479c046c3bedf55291c2226019_icgraph_org.svg" target="_base">
           <rect id="button" ry="5" rx="5" y="6" x="6" height="38" width="38"
                fill="#f2f5e9" fill-opacity="0.5" stroke="#606060" stroke-width="1.0"/>
           <path id="arrow"
             d="M 11.500037,31.436501 C 11.940474,20.09759 22.043105,11.32322 32.158766,21.979434 L 37.068811,17.246167 C 37.068811,17.246167 37.088388,32 37.088388,32 L 22.160133,31.978069 C 22.160133,31.978069 26.997745,27.140456 26.997745,27.140456 C 18.528582,18.264221 13.291696,25.230495 11.500037,31.436501 z"
             style="fill:#404040;"/>
          </a>
         </g>
        </svg>
</svg>
