<?xml version="1.0" encoding="UTF-8" standalone="no"?>
<!DOCTYPE svg PUBLIC "-//W3C//DTD SVG 1.1//EN"
 "http://www.w3.org/Graphics/SVG/1.1/DTD/svg11.dtd">
<!-- Generated by graphviz version 2.36.0 (20140111.2315)
 -->
<!-- Title: fwGui::layoutManager::IViewLayoutManager Pages: 1 -->
<!--zoomable 185 -->
<svg id="main" version="1.1" xmlns="http://www.w3.org/2000/svg" xmlns:xlink="http://www.w3.org/1999/xlink" xml:space="preserve" onload="init(evt)">
<style type="text/css"><![CDATA[
.edge:hover path { stroke: red; }
.edge:hover polygon { stroke: red; fill: red; }
]]></style>
<script type="text/javascript"><![CDATA[
var edges = document.getElementsByTagName('g');
if (edges && edges.length) {
  for (var i=0;i<edges.length;i++) {
    if (edges[i].id.substr(0,4)=='edge') {
      edges[i].setAttribute('class','edge');
    }
  }
}
]]></script>
        <defs>
                <circle id="rim" cx="0" cy="0" r="7"/>
                <circle id="rim2" cx="0" cy="0" r="3.5"/>
                <g id="zoomPlus">
                        <use xlink:href="#rim" fill="#404040">
                                <set attributeName="fill" to="#808080" begin="zoomplus.mouseover" end="zoomplus.mouseout"/>
                        </use>
                        <path d="M-4,0h8M0,-4v8" fill="none" stroke="white" stroke-width="1.5" pointer-events="none"/>
                </g>
                <g id="zoomMin">
                        <use xlink:href="#rim" fill="#404040">
                                <set attributeName="fill" to="#808080" begin="zoomminus.mouseover" end="zoomminus.mouseout"/>
                        </use>
                        <path d="M-4,0h8" fill="none" stroke="white" stroke-width="1.5" pointer-events="none"/>
                </g>
                <g id="dirArrow">
                        <path fill="none" stroke="white" stroke-width="1.5" d="M0,-3.0v7 M-2.5,-0.5L0,-3.0L2.5,-0.5"/>
                </g>
               <g id="resetDef">
                       <use xlink:href="#rim2" fill="#404040">
                               <set attributeName="fill" to="#808080" begin="reset.mouseover" end="reset.mouseout"/>
                       </use>
               </g>
        </defs>

<script type="text/javascript">
var viewWidth = 954;
var viewHeight = 185;
var sectionId = 'dynsection-0';
</script>
<script xlink:href="svgpan.js"/>
<svg id="graph" class="graph">
<g id="viewport">
<title>fwGui::layoutManager::IViewLayoutManager</title>
<polygon fill="white" stroke="none" points="-4,4 -4,-181 950,-181 950,4 -4,4"/>
<!-- Node1 -->
<g id="node1" class="node"><title>Node1</title>
<polygon fill="#bfbfbf" stroke="black" points="460,-73 460,-103 574,-103 574,-73 460,-73"/>
<text text-anchor="start" x="468" y="-91" font-family="Helvetica,sans-Serif" font-size="10.00">fwGui::layoutManager</text>
<text text-anchor="middle" x="517" y="-80" font-family="Helvetica,sans-Serif" font-size="10.00">::IViewLayoutManager</text>
</g>
<!-- Node5 -->
<g id="node5" class="node"><title>Node5</title>
<g id="a_node5"><a xlink:href="classfwGui_1_1layoutManager_1_1CardinalLayoutManagerBase.html" target="_top" xlink:title="Defines the base for cardinal layout manager. ">
<polygon fill="white" stroke="black" points="610,-147 610,-177 758,-177 758,-147 610,-147"/>
<text text-anchor="start" x="618" y="-165" font-family="Helvetica,sans-Serif" font-size="10.00">fwGui::layoutManager</text>
<text text-anchor="middle" x="684" y="-154" font-family="Helvetica,sans-Serif" font-size="10.00">::CardinalLayoutManagerBase</text>
</a>
</g>
</g>
<!-- Node1&#45;&gt;Node5 -->
<g id="edge4" class="edge"><title>Node1&#45;&gt;Node5</title>
<path fill="none" stroke="midnightblue" d="M552.616,-108.124C569.593,-117.554 590.533,-128.546 610,-137 618.11,-140.522 626.89,-143.889 635.456,-146.948"/>
<polygon fill="midnightblue" stroke="midnightblue" points="554.059,-104.92 543.627,-103.071 550.629,-111.022 554.059,-104.92"/>
</g>
<!-- Node7 -->
<g id="node7" class="node"><title>Node7</title>
<g id="a_node7"><a xlink:href="classfwGui_1_1layoutManager_1_1LineLayoutManagerBase.html" target="_top" xlink:title="Defines the base for line layout manager. ">
<polygon fill="white" stroke="black" points="619,-98 619,-128 749,-128 749,-98 619,-98"/>
<text text-anchor="start" x="627" y="-116" font-family="Helvetica,sans-Serif" font-size="10.00">fwGui::layoutManager</text>
<text text-anchor="middle" x="684" y="-105" font-family="Helvetica,sans-Serif" font-size="10.00">::LineLayoutManagerBase</text>
</a>
</g>
</g>
<!-- Node1&#45;&gt;Node7 -->
<g id="edge6" class="edge"><title>Node1&#45;&gt;Node7</title>
<path fill="none" stroke="midnightblue" d="M584.253,-98.0383C595.708,-99.7739 607.597,-101.575 618.991,-103.302"/>
<polygon fill="midnightblue" stroke="midnightblue" points="584.734,-94.5713 574.322,-96.5337 583.685,-101.492 584.734,-94.5713"/>
</g>
<!-- Node9 -->
<g id="node9" class="node"><title>Node9</title>
<g id="a_node9"><a xlink:href="classfwGui_1_1layoutManager_1_1TabLayoutManagerBase.html" target="_top" xlink:title="Defines the base for cardinal layout manager. ">
<polygon fill="white" stroke="black" points="620,-49 620,-79 748,-79 748,-49 620,-49"/>
<text text-anchor="start" x="628" y="-67" font-family="Helvetica,sans-Serif" font-size="10.00">fwGui::layoutManager</text>
<text text-anchor="middle" x="684" y="-56" font-family="Helvetica,sans-Serif" font-size="10.00">::TabLayoutManagerBase</text>
</a>
</g>
</g>
<!-- Node1&#45;&gt;Node9 -->
<g id="edge8" class="edge"><title>Node1&#45;&gt;Node9</title>
<path fill="none" stroke="midnightblue" d="M584.449,-78.3347C596.132,-76.6354 608.261,-74.8711 619.851,-73.1853"/>
<polygon fill="midnightblue" stroke="midnightblue" points="583.714,-74.9047 574.322,-79.8077 584.722,-81.8318 583.714,-74.9047"/>
</g>
<!-- Node11 -->
<g id="node11" class="node"><title>Node11</title>
<g id="a_node11"><a xlink:href="classfwGui_1_1layoutManager_1_1ToolboxLayoutManagerBase.html" target="_top" xlink:title="Defines the base for line layout manager. ">
<polygon fill="white" stroke="black" points="611,-0 611,-30 757,-30 757,-0 611,-0"/>
<text text-anchor="start" x="619" y="-18" font-family="Helvetica,sans-Serif" font-size="10.00">fwGui::layoutManager</text>
<text text-anchor="middle" x="684" y="-7" font-family="Helvetica,sans-Serif" font-size="10.00">::ToolboxLayoutManagerBase</text>
</a>
</g>
</g>
<!-- Node1&#45;&gt;Node11 -->
<g id="edge10" class="edge"><title>Node1&#45;&gt;Node11</title>
<path fill="none" stroke="midnightblue" d="M552.571,-67.7705C569.537,-58.3157 590.481,-47.3335 610,-39 617.362,-35.857 625.283,-32.8689 633.096,-30.1358"/>
<polygon fill="midnightblue" stroke="midnightblue" points="550.577,-64.8766 543.589,-72.8395 554.018,-70.9728 550.577,-64.8766"/>
</g>
<!-- Node2 -->
<g id="node2" class="node"><title>Node2</title>
<g id="a_node2"><a xlink:href="classfwGui_1_1GuiBaseObject.html" target="_top" xlink:title="Base class for all fwGui&#39;s classes. ">
<polygon fill="white" stroke="black" points="310,-78.5 310,-97.5 424,-97.5 424,-78.5 310,-78.5"/>
<text text-anchor="middle" x="367" y="-85.5" font-family="Helvetica,sans-Serif" font-size="10.00">fwGui::GuiBaseObject</text>
</a>
</g>
</g>
<!-- Node2&#45;&gt;Node1 -->
<g id="edge1" class="edge"><title>Node2&#45;&gt;Node1</title>
<path fill="none" stroke="midnightblue" d="M434.558,-88C442.984,-88 451.539,-88 459.782,-88"/>
<polygon fill="midnightblue" stroke="midnightblue" points="434.375,-84.5001 424.375,-88 434.375,-91.5001 434.375,-84.5001"/>
</g>
<!-- Node3 -->
<g id="node3" class="node"><title>Node3</title>
<g id="a_node3"><a xlink:href="classfwCore_1_1BaseObject.html" target="_top" xlink:title="Base class for all FW4SPL&#39;s classes. ">
<polygon fill="white" stroke="black" points="168.5,-78.5 168.5,-97.5 273.5,-97.5 273.5,-78.5 168.5,-78.5"/>
<text text-anchor="middle" x="221" y="-85.5" font-family="Helvetica,sans-Serif" font-size="10.00">fwCore::BaseObject</text>
</a>
</g>
</g>
<!-- Node3&#45;&gt;Node2 -->
<g id="edge2" class="edge"><title>Node3&#45;&gt;Node2</title>
<path fill="none" stroke="midnightblue" d="M283.679,-88C292.389,-88 301.305,-88 309.902,-88"/>
<polygon fill="midnightblue" stroke="midnightblue" points="283.581,-84.5001 273.581,-88 283.581,-91.5001 283.581,-84.5001"/>
</g>
<!-- Node4 -->
<g id="node4" class="node"><title>Node4</title>
<polygon fill="white" stroke="#bfbfbf" points="0.5,-73 0.5,-103 131.5,-103 131.5,-73 0.5,-73"/>
<text text-anchor="start" x="8.5" y="-91" font-family="Helvetica,sans-Serif" font-size="10.00">std::enable_shared</text>
<text text-anchor="middle" x="66" y="-80" font-family="Helvetica,sans-Serif" font-size="10.00">_from_this&lt; BaseObject &gt;</text>
</g>
<!-- Node4&#45;&gt;Node3 -->
<g id="edge3" class="edge"><title>Node4&#45;&gt;Node3</title>
<path fill="none" stroke="midnightblue" d="M141.972,-88C150.939,-88 159.934,-88 168.464,-88"/>
<polygon fill="midnightblue" stroke="midnightblue" points="141.886,-84.5001 131.886,-88 141.886,-91.5001 141.886,-84.5001"/>
</g>
<!-- Node6 -->
<g id="node6" class="node"><title>Node6</title>
<g id="a_node6"><a xlink:href="classfwGui_1_1CardinalLayoutManager.html" target="_top" xlink:title="Defines the cardinal layout manager. ">
<polygon fill="white" stroke="black" points="794.5,-152.5 794.5,-171.5 945.5,-171.5 945.5,-152.5 794.5,-152.5"/>
<text text-anchor="middle" x="870" y="-159.5" font-family="Helvetica,sans-Serif" font-size="10.00">fwGui::CardinalLayoutManager</text>
</a>
</g>
</g>
<!-- Node5&#45;&gt;Node6 -->
<g id="edge5" class="edge"><title>Node5&#45;&gt;Node6</title>
<path fill="none" stroke="midnightblue" d="M768.398,-162C777.099,-162 785.904,-162 794.497,-162"/>
<polygon fill="midnightblue" stroke="midnightblue" points="768.25,-158.5 758.25,-162 768.25,-165.5 768.25,-158.5"/>
</g>
<!-- Node8 -->
<g id="node8" class="node"><title>Node8</title>
<g id="a_node8"><a xlink:href="classfwGui_1_1LineLayoutManager.html" target="_top" xlink:title="Defines the line layout manager. ">
<polygon fill="white" stroke="black" points="803.5,-103.5 803.5,-122.5 936.5,-122.5 936.5,-103.5 803.5,-103.5"/>
<text text-anchor="middle" x="870" y="-110.5" font-family="Helvetica,sans-Serif" font-size="10.00">fwGui::LineLayoutManager</text>
</a>
</g>
</g>
<!-- Node7&#45;&gt;Node8 -->
<g id="edge7" class="edge"><title>Node7&#45;&gt;Node8</title>
<path fill="none" stroke="midnightblue" d="M759.515,-113C774,-113 789.085,-113 803.262,-113"/>
<polygon fill="midnightblue" stroke="midnightblue" points="759.096,-109.5 749.096,-113 759.096,-116.5 759.096,-109.5"/>
</g>
<!-- Node10 -->
<g id="node10" class="node"><title>Node10</title>
<g id="a_node10"><a xlink:href="classfwGui_1_1TabLayoutManager.html" target="_top" xlink:title="Defines the tab layout manager. ">
<polygon fill="white" stroke="black" points="804.5,-54.5 804.5,-73.5 935.5,-73.5 935.5,-54.5 804.5,-54.5"/>
<text text-anchor="middle" x="870" y="-61.5" font-family="Helvetica,sans-Serif" font-size="10.00">fwGui::TabLayoutManager</text>
</a>
</g>
</g>
<!-- Node9&#45;&gt;Node10 -->
<g id="edge9" class="edge"><title>Node9&#45;&gt;Node10</title>
<path fill="none" stroke="midnightblue" d="M758.461,-64C773.673,-64 789.589,-64 804.453,-64"/>
<polygon fill="midnightblue" stroke="midnightblue" points="758.065,-60.5001 748.065,-64 758.065,-67.5001 758.065,-60.5001"/>
</g>
<!-- Node12 -->
<g id="node12" class="node"><title>Node12</title>
<g id="a_node12"><a xlink:href="classfwGui_1_1ToolboxLayoutManager.html" target="_top" xlink:title="Defines the toolbox layout manager. ">
<polygon fill="white" stroke="black" points="795.5,-5.5 795.5,-24.5 944.5,-24.5 944.5,-5.5 795.5,-5.5"/>
<text text-anchor="middle" x="870" y="-12.5" font-family="Helvetica,sans-Serif" font-size="10.00">fwGui::ToolboxLayoutManager</text>
</a>
</g>
</g>
<!-- Node11&#45;&gt;Node12 -->
<g id="edge11" class="edge"><title>Node11&#45;&gt;Node12</title>
<path fill="none" stroke="midnightblue" d="M767.232,-15C776.549,-15 786.001,-15 795.2,-15"/>
<polygon fill="midnightblue" stroke="midnightblue" points="767.194,-11.5001 757.194,-15 767.194,-18.5001 767.194,-11.5001"/>
</g>
</g>
</svg>
        <g id="navigator" transform="translate(0 0)" fill="#404254">
                <rect fill="#f2f5e9" fill-opacity="0.5" stroke="#606060" stroke-width=".5" x="0" y="0" width="60" height="60"/>
                <use id="zoomplus" xlink:href="#zoomPlus" x="17" y="9" onmousedown="handleZoom(evt,'in')"/>
                <use id="zoomminus" xlink:href="#zoomMin" x="42" y="9" onmousedown="handleZoom(evt,'out')"/>
                <use id="reset" xlink:href="#resetDef" x="30" y="36" onmousedown="handleReset()"/>
                <g id="arrowUp" xlink:href="#dirArrow" transform="translate(30 24)" onmousedown="handlePan(0,-1)">
                  <use xlink:href="#rim" fill="#404040">
                        <set attributeName="fill" to="#808080" begin="arrowUp.mouseover" end="arrowUp.mouseout"/>
                  </use>
                  <path fill="none" stroke="white" stroke-width="1.5" d="M0,-3.0v7 M-2.5,-0.5L0,-3.0L2.5,-0.5"/>
                </g>
                <g id="arrowRight" xlink:href="#dirArrow" transform="rotate(90) translate(36 -43)" onmousedown="handlePan(1,0)">
                  <use xlink:href="#rim" fill="#404040">
                        <set attributeName="fill" to="#808080" begin="arrowRight.mouseover" end="arrowRight.mouseout"/>
                  </use>
                  <path fill="none" stroke="white" stroke-width="1.5" d="M0,-3.0v7 M-2.5,-0.5L0,-3.0L2.5,-0.5"/>
                </g>
                <g id="arrowDown" xlink:href="#dirArrow" transform="rotate(180) translate(-30 -48)" onmousedown="handlePan(0,1)">
                  <use xlink:href="#rim" fill="#404040">
                        <set attributeName="fill" to="#808080" begin="arrowDown.mouseover" end="arrowDown.mouseout"/>
                  </use>
                  <path fill="none" stroke="white" stroke-width="1.5" d="M0,-3.0v7 M-2.5,-0.5L0,-3.0L2.5,-0.5"/>
                </g>
                <g id="arrowLeft" xlink:href="#dirArrow" transform="rotate(270) translate(-36 17)" onmousedown="handlePan(-1,0)">
                  <use xlink:href="#rim" fill="#404040">
                        <set attributeName="fill" to="#808080" begin="arrowLeft.mouseover" end="arrowLeft.mouseout"/>
                  </use>
                  <path fill="none" stroke="white" stroke-width="1.5" d="M0,-3.0v7 M-2.5,-0.5L0,-3.0L2.5,-0.5"/>
                </g>
        </g>
        <svg viewBox="0 0 15 15" width="100%" height="30px" preserveAspectRatio="xMaxYMin meet">
         <g id="arrow_out" transform="scale(0.3 0.3)">
          <a xlink:href="classfwGui_1_1layoutManager_1_1IViewLayoutManager__inherit__graph_org.svg" target="_base">
           <rect id="button" ry="5" rx="5" y="6" x="6" height="38" width="38"
                fill="#f2f5e9" fill-opacity="0.5" stroke="#606060" stroke-width="1.0"/>
           <path id="arrow"
             d="M 11.500037,31.436501 C 11.940474,20.09759 22.043105,11.32322 32.158766,21.979434 L 37.068811,17.246167 C 37.068811,17.246167 37.088388,32 37.088388,32 L 22.160133,31.978069 C 22.160133,31.978069 26.997745,27.140456 26.997745,27.140456 C 18.528582,18.264221 13.291696,25.230495 11.500037,31.436501 z"
             style="fill:#404040;"/>
          </a>
         </g>
        </svg>
</svg>
