<?xml version="1.0" encoding="UTF-8" standalone="no"?>
<!DOCTYPE svg PUBLIC "-//W3C//DTD SVG 1.1//EN"
 "http://www.w3.org/Graphics/SVG/1.1/DTD/svg11.dtd">
<!-- Generated by graphviz version 2.26.3 (20100126.1600)
 -->
<!-- Title: fwGdcmIO::reader::SeriesDB::readFromDicomSeriesDB Pages: 1 -->
<svg width="314pt" height="42pt"
 viewBox="0.00 0.00 314.00 42.00" xmlns="http://www.w3.org/2000/svg" xmlns:xlink="http://www.w3.org/1999/xlink">
<g id="graph1" class="graph" transform="scale(1 1) rotate(0) translate(4 38)">
<title>fwGdcmIO::reader::SeriesDB::readFromDicomSeriesDB</title>
<polygon fill="white" stroke="white" points="-4,5 -4,-38 311,-38 311,5 -4,5"/>
<!-- Node1 -->
<g id="node1" class="node"><title>Node1</title>
<polygon fill="#bfbfbf" stroke="black" points="0.5,-0 0.5,-34 149.5,-34 149.5,-0 0.5,-0"/>
<text text-anchor="start" x="8.5" y="-21" font-family="Helvetica,sans-Serif" font-size="10.00">fwGdcmIO::reader::Series</text>
<text text-anchor="middle" x="75" y="-8" font-family="Helvetica,sans-Serif" font-size="10.00">DB::readFromDicomSeriesDB</text>
</g>
<!-- Node2 -->
<g id="node3" class="node"><title>Node2</title>
<a xlink:href="classfwDicomIOFilter_1_1helper_1_1Filter.html#aeb588168c62c2a708af6d67c35486243" target="_top" xlink:title="Apply a filter to the DicomSeries. ">
<polygon fill="white" stroke="black" points="186,-0 186,-34 306,-34 306,-0 186,-0"/>
<text text-anchor="start" x="194" y="-21" font-family="Helvetica,sans-Serif" font-size="10.00">fwDicomIOFilter::helper</text>
<text text-anchor="middle" x="246" y="-8" font-family="Helvetica,sans-Serif" font-size="10.00">::Filter::applyFilter</text>
</a>
</g>
<!-- Node1&#45;&gt;Node2 -->
<g id="edge2" class="edge"><title>Node1&#45;&gt;Node2</title>
<path fill="none" stroke="midnightblue" d="M149.506,-17C158.239,-17 167.127,-17 175.799,-17"/>
<polygon fill="midnightblue" stroke="midnightblue" points="175.857,-20.5001 185.856,-17 175.856,-13.5001 175.857,-20.5001"/>
</g>
</g>
</svg>
