<?xml version="1.0" encoding="UTF-8" standalone="no"?>
<!DOCTYPE svg PUBLIC "-//W3C//DTD SVG 1.1//EN"
 "http://www.w3.org/Graphics/SVG/1.1/DTD/svg11.dtd">
<!-- Generated by graphviz version 2.36.0 (20140111.2315)
 -->
<!-- Title: fwGdcmIO::writer::tid::Measurement::createMeasurement Pages: 1 -->
<svg width="394pt" height="87pt"
 viewBox="0.00 0.00 394.00 87.00" xmlns="http://www.w3.org/2000/svg" xmlns:xlink="http://www.w3.org/1999/xlink">
<g id="graph0" class="graph" transform="scale(1 1) rotate(0) translate(4 83)">
<title>fwGdcmIO::writer::tid::Measurement::createMeasurement</title>
<polygon fill="white" stroke="none" points="-4,4 -4,-83 390,-83 390,4 -4,4"/>
<!-- Node1 -->
<g id="node1" class="node"><title>Node1</title>
<polygon fill="#bfbfbf" stroke="black" points="0,-24 0,-54 174,-54 174,-24 0,-24"/>
<text text-anchor="start" x="8" y="-42" font-family="Helvetica,sans-Serif" font-size="10.00">fwGdcmIO::writer::tid</text>
<text text-anchor="middle" x="87" y="-31" font-family="Helvetica,sans-Serif" font-size="10.00">::Measurement::createMeasurement</text>
</g>
<!-- Node2 -->
<g id="node2" class="node"><title>Node2</title>
<g id="a_node2"><a xlink:href="classfwGdcmIO_1_1container_1_1sr_1_1DicomSRNode.html#a37378b0c8dac3a7c538dd8571ee933b3" target="_top" xlink:title="Add a sub node. ">
<polygon fill="white" stroke="black" points="215.5,-49 215.5,-79 380.5,-79 380.5,-49 215.5,-49"/>
<text text-anchor="start" x="223.5" y="-67" font-family="Helvetica,sans-Serif" font-size="10.00">fwGdcmIO::container</text>
<text text-anchor="middle" x="298" y="-56" font-family="Helvetica,sans-Serif" font-size="10.00">::sr::DicomSRNode::addSubNode</text>
</a>
</g>
</g>
<!-- Node1&#45;&gt;Node2 -->
<g id="edge1" class="edge"><title>Node1&#45;&gt;Node2</title>
<path fill="none" stroke="midnightblue" d="M174.215,-49.3128C184.419,-50.5334 194.864,-51.7827 205.142,-53.0123"/>
<polygon fill="midnightblue" stroke="midnightblue" points="205.006,-56.5208 215.351,-54.2334 205.838,-49.5704 205.006,-56.5208"/>
</g>
<!-- Node3 -->
<g id="node3" class="node"><title>Node3</title>
<g id="a_node3"><a xlink:href="classfwGdcmIO_1_1helper_1_1DicomDataTools.html#aedf5f34bec077d385e82fba6bcc7301d" target="_top" xlink:title="Convert a 3D point to the closest frame number index. ">
<polygon fill="white" stroke="black" points="210.5,-0 210.5,-30 385.5,-30 385.5,-0 210.5,-0"/>
<text text-anchor="start" x="218.5" y="-18" font-family="Helvetica,sans-Serif" font-size="10.00">fwGdcmIO::helper::DicomData</text>
<text text-anchor="middle" x="298" y="-7" font-family="Helvetica,sans-Serif" font-size="10.00">Tools::convertPointToFrameNumber</text>
</a>
</g>
</g>
<!-- Node1&#45;&gt;Node3 -->
<g id="edge2" class="edge"><title>Node1&#45;&gt;Node3</title>
<path fill="none" stroke="midnightblue" d="M174.215,-29.0997C182.782,-28.116 191.518,-27.1128 200.183,-26.1177"/>
<polygon fill="midnightblue" stroke="midnightblue" points="200.773,-29.5731 210.308,-24.955 199.974,-22.6188 200.773,-29.5731"/>
</g>
</g>
</svg>
