<?xml version="1.0" encoding="UTF-8" standalone="no"?>
<!DOCTYPE svg PUBLIC "-//W3C//DTD SVG 1.1//EN"
 "http://www.w3.org/Graphics/SVG/1.1/DTD/svg11.dtd">
<!-- Generated by graphviz version 2.26.3 (20100126.1600)
 -->
<!-- Title: fwTools::UUID::generateUUID Pages: 1 -->
<svg width="532pt" height="672pt"
 viewBox="0.00 0.00 532.00 672.00" xmlns="http://www.w3.org/2000/svg" xmlns:xlink="http://www.w3.org/1999/xlink">
<g id="graph1" class="graph" transform="scale(1 1) rotate(0) translate(4 668)">
<title>fwTools::UUID::generateUUID</title>
<polygon fill="white" stroke="white" points="-4,5 -4,-668 529,-668 529,5 -4,5"/>
<!-- Node1 -->
<g id="node1" class="node"><title>Node1</title>
<polygon fill="#bfbfbf" stroke="black" points="0,-283.5 0,-304.5 152,-304.5 152,-283.5 0,-283.5"/>
<text text-anchor="middle" x="76" y="-291.5" font-family="Helvetica,sans-Serif" font-size="10.00">fwTools::UUID::generateUUID</text>
</g>
<!-- Node2 -->
<g id="node3" class="node"><title>Node2</title>
<a xlink:href="classfwMDSemanticPatch_1_1V1_1_1V2_1_1fwData_1_1Patient.html#a49ab872a3e016c05b02f8f914f53db1b" target="_top" xlink:title="Applies patch. ">
<polygon fill="white" stroke="black" points="199.5,-616.5 199.5,-663.5 320.5,-663.5 320.5,-616.5 199.5,-616.5"/>
<text text-anchor="start" x="207.5" y="-650.5" font-family="Helvetica,sans-Serif" font-size="10.00">fwMDSemanticPatch::</text>
<text text-anchor="start" x="207.5" y="-637.5" font-family="Helvetica,sans-Serif" font-size="10.00">V1::V2::fwData::Patient</text>
<text text-anchor="middle" x="260" y="-624.5" font-family="Helvetica,sans-Serif" font-size="10.00">::apply</text>
</a>
</g>
<!-- Node1&#45;&gt;Node2 -->
<g id="edge2" class="edge"><title>Node1&#45;&gt;Node2</title>
<path fill="none" stroke="midnightblue" d="M77.9218,-314.871C84.0083,-369.633 107.502,-519.252 188,-607 191.346,-610.648 195.175,-613.922 199.285,-616.856"/>
<polygon fill="midnightblue" stroke="midnightblue" points="81.3786,-314.27 76.873,-304.681 74.4154,-314.987 81.3786,-314.27"/>
</g>
<!-- Node3 -->
<g id="node5" class="node"><title>Node3</title>
<a xlink:href="classfwMDSemanticPatch_1_1V1_1_1V2_1_1fwData_1_1Study.html#aad5ff8244b1512f33079e4a98726239e" target="_top" xlink:title="Applies patch. ">
<polygon fill="white" stroke="black" points="202,-550.5 202,-597.5 318,-597.5 318,-550.5 202,-550.5"/>
<text text-anchor="start" x="210" y="-584.5" font-family="Helvetica,sans-Serif" font-size="10.00">fwMDSemanticPatch::</text>
<text text-anchor="start" x="210" y="-571.5" font-family="Helvetica,sans-Serif" font-size="10.00">V1::V2::fwData::Study</text>
<text text-anchor="middle" x="260" y="-558.5" font-family="Helvetica,sans-Serif" font-size="10.00">::apply</text>
</a>
</g>
<!-- Node1&#45;&gt;Node3 -->
<g id="edge4" class="edge"><title>Node1&#45;&gt;Node3</title>
<path fill="none" stroke="midnightblue" d="M80.1925,-314.703C90.5649,-361.042 121.545,-474.275 188,-541 192.075,-545.092 196.752,-548.729 201.722,-551.951"/>
<polygon fill="midnightblue" stroke="midnightblue" points="83.5594,-313.711 78.0387,-304.668 76.7153,-315.18 83.5594,-313.711"/>
</g>
<!-- Node4 -->
<g id="node7" class="node"><title>Node4</title>
<a xlink:href="classfwMDSemanticPatch_1_1V1_1_1V2_1_1fwData_1_1Acquisition.html#a422877ba4357eebad6350bcde8db1203" target="_top" xlink:title="Applies patch. ">
<polygon fill="white" stroke="black" points="191,-484.5 191,-531.5 329,-531.5 329,-484.5 191,-484.5"/>
<text text-anchor="start" x="199" y="-518.5" font-family="Helvetica,sans-Serif" font-size="10.00">fwMDSemanticPatch::</text>
<text text-anchor="start" x="199" y="-505.5" font-family="Helvetica,sans-Serif" font-size="10.00">V1::V2::fwData::Acquisition</text>
<text text-anchor="middle" x="260" y="-492.5" font-family="Helvetica,sans-Serif" font-size="10.00">::apply</text>
</a>
</g>
<!-- Node1&#45;&gt;Node4 -->
<g id="edge6" class="edge"><title>Node1&#45;&gt;Node4</title>
<path fill="none" stroke="midnightblue" d="M83.9457,-314.494C99.0806,-351.158 135.303,-428.48 188,-475 191.917,-478.458 196.258,-481.617 200.81,-484.488"/>
<polygon fill="midnightblue" stroke="midnightblue" points="87.0632,-312.866 80.0845,-304.894 80.5688,-315.478 87.0632,-312.866"/>
</g>
<!-- Node5 -->
<g id="node9" class="node"><title>Node5</title>
<a xlink:href="classfwMDSemanticPatch_1_1V1_1_1V2_1_1fwData_1_1Composite.html#acdf6ac2779b5f829ae1eb9ecb8e47950" target="_top" xlink:title="Applies patch. ">
<polygon fill="white" stroke="black" points="191.5,-418.5 191.5,-465.5 328.5,-465.5 328.5,-418.5 191.5,-418.5"/>
<text text-anchor="start" x="199.5" y="-452.5" font-family="Helvetica,sans-Serif" font-size="10.00">fwMDSemanticPatch::</text>
<text text-anchor="start" x="199.5" y="-439.5" font-family="Helvetica,sans-Serif" font-size="10.00">V1::V2::fwData::Composite</text>
<text text-anchor="middle" x="260" y="-426.5" font-family="Helvetica,sans-Serif" font-size="10.00">::apply</text>
</a>
</g>
<!-- Node1&#45;&gt;Node5 -->
<g id="edge8" class="edge"><title>Node1&#45;&gt;Node5</title>
<path fill="none" stroke="midnightblue" d="M90.46,-312.673C110.298,-337.311 148.067,-380.841 188,-409 192.72,-412.328 197.829,-415.453 203.072,-418.35"/>
<polygon fill="midnightblue" stroke="midnightblue" points="93.1733,-310.462 84.2165,-304.803 87.6891,-314.812 93.1733,-310.462"/>
</g>
<!-- Node6 -->
<g id="node11" class="node"><title>Node6</title>
<a xlink:href="classfwMDSemanticPatch_1_1V1_1_1V2_1_1fwData_1_1Composite.html#a64367de970f3ff45b82dd2019d6e4b79" target="_top" xlink:title="Copy constructor. ">
<polygon fill="white" stroke="black" points="191.5,-352.5 191.5,-399.5 328.5,-399.5 328.5,-352.5 191.5,-352.5"/>
<text text-anchor="start" x="199.5" y="-386.5" font-family="Helvetica,sans-Serif" font-size="10.00">fwMDSemanticPatch::</text>
<text text-anchor="start" x="199.5" y="-373.5" font-family="Helvetica,sans-Serif" font-size="10.00">V1::V2::fwData::Composite</text>
<text text-anchor="middle" x="260" y="-360.5" font-family="Helvetica,sans-Serif" font-size="10.00">::Composite</text>
</a>
</g>
<!-- Node1&#45;&gt;Node6 -->
<g id="edge10" class="edge"><title>Node1&#45;&gt;Node6</title>
<path fill="none" stroke="midnightblue" d="M109.141,-308.769C136.38,-320.908 175.485,-338.336 207.055,-352.405"/>
<polygon fill="midnightblue" stroke="midnightblue" points="110.237,-305.426 99.6781,-304.552 107.387,-311.82 110.237,-305.426"/>
</g>
<!-- Node7 -->
<g id="node13" class="node"><title>Node7</title>
<a xlink:href="namespacefwAtomsPatch_1_1helper.html#add721d8f72ff81d766effa9dca8bba46" target="_top" xlink:title="Generates new id for the object (also creates it if it is missing ) ">
<polygon fill="white" stroke="black" points="203.5,-300 203.5,-334 316.5,-334 316.5,-300 203.5,-300"/>
<text text-anchor="start" x="211.5" y="-321" font-family="Helvetica,sans-Serif" font-size="10.00">fwAtomsPatch::helper</text>
<text text-anchor="middle" x="260" y="-308" font-family="Helvetica,sans-Serif" font-size="10.00">::generateID</text>
</a>
</g>
<!-- Node1&#45;&gt;Node7 -->
<g id="edge12" class="edge"><title>Node1&#45;&gt;Node7</title>
<path fill="none" stroke="midnightblue" d="M162.258,-304.782C176.182,-306.523 190.282,-308.285 203.276,-309.91"/>
<polygon fill="midnightblue" stroke="midnightblue" points="162.525,-301.288 152.168,-303.521 161.657,-308.234 162.525,-301.288"/>
</g>
<!-- Node8 -->
<g id="node15" class="node"><title>Node8</title>
<a xlink:href="classfwTools_1_1UUID.html#a472c81a8610b2e6427c0f2079a71d56a" target="_top" xlink:title="Return an uuid to the given object : if no one previously set then generate a new one...">
<polygon fill="white" stroke="black" points="209,-260.5 209,-281.5 311,-281.5 311,-260.5 209,-260.5"/>
<text text-anchor="middle" x="260" y="-268.5" font-family="Helvetica,sans-Serif" font-size="10.00">fwTools::UUID::get</text>
</a>
</g>
<!-- Node1&#45;&gt;Node8 -->
<g id="edge14" class="edge"><title>Node1&#45;&gt;Node8</title>
<path fill="none" stroke="midnightblue" d="M162.525,-283.184C178.363,-281.205 194.418,-279.198 208.804,-277.399"/>
<polygon fill="midnightblue" stroke="midnightblue" points="161.657,-279.766 152.168,-284.479 162.525,-286.712 161.657,-279.766"/>
</g>
<!-- Node13 -->
<g id="node25" class="node"><title>Node13</title>
<a xlink:href="classguiQt_1_1editor_1_1SDynamicView.html#ace0acec50b876241b056dc4f57707c70" target="_top" xlink:title="Write information in a stream. ">
<polygon fill="white" stroke="black" points="188.5,-208 188.5,-242 331.5,-242 331.5,-208 188.5,-208"/>
<text text-anchor="start" x="196.5" y="-229" font-family="Helvetica,sans-Serif" font-size="10.00">guiQt::editor::SDynamicView</text>
<text text-anchor="middle" x="260" y="-216" font-family="Helvetica,sans-Serif" font-size="10.00">::info</text>
</a>
</g>
<!-- Node1&#45;&gt;Node13 -->
<g id="edge24" class="edge"><title>Node1&#45;&gt;Node13</title>
<path fill="none" stroke="midnightblue" d="M112.647,-279.718C134.487,-271.259 162.78,-260.394 188,-251 195.846,-248.078 204.191,-245.019 212.314,-242.068"/>
<polygon fill="midnightblue" stroke="midnightblue" points="111.158,-276.541 103.101,-283.421 113.69,-283.067 111.158,-276.541"/>
</g>
<!-- Node15 -->
<g id="node29" class="node"><title>Node15</title>
<a xlink:href="classfwVtkIO_1_1SeriesDBReader.html#a40d19253ad8723564916471bd7c5e829" target="_top" xlink:title="Reading operator. ">
<polygon fill="white" stroke="black" points="194,-156 194,-190 326,-190 326,-156 194,-156"/>
<text text-anchor="start" x="202" y="-177" font-family="Helvetica,sans-Serif" font-size="10.00">fwVtkIO::SeriesDBReader</text>
<text text-anchor="middle" x="260" y="-164" font-family="Helvetica,sans-Serif" font-size="10.00">::read</text>
</a>
</g>
<!-- Node1&#45;&gt;Node15 -->
<g id="edge28" class="edge"><title>Node1&#45;&gt;Node15</title>
<path fill="none" stroke="midnightblue" d="M92.9611,-276.16C113.688,-255.229 150.633,-220.644 188,-199 193.635,-195.736 199.751,-192.769 205.957,-190.105"/>
<polygon fill="midnightblue" stroke="midnightblue" points="90.3204,-273.854 85.8444,-283.457 95.3319,-278.742 90.3204,-273.854"/>
</g>
<!-- Node16 -->
<g id="node31" class="node"><title>Node16</title>
<a xlink:href="classioITK_1_1SInrSeriesDBReader.html#a52c2b9dee7f52473d803dee1583984e6" target="_top" xlink:title="Reads inr files specified by user (configure or configureWithIHM) and pushes them into SeriesDB...">
<polygon fill="white" stroke="black" points="191.5,-104 191.5,-138 328.5,-138 328.5,-104 191.5,-104"/>
<text text-anchor="start" x="199.5" y="-125" font-family="Helvetica,sans-Serif" font-size="10.00">ioITK::SInrSeriesDBReader</text>
<text text-anchor="middle" x="260" y="-112" font-family="Helvetica,sans-Serif" font-size="10.00">::updating</text>
</a>
</g>
<!-- Node1&#45;&gt;Node16 -->
<g id="edge30" class="edge"><title>Node1&#45;&gt;Node16</title>
<path fill="none" stroke="midnightblue" d="M86.0296,-274.445C102.975,-243.235 140.154,-182.115 188,-147 192.607,-143.619 197.698,-140.64 202.98,-138.024"/>
<polygon fill="midnightblue" stroke="midnightblue" points="82.8439,-272.981 81.2508,-283.456 89.0281,-276.261 82.8439,-272.981"/>
</g>
<!-- Node17 -->
<g id="node33" class="node"><title>Node17</title>
<a xlink:href="classioData_1_1SAttachmentSeriesReader.html#a7760a4d9dc4028484d1cbaffdbdd3310" target="_top" xlink:title="Updating method. This method is called by update() from base service ( fwServices::IService ) ...">
<polygon fill="white" stroke="black" points="192,-52 192,-86 328,-86 328,-52 192,-52"/>
<text text-anchor="start" x="200" y="-73" font-family="Helvetica,sans-Serif" font-size="10.00">ioData::SAttachmentSeries</text>
<text text-anchor="middle" x="260" y="-60" font-family="Helvetica,sans-Serif" font-size="10.00">Reader::updating</text>
</a>
</g>
<!-- Node1&#45;&gt;Node17 -->
<g id="edge32" class="edge"><title>Node1&#45;&gt;Node17</title>
<path fill="none" stroke="midnightblue" d="M82.1562,-273.5C95.1756,-233.527 129.233,-144.735 188,-95 191.956,-91.6516 196.378,-88.72 201.032,-86.1559"/>
<polygon fill="midnightblue" stroke="midnightblue" points="78.7682,-272.607 79.1029,-283.197 85.4449,-274.71 78.7682,-272.607"/>
</g>
<!-- Node18 -->
<g id="node35" class="node"><title>Node18</title>
<a xlink:href="classuiMedData_1_1editor_1_1SActivityWizard.html#ad5f9fac4869aac1c9d0e58b67ae93228" target="_top" xlink:title="Update the activity if it is defined in the configuration, else does nothing. ">
<polygon fill="white" stroke="black" points="195,-0 195,-34 325,-34 325,-0 195,-0"/>
<text text-anchor="start" x="203" y="-21" font-family="Helvetica,sans-Serif" font-size="10.00">uiMedData::editor::</text>
<text text-anchor="middle" x="260" y="-8" font-family="Helvetica,sans-Serif" font-size="10.00">SActivityWizard::updating</text>
</a>
</g>
<!-- Node1&#45;&gt;Node18 -->
<g id="edge34" class="edge"><title>Node1&#45;&gt;Node18</title>
<path fill="none" stroke="midnightblue" d="M79.5102,-273.516C88.6644,-226.208 117.619,-108.411 188,-43 191.602,-39.6524 195.667,-36.7294 199.985,-34.1781"/>
<polygon fill="midnightblue" stroke="midnightblue" points="76.0459,-273.003 77.6792,-283.471 82.9304,-274.269 76.0459,-273.003"/>
</g>
<!-- Node9 -->
<g id="node17" class="node"><title>Node9</title>
<a xlink:href="classfwAtomConversion_1_1DataVisitor.html#a24edc65b5dd21a5a0fff67b25f90ab19" target="_top" xlink:title="Constructor. Initializes atom object and store it in the cache. ">
<polygon fill="white" stroke="black" points="368.5,-358 368.5,-392 523.5,-392 523.5,-358 368.5,-358"/>
<text text-anchor="start" x="376.5" y="-379" font-family="Helvetica,sans-Serif" font-size="10.00">fwAtomConversion::DataVisitor</text>
<text text-anchor="middle" x="446" y="-366" font-family="Helvetica,sans-Serif" font-size="10.00">::DataVisitor</text>
</a>
</g>
<!-- Node8&#45;&gt;Node9 -->
<g id="edge16" class="edge"><title>Node8&#45;&gt;Node9</title>
<path fill="none" stroke="midnightblue" d="M320.319,-283.947C324.452,-285.967 328.399,-288.301 332,-291 356.279,-309.195 344.191,-330.195 368,-349 372.257,-352.362 376.968,-355.299 381.906,-357.863"/>
<polygon fill="midnightblue" stroke="midnightblue" points="321.608,-280.692 311.035,-280.01 318.875,-287.137 321.608,-280.692"/>
</g>
<!-- Node10 -->
<g id="node19" class="node"><title>Node10</title>
<a xlink:href="classfwVtkIO_1_1ModelSeriesObjWriter.html#a54acf9e0c5f5534e93e4e836e8e60037" target="_top" xlink:title="Writing operator. ">
<polygon fill="white" stroke="black" points="369,-306 369,-340 523,-340 523,-306 369,-306"/>
<text text-anchor="start" x="377" y="-327" font-family="Helvetica,sans-Serif" font-size="10.00">fwVtkIO::ModelSeriesObjWriter</text>
<text text-anchor="middle" x="446" y="-314" font-family="Helvetica,sans-Serif" font-size="10.00">::write</text>
</a>
</g>
<!-- Node8&#45;&gt;Node10 -->
<g id="edge18" class="edge"><title>Node8&#45;&gt;Node10</title>
<path fill="none" stroke="midnightblue" d="M307.811,-284.261C315.886,-286.507 324.183,-288.817 332,-291 349.324,-295.838 368.124,-301.107 385.366,-305.947"/>
<polygon fill="midnightblue" stroke="midnightblue" points="308.691,-280.873 298.119,-281.568 306.817,-287.618 308.691,-280.873"/>
</g>
<!-- Node11 -->
<g id="node21" class="node"><title>Node11</title>
<a xlink:href="classctrlSelection_1_1updater_1_1SDrop.html#adbc78740644bacf4db708dd301332c3b" target="_top" xlink:title="Destructor. Do nothing. ">
<polygon fill="white" stroke="black" points="391.5,-254 391.5,-288 500.5,-288 500.5,-254 391.5,-254"/>
<text text-anchor="start" x="399.5" y="-275" font-family="Helvetica,sans-Serif" font-size="10.00">ctrlSelection::updater</text>
<text text-anchor="middle" x="446" y="-262" font-family="Helvetica,sans-Serif" font-size="10.00">::SDrop::~SDrop</text>
</a>
</g>
<!-- Node8&#45;&gt;Node11 -->
<g id="edge20" class="edge"><title>Node8&#45;&gt;Node11</title>
<path fill="none" stroke="midnightblue" d="M321.457,-271C344.003,-271 369.355,-271 391.271,-271"/>
<polygon fill="midnightblue" stroke="midnightblue" points="321.318,-267.5 311.318,-271 321.318,-274.5 321.318,-267.5"/>
</g>
<!-- Node12 -->
<g id="node23" class="node"><title>Node12</title>
<a xlink:href="classioVTK_1_1SModelSeriesWriter.html#a207065c62c54777031257f386645cbff" target="_top" xlink:title="Updating method. ">
<polygon fill="white" stroke="black" points="377.5,-202 377.5,-236 514.5,-236 514.5,-202 377.5,-202"/>
<text text-anchor="start" x="385.5" y="-223" font-family="Helvetica,sans-Serif" font-size="10.00">ioVTK::SModelSeriesWriter</text>
<text text-anchor="middle" x="446" y="-210" font-family="Helvetica,sans-Serif" font-size="10.00">::updating</text>
</a>
</g>
<!-- Node8&#45;&gt;Node12 -->
<g id="edge22" class="edge"><title>Node8&#45;&gt;Node12</title>
<path fill="none" stroke="midnightblue" d="M307.811,-257.739C315.886,-255.493 324.183,-253.183 332,-251 349.324,-246.162 368.124,-240.893 385.366,-236.053"/>
<polygon fill="midnightblue" stroke="midnightblue" points="306.817,-254.382 298.119,-260.432 308.691,-261.127 306.817,-254.382"/>
</g>
<!-- Node14 -->
<g id="node27" class="node"><title>Node14</title>
<a xlink:href="classguiQt_1_1editor_1_1SDynamicView.html#af020c54fb220b333a9c16127f860d78b" target="_top" xlink:title="Swap. ">
<polygon fill="white" stroke="black" points="374.5,-150 374.5,-184 517.5,-184 517.5,-150 374.5,-150"/>
<text text-anchor="start" x="382.5" y="-171" font-family="Helvetica,sans-Serif" font-size="10.00">guiQt::editor::SDynamicView</text>
<text text-anchor="middle" x="446" y="-158" font-family="Helvetica,sans-Serif" font-size="10.00">::swapping</text>
</a>
</g>
<!-- Node13&#45;&gt;Node14 -->
<g id="edge26" class="edge"><title>Node13&#45;&gt;Node14</title>
<path fill="none" stroke="midnightblue" d="M324.11,-205.009C346.04,-198.17 370.349,-190.59 391.452,-184.01"/>
<polygon fill="midnightblue" stroke="midnightblue" points="323.054,-201.672 314.549,-207.99 325.138,-208.354 323.054,-201.672"/>
</g>
</g>
</svg>
