<?xml version="1.0" encoding="UTF-8" standalone="no"?>
<!DOCTYPE svg PUBLIC "-//W3C//DTD SVG 1.1//EN"
 "http://www.w3.org/Graphics/SVG/1.1/DTD/svg11.dtd">
<!-- Generated by graphviz version 2.26.3 (20100126.1600)
 -->
<!-- Title: fwAtomsPatch::IStructuralCreator Pages: 1 -->
<svg width="742pt" height="254pt"
 viewBox="0.00 0.00 742.00 254.00" xmlns="http://www.w3.org/2000/svg" xmlns:xlink="http://www.w3.org/1999/xlink">
<g id="graph1" class="graph" transform="scale(1 1) rotate(0) translate(4 250)">
<title>fwAtomsPatch::IStructuralCreator</title>
<polygon fill="white" stroke="white" points="-4,5 -4,-250 739,-250 739,5 -4,5"/>
<!-- Node1 -->
<g id="node1" class="node"><title>Node1</title>
<polygon fill="#bfbfbf" stroke="black" points="310,-106 310,-140 442,-140 442,-106 310,-106"/>
<text text-anchor="start" x="318" y="-127" font-family="Helvetica,sans-Serif" font-size="10.00">fwAtomsPatch::IStructural</text>
<text text-anchor="middle" x="376" y="-114" font-family="Helvetica,sans-Serif" font-size="10.00">Creator</text>
</g>
<!-- Node4 -->
<g id="node7" class="node"><title>Node4</title>
<a xlink:href="classfwStructuralPatch_1_1creator_1_1fwMedData_1_1Equipment1.html" target="_top" xlink:title="Structural creator for fwMedData::Equipment version &#39;1&#39;. ">
<polygon fill="white" stroke="black" points="478.5,-198.5 478.5,-245.5 587.5,-245.5 587.5,-198.5 478.5,-198.5"/>
<text text-anchor="start" x="486.5" y="-232.5" font-family="Helvetica,sans-Serif" font-size="10.00">fwStructuralPatch::</text>
<text text-anchor="start" x="486.5" y="-219.5" font-family="Helvetica,sans-Serif" font-size="10.00">creator::fwMedData::</text>
<text text-anchor="middle" x="533" y="-206.5" font-family="Helvetica,sans-Serif" font-size="10.00">Equipment1</text>
</a>
</g>
<!-- Node1&#45;&gt;Node4 -->
<g id="edge6" class="edge"><title>Node1&#45;&gt;Node4</title>
<path fill="none" stroke="midnightblue" d="M410.463,-145.712C430.142,-158.578 455.337,-174.875 478,-189 482.914,-192.063 488.101,-195.243 493.247,-198.366"/>
<polygon fill="midnightblue" stroke="midnightblue" points="412.121,-142.614 401.838,-140.063 408.285,-148.47 412.121,-142.614"/>
</g>
<!-- Node5 -->
<g id="node9" class="node"><title>Node5</title>
<a xlink:href="classfwStructuralPatch_1_1creator_1_1fwMedData_1_1Patient1.html" target="_top" xlink:title="Structural creator for fwMedData::Patient version &#39;1&#39;. ">
<polygon fill="white" stroke="black" points="478.5,-132.5 478.5,-179.5 587.5,-179.5 587.5,-132.5 478.5,-132.5"/>
<text text-anchor="start" x="486.5" y="-166.5" font-family="Helvetica,sans-Serif" font-size="10.00">fwStructuralPatch::</text>
<text text-anchor="start" x="486.5" y="-153.5" font-family="Helvetica,sans-Serif" font-size="10.00">creator::fwMedData::</text>
<text text-anchor="middle" x="533" y="-140.5" font-family="Helvetica,sans-Serif" font-size="10.00">Patient1</text>
</a>
</g>
<!-- Node1&#45;&gt;Node5 -->
<g id="edge8" class="edge"><title>Node1&#45;&gt;Node5</title>
<path fill="none" stroke="midnightblue" d="M452.092,-138.994C460.955,-140.857 469.858,-142.728 478.351,-144.513"/>
<polygon fill="midnightblue" stroke="midnightblue" points="452.633,-135.531 442.127,-136.899 451.193,-142.382 452.633,-135.531"/>
</g>
<!-- Node6 -->
<g id="node11" class="node"><title>Node6</title>
<a xlink:href="classfwStructuralPatch_1_1creator_1_1fwMedData_1_1Series1.html" target="_top" xlink:title="Structural creator for fwMedData::Series version 1. ">
<polygon fill="white" stroke="black" points="478.5,-66.5 478.5,-113.5 587.5,-113.5 587.5,-66.5 478.5,-66.5"/>
<text text-anchor="start" x="486.5" y="-100.5" font-family="Helvetica,sans-Serif" font-size="10.00">fwStructuralPatch::</text>
<text text-anchor="start" x="486.5" y="-87.5" font-family="Helvetica,sans-Serif" font-size="10.00">creator::fwMedData::</text>
<text text-anchor="middle" x="533" y="-74.5" font-family="Helvetica,sans-Serif" font-size="10.00">Series1</text>
</a>
</g>
<!-- Node1&#45;&gt;Node6 -->
<g id="edge10" class="edge"><title>Node1&#45;&gt;Node6</title>
<path fill="none" stroke="midnightblue" d="M452.092,-107.006C460.955,-105.143 469.858,-103.272 478.351,-101.487"/>
<polygon fill="midnightblue" stroke="midnightblue" points="451.193,-103.618 442.127,-109.101 452.633,-110.469 451.193,-103.618"/>
</g>
<!-- Node10 -->
<g id="node19" class="node"><title>Node10</title>
<a xlink:href="classfwStructuralPatch_1_1creator_1_1fwMedData_1_1Study1.html" target="_top" xlink:title="Structural creator for fwMedData::Study version &#39;1&#39;. ">
<polygon fill="white" stroke="black" points="478.5,-0.5 478.5,-47.5 587.5,-47.5 587.5,-0.5 478.5,-0.5"/>
<text text-anchor="start" x="486.5" y="-34.5" font-family="Helvetica,sans-Serif" font-size="10.00">fwStructuralPatch::</text>
<text text-anchor="start" x="486.5" y="-21.5" font-family="Helvetica,sans-Serif" font-size="10.00">creator::fwMedData::</text>
<text text-anchor="middle" x="533" y="-8.5" font-family="Helvetica,sans-Serif" font-size="10.00">Study1</text>
</a>
</g>
<!-- Node1&#45;&gt;Node10 -->
<g id="edge18" class="edge"><title>Node1&#45;&gt;Node10</title>
<path fill="none" stroke="midnightblue" d="M410.463,-100.288C430.142,-87.4223 455.337,-71.1254 478,-57 482.914,-53.9371 488.101,-50.757 493.247,-47.6336"/>
<polygon fill="midnightblue" stroke="midnightblue" points="408.285,-97.53 401.838,-105.937 412.121,-103.386 408.285,-97.53"/>
</g>
<!-- Node2 -->
<g id="node2" class="node"><title>Node2</title>
<a xlink:href="classfwCore_1_1BaseObject.html" target="_top" xlink:title="Base class for all FW4SPL&#39;s classes. ">
<polygon fill="white" stroke="black" points="168.5,-112.5 168.5,-133.5 273.5,-133.5 273.5,-112.5 168.5,-112.5"/>
<text text-anchor="middle" x="221" y="-120.5" font-family="Helvetica,sans-Serif" font-size="10.00">fwCore::BaseObject</text>
</a>
</g>
<!-- Node2&#45;&gt;Node1 -->
<g id="edge2" class="edge"><title>Node2&#45;&gt;Node1</title>
<path fill="none" stroke="midnightblue" d="M284.124,-123C292.619,-123 301.352,-123 309.897,-123"/>
<polygon fill="midnightblue" stroke="midnightblue" points="283.909,-119.5 273.909,-123 283.909,-126.5 283.909,-119.5"/>
</g>
<!-- Node3 -->
<g id="node4" class="node"><title>Node3</title>
<polygon fill="white" stroke="#bfbfbf" points="0.5,-106 0.5,-140 131.5,-140 131.5,-106 0.5,-106"/>
<text text-anchor="start" x="8.5" y="-127" font-family="Helvetica,sans-Serif" font-size="10.00">std::enable_shared</text>
<text text-anchor="middle" x="66" y="-114" font-family="Helvetica,sans-Serif" font-size="10.00">_from_this&lt; BaseObject &gt;</text>
</g>
<!-- Node3&#45;&gt;Node2 -->
<g id="edge4" class="edge"><title>Node3&#45;&gt;Node2</title>
<path fill="none" stroke="midnightblue" d="M141.815,-123C150.778,-123 159.771,-123 168.315,-123"/>
<polygon fill="midnightblue" stroke="midnightblue" points="141.734,-119.5 131.734,-123 141.734,-126.5 141.734,-119.5"/>
</g>
<!-- Node7 -->
<g id="node13" class="node"><title>Node7</title>
<a xlink:href="classfwStructuralPatch_1_1creator_1_1fwMedData_1_1ActivitySeries1.html" target="_top" xlink:title="Structural creator for fwMedData::ActivitySeries version 1. ">
<polygon fill="white" stroke="black" points="624.5,-132.5 624.5,-179.5 733.5,-179.5 733.5,-132.5 624.5,-132.5"/>
<text text-anchor="start" x="632.5" y="-166.5" font-family="Helvetica,sans-Serif" font-size="10.00">fwStructuralPatch::</text>
<text text-anchor="start" x="632.5" y="-153.5" font-family="Helvetica,sans-Serif" font-size="10.00">creator::fwMedData::</text>
<text text-anchor="middle" x="679" y="-140.5" font-family="Helvetica,sans-Serif" font-size="10.00">ActivitySeries1</text>
</a>
</g>
<!-- Node6&#45;&gt;Node7 -->
<g id="edge12" class="edge"><title>Node6&#45;&gt;Node7</title>
<path fill="none" stroke="midnightblue" d="M594.551,-117.824C605.205,-122.641 616.194,-127.608 626.577,-132.302"/>
<polygon fill="midnightblue" stroke="midnightblue" points="595.851,-114.571 585.297,-113.641 592.967,-120.95 595.851,-114.571"/>
</g>
<!-- Node8 -->
<g id="node15" class="node"><title>Node8</title>
<a xlink:href="classfwStructuralPatch_1_1creator_1_1fwMedData_1_1ImageSeries1.html" target="_top" xlink:title="Structural creator for fwMedData::ImageSeries version &#39;1&#39;. ">
<polygon fill="white" stroke="black" points="624.5,-66.5 624.5,-113.5 733.5,-113.5 733.5,-66.5 624.5,-66.5"/>
<text text-anchor="start" x="632.5" y="-100.5" font-family="Helvetica,sans-Serif" font-size="10.00">fwStructuralPatch::</text>
<text text-anchor="start" x="632.5" y="-87.5" font-family="Helvetica,sans-Serif" font-size="10.00">creator::fwMedData::</text>
<text text-anchor="middle" x="679" y="-74.5" font-family="Helvetica,sans-Serif" font-size="10.00">ImageSeries1</text>
</a>
</g>
<!-- Node6&#45;&gt;Node8 -->
<g id="edge14" class="edge"><title>Node6&#45;&gt;Node8</title>
<path fill="none" stroke="midnightblue" d="M598.019,-90C606.829,-90 615.796,-90 624.398,-90"/>
<polygon fill="midnightblue" stroke="midnightblue" points="597.78,-86.5001 587.78,-90 597.78,-93.5001 597.78,-86.5001"/>
</g>
<!-- Node9 -->
<g id="node17" class="node"><title>Node9</title>
<a xlink:href="classfwStructuralPatch_1_1creator_1_1fwMedData_1_1ModelSeries1.html" target="_top" xlink:title="Structural creator for fwMedData::ModelSeries version &#39;1&#39;. ">
<polygon fill="white" stroke="black" points="624.5,-0.5 624.5,-47.5 733.5,-47.5 733.5,-0.5 624.5,-0.5"/>
<text text-anchor="start" x="632.5" y="-34.5" font-family="Helvetica,sans-Serif" font-size="10.00">fwStructuralPatch::</text>
<text text-anchor="start" x="632.5" y="-21.5" font-family="Helvetica,sans-Serif" font-size="10.00">creator::fwMedData::</text>
<text text-anchor="middle" x="679" y="-8.5" font-family="Helvetica,sans-Serif" font-size="10.00">ModelSeries1</text>
</a>
</g>
<!-- Node6&#45;&gt;Node9 -->
<g id="edge16" class="edge"><title>Node6&#45;&gt;Node9</title>
<path fill="none" stroke="midnightblue" d="M594.551,-62.1757C605.205,-57.3592 616.194,-52.3918 626.577,-47.6979"/>
<polygon fill="midnightblue" stroke="midnightblue" points="592.967,-59.0504 585.297,-66.3589 595.851,-65.4289 592.967,-59.0504"/>
</g>
</g>
</svg>
