<?xml version="1.0" encoding="UTF-8" standalone="no"?>
<!DOCTYPE svg PUBLIC "-//W3C//DTD SVG 1.1//EN"
 "http://www.w3.org/Graphics/SVG/1.1/DTD/svg11.dtd">
<!-- Generated by graphviz version 2.26.3 (20100126.1600)
 -->
<!-- Title: gui::action::SQuit::starting Pages: 1 -->
<svg width="246pt" height="42pt"
 viewBox="0.00 0.00 246.00 42.00" xmlns="http://www.w3.org/2000/svg" xmlns:xlink="http://www.w3.org/1999/xlink">
<g id="graph1" class="graph" transform="scale(1 1) rotate(0) translate(4 38)">
<title>gui::action::SQuit::starting</title>
<polygon fill="white" stroke="white" points="-4,5 -4,-38 243,-38 243,5 -4,5"/>
<!-- Node1 -->
<g id="node1" class="node"><title>Node1</title>
<polygon fill="#bfbfbf" stroke="black" points="0,-0 0,-34 92,-34 92,-0 0,-0"/>
<text text-anchor="start" x="8" y="-21" font-family="Helvetica,sans-Serif" font-size="10.00">gui::action::SQuit</text>
<text text-anchor="middle" x="46" y="-8" font-family="Helvetica,sans-Serif" font-size="10.00">::starting</text>
</g>
<!-- Node2 -->
<g id="node3" class="node"><title>Node2</title>
<a xlink:href="classfwGui_1_1IActionSrv.html#a20b100e05fdb519b1619466924a2ee48" target="_top" xlink:title="Method called when the action service is starting. ">
<polygon fill="white" stroke="black" points="128,-0 128,-34 238,-34 238,-0 128,-0"/>
<text text-anchor="start" x="136" y="-21" font-family="Helvetica,sans-Serif" font-size="10.00">fwGui::IActionSrv::</text>
<text text-anchor="middle" x="183" y="-8" font-family="Helvetica,sans-Serif" font-size="10.00">actionServiceStarting</text>
</a>
</g>
<!-- Node1&#45;&gt;Node2 -->
<g id="edge2" class="edge"><title>Node1&#45;&gt;Node2</title>
<path fill="none" stroke="midnightblue" d="M92.0001,-17C100.269,-17 109.03,-17 117.722,-17"/>
<polygon fill="midnightblue" stroke="midnightblue" points="117.86,-20.5001 127.86,-17 117.86,-13.5001 117.86,-20.5001"/>
</g>
</g>
</svg>
