<?xml version="1.0" encoding="UTF-8" standalone="no"?>
<!DOCTYPE svg PUBLIC "-//W3C//DTD SVG 1.1//EN"
 "http://www.w3.org/Graphics/SVG/1.1/DTD/svg11.dtd">
<!-- Generated by graphviz version 2.26.3 (20100126.1600)
 -->
<!-- Title: uiMeasurement::editor::Distance::stopping Pages: 1 -->
<svg width="448pt" height="94pt"
 viewBox="0.00 0.00 448.00 94.00" xmlns="http://www.w3.org/2000/svg" xmlns:xlink="http://www.w3.org/1999/xlink">
<g id="graph1" class="graph" transform="scale(1 1) rotate(0) translate(4 90)">
<title>uiMeasurement::editor::Distance::stopping</title>
<polygon fill="white" stroke="white" points="-4,5 -4,-90 445,-90 445,5 -4,5"/>
<!-- Node1 -->
<g id="node1" class="node"><title>Node1</title>
<polygon fill="#bfbfbf" stroke="black" points="0.5,-26 0.5,-60 113.5,-60 113.5,-26 0.5,-26"/>
<text text-anchor="start" x="8.5" y="-47" font-family="Helvetica,sans-Serif" font-size="10.00">uiMeasurement::editor</text>
<text text-anchor="middle" x="57" y="-34" font-family="Helvetica,sans-Serif" font-size="10.00">::Distance::stopping</text>
</g>
<!-- Node2 -->
<g id="node3" class="node"><title>Node2</title>
<a xlink:href="classfwGui_1_1IGuiContainerSrv.html#a7f9bdbb8b884d1fe3fd42a3ebfcd4184" target="_top" xlink:title="Stops sub&#45;views and toobar services. Destroys view, sub&#45;views and toolbar containers. ">
<polygon fill="white" stroke="black" points="161.5,-52 161.5,-86 284.5,-86 284.5,-52 161.5,-52"/>
<text text-anchor="start" x="169.5" y="-73" font-family="Helvetica,sans-Serif" font-size="10.00">fwGui::IGuiContainerSrv</text>
<text text-anchor="middle" x="223" y="-60" font-family="Helvetica,sans-Serif" font-size="10.00">::destroy</text>
</a>
</g>
<!-- Node1&#45;&gt;Node2 -->
<g id="edge2" class="edge"><title>Node1&#45;&gt;Node2</title>
<path fill="none" stroke="midnightblue" d="M113.663,-51.875C125.818,-53.7787 138.813,-55.814 151.447,-57.7929"/>
<polygon fill="midnightblue" stroke="midnightblue" points="151.058,-61.2745 161.479,-59.3642 152.141,-54.3588 151.058,-61.2745"/>
</g>
<!-- Node3 -->
<g id="node5" class="node"><title>Node3</title>
<a xlink:href="classuiMeasurement_1_1editor_1_1Distance.html#a935f851cd8e63e50080b366824b4aefb" target="_top" xlink:title="Notify the scene that a distance is added. ">
<polygon fill="white" stroke="black" points="150,-0 150,-34 296,-34 296,-0 150,-0"/>
<text text-anchor="start" x="158" y="-21" font-family="Helvetica,sans-Serif" font-size="10.00">uiMeasurement::editor</text>
<text text-anchor="middle" x="223" y="-8" font-family="Helvetica,sans-Serif" font-size="10.00">::Distance::onDistanceButton</text>
</a>
</g>
<!-- Node1&#45;&gt;Node3 -->
<g id="edge4" class="edge"><title>Node1&#45;&gt;Node3</title>
<path fill="none" stroke="midnightblue" d="M113.663,-34.125C122.125,-32.7996 130.995,-31.4105 139.866,-30.021"/>
<polygon fill="midnightblue" stroke="midnightblue" points="140.524,-33.4607 149.862,-28.4554 139.44,-26.5451 140.524,-33.4607"/>
</g>
<!-- Node4 -->
<g id="node7" class="node"><title>Node4</title>
<a xlink:href="classfwServices_1_1IService.html#ac0ac1a469b4be20ba958fa08996cd662" target="_top" xlink:title="Streaming a service. ">
<polygon fill="white" stroke="black" points="332.5,-0 332.5,-34 439.5,-34 439.5,-0 332.5,-0"/>
<text text-anchor="start" x="340.5" y="-21" font-family="Helvetica,sans-Serif" font-size="10.00">fwServices::IService</text>
<text text-anchor="middle" x="386" y="-8" font-family="Helvetica,sans-Serif" font-size="10.00">::isVersion2</text>
</a>
</g>
<!-- Node3&#45;&gt;Node4 -->
<g id="edge6" class="edge"><title>Node3&#45;&gt;Node4</title>
<path fill="none" stroke="midnightblue" d="M296.394,-17C304.924,-17 313.575,-17 321.966,-17"/>
<polygon fill="midnightblue" stroke="midnightblue" points="322.047,-20.5001 332.047,-17 322.047,-13.5001 322.047,-20.5001"/>
</g>
</g>
</svg>
