<?xml version="1.0" encoding="UTF-8" standalone="no"?>
<!DOCTYPE svg PUBLIC "-//W3C//DTD SVG 1.1//EN"
 "http://www.w3.org/Graphics/SVG/1.1/DTD/svg11.dtd">
<!-- Generated by graphviz version 2.26.3 (20100126.1600)
 -->
<!-- Title: fwGdcmIO::helper::DicomSeriesDBWriter Pages: 1 -->
<svg width="1184pt" height="230pt"
 viewBox="0.00 0.00 1184.00 230.00" xmlns="http://www.w3.org/2000/svg" xmlns:xlink="http://www.w3.org/1999/xlink">
<g id="graph1" class="graph" transform="scale(1 1) rotate(0) translate(4 226)">
<title>fwGdcmIO::helper::DicomSeriesDBWriter</title>
<polygon fill="white" stroke="white" points="-4,5 -4,-226 1181,-226 1181,5 -4,5"/>
<!-- Node1 -->
<g id="node1" class="node"><title>Node1</title>
<polygon fill="#bfbfbf" stroke="black" points="1018,-73 1018,-107 1176,-107 1176,-73 1018,-73"/>
<text text-anchor="start" x="1026" y="-94" font-family="Helvetica,sans-Serif" font-size="10.00">fwGdcmIO::helper::DicomSeries</text>
<text text-anchor="middle" x="1097" y="-81" font-family="Helvetica,sans-Serif" font-size="10.00">DBWriter</text>
</g>
<!-- Node2 -->
<g id="node2" class="node"><title>Node2</title>
<a xlink:href="classfwDataIO_1_1writer_1_1GenericObjectWriter.html" target="_top" xlink:title="fwDataIO::writer::Generic\lObjectWriter\&lt; ::fwMedData\l::SeriesDB \&gt;">
<polygon fill="white" stroke="black" points="842.5,-132.5 842.5,-179.5 979.5,-179.5 979.5,-132.5 842.5,-132.5"/>
<text text-anchor="start" x="850.5" y="-166.5" font-family="Helvetica,sans-Serif" font-size="10.00">fwDataIO::writer::Generic</text>
<text text-anchor="start" x="850.5" y="-153.5" font-family="Helvetica,sans-Serif" font-size="10.00">ObjectWriter&lt; ::fwMedData</text>
<text text-anchor="middle" x="911" y="-140.5" font-family="Helvetica,sans-Serif" font-size="10.00">::SeriesDB &gt;</text>
</a>
</g>
<!-- Node2&#45;&gt;Node1 -->
<g id="edge2" class="edge"><title>Node2&#45;&gt;Node1</title>
<path fill="none" stroke="midnightblue" d="M986.916,-129.062C1007.93,-121.606 1030.14,-113.723 1049.07,-107.006"/>
<polygon fill="midnightblue" stroke="midnightblue" points="985.616,-125.809 977.363,-132.452 987.957,-132.406 985.616,-125.809"/>
</g>
<!-- Node3 -->
<g id="node4" class="node"><title>Node3</title>
<a xlink:href="classfwDataIO_1_1writer_1_1IObjectWriter.html" target="_top" xlink:title="Base class for all object writers. ">
<polygon fill="white" stroke="black" points="372,-159 372,-193 498,-193 498,-159 372,-159"/>
<text text-anchor="start" x="380" y="-180" font-family="Helvetica,sans-Serif" font-size="10.00">fwDataIO::writer::IObject</text>
<text text-anchor="middle" x="435" y="-167" font-family="Helvetica,sans-Serif" font-size="10.00">Writer</text>
</a>
</g>
<!-- Node3&#45;&gt;Node2 -->
<g id="edge4" class="edge"><title>Node3&#45;&gt;Node2</title>
<path fill="none" stroke="midnightblue" d="M508.424,-178.429C586.784,-180.19 714.468,-180.672 824,-170 829.938,-169.421 836.086,-168.694 842.243,-167.877"/>
<polygon fill="midnightblue" stroke="midnightblue" points="508.254,-174.924 498.174,-178.185 508.088,-181.922 508.254,-174.924"/>
</g>
<!-- Node8 -->
<g id="node14" class="node"><title>Node8</title>
<a xlink:href="classfwDataIO_1_1writer_1_1GenericObjectWriter.html" target="_top" xlink:title="generic class for all object writers. ">
<polygon fill="white" stroke="black" points="536.5,-132 536.5,-166 679.5,-166 679.5,-132 536.5,-132"/>
<text text-anchor="start" x="544.5" y="-153" font-family="Helvetica,sans-Serif" font-size="10.00">fwDataIO::writer::Generic</text>
<text text-anchor="middle" x="608" y="-140" font-family="Helvetica,sans-Serif" font-size="10.00">ObjectWriter&lt; DATATYPE &gt;</text>
</a>
</g>
<!-- Node3&#45;&gt;Node8 -->
<g id="edge16" class="edge"><title>Node3&#45;&gt;Node8</title>
<path fill="none" stroke="midnightblue" d="M508.395,-164.545C517.666,-163.098 527.143,-161.619 536.385,-160.177"/>
<polygon fill="midnightblue" stroke="midnightblue" points="507.777,-161.099 498.436,-166.1 508.857,-168.016 507.777,-161.099"/>
</g>
<!-- Node4 -->
<g id="node6" class="node"><title>Node4</title>
<a xlink:href="classfwCore_1_1BaseObject.html" target="_top" xlink:title="Base class for all FW4SPL&#39;s classes. ">
<polygon fill="white" stroke="black" points="170.5,-193.5 170.5,-214.5 275.5,-214.5 275.5,-193.5 170.5,-193.5"/>
<text text-anchor="middle" x="223" y="-201.5" font-family="Helvetica,sans-Serif" font-size="10.00">fwCore::BaseObject</text>
</a>
</g>
<!-- Node4&#45;&gt;Node3 -->
<g id="edge6" class="edge"><title>Node4&#45;&gt;Node3</title>
<path fill="none" stroke="midnightblue" d="M285.813,-195.704C312.89,-192.128 344.502,-187.953 371.639,-184.368"/>
<polygon fill="midnightblue" stroke="midnightblue" points="285.132,-192.263 275.677,-197.043 286.049,-199.203 285.132,-192.263"/>
</g>
<!-- Node5 -->
<g id="node8" class="node"><title>Node5</title>
<polygon fill="white" stroke="#bfbfbf" points="0.5,-188 0.5,-222 131.5,-222 131.5,-188 0.5,-188"/>
<text text-anchor="start" x="8.5" y="-209" font-family="Helvetica,sans-Serif" font-size="10.00">std::enable_shared</text>
<text text-anchor="middle" x="66" y="-196" font-family="Helvetica,sans-Serif" font-size="10.00">_from_this&lt; BaseObject &gt;</text>
</g>
<!-- Node5&#45;&gt;Node4 -->
<g id="edge8" class="edge"><title>Node5&#45;&gt;Node4</title>
<path fill="none" stroke="midnightblue" d="M141.751,-204.518C151.466,-204.456 161.238,-204.393 170.469,-204.335"/>
<polygon fill="midnightblue" stroke="midnightblue" points="141.65,-201.018 131.672,-204.582 141.695,-208.018 141.65,-201.018"/>
</g>
<!-- Node6 -->
<g id="node10" class="node"><title>Node6</title>
<a xlink:title="STL class. ">
<polygon fill="white" stroke="#bfbfbf" points="193,-145.5 193,-166.5 253,-166.5 253,-145.5 193,-145.5"/>
<text text-anchor="middle" x="223" y="-153.5" font-family="Helvetica,sans-Serif" font-size="10.00">std::string</text>
</a>
</g>
<!-- Node6&#45;&gt;Node3 -->
<g id="edge10" class="edge"><title>Node6&#45;&gt;Node3</title>
<path fill="none" stroke="#9a32cd" stroke-dasharray="5,2" d="M263.68,-159.838C294.314,-162.728 336.875,-166.743 371.911,-170.048"/>
<polygon fill="#9a32cd" stroke="#9a32cd" points="263.659,-156.32 253.374,-158.866 263.001,-163.289 263.659,-156.32"/>
<text text-anchor="middle" x="324" y="-171" font-family="Helvetica,sans-Serif" font-size="10.00"> m_extension</text>
</g>
<!-- Node7 -->
<g id="node12" class="node"><title>Node7</title>
<a xlink:title="STL class. ">
<polygon fill="white" stroke="#bfbfbf" points="18.5,-136 18.5,-170 113.5,-170 113.5,-136 18.5,-136"/>
<text text-anchor="start" x="26.5" y="-157" font-family="Helvetica,sans-Serif" font-size="10.00">std::basic_string&lt;</text>
<text text-anchor="middle" x="66" y="-144" font-family="Helvetica,sans-Serif" font-size="10.00"> char &gt;</text>
</a>
</g>
<!-- Node7&#45;&gt;Node6 -->
<g id="edge12" class="edge"><title>Node7&#45;&gt;Node6</title>
<path fill="none" stroke="midnightblue" d="M123.749,-154.103C147.226,-154.552 173.37,-155.052 192.931,-155.425"/>
<polygon fill="midnightblue" stroke="midnightblue" points="123.596,-150.6 113.531,-153.908 123.463,-157.599 123.596,-150.6"/>
</g>
<!-- Node8&#45;&gt;Node2 -->
<g id="edge14" class="edge"><title>Node8&#45;&gt;Node2</title>
<path fill="none" stroke="orange" stroke-dasharray="5,2" d="M690.101,-150.897C737.77,-151.998 797.133,-153.369 842.313,-154.413"/>
<polygon fill="orange" stroke="orange" points="689.885,-147.391 679.807,-150.659 689.723,-154.389 689.885,-147.391"/>
<text text-anchor="middle" x="761" y="-157" font-family="Helvetica,sans-Serif" font-size="10.00"> &lt; ::fwMedData::SeriesDB &gt;</text>
</g>
<!-- Node9 -->
<g id="node17" class="node"><title>Node9</title>
<a xlink:href="structfwData_1_1location_1_1enableFolder.html" target="_top" xlink:title="fwData::location::enable\lFolder\&lt; ::fwDataIO::writer\l::IObjectWriter \&gt;">
<polygon fill="white" stroke="black" points="845.5,-66.5 845.5,-113.5 976.5,-113.5 976.5,-66.5 845.5,-66.5"/>
<text text-anchor="start" x="853.5" y="-100.5" font-family="Helvetica,sans-Serif" font-size="10.00">fwData::location::enable</text>
<text text-anchor="start" x="853.5" y="-87.5" font-family="Helvetica,sans-Serif" font-size="10.00">Folder&lt; ::fwDataIO::writer</text>
<text text-anchor="middle" x="911" y="-74.5" font-family="Helvetica,sans-Serif" font-size="10.00">::IObjectWriter &gt;</text>
</a>
</g>
<!-- Node9&#45;&gt;Node1 -->
<g id="edge18" class="edge"><title>Node9&#45;&gt;Node1</title>
<path fill="none" stroke="midnightblue" d="M986.754,-90C997.048,-90 1007.63,-90 1017.98,-90"/>
<polygon fill="midnightblue" stroke="midnightblue" points="986.577,-86.5001 976.577,-90 986.577,-93.5001 986.577,-86.5001"/>
</g>
<!-- Node10 -->
<g id="node19" class="node"><title>Node10</title>
<a xlink:href="structfwData_1_1location_1_1enableFolder.html" target="_top" xlink:title="This class is derived by reader/writer. ">
<polygon fill="white" stroke="black" points="547,-73 547,-107 669,-107 669,-73 547,-73"/>
<text text-anchor="start" x="555" y="-94" font-family="Helvetica,sans-Serif" font-size="10.00">fwData::location::enable</text>
<text text-anchor="middle" x="608" y="-81" font-family="Helvetica,sans-Serif" font-size="10.00">Folder&lt; RW &gt;</text>
</a>
</g>
<!-- Node10&#45;&gt;Node9 -->
<g id="edge20" class="edge"><title>Node10&#45;&gt;Node9</title>
<path fill="none" stroke="orange" stroke-dasharray="5,2" d="M679.454,-90C729.693,-90 796.406,-90 845.315,-90"/>
<polygon fill="orange" stroke="orange" points="679.317,-86.5001 669.317,-90 679.317,-93.5001 679.317,-86.5001"/>
<text text-anchor="start" x="715.5" y="-107" font-family="Helvetica,sans-Serif" font-size="10.00"> &lt; ::fwDataIO::writer</text>
<text text-anchor="middle" x="761" y="-94" font-family="Helvetica,sans-Serif" font-size="10.00">::IObjectWriter &gt;</text>
</g>
<!-- Node11 -->
<g id="node21" class="node"><title>Node11</title>
<a xlink:href="structfwData_1_1location_1_1enableSingleFile.html" target="_top" xlink:title="fwData::location::enable\lSingleFile\&lt; ::fwDataIO\l::writer::IObjectWriter \&gt;">
<polygon fill="white" stroke="black" points="850,-0.5 850,-47.5 972,-47.5 972,-0.5 850,-0.5"/>
<text text-anchor="start" x="858" y="-34.5" font-family="Helvetica,sans-Serif" font-size="10.00">fwData::location::enable</text>
<text text-anchor="start" x="858" y="-21.5" font-family="Helvetica,sans-Serif" font-size="10.00">SingleFile&lt; ::fwDataIO</text>
<text text-anchor="middle" x="911" y="-8.5" font-family="Helvetica,sans-Serif" font-size="10.00">::writer::IObjectWriter &gt;</text>
</a>
</g>
<!-- Node11&#45;&gt;Node1 -->
<g id="edge22" class="edge"><title>Node11&#45;&gt;Node1</title>
<path fill="none" stroke="midnightblue" d="M981.678,-49.0794C1004.19,-57.0673 1028.56,-65.7131 1049.06,-72.9906"/>
<polygon fill="midnightblue" stroke="midnightblue" points="982.756,-45.7479 972.161,-45.7023 980.415,-52.3449 982.756,-45.7479"/>
</g>
<!-- Node12 -->
<g id="node23" class="node"><title>Node12</title>
<a xlink:href="structfwData_1_1location_1_1enableSingleFile.html" target="_top" xlink:title="This class is derived by reader/writer. ">
<polygon fill="white" stroke="black" points="547,-7 547,-41 669,-41 669,-7 547,-7"/>
<text text-anchor="start" x="555" y="-28" font-family="Helvetica,sans-Serif" font-size="10.00">fwData::location::enable</text>
<text text-anchor="middle" x="608" y="-15" font-family="Helvetica,sans-Serif" font-size="10.00">SingleFile&lt; RW &gt;</text>
</a>
</g>
<!-- Node12&#45;&gt;Node11 -->
<g id="edge24" class="edge"><title>Node12&#45;&gt;Node11</title>
<path fill="none" stroke="orange" stroke-dasharray="5,2" d="M679.429,-24C731.215,-24 800.516,-24 849.775,-24"/>
<polygon fill="orange" stroke="orange" points="679.317,-20.5001 669.317,-24 679.317,-27.5001 679.317,-20.5001"/>
<text text-anchor="start" x="715.5" y="-41" font-family="Helvetica,sans-Serif" font-size="10.00"> &lt; ::fwDataIO::writer</text>
<text text-anchor="middle" x="761" y="-28" font-family="Helvetica,sans-Serif" font-size="10.00">::IObjectWriter &gt;</text>
</g>
</g>
</svg>
