<?xml version="1.0" encoding="UTF-8" standalone="no"?>
<!DOCTYPE svg PUBLIC "-//W3C//DTD SVG 1.1//EN"
 "http://www.w3.org/Graphics/SVG/1.1/DTD/svg11.dtd">
<!-- Generated by graphviz version 2.36.0 (20140111.2315)
 -->
<!-- Title: fwDataTools::Mesh::shakePoint Pages: 1 -->
<svg width="442pt" height="234pt"
 viewBox="0.00 0.00 442.00 234.00" xmlns="http://www.w3.org/2000/svg" xmlns:xlink="http://www.w3.org/1999/xlink">
<g id="graph0" class="graph" transform="scale(1 1) rotate(0) translate(4 230)">
<title>fwDataTools::Mesh::shakePoint</title>
<polygon fill="white" stroke="none" points="-4,4 -4,-230 438,-230 438,4 -4,4"/>
<!-- Node1 -->
<g id="node1" class="node"><title>Node1</title>
<polygon fill="#bfbfbf" stroke="black" points="0,-98 0,-128 108,-128 108,-98 0,-98"/>
<text text-anchor="start" x="8" y="-116" font-family="Helvetica,sans-Serif" font-size="10.00">fwDataTools::Mesh::</text>
<text text-anchor="middle" x="54" y="-105" font-family="Helvetica,sans-Serif" font-size="10.00">shakePoint</text>
</g>
<!-- Node2 -->
<g id="node2" class="node"><title>Node2</title>
<g id="a_node2"><a xlink:href="classfwDataTools_1_1helper_1_1ArrayGetter.html#ac17ef2cfba12b247621eb7b9cd309e9d" target="_top" xlink:title="Returns the begining/end of the buffer interpreted as a char buffer. ">
<polygon fill="white" stroke="black" points="167,-196 167,-226 271,-226 271,-196 167,-196"/>
<text text-anchor="start" x="175" y="-214" font-family="Helvetica,sans-Serif" font-size="10.00">fwDataTools::helper</text>
<text text-anchor="middle" x="219" y="-203" font-family="Helvetica,sans-Serif" font-size="10.00">::ArrayGetter::begin</text>
</a>
</g>
</g>
<!-- Node1&#45;&gt;Node2 -->
<g id="edge1" class="edge"><title>Node1&#45;&gt;Node2</title>
<path fill="none" stroke="midnightblue" d="M69.8116,-128.052C86.5271,-144.305 115.164,-170.007 144,-186 148.225,-188.343 152.707,-190.518 157.292,-192.527"/>
<polygon fill="midnightblue" stroke="midnightblue" points="156.221,-195.87 166.802,-196.416 158.871,-189.391 156.221,-195.87"/>
</g>
<!-- Node4 -->
<g id="node4" class="node"><title>Node4</title>
<g id="a_node4"><a xlink:href="classfwDataTools_1_1helper_1_1Array.html#a17c77d0c960d6e0cbefd90235f9761f0" target="_top" xlink:title="Returns the begining/end of the buffer interpreted as a char buffer. ">
<polygon fill="white" stroke="black" points="167,-147 167,-177 271,-177 271,-147 167,-147"/>
<text text-anchor="start" x="175" y="-165" font-family="Helvetica,sans-Serif" font-size="10.00">fwDataTools::helper</text>
<text text-anchor="middle" x="219" y="-154" font-family="Helvetica,sans-Serif" font-size="10.00">::Array::begin</text>
</a>
</g>
</g>
<!-- Node1&#45;&gt;Node4 -->
<g id="edge3" class="edge"><title>Node1&#45;&gt;Node4</title>
<path fill="none" stroke="midnightblue" d="M105.235,-128.101C121.891,-133.108 140.6,-138.732 157.919,-143.939"/>
<polygon fill="midnightblue" stroke="midnightblue" points="157.346,-147.421 167.93,-146.948 159.361,-140.718 157.346,-147.421"/>
</g>
<!-- Node5 -->
<g id="node5" class="node"><title>Node5</title>
<g id="a_node5"><a xlink:href="classfwDataTools_1_1TransformationMatrix3D.html#a3cb8fbf75613406d7251dc9455eb042d" target="_top" xlink:title="Convert a fwData::TransformationMatrix3D into a GLM matrix. ">
<polygon fill="white" stroke="black" points="144,-98 144,-128 294,-128 294,-98 144,-98"/>
<text text-anchor="start" x="152" y="-116" font-family="Helvetica,sans-Serif" font-size="10.00">fwDataTools::Transformation</text>
<text text-anchor="middle" x="219" y="-105" font-family="Helvetica,sans-Serif" font-size="10.00">Matrix3D::getMatrixFromTF3D</text>
</a>
</g>
</g>
<!-- Node1&#45;&gt;Node5 -->
<g id="edge4" class="edge"><title>Node1&#45;&gt;Node5</title>
<path fill="none" stroke="midnightblue" d="M108.372,-113C116.514,-113 125.082,-113 133.692,-113"/>
<polygon fill="midnightblue" stroke="midnightblue" points="133.796,-116.5 143.796,-113 133.796,-109.5 133.796,-116.5"/>
</g>
<!-- Node6 -->
<g id="node6" class="node"><title>Node6</title>
<g id="a_node6"><a xlink:href="classfwDataTools_1_1helper_1_1Mesh.html#ad46ba236520f015a3bdd16f350b9702d" target="_top" xlink:title="Returns the internal corresponding array as a boost::multi_array_ref. ">
<polygon fill="white" stroke="black" points="167,-49 167,-79 271,-79 271,-49 167,-49"/>
<text text-anchor="start" x="175" y="-67" font-family="Helvetica,sans-Serif" font-size="10.00">fwDataTools::helper</text>
<text text-anchor="middle" x="219" y="-56" font-family="Helvetica,sans-Serif" font-size="10.00">::Mesh::getPoints</text>
</a>
</g>
</g>
<!-- Node1&#45;&gt;Node6 -->
<g id="edge5" class="edge"><title>Node1&#45;&gt;Node6</title>
<path fill="none" stroke="midnightblue" d="M105.235,-97.8986C121.891,-92.8917 140.6,-87.2676 157.919,-82.061"/>
<polygon fill="midnightblue" stroke="midnightblue" points="159.361,-85.2823 167.93,-79.0516 157.346,-78.5787 159.361,-85.2823"/>
</g>
<!-- Node7 -->
<g id="node7" class="node"><title>Node7</title>
<g id="a_node7"><a xlink:href="classfwDataTools_1_1Mesh.html#a8fd41e726e11d3638db909b79bfd36ad" target="_top" xlink:title="Apply a transformation 4x4 from an input mesh to an output mesh. ">
<polygon fill="white" stroke="black" points="165,-0 165,-30 273,-30 273,-0 165,-0"/>
<text text-anchor="start" x="173" y="-18" font-family="Helvetica,sans-Serif" font-size="10.00">fwDataTools::Mesh::</text>
<text text-anchor="middle" x="219" y="-7" font-family="Helvetica,sans-Serif" font-size="10.00">transform</text>
</a>
</g>
</g>
<!-- Node1&#45;&gt;Node7 -->
<g id="edge6" class="edge"><title>Node1&#45;&gt;Node7</title>
<path fill="none" stroke="midnightblue" d="M69.8116,-97.9478C86.5271,-81.6955 115.164,-55.9927 144,-40 147.908,-37.8327 152.036,-35.8091 156.262,-33.9281"/>
<polygon fill="midnightblue" stroke="midnightblue" points="157.734,-37.1068 165.626,-30.0378 155.048,-30.6426 157.734,-37.1068"/>
</g>
<!-- Node3 -->
<g id="node3" class="node"><title>Node3</title>
<g id="a_node3"><a xlink:href="classfwDataTools_1_1helper_1_1Array.html#a3ff8a5a8d71b35357b9a694a416fb1ea" target="_top" xlink:title="Getter for the array buffer. ">
<polygon fill="white" stroke="black" points="330,-196 330,-226 434,-226 434,-196 330,-196"/>
<text text-anchor="start" x="338" y="-214" font-family="Helvetica,sans-Serif" font-size="10.00">fwDataTools::helper</text>
<text text-anchor="middle" x="382" y="-203" font-family="Helvetica,sans-Serif" font-size="10.00">::Array::getBuffer</text>
</a>
</g>
</g>
<!-- Node2&#45;&gt;Node3 -->
<g id="edge2" class="edge"><title>Node2&#45;&gt;Node3</title>
<path fill="none" stroke="midnightblue" d="M271.384,-211C286.709,-211 303.66,-211 319.559,-211"/>
<polygon fill="midnightblue" stroke="midnightblue" points="319.828,-214.5 329.828,-211 319.828,-207.5 319.828,-214.5"/>
</g>
</g>
</svg>
