<?xml version="1.0" encoding="UTF-8" standalone="no"?>
<!DOCTYPE svg PUBLIC "-//W3C//DTD SVG 1.1//EN"
 "http://www.w3.org/Graphics/SVG/1.1/DTD/svg11.dtd">
<!-- Generated by graphviz version 2.26.3 (20100126.1600)
 -->
<!-- Title: fwGuiQt::dialog::MultiSelectorDialog Pages: 1 -->
<svg width="302pt" height="324pt"
 viewBox="0.00 0.00 302.00 324.00" xmlns="http://www.w3.org/2000/svg" xmlns:xlink="http://www.w3.org/1999/xlink">
<g id="graph1" class="graph" transform="scale(1 1) rotate(0) translate(4 320)">
<title>fwGuiQt::dialog::MultiSelectorDialog</title>
<polygon fill="white" stroke="white" points="-4,5 -4,-320 299,-320 299,5 -4,5"/>
<!-- Node1 -->
<g id="node1" class="node"><title>Node1</title>
<polygon fill="#bfbfbf" stroke="black" points="147.5,-1 147.5,-35 294.5,-35 294.5,-1 147.5,-1"/>
<text text-anchor="start" x="155.5" y="-22" font-family="Helvetica,sans-Serif" font-size="10.00">fwGuiQt::dialog::MultiSelector</text>
<text text-anchor="middle" x="221" y="-9" font-family="Helvetica,sans-Serif" font-size="10.00">Dialog</text>
</g>
<!-- Node2 -->
<g id="node2" class="node"><title>Node2</title>
<a xlink:href="classfwGui_1_1dialog_1_1IMultiSelectorDialog.html" target="_top" xlink:title="IMultiSelectorDialog allows the choice of some elements among several (_selections) ...">
<polygon fill="white" stroke="black" points="66,-75 66,-109 206,-109 206,-75 66,-75"/>
<text text-anchor="start" x="74" y="-96" font-family="Helvetica,sans-Serif" font-size="10.00">fwGui::dialog::IMultiSelector</text>
<text text-anchor="middle" x="136" y="-83" font-family="Helvetica,sans-Serif" font-size="10.00">Dialog</text>
</a>
</g>
<!-- Node2&#45;&gt;Node1 -->
<g id="edge2" class="edge"><title>Node2&#45;&gt;Node1</title>
<path fill="none" stroke="midnightblue" d="M163.501,-68.0582C175.854,-57.3033 190.147,-44.86 201.393,-35.07"/>
<polygon fill="midnightblue" stroke="midnightblue" points="160.958,-65.6309 155.714,-74.8369 165.555,-70.9105 160.958,-65.6309"/>
</g>
<!-- Node3 -->
<g id="node4" class="node"><title>Node3</title>
<a xlink:href="classfwGui_1_1GuiBaseObject.html" target="_top" xlink:title="Base class for all fwGui&#39;s classes. ">
<polygon fill="white" stroke="black" points="8,-160.5 8,-181.5 122,-181.5 122,-160.5 8,-160.5"/>
<text text-anchor="middle" x="65" y="-168.5" font-family="Helvetica,sans-Serif" font-size="10.00">fwGui::GuiBaseObject</text>
</a>
</g>
<!-- Node3&#45;&gt;Node2 -->
<g id="edge4" class="edge"><title>Node3&#45;&gt;Node2</title>
<path fill="none" stroke="midnightblue" d="M81.3363,-152.823C93.1538,-139.674 109.017,-122.023 120.61,-109.124"/>
<polygon fill="midnightblue" stroke="midnightblue" points="78.6567,-150.568 74.5754,-160.346 83.863,-155.248 78.6567,-150.568"/>
</g>
<!-- Node4 -->
<g id="node6" class="node"><title>Node4</title>
<a xlink:href="classfwCore_1_1BaseObject.html" target="_top" xlink:title="Base class for all FW4SPL&#39;s classes. ">
<polygon fill="white" stroke="black" points="12.5,-220.5 12.5,-241.5 117.5,-241.5 117.5,-220.5 12.5,-220.5"/>
<text text-anchor="middle" x="65" y="-228.5" font-family="Helvetica,sans-Serif" font-size="10.00">fwCore::BaseObject</text>
</a>
</g>
<!-- Node4&#45;&gt;Node3 -->
<g id="edge6" class="edge"><title>Node4&#45;&gt;Node3</title>
<path fill="none" stroke="midnightblue" d="M65,-210.231C65,-200.592 65,-189.544 65,-181.634"/>
<polygon fill="midnightblue" stroke="midnightblue" points="61.5001,-210.273 65,-220.273 68.5001,-210.273 61.5001,-210.273"/>
</g>
<!-- Node5 -->
<g id="node8" class="node"><title>Node5</title>
<polygon fill="white" stroke="#bfbfbf" points="-0.5,-281 -0.5,-315 130.5,-315 130.5,-281 -0.5,-281"/>
<text text-anchor="start" x="7.5" y="-302" font-family="Helvetica,sans-Serif" font-size="10.00">std::enable_shared</text>
<text text-anchor="middle" x="65" y="-289" font-family="Helvetica,sans-Serif" font-size="10.00">_from_this&lt; BaseObject &gt;</text>
</g>
<!-- Node5&#45;&gt;Node4 -->
<g id="edge8" class="edge"><title>Node5&#45;&gt;Node4</title>
<path fill="none" stroke="midnightblue" d="M65,-270.534C65,-260.306 65,-249.301 65,-241.506"/>
<polygon fill="midnightblue" stroke="midnightblue" points="61.5001,-270.746 65,-280.746 68.5001,-270.746 61.5001,-270.746"/>
</g>
<!-- Node6 -->
<g id="node10" class="node"><title>Node6</title>
<polygon fill="white" stroke="#bfbfbf" points="139.5,-160.5 139.5,-181.5 180.5,-181.5 180.5,-160.5 139.5,-160.5"/>
<text text-anchor="middle" x="160" y="-168.5" font-family="Helvetica,sans-Serif" font-size="10.00">static</text>
</g>
<!-- Node6&#45;&gt;Node2 -->
<g id="edge10" class="edge"><title>Node6&#45;&gt;Node2</title>
<path fill="none" stroke="#9a32cd" stroke-dasharray="5,2" d="M153.787,-150.549C149.881,-137.691 144.899,-121.293 141.202,-109.124"/>
<polygon fill="#9a32cd" stroke="#9a32cd" points="150.508,-151.795 156.763,-160.346 157.205,-149.76 150.508,-151.795"/>
<text text-anchor="middle" x="191.5" y="-132.5" font-family="Helvetica,sans-Serif" font-size="10.00"> REGISTRY_KEY</text>
</g>
<!-- Node7 -->
<g id="node12" class="node"><title>Node7</title>
<polygon fill="white" stroke="#bfbfbf" points="224,-81.5 224,-102.5 276,-102.5 276,-81.5 224,-81.5"/>
<text text-anchor="middle" x="250" y="-89.5" font-family="Helvetica,sans-Serif" font-size="10.00">QDialog</text>
</g>
<!-- Node7&#45;&gt;Node1 -->
<g id="edge12" class="edge"><title>Node7&#45;&gt;Node1</title>
<path fill="none" stroke="midnightblue" d="M242.082,-71.7957C237.582,-60.3136 232.009,-46.0922 227.723,-35.1558"/>
<polygon fill="midnightblue" stroke="midnightblue" points="238.938,-73.3641 245.845,-81.3976 245.455,-70.8099 238.938,-73.3641"/>
</g>
</g>
</svg>
