<?xml version="1.0" encoding="UTF-8" standalone="no"?>
<!DOCTYPE svg PUBLIC "-//W3C//DTD SVG 1.1//EN"
 "http://www.w3.org/Graphics/SVG/1.1/DTD/svg11.dtd">
<!-- Generated by graphviz version 2.26.3 (20100126.1600)
 -->
<!-- Title: scene2D::adaptor::TransferFunction::doUpdate Pages: 1 -->
<svg width="726pt" height="318pt"
 viewBox="0.00 0.00 726.00 318.00" xmlns="http://www.w3.org/2000/svg" xmlns:xlink="http://www.w3.org/1999/xlink">
<g id="graph1" class="graph" transform="scale(1 1) rotate(0) translate(4 314)">
<title>scene2D::adaptor::TransferFunction::doUpdate</title>
<polygon fill="white" stroke="white" points="-4,5 -4,-314 723,-314 723,5 -4,5"/>
<!-- Node1 -->
<g id="node1" class="node"><title>Node1</title>
<polygon fill="#bfbfbf" stroke="black" points="0,-169 0,-203 136,-203 136,-169 0,-169"/>
<text text-anchor="start" x="8" y="-190" font-family="Helvetica,sans-Serif" font-size="10.00">scene2D::adaptor::Transfer</text>
<text text-anchor="middle" x="68" y="-177" font-family="Helvetica,sans-Serif" font-size="10.00">Function::doUpdate</text>
</g>
<!-- Node2 -->
<g id="node3" class="node"><title>Node2</title>
<a xlink:href="classfwComEd_1_1helper_1_1MedicalImageAdaptor.html#a3d27d250eb47bec918554189318ed543" target="_top" xlink:title="Update the image information (slice index, min/max,...) ">
<polygon fill="white" stroke="black" points="172.5,-199 172.5,-233 333.5,-233 333.5,-199 172.5,-199"/>
<text text-anchor="start" x="180.5" y="-220" font-family="Helvetica,sans-Serif" font-size="10.00">fwComEd::helper::Medical</text>
<text text-anchor="middle" x="253" y="-207" font-family="Helvetica,sans-Serif" font-size="10.00">ImageAdaptor::updateImageInfos</text>
</a>
</g>
<!-- Node1&#45;&gt;Node2 -->
<g id="edge2" class="edge"><title>Node1&#45;&gt;Node2</title>
<path fill="none" stroke="midnightblue" d="M136.099,-197.043C144.633,-198.427 153.464,-199.859 162.275,-201.288"/>
<polygon fill="midnightblue" stroke="midnightblue" points="161.765,-204.751 172.196,-202.897 162.885,-197.841 161.765,-204.751"/>
</g>
<!-- Node3 -->
<g id="node5" class="node"><title>Node3</title>
<a xlink:href="classfwComEd_1_1helper_1_1MedicalImageAdaptor.html#a82c1509bc6a0113a631c234702c67a54" target="_top" xlink:title="Update the transfer function information. ">
<polygon fill="white" stroke="black" points="178.5,-133.5 178.5,-180.5 327.5,-180.5 327.5,-133.5 178.5,-133.5"/>
<text text-anchor="start" x="186.5" y="-167.5" font-family="Helvetica,sans-Serif" font-size="10.00">fwComEd::helper::Medical</text>
<text text-anchor="start" x="186.5" y="-154.5" font-family="Helvetica,sans-Serif" font-size="10.00">ImageAdaptor::updateTransfer</text>
<text text-anchor="middle" x="253" y="-141.5" font-family="Helvetica,sans-Serif" font-size="10.00">Function</text>
</a>
</g>
<!-- Node1&#45;&gt;Node3 -->
<g id="edge4" class="edge"><title>Node1&#45;&gt;Node3</title>
<path fill="none" stroke="midnightblue" d="M136.099,-175.325C146.483,-173.697 157.309,-172 168,-170.324"/>
<polygon fill="midnightblue" stroke="midnightblue" points="168.853,-173.733 178.19,-168.727 167.769,-166.818 168.853,-173.733"/>
</g>
<!-- Node4 -->
<g id="node7" class="node"><title>Node4</title>
<a xlink:href="classfwTools_1_1fwID.html#a49c219235064892bb906498913fe8175" target="_top" xlink:title="Retrieve the object attached to the given id. Return a null sptr if no correspondence exist...">
<polygon fill="white" stroke="black" points="379,-246.5 379,-267.5 505,-267.5 505,-246.5 379,-246.5"/>
<text text-anchor="middle" x="442" y="-254.5" font-family="Helvetica,sans-Serif" font-size="10.00">fwTools::fwID::getObject</text>
</a>
</g>
<!-- Node3&#45;&gt;Node4 -->
<g id="edge6" class="edge"><title>Node3&#45;&gt;Node4</title>
<path fill="none" stroke="midnightblue" d="M318.992,-180.695C324.243,-183.527 329.319,-186.626 334,-190 353.945,-204.375 349.684,-218.155 370,-232 376.089,-236.15 382.936,-239.677 389.923,-242.656"/>
<polygon fill="midnightblue" stroke="midnightblue" points="388.891,-246.011 399.48,-246.386 391.437,-239.49 388.891,-246.011"/>
</g>
<!-- Node5 -->
<g id="node9" class="node"><title>Node5</title>
<a xlink:href="classfwComEd_1_1fieldHelper_1_1MedicalImageHelpers.html#a5a9e6da3b6d58f66360a937620f547b1" target="_top" xlink:title="Check if the image is valid. ">
<polygon fill="white" stroke="black" points="575.5,-262.5 575.5,-309.5 692.5,-309.5 692.5,-262.5 575.5,-262.5"/>
<text text-anchor="start" x="583.5" y="-296.5" font-family="Helvetica,sans-Serif" font-size="10.00">fwComEd::fieldHelper</text>
<text text-anchor="start" x="583.5" y="-283.5" font-family="Helvetica,sans-Serif" font-size="10.00">::MedicalImageHelpers</text>
<text text-anchor="middle" x="634" y="-270.5" font-family="Helvetica,sans-Serif" font-size="10.00">::checkImageValidity</text>
</a>
</g>
<!-- Node3&#45;&gt;Node5 -->
<g id="edge8" class="edge"><title>Node3&#45;&gt;Node5</title>
<path fill="none" stroke="midnightblue" d="M309.908,-180.577C328.843,-187.966 350.162,-195.802 370,-202 432.867,-221.64 451.655,-215.762 514,-237 530.574,-242.646 533.848,-246.242 550,-253 555.059,-255.117 560.305,-257.272 565.592,-259.414"/>
<polygon fill="midnightblue" stroke="midnightblue" points="564.537,-262.763 575.121,-263.248 567.15,-256.269 564.537,-262.763"/>
</g>
<!-- Node6 -->
<g id="node11" class="node"><title>Node6</title>
<a xlink:href="classfwComEd_1_1fieldHelper_1_1MedicalImageHelpers.html#ae4e6699751faeb6ca802855220b384a2" target="_top" xlink:title="Return minimum and maximum values contained in image. If image min or max value is out of MINMAXTYPE ...">
<polygon fill="white" stroke="black" points="575.5,-196.5 575.5,-243.5 692.5,-243.5 692.5,-196.5 575.5,-196.5"/>
<text text-anchor="start" x="583.5" y="-230.5" font-family="Helvetica,sans-Serif" font-size="10.00">fwComEd::fieldHelper</text>
<text text-anchor="start" x="583.5" y="-217.5" font-family="Helvetica,sans-Serif" font-size="10.00">::MedicalImageHelpers</text>
<text text-anchor="middle" x="634" y="-204.5" font-family="Helvetica,sans-Serif" font-size="10.00">::getMinMax</text>
</a>
</g>
<!-- Node3&#45;&gt;Node6 -->
<g id="edge10" class="edge"><title>Node3&#45;&gt;Node6</title>
<path fill="none" stroke="midnightblue" d="M327.819,-169.372C396.77,-180.773 498.262,-197.555 565.225,-208.628"/>
<polygon fill="midnightblue" stroke="midnightblue" points="564.818,-212.108 575.255,-210.286 565.96,-205.202 564.818,-212.108"/>
</g>
<!-- Node7 -->
<g id="node13" class="node"><title>Node7</title>
<a xlink:href="classfwComEd_1_1helper_1_1Composite.html#a9a13f6097cbb512bb6cdfab6987b4b5b" target="_top" xlink:title="Add an object in the composite. ">
<polygon fill="white" stroke="black" points="550.5,-52.5 550.5,-73.5 717.5,-73.5 717.5,-52.5 550.5,-52.5"/>
<text text-anchor="middle" x="634" y="-60.5" font-family="Helvetica,sans-Serif" font-size="10.00">fwComEd::helper::Composite::add</text>
</a>
</g>
<!-- Node3&#45;&gt;Node7 -->
<g id="edge12" class="edge"><title>Node3&#45;&gt;Node7</title>
<path fill="none" stroke="midnightblue" d="M303.691,-133.395C323.962,-124.702 347.745,-115.422 370,-109 425.526,-92.9783 489.325,-81.6744 540.294,-74.2821"/>
<polygon fill="midnightblue" stroke="midnightblue" points="540.904,-77.7307 550.311,-72.8556 539.917,-70.8006 540.904,-77.7307"/>
</g>
<!-- Node8 -->
<g id="node15" class="node"><title>Node8</title>
<a xlink:href="classfwComEd_1_1helper_1_1Composite.html#a7ee86890a448cf9e0680f6d97a91eb4b" target="_top" xlink:title="Send the message of modification. ">
<polygon fill="white" stroke="black" points="561,-0 561,-34 707,-34 707,-0 561,-0"/>
<text text-anchor="start" x="569" y="-21" font-family="Helvetica,sans-Serif" font-size="10.00">fwComEd::helper::Composite</text>
<text text-anchor="middle" x="634" y="-8" font-family="Helvetica,sans-Serif" font-size="10.00">::notify</text>
</a>
</g>
<!-- Node3&#45;&gt;Node8 -->
<g id="edge14" class="edge"><title>Node3&#45;&gt;Node8</title>
<path fill="none" stroke="midnightblue" d="M279.434,-133.459C301.976,-114.619 336.039,-88.9556 370,-74 427.65,-48.6122 497.495,-34.173 550.861,-26.1829"/>
<polygon fill="midnightblue" stroke="midnightblue" points="551.572,-29.6164 560.966,-24.7171 550.567,-22.6889 551.572,-29.6164"/>
</g>
<!-- Node9 -->
<g id="node17" class="node"><title>Node9</title>
<a xlink:href="classfwComEd_1_1helper_1_1Image.html#a433706f74a7d6de3853c8489dcab54ec" target="_top" xlink:title="Create transfer function pool if the pool is not present, NOT GENERATE MESSAGE. ">
<polygon fill="white" stroke="black" points="370.5,-118 370.5,-152 513.5,-152 513.5,-118 370.5,-118"/>
<text text-anchor="start" x="378.5" y="-139" font-family="Helvetica,sans-Serif" font-size="10.00">fwComEd::helper::Image</text>
<text text-anchor="middle" x="442" y="-126" font-family="Helvetica,sans-Serif" font-size="10.00">::createTransferFunctionPool</text>
</a>
</g>
<!-- Node3&#45;&gt;Node9 -->
<g id="edge16" class="edge"><title>Node3&#45;&gt;Node9</title>
<path fill="none" stroke="midnightblue" d="M327.698,-148.305C338.332,-147.067 349.316,-145.789 360.079,-144.536"/>
<polygon fill="midnightblue" stroke="midnightblue" points="360.783,-147.978 370.311,-143.345 359.974,-141.024 360.783,-147.978"/>
</g>
<!-- Node9&#45;&gt;Node5 -->
<g id="edge20" class="edge"><title>Node9&#45;&gt;Node5</title>
<path fill="none" stroke="midnightblue" d="M461.532,-152.024C476.544,-165.499 497.444,-185.129 514,-204 531.822,-224.314 528.581,-236.522 550,-253 554.971,-256.825 560.442,-260.26 566.134,-263.334"/>
<polygon fill="midnightblue" stroke="midnightblue" points="564.711,-266.536 575.221,-267.872 567.838,-260.273 564.711,-266.536"/>
</g>
<!-- Node9&#45;&gt;Node6 -->
<g id="edge22" class="edge"><title>Node9&#45;&gt;Node6</title>
<path fill="none" stroke="midnightblue" d="M483.896,-152.019C493.87,-156.35 504.401,-161.157 514,-166 530.537,-174.345 533.33,-178.923 550,-187 555.149,-189.495 560.538,-191.949 565.994,-194.324"/>
<polygon fill="midnightblue" stroke="midnightblue" points="564.636,-197.55 575.208,-198.239 567.373,-191.107 564.636,-197.55"/>
</g>
<!-- Node9&#45;&gt;Node7 -->
<g id="edge18" class="edge"><title>Node9&#45;&gt;Node7</title>
<path fill="none" stroke="midnightblue" d="M483.896,-117.981C493.87,-113.65 504.401,-108.843 514,-104 530.537,-95.6553 532.804,-89.8863 550,-83 556.265,-80.4912 562.923,-78.2463 569.644,-76.2501"/>
<polygon fill="midnightblue" stroke="midnightblue" points="570.804,-79.5601 579.496,-73.5015 568.923,-72.8176 570.804,-79.5601"/>
</g>
<!-- Node9&#45;&gt;Node8 -->
<g id="edge26" class="edge"><title>Node9&#45;&gt;Node8</title>
<path fill="none" stroke="midnightblue" d="M457.954,-117.66C477.724,-97.1285 513.311,-63.18 550,-43 553.104,-41.2929 556.335,-39.6816 559.645,-38.1629"/>
<polygon fill="midnightblue" stroke="midnightblue" points="561.308,-41.2589 569.141,-34.1249 558.569,-34.817 561.308,-41.2589"/>
</g>
<!-- Node10 -->
<g id="node22" class="node"><title>Node10</title>
<a xlink:href="classfwComEd_1_1helper_1_1Field.html#a3d4bfe6d337875d690d45ac96676a781" target="_top" xlink:title="Send the built message. ">
<polygon fill="white" stroke="black" points="574.5,-144 574.5,-178 693.5,-178 693.5,-144 574.5,-144"/>
<text text-anchor="start" x="582.5" y="-165" font-family="Helvetica,sans-Serif" font-size="10.00">fwComEd::helper::Field</text>
<text text-anchor="middle" x="634" y="-152" font-family="Helvetica,sans-Serif" font-size="10.00">::notify</text>
</a>
</g>
<!-- Node9&#45;&gt;Node10 -->
<g id="edge24" class="edge"><title>Node9&#45;&gt;Node10</title>
<path fill="none" stroke="midnightblue" d="M513.767,-144.718C530.261,-146.952 547.777,-149.324 564.188,-151.546"/>
<polygon fill="midnightblue" stroke="midnightblue" points="563.864,-155.034 574.243,-152.908 564.804,-148.098 563.864,-155.034"/>
</g>
<!-- Node11 -->
<g id="node25" class="node"><title>Node11</title>
<a xlink:href="classfwComEd_1_1helper_1_1Field.html#ac9e8f0e7afff01116aa299d64ec47280" target="_top" xlink:title="Register field with specified name. If the name does already exist, the matching field will be replac...">
<polygon fill="white" stroke="black" points="574.5,-92 574.5,-126 693.5,-126 693.5,-92 574.5,-92"/>
<text text-anchor="start" x="582.5" y="-113" font-family="Helvetica,sans-Serif" font-size="10.00">fwComEd::helper::Field</text>
<text text-anchor="middle" x="634" y="-100" font-family="Helvetica,sans-Serif" font-size="10.00">::setField</text>
</a>
</g>
<!-- Node9&#45;&gt;Node11 -->
<g id="edge28" class="edge"><title>Node9&#45;&gt;Node11</title>
<path fill="none" stroke="midnightblue" d="M513.767,-125.282C530.261,-123.048 547.777,-120.676 564.188,-118.454"/>
<polygon fill="midnightblue" stroke="midnightblue" points="564.804,-121.902 574.243,-117.092 563.864,-114.966 564.804,-121.902"/>
</g>
</g>
</svg>
