<?xml version="1.0" encoding="UTF-8" standalone="no"?>
<!DOCTYPE svg PUBLIC "-//W3C//DTD SVG 1.1//EN"
 "http://www.w3.org/Graphics/SVG/1.1/DTD/svg11.dtd">
<!-- Generated by graphviz version 2.26.3 (20100126.1600)
 -->
<!-- Title: opVTKMesh::action::SMeshCreation::stopping Pages: 1 -->
<svg width="286pt" height="42pt"
 viewBox="0.00 0.00 286.00 42.00" xmlns="http://www.w3.org/2000/svg" xmlns:xlink="http://www.w3.org/1999/xlink">
<g id="graph1" class="graph" transform="scale(1 1) rotate(0) translate(4 38)">
<title>opVTKMesh::action::SMeshCreation::stopping</title>
<polygon fill="white" stroke="white" points="-4,5 -4,-38 283,-38 283,5 -4,5"/>
<!-- Node1 -->
<g id="node1" class="node"><title>Node1</title>
<polygon fill="#bfbfbf" stroke="black" points="0.5,-0 0.5,-34 127.5,-34 127.5,-0 0.5,-0"/>
<text text-anchor="start" x="8.5" y="-21" font-family="Helvetica,sans-Serif" font-size="10.00">opVTKMesh::action::</text>
<text text-anchor="middle" x="64" y="-8" font-family="Helvetica,sans-Serif" font-size="10.00">SMeshCreation::stopping</text>
</g>
<!-- Node2 -->
<g id="node3" class="node"><title>Node2</title>
<a xlink:href="classfwGui_1_1IActionSrv.html#a79632a626732067ae9d92644107b9799" target="_top" xlink:title="Method called when the action service is stopping. ">
<polygon fill="white" stroke="black" points="164,-0 164,-34 278,-34 278,-0 164,-0"/>
<text text-anchor="start" x="172" y="-21" font-family="Helvetica,sans-Serif" font-size="10.00">fwGui::IActionSrv::</text>
<text text-anchor="middle" x="221" y="-8" font-family="Helvetica,sans-Serif" font-size="10.00">actionServiceStopping</text>
</a>
</g>
<!-- Node1&#45;&gt;Node2 -->
<g id="edge2" class="edge"><title>Node1&#45;&gt;Node2</title>
<path fill="none" stroke="midnightblue" d="M127.858,-17C136.308,-17 144.992,-17 153.5,-17"/>
<polygon fill="midnightblue" stroke="midnightblue" points="153.764,-20.5001 163.764,-17 153.764,-13.5001 153.764,-20.5001"/>
</g>
</g>
</svg>
