<?xml version="1.0" encoding="UTF-8" standalone="no"?>
<!DOCTYPE svg PUBLIC "-//W3C//DTD SVG 1.1//EN"
 "http://www.w3.org/Graphics/SVG/1.1/DTD/svg11.dtd">
<!-- Generated by graphviz version 2.26.3 (20100126.1600)
 -->
<!-- Title: fwGui::IGuiContainerSrv::initialize Pages: 1 -->
<svg width="284pt" height="42pt"
 viewBox="0.00 0.00 284.00 42.00" xmlns="http://www.w3.org/2000/svg" xmlns:xlink="http://www.w3.org/1999/xlink">
<g id="graph1" class="graph" transform="scale(1 1) rotate(0) translate(4 38)">
<title>fwGui::IGuiContainerSrv::initialize</title>
<polygon fill="white" stroke="white" points="-4,5 -4,-38 281,-38 281,5 -4,5"/>
<!-- Node1 -->
<g id="node1" class="node"><title>Node1</title>
<polygon fill="#bfbfbf" stroke="black" points="0.5,-0 0.5,-34 123.5,-34 123.5,-0 0.5,-0"/>
<text text-anchor="start" x="8.5" y="-21" font-family="Helvetica,sans-Serif" font-size="10.00">fwGui::IGuiContainerSrv</text>
<text text-anchor="middle" x="62" y="-8" font-family="Helvetica,sans-Serif" font-size="10.00">::initialize</text>
</g>
<!-- Node2 -->
<g id="node3" class="node"><title>Node2</title>
<a xlink:href="classuiImage_1_1WindowLevel.html#afda91c159bfee922dbcedc756e94209c" target="_top" xlink:title="Configure the editor. ">
<polygon fill="white" stroke="black" points="160,-0 160,-34 276,-34 276,-0 160,-0"/>
<text text-anchor="start" x="168" y="-21" font-family="Helvetica,sans-Serif" font-size="10.00">uiImage::WindowLevel</text>
<text text-anchor="middle" x="218" y="-8" font-family="Helvetica,sans-Serif" font-size="10.00">::configuring</text>
</a>
</g>
<!-- Node1&#45;&gt;Node2 -->
<g id="edge2" class="edge"><title>Node1&#45;&gt;Node2</title>
<path fill="none" stroke="midnightblue" d="M133.816,-17C142.534,-17 151.356,-17 159.842,-17"/>
<polygon fill="midnightblue" stroke="midnightblue" points="133.655,-13.5001 123.655,-17 133.655,-20.5001 133.655,-13.5001"/>
</g>
</g>
</svg>
