<?xml version="1.0" encoding="UTF-8" standalone="no"?>
<!DOCTYPE svg PUBLIC "-//W3C//DTD SVG 1.1//EN"
 "http://www.w3.org/Graphics/SVG/1.1/DTD/svg11.dtd">
<!-- Generated by graphviz version 2.36.0 (20140111.2315)
 -->
<!-- Title: fwData::Array::computeStrides Pages: 1 -->
<svg width="504pt" height="154pt"
 viewBox="0.00 0.00 504.00 154.00" xmlns="http://www.w3.org/2000/svg" xmlns:xlink="http://www.w3.org/1999/xlink">
<g id="graph0" class="graph" transform="scale(1 1) rotate(0) translate(4 150)">
<title>fwData::Array::computeStrides</title>
<polygon fill="white" stroke="none" points="-4,4 -4,-150 500,-150 500,4 -4,4"/>
<!-- Node1 -->
<g id="node1" class="node"><title>Node1</title>
<polygon fill="#bfbfbf" stroke="black" points="0,-66.5 0,-85.5 152,-85.5 152,-66.5 0,-66.5"/>
<text text-anchor="middle" x="76" y="-73.5" font-family="Helvetica,sans-Serif" font-size="10.00">fwData::Array::computeStrides</text>
</g>
<!-- Node2 -->
<g id="node2" class="node"><title>Node2</title>
<g id="a_node2"><a xlink:href="classfwData_1_1Array.html#a06a1e8098c008736c379af5bfe2573b1" target="_top" xlink:title="Resizes and allocate (if needed) the array. ">
<polygon fill="white" stroke="black" points="188,-66.5 188,-85.5 298,-85.5 298,-66.5 188,-66.5"/>
<text text-anchor="middle" x="243" y="-73.5" font-family="Helvetica,sans-Serif" font-size="10.00">fwData::Array::resize</text>
</a>
</g>
</g>
<!-- Node1&#45;&gt;Node2 -->
<g id="edge1" class="edge"><title>Node1&#45;&gt;Node2</title>
<path fill="none" stroke="midnightblue" d="M162.323,-76C170.901,-76 179.437,-76 187.562,-76"/>
<polygon fill="midnightblue" stroke="midnightblue" points="162.257,-72.5001 152.257,-76 162.257,-79.5001 162.257,-72.5001"/>
</g>
<!-- Node3 -->
<g id="node3" class="node"><title>Node3</title>
<g id="a_node3"><a xlink:href="classfwData_1_1Array.html#ab15a523fff0d5e7c7a44bee1ff04f141" target="_top" xlink:title="Defines deep copy. ">
<polygon fill="white" stroke="black" points="334.5,-126.5 334.5,-145.5 495.5,-145.5 495.5,-126.5 334.5,-126.5"/>
<text text-anchor="middle" x="415" y="-133.5" font-family="Helvetica,sans-Serif" font-size="10.00">fwData::Array::cachedDeepCopy</text>
</a>
</g>
</g>
<!-- Node2&#45;&gt;Node3 -->
<g id="edge2" class="edge"><title>Node2&#45;&gt;Node3</title>
<path fill="none" stroke="midnightblue" d="M271.281,-90.1089C288.84,-98.7654 312.348,-109.576 334,-117 344.533,-120.612 356.074,-123.786 367.031,-126.455"/>
<polygon fill="midnightblue" stroke="midnightblue" points="272.696,-86.9035 262.187,-85.5565 269.563,-93.1629 272.696,-86.9035"/>
</g>
<!-- Node4 -->
<g id="node4" class="node"><title>Node4</title>
<g id="a_node4"><a xlink:href="classfwData_1_1Array.html#a55d02b576e4ec00f5dc1d41a606c614d" target="_top" xlink:title="Aliases to the resize method. ">
<polygon fill="white" stroke="black" points="360,-88.5 360,-107.5 470,-107.5 470,-88.5 360,-88.5"/>
<text text-anchor="middle" x="415" y="-95.5" font-family="Helvetica,sans-Serif" font-size="10.00">fwData::Array::resize</text>
</a>
</g>
</g>
<!-- Node2&#45;&gt;Node4 -->
<g id="edge3" class="edge"><title>Node2&#45;&gt;Node4</title>
<path fill="none" stroke="midnightblue" d="M308.628,-84.3636C325.565,-86.5554 343.648,-88.8956 359.967,-91.0075"/>
<polygon fill="midnightblue" stroke="midnightblue" points="308.623,-80.8339 298.256,-83.0214 307.725,-87.776 308.623,-80.8339"/>
</g>
<!-- Node5 -->
<g id="node5" class="node"><title>Node5</title>
<g id="a_node5"><a xlink:href="classfwData_1_1Array.html#af73c70848cb143ad21ce654a0666debe" target="_top" xlink:title="Setter for array&#39;s number of components If the array has a buffer and owns it, the buffer will be rea...">
<polygon fill="white" stroke="black" points="349.5,-39 349.5,-69 480.5,-69 480.5,-39 349.5,-39"/>
<text text-anchor="start" x="357.5" y="-57" font-family="Helvetica,sans-Serif" font-size="10.00">fwData::Array::setNumber</text>
<text text-anchor="middle" x="415" y="-46" font-family="Helvetica,sans-Serif" font-size="10.00">OfComponents</text>
</a>
</g>
</g>
<!-- Node2&#45;&gt;Node5 -->
<g id="edge4" class="edge"><title>Node2&#45;&gt;Node5</title>
<path fill="none" stroke="midnightblue" d="M308.335,-67.6743C321.732,-65.9406 335.858,-64.1125 349.269,-62.3769"/>
<polygon fill="midnightblue" stroke="midnightblue" points="307.725,-64.224 298.256,-68.9786 308.623,-71.1661 307.725,-64.224"/>
</g>
<!-- Node6 -->
<g id="node6" class="node"><title>Node6</title>
<g id="a_node6"><a xlink:href="classfwData_1_1Array.html#a932e10bee6fb9d6d895c5362139f1ea9" target="_top" xlink:title="Setter for array&#39;s type. ">
<polygon fill="white" stroke="black" points="355.5,-0.5 355.5,-19.5 474.5,-19.5 474.5,-0.5 355.5,-0.5"/>
<text text-anchor="middle" x="415" y="-7.5" font-family="Helvetica,sans-Serif" font-size="10.00">fwData::Array::setType</text>
</a>
</g>
</g>
<!-- Node2&#45;&gt;Node6 -->
<g id="edge5" class="edge"><title>Node2&#45;&gt;Node6</title>
<path fill="none" stroke="midnightblue" d="M269.141,-61.1896C286.812,-51.2739 311.264,-38.5251 334,-30 344.858,-25.9286 356.854,-22.4314 368.181,-19.5526"/>
<polygon fill="midnightblue" stroke="midnightblue" points="267.027,-58.3662 260.076,-66.362 270.496,-64.4461 267.027,-58.3662"/>
</g>
</g>
</svg>
