<?xml version="1.0" encoding="UTF-8" standalone="no"?>
<!DOCTYPE svg PUBLIC "-//W3C//DTD SVG 1.1//EN"
 "http://www.w3.org/Graphics/SVG/1.1/DTD/svg11.dtd">
<!-- Generated by graphviz version 2.36.0 (20140111.2315)
 -->
<!-- Title: uiMedDataQt::widget::ActivityDataView::checkData Pages: 1 -->
<svg width="280pt" height="48pt"
 viewBox="0.00 0.00 280.00 48.00" xmlns="http://www.w3.org/2000/svg" xmlns:xlink="http://www.w3.org/1999/xlink">
<g id="graph0" class="graph" transform="scale(1 1) rotate(0) translate(4 44)">
<title>uiMedDataQt::widget::ActivityDataView::checkData</title>
<polygon fill="white" stroke="none" points="-4,4 -4,-44 276,-44 276,4 -4,4"/>
<!-- Node1 -->
<g id="node1" class="node"><title>Node1</title>
<polygon fill="#bfbfbf" stroke="black" points="0.5,0.5 0.5,-40.5 109.5,-40.5 109.5,0.5 0.5,0.5"/>
<text text-anchor="start" x="8.5" y="-28.5" font-family="Helvetica,sans-Serif" font-size="10.00">uiMedDataQt::widget</text>
<text text-anchor="start" x="8.5" y="-17.5" font-family="Helvetica,sans-Serif" font-size="10.00">::ActivityDataView::</text>
<text text-anchor="middle" x="55" y="-6.5" font-family="Helvetica,sans-Serif" font-size="10.00">checkData</text>
</g>
<!-- Node2 -->
<g id="node2" class="node"><title>Node2</title>
<g id="a_node2"><a xlink:href="classfwTools_1_1fwID.html#a49c219235064892bb906498913fe8175" target="_top" xlink:title="Retrieve the object attached to the given id. Return a null sptr if no correspondence exist...">
<polygon fill="white" stroke="black" points="146,-10.5 146,-29.5 272,-29.5 272,-10.5 146,-10.5"/>
<text text-anchor="middle" x="209" y="-17.5" font-family="Helvetica,sans-Serif" font-size="10.00">fwTools::fwID::getObject</text>
</a>
</g>
</g>
<!-- Node1&#45;&gt;Node2 -->
<g id="edge1" class="edge"><title>Node1&#45;&gt;Node2</title>
<path fill="none" stroke="midnightblue" d="M109.59,-20C118.006,-20 126.825,-20 135.58,-20"/>
<polygon fill="midnightblue" stroke="midnightblue" points="135.802,-23.5001 145.801,-20 135.801,-16.5001 135.802,-23.5001"/>
</g>
</g>
</svg>
