<?xml version="1.0" encoding="UTF-8" standalone="no"?>
<!DOCTYPE svg PUBLIC "-//W3C//DTD SVG 1.1//EN"
 "http://www.w3.org/Graphics/SVG/1.1/DTD/svg11.dtd">
<!-- Generated by graphviz version 2.36.0 (20140111.2315)
 -->
<!-- Title: fwGui::builder::IMenuBarBuilder Pages: 1 -->
<svg width="160pt" height="276pt"
 viewBox="0.00 0.00 160.00 276.00" xmlns="http://www.w3.org/2000/svg" xmlns:xlink="http://www.w3.org/1999/xlink">
<g id="graph0" class="graph" transform="scale(1 1) rotate(0) translate(4 272)">
<title>fwGui::builder::IMenuBarBuilder</title>
<polygon fill="white" stroke="none" points="-4,4 -4,-272 156,-272 156,4 -4,4"/>
<!-- Node1 -->
<g id="node1" class="node"><title>Node1</title>
<polygon fill="#bfbfbf" stroke="black" points="13.5,-57 13.5,-87 138.5,-87 138.5,-57 13.5,-57"/>
<text text-anchor="start" x="21.5" y="-75" font-family="Helvetica,sans-Serif" font-size="10.00">fwGui::builder::IMenuBar</text>
<text text-anchor="middle" x="76" y="-64" font-family="Helvetica,sans-Serif" font-size="10.00">Builder</text>
</g>
<!-- Node5 -->
<g id="node5" class="node"><title>Node5</title>
<g id="a_node5"><a xlink:href="classfwGui_1_1builder_1_1MenuBarBuilder.html" target="_top" xlink:title="Defines the generic layout manager for IHM. ">
<polygon fill="white" stroke="black" points="0,-0.5 0,-19.5 152,-19.5 152,-0.5 0,-0.5"/>
<text text-anchor="middle" x="76" y="-7.5" font-family="Helvetica,sans-Serif" font-size="10.00">fwGui::builder::MenuBarBuilder</text>
</a>
</g>
</g>
<!-- Node1&#45;&gt;Node5 -->
<g id="edge4" class="edge"><title>Node1&#45;&gt;Node5</title>
<path fill="none" stroke="midnightblue" d="M76,-46.5858C76,-37.0743 76,-26.7864 76,-19.7305"/>
<polygon fill="midnightblue" stroke="midnightblue" points="72.5001,-46.7808 76,-56.7808 79.5001,-46.7809 72.5001,-46.7808"/>
</g>
<!-- Node2 -->
<g id="node2" class="node"><title>Node2</title>
<g id="a_node2"><a xlink:href="classfwGui_1_1GuiBaseObject.html" target="_top" xlink:title="Base class for all fwGui&#39;s classes. ">
<polygon fill="white" stroke="black" points="19,-124.5 19,-143.5 133,-143.5 133,-124.5 19,-124.5"/>
<text text-anchor="middle" x="76" y="-131.5" font-family="Helvetica,sans-Serif" font-size="10.00">fwGui::GuiBaseObject</text>
</a>
</g>
</g>
<!-- Node2&#45;&gt;Node1 -->
<g id="edge1" class="edge"><title>Node2&#45;&gt;Node1</title>
<path fill="none" stroke="midnightblue" d="M76,-114.371C76,-105.585 76,-95.2721 76,-87.1408"/>
<polygon fill="midnightblue" stroke="midnightblue" points="72.5001,-114.403 76,-124.403 79.5001,-114.403 72.5001,-114.403"/>
</g>
<!-- Node3 -->
<g id="node3" class="node"><title>Node3</title>
<g id="a_node3"><a xlink:href="classfwCore_1_1BaseObject.html" target="_top" xlink:title="Base class for all FW4SPL&#39;s classes. ">
<polygon fill="white" stroke="black" points="23.5,-180.5 23.5,-199.5 128.5,-199.5 128.5,-180.5 23.5,-180.5"/>
<text text-anchor="middle" x="76" y="-187.5" font-family="Helvetica,sans-Serif" font-size="10.00">fwCore::BaseObject</text>
</a>
</g>
</g>
<!-- Node3&#45;&gt;Node2 -->
<g id="edge2" class="edge"><title>Node3&#45;&gt;Node2</title>
<path fill="none" stroke="midnightblue" d="M76,-169.805C76,-160.91 76,-150.78 76,-143.751"/>
<polygon fill="midnightblue" stroke="midnightblue" points="72.5001,-170.083 76,-180.083 79.5001,-170.083 72.5001,-170.083"/>
</g>
<!-- Node4 -->
<g id="node4" class="node"><title>Node4</title>
<polygon fill="white" stroke="#bfbfbf" points="10.5,-237 10.5,-267 141.5,-267 141.5,-237 10.5,-237"/>
<text text-anchor="start" x="18.5" y="-255" font-family="Helvetica,sans-Serif" font-size="10.00">std::enable_shared</text>
<text text-anchor="middle" x="76" y="-244" font-family="Helvetica,sans-Serif" font-size="10.00">_from_this&lt; BaseObject &gt;</text>
</g>
<!-- Node4&#45;&gt;Node3 -->
<g id="edge3" class="edge"><title>Node4&#45;&gt;Node3</title>
<path fill="none" stroke="midnightblue" d="M76,-226.586C76,-217.074 76,-206.786 76,-199.731"/>
<polygon fill="midnightblue" stroke="midnightblue" points="72.5001,-226.781 76,-236.781 79.5001,-226.781 72.5001,-226.781"/>
</g>
</g>
</svg>
