<?xml version="1.0" encoding="UTF-8" standalone="no"?>
<!DOCTYPE svg PUBLIC "-//W3C//DTD SVG 1.1//EN"
 "http://www.w3.org/Graphics/SVG/1.1/DTD/svg11.dtd">
<!-- Generated by graphviz version 2.26.3 (20100126.1600)
 -->
<!-- Title: fwMedData::Series Pages: 1 -->
<!--zoomable 270 -->
<svg id="main" version="1.1" xmlns="http://www.w3.org/2000/svg" xmlns:xlink="http://www.w3.org/1999/xlink" xml:space="preserve" onload="init(evt)">
<style type="text/css"><![CDATA[
.edge:hover path { stroke: red; }
.edge:hover polygon { stroke: red; fill: red; }
]]></style>
<script type="text/javascript"><![CDATA[
var edges = document.getElementsByTagName('g');
if (edges && edges.length) {
  for (var i=0;i<edges.length;i++) {
    if (edges[i].id.substr(0,4)=='edge') {
      edges[i].setAttribute('class','edge');
    }
  }
}
]]></script>
        <defs>
                <circle id="rim" cx="0" cy="0" r="7"/>
                <circle id="rim2" cx="0" cy="0" r="3.5"/>
                <g id="zoomPlus">
                        <use xlink:href="#rim" fill="#404040">
                                <set attributeName="fill" to="#808080" begin="zoomplus.mouseover" end="zoomplus.mouseout"/>
                        </use>
                        <path d="M-4,0h8M0,-4v8" fill="none" stroke="white" stroke-width="1.5" pointer-events="none"/>
                </g>
                <g id="zoomMin">
                        <use xlink:href="#rim" fill="#404040">
                                <set attributeName="fill" to="#808080" begin="zoomminus.mouseover" end="zoomminus.mouseout"/>
                        </use>
                        <path d="M-4,0h8" fill="none" stroke="white" stroke-width="1.5" pointer-events="none"/>
                </g>
                <g id="dirArrow">
                        <path fill="none" stroke="white" stroke-width="1.5" d="M0,-3.0v7 M-2.5,-0.5L0,-3.0L2.5,-0.5"/>
                </g>
               <g id="resetDef">
                       <use xlink:href="#rim2" fill="#404040">
                               <set attributeName="fill" to="#808080" begin="reset.mouseover" end="reset.mouseout"/>
                       </use>
               </g>
        </defs>

<script type="text/javascript">
var viewWidth = 1066;
var viewHeight = 270;
var sectionId = 'dynsection-0';
</script>
<script xlink:href="svgpan.js"/>
<svg id="graph" class="graph">
<g id="viewport">
<title>fwMedData::Series</title>
<polygon fill="white" stroke="white" points="-4,5 -4,-266 1063,-266 1063,5 -4,5"/>
<!-- Node1 -->
<g id="node1" class="node"><title>Node1</title>
<polygon fill="#bfbfbf" stroke="black" points="766.5,-120.5 766.5,-141.5 867.5,-141.5 867.5,-120.5 766.5,-120.5"/>
<text text-anchor="middle" x="817" y="-128.5" font-family="Helvetica,sans-Serif" font-size="10.00">fwMedData::Series</text>
</g>
<!-- Node11 -->
<g id="node22" class="node"><title>Node11</title>
<a xlink:href="classfwMedData_1_1ActivitySeries.html" target="_top" xlink:title="Holds activity information. ">
<polygon fill="white" stroke="black" points="915,-240.5 915,-261.5 1049,-261.5 1049,-240.5 915,-240.5"/>
<text text-anchor="middle" x="982" y="-248.5" font-family="Helvetica,sans-Serif" font-size="10.00">fwMedData::ActivitySeries</text>
</a>
</g>
<!-- Node1&#45;&gt;Node11 -->
<g id="edge22" class="edge"><title>Node1&#45;&gt;Node11</title>
<path fill="none" stroke="midnightblue" d="M828.847,-150.074C843.959,-172.794 872.225,-210.272 906,-231 912.279,-234.854 919.291,-237.971 926.447,-240.492"/>
<polygon fill="midnightblue" stroke="midnightblue" points="831.74,-148.101 823.37,-141.606 825.862,-151.903 831.74,-148.101"/>
</g>
<!-- Node12 -->
<g id="node24" class="node"><title>Node12</title>
<a xlink:href="classfwMedData_1_1AttachmentSeries.html" target="_top" xlink:title="Holds attachment file. ">
<polygon fill="white" stroke="black" points="906.5,-200.5 906.5,-221.5 1057.5,-221.5 1057.5,-200.5 906.5,-200.5"/>
<text text-anchor="middle" x="982" y="-208.5" font-family="Helvetica,sans-Serif" font-size="10.00">fwMedData::AttachmentSeries</text>
</a>
</g>
<!-- Node1&#45;&gt;Node12 -->
<g id="edge24" class="edge"><title>Node1&#45;&gt;Node12</title>
<path fill="none" stroke="midnightblue" d="M837.98,-148.136C855.293,-161.514 880.992,-179.674 906,-191 914.203,-194.715 923.228,-197.844 932.105,-200.442"/>
<polygon fill="midnightblue" stroke="midnightblue" points="839.759,-145.081 829.739,-141.637 835.424,-150.578 839.759,-145.081"/>
</g>
<!-- Node13 -->
<g id="node26" class="node"><title>Node13</title>
<a xlink:href="classfwMedData_1_1DicomSeries.html" target="_top" xlink:title="Holds DICOM data. ">
<polygon fill="white" stroke="black" points="917.5,-160.5 917.5,-181.5 1046.5,-181.5 1046.5,-160.5 917.5,-160.5"/>
<text text-anchor="middle" x="982" y="-168.5" font-family="Helvetica,sans-Serif" font-size="10.00">fwMedData::DicomSeries</text>
</a>
</g>
<!-- Node1&#45;&gt;Node13 -->
<g id="edge26" class="edge"><title>Node1&#45;&gt;Node13</title>
<path fill="none" stroke="midnightblue" d="M870.258,-143.911C892.371,-149.272 917.703,-155.413 938.652,-160.491"/>
<polygon fill="midnightblue" stroke="midnightblue" points="870.895,-140.464 860.352,-141.51 869.246,-147.267 870.895,-140.464"/>
</g>
<!-- Node14 -->
<g id="node28" class="node"><title>Node14</title>
<a xlink:href="classfwMedData_1_1ImageSeries.html" target="_top" xlink:title="Holds images data. ">
<polygon fill="white" stroke="black" points="918,-120.5 918,-141.5 1046,-141.5 1046,-120.5 918,-120.5"/>
<text text-anchor="middle" x="982" y="-128.5" font-family="Helvetica,sans-Serif" font-size="10.00">fwMedData::ImageSeries</text>
</a>
</g>
<!-- Node1&#45;&gt;Node14 -->
<g id="edge28" class="edge"><title>Node1&#45;&gt;Node14</title>
<path fill="none" stroke="midnightblue" d="M878.076,-131C891.061,-131 904.807,-131 917.901,-131"/>
<polygon fill="midnightblue" stroke="midnightblue" points="877.852,-127.5 867.852,-131 877.852,-134.5 877.852,-127.5"/>
</g>
<!-- Node15 -->
<g id="node30" class="node"><title>Node15</title>
<a xlink:href="classfwMedData_1_1ModelSeries.html" target="_top" xlink:title="Holds models data. ">
<polygon fill="white" stroke="black" points="918.5,-80.5 918.5,-101.5 1045.5,-101.5 1045.5,-80.5 918.5,-80.5"/>
<text text-anchor="middle" x="982" y="-88.5" font-family="Helvetica,sans-Serif" font-size="10.00">fwMedData::ModelSeries</text>
</a>
</g>
<!-- Node1&#45;&gt;Node15 -->
<g id="edge30" class="edge"><title>Node1&#45;&gt;Node15</title>
<path fill="none" stroke="midnightblue" d="M870.258,-118.089C892.371,-112.728 917.703,-106.587 938.652,-101.509"/>
<polygon fill="midnightblue" stroke="midnightblue" points="869.246,-114.733 860.352,-120.49 870.895,-121.536 869.246,-114.733"/>
</g>
<!-- Node16 -->
<g id="node32" class="node"><title>Node16</title>
<a xlink:href="classfwMedData_1_1NavigationSeries.html" target="_top" xlink:title="Holds navigation information. ">
<polygon fill="white" stroke="black" points="908.5,-40.5 908.5,-61.5 1055.5,-61.5 1055.5,-40.5 908.5,-40.5"/>
<text text-anchor="middle" x="982" y="-48.5" font-family="Helvetica,sans-Serif" font-size="10.00">fwMedData::NavigationSeries</text>
</a>
</g>
<!-- Node1&#45;&gt;Node16 -->
<g id="edge32" class="edge"><title>Node1&#45;&gt;Node16</title>
<path fill="none" stroke="midnightblue" d="M837.98,-113.864C855.293,-100.486 880.992,-82.3255 906,-71 914.203,-67.2851 923.228,-64.1563 932.105,-61.5584"/>
<polygon fill="midnightblue" stroke="midnightblue" points="835.424,-111.422 829.739,-120.363 839.759,-116.919 835.424,-111.422"/>
</g>
<!-- Node17 -->
<g id="node34" class="node"><title>Node17</title>
<a xlink:href="classuiMedData_1_1InsertSeries.html" target="_top" xlink:title="Used as a placeholder in uiMedData::editor::SSelector UI to insert create and insert new series in a ...">
<polygon fill="white" stroke="black" points="921,-0.5 921,-21.5 1043,-21.5 1043,-0.5 921,-0.5"/>
<text text-anchor="middle" x="982" y="-8.5" font-family="Helvetica,sans-Serif" font-size="10.00">uiMedData::InsertSeries</text>
</a>
</g>
<!-- Node1&#45;&gt;Node17 -->
<g id="edge34" class="edge"><title>Node1&#45;&gt;Node17</title>
<path fill="none" stroke="midnightblue" d="M828.847,-111.926C843.959,-89.2058 872.225,-51.7276 906,-31 912.279,-27.1464 919.291,-24.0286 926.447,-21.5077"/>
<polygon fill="midnightblue" stroke="midnightblue" points="825.862,-110.097 823.37,-120.394 831.74,-113.899 825.862,-110.097"/>
</g>
<!-- Node2 -->
<g id="node2" class="node"><title>Node2</title>
<a xlink:href="classfwData_1_1Object.html" target="_top" xlink:title="Base class for each data object. ">
<polygon fill="white" stroke="black" points="644.5,-120.5 644.5,-141.5 727.5,-141.5 727.5,-120.5 644.5,-120.5"/>
<text text-anchor="middle" x="686" y="-128.5" font-family="Helvetica,sans-Serif" font-size="10.00">fwData::Object</text>
</a>
</g>
<!-- Node2&#45;&gt;Node1 -->
<g id="edge2" class="edge"><title>Node2&#45;&gt;Node1</title>
<path fill="none" stroke="midnightblue" d="M737.828,-131C747.239,-131 757.045,-131 766.419,-131"/>
<polygon fill="midnightblue" stroke="midnightblue" points="737.809,-127.5 727.809,-131 737.809,-134.5 737.809,-127.5"/>
</g>
<!-- Node3 -->
<g id="node4" class="node"><title>Node3</title>
<a xlink:href="classfwTools_1_1Object.html" target="_top" xlink:title="Define Base class for FW4SPL objects and services. ">
<polygon fill="white" stroke="black" points="494,-166.5 494,-187.5 580,-187.5 580,-166.5 494,-166.5"/>
<text text-anchor="middle" x="537" y="-174.5" font-family="Helvetica,sans-Serif" font-size="10.00">fwTools::Object</text>
</a>
</g>
<!-- Node3&#45;&gt;Node2 -->
<g id="edge4" class="edge"><title>Node3&#45;&gt;Node2</title>
<path fill="none" stroke="midnightblue" d="M584.152,-163.551C591.478,-161.399 598.951,-159.166 606,-157 621.914,-152.109 639.519,-146.418 654.153,-141.61"/>
<polygon fill="midnightblue" stroke="midnightblue" points="582.927,-160.263 574.307,-166.423 584.887,-166.983 582.927,-160.263"/>
</g>
<!-- Node4 -->
<g id="node6" class="node"><title>Node4</title>
<a xlink:href="classfwCore_1_1BaseObject.html" target="_top" xlink:title="Base class for all FW4SPL&#39;s classes. ">
<polygon fill="white" stroke="black" points="216.5,-204.5 216.5,-225.5 321.5,-225.5 321.5,-204.5 216.5,-204.5"/>
<text text-anchor="middle" x="269" y="-212.5" font-family="Helvetica,sans-Serif" font-size="10.00">fwCore::BaseObject</text>
</a>
</g>
<!-- Node4&#45;&gt;Node3 -->
<g id="edge6" class="edge"><title>Node4&#45;&gt;Node3</title>
<path fill="none" stroke="midnightblue" d="M331.726,-206.51C366.574,-201.75 410.705,-195.649 450,-190 464.209,-187.957 479.714,-185.662 493.646,-183.575"/>
<polygon fill="midnightblue" stroke="midnightblue" points="331.126,-203.059 321.691,-207.879 332.072,-209.995 331.126,-203.059"/>
</g>
<!-- Node5 -->
<g id="node8" class="node"><title>Node5</title>
<polygon fill="white" stroke="#bfbfbf" points="15.5,-198 15.5,-232 146.5,-232 146.5,-198 15.5,-198"/>
<text text-anchor="start" x="23.5" y="-219" font-family="Helvetica,sans-Serif" font-size="10.00">std::enable_shared</text>
<text text-anchor="middle" x="81" y="-206" font-family="Helvetica,sans-Serif" font-size="10.00">_from_this&lt; BaseObject &gt;</text>
</g>
<!-- Node5&#45;&gt;Node4 -->
<g id="edge8" class="edge"><title>Node5&#45;&gt;Node4</title>
<path fill="none" stroke="midnightblue" d="M156.759,-215C176.728,-215 197.84,-215 216.299,-215"/>
<polygon fill="midnightblue" stroke="midnightblue" points="156.753,-211.5 146.753,-215 156.753,-218.5 156.753,-211.5"/>
</g>
<!-- Node6 -->
<g id="node10" class="node"><title>Node6</title>
<a xlink:href="classfwTools_1_1fwID.html" target="_top" xlink:title="Defines ID for fwTools::Object. It is used to associate ID with object. ">
<polygon fill="white" stroke="black" points="230,-164.5 230,-185.5 308,-185.5 308,-164.5 230,-164.5"/>
<text text-anchor="middle" x="269" y="-172.5" font-family="Helvetica,sans-Serif" font-size="10.00">fwTools::fwID</text>
</a>
</g>
<!-- Node6&#45;&gt;Node3 -->
<g id="edge10" class="edge"><title>Node6&#45;&gt;Node3</title>
<path fill="none" stroke="darkgreen" d="M318.55,-175.37C368.785,-175.745 445.746,-176.319 493.636,-176.676"/>
<polygon fill="darkgreen" stroke="darkgreen" points="318.282,-171.868 308.257,-175.293 318.23,-178.868 318.282,-171.868"/>
</g>
<!-- Node7 -->
<g id="node12" class="node"><title>Node7</title>
<a xlink:href="classfwTools_1_1DynamicAttributes.html" target="_top" xlink:title="fwTools::DynamicAttributes\l\&lt; ::fwData::Object \&gt;">
<polygon fill="white" stroke="black" points="468,-114 468,-148 606,-148 606,-114 468,-114"/>
<text text-anchor="start" x="476" y="-135" font-family="Helvetica,sans-Serif" font-size="10.00">fwTools::DynamicAttributes</text>
<text text-anchor="middle" x="537" y="-122" font-family="Helvetica,sans-Serif" font-size="10.00">&lt; ::fwData::Object &gt;</text>
</a>
</g>
<!-- Node7&#45;&gt;Node2 -->
<g id="edge12" class="edge"><title>Node7&#45;&gt;Node2</title>
<path fill="none" stroke="midnightblue" d="M616.273,-131C625.865,-131 635.352,-131 644.092,-131"/>
<polygon fill="midnightblue" stroke="midnightblue" points="616.266,-127.5 606.266,-131 616.266,-134.5 616.266,-127.5"/>
</g>
<!-- Node8 -->
<g id="node14" class="node"><title>Node8</title>
<a xlink:href="classfwTools_1_1DynamicAttributesBase.html" target="_top" xlink:title="fwTools::DynamicAttributesBase">
<polygon fill="white" stroke="black" points="0.5,-105.5 0.5,-126.5 161.5,-126.5 161.5,-105.5 0.5,-105.5"/>
<text text-anchor="middle" x="81" y="-113.5" font-family="Helvetica,sans-Serif" font-size="10.00">fwTools::DynamicAttributesBase</text>
</a>
</g>
<!-- Node8&#45;&gt;Node7 -->
<g id="edge14" class="edge"><title>Node8&#45;&gt;Node7</title>
<path fill="none" stroke="midnightblue" d="M171.885,-118.99C259.062,-121.857 388.786,-126.125 467.85,-128.725"/>
<polygon fill="midnightblue" stroke="midnightblue" points="171.846,-115.487 161.736,-118.656 171.615,-122.483 171.846,-115.487"/>
</g>
<!-- Node9 -->
<g id="node16" class="node"><title>Node9</title>
<a xlink:href="classfwTools_1_1DynamicAttributes.html" target="_top" xlink:title="fwTools::DynamicAttributes\l\&lt; CLASS \&gt;">
<polygon fill="white" stroke="black" points="200,-71 200,-105 338,-105 338,-71 200,-71"/>
<text text-anchor="start" x="208" y="-92" font-family="Helvetica,sans-Serif" font-size="10.00">fwTools::DynamicAttributes</text>
<text text-anchor="middle" x="269" y="-79" font-family="Helvetica,sans-Serif" font-size="10.00">&lt; CLASS &gt;</text>
</a>
</g>
<!-- Node8&#45;&gt;Node9 -->
<g id="edge18" class="edge"><title>Node8&#45;&gt;Node9</title>
<path fill="none" stroke="midnightblue" d="M161.669,-103.985C174.413,-102.087 187.49,-100.14 199.938,-98.2858"/>
<polygon fill="midnightblue" stroke="midnightblue" points="160.914,-100.559 151.539,-105.494 161.946,-107.483 160.914,-100.559"/>
</g>
<!-- Node9&#45;&gt;Node7 -->
<g id="edge16" class="edge"><title>Node9&#45;&gt;Node7</title>
<path fill="none" stroke="orange" stroke-dasharray="5,2" d="M348.316,-92.7676C380.113,-95.4886 416.978,-99.6674 450,-106 460.958,-108.101 472.53,-110.96 483.532,-113.995"/>
<polygon fill="orange" stroke="orange" points="348.434,-89.2656 338.181,-91.9345 347.86,-96.2421 348.434,-89.2656"/>
<text text-anchor="middle" x="403" y="-110" font-family="Helvetica,sans-Serif" font-size="10.00"> &lt; ::fwData::Object &gt;</text>
</g>
<!-- Node10 -->
<g id="node19" class="node"><title>Node10</title>
<a xlink:href="classfwCom_1_1HasSignals.html" target="_top" xlink:title="This class proposes a mapping between a SignalKeyType and a SignalBase. ">
<polygon fill="white" stroke="black" points="485,-74.5 485,-95.5 589,-95.5 589,-74.5 485,-74.5"/>
<text text-anchor="middle" x="537" y="-82.5" font-family="Helvetica,sans-Serif" font-size="10.00">fwCom::HasSignals</text>
</a>
</g>
<!-- Node10&#45;&gt;Node2 -->
<g id="edge20" class="edge"><title>Node10&#45;&gt;Node2</title>
<path fill="none" stroke="midnightblue" d="M584.152,-98.4485C591.478,-100.601 598.951,-102.834 606,-105 621.914,-109.891 639.519,-115.582 654.153,-120.39"/>
<polygon fill="midnightblue" stroke="midnightblue" points="584.887,-95.0172 574.307,-95.5765 582.927,-101.737 584.887,-95.0172"/>
</g>
</g>
</svg>
        <g id="navigator" transform="translate(0 0)" fill="#404254">
                <rect fill="#f2f5e9" fill-opacity="0.5" stroke="#606060" stroke-width=".5" x="0" y="0" width="60" height="60"/>
                <use id="zoomplus" xlink:href="#zoomPlus" x="17" y="9" onmousedown="handleZoom(evt,'in')"/>
                <use id="zoomminus" xlink:href="#zoomMin" x="42" y="9" onmousedown="handleZoom(evt,'out')"/>
                <use id="reset" xlink:href="#resetDef" x="30" y="36" onmousedown="handleReset()"/>
                <g id="arrowUp" xlink:href="#dirArrow" transform="translate(30 24)" onmousedown="handlePan(0,-1)">
                  <use xlink:href="#rim" fill="#404040">
                        <set attributeName="fill" to="#808080" begin="arrowUp.mouseover" end="arrowUp.mouseout"/>
                  </use>
                  <path fill="none" stroke="white" stroke-width="1.5" d="M0,-3.0v7 M-2.5,-0.5L0,-3.0L2.5,-0.5"/>
                </g>
                <g id="arrowRight" xlink:href="#dirArrow" transform="rotate(90) translate(36 -43)" onmousedown="handlePan(1,0)">
                  <use xlink:href="#rim" fill="#404040">
                        <set attributeName="fill" to="#808080" begin="arrowRight.mouseover" end="arrowRight.mouseout"/>
                  </use>
                  <path fill="none" stroke="white" stroke-width="1.5" d="M0,-3.0v7 M-2.5,-0.5L0,-3.0L2.5,-0.5"/>
                </g>
                <g id="arrowDown" xlink:href="#dirArrow" transform="rotate(180) translate(-30 -48)" onmousedown="handlePan(0,1)">
                  <use xlink:href="#rim" fill="#404040">
                        <set attributeName="fill" to="#808080" begin="arrowDown.mouseover" end="arrowDown.mouseout"/>
                  </use>
                  <path fill="none" stroke="white" stroke-width="1.5" d="M0,-3.0v7 M-2.5,-0.5L0,-3.0L2.5,-0.5"/>
                </g>
                <g id="arrowLeft" xlink:href="#dirArrow" transform="rotate(270) translate(-36 17)" onmousedown="handlePan(-1,0)">
                  <use xlink:href="#rim" fill="#404040">
                        <set attributeName="fill" to="#808080" begin="arrowLeft.mouseover" end="arrowLeft.mouseout"/>
                  </use>
                  <path fill="none" stroke="white" stroke-width="1.5" d="M0,-3.0v7 M-2.5,-0.5L0,-3.0L2.5,-0.5"/>
                </g>
        </g>
        <svg viewBox="0 0 15 15" width="100%" height="30px" preserveAspectRatio="xMaxYMin meet">
         <g id="arrow_out" transform="scale(0.3 0.3)">
          <a xlink:href="classfwMedData_1_1Series__inherit__graph_org.svg" target="_base">
           <rect id="button" ry="5" rx="5" y="6" x="6" height="38" width="38"
                fill="#f2f5e9" fill-opacity="0.5" stroke="#606060" stroke-width="1.0"/>
           <path id="arrow"
             d="M 11.500037,31.436501 C 11.940474,20.09759 22.043105,11.32322 32.158766,21.979434 L 37.068811,17.246167 C 37.068811,17.246167 37.088388,32 37.088388,32 L 22.160133,31.978069 C 22.160133,31.978069 26.997745,27.140456 26.997745,27.140456 C 18.528582,18.264221 13.291696,25.230495 11.500037,31.436501 z"
             style="fill:#404040;"/>
          </a>
         </g>
        </svg>
</svg>
