<?xml version="1.0" encoding="UTF-8" standalone="no"?>
<!DOCTYPE svg PUBLIC "-//W3C//DTD SVG 1.1//EN"
 "http://www.w3.org/Graphics/SVG/1.1/DTD/svg11.dtd">
<!-- Generated by graphviz version 2.36.0 (20140111.2315)
 -->
<!-- Title: visuVTKAdaptor::SImageText::updating Pages: 1 -->
<svg width="478pt" height="255pt"
 viewBox="0.00 0.00 478.00 255.00" xmlns="http://www.w3.org/2000/svg" xmlns:xlink="http://www.w3.org/1999/xlink">
<g id="graph0" class="graph" transform="scale(1 1) rotate(0) translate(4 251)">
<title>visuVTKAdaptor::SImageText::updating</title>
<polygon fill="white" stroke="none" points="-4,4 -4,-251 474,-251 474,4 -4,4"/>
<!-- Node1 -->
<g id="node1" class="node"><title>Node1</title>
<polygon fill="#bfbfbf" stroke="black" points="0.5,-103 0.5,-133 147.5,-133 147.5,-103 0.5,-103"/>
<text text-anchor="start" x="8.5" y="-121" font-family="Helvetica,sans-Serif" font-size="10.00">visuVTKAdaptor::SImageText</text>
<text text-anchor="middle" x="74" y="-110" font-family="Helvetica,sans-Serif" font-size="10.00">::updating</text>
</g>
<!-- Node2 -->
<g id="node2" class="node"><title>Node2</title>
<g id="a_node2"><a xlink:href="classfwDataTools_1_1fieldHelper_1_1MedicalImageHelpers.html#a1aa6e7bebb9f96a8e60a14aecc352e99" target="_top" xlink:title="Check if the image is valid. ">
<polygon fill="white" stroke="black" points="185.5,-205.5 185.5,-246.5 310.5,-246.5 310.5,-205.5 185.5,-205.5"/>
<text text-anchor="start" x="193.5" y="-234.5" font-family="Helvetica,sans-Serif" font-size="10.00">fwDataTools::fieldHelper</text>
<text text-anchor="start" x="193.5" y="-223.5" font-family="Helvetica,sans-Serif" font-size="10.00">::MedicalImageHelpers::</text>
<text text-anchor="middle" x="248" y="-212.5" font-family="Helvetica,sans-Serif" font-size="10.00">checkImageValidity</text>
</a>
</g>
</g>
<!-- Node1&#45;&gt;Node2 -->
<g id="edge1" class="edge"><title>Node1&#45;&gt;Node2</title>
<path fill="none" stroke="midnightblue" d="M93.99,-133.168C115.206,-149.733 150.926,-176.498 184,-196 186.765,-197.631 189.633,-199.245 192.553,-200.829"/>
<polygon fill="midnightblue" stroke="midnightblue" points="190.934,-203.932 201.416,-205.477 194.185,-197.733 190.934,-203.932"/>
</g>
<!-- Node3 -->
<g id="node3" class="node"><title>Node3</title>
<g id="a_node3"><a xlink:href="classfwDataTools_1_1helper_1_1Image.html#a40da5696c10795768e685dccc73a2b17" target="_top" xlink:title="Helpers for 3D images. ">
<polygon fill="white" stroke="black" points="184,-157 184,-187 312,-187 312,-157 184,-157"/>
<text text-anchor="start" x="192" y="-175" font-family="Helvetica,sans-Serif" font-size="10.00">fwDataTools::helper</text>
<text text-anchor="middle" x="248" y="-164" font-family="Helvetica,sans-Serif" font-size="10.00">::Image::getPixelAsString</text>
</a>
</g>
</g>
<!-- Node1&#45;&gt;Node3 -->
<g id="edge2" class="edge"><title>Node1&#45;&gt;Node3</title>
<path fill="none" stroke="midnightblue" d="M122.912,-133.042C143.513,-139.51 167.769,-147.125 189.345,-153.899"/>
<polygon fill="midnightblue" stroke="midnightblue" points="188.458,-157.289 199.047,-156.945 190.555,-150.61 188.458,-157.289"/>
</g>
<!-- Node5 -->
<g id="node5" class="node"><title>Node5</title>
<g id="a_node5"><a xlink:href="classfwDataTools_1_1helper_1_1MedicalImageAdaptor.html#ad1ec2a62bf03c940d20ca8ebe74ae762" target="_top" xlink:title="Get the current transfer function. ">
<polygon fill="white" stroke="black" points="189.5,-97.5 189.5,-138.5 306.5,-138.5 306.5,-97.5 189.5,-97.5"/>
<text text-anchor="start" x="197.5" y="-126.5" font-family="Helvetica,sans-Serif" font-size="10.00">fwDataTools::helper</text>
<text text-anchor="start" x="197.5" y="-115.5" font-family="Helvetica,sans-Serif" font-size="10.00">::MedicalImageAdaptor</text>
<text text-anchor="middle" x="248" y="-104.5" font-family="Helvetica,sans-Serif" font-size="10.00">::getTransferFunction</text>
</a>
</g>
</g>
<!-- Node1&#45;&gt;Node5 -->
<g id="edge4" class="edge"><title>Node1&#45;&gt;Node5</title>
<path fill="none" stroke="midnightblue" d="M147.943,-118C158.313,-118 168.941,-118 179.207,-118"/>
<polygon fill="midnightblue" stroke="midnightblue" points="179.328,-121.5 189.328,-118 179.328,-114.5 179.328,-121.5"/>
</g>
<!-- Node6 -->
<g id="node6" class="node"><title>Node6</title>
<g id="a_node6"><a xlink:href="classfwRenderVTK_1_1IAdaptor.html#a46ef60802ac6cd7002a6199512963775" target="_top" xlink:title="notify a render request iff vtkPipeline is modified ">
<polygon fill="white" stroke="black" points="187.5,-49 187.5,-79 308.5,-79 308.5,-49 187.5,-49"/>
<text text-anchor="start" x="195.5" y="-67" font-family="Helvetica,sans-Serif" font-size="10.00">fwRenderVTK::IAdaptor</text>
<text text-anchor="middle" x="248" y="-56" font-family="Helvetica,sans-Serif" font-size="10.00">::requestRender</text>
</a>
</g>
</g>
<!-- Node1&#45;&gt;Node6 -->
<g id="edge5" class="edge"><title>Node1&#45;&gt;Node6</title>
<path fill="none" stroke="midnightblue" d="M122.912,-102.958C143.513,-96.49 167.769,-88.8747 189.345,-82.1009"/>
<polygon fill="midnightblue" stroke="midnightblue" points="190.555,-85.3897 199.047,-79.0549 188.458,-78.7111 190.555,-85.3897"/>
</g>
<!-- Node10 -->
<g id="node10" class="node"><title>Node10</title>
<g id="a_node10"><a xlink:href="classfwRenderVTK_1_1IAdaptor.html#a0fd9eb8ee07f2e7d53b27c6bbe8994eb" target="_top" xlink:title="End&#45;user have to call this method when a vtk structure has been modified, thus a render request will ...">
<polygon fill="white" stroke="black" points="187,-0 187,-30 309,-30 309,-0 187,-0"/>
<text text-anchor="start" x="195" y="-18" font-family="Helvetica,sans-Serif" font-size="10.00">fwRenderVTK::IAdaptor</text>
<text text-anchor="middle" x="248" y="-7" font-family="Helvetica,sans-Serif" font-size="10.00">::setVtkPipelineModified</text>
</a>
</g>
</g>
<!-- Node1&#45;&gt;Node10 -->
<g id="edge9" class="edge"><title>Node1&#45;&gt;Node10</title>
<path fill="none" stroke="midnightblue" d="M93.3703,-102.717C114.326,-85.8047 150.091,-58.5002 184,-40 187.719,-37.9711 191.637,-36.0185 195.626,-34.1608"/>
<polygon fill="midnightblue" stroke="midnightblue" points="197.275,-37.2584 205,-30.0072 194.439,-30.8586 197.275,-37.2584"/>
</g>
<!-- Node4 -->
<g id="node4" class="node"><title>Node4</title>
<g id="a_node4"><a xlink:href="classfwDataTools_1_1helper_1_1Image.html#abc97b00fa2ac09bcc51914a45a5ea091" target="_top" xlink:title="Helpers for 3D images. ">
<polygon fill="white" stroke="black" points="350.5,-157 350.5,-187 467.5,-187 467.5,-157 350.5,-157"/>
<text text-anchor="start" x="358.5" y="-175" font-family="Helvetica,sans-Serif" font-size="10.00">fwDataTools::helper</text>
<text text-anchor="middle" x="409" y="-164" font-family="Helvetica,sans-Serif" font-size="10.00">::Image::getPixelBuffer</text>
</a>
</g>
</g>
<!-- Node3&#45;&gt;Node4 -->
<g id="edge3" class="edge"><title>Node3&#45;&gt;Node4</title>
<path fill="none" stroke="midnightblue" d="M312.298,-172C321.421,-172 330.842,-172 340.052,-172"/>
<polygon fill="midnightblue" stroke="midnightblue" points="340.333,-175.5 350.333,-172 340.333,-168.5 340.333,-175.5"/>
</g>
<!-- Node7 -->
<g id="node7" class="node"><title>Node7</title>
<g id="a_node7"><a xlink:href="classfwRenderVTK_1_1IAdaptor.html#a908f43b79c3c619e7e56cd4b5a08dd79" target="_top" xlink:title="Returd the associated render service. ">
<polygon fill="white" stroke="black" points="348.5,-98 348.5,-128 469.5,-128 469.5,-98 348.5,-98"/>
<text text-anchor="start" x="356.5" y="-116" font-family="Helvetica,sans-Serif" font-size="10.00">fwRenderVTK::IAdaptor</text>
<text text-anchor="middle" x="409" y="-105" font-family="Helvetica,sans-Serif" font-size="10.00">::getRenderService</text>
</a>
</g>
</g>
<!-- Node6&#45;&gt;Node7 -->
<g id="edge6" class="edge"><title>Node6&#45;&gt;Node7</title>
<path fill="none" stroke="midnightblue" d="M298.003,-79.1014C314.249,-84.1083 332.499,-89.7324 349.394,-94.939"/>
<polygon fill="midnightblue" stroke="midnightblue" points="348.572,-98.348 359.159,-97.9484 350.633,-91.6585 348.572,-98.348"/>
</g>
<!-- Node8 -->
<g id="node8" class="node"><title>Node8</title>
<g id="a_node8"><a xlink:href="classfwServices_1_1IService.html#a7284059e3031206537f48fa53a7e89d0" target="_top" xlink:title="Return the global process status. ">
<polygon fill="white" stroke="black" points="355.5,-49 355.5,-79 462.5,-79 462.5,-49 355.5,-49"/>
<text text-anchor="start" x="363.5" y="-67" font-family="Helvetica,sans-Serif" font-size="10.00">fwServices::IService</text>
<text text-anchor="middle" x="409" y="-56" font-family="Helvetica,sans-Serif" font-size="10.00">::getStatus</text>
</a>
</g>
</g>
<!-- Node6&#45;&gt;Node8 -->
<g id="edge7" class="edge"><title>Node6&#45;&gt;Node8</title>
<path fill="none" stroke="midnightblue" d="M308.658,-64C320.517,-64 333.005,-64 344.972,-64"/>
<polygon fill="midnightblue" stroke="midnightblue" points="345.326,-67.5001 355.326,-64 345.326,-60.5001 345.326,-67.5001"/>
</g>
<!-- Node9 -->
<g id="node9" class="node"><title>Node9</title>
<g id="a_node9"><a xlink:href="classfwRenderVTK_1_1IAdaptor.html#a40e8583048160a35d175fdfe6c081881" target="_top" xlink:title="Returns true if the service automatically triggers the rendering. ">
<polygon fill="white" stroke="black" points="348.5,-0 348.5,-30 469.5,-30 469.5,-0 348.5,-0"/>
<text text-anchor="start" x="356.5" y="-18" font-family="Helvetica,sans-Serif" font-size="10.00">fwRenderVTK::IAdaptor</text>
<text text-anchor="middle" x="409" y="-7" font-family="Helvetica,sans-Serif" font-size="10.00">::getAutoRender</text>
</a>
</g>
</g>
<!-- Node6&#45;&gt;Node9 -->
<g id="edge8" class="edge"><title>Node6&#45;&gt;Node9</title>
<path fill="none" stroke="midnightblue" d="M298.003,-48.8986C314.249,-43.8917 332.499,-38.2676 349.394,-33.061"/>
<polygon fill="midnightblue" stroke="midnightblue" points="350.633,-36.3415 359.159,-30.0516 348.572,-29.652 350.633,-36.3415"/>
</g>
</g>
</svg>
