<?xml version="1.0" encoding="UTF-8" standalone="no"?>
<!DOCTYPE svg PUBLIC "-//W3C//DTD SVG 1.1//EN"
 "http://www.w3.org/Graphics/SVG/1.1/DTD/svg11.dtd">
<!-- Generated by graphviz version 2.26.3 (20100126.1600)
 -->
<!-- Title: uiImage::SliceIndexPositionEditor Pages: 1 -->
<svg width="432pt" height="420pt"
 viewBox="0.00 0.00 432.00 420.00" xmlns="http://www.w3.org/2000/svg" xmlns:xlink="http://www.w3.org/1999/xlink">
<g id="graph1" class="graph" transform="scale(1 1) rotate(0) translate(4 416)">
<title>uiImage::SliceIndexPositionEditor</title>
<polygon fill="white" stroke="white" points="-4,5 -4,-416 429,-416 429,5 -4,5"/>
<!-- Node1 -->
<g id="node1" class="node"><title>Node1</title>
<polygon fill="#bfbfbf" stroke="black" points="223,-1 223,-35 361,-35 361,-1 223,-1"/>
<text text-anchor="start" x="231" y="-22" font-family="Helvetica,sans-Serif" font-size="10.00">uiImage::SliceIndexPosition</text>
<text text-anchor="middle" x="292" y="-9" font-family="Helvetica,sans-Serif" font-size="10.00">Editor</text>
</g>
<!-- Node2 -->
<g id="node2" class="node"><title>Node2</title>
<a xlink:href="classgui_1_1editor_1_1IEditor.html" target="_top" xlink:title="Defines the service interface managing the editor service for object. ">
<polygon fill="white" stroke="black" points="180,-79.5 180,-100.5 274,-100.5 274,-79.5 180,-79.5"/>
<text text-anchor="middle" x="227" y="-87.5" font-family="Helvetica,sans-Serif" font-size="10.00">gui::editor::IEditor</text>
</a>
</g>
<!-- Node2&#45;&gt;Node1 -->
<g id="edge2" class="edge"><title>Node2&#45;&gt;Node1</title>
<path fill="none" stroke="midnightblue" d="M243.42,-71.8114C253.596,-60.5403 266.582,-46.1552 276.568,-35.0944"/>
<polygon fill="midnightblue" stroke="midnightblue" points="240.694,-69.6081 236.591,-79.3762 245.89,-74.2988 240.694,-69.6081"/>
</g>
<!-- Node3 -->
<g id="node4" class="node"><title>Node3</title>
<a xlink:href="classfwGui_1_1IGuiContainerSrv.html" target="_top" xlink:title="Defines the service interface managing the layout. ">
<polygon fill="white" stroke="black" points="165.5,-144.5 165.5,-165.5 288.5,-165.5 288.5,-144.5 165.5,-144.5"/>
<text text-anchor="middle" x="227" y="-152.5" font-family="Helvetica,sans-Serif" font-size="10.00">fwGui::IGuiContainerSrv</text>
</a>
</g>
<!-- Node3&#45;&gt;Node2 -->
<g id="edge4" class="edge"><title>Node3&#45;&gt;Node2</title>
<path fill="none" stroke="midnightblue" d="M227,-134.014C227,-122.831 227,-109.558 227,-100.534"/>
<polygon fill="midnightblue" stroke="midnightblue" points="223.5,-134.267 227,-144.267 230.5,-134.267 223.5,-134.267"/>
</g>
<!-- Node4 -->
<g id="node6" class="node"><title>Node4</title>
<a xlink:href="classfwServices_1_1IService.html" target="_top" xlink:title="Base class for all services. ">
<polygon fill="white" stroke="black" points="173.5,-202.5 173.5,-223.5 280.5,-223.5 280.5,-202.5 173.5,-202.5"/>
<text text-anchor="middle" x="227" y="-210.5" font-family="Helvetica,sans-Serif" font-size="10.00">fwServices::IService</text>
</a>
</g>
<!-- Node4&#45;&gt;Node3 -->
<g id="edge6" class="edge"><title>Node4&#45;&gt;Node3</title>
<path fill="none" stroke="midnightblue" d="M227,-192.191C227,-183.168 227,-172.994 227,-165.571"/>
<polygon fill="midnightblue" stroke="midnightblue" points="223.5,-192.362 227,-202.362 230.5,-192.362 223.5,-192.362"/>
</g>
<!-- Node5 -->
<g id="node8" class="node"><title>Node5</title>
<a xlink:href="classfwTools_1_1Object.html" target="_top" xlink:title="Define Base class for FW4SPL objects and services. ">
<polygon fill="white" stroke="black" points="76,-260.5 76,-281.5 162,-281.5 162,-260.5 76,-260.5"/>
<text text-anchor="middle" x="119" y="-268.5" font-family="Helvetica,sans-Serif" font-size="10.00">fwTools::Object</text>
</a>
</g>
<!-- Node5&#45;&gt;Node4 -->
<g id="edge8" class="edge"><title>Node5&#45;&gt;Node4</title>
<path fill="none" stroke="midnightblue" d="M147.572,-255.656C166.378,-245.556 190.517,-232.593 207.223,-223.621"/>
<polygon fill="midnightblue" stroke="midnightblue" points="145.712,-252.682 138.558,-260.497 149.024,-258.849 145.712,-252.682"/>
</g>
<!-- Node6 -->
<g id="node10" class="node"><title>Node6</title>
<a xlink:href="classfwCore_1_1BaseObject.html" target="_top" xlink:title="Base class for all FW4SPL&#39;s classes. ">
<polygon fill="white" stroke="black" points="12.5,-318.5 12.5,-339.5 117.5,-339.5 117.5,-318.5 12.5,-318.5"/>
<text text-anchor="middle" x="65" y="-326.5" font-family="Helvetica,sans-Serif" font-size="10.00">fwCore::BaseObject</text>
</a>
</g>
<!-- Node6&#45;&gt;Node5 -->
<g id="edge10" class="edge"><title>Node6&#45;&gt;Node5</title>
<path fill="none" stroke="midnightblue" d="M81.917,-310.83C90.8755,-301.208 101.563,-289.728 109.158,-281.571"/>
<polygon fill="midnightblue" stroke="midnightblue" points="79.157,-308.658 74.9044,-318.362 84.2803,-313.428 79.157,-308.658"/>
</g>
<!-- Node7 -->
<g id="node12" class="node"><title>Node7</title>
<polygon fill="white" stroke="#bfbfbf" points="-0.5,-377 -0.5,-411 130.5,-411 130.5,-377 -0.5,-377"/>
<text text-anchor="start" x="7.5" y="-398" font-family="Helvetica,sans-Serif" font-size="10.00">std::enable_shared</text>
<text text-anchor="middle" x="65" y="-385" font-family="Helvetica,sans-Serif" font-size="10.00">_from_this&lt; BaseObject &gt;</text>
</g>
<!-- Node7&#45;&gt;Node6 -->
<g id="edge12" class="edge"><title>Node7&#45;&gt;Node6</title>
<path fill="none" stroke="midnightblue" d="M65,-366.688C65,-357.242 65,-347.195 65,-339.852"/>
<polygon fill="midnightblue" stroke="midnightblue" points="61.5001,-366.922 65,-376.922 68.5001,-366.922 61.5001,-366.922"/>
</g>
<!-- Node8 -->
<g id="node14" class="node"><title>Node8</title>
<a xlink:href="classfwTools_1_1fwID.html" target="_top" xlink:title="Defines ID for fwTools::Object. It is used to associate ID with object. ">
<polygon fill="white" stroke="black" points="135,-318.5 135,-339.5 213,-339.5 213,-318.5 135,-318.5"/>
<text text-anchor="middle" x="174" y="-326.5" font-family="Helvetica,sans-Serif" font-size="10.00">fwTools::fwID</text>
</a>
</g>
<!-- Node8&#45;&gt;Node5 -->
<g id="edge14" class="edge"><title>Node8&#45;&gt;Node5</title>
<path fill="none" stroke="darkgreen" d="M156.77,-310.83C147.645,-301.208 136.76,-289.728 129.024,-281.571"/>
<polygon fill="darkgreen" stroke="darkgreen" points="154.492,-313.514 163.912,-318.362 159.571,-308.697 154.492,-313.514"/>
</g>
<!-- Node9 -->
<g id="node16" class="node"><title>Node9</title>
<a xlink:href="classfwCom_1_1HasSlots.html" target="_top" xlink:title="This class proposes a mapping between a SlotKeyType and a SlotBase. ">
<polygon fill="white" stroke="black" points="179.5,-260.5 179.5,-281.5 274.5,-281.5 274.5,-260.5 179.5,-260.5"/>
<text text-anchor="middle" x="227" y="-268.5" font-family="Helvetica,sans-Serif" font-size="10.00">fwCom::HasSlots</text>
</a>
</g>
<!-- Node9&#45;&gt;Node4 -->
<g id="edge16" class="edge"><title>Node9&#45;&gt;Node4</title>
<path fill="none" stroke="midnightblue" d="M227,-250.191C227,-241.168 227,-230.994 227,-223.571"/>
<polygon fill="midnightblue" stroke="midnightblue" points="223.5,-250.362 227,-260.362 230.5,-250.362 223.5,-250.362"/>
</g>
<!-- Node10 -->
<g id="node18" class="node"><title>Node10</title>
<a xlink:href="classfwCom_1_1HasSignals.html" target="_top" xlink:title="This class proposes a mapping between a SignalKeyType and a SignalBase. ">
<polygon fill="white" stroke="black" points="292,-260.5 292,-281.5 396,-281.5 396,-260.5 292,-260.5"/>
<text text-anchor="middle" x="344" y="-268.5" font-family="Helvetica,sans-Serif" font-size="10.00">fwCom::HasSignals</text>
</a>
</g>
<!-- Node10&#45;&gt;Node4 -->
<g id="edge18" class="edge"><title>Node10&#45;&gt;Node4</title>
<path fill="none" stroke="midnightblue" d="M313.604,-255.932C293.152,-245.793 266.689,-232.675 248.426,-223.621"/>
<polygon fill="midnightblue" stroke="midnightblue" points="312.298,-259.191 322.812,-260.497 315.407,-252.919 312.298,-259.191"/>
</g>
<!-- Node11 -->
<g id="node20" class="node"><title>Node11</title>
<a xlink:href="classfwComEd_1_1helper_1_1MedicalImageAdaptor.html" target="_top" xlink:title="Helpers for medical image. ">
<polygon fill="white" stroke="black" points="292,-73 292,-107 424,-107 424,-73 292,-73"/>
<text text-anchor="start" x="300" y="-94" font-family="Helvetica,sans-Serif" font-size="10.00">fwComEd::helper::Medical</text>
<text text-anchor="middle" x="358" y="-81" font-family="Helvetica,sans-Serif" font-size="10.00">ImageAdaptor</text>
</a>
</g>
<!-- Node11&#45;&gt;Node1 -->
<g id="edge20" class="edge"><title>Node11&#45;&gt;Node1</title>
<path fill="none" stroke="midnightblue" d="M335.43,-65.3785C326.407,-55.5349 316.224,-44.4262 307.987,-35.4407"/>
<polygon fill="midnightblue" stroke="midnightblue" points="333.022,-67.9305 342.359,-72.937 338.182,-63.2004 333.022,-67.9305"/>
</g>
</g>
</svg>
