<?xml version="1.0" encoding="UTF-8" standalone="no"?>
<!DOCTYPE svg PUBLIC "-//W3C//DTD SVG 1.1//EN"
 "http://www.w3.org/Graphics/SVG/1.1/DTD/svg11.dtd">
<!-- Generated by graphviz version 2.26.3 (20100126.1600)
 -->
<!-- Title: scene2D::adaptor::Axis::configuring Pages: 1 -->
<svg width="476pt" height="139pt"
 viewBox="0.00 0.00 476.00 139.00" xmlns="http://www.w3.org/2000/svg" xmlns:xlink="http://www.w3.org/1999/xlink">
<g id="graph1" class="graph" transform="scale(1 1) rotate(0) translate(4 135)">
<title>scene2D::adaptor::Axis::configuring</title>
<polygon fill="white" stroke="white" points="-4,5 -4,-135 473,-135 473,5 -4,5"/>
<!-- Node1 -->
<g id="node1" class="node"><title>Node1</title>
<polygon fill="#bfbfbf" stroke="black" points="0.5,-52 0.5,-86 119.5,-86 119.5,-52 0.5,-52"/>
<text text-anchor="start" x="8.5" y="-73" font-family="Helvetica,sans-Serif" font-size="10.00">scene2D::adaptor::Axis</text>
<text text-anchor="middle" x="60" y="-60" font-family="Helvetica,sans-Serif" font-size="10.00">::configuring</text>
</g>
<!-- Node2 -->
<g id="node3" class="node"><title>Node2</title>
<a xlink:href="classscene2D_1_1adaptor_1_1IAdaptor.html#abee2c849e0e466b8b47d2f734fcd5fe0" target="_top" xlink:title="Not implemented in IAdaptor but in its subclasses. ">
<polygon fill="white" stroke="black" points="156.5,-52 156.5,-86 293.5,-86 293.5,-52 156.5,-52"/>
<text text-anchor="start" x="164.5" y="-73" font-family="Helvetica,sans-Serif" font-size="10.00">scene2D::adaptor::IAdaptor</text>
<text text-anchor="middle" x="225" y="-60" font-family="Helvetica,sans-Serif" font-size="10.00">::configuring</text>
</a>
</g>
<!-- Node1&#45;&gt;Node2 -->
<g id="edge2" class="edge"><title>Node1&#45;&gt;Node2</title>
<path fill="none" stroke="midnightblue" d="M119.569,-69C128.221,-69 137.238,-69 146.197,-69"/>
<polygon fill="midnightblue" stroke="midnightblue" points="146.265,-72.5001 156.265,-69 146.265,-65.5001 146.265,-72.5001"/>
</g>
<!-- Node3 -->
<g id="node5" class="node"><title>Node3</title>
<a xlink:href="classscene2D_1_1adaptor_1_1IAdaptor.html#abfd77d495d848dfd3c5b15c04d4a1aa7" target="_top" xlink:title="Get the render that manages the IAdaptor. ">
<polygon fill="white" stroke="black" points="330.5,-97 330.5,-131 467.5,-131 467.5,-97 330.5,-97"/>
<text text-anchor="start" x="338.5" y="-118" font-family="Helvetica,sans-Serif" font-size="10.00">scene2D::adaptor::IAdaptor</text>
<text text-anchor="middle" x="399" y="-105" font-family="Helvetica,sans-Serif" font-size="10.00">::getScene2DRender</text>
</a>
</g>
<!-- Node1&#45;&gt;Node3 -->
<g id="edge8" class="edge"><title>Node1&#45;&gt;Node3</title>
<path fill="none" stroke="midnightblue" d="M115.954,-86.035C128.994,-89.4791 142.899,-92.7341 156,-95 210.386,-104.406 272.431,-109.16 320.214,-111.56"/>
<polygon fill="midnightblue" stroke="midnightblue" points="320.338,-115.07 330.494,-112.051 320.672,-108.078 320.338,-115.07"/>
</g>
<!-- Node5 -->
<g id="node10" class="node"><title>Node5</title>
<a xlink:href="classscene2D_1_1data_1_1InitQtPen.html#a042d47d24a35453f48a79f35d1b5f7f6" target="_top" xlink:title="Set a pen a color. ">
<polygon fill="white" stroke="black" points="161,-0 161,-34 289,-34 289,-0 161,-0"/>
<text text-anchor="start" x="169" y="-21" font-family="Helvetica,sans-Serif" font-size="10.00">scene2D::data::InitQtPen</text>
<text text-anchor="middle" x="225" y="-8" font-family="Helvetica,sans-Serif" font-size="10.00">::setPenColor</text>
</a>
</g>
<!-- Node1&#45;&gt;Node5 -->
<g id="edge10" class="edge"><title>Node1&#45;&gt;Node5</title>
<path fill="none" stroke="midnightblue" d="M114.027,-51.9733C129.127,-47.2146 145.677,-41.9989 161.28,-37.0815"/>
<polygon fill="midnightblue" stroke="midnightblue" points="162.366,-40.409 170.851,-34.065 160.262,-33.7327 162.366,-40.409"/>
</g>
<!-- Node2&#45;&gt;Node3 -->
<g id="edge4" class="edge"><title>Node2&#45;&gt;Node3</title>
<path fill="none" stroke="midnightblue" d="M290.782,-86.0126C301.392,-88.7566 312.451,-91.6166 323.273,-94.4154"/>
<polygon fill="midnightblue" stroke="midnightblue" points="322.567,-97.848 333.125,-96.9634 324.32,-91.071 322.567,-97.848"/>
</g>
<!-- Node4 -->
<g id="node7" class="node"><title>Node4</title>
<a xlink:href="classscene2D_1_1adaptor_1_1IAdaptor.html#afc8cbae24765d58180d7adc6d1e43178" target="_top" xlink:title="Get the object associated to the IAdaptor. ">
<polygon fill="white" stroke="black" points="330.5,-45 330.5,-79 467.5,-79 467.5,-45 330.5,-45"/>
<text text-anchor="start" x="338.5" y="-66" font-family="Helvetica,sans-Serif" font-size="10.00">scene2D::adaptor::IAdaptor</text>
<text text-anchor="middle" x="399" y="-53" font-family="Helvetica,sans-Serif" font-size="10.00">::getRegisteredObject</text>
</a>
</g>
<!-- Node2&#45;&gt;Node4 -->
<g id="edge6" class="edge"><title>Node2&#45;&gt;Node4</title>
<path fill="none" stroke="midnightblue" d="M293.769,-66.2334C302.44,-65.8846 311.364,-65.5256 320.176,-65.1711"/>
<polygon fill="midnightblue" stroke="midnightblue" points="320.594,-68.6572 330.445,-64.7579 320.313,-61.6628 320.594,-68.6572"/>
</g>
</g>
</svg>
