<?xml version="1.0" encoding="UTF-8" standalone="no"?>
<!DOCTYPE svg PUBLIC "-//W3C//DTD SVG 1.1//EN"
 "http://www.w3.org/Graphics/SVG/1.1/DTD/svg11.dtd">
<!-- Generated by graphviz version 2.26.3 (20100126.1600)
 -->
<!-- Title: fwJobs::IJob::addCancelHook Pages: 1 -->
<svg width="550pt" height="82pt"
 viewBox="0.00 0.00 550.00 82.00" xmlns="http://www.w3.org/2000/svg" xmlns:xlink="http://www.w3.org/1999/xlink">
<g id="graph1" class="graph" transform="scale(1 1) rotate(0) translate(4 78)">
<title>fwJobs::IJob::addCancelHook</title>
<polygon fill="white" stroke="white" points="-4,5 -4,-78 547,-78 547,5 -4,5"/>
<!-- Node1 -->
<g id="node1" class="node"><title>Node1</title>
<polygon fill="#bfbfbf" stroke="black" points="0.5,-29.5 0.5,-50.5 149.5,-50.5 149.5,-29.5 0.5,-29.5"/>
<text text-anchor="middle" x="75" y="-37.5" font-family="Helvetica,sans-Serif" font-size="10.00">fwJobs::IJob::addCancelHook</text>
</g>
<!-- Node2 -->
<g id="node3" class="node"><title>Node2</title>
<a xlink:href="classfwJobs_1_1IJob.html#a88be0f02451117809d391a03e4212ca7" target="_top" xlink:title="Add cancel callback to sequence for cancel hook. ">
<polygon fill="white" stroke="black" points="186.5,-52.5 186.5,-73.5 365.5,-73.5 365.5,-52.5 186.5,-52.5"/>
<text text-anchor="middle" x="276" y="-60.5" font-family="Helvetica,sans-Serif" font-size="10.00">fwJobs::IJob::addSimpleCancelHook</text>
</a>
</g>
<!-- Node1&#45;&gt;Node2 -->
<g id="edge2" class="edge"><title>Node1&#45;&gt;Node2</title>
<path fill="none" stroke="midnightblue" d="M159.754,-49.6982C168.517,-50.7009 177.443,-51.7223 186.258,-52.731"/>
<polygon fill="midnightblue" stroke="midnightblue" points="159.892,-46.1913 149.559,-48.5317 159.097,-53.1459 159.892,-46.1913"/>
</g>
<!-- Node4 -->
<g id="node7" class="node"><title>Node4</title>
<a xlink:href="classfwGdcmIO_1_1helper_1_1DicomSeriesDBWriter.html#a3cc5610267316fb9a2c61b1f30deef0f" target="_top" xlink:title="Write the image series in DICOM format. ">
<polygon fill="white" stroke="black" points="197,-0 197,-34 355,-34 355,-0 197,-0"/>
<text text-anchor="start" x="205" y="-21" font-family="Helvetica,sans-Serif" font-size="10.00">fwGdcmIO::helper::DicomSeries</text>
<text text-anchor="middle" x="276" y="-8" font-family="Helvetica,sans-Serif" font-size="10.00">DBWriter::write</text>
</a>
</g>
<!-- Node1&#45;&gt;Node4 -->
<g id="edge6" class="edge"><title>Node1&#45;&gt;Node4</title>
<path fill="none" stroke="midnightblue" d="M159.786,-30.2981C172.071,-28.8924 184.677,-27.45 196.845,-26.0576"/>
<polygon fill="midnightblue" stroke="midnightblue" points="159.097,-26.8541 149.559,-31.4683 159.892,-33.8087 159.097,-26.8541"/>
</g>
<!-- Node3 -->
<g id="node5" class="node"><title>Node3</title>
<a xlink:href="classfwJobs_1_1Observer.html#af59d7ea920f13694184d62bf49e53498" target="_top" xlink:title="Constructor. ">
<polygon fill="white" stroke="black" points="402,-52.5 402,-73.5 542,-73.5 542,-52.5 402,-52.5"/>
<text text-anchor="middle" x="472" y="-60.5" font-family="Helvetica,sans-Serif" font-size="10.00">fwJobs::Observer::Observer</text>
</a>
</g>
<!-- Node2&#45;&gt;Node3 -->
<g id="edge4" class="edge"><title>Node2&#45;&gt;Node3</title>
<path fill="none" stroke="midnightblue" d="M375.913,-63C384.633,-63 393.333,-63 401.737,-63"/>
<polygon fill="midnightblue" stroke="midnightblue" points="375.683,-59.5001 365.683,-63 375.683,-66.5001 375.683,-59.5001"/>
</g>
</g>
</svg>
