<?xml version="1.0" encoding="UTF-8" standalone="no"?>
<!DOCTYPE svg PUBLIC "-//W3C//DTD SVG 1.1//EN"
 "http://www.w3.org/Graphics/SVG/1.1/DTD/svg11.dtd">
<!-- Generated by graphviz version 2.36.0 (20140111.2315)
 -->
<!-- Title: ioPacs::SProgressBarController Pages: 1 -->
<!--zoomable 258 -->
<svg id="main" version="1.1" xmlns="http://www.w3.org/2000/svg" xmlns:xlink="http://www.w3.org/1999/xlink" xml:space="preserve" onload="init(evt)">
<style type="text/css"><![CDATA[
.edge:hover path { stroke: red; }
.edge:hover polygon { stroke: red; fill: red; }
]]></style>
<script type="text/javascript"><![CDATA[
var edges = document.getElementsByTagName('g');
if (edges && edges.length) {
  for (var i=0;i<edges.length;i++) {
    if (edges[i].id.substr(0,4)=='edge') {
      edges[i].setAttribute('class','edge');
    }
  }
}
]]></script>
        <defs>
                <circle id="rim" cx="0" cy="0" r="7"/>
                <circle id="rim2" cx="0" cy="0" r="3.5"/>
                <g id="zoomPlus">
                        <use xlink:href="#rim" fill="#404040">
                                <set attributeName="fill" to="#808080" begin="zoomplus.mouseover" end="zoomplus.mouseout"/>
                        </use>
                        <path d="M-4,0h8M0,-4v8" fill="none" stroke="white" stroke-width="1.5" pointer-events="none"/>
                </g>
                <g id="zoomMin">
                        <use xlink:href="#rim" fill="#404040">
                                <set attributeName="fill" to="#808080" begin="zoomminus.mouseover" end="zoomminus.mouseout"/>
                        </use>
                        <path d="M-4,0h8" fill="none" stroke="white" stroke-width="1.5" pointer-events="none"/>
                </g>
                <g id="dirArrow">
                        <path fill="none" stroke="white" stroke-width="1.5" d="M0,-3.0v7 M-2.5,-0.5L0,-3.0L2.5,-0.5"/>
                </g>
               <g id="resetDef">
                       <use xlink:href="#rim2" fill="#404040">
                               <set attributeName="fill" to="#808080" begin="reset.mouseover" end="reset.mouseout"/>
                       </use>
               </g>
        </defs>

<script type="text/javascript">
var viewWidth = 1576;
var viewHeight = 258;
var sectionId = 'dynsection-1';
</script>
<script xlink:href="svgpan.js"/>
<svg id="graph" class="graph">
<g id="viewport">
<title>ioPacs::SProgressBarController</title>
<polygon fill="white" stroke="none" points="-4,4 -4,-254 1572,-254 1572,4 -4,4"/>
<!-- Node1 -->
<g id="node1" class="node"><title>Node1</title>
<polygon fill="#bfbfbf" stroke="black" points="1412.5,-196.5 1412.5,-215.5 1567.5,-215.5 1567.5,-196.5 1412.5,-196.5"/>
<text text-anchor="middle" x="1490" y="-203.5" font-family="Helvetica,sans-Serif" font-size="10.00">ioPacs::SProgressBarController</text>
</g>
<!-- Node2 -->
<g id="node2" class="node"><title>Node2</title>
<g id="a_node2"><a xlink:href="classfwServices_1_1IController.html" target="_top" xlink:title="This interface defines control service API. Does nothing particularly, can be considered as a default...">
<polygon fill="white" stroke="black" points="1258,-154.5 1258,-173.5 1374,-173.5 1374,-154.5 1258,-154.5"/>
<text text-anchor="middle" x="1316" y="-161.5" font-family="Helvetica,sans-Serif" font-size="10.00">fwServices::IController</text>
</a>
</g>
</g>
<!-- Node2&#45;&gt;Node1 -->
<g id="edge1" class="edge"><title>Node2&#45;&gt;Node1</title>
<path fill="none" stroke="midnightblue" d="M1365.9,-175.942C1392.49,-182.434 1424.93,-190.354 1449.83,-196.435"/>
<polygon fill="midnightblue" stroke="midnightblue" points="1366.57,-172.503 1356.03,-173.53 1364.91,-179.303 1366.57,-172.503"/>
</g>
<!-- Node3 -->
<g id="node3" class="node"><title>Node3</title>
<g id="a_node3"><a xlink:href="classfwServices_1_1IService.html" target="_top" xlink:title="Base class for all services. ">
<polygon fill="white" stroke="black" points="1112.5,-72.5 1112.5,-91.5 1219.5,-91.5 1219.5,-72.5 1112.5,-72.5"/>
<text text-anchor="middle" x="1166" y="-79.5" font-family="Helvetica,sans-Serif" font-size="10.00">fwServices::IService</text>
</a>
</g>
</g>
<!-- Node3&#45;&gt;Node2 -->
<g id="edge2" class="edge"><title>Node3&#45;&gt;Node2</title>
<path fill="none" stroke="midnightblue" d="M1193.37,-96.6123C1223.57,-113.345 1272.18,-140.273 1297.84,-154.494"/>
<polygon fill="midnightblue" stroke="midnightblue" points="1194.71,-93.3519 1184.27,-91.5669 1191.32,-99.4749 1194.71,-93.3519"/>
</g>
<!-- Node4 -->
<g id="node4" class="node"><title>Node4</title>
<g id="a_node4"><a xlink:href="classfwTools_1_1Object.html" target="_top" xlink:title="Define Base class for FW4SPL objects and services. ">
<polygon fill="white" stroke="black" points="879,-39.5 879,-58.5 965,-58.5 965,-39.5 879,-39.5"/>
<text text-anchor="middle" x="922" y="-46.5" font-family="Helvetica,sans-Serif" font-size="10.00">fwTools::Object</text>
</a>
</g>
</g>
<!-- Node4&#45;&gt;Node3 -->
<g id="edge3" class="edge"><title>Node4&#45;&gt;Node3</title>
<path fill="none" stroke="midnightblue" d="M975.109,-56.1058C1015.66,-61.6348 1071.68,-69.2743 1112.36,-74.8217"/>
<polygon fill="midnightblue" stroke="midnightblue" points="975.534,-52.6315 965.153,-54.7482 974.589,-59.5673 975.534,-52.6315"/>
</g>
<!-- Node5 -->
<g id="node5" class="node"><title>Node5</title>
<g id="a_node5"><a xlink:href="classfwCore_1_1BaseObject.html" target="_top" xlink:title="Base class for all FW4SPL&#39;s classes. ">
<polygon fill="white" stroke="black" points="680.5,-77.5 680.5,-96.5 785.5,-96.5 785.5,-77.5 680.5,-77.5"/>
<text text-anchor="middle" x="733" y="-84.5" font-family="Helvetica,sans-Serif" font-size="10.00">fwCore::BaseObject</text>
</a>
</g>
</g>
<!-- Node5&#45;&gt;Node4 -->
<g id="edge4" class="edge"><title>Node5&#45;&gt;Node4</title>
<path fill="none" stroke="midnightblue" d="M791.341,-75.3478C819.603,-69.6047 853.076,-62.8027 878.932,-57.5487"/>
<polygon fill="midnightblue" stroke="midnightblue" points="790.291,-71.9896 781.188,-77.411 791.685,-78.8494 790.291,-71.9896"/>
</g>
<!-- Node6 -->
<g id="node6" class="node"><title>Node6</title>
<polygon fill="white" stroke="#bfbfbf" points="449.5,-72 449.5,-102 580.5,-102 580.5,-72 449.5,-72"/>
<text text-anchor="start" x="457.5" y="-90" font-family="Helvetica,sans-Serif" font-size="10.00">std::enable_shared</text>
<text text-anchor="middle" x="515" y="-79" font-family="Helvetica,sans-Serif" font-size="10.00">_from_this&lt; BaseObject &gt;</text>
</g>
<!-- Node6&#45;&gt;Node5 -->
<g id="edge5" class="edge"><title>Node6&#45;&gt;Node5</title>
<path fill="none" stroke="midnightblue" d="M590.81,-87C620.398,-87 653.667,-87 680.475,-87"/>
<polygon fill="midnightblue" stroke="midnightblue" points="590.515,-83.5001 580.515,-87 590.515,-90.5001 590.515,-83.5001"/>
</g>
<!-- Node7 -->
<g id="node7" class="node"><title>Node7</title>
<polygon fill="white" stroke="#bfbfbf" points="697.5,-39.5 697.5,-58.5 768.5,-58.5 768.5,-39.5 697.5,-39.5"/>
<text text-anchor="middle" x="733" y="-46.5" font-family="Helvetica,sans-Serif" font-size="10.00">noncopyable</text>
</g>
<!-- Node7&#45;&gt;Node4 -->
<g id="edge6" class="edge"><title>Node7&#45;&gt;Node4</title>
<path fill="none" stroke="midnightblue" d="M779.051,-49C809.415,-49 849.199,-49 878.922,-49"/>
<polygon fill="midnightblue" stroke="midnightblue" points="778.735,-45.5001 768.735,-49 778.735,-52.5001 778.735,-45.5001"/>
</g>
<!-- Node8 -->
<g id="node8" class="node"><title>Node8</title>
<g id="a_node8"><a xlink:href="classfwTools_1_1fwID.html" target="_top" xlink:title="Defines ID for fwTools::Object. It is used to associate ID with object. ">
<polygon fill="white" stroke="black" points="694,-115.5 694,-134.5 772,-134.5 772,-115.5 694,-115.5"/>
<text text-anchor="middle" x="733" y="-122.5" font-family="Helvetica,sans-Serif" font-size="10.00">fwTools::fwID</text>
</a>
</g>
</g>
<!-- Node8&#45;&gt;Node4 -->
<g id="edge7" class="edge"><title>Node8&#45;&gt;Node4</title>
<path fill="none" stroke="darkgreen" d="M778.528,-112.407C801.252,-105.089 828.898,-94.7785 852,-82 860.869,-77.0945 861.149,-72.9373 870,-68 876.436,-64.4097 883.685,-61.2433 890.654,-58.576"/>
<polygon fill="darkgreen" stroke="darkgreen" points="777.29,-109.127 768.795,-115.457 779.384,-115.806 777.29,-109.127"/>
</g>
<!-- Node9 -->
<g id="node9" class="node"><title>Node9</title>
<g id="a_node9"><a xlink:href="classfwCom_1_1HasSlots.html" target="_top" xlink:title="This class proposes a mapping between a SlotKeyType and a SlotBase. ">
<polygon fill="white" stroke="black" points="874.5,-173.5 874.5,-192.5 969.5,-192.5 969.5,-173.5 874.5,-173.5"/>
<text text-anchor="middle" x="922" y="-180.5" font-family="Helvetica,sans-Serif" font-size="10.00">fwCom::HasSlots</text>
</a>
</g>
</g>
<!-- Node9&#45;&gt;Node3 -->
<g id="edge8" class="edge"><title>Node9&#45;&gt;Node3</title>
<path fill="none" stroke="midnightblue" d="M972.635,-194.209C1008.4,-199.645 1056.72,-201.388 1094,-182 1131.59,-162.448 1153.64,-112.867 1161.6,-91.7572"/>
<polygon fill="midnightblue" stroke="midnightblue" points="972.874,-190.7 962.434,-192.508 971.722,-197.605 972.874,-190.7"/>
</g>
<!-- Node10 -->
<g id="node10" class="node"><title>Node10</title>
<g id="a_node10"><a xlink:href="classfwCom_1_1Slots.html" target="_top" xlink:title="This class proposes a mapping between a SlotKeyType and a SlotBase. ">
<polygon fill="white" stroke="black" points="694.5,-167.5 694.5,-186.5 771.5,-186.5 771.5,-167.5 694.5,-167.5"/>
<text text-anchor="middle" x="733" y="-174.5" font-family="Helvetica,sans-Serif" font-size="10.00">fwCom::Slots</text>
</a>
</g>
</g>
<!-- Node10&#45;&gt;Node9 -->
<g id="edge9" class="edge"><title>Node10&#45;&gt;Node9</title>
<path fill="none" stroke="#9a32cd" stroke-dasharray="5,2" d="M781.933,-178.538C810.309,-179.448 846.096,-180.597 874.261,-181.5"/>
<polygon fill="#9a32cd" stroke="#9a32cd" points="781.949,-175.037 771.842,-178.214 781.725,-182.033 781.949,-175.037"/>
<text text-anchor="middle" x="828" y="-183" font-family="Helvetica,sans-Serif" font-size="10.00"> m_slots</text>
</g>
<!-- Node11 -->
<g id="node11" class="node"><title>Node11</title>
<polygon fill="white" stroke="#bfbfbf" points="439,-160 439,-190 591,-190 591,-160 439,-160"/>
<text text-anchor="start" x="447" y="-178" font-family="Helvetica,sans-Serif" font-size="10.00">std::map&lt; SlotKeyType,</text>
<text text-anchor="middle" x="515" y="-167" font-family="Helvetica,sans-Serif" font-size="10.00"> std::shared_ptr&lt; SlotBase &gt; &gt;</text>
</g>
<!-- Node11&#45;&gt;Node10 -->
<g id="edge10" class="edge"><title>Node11&#45;&gt;Node10</title>
<path fill="none" stroke="#9a32cd" stroke-dasharray="5,2" d="M601.573,-175.792C633.736,-176.09 668.676,-176.414 694.29,-176.651"/>
<polygon fill="#9a32cd" stroke="#9a32cd" points="601.275,-172.29 591.243,-175.697 601.21,-179.289 601.275,-172.29"/>
<text text-anchor="middle" x="638" y="-179" font-family="Helvetica,sans-Serif" font-size="10.00"> m_slots</text>
</g>
<!-- Node12 -->
<g id="node12" class="node"><title>Node12</title>
<g id="a_node12"><a xlink:title="STL class. ">
<polygon fill="white" stroke="#bfbfbf" points="192,-185.5 192,-204.5 252,-204.5 252,-185.5 192,-185.5"/>
<text text-anchor="middle" x="222" y="-192.5" font-family="Helvetica,sans-Serif" font-size="10.00">std::string</text>
</a>
</g>
</g>
<!-- Node12&#45;&gt;Node11 -->
<g id="edge11" class="edge"><title>Node12&#45;&gt;Node11</title>
<path fill="none" stroke="#9a32cd" stroke-dasharray="5,2" d="M262.485,-192.286C307.591,-189.186 382.428,-184.043 438.768,-180.171"/>
<polygon fill="#9a32cd" stroke="#9a32cd" points="261.971,-188.813 252.235,-192.991 262.451,-195.797 261.971,-188.813"/>
<text text-anchor="middle" x="351" y="-193" font-family="Helvetica,sans-Serif" font-size="10.00"> keys</text>
</g>
<!-- Node19 -->
<g id="node19" class="node"><title>Node19</title>
<polygon fill="white" stroke="#bfbfbf" points="434.5,-0 434.5,-30 595.5,-30 595.5,-0 434.5,-0"/>
<text text-anchor="start" x="442.5" y="-18" font-family="Helvetica,sans-Serif" font-size="10.00">std::map&lt; SignalKeyType,</text>
<text text-anchor="middle" x="515" y="-7" font-family="Helvetica,sans-Serif" font-size="10.00"> std::shared_ptr&lt; SignalBase &gt; &gt;</text>
</g>
<!-- Node12&#45;&gt;Node19 -->
<g id="edge19" class="edge"><title>Node12&#45;&gt;Node19</title>
<path fill="none" stroke="#9a32cd" stroke-dasharray="5,2" d="M230.608,-176.079C240.19,-154.86 258.764,-121.178 286,-104 335.503,-72.7775 364.954,-111.631 416,-83 426.721,-76.9865 424.572,-69.8879 434,-62 448.826,-49.5964 467.331,-38.4941 482.808,-30.1984"/>
<polygon fill="#9a32cd" stroke="#9a32cd" points="227.35,-174.797 226.628,-185.367 233.784,-177.554 227.35,-174.797"/>
<text text-anchor="middle" x="351" y="-107" font-family="Helvetica,sans-Serif" font-size="10.00"> keys</text>
</g>
<!-- Node21 -->
<g id="node21" class="node"><title>Node21</title>
<polygon fill="white" stroke="#bfbfbf" points="439,-208.5 439,-249.5 591,-249.5 591,-208.5 439,-208.5"/>
<text text-anchor="start" x="447" y="-237.5" font-family="Helvetica,sans-Serif" font-size="10.00">std::map&lt; std::string,</text>
<text text-anchor="start" x="447" y="-226.5" font-family="Helvetica,sans-Serif" font-size="10.00">::fwGui::dialog::ProgressDialog</text>
<text text-anchor="middle" x="515" y="-215.5" font-family="Helvetica,sans-Serif" font-size="10.00">::sptr &gt;</text>
</g>
<!-- Node12&#45;&gt;Node21 -->
<g id="edge23" class="edge"><title>Node12&#45;&gt;Node21</title>
<path fill="none" stroke="#9a32cd" stroke-dasharray="5,2" d="M262.197,-201.549C270.069,-202.771 278.29,-203.983 286,-205 336.904,-211.714 394.4,-217.756 438.919,-222.098"/>
<polygon fill="#9a32cd" stroke="#9a32cd" points="262.548,-198.061 252.123,-199.95 261.451,-204.974 262.548,-198.061"/>
<text text-anchor="middle" x="351" y="-222" font-family="Helvetica,sans-Serif" font-size="10.00"> keys</text>
</g>
<!-- Node13 -->
<g id="node13" class="node"><title>Node13</title>
<g id="a_node13"><a xlink:title="STL class. ">
<polygon fill="white" stroke="#bfbfbf" points="0.5,-180 0.5,-210 95.5,-210 95.5,-180 0.5,-180"/>
<text text-anchor="start" x="8.5" y="-198" font-family="Helvetica,sans-Serif" font-size="10.00">std::basic_string&lt;</text>
<text text-anchor="middle" x="48" y="-187" font-family="Helvetica,sans-Serif" font-size="10.00"> char &gt;</text>
</a>
</g>
</g>
<!-- Node13&#45;&gt;Node12 -->
<g id="edge12" class="edge"><title>Node13&#45;&gt;Node12</title>
<path fill="none" stroke="midnightblue" d="M105.913,-195C134.736,-195 168.5,-195 191.972,-195"/>
<polygon fill="midnightblue" stroke="midnightblue" points="105.546,-191.5 95.5457,-195 105.546,-198.5 105.546,-191.5"/>
</g>
<!-- Node14 -->
<g id="node14" class="node"><title>Node14</title>
<g id="a_node14"><a xlink:title="STL class. ">
<polygon fill="white" stroke="#bfbfbf" points="176,-50.5 176,-69.5 268,-69.5 268,-50.5 176,-50.5"/>
<text text-anchor="middle" x="222" y="-57.5" font-family="Helvetica,sans-Serif" font-size="10.00">std::map&lt; K, T &gt;</text>
</a>
</g>
</g>
<!-- Node14&#45;&gt;Node11 -->
<g id="edge13" class="edge"><title>Node14&#45;&gt;Node11</title>
<path fill="none" stroke="orange" stroke-dasharray="5,2" d="M262.847,-47.9167C304.929,-37.745 371.255,-29.3787 416,-61 435.288,-74.6309 420.261,-91.7886 434,-111 448.485,-131.255 471.053,-148.496 488.531,-159.963"/>
<polygon fill="orange" stroke="orange" points="261.777,-44.5776 252.958,-50.4482 263.513,-51.3589 261.777,-44.5776"/>
<text text-anchor="start" x="291.5" y="-75" font-family="Helvetica,sans-Serif" font-size="10.00"> &lt; SlotKeyType, std</text>
<text text-anchor="middle" x="351" y="-64" font-family="Helvetica,sans-Serif" font-size="10.00">::shared_ptr&lt; SlotBase &gt; &gt;</text>
</g>
<!-- Node14&#45;&gt;Node19 -->
<g id="edge20" class="edge"><title>Node14&#45;&gt;Node19</title>
<path fill="none" stroke="orange" stroke-dasharray="5,2" d="M240.363,-43.4929C252.205,-33.4146 268.808,-21.4507 286,-16 333.638,-0.89662 389.741,-0.446918 434.374,-3.87086"/>
<polygon fill="orange" stroke="orange" points="237.776,-41.1104 232.641,-50.378 242.435,-46.3351 237.776,-41.1104"/>
<text text-anchor="start" x="286.5" y="-30" font-family="Helvetica,sans-Serif" font-size="10.00"> &lt; SignalKeyType, std</text>
<text text-anchor="middle" x="351" y="-19" font-family="Helvetica,sans-Serif" font-size="10.00">::shared_ptr&lt; SignalBase &gt; &gt;</text>
</g>
<!-- Node14&#45;&gt;Node21 -->
<g id="edge24" class="edge"><title>Node14&#45;&gt;Node21</title>
<path fill="none" stroke="orange" stroke-dasharray="5,2" d="M237.68,-77.5189C249.437,-90.3976 267.051,-107.284 286,-117 338.592,-143.966 371.982,-105.56 416,-145 434.842,-161.882 416.446,-180.783 434,-199 437.397,-202.525 441.247,-205.639 445.377,-208.391"/>
<polygon fill="orange" stroke="orange" points="240.078,-74.9456 230.844,-69.7502 234.823,-79.5697 240.078,-74.9456"/>
<text text-anchor="start" x="298.5" y="-170" font-family="Helvetica,sans-Serif" font-size="10.00"> &lt; std::string,::fwGui</text>
<text text-anchor="start" x="298.5" y="-159" font-family="Helvetica,sans-Serif" font-size="10.00">::dialog::ProgressDialog</text>
<text text-anchor="middle" x="351" y="-148" font-family="Helvetica,sans-Serif" font-size="10.00">::sptr &gt;</text>
</g>
<!-- Node15 -->
<g id="node15" class="node"><title>Node15</title>
<polygon fill="white" stroke="#bfbfbf" points="33.5,-69.5 33.5,-88.5 62.5,-88.5 62.5,-69.5 33.5,-69.5"/>
<text text-anchor="middle" x="48" y="-76.5" font-family="Helvetica,sans-Serif" font-size="10.00">K</text>
</g>
<!-- Node15&#45;&gt;Node14 -->
<g id="edge14" class="edge"><title>Node15&#45;&gt;Node14</title>
<path fill="none" stroke="#9a32cd" stroke-dasharray="5,2" d="M73.0587,-76.3424C99.6143,-73.4089 142.955,-68.6212 175.879,-64.9843"/>
<polygon fill="#9a32cd" stroke="#9a32cd" points="72.34,-72.9004 62.7847,-77.4773 73.1086,-79.858 72.34,-72.9004"/>
<text text-anchor="middle" x="136" y="-75" font-family="Helvetica,sans-Serif" font-size="10.00"> keys</text>
</g>
<!-- Node16 -->
<g id="node16" class="node"><title>Node16</title>
<polygon fill="white" stroke="#bfbfbf" points="33.5,-31.5 33.5,-50.5 62.5,-50.5 62.5,-31.5 33.5,-31.5"/>
<text text-anchor="middle" x="48" y="-38.5" font-family="Helvetica,sans-Serif" font-size="10.00">T</text>
</g>
<!-- Node16&#45;&gt;Node14 -->
<g id="edge15" class="edge"><title>Node16&#45;&gt;Node14</title>
<path fill="none" stroke="#9a32cd" stroke-dasharray="5,2" d="M72.884,-43.6224C94.968,-46.0489 128.7,-49.7594 158,-53 163.797,-53.6412 169.894,-54.3169 175.919,-54.9854"/>
<polygon fill="#9a32cd" stroke="#9a32cd" points="73.0882,-40.1239 62.7658,-42.511 72.3238,-47.082 73.0882,-40.1239"/>
<text text-anchor="middle" x="136" y="-56" font-family="Helvetica,sans-Serif" font-size="10.00"> elements</text>
</g>
<!-- Node17 -->
<g id="node17" class="node"><title>Node17</title>
<g id="a_node17"><a xlink:href="classfwCom_1_1HasSignals.html" target="_top" xlink:title="This class proposes a mapping between a SignalKeyType and a SignalBase. ">
<polygon fill="white" stroke="black" points="870,-1.5 870,-20.5 974,-20.5 974,-1.5 870,-1.5"/>
<text text-anchor="middle" x="922" y="-8.5" font-family="Helvetica,sans-Serif" font-size="10.00">fwCom::HasSignals</text>
</a>
</g>
</g>
<!-- Node17&#45;&gt;Node3 -->
<g id="edge16" class="edge"><title>Node17&#45;&gt;Node3</title>
<path fill="none" stroke="midnightblue" d="M975.285,-22.8526C1009.36,-30.9695 1054.65,-42.497 1094,-55 1110.21,-60.1511 1128.12,-66.9667 1141.89,-72.4614"/>
<polygon fill="midnightblue" stroke="midnightblue" points="976.074,-19.4428 965.537,-20.5509 974.465,-26.2554 976.074,-19.4428"/>
</g>
<!-- Node18 -->
<g id="node18" class="node"><title>Node18</title>
<g id="a_node18"><a xlink:href="classfwCom_1_1Signals.html" target="_top" xlink:title="This class proposes a mapping between a SignalKeyType and a SignalBase. ">
<polygon fill="white" stroke="black" points="690,-1.5 690,-20.5 776,-20.5 776,-1.5 690,-1.5"/>
<text text-anchor="middle" x="733" y="-8.5" font-family="Helvetica,sans-Serif" font-size="10.00">fwCom::Signals</text>
</a>
</g>
</g>
<!-- Node18&#45;&gt;Node17 -->
<g id="edge17" class="edge"><title>Node18&#45;&gt;Node17</title>
<path fill="none" stroke="#9a32cd" stroke-dasharray="5,2" d="M786.499,-11C812.543,-11 843.878,-11 869.749,-11"/>
<polygon fill="#9a32cd" stroke="#9a32cd" points="786.433,-7.5001 776.433,-11 786.433,-14.5001 786.433,-7.5001"/>
<text text-anchor="middle" x="828" y="-14" font-family="Helvetica,sans-Serif" font-size="10.00"> m_signals</text>
</g>
<!-- Node19&#45;&gt;Node18 -->
<g id="edge18" class="edge"><title>Node19&#45;&gt;Node18</title>
<path fill="none" stroke="#9a32cd" stroke-dasharray="5,2" d="M605.74,-13.3382C634.917,-12.7978 665.926,-12.2236 689.911,-11.7794"/>
<polygon fill="#9a32cd" stroke="#9a32cd" points="605.444,-9.84294 595.51,-13.5276 605.573,-16.8417 605.444,-9.84294"/>
<text text-anchor="middle" x="638" y="-17" font-family="Helvetica,sans-Serif" font-size="10.00"> m_signals</text>
</g>
<!-- Node20 -->
<g id="node20" class="node"><title>Node20</title>
<polygon fill="white" stroke="#bfbfbf" points="901.5,-77.5 901.5,-96.5 942.5,-96.5 942.5,-77.5 901.5,-77.5"/>
<text text-anchor="middle" x="922" y="-84.5" font-family="Helvetica,sans-Serif" font-size="10.00">static</text>
</g>
<!-- Node20&#45;&gt;Node3 -->
<g id="edge21" class="edge"><title>Node20&#45;&gt;Node3</title>
<path fill="none" stroke="#9a32cd" stroke-dasharray="5,2" d="M952.7,-84.9384C964.873,-84.1819 979.106,-83.4107 992,-83 1032.38,-81.7138 1078.08,-81.5031 1112.37,-81.5928"/>
<polygon fill="#9a32cd" stroke="#9a32cd" points="952.371,-81.4522 942.617,-85.5899 952.822,-88.4377 952.371,-81.4522"/>
<text text-anchor="middle" x="1043" y="-174" font-family="Helvetica,sans-Serif" font-size="10.00"> s_STOPPED_SIG</text>
<text text-anchor="middle" x="1043" y="-163" font-family="Helvetica,sans-Serif" font-size="10.00">s_UPDATED_SIG</text>
<text text-anchor="middle" x="1043" y="-152" font-family="Helvetica,sans-Serif" font-size="10.00">s_UPDATE_SLOT</text>
<text text-anchor="middle" x="1043" y="-141" font-family="Helvetica,sans-Serif" font-size="10.00">s_STARTED_SIG</text>
<text text-anchor="middle" x="1043" y="-130" font-family="Helvetica,sans-Serif" font-size="10.00">s_SWAPKEY_SLOT</text>
<text text-anchor="middle" x="1043" y="-119" font-family="Helvetica,sans-Serif" font-size="10.00">s_SWAP_SLOT</text>
<text text-anchor="middle" x="1043" y="-108" font-family="Helvetica,sans-Serif" font-size="10.00">s_STOP_SLOT</text>
<text text-anchor="middle" x="1043" y="-97" font-family="Helvetica,sans-Serif" font-size="10.00">s_START_SLOT</text>
<text text-anchor="middle" x="1043" y="-86" font-family="Helvetica,sans-Serif" font-size="10.00">s_DEFAULT_OBJECT</text>
</g>
<!-- Node21&#45;&gt;Node1 -->
<g id="edge22" class="edge"><title>Node21&#45;&gt;Node1</title>
<path fill="none" stroke="#9a32cd" stroke-dasharray="5,2" d="M601.637,-229C641.299,-229 689.051,-229 732,-229 732,-229 732,-229 1317,-229 1359.93,-229 1408.36,-221.873 1442.87,-215.554"/>
<polygon fill="#9a32cd" stroke="#9a32cd" points="601.472,-225.5 591.472,-229 601.472,-232.5 601.472,-225.5"/>
<text text-anchor="middle" x="1043" y="-232" font-family="Helvetica,sans-Serif" font-size="10.00"> m_progressDialogs</text>
</g>
</g>
</svg>
        <g id="navigator" transform="translate(0 0)" fill="#404254">
                <rect fill="#f2f5e9" fill-opacity="0.5" stroke="#606060" stroke-width=".5" x="0" y="0" width="60" height="60"/>
                <use id="zoomplus" xlink:href="#zoomPlus" x="17" y="9" onmousedown="handleZoom(evt,'in')"/>
                <use id="zoomminus" xlink:href="#zoomMin" x="42" y="9" onmousedown="handleZoom(evt,'out')"/>
                <use id="reset" xlink:href="#resetDef" x="30" y="36" onmousedown="handleReset()"/>
                <g id="arrowUp" xlink:href="#dirArrow" transform="translate(30 24)" onmousedown="handlePan(0,-1)">
                  <use xlink:href="#rim" fill="#404040">
                        <set attributeName="fill" to="#808080" begin="arrowUp.mouseover" end="arrowUp.mouseout"/>
                  </use>
                  <path fill="none" stroke="white" stroke-width="1.5" d="M0,-3.0v7 M-2.5,-0.5L0,-3.0L2.5,-0.5"/>
                </g>
                <g id="arrowRight" xlink:href="#dirArrow" transform="rotate(90) translate(36 -43)" onmousedown="handlePan(1,0)">
                  <use xlink:href="#rim" fill="#404040">
                        <set attributeName="fill" to="#808080" begin="arrowRight.mouseover" end="arrowRight.mouseout"/>
                  </use>
                  <path fill="none" stroke="white" stroke-width="1.5" d="M0,-3.0v7 M-2.5,-0.5L0,-3.0L2.5,-0.5"/>
                </g>
                <g id="arrowDown" xlink:href="#dirArrow" transform="rotate(180) translate(-30 -48)" onmousedown="handlePan(0,1)">
                  <use xlink:href="#rim" fill="#404040">
                        <set attributeName="fill" to="#808080" begin="arrowDown.mouseover" end="arrowDown.mouseout"/>
                  </use>
                  <path fill="none" stroke="white" stroke-width="1.5" d="M0,-3.0v7 M-2.5,-0.5L0,-3.0L2.5,-0.5"/>
                </g>
                <g id="arrowLeft" xlink:href="#dirArrow" transform="rotate(270) translate(-36 17)" onmousedown="handlePan(-1,0)">
                  <use xlink:href="#rim" fill="#404040">
                        <set attributeName="fill" to="#808080" begin="arrowLeft.mouseover" end="arrowLeft.mouseout"/>
                  </use>
                  <path fill="none" stroke="white" stroke-width="1.5" d="M0,-3.0v7 M-2.5,-0.5L0,-3.0L2.5,-0.5"/>
                </g>
        </g>
        <svg viewBox="0 0 15 15" width="100%" height="30px" preserveAspectRatio="xMaxYMin meet">
         <g id="arrow_out" transform="scale(0.3 0.3)">
          <a xlink:href="classioPacs_1_1SProgressBarController__coll__graph_org.svg" target="_base">
           <rect id="button" ry="5" rx="5" y="6" x="6" height="38" width="38"
                fill="#f2f5e9" fill-opacity="0.5" stroke="#606060" stroke-width="1.0"/>
           <path id="arrow"
             d="M 11.500037,31.436501 C 11.940474,20.09759 22.043105,11.32322 32.158766,21.979434 L 37.068811,17.246167 C 37.068811,17.246167 37.088388,32 37.088388,32 L 22.160133,31.978069 C 22.160133,31.978069 26.997745,27.140456 26.997745,27.140456 C 18.528582,18.264221 13.291696,25.230495 11.500037,31.436501 z"
             style="fill:#404040;"/>
          </a>
         </g>
        </svg>
</svg>
