<?xml version="1.0" encoding="UTF-8" standalone="no"?>
<!DOCTYPE svg PUBLIC "-//W3C//DTD SVG 1.1//EN"
 "http://www.w3.org/Graphics/SVG/1.1/DTD/svg11.dtd">
<!-- Generated by graphviz version 2.36.0 (20140111.2315)
 -->
<!-- Title: scene2D::adaptor::SViewportRangeSelector::processInteraction Pages: 1 -->
<svg width="920pt" height="213pt"
 viewBox="0.00 0.00 920.00 213.00" xmlns="http://www.w3.org/2000/svg" xmlns:xlink="http://www.w3.org/1999/xlink">
<g id="graph0" class="graph" transform="scale(1 1) rotate(0) translate(4 209)">
<title>scene2D::adaptor::SViewportRangeSelector::processInteraction</title>
<polygon fill="white" stroke="none" points="-4,4 -4,-209 916,-209 916,4 -4,4"/>
<!-- Node1 -->
<g id="node1" class="node"><title>Node1</title>
<polygon fill="#bfbfbf" stroke="black" points="0.5,-68 0.5,-98 167.5,-98 167.5,-68 0.5,-68"/>
<text text-anchor="start" x="8.5" y="-86" font-family="Helvetica,sans-Serif" font-size="10.00">scene2D::adaptor::SViewport</text>
<text text-anchor="middle" x="84" y="-75" font-family="Helvetica,sans-Serif" font-size="10.00">RangeSelector::processInteraction</text>
</g>
<!-- Node2 -->
<g id="node2" class="node"><title>Node2</title>
<g id="a_node2"><a xlink:href="classfwRenderQt_1_1IAdaptor.html#a19c26b1617582f56cb477d6c26bdb2b9" target="_top" xlink:title="Get the render that manages the IAdaptor. ">
<polygon fill="white" stroke="black" points="436,-142 436,-172 548,-172 548,-142 436,-142"/>
<text text-anchor="start" x="444" y="-160" font-family="Helvetica,sans-Serif" font-size="10.00">fwRenderQt::IAdaptor</text>
<text text-anchor="middle" x="492" y="-149" font-family="Helvetica,sans-Serif" font-size="10.00">::getScene2DRender</text>
</a>
</g>
</g>
<!-- Node1&#45;&gt;Node2 -->
<g id="edge1" class="edge"><title>Node1&#45;&gt;Node2</title>
<path fill="none" stroke="midnightblue" d="M110.947,-98.056C134.415,-110.861 170.349,-128.487 204,-137 278.343,-155.807 366.742,-159.25 425.598,-158.992"/>
<polygon fill="midnightblue" stroke="midnightblue" points="425.899,-162.49 435.87,-158.908 425.842,-155.49 425.899,-162.49"/>
</g>
<!-- Node7 -->
<g id="node7" class="node"><title>Node7</title>
<g id="a_node7"><a xlink:href="classfwRenderQt_1_1IAdaptor.html#aafb0b1479c046c3bedf55291c2226019" target="_top" xlink:title="fwRenderQt::IAdaptor\l::mapAdaptorToScene">
<polygon fill="white" stroke="black" points="435,-44 435,-74 549,-74 549,-44 435,-44"/>
<text text-anchor="start" x="443" y="-62" font-family="Helvetica,sans-Serif" font-size="10.00">fwRenderQt::IAdaptor</text>
<text text-anchor="middle" x="492" y="-51" font-family="Helvetica,sans-Serif" font-size="10.00">::mapAdaptorToScene</text>
</a>
</g>
</g>
<!-- Node1&#45;&gt;Node7 -->
<g id="edge6" class="edge"><title>Node1&#45;&gt;Node7</title>
<path fill="none" stroke="midnightblue" d="M167.65,-78.1143C243.558,-73.6271 354.604,-67.0628 424.811,-62.9126"/>
<polygon fill="midnightblue" stroke="midnightblue" points="425.088,-66.4025 434.864,-62.3184 424.675,-59.4147 425.088,-66.4025"/>
</g>
<!-- Node8 -->
<g id="node8" class="node"><title>Node8</title>
<g id="a_node8"><a xlink:href="classfwServices_1_1IService.html#a1eb9b44c43e795e7abee1076b8498620" target="_top" xlink:title="Invoke updating() if m_globalState == STARTED. Does nothing otherwise. ">
<polygon fill="white" stroke="black" points="239.5,-0 239.5,-30 346.5,-30 346.5,-0 239.5,-0"/>
<text text-anchor="start" x="247.5" y="-18" font-family="Helvetica,sans-Serif" font-size="10.00">fwServices::IService</text>
<text text-anchor="middle" x="293" y="-7" font-family="Helvetica,sans-Serif" font-size="10.00">::update</text>
</a>
</g>
</g>
<!-- Node1&#45;&gt;Node8 -->
<g id="edge7" class="edge"><title>Node1&#45;&gt;Node8</title>
<path fill="none" stroke="midnightblue" d="M130.683,-67.9929C161.892,-57.7407 203.428,-44.0963 236.536,-33.2201"/>
<polygon fill="midnightblue" stroke="midnightblue" points="237.668,-36.5323 246.076,-30.0861 235.483,-29.882 237.668,-36.5323"/>
</g>
<!-- Node10 -->
<g id="node10" class="node"><title>Node10</title>
<g id="a_node10"><a xlink:href="classscene2D_1_1adaptor_1_1SViewportRangeSelector.html#adbeb4447cbbc11e12f0e2505868f83f0" target="_top" xlink:title="scene2D::adaptor::SViewport\lRangeSelector::updateViewportFrom\lShutter">
<polygon fill="white" stroke="black" points="204.5,-87.5 204.5,-128.5 381.5,-128.5 381.5,-87.5 204.5,-87.5"/>
<text text-anchor="start" x="212.5" y="-116.5" font-family="Helvetica,sans-Serif" font-size="10.00">scene2D::adaptor::SViewport</text>
<text text-anchor="start" x="212.5" y="-105.5" font-family="Helvetica,sans-Serif" font-size="10.00">RangeSelector::updateViewportFrom</text>
<text text-anchor="middle" x="293" y="-94.5" font-family="Helvetica,sans-Serif" font-size="10.00">Shutter</text>
</a>
</g>
</g>
<!-- Node1&#45;&gt;Node10 -->
<g id="edge9" class="edge"><title>Node1&#45;&gt;Node10</title>
<path fill="none" stroke="midnightblue" d="M167.704,-92.9884C176.459,-94.0458 185.421,-95.1281 194.325,-96.2035"/>
<polygon fill="midnightblue" stroke="midnightblue" points="193.992,-99.6886 204.339,-97.413 194.831,-92.7391 193.992,-99.6886"/>
</g>
<!-- Node3 -->
<g id="node3" class="node"><title>Node3</title>
<g id="a_node3"><a xlink:href="classfwTools_1_1fwID.html#a387264565a48b0231a7eefb7b01512a1" target="_top" xlink:title="Returns the id of the object. If it is not set and the policy value is. ">
<polygon fill="white" stroke="black" points="611,-166.5 611,-185.5 719,-185.5 719,-166.5 611,-166.5"/>
<text text-anchor="middle" x="665" y="-173.5" font-family="Helvetica,sans-Serif" font-size="10.00">fwTools::fwID::getID</text>
</a>
</g>
</g>
<!-- Node2&#45;&gt;Node3 -->
<g id="edge2" class="edge"><title>Node2&#45;&gt;Node3</title>
<path fill="none" stroke="midnightblue" d="M548.047,-163.116C564.86,-164.984 583.48,-167.053 600.79,-168.977"/>
<polygon fill="midnightblue" stroke="midnightblue" points="600.481,-172.464 610.806,-170.09 601.254,-165.507 600.481,-172.464"/>
</g>
<!-- Node6 -->
<g id="node6" class="node"><title>Node6</title>
<g id="a_node6"><a xlink:href="classfwTools_1_1fwID.html#a49c219235064892bb906498913fe8175" target="_top" xlink:title="Retrieve the object attached to the given id. Return a null sptr if no correspondence exist...">
<polygon fill="white" stroke="black" points="602,-128.5 602,-147.5 728,-147.5 728,-128.5 602,-128.5"/>
<text text-anchor="middle" x="665" y="-135.5" font-family="Helvetica,sans-Serif" font-size="10.00">fwTools::fwID::getObject</text>
</a>
</g>
</g>
<!-- Node2&#45;&gt;Node6 -->
<g id="edge5" class="edge"><title>Node2&#45;&gt;Node6</title>
<path fill="none" stroke="midnightblue" d="M548.047,-150.884C562.008,-149.332 577.216,-147.643 591.885,-146.013"/>
<polygon fill="midnightblue" stroke="midnightblue" points="592.38,-149.479 601.933,-144.896 591.607,-142.522 592.38,-149.479"/>
</g>
<!-- Node4 -->
<g id="node4" class="node"><title>Node4</title>
<g id="a_node4"><a xlink:href="classfwTools_1_1fwID.html#a4ac18bb9c046c3fd04a4c8a80add7ae6" target="_top" xlink:title="fwTools::fwID::exist">
<polygon fill="white" stroke="black" points="785.5,-185.5 785.5,-204.5 890.5,-204.5 890.5,-185.5 785.5,-185.5"/>
<text text-anchor="middle" x="838" y="-192.5" font-family="Helvetica,sans-Serif" font-size="10.00">fwTools::fwID::exist</text>
</a>
</g>
</g>
<!-- Node3&#45;&gt;Node4 -->
<g id="edge3" class="edge"><title>Node3&#45;&gt;Node4</title>
<path fill="none" stroke="midnightblue" d="M719.168,-181.908C736.954,-183.884 756.928,-186.103 775.307,-188.145"/>
<polygon fill="midnightblue" stroke="midnightblue" points="775.005,-191.633 785.33,-189.259 775.778,-184.676 775.005,-191.633"/>
</g>
<!-- Node5 -->
<g id="node5" class="node"><title>Node5</title>
<g id="a_node5"><a xlink:href="classfwTools_1_1fwID.html#a03d6d0e2227b51a0630e145911445213" target="_top" xlink:title="return full object&#39;s classname with its namespace, i.e. fwCore::BaseObject ">
<polygon fill="white" stroke="black" points="764.5,-147.5 764.5,-166.5 911.5,-166.5 911.5,-147.5 764.5,-147.5"/>
<text text-anchor="middle" x="838" y="-154.5" font-family="Helvetica,sans-Serif" font-size="10.00">fwTools::fwID::getClassname</text>
</a>
</g>
</g>
<!-- Node3&#45;&gt;Node5 -->
<g id="edge4" class="edge"><title>Node3&#45;&gt;Node5</title>
<path fill="none" stroke="midnightblue" d="M719.168,-170.092C730.351,-168.85 742.399,-167.511 754.372,-166.181"/>
<polygon fill="midnightblue" stroke="midnightblue" points="754.839,-169.651 764.392,-165.068 754.066,-162.693 754.839,-169.651"/>
</g>
<!-- Node9 -->
<g id="node9" class="node"><title>Node9</title>
<g id="a_node9"><a xlink:href="namespacefwThread.html#aaf7b51e7215e6034e76893de2ace31e2" target="_top" xlink:title="Returns the current thread id. ">
<polygon fill="white" stroke="black" points="418.5,-5.5 418.5,-24.5 565.5,-24.5 565.5,-5.5 418.5,-5.5"/>
<text text-anchor="middle" x="492" y="-12.5" font-family="Helvetica,sans-Serif" font-size="10.00">fwThread::getCurrentThreadId</text>
</a>
</g>
</g>
<!-- Node8&#45;&gt;Node9 -->
<g id="edge8" class="edge"><title>Node8&#45;&gt;Node9</title>
<path fill="none" stroke="midnightblue" d="M346.534,-15C365.438,-15 387.255,-15 408.114,-15"/>
<polygon fill="midnightblue" stroke="midnightblue" points="408.259,-18.5001 418.259,-15 408.259,-11.5001 408.259,-18.5001"/>
</g>
<!-- Node10&#45;&gt;Node2 -->
<g id="edge11" class="edge"><title>Node10&#45;&gt;Node2</title>
<path fill="none" stroke="midnightblue" d="M376.689,-128.567C393.101,-132.649 410.113,-136.881 425.84,-140.793"/>
<polygon fill="midnightblue" stroke="midnightblue" points="425.421,-144.295 435.97,-143.312 427.111,-137.502 425.421,-144.295"/>
</g>
<!-- Node10&#45;&gt;Node7 -->
<g id="edge12" class="edge"><title>Node10&#45;&gt;Node7</title>
<path fill="none" stroke="midnightblue" d="M376.689,-87.4326C392.755,-83.4365 409.397,-79.2972 424.845,-75.4548"/>
<polygon fill="midnightblue" stroke="midnightblue" points="425.947,-78.7875 434.806,-72.9771 424.257,-71.9945 425.947,-78.7875"/>
</g>
<!-- Node11 -->
<g id="node11" class="node"><title>Node11</title>
<g id="a_node11"><a xlink:href="classfwRenderQt_1_1IAdaptor.html#a26ecbf727f6351329041a3e17eb44065" target="_top" xlink:title="fwRenderQt::IAdaptor\l::mapSceneToAdaptor">
<polygon fill="white" stroke="black" points="435,-93 435,-123 549,-123 549,-93 435,-93"/>
<text text-anchor="start" x="443" y="-111" font-family="Helvetica,sans-Serif" font-size="10.00">fwRenderQt::IAdaptor</text>
<text text-anchor="middle" x="492" y="-100" font-family="Helvetica,sans-Serif" font-size="10.00">::mapSceneToAdaptor</text>
</a>
</g>
</g>
<!-- Node10&#45;&gt;Node11 -->
<g id="edge10" class="edge"><title>Node10&#45;&gt;Node11</title>
<path fill="none" stroke="midnightblue" d="M381.554,-108C395.967,-108 410.695,-108 424.486,-108"/>
<polygon fill="midnightblue" stroke="midnightblue" points="424.828,-111.5 434.828,-108 424.828,-104.5 424.828,-111.5"/>
</g>
</g>
</svg>
