<?xml version="1.0" encoding="UTF-8" standalone="no"?>
<!DOCTYPE svg PUBLIC "-//W3C//DTD SVG 1.1//EN"
 "http://www.w3.org/Graphics/SVG/1.1/DTD/svg11.dtd">
<!-- Generated by graphviz version 2.36.0 (20140111.2315)
 -->
<!-- Title: opImageFilter::SThreshold Pages: 1 -->
<svg width="1910pt" height="346pt"
 viewBox="0.00 0.00 1910.00 346.00" xmlns="http://www.w3.org/2000/svg" xmlns:xlink="http://www.w3.org/1999/xlink">
<g id="graph0" class="graph" transform="scale(1 1) rotate(0) translate(4 342)">
<title>opImageFilter::SThreshold</title>
<polygon fill="white" stroke="none" points="-4,4 -4,-342 1906,-342 1906,4 -4,4"/>
<!-- Node1 -->
<g id="node1" class="node"><title>Node1</title>
<polygon fill="#bfbfbf" stroke="black" points="1770.5,-0.5 1770.5,-19.5 1901.5,-19.5 1901.5,-0.5 1770.5,-0.5"/>
<text text-anchor="middle" x="1836" y="-7.5" font-family="Helvetica,sans-Serif" font-size="10.00">opImageFilter::SThreshold</text>
</g>
<!-- Node2 -->
<g id="node2" class="node"><title>Node2</title>
<g id="a_node2"><a xlink:href="classfwServices_1_1IOperator.html" target="_top" xlink:title="This interface defines operator service API. ">
<polygon fill="white" stroke="black" points="1620,-0.5 1620,-19.5 1732,-19.5 1732,-0.5 1620,-0.5"/>
<text text-anchor="middle" x="1676" y="-7.5" font-family="Helvetica,sans-Serif" font-size="10.00">fwServices::IOperator</text>
</a>
</g>
</g>
<!-- Node2&#45;&gt;Node1 -->
<g id="edge1" class="edge"><title>Node2&#45;&gt;Node1</title>
<path fill="none" stroke="midnightblue" d="M1742.5,-10C1751.68,-10 1761.12,-10 1770.29,-10"/>
<polygon fill="midnightblue" stroke="midnightblue" points="1742.26,-6.5001 1732.26,-10 1742.26,-13.5001 1742.26,-6.5001"/>
</g>
<!-- Node3 -->
<g id="node3" class="node"><title>Node3</title>
<g id="a_node3"><a xlink:href="classfwServices_1_1IParametersService.html" target="_top" xlink:title="This interface defines a basic slots to receive parameter values from signals. ">
<polygon fill="white" stroke="black" points="1424,-29.5 1424,-48.5 1582,-48.5 1582,-29.5 1424,-29.5"/>
<text text-anchor="middle" x="1503" y="-36.5" font-family="Helvetica,sans-Serif" font-size="10.00">fwServices::IParametersService</text>
</a>
</g>
</g>
<!-- Node3&#45;&gt;Node2 -->
<g id="edge2" class="edge"><title>Node3&#45;&gt;Node2</title>
<path fill="none" stroke="midnightblue" d="M1570.47,-27.7276C1586.77,-24.9627 1604.05,-22.0329 1619.76,-19.3685"/>
<polygon fill="midnightblue" stroke="midnightblue" points="1569.74,-24.3011 1560.47,-29.4239 1570.91,-31.2026 1569.74,-24.3011"/>
</g>
<!-- Node4 -->
<g id="node4" class="node"><title>Node4</title>
<g id="a_node4"><a xlink:href="classfwServices_1_1IService.html" target="_top" xlink:title="Base class for all services. ">
<polygon fill="white" stroke="black" points="1149.5,-244.5 1149.5,-263.5 1256.5,-263.5 1256.5,-244.5 1149.5,-244.5"/>
<text text-anchor="middle" x="1203" y="-251.5" font-family="Helvetica,sans-Serif" font-size="10.00">fwServices::IService</text>
</a>
</g>
</g>
<!-- Node4&#45;&gt;Node3 -->
<g id="edge3" class="edge"><title>Node4&#45;&gt;Node3</title>
<path fill="none" stroke="midnightblue" d="M1266.17,-241.658C1275.79,-238.558 1285.39,-234.725 1294,-230 1385.99,-179.543 1469.53,-79.9746 1494.47,-48.6619"/>
<polygon fill="midnightblue" stroke="midnightblue" points="1265.16,-238.308 1256.57,-244.519 1267.15,-245.017 1265.16,-238.308"/>
</g>
<!-- Node5 -->
<g id="node5" class="node"><title>Node5</title>
<g id="a_node5"><a xlink:href="classfwTools_1_1Object.html" target="_top" xlink:title="Define Base class for FW4SPL objects and services. ">
<polygon fill="white" stroke="black" points="879,-187.5 879,-206.5 965,-206.5 965,-187.5 879,-187.5"/>
<text text-anchor="middle" x="922" y="-194.5" font-family="Helvetica,sans-Serif" font-size="10.00">fwTools::Object</text>
</a>
</g>
</g>
<!-- Node5&#45;&gt;Node4 -->
<g id="edge4" class="edge"><title>Node5&#45;&gt;Node4</title>
<path fill="none" stroke="midnightblue" d="M975.054,-207.635C1026.85,-218.216 1105.59,-234.304 1155.39,-244.478"/>
<polygon fill="midnightblue" stroke="midnightblue" points="975.569,-204.168 965.071,-205.595 974.168,-211.026 975.569,-204.168"/>
</g>
<!-- Node6 -->
<g id="node6" class="node"><title>Node6</title>
<g id="a_node6"><a xlink:href="classfwCore_1_1BaseObject.html" target="_top" xlink:title="Base class for all FW4SPL&#39;s classes. ">
<polygon fill="white" stroke="black" points="680.5,-130.5 680.5,-149.5 785.5,-149.5 785.5,-130.5 680.5,-130.5"/>
<text text-anchor="middle" x="733" y="-137.5" font-family="Helvetica,sans-Serif" font-size="10.00">fwCore::BaseObject</text>
</a>
</g>
</g>
<!-- Node6&#45;&gt;Node5 -->
<g id="edge5" class="edge"><title>Node6&#45;&gt;Node5</title>
<path fill="none" stroke="midnightblue" d="M775.075,-152.52C809.574,-163.036 858.143,-177.84 889.598,-187.428"/>
<polygon fill="midnightblue" stroke="midnightblue" points="775.886,-149.108 765.3,-149.541 773.845,-155.804 775.886,-149.108"/>
</g>
<!-- Node7 -->
<g id="node7" class="node"><title>Node7</title>
<polygon fill="white" stroke="#bfbfbf" points="449.5,-125 449.5,-155 580.5,-155 580.5,-125 449.5,-125"/>
<text text-anchor="start" x="457.5" y="-143" font-family="Helvetica,sans-Serif" font-size="10.00">std::enable_shared</text>
<text text-anchor="middle" x="515" y="-132" font-family="Helvetica,sans-Serif" font-size="10.00">_from_this&lt; BaseObject &gt;</text>
</g>
<!-- Node7&#45;&gt;Node6 -->
<g id="edge6" class="edge"><title>Node7&#45;&gt;Node6</title>
<path fill="none" stroke="midnightblue" d="M590.81,-140C620.398,-140 653.667,-140 680.475,-140"/>
<polygon fill="midnightblue" stroke="midnightblue" points="590.515,-136.5 580.515,-140 590.515,-143.5 590.515,-136.5"/>
</g>
<!-- Node8 -->
<g id="node8" class="node"><title>Node8</title>
<polygon fill="white" stroke="#bfbfbf" points="697.5,-206.5 697.5,-225.5 768.5,-225.5 768.5,-206.5 697.5,-206.5"/>
<text text-anchor="middle" x="733" y="-213.5" font-family="Helvetica,sans-Serif" font-size="10.00">noncopyable</text>
</g>
<!-- Node8&#45;&gt;Node5 -->
<g id="edge7" class="edge"><title>Node8&#45;&gt;Node5</title>
<path fill="none" stroke="midnightblue" d="M779.051,-211.423C809.415,-208.338 849.199,-204.295 878.922,-201.275"/>
<polygon fill="midnightblue" stroke="midnightblue" points="778.33,-207.978 768.735,-212.471 779.038,-214.942 778.33,-207.978"/>
</g>
<!-- Node9 -->
<g id="node9" class="node"><title>Node9</title>
<g id="a_node9"><a xlink:href="classfwTools_1_1fwID.html" target="_top" xlink:title="Defines ID for fwTools::Object. It is used to associate ID with object. ">
<polygon fill="white" stroke="black" points="694,-168.5 694,-187.5 772,-187.5 772,-168.5 694,-168.5"/>
<text text-anchor="middle" x="733" y="-175.5" font-family="Helvetica,sans-Serif" font-size="10.00">fwTools::fwID</text>
</a>
</g>
</g>
<!-- Node9&#45;&gt;Node5 -->
<g id="edge8" class="edge"><title>Node9&#45;&gt;Node5</title>
<path fill="none" stroke="darkgreen" d="M782.49,-182.927C812.347,-185.96 850.246,-189.811 878.85,-192.717"/>
<polygon fill="darkgreen" stroke="darkgreen" points="782.596,-179.42 772.293,-181.891 781.888,-186.384 782.596,-179.42"/>
</g>
<!-- Node10 -->
<g id="node10" class="node"><title>Node10</title>
<g id="a_node10"><a xlink:href="classfwCom_1_1HasSlots.html" target="_top" xlink:title="This class proposes a mapping between a SlotKeyType and a SlotBase. ">
<polygon fill="white" stroke="black" points="874.5,-244.5 874.5,-263.5 969.5,-263.5 969.5,-244.5 874.5,-244.5"/>
<text text-anchor="middle" x="922" y="-251.5" font-family="Helvetica,sans-Serif" font-size="10.00">fwCom::HasSlots</text>
</a>
</g>
</g>
<!-- Node10&#45;&gt;Node4 -->
<g id="edge9" class="edge"><title>Node10&#45;&gt;Node4</title>
<path fill="none" stroke="midnightblue" d="M979.951,-254C1029.63,-254 1101.11,-254 1149.44,-254"/>
<polygon fill="midnightblue" stroke="midnightblue" points="979.698,-250.5 969.698,-254 979.698,-257.5 979.698,-250.5"/>
</g>
<!-- Node11 -->
<g id="node11" class="node"><title>Node11</title>
<g id="a_node11"><a xlink:href="classfwCom_1_1Slots.html" target="_top" xlink:title="This class proposes a mapping between a SlotKeyType and a SlotBase. ">
<polygon fill="white" stroke="black" points="694.5,-244.5 694.5,-263.5 771.5,-263.5 771.5,-244.5 694.5,-244.5"/>
<text text-anchor="middle" x="733" y="-251.5" font-family="Helvetica,sans-Serif" font-size="10.00">fwCom::Slots</text>
</a>
</g>
</g>
<!-- Node11&#45;&gt;Node10 -->
<g id="edge10" class="edge"><title>Node11&#45;&gt;Node10</title>
<path fill="none" stroke="#9a32cd" stroke-dasharray="5,2" d="M781.933,-254C810.309,-254 846.096,-254 874.261,-254"/>
<polygon fill="#9a32cd" stroke="#9a32cd" points="781.842,-250.5 771.842,-254 781.842,-257.5 781.842,-250.5"/>
<text text-anchor="middle" x="828" y="-257" font-family="Helvetica,sans-Serif" font-size="10.00"> m_slots</text>
</g>
<!-- Node12 -->
<g id="node12" class="node"><title>Node12</title>
<polygon fill="white" stroke="#bfbfbf" points="439,-238 439,-268 591,-268 591,-238 439,-238"/>
<text text-anchor="start" x="447" y="-256" font-family="Helvetica,sans-Serif" font-size="10.00">std::map&lt; SlotKeyType,</text>
<text text-anchor="middle" x="515" y="-245" font-family="Helvetica,sans-Serif" font-size="10.00"> std::shared_ptr&lt; SlotBase &gt; &gt;</text>
</g>
<!-- Node12&#45;&gt;Node11 -->
<g id="edge11" class="edge"><title>Node12&#45;&gt;Node11</title>
<path fill="none" stroke="#9a32cd" stroke-dasharray="5,2" d="M601.573,-253.396C633.736,-253.545 668.676,-253.707 694.29,-253.825"/>
<polygon fill="#9a32cd" stroke="#9a32cd" points="601.259,-249.895 591.243,-253.348 601.227,-256.895 601.259,-249.895"/>
<text text-anchor="middle" x="638" y="-256" font-family="Helvetica,sans-Serif" font-size="10.00"> m_slots</text>
</g>
<!-- Node13 -->
<g id="node13" class="node"><title>Node13</title>
<g id="a_node13"><a xlink:title="STL class. ">
<polygon fill="white" stroke="#bfbfbf" points="192,-313.5 192,-332.5 252,-332.5 252,-313.5 192,-313.5"/>
<text text-anchor="middle" x="222" y="-320.5" font-family="Helvetica,sans-Serif" font-size="10.00">std::string</text>
</a>
</g>
</g>
<!-- Node13&#45;&gt;Node12 -->
<g id="edge12" class="edge"><title>Node13&#45;&gt;Node12</title>
<path fill="none" stroke="#9a32cd" stroke-dasharray="5,2" d="M262.031,-311.073C269.922,-308.881 278.193,-306.739 286,-305 343.126,-292.272 359.164,-297.966 416,-284 424.189,-281.988 425.975,-280.591 434,-278 444.109,-274.736 454.957,-271.301 465.302,-268.057"/>
<polygon fill="#9a32cd" stroke="#9a32cd" points="260.958,-307.74 252.302,-313.85 262.879,-314.471 260.958,-307.74"/>
<text text-anchor="middle" x="351" y="-308" font-family="Helvetica,sans-Serif" font-size="10.00"> keys</text>
</g>
<!-- Node20 -->
<g id="node20" class="node"><title>Node20</title>
<polygon fill="white" stroke="#bfbfbf" points="434.5,-287 434.5,-317 595.5,-317 595.5,-287 434.5,-287"/>
<text text-anchor="start" x="442.5" y="-305" font-family="Helvetica,sans-Serif" font-size="10.00">std::map&lt; SignalKeyType,</text>
<text text-anchor="middle" x="515" y="-294" font-family="Helvetica,sans-Serif" font-size="10.00"> std::shared_ptr&lt; SignalBase &gt; &gt;</text>
</g>
<!-- Node13&#45;&gt;Node20 -->
<g id="edge20" class="edge"><title>Node13&#45;&gt;Node20</title>
<path fill="none" stroke="#9a32cd" stroke-dasharray="5,2" d="M262.578,-323.543C301.658,-323.711 363.078,-322.982 416,-318 422.007,-317.434 428.204,-316.724 434.425,-315.92"/>
<polygon fill="#9a32cd" stroke="#9a32cd" points="262.197,-320.041 252.174,-323.475 262.151,-327.041 262.197,-320.041"/>
<text text-anchor="middle" x="351" y="-326" font-family="Helvetica,sans-Serif" font-size="10.00"> keys</text>
</g>
<!-- Node14 -->
<g id="node14" class="node"><title>Node14</title>
<g id="a_node14"><a xlink:title="STL class. ">
<polygon fill="white" stroke="#bfbfbf" points="0.5,-308 0.5,-338 95.5,-338 95.5,-308 0.5,-308"/>
<text text-anchor="start" x="8.5" y="-326" font-family="Helvetica,sans-Serif" font-size="10.00">std::basic_string&lt;</text>
<text text-anchor="middle" x="48" y="-315" font-family="Helvetica,sans-Serif" font-size="10.00"> char &gt;</text>
</a>
</g>
</g>
<!-- Node14&#45;&gt;Node13 -->
<g id="edge13" class="edge"><title>Node14&#45;&gt;Node13</title>
<path fill="none" stroke="midnightblue" d="M105.913,-323C134.736,-323 168.5,-323 191.972,-323"/>
<polygon fill="midnightblue" stroke="midnightblue" points="105.546,-319.5 95.5457,-323 105.546,-326.5 105.546,-319.5"/>
</g>
<!-- Node15 -->
<g id="node15" class="node"><title>Node15</title>
<g id="a_node15"><a xlink:title="STL class. ">
<polygon fill="white" stroke="#bfbfbf" points="176,-224.5 176,-243.5 268,-243.5 268,-224.5 176,-224.5"/>
<text text-anchor="middle" x="222" y="-231.5" font-family="Helvetica,sans-Serif" font-size="10.00">std::map&lt; K, T &gt;</text>
</a>
</g>
</g>
<!-- Node15&#45;&gt;Node12 -->
<g id="edge14" class="edge"><title>Node15&#45;&gt;Node12</title>
<path fill="none" stroke="orange" stroke-dasharray="5,2" d="M261.89,-221.795C269.792,-219.801 278.104,-218.047 286,-217 343.277,-209.408 359.115,-206.882 416,-217 438.664,-221.031 462.959,-229.922 481.69,-237.86"/>
<polygon fill="orange" stroke="orange" points="260.907,-218.435 252.16,-224.414 262.726,-225.194 260.907,-218.435"/>
<text text-anchor="start" x="291.5" y="-231" font-family="Helvetica,sans-Serif" font-size="10.00"> &lt; SlotKeyType, std</text>
<text text-anchor="middle" x="351" y="-220" font-family="Helvetica,sans-Serif" font-size="10.00">::shared_ptr&lt; SlotBase &gt; &gt;</text>
</g>
<!-- Node15&#45;&gt;Node20 -->
<g id="edge21" class="edge"><title>Node15&#45;&gt;Node20</title>
<path fill="none" stroke="orange" stroke-dasharray="5,2" d="M278.25,-238.648C326.357,-243.306 392.038,-251.316 416,-262 425.511,-266.241 424.855,-272.018 434,-277 440.9,-280.759 448.449,-284.044 456.066,-286.889"/>
<polygon fill="orange" stroke="orange" points="278.558,-235.162 268.273,-237.706 277.899,-242.131 278.558,-235.162"/>
<text text-anchor="start" x="286.5" y="-276" font-family="Helvetica,sans-Serif" font-size="10.00"> &lt; SignalKeyType, std</text>
<text text-anchor="middle" x="351" y="-265" font-family="Helvetica,sans-Serif" font-size="10.00">::shared_ptr&lt; SignalBase &gt; &gt;</text>
</g>
<!-- Node16 -->
<g id="node16" class="node"><title>Node16</title>
<polygon fill="white" stroke="#bfbfbf" points="33.5,-252.5 33.5,-271.5 62.5,-271.5 62.5,-252.5 33.5,-252.5"/>
<text text-anchor="middle" x="48" y="-259.5" font-family="Helvetica,sans-Serif" font-size="10.00">K</text>
</g>
<!-- Node16&#45;&gt;Node15 -->
<g id="edge15" class="edge"><title>Node16&#45;&gt;Node15</title>
<path fill="none" stroke="#9a32cd" stroke-dasharray="5,2" d="M72.7041,-258.141C99.2271,-253.823 142.808,-246.729 175.879,-241.345"/>
<polygon fill="#9a32cd" stroke="#9a32cd" points="72.0924,-254.695 62.7847,-259.756 73.2172,-261.604 72.0924,-254.695"/>
<text text-anchor="middle" x="136" y="-254" font-family="Helvetica,sans-Serif" font-size="10.00"> keys</text>
</g>
<!-- Node17 -->
<g id="node17" class="node"><title>Node17</title>
<polygon fill="white" stroke="#bfbfbf" points="33.5,-214.5 33.5,-233.5 62.5,-233.5 62.5,-214.5 33.5,-214.5"/>
<text text-anchor="middle" x="48" y="-221.5" font-family="Helvetica,sans-Serif" font-size="10.00">T</text>
</g>
<!-- Node17&#45;&gt;Node15 -->
<g id="edge16" class="edge"><title>Node17&#45;&gt;Node15</title>
<path fill="none" stroke="#9a32cd" stroke-dasharray="5,2" d="M72.8957,-224.867C94.9877,-225.722 128.725,-227.167 158,-229 163.804,-229.363 169.905,-229.791 175.931,-230.24"/>
<polygon fill="#9a32cd" stroke="#9a32cd" points="72.8983,-221.364 62.7733,-224.484 72.634,-228.359 72.8983,-221.364"/>
<text text-anchor="middle" x="136" y="-232" font-family="Helvetica,sans-Serif" font-size="10.00"> elements</text>
</g>
<!-- Node18 -->
<g id="node18" class="node"><title>Node18</title>
<g id="a_node18"><a xlink:href="classfwCom_1_1HasSignals.html" target="_top" xlink:title="This class proposes a mapping between a SignalKeyType and a SignalBase. ">
<polygon fill="white" stroke="black" points="870,-285.5 870,-304.5 974,-304.5 974,-285.5 870,-285.5"/>
<text text-anchor="middle" x="922" y="-292.5" font-family="Helvetica,sans-Serif" font-size="10.00">fwCom::HasSignals</text>
</a>
</g>
</g>
<!-- Node18&#45;&gt;Node4 -->
<g id="edge17" class="edge"><title>Node18&#45;&gt;Node4</title>
<path fill="none" stroke="midnightblue" d="M984.088,-286.023C1033.47,-278.767 1102.26,-268.658 1149.26,-261.751"/>
<polygon fill="midnightblue" stroke="midnightblue" points="983.558,-282.563 974.173,-287.48 984.576,-289.489 983.558,-282.563"/>
</g>
<!-- Node19 -->
<g id="node19" class="node"><title>Node19</title>
<g id="a_node19"><a xlink:href="classfwCom_1_1Signals.html" target="_top" xlink:title="This class proposes a mapping between a SignalKeyType and a SignalBase. ">
<polygon fill="white" stroke="black" points="690,-291.5 690,-310.5 776,-310.5 776,-291.5 690,-291.5"/>
<text text-anchor="middle" x="733" y="-298.5" font-family="Helvetica,sans-Serif" font-size="10.00">fwCom::Signals</text>
</a>
</g>
</g>
<!-- Node19&#45;&gt;Node18 -->
<g id="edge18" class="edge"><title>Node19&#45;&gt;Node18</title>
<path fill="none" stroke="#9a32cd" stroke-dasharray="5,2" d="M786.499,-299.316C812.543,-298.48 843.878,-297.475 869.749,-296.644"/>
<polygon fill="#9a32cd" stroke="#9a32cd" points="786.316,-295.82 776.433,-299.639 786.54,-302.816 786.316,-295.82"/>
<text text-anchor="middle" x="828" y="-301" font-family="Helvetica,sans-Serif" font-size="10.00"> m_signals</text>
</g>
<!-- Node20&#45;&gt;Node19 -->
<g id="edge19" class="edge"><title>Node20&#45;&gt;Node19</title>
<path fill="none" stroke="#9a32cd" stroke-dasharray="5,2" d="M605.74,-301.585C634.917,-301.449 665.926,-301.306 689.911,-301.195"/>
<polygon fill="#9a32cd" stroke="#9a32cd" points="605.494,-298.086 595.51,-301.632 605.526,-305.085 605.494,-298.086"/>
<text text-anchor="middle" x="638" y="-304" font-family="Helvetica,sans-Serif" font-size="10.00"> m_signals</text>
</g>
<!-- Node21 -->
<g id="node21" class="node"><title>Node21</title>
<polygon fill="white" stroke="#bfbfbf" points="901.5,-29.5 901.5,-48.5 942.5,-48.5 942.5,-29.5 901.5,-29.5"/>
<text text-anchor="middle" x="922" y="-36.5" font-family="Helvetica,sans-Serif" font-size="10.00">static</text>
</g>
<!-- Node21&#45;&gt;Node2 -->
<g id="edge24" class="edge"><title>Node21&#45;&gt;Node2</title>
<path fill="none" stroke="#9a32cd" stroke-dasharray="5,2" d="M952.708,-37.1388C964.882,-36.4122 979.114,-35.6093 992,-35 1225.19,-23.9741 1503.38,-15.1293 1619.65,-11.6258"/>
<polygon fill="#9a32cd" stroke="#9a32cd" points="952.393,-33.6513 942.624,-37.7508 952.817,-40.6385 952.393,-33.6513"/>
<text text-anchor="middle" x="1359" y="-25" font-family="Helvetica,sans-Serif" font-size="10.00"> s_COMPUTED_SIG</text>
</g>
<!-- Node21&#45;&gt;Node3 -->
<g id="edge23" class="edge"><title>Node21&#45;&gt;Node3</title>
<path fill="none" stroke="#9a32cd" stroke-dasharray="5,2" d="M952.78,-39C1039.5,-39 1293.93,-39 1423.79,-39"/>
<polygon fill="#9a32cd" stroke="#9a32cd" points="952.596,-35.5001 942.596,-39 952.596,-42.5001 952.596,-35.5001"/>
<text text-anchor="start" x="1112.5" y="-218" font-family="Helvetica,sans-Serif" font-size="10.00"> s_SET_COLOR_PARAMETER</text>
<text text-anchor="middle" x="1203" y="-207" font-family="Helvetica,sans-Serif" font-size="10.00">_SLOT</text>
<text text-anchor="start" x="1112.5" y="-196" font-family="Helvetica,sans-Serif" font-size="10.00">s_SET_ENUM_PARAMETER</text>
<text text-anchor="middle" x="1203" y="-185" font-family="Helvetica,sans-Serif" font-size="10.00">_SLOT</text>
<text text-anchor="start" x="1112.5" y="-174" font-family="Helvetica,sans-Serif" font-size="10.00">s_SET_DOUBLE3_PARAMETER</text>
<text text-anchor="middle" x="1203" y="-163" font-family="Helvetica,sans-Serif" font-size="10.00">_SLOT</text>
<text text-anchor="start" x="1112.5" y="-152" font-family="Helvetica,sans-Serif" font-size="10.00">s_SET_INT_PARAMETER</text>
<text text-anchor="middle" x="1203" y="-141" font-family="Helvetica,sans-Serif" font-size="10.00">_SLOT</text>
<text text-anchor="start" x="1112.5" y="-130" font-family="Helvetica,sans-Serif" font-size="10.00">s_SET_INT2_PARAMETER</text>
<text text-anchor="middle" x="1203" y="-119" font-family="Helvetica,sans-Serif" font-size="10.00">_SLOT</text>
<text text-anchor="start" x="1112.5" y="-108" font-family="Helvetica,sans-Serif" font-size="10.00">s_SET_BOOL_PARAMETER</text>
<text text-anchor="middle" x="1203" y="-97" font-family="Helvetica,sans-Serif" font-size="10.00">_SLOT</text>
<text text-anchor="start" x="1112.5" y="-86" font-family="Helvetica,sans-Serif" font-size="10.00">s_SET_DOUBLE_PARAMETER</text>
<text text-anchor="middle" x="1203" y="-75" font-family="Helvetica,sans-Serif" font-size="10.00">_SLOT</text>
<text text-anchor="start" x="1112.5" y="-64" font-family="Helvetica,sans-Serif" font-size="10.00">s_SET_INT3_PARAMETER</text>
<text text-anchor="middle" x="1203" y="-53" font-family="Helvetica,sans-Serif" font-size="10.00">_SLOT</text>
<text text-anchor="middle" x="1203" y="-42" font-family="Helvetica,sans-Serif" font-size="10.00">s_SET_DOUBLE2_PARAMETER_SLOT</text>
</g>
<!-- Node21&#45;&gt;Node4 -->
<g id="edge22" class="edge"><title>Node21&#45;&gt;Node4</title>
<path fill="none" stroke="#9a32cd" stroke-dasharray="5,2" d="M952.482,-47.4068C996.431,-60.5445 1075.91,-86.8399 1094,-110 1127.2,-152.503 1076.05,-189.796 1112,-230 1121.59,-240.729 1135.39,-246.899 1149.32,-250.383"/>
<polygon fill="#9a32cd" stroke="#9a32cd" points="953.228,-43.978 942.647,-44.5092 951.25,-50.6926 953.228,-43.978"/>
<text text-anchor="middle" x="1043" y="-201" font-family="Helvetica,sans-Serif" font-size="10.00"> s_STOPPED_SIG</text>
<text text-anchor="middle" x="1043" y="-190" font-family="Helvetica,sans-Serif" font-size="10.00">s_UPDATED_SIG</text>
<text text-anchor="middle" x="1043" y="-179" font-family="Helvetica,sans-Serif" font-size="10.00">s_UPDATE_SLOT</text>
<text text-anchor="middle" x="1043" y="-168" font-family="Helvetica,sans-Serif" font-size="10.00">s_STARTED_SIG</text>
<text text-anchor="middle" x="1043" y="-157" font-family="Helvetica,sans-Serif" font-size="10.00">s_SWAPKEY_SLOT</text>
<text text-anchor="middle" x="1043" y="-146" font-family="Helvetica,sans-Serif" font-size="10.00">s_SWAP_SLOT</text>
<text text-anchor="middle" x="1043" y="-135" font-family="Helvetica,sans-Serif" font-size="10.00">s_STOP_SLOT</text>
<text text-anchor="middle" x="1043" y="-124" font-family="Helvetica,sans-Serif" font-size="10.00">s_START_SLOT</text>
<text text-anchor="middle" x="1043" y="-113" font-family="Helvetica,sans-Serif" font-size="10.00">s_DEFAULT_OBJECT</text>
</g>
</g>
</svg>
