<?xml version="1.0" encoding="UTF-8" standalone="no"?>
<!DOCTYPE svg PUBLIC "-//W3C//DTD SVG 1.1//EN"
 "http://www.w3.org/Graphics/SVG/1.1/DTD/svg11.dtd">
<!-- Generated by graphviz version 2.36.0 (20140111.2315)
 -->
<!-- Title: fwTools::ProgressToLogger Pages: 1 -->
<svg width="231pt" height="176pt"
 viewBox="0.00 0.00 231.00 176.00" xmlns="http://www.w3.org/2000/svg" xmlns:xlink="http://www.w3.org/1999/xlink">
<g id="graph0" class="graph" transform="scale(1 1) rotate(0) translate(4 172)">
<title>fwTools::ProgressToLogger</title>
<polygon fill="white" stroke="none" points="-4,4 -4,-172 227,-172 227,4 -4,4"/>
<!-- Node1 -->
<g id="node1" class="node"><title>Node1</title>
<polygon fill="#bfbfbf" stroke="black" points="31.5,-0.5 31.5,-19.5 168.5,-19.5 168.5,-0.5 31.5,-0.5"/>
<text text-anchor="middle" x="100" y="-7.5" font-family="Helvetica,sans-Serif" font-size="10.00">fwTools::ProgressToLogger</text>
</g>
<!-- Node2 -->
<g id="node2" class="node"><title>Node2</title>
<polygon fill="white" stroke="#bfbfbf" points="0,-78.5 0,-97.5 128,-97.5 128,-78.5 0,-78.5"/>
<text text-anchor="middle" x="64" y="-85.5" font-family="Helvetica,sans-Serif" font-size="10.00">boost::signals2::trackable</text>
</g>
<!-- Node2&#45;&gt;Node1 -->
<g id="edge1" class="edge"><title>Node2&#45;&gt;Node1</title>
<path fill="none" stroke="midnightblue" d="M72.4687,-69.1216C79.8543,-53.5297 90.2487,-31.5862 95.9185,-19.6165"/>
<polygon fill="midnightblue" stroke="midnightblue" points="69.2475,-67.7461 68.1297,-78.2818 75.5737,-70.7428 69.2475,-67.7461"/>
</g>
<!-- Node3 -->
<g id="node3" class="node"><title>Node3</title>
<g id="a_node3"><a xlink:title="STL class. ">
<polygon fill="white" stroke="#bfbfbf" points="146,-78.5 146,-97.5 206,-97.5 206,-78.5 146,-78.5"/>
<text text-anchor="middle" x="176" y="-85.5" font-family="Helvetica,sans-Serif" font-size="10.00">std::string</text>
</a>
</g>
</g>
<!-- Node3&#45;&gt;Node1 -->
<g id="edge2" class="edge"><title>Node3&#45;&gt;Node1</title>
<path fill="none" stroke="#9a32cd" stroke-dasharray="5,2" d="M159.875,-70.875C144.216,-55.2161 121.042,-32.0422 108.616,-19.6165"/>
<polygon fill="#9a32cd" stroke="#9a32cd" points="157.736,-73.6856 167.282,-78.2818 162.686,-68.7359 157.736,-73.6856"/>
<text text-anchor="middle" x="168.5" y="-52" font-family="Helvetica,sans-Serif" font-size="10.00"> m_prefix</text>
<text text-anchor="middle" x="168.5" y="-41" font-family="Helvetica,sans-Serif" font-size="10.00">m_postfix</text>
</g>
<!-- Node4 -->
<g id="node4" class="node"><title>Node4</title>
<g id="a_node4"><a xlink:title="STL class. ">
<polygon fill="white" stroke="#bfbfbf" points="128.5,-137 128.5,-167 223.5,-167 223.5,-137 128.5,-137"/>
<text text-anchor="start" x="136.5" y="-155" font-family="Helvetica,sans-Serif" font-size="10.00">std::basic_string&lt;</text>
<text text-anchor="middle" x="176" y="-144" font-family="Helvetica,sans-Serif" font-size="10.00"> char &gt;</text>
</a>
</g>
</g>
<!-- Node4&#45;&gt;Node3 -->
<g id="edge3" class="edge"><title>Node4&#45;&gt;Node3</title>
<path fill="none" stroke="midnightblue" d="M176,-126.871C176,-116.663 176,-105.408 176,-97.8419"/>
<polygon fill="midnightblue" stroke="midnightblue" points="172.5,-126.931 176,-136.931 179.5,-126.931 172.5,-126.931"/>
</g>
</g>
</svg>
