<?xml version="1.0" encoding="UTF-8" standalone="no"?>
<!DOCTYPE svg PUBLIC "-//W3C//DTD SVG 1.1//EN"
 "http://www.w3.org/Graphics/SVG/1.1/DTD/svg11.dtd">
<!-- Generated by graphviz version 2.26.3 (20100126.1600)
 -->
<!-- Title: fwCom::HasSignals Pages: 1 -->
<svg width="264pt" height="358pt"
 viewBox="0.00 0.00 264.00 358.00" xmlns="http://www.w3.org/2000/svg" xmlns:xlink="http://www.w3.org/1999/xlink">
<g id="graph1" class="graph" transform="scale(1 1) rotate(0) translate(4 354)">
<title>fwCom::HasSignals</title>
<polygon fill="white" stroke="white" points="-4,5 -4,-354 261,-354 261,5 -4,5"/>
<!-- Node1 -->
<g id="node1" class="node"><title>Node1</title>
<polygon fill="#bfbfbf" stroke="black" points="47,-0.5 47,-21.5 151,-21.5 151,-0.5 47,-0.5"/>
<text text-anchor="middle" x="99" y="-8.5" font-family="Helvetica,sans-Serif" font-size="10.00">fwCom::HasSignals</text>
</g>
<!-- Node2 -->
<g id="node2" class="node"><title>Node2</title>
<a xlink:href="classfwCom_1_1Signals.html" target="_top" xlink:title="This class proposes a mapping between a SignalKeyType and a SignalBase. ">
<polygon fill="white" stroke="black" points="56,-72.5 56,-93.5 142,-93.5 142,-72.5 56,-72.5"/>
<text text-anchor="middle" x="99" y="-80.5" font-family="Helvetica,sans-Serif" font-size="10.00">fwCom::Signals</text>
</a>
</g>
<!-- Node2&#45;&gt;Node1 -->
<g id="edge2" class="edge"><title>Node2&#45;&gt;Node1</title>
<path fill="none" stroke="#9a32cd" stroke-dasharray="5,2" d="M99,-62.2348C99,-48.969 99,-32.3188 99,-21.6674"/>
<polygon fill="#9a32cd" stroke="#9a32cd" points="95.5001,-62.3761 99,-72.3762 102.5,-62.3762 95.5001,-62.3761"/>
<text text-anchor="middle" x="123" y="-44.5" font-family="Helvetica,sans-Serif" font-size="10.00"> m_signals</text>
</g>
<!-- Node3 -->
<g id="node4" class="node"><title>Node3</title>
<polygon fill="white" stroke="#bfbfbf" points="18.5,-145 18.5,-179 179.5,-179 179.5,-145 18.5,-145"/>
<text text-anchor="start" x="26.5" y="-166" font-family="Helvetica,sans-Serif" font-size="10.00">std::map&lt; SignalKeyType,</text>
<text text-anchor="middle" x="99" y="-153" font-family="Helvetica,sans-Serif" font-size="10.00"> std::shared_ptr&lt; SignalBase &gt; &gt;</text>
</g>
<!-- Node3&#45;&gt;Node2 -->
<g id="edge4" class="edge"><title>Node3&#45;&gt;Node2</title>
<path fill="none" stroke="#9a32cd" stroke-dasharray="5,2" d="M99,-134.623C99,-120.473 99,-104.024 99,-93.5672"/>
<polygon fill="#9a32cd" stroke="#9a32cd" points="95.5001,-134.858 99,-144.858 102.5,-134.858 95.5001,-134.858"/>
<text text-anchor="middle" x="123" y="-116.5" font-family="Helvetica,sans-Serif" font-size="10.00"> m_signals</text>
</g>
<!-- Node4 -->
<g id="node6" class="node"><title>Node4</title>
<a xlink:title="STL class. ">
<polygon fill="white" stroke="#bfbfbf" points="17,-242.5 17,-263.5 77,-263.5 77,-242.5 17,-242.5"/>
<text text-anchor="middle" x="47" y="-250.5" font-family="Helvetica,sans-Serif" font-size="10.00">std::string</text>
</a>
</g>
<!-- Node4&#45;&gt;Node3 -->
<g id="edge6" class="edge"><title>Node4&#45;&gt;Node3</title>
<path fill="none" stroke="#9a32cd" stroke-dasharray="5,2" d="M58.3516,-233.135C67.5359,-217.062 80.34,-194.655 89.1093,-179.309"/>
<polygon fill="#9a32cd" stroke="#9a32cd" points="55.0919,-231.785 53.1693,-242.204 61.1696,-235.258 55.0919,-231.785"/>
<text text-anchor="middle" x="90.5" y="-208.5" font-family="Helvetica,sans-Serif" font-size="10.00"> keys</text>
</g>
<!-- Node5 -->
<g id="node8" class="node"><title>Node5</title>
<a xlink:title="STL class. ">
<polygon fill="white" stroke="#bfbfbf" points="-0.5,-315 -0.5,-349 94.5,-349 94.5,-315 -0.5,-315"/>
<text text-anchor="start" x="7.5" y="-336" font-family="Helvetica,sans-Serif" font-size="10.00">std::basic_string&lt;</text>
<text text-anchor="middle" x="47" y="-323" font-family="Helvetica,sans-Serif" font-size="10.00"> char &gt;</text>
</a>
</g>
<!-- Node5&#45;&gt;Node4 -->
<g id="edge8" class="edge"><title>Node5&#45;&gt;Node4</title>
<path fill="none" stroke="midnightblue" d="M47,-304.623C47,-290.473 47,-274.024 47,-263.567"/>
<polygon fill="midnightblue" stroke="midnightblue" points="43.5001,-304.858 47,-314.858 50.5001,-304.858 43.5001,-304.858"/>
</g>
<!-- Node6 -->
<g id="node10" class="node"><title>Node6</title>
<a xlink:title="STL class. ">
<polygon fill="white" stroke="#bfbfbf" points="95,-242.5 95,-263.5 187,-263.5 187,-242.5 95,-242.5"/>
<text text-anchor="middle" x="141" y="-250.5" font-family="Helvetica,sans-Serif" font-size="10.00">std::map&lt; K, T &gt;</text>
</a>
</g>
<!-- Node6&#45;&gt;Node3 -->
<g id="edge10" class="edge"><title>Node6&#45;&gt;Node3</title>
<path fill="none" stroke="orange" stroke-dasharray="5,2" d="M131.621,-232.678C124.218,-216.64 114.005,-194.51 106.989,-179.309"/>
<polygon fill="orange" stroke="orange" points="128.649,-234.591 136.017,-242.204 135.004,-231.657 128.649,-234.591"/>
<text text-anchor="start" x="127" y="-215" font-family="Helvetica,sans-Serif" font-size="10.00"> &lt; SignalKeyType, std</text>
<text text-anchor="middle" x="191.5" y="-202" font-family="Helvetica,sans-Serif" font-size="10.00">::shared_ptr&lt; SignalBase &gt; &gt;</text>
</g>
<!-- Node7 -->
<g id="node12" class="node"><title>Node7</title>
<polygon fill="white" stroke="#bfbfbf" points="118.5,-321.5 118.5,-342.5 147.5,-342.5 147.5,-321.5 118.5,-321.5"/>
<text text-anchor="middle" x="133" y="-329.5" font-family="Helvetica,sans-Serif" font-size="10.00">K</text>
</g>
<!-- Node7&#45;&gt;Node6 -->
<g id="edge12" class="edge"><title>Node7&#45;&gt;Node6</title>
<path fill="none" stroke="#9a32cd" stroke-dasharray="5,2" d="M132.411,-310.927C132.422,-301.975 132.78,-291.445 134,-282 134.796,-275.836 136.384,-269.079 137.846,-263.639"/>
<polygon fill="#9a32cd" stroke="#9a32cd" points="128.915,-311.267 132.545,-321.221 135.915,-311.177 128.915,-311.267"/>
<text text-anchor="middle" x="146.5" y="-286.5" font-family="Helvetica,sans-Serif" font-size="10.00"> keys</text>
</g>
<!-- Node8 -->
<g id="node14" class="node"><title>Node8</title>
<polygon fill="white" stroke="#bfbfbf" points="166.5,-321.5 166.5,-342.5 195.5,-342.5 195.5,-321.5 166.5,-321.5"/>
<text text-anchor="middle" x="181" y="-329.5" font-family="Helvetica,sans-Serif" font-size="10.00">T</text>
</g>
<!-- Node8&#45;&gt;Node6 -->
<g id="edge14" class="edge"><title>Node8&#45;&gt;Node6</title>
<path fill="none" stroke="#9a32cd" stroke-dasharray="5,2" d="M172.937,-311.936C169.023,-302.679 164.076,-291.631 159,-282 155.685,-275.709 151.523,-268.944 148.036,-263.531"/>
<polygon fill="#9a32cd" stroke="#9a32cd" points="169.816,-313.549 176.868,-321.456 176.286,-310.877 169.816,-313.549"/>
<text text-anchor="middle" x="186.5" y="-286.5" font-family="Helvetica,sans-Serif" font-size="10.00"> elements</text>
</g>
</g>
</svg>
