<?xml version="1.0" encoding="UTF-8" standalone="no"?>
<!DOCTYPE svg PUBLIC "-//W3C//DTD SVG 1.1//EN"
 "http://www.w3.org/Graphics/SVG/1.1/DTD/svg11.dtd">
<!-- Generated by graphviz version 2.36.0 (20140111.2315)
 -->
<!-- Title: fwPacsIO::SeriesEnquirer::initialize Pages: 1 -->
<svg width="332pt" height="87pt"
 viewBox="0.00 0.00 332.00 87.00" xmlns="http://www.w3.org/2000/svg" xmlns:xlink="http://www.w3.org/1999/xlink">
<g id="graph0" class="graph" transform="scale(1 1) rotate(0) translate(4 83)">
<title>fwPacsIO::SeriesEnquirer::initialize</title>
<polygon fill="white" stroke="none" points="-4,4 -4,-83 328,-83 328,4 -4,4"/>
<!-- Node1 -->
<g id="node1" class="node"><title>Node1</title>
<polygon fill="#bfbfbf" stroke="black" points="0,-24 0,-54 130,-54 130,-24 0,-24"/>
<text text-anchor="start" x="8" y="-42" font-family="Helvetica,sans-Serif" font-size="10.00">fwPacsIO::SeriesEnquirer</text>
<text text-anchor="middle" x="65" y="-31" font-family="Helvetica,sans-Serif" font-size="10.00">::initialize</text>
</g>
<!-- Node2 -->
<g id="node2" class="node"><title>Node2</title>
<g id="a_node2"><a xlink:href="classfwTools_1_1System.html#a1f236bd911a10a1295198903ad3aa426" target="_top" xlink:title="Returns a unique per&#45;process temporary folder. The top level temporary folder will be automatically d...">
<polygon fill="white" stroke="black" points="166.5,-49 166.5,-79 323.5,-79 323.5,-49 166.5,-49"/>
<text text-anchor="start" x="174.5" y="-67" font-family="Helvetica,sans-Serif" font-size="10.00">fwTools::System::getTemporary</text>
<text text-anchor="middle" x="245" y="-56" font-family="Helvetica,sans-Serif" font-size="10.00">Folder</text>
</a>
</g>
</g>
<!-- Node1&#45;&gt;Node2 -->
<g id="edge1" class="edge"><title>Node1&#45;&gt;Node2</title>
<path fill="none" stroke="midnightblue" d="M130.011,-47.9903C138.556,-49.1904 147.435,-50.4375 156.298,-51.6823"/>
<polygon fill="midnightblue" stroke="midnightblue" points="155.888,-55.159 166.278,-53.0839 156.862,-48.227 155.888,-55.159"/>
</g>
<!-- Node3 -->
<g id="node3" class="node"><title>Node3</title>
<g id="a_node3"><a xlink:href="classfwDcmtkTools_1_1Dictionary.html#a2cf8820584c8d623b528cb3e6317ab0a" target="_top" xlink:title="Load the DICOM dictionary. ">
<polygon fill="white" stroke="black" points="179.5,-0 179.5,-30 310.5,-30 310.5,-0 179.5,-0"/>
<text text-anchor="start" x="187.5" y="-18" font-family="Helvetica,sans-Serif" font-size="10.00">fwDcmtkTools::Dictionary</text>
<text text-anchor="middle" x="245" y="-7" font-family="Helvetica,sans-Serif" font-size="10.00">::loadDictionary</text>
</a>
</g>
</g>
<!-- Node1&#45;&gt;Node3 -->
<g id="edge2" class="edge"><title>Node1&#45;&gt;Node3</title>
<path fill="none" stroke="midnightblue" d="M130.011,-30.3694C142.798,-28.6452 156.334,-26.8201 169.441,-25.0529"/>
<polygon fill="midnightblue" stroke="midnightblue" points="169.918,-28.5203 179.361,-23.7154 168.983,-21.5831 169.918,-28.5203"/>
</g>
</g>
</svg>
