<?xml version="1.0" encoding="UTF-8" standalone="no"?>
<!DOCTYPE svg PUBLIC "-//W3C//DTD SVG 1.1//EN"
 "http://www.w3.org/Graphics/SVG/1.1/DTD/svg11.dtd">
<!-- Generated by graphviz version 2.36.0 (20140111.2315)
 -->
<!-- Title: ioPacs::SPacsConfigurationInitializer Pages: 1 -->
<!--zoomable 308 -->
<svg id="main" version="1.1" xmlns="http://www.w3.org/2000/svg" xmlns:xlink="http://www.w3.org/1999/xlink" xml:space="preserve" onload="init(evt)">
<style type="text/css"><![CDATA[
.edge:hover path { stroke: red; }
.edge:hover polygon { stroke: red; fill: red; }
]]></style>
<script type="text/javascript"><![CDATA[
var edges = document.getElementsByTagName('g');
if (edges && edges.length) {
  for (var i=0;i<edges.length;i++) {
    if (edges[i].id.substr(0,4)=='edge') {
      edges[i].setAttribute('class','edge');
    }
  }
}
]]></script>
        <defs>
                <circle id="rim" cx="0" cy="0" r="7"/>
                <circle id="rim2" cx="0" cy="0" r="3.5"/>
                <g id="zoomPlus">
                        <use xlink:href="#rim" fill="#404040">
                                <set attributeName="fill" to="#808080" begin="zoomplus.mouseover" end="zoomplus.mouseout"/>
                        </use>
                        <path d="M-4,0h8M0,-4v8" fill="none" stroke="white" stroke-width="1.5" pointer-events="none"/>
                </g>
                <g id="zoomMin">
                        <use xlink:href="#rim" fill="#404040">
                                <set attributeName="fill" to="#808080" begin="zoomminus.mouseover" end="zoomminus.mouseout"/>
                        </use>
                        <path d="M-4,0h8" fill="none" stroke="white" stroke-width="1.5" pointer-events="none"/>
                </g>
                <g id="dirArrow">
                        <path fill="none" stroke="white" stroke-width="1.5" d="M0,-3.0v7 M-2.5,-0.5L0,-3.0L2.5,-0.5"/>
                </g>
               <g id="resetDef">
                       <use xlink:href="#rim2" fill="#404040">
                               <set attributeName="fill" to="#808080" begin="reset.mouseover" end="reset.mouseout"/>
                       </use>
               </g>
        </defs>

<script type="text/javascript">
var viewWidth = 1562;
var viewHeight = 308;
var sectionId = 'dynsection-1';
</script>
<script xlink:href="svgpan.js"/>
<svg id="graph" class="graph">
<g id="viewport">
<title>ioPacs::SPacsConfigurationInitializer</title>
<polygon fill="white" stroke="none" points="-4,4 -4,-304.327 1558,-304.327 1558,4 -4,4"/>
<!-- Node1 -->
<g id="node1" class="node"><title>Node1</title>
<polygon fill="#bfbfbf" stroke="black" points="1414,-211.327 1414,-241.327 1554,-241.327 1554,-211.327 1414,-211.327"/>
<text text-anchor="start" x="1422" y="-229.327" font-family="Helvetica,sans-Serif" font-size="10.00">ioPacs::SPacsConfiguration</text>
<text text-anchor="middle" x="1484" y="-218.327" font-family="Helvetica,sans-Serif" font-size="10.00">Initializer</text>
</g>
<!-- Node2 -->
<g id="node2" class="node"><title>Node2</title>
<g id="a_node2"><a xlink:href="classfwServices_1_1IController.html" target="_top" xlink:title="This interface defines control service API. Does nothing particularly, can be considered as a default...">
<polygon fill="white" stroke="black" points="1260,-185.827 1260,-204.827 1376,-204.827 1376,-185.827 1260,-185.827"/>
<text text-anchor="middle" x="1318" y="-192.827" font-family="Helvetica,sans-Serif" font-size="10.00">fwServices::IController</text>
</a>
</g>
</g>
<!-- Node2&#45;&gt;Node1 -->
<g id="edge1" class="edge"><title>Node2&#45;&gt;Node1</title>
<path fill="none" stroke="midnightblue" d="M1379.62,-206.785C1390.79,-208.896 1402.53,-211.115 1413.92,-213.27"/>
<polygon fill="midnightblue" stroke="midnightblue" points="1380.02,-203.299 1369.54,-204.881 1378.72,-210.177 1380.02,-203.299"/>
</g>
<!-- Node3 -->
<g id="node3" class="node"><title>Node3</title>
<g id="a_node3"><a xlink:href="classfwServices_1_1IService.html" target="_top" xlink:title="Base class for all services. ">
<polygon fill="white" stroke="black" points="1114.5,-149.827 1114.5,-168.827 1221.5,-168.827 1221.5,-149.827 1114.5,-149.827"/>
<text text-anchor="middle" x="1168" y="-156.827" font-family="Helvetica,sans-Serif" font-size="10.00">fwServices::IService</text>
</a>
</g>
</g>
<!-- Node3&#45;&gt;Node2 -->
<g id="edge2" class="edge"><title>Node3&#45;&gt;Node2</title>
<path fill="none" stroke="midnightblue" d="M1218.15,-171.281C1237.54,-175.998 1259.51,-181.342 1277.8,-185.792"/>
<polygon fill="midnightblue" stroke="midnightblue" points="1218.82,-167.843 1208.27,-168.88 1217.16,-174.644 1218.82,-167.843"/>
</g>
<!-- Node4 -->
<g id="node4" class="node"><title>Node4</title>
<g id="a_node4"><a xlink:href="classfwTools_1_1Object.html" target="_top" xlink:title="Define Base class for FW4SPL objects and services. ">
<polygon fill="white" stroke="black" points="880,-63.827 880,-82.827 966,-82.827 966,-63.827 880,-63.827"/>
<text text-anchor="middle" x="923" y="-70.827" font-family="Helvetica,sans-Serif" font-size="10.00">fwTools::Object</text>
</a>
</g>
</g>
<!-- Node4&#45;&gt;Node3 -->
<g id="edge3" class="edge"><title>Node4&#45;&gt;Node3</title>
<path fill="none" stroke="midnightblue" d="M943.619,-89.3991C957.055,-99.6504 975.692,-112.445 994,-120.327 1032.6,-136.944 1079.22,-146.929 1114.34,-152.629"/>
<polygon fill="midnightblue" stroke="midnightblue" points="945.625,-86.5244 935.596,-83.107 941.305,-92.0324 945.625,-86.5244"/>
</g>
<!-- Node5 -->
<g id="node5" class="node"><title>Node5</title>
<g id="a_node5"><a xlink:href="classfwCore_1_1BaseObject.html" target="_top" xlink:title="Base class for all FW4SPL&#39;s classes. ">
<polygon fill="white" stroke="black" points="680.5,-98.827 680.5,-117.827 785.5,-117.827 785.5,-98.827 680.5,-98.827"/>
<text text-anchor="middle" x="733" y="-105.827" font-family="Helvetica,sans-Serif" font-size="10.00">fwCore::BaseObject</text>
</a>
</g>
</g>
<!-- Node5&#45;&gt;Node4 -->
<g id="edge4" class="edge"><title>Node5&#45;&gt;Node4</title>
<path fill="none" stroke="midnightblue" d="M795.348,-96.9059C823.011,-91.7557 854.983,-85.8036 879.882,-81.168"/>
<polygon fill="midnightblue" stroke="midnightblue" points="794.562,-93.4918 785.372,-98.763 795.844,-100.374 794.562,-93.4918"/>
</g>
<!-- Node6 -->
<g id="node6" class="node"><title>Node6</title>
<polygon fill="white" stroke="#bfbfbf" points="449.5,-88.327 449.5,-118.327 580.5,-118.327 580.5,-88.327 449.5,-88.327"/>
<text text-anchor="start" x="457.5" y="-106.327" font-family="Helvetica,sans-Serif" font-size="10.00">std::enable_shared</text>
<text text-anchor="middle" x="515" y="-95.327" font-family="Helvetica,sans-Serif" font-size="10.00">_from_this&lt; BaseObject &gt;</text>
</g>
<!-- Node6&#45;&gt;Node5 -->
<g id="edge5" class="edge"><title>Node6&#45;&gt;Node5</title>
<path fill="none" stroke="midnightblue" d="M590.81,-105.059C620.398,-105.744 653.667,-106.514 680.475,-107.134"/>
<polygon fill="midnightblue" stroke="midnightblue" points="590.593,-101.553 580.515,-104.82 590.431,-108.551 590.593,-101.553"/>
</g>
<!-- Node7 -->
<g id="node7" class="node"><title>Node7</title>
<polygon fill="white" stroke="#bfbfbf" points="697.5,-60.827 697.5,-79.827 768.5,-79.827 768.5,-60.827 697.5,-60.827"/>
<text text-anchor="middle" x="733" y="-67.827" font-family="Helvetica,sans-Serif" font-size="10.00">noncopyable</text>
</g>
<!-- Node7&#45;&gt;Node4 -->
<g id="edge6" class="edge"><title>Node7&#45;&gt;Node4</title>
<path fill="none" stroke="midnightblue" d="M779.291,-71.0497C809.818,-71.5368 849.815,-72.1751 879.697,-72.6519"/>
<polygon fill="midnightblue" stroke="midnightblue" points="778.975,-67.5443 768.921,-70.8842 778.864,-74.5434 778.975,-67.5443"/>
</g>
<!-- Node8 -->
<g id="node8" class="node"><title>Node8</title>
<g id="a_node8"><a xlink:href="classfwTools_1_1fwID.html" target="_top" xlink:title="Defines ID for fwTools::Object. It is used to associate ID with object. ">
<polygon fill="white" stroke="black" points="694,-22.827 694,-41.827 772,-41.827 772,-22.827 694,-22.827"/>
<text text-anchor="middle" x="733" y="-29.827" font-family="Helvetica,sans-Serif" font-size="10.00">fwTools::fwID</text>
</a>
</g>
</g>
<!-- Node8&#45;&gt;Node4 -->
<g id="edge7" class="edge"><title>Node8&#45;&gt;Node4</title>
<path fill="none" stroke="darkgreen" d="M781.932,-42.7803C812.117,-49.3631 850.721,-57.782 879.754,-64.1138"/>
<polygon fill="darkgreen" stroke="darkgreen" points="782.561,-39.3351 772.045,-40.6239 781.069,-46.1744 782.561,-39.3351"/>
</g>
<!-- Node9 -->
<g id="node9" class="node"><title>Node9</title>
<g id="a_node9"><a xlink:href="classfwCom_1_1HasSlots.html" target="_top" xlink:title="This class proposes a mapping between a SlotKeyType and a SlotBase. ">
<polygon fill="white" stroke="black" points="875.5,-185.827 875.5,-204.827 970.5,-204.827 970.5,-185.827 875.5,-185.827"/>
<text text-anchor="middle" x="923" y="-192.827" font-family="Helvetica,sans-Serif" font-size="10.00">fwCom::HasSlots</text>
</a>
</g>
</g>
<!-- Node9&#45;&gt;Node3 -->
<g id="edge8" class="edge"><title>Node9&#45;&gt;Node3</title>
<path fill="none" stroke="midnightblue" d="M980.895,-188.418C1014.45,-184.169 1057.71,-178.389 1096,-172.327 1102.68,-171.269 1109.71,-170.079 1116.63,-168.859"/>
<polygon fill="midnightblue" stroke="midnightblue" points="980.295,-184.965 970.81,-189.686 981.168,-191.911 980.295,-184.965"/>
</g>
<!-- Node10 -->
<g id="node10" class="node"><title>Node10</title>
<g id="a_node10"><a xlink:href="classfwCom_1_1Slots.html" target="_top" xlink:title="This class proposes a mapping between a SlotKeyType and a SlotBase. ">
<polygon fill="white" stroke="black" points="694.5,-189.827 694.5,-208.827 771.5,-208.827 771.5,-189.827 694.5,-189.827"/>
<text text-anchor="middle" x="733" y="-196.827" font-family="Helvetica,sans-Serif" font-size="10.00">fwCom::Slots</text>
</a>
</g>
</g>
<!-- Node10&#45;&gt;Node9 -->
<g id="edge9" class="edge"><title>Node10&#45;&gt;Node9</title>
<path fill="none" stroke="#9a32cd" stroke-dasharray="5,2" d="M781.807,-198.31C810.552,-197.698 846.966,-196.923 875.478,-196.317"/>
<polygon fill="#9a32cd" stroke="#9a32cd" points="781.516,-194.815 771.593,-198.527 781.665,-201.814 781.516,-194.815"/>
<text text-anchor="middle" x="828" y="-201.327" font-family="Helvetica,sans-Serif" font-size="10.00"> m_slots</text>
</g>
<!-- Node11 -->
<g id="node11" class="node"><title>Node11</title>
<polygon fill="white" stroke="#bfbfbf" points="439,-186.327 439,-216.327 591,-216.327 591,-186.327 439,-186.327"/>
<text text-anchor="start" x="447" y="-204.327" font-family="Helvetica,sans-Serif" font-size="10.00">std::map&lt; SlotKeyType,</text>
<text text-anchor="middle" x="515" y="-193.327" font-family="Helvetica,sans-Serif" font-size="10.00"> std::shared_ptr&lt; SlotBase &gt; &gt;</text>
</g>
<!-- Node11&#45;&gt;Node10 -->
<g id="edge10" class="edge"><title>Node11&#45;&gt;Node10</title>
<path fill="none" stroke="#9a32cd" stroke-dasharray="5,2" d="M601.573,-200.535C633.736,-200.237 668.676,-199.913 694.29,-199.676"/>
<polygon fill="#9a32cd" stroke="#9a32cd" points="601.21,-197.038 591.243,-200.63 601.275,-204.037 601.21,-197.038"/>
<text text-anchor="middle" x="638" y="-204.327" font-family="Helvetica,sans-Serif" font-size="10.00"> m_slots</text>
</g>
<!-- Node12 -->
<g id="node12" class="node"><title>Node12</title>
<g id="a_node12"><a xlink:title="STL class. ">
<polygon fill="white" stroke="#bfbfbf" points="192,-209.827 192,-228.827 252,-228.827 252,-209.827 192,-209.827"/>
<text text-anchor="middle" x="222" y="-216.827" font-family="Helvetica,sans-Serif" font-size="10.00">std::string</text>
</a>
</g>
</g>
<!-- Node12&#45;&gt;Node1 -->
<g id="edge22" class="edge"><title>Node12&#45;&gt;Node1</title>
<path fill="none" stroke="#9a32cd" stroke-dasharray="5,2" d="M262.148,-226.832C270.023,-228.153 278.258,-229.399 286,-230.327 386.831,-242.411 412.448,-245.327 514,-245.327 514,-245.327 514,-245.327 1319,-245.327 1350.24,-245.327 1384.61,-241.882 1413.78,-237.927"/>
<polygon fill="#9a32cd" stroke="#9a32cd" points="262.527,-223.345 252.074,-225.074 261.323,-230.241 262.527,-223.345"/>
<text text-anchor="middle" x="923" y="-292.327" font-family="Helvetica,sans-Serif" font-size="10.00"> m_preferenceKey</text>
<text text-anchor="middle" x="923" y="-281.327" font-family="Helvetica,sans-Serif" font-size="10.00">m_moveApplicationTitle</text>
<text text-anchor="middle" x="923" y="-270.327" font-family="Helvetica,sans-Serif" font-size="10.00">m_pacsApplicationTitle</text>
<text text-anchor="middle" x="923" y="-259.327" font-family="Helvetica,sans-Serif" font-size="10.00">m_pacsHostName</text>
<text text-anchor="middle" x="923" y="-248.327" font-family="Helvetica,sans-Serif" font-size="10.00">m_localApplicationTitle</text>
</g>
<!-- Node12&#45;&gt;Node11 -->
<g id="edge11" class="edge"><title>Node12&#45;&gt;Node11</title>
<path fill="none" stroke="#9a32cd" stroke-dasharray="5,2" d="M262.485,-216.885C307.591,-214.095 382.428,-209.465 438.768,-205.981"/>
<polygon fill="#9a32cd" stroke="#9a32cd" points="261.999,-213.408 252.235,-217.519 262.432,-220.394 261.999,-213.408"/>
<text text-anchor="middle" x="351" y="-218.327" font-family="Helvetica,sans-Serif" font-size="10.00"> keys</text>
</g>
<!-- Node19 -->
<g id="node19" class="node"><title>Node19</title>
<polygon fill="white" stroke="#bfbfbf" points="434.5,-137.327 434.5,-167.327 595.5,-167.327 595.5,-137.327 434.5,-137.327"/>
<text text-anchor="start" x="442.5" y="-155.327" font-family="Helvetica,sans-Serif" font-size="10.00">std::map&lt; SignalKeyType,</text>
<text text-anchor="middle" x="515" y="-144.327" font-family="Helvetica,sans-Serif" font-size="10.00"> std::shared_ptr&lt; SignalBase &gt; &gt;</text>
</g>
<!-- Node12&#45;&gt;Node19 -->
<g id="edge19" class="edge"><title>Node12&#45;&gt;Node19</title>
<path fill="none" stroke="#9a32cd" stroke-dasharray="5,2" d="M252.49,-205.631C262.906,-201.205 274.812,-196.601 286,-193.327 334.443,-179.152 390.184,-169.022 434.426,-162.377"/>
<polygon fill="#9a32cd" stroke="#9a32cd" points="250.79,-202.555 243.033,-209.771 253.597,-208.967 250.79,-202.555"/>
<text text-anchor="middle" x="351" y="-196.327" font-family="Helvetica,sans-Serif" font-size="10.00"> keys</text>
</g>
<!-- Node13 -->
<g id="node13" class="node"><title>Node13</title>
<g id="a_node13"><a xlink:title="STL class. ">
<polygon fill="white" stroke="#bfbfbf" points="0.5,-204.327 0.5,-234.327 95.5,-234.327 95.5,-204.327 0.5,-204.327"/>
<text text-anchor="start" x="8.5" y="-222.327" font-family="Helvetica,sans-Serif" font-size="10.00">std::basic_string&lt;</text>
<text text-anchor="middle" x="48" y="-211.327" font-family="Helvetica,sans-Serif" font-size="10.00"> char &gt;</text>
</a>
</g>
</g>
<!-- Node13&#45;&gt;Node12 -->
<g id="edge12" class="edge"><title>Node13&#45;&gt;Node12</title>
<path fill="none" stroke="midnightblue" d="M105.913,-219.327C134.736,-219.327 168.5,-219.327 191.972,-219.327"/>
<polygon fill="midnightblue" stroke="midnightblue" points="105.546,-215.827 95.5457,-219.327 105.546,-222.827 105.546,-215.827"/>
</g>
<!-- Node14 -->
<g id="node14" class="node"><title>Node14</title>
<g id="a_node14"><a xlink:title="STL class. ">
<polygon fill="white" stroke="#bfbfbf" points="176,-107.827 176,-126.827 268,-126.827 268,-107.827 176,-107.827"/>
<text text-anchor="middle" x="222" y="-114.827" font-family="Helvetica,sans-Serif" font-size="10.00">std::map&lt; K, T &gt;</text>
</a>
</g>
</g>
<!-- Node14&#45;&gt;Node11 -->
<g id="edge13" class="edge"><title>Node14&#45;&gt;Node11</title>
<path fill="none" stroke="orange" stroke-dasharray="5,2" d="M278.57,-118.186C327.589,-119.964 394.482,-125.196 416,-140.327 430.633,-150.617 420.376,-164.734 434,-176.327 438.544,-180.193 443.684,-183.462 449.113,-186.226"/>
<polygon fill="orange" stroke="orange" points="278.512,-114.683 268.404,-117.857 278.286,-121.679 278.512,-114.683"/>
<text text-anchor="start" x="291.5" y="-154.327" font-family="Helvetica,sans-Serif" font-size="10.00"> &lt; SlotKeyType, std</text>
<text text-anchor="middle" x="351" y="-143.327" font-family="Helvetica,sans-Serif" font-size="10.00">::shared_ptr&lt; SlotBase &gt; &gt;</text>
</g>
<!-- Node14&#45;&gt;Node19 -->
<g id="edge20" class="edge"><title>Node14&#45;&gt;Node19</title>
<path fill="none" stroke="orange" stroke-dasharray="5,2" d="M252.649,-103.807C292.583,-87.7734 364.568,-66.7171 416,-96.327 429.807,-104.276 421.55,-117.386 434,-127.327 438.89,-131.231 444.394,-134.529 450.168,-137.314"/>
<polygon fill="orange" stroke="orange" points="251.1,-100.66 243.219,-107.741 253.795,-107.121 251.1,-100.66"/>
<text text-anchor="start" x="286.5" y="-110.327" font-family="Helvetica,sans-Serif" font-size="10.00"> &lt; SignalKeyType, std</text>
<text text-anchor="middle" x="351" y="-99.327" font-family="Helvetica,sans-Serif" font-size="10.00">::shared_ptr&lt; SignalBase &gt; &gt;</text>
</g>
<!-- Node15 -->
<g id="node15" class="node"><title>Node15</title>
<polygon fill="white" stroke="#bfbfbf" points="33.5,-106.827 33.5,-125.827 62.5,-125.827 62.5,-106.827 33.5,-106.827"/>
<text text-anchor="middle" x="48" y="-113.827" font-family="Helvetica,sans-Serif" font-size="10.00">K</text>
</g>
<!-- Node15&#45;&gt;Node14 -->
<g id="edge14" class="edge"><title>Node15&#45;&gt;Node14</title>
<path fill="none" stroke="#9a32cd" stroke-dasharray="5,2" d="M73.0587,-116.467C99.6143,-116.621 142.955,-116.873 175.879,-117.065"/>
<polygon fill="#9a32cd" stroke="#9a32cd" points="72.8049,-112.965 62.7847,-116.407 72.7642,-119.965 72.8049,-112.965"/>
<text text-anchor="middle" x="136" y="-120.327" font-family="Helvetica,sans-Serif" font-size="10.00"> keys</text>
</g>
<!-- Node16 -->
<g id="node16" class="node"><title>Node16</title>
<polygon fill="white" stroke="#bfbfbf" points="33.5,-144.827 33.5,-163.827 62.5,-163.827 62.5,-144.827 33.5,-144.827"/>
<text text-anchor="middle" x="48" y="-151.827" font-family="Helvetica,sans-Serif" font-size="10.00">T</text>
</g>
<!-- Node16&#45;&gt;Node14 -->
<g id="edge15" class="edge"><title>Node16&#45;&gt;Node14</title>
<path fill="none" stroke="#9a32cd" stroke-dasharray="5,2" d="M72.631,-149.802C94.7427,-145.51 128.672,-138.776 158,-132.327 165.687,-130.637 173.88,-128.749 181.728,-126.899"/>
<polygon fill="#9a32cd" stroke="#9a32cd" points="71.9525,-146.368 62.7974,-151.701 73.2796,-153.241 71.9525,-146.368"/>
<text text-anchor="middle" x="136" y="-144.327" font-family="Helvetica,sans-Serif" font-size="10.00"> elements</text>
</g>
<!-- Node17 -->
<g id="node17" class="node"><title>Node17</title>
<g id="a_node17"><a xlink:href="classfwCom_1_1HasSignals.html" target="_top" xlink:title="This class proposes a mapping between a SignalKeyType and a SignalBase. ">
<polygon fill="white" stroke="black" points="871,-146.827 871,-165.827 975,-165.827 975,-146.827 871,-146.827"/>
<text text-anchor="middle" x="923" y="-153.827" font-family="Helvetica,sans-Serif" font-size="10.00">fwCom::HasSignals</text>
</a>
</g>
</g>
<!-- Node17&#45;&gt;Node3 -->
<g id="edge16" class="edge"><title>Node17&#45;&gt;Node3</title>
<path fill="none" stroke="midnightblue" d="M985.332,-157.084C1025.05,-157.574 1076.24,-158.206 1114.15,-158.675"/>
<polygon fill="midnightblue" stroke="midnightblue" points="985.28,-153.583 975.237,-156.96 985.193,-160.583 985.28,-153.583"/>
</g>
<!-- Node18 -->
<g id="node18" class="node"><title>Node18</title>
<g id="a_node18"><a xlink:href="classfwCom_1_1Signals.html" target="_top" xlink:title="This class proposes a mapping between a SignalKeyType and a SignalBase. ">
<polygon fill="white" stroke="black" points="690,-143.827 690,-162.827 776,-162.827 776,-143.827 690,-143.827"/>
<text text-anchor="middle" x="733" y="-150.827" font-family="Helvetica,sans-Serif" font-size="10.00">fwCom::Signals</text>
</a>
</g>
</g>
<!-- Node18&#45;&gt;Node17 -->
<g id="edge17" class="edge"><title>Node18&#45;&gt;Node17</title>
<path fill="none" stroke="#9a32cd" stroke-dasharray="5,2" d="M786.391,-154.163C812.798,-154.584 844.694,-155.093 870.916,-155.512"/>
<polygon fill="#9a32cd" stroke="#9a32cd" points="786.245,-150.66 776.191,-154 786.134,-157.659 786.245,-150.66"/>
<text text-anchor="middle" x="828" y="-158.327" font-family="Helvetica,sans-Serif" font-size="10.00"> m_signals</text>
</g>
<!-- Node19&#45;&gt;Node18 -->
<g id="edge18" class="edge"><title>Node19&#45;&gt;Node18</title>
<path fill="none" stroke="#9a32cd" stroke-dasharray="5,2" d="M605.74,-152.742C634.917,-152.877 665.926,-153.021 689.911,-153.132"/>
<polygon fill="#9a32cd" stroke="#9a32cd" points="605.526,-149.241 595.51,-152.695 605.494,-156.241 605.526,-149.241"/>
<text text-anchor="middle" x="638" y="-156.327" font-family="Helvetica,sans-Serif" font-size="10.00"> m_signals</text>
</g>
<!-- Node20 -->
<g id="node20" class="node"><title>Node20</title>
<polygon fill="white" stroke="#bfbfbf" points="902.5,-10.827 902.5,-29.827 943.5,-29.827 943.5,-10.827 902.5,-10.827"/>
<text text-anchor="middle" x="923" y="-17.827" font-family="Helvetica,sans-Serif" font-size="10.00">static</text>
</g>
<!-- Node20&#45;&gt;Node3 -->
<g id="edge21" class="edge"><title>Node20&#45;&gt;Node3</title>
<path fill="none" stroke="#9a32cd" stroke-dasharray="5,2" d="M953.566,-10.7718C989.997,-0.904723 1052.41,9.6109 1096,-17.327 1145,-47.6122 1161.32,-123.093 1165.65,-149.788"/>
<polygon fill="#9a32cd" stroke="#9a32cd" points="952.226,-7.51501 943.58,-13.6382 954.157,-14.2433 952.226,-7.51501"/>
<text text-anchor="middle" x="1045" y="-108.327" font-family="Helvetica,sans-Serif" font-size="10.00"> s_STOPPED_SIG</text>
<text text-anchor="middle" x="1045" y="-97.327" font-family="Helvetica,sans-Serif" font-size="10.00">s_UPDATED_SIG</text>
<text text-anchor="middle" x="1045" y="-86.327" font-family="Helvetica,sans-Serif" font-size="10.00">s_UPDATE_SLOT</text>
<text text-anchor="middle" x="1045" y="-75.327" font-family="Helvetica,sans-Serif" font-size="10.00">s_STARTED_SIG</text>
<text text-anchor="middle" x="1045" y="-64.327" font-family="Helvetica,sans-Serif" font-size="10.00">s_SWAPKEY_SLOT</text>
<text text-anchor="middle" x="1045" y="-53.327" font-family="Helvetica,sans-Serif" font-size="10.00">s_SWAP_SLOT</text>
<text text-anchor="middle" x="1045" y="-42.327" font-family="Helvetica,sans-Serif" font-size="10.00">s_STOP_SLOT</text>
<text text-anchor="middle" x="1045" y="-31.327" font-family="Helvetica,sans-Serif" font-size="10.00">s_START_SLOT</text>
<text text-anchor="middle" x="1045" y="-20.327" font-family="Helvetica,sans-Serif" font-size="10.00">s_DEFAULT_OBJECT</text>
</g>
</g>
</svg>
        <g id="navigator" transform="translate(0 0)" fill="#404254">
                <rect fill="#f2f5e9" fill-opacity="0.5" stroke="#606060" stroke-width=".5" x="0" y="0" width="60" height="60"/>
                <use id="zoomplus" xlink:href="#zoomPlus" x="17" y="9" onmousedown="handleZoom(evt,'in')"/>
                <use id="zoomminus" xlink:href="#zoomMin" x="42" y="9" onmousedown="handleZoom(evt,'out')"/>
                <use id="reset" xlink:href="#resetDef" x="30" y="36" onmousedown="handleReset()"/>
                <g id="arrowUp" xlink:href="#dirArrow" transform="translate(30 24)" onmousedown="handlePan(0,-1)">
                  <use xlink:href="#rim" fill="#404040">
                        <set attributeName="fill" to="#808080" begin="arrowUp.mouseover" end="arrowUp.mouseout"/>
                  </use>
                  <path fill="none" stroke="white" stroke-width="1.5" d="M0,-3.0v7 M-2.5,-0.5L0,-3.0L2.5,-0.5"/>
                </g>
                <g id="arrowRight" xlink:href="#dirArrow" transform="rotate(90) translate(36 -43)" onmousedown="handlePan(1,0)">
                  <use xlink:href="#rim" fill="#404040">
                        <set attributeName="fill" to="#808080" begin="arrowRight.mouseover" end="arrowRight.mouseout"/>
                  </use>
                  <path fill="none" stroke="white" stroke-width="1.5" d="M0,-3.0v7 M-2.5,-0.5L0,-3.0L2.5,-0.5"/>
                </g>
                <g id="arrowDown" xlink:href="#dirArrow" transform="rotate(180) translate(-30 -48)" onmousedown="handlePan(0,1)">
                  <use xlink:href="#rim" fill="#404040">
                        <set attributeName="fill" to="#808080" begin="arrowDown.mouseover" end="arrowDown.mouseout"/>
                  </use>
                  <path fill="none" stroke="white" stroke-width="1.5" d="M0,-3.0v7 M-2.5,-0.5L0,-3.0L2.5,-0.5"/>
                </g>
                <g id="arrowLeft" xlink:href="#dirArrow" transform="rotate(270) translate(-36 17)" onmousedown="handlePan(-1,0)">
                  <use xlink:href="#rim" fill="#404040">
                        <set attributeName="fill" to="#808080" begin="arrowLeft.mouseover" end="arrowLeft.mouseout"/>
                  </use>
                  <path fill="none" stroke="white" stroke-width="1.5" d="M0,-3.0v7 M-2.5,-0.5L0,-3.0L2.5,-0.5"/>
                </g>
        </g>
        <svg viewBox="0 0 15 15" width="100%" height="30px" preserveAspectRatio="xMaxYMin meet">
         <g id="arrow_out" transform="scale(0.3 0.3)">
          <a xlink:href="classioPacs_1_1SPacsConfigurationInitializer__coll__graph_org.svg" target="_base">
           <rect id="button" ry="5" rx="5" y="6" x="6" height="38" width="38"
                fill="#f2f5e9" fill-opacity="0.5" stroke="#606060" stroke-width="1.0"/>
           <path id="arrow"
             d="M 11.500037,31.436501 C 11.940474,20.09759 22.043105,11.32322 32.158766,21.979434 L 37.068811,17.246167 C 37.068811,17.246167 37.088388,32 37.088388,32 L 22.160133,31.978069 C 22.160133,31.978069 26.997745,27.140456 26.997745,27.140456 C 18.528582,18.264221 13.291696,25.230495 11.500037,31.436501 z"
             style="fill:#404040;"/>
          </a>
         </g>
        </svg>
</svg>
