<?xml version="1.0" encoding="UTF-8" standalone="no"?>
<!DOCTYPE svg PUBLIC "-//W3C//DTD SVG 1.1//EN"
 "http://www.w3.org/Graphics/SVG/1.1/DTD/svg11.dtd">
<!-- Generated by graphviz version 2.36.0 (20140111.2315)
 -->
<!-- Title: fwItkIO::ProgressItkToFw&lt; OBSERVEE &gt; Pages: 1 -->
<svg width="198pt" height="108pt"
 viewBox="0.00 0.00 198.00 108.00" xmlns="http://www.w3.org/2000/svg" xmlns:xlink="http://www.w3.org/1999/xlink">
<g id="graph0" class="graph" transform="scale(1 1) rotate(0) translate(4 104)">
<title>fwItkIO::ProgressItkToFw&lt; OBSERVEE &gt;</title>
<polygon fill="white" stroke="none" points="-4,4 -4,-104 194,-104 194,4 -4,4"/>
<!-- Node1 -->
<g id="node1" class="node"><title>Node1</title>
<polygon fill="#bfbfbf" stroke="black" points="46,-1 46,-31 176,-31 176,-1 46,-1"/>
<text text-anchor="start" x="54" y="-19" font-family="Helvetica,sans-Serif" font-size="10.00">fwItkIO::ProgressItkToFw</text>
<text text-anchor="middle" x="111" y="-8" font-family="Helvetica,sans-Serif" font-size="10.00">&lt; OBSERVEE &gt;</text>
</g>
<!-- Node2 -->
<g id="node2" class="node"><title>Node2</title>
<g id="a_node2"><a xlink:href="classfwItkIO_1_1ProgressorBase.html" target="_top" xlink:title="fwItkIO::ProgressorBase">
<polygon fill="white" stroke="black" points="-0.5,-80.5 -0.5,-99.5 124.5,-99.5 124.5,-80.5 -0.5,-80.5"/>
<text text-anchor="middle" x="62" y="-87.5" font-family="Helvetica,sans-Serif" font-size="10.00">fwItkIO::ProgressorBase</text>
</a>
</g>
</g>
<!-- Node2&#45;&gt;Node1 -->
<g id="edge1" class="edge"><title>Node2&#45;&gt;Node1</title>
<path fill="none" stroke="midnightblue" d="M73.6113,-71.9385C82.0554,-59.5308 93.3551,-42.9271 101.315,-31.2316"/>
<polygon fill="midnightblue" stroke="midnightblue" points="70.5461,-70.2216 67.8134,-80.4579 76.3331,-74.16 70.5461,-70.2216"/>
</g>
<!-- Node3 -->
<g id="node3" class="node"><title>Node3</title>
<polygon fill="white" stroke="#bfbfbf" points="142.5,-80.5 142.5,-99.5 177.5,-99.5 177.5,-80.5 142.5,-80.5"/>
<text text-anchor="middle" x="160" y="-87.5" font-family="Helvetica,sans-Serif" font-size="10.00">long</text>
</g>
<!-- Node3&#45;&gt;Node1 -->
<g id="edge2" class="edge"><title>Node3&#45;&gt;Node1</title>
<path fill="none" stroke="#9a32cd" stroke-dasharray="5,2" d="M148.389,-71.9385C139.945,-59.5308 128.645,-42.9271 120.685,-31.2316"/>
<polygon fill="#9a32cd" stroke="#9a32cd" points="145.667,-74.16 154.187,-80.4579 151.454,-70.2216 145.667,-74.16"/>
<text text-anchor="middle" x="165.5" y="-53.5" font-family="Helvetica,sans-Serif" font-size="10.00"> m_obsTag</text>
</g>
</g>
</svg>
