<?xml version="1.0" encoding="UTF-8" standalone="no"?>
<!DOCTYPE svg PUBLIC "-//W3C//DTD SVG 1.1//EN"
 "http://www.w3.org/Graphics/SVG/1.1/DTD/svg11.dtd">
<!-- Generated by graphviz version 2.26.3 (20100126.1600)
 -->
<!-- Title: io::IWriter Pages: 1 -->
<svg width="858pt" height="642pt"
 viewBox="0.00 0.00 858.00 642.00" xmlns="http://www.w3.org/2000/svg" xmlns:xlink="http://www.w3.org/1999/xlink">
<g id="graph1" class="graph" transform="scale(1 1) rotate(0) translate(4 638)">
<title>io::IWriter</title>
<polygon fill="white" stroke="white" points="-4,5 -4,-638 855,-638 855,5 -4,5"/>
<!-- Node1 -->
<g id="node1" class="node"><title>Node1</title>
<polygon fill="#bfbfbf" stroke="black" points="594.5,-300.5 594.5,-321.5 653.5,-321.5 653.5,-300.5 594.5,-300.5"/>
<text text-anchor="middle" x="624" y="-308.5" font-family="Helvetica,sans-Serif" font-size="10.00">io::IWriter</text>
</g>
<!-- Node9 -->
<g id="node17" class="node"><title>Node9</title>
<a xlink:href="classioAtoms_1_1SWriter.html" target="_top" xlink:title="Atoms writer. Service to write an fwData medical data converted in fwAtoms. ">
<polygon fill="white" stroke="black" points="724,-612.5 724,-633.5 816,-633.5 816,-612.5 724,-612.5"/>
<text text-anchor="middle" x="770" y="-620.5" font-family="Helvetica,sans-Serif" font-size="10.00">ioAtoms::SWriter</text>
</a>
</g>
<!-- Node1&#45;&gt;Node9 -->
<g id="edge16" class="edge"><title>Node1&#45;&gt;Node9</title>
<path fill="none" stroke="midnightblue" d="M625.895,-331.74C631.795,-391.77 651.773,-563.895 690,-603 698.907,-612.111 711.29,-617.305 723.655,-620.203"/>
<polygon fill="midnightblue" stroke="midnightblue" points="629.361,-331.219 624.929,-321.596 622.393,-331.883 629.361,-331.219"/>
</g>
<!-- Node10 -->
<g id="node19" class="node"><title>Node10</title>
<a xlink:href="classioData_1_1MeshWriterService.html" target="_top" xlink:title="Mesh writer service. ">
<polygon fill="white" stroke="black" points="703,-572.5 703,-593.5 837,-593.5 837,-572.5 703,-572.5"/>
<text text-anchor="middle" x="770" y="-580.5" font-family="Helvetica,sans-Serif" font-size="10.00">ioData::MeshWriterService</text>
</a>
</g>
<!-- Node1&#45;&gt;Node10 -->
<g id="edge18" class="edge"><title>Node1&#45;&gt;Node10</title>
<path fill="none" stroke="midnightblue" d="M626.693,-331.709C634.152,-385.928 656.751,-530.12 690,-563 693.766,-566.725 698.115,-569.79 702.8,-572.31"/>
<polygon fill="midnightblue" stroke="midnightblue" points="630.132,-331.023 625.332,-321.578 623.194,-331.955 630.132,-331.023"/>
</g>
<!-- Node11 -->
<g id="node21" class="node"><title>Node11</title>
<a xlink:href="classioData_1_1TransformationMatrix3DWriterService.html" target="_top" xlink:title="Transformation matrix 3D writer service. ">
<polygon fill="white" stroke="black" points="695.5,-520 695.5,-554 844.5,-554 844.5,-520 695.5,-520"/>
<text text-anchor="start" x="703.5" y="-541" font-family="Helvetica,sans-Serif" font-size="10.00">ioData::TransformationMatrix3</text>
<text text-anchor="middle" x="770" y="-528" font-family="Helvetica,sans-Serif" font-size="10.00">DWriterService</text>
</a>
</g>
<!-- Node1&#45;&gt;Node11 -->
<g id="edge20" class="edge"><title>Node1&#45;&gt;Node11</title>
<path fill="none" stroke="midnightblue" d="M628.303,-331.498C638.259,-377.137 664.026,-485.143 690,-511 693.415,-514.4 697.28,-517.356 701.42,-519.925"/>
<polygon fill="midnightblue" stroke="midnightblue" points="631.691,-330.606 626.171,-321.562 624.846,-332.074 631.691,-330.606"/>
</g>
<!-- Node12 -->
<g id="node23" class="node"><title>Node12</title>
<a xlink:href="classioGdcm_1_1SDicomSeriesWriter.html" target="_top" xlink:title="Services to write an DicomSeries in DICOM format. ">
<polygon fill="white" stroke="black" points="697,-480.5 697,-501.5 843,-501.5 843,-480.5 697,-480.5"/>
<text text-anchor="middle" x="770" y="-488.5" font-family="Helvetica,sans-Serif" font-size="10.00">ioGdcm::SDicomSeriesWriter</text>
</a>
</g>
<!-- Node1&#45;&gt;Node12 -->
<g id="edge22" class="edge"><title>Node1&#45;&gt;Node12</title>
<path fill="none" stroke="midnightblue" d="M626.619,-332.166C632.029,-366.579 647.703,-434.478 690,-471 694.443,-474.836 699.514,-477.957 704.899,-480.492"/>
<polygon fill="midnightblue" stroke="midnightblue" points="630.028,-331.281 625.154,-321.874 623.098,-332.267 630.028,-331.281"/>
</g>
<!-- Node13 -->
<g id="node25" class="node"><title>Node13</title>
<a xlink:href="classioGdcm_1_1SSeriesDBWriter.html" target="_top" xlink:title="Services to write several series in DICOM format. ">
<polygon fill="white" stroke="black" points="704.5,-440.5 704.5,-461.5 835.5,-461.5 835.5,-440.5 704.5,-440.5"/>
<text text-anchor="middle" x="770" y="-448.5" font-family="Helvetica,sans-Serif" font-size="10.00">ioGdcm::SSeriesDBWriter</text>
</a>
</g>
<!-- Node1&#45;&gt;Node13 -->
<g id="edge24" class="edge"><title>Node1&#45;&gt;Node13</title>
<path fill="none" stroke="midnightblue" d="M629.628,-331.45C638.133,-358.436 656.892,-405.492 690,-431 694.99,-434.845 700.628,-437.958 706.544,-440.479"/>
<polygon fill="midnightblue" stroke="midnightblue" points="632.889,-330.137 626.685,-321.548 626.179,-332.131 632.889,-330.137"/>
</g>
<!-- Node14 -->
<g id="node27" class="node"><title>Node14</title>
<a xlink:href="classioITK_1_1InrImageWriterService.html" target="_top" xlink:title="ioITK::InrImageWriterService">
<polygon fill="white" stroke="black" points="698.5,-400.5 698.5,-421.5 841.5,-421.5 841.5,-400.5 698.5,-400.5"/>
<text text-anchor="middle" x="770" y="-408.5" font-family="Helvetica,sans-Serif" font-size="10.00">ioITK::InrImageWriterService</text>
</a>
</g>
<!-- Node1&#45;&gt;Node14 -->
<g id="edge26" class="edge"><title>Node1&#45;&gt;Node14</title>
<path fill="none" stroke="midnightblue" d="M634.95,-330.384C646.344,-348.768 665.883,-375.779 690,-391 696.053,-394.82 702.794,-397.911 709.722,-400.412"/>
<polygon fill="midnightblue" stroke="midnightblue" points="637.879,-328.462 629.753,-321.664 631.866,-332.046 637.879,-328.462"/>
</g>
<!-- Node15 -->
<g id="node29" class="node"><title>Node15</title>
<a xlink:href="classioITK_1_1JpgImageWriterService.html" target="_top" xlink:title="ioITK::JpgImageWriterService">
<polygon fill="white" stroke="black" points="696,-360.5 696,-381.5 844,-381.5 844,-360.5 696,-360.5"/>
<text text-anchor="middle" x="770" y="-368.5" font-family="Helvetica,sans-Serif" font-size="10.00">ioITK::JpgImageWriterService</text>
</a>
</g>
<!-- Node1&#45;&gt;Node15 -->
<g id="edge28" class="edge"><title>Node1&#45;&gt;Node15</title>
<path fill="none" stroke="midnightblue" d="M646.823,-327.174C659.135,-335.284 674.873,-344.695 690,-351 698.854,-354.69 708.553,-357.819 718.048,-360.427"/>
<polygon fill="midnightblue" stroke="midnightblue" points="648.765,-324.262 638.52,-321.561 644.845,-330.062 648.765,-324.262"/>
</g>
<!-- Node16 -->
<g id="node31" class="node"><title>Node16</title>
<a xlink:href="classioITK_1_1SImageSeriesWriter.html" target="_top" xlink:title="Write an image to inr format. ">
<polygon fill="white" stroke="black" points="703,-320.5 703,-341.5 837,-341.5 837,-320.5 703,-320.5"/>
<text text-anchor="middle" x="770" y="-328.5" font-family="Helvetica,sans-Serif" font-size="10.00">ioITK::SImageSeriesWriter</text>
</a>
</g>
<!-- Node1&#45;&gt;Node16 -->
<g id="edge30" class="edge"><title>Node1&#45;&gt;Node16</title>
<path fill="none" stroke="midnightblue" d="M663.719,-316.441C675.801,-318.096 689.431,-319.963 702.799,-321.794"/>
<polygon fill="midnightblue" stroke="midnightblue" points="663.928,-312.937 653.545,-315.047 662.978,-319.872 663.928,-312.937"/>
</g>
<!-- Node17 -->
<g id="node33" class="node"><title>Node17</title>
<a xlink:href="classioITK_1_1SJpgImageSeriesWriter.html" target="_top" xlink:title="Write an image to jpg format. ">
<polygon fill="white" stroke="black" points="695.5,-280.5 695.5,-301.5 844.5,-301.5 844.5,-280.5 695.5,-280.5"/>
<text text-anchor="middle" x="770" y="-288.5" font-family="Helvetica,sans-Serif" font-size="10.00">ioITK::SJpgImageSeriesWriter</text>
</a>
</g>
<!-- Node1&#45;&gt;Node17 -->
<g id="edge32" class="edge"><title>Node1&#45;&gt;Node17</title>
<path fill="none" stroke="midnightblue" d="M663.73,-305.558C673.525,-304.216 684.337,-302.735 695.202,-301.246"/>
<polygon fill="midnightblue" stroke="midnightblue" points="662.978,-302.128 653.545,-306.953 663.928,-309.063 662.978,-302.128"/>
</g>
<!-- Node18 -->
<g id="node35" class="node"><title>Node18</title>
<a xlink:href="classioQt_1_1SPdfWriter.html" target="_top" xlink:title="Creates and writes a PDF containing images. ">
<polygon fill="white" stroke="black" points="725.5,-240.5 725.5,-261.5 814.5,-261.5 814.5,-240.5 725.5,-240.5"/>
<text text-anchor="middle" x="770" y="-248.5" font-family="Helvetica,sans-Serif" font-size="10.00">ioQt::SPdfWriter</text>
</a>
</g>
<!-- Node1&#45;&gt;Node18 -->
<g id="edge34" class="edge"><title>Node1&#45;&gt;Node18</title>
<path fill="none" stroke="midnightblue" d="M646.823,-294.826C659.135,-286.716 674.873,-277.305 690,-271 701.1,-266.373 713.529,-262.63 725.22,-259.687"/>
<polygon fill="midnightblue" stroke="midnightblue" points="644.845,-291.938 638.52,-300.439 648.765,-297.738 644.845,-291.938"/>
</g>
<!-- Node19 -->
<g id="node37" class="node"><title>Node19</title>
<a xlink:href="classioVTK_1_1SImageSeriesWriter.html" target="_top" xlink:title="VTK Image Writer. ">
<polygon fill="white" stroke="black" points="701.5,-200.5 701.5,-221.5 838.5,-221.5 838.5,-200.5 701.5,-200.5"/>
<text text-anchor="middle" x="770" y="-208.5" font-family="Helvetica,sans-Serif" font-size="10.00">ioVTK::SImageSeriesWriter</text>
</a>
</g>
<!-- Node1&#45;&gt;Node19 -->
<g id="edge36" class="edge"><title>Node1&#45;&gt;Node19</title>
<path fill="none" stroke="midnightblue" d="M634.95,-291.616C646.344,-273.232 665.883,-246.221 690,-231 696.053,-227.18 702.794,-224.089 709.722,-221.588"/>
<polygon fill="midnightblue" stroke="midnightblue" points="631.866,-289.954 629.753,-300.336 637.879,-293.538 631.866,-289.954"/>
</g>
<!-- Node20 -->
<g id="node39" class="node"><title>Node20</title>
<a xlink:href="classioVTK_1_1SImageWriter.html" target="_top" xlink:title="VTK Image Writer. ">
<polygon fill="white" stroke="black" points="715,-160.5 715,-181.5 825,-181.5 825,-160.5 715,-160.5"/>
<text text-anchor="middle" x="770" y="-168.5" font-family="Helvetica,sans-Serif" font-size="10.00">ioVTK::SImageWriter</text>
</a>
</g>
<!-- Node1&#45;&gt;Node20 -->
<g id="edge38" class="edge"><title>Node1&#45;&gt;Node20</title>
<path fill="none" stroke="midnightblue" d="M629.628,-290.55C638.133,-263.564 656.892,-216.508 690,-191 697.258,-185.408 705.887,-181.362 714.748,-178.438"/>
<polygon fill="midnightblue" stroke="midnightblue" points="626.179,-289.869 626.685,-300.452 632.889,-291.863 626.179,-289.869"/>
</g>
<!-- Node21 -->
<g id="node41" class="node"><title>Node21</title>
<a xlink:href="classioVTK_1_1SMeshWriter.html" target="_top" xlink:title="VTK Mesh Writer. ">
<polygon fill="white" stroke="black" points="716.5,-120.5 716.5,-141.5 823.5,-141.5 823.5,-120.5 716.5,-120.5"/>
<text text-anchor="middle" x="770" y="-128.5" font-family="Helvetica,sans-Serif" font-size="10.00">ioVTK::SMeshWriter</text>
</a>
</g>
<!-- Node1&#45;&gt;Node21 -->
<g id="edge40" class="edge"><title>Node1&#45;&gt;Node21</title>
<path fill="none" stroke="midnightblue" d="M626.619,-289.834C632.029,-255.421 647.703,-187.522 690,-151 697.477,-144.544 706.735,-140.115 716.271,-137.09"/>
<polygon fill="midnightblue" stroke="midnightblue" points="623.098,-289.733 625.154,-300.126 630.028,-290.719 623.098,-289.733"/>
</g>
<!-- Node22 -->
<g id="node43" class="node"><title>Node22</title>
<a xlink:href="classioVTK_1_1SModelSeriesObjWriter.html" target="_top" xlink:title="Wavefront OBJ files. ">
<polygon fill="white" stroke="black" points="694,-80.5 694,-101.5 846,-101.5 846,-80.5 694,-80.5"/>
<text text-anchor="middle" x="770" y="-88.5" font-family="Helvetica,sans-Serif" font-size="10.00">ioVTK::SModelSeriesObjWriter</text>
</a>
</g>
<!-- Node1&#45;&gt;Node22 -->
<g id="edge42" class="edge"><title>Node1&#45;&gt;Node22</title>
<path fill="none" stroke="midnightblue" d="M628.178,-290.373C637.877,-244.466 663.146,-135.942 690,-111 694.091,-107.2 698.792,-104.094 703.823,-101.558"/>
<polygon fill="midnightblue" stroke="midnightblue" points="624.709,-289.866 626.105,-300.369 631.563,-291.288 624.709,-289.866"/>
</g>
<!-- Node23 -->
<g id="node45" class="node"><title>Node23</title>
<a xlink:href="classioVTK_1_1SModelSeriesWriter.html" target="_top" xlink:title="VTK Model series writer.Service writing a model series as .vtk files using the fwVtkIO lib...">
<polygon fill="white" stroke="black" points="701.5,-40.5 701.5,-61.5 838.5,-61.5 838.5,-40.5 701.5,-40.5"/>
<text text-anchor="middle" x="770" y="-48.5" font-family="Helvetica,sans-Serif" font-size="10.00">ioVTK::SModelSeriesWriter</text>
</a>
</g>
<!-- Node1&#45;&gt;Node23 -->
<g id="edge44" class="edge"><title>Node1&#45;&gt;Node23</title>
<path fill="none" stroke="midnightblue" d="M626.992,-290.233C634.956,-237.796 658.249,-102.017 690,-71 693.892,-67.1984 698.39,-64.0848 703.231,-61.5386"/>
<polygon fill="midnightblue" stroke="midnightblue" points="623.496,-289.949 625.489,-300.355 630.42,-290.978 623.496,-289.949"/>
</g>
<!-- Node24 -->
<g id="node47" class="node"><title>Node24</title>
<a xlink:href="classioVtkGdcm_1_1SImageSeriesWriter.html" target="_top" xlink:title="Services to write an ImageSeries in DICOM format. ">
<polygon fill="white" stroke="black" points="690.5,-0.5 690.5,-21.5 849.5,-21.5 849.5,-0.5 690.5,-0.5"/>
<text text-anchor="middle" x="770" y="-8.5" font-family="Helvetica,sans-Serif" font-size="10.00">ioVtkGdcm::SImageSeriesWriter</text>
</a>
</g>
<!-- Node1&#45;&gt;Node24 -->
<g id="edge46" class="edge"><title>Node1&#45;&gt;Node24</title>
<path fill="none" stroke="midnightblue" d="M626.145,-289.961C632.538,-231.365 653.334,-68.1636 690,-31 693.72,-27.2292 698.036,-24.1307 702.698,-21.5888"/>
<polygon fill="midnightblue" stroke="midnightblue" points="622.631,-289.904 625.058,-300.218 629.592,-290.642 622.631,-289.904"/>
</g>
<!-- Node2 -->
<g id="node2" class="node"><title>Node2</title>
<a xlink:href="classfwServices_1_1IService.html" target="_top" xlink:title="Base class for all services. ">
<polygon fill="white" stroke="black" points="450.5,-300.5 450.5,-321.5 557.5,-321.5 557.5,-300.5 450.5,-300.5"/>
<text text-anchor="middle" x="504" y="-308.5" font-family="Helvetica,sans-Serif" font-size="10.00">fwServices::IService</text>
</a>
</g>
<!-- Node2&#45;&gt;Node1 -->
<g id="edge2" class="edge"><title>Node2&#45;&gt;Node1</title>
<path fill="none" stroke="midnightblue" d="M567.765,-311C577.051,-311 586.218,-311 594.368,-311"/>
<polygon fill="midnightblue" stroke="midnightblue" points="567.682,-307.5 557.682,-311 567.682,-314.5 567.682,-307.5"/>
</g>
<!-- Node3 -->
<g id="node4" class="node"><title>Node3</title>
<a xlink:href="classfwTools_1_1Object.html" target="_top" xlink:title="Define Base class for FW4SPL objects and services. ">
<polygon fill="white" stroke="black" points="319,-340.5 319,-361.5 405,-361.5 405,-340.5 319,-340.5"/>
<text text-anchor="middle" x="362" y="-348.5" font-family="Helvetica,sans-Serif" font-size="10.00">fwTools::Object</text>
</a>
</g>
<!-- Node3&#45;&gt;Node2 -->
<g id="edge4" class="edge"><title>Node3&#45;&gt;Node2</title>
<path fill="none" stroke="midnightblue" d="M409.084,-337.737C427.727,-332.485 448.862,-326.532 466.447,-321.578"/>
<polygon fill="midnightblue" stroke="midnightblue" points="407.985,-334.41 399.309,-340.49 409.883,-341.148 407.985,-334.41"/>
</g>
<!-- Node4 -->
<g id="node6" class="node"><title>Node4</title>
<a xlink:href="classfwCore_1_1BaseObject.html" target="_top" xlink:title="Base class for all FW4SPL&#39;s classes. ">
<polygon fill="white" stroke="black" points="168.5,-360.5 168.5,-381.5 273.5,-381.5 273.5,-360.5 168.5,-360.5"/>
<text text-anchor="middle" x="221" y="-368.5" font-family="Helvetica,sans-Serif" font-size="10.00">fwCore::BaseObject</text>
</a>
</g>
<!-- Node4&#45;&gt;Node3 -->
<g id="edge6" class="edge"><title>Node4&#45;&gt;Node3</title>
<path fill="none" stroke="midnightblue" d="M283.757,-362.098C295.55,-360.426 307.635,-358.711 318.671,-357.146"/>
<polygon fill="midnightblue" stroke="midnightblue" points="282.913,-358.683 273.503,-363.553 283.896,-365.614 282.913,-358.683"/>
</g>
<!-- Node5 -->
<g id="node8" class="node"><title>Node5</title>
<polygon fill="white" stroke="#bfbfbf" points="0.5,-354 0.5,-388 131.5,-388 131.5,-354 0.5,-354"/>
<text text-anchor="start" x="8.5" y="-375" font-family="Helvetica,sans-Serif" font-size="10.00">std::enable_shared</text>
<text text-anchor="middle" x="66" y="-362" font-family="Helvetica,sans-Serif" font-size="10.00">_from_this&lt; BaseObject &gt;</text>
</g>
<!-- Node5&#45;&gt;Node4 -->
<g id="edge8" class="edge"><title>Node5&#45;&gt;Node4</title>
<path fill="none" stroke="midnightblue" d="M141.815,-371C150.778,-371 159.771,-371 168.315,-371"/>
<polygon fill="midnightblue" stroke="midnightblue" points="141.734,-367.5 131.734,-371 141.734,-374.5 141.734,-367.5"/>
</g>
<!-- Node6 -->
<g id="node10" class="node"><title>Node6</title>
<a xlink:href="classfwTools_1_1fwID.html" target="_top" xlink:title="Defines ID for fwTools::Object. It is used to associate ID with object. ">
<polygon fill="white" stroke="black" points="182,-320.5 182,-341.5 260,-341.5 260,-320.5 182,-320.5"/>
<text text-anchor="middle" x="221" y="-328.5" font-family="Helvetica,sans-Serif" font-size="10.00">fwTools::fwID</text>
</a>
</g>
<!-- Node6&#45;&gt;Node3 -->
<g id="edge10" class="edge"><title>Node6&#45;&gt;Node3</title>
<path fill="none" stroke="darkgreen" d="M270.417,-338.009C286.248,-340.255 303.641,-342.722 318.977,-344.897"/>
<polygon fill="darkgreen" stroke="darkgreen" points="270.669,-334.51 260.276,-336.571 269.686,-341.441 270.669,-334.51"/>
</g>
<!-- Node7 -->
<g id="node12" class="node"><title>Node7</title>
<a xlink:href="classfwCom_1_1HasSlots.html" target="_top" xlink:title="This class proposes a mapping between a SlotKeyType and a SlotBase. ">
<polygon fill="white" stroke="black" points="314.5,-300.5 314.5,-321.5 409.5,-321.5 409.5,-300.5 314.5,-300.5"/>
<text text-anchor="middle" x="362" y="-308.5" font-family="Helvetica,sans-Serif" font-size="10.00">fwCom::HasSlots</text>
</a>
</g>
<!-- Node7&#45;&gt;Node2 -->
<g id="edge12" class="edge"><title>Node7&#45;&gt;Node2</title>
<path fill="none" stroke="midnightblue" d="M419.975,-311C430.014,-311 440.412,-311 450.33,-311"/>
<polygon fill="midnightblue" stroke="midnightblue" points="419.679,-307.5 409.679,-311 419.679,-314.5 419.679,-307.5"/>
</g>
<!-- Node8 -->
<g id="node14" class="node"><title>Node8</title>
<a xlink:href="classfwCom_1_1HasSignals.html" target="_top" xlink:title="This class proposes a mapping between a SignalKeyType and a SignalBase. ">
<polygon fill="white" stroke="black" points="310,-260.5 310,-281.5 414,-281.5 414,-260.5 310,-260.5"/>
<text text-anchor="middle" x="362" y="-268.5" font-family="Helvetica,sans-Serif" font-size="10.00">fwCom::HasSignals</text>
</a>
</g>
<!-- Node8&#45;&gt;Node2 -->
<g id="edge14" class="edge"><title>Node8&#45;&gt;Node2</title>
<path fill="none" stroke="midnightblue" d="M409.084,-284.263C427.727,-289.515 448.862,-295.468 466.447,-300.422"/>
<polygon fill="midnightblue" stroke="midnightblue" points="409.883,-280.852 399.309,-281.51 407.985,-287.59 409.883,-280.852"/>
</g>
</g>
</svg>
