<?xml version="1.0" encoding="UTF-8" standalone="no"?>
<!DOCTYPE svg PUBLIC "-//W3C//DTD SVG 1.1//EN"
 "http://www.w3.org/Graphics/SVG/1.1/DTD/svg11.dtd">
<!-- Generated by graphviz version 2.36.0 (20140111.2315)
 -->
<!-- Title: fwGdcmIO::helper::StructuredReport::dumpSRNode Pages: 1 -->
<svg width="356pt" height="48pt"
 viewBox="0.00 0.00 356.00 48.00" xmlns="http://www.w3.org/2000/svg" xmlns:xlink="http://www.w3.org/1999/xlink">
<g id="graph0" class="graph" transform="scale(1 1) rotate(0) translate(4 44)">
<title>fwGdcmIO::helper::StructuredReport::dumpSRNode</title>
<polygon fill="white" stroke="none" points="-4,4 -4,-44 352,-44 352,4 -4,4"/>
<!-- Node1 -->
<g id="node1" class="node"><title>Node1</title>
<polygon fill="#bfbfbf" stroke="black" points="0.5,-5 0.5,-35 147.5,-35 147.5,-5 0.5,-5"/>
<text text-anchor="start" x="8.5" y="-23" font-family="Helvetica,sans-Serif" font-size="10.00">fwGdcmIO::helper::Structured</text>
<text text-anchor="middle" x="74" y="-12" font-family="Helvetica,sans-Serif" font-size="10.00">Report::dumpSRNode</text>
</g>
<!-- Node2 -->
<g id="node2" class="node"><title>Node2</title>
<g id="a_node2"><a xlink:href="classfwGdcmIO_1_1container_1_1sr_1_1DicomSRNode.html#a57d396d35c50a5293cea96f15115558e" target="_top" xlink:title="Get Sub node container. ">
<polygon fill="white" stroke="black" points="184.5,0.5 184.5,-40.5 347.5,-40.5 347.5,0.5 184.5,0.5"/>
<text text-anchor="start" x="192.5" y="-28.5" font-family="Helvetica,sans-Serif" font-size="10.00">fwGdcmIO::container</text>
<text text-anchor="start" x="192.5" y="-17.5" font-family="Helvetica,sans-Serif" font-size="10.00">::sr::DicomSRNode::getSubNode</text>
<text text-anchor="middle" x="266" y="-6.5" font-family="Helvetica,sans-Serif" font-size="10.00">Container</text>
</a>
</g>
</g>
<!-- Node1&#45;&gt;Node2 -->
<g id="edge1" class="edge"><title>Node1&#45;&gt;Node2</title>
<path fill="none" stroke="midnightblue" d="M147.644,-20C156.397,-20 165.419,-20 174.389,-20"/>
<polygon fill="midnightblue" stroke="midnightblue" points="174.476,-23.5001 184.476,-20 174.476,-16.5001 174.476,-23.5001"/>
</g>
</g>
</svg>
