<?xml version="1.0" encoding="UTF-8" standalone="no"?>
<!DOCTYPE svg PUBLIC "-//W3C//DTD SVG 1.1//EN"
 "http://www.w3.org/Graphics/SVG/1.1/DTD/svg11.dtd">
<!-- Generated by graphviz version 2.36.0 (20140111.2315)
 -->
<!-- Title: fwStructuralPatch::fwData::Material::V1ToV2 Pages: 1 -->
<svg width="140pt" height="288pt"
 viewBox="0.00 0.00 140.00 288.00" xmlns="http://www.w3.org/2000/svg" xmlns:xlink="http://www.w3.org/1999/xlink">
<g id="graph0" class="graph" transform="scale(1 1) rotate(0) translate(4 284)">
<title>fwStructuralPatch::fwData::Material::V1ToV2</title>
<polygon fill="white" stroke="none" points="-4,4 -4,-284 136,-284 136,4 -4,4"/>
<!-- Node1 -->
<g id="node1" class="node"><title>Node1</title>
<polygon fill="#bfbfbf" stroke="black" points="1,-1 1,-31 131,-31 131,-1 1,-1"/>
<text text-anchor="start" x="9" y="-19" font-family="Helvetica,sans-Serif" font-size="10.00">fwStructuralPatch::</text>
<text text-anchor="middle" x="66" y="-8" font-family="Helvetica,sans-Serif" font-size="10.00">fwData::Material::V1ToV2</text>
</g>
<!-- Node2 -->
<g id="node2" class="node"><title>Node2</title>
<g id="a_node2"><a xlink:href="classfwAtomsPatch_1_1IStructuralPatch.html" target="_top" xlink:title="Base class of all structural patches. ">
<polygon fill="white" stroke="black" points="0,-69 0,-99 132,-99 132,-69 0,-69"/>
<text text-anchor="start" x="8" y="-87" font-family="Helvetica,sans-Serif" font-size="10.00">fwAtomsPatch::IStructural</text>
<text text-anchor="middle" x="66" y="-76" font-family="Helvetica,sans-Serif" font-size="10.00">Patch</text>
</a>
</g>
</g>
<!-- Node2&#45;&gt;Node1 -->
<g id="edge1" class="edge"><title>Node2&#45;&gt;Node1</title>
<path fill="none" stroke="midnightblue" d="M66,-58.5322C66,-49.3606 66,-39.2449 66,-31.2931"/>
<polygon fill="midnightblue" stroke="midnightblue" points="62.5001,-58.6789 66,-68.679 69.5001,-58.679 62.5001,-58.6789"/>
</g>
<!-- Node3 -->
<g id="node3" class="node"><title>Node3</title>
<g id="a_node3"><a xlink:href="classfwAtomsPatch_1_1IPatch.html" target="_top" xlink:title="Base class of all patches. ">
<polygon fill="white" stroke="black" points="8,-136.5 8,-155.5 124,-155.5 124,-136.5 8,-136.5"/>
<text text-anchor="middle" x="66" y="-143.5" font-family="Helvetica,sans-Serif" font-size="10.00">fwAtomsPatch::IPatch</text>
</a>
</g>
</g>
<!-- Node3&#45;&gt;Node2 -->
<g id="edge2" class="edge"><title>Node3&#45;&gt;Node2</title>
<path fill="none" stroke="midnightblue" d="M66,-126.371C66,-117.585 66,-107.272 66,-99.1408"/>
<polygon fill="midnightblue" stroke="midnightblue" points="62.5001,-126.403 66,-136.403 69.5001,-126.403 62.5001,-126.403"/>
</g>
<!-- Node4 -->
<g id="node4" class="node"><title>Node4</title>
<g id="a_node4"><a xlink:href="classfwCore_1_1BaseObject.html" target="_top" xlink:title="Base class for all FW4SPL&#39;s classes. ">
<polygon fill="white" stroke="black" points="13.5,-192.5 13.5,-211.5 118.5,-211.5 118.5,-192.5 13.5,-192.5"/>
<text text-anchor="middle" x="66" y="-199.5" font-family="Helvetica,sans-Serif" font-size="10.00">fwCore::BaseObject</text>
</a>
</g>
</g>
<!-- Node4&#45;&gt;Node3 -->
<g id="edge3" class="edge"><title>Node4&#45;&gt;Node3</title>
<path fill="none" stroke="midnightblue" d="M66,-181.805C66,-172.91 66,-162.78 66,-155.751"/>
<polygon fill="midnightblue" stroke="midnightblue" points="62.5001,-182.083 66,-192.083 69.5001,-182.083 62.5001,-182.083"/>
</g>
<!-- Node5 -->
<g id="node5" class="node"><title>Node5</title>
<polygon fill="white" stroke="#bfbfbf" points="0.5,-249 0.5,-279 131.5,-279 131.5,-249 0.5,-249"/>
<text text-anchor="start" x="8.5" y="-267" font-family="Helvetica,sans-Serif" font-size="10.00">std::enable_shared</text>
<text text-anchor="middle" x="66" y="-256" font-family="Helvetica,sans-Serif" font-size="10.00">_from_this&lt; BaseObject &gt;</text>
</g>
<!-- Node5&#45;&gt;Node4 -->
<g id="edge4" class="edge"><title>Node5&#45;&gt;Node4</title>
<path fill="none" stroke="midnightblue" d="M66,-238.586C66,-229.074 66,-218.786 66,-211.731"/>
<polygon fill="midnightblue" stroke="midnightblue" points="62.5001,-238.781 66,-248.781 69.5001,-238.781 62.5001,-238.781"/>
</g>
</g>
</svg>
