<?xml version="1.0" encoding="UTF-8" standalone="no"?>
<!DOCTYPE svg PUBLIC "-//W3C//DTD SVG 1.1//EN"
 "http://www.w3.org/Graphics/SVG/1.1/DTD/svg11.dtd">
<!-- Generated by graphviz version 2.36.0 (20140111.2315)
 -->
<!-- Title: monitorQt::PolicyTableModel Pages: 1 -->
<svg width="234pt" height="96pt"
 viewBox="0.00 0.00 234.00 96.00" xmlns="http://www.w3.org/2000/svg" xmlns:xlink="http://www.w3.org/1999/xlink">
<g id="graph0" class="graph" transform="scale(1 1) rotate(0) translate(4 92)">
<title>monitorQt::PolicyTableModel</title>
<polygon fill="white" stroke="none" points="-4,4 -4,-92 230,-92 230,4 -4,4"/>
<!-- Node1 -->
<g id="node1" class="node"><title>Node1</title>
<polygon fill="#bfbfbf" stroke="black" points="30.5,-0.5 30.5,-19.5 173.5,-19.5 173.5,-0.5 30.5,-0.5"/>
<text text-anchor="middle" x="102" y="-7.5" font-family="Helvetica,sans-Serif" font-size="10.00">monitorQt::PolicyTableModel</text>
</g>
<!-- Node2 -->
<g id="node2" class="node"><title>Node2</title>
<polygon fill="white" stroke="#bfbfbf" points="-0.5,-68.5 -0.5,-87.5 110.5,-87.5 110.5,-68.5 -0.5,-68.5"/>
<text text-anchor="middle" x="55" y="-75.5" font-family="Helvetica,sans-Serif" font-size="10.00">QAbstractTableModel</text>
</g>
<!-- Node2&#45;&gt;Node1 -->
<g id="edge1" class="edge"><title>Node2&#45;&gt;Node1</title>
<path fill="none" stroke="midnightblue" d="M67.1504,-59.9377C76.2839,-47.112 88.4276,-30.0591 95.7041,-19.8411"/>
<polygon fill="midnightblue" stroke="midnightblue" points="64.0942,-58.1957 61.1444,-68.3717 69.7962,-62.2562 64.0942,-58.1957"/>
</g>
<!-- Node3 -->
<g id="node3" class="node"><title>Node3</title>
<polygon fill="white" stroke="#bfbfbf" points="128.5,-68.5 128.5,-87.5 169.5,-87.5 169.5,-68.5 128.5,-68.5"/>
<text text-anchor="middle" x="149" y="-75.5" font-family="Helvetica,sans-Serif" font-size="10.00">static</text>
</g>
<!-- Node3&#45;&gt;Node1 -->
<g id="edge2" class="edge"><title>Node3&#45;&gt;Node1</title>
<path fill="none" stroke="#9a32cd" stroke-dasharray="5,2" d="M136.85,-59.9377C127.716,-47.112 115.572,-30.0591 108.296,-19.8411"/>
<polygon fill="#9a32cd" stroke="#9a32cd" points="134.204,-62.2562 142.856,-68.3717 139.906,-58.1957 134.204,-62.2562"/>
<text text-anchor="middle" x="177.5" y="-41.5" font-family="Helvetica,sans-Serif" font-size="10.00"> s_EXTRA_INFO_NB</text>
</g>
</g>
</svg>
