<?xml version="1.0" encoding="UTF-8" standalone="no"?>
<!DOCTYPE svg PUBLIC "-//W3C//DTD SVG 1.1//EN"
 "http://www.w3.org/Graphics/SVG/1.1/DTD/svg11.dtd">
<!-- Generated by graphviz version 2.26.3 (20100126.1600)
 -->
<!-- Title: ioVTK::SMeshWriter Pages: 1 -->
<svg width="1472pt" height="278pt"
 viewBox="0.00 0.00 1472.00 278.01" xmlns="http://www.w3.org/2000/svg" xmlns:xlink="http://www.w3.org/1999/xlink">
<g id="graph1" class="graph" transform="scale(1 1) rotate(0) translate(4 274.009)">
<title>ioVTK::SMeshWriter</title>
<polygon fill="white" stroke="white" points="-4,5 -4,-274.009 1469,-274.009 1469,5 -4,5"/>
<!-- Node1 -->
<g id="node1" class="node"><title>Node1</title>
<polygon fill="#bfbfbf" stroke="black" points="1356.5,-149.509 1356.5,-170.509 1463.5,-170.509 1463.5,-149.509 1356.5,-149.509"/>
<text text-anchor="middle" x="1410" y="-157.509" font-family="Helvetica,sans-Serif" font-size="10.00">ioVTK::SMeshWriter</text>
</g>
<!-- Node2 -->
<g id="node2" class="node"><title>Node2</title>
<a xlink:href="classio_1_1IWriter.html" target="_top" xlink:title="Writer service API. It manages extension points definition and extension configurationThis class repr...">
<polygon fill="white" stroke="black" points="1258.5,-149.509 1258.5,-170.509 1317.5,-170.509 1317.5,-149.509 1258.5,-149.509"/>
<text text-anchor="middle" x="1288" y="-157.509" font-family="Helvetica,sans-Serif" font-size="10.00">io::IWriter</text>
</a>
</g>
<!-- Node2&#45;&gt;Node1 -->
<g id="edge2" class="edge"><title>Node2&#45;&gt;Node1</title>
<path fill="none" stroke="midnightblue" d="M1327.56,-160.009C1336.77,-160.009 1346.73,-160.009 1356.43,-160.009"/>
<polygon fill="midnightblue" stroke="midnightblue" points="1327.53,-156.509 1317.53,-160.009 1327.53,-163.509 1327.53,-156.509"/>
</g>
<!-- Node3 -->
<g id="node4" class="node"><title>Node3</title>
<a xlink:href="classfwServices_1_1IService.html" target="_top" xlink:title="Base class for all services. ">
<polygon fill="white" stroke="black" points="1112.5,-149.509 1112.5,-170.509 1219.5,-170.509 1219.5,-149.509 1112.5,-149.509"/>
<text text-anchor="middle" x="1166" y="-157.509" font-family="Helvetica,sans-Serif" font-size="10.00">fwServices::IService</text>
</a>
</g>
<!-- Node3&#45;&gt;Node2 -->
<g id="edge4" class="edge"><title>Node3&#45;&gt;Node2</title>
<path fill="none" stroke="midnightblue" d="M1229.55,-160.009C1239.6,-160.009 1249.55,-160.009 1258.32,-160.009"/>
<polygon fill="midnightblue" stroke="midnightblue" points="1229.51,-156.509 1219.51,-160.009 1229.51,-163.509 1229.51,-156.509"/>
</g>
<!-- Node4 -->
<g id="node6" class="node"><title>Node4</title>
<a xlink:href="classfwTools_1_1Object.html" target="_top" xlink:title="Define Base class for FW4SPL objects and services. ">
<polygon fill="white" stroke="black" points="879,-202.509 879,-223.509 965,-223.509 965,-202.509 879,-202.509"/>
<text text-anchor="middle" x="922" y="-210.509" font-family="Helvetica,sans-Serif" font-size="10.00">fwTools::Object</text>
</a>
</g>
<!-- Node4&#45;&gt;Node3 -->
<g id="edge6" class="edge"><title>Node4&#45;&gt;Node3</title>
<path fill="none" stroke="midnightblue" d="M975.528,-203.897C1009.59,-197.813 1054.56,-189.253 1094,-180.009 1105.87,-177.226 1118.73,-173.79 1130.26,-170.556"/>
<polygon fill="midnightblue" stroke="midnightblue" points="974.561,-200.514 965.325,-205.704 975.782,-207.406 974.561,-200.514"/>
</g>
<!-- Node5 -->
<g id="node8" class="node"><title>Node5</title>
<a xlink:href="classfwCore_1_1BaseObject.html" target="_top" xlink:title="Base class for all FW4SPL&#39;s classes. ">
<polygon fill="white" stroke="black" points="680.5,-242.509 680.5,-263.509 785.5,-263.509 785.5,-242.509 680.5,-242.509"/>
<text text-anchor="middle" x="733" y="-250.509" font-family="Helvetica,sans-Serif" font-size="10.00">fwCore::BaseObject</text>
</a>
</g>
<!-- Node5&#45;&gt;Node4 -->
<g id="edge8" class="edge"><title>Node5&#45;&gt;Node4</title>
<path fill="none" stroke="midnightblue" d="M792.712,-240.371C820.64,-234.461 853.28,-227.553 878.777,-222.157"/>
<polygon fill="midnightblue" stroke="midnightblue" points="791.716,-237.005 782.658,-242.499 793.166,-243.853 791.716,-237.005"/>
</g>
<!-- Node6 -->
<g id="node10" class="node"><title>Node6</title>
<polygon fill="white" stroke="#bfbfbf" points="449.5,-236.009 449.5,-270.009 580.5,-270.009 580.5,-236.009 449.5,-236.009"/>
<text text-anchor="start" x="457.5" y="-257.009" font-family="Helvetica,sans-Serif" font-size="10.00">std::enable_shared</text>
<text text-anchor="middle" x="515" y="-244.009" font-family="Helvetica,sans-Serif" font-size="10.00">_from_this&lt; BaseObject &gt;</text>
</g>
<!-- Node6&#45;&gt;Node5 -->
<g id="edge10" class="edge"><title>Node6&#45;&gt;Node5</title>
<path fill="none" stroke="midnightblue" d="M590.959,-253.009C620.418,-253.009 653.435,-253.009 680.216,-253.009"/>
<polygon fill="midnightblue" stroke="midnightblue" points="590.703,-249.509 580.703,-253.009 590.703,-256.509 590.703,-249.509"/>
</g>
<!-- Node7 -->
<g id="node12" class="node"><title>Node7</title>
<a xlink:href="classfwTools_1_1fwID.html" target="_top" xlink:title="Defines ID for fwTools::Object. It is used to associate ID with object. ">
<polygon fill="white" stroke="black" points="694,-202.509 694,-223.509 772,-223.509 772,-202.509 694,-202.509"/>
<text text-anchor="middle" x="733" y="-210.509" font-family="Helvetica,sans-Serif" font-size="10.00">fwTools::fwID</text>
</a>
</g>
<!-- Node7&#45;&gt;Node4 -->
<g id="edge12" class="edge"><title>Node7&#45;&gt;Node4</title>
<path fill="none" stroke="darkgreen" d="M782.399,-213.009C812.353,-213.009 850.205,-213.009 878.936,-213.009"/>
<polygon fill="darkgreen" stroke="darkgreen" points="782.161,-209.509 772.161,-213.009 782.161,-216.509 782.161,-209.509"/>
</g>
<!-- Node8 -->
<g id="node14" class="node"><title>Node8</title>
<a xlink:href="classfwCom_1_1HasSlots.html" target="_top" xlink:title="This class proposes a mapping between a SlotKeyType and a SlotBase. ">
<polygon fill="white" stroke="black" points="874.5,-122.509 874.5,-143.509 969.5,-143.509 969.5,-122.509 874.5,-122.509"/>
<text text-anchor="middle" x="922" y="-130.509" font-family="Helvetica,sans-Serif" font-size="10.00">fwCom::HasSlots</text>
</a>
</g>
<!-- Node8&#45;&gt;Node3 -->
<g id="edge14" class="edge"><title>Node8&#45;&gt;Node3</title>
<path fill="none" stroke="midnightblue" d="M979.783,-139.403C1019.88,-143.839 1072.91,-149.708 1112.12,-154.047"/>
<polygon fill="midnightblue" stroke="midnightblue" points="979.949,-135.9 969.625,-138.279 979.179,-142.858 979.949,-135.9"/>
</g>
<!-- Node9 -->
<g id="node16" class="node"><title>Node9</title>
<a xlink:href="classfwCom_1_1Slots.html" target="_top" xlink:title="This class proposes a mapping between a SlotKeyType and a SlotBase. ">
<polygon fill="white" stroke="black" points="694.5,-116.509 694.5,-137.509 771.5,-137.509 771.5,-116.509 694.5,-116.509"/>
<text text-anchor="middle" x="733" y="-124.509" font-family="Helvetica,sans-Serif" font-size="10.00">fwCom::Slots</text>
</a>
</g>
<!-- Node9&#45;&gt;Node8 -->
<g id="edge16" class="edge"><title>Node9&#45;&gt;Node8</title>
<path fill="none" stroke="#9a32cd" stroke-dasharray="5,2" d="M781.832,-128.559C810.292,-129.463 846.028,-130.597 874.293,-131.494"/>
<polygon fill="#9a32cd" stroke="#9a32cd" points="781.809,-125.057 771.703,-128.238 781.587,-132.053 781.809,-125.057"/>
<text text-anchor="middle" x="828" y="-134.009" font-family="Helvetica,sans-Serif" font-size="10.00"> m_slots</text>
</g>
<!-- Node10 -->
<g id="node18" class="node"><title>Node10</title>
<polygon fill="white" stroke="#bfbfbf" points="439,-106.009 439,-140.009 591,-140.009 591,-106.009 439,-106.009"/>
<text text-anchor="start" x="447" y="-127.009" font-family="Helvetica,sans-Serif" font-size="10.00">std::map&lt; SlotKeyType,</text>
<text text-anchor="middle" x="515" y="-114.009" font-family="Helvetica,sans-Serif" font-size="10.00"> std::shared_ptr&lt; SlotBase &gt; &gt;</text>
</g>
<!-- Node10&#45;&gt;Node9 -->
<g id="edge18" class="edge"><title>Node10&#45;&gt;Node9</title>
<path fill="none" stroke="#9a32cd" stroke-dasharray="5,2" d="M601.588,-124.598C633.782,-125.188 668.703,-125.829 694.45,-126.302"/>
<polygon fill="#9a32cd" stroke="#9a32cd" points="601.308,-121.092 591.246,-124.408 601.18,-128.091 601.308,-121.092"/>
<text text-anchor="middle" x="638" y="-129.009" font-family="Helvetica,sans-Serif" font-size="10.00"> m_slots</text>
</g>
<!-- Node11 -->
<g id="node20" class="node"><title>Node11</title>
<a xlink:title="STL class. ">
<polygon fill="white" stroke="#bfbfbf" points="192,-187.509 192,-208.509 252,-208.509 252,-187.509 192,-187.509"/>
<text text-anchor="middle" x="222" y="-195.509" font-family="Helvetica,sans-Serif" font-size="10.00">std::string</text>
</a>
</g>
<!-- Node11&#45;&gt;Node10 -->
<g id="edge20" class="edge"><title>Node11&#45;&gt;Node10</title>
<path fill="none" stroke="#9a32cd" stroke-dasharray="5,2" d="M260.265,-184.267C268.668,-181.584 277.573,-178.992 286,-177.009 342.839,-163.635 360.293,-175.509 416,-158.009 424.533,-155.328 425.718,-152.386 434,-149.009 441.659,-145.886 449.843,-142.886 457.956,-140.103"/>
<polygon fill="#9a32cd" stroke="#9a32cd" points="259.09,-180.969 250.692,-187.428 261.285,-187.616 259.09,-180.969"/>
<text text-anchor="middle" x="351" y="-181.009" font-family="Helvetica,sans-Serif" font-size="10.00"> keys</text>
</g>
<!-- Node18 -->
<g id="node34" class="node"><title>Node18</title>
<polygon fill="white" stroke="#bfbfbf" points="434.5,-158.009 434.5,-192.009 595.5,-192.009 595.5,-158.009 434.5,-158.009"/>
<text text-anchor="start" x="442.5" y="-179.009" font-family="Helvetica,sans-Serif" font-size="10.00">std::map&lt; SignalKeyType,</text>
<text text-anchor="middle" x="515" y="-166.009" font-family="Helvetica,sans-Serif" font-size="10.00"> std::shared_ptr&lt; SignalBase &gt; &gt;</text>
</g>
<!-- Node11&#45;&gt;Node18 -->
<g id="edge36" class="edge"><title>Node11&#45;&gt;Node18</title>
<path fill="none" stroke="#9a32cd" stroke-dasharray="5,2" d="M262.242,-199.154C301.565,-199.808 363.063,-199.594 416,-194.009 422.005,-193.375 428.189,-192.568 434.395,-191.644"/>
<polygon fill="#9a32cd" stroke="#9a32cd" points="262.075,-195.65 252.009,-198.956 261.94,-202.649 262.075,-195.65"/>
<text text-anchor="middle" x="351" y="-203.009" font-family="Helvetica,sans-Serif" font-size="10.00"> keys</text>
</g>
<!-- Node12 -->
<g id="node22" class="node"><title>Node12</title>
<a xlink:title="STL class. ">
<polygon fill="white" stroke="#bfbfbf" points="0.5,-181.009 0.5,-215.009 95.5,-215.009 95.5,-181.009 0.5,-181.009"/>
<text text-anchor="start" x="8.5" y="-202.009" font-family="Helvetica,sans-Serif" font-size="10.00">std::basic_string&lt;</text>
<text text-anchor="middle" x="48" y="-189.009" font-family="Helvetica,sans-Serif" font-size="10.00"> char &gt;</text>
</a>
</g>
<!-- Node12&#45;&gt;Node11 -->
<g id="edge22" class="edge"><title>Node12&#45;&gt;Node11</title>
<path fill="none" stroke="midnightblue" d="M105.887,-198.009C134.618,-198.009 168.136,-198.009 191.754,-198.009"/>
<polygon fill="midnightblue" stroke="midnightblue" points="105.546,-194.509 95.5463,-198.009 105.546,-201.509 105.546,-194.509"/>
</g>
<!-- Node13 -->
<g id="node24" class="node"><title>Node13</title>
<a xlink:title="STL class. ">
<polygon fill="white" stroke="#bfbfbf" points="176,-91.5088 176,-112.509 268,-112.509 268,-91.5088 176,-91.5088"/>
<text text-anchor="middle" x="222" y="-99.5088" font-family="Helvetica,sans-Serif" font-size="10.00">std::map&lt; K, T &gt;</text>
</a>
</g>
<!-- Node13&#45;&gt;Node10 -->
<g id="edge24" class="edge"><title>Node13&#45;&gt;Node10</title>
<path fill="none" stroke="orange" stroke-dasharray="5,2" d="M260.685,-88.5813C268.942,-86.2658 277.682,-84.2174 286,-83.0088 343.177,-74.7008 359.284,-71.984 416,-83.0088 438.928,-87.4657 463.269,-97.2253 482.077,-105.988"/>
<polygon fill="orange" stroke="orange" points="259.495,-85.284 250.915,-91.4997 261.498,-91.9912 259.495,-85.284"/>
<text text-anchor="start" x="291.5" y="-100.009" font-family="Helvetica,sans-Serif" font-size="10.00"> &lt; SlotKeyType, std</text>
<text text-anchor="middle" x="351" y="-87.0088" font-family="Helvetica,sans-Serif" font-size="10.00">::shared_ptr&lt; SlotBase &gt; &gt;</text>
</g>
<!-- Node13&#45;&gt;Node18 -->
<g id="edge38" class="edge"><title>Node13&#45;&gt;Node18</title>
<path fill="none" stroke="orange" stroke-dasharray="5,2" d="M278.042,-108.95C330.875,-115.773 403.742,-126.01 416,-132.009 425.884,-136.846 424.526,-143.411 434,-149.009 439.595,-152.315 445.659,-155.252 451.866,-157.851"/>
<polygon fill="orange" stroke="orange" points="278.462,-105.476 268.098,-107.676 277.572,-112.419 278.462,-105.476"/>
<text text-anchor="start" x="286.5" y="-149.009" font-family="Helvetica,sans-Serif" font-size="10.00"> &lt; SignalKeyType, std</text>
<text text-anchor="middle" x="351" y="-136.009" font-family="Helvetica,sans-Serif" font-size="10.00">::shared_ptr&lt; SignalBase &gt; &gt;</text>
</g>
<!-- Node14 -->
<g id="node26" class="node"><title>Node14</title>
<polygon fill="white" stroke="#bfbfbf" points="33.5,-82.5088 33.5,-103.509 62.5,-103.509 62.5,-82.5088 33.5,-82.5088"/>
<text text-anchor="middle" x="48" y="-90.5088" font-family="Helvetica,sans-Serif" font-size="10.00">K</text>
</g>
<!-- Node14&#45;&gt;Node13 -->
<g id="edge26" class="edge"><title>Node14&#45;&gt;Node13</title>
<path fill="none" stroke="#9a32cd" stroke-dasharray="5,2" d="M72.8514,-94.0178C95.1501,-94.9519 128.769,-96.4312 158,-98.0088 163.781,-98.3208 169.854,-98.6711 175.861,-99.0313"/>
<polygon fill="#9a32cd" stroke="#9a32cd" points="72.7307,-90.5099 62.5945,-93.5932 72.4411,-97.5039 72.7307,-90.5099"/>
<text text-anchor="middle" x="136" y="-102.009" font-family="Helvetica,sans-Serif" font-size="10.00"> keys</text>
</g>
<!-- Node15 -->
<g id="node28" class="node"><title>Node15</title>
<polygon fill="white" stroke="#bfbfbf" points="33.5,-122.509 33.5,-143.509 62.5,-143.509 62.5,-122.509 33.5,-122.509"/>
<text text-anchor="middle" x="48" y="-130.509" font-family="Helvetica,sans-Serif" font-size="10.00">T</text>
</g>
<!-- Node15&#45;&gt;Node13 -->
<g id="edge28" class="edge"><title>Node15&#45;&gt;Node13</title>
<path fill="none" stroke="#9a32cd" stroke-dasharray="5,2" d="M72.5869,-128.628C99.3704,-123.857 142.819,-116.116 175.976,-110.209"/>
<polygon fill="#9a32cd" stroke="#9a32cd" points="71.7669,-125.219 62.5359,-130.419 72.9948,-132.111 71.7669,-125.219"/>
<text text-anchor="middle" x="136" y="-125.009" font-family="Helvetica,sans-Serif" font-size="10.00"> elements</text>
</g>
<!-- Node16 -->
<g id="node30" class="node"><title>Node16</title>
<a xlink:href="classfwCom_1_1HasSignals.html" target="_top" xlink:title="This class proposes a mapping between a SignalKeyType and a SignalBase. ">
<polygon fill="white" stroke="black" points="870,-162.509 870,-183.509 974,-183.509 974,-162.509 870,-162.509"/>
<text text-anchor="middle" x="922" y="-170.509" font-family="Helvetica,sans-Serif" font-size="10.00">fwCom::HasSignals</text>
</a>
</g>
<!-- Node16&#45;&gt;Node3 -->
<g id="edge30" class="edge"><title>Node16&#45;&gt;Node3</title>
<path fill="none" stroke="midnightblue" d="M984.116,-169.699C1023.71,-167.59 1074.51,-164.883 1112.35,-162.867"/>
<polygon fill="midnightblue" stroke="midnightblue" points="983.844,-166.209 974.045,-170.236 984.217,-173.199 983.844,-166.209"/>
</g>
<!-- Node17 -->
<g id="node32" class="node"><title>Node17</title>
<a xlink:href="classfwCom_1_1Signals.html" target="_top" xlink:title="This class proposes a mapping between a SignalKeyType and a SignalBase. ">
<polygon fill="white" stroke="black" points="690,-162.509 690,-183.509 776,-183.509 776,-162.509 690,-162.509"/>
<text text-anchor="middle" x="733" y="-170.509" font-family="Helvetica,sans-Serif" font-size="10.00">fwCom::Signals</text>
</a>
</g>
<!-- Node17&#45;&gt;Node16 -->
<g id="edge32" class="edge"><title>Node17&#45;&gt;Node16</title>
<path fill="none" stroke="#9a32cd" stroke-dasharray="5,2" d="M786.454,-173.009C812.549,-173.009 843.828,-173.009 869.76,-173.009"/>
<polygon fill="#9a32cd" stroke="#9a32cd" points="786.36,-169.509 776.36,-173.009 786.36,-176.509 786.36,-169.509"/>
<text text-anchor="middle" x="828" y="-177.009" font-family="Helvetica,sans-Serif" font-size="10.00"> m_signals</text>
</g>
<!-- Node18&#45;&gt;Node17 -->
<g id="edge34" class="edge"><title>Node18&#45;&gt;Node17</title>
<path fill="none" stroke="#9a32cd" stroke-dasharray="5,2" d="M605.751,-174.176C634.826,-173.91 665.684,-173.626 689.73,-173.406"/>
<polygon fill="#9a32cd" stroke="#9a32cd" points="605.523,-170.678 595.556,-174.27 605.588,-177.678 605.523,-170.678"/>
<text text-anchor="middle" x="638" y="-178.009" font-family="Helvetica,sans-Serif" font-size="10.00"> m_signals</text>
</g>
<!-- Node19 -->
<g id="node38" class="node"><title>Node19</title>
<polygon fill="white" stroke="#bfbfbf" points="901.5,-5.50885 901.5,-26.5088 942.5,-26.5088 942.5,-5.50885 901.5,-5.50885"/>
<text text-anchor="middle" x="922" y="-13.5088" font-family="Helvetica,sans-Serif" font-size="10.00">static</text>
</g>
<!-- Node19&#45;&gt;Node3 -->
<g id="edge40" class="edge"><title>Node19&#45;&gt;Node3</title>
<path fill="none" stroke="#9a32cd" stroke-dasharray="5,2" d="M952.775,-7.65819C989.4,0.400316 1051,7.83624 1094,-19.0088 1142.03,-48.992 1159.38,-122.022 1164.33,-149.405"/>
<polygon fill="#9a32cd" stroke="#9a32cd" points="951.632,-4.33149 942.701,-10.0304 953.237,-11.1451 951.632,-4.33149"/>
<text text-anchor="middle" x="1043" y="-127.009" font-family="Helvetica,sans-Serif" font-size="10.00"> s_STOPPED_SIG</text>
<text text-anchor="middle" x="1043" y="-114.009" font-family="Helvetica,sans-Serif" font-size="10.00">s_UPDATED_SIG</text>
<text text-anchor="middle" x="1043" y="-101.009" font-family="Helvetica,sans-Serif" font-size="10.00">s_UPDATE_SLOT</text>
<text text-anchor="middle" x="1043" y="-88.0088" font-family="Helvetica,sans-Serif" font-size="10.00">s_STARTED_SIG</text>
<text text-anchor="middle" x="1043" y="-75.0088" font-family="Helvetica,sans-Serif" font-size="10.00">s_SWAPKEY_SLOT</text>
<text text-anchor="middle" x="1043" y="-62.0088" font-family="Helvetica,sans-Serif" font-size="10.00">s_SWAP_SLOT</text>
<text text-anchor="middle" x="1043" y="-49.0088" font-family="Helvetica,sans-Serif" font-size="10.00">s_STOP_SLOT</text>
<text text-anchor="middle" x="1043" y="-36.0088" font-family="Helvetica,sans-Serif" font-size="10.00">s_START_SLOT</text>
<text text-anchor="middle" x="1043" y="-23.0088" font-family="Helvetica,sans-Serif" font-size="10.00">s_DEFAULT_OBJECT</text>
</g>
</g>
</svg>
