<?xml version="1.0" encoding="UTF-8" standalone="no"?>
<!DOCTYPE svg PUBLIC "-//W3C//DTD SVG 1.1//EN"
 "http://www.w3.org/Graphics/SVG/1.1/DTD/svg11.dtd">
<!-- Generated by graphviz version 2.36.0 (20140111.2315)
 -->
<!-- Title: fwCore::TypeDemangler&lt; T &gt; Pages: 1 -->
<svg width="154pt" height="224pt"
 viewBox="0.00 0.00 154.00 224.00" xmlns="http://www.w3.org/2000/svg" xmlns:xlink="http://www.w3.org/1999/xlink">
<g id="graph0" class="graph" transform="scale(1 1) rotate(0) translate(4 220)">
<title>fwCore::TypeDemangler&lt; T &gt;</title>
<polygon fill="white" stroke="none" points="-4,4 -4,-220 150,-220 150,4 -4,4"/>
<!-- Node1 -->
<g id="node1" class="node"><title>Node1</title>
<polygon fill="#bfbfbf" stroke="black" points="-0.5,-0.5 -0.5,-19.5 146.5,-19.5 146.5,-0.5 -0.5,-0.5"/>
<text text-anchor="middle" x="73" y="-7.5" font-family="Helvetica,sans-Serif" font-size="10.00">fwCore::TypeDemangler&lt; T &gt;</text>
</g>
<!-- Node2 -->
<g id="node2" class="node"><title>Node2</title>
<g id="a_node2"><a xlink:href="classfwCore_1_1Demangler.html" target="_top" xlink:title="typeid, string or object name demangler. ">
<polygon fill="white" stroke="black" points="22.5,-58.5 22.5,-77.5 123.5,-77.5 123.5,-58.5 22.5,-58.5"/>
<text text-anchor="middle" x="73" y="-65.5" font-family="Helvetica,sans-Serif" font-size="10.00">fwCore::Demangler</text>
</a>
</g>
</g>
<!-- Node2&#45;&gt;Node1 -->
<g id="edge1" class="edge"><title>Node2&#45;&gt;Node1</title>
<path fill="none" stroke="midnightblue" d="M73,-47.953C73,-38.2875 73,-27.0312 73,-19.5052"/>
<polygon fill="midnightblue" stroke="midnightblue" points="69.5001,-48.25 73,-58.25 76.5001,-48.25 69.5001,-48.25"/>
</g>
<!-- Node3 -->
<g id="node3" class="node"><title>Node3</title>
<g id="a_node3"><a xlink:title="STL class. ">
<polygon fill="white" stroke="#bfbfbf" points="43,-126.5 43,-145.5 103,-145.5 103,-126.5 43,-126.5"/>
<text text-anchor="middle" x="73" y="-133.5" font-family="Helvetica,sans-Serif" font-size="10.00">std::string</text>
</a>
</g>
</g>
<!-- Node3&#45;&gt;Node2 -->
<g id="edge2" class="edge"><title>Node3&#45;&gt;Node2</title>
<path fill="none" stroke="#9a32cd" stroke-dasharray="5,2" d="M73,-116.041C73,-103.472 73,-87.5631 73,-77.8411"/>
<polygon fill="#9a32cd" stroke="#9a32cd" points="69.5001,-116.372 73,-126.372 76.5001,-116.372 69.5001,-116.372"/>
<text text-anchor="middle" x="93.5" y="-99.5" font-family="Helvetica,sans-Serif" font-size="10.00"> m_name</text>
</g>
<!-- Node4 -->
<g id="node4" class="node"><title>Node4</title>
<g id="a_node4"><a xlink:title="STL class. ">
<polygon fill="white" stroke="#bfbfbf" points="25.5,-185 25.5,-215 120.5,-215 120.5,-185 25.5,-185"/>
<text text-anchor="start" x="33.5" y="-203" font-family="Helvetica,sans-Serif" font-size="10.00">std::basic_string&lt;</text>
<text text-anchor="middle" x="73" y="-192" font-family="Helvetica,sans-Serif" font-size="10.00"> char &gt;</text>
</a>
</g>
</g>
<!-- Node4&#45;&gt;Node3 -->
<g id="edge3" class="edge"><title>Node4&#45;&gt;Node3</title>
<path fill="none" stroke="midnightblue" d="M73,-174.871C73,-164.663 73,-153.408 73,-145.842"/>
<polygon fill="midnightblue" stroke="midnightblue" points="69.5001,-174.931 73,-184.931 76.5001,-174.931 69.5001,-174.931"/>
</g>
</g>
</svg>
