<?xml version="1.0" encoding="UTF-8" standalone="no"?>
<!DOCTYPE svg PUBLIC "-//W3C//DTD SVG 1.1//EN"
 "http://www.w3.org/Graphics/SVG/1.1/DTD/svg11.dtd">
<!-- Generated by graphviz version 2.26.3 (20100126.1600)
 -->
<!-- Title: fwDicomIOFilter::composite::IComposite Pages: 1 -->
<!--zoomable 273 -->
<svg id="main" version="1.1" xmlns="http://www.w3.org/2000/svg" xmlns:xlink="http://www.w3.org/1999/xlink" xml:space="preserve" onload="init(evt)">
<style type="text/css"><![CDATA[
.edge:hover path { stroke: red; }
.edge:hover polygon { stroke: red; fill: red; }
]]></style>
<script type="text/javascript"><![CDATA[
var edges = document.getElementsByTagName('g');
if (edges && edges.length) {
  for (var i=0;i<edges.length;i++) {
    if (edges[i].id.substr(0,4)=='edge') {
      edges[i].setAttribute('class','edge');
    }
  }
}
]]></script>
        <defs>
                <circle id="rim" cx="0" cy="0" r="7"/>
                <circle id="rim2" cx="0" cy="0" r="3.5"/>
                <g id="zoomPlus">
                        <use xlink:href="#rim" fill="#404040">
                                <set attributeName="fill" to="#808080" begin="zoomplus.mouseover" end="zoomplus.mouseout"/>
                        </use>
                        <path d="M-4,0h8M0,-4v8" fill="none" stroke="white" stroke-width="1.5" pointer-events="none"/>
                </g>
                <g id="zoomMin">
                        <use xlink:href="#rim" fill="#404040">
                                <set attributeName="fill" to="#808080" begin="zoomminus.mouseover" end="zoomminus.mouseout"/>
                        </use>
                        <path d="M-4,0h8" fill="none" stroke="white" stroke-width="1.5" pointer-events="none"/>
                </g>
                <g id="dirArrow">
                        <path fill="none" stroke="white" stroke-width="1.5" d="M0,-3.0v7 M-2.5,-0.5L0,-3.0L2.5,-0.5"/>
                </g>
               <g id="resetDef">
                       <use xlink:href="#rim2" fill="#404040">
                               <set attributeName="fill" to="#808080" begin="reset.mouseover" end="reset.mouseout"/>
                       </use>
               </g>
        </defs>

<script type="text/javascript">
var viewWidth = 1484;
var viewHeight = 273;
var sectionId = 'dynsection-1';
</script>
<script xlink:href="svgpan.js"/>
<svg id="graph" class="graph">
<g id="viewport">
<title>fwDicomIOFilter::composite::IComposite</title>
<polygon fill="white" stroke="white" points="-4,5 -4,-269 1481,-269 1481,5 -4,5"/>
<!-- Node1 -->
<g id="node1" class="node"><title>Node1</title>
<polygon fill="#bfbfbf" stroke="black" points="1336.5,-33 1336.5,-67 1475.5,-67 1475.5,-33 1336.5,-33"/>
<text text-anchor="start" x="1344.5" y="-54" font-family="Helvetica,sans-Serif" font-size="10.00">fwDicomIOFilter::composite</text>
<text text-anchor="middle" x="1406" y="-41" font-family="Helvetica,sans-Serif" font-size="10.00">::IComposite</text>
</g>
<!-- Node2 -->
<g id="node2" class="node"><title>Node2</title>
<a xlink:href="classfwDicomIOFilter_1_1IFilter.html" target="_top" xlink:title="Base class for Dicom instance filter. ">
<polygon fill="white" stroke="black" points="1178.5,-113.5 1178.5,-134.5 1297.5,-134.5 1297.5,-113.5 1178.5,-113.5"/>
<text text-anchor="middle" x="1238" y="-121.5" font-family="Helvetica,sans-Serif" font-size="10.00">fwDicomIOFilter::IFilter</text>
</a>
</g>
<!-- Node2&#45;&gt;Node1 -->
<g id="edge2" class="edge"><title>Node2&#45;&gt;Node1</title>
<path fill="none" stroke="midnightblue" d="M1271.33,-109.319C1298.99,-97.1371 1338.34,-79.8007 1367.37,-67.0141"/>
<polygon fill="midnightblue" stroke="midnightblue" points="1269.81,-106.163 1262.07,-113.398 1272.63,-112.57 1269.81,-106.163"/>
</g>
<!-- Node3 -->
<g id="node4" class="node"><title>Node3</title>
<a xlink:href="classfwTools_1_1Object.html" target="_top" xlink:title="Define Base class for FW4SPL objects and services. ">
<polygon fill="white" stroke="black" points="1025,-197.5 1025,-218.5 1111,-218.5 1111,-197.5 1025,-197.5"/>
<text text-anchor="middle" x="1068" y="-205.5" font-family="Helvetica,sans-Serif" font-size="10.00">fwTools::Object</text>
</a>
</g>
<!-- Node3&#45;&gt;Node2 -->
<g id="edge4" class="edge"><title>Node3&#45;&gt;Node2</title>
<path fill="none" stroke="midnightblue" d="M1098.57,-192.895C1132.64,-176.06 1186.85,-149.274 1216.64,-134.552"/>
<polygon fill="midnightblue" stroke="midnightblue" points="1096.95,-189.794 1089.53,-197.361 1100.05,-196.069 1096.95,-189.794"/>
</g>
<!-- Node4 -->
<g id="node6" class="node"><title>Node4</title>
<a xlink:href="classfwCore_1_1BaseObject.html" target="_top" xlink:title="Base class for all FW4SPL&#39;s classes. ">
<polygon fill="white" stroke="black" points="748.5,-237.5 748.5,-258.5 853.5,-258.5 853.5,-237.5 748.5,-237.5"/>
<text text-anchor="middle" x="801" y="-245.5" font-family="Helvetica,sans-Serif" font-size="10.00">fwCore::BaseObject</text>
</a>
</g>
<!-- Node4&#45;&gt;Node3 -->
<g id="edge6" class="edge"><title>Node4&#45;&gt;Node3</title>
<path fill="none" stroke="midnightblue" d="M863.891,-238.894C897.719,-233.963 940.15,-227.724 978,-222 993.322,-219.683 1010.1,-217.088 1024.98,-214.768"/>
<polygon fill="midnightblue" stroke="midnightblue" points="863.074,-235.476 853.683,-240.38 864.083,-242.403 863.074,-235.476"/>
</g>
<!-- Node5 -->
<g id="node8" class="node"><title>Node5</title>
<polygon fill="white" stroke="#bfbfbf" points="399.5,-231 399.5,-265 530.5,-265 530.5,-231 399.5,-231"/>
<text text-anchor="start" x="407.5" y="-252" font-family="Helvetica,sans-Serif" font-size="10.00">std::enable_shared</text>
<text text-anchor="middle" x="465" y="-239" font-family="Helvetica,sans-Serif" font-size="10.00">_from_this&lt; BaseObject &gt;</text>
</g>
<!-- Node5&#45;&gt;Node4 -->
<g id="edge8" class="edge"><title>Node5&#45;&gt;Node4</title>
<path fill="none" stroke="midnightblue" d="M540.897,-248C604.124,-248 692.541,-248 748.273,-248"/>
<polygon fill="midnightblue" stroke="midnightblue" points="540.582,-244.5 530.582,-248 540.582,-251.5 540.582,-244.5"/>
</g>
<!-- Node6 -->
<g id="node10" class="node"><title>Node6</title>
<a xlink:href="classfwTools_1_1fwID.html" target="_top" xlink:title="Defines ID for fwTools::Object. It is used to associate ID with object. ">
<polygon fill="white" stroke="black" points="762,-197.5 762,-218.5 840,-218.5 840,-197.5 762,-197.5"/>
<text text-anchor="middle" x="801" y="-205.5" font-family="Helvetica,sans-Serif" font-size="10.00">fwTools::fwID</text>
</a>
</g>
<!-- Node6&#45;&gt;Node3 -->
<g id="edge10" class="edge"><title>Node6&#45;&gt;Node3</title>
<path fill="none" stroke="darkgreen" d="M850.365,-208C900.412,-208 977.087,-208 1024.8,-208"/>
<polygon fill="darkgreen" stroke="darkgreen" points="850.11,-204.5 840.11,-208 850.11,-211.5 850.11,-204.5"/>
</g>
<!-- Node7 -->
<g id="node12" class="node"><title>Node7</title>
<a xlink:href="classfwTools_1_1DynamicAttributes.html" target="_top" xlink:title="fwTools::DynamicAttributes\l\&lt; ::fwDicomIOFilter::IFilter \&gt;">
<polygon fill="white" stroke="black" points="996.5,-107 996.5,-141 1139.5,-141 1139.5,-107 996.5,-107"/>
<text text-anchor="start" x="1004.5" y="-128" font-family="Helvetica,sans-Serif" font-size="10.00">fwTools::DynamicAttributes</text>
<text text-anchor="middle" x="1068" y="-115" font-family="Helvetica,sans-Serif" font-size="10.00">&lt; ::fwDicomIOFilter::IFilter &gt;</text>
</a>
</g>
<!-- Node7&#45;&gt;Node2 -->
<g id="edge12" class="edge"><title>Node7&#45;&gt;Node2</title>
<path fill="none" stroke="midnightblue" d="M1149.63,-124C1159.3,-124 1169.02,-124 1178.3,-124"/>
<polygon fill="midnightblue" stroke="midnightblue" points="1149.6,-120.5 1139.6,-124 1149.6,-127.5 1149.6,-120.5"/>
</g>
<!-- Node8 -->
<g id="node14" class="node"><title>Node8</title>
<a xlink:href="classfwTools_1_1DynamicAttributesBase.html" target="_top" xlink:title="fwTools::DynamicAttributesBase">
<polygon fill="white" stroke="black" points="384.5,-144.5 384.5,-165.5 545.5,-165.5 545.5,-144.5 384.5,-144.5"/>
<text text-anchor="middle" x="465" y="-152.5" font-family="Helvetica,sans-Serif" font-size="10.00">fwTools::DynamicAttributesBase</text>
</a>
</g>
<!-- Node8&#45;&gt;Node7 -->
<g id="edge14" class="edge"><title>Node8&#45;&gt;Node7</title>
<path fill="none" stroke="midnightblue" d="M555.68,-163.487C658.755,-171.135 831.686,-177.89 978,-154 994.092,-151.372 1011.2,-146.291 1026.13,-141.046"/>
<polygon fill="midnightblue" stroke="midnightblue" points="555.856,-159.99 545.619,-162.721 555.324,-166.97 555.856,-159.99"/>
</g>
<!-- Node13 -->
<g id="node24" class="node"><title>Node13</title>
<a xlink:href="classfwTools_1_1DynamicAttributes.html" target="_top" xlink:title="fwTools::DynamicAttributes\l\&lt; CLASS \&gt;">
<polygon fill="white" stroke="black" points="732,-107 732,-141 870,-141 870,-107 732,-107"/>
<text text-anchor="start" x="740" y="-128" font-family="Helvetica,sans-Serif" font-size="10.00">fwTools::DynamicAttributes</text>
<text text-anchor="middle" x="801" y="-115" font-family="Helvetica,sans-Serif" font-size="10.00">&lt; CLASS &gt;</text>
</a>
</g>
<!-- Node8&#45;&gt;Node13 -->
<g id="edge26" class="edge"><title>Node8&#45;&gt;Node13</title>
<path fill="none" stroke="midnightblue" d="M556.073,-146.597C611.441,-141.489 681.027,-135.069 731.865,-130.379"/>
<polygon fill="midnightblue" stroke="midnightblue" points="555.544,-143.131 545.908,-147.535 556.187,-150.102 555.544,-143.131"/>
</g>
<!-- Node9 -->
<g id="node16" class="node"><title>Node9</title>
<polygon fill="white" stroke="#bfbfbf" points="399.5,-60 399.5,-94 530.5,-94 530.5,-60 399.5,-60"/>
<text text-anchor="start" x="407.5" y="-81" font-family="Helvetica,sans-Serif" font-size="10.00">std::map&lt; AttrNameType,</text>
<text text-anchor="middle" x="465" y="-68" font-family="Helvetica,sans-Serif" font-size="10.00"> AttrRefType &gt;</text>
</g>
<!-- Node9&#45;&gt;Node7 -->
<g id="edge16" class="edge"><title>Node9&#45;&gt;Node7</title>
<path fill="none" stroke="#9a32cd" stroke-dasharray="5,2" d="M540.747,-69.7475C622.389,-63.4003 755.972,-57.2763 870,-72 921.11,-78.5995 977.843,-94.4054 1017.43,-106.871"/>
<polygon fill="#9a32cd" stroke="#9a32cd" points="540.251,-66.2759 530.562,-70.5615 540.809,-73.2536 540.251,-66.2759"/>
<text text-anchor="start" x="739" y="-89" font-family="Helvetica,sans-Serif" font-size="10.00"> __FWTOOLS_ATTRIBUTE</text>
<text text-anchor="middle" x="801" y="-76" font-family="Helvetica,sans-Serif" font-size="10.00">_MAP_NAME</text>
</g>
<!-- Node9&#45;&gt;Node13 -->
<g id="edge28" class="edge"><title>Node9&#45;&gt;Node13</title>
<path fill="none" stroke="#9a32cd" stroke-dasharray="5,2" d="M540.632,-81.6791C590.192,-85.4602 656.252,-91.8567 714,-102 721.826,-103.375 729.986,-105.075 738.038,-106.916"/>
<polygon fill="#9a32cd" stroke="#9a32cd" points="540.865,-78.1868 530.632,-80.9344 540.345,-85.1674 540.865,-78.1868"/>
<text text-anchor="start" x="577" y="-119" font-family="Helvetica,sans-Serif" font-size="10.00"> __FWTOOLS_ATTRIBUTE</text>
<text text-anchor="middle" x="639" y="-106" font-family="Helvetica,sans-Serif" font-size="10.00">_MAP_NAME</text>
</g>
<!-- Node10 -->
<g id="node18" class="node"><title>Node10</title>
<a xlink:title="STL class. ">
<polygon fill="white" stroke="#bfbfbf" points="110,-66.5 110,-87.5 202,-87.5 202,-66.5 110,-66.5"/>
<text text-anchor="middle" x="156" y="-74.5" font-family="Helvetica,sans-Serif" font-size="10.00">std::map&lt; K, T &gt;</text>
</a>
</g>
<!-- Node10&#45;&gt;Node9 -->
<g id="edge18" class="edge"><title>Node10&#45;&gt;Node9</title>
<path fill="none" stroke="orange" stroke-dasharray="5,2" d="M212.437,-77C265.121,-77 343.737,-77 399.238,-77"/>
<polygon fill="orange" stroke="orange" points="212.26,-73.5001 202.26,-77 212.26,-80.5001 212.26,-73.5001"/>
<text text-anchor="middle" x="293" y="-81" font-family="Helvetica,sans-Serif" font-size="10.00"> &lt; AttrNameType, AttrRefType &gt;</text>
</g>
<!-- Node11 -->
<g id="node20" class="node"><title>Node11</title>
<polygon fill="white" stroke="#bfbfbf" points="0.5,-78.5 0.5,-99.5 29.5,-99.5 29.5,-78.5 0.5,-78.5"/>
<text text-anchor="middle" x="15" y="-86.5" font-family="Helvetica,sans-Serif" font-size="10.00">K</text>
</g>
<!-- Node11&#45;&gt;Node10 -->
<g id="edge20" class="edge"><title>Node11&#45;&gt;Node10</title>
<path fill="none" stroke="#9a32cd" stroke-dasharray="5,2" d="M39.6386,-86.9031C58.9531,-85.2593 86.3808,-82.925 109.757,-80.9356"/>
<polygon fill="#9a32cd" stroke="#9a32cd" points="39.2256,-83.4255 29.5584,-87.761 39.8192,-90.4003 39.2256,-83.4255"/>
<text text-anchor="middle" x="70" y="-90" font-family="Helvetica,sans-Serif" font-size="10.00"> keys</text>
</g>
<!-- Node12 -->
<g id="node22" class="node"><title>Node12</title>
<polygon fill="white" stroke="#bfbfbf" points="0.5,-22.5 0.5,-43.5 29.5,-43.5 29.5,-22.5 0.5,-22.5"/>
<text text-anchor="middle" x="15" y="-30.5" font-family="Helvetica,sans-Serif" font-size="10.00">T</text>
</g>
<!-- Node12&#45;&gt;Node10 -->
<g id="edge22" class="edge"><title>Node12&#45;&gt;Node10</title>
<path fill="none" stroke="#9a32cd" stroke-dasharray="5,2" d="M39.1608,-40.5396C62.0057,-47.6685 96.504,-58.4339 122.098,-66.4207"/>
<polygon fill="#9a32cd" stroke="#9a32cd" points="40.1471,-37.1809 29.5584,-37.543 38.0618,-43.8631 40.1471,-37.1809"/>
<text text-anchor="middle" x="70" y="-60" font-family="Helvetica,sans-Serif" font-size="10.00"> elements</text>
</g>
<!-- Node15 -->
<g id="node30" class="node"><title>Node15</title>
<a xlink:title="STL class. ">
<polygon fill="white" stroke="#bfbfbf" points="112.5,-6.5 112.5,-27.5 199.5,-27.5 199.5,-6.5 112.5,-6.5"/>
<text text-anchor="middle" x="156" y="-14.5" font-family="Helvetica,sans-Serif" font-size="10.00">std::vector&lt; T &gt;</text>
</a>
</g>
<!-- Node12&#45;&gt;Node15 -->
<g id="edge34" class="edge"><title>Node12&#45;&gt;Node15</title>
<path fill="none" stroke="#9a32cd" stroke-dasharray="5,2" d="M38.8559,-20.7739C41.8712,-19.6438 44.9643,-18.6723 48,-18 68.8703,-13.3781 92.5697,-12.6742 112.44,-13.3155"/>
<polygon fill="#9a32cd" stroke="#9a32cd" points="37.4436,-17.5714 29.6543,-24.7531 40.222,-23.9964 37.4436,-17.5714"/>
<text text-anchor="middle" x="70" y="-22" font-family="Helvetica,sans-Serif" font-size="10.00"> elements</text>
</g>
<!-- Node13&#45;&gt;Node7 -->
<g id="edge24" class="edge"><title>Node13&#45;&gt;Node7</title>
<path fill="none" stroke="orange" stroke-dasharray="5,2" d="M880.304,-124C917.126,-124 960.574,-124 996.389,-124"/>
<polygon fill="orange" stroke="orange" points="880.106,-120.5 870.106,-124 880.106,-127.5 880.106,-120.5"/>
<text text-anchor="start" x="888" y="-141" font-family="Helvetica,sans-Serif" font-size="10.00"> &lt; ::fwDicomIOFilter</text>
<text text-anchor="middle" x="933" y="-128" font-family="Helvetica,sans-Serif" font-size="10.00">::IFilter &gt;</text>
</g>
<!-- Node14 -->
<g id="node28" class="node"><title>Node14</title>
<polygon fill="white" stroke="#bfbfbf" points="564.5,-0 564.5,-34 713.5,-34 713.5,-0 564.5,-0"/>
<text text-anchor="start" x="572.5" y="-21" font-family="Helvetica,sans-Serif" font-size="10.00">std::vector&lt; ::fwDicomIOFilter</text>
<text text-anchor="middle" x="639" y="-8" font-family="Helvetica,sans-Serif" font-size="10.00">::IFilter::sptr &gt;</text>
</g>
<!-- Node14&#45;&gt;Node1 -->
<g id="edge30" class="edge"><title>Node14&#45;&gt;Node1</title>
<path fill="none" stroke="#9a32cd" stroke-dasharray="5,2" d="M723.955,-17C782.671,-17 862.58,-17 933,-17 933,-17 933,-17 1238,-17 1275.16,-17 1316.08,-24.8678 1348.24,-32.92"/>
<polygon fill="#9a32cd" stroke="#9a32cd" points="723.615,-13.5001 713.615,-17 723.615,-20.5001 723.615,-13.5001"/>
<text text-anchor="middle" x="1068" y="-21" font-family="Helvetica,sans-Serif" font-size="10.00"> m_filterContainer</text>
</g>
<!-- Node15&#45;&gt;Node14 -->
<g id="edge32" class="edge"><title>Node15&#45;&gt;Node14</title>
<path fill="none" stroke="orange" stroke-dasharray="5,2" d="M209.823,-17C296.188,-17 465.952,-17 564.102,-17"/>
<polygon fill="orange" stroke="orange" points="209.715,-13.5001 199.715,-17 209.715,-20.5001 209.715,-13.5001"/>
<text text-anchor="start" x="248" y="-34" font-family="Helvetica,sans-Serif" font-size="10.00"> &lt; ::fwDicomIOFilter</text>
<text text-anchor="middle" x="293" y="-21" font-family="Helvetica,sans-Serif" font-size="10.00">::IFilter::sptr &gt;</text>
</g>
</g>
</svg>
        <g id="navigator" transform="translate(0 0)" fill="#404254">
                <rect fill="#f2f5e9" fill-opacity="0.5" stroke="#606060" stroke-width=".5" x="0" y="0" width="60" height="60"/>
                <use id="zoomplus" xlink:href="#zoomPlus" x="17" y="9" onmousedown="handleZoom(evt,'in')"/>
                <use id="zoomminus" xlink:href="#zoomMin" x="42" y="9" onmousedown="handleZoom(evt,'out')"/>
                <use id="reset" xlink:href="#resetDef" x="30" y="36" onmousedown="handleReset()"/>
                <g id="arrowUp" xlink:href="#dirArrow" transform="translate(30 24)" onmousedown="handlePan(0,-1)">
                  <use xlink:href="#rim" fill="#404040">
                        <set attributeName="fill" to="#808080" begin="arrowUp.mouseover" end="arrowUp.mouseout"/>
                  </use>
                  <path fill="none" stroke="white" stroke-width="1.5" d="M0,-3.0v7 M-2.5,-0.5L0,-3.0L2.5,-0.5"/>
                </g>
                <g id="arrowRight" xlink:href="#dirArrow" transform="rotate(90) translate(36 -43)" onmousedown="handlePan(1,0)">
                  <use xlink:href="#rim" fill="#404040">
                        <set attributeName="fill" to="#808080" begin="arrowRight.mouseover" end="arrowRight.mouseout"/>
                  </use>
                  <path fill="none" stroke="white" stroke-width="1.5" d="M0,-3.0v7 M-2.5,-0.5L0,-3.0L2.5,-0.5"/>
                </g>
                <g id="arrowDown" xlink:href="#dirArrow" transform="rotate(180) translate(-30 -48)" onmousedown="handlePan(0,1)">
                  <use xlink:href="#rim" fill="#404040">
                        <set attributeName="fill" to="#808080" begin="arrowDown.mouseover" end="arrowDown.mouseout"/>
                  </use>
                  <path fill="none" stroke="white" stroke-width="1.5" d="M0,-3.0v7 M-2.5,-0.5L0,-3.0L2.5,-0.5"/>
                </g>
                <g id="arrowLeft" xlink:href="#dirArrow" transform="rotate(270) translate(-36 17)" onmousedown="handlePan(-1,0)">
                  <use xlink:href="#rim" fill="#404040">
                        <set attributeName="fill" to="#808080" begin="arrowLeft.mouseover" end="arrowLeft.mouseout"/>
                  </use>
                  <path fill="none" stroke="white" stroke-width="1.5" d="M0,-3.0v7 M-2.5,-0.5L0,-3.0L2.5,-0.5"/>
                </g>
        </g>
        <svg viewBox="0 0 15 15" width="100%" height="30px" preserveAspectRatio="xMaxYMin meet">
         <g id="arrow_out" transform="scale(0.3 0.3)">
          <a xlink:href="classfwDicomIOFilter_1_1composite_1_1IComposite__coll__graph_org.svg" target="_base">
           <rect id="button" ry="5" rx="5" y="6" x="6" height="38" width="38"
                fill="#f2f5e9" fill-opacity="0.5" stroke="#606060" stroke-width="1.0"/>
           <path id="arrow"
             d="M 11.500037,31.436501 C 11.940474,20.09759 22.043105,11.32322 32.158766,21.979434 L 37.068811,17.246167 C 37.068811,17.246167 37.088388,32 37.088388,32 L 22.160133,31.978069 C 22.160133,31.978069 26.997745,27.140456 26.997745,27.140456 C 18.528582,18.264221 13.291696,25.230495 11.500037,31.436501 z"
             style="fill:#404040;"/>
          </a>
         </g>
        </svg>
</svg>
