<?xml version="1.0" encoding="UTF-8" standalone="no"?>
<!DOCTYPE svg PUBLIC "-//W3C//DTD SVG 1.1//EN"
 "http://www.w3.org/Graphics/SVG/1.1/DTD/svg11.dtd">
<!-- Generated by graphviz version 2.26.3 (20100126.1600)
 -->
<!-- Title: fwStructuralPatch::fwData::Material::V2ToV3::apply Pages: 1 -->
<svg width="456pt" height="160pt"
 viewBox="0.00 0.00 456.00 160.00" xmlns="http://www.w3.org/2000/svg" xmlns:xlink="http://www.w3.org/1999/xlink">
<g id="graph1" class="graph" transform="scale(1 1) rotate(0) translate(4 156)">
<title>fwStructuralPatch::fwData::Material::V2ToV3::apply</title>
<polygon fill="white" stroke="white" points="-4,5 -4,-156 453,-156 453,5 -4,5"/>
<!-- Node1 -->
<g id="node1" class="node"><title>Node1</title>
<polygon fill="#bfbfbf" stroke="black" points="0,-39.5 0,-86.5 130,-86.5 130,-39.5 0,-39.5"/>
<text text-anchor="start" x="8" y="-73.5" font-family="Helvetica,sans-Serif" font-size="10.00">fwStructuralPatch::</text>
<text text-anchor="start" x="8" y="-60.5" font-family="Helvetica,sans-Serif" font-size="10.00">fwData::Material::V2ToV3</text>
<text text-anchor="middle" x="65" y="-47.5" font-family="Helvetica,sans-Serif" font-size="10.00">::apply</text>
</g>
<!-- Node2 -->
<g id="node3" class="node"><title>Node2</title>
<a xlink:href="classfwAtomsPatch_1_1helper_1_1Object.html#a22c79fb36d0b05c4146c99084f4e29df" target="_top" xlink:title="Adds a new attribute in the current object. ">
<polygon fill="white" stroke="black" points="175.5,-92 175.5,-126 288.5,-126 288.5,-92 175.5,-92"/>
<text text-anchor="start" x="183.5" y="-113" font-family="Helvetica,sans-Serif" font-size="10.00">fwAtomsPatch::helper</text>
<text text-anchor="middle" x="232" y="-100" font-family="Helvetica,sans-Serif" font-size="10.00">::Object::addAttribute</text>
</a>
</g>
<!-- Node1&#45;&gt;Node2 -->
<g id="edge2" class="edge"><title>Node1&#45;&gt;Node2</title>
<path fill="none" stroke="midnightblue" d="M130.045,-80.9165C141.707,-84.129 153.876,-87.4807 165.576,-90.7037"/>
<polygon fill="midnightblue" stroke="midnightblue" points="164.703,-94.0935 175.274,-93.3749 166.562,-87.3449 164.703,-94.0935"/>
</g>
<!-- Node5 -->
<g id="node9" class="node"><title>Node5</title>
<a xlink:href="classfwAtoms_1_1Boolean.html#a599ffe94152e39127c3ba7b18a649d15" target="_top" xlink:title="Construct an object storing a bool value. ">
<polygon fill="white" stroke="black" points="170.5,-52.5 170.5,-73.5 293.5,-73.5 293.5,-52.5 170.5,-52.5"/>
<text text-anchor="middle" x="232" y="-60.5" font-family="Helvetica,sans-Serif" font-size="10.00">fwAtoms::Boolean::New</text>
</a>
</g>
<!-- Node1&#45;&gt;Node5 -->
<g id="edge8" class="edge"><title>Node1&#45;&gt;Node5</title>
<path fill="none" stroke="midnightblue" d="M130.045,-63C139.901,-63 150.118,-63 160.109,-63"/>
<polygon fill="midnightblue" stroke="midnightblue" points="160.414,-66.5001 170.414,-63 160.414,-59.5001 160.414,-66.5001"/>
</g>
<!-- Node6 -->
<g id="node11" class="node"><title>Node6</title>
<a xlink:href="classfwAtomsPatch_1_1IStructuralPatch.html#a726107d852575ef665641f0c4ea43209" target="_top" xlink:title="Updates the version of the patched object. ">
<polygon fill="white" stroke="black" points="166,-0 166,-34 298,-34 298,-0 166,-0"/>
<text text-anchor="start" x="174" y="-21" font-family="Helvetica,sans-Serif" font-size="10.00">fwAtomsPatch::IStructural</text>
<text text-anchor="middle" x="232" y="-8" font-family="Helvetica,sans-Serif" font-size="10.00">Patch::updateVersion</text>
</a>
</g>
<!-- Node1&#45;&gt;Node6 -->
<g id="edge10" class="edge"><title>Node1&#45;&gt;Node6</title>
<path fill="none" stroke="midnightblue" d="M130.045,-45.0835C139.936,-42.359 150.19,-39.5344 160.215,-36.773"/>
<polygon fill="midnightblue" stroke="midnightblue" points="161.43,-40.0688 170.142,-34.0388 159.571,-33.3202 161.43,-40.0688"/>
</g>
<!-- Node3 -->
<g id="node5" class="node"><title>Node3</title>
<a xlink:href="namespacefwAtomsPatch_1_1helper.html#a49db7036b323f4c23effd6ca3e020996" target="_top" xlink:title="Get classname of an object. ">
<polygon fill="white" stroke="black" points="334.5,-118 334.5,-152 447.5,-152 447.5,-118 334.5,-118"/>
<text text-anchor="start" x="342.5" y="-139" font-family="Helvetica,sans-Serif" font-size="10.00">fwAtomsPatch::helper</text>
<text text-anchor="middle" x="391" y="-126" font-family="Helvetica,sans-Serif" font-size="10.00">::getClassname</text>
</a>
</g>
<!-- Node2&#45;&gt;Node3 -->
<g id="edge4" class="edge"><title>Node2&#45;&gt;Node3</title>
<path fill="none" stroke="midnightblue" d="M288.505,-118.24C300.151,-120.144 312.517,-122.166 324.48,-124.122"/>
<polygon fill="midnightblue" stroke="midnightblue" points="323.975,-127.586 334.409,-125.746 325.105,-120.678 323.975,-127.586"/>
</g>
<!-- Node4 -->
<g id="node7" class="node"><title>Node4</title>
<a xlink:href="namespacefwAtomsPatch_1_1helper.html#a87463944cf2233827a11abde6cad8635" target="_top" xlink:title="Get version of an object. ">
<polygon fill="white" stroke="black" points="334.5,-66 334.5,-100 447.5,-100 447.5,-66 334.5,-66"/>
<text text-anchor="start" x="342.5" y="-87" font-family="Helvetica,sans-Serif" font-size="10.00">fwAtomsPatch::helper</text>
<text text-anchor="middle" x="391" y="-74" font-family="Helvetica,sans-Serif" font-size="10.00">::getVersion</text>
</a>
</g>
<!-- Node2&#45;&gt;Node4 -->
<g id="edge6" class="edge"><title>Node2&#45;&gt;Node4</title>
<path fill="none" stroke="midnightblue" d="M288.505,-99.7602C300.151,-97.8558 312.517,-95.8337 324.48,-93.8775"/>
<polygon fill="midnightblue" stroke="midnightblue" points="325.105,-97.3219 334.409,-92.2539 323.975,-90.4136 325.105,-97.3219"/>
</g>
</g>
</svg>
