<?xml version="1.0" encoding="UTF-8" standalone="no"?>
<!DOCTYPE svg PUBLIC "-//W3C//DTD SVG 1.1//EN"
 "http://www.w3.org/Graphics/SVG/1.1/DTD/svg11.dtd">
<!-- Generated by graphviz version 2.26.3 (20100126.1600)
 -->
<!-- Title: fwComEd::fieldHelper::MedicalImageHelpers::setPixel Pages: 1 -->
<svg width="310pt" height="56pt"
 viewBox="0.00 0.00 310.00 56.00" xmlns="http://www.w3.org/2000/svg" xmlns:xlink="http://www.w3.org/1999/xlink">
<g id="graph1" class="graph" transform="scale(1 1) rotate(0) translate(4 52)">
<title>fwComEd::fieldHelper::MedicalImageHelpers::setPixel</title>
<polygon fill="white" stroke="white" points="-4,5 -4,-52 307,-52 307,5 -4,5"/>
<!-- Node1 -->
<g id="node1" class="node"><title>Node1</title>
<polygon fill="#bfbfbf" stroke="black" points="0.5,-0.5 0.5,-47.5 117.5,-47.5 117.5,-0.5 0.5,-0.5"/>
<text text-anchor="start" x="8.5" y="-34.5" font-family="Helvetica,sans-Serif" font-size="10.00">fwComEd::fieldHelper</text>
<text text-anchor="start" x="8.5" y="-21.5" font-family="Helvetica,sans-Serif" font-size="10.00">::MedicalImageHelpers</text>
<text text-anchor="middle" x="59" y="-8.5" font-family="Helvetica,sans-Serif" font-size="10.00">::setPixel</text>
</g>
<!-- Node2 -->
<g id="node3" class="node"><title>Node2</title>
<a xlink:href="classfwComEd_1_1fieldHelper_1_1MedicalImageHelpers.html#aef9c76ac64a98eea6e4e741b47c44e1d" target="_top" xlink:title="Return a buffer of image type&#39;s size, containing &#39;value&#39; casted to image data type. ">
<polygon fill="white" stroke="black" points="154.5,-0.5 154.5,-47.5 301.5,-47.5 301.5,-0.5 154.5,-0.5"/>
<text text-anchor="start" x="162.5" y="-34.5" font-family="Helvetica,sans-Serif" font-size="10.00">fwComEd::fieldHelper</text>
<text text-anchor="start" x="162.5" y="-21.5" font-family="Helvetica,sans-Serif" font-size="10.00">::MedicalImageHelpers</text>
<text text-anchor="middle" x="228" y="-8.5" font-family="Helvetica,sans-Serif" font-size="10.00">::getPixelBufferInImageSpace</text>
</a>
</g>
<!-- Node1&#45;&gt;Node2 -->
<g id="edge2" class="edge"><title>Node1&#45;&gt;Node2</title>
<path fill="none" stroke="midnightblue" d="M117.634,-24C126.223,-24 135.206,-24 144.18,-24"/>
<polygon fill="midnightblue" stroke="midnightblue" points="144.285,-27.5001 154.285,-24 144.285,-20.5001 144.285,-27.5001"/>
</g>
</g>
</svg>
