<?xml version="1.0" encoding="UTF-8" standalone="no"?>
<!DOCTYPE svg PUBLIC "-//W3C//DTD SVG 1.1//EN"
 "http://www.w3.org/Graphics/SVG/1.1/DTD/svg11.dtd">
<!-- Generated by graphviz version 2.36.0 (20140111.2315)
 -->
<!-- Title: fwGdcmIO::container::sr::DicomSRSCoordNode Pages: 1 -->
<!--zoomable 166 -->
<svg id="main" version="1.1" xmlns="http://www.w3.org/2000/svg" xmlns:xlink="http://www.w3.org/1999/xlink" xml:space="preserve" onload="init(evt)">
<style type="text/css"><![CDATA[
.edge:hover path { stroke: red; }
.edge:hover polygon { stroke: red; fill: red; }
]]></style>
<script type="text/javascript"><![CDATA[
var edges = document.getElementsByTagName('g');
if (edges && edges.length) {
  for (var i=0;i<edges.length;i++) {
    if (edges[i].id.substr(0,4)=='edge') {
      edges[i].setAttribute('class','edge');
    }
  }
}
]]></script>
        <defs>
                <circle id="rim" cx="0" cy="0" r="7"/>
                <circle id="rim2" cx="0" cy="0" r="3.5"/>
                <g id="zoomPlus">
                        <use xlink:href="#rim" fill="#404040">
                                <set attributeName="fill" to="#808080" begin="zoomplus.mouseover" end="zoomplus.mouseout"/>
                        </use>
                        <path d="M-4,0h8M0,-4v8" fill="none" stroke="white" stroke-width="1.5" pointer-events="none"/>
                </g>
                <g id="zoomMin">
                        <use xlink:href="#rim" fill="#404040">
                                <set attributeName="fill" to="#808080" begin="zoomminus.mouseover" end="zoomminus.mouseout"/>
                        </use>
                        <path d="M-4,0h8" fill="none" stroke="white" stroke-width="1.5" pointer-events="none"/>
                </g>
                <g id="dirArrow">
                        <path fill="none" stroke="white" stroke-width="1.5" d="M0,-3.0v7 M-2.5,-0.5L0,-3.0L2.5,-0.5"/>
                </g>
               <g id="resetDef">
                       <use xlink:href="#rim2" fill="#404040">
                               <set attributeName="fill" to="#808080" begin="reset.mouseover" end="reset.mouseout"/>
                       </use>
               </g>
        </defs>

<script type="text/javascript">
var viewWidth = 886;
var viewHeight = 166;
var sectionId = 'dynsection-1';
</script>
<script xlink:href="svgpan.js"/>
<svg id="graph" class="graph">
<g id="viewport">
<title>fwGdcmIO::container::sr::DicomSRSCoordNode</title>
<polygon fill="white" stroke="none" points="-4,4 -4,-162 882,-162 882,4 -4,4"/>
<!-- Node1 -->
<g id="node1" class="node"><title>Node1</title>
<polygon fill="#bfbfbf" stroke="black" points="742,-74 742,-104 878,-104 878,-74 742,-74"/>
<text text-anchor="start" x="750" y="-92" font-family="Helvetica,sans-Serif" font-size="10.00">fwGdcmIO::container</text>
<text text-anchor="middle" x="810" y="-81" font-family="Helvetica,sans-Serif" font-size="10.00">::sr::DicomSRSCoordNode</text>
</g>
<!-- Node2 -->
<g id="node2" class="node"><title>Node2</title>
<g id="a_node2"><a xlink:href="classfwGdcmIO_1_1container_1_1sr_1_1DicomSRNode.html" target="_top" xlink:title="This class defines a node in a SR document. ">
<polygon fill="white" stroke="black" points="593,-74 593,-104 703,-104 703,-74 593,-74"/>
<text text-anchor="start" x="601" y="-92" font-family="Helvetica,sans-Serif" font-size="10.00">fwGdcmIO::container</text>
<text text-anchor="middle" x="648" y="-81" font-family="Helvetica,sans-Serif" font-size="10.00">::sr::DicomSRNode</text>
</a>
</g>
</g>
<!-- Node2&#45;&gt;Node1 -->
<g id="edge1" class="edge"><title>Node2&#45;&gt;Node1</title>
<path fill="none" stroke="midnightblue" d="M713.237,-89C722.649,-89 732.365,-89 741.834,-89"/>
<polygon fill="midnightblue" stroke="midnightblue" points="713.169,-85.5001 703.169,-89 713.169,-92.5001 713.169,-85.5001"/>
</g>
<!-- Node3 -->
<g id="node3" class="node"><title>Node3</title>
<g id="a_node3"><a xlink:href="classfwGdcmIO_1_1container_1_1DicomCodedAttribute.html" target="_top" xlink:title="This class represents a DICOM basic coded entry. It stores the four mains attributes : Code Value...">
<polygon fill="white" stroke="black" points="335,-78 335,-108 451,-108 451,-78 335,-78"/>
<text text-anchor="start" x="343" y="-96" font-family="Helvetica,sans-Serif" font-size="10.00">fwGdcmIO::container</text>
<text text-anchor="middle" x="393" y="-85" font-family="Helvetica,sans-Serif" font-size="10.00">::DicomCodedAttribute</text>
</a>
</g>
</g>
<!-- Node3&#45;&gt;Node2 -->
<g id="edge2" class="edge"><title>Node3&#45;&gt;Node2</title>
<path fill="none" stroke="#9a32cd" stroke-dasharray="5,2" d="M461.296,-90.3225C465.595,-90.1991 469.857,-90.0896 474,-90 513.787,-89.1392 558.733,-88.9016 592.839,-88.8726"/>
<polygon fill="#9a32cd" stroke="#9a32cd" points="461.128,-86.8259 451.24,-90.6331 461.344,-93.8226 461.128,-86.8259"/>
<text text-anchor="middle" x="524" y="-93" font-family="Helvetica,sans-Serif" font-size="10.00"> m_codedAttribute</text>
</g>
<!-- Node4 -->
<g id="node4" class="node"><title>Node4</title>
<g id="a_node4"><a xlink:title="STL class. ">
<polygon fill="white" stroke="#bfbfbf" points="363,-133.5 363,-152.5 423,-152.5 423,-133.5 363,-133.5"/>
<text text-anchor="middle" x="393" y="-140.5" font-family="Helvetica,sans-Serif" font-size="10.00">std::string</text>
</a>
</g>
</g>
<!-- Node4&#45;&gt;Node1 -->
<g id="edge8" class="edge"><title>Node4&#45;&gt;Node1</title>
<path fill="none" stroke="#9a32cd" stroke-dasharray="5,2" d="M433.267,-144.766C446.234,-145.271 460.732,-145.751 474,-146 518.437,-146.833 529.87,-151.275 574,-146 640.07,-138.102 714.411,-118.134 761.454,-104.069"/>
<polygon fill="#9a32cd" stroke="#9a32cd" points="433.384,-141.268 423.25,-144.36 433.1,-148.262 433.384,-141.268"/>
<text text-anchor="middle" x="648" y="-147" font-family="Helvetica,sans-Serif" font-size="10.00"> m_graphicType</text>
</g>
<!-- Node4&#45;&gt;Node2 -->
<g id="edge3" class="edge"><title>Node4&#45;&gt;Node2</title>
<path fill="none" stroke="#9a32cd" stroke-dasharray="5,2" d="M433.215,-133.409C446.178,-130.313 460.688,-126.926 474,-124 513.655,-115.282 558.606,-106.213 592.747,-99.4908"/>
<polygon fill="#9a32cd" stroke="#9a32cd" points="432.109,-130.075 423.204,-135.816 433.745,-136.881 432.109,-130.075"/>
<text text-anchor="middle" x="524" y="-138" font-family="Helvetica,sans-Serif" font-size="10.00"> m_relationship</text>
<text text-anchor="middle" x="524" y="-127" font-family="Helvetica,sans-Serif" font-size="10.00">m_type</text>
</g>
<!-- Node5 -->
<g id="node5" class="node"><title>Node5</title>
<g id="a_node5"><a xlink:title="STL class. ">
<polygon fill="white" stroke="#bfbfbf" points="110.5,-128 110.5,-158 205.5,-158 205.5,-128 110.5,-128"/>
<text text-anchor="start" x="118.5" y="-146" font-family="Helvetica,sans-Serif" font-size="10.00">std::basic_string&lt;</text>
<text text-anchor="middle" x="158" y="-135" font-family="Helvetica,sans-Serif" font-size="10.00"> char &gt;</text>
</a>
</g>
</g>
<!-- Node5&#45;&gt;Node4 -->
<g id="edge4" class="edge"><title>Node5&#45;&gt;Node4</title>
<path fill="none" stroke="midnightblue" d="M215.816,-143C262.278,-143 326.092,-143 362.797,-143"/>
<polygon fill="midnightblue" stroke="midnightblue" points="215.591,-139.5 205.591,-143 215.591,-146.5 215.591,-139.5"/>
</g>
<!-- Node6 -->
<g id="node6" class="node"><title>Node6</title>
<polygon fill="white" stroke="#bfbfbf" points="330,-29 330,-59 456,-59 456,-29 330,-29"/>
<text text-anchor="start" x="338" y="-47" font-family="Helvetica,sans-Serif" font-size="10.00">std::vector&lt; std::shared</text>
<text text-anchor="middle" x="393" y="-36" font-family="Helvetica,sans-Serif" font-size="10.00">_ptr&lt; DicomSRNode &gt; &gt;</text>
</g>
<!-- Node6&#45;&gt;Node2 -->
<g id="edge5" class="edge"><title>Node6&#45;&gt;Node2</title>
<path fill="none" stroke="#9a32cd" stroke-dasharray="5,2" d="M466.163,-55.3924C499.099,-60.7551 538.575,-67.4108 574,-74 580.106,-75.1357 586.488,-76.3728 592.829,-77.6335"/>
<polygon fill="#9a32cd" stroke="#9a32cd" points="466.594,-51.9168 456.163,-53.7712 465.474,-58.8265 466.594,-51.9168"/>
<text text-anchor="middle" x="524" y="-77" font-family="Helvetica,sans-Serif" font-size="10.00"> m_subNodeContainer</text>
</g>
<!-- Node7 -->
<g id="node7" class="node"><title>Node7</title>
<g id="a_node7"><a xlink:title="STL class. ">
<polygon fill="white" stroke="#bfbfbf" points="114.5,-12.5 114.5,-31.5 201.5,-31.5 201.5,-12.5 114.5,-12.5"/>
<text text-anchor="middle" x="158" y="-19.5" font-family="Helvetica,sans-Serif" font-size="10.00">std::vector&lt; T &gt;</text>
</a>
</g>
</g>
<!-- Node7&#45;&gt;Node6 -->
<g id="edge6" class="edge"><title>Node7&#45;&gt;Node6</title>
<path fill="none" stroke="orange" stroke-dasharray="5,2" d="M211.767,-26.9823C246.803,-30.2904 292.949,-34.6475 329.776,-38.1247"/>
<polygon fill="orange" stroke="orange" points="212.021,-23.4908 201.736,-26.0351 211.362,-30.4598 212.021,-23.4908"/>
<text text-anchor="start" x="224" y="-51" font-family="Helvetica,sans-Serif" font-size="10.00"> &lt; std::shared_ptr&lt;</text>
<text text-anchor="middle" x="268" y="-40" font-family="Helvetica,sans-Serif" font-size="10.00"> DicomSRNode &gt; &gt;</text>
</g>
<!-- Node9 -->
<g id="node9" class="node"><title>Node9</title>
<polygon fill="white" stroke="#bfbfbf" points="474,-0.5 474,-19.5 574,-19.5 574,-0.5 474,-0.5"/>
<text text-anchor="middle" x="524" y="-7.5" font-family="Helvetica,sans-Serif" font-size="10.00">std::vector&lt; float &gt;</text>
</g>
<!-- Node7&#45;&gt;Node9 -->
<g id="edge10" class="edge"><title>Node7&#45;&gt;Node9</title>
<path fill="none" stroke="orange" stroke-dasharray="5,2" d="M211.811,-15.0115C215.93,-14.6158 220.03,-14.2701 224,-14 311.921,-8.01926 414.709,-8.21127 473.99,-9.01954"/>
<polygon fill="orange" stroke="orange" points="211.173,-11.5591 201.593,-16.0834 211.903,-18.521 211.173,-11.5591"/>
<text text-anchor="middle" x="268" y="-17" font-family="Helvetica,sans-Serif" font-size="10.00"> &lt; float &gt;</text>
</g>
<!-- Node8 -->
<g id="node8" class="node"><title>Node8</title>
<polygon fill="white" stroke="#bfbfbf" points="0.5,-12.5 0.5,-31.5 29.5,-31.5 29.5,-12.5 0.5,-12.5"/>
<text text-anchor="middle" x="15" y="-19.5" font-family="Helvetica,sans-Serif" font-size="10.00">T</text>
</g>
<!-- Node8&#45;&gt;Node7 -->
<g id="edge7" class="edge"><title>Node8&#45;&gt;Node7</title>
<path fill="none" stroke="#9a32cd" stroke-dasharray="5,2" d="M39.76,-22C60.1136,-22 89.9268,-22 114.395,-22"/>
<polygon fill="#9a32cd" stroke="#9a32cd" points="39.5197,-18.5001 29.5197,-22 39.5196,-25.5001 39.5197,-18.5001"/>
<text text-anchor="middle" x="70" y="-25" font-family="Helvetica,sans-Serif" font-size="10.00"> elements</text>
</g>
<!-- Node9&#45;&gt;Node1 -->
<g id="edge9" class="edge"><title>Node9&#45;&gt;Node1</title>
<path fill="none" stroke="#9a32cd" stroke-dasharray="5,2" d="M579.996,-21.7963C615.586,-29.7776 662.801,-41.0178 704,-53 725.372,-59.2158 748.833,-67.1508 768.147,-73.9885"/>
<polygon fill="#9a32cd" stroke="#9a32cd" points="580.334,-18.2861 569.813,-19.5305 578.814,-25.119 580.334,-18.2861"/>
<text text-anchor="middle" x="648" y="-56" font-family="Helvetica,sans-Serif" font-size="10.00"> m_graphicDataContainer</text>
</g>
</g>
</svg>
        <g id="navigator" transform="translate(0 0)" fill="#404254">
                <rect fill="#f2f5e9" fill-opacity="0.5" stroke="#606060" stroke-width=".5" x="0" y="0" width="60" height="60"/>
                <use id="zoomplus" xlink:href="#zoomPlus" x="17" y="9" onmousedown="handleZoom(evt,'in')"/>
                <use id="zoomminus" xlink:href="#zoomMin" x="42" y="9" onmousedown="handleZoom(evt,'out')"/>
                <use id="reset" xlink:href="#resetDef" x="30" y="36" onmousedown="handleReset()"/>
                <g id="arrowUp" xlink:href="#dirArrow" transform="translate(30 24)" onmousedown="handlePan(0,-1)">
                  <use xlink:href="#rim" fill="#404040">
                        <set attributeName="fill" to="#808080" begin="arrowUp.mouseover" end="arrowUp.mouseout"/>
                  </use>
                  <path fill="none" stroke="white" stroke-width="1.5" d="M0,-3.0v7 M-2.5,-0.5L0,-3.0L2.5,-0.5"/>
                </g>
                <g id="arrowRight" xlink:href="#dirArrow" transform="rotate(90) translate(36 -43)" onmousedown="handlePan(1,0)">
                  <use xlink:href="#rim" fill="#404040">
                        <set attributeName="fill" to="#808080" begin="arrowRight.mouseover" end="arrowRight.mouseout"/>
                  </use>
                  <path fill="none" stroke="white" stroke-width="1.5" d="M0,-3.0v7 M-2.5,-0.5L0,-3.0L2.5,-0.5"/>
                </g>
                <g id="arrowDown" xlink:href="#dirArrow" transform="rotate(180) translate(-30 -48)" onmousedown="handlePan(0,1)">
                  <use xlink:href="#rim" fill="#404040">
                        <set attributeName="fill" to="#808080" begin="arrowDown.mouseover" end="arrowDown.mouseout"/>
                  </use>
                  <path fill="none" stroke="white" stroke-width="1.5" d="M0,-3.0v7 M-2.5,-0.5L0,-3.0L2.5,-0.5"/>
                </g>
                <g id="arrowLeft" xlink:href="#dirArrow" transform="rotate(270) translate(-36 17)" onmousedown="handlePan(-1,0)">
                  <use xlink:href="#rim" fill="#404040">
                        <set attributeName="fill" to="#808080" begin="arrowLeft.mouseover" end="arrowLeft.mouseout"/>
                  </use>
                  <path fill="none" stroke="white" stroke-width="1.5" d="M0,-3.0v7 M-2.5,-0.5L0,-3.0L2.5,-0.5"/>
                </g>
        </g>
        <svg viewBox="0 0 15 15" width="100%" height="30px" preserveAspectRatio="xMaxYMin meet">
         <g id="arrow_out" transform="scale(0.3 0.3)">
          <a xlink:href="classfwGdcmIO_1_1container_1_1sr_1_1DicomSRSCoordNode__coll__graph_org.svg" target="_base">
           <rect id="button" ry="5" rx="5" y="6" x="6" height="38" width="38"
                fill="#f2f5e9" fill-opacity="0.5" stroke="#606060" stroke-width="1.0"/>
           <path id="arrow"
             d="M 11.500037,31.436501 C 11.940474,20.09759 22.043105,11.32322 32.158766,21.979434 L 37.068811,17.246167 C 37.068811,17.246167 37.088388,32 37.088388,32 L 22.160133,31.978069 C 22.160133,31.978069 26.997745,27.140456 26.997745,27.140456 C 18.528582,18.264221 13.291696,25.230495 11.500037,31.436501 z"
             style="fill:#404040;"/>
          </a>
         </g>
        </svg>
</svg>
