<?xml version="1.0" encoding="UTF-8" standalone="no"?>
<!DOCTYPE svg PUBLIC "-//W3C//DTD SVG 1.1//EN"
 "http://www.w3.org/Graphics/SVG/1.1/DTD/svg11.dtd">
<!-- Generated by graphviz version 2.26.3 (20100126.1600)
 -->
<!-- Title: fwDcmtkIO::reader::main::ImageLazyReader::createInstanceBuffer Pages: 1 -->
<svg width="282pt" height="56pt"
 viewBox="0.00 0.00 282.00 56.00" xmlns="http://www.w3.org/2000/svg" xmlns:xlink="http://www.w3.org/1999/xlink">
<g id="graph1" class="graph" transform="scale(1 1) rotate(0) translate(4 52)">
<title>fwDcmtkIO::reader::main::ImageLazyReader::createInstanceBuffer</title>
<polygon fill="white" stroke="white" points="-4,5 -4,-52 279,-52 279,5 -4,5"/>
<!-- Node1 -->
<g id="node1" class="node"><title>Node1</title>
<polygon fill="#bfbfbf" stroke="black" points="0.5,-0.5 0.5,-47.5 123.5,-47.5 123.5,-0.5 0.5,-0.5"/>
<text text-anchor="start" x="8.5" y="-34.5" font-family="Helvetica,sans-Serif" font-size="10.00">fwDcmtkIO::reader::</text>
<text text-anchor="start" x="8.5" y="-21.5" font-family="Helvetica,sans-Serif" font-size="10.00">main::ImageLazyReader</text>
<text text-anchor="middle" x="62" y="-8.5" font-family="Helvetica,sans-Serif" font-size="10.00">::createInstanceBuffer</text>
</g>
<!-- Node2 -->
<g id="node3" class="node"><title>Node2</title>
<a xlink:href="classfwTools_1_1Type.html#ac16d07c754ccab3c3b9eb34a54767385" target="_top" xlink:title="Return the sizeof of the type. ">
<polygon fill="white" stroke="black" points="160.5,-13.5 160.5,-34.5 273.5,-34.5 273.5,-13.5 160.5,-13.5"/>
<text text-anchor="middle" x="217" y="-21.5" font-family="Helvetica,sans-Serif" font-size="10.00">fwTools::Type::sizeOf</text>
</a>
</g>
<!-- Node1&#45;&gt;Node2 -->
<g id="edge2" class="edge"><title>Node1&#45;&gt;Node2</title>
<path fill="none" stroke="midnightblue" d="M123.705,-24C132.383,-24 141.336,-24 150.104,-24"/>
<polygon fill="midnightblue" stroke="midnightblue" points="150.285,-27.5001 160.285,-24 150.285,-20.5001 150.285,-27.5001"/>
</g>
</g>
</svg>
