<?xml version="1.0" encoding="UTF-8" standalone="no"?>
<!DOCTYPE svg PUBLIC "-//W3C//DTD SVG 1.1//EN"
 "http://www.w3.org/Graphics/SVG/1.1/DTD/svg11.dtd">
<!-- Generated by graphviz version 2.26.3 (20100126.1600)
 -->
<!-- Title: scene2D::adaptor::Grid2D::configuring Pages: 1 -->
<svg width="488pt" height="191pt"
 viewBox="0.00 0.00 488.00 191.00" xmlns="http://www.w3.org/2000/svg" xmlns:xlink="http://www.w3.org/1999/xlink">
<g id="graph1" class="graph" transform="scale(1 1) rotate(0) translate(4 187)">
<title>scene2D::adaptor::Grid2D::configuring</title>
<polygon fill="white" stroke="white" points="-4,5 -4,-187 485,-187 485,5 -4,5"/>
<!-- Node1 -->
<g id="node1" class="node"><title>Node1</title>
<polygon fill="#bfbfbf" stroke="black" points="0.5,-78 0.5,-112 131.5,-112 131.5,-78 0.5,-78"/>
<text text-anchor="start" x="8.5" y="-99" font-family="Helvetica,sans-Serif" font-size="10.00">scene2D::adaptor::Grid2D</text>
<text text-anchor="middle" x="66" y="-86" font-family="Helvetica,sans-Serif" font-size="10.00">::configuring</text>
</g>
<!-- Node2 -->
<g id="node3" class="node"><title>Node2</title>
<a xlink:href="classscene2D_1_1adaptor_1_1IAdaptor.html#abee2c849e0e466b8b47d2f734fcd5fe0" target="_top" xlink:title="Not implemented in IAdaptor but in its subclasses. ">
<polygon fill="white" stroke="black" points="168.5,-104 168.5,-138 305.5,-138 305.5,-104 168.5,-104"/>
<text text-anchor="start" x="176.5" y="-125" font-family="Helvetica,sans-Serif" font-size="10.00">scene2D::adaptor::IAdaptor</text>
<text text-anchor="middle" x="237" y="-112" font-family="Helvetica,sans-Serif" font-size="10.00">::configuring</text>
</a>
</g>
<!-- Node1&#45;&gt;Node2 -->
<g id="edge2" class="edge"><title>Node1&#45;&gt;Node2</title>
<path fill="none" stroke="midnightblue" d="M131.624,-104.978C140.383,-106.31 149.437,-107.686 158.39,-109.048"/>
<polygon fill="midnightblue" stroke="midnightblue" points="158.021,-112.532 168.433,-110.575 159.073,-105.611 158.021,-112.532"/>
</g>
<!-- Node3 -->
<g id="node5" class="node"><title>Node3</title>
<a xlink:href="classscene2D_1_1adaptor_1_1IAdaptor.html#abfd77d495d848dfd3c5b15c04d4a1aa7" target="_top" xlink:title="Get the render that manages the IAdaptor. ">
<polygon fill="white" stroke="black" points="342.5,-149 342.5,-183 479.5,-183 479.5,-149 342.5,-149"/>
<text text-anchor="start" x="350.5" y="-170" font-family="Helvetica,sans-Serif" font-size="10.00">scene2D::adaptor::IAdaptor</text>
<text text-anchor="middle" x="411" y="-157" font-family="Helvetica,sans-Serif" font-size="10.00">::getScene2DRender</text>
</a>
</g>
<!-- Node1&#45;&gt;Node3 -->
<g id="edge8" class="edge"><title>Node1&#45;&gt;Node3</title>
<path fill="none" stroke="midnightblue" d="M92.5046,-112.196C112.422,-124.181 140.834,-139.343 168,-147 221.519,-162.086 284.12,-166.691 332.378,-167.599"/>
<polygon fill="midnightblue" stroke="midnightblue" points="332.402,-171.1 342.45,-167.74 332.499,-164.101 332.402,-171.1"/>
</g>
<!-- Node5 -->
<g id="node10" class="node"><title>Node5</title>
<a xlink:href="classscene2D_1_1adaptor_1_1IAdaptor.html#a533b0ea25f298de2b3a907651488bf20" target="_top" xlink:title="Get a pair of doubles (a point), two axis, and convert the pair of doubles values from adaptor...">
<polygon fill="white" stroke="black" points="168.5,-52 168.5,-86 305.5,-86 305.5,-52 168.5,-52"/>
<text text-anchor="start" x="176.5" y="-73" font-family="Helvetica,sans-Serif" font-size="10.00">scene2D::adaptor::IAdaptor</text>
<text text-anchor="middle" x="237" y="-60" font-family="Helvetica,sans-Serif" font-size="10.00">::mapAdaptorToScene</text>
</a>
</g>
<!-- Node1&#45;&gt;Node5 -->
<g id="edge10" class="edge"><title>Node1&#45;&gt;Node5</title>
<path fill="none" stroke="midnightblue" d="M131.624,-85.0221C140.383,-83.6903 149.437,-82.3137 158.39,-80.9525"/>
<polygon fill="midnightblue" stroke="midnightblue" points="159.073,-84.3889 168.433,-79.4254 158.021,-77.4684 159.073,-84.3889"/>
</g>
<!-- Node6 -->
<g id="node12" class="node"><title>Node6</title>
<a xlink:href="classscene2D_1_1data_1_1InitQtPen.html#a042d47d24a35453f48a79f35d1b5f7f6" target="_top" xlink:title="Set a pen a color. ">
<polygon fill="white" stroke="black" points="173,-0 173,-34 301,-34 301,-0 173,-0"/>
<text text-anchor="start" x="181" y="-21" font-family="Helvetica,sans-Serif" font-size="10.00">scene2D::data::InitQtPen</text>
<text text-anchor="middle" x="237" y="-8" font-family="Helvetica,sans-Serif" font-size="10.00">::setPenColor</text>
</a>
</g>
<!-- Node1&#45;&gt;Node6 -->
<g id="edge12" class="edge"><title>Node1&#45;&gt;Node6</title>
<path fill="none" stroke="midnightblue" d="M97.2657,-77.9196C117.231,-67.299 143.818,-53.6808 168,-43 171.886,-41.2835 175.925,-39.5751 180.01,-37.9016"/>
<polygon fill="midnightblue" stroke="midnightblue" points="181.596,-41.037 189.58,-34.0724 178.995,-34.538 181.596,-41.037"/>
</g>
<!-- Node2&#45;&gt;Node3 -->
<g id="edge4" class="edge"><title>Node2&#45;&gt;Node3</title>
<path fill="none" stroke="midnightblue" d="M302.782,-138.013C313.392,-140.757 324.451,-143.617 335.273,-146.415"/>
<polygon fill="midnightblue" stroke="midnightblue" points="334.567,-149.848 345.125,-148.963 336.32,-143.071 334.567,-149.848"/>
</g>
<!-- Node4 -->
<g id="node7" class="node"><title>Node4</title>
<a xlink:href="classscene2D_1_1adaptor_1_1IAdaptor.html#afc8cbae24765d58180d7adc6d1e43178" target="_top" xlink:title="Get the object associated to the IAdaptor. ">
<polygon fill="white" stroke="black" points="342.5,-97 342.5,-131 479.5,-131 479.5,-97 342.5,-97"/>
<text text-anchor="start" x="350.5" y="-118" font-family="Helvetica,sans-Serif" font-size="10.00">scene2D::adaptor::IAdaptor</text>
<text text-anchor="middle" x="411" y="-105" font-family="Helvetica,sans-Serif" font-size="10.00">::getRegisteredObject</text>
</a>
</g>
<!-- Node2&#45;&gt;Node4 -->
<g id="edge6" class="edge"><title>Node2&#45;&gt;Node4</title>
<path fill="none" stroke="midnightblue" d="M305.769,-118.233C314.44,-117.885 323.364,-117.526 332.176,-117.171"/>
<polygon fill="midnightblue" stroke="midnightblue" points="332.594,-120.657 342.445,-116.758 332.313,-113.663 332.594,-120.657"/>
</g>
</g>
</svg>
