<?xml version="1.0" encoding="UTF-8" standalone="no"?>
<!DOCTYPE svg PUBLIC "-//W3C//DTD SVG 1.1//EN"
 "http://www.w3.org/Graphics/SVG/1.1/DTD/svg11.dtd">
<!-- Generated by graphviz version 2.26.3 (20100126.1600)
 -->
<!-- Title: fwGdcmIO::helper::DicomSeries::read Pages: 1 -->
<svg width="554pt" height="198pt"
 viewBox="0.00 0.00 554.00 198.00" xmlns="http://www.w3.org/2000/svg" xmlns:xlink="http://www.w3.org/1999/xlink">
<g id="graph1" class="graph" transform="scale(1 1) rotate(0) translate(4 194)">
<title>fwGdcmIO::helper::DicomSeries::read</title>
<polygon fill="white" stroke="white" points="-4,5 -4,-194 551,-194 551,5 -4,5"/>
<!-- Node1 -->
<g id="node1" class="node"><title>Node1</title>
<polygon fill="#bfbfbf" stroke="black" points="0,-58 0,-92 158,-92 158,-58 0,-58"/>
<text text-anchor="start" x="8" y="-79" font-family="Helvetica,sans-Serif" font-size="10.00">fwGdcmIO::helper::DicomSeries</text>
<text text-anchor="middle" x="79" y="-66" font-family="Helvetica,sans-Serif" font-size="10.00">::read</text>
</g>
<!-- Node2 -->
<g id="node3" class="node"><title>Node2</title>
<a xlink:href="classfwGdcmIO_1_1helper_1_1DicomSeries.html#a89504e1495783d55c26866c5abf797aa" target="_top" xlink:title="Fill series with information contained in first instance. ">
<polygon fill="white" stroke="black" points="194,-91 194,-125 352,-125 352,-91 194,-91"/>
<text text-anchor="start" x="202" y="-112" font-family="Helvetica,sans-Serif" font-size="10.00">fwGdcmIO::helper::DicomSeries</text>
<text text-anchor="middle" x="273" y="-99" font-family="Helvetica,sans-Serif" font-size="10.00">::fillSeries</text>
</a>
</g>
<!-- Node1&#45;&gt;Node2 -->
<g id="edge2" class="edge"><title>Node1&#45;&gt;Node2</title>
<path fill="none" stroke="midnightblue" d="M158.187,-88.47C166.621,-89.9046 175.241,-91.3709 183.781,-92.8235"/>
<polygon fill="midnightblue" stroke="midnightblue" points="183.306,-96.293 193.752,-94.5196 184.48,-89.3922 183.306,-96.293"/>
</g>
<!-- Node6 -->
<g id="node11" class="node"><title>Node6</title>
<a xlink:href="classfwGdcmIO_1_1helper_1_1DicomSeries.html#a732dc7a505d851d023a58b3a87482cd7" target="_top" xlink:title="Create DicomSeries from list of files. Every instance is read in order to retrieve instance informati...">
<polygon fill="white" stroke="black" points="194,-26 194,-60 352,-60 352,-26 194,-26"/>
<text text-anchor="start" x="202" y="-47" font-family="Helvetica,sans-Serif" font-size="10.00">fwGdcmIO::helper::DicomSeries</text>
<text text-anchor="middle" x="273" y="-34" font-family="Helvetica,sans-Serif" font-size="10.00">::splitFiles</text>
</a>
</g>
<!-- Node1&#45;&gt;Node6 -->
<g id="edge10" class="edge"><title>Node1&#45;&gt;Node6</title>
<path fill="none" stroke="midnightblue" d="M158.187,-61.9382C166.621,-60.547 175.241,-59.1251 183.781,-57.7166"/>
<polygon fill="midnightblue" stroke="midnightblue" points="184.455,-61.1528 193.752,-56.0719 183.315,-54.2461 184.455,-61.1528"/>
</g>
<!-- Node3 -->
<g id="node5" class="node"><title>Node3</title>
<a xlink:href="classfwGdcmIO_1_1helper_1_1DicomSeries.html#ab6eff84223514a8c0d68df26e3948c64" target="_top" xlink:title="Create an equipment from the dataset and store it in the equipment map. ">
<polygon fill="white" stroke="black" points="388,-156 388,-190 546,-190 546,-156 388,-156"/>
<text text-anchor="start" x="396" y="-177" font-family="Helvetica,sans-Serif" font-size="10.00">fwGdcmIO::helper::DicomSeries</text>
<text text-anchor="middle" x="467" y="-164" font-family="Helvetica,sans-Serif" font-size="10.00">::createEquipment</text>
</a>
</g>
<!-- Node2&#45;&gt;Node3 -->
<g id="edge4" class="edge"><title>Node2&#45;&gt;Node3</title>
<path fill="none" stroke="midnightblue" d="M323.064,-125.087C343.225,-131.94 366.705,-139.885 388,-147 393.527,-148.847 399.275,-150.757 405.037,-152.666"/>
<polygon fill="midnightblue" stroke="midnightblue" points="404.116,-156.048 414.71,-155.864 406.314,-149.402 404.116,-156.048"/>
</g>
<!-- Node4 -->
<g id="node7" class="node"><title>Node4</title>
<a xlink:href="classfwGdcmIO_1_1helper_1_1DicomSeries.html#a77ab048200c19f981a046713ba0d5be3" target="_top" xlink:title="Create a patient from the dataset and store it in the patient map. ">
<polygon fill="white" stroke="black" points="388,-104 388,-138 546,-138 546,-104 388,-104"/>
<text text-anchor="start" x="396" y="-125" font-family="Helvetica,sans-Serif" font-size="10.00">fwGdcmIO::helper::DicomSeries</text>
<text text-anchor="middle" x="467" y="-112" font-family="Helvetica,sans-Serif" font-size="10.00">::createPatient</text>
</a>
</g>
<!-- Node2&#45;&gt;Node4 -->
<g id="edge6" class="edge"><title>Node2&#45;&gt;Node4</title>
<path fill="none" stroke="midnightblue" d="M352.187,-113.306C360.529,-113.865 369.054,-114.437 377.502,-115.003"/>
<polygon fill="midnightblue" stroke="midnightblue" points="377.54,-118.513 387.752,-115.69 378.008,-111.529 377.54,-118.513"/>
</g>
<!-- Node5 -->
<g id="node9" class="node"><title>Node5</title>
<a xlink:href="classfwGdcmIO_1_1helper_1_1DicomSeries.html#a6d350bb327c3a6667d16173107fa65b1" target="_top" xlink:title="Create a study from the dataset and store it in the study map. ">
<polygon fill="white" stroke="black" points="388,-52 388,-86 546,-86 546,-52 388,-52"/>
<text text-anchor="start" x="396" y="-73" font-family="Helvetica,sans-Serif" font-size="10.00">fwGdcmIO::helper::DicomSeries</text>
<text text-anchor="middle" x="467" y="-60" font-family="Helvetica,sans-Serif" font-size="10.00">::createStudy</text>
</a>
</g>
<!-- Node2&#45;&gt;Node5 -->
<g id="edge8" class="edge"><title>Node2&#45;&gt;Node5</title>
<path fill="none" stroke="midnightblue" d="M352.187,-92.081C360.621,-90.3854 369.241,-88.6525 377.781,-86.9359"/>
<polygon fill="midnightblue" stroke="midnightblue" points="378.638,-90.3337 387.752,-84.9314 377.258,-83.471 378.638,-90.3337"/>
</g>
<!-- Node7 -->
<g id="node13" class="node"><title>Node7</title>
<a xlink:href="classfwGdcmIO_1_1helper_1_1DicomSeries.html#a88f304325f0f30fa7b9790a0134f150b" target="_top" xlink:title="Create a series from the dataset and store it in the series map. ">
<polygon fill="white" stroke="black" points="388,-0 388,-34 546,-34 546,-0 388,-0"/>
<text text-anchor="start" x="396" y="-21" font-family="Helvetica,sans-Serif" font-size="10.00">fwGdcmIO::helper::DicomSeries</text>
<text text-anchor="middle" x="467" y="-8" font-family="Helvetica,sans-Serif" font-size="10.00">::createSeries</text>
</a>
</g>
<!-- Node6&#45;&gt;Node7 -->
<g id="edge12" class="edge"><title>Node6&#45;&gt;Node7</title>
<path fill="none" stroke="midnightblue" d="M352.187,-32.3873C360.621,-31.257 369.241,-30.1017 377.781,-28.9572"/>
<polygon fill="midnightblue" stroke="midnightblue" points="378.305,-32.4183 387.752,-27.6209 377.375,-25.4803 378.305,-32.4183"/>
</g>
</g>
</svg>
