<?xml version="1.0" encoding="UTF-8" standalone="no"?>
<!DOCTYPE svg PUBLIC "-//W3C//DTD SVG 1.1//EN"
 "http://www.w3.org/Graphics/SVG/1.1/DTD/svg11.dtd">
<!-- Generated by graphviz version 2.36.0 (20140111.2315)
 -->
<!-- Title: fwMedData::AttachmentSeries Pages: 1 -->
<svg width="1610pt" height="351pt"
 viewBox="0.00 0.00 1610.00 351.00" xmlns="http://www.w3.org/2000/svg" xmlns:xlink="http://www.w3.org/1999/xlink">
<g id="graph0" class="graph" transform="scale(1 1) rotate(0) translate(4 347)">
<title>fwMedData::AttachmentSeries</title>
<polygon fill="white" stroke="none" points="-4,4 -4,-347 1606,-347 1606,4 -4,4"/>
<!-- Node1 -->
<g id="node1" class="node"><title>Node1</title>
<polygon fill="#bfbfbf" stroke="black" points="1450.5,-288.5 1450.5,-307.5 1601.5,-307.5 1601.5,-288.5 1450.5,-288.5"/>
<text text-anchor="middle" x="1526" y="-295.5" font-family="Helvetica,sans-Serif" font-size="10.00">fwMedData::AttachmentSeries</text>
</g>
<!-- Node2 -->
<g id="node2" class="node"><title>Node2</title>
<g id="a_node2"><a xlink:href="classfwMedData_1_1Series.html" target="_top" xlink:title="Holds series information. ">
<polygon fill="white" stroke="black" points="1310.5,-232.5 1310.5,-251.5 1411.5,-251.5 1411.5,-232.5 1310.5,-232.5"/>
<text text-anchor="middle" x="1361" y="-239.5" font-family="Helvetica,sans-Serif" font-size="10.00">fwMedData::Series</text>
</a>
</g>
</g>
<!-- Node2&#45;&gt;Node1 -->
<g id="edge1" class="edge"><title>Node2&#45;&gt;Node1</title>
<path fill="none" stroke="midnightblue" d="M1399.67,-254.943C1429.5,-265.192 1470.49,-279.271 1497.34,-288.499"/>
<polygon fill="midnightblue" stroke="midnightblue" points="1400.62,-251.566 1390.02,-251.627 1398.34,-258.186 1400.62,-251.566"/>
</g>
<!-- Node3 -->
<g id="node3" class="node"><title>Node3</title>
<g id="a_node3"><a xlink:href="classfwData_1_1Object.html" target="_top" xlink:title="Base class for each data object. ">
<polygon fill="white" stroke="black" points="1188.5,-133.5 1188.5,-152.5 1271.5,-152.5 1271.5,-133.5 1188.5,-133.5"/>
<text text-anchor="middle" x="1230" y="-140.5" font-family="Helvetica,sans-Serif" font-size="10.00">fwData::Object</text>
</a>
</g>
</g>
<!-- Node3&#45;&gt;Node2 -->
<g id="edge2" class="edge"><title>Node3&#45;&gt;Node2</title>
<path fill="none" stroke="midnightblue" d="M1251.91,-159.049C1279.03,-179.862 1325.48,-215.505 1347.59,-232.477"/>
<polygon fill="midnightblue" stroke="midnightblue" points="1253.9,-156.166 1243.84,-152.854 1249.64,-161.719 1253.9,-156.166"/>
</g>
<!-- Node4 -->
<g id="node4" class="node"><title>Node4</title>
<g id="a_node4"><a xlink:href="classfwTools_1_1Object.html" target="_top" xlink:title="Define Base class for FW4SPL objects and services. ">
<polygon fill="white" stroke="black" points="930,-65.5 930,-84.5 1016,-84.5 1016,-65.5 930,-65.5"/>
<text text-anchor="middle" x="973" y="-72.5" font-family="Helvetica,sans-Serif" font-size="10.00">fwTools::Object</text>
</a>
</g>
</g>
<!-- Node4&#45;&gt;Node3 -->
<g id="edge3" class="edge"><title>Node4&#45;&gt;Node3</title>
<path fill="none" stroke="midnightblue" d="M1009.77,-87.9408C1025.13,-93.2665 1043.34,-99.2799 1060,-104 1103.46,-116.309 1154.01,-127.583 1188.42,-134.809"/>
<polygon fill="midnightblue" stroke="midnightblue" points="1010.73,-84.569 1000.14,-84.5608 1008.41,-91.1742 1010.73,-84.569"/>
</g>
<!-- Node5 -->
<g id="node5" class="node"><title>Node5</title>
<g id="a_node5"><a xlink:href="classfwCore_1_1BaseObject.html" target="_top" xlink:title="Base class for all FW4SPL&#39;s classes. ">
<polygon fill="white" stroke="black" points="692.5,-76.5 692.5,-95.5 797.5,-95.5 797.5,-76.5 692.5,-76.5"/>
<text text-anchor="middle" x="745" y="-83.5" font-family="Helvetica,sans-Serif" font-size="10.00">fwCore::BaseObject</text>
</a>
</g>
</g>
<!-- Node5&#45;&gt;Node4 -->
<g id="edge4" class="edge"><title>Node5&#45;&gt;Node4</title>
<path fill="none" stroke="midnightblue" d="M807.688,-82.9975C846.426,-81.112 895.378,-78.7294 929.736,-77.0571"/>
<polygon fill="midnightblue" stroke="midnightblue" points="807.384,-79.5081 797.566,-83.4902 807.724,-86.4998 807.384,-79.5081"/>
</g>
<!-- Node6 -->
<g id="node6" class="node"><title>Node6</title>
<polygon fill="white" stroke="#bfbfbf" points="461.5,-57 461.5,-87 592.5,-87 592.5,-57 461.5,-57"/>
<text text-anchor="start" x="469.5" y="-75" font-family="Helvetica,sans-Serif" font-size="10.00">std::enable_shared</text>
<text text-anchor="middle" x="527" y="-64" font-family="Helvetica,sans-Serif" font-size="10.00">_from_this&lt; BaseObject &gt;</text>
</g>
<!-- Node6&#45;&gt;Node5 -->
<g id="edge5" class="edge"><title>Node6&#45;&gt;Node5</title>
<path fill="none" stroke="midnightblue" d="M602.81,-76.8488C632.398,-78.7665 665.667,-80.9228 692.475,-82.6604"/>
<polygon fill="midnightblue" stroke="midnightblue" points="602.72,-73.3357 592.515,-76.1815 602.267,-80.3211 602.72,-73.3357"/>
</g>
<!-- Node7 -->
<g id="node7" class="node"><title>Node7</title>
<polygon fill="white" stroke="#bfbfbf" points="709.5,-38.5 709.5,-57.5 780.5,-57.5 780.5,-38.5 709.5,-38.5"/>
<text text-anchor="middle" x="745" y="-45.5" font-family="Helvetica,sans-Serif" font-size="10.00">noncopyable</text>
</g>
<!-- Node7&#45;&gt;Node4 -->
<g id="edge6" class="edge"><title>Node7&#45;&gt;Node4</title>
<path fill="none" stroke="midnightblue" d="M790.926,-53.3672C831.342,-58.1957 890.28,-65.237 929.827,-69.9616"/>
<polygon fill="midnightblue" stroke="midnightblue" points="791.162,-49.8706 780.817,-52.1596 790.331,-56.8212 791.162,-49.8706"/>
</g>
<!-- Node8 -->
<g id="node8" class="node"><title>Node8</title>
<g id="a_node8"><a xlink:href="classfwTools_1_1fwID.html" target="_top" xlink:title="Defines ID for fwTools::Object. It is used to associate ID with object. ">
<polygon fill="white" stroke="black" points="706,-0.5 706,-19.5 784,-19.5 784,-0.5 706,-0.5"/>
<text text-anchor="middle" x="745" y="-7.5" font-family="Helvetica,sans-Serif" font-size="10.00">fwTools::fwID</text>
</a>
</g>
</g>
<!-- Node8&#45;&gt;Node4 -->
<g id="edge7" class="edge"><title>Node8&#45;&gt;Node4</title>
<path fill="none" stroke="darkgreen" d="M788.199,-22.4205C820.003,-31.7489 864.707,-44.791 904,-56 914.844,-59.0936 926.677,-62.4175 937.386,-65.4067"/>
<polygon fill="darkgreen" stroke="darkgreen" points="788.93,-18.9875 778.349,-19.5293 786.958,-25.7041 788.93,-18.9875"/>
</g>
<!-- Node9 -->
<g id="node9" class="node"><title>Node9</title>
<g id="a_node9"><a xlink:href="classfwCom_1_1HasSignals.html" target="_top" xlink:title="This class proposes a mapping between a SignalKeyType and a SignalBase. ">
<polygon fill="white" stroke="black" points="921,-126.5 921,-145.5 1025,-145.5 1025,-126.5 921,-126.5"/>
<text text-anchor="middle" x="973" y="-133.5" font-family="Helvetica,sans-Serif" font-size="10.00">fwCom::HasSignals</text>
</a>
</g>
</g>
<!-- Node9&#45;&gt;Node3 -->
<g id="edge8" class="edge"><title>Node9&#45;&gt;Node3</title>
<path fill="none" stroke="midnightblue" d="M1035.44,-137.687C1082.84,-138.988 1147.06,-140.751 1188.27,-141.882"/>
<polygon fill="midnightblue" stroke="midnightblue" points="1035.39,-134.184 1025.3,-137.408 1035.2,-141.181 1035.39,-134.184"/>
</g>
<!-- Node10 -->
<g id="node10" class="node"><title>Node10</title>
<g id="a_node10"><a xlink:href="classfwCom_1_1Signals.html" target="_top" xlink:title="This class proposes a mapping between a SignalKeyType and a SignalBase. ">
<polygon fill="white" stroke="black" points="702,-114.5 702,-133.5 788,-133.5 788,-114.5 702,-114.5"/>
<text text-anchor="middle" x="745" y="-121.5" font-family="Helvetica,sans-Serif" font-size="10.00">fwCom::Signals</text>
</a>
</g>
</g>
<!-- Node10&#45;&gt;Node9 -->
<g id="edge9" class="edge"><title>Node10&#45;&gt;Node9</title>
<path fill="none" stroke="#9a32cd" stroke-dasharray="5,2" d="M798.294,-126.777C835.15,-128.734 884.26,-131.341 920.857,-133.284"/>
<polygon fill="#9a32cd" stroke="#9a32cd" points="798.415,-123.278 788.244,-126.243 798.044,-130.268 798.415,-123.278"/>
<text text-anchor="middle" x="851" y="-135" font-family="Helvetica,sans-Serif" font-size="10.00"> m_signals</text>
</g>
<!-- Node11 -->
<g id="node11" class="node"><title>Node11</title>
<polygon fill="white" stroke="#bfbfbf" points="446.5,-106 446.5,-136 607.5,-136 607.5,-106 446.5,-106"/>
<text text-anchor="start" x="454.5" y="-124" font-family="Helvetica,sans-Serif" font-size="10.00">std::map&lt; SignalKeyType,</text>
<text text-anchor="middle" x="527" y="-113" font-family="Helvetica,sans-Serif" font-size="10.00"> std::shared_ptr&lt; SignalBase &gt; &gt;</text>
</g>
<!-- Node11&#45;&gt;Node10 -->
<g id="edge10" class="edge"><title>Node11&#45;&gt;Node10</title>
<path fill="none" stroke="#9a32cd" stroke-dasharray="5,2" d="M617.74,-122.246C646.917,-122.652 677.926,-123.082 701.911,-123.415"/>
<polygon fill="#9a32cd" stroke="#9a32cd" points="617.558,-118.744 607.51,-122.104 617.461,-125.743 617.558,-118.744"/>
<text text-anchor="middle" x="650" y="-126" font-family="Helvetica,sans-Serif" font-size="10.00"> m_signals</text>
</g>
<!-- Node12 -->
<g id="node12" class="node"><title>Node12</title>
<g id="a_node12"><a xlink:title="STL class. ">
<polygon fill="white" stroke="#bfbfbf" points="198,-226.5 198,-245.5 258,-245.5 258,-226.5 198,-226.5"/>
<text text-anchor="middle" x="228" y="-233.5" font-family="Helvetica,sans-Serif" font-size="10.00">std::string</text>
</a>
</g>
</g>
<!-- Node12&#45;&gt;Node1 -->
<g id="edge27" class="edge"><title>Node12&#45;&gt;Node1</title>
<path fill="none" stroke="#9a32cd" stroke-dasharray="5,2" d="M254.693,-250.361C305.085,-277.137 421.129,-332 526,-332 526,-332 526,-332 1362,-332 1410.13,-332 1464.6,-317.618 1496.81,-307.561"/>
<polygon fill="#9a32cd" stroke="#9a32cd" points="256.251,-247.225 245.788,-245.556 252.927,-253.385 256.251,-247.225"/>
<text text-anchor="middle" x="973" y="-335" font-family="Helvetica,sans-Serif" font-size="10.00"> m_mediaType</text>
</g>
<!-- Node12&#45;&gt;Node2 -->
<g id="edge26" class="edge"><title>Node12&#45;&gt;Node2</title>
<path fill="none" stroke="#9a32cd" stroke-dasharray="5,2" d="M267.972,-243.554C277.745,-245.234 288.231,-246.854 298,-248 398.833,-259.827 424.476,-262 526,-262 526,-262 526,-262 1231,-262 1260.92,-262 1294.28,-256.683 1319.58,-251.531"/>
<polygon fill="#9a32cd" stroke="#9a32cd" points="268.563,-240.104 258.105,-241.799 267.337,-246.996 268.563,-240.104"/>
<text text-anchor="middle" x="851" y="-309" font-family="Helvetica,sans-Serif" font-size="10.00"> m_time</text>
<text text-anchor="middle" x="851" y="-298" font-family="Helvetica,sans-Serif" font-size="10.00">m_date</text>
<text text-anchor="middle" x="851" y="-287" font-family="Helvetica,sans-Serif" font-size="10.00">m_instanceUID</text>
<text text-anchor="middle" x="851" y="-276" font-family="Helvetica,sans-Serif" font-size="10.00">m_description</text>
<text text-anchor="middle" x="851" y="-265" font-family="Helvetica,sans-Serif" font-size="10.00">m_modality</text>
</g>
<!-- Node12&#45;&gt;Node11 -->
<g id="edge11" class="edge"><title>Node12&#45;&gt;Node11</title>
<path fill="none" stroke="#9a32cd" stroke-dasharray="5,2" d="M249.808,-220.064C260.097,-211.269 271.994,-199.59 280,-187 293.349,-166.008 278.198,-149.059 298,-134 320.722,-116.72 390.023,-114.767 446.311,-116.365"/>
<polygon fill="#9a32cd" stroke="#9a32cd" points="247.519,-217.414 242.005,-226.461 251.957,-222.827 247.519,-217.414"/>
<text text-anchor="middle" x="363" y="-137" font-family="Helvetica,sans-Serif" font-size="10.00"> keys</text>
</g>
<!-- Node17 -->
<g id="node17" class="node"><title>Node17</title>
<polygon fill="white" stroke="#bfbfbf" points="459.5,-154.5 459.5,-195.5 594.5,-195.5 594.5,-154.5 459.5,-154.5"/>
<text text-anchor="start" x="467.5" y="-183.5" font-family="Helvetica,sans-Serif" font-size="10.00">std::unordered_map</text>
<text text-anchor="start" x="467.5" y="-172.5" font-family="Helvetica,sans-Serif" font-size="10.00">&lt; FieldNameType,::fwData</text>
<text text-anchor="middle" x="527" y="-161.5" font-family="Helvetica,sans-Serif" font-size="10.00">::Object::sptr &gt;</text>
</g>
<!-- Node12&#45;&gt;Node17 -->
<g id="edge17" class="edge"><title>Node12&#45;&gt;Node17</title>
<path fill="none" stroke="#9a32cd" stroke-dasharray="5,2" d="M265.561,-223.299C275.96,-219.972 287.354,-216.594 298,-214 351.648,-200.927 413.441,-190.646 459.153,-183.929"/>
<polygon fill="#9a32cd" stroke="#9a32cd" points="264.367,-220.007 255.953,-226.446 266.545,-226.659 264.367,-220.007"/>
<text text-anchor="middle" x="363" y="-217" font-family="Helvetica,sans-Serif" font-size="10.00"> keys</text>
</g>
<!-- Node20 -->
<g id="node20" class="node"><title>Node20</title>
<polygon fill="white" stroke="#bfbfbf" points="449,-214.5 449,-233.5 605,-233.5 605,-214.5 449,-214.5"/>
<text text-anchor="middle" x="527" y="-221.5" font-family="Helvetica,sans-Serif" font-size="10.00">std::vector&lt; DicomValueType &gt;</text>
</g>
<!-- Node12&#45;&gt;Node20 -->
<g id="edge23" class="edge"><title>Node12&#45;&gt;Node20</title>
<path fill="none" stroke="#9a32cd" stroke-dasharray="5,2" d="M268.125,-234.419C313.902,-232.57 390.798,-229.463 448.736,-227.122"/>
<polygon fill="#9a32cd" stroke="#9a32cd" points="267.869,-230.927 258.018,-234.828 268.152,-237.921 267.869,-230.927"/>
<text text-anchor="middle" x="363" y="-237" font-family="Helvetica,sans-Serif" font-size="10.00"> elements</text>
</g>
<!-- Node13 -->
<g id="node13" class="node"><title>Node13</title>
<g id="a_node13"><a xlink:title="STL class. ">
<polygon fill="white" stroke="#bfbfbf" points="0.5,-221 0.5,-251 95.5,-251 95.5,-221 0.5,-221"/>
<text text-anchor="start" x="8.5" y="-239" font-family="Helvetica,sans-Serif" font-size="10.00">std::basic_string&lt;</text>
<text text-anchor="middle" x="48" y="-228" font-family="Helvetica,sans-Serif" font-size="10.00"> char &gt;</text>
</a>
</g>
</g>
<!-- Node13&#45;&gt;Node12 -->
<g id="edge12" class="edge"><title>Node13&#45;&gt;Node12</title>
<path fill="none" stroke="midnightblue" d="M105.897,-236C136.5,-236 172.952,-236 197.812,-236"/>
<polygon fill="midnightblue" stroke="midnightblue" points="105.767,-232.5 95.7674,-236 105.767,-239.5 105.767,-232.5"/>
</g>
<!-- Node14 -->
<g id="node14" class="node"><title>Node14</title>
<g id="a_node14"><a xlink:title="STL class. ">
<polygon fill="white" stroke="#bfbfbf" points="182,-34.5 182,-53.5 274,-53.5 274,-34.5 182,-34.5"/>
<text text-anchor="middle" x="228" y="-41.5" font-family="Helvetica,sans-Serif" font-size="10.00">std::map&lt; K, T &gt;</text>
</a>
</g>
</g>
<!-- Node14&#45;&gt;Node11 -->
<g id="edge13" class="edge"><title>Node14&#45;&gt;Node11</title>
<path fill="none" stroke="orange" stroke-dasharray="5,2" d="M268.388,-31.9027C311.706,-21.1738 381.345,-11.815 428,-45 447.587,-58.9324 428.697,-79.3155 446,-96 449.98,-99.8381 454.542,-103.088 459.424,-105.839"/>
<polygon fill="orange" stroke="orange" points="267.291,-28.5716 258.502,-34.4882 269.063,-35.3438 267.291,-28.5716"/>
<text text-anchor="start" x="298.5" y="-59" font-family="Helvetica,sans-Serif" font-size="10.00"> &lt; SignalKeyType, std</text>
<text text-anchor="middle" x="363" y="-48" font-family="Helvetica,sans-Serif" font-size="10.00">::shared_ptr&lt; SignalBase &gt; &gt;</text>
</g>
<!-- Node15 -->
<g id="node15" class="node"><title>Node15</title>
<polygon fill="white" stroke="#bfbfbf" points="33.5,-39.5 33.5,-58.5 62.5,-58.5 62.5,-39.5 33.5,-39.5"/>
<text text-anchor="middle" x="48" y="-46.5" font-family="Helvetica,sans-Serif" font-size="10.00">K</text>
</g>
<!-- Node15&#45;&gt;Node14 -->
<g id="edge14" class="edge"><title>Node15&#45;&gt;Node14</title>
<path fill="none" stroke="#9a32cd" stroke-dasharray="5,2" d="M72.6214,-41.7278C84.8423,-38.3391 100.08,-34.6881 114,-33 136.307,-30.2949 161.155,-32.1804 181.857,-35.1044"/>
<polygon fill="#9a32cd" stroke="#9a32cd" points="71.3986,-38.438 62.7673,-44.5822 73.3463,-45.1616 71.3986,-38.438"/>
<text text-anchor="middle" x="136" y="-36" font-family="Helvetica,sans-Serif" font-size="10.00"> keys</text>
</g>
<!-- Node18 -->
<g id="node18" class="node"><title>Node18</title>
<g id="a_node18"><a xlink:title="STL class. ">
<polygon fill="white" stroke="#bfbfbf" points="176.5,-74 176.5,-104 279.5,-104 279.5,-74 176.5,-74"/>
<text text-anchor="start" x="184.5" y="-92" font-family="Helvetica,sans-Serif" font-size="10.00">std::unordered_map</text>
<text text-anchor="middle" x="228" y="-81" font-family="Helvetica,sans-Serif" font-size="10.00">&lt; K, T &gt;</text>
</a>
</g>
</g>
<!-- Node15&#45;&gt;Node18 -->
<g id="edge19" class="edge"><title>Node15&#45;&gt;Node18</title>
<path fill="none" stroke="#9a32cd" stroke-dasharray="5,2" d="M72.7163,-51.9068C94.9307,-54.867 128.967,-60.0132 158,-67 166.19,-68.971 174.82,-71.4172 183.098,-73.9549"/>
<polygon fill="#9a32cd" stroke="#9a32cd" points="72.916,-48.4036 62.5504,-50.5953 72.0203,-55.3461 72.916,-48.4036"/>
<text text-anchor="middle" x="136" y="-70" font-family="Helvetica,sans-Serif" font-size="10.00"> keys</text>
</g>
<!-- Node16 -->
<g id="node16" class="node"><title>Node16</title>
<polygon fill="white" stroke="#bfbfbf" points="33.5,-124.5 33.5,-143.5 62.5,-143.5 62.5,-124.5 33.5,-124.5"/>
<text text-anchor="middle" x="48" y="-131.5" font-family="Helvetica,sans-Serif" font-size="10.00">T</text>
</g>
<!-- Node16&#45;&gt;Node14 -->
<g id="edge15" class="edge"><title>Node16&#45;&gt;Node14</title>
<path fill="none" stroke="#9a32cd" stroke-dasharray="5,2" d="M71.6253,-121.468C84.0556,-114.671 99.7921,-106.21 114,-99 133.323,-89.1939 139.563,-89.3845 158,-78 166.623,-72.6752 167.192,-69.0128 176,-64 182.943,-60.0486 190.821,-56.537 198.272,-53.602"/>
<polygon fill="#9a32cd" stroke="#9a32cd" points="69.9231,-118.41 62.8443,-126.293 73.294,-124.544 69.9231,-118.41"/>
<text text-anchor="middle" x="136" y="-102" font-family="Helvetica,sans-Serif" font-size="10.00"> elements</text>
</g>
<!-- Node16&#45;&gt;Node18 -->
<g id="edge20" class="edge"><title>Node16&#45;&gt;Node18</title>
<path fill="none" stroke="#9a32cd" stroke-dasharray="5,2" d="M72.4081,-130.132C94.6118,-126.262 128.824,-119.776 158,-112 166.663,-109.691 175.828,-106.894 184.551,-104.057"/>
<polygon fill="#9a32cd" stroke="#9a32cd" points="71.8155,-126.683 62.5474,-131.816 72.9939,-133.583 71.8155,-126.683"/>
<text text-anchor="middle" x="136" y="-125" font-family="Helvetica,sans-Serif" font-size="10.00"> elements</text>
</g>
<!-- Node21 -->
<g id="node21" class="node"><title>Node21</title>
<g id="a_node21"><a xlink:title="STL class. ">
<polygon fill="white" stroke="#bfbfbf" points="184.5,-158.5 184.5,-177.5 271.5,-177.5 271.5,-158.5 184.5,-158.5"/>
<text text-anchor="middle" x="228" y="-165.5" font-family="Helvetica,sans-Serif" font-size="10.00">std::vector&lt; T &gt;</text>
</a>
</g>
</g>
<!-- Node16&#45;&gt;Node21 -->
<g id="edge25" class="edge"><title>Node16&#45;&gt;Node21</title>
<path fill="none" stroke="#9a32cd" stroke-dasharray="5,2" d="M72.4975,-138.488C100.853,-143.905 149.083,-153.117 184.127,-159.811"/>
<polygon fill="#9a32cd" stroke="#9a32cd" points="73.1509,-135.05 62.6718,-136.611 71.8375,-141.926 73.1509,-135.05"/>
<text text-anchor="middle" x="136" y="-158" font-family="Helvetica,sans-Serif" font-size="10.00"> elements</text>
</g>
<!-- Node17&#45;&gt;Node3 -->
<g id="edge16" class="edge"><title>Node17&#45;&gt;Node3</title>
<path fill="none" stroke="#9a32cd" stroke-dasharray="5,2" d="M605.028,-176.24C725.808,-177.338 966.943,-176.121 1170,-154 1176.01,-153.346 1182.32,-152.423 1188.49,-151.387"/>
<polygon fill="#9a32cd" stroke="#9a32cd" points="604.812,-172.737 594.778,-176.138 604.743,-179.737 604.812,-172.737"/>
<text text-anchor="middle" x="851" y="-178" font-family="Helvetica,sans-Serif" font-size="10.00"> m_fields</text>
</g>
<!-- Node18&#45;&gt;Node17 -->
<g id="edge18" class="edge"><title>Node18&#45;&gt;Node17</title>
<path fill="none" stroke="orange" stroke-dasharray="5,2" d="M289.847,-81.7495C340.173,-77.0994 406.711,-74.4853 428,-90 448.786,-105.148 428.203,-126.431 446,-145 449.9,-149.069 454.405,-152.592 459.25,-155.64"/>
<polygon fill="orange" stroke="orange" points="289.312,-78.2849 279.697,-82.7343 289.988,-85.2521 289.312,-78.2849"/>
<text text-anchor="start" x="302" y="-104" font-family="Helvetica,sans-Serif" font-size="10.00"> &lt; FieldNameType,::fwData</text>
<text text-anchor="middle" x="363" y="-93" font-family="Helvetica,sans-Serif" font-size="10.00">::Object::sptr &gt;</text>
</g>
<!-- Node19 -->
<g id="node19" class="node"><title>Node19</title>
<polygon fill="white" stroke="#bfbfbf" points="952.5,-27.5 952.5,-46.5 993.5,-46.5 993.5,-27.5 952.5,-27.5"/>
<text text-anchor="middle" x="973" y="-34.5" font-family="Helvetica,sans-Serif" font-size="10.00">static</text>
</g>
<!-- Node19&#45;&gt;Node3 -->
<g id="edge21" class="edge"><title>Node19&#45;&gt;Node3</title>
<path fill="none" stroke="#9a32cd" stroke-dasharray="5,2" d="M1003.32,-27.6134C1043.91,-16.4871 1118.09,-3.07329 1170,-34 1207.34,-56.2481 1222.49,-111.251 1227.22,-133.466"/>
<polygon fill="#9a32cd" stroke="#9a32cd" points="1002.16,-24.3051 993.516,-30.4363 1004.09,-31.0317 1002.16,-24.3051"/>
<text text-anchor="middle" x="1115" y="-92" font-family="Helvetica,sans-Serif" font-size="10.00"> s_MODIFIED_SIG</text>
<text text-anchor="start" x="1060" y="-81" font-family="Helvetica,sans-Serif" font-size="10.00">s_REMOVED_FIELDS</text>
<text text-anchor="middle" x="1115" y="-70" font-family="Helvetica,sans-Serif" font-size="10.00">_SIG</text>
<text text-anchor="start" x="1060" y="-59" font-family="Helvetica,sans-Serif" font-size="10.00">s_CHANGED_FIELDS</text>
<text text-anchor="middle" x="1115" y="-48" font-family="Helvetica,sans-Serif" font-size="10.00">_SIG</text>
<text text-anchor="middle" x="1115" y="-37" font-family="Helvetica,sans-Serif" font-size="10.00">s_ADDED_FIELDS_SIG</text>
</g>
<!-- Node20&#45;&gt;Node2 -->
<g id="edge22" class="edge"><title>Node20&#45;&gt;Node2</title>
<path fill="none" stroke="#9a32cd" stroke-dasharray="5,2" d="M615.314,-223.412C654.64,-223.195 701.654,-223 744,-223 744,-223 744,-223 1231,-223 1259.86,-223 1291.97,-227.713 1316.94,-232.444"/>
<polygon fill="#9a32cd" stroke="#9a32cd" points="615.207,-219.913 605.227,-223.469 615.247,-226.912 615.207,-219.913"/>
<text text-anchor="middle" x="973" y="-226" font-family="Helvetica,sans-Serif" font-size="10.00"> m_performingPhysiciansName</text>
</g>
<!-- Node21&#45;&gt;Node20 -->
<g id="edge24" class="edge"><title>Node21&#45;&gt;Node20</title>
<path fill="none" stroke="orange" stroke-dasharray="5,2" d="M271.589,-156.226C314.416,-146.979 380.702,-139.975 428,-169 442.909,-178.149 432.293,-193.132 446,-204 451.497,-208.358 457.82,-211.781 464.453,-214.466"/>
<polygon fill="orange" stroke="orange" points="270.73,-152.833 261.763,-158.476 272.292,-159.656 270.73,-152.833"/>
<text text-anchor="middle" x="363" y="-172" font-family="Helvetica,sans-Serif" font-size="10.00"> &lt; DicomValueType &gt;</text>
</g>
</g>
</svg>
