<?xml version="1.0" encoding="UTF-8" standalone="no"?>
<!DOCTYPE svg PUBLIC "-//W3C//DTD SVG 1.1//EN"
 "http://www.w3.org/Graphics/SVG/1.1/DTD/svg11.dtd">
<!-- Generated by graphviz version 2.26.3 (20100126.1600)
 -->
<!-- Title: fwServices::IService::swapping Pages: 1 -->
<svg width="404pt" height="94pt"
 viewBox="0.00 0.00 404.00 94.00" xmlns="http://www.w3.org/2000/svg" xmlns:xlink="http://www.w3.org/1999/xlink">
<g id="graph1" class="graph" transform="scale(1 1) rotate(0) translate(4 90)">
<title>fwServices::IService::swapping</title>
<polygon fill="white" stroke="white" points="-4,5 -4,-90 401,-90 401,5 -4,5"/>
<!-- Node1 -->
<g id="node1" class="node"><title>Node1</title>
<polygon fill="#bfbfbf" stroke="black" points="0.5,-26 0.5,-60 107.5,-60 107.5,-26 0.5,-26"/>
<text text-anchor="start" x="8.5" y="-47" font-family="Helvetica,sans-Serif" font-size="10.00">fwServices::IService</text>
<text text-anchor="middle" x="54" y="-34" font-family="Helvetica,sans-Serif" font-size="10.00">::swapping</text>
</g>
<!-- Node2 -->
<g id="node3" class="node"><title>Node2</title>
<a xlink:href="classfwServices_1_1IService.html#a7cf9749932ef5e17fc08b1459de4dead" target="_top" xlink:title="Associate the service to another object. ">
<polygon fill="white" stroke="black" points="144.5,-52 144.5,-86 251.5,-86 251.5,-52 144.5,-52"/>
<text text-anchor="start" x="152.5" y="-73" font-family="Helvetica,sans-Serif" font-size="10.00">fwServices::IService</text>
<text text-anchor="middle" x="198" y="-60" font-family="Helvetica,sans-Serif" font-size="10.00">::swap</text>
</a>
</g>
<!-- Node1&#45;&gt;Node2 -->
<g id="edge2" class="edge"><title>Node1&#45;&gt;Node2</title>
<path fill="none" stroke="midnightblue" d="M117.593,-54.4821C126.519,-56.0937 135.619,-57.7367 144.335,-59.3105"/>
<polygon fill="midnightblue" stroke="midnightblue" points="118.083,-51.014 107.62,-52.6814 116.839,-57.9027 118.083,-51.014"/>
</g>
<!-- Node4 -->
<g id="node7" class="node"><title>Node4</title>
<a xlink:href="classfwServices_1_1IService.html#af23a18387b32c629f83d0d5f7a857d2e" target="_top" xlink:title="Associate the service to another object. ">
<polygon fill="white" stroke="black" points="144.5,-0 144.5,-34 251.5,-34 251.5,-0 144.5,-0"/>
<text text-anchor="start" x="152.5" y="-21" font-family="Helvetica,sans-Serif" font-size="10.00">fwServices::IService</text>
<text text-anchor="middle" x="198" y="-8" font-family="Helvetica,sans-Serif" font-size="10.00">::swapKey</text>
</a>
</g>
<!-- Node1&#45;&gt;Node4 -->
<g id="edge6" class="edge"><title>Node1&#45;&gt;Node4</title>
<path fill="none" stroke="midnightblue" d="M117.593,-31.5179C126.519,-29.9063 135.619,-28.2633 144.335,-26.6895"/>
<polygon fill="midnightblue" stroke="midnightblue" points="116.839,-28.0973 107.62,-33.3186 118.083,-34.986 116.839,-28.0973"/>
</g>
<!-- Node3 -->
<g id="node5" class="node"><title>Node3</title>
<a xlink:href="classfwServices_1_1IService.html#ad540e61677f83ee6d057317da73f3ad9" target="_top" xlink:title="IService constructor. ">
<polygon fill="white" stroke="black" points="288.5,-26 288.5,-60 395.5,-60 395.5,-26 288.5,-26"/>
<text text-anchor="start" x="296.5" y="-47" font-family="Helvetica,sans-Serif" font-size="10.00">fwServices::IService</text>
<text text-anchor="middle" x="342" y="-34" font-family="Helvetica,sans-Serif" font-size="10.00">::IService</text>
</a>
</g>
<!-- Node2&#45;&gt;Node3 -->
<g id="edge4" class="edge"><title>Node2&#45;&gt;Node3</title>
<path fill="none" stroke="midnightblue" d="M261.593,-57.5179C270.519,-55.9063 279.619,-54.2633 288.335,-52.6895"/>
<polygon fill="midnightblue" stroke="midnightblue" points="260.839,-54.0973 251.62,-59.3186 262.083,-60.986 260.839,-54.0973"/>
</g>
<!-- Node4&#45;&gt;Node3 -->
<g id="edge8" class="edge"><title>Node4&#45;&gt;Node3</title>
<path fill="none" stroke="midnightblue" d="M261.593,-28.4821C270.519,-30.0937 279.619,-31.7367 288.335,-33.3105"/>
<polygon fill="midnightblue" stroke="midnightblue" points="262.083,-25.014 251.62,-26.6814 260.839,-31.9027 262.083,-25.014"/>
</g>
</g>
</svg>
