<?xml version="1.0" encoding="UTF-8" standalone="no"?>
<!DOCTYPE svg PUBLIC "-//W3C//DTD SVG 1.1//EN"
 "http://www.w3.org/Graphics/SVG/1.1/DTD/svg11.dtd">
<!-- Generated by graphviz version 2.36.0 (20140111.2315)
 -->
<!-- Title: fwJobs::Aggregator::runImpl Pages: 1 -->
<svg width="606pt" height="38pt"
 viewBox="0.00 0.00 606.00 38.00" xmlns="http://www.w3.org/2000/svg" xmlns:xlink="http://www.w3.org/1999/xlink">
<g id="graph0" class="graph" transform="scale(1 1) rotate(0) translate(4 34)">
<title>fwJobs::Aggregator::runImpl</title>
<polygon fill="white" stroke="none" points="-4,4 -4,-34 602,-34 602,4 -4,4"/>
<!-- Node1 -->
<g id="node1" class="node"><title>Node1</title>
<polygon fill="#bfbfbf" stroke="black" points="0.5,-0 0.5,-30 101.5,-30 101.5,-0 0.5,-0"/>
<text text-anchor="start" x="8.5" y="-18" font-family="Helvetica,sans-Serif" font-size="10.00">fwJobs::Aggregator</text>
<text text-anchor="middle" x="51" y="-7" font-family="Helvetica,sans-Serif" font-size="10.00">::runImpl</text>
</g>
<!-- Node2 -->
<g id="node2" class="node"><title>Node2</title>
<g id="a_node2"><a xlink:href="classfwJobs_1_1IJob.html#ad6829229eed3697a6e989bc8efbec411" target="_top" xlink:title="Finish the job: set state to finished or canceled. ">
<polygon fill="white" stroke="black" points="138,-5.5 138,-24.5 240,-24.5 240,-5.5 138,-5.5"/>
<text text-anchor="middle" x="189" y="-12.5" font-family="Helvetica,sans-Serif" font-size="10.00">fwJobs::IJob::finish</text>
</a>
</g>
</g>
<!-- Node1&#45;&gt;Node2 -->
<g id="edge1" class="edge"><title>Node1&#45;&gt;Node2</title>
<path fill="none" stroke="midnightblue" d="M101.869,-15C110.26,-15 119.049,-15 127.671,-15"/>
<polygon fill="midnightblue" stroke="midnightblue" points="127.682,-18.5001 137.682,-15 127.682,-11.5001 127.682,-18.5001"/>
</g>
<!-- Node3 -->
<g id="node3" class="node"><title>Node3</title>
<g id="a_node3"><a xlink:href="classfwJobs_1_1IJob.html#a646fc96367db7d6b33e7c45b1d19371f" target="_top" xlink:title="Finish the job without mutex lock: set the state to finished or canceled. ">
<polygon fill="white" stroke="black" points="276,-5.5 276,-24.5 412,-24.5 412,-5.5 276,-5.5"/>
<text text-anchor="middle" x="344" y="-12.5" font-family="Helvetica,sans-Serif" font-size="10.00">fwJobs::IJob::finishNoLock</text>
</a>
</g>
</g>
<!-- Node2&#45;&gt;Node3 -->
<g id="edge2" class="edge"><title>Node2&#45;&gt;Node3</title>
<path fill="none" stroke="midnightblue" d="M240.098,-15C248.304,-15 256.971,-15 265.654,-15"/>
<polygon fill="midnightblue" stroke="midnightblue" points="265.826,-18.5001 275.826,-15 265.826,-11.5001 265.826,-18.5001"/>
</g>
<!-- Node4 -->
<g id="node4" class="node"><title>Node4</title>
<g id="a_node4"><a xlink:href="classfwJobs_1_1IJob.html#a18208baa7de736660453ad92de26dfff" target="_top" xlink:title="Setter on the state without mutex lock. ">
<polygon fill="white" stroke="black" points="448.5,-5.5 448.5,-24.5 597.5,-24.5 597.5,-5.5 448.5,-5.5"/>
<text text-anchor="middle" x="523" y="-12.5" font-family="Helvetica,sans-Serif" font-size="10.00">fwJobs::IJob::setStateNoLock</text>
</a>
</g>
</g>
<!-- Node3&#45;&gt;Node4 -->
<g id="edge3" class="edge"><title>Node3&#45;&gt;Node4</title>
<path fill="none" stroke="midnightblue" d="M412.168,-15C420.674,-15 429.459,-15 438.182,-15"/>
<polygon fill="midnightblue" stroke="midnightblue" points="438.375,-18.5001 448.375,-15 438.375,-11.5001 438.375,-18.5001"/>
</g>
</g>
</svg>
