<?xml version="1.0" encoding="UTF-8" standalone="no"?>
<!DOCTYPE svg PUBLIC "-//W3C//DTD SVG 1.1//EN"
 "http://www.w3.org/Graphics/SVG/1.1/DTD/svg11.dtd">
<!-- Generated by graphviz version 2.36.0 (20140111.2315)
 -->
<!-- Title: fwGdcmIO::container::sr::DicomSRCodeNode::write Pages: 1 -->
<svg width="696pt" height="240pt"
 viewBox="0.00 0.00 696.00 240.00" xmlns="http://www.w3.org/2000/svg" xmlns:xlink="http://www.w3.org/1999/xlink">
<g id="graph0" class="graph" transform="scale(1 1) rotate(0) translate(4 236)">
<title>fwGdcmIO::container::sr::DicomSRCodeNode::write</title>
<polygon fill="white" stroke="none" points="-4,4 -4,-236 692,-236 692,4 -4,4"/>
<!-- Node1 -->
<g id="node1" class="node"><title>Node1</title>
<polygon fill="#bfbfbf" stroke="black" points="0,-100.5 0,-141.5 126,-141.5 126,-100.5 0,-100.5"/>
<text text-anchor="start" x="8" y="-129.5" font-family="Helvetica,sans-Serif" font-size="10.00">fwGdcmIO::container</text>
<text text-anchor="start" x="8" y="-118.5" font-family="Helvetica,sans-Serif" font-size="10.00">::sr::DicomSRCodeNode</text>
<text text-anchor="middle" x="63" y="-107.5" font-family="Helvetica,sans-Serif" font-size="10.00">::write</text>
</g>
<!-- Node2 -->
<g id="node2" class="node"><title>Node2</title>
<g id="a_node2"><a xlink:href="classfwGdcmIO_1_1container_1_1sr_1_1DicomSRNode.html#a2db112a4479d6d5815f14b883459088b" target="_top" xlink:title="Create a concept name code sequence. ">
<polygon fill="white" stroke="black" points="328.5,-134.5 328.5,-175.5 501.5,-175.5 501.5,-134.5 328.5,-134.5"/>
<text text-anchor="start" x="336.5" y="-163.5" font-family="Helvetica,sans-Serif" font-size="10.00">fwGdcmIO::container</text>
<text text-anchor="start" x="336.5" y="-152.5" font-family="Helvetica,sans-Serif" font-size="10.00">::sr::DicomSRNode::createConcept</text>
<text text-anchor="middle" x="415" y="-141.5" font-family="Helvetica,sans-Serif" font-size="10.00">NameCodeSequence</text>
</a>
</g>
</g>
<!-- Node1&#45;&gt;Node2 -->
<g id="edge1" class="edge"><title>Node1&#45;&gt;Node2</title>
<path fill="none" stroke="midnightblue" d="M126.17,-127.039C179.481,-132.218 257.146,-139.763 318.368,-145.71"/>
<polygon fill="midnightblue" stroke="midnightblue" points="318.142,-149.204 328.433,-146.688 318.819,-142.237 318.142,-149.204"/>
</g>
<!-- Node7 -->
<g id="node7" class="node"><title>Node7</title>
<g id="a_node7"><a xlink:href="classfwGdcmIO_1_1container_1_1sr_1_1DicomSRNode.html#acfec19097b1797c2c3f8f98dad0e03b5" target="_top" xlink:title="Write the SR node in the dataset. ">
<polygon fill="white" stroke="black" points="162,-80 162,-110 292,-110 292,-80 162,-80"/>
<text text-anchor="start" x="170" y="-98" font-family="Helvetica,sans-Serif" font-size="10.00">fwGdcmIO::container</text>
<text text-anchor="middle" x="227" y="-87" font-family="Helvetica,sans-Serif" font-size="10.00">::sr::DicomSRNode::write</text>
</a>
</g>
</g>
<!-- Node1&#45;&gt;Node7 -->
<g id="edge6" class="edge"><title>Node1&#45;&gt;Node7</title>
<path fill="none" stroke="midnightblue" d="M126.17,-111.022C134.572,-109.674 143.259,-108.279 151.843,-106.902"/>
<polygon fill="midnightblue" stroke="midnightblue" points="152.531,-110.336 161.85,-105.296 151.421,-103.425 152.531,-110.336"/>
</g>
<!-- Node3 -->
<g id="node3" class="node"><title>Node3</title>
<g id="a_node3"><a xlink:href="classfwGdcmIO_1_1container_1_1DicomCodedAttribute.html#a3a33360c5dde51422363f97e705b7cc8" target="_top" xlink:title="Get code value. ">
<polygon fill="white" stroke="black" points="555,-0.5 555,-41.5 671,-41.5 671,-0.5 555,-0.5"/>
<text text-anchor="start" x="563" y="-29.5" font-family="Helvetica,sans-Serif" font-size="10.00">fwGdcmIO::container</text>
<text text-anchor="start" x="563" y="-18.5" font-family="Helvetica,sans-Serif" font-size="10.00">::DicomCodedAttribute</text>
<text text-anchor="middle" x="613" y="-7.5" font-family="Helvetica,sans-Serif" font-size="10.00">::getCodeValue</text>
</a>
</g>
</g>
<!-- Node2&#45;&gt;Node3 -->
<g id="edge2" class="edge"><title>Node2&#45;&gt;Node3</title>
<path fill="none" stroke="midnightblue" d="M486.917,-134.386C492.307,-131.368 497.421,-127.925 502,-124 527.367,-102.253 513.955,-81.2013 538,-58 542.172,-53.9747 546.867,-50.2989 551.818,-46.9626"/>
<polygon fill="midnightblue" stroke="midnightblue" points="553.695,-49.9166 560.343,-41.6664 550.001,-43.9707 553.695,-49.9166"/>
</g>
<!-- Node4 -->
<g id="node4" class="node"><title>Node4</title>
<g id="a_node4"><a xlink:href="classfwGdcmIO_1_1container_1_1DicomCodedAttribute.html#a10d7bee78cea42befa204e40f9e28a53" target="_top" xlink:title="Get coding scheme designator. ">
<polygon fill="white" stroke="black" points="538,-67.5 538,-108.5 688,-108.5 688,-67.5 538,-67.5"/>
<text text-anchor="start" x="546" y="-96.5" font-family="Helvetica,sans-Serif" font-size="10.00">fwGdcmIO::container</text>
<text text-anchor="start" x="546" y="-85.5" font-family="Helvetica,sans-Serif" font-size="10.00">::DicomCodedAttribute</text>
<text text-anchor="middle" x="613" y="-74.5" font-family="Helvetica,sans-Serif" font-size="10.00">::getCodingSchemeDesignator</text>
</a>
</g>
</g>
<!-- Node2&#45;&gt;Node4 -->
<g id="edge3" class="edge"><title>Node2&#45;&gt;Node4</title>
<path fill="none" stroke="midnightblue" d="M476.138,-134.442C497.116,-127.272 520.828,-119.166 542.502,-111.757"/>
<polygon fill="midnightblue" stroke="midnightblue" points="543.645,-115.065 551.975,-108.519 541.381,-108.441 543.645,-115.065"/>
</g>
<!-- Node5 -->
<g id="node5" class="node"><title>Node5</title>
<g id="a_node5"><a xlink:href="classfwGdcmIO_1_1container_1_1DicomCodedAttribute.html#a4a5c4036825acef2e9fd18936365fc45" target="_top" xlink:title="Get coding scheme version. ">
<polygon fill="white" stroke="black" points="545,-190.5 545,-231.5 681,-231.5 681,-190.5 545,-190.5"/>
<text text-anchor="start" x="553" y="-219.5" font-family="Helvetica,sans-Serif" font-size="10.00">fwGdcmIO::container</text>
<text text-anchor="start" x="553" y="-208.5" font-family="Helvetica,sans-Serif" font-size="10.00">::DicomCodedAttribute</text>
<text text-anchor="middle" x="613" y="-197.5" font-family="Helvetica,sans-Serif" font-size="10.00">::getCodingSchemeVersion</text>
</a>
</g>
</g>
<!-- Node2&#45;&gt;Node5 -->
<g id="edge4" class="edge"><title>Node2&#45;&gt;Node5</title>
<path fill="none" stroke="midnightblue" d="M487.87,-175.534C503.106,-179.887 519.251,-184.5 534.679,-188.908"/>
<polygon fill="midnightblue" stroke="midnightblue" points="534.121,-192.389 544.698,-191.771 536.044,-185.658 534.121,-192.389"/>
</g>
<!-- Node6 -->
<g id="node6" class="node"><title>Node6</title>
<g id="a_node6"><a xlink:href="classfwGdcmIO_1_1container_1_1DicomCodedAttribute.html#afd0040d47cf04078289ebb94f6473edc" target="_top" xlink:title="Get code meaning. ">
<polygon fill="white" stroke="black" points="555,-130.5 555,-171.5 671,-171.5 671,-130.5 555,-130.5"/>
<text text-anchor="start" x="563" y="-159.5" font-family="Helvetica,sans-Serif" font-size="10.00">fwGdcmIO::container</text>
<text text-anchor="start" x="563" y="-148.5" font-family="Helvetica,sans-Serif" font-size="10.00">::DicomCodedAttribute</text>
<text text-anchor="middle" x="613" y="-137.5" font-family="Helvetica,sans-Serif" font-size="10.00">::getCodeMeaning</text>
</a>
</g>
</g>
<!-- Node2&#45;&gt;Node6 -->
<g id="edge5" class="edge"><title>Node2&#45;&gt;Node6</title>
<path fill="none" stroke="midnightblue" d="M501.683,-153.251C516.048,-152.958 530.772,-152.658 544.593,-152.376"/>
<polygon fill="midnightblue" stroke="midnightblue" points="545.039,-155.867 554.966,-152.164 544.896,-148.869 545.039,-155.867"/>
</g>
<!-- Node7&#45;&gt;Node2 -->
<g id="edge9" class="edge"><title>Node7&#45;&gt;Node2</title>
<path fill="none" stroke="midnightblue" d="M274.936,-110.141C294.81,-116.552 318.439,-124.174 340.529,-131.3"/>
<polygon fill="midnightblue" stroke="midnightblue" points="339.625,-134.686 350.217,-134.425 341.775,-128.024 339.625,-134.686"/>
</g>
<!-- Node7&#45;&gt;Node3 -->
<g id="edge7" class="edge"><title>Node7&#45;&gt;Node3</title>
<path fill="none" stroke="midnightblue" d="M258.776,-79.814C278.179,-70.8923 304.017,-60.185 328,-54 400.661,-35.2617 486.541,-27.1465 544.691,-23.6424"/>
<polygon fill="midnightblue" stroke="midnightblue" points="545.072,-27.1264 554.856,-23.0598 544.672,-20.1378 545.072,-27.1264"/>
</g>
<!-- Node7&#45;&gt;Node4 -->
<g id="edge8" class="edge"><title>Node7&#45;&gt;Node4</title>
<path fill="none" stroke="midnightblue" d="M268.744,-79.8412C286.65,-73.9497 308.094,-67.9216 328,-65 404.514,-53.7702 425.077,-57.0441 502,-65 510.369,-65.8656 519.04,-67.0922 527.674,-68.5337"/>
<polygon fill="midnightblue" stroke="midnightblue" points="527.315,-72.0245 537.772,-70.3159 528.532,-65.131 527.315,-72.0245"/>
</g>
<!-- Node8 -->
<g id="node8" class="node"><title>Node8</title>
<g id="a_node8"><a xlink:href="classfwGdcmIO_1_1container_1_1sr_1_1DicomSRNode.html#a0bdc68a423edf388811bcc5966595cf0" target="_top" xlink:title="Write a content sequence. ">
<polygon fill="white" stroke="black" points="333,-74.5 333,-115.5 497,-115.5 497,-74.5 333,-74.5"/>
<text text-anchor="start" x="341" y="-103.5" font-family="Helvetica,sans-Serif" font-size="10.00">fwGdcmIO::container</text>
<text text-anchor="start" x="341" y="-92.5" font-family="Helvetica,sans-Serif" font-size="10.00">::sr::DicomSRNode::writeContent</text>
<text text-anchor="middle" x="415" y="-81.5" font-family="Helvetica,sans-Serif" font-size="10.00">Sequence</text>
</a>
</g>
</g>
<!-- Node7&#45;&gt;Node8 -->
<g id="edge10" class="edge"><title>Node7&#45;&gt;Node8</title>
<path fill="none" stroke="midnightblue" d="M292.011,-95C301.862,-95 312.196,-95 322.505,-95"/>
<polygon fill="midnightblue" stroke="midnightblue" points="322.788,-98.5001 332.788,-95 322.788,-91.5001 322.788,-98.5001"/>
</g>
</g>
</svg>
