<?xml version="1.0" encoding="UTF-8" standalone="no"?>
<!DOCTYPE svg PUBLIC "-//W3C//DTD SVG 1.1//EN"
 "http://www.w3.org/Graphics/SVG/1.1/DTD/svg11.dtd">
<!-- Generated by graphviz version 2.36.0 (20140111.2315)
 -->
<!-- Title: fwTest::generator::Mesh::generateQuadMesh Pages: 1 -->
<svg width="286pt" height="38pt"
 viewBox="0.00 0.00 286.00 38.00" xmlns="http://www.w3.org/2000/svg" xmlns:xlink="http://www.w3.org/1999/xlink">
<g id="graph0" class="graph" transform="scale(1 1) rotate(0) translate(4 34)">
<title>fwTest::generator::Mesh::generateQuadMesh</title>
<polygon fill="white" stroke="none" points="-4,4 -4,-34 282,-34 282,4 -4,4"/>
<!-- Node1 -->
<g id="node1" class="node"><title>Node1</title>
<polygon fill="#bfbfbf" stroke="black" points="0.5,-0 0.5,-30 131.5,-30 131.5,-0 0.5,-0"/>
<text text-anchor="start" x="8.5" y="-18" font-family="Helvetica,sans-Serif" font-size="10.00">fwTest::generator::</text>
<text text-anchor="middle" x="66" y="-7" font-family="Helvetica,sans-Serif" font-size="10.00">Mesh::generateQuadMesh</text>
</g>
<!-- Node2 -->
<g id="node2" class="node"><title>Node2</title>
<g id="a_node2"><a xlink:href="classfwTest_1_1generator_1_1Mesh.html#ad5f544cea986ee54283a199da3b2bb2d" target="_top" xlink:title="Add quad cells in mesh, this method generates synthetic data (two face of a cube). ">
<polygon fill="white" stroke="black" points="168,-0 168,-30 278,-30 278,-0 168,-0"/>
<text text-anchor="start" x="176" y="-18" font-family="Helvetica,sans-Serif" font-size="10.00">fwTest::generator::</text>
<text text-anchor="middle" x="223" y="-7" font-family="Helvetica,sans-Serif" font-size="10.00">Mesh::addQuadMesh</text>
</a>
</g>
</g>
<!-- Node1&#45;&gt;Node2 -->
<g id="edge1" class="edge"><title>Node1&#45;&gt;Node2</title>
<path fill="none" stroke="midnightblue" d="M131.836,-15C140.329,-15 149.03,-15 157.517,-15"/>
<polygon fill="midnightblue" stroke="midnightblue" points="157.734,-18.5001 167.734,-15 157.734,-11.5001 157.734,-18.5001"/>
</g>
</g>
</svg>
