<?xml version="1.0" encoding="UTF-8" standalone="no"?>
<!DOCTYPE svg PUBLIC "-//W3C//DTD SVG 1.1//EN"
 "http://www.w3.org/Graphics/SVG/1.1/DTD/svg11.dtd">
<!-- Generated by graphviz version 2.36.0 (20140111.2315)
 -->
<!-- Title: fwRenderQt::IAdaptor Pages: 1 -->
<svg width="902pt" height="613pt"
 viewBox="0.00 0.00 902.00 613.00" xmlns="http://www.w3.org/2000/svg" xmlns:xlink="http://www.w3.org/1999/xlink">
<g id="graph0" class="graph" transform="scale(1 1) rotate(0) translate(4 609)">
<title>fwRenderQt::IAdaptor</title>
<polygon fill="white" stroke="none" points="-4,4 -4,-609 898,-609 898,4 -4,4"/>
<!-- Node1 -->
<g id="node1" class="node"><title>Node1</title>
<polygon fill="#bfbfbf" stroke="black" points="594,-303.5 594,-322.5 706,-322.5 706,-303.5 594,-303.5"/>
<text text-anchor="middle" x="650" y="-310.5" font-family="Helvetica,sans-Serif" font-size="10.00">fwRenderQt::IAdaptor</text>
</g>
<!-- Node10 -->
<g id="node10" class="node"><title>Node10</title>
<g id="a_node10"><a xlink:href="classscene2D_1_1adaptor_1_1SAxis.html" target="_top" xlink:title="Render an axis on the scene2d. ">
<polygon fill="white" stroke="black" points="755,-585.5 755,-604.5 881,-604.5 881,-585.5 755,-585.5"/>
<text text-anchor="middle" x="818" y="-592.5" font-family="Helvetica,sans-Serif" font-size="10.00">scene2D::adaptor::SAxis</text>
</a>
</g>
</g>
<!-- Node1&#45;&gt;Node10 -->
<g id="edge9" class="edge"><title>Node1&#45;&gt;Node10</title>
<path fill="none" stroke="midnightblue" d="M651.824,-332.667C654.956,-381.301 669.982,-508.103 742,-575 746.641,-579.311 752.105,-582.712 757.935,-585.394"/>
<polygon fill="midnightblue" stroke="midnightblue" points="655.312,-332.345 651.277,-322.549 648.322,-332.723 655.312,-332.345"/>
</g>
<!-- Node11 -->
<g id="node11" class="node"><title>Node11</title>
<g id="a_node11"><a xlink:href="classscene2D_1_1adaptor_1_1SCurvedHistogram.html" target="_top" xlink:title="IAdaptor implementation for histogram data. ">
<polygon fill="white" stroke="black" points="749,-536 749,-566 887,-566 887,-536 749,-536"/>
<text text-anchor="start" x="757" y="-554" font-family="Helvetica,sans-Serif" font-size="10.00">scene2D::adaptor::SCurved</text>
<text text-anchor="middle" x="818" y="-543" font-family="Helvetica,sans-Serif" font-size="10.00">Histogram</text>
</a>
</g>
</g>
<!-- Node1&#45;&gt;Node11 -->
<g id="edge10" class="edge"><title>Node1&#45;&gt;Node11</title>
<path fill="none" stroke="midnightblue" d="M653.894,-332.628C661.06,-374.277 683.48,-472.093 742,-526 746.24,-529.906 751.107,-533.203 756.282,-535.986"/>
<polygon fill="midnightblue" stroke="midnightblue" points="657.335,-331.983 652.292,-322.665 650.424,-333.094 657.335,-331.983"/>
</g>
<!-- Node12 -->
<g id="node12" class="node"><title>Node12</title>
<g id="a_node12"><a xlink:href="classscene2D_1_1adaptor_1_1SGrid2D.html" target="_top" xlink:title="Render grid on the scene2d. ">
<polygon fill="white" stroke="black" points="749.5,-497.5 749.5,-516.5 886.5,-516.5 886.5,-497.5 749.5,-497.5"/>
<text text-anchor="middle" x="818" y="-504.5" font-family="Helvetica,sans-Serif" font-size="10.00">scene2D::adaptor::SGrid2D</text>
</a>
</g>
</g>
<!-- Node1&#45;&gt;Node12 -->
<g id="edge11" class="edge"><title>Node1&#45;&gt;Node12</title>
<path fill="none" stroke="midnightblue" d="M655.535,-332.62C665.006,-369.054 690.419,-447.16 742,-488 746.844,-491.835 752.369,-494.906 758.174,-497.363"/>
<polygon fill="midnightblue" stroke="midnightblue" points="658.89,-331.608 653.096,-322.738 652.094,-333.286 658.89,-331.608"/>
</g>
<!-- Node13 -->
<g id="node13" class="node"><title>Node13</title>
<g id="a_node13"><a xlink:href="classscene2D_1_1adaptor_1_1SHistogram.html" target="_top" xlink:title="IAdaptor implementation for histogram data. ">
<polygon fill="white" stroke="black" points="742,-459.5 742,-478.5 894,-478.5 894,-459.5 742,-459.5"/>
<text text-anchor="middle" x="818" y="-466.5" font-family="Helvetica,sans-Serif" font-size="10.00">scene2D::adaptor::SHistogram</text>
</a>
</g>
</g>
<!-- Node1&#45;&gt;Node13 -->
<g id="edge12" class="edge"><title>Node1&#45;&gt;Node13</title>
<path fill="none" stroke="midnightblue" d="M658.566,-332.263C671.237,-361.966 699.605,-418.679 742,-449 748.138,-453.39 755.18,-456.816 762.436,-459.491"/>
<polygon fill="midnightblue" stroke="midnightblue" points="661.65,-330.56 654.611,-322.641 655.175,-333.221 661.65,-330.56"/>
</g>
<!-- Node14 -->
<g id="node14" class="node"><title>Node14</title>
<g id="a_node14"><a xlink:href="classscene2D_1_1adaptor_1_1SHistogramCursor.html" target="_top" xlink:title="IAdaptor implementation to show a cursor on histogram pointed by mouse. ">
<polygon fill="white" stroke="black" points="742,-410 742,-440 894,-440 894,-410 742,-410"/>
<text text-anchor="start" x="750" y="-428" font-family="Helvetica,sans-Serif" font-size="10.00">scene2D::adaptor::SHistogram</text>
<text text-anchor="middle" x="818" y="-417" font-family="Helvetica,sans-Serif" font-size="10.00">Cursor</text>
</a>
</g>
</g>
<!-- Node1&#45;&gt;Node14 -->
<g id="edge13" class="edge"><title>Node1&#45;&gt;Node14</title>
<path fill="none" stroke="midnightblue" d="M664.938,-330.316C681.449,-349.784 710.69,-381.132 742,-400 748.23,-403.755 755.096,-407.026 762.066,-409.854"/>
<polygon fill="midnightblue" stroke="midnightblue" points="667.559,-327.993 658.479,-322.532 662.172,-332.463 667.559,-327.993"/>
</g>
<!-- Node15 -->
<g id="node15" class="node"><title>Node15</title>
<g id="a_node15"><a xlink:href="classscene2D_1_1adaptor_1_1SHistogramValue.html" target="_top" xlink:title="IAdaptor implementation to show the histogram values clicked by mouse. ">
<polygon fill="white" stroke="black" points="742,-361 742,-391 894,-391 894,-361 742,-361"/>
<text text-anchor="start" x="750" y="-379" font-family="Helvetica,sans-Serif" font-size="10.00">scene2D::adaptor::SHistogram</text>
<text text-anchor="middle" x="818" y="-368" font-family="Helvetica,sans-Serif" font-size="10.00">Value</text>
</a>
</g>
</g>
<!-- Node1&#45;&gt;Node15 -->
<g id="edge14" class="edge"><title>Node1&#45;&gt;Node15</title>
<path fill="none" stroke="midnightblue" d="M681.706,-326.487C699.241,-334.021 721.71,-343.394 742,-351 750.996,-354.372 760.68,-357.77 770.003,-360.926"/>
<polygon fill="midnightblue" stroke="midnightblue" points="683.084,-323.27 672.517,-322.513 680.306,-329.695 683.084,-323.27"/>
</g>
<!-- Node16 -->
<g id="node16" class="node"><title>Node16</title>
<g id="a_node16"><a xlink:href="classscene2D_1_1adaptor_1_1SLine.html" target="_top" xlink:title="Line adaptor. Draw a line on the scene2D. ">
<polygon fill="white" stroke="black" points="755.5,-322.5 755.5,-341.5 880.5,-341.5 880.5,-322.5 755.5,-322.5"/>
<text text-anchor="middle" x="818" y="-329.5" font-family="Helvetica,sans-Serif" font-size="10.00">scene2D::adaptor::SLine</text>
</a>
</g>
</g>
<!-- Node1&#45;&gt;Node16 -->
<g id="edge15" class="edge"><title>Node1&#45;&gt;Node16</title>
<path fill="none" stroke="midnightblue" d="M716.419,-320.488C729.255,-321.957 742.679,-323.493 755.385,-324.948"/>
<polygon fill="midnightblue" stroke="midnightblue" points="716.609,-316.987 706.276,-319.327 715.813,-323.941 716.609,-316.987"/>
</g>
<!-- Node17 -->
<g id="node17" class="node"><title>Node17</title>
<g id="a_node17"><a xlink:href="classscene2D_1_1adaptor_1_1SNegato.html" target="_top" xlink:title="IAdaptor implementation to display one slice of an image. ">
<polygon fill="white" stroke="black" points="749,-284.5 749,-303.5 887,-303.5 887,-284.5 749,-284.5"/>
<text text-anchor="middle" x="818" y="-291.5" font-family="Helvetica,sans-Serif" font-size="10.00">scene2D::adaptor::SNegato</text>
</a>
</g>
</g>
<!-- Node1&#45;&gt;Node17 -->
<g id="edge16" class="edge"><title>Node1&#45;&gt;Node17</title>
<path fill="none" stroke="midnightblue" d="M716.387,-305.516C727.09,-304.291 738.202,-303.019 748.967,-301.787"/>
<polygon fill="midnightblue" stroke="midnightblue" points="715.813,-302.059 706.276,-306.673 716.609,-309.013 715.813,-302.059"/>
</g>
<!-- Node18 -->
<g id="node18" class="node"><title>Node18</title>
<g id="a_node18"><a xlink:href="classscene2D_1_1adaptor_1_1SScaleValues.html" target="_top" xlink:title="SScaleValues adaptor. Display values and units on the axis. ">
<polygon fill="white" stroke="black" points="752.5,-235 752.5,-265 883.5,-265 883.5,-235 752.5,-235"/>
<text text-anchor="start" x="760.5" y="-253" font-family="Helvetica,sans-Serif" font-size="10.00">scene2D::adaptor::SScale</text>
<text text-anchor="middle" x="818" y="-242" font-family="Helvetica,sans-Serif" font-size="10.00">Values</text>
</a>
</g>
</g>
<!-- Node1&#45;&gt;Node18 -->
<g id="edge17" class="edge"><title>Node1&#45;&gt;Node18</title>
<path fill="none" stroke="midnightblue" d="M681.706,-299.513C699.241,-291.979 721.71,-282.606 742,-275 750.996,-271.628 760.68,-268.23 770.003,-265.074"/>
<polygon fill="midnightblue" stroke="midnightblue" points="680.306,-296.305 672.517,-303.487 683.084,-302.73 680.306,-296.305"/>
</g>
<!-- Node19 -->
<g id="node19" class="node"><title>Node19</title>
<g id="a_node19"><a xlink:href="classscene2D_1_1adaptor_1_1SSquare.html" target="_top" xlink:title="Create a square on the scene2D. ">
<polygon fill="white" stroke="black" points="749.5,-196.5 749.5,-215.5 886.5,-215.5 886.5,-196.5 749.5,-196.5"/>
<text text-anchor="middle" x="818" y="-203.5" font-family="Helvetica,sans-Serif" font-size="10.00">scene2D::adaptor::SSquare</text>
</a>
</g>
</g>
<!-- Node1&#45;&gt;Node19 -->
<g id="edge18" class="edge"><title>Node1&#45;&gt;Node19</title>
<path fill="none" stroke="midnightblue" d="M664.398,-295.368C680.594,-275.301 709.724,-242.985 742,-225 748.923,-221.142 756.638,-218.054 764.413,-215.584"/>
<polygon fill="midnightblue" stroke="midnightblue" points="661.522,-293.363 658.089,-303.386 667.023,-297.691 661.522,-293.363"/>
</g>
<!-- Node20 -->
<g id="node20" class="node"><title>Node20</title>
<g id="a_node20"><a xlink:href="classscene2D_1_1adaptor_1_1STransferFunction.html" target="_top" xlink:title="IAdaptor implementation to display a transfer function. ">
<polygon fill="white" stroke="black" points="746.5,-147 746.5,-177 889.5,-177 889.5,-147 746.5,-147"/>
<text text-anchor="start" x="754.5" y="-165" font-family="Helvetica,sans-Serif" font-size="10.00">scene2D::adaptor::STransfer</text>
<text text-anchor="middle" x="818" y="-154" font-family="Helvetica,sans-Serif" font-size="10.00">Function</text>
</a>
</g>
</g>
<!-- Node1&#45;&gt;Node20 -->
<g id="edge19" class="edge"><title>Node1&#45;&gt;Node20</title>
<path fill="none" stroke="midnightblue" d="M659.948,-293.883C673.767,-266.367 702.854,-215.754 742,-187 747.199,-183.181 753.017,-179.922 759.051,-177.145"/>
<polygon fill="midnightblue" stroke="midnightblue" points="656.64,-292.681 655.41,-303.204 662.934,-295.745 656.64,-292.681"/>
</g>
<!-- Node21 -->
<g id="node21" class="node"><title>Node21</title>
<g id="a_node21"><a xlink:href="classscene2D_1_1adaptor_1_1SViewportInteractor.html" target="_top" xlink:title="Adaptor implementation that manages the camera on the view. ">
<polygon fill="white" stroke="black" points="745.5,-98 745.5,-128 890.5,-128 890.5,-98 745.5,-98"/>
<text text-anchor="start" x="753.5" y="-116" font-family="Helvetica,sans-Serif" font-size="10.00">scene2D::adaptor::SViewport</text>
<text text-anchor="middle" x="818" y="-105" font-family="Helvetica,sans-Serif" font-size="10.00">Interactor</text>
</a>
</g>
</g>
<!-- Node1&#45;&gt;Node21 -->
<g id="edge20" class="edge"><title>Node1&#45;&gt;Node21</title>
<path fill="none" stroke="midnightblue" d="M655.741,-293.564C665.557,-257.416 691.524,-179.658 742,-137 746.072,-133.558 750.644,-130.608 755.47,-128.08"/>
<polygon fill="midnightblue" stroke="midnightblue" points="652.323,-292.803 653.205,-303.361 659.1,-294.558 652.323,-292.803"/>
</g>
<!-- Node22 -->
<g id="node22" class="node"><title>Node22</title>
<g id="a_node22"><a xlink:href="classscene2D_1_1adaptor_1_1SViewportRangeSelector.html" target="_top" xlink:title="The viewport range selector adaptor allows to select a delimited range of a viewport. It uses a graphical delimiter (called shutter) that can be moved from both left to right and right to left directions (in those cases, shutter&#39;s width is changing). ">
<polygon fill="white" stroke="black" points="745.5,-49 745.5,-79 890.5,-79 890.5,-49 745.5,-49"/>
<text text-anchor="start" x="753.5" y="-67" font-family="Helvetica,sans-Serif" font-size="10.00">scene2D::adaptor::SViewport</text>
<text text-anchor="middle" x="818" y="-56" font-family="Helvetica,sans-Serif" font-size="10.00">RangeSelector</text>
</a>
</g>
</g>
<!-- Node1&#45;&gt;Node22 -->
<g id="edge21" class="edge"><title>Node1&#45;&gt;Node22</title>
<path fill="none" stroke="midnightblue" d="M653.365,-293.118C659.6,-249.568 680.476,-145.096 742,-88 745.708,-84.5591 749.91,-81.6115 754.388,-79.0865"/>
<polygon fill="midnightblue" stroke="midnightblue" points="649.866,-292.884 652.026,-303.256 656.806,-293.8 649.866,-292.884"/>
</g>
<!-- Node23 -->
<g id="node23" class="node"><title>Node23</title>
<g id="a_node23"><a xlink:href="classscene2D_1_1adaptor_1_1SViewportUpdater.html" target="_top" xlink:title="Adaptor implementation that manages the camera on the view (by updating the viewport object)...">
<polygon fill="white" stroke="black" points="745.5,-0 745.5,-30 890.5,-30 890.5,-0 745.5,-0"/>
<text text-anchor="start" x="753.5" y="-18" font-family="Helvetica,sans-Serif" font-size="10.00">scene2D::adaptor::SViewport</text>
<text text-anchor="middle" x="818" y="-7" font-family="Helvetica,sans-Serif" font-size="10.00">Updater</text>
</a>
</g>
</g>
<!-- Node1&#45;&gt;Node23 -->
<g id="edge22" class="edge"><title>Node1&#45;&gt;Node23</title>
<path fill="none" stroke="midnightblue" d="M651.696,-293.334C654.534,-243.531 668.934,-111.27 742,-39 745.499,-35.539 749.497,-32.5768 753.785,-30.0415"/>
<polygon fill="midnightblue" stroke="midnightblue" points="648.196,-293.25 651.221,-303.404 655.189,-293.58 648.196,-293.25"/>
</g>
<!-- Node2 -->
<g id="node2" class="node"><title>Node2</title>
<g id="a_node2"><a xlink:href="classfwServices_1_1IService.html" target="_top" xlink:title="Base class for all services. ">
<polygon fill="white" stroke="black" points="450.5,-303.5 450.5,-322.5 557.5,-322.5 557.5,-303.5 450.5,-303.5"/>
<text text-anchor="middle" x="504" y="-310.5" font-family="Helvetica,sans-Serif" font-size="10.00">fwServices::IService</text>
</a>
</g>
</g>
<!-- Node2&#45;&gt;Node1 -->
<g id="edge1" class="edge"><title>Node2&#45;&gt;Node1</title>
<path fill="none" stroke="midnightblue" d="M567.834,-313C576.475,-313 585.295,-313 593.786,-313"/>
<polygon fill="midnightblue" stroke="midnightblue" points="567.803,-309.5 557.803,-313 567.803,-316.5 567.803,-309.5"/>
</g>
<!-- Node3 -->
<g id="node3" class="node"><title>Node3</title>
<g id="a_node3"><a xlink:href="classfwTools_1_1Object.html" target="_top" xlink:title="Define Base class for FW4SPL objects and services. ">
<polygon fill="white" stroke="black" points="319,-341.5 319,-360.5 405,-360.5 405,-341.5 319,-341.5"/>
<text text-anchor="middle" x="362" y="-348.5" font-family="Helvetica,sans-Serif" font-size="10.00">fwTools::Object</text>
</a>
</g>
</g>
<!-- Node3&#45;&gt;Node2 -->
<g id="edge2" class="edge"><title>Node3&#45;&gt;Node2</title>
<path fill="none" stroke="midnightblue" d="M408.118,-338.754C427.415,-333.516 449.612,-327.491 467.683,-322.586"/>
<polygon fill="midnightblue" stroke="midnightblue" points="407.062,-335.414 398.328,-341.411 408.896,-342.169 407.062,-335.414"/>
</g>
<!-- Node4 -->
<g id="node4" class="node"><title>Node4</title>
<g id="a_node4"><a xlink:href="classfwCore_1_1BaseObject.html" target="_top" xlink:title="Base class for all FW4SPL&#39;s classes. ">
<polygon fill="white" stroke="black" points="168.5,-379.5 168.5,-398.5 273.5,-398.5 273.5,-379.5 168.5,-379.5"/>
<text text-anchor="middle" x="221" y="-386.5" font-family="Helvetica,sans-Serif" font-size="10.00">fwCore::BaseObject</text>
</a>
</g>
</g>
<!-- Node4&#45;&gt;Node3 -->
<g id="edge3" class="edge"><title>Node4&#45;&gt;Node3</title>
<path fill="none" stroke="midnightblue" d="M266.795,-376.754C285.955,-371.516 307.994,-365.491 325.936,-360.586"/>
<polygon fill="midnightblue" stroke="midnightblue" points="265.799,-373.398 257.076,-379.411 267.645,-380.15 265.799,-373.398"/>
</g>
<!-- Node5 -->
<g id="node5" class="node"><title>Node5</title>
<polygon fill="white" stroke="#bfbfbf" points="0.5,-374 0.5,-404 131.5,-404 131.5,-374 0.5,-374"/>
<text text-anchor="start" x="8.5" y="-392" font-family="Helvetica,sans-Serif" font-size="10.00">std::enable_shared</text>
<text text-anchor="middle" x="66" y="-381" font-family="Helvetica,sans-Serif" font-size="10.00">_from_this&lt; BaseObject &gt;</text>
</g>
<!-- Node5&#45;&gt;Node4 -->
<g id="edge4" class="edge"><title>Node5&#45;&gt;Node4</title>
<path fill="none" stroke="midnightblue" d="M141.972,-389C150.939,-389 159.934,-389 168.464,-389"/>
<polygon fill="midnightblue" stroke="midnightblue" points="141.886,-385.5 131.886,-389 141.886,-392.5 141.886,-385.5"/>
</g>
<!-- Node6 -->
<g id="node6" class="node"><title>Node6</title>
<polygon fill="white" stroke="#bfbfbf" points="185.5,-341.5 185.5,-360.5 256.5,-360.5 256.5,-341.5 185.5,-341.5"/>
<text text-anchor="middle" x="221" y="-348.5" font-family="Helvetica,sans-Serif" font-size="10.00">noncopyable</text>
</g>
<!-- Node6&#45;&gt;Node3 -->
<g id="edge5" class="edge"><title>Node6&#45;&gt;Node3</title>
<path fill="none" stroke="midnightblue" d="M266.784,-351C283.472,-351 302.347,-351 318.796,-351"/>
<polygon fill="midnightblue" stroke="midnightblue" points="266.717,-347.5 256.717,-351 266.717,-354.5 266.717,-347.5"/>
</g>
<!-- Node7 -->
<g id="node7" class="node"><title>Node7</title>
<g id="a_node7"><a xlink:href="classfwTools_1_1fwID.html" target="_top" xlink:title="Defines ID for fwTools::Object. It is used to associate ID with object. ">
<polygon fill="white" stroke="black" points="182,-303.5 182,-322.5 260,-322.5 260,-303.5 182,-303.5"/>
<text text-anchor="middle" x="221" y="-310.5" font-family="Helvetica,sans-Serif" font-size="10.00">fwTools::fwID</text>
</a>
</g>
</g>
<!-- Node7&#45;&gt;Node3 -->
<g id="edge6" class="edge"><title>Node7&#45;&gt;Node3</title>
<path fill="none" stroke="darkgreen" d="M266.795,-325.246C285.955,-330.484 307.994,-336.509 325.936,-341.414"/>
<polygon fill="darkgreen" stroke="darkgreen" points="267.645,-321.85 257.076,-322.589 265.799,-328.602 267.645,-321.85"/>
</g>
<!-- Node8 -->
<g id="node8" class="node"><title>Node8</title>
<g id="a_node8"><a xlink:href="classfwCom_1_1HasSlots.html" target="_top" xlink:title="This class proposes a mapping between a SlotKeyType and a SlotBase. ">
<polygon fill="white" stroke="black" points="314.5,-303.5 314.5,-322.5 409.5,-322.5 409.5,-303.5 314.5,-303.5"/>
<text text-anchor="middle" x="362" y="-310.5" font-family="Helvetica,sans-Serif" font-size="10.00">fwCom::HasSlots</text>
</a>
</g>
</g>
<!-- Node8&#45;&gt;Node2 -->
<g id="edge7" class="edge"><title>Node8&#45;&gt;Node2</title>
<path fill="none" stroke="midnightblue" d="M419.915,-313C429.961,-313 440.379,-313 450.303,-313"/>
<polygon fill="midnightblue" stroke="midnightblue" points="419.618,-309.5 409.618,-313 419.618,-316.5 419.618,-309.5"/>
</g>
<!-- Node9 -->
<g id="node9" class="node"><title>Node9</title>
<g id="a_node9"><a xlink:href="classfwCom_1_1HasSignals.html" target="_top" xlink:title="This class proposes a mapping between a SignalKeyType and a SignalBase. ">
<polygon fill="white" stroke="black" points="310,-265.5 310,-284.5 414,-284.5 414,-265.5 310,-265.5"/>
<text text-anchor="middle" x="362" y="-272.5" font-family="Helvetica,sans-Serif" font-size="10.00">fwCom::HasSignals</text>
</a>
</g>
</g>
<!-- Node9&#45;&gt;Node2 -->
<g id="edge8" class="edge"><title>Node9&#45;&gt;Node2</title>
<path fill="none" stroke="midnightblue" d="M408.118,-287.246C427.415,-292.484 449.612,-298.509 467.683,-303.414"/>
<polygon fill="midnightblue" stroke="midnightblue" points="408.896,-283.831 398.328,-284.589 407.062,-290.586 408.896,-283.831"/>
</g>
</g>
</svg>
