<?xml version="1.0" encoding="UTF-8" standalone="no"?>
<!DOCTYPE svg PUBLIC "-//W3C//DTD SVG 1.1//EN"
 "http://www.w3.org/Graphics/SVG/1.1/DTD/svg11.dtd">
<!-- Generated by graphviz version 2.26.3 (20100126.1600)
 -->
<!-- Title: scene2D::adaptor::TransferFunction::processInteraction Pages: 1 -->
<svg width="936pt" height="356pt"
 viewBox="0.00 0.00 936.00 356.00" xmlns="http://www.w3.org/2000/svg" xmlns:xlink="http://www.w3.org/1999/xlink">
<g id="graph1" class="graph" transform="scale(1 1) rotate(0) translate(4 352)">
<title>scene2D::adaptor::TransferFunction::processInteraction</title>
<polygon fill="white" stroke="white" points="-4,5 -4,-352 933,-352 933,5 -4,5"/>
<!-- Node1 -->
<g id="node1" class="node"><title>Node1</title>
<polygon fill="#bfbfbf" stroke="black" points="0,-104 0,-138 140,-138 140,-104 0,-104"/>
<text text-anchor="start" x="8" y="-125" font-family="Helvetica,sans-Serif" font-size="10.00">scene2D::adaptor::Transfer</text>
<text text-anchor="middle" x="70" y="-112" font-family="Helvetica,sans-Serif" font-size="10.00">Function::processInteraction</text>
</g>
<!-- Node2 -->
<g id="node3" class="node"><title>Node2</title>
<a xlink:href="classscene2D_1_1adaptor_1_1TransferFunction.html#a30a485999be455171cd8318f306d7fc0" target="_top" xlink:title="scene2D::adaptor::Transfer\lFunction::doUpdate">
<polygon fill="white" stroke="black" points="193,-208 193,-242 329,-242 329,-208 193,-208"/>
<text text-anchor="start" x="201" y="-229" font-family="Helvetica,sans-Serif" font-size="10.00">scene2D::adaptor::Transfer</text>
<text text-anchor="middle" x="261" y="-216" font-family="Helvetica,sans-Serif" font-size="10.00">Function::doUpdate</text>
</a>
</g>
<!-- Node1&#45;&gt;Node2 -->
<g id="edge2" class="edge"><title>Node1&#45;&gt;Node2</title>
<path fill="none" stroke="midnightblue" d="M89.0018,-138.105C109.264,-155.561 142.926,-182.382 176,-199 179.723,-200.871 183.606,-202.636 187.574,-204.297"/>
<polygon fill="midnightblue" stroke="midnightblue" points="186.365,-207.583 196.952,-207.986 188.927,-201.068 186.365,-207.583"/>
</g>
<!-- Node13 -->
<g id="node29" class="node"><title>Node13</title>
<a xlink:href="classscene2D_1_1adaptor_1_1IAdaptor.html#abfd77d495d848dfd3c5b15c04d4a1aa7" target="_top" xlink:title="Get the render that manage the IAdaptor. ">
<polygon fill="white" stroke="black" points="192.5,-156 192.5,-190 329.5,-190 329.5,-156 192.5,-156"/>
<text text-anchor="start" x="200.5" y="-177" font-family="Helvetica,sans-Serif" font-size="10.00">scene2D::adaptor::IAdaptor</text>
<text text-anchor="middle" x="261" y="-164" font-family="Helvetica,sans-Serif" font-size="10.00">::getScene2DRender</text>
</a>
</g>
<!-- Node1&#45;&gt;Node13 -->
<g id="edge32" class="edge"><title>Node1&#45;&gt;Node13</title>
<path fill="none" stroke="midnightblue" d="M132.541,-138.027C150.432,-142.898 170.082,-148.247 188.515,-153.266"/>
<polygon fill="midnightblue" stroke="midnightblue" points="187.751,-156.685 198.319,-155.935 189.59,-149.931 187.751,-156.685"/>
</g>
<!-- Node14 -->
<g id="node31" class="node"><title>Node14</title>
<a xlink:href="classfwComEd_1_1helper_1_1MedicalImageAdaptor.html#a80f33a841d4848c99f4becebed7c4641" target="_top" xlink:title="Get the current transfer function. ">
<polygon fill="white" stroke="black" points="176,-104 176,-138 346,-138 346,-104 176,-104"/>
<text text-anchor="start" x="184" y="-125" font-family="Helvetica,sans-Serif" font-size="10.00">fwComEd::helper::Medical</text>
<text text-anchor="middle" x="261" y="-112" font-family="Helvetica,sans-Serif" font-size="10.00">ImageAdaptor::getTransferFunction</text>
</a>
</g>
<!-- Node1&#45;&gt;Node14 -->
<g id="edge34" class="edge"><title>Node1&#45;&gt;Node14</title>
<path fill="none" stroke="midnightblue" d="M140.037,-121C148.378,-121 156.998,-121 165.618,-121"/>
<polygon fill="midnightblue" stroke="midnightblue" points="165.719,-124.5 175.719,-121 165.719,-117.5 165.719,-124.5"/>
</g>
<!-- Node15 -->
<g id="node33" class="node"><title>Node15</title>
<a xlink:href="classscene2D_1_1adaptor_1_1IAdaptor.html#a533b0ea25f298de2b3a907651488bf20" target="_top" xlink:title="Get a pair of doubles (a point), two axis, and convert the pair of doubles values from adaptor...">
<polygon fill="white" stroke="black" points="192.5,-52 192.5,-86 329.5,-86 329.5,-52 192.5,-52"/>
<text text-anchor="start" x="200.5" y="-73" font-family="Helvetica,sans-Serif" font-size="10.00">scene2D::adaptor::IAdaptor</text>
<text text-anchor="middle" x="261" y="-60" font-family="Helvetica,sans-Serif" font-size="10.00">::mapAdaptorToScene</text>
</a>
</g>
<!-- Node1&#45;&gt;Node15 -->
<g id="edge36" class="edge"><title>Node1&#45;&gt;Node15</title>
<path fill="none" stroke="midnightblue" d="M132.541,-103.973C150.432,-99.1024 170.082,-93.7526 188.515,-88.7341"/>
<polygon fill="midnightblue" stroke="midnightblue" points="189.59,-92.0691 198.319,-86.065 187.751,-85.3149 189.59,-92.0691"/>
</g>
<!-- Node16 -->
<g id="node35" class="node"><title>Node16</title>
<a xlink:href="classscene2D_1_1adaptor_1_1IAdaptor.html#a7683c26e836017e98a8e51874d91c672" target="_top" xlink:title="Get a pair of doubles (a point), two axis, and convert the pair of doubles values from scene...">
<polygon fill="white" stroke="black" points="192.5,-0 192.5,-34 329.5,-34 329.5,-0 192.5,-0"/>
<text text-anchor="start" x="200.5" y="-21" font-family="Helvetica,sans-Serif" font-size="10.00">scene2D::adaptor::IAdaptor</text>
<text text-anchor="middle" x="261" y="-8" font-family="Helvetica,sans-Serif" font-size="10.00">::mapSceneToAdaptor</text>
</a>
</g>
<!-- Node1&#45;&gt;Node16 -->
<g id="edge38" class="edge"><title>Node1&#45;&gt;Node16</title>
<path fill="none" stroke="midnightblue" d="M89.0018,-103.895C109.264,-86.4393 142.926,-59.6182 176,-43 179.723,-41.1293 183.606,-39.364 187.574,-37.7027"/>
<polygon fill="midnightblue" stroke="midnightblue" points="188.927,-40.9316 196.952,-34.0142 186.365,-34.4173 188.927,-40.9316"/>
</g>
<!-- Node3 -->
<g id="node5" class="node"><title>Node3</title>
<a xlink:href="classfwComEd_1_1helper_1_1MedicalImageAdaptor.html#a3d27d250eb47bec918554189318ed543" target="_top" xlink:title="Update the image information (slice index, min/max,...) ">
<polygon fill="white" stroke="black" points="382.5,-237 382.5,-271 543.5,-271 543.5,-237 382.5,-237"/>
<text text-anchor="start" x="390.5" y="-258" font-family="Helvetica,sans-Serif" font-size="10.00">fwComEd::helper::Medical</text>
<text text-anchor="middle" x="463" y="-245" font-family="Helvetica,sans-Serif" font-size="10.00">ImageAdaptor::updateImageInfos</text>
</a>
</g>
<!-- Node2&#45;&gt;Node3 -->
<g id="edge4" class="edge"><title>Node2&#45;&gt;Node3</title>
<path fill="none" stroke="midnightblue" d="M329.106,-234.778C342.972,-236.768 357.767,-238.892 372.276,-240.975"/>
<polygon fill="midnightblue" stroke="midnightblue" points="371.864,-244.452 382.26,-242.409 372.859,-237.523 371.864,-244.452"/>
</g>
<!-- Node4 -->
<g id="node7" class="node"><title>Node4</title>
<a xlink:href="classfwComEd_1_1helper_1_1MedicalImageAdaptor.html#a82c1509bc6a0113a631c234702c67a54" target="_top" xlink:title="Update the transfer function information. ">
<polygon fill="white" stroke="black" points="388.5,-171.5 388.5,-218.5 537.5,-218.5 537.5,-171.5 388.5,-171.5"/>
<text text-anchor="start" x="396.5" y="-205.5" font-family="Helvetica,sans-Serif" font-size="10.00">fwComEd::helper::Medical</text>
<text text-anchor="start" x="396.5" y="-192.5" font-family="Helvetica,sans-Serif" font-size="10.00">ImageAdaptor::updateTransfer</text>
<text text-anchor="middle" x="463" y="-179.5" font-family="Helvetica,sans-Serif" font-size="10.00">Function</text>
</a>
</g>
<!-- Node2&#45;&gt;Node4 -->
<g id="edge6" class="edge"><title>Node2&#45;&gt;Node4</title>
<path fill="none" stroke="midnightblue" d="M329.106,-214.885C344.852,-212.547 361.794,-210.031 378.156,-207.601"/>
<polygon fill="midnightblue" stroke="midnightblue" points="378.875,-211.032 388.252,-206.101 377.847,-204.108 378.875,-211.032"/>
</g>
<!-- Node5 -->
<g id="node9" class="node"><title>Node5</title>
<a xlink:href="classfwTools_1_1fwID.html#a49c219235064892bb906498913fe8175" target="_top" xlink:title="Retrieve the object attached to the given id. Return a null sptr if no correspondence exist...">
<polygon fill="white" stroke="black" points="589,-284.5 589,-305.5 715,-305.5 715,-284.5 589,-284.5"/>
<text text-anchor="middle" x="652" y="-292.5" font-family="Helvetica,sans-Serif" font-size="10.00">fwTools::fwID::getObject</text>
</a>
</g>
<!-- Node4&#45;&gt;Node5 -->
<g id="edge8" class="edge"><title>Node4&#45;&gt;Node5</title>
<path fill="none" stroke="midnightblue" d="M528.992,-218.695C534.243,-221.527 539.319,-224.626 544,-228 563.945,-242.375 559.684,-256.155 580,-270 586.089,-274.15 592.936,-277.677 599.923,-280.656"/>
<polygon fill="midnightblue" stroke="midnightblue" points="598.891,-284.011 609.48,-284.386 601.437,-277.49 598.891,-284.011"/>
</g>
<!-- Node6 -->
<g id="node11" class="node"><title>Node6</title>
<a xlink:href="classfwComEd_1_1fieldHelper_1_1MedicalImageHelpers.html#a5a9e6da3b6d58f66360a937620f547b1" target="_top" xlink:title="Check if the image is valid. ">
<polygon fill="white" stroke="black" points="785.5,-300.5 785.5,-347.5 902.5,-347.5 902.5,-300.5 785.5,-300.5"/>
<text text-anchor="start" x="793.5" y="-334.5" font-family="Helvetica,sans-Serif" font-size="10.00">fwComEd::fieldHelper</text>
<text text-anchor="start" x="793.5" y="-321.5" font-family="Helvetica,sans-Serif" font-size="10.00">::MedicalImageHelpers</text>
<text text-anchor="middle" x="844" y="-308.5" font-family="Helvetica,sans-Serif" font-size="10.00">::checkImageValidity</text>
</a>
</g>
<!-- Node4&#45;&gt;Node6 -->
<g id="edge10" class="edge"><title>Node4&#45;&gt;Node6</title>
<path fill="none" stroke="midnightblue" d="M519.908,-218.577C538.843,-225.966 560.162,-233.802 580,-240 642.867,-259.64 661.655,-253.762 724,-275 740.574,-280.646 743.848,-284.242 760,-291 765.059,-293.117 770.305,-295.272 775.592,-297.414"/>
<polygon fill="midnightblue" stroke="midnightblue" points="774.537,-300.763 785.121,-301.248 777.15,-294.269 774.537,-300.763"/>
</g>
<!-- Node7 -->
<g id="node13" class="node"><title>Node7</title>
<a xlink:href="classfwComEd_1_1fieldHelper_1_1MedicalImageHelpers.html#ae4e6699751faeb6ca802855220b384a2" target="_top" xlink:title="Return minimum and maximum values contained in image. If image min or max value is out of MINMAXTYPE ...">
<polygon fill="white" stroke="black" points="785.5,-234.5 785.5,-281.5 902.5,-281.5 902.5,-234.5 785.5,-234.5"/>
<text text-anchor="start" x="793.5" y="-268.5" font-family="Helvetica,sans-Serif" font-size="10.00">fwComEd::fieldHelper</text>
<text text-anchor="start" x="793.5" y="-255.5" font-family="Helvetica,sans-Serif" font-size="10.00">::MedicalImageHelpers</text>
<text text-anchor="middle" x="844" y="-242.5" font-family="Helvetica,sans-Serif" font-size="10.00">::getMinMax</text>
</a>
</g>
<!-- Node4&#45;&gt;Node7 -->
<g id="edge12" class="edge"><title>Node4&#45;&gt;Node7</title>
<path fill="none" stroke="midnightblue" d="M537.819,-207.372C606.77,-218.773 708.262,-235.555 775.225,-246.628"/>
<polygon fill="midnightblue" stroke="midnightblue" points="774.818,-250.108 785.255,-248.286 775.96,-243.202 774.818,-250.108"/>
</g>
<!-- Node8 -->
<g id="node15" class="node"><title>Node8</title>
<a xlink:href="classfwComEd_1_1helper_1_1Composite.html#a9a13f6097cbb512bb6cdfab6987b4b5b" target="_top" xlink:title="Add an object in the composite. ">
<polygon fill="white" stroke="black" points="760.5,-90.5 760.5,-111.5 927.5,-111.5 927.5,-90.5 760.5,-90.5"/>
<text text-anchor="middle" x="844" y="-98.5" font-family="Helvetica,sans-Serif" font-size="10.00">fwComEd::helper::Composite::add</text>
</a>
</g>
<!-- Node4&#45;&gt;Node8 -->
<g id="edge14" class="edge"><title>Node4&#45;&gt;Node8</title>
<path fill="none" stroke="midnightblue" d="M513.691,-171.395C533.962,-162.702 557.745,-153.422 580,-147 635.526,-130.978 699.325,-119.674 750.294,-112.282"/>
<polygon fill="midnightblue" stroke="midnightblue" points="750.904,-115.731 760.311,-110.856 749.917,-108.801 750.904,-115.731"/>
</g>
<!-- Node9 -->
<g id="node17" class="node"><title>Node9</title>
<a xlink:href="classfwComEd_1_1helper_1_1Composite.html#a7ee86890a448cf9e0680f6d97a91eb4b" target="_top" xlink:title="Send the message of modification. ">
<polygon fill="white" stroke="black" points="771,-38 771,-72 917,-72 917,-38 771,-38"/>
<text text-anchor="start" x="779" y="-59" font-family="Helvetica,sans-Serif" font-size="10.00">fwComEd::helper::Composite</text>
<text text-anchor="middle" x="844" y="-46" font-family="Helvetica,sans-Serif" font-size="10.00">::notify</text>
</a>
</g>
<!-- Node4&#45;&gt;Node9 -->
<g id="edge16" class="edge"><title>Node4&#45;&gt;Node9</title>
<path fill="none" stroke="midnightblue" d="M489.434,-171.459C511.976,-152.619 546.039,-126.956 580,-112 637.65,-86.6122 707.495,-72.173 760.861,-64.1829"/>
<polygon fill="midnightblue" stroke="midnightblue" points="761.572,-67.6164 770.966,-62.7171 760.567,-60.6889 761.572,-67.6164"/>
</g>
<!-- Node10 -->
<g id="node19" class="node"><title>Node10</title>
<a xlink:href="classfwComEd_1_1helper_1_1Image.html#a433706f74a7d6de3853c8489dcab54ec" target="_top" xlink:title="Create transfer function pool if the pool is not present, NOT GENERATE MESSAGE. ">
<polygon fill="white" stroke="black" points="580.5,-156 580.5,-190 723.5,-190 723.5,-156 580.5,-156"/>
<text text-anchor="start" x="588.5" y="-177" font-family="Helvetica,sans-Serif" font-size="10.00">fwComEd::helper::Image</text>
<text text-anchor="middle" x="652" y="-164" font-family="Helvetica,sans-Serif" font-size="10.00">::createTransferFunctionPool</text>
</a>
</g>
<!-- Node4&#45;&gt;Node10 -->
<g id="edge18" class="edge"><title>Node4&#45;&gt;Node10</title>
<path fill="none" stroke="midnightblue" d="M537.698,-186.305C548.332,-185.067 559.316,-183.789 570.079,-182.536"/>
<polygon fill="midnightblue" stroke="midnightblue" points="570.783,-185.978 580.311,-181.345 569.974,-179.024 570.783,-185.978"/>
</g>
<!-- Node10&#45;&gt;Node6 -->
<g id="edge22" class="edge"><title>Node10&#45;&gt;Node6</title>
<path fill="none" stroke="midnightblue" d="M671.532,-190.024C686.544,-203.499 707.444,-223.129 724,-242 741.822,-262.314 738.581,-274.522 760,-291 764.971,-294.825 770.442,-298.26 776.134,-301.334"/>
<polygon fill="midnightblue" stroke="midnightblue" points="774.711,-304.536 785.221,-305.872 777.838,-298.273 774.711,-304.536"/>
</g>
<!-- Node10&#45;&gt;Node7 -->
<g id="edge24" class="edge"><title>Node10&#45;&gt;Node7</title>
<path fill="none" stroke="midnightblue" d="M693.896,-190.019C703.87,-194.35 714.401,-199.157 724,-204 740.537,-212.345 743.33,-216.923 760,-225 765.149,-227.495 770.538,-229.949 775.994,-232.324"/>
<polygon fill="midnightblue" stroke="midnightblue" points="774.636,-235.55 785.208,-236.239 777.373,-229.107 774.636,-235.55"/>
</g>
<!-- Node10&#45;&gt;Node8 -->
<g id="edge20" class="edge"><title>Node10&#45;&gt;Node8</title>
<path fill="none" stroke="midnightblue" d="M693.896,-155.981C703.87,-151.65 714.401,-146.843 724,-142 740.537,-133.655 742.804,-127.886 760,-121 766.265,-118.491 772.923,-116.246 779.644,-114.25"/>
<polygon fill="midnightblue" stroke="midnightblue" points="780.804,-117.56 789.496,-111.502 778.923,-110.818 780.804,-117.56"/>
</g>
<!-- Node10&#45;&gt;Node9 -->
<g id="edge28" class="edge"><title>Node10&#45;&gt;Node9</title>
<path fill="none" stroke="midnightblue" d="M667.954,-155.66C687.724,-135.129 723.311,-101.18 760,-81 763.104,-79.2929 766.335,-77.6816 769.645,-76.1629"/>
<polygon fill="midnightblue" stroke="midnightblue" points="771.308,-79.2589 779.141,-72.1249 768.569,-72.817 771.308,-79.2589"/>
</g>
<!-- Node11 -->
<g id="node24" class="node"><title>Node11</title>
<a xlink:href="classfwComEd_1_1helper_1_1Field.html#a3d4bfe6d337875d690d45ac96676a781" target="_top" xlink:title="Send the built message. ">
<polygon fill="white" stroke="black" points="784.5,-182 784.5,-216 903.5,-216 903.5,-182 784.5,-182"/>
<text text-anchor="start" x="792.5" y="-203" font-family="Helvetica,sans-Serif" font-size="10.00">fwComEd::helper::Field</text>
<text text-anchor="middle" x="844" y="-190" font-family="Helvetica,sans-Serif" font-size="10.00">::notify</text>
</a>
</g>
<!-- Node10&#45;&gt;Node11 -->
<g id="edge26" class="edge"><title>Node10&#45;&gt;Node11</title>
<path fill="none" stroke="midnightblue" d="M723.767,-182.718C740.261,-184.952 757.777,-187.324 774.188,-189.546"/>
<polygon fill="midnightblue" stroke="midnightblue" points="773.864,-193.034 784.243,-190.908 774.804,-186.098 773.864,-193.034"/>
</g>
<!-- Node12 -->
<g id="node27" class="node"><title>Node12</title>
<a xlink:href="classfwComEd_1_1helper_1_1Field.html#ac9e8f0e7afff01116aa299d64ec47280" target="_top" xlink:title="Register field with specified name. If the name does already exist, the matching field will be replac...">
<polygon fill="white" stroke="black" points="784.5,-130 784.5,-164 903.5,-164 903.5,-130 784.5,-130"/>
<text text-anchor="start" x="792.5" y="-151" font-family="Helvetica,sans-Serif" font-size="10.00">fwComEd::helper::Field</text>
<text text-anchor="middle" x="844" y="-138" font-family="Helvetica,sans-Serif" font-size="10.00">::setField</text>
</a>
</g>
<!-- Node10&#45;&gt;Node12 -->
<g id="edge30" class="edge"><title>Node10&#45;&gt;Node12</title>
<path fill="none" stroke="midnightblue" d="M723.767,-163.282C740.261,-161.048 757.777,-158.676 774.188,-156.454"/>
<polygon fill="midnightblue" stroke="midnightblue" points="774.804,-159.902 784.243,-155.092 773.864,-152.966 774.804,-159.902"/>
</g>
</g>
</svg>
