<?xml version="1.0" encoding="UTF-8" standalone="no"?>
<!DOCTYPE svg PUBLIC "-//W3C//DTD SVG 1.1//EN"
 "http://www.w3.org/Graphics/SVG/1.1/DTD/svg11.dtd">
<!-- Generated by graphviz version 2.26.3 (20100126.1600)
 -->
<!-- Title: fwGdcmIO::writer::tid::Fiducial::createFiducial Pages: 1 -->
<svg width="334pt" height="42pt"
 viewBox="0.00 0.00 334.00 42.00" xmlns="http://www.w3.org/2000/svg" xmlns:xlink="http://www.w3.org/1999/xlink">
<g id="graph1" class="graph" transform="scale(1 1) rotate(0) translate(4 38)">
<title>fwGdcmIO::writer::tid::Fiducial::createFiducial</title>
<polygon fill="white" stroke="white" points="-4,5 -4,-38 331,-38 331,5 -4,5"/>
<!-- Node1 -->
<g id="node1" class="node"><title>Node1</title>
<polygon fill="#bfbfbf" stroke="black" points="0.5,-0 0.5,-34 123.5,-34 123.5,-0 0.5,-0"/>
<text text-anchor="start" x="8.5" y="-21" font-family="Helvetica,sans-Serif" font-size="10.00">fwGdcmIO::writer::tid</text>
<text text-anchor="middle" x="62" y="-8" font-family="Helvetica,sans-Serif" font-size="10.00">::Fiducial::createFiducial</text>
</g>
<!-- Node2 -->
<g id="node3" class="node"><title>Node2</title>
<a xlink:href="classfwGdcmIO_1_1container_1_1sr_1_1DicomSRNode.html#a37378b0c8dac3a7c538dd8571ee933b3" target="_top" xlink:title="Add a sub node. ">
<polygon fill="white" stroke="black" points="160.5,-0 160.5,-34 325.5,-34 325.5,-0 160.5,-0"/>
<text text-anchor="start" x="168.5" y="-21" font-family="Helvetica,sans-Serif" font-size="10.00">fwGdcmIO::container</text>
<text text-anchor="middle" x="243" y="-8" font-family="Helvetica,sans-Serif" font-size="10.00">::sr::DicomSRNode::addSubNode</text>
</a>
</g>
<!-- Node1&#45;&gt;Node2 -->
<g id="edge2" class="edge"><title>Node1&#45;&gt;Node2</title>
<path fill="none" stroke="midnightblue" d="M123.531,-17C132.168,-17 141.2,-17 150.261,-17"/>
<polygon fill="midnightblue" stroke="midnightblue" points="150.484,-20.5001 160.484,-17 150.484,-13.5001 150.484,-20.5001"/>
</g>
</g>
</svg>
