<?xml version="1.0" encoding="UTF-8" standalone="no"?>
<!DOCTYPE svg PUBLIC "-//W3C//DTD SVG 1.1//EN"
 "http://www.w3.org/Graphics/SVG/1.1/DTD/svg11.dtd">
<!-- Generated by graphviz version 2.26.3 (20100126.1600)
 -->
<!-- Title: fwData::Mesh::getAllocatedSizeInBytes Pages: 1 -->
<svg width="334pt" height="42pt"
 viewBox="0.00 0.00 334.00 42.00" xmlns="http://www.w3.org/2000/svg" xmlns:xlink="http://www.w3.org/1999/xlink">
<g id="graph1" class="graph" transform="scale(1 1) rotate(0) translate(4 38)">
<title>fwData::Mesh::getAllocatedSizeInBytes</title>
<polygon fill="white" stroke="white" points="-4,5 -4,-38 331,-38 331,5 -4,5"/>
<!-- Node1 -->
<g id="node1" class="node"><title>Node1</title>
<polygon fill="#bfbfbf" stroke="black" points="0,-0 0,-34 138,-34 138,-0 0,-0"/>
<text text-anchor="start" x="8" y="-21" font-family="Helvetica,sans-Serif" font-size="10.00">fwData::Mesh::getAllocated</text>
<text text-anchor="middle" x="69" y="-8" font-family="Helvetica,sans-Serif" font-size="10.00">SizeInBytes</text>
</g>
<!-- Node2 -->
<g id="node3" class="node"><title>Node2</title>
<a xlink:href="classfwData_1_1Mesh.html#ac1db0d24f390b3d271dfd4de0bb74419" target="_top" xlink:title="Adjust mesh memory usage. ">
<polygon fill="white" stroke="black" points="174.5,-0 174.5,-34 325.5,-34 325.5,-0 174.5,-0"/>
<text text-anchor="start" x="182.5" y="-21" font-family="Helvetica,sans-Serif" font-size="10.00">fwData::Mesh::adjustAllocated</text>
<text text-anchor="middle" x="250" y="-8" font-family="Helvetica,sans-Serif" font-size="10.00">Memory</text>
</a>
</g>
<!-- Node1&#45;&gt;Node2 -->
<g id="edge2" class="edge"><title>Node1&#45;&gt;Node2</title>
<path fill="none" stroke="midnightblue" d="M148.241,-17C156.863,-17 165.623,-17 174.201,-17"/>
<polygon fill="midnightblue" stroke="midnightblue" points="148.203,-13.5001 138.203,-17 148.203,-20.5001 148.203,-13.5001"/>
</g>
</g>
</svg>
