<?xml version="1.0" encoding="UTF-8" standalone="no"?>
<!DOCTYPE svg PUBLIC "-//W3C//DTD SVG 1.1//EN"
 "http://www.w3.org/Graphics/SVG/1.1/DTD/svg11.dtd">
<!-- Generated by graphviz version 2.36.0 (20140111.2315)
 -->
<!-- Title: fwVtkIO::helper::Mesh::updatePolyDataPointColor Pages: 1 -->
<!--zoomable 430 -->
<svg id="main" version="1.1" xmlns="http://www.w3.org/2000/svg" xmlns:xlink="http://www.w3.org/1999/xlink" xml:space="preserve" onload="init(evt)">
<style type="text/css"><![CDATA[
.edge:hover path { stroke: red; }
.edge:hover polygon { stroke: red; fill: red; }
]]></style>
<script type="text/javascript"><![CDATA[
var edges = document.getElementsByTagName('g');
if (edges && edges.length) {
  for (var i=0;i<edges.length;i++) {
    if (edges[i].id.substr(0,4)=='edge') {
      edges[i].setAttribute('class','edge');
    }
  }
}
]]></script>
        <defs>
                <circle id="rim" cx="0" cy="0" r="7"/>
                <circle id="rim2" cx="0" cy="0" r="3.5"/>
                <g id="zoomPlus">
                        <use xlink:href="#rim" fill="#404040">
                                <set attributeName="fill" to="#808080" begin="zoomplus.mouseover" end="zoomplus.mouseout"/>
                        </use>
                        <path d="M-4,0h8M0,-4v8" fill="none" stroke="white" stroke-width="1.5" pointer-events="none"/>
                </g>
                <g id="zoomMin">
                        <use xlink:href="#rim" fill="#404040">
                                <set attributeName="fill" to="#808080" begin="zoomminus.mouseover" end="zoomminus.mouseout"/>
                        </use>
                        <path d="M-4,0h8" fill="none" stroke="white" stroke-width="1.5" pointer-events="none"/>
                </g>
                <g id="dirArrow">
                        <path fill="none" stroke="white" stroke-width="1.5" d="M0,-3.0v7 M-2.5,-0.5L0,-3.0L2.5,-0.5"/>
                </g>
               <g id="resetDef">
                       <use xlink:href="#rim2" fill="#404040">
                               <set attributeName="fill" to="#808080" begin="reset.mouseover" end="reset.mouseout"/>
                       </use>
               </g>
        </defs>

<script type="text/javascript">
var viewWidth = 738;
var viewHeight = 430;
var sectionId = 'dynsection-29';
</script>
<script xlink:href="svgpan.js"/>
<svg id="graph" class="graph">
<g id="viewport">
<title>fwVtkIO::helper::Mesh::updatePolyDataPointColor</title>
<polygon fill="white" stroke="none" points="-4,4 -4,-426 734,-426 734,4 -4,4"/>
<!-- Node1 -->
<g id="node1" class="node"><title>Node1</title>
<polygon fill="#bfbfbf" stroke="black" points="0,-76 0,-106 138,-106 138,-76 0,-76"/>
<text text-anchor="start" x="8" y="-94" font-family="Helvetica,sans-Serif" font-size="10.00">fwVtkIO::helper::Mesh</text>
<text text-anchor="middle" x="69" y="-83" font-family="Helvetica,sans-Serif" font-size="10.00">::updatePolyDataPointColor</text>
</g>
<!-- Node2 -->
<g id="node2" class="node"><title>Node2</title>
<g id="a_node2"><a xlink:href="classfwVtkIO_1_1helper_1_1Mesh.html#aa8f409baff52f2a52ec44ed91c21d54e" target="_top" xlink:title="Convert a ::fwData::Mesh::csptr to a vtkPolyData. ">
<polygon fill="white" stroke="black" points="179.5,-171 179.5,-201 294.5,-201 294.5,-171 179.5,-171"/>
<text text-anchor="start" x="187.5" y="-189" font-family="Helvetica,sans-Serif" font-size="10.00">fwVtkIO::helper::Mesh</text>
<text text-anchor="middle" x="237" y="-178" font-family="Helvetica,sans-Serif" font-size="10.00">::toVTKMesh</text>
</a>
</g>
</g>
<!-- Node1&#45;&gt;Node2 -->
<g id="edge1" class="edge"><title>Node1&#45;&gt;Node2</title>
<path fill="none" stroke="midnightblue" d="M105.116,-111.097C136.331,-128.961 181.279,-154.684 209.546,-170.86"/>
<polygon fill="midnightblue" stroke="midnightblue" points="106.721,-107.982 96.3032,-106.053 103.244,-114.058 106.721,-107.982"/>
</g>
<!-- Node10 -->
<g id="node10" class="node"><title>Node10</title>
<g id="a_node10"><a xlink:href="classvtkSimpleMesh_1_1SRenderer.html#a1cdf4eaf2b2991fc9ea72282cd77840b" target="_top" xlink:title="Updating method. ">
<polygon fill="white" stroke="black" points="365.5,-0 365.5,-30 502.5,-30 502.5,-0 365.5,-0"/>
<text text-anchor="start" x="373.5" y="-18" font-family="Helvetica,sans-Serif" font-size="10.00">vtkSimpleMesh::SRenderer</text>
<text text-anchor="middle" x="434" y="-7" font-family="Helvetica,sans-Serif" font-size="10.00">::updating</text>
</a>
</g>
</g>
<!-- Node1&#45;&gt;Node10 -->
<g id="edge13" class="edge"><title>Node1&#45;&gt;Node10</title>
<path fill="none" stroke="midnightblue" d="M148.349,-96.2173C194.278,-96.3888 252.429,-91.4889 300,-71 319.661,-62.5319 317.057,-48.9726 336,-39 345.134,-34.1914 355.262,-30.3216 365.428,-27.2139"/>
<polygon fill="midnightblue" stroke="midnightblue" points="148.189,-92.7152 138.148,-96.0959 148.106,-99.7147 148.189,-92.7152"/>
</g>
<!-- Node13 -->
<g id="node13" class="node"><title>Node13</title>
<g id="a_node13"><a xlink:href="classvisuVTKAdaptor_1_1SMesh.html#ac7291cbf0bc942eac099392570e0ad11" target="_top" xlink:title="Slot: used to update point colors. ">
<polygon fill="white" stroke="black" points="174.5,-32 174.5,-62 299.5,-62 299.5,-32 174.5,-32"/>
<text text-anchor="start" x="182.5" y="-50" font-family="Helvetica,sans-Serif" font-size="10.00">visuVTKAdaptor::SMesh</text>
<text text-anchor="middle" x="237" y="-39" font-family="Helvetica,sans-Serif" font-size="10.00">::updatePointColors</text>
</a>
</g>
</g>
<!-- Node1&#45;&gt;Node13 -->
<g id="edge12" class="edge"><title>Node1&#45;&gt;Node13</title>
<path fill="none" stroke="midnightblue" d="M136.378,-73.4059C150.598,-69.6368 165.496,-65.6878 179.31,-62.0262"/>
<polygon fill="midnightblue" stroke="midnightblue" points="135.433,-70.0354 126.663,-75.9808 137.226,-76.8017 135.433,-70.0354"/>
</g>
<!-- Node3 -->
<g id="node3" class="node"><title>Node3</title>
<g id="a_node3"><a xlink:href="classfwVtkIO_1_1helper_1_1Mesh.html#a218b2e84b2b5d0b848eeb27664802430" target="_top" xlink:title="Compute the volume of the mesh using MassProperties vtk class. ">
<polygon fill="white" stroke="black" points="376.5,-392 376.5,-422 491.5,-422 491.5,-392 376.5,-392"/>
<text text-anchor="start" x="384.5" y="-410" font-family="Helvetica,sans-Serif" font-size="10.00">fwVtkIO::helper::Mesh</text>
<text text-anchor="middle" x="434" y="-399" font-family="Helvetica,sans-Serif" font-size="10.00">::computeVolume</text>
</a>
</g>
</g>
<!-- Node2&#45;&gt;Node3 -->
<g id="edge2" class="edge"><title>Node2&#45;&gt;Node3</title>
<path fill="none" stroke="midnightblue" d="M243.427,-211.158C253.823,-253.129 280.607,-337.234 336,-382 347.497,-391.291 362.053,-397.169 376.369,-400.875"/>
<polygon fill="midnightblue" stroke="midnightblue" points="246.782,-210.136 241.077,-201.209 239.97,-211.746 246.782,-210.136"/>
</g>
<!-- Node4 -->
<g id="node4" class="node"><title>Node4</title>
<g id="a_node4"><a xlink:href="classvtkSimpleMesh_1_1SRenderer.html#adcc2173edd3798b5a768f4054be9c605" target="_top" xlink:title="This method is used to notify that the VTK camera position is updated. ">
<polygon fill="white" stroke="black" points="364,-343 364,-373 504,-373 504,-343 364,-343"/>
<text text-anchor="start" x="372" y="-361" font-family="Helvetica,sans-Serif" font-size="10.00">vtkSimpleMesh::SRenderer</text>
<text text-anchor="middle" x="434" y="-350" font-family="Helvetica,sans-Serif" font-size="10.00">::notifyCamPositionUpdated</text>
</a>
</g>
</g>
<!-- Node2&#45;&gt;Node4 -->
<g id="edge3" class="edge"><title>Node2&#45;&gt;Node4</title>
<path fill="none" stroke="midnightblue" d="M247.66,-210.533C261.928,-243.512 291.807,-301.615 336,-333 344.366,-338.941 354.027,-343.471 363.944,-346.926"/>
<polygon fill="midnightblue" stroke="midnightblue" points="250.827,-209.034 243.735,-201.163 244.37,-211.738 250.827,-209.034"/>
</g>
<!-- Node5 -->
<g id="node5" class="node"><title>Node5</title>
<g id="a_node5"><a xlink:href="classvisuVTKAdaptor_1_1SMeshesBoxWidget.html#a9fa568865aeee70d139fc9299928519c" target="_top" xlink:title="Updates map from composite meshes. ">
<polygon fill="white" stroke="black" points="336.5,-294 336.5,-324 531.5,-324 531.5,-294 336.5,-294"/>
<text text-anchor="start" x="344.5" y="-312" font-family="Helvetica,sans-Serif" font-size="10.00">visuVTKAdaptor::SMeshesBox</text>
<text text-anchor="middle" x="434" y="-301" font-family="Helvetica,sans-Serif" font-size="10.00">Widget::updateMeshMapFromComposite</text>
</a>
</g>
</g>
<!-- Node2&#45;&gt;Node5 -->
<g id="edge4" class="edge"><title>Node2&#45;&gt;Node5</title>
<path fill="none" stroke="midnightblue" d="M255.034,-209.119C272.791,-231.565 302.65,-264.957 336,-284 342.796,-287.88 350.2,-291.169 357.788,-293.954"/>
<polygon fill="midnightblue" stroke="midnightblue" points="257.724,-206.876 248.839,-201.105 252.186,-211.157 257.724,-206.876"/>
</g>
<!-- Node6 -->
<g id="node6" class="node"><title>Node6</title>
<g id="a_node6"><a xlink:href="classvisuVTKAdaptor_1_1SMesh.html#afa30a4116249cb3436ccef9a90917005" target="_top" xlink:title="Creates normals adaptor if material has NORMALS, else remove normals adaptor. ">
<polygon fill="white" stroke="black" points="371.5,-245 371.5,-275 496.5,-275 496.5,-245 371.5,-245"/>
<text text-anchor="start" x="379.5" y="-263" font-family="Helvetica,sans-Serif" font-size="10.00">visuVTKAdaptor::SMesh</text>
<text text-anchor="middle" x="434" y="-252" font-family="Helvetica,sans-Serif" font-size="10.00">::updateOptionsMode</text>
</a>
</g>
</g>
<!-- Node2&#45;&gt;Node6 -->
<g id="edge5" class="edge"><title>Node2&#45;&gt;Node6</title>
<path fill="none" stroke="midnightblue" d="M273.203,-205.872C291.514,-215.62 314.51,-226.961 336,-235 347.239,-239.204 359.466,-242.958 371.332,-246.199"/>
<polygon fill="midnightblue" stroke="midnightblue" points="274.815,-202.765 264.353,-201.092 271.488,-208.924 274.815,-202.765"/>
</g>
<!-- Node7 -->
<g id="node7" class="node"><title>Node7</title>
<g id="a_node7"><a xlink:href="classvtkCompositeMesh_1_1RendererService.html#a5d2cfe551a042579b3a1c7a0c251d6e5" target="_top" xlink:title="Updating method. ">
<polygon fill="white" stroke="black" points="360.5,-196 360.5,-226 507.5,-226 507.5,-196 360.5,-196"/>
<text text-anchor="start" x="368.5" y="-214" font-family="Helvetica,sans-Serif" font-size="10.00">vtkCompositeMesh::Renderer</text>
<text text-anchor="middle" x="434" y="-203" font-family="Helvetica,sans-Serif" font-size="10.00">Service::updating</text>
</a>
</g>
</g>
<!-- Node2&#45;&gt;Node7 -->
<g id="edge6" class="edge"><title>Node2&#45;&gt;Node7</title>
<path fill="none" stroke="midnightblue" d="M304.953,-194.584C322.76,-196.867 342.079,-199.343 360.182,-201.664"/>
<polygon fill="midnightblue" stroke="midnightblue" points="305.028,-191.065 294.664,-193.265 304.138,-198.008 305.028,-191.065"/>
</g>
<!-- Node8 -->
<g id="node8" class="node"><title>Node8</title>
<g id="a_node8"><a xlink:href="classvisuVTKAdaptor_1_1SMeshNormals.html#aeff92f62995db8c6eec18f8654d64b83" target="_top" xlink:title="Perform some computations according to object (this service is attached to) attribute values and its ...">
<polygon fill="white" stroke="black" points="353.5,-147 353.5,-177 514.5,-177 514.5,-147 353.5,-147"/>
<text text-anchor="start" x="361.5" y="-165" font-family="Helvetica,sans-Serif" font-size="10.00">visuVTKAdaptor::SMeshNormals</text>
<text text-anchor="middle" x="434" y="-154" font-family="Helvetica,sans-Serif" font-size="10.00">::updating</text>
</a>
</g>
</g>
<!-- Node2&#45;&gt;Node8 -->
<g id="edge7" class="edge"><title>Node2&#45;&gt;Node8</title>
<path fill="none" stroke="midnightblue" d="M304.753,-177.784C320.393,-175.859 337.208,-173.79 353.348,-171.803"/>
<polygon fill="midnightblue" stroke="midnightblue" points="304.162,-174.331 294.664,-179.026 305.017,-181.278 304.162,-174.331"/>
</g>
<!-- Node2&#45;&gt;Node10 -->
<g id="edge9" class="edge"><title>Node2&#45;&gt;Node10</title>
<path fill="none" stroke="midnightblue" d="M257.253,-162.843C270.029,-147.011 286.809,-125.296 300,-105 318.208,-76.984 309.542,-59.407 336,-39 344.654,-32.325 354.923,-27.4819 365.489,-23.9732"/>
<polygon fill="midnightblue" stroke="midnightblue" points="254.22,-161.024 250.615,-170.987 259.646,-165.446 254.22,-161.024"/>
</g>
<!-- Node11 -->
<g id="node11" class="node"><title>Node11</title>
<g id="a_node11"><a xlink:href="classfwVtkIO_1_1MeshWriter.html#a1e418f7423a0fff0e17ff13d3ed9b322" target="_top" xlink:title="Reading operator. ">
<polygon fill="white" stroke="black" points="379.5,-98 379.5,-128 488.5,-128 488.5,-98 379.5,-98"/>
<text text-anchor="start" x="387.5" y="-116" font-family="Helvetica,sans-Serif" font-size="10.00">fwVtkIO::MeshWriter</text>
<text text-anchor="middle" x="434" y="-105" font-family="Helvetica,sans-Serif" font-size="10.00">::write</text>
</a>
</g>
</g>
<!-- Node2&#45;&gt;Node11 -->
<g id="edge10" class="edge"><title>Node2&#45;&gt;Node11</title>
<path fill="none" stroke="midnightblue" d="M273.17,-166.041C291.473,-156.27 314.471,-144.934 336,-137 349.755,-131.931 364.998,-127.593 379.247,-124.057"/>
<polygon fill="midnightblue" stroke="midnightblue" points="271.449,-162.992 264.325,-170.835 274.785,-169.146 271.449,-162.992"/>
</g>
<!-- Node12 -->
<g id="node12" class="node"><title>Node12</title>
<g id="a_node12"><a xlink:href="classfwVtkIO_1_1ModelSeriesObjWriter.html#a21ff94e553dd9c4476d4eb3bb08fba7f" target="_top" xlink:title="Destructor. ">
<polygon fill="white" stroke="black" points="357,-49 357,-79 511,-79 511,-49 357,-49"/>
<text text-anchor="start" x="365" y="-67" font-family="Helvetica,sans-Serif" font-size="10.00">fwVtkIO::ModelSeriesObjWriter</text>
<text text-anchor="middle" x="434" y="-56" font-family="Helvetica,sans-Serif" font-size="10.00">::~ModelSeriesObjWriter</text>
</a>
</g>
</g>
<!-- Node2&#45;&gt;Node12 -->
<g id="edge11" class="edge"><title>Node2&#45;&gt;Node12</title>
<path fill="none" stroke="midnightblue" d="M254.995,-162.812C272.722,-140.313 302.558,-106.881 336,-88 342.496,-84.3325 349.546,-81.2199 356.782,-78.5793"/>
<polygon fill="midnightblue" stroke="midnightblue" points="252.137,-160.787 248.811,-170.847 257.684,-165.057 252.137,-160.787"/>
</g>
<!-- Node9 -->
<g id="node9" class="node"><title>Node9</title>
<g id="a_node9"><a xlink:href="classvisuVTKAdaptor_1_1SMeshNormals.html#a0ff346ed8a40435425baac50a2262154" target="_top" xlink:title="Initialize the service activity. ">
<polygon fill="white" stroke="black" points="568.5,-147 568.5,-177 729.5,-177 729.5,-147 568.5,-147"/>
<text text-anchor="start" x="576.5" y="-165" font-family="Helvetica,sans-Serif" font-size="10.00">visuVTKAdaptor::SMeshNormals</text>
<text text-anchor="middle" x="649" y="-154" font-family="Helvetica,sans-Serif" font-size="10.00">::starting</text>
</a>
</g>
</g>
<!-- Node8&#45;&gt;Node9 -->
<g id="edge8" class="edge"><title>Node8&#45;&gt;Node9</title>
<path fill="none" stroke="midnightblue" d="M524.617,-162C539.181,-162 554.178,-162 568.48,-162"/>
<polygon fill="midnightblue" stroke="midnightblue" points="524.616,-158.5 514.616,-162 524.616,-165.5 524.616,-158.5"/>
</g>
</g>
</svg>
        <g id="navigator" transform="translate(0 0)" fill="#404254">
                <rect fill="#f2f5e9" fill-opacity="0.5" stroke="#606060" stroke-width=".5" x="0" y="0" width="60" height="60"/>
                <use id="zoomplus" xlink:href="#zoomPlus" x="17" y="9" onmousedown="handleZoom(evt,'in')"/>
                <use id="zoomminus" xlink:href="#zoomMin" x="42" y="9" onmousedown="handleZoom(evt,'out')"/>
                <use id="reset" xlink:href="#resetDef" x="30" y="36" onmousedown="handleReset()"/>
                <g id="arrowUp" xlink:href="#dirArrow" transform="translate(30 24)" onmousedown="handlePan(0,-1)">
                  <use xlink:href="#rim" fill="#404040">
                        <set attributeName="fill" to="#808080" begin="arrowUp.mouseover" end="arrowUp.mouseout"/>
                  </use>
                  <path fill="none" stroke="white" stroke-width="1.5" d="M0,-3.0v7 M-2.5,-0.5L0,-3.0L2.5,-0.5"/>
                </g>
                <g id="arrowRight" xlink:href="#dirArrow" transform="rotate(90) translate(36 -43)" onmousedown="handlePan(1,0)">
                  <use xlink:href="#rim" fill="#404040">
                        <set attributeName="fill" to="#808080" begin="arrowRight.mouseover" end="arrowRight.mouseout"/>
                  </use>
                  <path fill="none" stroke="white" stroke-width="1.5" d="M0,-3.0v7 M-2.5,-0.5L0,-3.0L2.5,-0.5"/>
                </g>
                <g id="arrowDown" xlink:href="#dirArrow" transform="rotate(180) translate(-30 -48)" onmousedown="handlePan(0,1)">
                  <use xlink:href="#rim" fill="#404040">
                        <set attributeName="fill" to="#808080" begin="arrowDown.mouseover" end="arrowDown.mouseout"/>
                  </use>
                  <path fill="none" stroke="white" stroke-width="1.5" d="M0,-3.0v7 M-2.5,-0.5L0,-3.0L2.5,-0.5"/>
                </g>
                <g id="arrowLeft" xlink:href="#dirArrow" transform="rotate(270) translate(-36 17)" onmousedown="handlePan(-1,0)">
                  <use xlink:href="#rim" fill="#404040">
                        <set attributeName="fill" to="#808080" begin="arrowLeft.mouseover" end="arrowLeft.mouseout"/>
                  </use>
                  <path fill="none" stroke="white" stroke-width="1.5" d="M0,-3.0v7 M-2.5,-0.5L0,-3.0L2.5,-0.5"/>
                </g>
        </g>
        <svg viewBox="0 0 15 15" width="100%" height="30px" preserveAspectRatio="xMaxYMin meet">
         <g id="arrow_out" transform="scale(0.3 0.3)">
          <a xlink:href="classfwVtkIO_1_1helper_1_1Mesh_a766bb65c3956e0c029675be37021d286_icgraph_org.svg" target="_base">
           <rect id="button" ry="5" rx="5" y="6" x="6" height="38" width="38"
                fill="#f2f5e9" fill-opacity="0.5" stroke="#606060" stroke-width="1.0"/>
           <path id="arrow"
             d="M 11.500037,31.436501 C 11.940474,20.09759 22.043105,11.32322 32.158766,21.979434 L 37.068811,17.246167 C 37.068811,17.246167 37.088388,32 37.088388,32 L 22.160133,31.978069 C 22.160133,31.978069 26.997745,27.140456 26.997745,27.140456 C 18.528582,18.264221 13.291696,25.230495 11.500037,31.436501 z"
             style="fill:#404040;"/>
          </a>
         </g>
        </svg>
</svg>
