<?xml version="1.0" encoding="UTF-8" standalone="no"?>
<!DOCTYPE svg PUBLIC "-//W3C//DTD SVG 1.1//EN"
 "http://www.w3.org/Graphics/SVG/1.1/DTD/svg11.dtd">
<!-- Generated by graphviz version 2.36.0 (20140111.2315)
 -->
<!-- Title: visuVTKAdaptor::SPointList::starting Pages: 1 -->
<svg width="298pt" height="48pt"
 viewBox="0.00 0.00 298.00 48.00" xmlns="http://www.w3.org/2000/svg" xmlns:xlink="http://www.w3.org/1999/xlink">
<g id="graph0" class="graph" transform="scale(1 1) rotate(0) translate(4 44)">
<title>visuVTKAdaptor::SPointList::starting</title>
<polygon fill="white" stroke="none" points="-4,4 -4,-44 294,-44 294,4 -4,4"/>
<!-- Node1 -->
<g id="node1" class="node"><title>Node1</title>
<polygon fill="#bfbfbf" stroke="black" points="0.5,-5 0.5,-35 139.5,-35 139.5,-5 0.5,-5"/>
<text text-anchor="start" x="8.5" y="-23" font-family="Helvetica,sans-Serif" font-size="10.00">visuVTKAdaptor::SPointList</text>
<text text-anchor="middle" x="70" y="-12" font-family="Helvetica,sans-Serif" font-size="10.00">::starting</text>
</g>
<!-- Node2 -->
<g id="node2" class="node"><title>Node2</title>
<g id="a_node2"><a xlink:href="classbasicRegistration_1_1SPointListRegistration.html#ac83ed5326f5e6c7ec6e0f1c2a69fc9c6" target="_top" xlink:title="Do nothing. ">
<polygon fill="white" stroke="black" points="176,0.5 176,-40.5 290,-40.5 290,0.5 176,0.5"/>
<text text-anchor="start" x="184" y="-28.5" font-family="Helvetica,sans-Serif" font-size="10.00">basicRegistration::</text>
<text text-anchor="start" x="184" y="-17.5" font-family="Helvetica,sans-Serif" font-size="10.00">SPointListRegistration</text>
<text text-anchor="middle" x="233" y="-6.5" font-family="Helvetica,sans-Serif" font-size="10.00">::swapping</text>
</a>
</g>
</g>
<!-- Node1&#45;&gt;Node2 -->
<g id="edge1" class="edge"><title>Node1&#45;&gt;Node2</title>
<path fill="none" stroke="midnightblue" d="M149.901,-20C158.583,-20 167.289,-20 175.616,-20"/>
<polygon fill="midnightblue" stroke="midnightblue" points="149.746,-16.5001 139.745,-20 149.745,-23.5001 149.746,-16.5001"/>
</g>
</g>
</svg>
