<?xml version="1.0" encoding="UTF-8" standalone="no"?>
<!DOCTYPE svg PUBLIC "-//W3C//DTD SVG 1.1//EN"
 "http://www.w3.org/Graphics/SVG/1.1/DTD/svg11.dtd">
<!-- Generated by graphviz version 2.26.3 (20100126.1600)
 -->
<!-- Title: fwServices::IService Pages: 1 -->
<!--zoomable 1314 -->
<svg id="main" version="1.1" xmlns="http://www.w3.org/2000/svg" xmlns:xlink="http://www.w3.org/1999/xlink" xml:space="preserve" onload="init(evt)">
<style type="text/css"><![CDATA[
.edge:hover path { stroke: red; }
.edge:hover polygon { stroke: red; fill: red; }
]]></style>
<script type="text/javascript"><![CDATA[
var edges = document.getElementsByTagName('g');
if (edges && edges.length) {
  for (var i=0;i<edges.length;i++) {
    if (edges[i].id.substr(0,4)=='edge') {
      edges[i].setAttribute('class','edge');
    }
  }
}
]]></script>
        <defs>
                <circle id="rim" cx="0" cy="0" r="7"/>
                <circle id="rim2" cx="0" cy="0" r="3.5"/>
                <g id="zoomPlus">
                        <use xlink:href="#rim" fill="#404040">
                                <set attributeName="fill" to="#808080" begin="zoomplus.mouseover" end="zoomplus.mouseout"/>
                        </use>
                        <path d="M-4,0h8M0,-4v8" fill="none" stroke="white" stroke-width="1.5" pointer-events="none"/>
                </g>
                <g id="zoomMin">
                        <use xlink:href="#rim" fill="#404040">
                                <set attributeName="fill" to="#808080" begin="zoomminus.mouseover" end="zoomminus.mouseout"/>
                        </use>
                        <path d="M-4,0h8" fill="none" stroke="white" stroke-width="1.5" pointer-events="none"/>
                </g>
                <g id="dirArrow">
                        <path fill="none" stroke="white" stroke-width="1.5" d="M0,-3.0v7 M-2.5,-0.5L0,-3.0L2.5,-0.5"/>
                </g>
               <g id="resetDef">
                       <use xlink:href="#rim2" fill="#404040">
                               <set attributeName="fill" to="#808080" begin="reset.mouseover" end="reset.mouseout"/>
                       </use>
               </g>
        </defs>

<script type="text/javascript">
var viewWidth = 938;
var viewHeight = 1314;
var sectionId = 'dynsection-0';
</script>
<script xlink:href="svgpan.js"/>
<svg id="graph" class="graph">
<g id="viewport">
<title>fwServices::IService</title>
<polygon fill="white" stroke="white" points="-4,5 -4,-1310 935,-1310 935,5 -4,5"/>
<!-- Node1 -->
<g id="node1" class="node"><title>Node1</title>
<polygon fill="#bfbfbf" stroke="black" points="450.5,-389.5 450.5,-410.5 557.5,-410.5 557.5,-389.5 450.5,-389.5"/>
<text text-anchor="middle" x="504" y="-397.5" font-family="Helvetica,sans-Serif" font-size="10.00">fwServices::IService</text>
</g>
<!-- Node8 -->
<g id="node15" class="node"><title>Node8</title>
<a xlink:href="classctrlSelection_1_1IManagerSrv.html" target="_top" xlink:title="Base class for manager. A manager starts, stops or swaps services on object contained in a composite ...">
<polygon fill="white" stroke="black" points="597,-1200.5 597,-1221.5 729,-1221.5 729,-1200.5 597,-1200.5"/>
<text text-anchor="middle" x="663" y="-1208.5" font-family="Helvetica,sans-Serif" font-size="10.00">ctrlSelection::IManagerSrv</text>
</a>
</g>
<!-- Node1&#45;&gt;Node8 -->
<g id="edge14" class="edge"><title>Node1&#45;&gt;Node8</title>
<path fill="none" stroke="midnightblue" d="M504.892,-420.924C508.795,-502.715 527.288,-808.161 594,-1049 610.484,-1108.51 643.915,-1174.97 657.285,-1200.36"/>
<polygon fill="midnightblue" stroke="midnightblue" points="508.369,-420.344 504.418,-410.514 501.376,-420.663 508.369,-420.344"/>
</g>
<!-- Node12 -->
<g id="node23" class="node"><title>Node12</title>
<a xlink:href="classctrlSelection_1_1IUpdaterSrv.html" target="_top" xlink:title="An updater is attached on a composite. It is use to add, swap and remove object in the composite when...">
<polygon fill="white" stroke="black" points="598.5,-1018.5 598.5,-1039.5 727.5,-1039.5 727.5,-1018.5 598.5,-1018.5"/>
<text text-anchor="middle" x="663" y="-1026.5" font-family="Helvetica,sans-Serif" font-size="10.00">ctrlSelection::IUpdaterSrv</text>
</a>
</g>
<!-- Node1&#45;&gt;Node12 -->
<g id="edge22" class="edge"><title>Node1&#45;&gt;Node12</title>
<path fill="none" stroke="midnightblue" d="M504.983,-421.205C508.862,-492.711 526.391,-730.698 594,-913 609.563,-954.963 640.312,-998.881 654.924,-1018.48"/>
<polygon fill="midnightblue" stroke="midnightblue" points="508.459,-420.658 504.455,-410.849 501.468,-421.014 508.459,-420.658"/>
</g>
<!-- Node17 -->
<g id="node33" class="node"><title>Node17</title>
<a xlink:href="classctrlSelection_1_1IWrapperSrv.html" target="_top" xlink:title="The purpose of this service is to wrap messages incoming to the object to new messages. ">
<polygon fill="white" stroke="black" points="597.5,-882.5 597.5,-903.5 728.5,-903.5 728.5,-882.5 597.5,-882.5"/>
<text text-anchor="middle" x="663" y="-890.5" font-family="Helvetica,sans-Serif" font-size="10.00">ctrlSelection::IWrapperSrv</text>
</a>
</g>
<!-- Node1&#45;&gt;Node17 -->
<g id="edge32" class="edge"><title>Node1&#45;&gt;Node17</title>
<path fill="none" stroke="midnightblue" d="M506.265,-420.712C515.01,-497.989 548.375,-768.734 594,-841 605.531,-859.265 625.922,-873.435 641.557,-882.337"/>
<polygon fill="midnightblue" stroke="midnightblue" points="509.742,-420.311 505.155,-410.761 502.785,-421.087 509.742,-420.311"/>
</g>
<!-- Node19 -->
<g id="node37" class="node"><title>Node19</title>
<a xlink:href="classfwComEd_1_1ut_1_1TestService.html" target="_top" xlink:title="Service type for test. ">
<polygon fill="white" stroke="black" points="596.5,-810.5 596.5,-831.5 729.5,-831.5 729.5,-810.5 596.5,-810.5"/>
<text text-anchor="middle" x="663" y="-818.5" font-family="Helvetica,sans-Serif" font-size="10.00">fwComEd::ut::TestService</text>
</a>
</g>
<!-- Node1&#45;&gt;Node19 -->
<g id="edge36" class="edge"><title>Node1&#45;&gt;Node19</title>
<path fill="none" stroke="midnightblue" d="M511.378,-420.236C526.617,-461.965 562.761,-560.57 594,-643 618.078,-706.534 647.84,-782.457 658.743,-810.186"/>
<polygon fill="midnightblue" stroke="midnightblue" points="514.607,-418.874 507.89,-410.68 508.031,-421.274 514.607,-418.874"/>
</g>
<!-- Node22 -->
<g id="node43" class="node"><title>Node22</title>
<a xlink:href="classfwGui_1_1IActionSrv.html" target="_top" xlink:title="Defines the service interface managing the menu items. ">
<polygon fill="white" stroke="red" points="616,-612.5 616,-633.5 710,-633.5 710,-612.5 616,-612.5"/>
<text text-anchor="middle" x="663" y="-620.5" font-family="Helvetica,sans-Serif" font-size="10.00">fwGui::IActionSrv</text>
</a>
</g>
<!-- Node1&#45;&gt;Node22 -->
<g id="edge42" class="edge"><title>Node1&#45;&gt;Node22</title>
<path fill="none" stroke="midnightblue" d="M507.237,-420.593C514.769,-461.548 537.342,-553.526 594,-603 600.294,-608.496 608.02,-612.486 615.997,-615.38"/>
<polygon fill="midnightblue" stroke="midnightblue" points="510.677,-419.947 505.529,-410.687 503.779,-421.136 510.677,-419.947"/>
</g>
<!-- Node35 -->
<g id="node69" class="node"><title>Node35</title>
<a xlink:href="classfwGui_1_1IFrameSrv.html" target="_top" xlink:title="Defines the service interface managing a frame. ">
<polygon fill="white" stroke="red" points="616,-572.5 616,-593.5 710,-593.5 710,-572.5 616,-572.5"/>
<text text-anchor="middle" x="663" y="-580.5" font-family="Helvetica,sans-Serif" font-size="10.00">fwGui::IFrameSrv</text>
</a>
</g>
<!-- Node1&#45;&gt;Node35 -->
<g id="edge68" class="edge"><title>Node1&#45;&gt;Node35</title>
<path fill="none" stroke="midnightblue" d="M509.681,-420.535C520.329,-455.171 546.604,-525.124 594,-563 600.333,-568.061 607.899,-571.841 615.662,-574.665"/>
<polygon fill="midnightblue" stroke="midnightblue" points="512.943,-419.223 506.766,-410.615 506.227,-421.197 512.943,-419.223"/>
</g>
<!-- Node36 -->
<g id="node71" class="node"><title>Node36</title>
<a xlink:href="classfwGui_1_1IGuiContainerSrv.html" target="_top" xlink:title="Defines the service interface managing the layout. ">
<polygon fill="white" stroke="red" points="601.5,-532.5 601.5,-553.5 724.5,-553.5 724.5,-532.5 601.5,-532.5"/>
<text text-anchor="middle" x="663" y="-540.5" font-family="Helvetica,sans-Serif" font-size="10.00">fwGui::IGuiContainerSrv</text>
</a>
</g>
<!-- Node1&#45;&gt;Node36 -->
<g id="edge70" class="edge"><title>Node1&#45;&gt;Node36</title>
<path fill="none" stroke="midnightblue" d="M513.198,-419.719C526.934,-447.009 555.385,-495.976 594,-523 599.416,-526.79 605.547,-529.868 611.864,-532.366"/>
<polygon fill="midnightblue" stroke="midnightblue" points="516.341,-418.18 508.812,-410.726 510.05,-421.249 516.341,-418.18"/>
</g>
<!-- Node37 -->
<g id="node73" class="node"><title>Node37</title>
<a xlink:href="classfwGui_1_1IMenuBarSrv.html" target="_top" xlink:title="Defines the service interface managing the menu bar. ">
<polygon fill="white" stroke="red" points="610.5,-492.5 610.5,-513.5 715.5,-513.5 715.5,-492.5 610.5,-492.5"/>
<text text-anchor="middle" x="663" y="-500.5" font-family="Helvetica,sans-Serif" font-size="10.00">fwGui::IMenuBarSrv</text>
</a>
</g>
<!-- Node1&#45;&gt;Node37 -->
<g id="edge72" class="edge"><title>Node1&#45;&gt;Node37</title>
<path fill="none" stroke="midnightblue" d="M519.087,-418.201C535.624,-437.022 563.843,-465.991 594,-483 600.735,-486.799 608.255,-489.931 615.785,-492.496"/>
<polygon fill="midnightblue" stroke="midnightblue" points="521.716,-415.889 512.545,-410.583 516.405,-420.45 521.716,-415.889"/>
</g>
<!-- Node38 -->
<g id="node75" class="node"><title>Node38</title>
<a xlink:href="classfwGui_1_1IMenuSrv.html" target="_top" xlink:title="Defines the service interface managing the menu. ">
<polygon fill="white" stroke="red" points="618,-452.5 618,-473.5 708,-473.5 708,-452.5 618,-452.5"/>
<text text-anchor="middle" x="663" y="-460.5" font-family="Helvetica,sans-Serif" font-size="10.00">fwGui::IMenuSrv</text>
</a>
</g>
<!-- Node1&#45;&gt;Node38 -->
<g id="edge74" class="edge"><title>Node1&#45;&gt;Node38</title>
<path fill="none" stroke="midnightblue" d="M532.682,-415.186C550.105,-424.034 572.973,-434.991 594,-443 603.091,-446.463 613.048,-449.672 622.499,-452.461"/>
<polygon fill="midnightblue" stroke="midnightblue" points="534.102,-411.98 523.609,-410.519 530.9,-418.205 534.102,-411.98"/>
</g>
<!-- Node39 -->
<g id="node77" class="node"><title>Node39</title>
<a xlink:href="classfwGui_1_1IToolBarSrv.html" target="_top" xlink:title="Defines the service interface managing the toolBar. ">
<polygon fill="white" stroke="red" points="613,-412.5 613,-433.5 713,-433.5 713,-412.5 613,-412.5"/>
<text text-anchor="middle" x="663" y="-420.5" font-family="Helvetica,sans-Serif" font-size="10.00">fwGui::IToolBarSrv</text>
</a>
</g>
<!-- Node1&#45;&gt;Node39 -->
<g id="edge76" class="edge"><title>Node1&#45;&gt;Node39</title>
<path fill="none" stroke="midnightblue" d="M568.04,-409.264C583.004,-411.428 598.727,-413.703 612.978,-415.764"/>
<polygon fill="midnightblue" stroke="midnightblue" points="568.228,-405.755 557.83,-407.787 567.226,-412.682 568.228,-405.755"/>
</g>
<!-- Node40 -->
<g id="node79" class="node"><title>Node40</title>
<a xlink:href="classfwRenderVTK_1_1IVtkAdaptorService.html" target="_top" xlink:title="fwRenderVTK::IVtkAdaptor\lService">
<polygon fill="white" stroke="red" points="595,-360 595,-394 731,-394 731,-360 595,-360"/>
<text text-anchor="start" x="603" y="-381" font-family="Helvetica,sans-Serif" font-size="10.00">fwRenderVTK::IVtkAdaptor</text>
<text text-anchor="middle" x="663" y="-368" font-family="Helvetica,sans-Serif" font-size="10.00">Service</text>
</a>
</g>
<!-- Node1&#45;&gt;Node40 -->
<g id="edge78" class="edge"><title>Node1&#45;&gt;Node40</title>
<path fill="none" stroke="midnightblue" d="M567.753,-390.778C576.667,-389.488 585.857,-388.159 594.849,-386.858"/>
<polygon fill="midnightblue" stroke="midnightblue" points="567.226,-387.318 557.83,-392.213 568.228,-394.245 567.226,-387.318"/>
</g>
<!-- Node41 -->
<g id="node81" class="node"><title>Node41</title>
<a xlink:href="classfwServices_1_1IController.html" target="_top" xlink:title="This interface defines control service API. Does nothing particularly, can be considered as a default...">
<polygon fill="white" stroke="red" points="605,-320.5 605,-341.5 721,-341.5 721,-320.5 605,-320.5"/>
<text text-anchor="middle" x="663" y="-328.5" font-family="Helvetica,sans-Serif" font-size="10.00">fwServices::IController</text>
</a>
</g>
<!-- Node1&#45;&gt;Node41 -->
<g id="edge80" class="edge"><title>Node1&#45;&gt;Node41</title>
<path fill="none" stroke="midnightblue" d="M529.284,-384.309C546.933,-373.842 571.303,-360.339 594,-351 602.651,-347.441 612.155,-344.25 621.27,-341.518"/>
<polygon fill="midnightblue" stroke="midnightblue" points="527.475,-381.313 520.711,-389.468 531.084,-387.31 527.475,-381.313"/>
</g>
<!-- Node42 -->
<g id="node83" class="node"><title>Node42</title>
<a xlink:href="classfwServices_1_1IXMLParser.html" target="_top" xlink:title="Service type for the construction of an object and associated services from an XML&#45;based description...">
<polygon fill="white" stroke="red" points="601.5,-280.5 601.5,-301.5 724.5,-301.5 724.5,-280.5 601.5,-280.5"/>
<text text-anchor="middle" x="663" y="-288.5" font-family="Helvetica,sans-Serif" font-size="10.00">fwServices::IXMLParser</text>
</a>
</g>
<!-- Node1&#45;&gt;Node42 -->
<g id="edge82" class="edge"><title>Node1&#45;&gt;Node42</title>
<path fill="none" stroke="midnightblue" d="M518.287,-381.084C534.509,-360.886 562.803,-329.32 594,-311 600.453,-307.211 607.671,-304.099 614.942,-301.555"/>
<polygon fill="midnightblue" stroke="midnightblue" points="515.321,-379.194 511.908,-389.224 520.831,-383.512 515.321,-379.194"/>
</g>
<!-- Node43 -->
<g id="node85" class="node"><title>Node43</title>
<a xlink:href="classfwServices_1_1ut_1_1IBasicTest.html" target="_top" xlink:title="fwServices::ut::IBasicTest">
<polygon fill="white" stroke="red" points="596.5,-240.5 596.5,-261.5 729.5,-261.5 729.5,-240.5 596.5,-240.5"/>
<text text-anchor="middle" x="663" y="-248.5" font-family="Helvetica,sans-Serif" font-size="10.00">fwServices::ut::IBasicTest</text>
</a>
</g>
<!-- Node1&#45;&gt;Node43 -->
<g id="edge84" class="edge"><title>Node1&#45;&gt;Node43</title>
<path fill="none" stroke="midnightblue" d="M512.544,-380.169C525.814,-351.724 554.069,-299.62 594,-271 599.373,-267.149 605.478,-264.035 611.783,-261.519"/>
<polygon fill="midnightblue" stroke="midnightblue" points="509.26,-378.937 508.339,-389.492 515.641,-381.815 509.26,-378.937"/>
</g>
<!-- Node44 -->
<g id="node87" class="node"><title>Node44</title>
<a xlink:href="classfwServices_1_1ut_1_1TestService.html" target="_top" xlink:title="Service interface for test. ">
<polygon fill="white" stroke="red" points="594,-200.5 594,-221.5 732,-221.5 732,-200.5 594,-200.5"/>
<text text-anchor="middle" x="663" y="-208.5" font-family="Helvetica,sans-Serif" font-size="10.00">fwServices::ut::TestService</text>
</a>
</g>
<!-- Node1&#45;&gt;Node44 -->
<g id="edge86" class="edge"><title>Node1&#45;&gt;Node44</title>
<path fill="none" stroke="midnightblue" d="M509.178,-379.696C519.3,-344.154 545.114,-270.677 594,-231 598.745,-227.149 604.202,-224.039 609.924,-221.528"/>
<polygon fill="midnightblue" stroke="midnightblue" points="505.778,-378.862 506.532,-389.43 512.533,-380.698 505.778,-378.862"/>
</g>
<!-- Node45 -->
<g id="node89" class="node"><title>Node45</title>
<a xlink:href="classgui_1_1editor_1_1IDialogEditor.html" target="_top" xlink:title="Defines the service interface managing the editor service which create their own container. ">
<polygon fill="white" stroke="red" points="602,-160.5 602,-181.5 724,-181.5 724,-160.5 602,-160.5"/>
<text text-anchor="middle" x="663" y="-168.5" font-family="Helvetica,sans-Serif" font-size="10.00">gui::editor::IDialogEditor</text>
</a>
</g>
<!-- Node1&#45;&gt;Node45 -->
<g id="edge88" class="edge"><title>Node1&#45;&gt;Node45</title>
<path fill="none" stroke="midnightblue" d="M506.944,-379.401C514.025,-337.557 535.939,-242.247 594,-191 598.301,-187.203 603.285,-184.125 608.566,-181.63"/>
<polygon fill="midnightblue" stroke="midnightblue" points="503.454,-379.064 505.354,-389.487 510.369,-380.154 503.454,-379.064"/>
</g>
<!-- Node46 -->
<g id="node91" class="node"><title>Node46</title>
<a xlink:href="classio_1_1IReader.html" target="_top" xlink:title="Reader service API. It manages extension points definition and extension configurationThis class repr...">
<polygon fill="white" stroke="red" points="630.5,-120.5 630.5,-141.5 695.5,-141.5 695.5,-120.5 630.5,-120.5"/>
<text text-anchor="middle" x="663" y="-128.5" font-family="Helvetica,sans-Serif" font-size="10.00">io::IReader</text>
</a>
</g>
<!-- Node1&#45;&gt;Node46 -->
<g id="edge90" class="edge"><title>Node1&#45;&gt;Node46</title>
<path fill="none" stroke="midnightblue" d="M505.321,-379.461C509.492,-332.068 526.47,-214.296 594,-151 603.828,-141.788 617.644,-136.789 630.334,-134.088"/>
<polygon fill="midnightblue" stroke="midnightblue" points="501.831,-379.197 504.545,-389.438 508.81,-379.739 501.831,-379.197"/>
</g>
<!-- Node47 -->
<g id="node93" class="node"><title>Node47</title>
<a xlink:href="classio_1_1IWriter.html" target="_top" xlink:title="Writer service API. It manages extension points definition and extension configurationThis class repr...">
<polygon fill="white" stroke="red" points="633.5,-80.5 633.5,-101.5 692.5,-101.5 692.5,-80.5 633.5,-80.5"/>
<text text-anchor="middle" x="663" y="-88.5" font-family="Helvetica,sans-Serif" font-size="10.00">io::IWriter</text>
</a>
</g>
<!-- Node1&#45;&gt;Node47 -->
<g id="edge92" class="edge"><title>Node1&#45;&gt;Node47</title>
<path fill="none" stroke="midnightblue" d="M507.862,-379.074C519.289,-319.302 554.606,-149.623 594,-111 604.42,-100.784 619.728,-95.7286 633.28,-93.2505"/>
<polygon fill="midnightblue" stroke="midnightblue" points="504.367,-378.722 505.956,-389.197 511.246,-380.017 504.367,-378.722"/>
</g>
<!-- Node48 -->
<g id="node95" class="node"><title>Node48</title>
<a xlink:href="classopVTKMesh_1_1IMesher.html" target="_top" xlink:title="This interface defines mesher service API. ">
<polygon fill="white" stroke="red" points="607,-40.5 607,-61.5 719,-61.5 719,-40.5 607,-40.5"/>
<text text-anchor="middle" x="663" y="-48.5" font-family="Helvetica,sans-Serif" font-size="10.00">opVTKMesh::IMesher</text>
</a>
</g>
<!-- Node1&#45;&gt;Node48 -->
<g id="edge94" class="edge"><title>Node1&#45;&gt;Node48</title>
<path fill="none" stroke="midnightblue" d="M506.991,-379.257C516.766,-314.223 549.702,-115.972 594,-71 597.764,-67.1792 602.209,-64.0777 607.002,-61.5616"/>
<polygon fill="midnightblue" stroke="midnightblue" points="503.482,-379.065 505.484,-389.469 510.407,-380.087 503.482,-379.065"/>
</g>
<!-- Node49 -->
<g id="node97" class="node"><title>Node49</title>
<a xlink:href="classscene2D_1_1adaptor_1_1IAdaptor.html" target="_top" xlink:title="Root class for all scene2D adaptors. ">
<polygon fill="white" stroke="red" points="594.5,-0.5 594.5,-21.5 731.5,-21.5 731.5,-0.5 594.5,-0.5"/>
<text text-anchor="middle" x="663" y="-8.5" font-family="Helvetica,sans-Serif" font-size="10.00">scene2D::adaptor::IAdaptor</text>
</a>
</g>
<!-- Node1&#45;&gt;Node49 -->
<g id="edge96" class="edge"><title>Node1&#45;&gt;Node49</title>
<path fill="none" stroke="midnightblue" d="M506.354,-379.071C514.671,-308.721 544.848,-82.3071 594,-31 597.624,-27.2174 601.916,-24.1376 606.559,-21.6318"/>
<polygon fill="midnightblue" stroke="midnightblue" points="502.842,-378.976 505.169,-389.312 509.795,-379.781 502.842,-378.976"/>
</g>
<!-- Node2 -->
<g id="node2" class="node"><title>Node2</title>
<a xlink:href="classfwTools_1_1Object.html" target="_top" xlink:title="Define Base class for FW4SPL objects and services. ">
<polygon fill="white" stroke="black" points="319,-429.5 319,-450.5 405,-450.5 405,-429.5 319,-429.5"/>
<text text-anchor="middle" x="362" y="-437.5" font-family="Helvetica,sans-Serif" font-size="10.00">fwTools::Object</text>
</a>
</g>
<!-- Node2&#45;&gt;Node1 -->
<g id="edge2" class="edge"><title>Node2&#45;&gt;Node1</title>
<path fill="none" stroke="midnightblue" d="M409.084,-426.737C427.727,-421.485 448.862,-415.532 466.447,-410.578"/>
<polygon fill="midnightblue" stroke="midnightblue" points="407.985,-423.41 399.309,-429.49 409.883,-430.148 407.985,-423.41"/>
</g>
<!-- Node3 -->
<g id="node4" class="node"><title>Node3</title>
<a xlink:href="classfwCore_1_1BaseObject.html" target="_top" xlink:title="Base class for all FW4SPL&#39;s classes. ">
<polygon fill="white" stroke="black" points="168.5,-449.5 168.5,-470.5 273.5,-470.5 273.5,-449.5 168.5,-449.5"/>
<text text-anchor="middle" x="221" y="-457.5" font-family="Helvetica,sans-Serif" font-size="10.00">fwCore::BaseObject</text>
</a>
</g>
<!-- Node3&#45;&gt;Node2 -->
<g id="edge4" class="edge"><title>Node3&#45;&gt;Node2</title>
<path fill="none" stroke="midnightblue" d="M283.757,-451.098C295.55,-449.426 307.635,-447.711 318.671,-446.146"/>
<polygon fill="midnightblue" stroke="midnightblue" points="282.913,-447.683 273.503,-452.553 283.896,-454.614 282.913,-447.683"/>
</g>
<!-- Node4 -->
<g id="node6" class="node"><title>Node4</title>
<polygon fill="white" stroke="#bfbfbf" points="0.5,-443 0.5,-477 131.5,-477 131.5,-443 0.5,-443"/>
<text text-anchor="start" x="8.5" y="-464" font-family="Helvetica,sans-Serif" font-size="10.00">std::enable_shared</text>
<text text-anchor="middle" x="66" y="-451" font-family="Helvetica,sans-Serif" font-size="10.00">_from_this&lt; BaseObject &gt;</text>
</g>
<!-- Node4&#45;&gt;Node3 -->
<g id="edge6" class="edge"><title>Node4&#45;&gt;Node3</title>
<path fill="none" stroke="midnightblue" d="M141.815,-460C150.778,-460 159.771,-460 168.315,-460"/>
<polygon fill="midnightblue" stroke="midnightblue" points="141.734,-456.5 131.734,-460 141.734,-463.5 141.734,-456.5"/>
</g>
<!-- Node5 -->
<g id="node8" class="node"><title>Node5</title>
<a xlink:href="classfwTools_1_1fwID.html" target="_top" xlink:title="Defines ID for fwTools::Object. It is used to associate ID with object. ">
<polygon fill="white" stroke="black" points="182,-409.5 182,-430.5 260,-430.5 260,-409.5 182,-409.5"/>
<text text-anchor="middle" x="221" y="-417.5" font-family="Helvetica,sans-Serif" font-size="10.00">fwTools::fwID</text>
</a>
</g>
<!-- Node5&#45;&gt;Node2 -->
<g id="edge8" class="edge"><title>Node5&#45;&gt;Node2</title>
<path fill="none" stroke="darkgreen" d="M270.417,-427.009C286.248,-429.255 303.641,-431.722 318.977,-433.897"/>
<polygon fill="darkgreen" stroke="darkgreen" points="270.669,-423.51 260.276,-425.571 269.686,-430.441 270.669,-423.51"/>
</g>
<!-- Node6 -->
<g id="node10" class="node"><title>Node6</title>
<a xlink:href="classfwCom_1_1HasSlots.html" target="_top" xlink:title="This class proposes a mapping between a SlotKeyType and a SlotBase. ">
<polygon fill="white" stroke="black" points="314.5,-389.5 314.5,-410.5 409.5,-410.5 409.5,-389.5 314.5,-389.5"/>
<text text-anchor="middle" x="362" y="-397.5" font-family="Helvetica,sans-Serif" font-size="10.00">fwCom::HasSlots</text>
</a>
</g>
<!-- Node6&#45;&gt;Node1 -->
<g id="edge10" class="edge"><title>Node6&#45;&gt;Node1</title>
<path fill="none" stroke="midnightblue" d="M419.975,-400C430.014,-400 440.412,-400 450.33,-400"/>
<polygon fill="midnightblue" stroke="midnightblue" points="419.679,-396.5 409.679,-400 419.679,-403.5 419.679,-396.5"/>
</g>
<!-- Node7 -->
<g id="node12" class="node"><title>Node7</title>
<a xlink:href="classfwCom_1_1HasSignals.html" target="_top" xlink:title="This class proposes a mapping between a SignalKeyType and a SignalBase. ">
<polygon fill="white" stroke="black" points="310,-349.5 310,-370.5 414,-370.5 414,-349.5 310,-349.5"/>
<text text-anchor="middle" x="362" y="-357.5" font-family="Helvetica,sans-Serif" font-size="10.00">fwCom::HasSignals</text>
</a>
</g>
<!-- Node7&#45;&gt;Node1 -->
<g id="edge12" class="edge"><title>Node7&#45;&gt;Node1</title>
<path fill="none" stroke="midnightblue" d="M409.084,-373.263C427.727,-378.515 448.862,-384.468 466.447,-389.422"/>
<polygon fill="midnightblue" stroke="midnightblue" points="409.883,-369.852 399.309,-370.51 407.985,-376.59 409.883,-369.852"/>
</g>
<!-- Node9 -->
<g id="node17" class="node"><title>Node9</title>
<a xlink:href="classctrlMemory_1_1manager_1_1LockDumpManagerSrv.html" target="_top" xlink:title="This service allows to lock an object for dump when it is contained in the composite. ">
<polygon fill="white" stroke="black" points="788,-1272 788,-1306 910,-1306 910,-1272 788,-1272"/>
<text text-anchor="start" x="796" y="-1293" font-family="Helvetica,sans-Serif" font-size="10.00">ctrlMemory::manager</text>
<text text-anchor="middle" x="849" y="-1280" font-family="Helvetica,sans-Serif" font-size="10.00">::LockDumpManagerSrv</text>
</a>
</g>
<!-- Node8&#45;&gt;Node9 -->
<g id="edge16" class="edge"><title>Node8&#45;&gt;Node9</title>
<path fill="none" stroke="midnightblue" d="M691.282,-1226.45C712.121,-1237.47 741.353,-1252.2 768,-1263 775.665,-1266.11 783.852,-1269.1 791.967,-1271.88"/>
<polygon fill="midnightblue" stroke="midnightblue" points="692.807,-1223.29 682.338,-1221.67 689.51,-1229.47 692.807,-1223.29"/>
</g>
<!-- Node10 -->
<g id="node19" class="node"><title>Node10</title>
<a xlink:href="classctrlSelection_1_1manager_1_1SField.html" target="_top" xlink:title="This services is a manager which starts, stops or swaps services on field contained in a composite wh...">
<polygon fill="white" stroke="black" points="792,-1220 792,-1254 906,-1254 906,-1220 792,-1220"/>
<text text-anchor="start" x="800" y="-1241" font-family="Helvetica,sans-Serif" font-size="10.00">ctrlSelection::manager</text>
<text text-anchor="middle" x="849" y="-1228" font-family="Helvetica,sans-Serif" font-size="10.00">::SField</text>
</a>
</g>
<!-- Node8&#45;&gt;Node10 -->
<g id="edge18" class="edge"><title>Node8&#45;&gt;Node10</title>
<path fill="none" stroke="midnightblue" d="M739.307,-1221.67C756.837,-1224.12 775.184,-1226.68 791.748,-1229"/>
<polygon fill="midnightblue" stroke="midnightblue" points="739.489,-1218.16 729.1,-1220.24 738.52,-1225.09 739.489,-1218.16"/>
</g>
<!-- Node11 -->
<g id="node21" class="node"><title>Node11</title>
<a xlink:href="classctrlSelection_1_1manager_1_1SwapperSrv.html" target="_top" xlink:title="This services is a manager which starts, stops or swaps services on object contained in a composite w...">
<polygon fill="white" stroke="black" points="792,-1168 792,-1202 906,-1202 906,-1168 792,-1168"/>
<text text-anchor="start" x="800" y="-1189" font-family="Helvetica,sans-Serif" font-size="10.00">ctrlSelection::manager</text>
<text text-anchor="middle" x="849" y="-1176" font-family="Helvetica,sans-Serif" font-size="10.00">::SwapperSrv</text>
</a>
</g>
<!-- Node8&#45;&gt;Node11 -->
<g id="edge20" class="edge"><title>Node8&#45;&gt;Node11</title>
<path fill="none" stroke="midnightblue" d="M739.307,-1200.33C756.837,-1197.88 775.184,-1195.32 791.748,-1193"/>
<polygon fill="midnightblue" stroke="midnightblue" points="738.52,-1196.91 729.1,-1201.76 739.489,-1203.84 738.52,-1196.91"/>
</g>
<!-- Node13 -->
<g id="node25" class="node"><title>Node13</title>
<a xlink:href="classctrlSelection_1_1updater_1_1SDrop.html" target="_top" xlink:title="Drop received object to associated fwData::Composite. ">
<polygon fill="white" stroke="black" points="794.5,-1116 794.5,-1150 903.5,-1150 903.5,-1116 794.5,-1116"/>
<text text-anchor="start" x="802.5" y="-1137" font-family="Helvetica,sans-Serif" font-size="10.00">ctrlSelection::updater</text>
<text text-anchor="middle" x="849" y="-1124" font-family="Helvetica,sans-Serif" font-size="10.00">::SDrop</text>
</a>
</g>
<!-- Node12&#45;&gt;Node13 -->
<g id="edge24" class="edge"><title>Node12&#45;&gt;Node13</title>
<path fill="none" stroke="midnightblue" d="M681.944,-1046.12C702.04,-1063.51 735.338,-1090.21 768,-1107 776.276,-1111.25 785.384,-1114.99 794.413,-1118.2"/>
<polygon fill="midnightblue" stroke="midnightblue" points="684.248,-1043.48 674.426,-1039.51 679.626,-1048.74 684.248,-1043.48"/>
</g>
<!-- Node14 -->
<g id="node27" class="node"><title>Node14</title>
<a xlink:href="classctrlSelection_1_1updater_1_1SObjFromSlot.html" target="_top" xlink:title="Updates the composite from object given from slots. ">
<polygon fill="white" stroke="black" points="794.5,-1064 794.5,-1098 903.5,-1098 903.5,-1064 794.5,-1064"/>
<text text-anchor="start" x="802.5" y="-1085" font-family="Helvetica,sans-Serif" font-size="10.00">ctrlSelection::updater</text>
<text text-anchor="middle" x="849" y="-1072" font-family="Helvetica,sans-Serif" font-size="10.00">::SObjFromSlot</text>
</a>
</g>
<!-- Node12&#45;&gt;Node14 -->
<g id="edge26" class="edge"><title>Node12&#45;&gt;Node14</title>
<path fill="none" stroke="midnightblue" d="M710.495,-1042.28C736.119,-1049.44 767.861,-1058.32 794.49,-1065.76"/>
<polygon fill="midnightblue" stroke="midnightblue" points="711.213,-1038.84 700.64,-1039.52 709.328,-1045.59 711.213,-1038.84"/>
</g>
<!-- Node15 -->
<g id="node29" class="node"><title>Node15</title>
<a xlink:href="classctrlSelection_1_1updater_1_1SObjFromUid.html" target="_top" xlink:title="Updates the composite from object given by uid. The objects is added/swapped/removed from composite w...">
<polygon fill="white" stroke="black" points="794.5,-1012 794.5,-1046 903.5,-1046 903.5,-1012 794.5,-1012"/>
<text text-anchor="start" x="802.5" y="-1033" font-family="Helvetica,sans-Serif" font-size="10.00">ctrlSelection::updater</text>
<text text-anchor="middle" x="849" y="-1020" font-family="Helvetica,sans-Serif" font-size="10.00">::SObjFromUid</text>
</a>
</g>
<!-- Node12&#45;&gt;Node15 -->
<g id="edge28" class="edge"><title>Node12&#45;&gt;Node15</title>
<path fill="none" stroke="midnightblue" d="M737.648,-1029C756.637,-1029 776.69,-1029 794.466,-1029"/>
<polygon fill="midnightblue" stroke="midnightblue" points="737.532,-1025.5 727.532,-1029 737.532,-1032.5 737.532,-1025.5"/>
</g>
<!-- Node16 -->
<g id="node31" class="node"><title>Node16</title>
<a xlink:href="classctrlSelection_1_1updater_1_1STranslate.html" target="_top" xlink:title="Update the composite related to this service according to the receiving composite signals and transla...">
<polygon fill="white" stroke="black" points="794.5,-960 794.5,-994 903.5,-994 903.5,-960 794.5,-960"/>
<text text-anchor="start" x="802.5" y="-981" font-family="Helvetica,sans-Serif" font-size="10.00">ctrlSelection::updater</text>
<text text-anchor="middle" x="849" y="-968" font-family="Helvetica,sans-Serif" font-size="10.00">::STranslate</text>
</a>
</g>
<!-- Node12&#45;&gt;Node16 -->
<g id="edge30" class="edge"><title>Node12&#45;&gt;Node16</title>
<path fill="none" stroke="midnightblue" d="M710.495,-1015.72C736.119,-1008.56 767.861,-999.684 794.49,-992.239"/>
<polygon fill="midnightblue" stroke="midnightblue" points="709.328,-1012.41 700.64,-1018.48 711.213,-1019.16 709.328,-1012.41"/>
</g>
<!-- Node18 -->
<g id="node35" class="node"><title>Node18</title>
<a xlink:href="classctrlSelection_1_1wrapper_1_1SImageSignalForwarder.html" target="_top" xlink:title="This service forwards signals from an image ti another. ">
<polygon fill="white" stroke="black" points="785.5,-908 785.5,-942 912.5,-942 912.5,-908 785.5,-908"/>
<text text-anchor="start" x="793.5" y="-929" font-family="Helvetica,sans-Serif" font-size="10.00">ctrlSelection::wrapper</text>
<text text-anchor="middle" x="849" y="-916" font-family="Helvetica,sans-Serif" font-size="10.00">::SImageSignalForwarder</text>
</a>
</g>
<!-- Node17&#45;&gt;Node18 -->
<g id="edge34" class="edge"><title>Node17&#45;&gt;Node18</title>
<path fill="none" stroke="midnightblue" d="M734.43,-905.289C751.161,-908.168 768.878,-911.216 785.249,-914.032"/>
<polygon fill="midnightblue" stroke="midnightblue" points="734.61,-901.769 724.161,-903.522 733.423,-908.667 734.61,-901.769"/>
</g>
<!-- Node20 -->
<g id="node39" class="node"><title>Node20</title>
<a xlink:href="classfwComEd_1_1ut_1_1TestServiceImplementationComposite.html" target="_top" xlink:title="Test service implementation for composite. ">
<polygon fill="white" stroke="black" points="782.5,-856 782.5,-890 915.5,-890 915.5,-856 782.5,-856"/>
<text text-anchor="start" x="790.5" y="-877" font-family="Helvetica,sans-Serif" font-size="10.00">fwComEd::ut::TestService</text>
<text text-anchor="middle" x="849" y="-864" font-family="Helvetica,sans-Serif" font-size="10.00">ImplementationComposite</text>
</a>
</g>
<!-- Node19&#45;&gt;Node20 -->
<g id="edge38" class="edge"><title>Node19&#45;&gt;Node20</title>
<path fill="none" stroke="midnightblue" d="M710.404,-834.253C733.988,-840.846 762.772,-848.893 787.984,-855.942"/>
<polygon fill="midnightblue" stroke="midnightblue" points="711.213,-830.845 700.64,-831.523 709.328,-837.586 711.213,-830.845"/>
</g>
<!-- Node21 -->
<g id="node41" class="node"><title>Node21</title>
<a xlink:href="classfwComEd_1_1ut_1_1TestServiceImplementationImage.html" target="_top" xlink:title="Test service implementation for image. ">
<polygon fill="white" stroke="black" points="782.5,-804 782.5,-838 915.5,-838 915.5,-804 782.5,-804"/>
<text text-anchor="start" x="790.5" y="-825" font-family="Helvetica,sans-Serif" font-size="10.00">fwComEd::ut::TestService</text>
<text text-anchor="middle" x="849" y="-812" font-family="Helvetica,sans-Serif" font-size="10.00">ImplementationImage</text>
</a>
</g>
<!-- Node19&#45;&gt;Node21 -->
<g id="edge40" class="edge"><title>Node19&#45;&gt;Node21</title>
<path fill="none" stroke="midnightblue" d="M739.771,-821C753.855,-821 768.452,-821 782.215,-821"/>
<polygon fill="midnightblue" stroke="midnightblue" points="739.625,-817.5 729.625,-821 739.625,-824.5 739.625,-817.5"/>
</g>
<!-- Node23 -->
<g id="node45" class="node"><title>Node23</title>
<a xlink:href="classactivities_1_1action_1_1SActivityLauncher.html" target="_top" xlink:title="This action launchs an activity according to the selected data. ">
<polygon fill="white" stroke="black" points="798,-752 798,-786 900,-786 900,-752 798,-752"/>
<text text-anchor="start" x="806" y="-773" font-family="Helvetica,sans-Serif" font-size="10.00">activities::action</text>
<text text-anchor="middle" x="849" y="-760" font-family="Helvetica,sans-Serif" font-size="10.00">::SActivityLauncher</text>
</a>
</g>
<!-- Node22&#45;&gt;Node23 -->
<g id="edge44" class="edge"><title>Node22&#45;&gt;Node23</title>
<path fill="none" stroke="midnightblue" d="M675.058,-642.438C692.44,-668.905 726.995,-716.06 768,-743 777.011,-748.92 787.469,-753.578 797.817,-757.212"/>
<polygon fill="midnightblue" stroke="midnightblue" points="677.797,-640.226 669.451,-633.699 671.905,-644.006 677.797,-640.226"/>
</g>
<!-- Node24 -->
<g id="node47" class="node"><title>Node24</title>
<a xlink:href="classgui_1_1action_1_1SConfigLauncher.html" target="_top" xlink:title="To manage configuration file defines in xml extension. ">
<polygon fill="white" stroke="black" points="777.5,-712.5 777.5,-733.5 920.5,-733.5 920.5,-712.5 777.5,-712.5"/>
<text text-anchor="middle" x="849" y="-720.5" font-family="Helvetica,sans-Serif" font-size="10.00">gui::action::SConfigLauncher</text>
</a>
</g>
<!-- Node22&#45;&gt;Node24 -->
<g id="edge46" class="edge"><title>Node22&#45;&gt;Node24</title>
<path fill="none" stroke="midnightblue" d="M680.991,-640.456C700.758,-658.682 734.21,-686.82 768,-703 775.839,-706.753 784.452,-709.846 793.047,-712.381"/>
<polygon fill="midnightblue" stroke="midnightblue" points="683.319,-637.841 673.635,-633.544 678.526,-642.942 683.319,-637.841"/>
</g>
<!-- Node25 -->
<g id="node49" class="node"><title>Node25</title>
<a xlink:href="classgui_1_1action_1_1SDoNothing.html" target="_top" xlink:title="This action does nothing. ">
<polygon fill="white" stroke="black" points="788.5,-672.5 788.5,-693.5 909.5,-693.5 909.5,-672.5 788.5,-672.5"/>
<text text-anchor="middle" x="849" y="-680.5" font-family="Helvetica,sans-Serif" font-size="10.00">gui::action::SDoNothing</text>
</a>
</g>
<!-- Node22&#45;&gt;Node25 -->
<g id="edge48" class="edge"><title>Node22&#45;&gt;Node25</title>
<path fill="none" stroke="midnightblue" d="M697.604,-637.403C717.899,-645.542 744.16,-655.546 768,-663 778.922,-666.415 790.816,-669.626 802.043,-672.435"/>
<polygon fill="midnightblue" stroke="midnightblue" points="698.74,-634.087 688.157,-633.577 696.112,-640.575 698.74,-634.087"/>
</g>
<!-- Node26 -->
<g id="node51" class="node"><title>Node26</title>
<a xlink:href="classgui_1_1action_1_1SModifyLayout.html" target="_top" xlink:title="This action is used to modify the layout configuration. ">
<polygon fill="white" stroke="black" points="782.5,-632.5 782.5,-653.5 915.5,-653.5 915.5,-632.5 782.5,-632.5"/>
<text text-anchor="middle" x="849" y="-640.5" font-family="Helvetica,sans-Serif" font-size="10.00">gui::action::SModifyLayout</text>
</a>
</g>
<!-- Node22&#45;&gt;Node26 -->
<g id="edge50" class="edge"><title>Node22&#45;&gt;Node26</title>
<path fill="none" stroke="midnightblue" d="M720.419,-629.174C740.021,-631.282 762.107,-633.657 782.372,-635.836"/>
<polygon fill="midnightblue" stroke="midnightblue" points="720.734,-625.688 710.417,-628.099 719.985,-632.648 720.734,-625.688"/>
</g>
<!-- Node27 -->
<g id="node53" class="node"><title>Node27</title>
<a xlink:href="classgui_1_1action_1_1SPushObject.html" target="_top" xlink:title="To add or remove object in composite with specific key. ">
<polygon fill="white" stroke="black" points="786.5,-592.5 786.5,-613.5 911.5,-613.5 911.5,-592.5 786.5,-592.5"/>
<text text-anchor="middle" x="849" y="-600.5" font-family="Helvetica,sans-Serif" font-size="10.00">gui::action::SPushObject</text>
</a>
</g>
<!-- Node22&#45;&gt;Node27 -->
<g id="edge52" class="edge"><title>Node22&#45;&gt;Node27</title>
<path fill="none" stroke="midnightblue" d="M720.405,-616.827C741.258,-614.585 764.923,-612.04 786.217,-609.751"/>
<polygon fill="midnightblue" stroke="midnightblue" points="719.985,-613.352 710.417,-617.901 720.734,-620.312 719.985,-613.352"/>
</g>
<!-- Node28 -->
<g id="node55" class="node"><title>Node28</title>
<a xlink:href="classgui_1_1action_1_1SQuit.html" target="_top" xlink:title="This action tries to close the window and reset root object. ">
<polygon fill="white" stroke="black" points="803,-552.5 803,-573.5 895,-573.5 895,-552.5 803,-552.5"/>
<text text-anchor="middle" x="849" y="-560.5" font-family="Helvetica,sans-Serif" font-size="10.00">gui::action::SQuit</text>
</a>
</g>
<!-- Node22&#45;&gt;Node28 -->
<g id="edge54" class="edge"><title>Node22&#45;&gt;Node28</title>
<path fill="none" stroke="midnightblue" d="M714.906,-609.331C720.739,-607.39 726.542,-605.273 732,-603 748.897,-595.963 750.966,-589.697 768,-583 779.054,-578.654 791.337,-575.04 802.928,-572.136"/>
<polygon fill="midnightblue" stroke="midnightblue" points="713.596,-606.074 705.118,-612.428 715.708,-612.748 713.596,-606.074"/>
</g>
<!-- Node29 -->
<g id="node57" class="node"><title>Node29</title>
<a xlink:href="classgui_1_1action_1_1SSignal.html" target="_top" xlink:title="Simple Signal service. ">
<polygon fill="white" stroke="black" points="798.5,-512.5 798.5,-533.5 899.5,-533.5 899.5,-512.5 798.5,-512.5"/>
<text text-anchor="middle" x="849" y="-520.5" font-family="Helvetica,sans-Serif" font-size="10.00">gui::action::SSignal</text>
</a>
</g>
<!-- Node22&#45;&gt;Node29 -->
<g id="edge56" class="edge"><title>Node22&#45;&gt;Node29</title>
<path fill="none" stroke="midnightblue" d="M719.517,-610.581C723.954,-608.443 728.186,-605.937 732,-603 756.639,-584.025 742.986,-561.478 768,-543 776.855,-536.459 787.591,-532.039 798.311,-529.057"/>
<polygon fill="midnightblue" stroke="midnightblue" points="718.069,-607.393 710.188,-614.474 720.764,-613.853 718.069,-607.393"/>
</g>
<!-- Node30 -->
<g id="node59" class="node"><title>Node30</title>
<a xlink:href="classgui_1_1action_1_1SSlotCaller.html" target="_top" xlink:title="Run a slot given by HasSlot id and slot key. ">
<polygon fill="white" stroke="red" points="790.5,-472.5 790.5,-493.5 907.5,-493.5 907.5,-472.5 790.5,-472.5"/>
<text text-anchor="middle" x="849" y="-480.5" font-family="Helvetica,sans-Serif" font-size="10.00">gui::action::SSlotCaller</text>
</a>
</g>
<!-- Node22&#45;&gt;Node30 -->
<g id="edge58" class="edge"><title>Node22&#45;&gt;Node30</title>
<path fill="none" stroke="midnightblue" d="M719.777,-611.565C724.222,-609.218 728.382,-606.395 732,-603 766.444,-570.675 732.916,-534.629 768,-503 774.347,-497.278 782.071,-493.131 790.2,-490.137"/>
<polygon fill="midnightblue" stroke="midnightblue" points="718.061,-608.497 710.332,-615.744 720.893,-614.899 718.061,-608.497"/>
</g>
<!-- Node31 -->
<g id="node61" class="node"><title>Node31</title>
<a xlink:href="classgui_1_1action_1_1SStarter.html" target="_top" xlink:title="Apply an action (start, stop, ...) on a service specify by uid.This action works on a fwData::Object...">
<polygon fill="white" stroke="black" points="797,-432.5 797,-453.5 901,-453.5 901,-432.5 797,-432.5"/>
<text text-anchor="middle" x="849" y="-440.5" font-family="Helvetica,sans-Serif" font-size="10.00">gui::action::SStarter</text>
</a>
</g>
<!-- Node22&#45;&gt;Node31 -->
<g id="edge60" class="edge"><title>Node22&#45;&gt;Node31</title>
<path fill="none" stroke="midnightblue" d="M719.376,-612.329C724.035,-609.831 728.349,-606.764 732,-603 776.733,-556.885 722.353,-508.21 768,-463 775.822,-455.253 786.138,-450.344 796.779,-447.269"/>
<polygon fill="midnightblue" stroke="midnightblue" points="717.789,-609.204 710.073,-616.464 720.632,-615.601 717.789,-609.204"/>
</g>
<!-- Node32 -->
<g id="node63" class="node"><title>Node32</title>
<a xlink:href="classioData_1_1action_1_1SMeshModifier.html" target="_top" xlink:title="This action modifies a mesh using specified functor in configuration. The purpose is to test all poss...">
<polygon fill="white" stroke="black" points="774.5,-392.5 774.5,-413.5 923.5,-413.5 923.5,-392.5 774.5,-392.5"/>
<text text-anchor="middle" x="849" y="-400.5" font-family="Helvetica,sans-Serif" font-size="10.00">ioData::action::SMeshModifier</text>
</a>
</g>
<!-- Node22&#45;&gt;Node32 -->
<g id="edge62" class="edge"><title>Node22&#45;&gt;Node32</title>
<path fill="none" stroke="midnightblue" d="M719.593,-612.534C724.208,-609.995 728.452,-606.862 732,-603 787.194,-542.92 711.614,-481.963 768,-423 771.604,-419.231 775.796,-416.127 780.34,-413.575"/>
<polygon fill="midnightblue" stroke="midnightblue" points="718.011,-609.408 710.344,-616.72 720.898,-615.785 718.011,-609.408"/>
</g>
<!-- Node33 -->
<g id="node65" class="node"><title>Node33</title>
<a xlink:href="classmonitor_1_1action_1_1ClassFactoryRegistryInfo.html" target="_top" xlink:title="Implements an action to show services registered in factory. ">
<polygon fill="white" stroke="black" points="776,-340 776,-374 922,-374 922,-340 776,-340"/>
<text text-anchor="start" x="784" y="-361" font-family="Helvetica,sans-Serif" font-size="10.00">monitor::action::ClassFactory</text>
<text text-anchor="middle" x="849" y="-348" font-family="Helvetica,sans-Serif" font-size="10.00">RegistryInfo</text>
</a>
</g>
<!-- Node22&#45;&gt;Node33 -->
<g id="edge64" class="edge"><title>Node22&#45;&gt;Node33</title>
<path fill="none" stroke="midnightblue" d="M719.537,-612.775C724.201,-610.19 728.47,-606.981 732,-603 797.735,-528.869 703.327,-458.06 768,-383 770.892,-379.643 774.219,-376.716 777.838,-374.164"/>
<polygon fill="midnightblue" stroke="midnightblue" points="717.838,-609.701 710.171,-617.013 720.725,-616.079 717.838,-609.701"/>
</g>
<!-- Node34 -->
<g id="node67" class="node"><title>Node34</title>
<a xlink:href="classmonitor_1_1action_1_1ComponentsTree.html" target="_top" xlink:title="Implements an action that show bundle information. ">
<polygon fill="white" stroke="black" points="768,-300.5 768,-321.5 930,-321.5 930,-300.5 768,-300.5"/>
<text text-anchor="middle" x="849" y="-308.5" font-family="Helvetica,sans-Serif" font-size="10.00">monitor::action::ComponentsTree</text>
</a>
</g>
<!-- Node22&#45;&gt;Node34 -->
<g id="edge66" class="edge"><title>Node22&#45;&gt;Node34</title>
<path fill="none" stroke="midnightblue" d="M719.665,-612.886C724.303,-610.279 728.532,-607.034 732,-603 811.499,-510.533 686.666,-421.856 768,-331 771.381,-327.223 775.352,-324.104 779.688,-321.536"/>
<polygon fill="midnightblue" stroke="midnightblue" points="717.97,-609.812 710.33,-617.153 720.88,-616.179 717.97,-609.812"/>
</g>
</g>
</svg>
        <g id="navigator" transform="translate(0 0)" fill="#404254">
                <rect fill="#f2f5e9" fill-opacity="0.5" stroke="#606060" stroke-width=".5" x="0" y="0" width="60" height="60"/>
                <use id="zoomplus" xlink:href="#zoomPlus" x="17" y="9" onmousedown="handleZoom(evt,'in')"/>
                <use id="zoomminus" xlink:href="#zoomMin" x="42" y="9" onmousedown="handleZoom(evt,'out')"/>
                <use id="reset" xlink:href="#resetDef" x="30" y="36" onmousedown="handleReset()"/>
                <g id="arrowUp" xlink:href="#dirArrow" transform="translate(30 24)" onmousedown="handlePan(0,-1)">
                  <use xlink:href="#rim" fill="#404040">
                        <set attributeName="fill" to="#808080" begin="arrowUp.mouseover" end="arrowUp.mouseout"/>
                  </use>
                  <path fill="none" stroke="white" stroke-width="1.5" d="M0,-3.0v7 M-2.5,-0.5L0,-3.0L2.5,-0.5"/>
                </g>
                <g id="arrowRight" xlink:href="#dirArrow" transform="rotate(90) translate(36 -43)" onmousedown="handlePan(1,0)">
                  <use xlink:href="#rim" fill="#404040">
                        <set attributeName="fill" to="#808080" begin="arrowRight.mouseover" end="arrowRight.mouseout"/>
                  </use>
                  <path fill="none" stroke="white" stroke-width="1.5" d="M0,-3.0v7 M-2.5,-0.5L0,-3.0L2.5,-0.5"/>
                </g>
                <g id="arrowDown" xlink:href="#dirArrow" transform="rotate(180) translate(-30 -48)" onmousedown="handlePan(0,1)">
                  <use xlink:href="#rim" fill="#404040">
                        <set attributeName="fill" to="#808080" begin="arrowDown.mouseover" end="arrowDown.mouseout"/>
                  </use>
                  <path fill="none" stroke="white" stroke-width="1.5" d="M0,-3.0v7 M-2.5,-0.5L0,-3.0L2.5,-0.5"/>
                </g>
                <g id="arrowLeft" xlink:href="#dirArrow" transform="rotate(270) translate(-36 17)" onmousedown="handlePan(-1,0)">
                  <use xlink:href="#rim" fill="#404040">
                        <set attributeName="fill" to="#808080" begin="arrowLeft.mouseover" end="arrowLeft.mouseout"/>
                  </use>
                  <path fill="none" stroke="white" stroke-width="1.5" d="M0,-3.0v7 M-2.5,-0.5L0,-3.0L2.5,-0.5"/>
                </g>
        </g>
        <svg viewBox="0 0 15 15" width="100%" height="30px" preserveAspectRatio="xMaxYMin meet">
         <g id="arrow_out" transform="scale(0.3 0.3)">
          <a xlink:href="classfwServices_1_1IService__inherit__graph_org.svg" target="_base">
           <rect id="button" ry="5" rx="5" y="6" x="6" height="38" width="38"
                fill="#f2f5e9" fill-opacity="0.5" stroke="#606060" stroke-width="1.0"/>
           <path id="arrow"
             d="M 11.500037,31.436501 C 11.940474,20.09759 22.043105,11.32322 32.158766,21.979434 L 37.068811,17.246167 C 37.068811,17.246167 37.088388,32 37.088388,32 L 22.160133,31.978069 C 22.160133,31.978069 26.997745,27.140456 26.997745,27.140456 C 18.528582,18.264221 13.291696,25.230495 11.500037,31.436501 z"
             style="fill:#404040;"/>
          </a>
         </g>
        </svg>
</svg>
