<?xml version="1.0" encoding="UTF-8" standalone="no"?>
<!DOCTYPE svg PUBLIC "-//W3C//DTD SVG 1.1//EN"
 "http://www.w3.org/Graphics/SVG/1.1/DTD/svg11.dtd">
<!-- Generated by graphviz version 2.36.0 (20140111.2315)
 -->
<!-- Title: fwGdcmIO::container::sr::DicomSRImageNode::write Pages: 1 -->
<!--zoomable 230 -->
<svg id="main" version="1.1" xmlns="http://www.w3.org/2000/svg" xmlns:xlink="http://www.w3.org/1999/xlink" xml:space="preserve" onload="init(evt)">
<style type="text/css"><![CDATA[
.edge:hover path { stroke: red; }
.edge:hover polygon { stroke: red; fill: red; }
]]></style>
<script type="text/javascript"><![CDATA[
var edges = document.getElementsByTagName('g');
if (edges && edges.length) {
  for (var i=0;i<edges.length;i++) {
    if (edges[i].id.substr(0,4)=='edge') {
      edges[i].setAttribute('class','edge');
    }
  }
}
]]></script>
        <defs>
                <circle id="rim" cx="0" cy="0" r="7"/>
                <circle id="rim2" cx="0" cy="0" r="3.5"/>
                <g id="zoomPlus">
                        <use xlink:href="#rim" fill="#404040">
                                <set attributeName="fill" to="#808080" begin="zoomplus.mouseover" end="zoomplus.mouseout"/>
                        </use>
                        <path d="M-4,0h8M0,-4v8" fill="none" stroke="white" stroke-width="1.5" pointer-events="none"/>
                </g>
                <g id="zoomMin">
                        <use xlink:href="#rim" fill="#404040">
                                <set attributeName="fill" to="#808080" begin="zoomminus.mouseover" end="zoomminus.mouseout"/>
                        </use>
                        <path d="M-4,0h8" fill="none" stroke="white" stroke-width="1.5" pointer-events="none"/>
                </g>
                <g id="dirArrow">
                        <path fill="none" stroke="white" stroke-width="1.5" d="M0,-3.0v7 M-2.5,-0.5L0,-3.0L2.5,-0.5"/>
                </g>
               <g id="resetDef">
                       <use xlink:href="#rim2" fill="#404040">
                               <set attributeName="fill" to="#808080" begin="reset.mouseover" end="reset.mouseout"/>
                       </use>
               </g>
        </defs>

<script type="text/javascript">
var viewWidth = 728;
var viewHeight = 230;
var sectionId = 'dynsection-2';
</script>
<script xlink:href="svgpan.js"/>
<svg id="graph" class="graph">
<g id="viewport">
<title>fwGdcmIO::container::sr::DicomSRImageNode::write</title>
<polygon fill="white" stroke="none" points="-4,4 -4,-226 724,-226 724,4 -4,4"/>
<!-- Node1 -->
<g id="node1" class="node"><title>Node1</title>
<polygon fill="#bfbfbf" stroke="black" points="0,-79.5 0,-120.5 130,-120.5 130,-79.5 0,-79.5"/>
<text text-anchor="start" x="8" y="-108.5" font-family="Helvetica,sans-Serif" font-size="10.00">fwGdcmIO::container</text>
<text text-anchor="start" x="8" y="-97.5" font-family="Helvetica,sans-Serif" font-size="10.00">::sr::DicomSRImageNode</text>
<text text-anchor="middle" x="65" y="-86.5" font-family="Helvetica,sans-Serif" font-size="10.00">::write</text>
</g>
<!-- Node2 -->
<g id="node2" class="node"><title>Node2</title>
<g id="a_node2"><a xlink:href="classfwGdcmIO_1_1container_1_1sr_1_1DicomSRNode.html#acfec19097b1797c2c3f8f98dad0e03b5" target="_top" xlink:title="Write the SR node in the dataset. ">
<polygon fill="white" stroke="black" points="180,-112 180,-142 310,-142 310,-112 180,-112"/>
<text text-anchor="start" x="188" y="-130" font-family="Helvetica,sans-Serif" font-size="10.00">fwGdcmIO::container</text>
<text text-anchor="middle" x="245" y="-119" font-family="Helvetica,sans-Serif" font-size="10.00">::sr::DicomSRNode::write</text>
</a>
</g>
</g>
<!-- Node1&#45;&gt;Node2 -->
<g id="edge1" class="edge"><title>Node1&#45;&gt;Node2</title>
<path fill="none" stroke="midnightblue" d="M130.011,-109.709C142.957,-111.673 156.671,-113.753 169.929,-115.765"/>
<polygon fill="midnightblue" stroke="midnightblue" points="169.548,-119.247 179.959,-117.286 170.597,-112.326 169.548,-119.247"/>
</g>
<!-- Node9 -->
<g id="node9" class="node"><title>Node9</title>
<g id="a_node9"><a xlink:href="classfwGdcmIO_1_1container_1_1sr_1_1DicomSRImageNode.html#a21ee0a7b898a2af599340a985536f6b4" target="_top" xlink:title="Write a referenced SOP sequence. ">
<polygon fill="white" stroke="black" points="166,-52.5 166,-93.5 324,-93.5 324,-52.5 166,-52.5"/>
<text text-anchor="start" x="174" y="-81.5" font-family="Helvetica,sans-Serif" font-size="10.00">fwGdcmIO::container</text>
<text text-anchor="start" x="174" y="-70.5" font-family="Helvetica,sans-Serif" font-size="10.00">::sr::DicomSRImageNode</text>
<text text-anchor="middle" x="245" y="-59.5" font-family="Helvetica,sans-Serif" font-size="10.00">::writeReferencedSOPSequence</text>
</a>
</g>
</g>
<!-- Node1&#45;&gt;Node9 -->
<g id="edge10" class="edge"><title>Node1&#45;&gt;Node9</title>
<path fill="none" stroke="midnightblue" d="M130.011,-90.2905C138.483,-89.0053 147.285,-87.6703 156.072,-86.3373"/>
<polygon fill="midnightblue" stroke="midnightblue" points="156.608,-89.7963 165.97,-84.8361 155.558,-82.8754 156.608,-89.7963"/>
</g>
<!-- Node3 -->
<g id="node3" class="node"><title>Node3</title>
<g id="a_node3"><a xlink:href="classfwGdcmIO_1_1container_1_1DicomCodedAttribute.html#a3a33360c5dde51422363f97e705b7cc8" target="_top" xlink:title="Get code value. ">
<polygon fill="white" stroke="black" points="587,-180.5 587,-221.5 703,-221.5 703,-180.5 587,-180.5"/>
<text text-anchor="start" x="595" y="-209.5" font-family="Helvetica,sans-Serif" font-size="10.00">fwGdcmIO::container</text>
<text text-anchor="start" x="595" y="-198.5" font-family="Helvetica,sans-Serif" font-size="10.00">::DicomCodedAttribute</text>
<text text-anchor="middle" x="645" y="-187.5" font-family="Helvetica,sans-Serif" font-size="10.00">::getCodeValue</text>
</a>
</g>
</g>
<!-- Node2&#45;&gt;Node3 -->
<g id="edge2" class="edge"><title>Node2&#45;&gt;Node3</title>
<path fill="none" stroke="midnightblue" d="M310.19,-139.499C326.436,-142.632 343.855,-145.964 360,-149 434.122,-162.938 519.223,-178.455 576.791,-188.881"/>
<polygon fill="midnightblue" stroke="midnightblue" points="576.39,-192.365 586.854,-190.702 577.637,-185.477 576.39,-192.365"/>
</g>
<!-- Node4 -->
<g id="node4" class="node"><title>Node4</title>
<g id="a_node4"><a xlink:href="classfwGdcmIO_1_1container_1_1DicomCodedAttribute.html#a10d7bee78cea42befa204e40f9e28a53" target="_top" xlink:title="Get coding scheme designator. ">
<polygon fill="white" stroke="black" points="570,-120.5 570,-161.5 720,-161.5 720,-120.5 570,-120.5"/>
<text text-anchor="start" x="578" y="-149.5" font-family="Helvetica,sans-Serif" font-size="10.00">fwGdcmIO::container</text>
<text text-anchor="start" x="578" y="-138.5" font-family="Helvetica,sans-Serif" font-size="10.00">::DicomCodedAttribute</text>
<text text-anchor="middle" x="645" y="-127.5" font-family="Helvetica,sans-Serif" font-size="10.00">::getCodingSchemeDesignator</text>
</a>
</g>
</g>
<!-- Node2&#45;&gt;Node4 -->
<g id="edge3" class="edge"><title>Node2&#45;&gt;Node4</title>
<path fill="none" stroke="midnightblue" d="M310.205,-129.953C326.45,-130.662 343.866,-131.391 360,-132 427.058,-134.533 503.041,-136.915 559.529,-138.592"/>
<polygon fill="midnightblue" stroke="midnightblue" points="559.744,-142.1 569.843,-138.897 559.951,-135.103 559.744,-142.1"/>
</g>
<!-- Node5 -->
<g id="node5" class="node"><title>Node5</title>
<g id="a_node5"><a xlink:href="classfwGdcmIO_1_1container_1_1sr_1_1DicomSRNode.html#a2db112a4479d6d5815f14b883459088b" target="_top" xlink:title="Create a concept name code sequence. ">
<polygon fill="white" stroke="black" points="360.5,-82.5 360.5,-123.5 533.5,-123.5 533.5,-82.5 360.5,-82.5"/>
<text text-anchor="start" x="368.5" y="-111.5" font-family="Helvetica,sans-Serif" font-size="10.00">fwGdcmIO::container</text>
<text text-anchor="start" x="368.5" y="-100.5" font-family="Helvetica,sans-Serif" font-size="10.00">::sr::DicomSRNode::createConcept</text>
<text text-anchor="middle" x="447" y="-89.5" font-family="Helvetica,sans-Serif" font-size="10.00">NameCodeSequence</text>
</a>
</g>
</g>
<!-- Node2&#45;&gt;Node5 -->
<g id="edge4" class="edge"><title>Node2&#45;&gt;Node5</title>
<path fill="none" stroke="midnightblue" d="M310.107,-119.307C322.853,-117.778 336.497,-116.14 350.042,-114.515"/>
<polygon fill="midnightblue" stroke="midnightblue" points="350.852,-117.943 360.364,-113.276 350.018,-110.993 350.852,-117.943"/>
</g>
<!-- Node8 -->
<g id="node8" class="node"><title>Node8</title>
<g id="a_node8"><a xlink:href="classfwGdcmIO_1_1container_1_1sr_1_1DicomSRNode.html#a0bdc68a423edf388811bcc5966595cf0" target="_top" xlink:title="Write a content sequence. ">
<polygon fill="white" stroke="black" points="365,-22.5 365,-63.5 529,-63.5 529,-22.5 365,-22.5"/>
<text text-anchor="start" x="373" y="-51.5" font-family="Helvetica,sans-Serif" font-size="10.00">fwGdcmIO::container</text>
<text text-anchor="start" x="373" y="-40.5" font-family="Helvetica,sans-Serif" font-size="10.00">::sr::DicomSRNode::writeContent</text>
<text text-anchor="middle" x="447" y="-29.5" font-family="Helvetica,sans-Serif" font-size="10.00">Sequence</text>
</a>
</g>
</g>
<!-- Node2&#45;&gt;Node8 -->
<g id="edge9" class="edge"><title>Node2&#45;&gt;Node8</title>
<path fill="none" stroke="midnightblue" d="M301.599,-111.981C309.313,-109.098 316.989,-105.777 324,-102 342.088,-92.2557 342.038,-82.9739 360,-73 363.402,-71.1109 366.945,-69.3077 370.57,-67.5915"/>
<polygon fill="midnightblue" stroke="midnightblue" points="372.014,-70.7798 379.716,-63.5049 369.158,-64.3887 372.014,-70.7798"/>
</g>
<!-- Node5&#45;&gt;Node3 -->
<g id="edge5" class="edge"><title>Node5&#45;&gt;Node3</title>
<path fill="none" stroke="midnightblue" d="M483.248,-123.649C507.339,-137.439 540.183,-155.616 570,-170 574.32,-172.084 578.818,-174.168 583.366,-176.215"/>
<polygon fill="midnightblue" stroke="midnightblue" points="582.171,-179.514 592.733,-180.352 584.999,-173.11 582.171,-179.514"/>
</g>
<!-- Node5&#45;&gt;Node4 -->
<g id="edge6" class="edge"><title>Node5&#45;&gt;Node4</title>
<path fill="none" stroke="midnightblue" d="M533.683,-119.612C542.346,-121.292 551.139,-122.996 559.785,-124.673"/>
<polygon fill="midnightblue" stroke="midnightblue" points="559.369,-128.157 569.852,-126.624 560.701,-121.285 559.369,-128.157"/>
</g>
<!-- Node6 -->
<g id="node6" class="node"><title>Node6</title>
<g id="a_node6"><a xlink:href="classfwGdcmIO_1_1container_1_1DicomCodedAttribute.html#a4a5c4036825acef2e9fd18936365fc45" target="_top" xlink:title="Get coding scheme version. ">
<polygon fill="white" stroke="black" points="577,-60.5 577,-101.5 713,-101.5 713,-60.5 577,-60.5"/>
<text text-anchor="start" x="585" y="-89.5" font-family="Helvetica,sans-Serif" font-size="10.00">fwGdcmIO::container</text>
<text text-anchor="start" x="585" y="-78.5" font-family="Helvetica,sans-Serif" font-size="10.00">::DicomCodedAttribute</text>
<text text-anchor="middle" x="645" y="-67.5" font-family="Helvetica,sans-Serif" font-size="10.00">::getCodingSchemeVersion</text>
</a>
</g>
</g>
<!-- Node5&#45;&gt;Node6 -->
<g id="edge7" class="edge"><title>Node5&#45;&gt;Node6</title>
<path fill="none" stroke="midnightblue" d="M533.683,-93.3825C544.612,-92.1558 555.748,-90.9058 566.537,-89.6949"/>
<polygon fill="midnightblue" stroke="midnightblue" points="567.209,-93.1415 576.756,-88.5478 566.428,-86.1852 567.209,-93.1415"/>
</g>
<!-- Node7 -->
<g id="node7" class="node"><title>Node7</title>
<g id="a_node7"><a xlink:href="classfwGdcmIO_1_1container_1_1DicomCodedAttribute.html#afd0040d47cf04078289ebb94f6473edc" target="_top" xlink:title="Get code meaning. ">
<polygon fill="white" stroke="black" points="587,-0.5 587,-41.5 703,-41.5 703,-0.5 587,-0.5"/>
<text text-anchor="start" x="595" y="-29.5" font-family="Helvetica,sans-Serif" font-size="10.00">fwGdcmIO::container</text>
<text text-anchor="start" x="595" y="-18.5" font-family="Helvetica,sans-Serif" font-size="10.00">::DicomCodedAttribute</text>
<text text-anchor="middle" x="645" y="-7.5" font-family="Helvetica,sans-Serif" font-size="10.00">::getCodeMeaning</text>
</a>
</g>
</g>
<!-- Node5&#45;&gt;Node7 -->
<g id="edge8" class="edge"><title>Node5&#45;&gt;Node7</title>
<path fill="none" stroke="midnightblue" d="M509.631,-82.3314C517.92,-79.1037 526.235,-75.6273 534,-72 550.782,-64.1602 553.374,-59.1672 570,-51 573.709,-49.1778 577.558,-47.3731 581.464,-45.6066"/>
<polygon fill="midnightblue" stroke="midnightblue" points="582.901,-48.7981 590.642,-41.5638 580.08,-42.3921 582.901,-48.7981"/>
</g>
</g>
</svg>
        <g id="navigator" transform="translate(0 0)" fill="#404254">
                <rect fill="#f2f5e9" fill-opacity="0.5" stroke="#606060" stroke-width=".5" x="0" y="0" width="60" height="60"/>
                <use id="zoomplus" xlink:href="#zoomPlus" x="17" y="9" onmousedown="handleZoom(evt,'in')"/>
                <use id="zoomminus" xlink:href="#zoomMin" x="42" y="9" onmousedown="handleZoom(evt,'out')"/>
                <use id="reset" xlink:href="#resetDef" x="30" y="36" onmousedown="handleReset()"/>
                <g id="arrowUp" xlink:href="#dirArrow" transform="translate(30 24)" onmousedown="handlePan(0,-1)">
                  <use xlink:href="#rim" fill="#404040">
                        <set attributeName="fill" to="#808080" begin="arrowUp.mouseover" end="arrowUp.mouseout"/>
                  </use>
                  <path fill="none" stroke="white" stroke-width="1.5" d="M0,-3.0v7 M-2.5,-0.5L0,-3.0L2.5,-0.5"/>
                </g>
                <g id="arrowRight" xlink:href="#dirArrow" transform="rotate(90) translate(36 -43)" onmousedown="handlePan(1,0)">
                  <use xlink:href="#rim" fill="#404040">
                        <set attributeName="fill" to="#808080" begin="arrowRight.mouseover" end="arrowRight.mouseout"/>
                  </use>
                  <path fill="none" stroke="white" stroke-width="1.5" d="M0,-3.0v7 M-2.5,-0.5L0,-3.0L2.5,-0.5"/>
                </g>
                <g id="arrowDown" xlink:href="#dirArrow" transform="rotate(180) translate(-30 -48)" onmousedown="handlePan(0,1)">
                  <use xlink:href="#rim" fill="#404040">
                        <set attributeName="fill" to="#808080" begin="arrowDown.mouseover" end="arrowDown.mouseout"/>
                  </use>
                  <path fill="none" stroke="white" stroke-width="1.5" d="M0,-3.0v7 M-2.5,-0.5L0,-3.0L2.5,-0.5"/>
                </g>
                <g id="arrowLeft" xlink:href="#dirArrow" transform="rotate(270) translate(-36 17)" onmousedown="handlePan(-1,0)">
                  <use xlink:href="#rim" fill="#404040">
                        <set attributeName="fill" to="#808080" begin="arrowLeft.mouseover" end="arrowLeft.mouseout"/>
                  </use>
                  <path fill="none" stroke="white" stroke-width="1.5" d="M0,-3.0v7 M-2.5,-0.5L0,-3.0L2.5,-0.5"/>
                </g>
        </g>
        <svg viewBox="0 0 15 15" width="100%" height="30px" preserveAspectRatio="xMaxYMin meet">
         <g id="arrow_out" transform="scale(0.3 0.3)">
          <a xlink:href="classfwGdcmIO_1_1container_1_1sr_1_1DicomSRImageNode_a62a17c1df8699d0356a385bc78307b7f_cgraph_org.svg" target="_base">
           <rect id="button" ry="5" rx="5" y="6" x="6" height="38" width="38"
                fill="#f2f5e9" fill-opacity="0.5" stroke="#606060" stroke-width="1.0"/>
           <path id="arrow"
             d="M 11.500037,31.436501 C 11.940474,20.09759 22.043105,11.32322 32.158766,21.979434 L 37.068811,17.246167 C 37.068811,17.246167 37.088388,32 37.088388,32 L 22.160133,31.978069 C 22.160133,31.978069 26.997745,27.140456 26.997745,27.140456 C 18.528582,18.264221 13.291696,25.230495 11.500037,31.436501 z"
             style="fill:#404040;"/>
          </a>
         </g>
        </svg>
</svg>
