<?xml version="1.0" encoding="UTF-8" standalone="no"?>
<!DOCTYPE svg PUBLIC "-//W3C//DTD SVG 1.1//EN"
 "http://www.w3.org/Graphics/SVG/1.1/DTD/svg11.dtd">
<!-- Generated by graphviz version 2.26.3 (20100126.1600)
 -->
<!-- Title: fwCore::util::FactoryRegistryBase&lt; FACTORY_SIGNATURE, KEY_TYPE, FACTORY_HOLDER &gt; Pages: 1 -->
<!--zoomable 122 -->
<svg id="main" version="1.1" xmlns="http://www.w3.org/2000/svg" xmlns:xlink="http://www.w3.org/1999/xlink" xml:space="preserve" onload="init(evt)">
<style type="text/css"><![CDATA[
.edge:hover path { stroke: red; }
.edge:hover polygon { stroke: red; fill: red; }
]]></style>
<script type="text/javascript"><![CDATA[
var edges = document.getElementsByTagName('g');
if (edges && edges.length) {
  for (var i=0;i<edges.length;i++) {
    if (edges[i].id.substr(0,4)=='edge') {
      edges[i].setAttribute('class','edge');
    }
  }
}
]]></script>
        <defs>
                <circle id="rim" cx="0" cy="0" r="7"/>
                <circle id="rim2" cx="0" cy="0" r="3.5"/>
                <g id="zoomPlus">
                        <use xlink:href="#rim" fill="#404040">
                                <set attributeName="fill" to="#808080" begin="zoomplus.mouseover" end="zoomplus.mouseout"/>
                        </use>
                        <path d="M-4,0h8M0,-4v8" fill="none" stroke="white" stroke-width="1.5" pointer-events="none"/>
                </g>
                <g id="zoomMin">
                        <use xlink:href="#rim" fill="#404040">
                                <set attributeName="fill" to="#808080" begin="zoomminus.mouseover" end="zoomminus.mouseout"/>
                        </use>
                        <path d="M-4,0h8" fill="none" stroke="white" stroke-width="1.5" pointer-events="none"/>
                </g>
                <g id="dirArrow">
                        <path fill="none" stroke="white" stroke-width="1.5" d="M0,-3.0v7 M-2.5,-0.5L0,-3.0L2.5,-0.5"/>
                </g>
               <g id="resetDef">
                       <use xlink:href="#rim2" fill="#404040">
                               <set attributeName="fill" to="#808080" begin="reset.mouseover" end="reset.mouseout"/>
                       </use>
               </g>
        </defs>

<script type="text/javascript">
var viewWidth = 762;
var viewHeight = 122;
var sectionId = 'dynsection-0';
</script>
<script xlink:href="svgpan.js"/>
<svg id="graph" class="graph">
<g id="viewport">
<title>fwCore::util::FactoryRegistryBase&lt; FACTORY_SIGNATURE, KEY_TYPE, FACTORY_HOLDER &gt;</title>
<polygon fill="white" stroke="white" points="-4,5 -4,-118 759,-118 759,5 -4,5"/>
<!-- Node1 -->
<g id="node1" class="node"><title>Node1</title>
<polygon fill="#bfbfbf" stroke="black" points="0,-35.5 0,-82.5 182,-82.5 182,-35.5 0,-35.5"/>
<text text-anchor="start" x="8" y="-69.5" font-family="Helvetica,sans-Serif" font-size="10.00">fwCore::util::FactoryRegistry</text>
<text text-anchor="start" x="8" y="-56.5" font-family="Helvetica,sans-Serif" font-size="10.00">Base&lt; FACTORY_SIGNATURE,</text>
<text text-anchor="middle" x="91" y="-43.5" font-family="Helvetica,sans-Serif" font-size="10.00"> KEY_TYPE, FACTORY_HOLDER &gt;</text>
</g>
<!-- Node2 -->
<g id="node3" class="node"><title>Node2</title>
<a xlink:href="classfwCore_1_1util_1_1FactoryRegistryBase.html" target="_top" xlink:title="fwCore::util::FactoryRegistry\lBase\&lt; RETURN_TYPE(ARG1_TYPE)\l, KEY_TYPE \&gt;">
<polygon fill="white" stroke="black" points="342.5,-64.5 342.5,-111.5 529.5,-111.5 529.5,-64.5 342.5,-64.5"/>
<text text-anchor="start" x="350.5" y="-98.5" font-family="Helvetica,sans-Serif" font-size="10.00">fwCore::util::FactoryRegistry</text>
<text text-anchor="start" x="350.5" y="-85.5" font-family="Helvetica,sans-Serif" font-size="10.00">Base&lt; RETURN_TYPE(ARG1_TYPE)</text>
<text text-anchor="middle" x="436" y="-72.5" font-family="Helvetica,sans-Serif" font-size="10.00">, KEY_TYPE &gt;</text>
</a>
</g>
<!-- Node1&#45;&gt;Node2 -->
<g id="edge2" class="edge"><title>Node1&#45;&gt;Node2</title>
<path fill="none" stroke="orange" stroke-dasharray="5,2" d="M192.086,-67.4971C239.554,-71.4872 295.785,-76.2138 342.287,-80.1226"/>
<polygon fill="orange" stroke="orange" points="192.354,-64.0074 182.096,-66.6573 191.768,-70.9828 192.354,-64.0074"/>
<text text-anchor="start" x="201.5" y="-94" font-family="Helvetica,sans-Serif" font-size="10.00"> &lt; RETURN_TYPE(ARG1</text>
<text text-anchor="middle" x="260" y="-81" font-family="Helvetica,sans-Serif" font-size="10.00">_TYPE), KEY_TYPE &gt;</text>
</g>
<!-- Node4 -->
<g id="node7" class="node"><title>Node4</title>
<a xlink:href="classfwCore_1_1util_1_1FactoryRegistryBase.html" target="_top" xlink:title="fwCore::util::FactoryRegistry\lBase\&lt; RETURN_TYPE(), KEY_TYPE \&gt;">
<polygon fill="white" stroke="black" points="338.5,-10 338.5,-44 533.5,-44 533.5,-10 338.5,-10"/>
<text text-anchor="start" x="346.5" y="-31" font-family="Helvetica,sans-Serif" font-size="10.00">fwCore::util::FactoryRegistry</text>
<text text-anchor="middle" x="436" y="-18" font-family="Helvetica,sans-Serif" font-size="10.00">Base&lt; RETURN_TYPE(), KEY_TYPE &gt;</text>
</a>
</g>
<!-- Node1&#45;&gt;Node4 -->
<g id="edge6" class="edge"><title>Node1&#45;&gt;Node4</title>
<path fill="none" stroke="orange" stroke-dasharray="5,2" d="M192.26,-38.9843C194.863,-38.6332 197.446,-38.3039 200,-38 245.311,-32.6075 295.81,-29.8245 338.43,-28.4013"/>
<polygon fill="orange" stroke="orange" points="191.541,-35.5517 182.141,-40.4401 192.537,-42.4803 191.541,-35.5517"/>
<text text-anchor="start" x="200.5" y="-55" font-family="Helvetica,sans-Serif" font-size="10.00"> &lt; RETURN_TYPE(), KEY</text>
<text text-anchor="middle" x="260" y="-42" font-family="Helvetica,sans-Serif" font-size="10.00">_TYPE &gt;</text>
</g>
<!-- Node3 -->
<g id="node5" class="node"><title>Node3</title>
<a xlink:href="classfwCore_1_1util_1_1FactoryRegistry_3_01RETURN__TYPE_07ARG1__TYPE_08_00_01KEY__TYPE_00_01FACTORY__HOLDER_01_4.html" target="_top" xlink:title="fwCore::util::FactoryRegistry\l\&lt; RETURN_TYPE(ARG1_TYPE),\l KEY_TYPE, FACTORY_HOLDER \&gt;">
<polygon fill="white" stroke="black" points="572,-66.5 572,-113.5 754,-113.5 754,-66.5 572,-66.5"/>
<text text-anchor="start" x="580" y="-100.5" font-family="Helvetica,sans-Serif" font-size="10.00">fwCore::util::FactoryRegistry</text>
<text text-anchor="start" x="580" y="-87.5" font-family="Helvetica,sans-Serif" font-size="10.00">&lt; RETURN_TYPE(ARG1_TYPE),</text>
<text text-anchor="middle" x="663" y="-74.5" font-family="Helvetica,sans-Serif" font-size="10.00"> KEY_TYPE, FACTORY_HOLDER &gt;</text>
</a>
</g>
<!-- Node2&#45;&gt;Node3 -->
<g id="edge4" class="edge"><title>Node2&#45;&gt;Node3</title>
<path fill="none" stroke="midnightblue" d="M539.816,-88.9147C550.479,-89.0086 561.257,-89.1036 571.769,-89.1962"/>
<polygon fill="midnightblue" stroke="midnightblue" points="539.671,-85.4134 529.64,-88.825 539.609,-92.4131 539.671,-85.4134"/>
</g>
<!-- Node5 -->
<g id="node9" class="node"><title>Node5</title>
<a xlink:href="classfwCore_1_1util_1_1FactoryRegistry_3_01RETURN__TYPE_07_08_00_01KEY__TYPE_00_01FACTORY__HOLDER_01_4.html" target="_top" xlink:title="fwCore::util::FactoryRegistry\l\&lt; RETURN_TYPE(), KEY_TYPE,\l FACTORY_HOLDER \&gt;">
<polygon fill="white" stroke="black" points="579.5,-0.5 579.5,-47.5 746.5,-47.5 746.5,-0.5 579.5,-0.5"/>
<text text-anchor="start" x="587.5" y="-34.5" font-family="Helvetica,sans-Serif" font-size="10.00">fwCore::util::FactoryRegistry</text>
<text text-anchor="start" x="587.5" y="-21.5" font-family="Helvetica,sans-Serif" font-size="10.00">&lt; RETURN_TYPE(), KEY_TYPE,</text>
<text text-anchor="middle" x="663" y="-8.5" font-family="Helvetica,sans-Serif" font-size="10.00"> FACTORY_HOLDER &gt;</text>
</a>
</g>
<!-- Node4&#45;&gt;Node5 -->
<g id="edge8" class="edge"><title>Node4&#45;&gt;Node5</title>
<path fill="none" stroke="midnightblue" d="M543.645,-25.5774C555.659,-25.4186 567.761,-25.2587 579.41,-25.1047"/>
<polygon fill="midnightblue" stroke="midnightblue" points="543.539,-22.0784 533.586,-25.7103 543.631,-29.0778 543.539,-22.0784"/>
</g>
</g>
</svg>
        <g id="navigator" transform="translate(0 0)" fill="#404254">
                <rect fill="#f2f5e9" fill-opacity="0.5" stroke="#606060" stroke-width=".5" x="0" y="0" width="60" height="60"/>
                <use id="zoomplus" xlink:href="#zoomPlus" x="17" y="9" onmousedown="handleZoom(evt,'in')"/>
                <use id="zoomminus" xlink:href="#zoomMin" x="42" y="9" onmousedown="handleZoom(evt,'out')"/>
                <use id="reset" xlink:href="#resetDef" x="30" y="36" onmousedown="handleReset()"/>
                <g id="arrowUp" xlink:href="#dirArrow" transform="translate(30 24)" onmousedown="handlePan(0,-1)">
                  <use xlink:href="#rim" fill="#404040">
                        <set attributeName="fill" to="#808080" begin="arrowUp.mouseover" end="arrowUp.mouseout"/>
                  </use>
                  <path fill="none" stroke="white" stroke-width="1.5" d="M0,-3.0v7 M-2.5,-0.5L0,-3.0L2.5,-0.5"/>
                </g>
                <g id="arrowRight" xlink:href="#dirArrow" transform="rotate(90) translate(36 -43)" onmousedown="handlePan(1,0)">
                  <use xlink:href="#rim" fill="#404040">
                        <set attributeName="fill" to="#808080" begin="arrowRight.mouseover" end="arrowRight.mouseout"/>
                  </use>
                  <path fill="none" stroke="white" stroke-width="1.5" d="M0,-3.0v7 M-2.5,-0.5L0,-3.0L2.5,-0.5"/>
                </g>
                <g id="arrowDown" xlink:href="#dirArrow" transform="rotate(180) translate(-30 -48)" onmousedown="handlePan(0,1)">
                  <use xlink:href="#rim" fill="#404040">
                        <set attributeName="fill" to="#808080" begin="arrowDown.mouseover" end="arrowDown.mouseout"/>
                  </use>
                  <path fill="none" stroke="white" stroke-width="1.5" d="M0,-3.0v7 M-2.5,-0.5L0,-3.0L2.5,-0.5"/>
                </g>
                <g id="arrowLeft" xlink:href="#dirArrow" transform="rotate(270) translate(-36 17)" onmousedown="handlePan(-1,0)">
                  <use xlink:href="#rim" fill="#404040">
                        <set attributeName="fill" to="#808080" begin="arrowLeft.mouseover" end="arrowLeft.mouseout"/>
                  </use>
                  <path fill="none" stroke="white" stroke-width="1.5" d="M0,-3.0v7 M-2.5,-0.5L0,-3.0L2.5,-0.5"/>
                </g>
        </g>
        <svg viewBox="0 0 15 15" width="100%" height="30px" preserveAspectRatio="xMaxYMin meet">
         <g id="arrow_out" transform="scale(0.3 0.3)">
          <a xlink:href="classfwCore_1_1util_1_1FactoryRegistryBase__inherit__graph_org.svg" target="_base">
           <rect id="button" ry="5" rx="5" y="6" x="6" height="38" width="38"
                fill="#f2f5e9" fill-opacity="0.5" stroke="#606060" stroke-width="1.0"/>
           <path id="arrow"
             d="M 11.500037,31.436501 C 11.940474,20.09759 22.043105,11.32322 32.158766,21.979434 L 37.068811,17.246167 C 37.068811,17.246167 37.088388,32 37.088388,32 L 22.160133,31.978069 C 22.160133,31.978069 26.997745,27.140456 26.997745,27.140456 C 18.528582,18.264221 13.291696,25.230495 11.500037,31.436501 z"
             style="fill:#404040;"/>
          </a>
         </g>
        </svg>
</svg>
