<?xml version="1.0" encoding="UTF-8" standalone="no"?>
<!DOCTYPE svg PUBLIC "-//W3C//DTD SVG 1.1//EN"
 "http://www.w3.org/Graphics/SVG/1.1/DTD/svg11.dtd">
<!-- Generated by graphviz version 2.36.0 (20140111.2315)
 -->
<!-- Title: uiImageQt::ImageTransparency::updating Pages: 1 -->
<svg width="352pt" height="87pt"
 viewBox="0.00 0.00 352.00 87.00" xmlns="http://www.w3.org/2000/svg" xmlns:xlink="http://www.w3.org/1999/xlink">
<g id="graph0" class="graph" transform="scale(1 1) rotate(0) translate(4 83)">
<title>uiImageQt::ImageTransparency::updating</title>
<polygon fill="white" stroke="none" points="-4,4 -4,-83 348,-83 348,4 -4,4"/>
<!-- Node1 -->
<g id="node1" class="node"><title>Node1</title>
<polygon fill="#bfbfbf" stroke="black" points="0,-24 0,-54 154,-54 154,-24 0,-24"/>
<text text-anchor="start" x="8" y="-42" font-family="Helvetica,sans-Serif" font-size="10.00">uiImageQt::ImageTransparency</text>
<text text-anchor="middle" x="77" y="-31" font-family="Helvetica,sans-Serif" font-size="10.00">::updating</text>
</g>
<!-- Node2 -->
<g id="node2" class="node"><title>Node2</title>
<g id="a_node2"><a xlink:href="classuiImageQt_1_1ImageTransparency.html#a40822ba1494c095df8cf58f4623ae652" target="_top" xlink:title="Starts editor. ">
<polygon fill="white" stroke="black" points="190,-49 190,-79 344,-79 344,-49 190,-49"/>
<text text-anchor="start" x="198" y="-67" font-family="Helvetica,sans-Serif" font-size="10.00">uiImageQt::ImageTransparency</text>
<text text-anchor="middle" x="267" y="-56" font-family="Helvetica,sans-Serif" font-size="10.00">::starting</text>
</a>
</g>
</g>
<!-- Node1&#45;&gt;Node2 -->
<g id="edge1" class="edge"><title>Node1&#45;&gt;Node2</title>
<path fill="none" stroke="midnightblue" d="M164.146,-50.4555C172.67,-51.5891 181.281,-52.7342 189.696,-53.8532"/>
<polygon fill="midnightblue" stroke="midnightblue" points="164.57,-46.9812 154.196,-49.1324 163.647,-53.9201 164.57,-46.9812"/>
</g>
<!-- Node3 -->
<g id="node3" class="node"><title>Node3</title>
<g id="a_node3"><a xlink:href="classuiImageQt_1_1ImageTransparency.html#a6c64c32cfdaa540caec307393bc717a0" target="_top" xlink:title="Swap the service from associated object to another object. ">
<polygon fill="white" stroke="black" points="190,-0 190,-30 344,-30 344,-0 190,-0"/>
<text text-anchor="start" x="198" y="-18" font-family="Helvetica,sans-Serif" font-size="10.00">uiImageQt::ImageTransparency</text>
<text text-anchor="middle" x="267" y="-7" font-family="Helvetica,sans-Serif" font-size="10.00">::swapping</text>
</a>
</g>
</g>
<!-- Node1&#45;&gt;Node3 -->
<g id="edge2" class="edge"><title>Node1&#45;&gt;Node3</title>
<path fill="none" stroke="midnightblue" d="M164.146,-28.0027C172.67,-26.9145 181.281,-25.8152 189.696,-24.741"/>
<polygon fill="midnightblue" stroke="midnightblue" points="163.672,-24.5346 154.196,-29.2729 164.559,-31.4783 163.672,-24.5346"/>
</g>
</g>
</svg>
