<?xml version="1.0" encoding="UTF-8" standalone="no"?>
<!DOCTYPE svg PUBLIC "-//W3C//DTD SVG 1.1//EN"
 "http://www.w3.org/Graphics/SVG/1.1/DTD/svg11.dtd">
<!-- Generated by graphviz version 2.26.3 (20100126.1600)
 -->
<!-- Title: fwGui::dialog::SelectorDialog Pages: 1 -->
<svg width="239pt" height="310pt"
 viewBox="0.00 0.00 239.00 310.00" xmlns="http://www.w3.org/2000/svg" xmlns:xlink="http://www.w3.org/1999/xlink">
<g id="graph1" class="graph" transform="scale(1 1) rotate(0) translate(4 306)">
<title>fwGui::dialog::SelectorDialog</title>
<polygon fill="white" stroke="white" points="-4,5 -4,-306 236,-306 236,5 -4,5"/>
<!-- Node1 -->
<g id="node1" class="node"><title>Node1</title>
<polygon fill="#bfbfbf" stroke="black" points="64.5,-0.5 64.5,-21.5 207.5,-21.5 207.5,-0.5 64.5,-0.5"/>
<text text-anchor="middle" x="136" y="-8.5" font-family="Helvetica,sans-Serif" font-size="10.00">fwGui::dialog::SelectorDialog</text>
</g>
<!-- Node2 -->
<g id="node2" class="node"><title>Node2</title>
<a xlink:href="classfwGui_1_1dialog_1_1ISelectorDialog.html" target="_top" xlink:title="ISelectorDialog allows the choice of an element among several (_selections) ">
<polygon fill="white" stroke="black" points="76.5,-61 76.5,-95 195.5,-95 195.5,-61 76.5,-61"/>
<text text-anchor="start" x="84.5" y="-82" font-family="Helvetica,sans-Serif" font-size="10.00">fwGui::dialog::ISelector</text>
<text text-anchor="middle" x="136" y="-69" font-family="Helvetica,sans-Serif" font-size="10.00">Dialog</text>
</a>
</g>
<!-- Node2&#45;&gt;Node1 -->
<g id="edge2" class="edge"><title>Node2&#45;&gt;Node1</title>
<path fill="none" stroke="midnightblue" d="M136,-50.5344C136,-40.3057 136,-29.3007 136,-21.5056"/>
<polygon fill="midnightblue" stroke="midnightblue" points="132.5,-50.7458 136,-60.7458 139.5,-50.7459 132.5,-50.7458"/>
</g>
<!-- Node3 -->
<g id="node4" class="node"><title>Node3</title>
<a xlink:href="classfwGui_1_1GuiBaseObject.html" target="_top" xlink:title="Base class for all fwGui&#39;s classes. ">
<polygon fill="white" stroke="black" points="8,-146.5 8,-167.5 122,-167.5 122,-146.5 8,-146.5"/>
<text text-anchor="middle" x="65" y="-154.5" font-family="Helvetica,sans-Serif" font-size="10.00">fwGui::GuiBaseObject</text>
</a>
</g>
<!-- Node3&#45;&gt;Node2 -->
<g id="edge4" class="edge"><title>Node3&#45;&gt;Node2</title>
<path fill="none" stroke="midnightblue" d="M81.3363,-138.823C93.1538,-125.674 109.017,-108.023 120.61,-95.1236"/>
<polygon fill="midnightblue" stroke="midnightblue" points="78.6567,-136.568 74.5754,-146.346 83.863,-141.248 78.6567,-136.568"/>
</g>
<!-- Node4 -->
<g id="node6" class="node"><title>Node4</title>
<a xlink:href="classfwCore_1_1BaseObject.html" target="_top" xlink:title="Base class for all FW4SPL&#39;s classes. ">
<polygon fill="white" stroke="black" points="12.5,-206.5 12.5,-227.5 117.5,-227.5 117.5,-206.5 12.5,-206.5"/>
<text text-anchor="middle" x="65" y="-214.5" font-family="Helvetica,sans-Serif" font-size="10.00">fwCore::BaseObject</text>
</a>
</g>
<!-- Node4&#45;&gt;Node3 -->
<g id="edge6" class="edge"><title>Node4&#45;&gt;Node3</title>
<path fill="none" stroke="midnightblue" d="M65,-196.231C65,-186.592 65,-175.544 65,-167.634"/>
<polygon fill="midnightblue" stroke="midnightblue" points="61.5001,-196.273 65,-206.273 68.5001,-196.273 61.5001,-196.273"/>
</g>
<!-- Node5 -->
<g id="node8" class="node"><title>Node5</title>
<polygon fill="white" stroke="#bfbfbf" points="-0.5,-267 -0.5,-301 130.5,-301 130.5,-267 -0.5,-267"/>
<text text-anchor="start" x="7.5" y="-288" font-family="Helvetica,sans-Serif" font-size="10.00">std::enable_shared</text>
<text text-anchor="middle" x="65" y="-275" font-family="Helvetica,sans-Serif" font-size="10.00">_from_this&lt; BaseObject &gt;</text>
</g>
<!-- Node5&#45;&gt;Node4 -->
<g id="edge8" class="edge"><title>Node5&#45;&gt;Node4</title>
<path fill="none" stroke="midnightblue" d="M65,-256.534C65,-246.306 65,-235.301 65,-227.506"/>
<polygon fill="midnightblue" stroke="midnightblue" points="61.5001,-256.746 65,-266.746 68.5001,-256.746 61.5001,-256.746"/>
</g>
<!-- Node6 -->
<g id="node10" class="node"><title>Node6</title>
<polygon fill="white" stroke="#bfbfbf" points="139.5,-146.5 139.5,-167.5 180.5,-167.5 180.5,-146.5 139.5,-146.5"/>
<text text-anchor="middle" x="160" y="-154.5" font-family="Helvetica,sans-Serif" font-size="10.00">static</text>
</g>
<!-- Node6&#45;&gt;Node2 -->
<g id="edge10" class="edge"><title>Node6&#45;&gt;Node2</title>
<path fill="none" stroke="#9a32cd" stroke-dasharray="5,2" d="M153.787,-136.549C149.881,-123.691 144.899,-107.293 141.202,-95.1236"/>
<polygon fill="#9a32cd" stroke="#9a32cd" points="150.508,-137.795 156.763,-146.346 157.205,-135.76 150.508,-137.795"/>
<text text-anchor="middle" x="190.5" y="-118.5" font-family="Helvetica,sans-Serif" font-size="10.00"> REGISTRY_KEY</text>
</g>
</g>
</svg>
