<?xml version="1.0" encoding="UTF-8" standalone="no"?>
<!DOCTYPE svg PUBLIC "-//W3C//DTD SVG 1.1//EN"
 "http://www.w3.org/Graphics/SVG/1.1/DTD/svg11.dtd">
<!-- Generated by graphviz version 2.36.0 (20140111.2315)
 -->
<!-- Title: visuVTKAdaptor::SPointList::updating Pages: 1 -->
<svg width="492pt" height="283pt"
 viewBox="0.00 0.00 492.00 283.00" xmlns="http://www.w3.org/2000/svg" xmlns:xlink="http://www.w3.org/1999/xlink">
<g id="graph0" class="graph" transform="scale(1 1) rotate(0) translate(4 279)">
<title>visuVTKAdaptor::SPointList::updating</title>
<polygon fill="white" stroke="none" points="-4,4 -4,-279 488,-279 488,4 -4,4"/>
<!-- Node1 -->
<g id="node1" class="node"><title>Node1</title>
<polygon fill="#bfbfbf" stroke="black" points="0.5,-147 0.5,-177 139.5,-177 139.5,-147 0.5,-147"/>
<text text-anchor="start" x="8.5" y="-165" font-family="Helvetica,sans-Serif" font-size="10.00">visuVTKAdaptor::SPointList</text>
<text text-anchor="middle" x="70" y="-154" font-family="Helvetica,sans-Serif" font-size="10.00">::updating</text>
</g>
<!-- Node2 -->
<g id="node2" class="node"><title>Node2</title>
<g id="a_node2"><a xlink:href="classfwRenderVTK_1_1IAdaptor.html#a46ef60802ac6cd7002a6199512963775" target="_top" xlink:title="notify a render request iff vtkPipeline is modified ">
<polygon fill="white" stroke="black" points="185.5,-196 185.5,-226 306.5,-226 306.5,-196 185.5,-196"/>
<text text-anchor="start" x="193.5" y="-214" font-family="Helvetica,sans-Serif" font-size="10.00">fwRenderVTK::IAdaptor</text>
<text text-anchor="middle" x="246" y="-203" font-family="Helvetica,sans-Serif" font-size="10.00">::requestRender</text>
</a>
</g>
</g>
<!-- Node1&#45;&gt;Node2 -->
<g id="edge1" class="edge"><title>Node1&#45;&gt;Node2</title>
<path fill="none" stroke="midnightblue" d="M124.626,-177.101C142.737,-182.202 163.124,-187.943 181.9,-193.23"/>
<polygon fill="midnightblue" stroke="midnightblue" points="180.977,-196.607 191.552,-195.948 182.875,-189.869 180.977,-196.607"/>
</g>
<!-- Node6 -->
<g id="node6" class="node"><title>Node6</title>
<g id="a_node6"><a xlink:href="classfwRenderVTK_1_1IAdaptor.html#a0fd9eb8ee07f2e7d53b27c6bbe8994eb" target="_top" xlink:title="End&#45;user have to call this method when a vtk structure has been modified, thus a render request will ...">
<polygon fill="white" stroke="black" points="185,-147 185,-177 307,-177 307,-147 185,-147"/>
<text text-anchor="start" x="193" y="-165" font-family="Helvetica,sans-Serif" font-size="10.00">fwRenderVTK::IAdaptor</text>
<text text-anchor="middle" x="246" y="-154" font-family="Helvetica,sans-Serif" font-size="10.00">::setVtkPipelineModified</text>
</a>
</g>
</g>
<!-- Node1&#45;&gt;Node6 -->
<g id="edge5" class="edge"><title>Node1&#45;&gt;Node6</title>
<path fill="none" stroke="midnightblue" d="M139.769,-162C151.304,-162 163.287,-162 174.856,-162"/>
<polygon fill="midnightblue" stroke="midnightblue" points="174.895,-165.5 184.894,-162 174.894,-158.5 174.895,-165.5"/>
</g>
<!-- Node7 -->
<g id="node7" class="node"><title>Node7</title>
<g id="a_node7"><a xlink:href="classvisuVTKAdaptor_1_1SPointList.html#ad6f9219694ebd9a5963c3d9c33cecb7d" target="_top" xlink:title="Uninitialize the service activity. The stop() method is always invoked before destroying a service...">
<polygon fill="white" stroke="black" points="176.5,-98 176.5,-128 315.5,-128 315.5,-98 176.5,-98"/>
<text text-anchor="start" x="184.5" y="-116" font-family="Helvetica,sans-Serif" font-size="10.00">visuVTKAdaptor::SPointList</text>
<text text-anchor="middle" x="246" y="-105" font-family="Helvetica,sans-Serif" font-size="10.00">::stopping</text>
</a>
</g>
</g>
<!-- Node1&#45;&gt;Node7 -->
<g id="edge6" class="edge"><title>Node1&#45;&gt;Node7</title>
<path fill="none" stroke="midnightblue" d="M124.626,-146.899C142.737,-141.798 163.124,-136.057 181.9,-130.77"/>
<polygon fill="midnightblue" stroke="midnightblue" points="182.875,-134.131 191.552,-128.052 180.977,-127.393 182.875,-134.131"/>
</g>
<!-- Node3 -->
<g id="node3" class="node"><title>Node3</title>
<g id="a_node3"><a xlink:href="classfwRenderVTK_1_1IAdaptor.html#a908f43b79c3c619e7e56cd4b5a08dd79" target="_top" xlink:title="Returd the associated render service. ">
<polygon fill="white" stroke="black" points="357.5,-147 357.5,-177 478.5,-177 478.5,-147 357.5,-147"/>
<text text-anchor="start" x="365.5" y="-165" font-family="Helvetica,sans-Serif" font-size="10.00">fwRenderVTK::IAdaptor</text>
<text text-anchor="middle" x="418" y="-154" font-family="Helvetica,sans-Serif" font-size="10.00">::getRenderService</text>
</a>
</g>
</g>
<!-- Node2&#45;&gt;Node3 -->
<g id="edge2" class="edge"><title>Node2&#45;&gt;Node3</title>
<path fill="none" stroke="midnightblue" d="M299.393,-195.899C317.007,-190.821 336.823,-185.11 355.098,-179.842"/>
<polygon fill="midnightblue" stroke="midnightblue" points="356.141,-183.184 364.78,-177.052 354.202,-176.458 356.141,-183.184"/>
</g>
<!-- Node4 -->
<g id="node4" class="node"><title>Node4</title>
<g id="a_node4"><a xlink:href="classfwServices_1_1IService.html#a7284059e3031206537f48fa53a7e89d0" target="_top" xlink:title="Return the global process status. ">
<polygon fill="white" stroke="black" points="364.5,-245 364.5,-275 471.5,-275 471.5,-245 364.5,-245"/>
<text text-anchor="start" x="372.5" y="-263" font-family="Helvetica,sans-Serif" font-size="10.00">fwServices::IService</text>
<text text-anchor="middle" x="418" y="-252" font-family="Helvetica,sans-Serif" font-size="10.00">::getStatus</text>
</a>
</g>
</g>
<!-- Node2&#45;&gt;Node4 -->
<g id="edge3" class="edge"><title>Node2&#45;&gt;Node4</title>
<path fill="none" stroke="midnightblue" d="M299.393,-226.101C317.007,-231.179 336.823,-236.89 355.098,-242.158"/>
<polygon fill="midnightblue" stroke="midnightblue" points="354.202,-245.542 364.78,-244.948 356.141,-238.816 354.202,-245.542"/>
</g>
<!-- Node5 -->
<g id="node5" class="node"><title>Node5</title>
<g id="a_node5"><a xlink:href="classfwRenderVTK_1_1IAdaptor.html#a40e8583048160a35d175fdfe6c081881" target="_top" xlink:title="Returns true if the service automatically triggers the rendering. ">
<polygon fill="white" stroke="black" points="357.5,-196 357.5,-226 478.5,-226 478.5,-196 357.5,-196"/>
<text text-anchor="start" x="365.5" y="-214" font-family="Helvetica,sans-Serif" font-size="10.00">fwRenderVTK::IAdaptor</text>
<text text-anchor="middle" x="418" y="-203" font-family="Helvetica,sans-Serif" font-size="10.00">::getAutoRender</text>
</a>
</g>
</g>
<!-- Node2&#45;&gt;Node5 -->
<g id="edge4" class="edge"><title>Node2&#45;&gt;Node5</title>
<path fill="none" stroke="midnightblue" d="M306.936,-211C319.962,-211 333.85,-211 347.22,-211"/>
<polygon fill="midnightblue" stroke="midnightblue" points="347.319,-214.5 357.319,-211 347.319,-207.5 347.319,-214.5"/>
</g>
<!-- Node7&#45;&gt;Node3 -->
<g id="edge9" class="edge"><title>Node7&#45;&gt;Node3</title>
<path fill="none" stroke="midnightblue" d="M299.393,-128.101C317.007,-133.179 336.823,-138.89 355.098,-144.158"/>
<polygon fill="midnightblue" stroke="midnightblue" points="354.202,-147.542 364.78,-146.948 356.141,-140.816 354.202,-147.542"/>
</g>
<!-- Node8 -->
<g id="node8" class="node"><title>Node8</title>
<g id="a_node8"><a xlink:href="classfwRenderVTK_1_1IAdaptor.html#a27fd889b800232cbc05ac782f32e393a" target="_top" xlink:title="Gets the identifier of the picker used by this adaptor. ">
<polygon fill="white" stroke="black" points="357.5,-98 357.5,-128 478.5,-128 478.5,-98 357.5,-98"/>
<text text-anchor="start" x="365.5" y="-116" font-family="Helvetica,sans-Serif" font-size="10.00">fwRenderVTK::IAdaptor</text>
<text text-anchor="middle" x="418" y="-105" font-family="Helvetica,sans-Serif" font-size="10.00">::getPickerId</text>
</a>
</g>
</g>
<!-- Node7&#45;&gt;Node8 -->
<g id="edge7" class="edge"><title>Node7&#45;&gt;Node8</title>
<path fill="none" stroke="midnightblue" d="M315.655,-113C326.022,-113 336.727,-113 347.119,-113"/>
<polygon fill="midnightblue" stroke="midnightblue" points="347.384,-116.5 357.384,-113 347.384,-109.5 347.384,-116.5"/>
</g>
<!-- Node9 -->
<g id="node9" class="node"><title>Node9</title>
<g id="a_node9"><a xlink:href="classfwRenderVTK_1_1IAdaptor.html#ab88a04a11f130a8226450e4a3c7cbaf9" target="_top" xlink:title="Returns the renderer identifier. ">
<polygon fill="white" stroke="black" points="357.5,-49 357.5,-79 478.5,-79 478.5,-49 357.5,-49"/>
<text text-anchor="start" x="365.5" y="-67" font-family="Helvetica,sans-Serif" font-size="10.00">fwRenderVTK::IAdaptor</text>
<text text-anchor="middle" x="418" y="-56" font-family="Helvetica,sans-Serif" font-size="10.00">::getRendererId</text>
</a>
</g>
</g>
<!-- Node7&#45;&gt;Node9 -->
<g id="edge8" class="edge"><title>Node7&#45;&gt;Node9</title>
<path fill="none" stroke="midnightblue" d="M299.393,-97.8986C317.007,-92.8215 336.823,-87.1098 355.098,-81.8423"/>
<polygon fill="midnightblue" stroke="midnightblue" points="356.141,-85.1843 364.78,-79.0516 354.202,-78.4582 356.141,-85.1843"/>
</g>
<!-- Node10 -->
<g id="node10" class="node"><title>Node10</title>
<g id="a_node10"><a xlink:href="classfwServices_1_1IHasServices.html#af47c97bc9b450e0e8efab7c7db437b76" target="_top" xlink:title="Unregister all services linked to this service, optionally matches only a given type of services...">
<polygon fill="white" stroke="black" points="352.5,-0 352.5,-30 483.5,-30 483.5,-0 352.5,-0"/>
<text text-anchor="start" x="360.5" y="-18" font-family="Helvetica,sans-Serif" font-size="10.00">fwServices::IHasServices</text>
<text text-anchor="middle" x="418" y="-7" font-family="Helvetica,sans-Serif" font-size="10.00">::unregisterServices</text>
</a>
</g>
</g>
<!-- Node7&#45;&gt;Node10 -->
<g id="edge10" class="edge"><title>Node7&#45;&gt;Node10</title>
<path fill="none" stroke="midnightblue" d="M265.844,-97.8072C286.199,-81.9079 320.024,-56.9468 352,-40 355.891,-37.9378 359.99,-35.9564 364.16,-34.0745"/>
<polygon fill="midnightblue" stroke="midnightblue" points="365.546,-37.2887 373.348,-30.1209 362.779,-30.8587 365.546,-37.2887"/>
</g>
</g>
</svg>
