<?xml version="1.0" encoding="UTF-8" standalone="no"?>
<!DOCTYPE svg PUBLIC "-//W3C//DTD SVG 1.1//EN"
 "http://www.w3.org/Graphics/SVG/1.1/DTD/svg11.dtd">
<!-- Generated by graphviz version 2.26.3 (20100126.1600)
 -->
<!-- Title: uiReconstruction::RepresentationEditor::updating Pages: 1 -->
<svg width="368pt" height="94pt"
 viewBox="0.00 0.00 368.00 94.00" xmlns="http://www.w3.org/2000/svg" xmlns:xlink="http://www.w3.org/1999/xlink">
<g id="graph1" class="graph" transform="scale(1 1) rotate(0) translate(4 90)">
<title>uiReconstruction::RepresentationEditor::updating</title>
<polygon fill="white" stroke="white" points="-4,5 -4,-90 365,-90 365,5 -4,5"/>
<!-- Node1 -->
<g id="node1" class="node"><title>Node1</title>
<polygon fill="#bfbfbf" stroke="black" points="0,-26 0,-60 162,-60 162,-26 0,-26"/>
<text text-anchor="start" x="8" y="-47" font-family="Helvetica,sans-Serif" font-size="10.00">uiReconstruction::Representation</text>
<text text-anchor="middle" x="81" y="-34" font-family="Helvetica,sans-Serif" font-size="10.00">Editor::updating</text>
</g>
<!-- Node2 -->
<g id="node3" class="node"><title>Node2</title>
<a xlink:href="classuiReconstruction_1_1RepresentationEditor.html#a421324a3e23a7ad444b754e79f3bad1f" target="_top" xlink:title="This method launches the IEditor::starting method. ">
<polygon fill="white" stroke="black" points="198,-52 198,-86 360,-86 360,-52 198,-52"/>
<text text-anchor="start" x="206" y="-73" font-family="Helvetica,sans-Serif" font-size="10.00">uiReconstruction::Representation</text>
<text text-anchor="middle" x="279" y="-60" font-family="Helvetica,sans-Serif" font-size="10.00">Editor::starting</text>
</a>
</g>
<!-- Node1&#45;&gt;Node2 -->
<g id="edge2" class="edge"><title>Node1&#45;&gt;Node2</title>
<path fill="none" stroke="midnightblue" d="M172.085,-54.9606C180.63,-56.0827 189.254,-57.2151 197.7,-58.3243"/>
<polygon fill="midnightblue" stroke="midnightblue" points="172.476,-51.482 162.105,-53.6502 171.565,-58.4225 172.476,-51.482"/>
</g>
<!-- Node3 -->
<g id="node5" class="node"><title>Node3</title>
<a xlink:href="classuiReconstruction_1_1RepresentationEditor.html#a2d6ecd1d04270aa9894358bc1e6597ad" target="_top" xlink:title="Swap the service from associated object to another object. ">
<polygon fill="white" stroke="black" points="198,-0 198,-34 360,-34 360,-0 198,-0"/>
<text text-anchor="start" x="206" y="-21" font-family="Helvetica,sans-Serif" font-size="10.00">uiReconstruction::Representation</text>
<text text-anchor="middle" x="279" y="-8" font-family="Helvetica,sans-Serif" font-size="10.00">Editor::swapping</text>
</a>
</g>
<!-- Node1&#45;&gt;Node3 -->
<g id="edge4" class="edge"><title>Node1&#45;&gt;Node3</title>
<path fill="none" stroke="midnightblue" d="M172.085,-31.0394C180.63,-29.9173 189.254,-28.7849 197.7,-27.6757"/>
<polygon fill="midnightblue" stroke="midnightblue" points="171.565,-27.5775 162.105,-32.3498 172.476,-34.518 171.565,-27.5775"/>
</g>
</g>
</svg>
