<?xml version="1.0" encoding="UTF-8" standalone="no"?>
<!DOCTYPE svg PUBLIC "-//W3C//DTD SVG 1.1//EN"
 "http://www.w3.org/Graphics/SVG/1.1/DTD/svg11.dtd">
<!-- Generated by graphviz version 2.26.3 (20100126.1600)
 -->
<!-- Title: fwGui::registrar::ViewRegistrar Pages: 1 -->
<svg width="804pt" height="261pt"
 viewBox="0.00 0.00 804.00 261.19" xmlns="http://www.w3.org/2000/svg" xmlns:xlink="http://www.w3.org/1999/xlink">
<g id="graph1" class="graph" transform="scale(1 1) rotate(0) translate(4 257.188)">
<title>fwGui::registrar::ViewRegistrar</title>
<polygon fill="white" stroke="white" points="-4,5 -4,-257.188 801,-257.188 801,5 -4,5"/>
<!-- Node1 -->
<g id="node1" class="node"><title>Node1</title>
<polygon fill="#bfbfbf" stroke="black" points="644.5,-148.688 644.5,-169.688 795.5,-169.688 795.5,-148.688 644.5,-148.688"/>
<text text-anchor="middle" x="720" y="-156.688" font-family="Helvetica,sans-Serif" font-size="10.00">fwGui::registrar::ViewRegistrar</text>
</g>
<!-- Node2 -->
<g id="node2" class="node"><title>Node2</title>
<a xlink:href="classfwGui_1_1GuiBaseObject.html" target="_top" xlink:title="Base class for all fwGui&#39;s classes. ">
<polygon fill="white" stroke="black" points="456,-225.688 456,-246.688 570,-246.688 570,-225.688 456,-225.688"/>
<text text-anchor="middle" x="513" y="-233.688" font-family="Helvetica,sans-Serif" font-size="10.00">fwGui::GuiBaseObject</text>
</a>
</g>
<!-- Node2&#45;&gt;Node1 -->
<g id="edge2" class="edge"><title>Node2&#45;&gt;Node1</title>
<path fill="none" stroke="midnightblue" d="M552.35,-222.104C574.098,-214.271 601.582,-204.293 626,-195.188 648.596,-186.762 674.146,-176.959 692.899,-169.712"/>
<polygon fill="midnightblue" stroke="midnightblue" points="551.018,-218.863 542.792,-225.541 553.387,-225.45 551.018,-218.863"/>
</g>
<!-- Node3 -->
<g id="node4" class="node"><title>Node3</title>
<a xlink:href="classfwCore_1_1BaseObject.html" target="_top" xlink:title="Base class for all FW4SPL&#39;s classes. ">
<polygon fill="white" stroke="black" points="212.5,-225.688 212.5,-246.688 317.5,-246.688 317.5,-225.688 212.5,-225.688"/>
<text text-anchor="middle" x="265" y="-233.688" font-family="Helvetica,sans-Serif" font-size="10.00">fwCore::BaseObject</text>
</a>
</g>
<!-- Node3&#45;&gt;Node2 -->
<g id="edge4" class="edge"><title>Node3&#45;&gt;Node2</title>
<path fill="none" stroke="midnightblue" d="M327.611,-236.188C366.987,-236.188 417.408,-236.188 455.724,-236.188"/>
<polygon fill="midnightblue" stroke="midnightblue" points="327.594,-232.688 317.594,-236.188 327.594,-239.688 327.594,-232.688"/>
</g>
<!-- Node4 -->
<g id="node6" class="node"><title>Node4</title>
<polygon fill="white" stroke="#bfbfbf" points="0.5,-219.188 0.5,-253.188 131.5,-253.188 131.5,-219.188 0.5,-219.188"/>
<text text-anchor="start" x="8.5" y="-240.188" font-family="Helvetica,sans-Serif" font-size="10.00">std::enable_shared</text>
<text text-anchor="middle" x="66" y="-227.188" font-family="Helvetica,sans-Serif" font-size="10.00">_from_this&lt; BaseObject &gt;</text>
</g>
<!-- Node4&#45;&gt;Node3 -->
<g id="edge6" class="edge"><title>Node4&#45;&gt;Node3</title>
<path fill="none" stroke="midnightblue" d="M141.983,-236.188C165.434,-236.188 190.734,-236.188 212.256,-236.188"/>
<polygon fill="midnightblue" stroke="midnightblue" points="141.712,-232.688 131.712,-236.188 141.712,-239.688 141.712,-232.688"/>
</g>
<!-- Node5 -->
<g id="node8" class="node"><title>Node5</title>
<polygon fill="white" stroke="#bfbfbf" points="458,-97.6879 458,-144.688 568,-144.688 568,-97.6879 458,-97.6879"/>
<text text-anchor="start" x="466" y="-131.688" font-family="Helvetica,sans-Serif" font-size="10.00">std::map&lt; std::string,</text>
<text text-anchor="start" x="466" y="-118.688" font-family="Helvetica,sans-Serif" font-size="10.00"> std::pair&lt; unsigned</text>
<text text-anchor="middle" x="513" y="-105.688" font-family="Helvetica,sans-Serif" font-size="10.00"> int, bool &gt; &gt;</text>
</g>
<!-- Node5&#45;&gt;Node1 -->
<g id="edge8" class="edge"><title>Node5&#45;&gt;Node1</title>
<path fill="none" stroke="#9a32cd" stroke-dasharray="5,2" d="M578.368,-133.188C605.463,-138.162 636.613,-143.88 662.788,-148.685"/>
<polygon fill="#9a32cd" stroke="#9a32cd" points="578.668,-129.684 568.2,-131.321 577.404,-136.569 578.668,-129.684"/>
<text text-anchor="middle" x="607" y="-145.188" font-family="Helvetica,sans-Serif" font-size="10.00"> m_sids</text>
</g>
<!-- Node6 -->
<g id="node10" class="node"><title>Node6</title>
<a xlink:title="STL class. ">
<polygon fill="white" stroke="#bfbfbf" points="235,-142.688 235,-163.688 295,-163.688 295,-142.688 235,-142.688"/>
<text text-anchor="middle" x="265" y="-150.688" font-family="Helvetica,sans-Serif" font-size="10.00">std::string</text>
</a>
</g>
<!-- Node6&#45;&gt;Node1 -->
<g id="edge26" class="edge"><title>Node6&#45;&gt;Node1</title>
<path fill="none" stroke="#9a32cd" stroke-dasharray="5,2" d="M305.164,-157.842C315.219,-158.816 325.992,-159.696 336,-160.188 442.871,-165.443 566.675,-163.716 644.171,-161.696"/>
<polygon fill="#9a32cd" stroke="#9a32cd" points="305.311,-154.339 295.008,-156.806 304.601,-161.303 305.311,-154.339"/>
<text text-anchor="middle" x="513" y="-180.188" font-family="Helvetica,sans-Serif" font-size="10.00"> m_sid</text>
<text text-anchor="middle" x="513" y="-167.188" font-family="Helvetica,sans-Serif" font-size="10.00">m_parentWid</text>
</g>
<!-- Node6&#45;&gt;Node5 -->
<g id="edge10" class="edge"><title>Node6&#45;&gt;Node5</title>
<path fill="none" stroke="#9a32cd" stroke-dasharray="5,2" d="M305.318,-148.131C340.385,-143.716 392.562,-137.106 438,-131.188 444.383,-130.357 451.07,-129.477 457.711,-128.598"/>
<polygon fill="#9a32cd" stroke="#9a32cd" points="304.495,-144.707 295.01,-149.428 305.369,-151.652 304.495,-144.707"/>
<text text-anchor="middle" x="387" y="-147.188" font-family="Helvetica,sans-Serif" font-size="10.00"> keys</text>
</g>
<!-- Node11 -->
<g id="node20" class="node"><title>Node11</title>
<polygon fill="white" stroke="#bfbfbf" points="458,-45.1879 458,-79.1879 568,-79.1879 568,-45.1879 458,-45.1879"/>
<text text-anchor="start" x="466" y="-66.1879" font-family="Helvetica,sans-Serif" font-size="10.00">std::map&lt; std::string,</text>
<text text-anchor="middle" x="513" y="-53.1879" font-family="Helvetica,sans-Serif" font-size="10.00"> unsigned int &gt;</text>
</g>
<!-- Node6&#45;&gt;Node11 -->
<g id="edge22" class="edge"><title>Node6&#45;&gt;Node11</title>
<path fill="none" stroke="#9a32cd" stroke-dasharray="5,2" d="M289.227,-137.357C302.546,-129.315 319.645,-120.033 336,-114.188 379.423,-98.6693 393.937,-108.786 438,-95.1879 442.044,-93.9399 458.534,-86.7215 475.026,-79.353"/>
<polygon fill="#9a32cd" stroke="#9a32cd" points="287.318,-134.423 280.666,-142.67 291.009,-140.371 287.318,-134.423"/>
<text text-anchor="middle" x="387" y="-118.188" font-family="Helvetica,sans-Serif" font-size="10.00"> keys</text>
</g>
<!-- Node7 -->
<g id="node12" class="node"><title>Node7</title>
<a xlink:title="STL class. ">
<polygon fill="white" stroke="#bfbfbf" points="18.5,-136.188 18.5,-170.188 113.5,-170.188 113.5,-136.188 18.5,-136.188"/>
<text text-anchor="start" x="26.5" y="-157.188" font-family="Helvetica,sans-Serif" font-size="10.00">std::basic_string&lt;</text>
<text text-anchor="middle" x="66" y="-144.188" font-family="Helvetica,sans-Serif" font-size="10.00"> char &gt;</text>
</a>
</g>
<!-- Node7&#45;&gt;Node6 -->
<g id="edge12" class="edge"><title>Node7&#45;&gt;Node6</title>
<path fill="none" stroke="midnightblue" d="M124.108,-153.188C160.329,-153.188 205.457,-153.188 234.731,-153.188"/>
<polygon fill="midnightblue" stroke="midnightblue" points="123.665,-149.688 113.665,-153.188 123.665,-156.688 123.665,-149.688"/>
</g>
<!-- Node8 -->
<g id="node14" class="node"><title>Node8</title>
<a xlink:title="STL class. ">
<polygon fill="white" stroke="#bfbfbf" points="219,-20.6879 219,-41.6879 311,-41.6879 311,-20.6879 219,-20.6879"/>
<text text-anchor="middle" x="265" y="-28.6879" font-family="Helvetica,sans-Serif" font-size="10.00">std::map&lt; K, T &gt;</text>
</a>
</g>
<!-- Node8&#45;&gt;Node5 -->
<g id="edge14" class="edge"><title>Node8&#45;&gt;Node5</title>
<path fill="none" stroke="orange" stroke-dasharray="5,2" d="M321.393,-33.9944C364.458,-37.1077 419.462,-43.4795 438,-56.1879 451.459,-65.4146 444.533,-76.5781 456,-88.1879 459.294,-91.5235 462.996,-94.6371 466.889,-97.5142"/>
<polygon fill="orange" stroke="orange" points="321.505,-30.494 311.291,-33.3069 321.03,-37.4779 321.505,-30.494"/>
<text text-anchor="start" x="343.5" y="-86.1879" font-family="Helvetica,sans-Serif" font-size="10.00"> &lt; std::string, std</text>
<text text-anchor="start" x="343.5" y="-73.1879" font-family="Helvetica,sans-Serif" font-size="10.00">::pair&lt; unsigned int,</text>
<text text-anchor="middle" x="387" y="-60.1879" font-family="Helvetica,sans-Serif" font-size="10.00"> bool &gt; &gt;</text>
</g>
<!-- Node8&#45;&gt;Node11 -->
<g id="edge24" class="edge"><title>Node8&#45;&gt;Node11</title>
<path fill="none" stroke="orange" stroke-dasharray="5,2" d="M300.008,-17.3201C335.548,-5.31102 391.772,7.9459 438,-7.18791 460.711,-14.6229 482.23,-31.8437 496.344,-45.0506"/>
<polygon fill="orange" stroke="orange" points="298.827,-14.0254 290.558,-20.6496 301.153,-20.6276 298.827,-14.0254"/>
<text text-anchor="start" x="336.5" y="-24.1879" font-family="Helvetica,sans-Serif" font-size="10.00"> &lt; std::string, unsigned</text>
<text text-anchor="middle" x="387" y="-11.1879" font-family="Helvetica,sans-Serif" font-size="10.00"> int &gt;</text>
</g>
<!-- Node9 -->
<g id="node16" class="node"><title>Node9</title>
<polygon fill="white" stroke="#bfbfbf" points="51.5,-40.6879 51.5,-61.6879 80.5,-61.6879 80.5,-40.6879 51.5,-40.6879"/>
<text text-anchor="middle" x="66" y="-48.6879" font-family="Helvetica,sans-Serif" font-size="10.00">K</text>
</g>
<!-- Node9&#45;&gt;Node8 -->
<g id="edge16" class="edge"><title>Node9&#45;&gt;Node8</title>
<path fill="none" stroke="#9a32cd" stroke-dasharray="5,2" d="M90.8601,-48.6894C122.807,-45.4786 178.896,-39.8416 218.783,-35.8329"/>
<polygon fill="#9a32cd" stroke="#9a32cd" points="90.2328,-45.2347 80.6329,-49.7173 90.9328,-52.1996 90.2328,-45.2347"/>
<text text-anchor="middle" x="172" y="-47.1879" font-family="Helvetica,sans-Serif" font-size="10.00"> keys</text>
</g>
<!-- Node10 -->
<g id="node18" class="node"><title>Node10</title>
<polygon fill="white" stroke="#bfbfbf" points="51.5,-0.687909 51.5,-21.6879 80.5,-21.6879 80.5,-0.687909 51.5,-0.687909"/>
<text text-anchor="middle" x="66" y="-8.68791" font-family="Helvetica,sans-Serif" font-size="10.00">T</text>
</g>
<!-- Node10&#45;&gt;Node8 -->
<g id="edge18" class="edge"><title>Node10&#45;&gt;Node8</title>
<path fill="none" stroke="#9a32cd" stroke-dasharray="5,2" d="M90.6264,-13.0077C116.42,-14.9832 158.097,-18.3713 194,-22.1879 202.031,-23.0416 210.561,-24.0421 218.819,-25.0596"/>
<polygon fill="#9a32cd" stroke="#9a32cd" points="90.8428,-9.51414 80.6075,-12.2504 90.3152,-16.4942 90.8428,-9.51414"/>
<text text-anchor="middle" x="172" y="-26.1879" font-family="Helvetica,sans-Serif" font-size="10.00"> elements</text>
</g>
<!-- Node11&#45;&gt;Node1 -->
<g id="edge20" class="edge"><title>Node11&#45;&gt;Node1</title>
<path fill="none" stroke="#9a32cd" stroke-dasharray="5,2" d="M559.849,-83.4933C563.286,-85.0764 566.699,-86.6538 570,-88.1879 615.594,-109.376 668.725,-134.668 697.934,-148.624"/>
<polygon fill="#9a32cd" stroke="#9a32cd" points="561.295,-80.3064 550.747,-79.3151 558.375,-86.6681 561.295,-80.3064"/>
<text text-anchor="middle" x="607" y="-117.188" font-family="Helvetica,sans-Serif" font-size="10.00"> m_wids</text>
</g>
</g>
</svg>
