<?xml version="1.0" encoding="UTF-8" standalone="no"?>
<!DOCTYPE svg PUBLIC "-//W3C//DTD SVG 1.1//EN"
 "http://www.w3.org/Graphics/SVG/1.1/DTD/svg11.dtd">
<!-- Generated by graphviz version 2.26.3 (20100126.1600)
 -->
<!-- Title: fwGdcmIO::container::DicomInstance::computeSOPClassUID Pages: 1 -->
<svg width="416pt" height="108pt"
 viewBox="0.00 0.00 416.00 108.00" xmlns="http://www.w3.org/2000/svg" xmlns:xlink="http://www.w3.org/1999/xlink">
<g id="graph1" class="graph" transform="scale(1 1) rotate(0) translate(4 104)">
<title>fwGdcmIO::container::DicomInstance::computeSOPClassUID</title>
<polygon fill="white" stroke="white" points="-4,5 -4,-104 413,-104 413,5 -4,5"/>
<!-- Node1 -->
<g id="node1" class="node"><title>Node1</title>
<polygon fill="#bfbfbf" stroke="black" points="0.5,-29 0.5,-63 197.5,-63 197.5,-29 0.5,-29"/>
<text text-anchor="start" x="8.5" y="-50" font-family="Helvetica,sans-Serif" font-size="10.00">fwGdcmIO::container</text>
<text text-anchor="middle" x="99" y="-37" font-family="Helvetica,sans-Serif" font-size="10.00">::DicomInstance::computeSOPClassUID</text>
</g>
<!-- Node2 -->
<g id="node3" class="node"><title>Node2</title>
<a xlink:href="classfwGdcmIO_1_1container_1_1DicomInstance.html#a3e500863b864f7ff5c636635a7673bc3" target="_top" xlink:title="Get the flag on multi&#45;files state of an image series. ">
<polygon fill="white" stroke="black" points="252.5,-52.5 252.5,-99.5 389.5,-99.5 389.5,-52.5 252.5,-52.5"/>
<text text-anchor="start" x="260.5" y="-86.5" font-family="Helvetica,sans-Serif" font-size="10.00">fwGdcmIO::container</text>
<text text-anchor="start" x="260.5" y="-73.5" font-family="Helvetica,sans-Serif" font-size="10.00">::DicomInstance::getIsMulti</text>
<text text-anchor="middle" x="321" y="-60.5" font-family="Helvetica,sans-Serif" font-size="10.00">Files</text>
</a>
</g>
<!-- Node1&#45;&gt;Node2 -->
<g id="edge2" class="edge"><title>Node1&#45;&gt;Node2</title>
<path fill="none" stroke="midnightblue" d="M197.665,-59.3331C212.482,-61.3354 227.595,-63.3777 241.931,-65.315"/>
<polygon fill="midnightblue" stroke="midnightblue" points="241.839,-68.8343 252.218,-66.7051 242.777,-61.8974 241.839,-68.8343"/>
</g>
<!-- Node3 -->
<g id="node5" class="node"><title>Node3</title>
<a xlink:href="classfwGdcmIO_1_1container_1_1DicomInstance.html#ad4416fbbd63d060facf4edc033f7ca25" target="_top" xlink:title="Set SOP Class UID. ">
<polygon fill="white" stroke="black" points="234.5,-0 234.5,-34 407.5,-34 407.5,-0 234.5,-0"/>
<text text-anchor="start" x="242.5" y="-21" font-family="Helvetica,sans-Serif" font-size="10.00">fwGdcmIO::container</text>
<text text-anchor="middle" x="321" y="-8" font-family="Helvetica,sans-Serif" font-size="10.00">::DicomInstance::setSOPClassUID</text>
</a>
</g>
<!-- Node1&#45;&gt;Node3 -->
<g id="edge4" class="edge"><title>Node1&#45;&gt;Node3</title>
<path fill="none" stroke="midnightblue" d="M197.665,-33.1113C206.584,-31.9463 215.61,-30.7672 224.51,-29.6046"/>
<polygon fill="midnightblue" stroke="midnightblue" points="225.029,-33.0666 234.491,-28.3007 224.122,-26.1256 225.029,-33.0666"/>
</g>
</g>
</svg>
