<?xml version="1.0" encoding="UTF-8" standalone="no"?>
<!DOCTYPE svg PUBLIC "-//W3C//DTD SVG 1.1//EN"
 "http://www.w3.org/Graphics/SVG/1.1/DTD/svg11.dtd">
<!-- Generated by graphviz version 2.26.3 (20100126.1600)
 -->
<!-- Title: uiImage::ImageTransparency Pages: 1 -->
<!--zoomable 289 -->
<svg id="main" version="1.1" xmlns="http://www.w3.org/2000/svg" xmlns:xlink="http://www.w3.org/1999/xlink" xml:space="preserve" onload="init(evt)">
<style type="text/css"><![CDATA[
.edge:hover path { stroke: red; }
.edge:hover polygon { stroke: red; fill: red; }
]]></style>
<script type="text/javascript"><![CDATA[
var edges = document.getElementsByTagName('g');
if (edges && edges.length) {
  for (var i=0;i<edges.length;i++) {
    if (edges[i].id.substr(0,4)=='edge') {
      edges[i].setAttribute('class','edge');
    }
  }
}
]]></script>
        <defs>
                <circle id="rim" cx="0" cy="0" r="7"/>
                <circle id="rim2" cx="0" cy="0" r="3.5"/>
                <g id="zoomPlus">
                        <use xlink:href="#rim" fill="#404040">
                                <set attributeName="fill" to="#808080" begin="zoomplus.mouseover" end="zoomplus.mouseout"/>
                        </use>
                        <path d="M-4,0h8M0,-4v8" fill="none" stroke="white" stroke-width="1.5" pointer-events="none"/>
                </g>
                <g id="zoomMin">
                        <use xlink:href="#rim" fill="#404040">
                                <set attributeName="fill" to="#808080" begin="zoomminus.mouseover" end="zoomminus.mouseout"/>
                        </use>
                        <path d="M-4,0h8" fill="none" stroke="white" stroke-width="1.5" pointer-events="none"/>
                </g>
                <g id="dirArrow">
                        <path fill="none" stroke="white" stroke-width="1.5" d="M0,-3.0v7 M-2.5,-0.5L0,-3.0L2.5,-0.5"/>
                </g>
               <g id="resetDef">
                       <use xlink:href="#rim2" fill="#404040">
                               <set attributeName="fill" to="#808080" begin="reset.mouseover" end="reset.mouseout"/>
                       </use>
               </g>
        </defs>

<script type="text/javascript">
var viewWidth = 1710;
var viewHeight = 289;
var sectionId = 'dynsection-1';
</script>
<script xlink:href="svgpan.js"/>
<svg id="graph" class="graph">
<g id="viewport">
<title>uiImage::ImageTransparency</title>
<polygon fill="white" stroke="white" points="-4,5 -4,-285 1707,-285 1707,5 -4,5"/>
<!-- Node1 -->
<g id="node1" class="node"><title>Node1</title>
<polygon fill="#bfbfbf" stroke="black" points="1558.5,-54.5 1558.5,-75.5 1701.5,-75.5 1701.5,-54.5 1558.5,-54.5"/>
<text text-anchor="middle" x="1630" y="-62.5" font-family="Helvetica,sans-Serif" font-size="10.00">uiImage::ImageTransparency</text>
</g>
<!-- Node2 -->
<g id="node2" class="node"><title>Node2</title>
<polygon fill="white" stroke="#bfbfbf" points="1446.5,-70.5 1446.5,-91.5 1499.5,-91.5 1499.5,-70.5 1446.5,-70.5"/>
<text text-anchor="middle" x="1473" y="-78.5" font-family="Helvetica,sans-Serif" font-size="10.00">QObject</text>
</g>
<!-- Node2&#45;&gt;Node1 -->
<g id="edge2" class="edge"><title>Node2&#45;&gt;Node1</title>
<path fill="none" stroke="midnightblue" d="M1509.68,-77.2618C1524.2,-75.7826 1541.4,-74.0289 1558.2,-72.3172"/>
<polygon fill="midnightblue" stroke="midnightblue" points="1509.23,-73.7899 1499.63,-78.2858 1509.94,-80.7538 1509.23,-73.7899"/>
</g>
<!-- Node3 -->
<g id="node4" class="node"><title>Node3</title>
<a xlink:href="classgui_1_1editor_1_1IEditor.html" target="_top" xlink:title="Defines the service interface managing the editor service for object. ">
<polygon fill="white" stroke="black" points="1426,-30.5 1426,-51.5 1520,-51.5 1520,-30.5 1426,-30.5"/>
<text text-anchor="middle" x="1473" y="-38.5" font-family="Helvetica,sans-Serif" font-size="10.00">gui::editor::IEditor</text>
</a>
</g>
<!-- Node3&#45;&gt;Node1 -->
<g id="edge4" class="edge"><title>Node3&#45;&gt;Node1</title>
<path fill="none" stroke="midnightblue" d="M1530.02,-49.7163C1540.13,-51.2623 1550.76,-52.8871 1561.16,-54.4768"/>
<polygon fill="midnightblue" stroke="midnightblue" points="1530.52,-46.2522 1520.11,-48.2008 1529.46,-53.1718 1530.52,-46.2522"/>
</g>
<!-- Node4 -->
<g id="node6" class="node"><title>Node4</title>
<a xlink:href="classfwGui_1_1IGuiContainerSrv.html" target="_top" xlink:title="Defines the service interface managing the layout. ">
<polygon fill="white" stroke="black" points="1264.5,-30.5 1264.5,-51.5 1387.5,-51.5 1387.5,-30.5 1264.5,-30.5"/>
<text text-anchor="middle" x="1326" y="-38.5" font-family="Helvetica,sans-Serif" font-size="10.00">fwGui::IGuiContainerSrv</text>
</a>
</g>
<!-- Node4&#45;&gt;Node3 -->
<g id="edge6" class="edge"><title>Node4&#45;&gt;Node3</title>
<path fill="none" stroke="midnightblue" d="M1398.12,-41C1407.55,-41 1417.02,-41 1425.9,-41"/>
<polygon fill="midnightblue" stroke="midnightblue" points="1397.92,-37.5001 1387.92,-41 1397.92,-44.5001 1397.92,-37.5001"/>
</g>
<!-- Node5 -->
<g id="node8" class="node"><title>Node5</title>
<a xlink:href="classfwServices_1_1IService.html" target="_top" xlink:title="Base class for all services. ">
<polygon fill="white" stroke="black" points="1115.5,-148.5 1115.5,-169.5 1222.5,-169.5 1222.5,-148.5 1115.5,-148.5"/>
<text text-anchor="middle" x="1169" y="-156.5" font-family="Helvetica,sans-Serif" font-size="10.00">fwServices::IService</text>
</a>
</g>
<!-- Node5&#45;&gt;Node4 -->
<g id="edge8" class="edge"><title>Node5&#45;&gt;Node4</title>
<path fill="none" stroke="midnightblue" d="M1191.31,-142.23C1224.17,-117.536 1284.61,-72.1058 1311.94,-51.5707"/>
<polygon fill="midnightblue" stroke="midnightblue" points="1189.1,-139.514 1183.21,-148.32 1193.31,-145.11 1189.1,-139.514"/>
</g>
<!-- Node6 -->
<g id="node10" class="node"><title>Node6</title>
<a xlink:href="classfwTools_1_1Object.html" target="_top" xlink:title="Define Base class for FW4SPL objects and services. ">
<polygon fill="white" stroke="black" points="879,-213.5 879,-234.5 965,-234.5 965,-213.5 879,-213.5"/>
<text text-anchor="middle" x="922" y="-221.5" font-family="Helvetica,sans-Serif" font-size="10.00">fwTools::Object</text>
</a>
</g>
<!-- Node6&#45;&gt;Node5 -->
<g id="edge10" class="edge"><title>Node6&#45;&gt;Node5</title>
<path fill="none" stroke="midnightblue" d="M975.33,-213.499C1009.49,-206.381 1054.65,-196.246 1094,-185 1109.64,-180.532 1126.79,-174.659 1140.75,-169.625"/>
<polygon fill="midnightblue" stroke="midnightblue" points="974.185,-210.161 965.098,-215.609 975.599,-217.017 974.185,-210.161"/>
</g>
<!-- Node7 -->
<g id="node12" class="node"><title>Node7</title>
<a xlink:href="classfwCore_1_1BaseObject.html" target="_top" xlink:title="Base class for all FW4SPL&#39;s classes. ">
<polygon fill="white" stroke="black" points="680.5,-253.5 680.5,-274.5 785.5,-274.5 785.5,-253.5 680.5,-253.5"/>
<text text-anchor="middle" x="733" y="-261.5" font-family="Helvetica,sans-Serif" font-size="10.00">fwCore::BaseObject</text>
</a>
</g>
<!-- Node7&#45;&gt;Node6 -->
<g id="edge12" class="edge"><title>Node7&#45;&gt;Node6</title>
<path fill="none" stroke="midnightblue" d="M792.712,-251.363C820.64,-245.452 853.28,-238.544 878.777,-233.148"/>
<polygon fill="midnightblue" stroke="midnightblue" points="791.716,-247.996 782.658,-253.49 793.166,-254.844 791.716,-247.996"/>
</g>
<!-- Node8 -->
<g id="node14" class="node"><title>Node8</title>
<polygon fill="white" stroke="#bfbfbf" points="449.5,-247 449.5,-281 580.5,-281 580.5,-247 449.5,-247"/>
<text text-anchor="start" x="457.5" y="-268" font-family="Helvetica,sans-Serif" font-size="10.00">std::enable_shared</text>
<text text-anchor="middle" x="515" y="-255" font-family="Helvetica,sans-Serif" font-size="10.00">_from_this&lt; BaseObject &gt;</text>
</g>
<!-- Node8&#45;&gt;Node7 -->
<g id="edge14" class="edge"><title>Node8&#45;&gt;Node7</title>
<path fill="none" stroke="midnightblue" d="M590.959,-264C620.418,-264 653.435,-264 680.216,-264"/>
<polygon fill="midnightblue" stroke="midnightblue" points="590.703,-260.5 580.703,-264 590.703,-267.5 590.703,-260.5"/>
</g>
<!-- Node9 -->
<g id="node16" class="node"><title>Node9</title>
<a xlink:href="classfwTools_1_1fwID.html" target="_top" xlink:title="Defines ID for fwTools::Object. It is used to associate ID with object. ">
<polygon fill="white" stroke="black" points="694,-213.5 694,-234.5 772,-234.5 772,-213.5 694,-213.5"/>
<text text-anchor="middle" x="733" y="-221.5" font-family="Helvetica,sans-Serif" font-size="10.00">fwTools::fwID</text>
</a>
</g>
<!-- Node9&#45;&gt;Node6 -->
<g id="edge16" class="edge"><title>Node9&#45;&gt;Node6</title>
<path fill="none" stroke="darkgreen" d="M782.399,-224C812.353,-224 850.205,-224 878.936,-224"/>
<polygon fill="darkgreen" stroke="darkgreen" points="782.161,-220.5 772.161,-224 782.161,-227.5 782.161,-220.5"/>
</g>
<!-- Node10 -->
<g id="node18" class="node"><title>Node10</title>
<a xlink:href="classfwCom_1_1HasSlots.html" target="_top" xlink:title="This class proposes a mapping between a SlotKeyType and a SlotBase. ">
<polygon fill="white" stroke="black" points="874.5,-133.5 874.5,-154.5 969.5,-154.5 969.5,-133.5 874.5,-133.5"/>
<text text-anchor="middle" x="922" y="-141.5" font-family="Helvetica,sans-Serif" font-size="10.00">fwCom::HasSlots</text>
</a>
</g>
<!-- Node10&#45;&gt;Node5 -->
<g id="edge18" class="edge"><title>Node10&#45;&gt;Node5</title>
<path fill="none" stroke="midnightblue" d="M979.709,-147.505C1020.6,-149.988 1075.07,-153.296 1115.08,-155.726"/>
<polygon fill="midnightblue" stroke="midnightblue" points="979.818,-144.005 969.624,-146.892 979.394,-150.992 979.818,-144.005"/>
</g>
<!-- Node11 -->
<g id="node20" class="node"><title>Node11</title>
<a xlink:href="classfwCom_1_1Slots.html" target="_top" xlink:title="This class proposes a mapping between a SlotKeyType and a SlotBase. ">
<polygon fill="white" stroke="black" points="694.5,-127.5 694.5,-148.5 771.5,-148.5 771.5,-127.5 694.5,-127.5"/>
<text text-anchor="middle" x="733" y="-135.5" font-family="Helvetica,sans-Serif" font-size="10.00">fwCom::Slots</text>
</a>
</g>
<!-- Node11&#45;&gt;Node10 -->
<g id="edge20" class="edge"><title>Node11&#45;&gt;Node10</title>
<path fill="none" stroke="#9a32cd" stroke-dasharray="5,2" d="M781.832,-139.55C810.292,-140.454 846.028,-141.588 874.293,-142.485"/>
<polygon fill="#9a32cd" stroke="#9a32cd" points="781.809,-136.048 771.703,-139.229 781.587,-143.044 781.809,-136.048"/>
<text text-anchor="middle" x="828" y="-145" font-family="Helvetica,sans-Serif" font-size="10.00"> m_slots</text>
</g>
<!-- Node12 -->
<g id="node22" class="node"><title>Node12</title>
<polygon fill="white" stroke="#bfbfbf" points="439,-117 439,-151 591,-151 591,-117 439,-117"/>
<text text-anchor="start" x="447" y="-138" font-family="Helvetica,sans-Serif" font-size="10.00">std::map&lt; SlotKeyType,</text>
<text text-anchor="middle" x="515" y="-125" font-family="Helvetica,sans-Serif" font-size="10.00"> std::shared_ptr&lt; SlotBase &gt; &gt;</text>
</g>
<!-- Node12&#45;&gt;Node11 -->
<g id="edge22" class="edge"><title>Node12&#45;&gt;Node11</title>
<path fill="none" stroke="#9a32cd" stroke-dasharray="5,2" d="M601.588,-135.589C633.782,-136.179 668.703,-136.82 694.45,-137.293"/>
<polygon fill="#9a32cd" stroke="#9a32cd" points="601.308,-132.083 591.246,-135.399 601.18,-139.082 601.308,-132.083"/>
<text text-anchor="middle" x="638" y="-140" font-family="Helvetica,sans-Serif" font-size="10.00"> m_slots</text>
</g>
<!-- Node13 -->
<g id="node24" class="node"><title>Node13</title>
<a xlink:title="STL class. ">
<polygon fill="white" stroke="#bfbfbf" points="192,-194.5 192,-215.5 252,-215.5 252,-194.5 192,-194.5"/>
<text text-anchor="middle" x="222" y="-202.5" font-family="Helvetica,sans-Serif" font-size="10.00">std::string</text>
</a>
</g>
<!-- Node13&#45;&gt;Node12 -->
<g id="edge24" class="edge"><title>Node13&#45;&gt;Node12</title>
<path fill="none" stroke="#9a32cd" stroke-dasharray="5,2" d="M234.251,-185.757C245.538,-169.952 263.865,-148.655 286,-139 312.563,-127.414 383.108,-127.4 438.944,-129.537"/>
<polygon fill="#9a32cd" stroke="#9a32cd" points="231.171,-184.061 228.442,-194.299 236.96,-187.998 231.171,-184.061"/>
<text text-anchor="middle" x="351" y="-143" font-family="Helvetica,sans-Serif" font-size="10.00"> keys</text>
</g>
<!-- Node20 -->
<g id="node38" class="node"><title>Node20</title>
<polygon fill="white" stroke="#bfbfbf" points="434.5,-169 434.5,-203 595.5,-203 595.5,-169 434.5,-169"/>
<text text-anchor="start" x="442.5" y="-190" font-family="Helvetica,sans-Serif" font-size="10.00">std::map&lt; SignalKeyType,</text>
<text text-anchor="middle" x="515" y="-177" font-family="Helvetica,sans-Serif" font-size="10.00"> std::shared_ptr&lt; SignalBase &gt; &gt;</text>
</g>
<!-- Node13&#45;&gt;Node20 -->
<g id="edge40" class="edge"><title>Node13&#45;&gt;Node20</title>
<path fill="none" stroke="#9a32cd" stroke-dasharray="5,2" d="M262.565,-207.229C301.888,-208.864 363.173,-210.023 416,-205 422.011,-204.428 428.199,-203.666 434.409,-202.774"/>
<polygon fill="#9a32cd" stroke="#9a32cd" points="262.473,-203.721 252.327,-206.771 262.161,-210.714 262.473,-203.721"/>
<text text-anchor="middle" x="351" y="-212" font-family="Helvetica,sans-Serif" font-size="10.00"> keys</text>
</g>
<!-- Node14 -->
<g id="node26" class="node"><title>Node14</title>
<a xlink:title="STL class. ">
<polygon fill="white" stroke="#bfbfbf" points="0.5,-188 0.5,-222 95.5,-222 95.5,-188 0.5,-188"/>
<text text-anchor="start" x="8.5" y="-209" font-family="Helvetica,sans-Serif" font-size="10.00">std::basic_string&lt;</text>
<text text-anchor="middle" x="48" y="-196" font-family="Helvetica,sans-Serif" font-size="10.00"> char &gt;</text>
</a>
</g>
<!-- Node14&#45;&gt;Node13 -->
<g id="edge26" class="edge"><title>Node14&#45;&gt;Node13</title>
<path fill="none" stroke="midnightblue" d="M105.887,-205C134.618,-205 168.136,-205 191.754,-205"/>
<polygon fill="midnightblue" stroke="midnightblue" points="105.546,-201.5 95.5463,-205 105.546,-208.5 105.546,-201.5"/>
</g>
<!-- Node15 -->
<g id="node28" class="node"><title>Node15</title>
<a xlink:title="STL class. ">
<polygon fill="white" stroke="#bfbfbf" points="176,-106.5 176,-127.5 268,-127.5 268,-106.5 176,-106.5"/>
<text text-anchor="middle" x="222" y="-114.5" font-family="Helvetica,sans-Serif" font-size="10.00">std::map&lt; K, T &gt;</text>
</a>
</g>
<!-- Node15&#45;&gt;Node12 -->
<g id="edge28" class="edge"><title>Node15&#45;&gt;Node12</title>
<path fill="none" stroke="orange" stroke-dasharray="5,2" d="M254.626,-102.83C264.514,-99.2081 275.532,-95.8239 286,-94 342.92,-84.0826 359.284,-82.9751 416,-94 438.928,-98.4569 463.269,-108.216 482.077,-116.979"/>
<polygon fill="orange" stroke="orange" points="253.244,-99.6121 245.178,-106.482 255.768,-106.141 253.244,-99.6121"/>
<text text-anchor="start" x="291.5" y="-111" font-family="Helvetica,sans-Serif" font-size="10.00"> &lt; SlotKeyType, std</text>
<text text-anchor="middle" x="351" y="-98" font-family="Helvetica,sans-Serif" font-size="10.00">::shared_ptr&lt; SlotBase &gt; &gt;</text>
</g>
<!-- Node15&#45;&gt;Node20 -->
<g id="edge42" class="edge"><title>Node15&#45;&gt;Node20</title>
<path fill="none" stroke="orange" stroke-dasharray="5,2" d="M244.198,-133.708C256.01,-141.75 271.136,-150.762 286,-156 299.969,-160.922 374.094,-170.156 434.283,-177.084"/>
<polygon fill="orange" stroke="orange" points="246.057,-130.736 235.87,-127.826 242.018,-136.454 246.057,-130.736"/>
<text text-anchor="start" x="286.5" y="-191" font-family="Helvetica,sans-Serif" font-size="10.00"> &lt; SignalKeyType, std</text>
<text text-anchor="middle" x="351" y="-178" font-family="Helvetica,sans-Serif" font-size="10.00">::shared_ptr&lt; SignalBase &gt; &gt;</text>
</g>
<!-- Node16 -->
<g id="node30" class="node"><title>Node16</title>
<polygon fill="white" stroke="#bfbfbf" points="33.5,-86.5 33.5,-107.5 62.5,-107.5 62.5,-86.5 33.5,-86.5"/>
<text text-anchor="middle" x="48" y="-94.5" font-family="Helvetica,sans-Serif" font-size="10.00">K</text>
</g>
<!-- Node16&#45;&gt;Node15 -->
<g id="edge30" class="edge"><title>Node16&#45;&gt;Node15</title>
<path fill="none" stroke="#9a32cd" stroke-dasharray="5,2" d="M72.9653,-96.825C95.339,-96.9788 129.004,-97.9782 158,-102 165.913,-103.098 174.283,-104.716 182.27,-106.489"/>
<polygon fill="#9a32cd" stroke="#9a32cd" points="72.6745,-93.3246 62.669,-96.809 72.6635,-100.325 72.6745,-93.3246"/>
<text text-anchor="middle" x="136" y="-106" font-family="Helvetica,sans-Serif" font-size="10.00"> keys</text>
</g>
<!-- Node17 -->
<g id="node32" class="node"><title>Node17</title>
<polygon fill="white" stroke="#bfbfbf" points="33.5,-126.5 33.5,-147.5 62.5,-147.5 62.5,-126.5 33.5,-126.5"/>
<text text-anchor="middle" x="48" y="-134.5" font-family="Helvetica,sans-Serif" font-size="10.00">T</text>
</g>
<!-- Node17&#45;&gt;Node15 -->
<g id="edge32" class="edge"><title>Node17&#45;&gt;Node15</title>
<path fill="none" stroke="#9a32cd" stroke-dasharray="5,2" d="M72.5869,-134.174C99.3704,-131.095 142.819,-126.101 175.976,-122.29"/>
<polygon fill="#9a32cd" stroke="#9a32cd" points="72.0708,-130.71 62.5359,-135.329 72.8701,-137.664 72.0708,-130.71"/>
<text text-anchor="middle" x="136" y="-133" font-family="Helvetica,sans-Serif" font-size="10.00"> elements</text>
</g>
<!-- Node18 -->
<g id="node34" class="node"><title>Node18</title>
<a xlink:href="classfwCom_1_1HasSignals.html" target="_top" xlink:title="This class proposes a mapping between a SignalKeyType and a SignalBase. ">
<polygon fill="white" stroke="black" points="870,-173.5 870,-194.5 974,-194.5 974,-173.5 870,-173.5"/>
<text text-anchor="middle" x="922" y="-181.5" font-family="Helvetica,sans-Serif" font-size="10.00">fwCom::HasSignals</text>
</a>
</g>
<!-- Node18&#45;&gt;Node5 -->
<g id="edge34" class="edge"><title>Node18&#45;&gt;Node5</title>
<path fill="none" stroke="midnightblue" d="M984.084,-177.716C1024.49,-173.626 1076.66,-168.346 1115.28,-164.437"/>
<polygon fill="midnightblue" stroke="midnightblue" points="983.677,-174.239 974.081,-178.729 984.382,-181.204 983.677,-174.239"/>
</g>
<!-- Node19 -->
<g id="node36" class="node"><title>Node19</title>
<a xlink:href="classfwCom_1_1Signals.html" target="_top" xlink:title="This class proposes a mapping between a SignalKeyType and a SignalBase. ">
<polygon fill="white" stroke="black" points="690,-173.5 690,-194.5 776,-194.5 776,-173.5 690,-173.5"/>
<text text-anchor="middle" x="733" y="-181.5" font-family="Helvetica,sans-Serif" font-size="10.00">fwCom::Signals</text>
</a>
</g>
<!-- Node19&#45;&gt;Node18 -->
<g id="edge36" class="edge"><title>Node19&#45;&gt;Node18</title>
<path fill="none" stroke="#9a32cd" stroke-dasharray="5,2" d="M786.454,-184C812.549,-184 843.828,-184 869.76,-184"/>
<polygon fill="#9a32cd" stroke="#9a32cd" points="786.36,-180.5 776.36,-184 786.36,-187.5 786.36,-180.5"/>
<text text-anchor="middle" x="828" y="-188" font-family="Helvetica,sans-Serif" font-size="10.00"> m_signals</text>
</g>
<!-- Node20&#45;&gt;Node19 -->
<g id="edge38" class="edge"><title>Node20&#45;&gt;Node19</title>
<path fill="none" stroke="#9a32cd" stroke-dasharray="5,2" d="M605.751,-185.167C634.826,-184.901 665.684,-184.618 689.73,-184.397"/>
<polygon fill="#9a32cd" stroke="#9a32cd" points="605.523,-181.669 595.556,-185.261 605.588,-188.669 605.523,-181.669"/>
<text text-anchor="middle" x="638" y="-189" font-family="Helvetica,sans-Serif" font-size="10.00"> m_signals</text>
</g>
<!-- Node21 -->
<g id="node42" class="node"><title>Node21</title>
<polygon fill="white" stroke="#bfbfbf" points="901.5,-0.5 901.5,-21.5 942.5,-21.5 942.5,-0.5 901.5,-0.5"/>
<text text-anchor="middle" x="922" y="-8.5" font-family="Helvetica,sans-Serif" font-size="10.00">static</text>
</g>
<!-- Node21&#45;&gt;Node4 -->
<g id="edge46" class="edge"><title>Node21&#45;&gt;Node4</title>
<path fill="none" stroke="#9a32cd" stroke-dasharray="5,2" d="M952.671,-9.40085C964.903,-8.83749 979.114,-8.276 992,-8 1037.32,-7.02924 1048.78,-4.80001 1094,-8 1153.66,-12.2215 1221.3,-22.4758 1268.08,-30.4428"/>
<polygon fill="#9a32cd" stroke="#9a32cd" points="952.335,-5.91287 942.515,-9.88927 952.671,-12.9048 952.335,-5.91287"/>
<text text-anchor="middle" x="1169" y="-93" font-family="Helvetica,sans-Serif" font-size="10.00"> s_SET_VISIBLE_SLOT</text>
<text text-anchor="middle" x="1169" y="-80" font-family="Helvetica,sans-Serif" font-size="10.00">s_SHOW_SLOT</text>
<text text-anchor="middle" x="1169" y="-67" font-family="Helvetica,sans-Serif" font-size="10.00">s_SET_ENABLED_SLOT</text>
<text text-anchor="middle" x="1169" y="-54" font-family="Helvetica,sans-Serif" font-size="10.00">s_HIDE_SLOT</text>
<text text-anchor="middle" x="1169" y="-41" font-family="Helvetica,sans-Serif" font-size="10.00">s_ENABLE_SLOT</text>
<text text-anchor="middle" x="1169" y="-28" font-family="Helvetica,sans-Serif" font-size="10.00">s_DISABLE_SLOT</text>
</g>
<!-- Node21&#45;&gt;Node5 -->
<g id="edge44" class="edge"><title>Node21&#45;&gt;Node5</title>
<path fill="none" stroke="#9a32cd" stroke-dasharray="5,2" d="M952.714,-10.0434C996.14,-9.31594 1072.59,-10.5286 1094,-27 1112.39,-41.1468 1101.35,-55.3881 1112,-76 1126.28,-103.643 1148.26,-132.972 1160.33,-148.278"/>
<polygon fill="#9a32cd" stroke="#9a32cd" points="952.619,-6.54453 942.696,-10.2554 952.768,-13.543 952.619,-6.54453"/>
<text text-anchor="middle" x="1043" y="-135" font-family="Helvetica,sans-Serif" font-size="10.00"> s_STOPPED_SIG</text>
<text text-anchor="middle" x="1043" y="-122" font-family="Helvetica,sans-Serif" font-size="10.00">s_UPDATED_SIG</text>
<text text-anchor="middle" x="1043" y="-109" font-family="Helvetica,sans-Serif" font-size="10.00">s_UPDATE_SLOT</text>
<text text-anchor="middle" x="1043" y="-96" font-family="Helvetica,sans-Serif" font-size="10.00">s_STARTED_SIG</text>
<text text-anchor="middle" x="1043" y="-83" font-family="Helvetica,sans-Serif" font-size="10.00">s_SWAPKEY_SLOT</text>
<text text-anchor="middle" x="1043" y="-70" font-family="Helvetica,sans-Serif" font-size="10.00">s_SWAP_SLOT</text>
<text text-anchor="middle" x="1043" y="-57" font-family="Helvetica,sans-Serif" font-size="10.00">s_STOP_SLOT</text>
<text text-anchor="middle" x="1043" y="-44" font-family="Helvetica,sans-Serif" font-size="10.00">s_START_SLOT</text>
<text text-anchor="middle" x="1043" y="-31" font-family="Helvetica,sans-Serif" font-size="10.00">s_DEFAULT_OBJECT</text>
</g>
</g>
</svg>
        <g id="navigator" transform="translate(0 0)" fill="#404254">
                <rect fill="#f2f5e9" fill-opacity="0.5" stroke="#606060" stroke-width=".5" x="0" y="0" width="60" height="60"/>
                <use id="zoomplus" xlink:href="#zoomPlus" x="17" y="9" onmousedown="handleZoom(evt,'in')"/>
                <use id="zoomminus" xlink:href="#zoomMin" x="42" y="9" onmousedown="handleZoom(evt,'out')"/>
                <use id="reset" xlink:href="#resetDef" x="30" y="36" onmousedown="handleReset()"/>
                <g id="arrowUp" xlink:href="#dirArrow" transform="translate(30 24)" onmousedown="handlePan(0,-1)">
                  <use xlink:href="#rim" fill="#404040">
                        <set attributeName="fill" to="#808080" begin="arrowUp.mouseover" end="arrowUp.mouseout"/>
                  </use>
                  <path fill="none" stroke="white" stroke-width="1.5" d="M0,-3.0v7 M-2.5,-0.5L0,-3.0L2.5,-0.5"/>
                </g>
                <g id="arrowRight" xlink:href="#dirArrow" transform="rotate(90) translate(36 -43)" onmousedown="handlePan(1,0)">
                  <use xlink:href="#rim" fill="#404040">
                        <set attributeName="fill" to="#808080" begin="arrowRight.mouseover" end="arrowRight.mouseout"/>
                  </use>
                  <path fill="none" stroke="white" stroke-width="1.5" d="M0,-3.0v7 M-2.5,-0.5L0,-3.0L2.5,-0.5"/>
                </g>
                <g id="arrowDown" xlink:href="#dirArrow" transform="rotate(180) translate(-30 -48)" onmousedown="handlePan(0,1)">
                  <use xlink:href="#rim" fill="#404040">
                        <set attributeName="fill" to="#808080" begin="arrowDown.mouseover" end="arrowDown.mouseout"/>
                  </use>
                  <path fill="none" stroke="white" stroke-width="1.5" d="M0,-3.0v7 M-2.5,-0.5L0,-3.0L2.5,-0.5"/>
                </g>
                <g id="arrowLeft" xlink:href="#dirArrow" transform="rotate(270) translate(-36 17)" onmousedown="handlePan(-1,0)">
                  <use xlink:href="#rim" fill="#404040">
                        <set attributeName="fill" to="#808080" begin="arrowLeft.mouseover" end="arrowLeft.mouseout"/>
                  </use>
                  <path fill="none" stroke="white" stroke-width="1.5" d="M0,-3.0v7 M-2.5,-0.5L0,-3.0L2.5,-0.5"/>
                </g>
        </g>
        <svg viewBox="0 0 15 15" width="100%" height="30px" preserveAspectRatio="xMaxYMin meet">
         <g id="arrow_out" transform="scale(0.3 0.3)">
          <a xlink:href="classuiImage_1_1ImageTransparency__coll__graph_org.svg" target="_base">
           <rect id="button" ry="5" rx="5" y="6" x="6" height="38" width="38"
                fill="#f2f5e9" fill-opacity="0.5" stroke="#606060" stroke-width="1.0"/>
           <path id="arrow"
             d="M 11.500037,31.436501 C 11.940474,20.09759 22.043105,11.32322 32.158766,21.979434 L 37.068811,17.246167 C 37.068811,17.246167 37.088388,32 37.088388,32 L 22.160133,31.978069 C 22.160133,31.978069 26.997745,27.140456 26.997745,27.140456 C 18.528582,18.264221 13.291696,25.230495 11.500037,31.436501 z"
             style="fill:#404040;"/>
          </a>
         </g>
        </svg>
</svg>
