<?xml version="1.0" encoding="UTF-8" standalone="no"?>
<!DOCTYPE svg PUBLIC "-//W3C//DTD SVG 1.1//EN"
 "http://www.w3.org/Graphics/SVG/1.1/DTD/svg11.dtd">
<!-- Generated by graphviz version 2.26.3 (20100126.1600)
 -->
<!-- Title: fwServices::IService::isStarted Pages: 1 -->
<!--zoomable 666 -->
<svg id="main" version="1.1" xmlns="http://www.w3.org/2000/svg" xmlns:xlink="http://www.w3.org/1999/xlink" xml:space="preserve" onload="init(evt)">
<style type="text/css"><![CDATA[
.edge:hover path { stroke: red; }
.edge:hover polygon { stroke: red; fill: red; }
]]></style>
<script type="text/javascript"><![CDATA[
var edges = document.getElementsByTagName('g');
if (edges && edges.length) {
  for (var i=0;i<edges.length;i++) {
    if (edges[i].id.substr(0,4)=='edge') {
      edges[i].setAttribute('class','edge');
    }
  }
}
]]></script>
        <defs>
                <circle id="rim" cx="0" cy="0" r="7"/>
                <circle id="rim2" cx="0" cy="0" r="3.5"/>
                <g id="zoomPlus">
                        <use xlink:href="#rim" fill="#404040">
                                <set attributeName="fill" to="#808080" begin="zoomplus.mouseover" end="zoomplus.mouseout"/>
                        </use>
                        <path d="M-4,0h8M0,-4v8" fill="none" stroke="white" stroke-width="1.5" pointer-events="none"/>
                </g>
                <g id="zoomMin">
                        <use xlink:href="#rim" fill="#404040">
                                <set attributeName="fill" to="#808080" begin="zoomminus.mouseover" end="zoomminus.mouseout"/>
                        </use>
                        <path d="M-4,0h8" fill="none" stroke="white" stroke-width="1.5" pointer-events="none"/>
                </g>
                <g id="dirArrow">
                        <path fill="none" stroke="white" stroke-width="1.5" d="M0,-3.0v7 M-2.5,-0.5L0,-3.0L2.5,-0.5"/>
                </g>
               <g id="resetDef">
                       <use xlink:href="#rim2" fill="#404040">
                               <set attributeName="fill" to="#808080" begin="reset.mouseover" end="reset.mouseout"/>
                       </use>
               </g>
        </defs>

<script type="text/javascript">
var viewWidth = 674;
var viewHeight = 666;
var sectionId = 'dynsection-13';
</script>
<script xlink:href="svgpan.js"/>
<svg id="graph" class="graph">
<g id="viewport">
<title>fwServices::IService::isStarted</title>
<polygon fill="white" stroke="white" points="-4,5 -4,-662 671,-662 671,5 -4,5"/>
<!-- Node1 -->
<g id="node1" class="node"><title>Node1</title>
<polygon fill="#bfbfbf" stroke="black" points="0.5,-312 0.5,-346 107.5,-346 107.5,-312 0.5,-312"/>
<text text-anchor="start" x="8.5" y="-333" font-family="Helvetica,sans-Serif" font-size="10.00">fwServices::IService</text>
<text text-anchor="middle" x="54" y="-320" font-family="Helvetica,sans-Serif" font-size="10.00">::isStarted</text>
</g>
<!-- Node2 -->
<g id="node3" class="node"><title>Node2</title>
<a xlink:href="classscene2D_1_1Render.html#a376594488e2b5011a1eb0d0a5af6b09e" target="_top" xlink:title="Returns what happens to scene&#39;s aspect ratio on view resize events. ">
<polygon fill="white" stroke="black" points="144.5,-364 144.5,-398 287.5,-398 287.5,-364 144.5,-364"/>
<text text-anchor="start" x="152.5" y="-385" font-family="Helvetica,sans-Serif" font-size="10.00">scene2D::Render::getAspect</text>
<text text-anchor="middle" x="216" y="-372" font-family="Helvetica,sans-Serif" font-size="10.00">RatioMode</text>
</a>
</g>
<!-- Node1&#45;&gt;Node2 -->
<g id="edge2" class="edge"><title>Node1&#45;&gt;Node2</title>
<path fill="none" stroke="midnightblue" d="M116.872,-349.181C132.06,-354.056 148.143,-359.219 162.836,-363.935"/>
<polygon fill="midnightblue" stroke="midnightblue" points="117.636,-345.751 107.045,-346.027 115.497,-352.416 117.636,-345.751"/>
</g>
<!-- Node3 -->
<g id="node5" class="node"><title>Node3</title>
<a xlink:href="classfwRenderVTK_1_1IVtkAdaptorService.html#a3960bcd2e88db0bdfb559352fbd4163e" target="_top" xlink:title="notify a render request iff vtkPipeline is modified ">
<polygon fill="white" stroke="black" points="148,-312 148,-346 284,-346 284,-312 148,-312"/>
<text text-anchor="start" x="156" y="-333" font-family="Helvetica,sans-Serif" font-size="10.00">fwRenderVTK::IVtkAdaptor</text>
<text text-anchor="middle" x="216" y="-320" font-family="Helvetica,sans-Serif" font-size="10.00">Service::requestRender</text>
</a>
</g>
<!-- Node1&#45;&gt;Node3 -->
<g id="edge4" class="edge"><title>Node1&#45;&gt;Node3</title>
<path fill="none" stroke="midnightblue" d="M118.016,-329C127.827,-329 137.987,-329 147.882,-329"/>
<polygon fill="midnightblue" stroke="midnightblue" points="117.944,-325.5 107.944,-329 117.944,-332.5 117.944,-325.5"/>
</g>
<!-- Node23 -->
<g id="node45" class="node"><title>Node23</title>
<a xlink:href="classscene2D_1_1Render.html#a08ca72a78d6791c3816e826ba8236d3b" target="_top" xlink:title="Call startContext to set the scene, the viewport and the view, and add&#39;em to the QtContainer and star...">
<polygon fill="white" stroke="black" points="150.5,-272.5 150.5,-293.5 281.5,-293.5 281.5,-272.5 150.5,-272.5"/>
<text text-anchor="middle" x="216" y="-280.5" font-family="Helvetica,sans-Serif" font-size="10.00">scene2D::Render::starting</text>
</a>
</g>
<!-- Node1&#45;&gt;Node23 -->
<g id="edge44" class="edge"><title>Node1&#45;&gt;Node23</title>
<path fill="none" stroke="midnightblue" d="M117.368,-310.605C126.305,-308.037 135.381,-305.442 144,-303 154.984,-299.888 166.924,-296.552 177.866,-293.514"/>
<polygon fill="midnightblue" stroke="midnightblue" points="116.393,-307.244 107.752,-313.374 118.33,-313.97 116.393,-307.244"/>
</g>
<!-- Node4 -->
<g id="node7" class="node"><title>Node4</title>
<a xlink:href="classvisuVTKAdaptor_1_1Axes.html#aab933ceca6dcc8ea224be93c9d344177" target="_top" xlink:title="Slot: update axes visibility (true = visible) ">
<polygon fill="white" stroke="black" points="344,-624 344,-658 460,-658 460,-624 344,-624"/>
<text text-anchor="start" x="352" y="-645" font-family="Helvetica,sans-Serif" font-size="10.00">visuVTKAdaptor::Axes</text>
<text text-anchor="middle" x="402" y="-632" font-family="Helvetica,sans-Serif" font-size="10.00">::updateVisibility</text>
</a>
</g>
<!-- Node3&#45;&gt;Node4 -->
<g id="edge6" class="edge"><title>Node3&#45;&gt;Node4</title>
<path fill="none" stroke="midnightblue" d="M286.12,-352.827C286.769,-353.531 287.396,-354.255 288,-355 361.437,-445.642 249.445,-525.275 324,-615 329.291,-621.368 336.188,-626.185 343.693,-629.827"/>
<polygon fill="midnightblue" stroke="midnightblue" points="288.252,-350.041 278.434,-346.058 283.626,-355.294 288.252,-350.041"/>
</g>
<!-- Node5 -->
<g id="node9" class="node"><title>Node5</title>
<a xlink:href="classvisuVTKAdaptor_1_1Image.html#a7818779e522b7161bdce5ade3ab0e461" target="_top" xlink:title="Called when transfer function points are modified. ">
<polygon fill="white" stroke="black" points="341.5,-572 341.5,-606 462.5,-606 462.5,-572 341.5,-572"/>
<text text-anchor="start" x="349.5" y="-593" font-family="Helvetica,sans-Serif" font-size="10.00">visuVTKAdaptor::Image</text>
<text text-anchor="middle" x="402" y="-580" font-family="Helvetica,sans-Serif" font-size="10.00">::updatingTFPoints</text>
</a>
</g>
<!-- Node3&#45;&gt;Node5 -->
<g id="edge8" class="edge"><title>Node3&#45;&gt;Node5</title>
<path fill="none" stroke="midnightblue" d="M286.085,-352.856C286.745,-353.551 287.384,-354.265 288,-355 348.283,-426.888 262.831,-491.864 324,-563 328.746,-568.52 334.697,-572.872 341.185,-576.303"/>
<polygon fill="midnightblue" stroke="midnightblue" points="288.168,-350.032 278.304,-346.165 283.604,-355.339 288.168,-350.032"/>
</g>
<!-- Node6 -->
<g id="node11" class="node"><title>Node6</title>
<a xlink:href="classvisuVTKAdaptor_1_1Image.html#af5ca88915d3ca94f0a10ca951bf5b519" target="_top" xlink:title="Called when transfer function windowing is modified. ">
<polygon fill="white" stroke="black" points="341.5,-520 341.5,-554 462.5,-554 462.5,-520 341.5,-520"/>
<text text-anchor="start" x="349.5" y="-541" font-family="Helvetica,sans-Serif" font-size="10.00">visuVTKAdaptor::Image</text>
<text text-anchor="middle" x="402" y="-528" font-family="Helvetica,sans-Serif" font-size="10.00">::updatingTFWindowing</text>
</a>
</g>
<!-- Node3&#45;&gt;Node6 -->
<g id="edge10" class="edge"><title>Node3&#45;&gt;Node6</title>
<path fill="none" stroke="midnightblue" d="M285.665,-352.546C286.471,-353.337 287.25,-354.155 288,-355 335.214,-408.235 276.13,-458.354 324,-511 328.898,-516.386 334.939,-520.658 341.475,-524.046"/>
<polygon fill="midnightblue" stroke="midnightblue" points="287.73,-349.714 277.763,-346.119 283.313,-355.144 287.73,-349.714"/>
</g>
<!-- Node7 -->
<g id="node13" class="node"><title>Node7</title>
<a xlink:href="classvisuVTKAdaptor_1_1Image.html#a69d86d967d03314b4cbc8e898de2c437" target="_top" xlink:title="Slot: Update image opacity and visibility. ">
<polygon fill="white" stroke="black" points="341.5,-468 341.5,-502 462.5,-502 462.5,-468 341.5,-468"/>
<text text-anchor="start" x="349.5" y="-489" font-family="Helvetica,sans-Serif" font-size="10.00">visuVTKAdaptor::Image</text>
<text text-anchor="middle" x="402" y="-476" font-family="Helvetica,sans-Serif" font-size="10.00">::updateImageOpacity</text>
</a>
</g>
<!-- Node3&#45;&gt;Node7 -->
<g id="edge12" class="edge"><title>Node3&#45;&gt;Node7</title>
<path fill="none" stroke="midnightblue" d="M285.055,-352.231C286.072,-353.119 287.055,-354.042 288,-355 322.356,-389.816 289.215,-424.613 324,-459 328.974,-463.917 334.902,-467.905 341.236,-471.138"/>
<polygon fill="midnightblue" stroke="midnightblue" points="286.809,-349.175 276.683,-346.057 282.655,-354.809 286.809,-349.175"/>
</g>
<!-- Node8 -->
<g id="node15" class="node"><title>Node8</title>
<a xlink:href="classfwRenderVTK_1_1IVtkAdaptorService.html#aac8b0ad22f4d39709cbcccde71091db9" target="_top" xlink:title="Initialize the service activity. ">
<polygon fill="white" stroke="black" points="334,-416 334,-450 470,-450 470,-416 334,-416"/>
<text text-anchor="start" x="342" y="-437" font-family="Helvetica,sans-Serif" font-size="10.00">fwRenderVTK::IVtkAdaptor</text>
<text text-anchor="middle" x="402" y="-424" font-family="Helvetica,sans-Serif" font-size="10.00">Service::starting</text>
</a>
</g>
<!-- Node3&#45;&gt;Node8 -->
<g id="edge14" class="edge"><title>Node3&#45;&gt;Node8</title>
<path fill="none" stroke="midnightblue" d="M282.96,-351.427C284.696,-352.564 286.381,-353.754 288,-355 310.277,-372.143 301.513,-390.135 324,-407 328.454,-410.34 333.36,-413.266 338.479,-415.826"/>
<polygon fill="midnightblue" stroke="midnightblue" points="284.32,-348.17 273.914,-346.181 280.809,-354.225 284.32,-348.17"/>
</g>
<!-- Node9 -->
<g id="node17" class="node"><title>Node9</title>
<a xlink:href="classfwRenderVTK_1_1IVtkAdaptorService.html#a5bbf6d97b8cab3cd3edf71739d3ac4b3" target="_top" xlink:title="Uninitialize the service activity. The stop() method is always invoked before destroying a service...">
<polygon fill="white" stroke="black" points="334,-364 334,-398 470,-398 470,-364 334,-364"/>
<text text-anchor="start" x="342" y="-385" font-family="Helvetica,sans-Serif" font-size="10.00">fwRenderVTK::IVtkAdaptor</text>
<text text-anchor="middle" x="402" y="-372" font-family="Helvetica,sans-Serif" font-size="10.00">Service::stopping</text>
</a>
</g>
<!-- Node3&#45;&gt;Node9 -->
<g id="edge16" class="edge"><title>Node3&#45;&gt;Node9</title>
<path fill="none" stroke="midnightblue" d="M286.694,-348.764C304.567,-353.761 323.609,-359.084 340.96,-363.935"/>
<polygon fill="midnightblue" stroke="midnightblue" points="287.476,-345.349 276.903,-346.027 285.592,-352.09 287.476,-345.349"/>
</g>
<!-- Node10 -->
<g id="node19" class="node"><title>Node10</title>
<a xlink:href="classfwRenderVTK_1_1IVtkAdaptorService.html#aa7166206f35acbf5b200cec62c1ca30d" target="_top" xlink:title="Overrides. ">
<polygon fill="white" stroke="black" points="334,-312 334,-346 470,-346 470,-312 334,-312"/>
<text text-anchor="start" x="342" y="-333" font-family="Helvetica,sans-Serif" font-size="10.00">fwRenderVTK::IVtkAdaptor</text>
<text text-anchor="middle" x="402" y="-320" font-family="Helvetica,sans-Serif" font-size="10.00">Service::swapping</text>
</a>
</g>
<!-- Node3&#45;&gt;Node10 -->
<g id="edge18" class="edge"><title>Node3&#45;&gt;Node10</title>
<path fill="none" stroke="midnightblue" d="M294.562,-329C307.608,-329 321.043,-329 333.805,-329"/>
<polygon fill="midnightblue" stroke="midnightblue" points="294.203,-325.5 284.203,-329 294.203,-332.5 294.203,-325.5"/>
</g>
<!-- Node11 -->
<g id="node21" class="node"><title>Node11</title>
<a xlink:href="classfwRenderVTK_1_1IVtkAdaptorService.html#ad3641b924dd05a6e99ae163f93fd6f67" target="_top" xlink:title="Overrides. ">
<polygon fill="white" stroke="black" points="334,-260 334,-294 470,-294 470,-260 334,-260"/>
<text text-anchor="start" x="342" y="-281" font-family="Helvetica,sans-Serif" font-size="10.00">fwRenderVTK::IVtkAdaptor</text>
<text text-anchor="middle" x="402" y="-268" font-family="Helvetica,sans-Serif" font-size="10.00">Service::updating</text>
</a>
</g>
<!-- Node3&#45;&gt;Node11 -->
<g id="edge20" class="edge"><title>Node3&#45;&gt;Node11</title>
<path fill="none" stroke="midnightblue" d="M286.694,-309.236C304.567,-304.239 323.609,-298.916 340.96,-294.065"/>
<polygon fill="midnightblue" stroke="midnightblue" points="285.592,-305.91 276.903,-311.973 287.476,-312.651 285.592,-305.91"/>
</g>
<!-- Node18 -->
<g id="node35" class="node"><title>Node18</title>
<a xlink:href="classvisuVTKAdaptor_1_1MeshNormals.html#acaed734020a8c6df9cb3dc2bbda1c6cc" target="_top" xlink:title="Slot: used to update mesh vertex. ">
<polygon fill="white" stroke="black" points="324.5,-208 324.5,-242 479.5,-242 479.5,-208 324.5,-208"/>
<text text-anchor="start" x="332.5" y="-229" font-family="Helvetica,sans-Serif" font-size="10.00">visuVTKAdaptor::MeshNormals</text>
<text text-anchor="middle" x="402" y="-216" font-family="Helvetica,sans-Serif" font-size="10.00">::updateVertex</text>
</a>
</g>
<!-- Node3&#45;&gt;Node18 -->
<g id="edge34" class="edge"><title>Node3&#45;&gt;Node18</title>
<path fill="none" stroke="midnightblue" d="M282.96,-306.573C284.696,-305.436 286.381,-304.246 288,-303 310.277,-285.857 301.513,-267.865 324,-251 328.454,-247.66 333.36,-244.734 338.479,-242.174"/>
<polygon fill="midnightblue" stroke="midnightblue" points="280.809,-303.775 273.914,-311.819 284.32,-309.83 280.809,-303.775"/>
</g>
<!-- Node19 -->
<g id="node37" class="node"><title>Node19</title>
<a xlink:href="classvisuVTKAdaptor_1_1MeshNormals.html#a5159e64c8af2e3fa97e7a851a3d72958" target="_top" xlink:title="Slot: used to update point normals. ">
<polygon fill="white" stroke="black" points="324.5,-156 324.5,-190 479.5,-190 479.5,-156 324.5,-156"/>
<text text-anchor="start" x="332.5" y="-177" font-family="Helvetica,sans-Serif" font-size="10.00">visuVTKAdaptor::MeshNormals</text>
<text text-anchor="middle" x="402" y="-164" font-family="Helvetica,sans-Serif" font-size="10.00">::updatePointNormals</text>
</a>
</g>
<!-- Node3&#45;&gt;Node19 -->
<g id="edge36" class="edge"><title>Node3&#45;&gt;Node19</title>
<path fill="none" stroke="midnightblue" d="M285.055,-305.769C286.072,-304.881 287.055,-303.958 288,-303 322.356,-268.184 289.215,-233.387 324,-199 327.451,-195.588 331.362,-192.624 335.549,-190.048"/>
<polygon fill="midnightblue" stroke="midnightblue" points="282.655,-303.191 276.683,-311.943 286.809,-308.825 282.655,-303.191"/>
</g>
<!-- Node20 -->
<g id="node39" class="node"><title>Node20</title>
<a xlink:href="classvisuVTKAdaptor_1_1MeshNormals.html#ab1b468150ffc447c5be1130ac9676b95" target="_top" xlink:title="Slot: used to update cell normals. ">
<polygon fill="white" stroke="black" points="324.5,-104 324.5,-138 479.5,-138 479.5,-104 324.5,-104"/>
<text text-anchor="start" x="332.5" y="-125" font-family="Helvetica,sans-Serif" font-size="10.00">visuVTKAdaptor::MeshNormals</text>
<text text-anchor="middle" x="402" y="-112" font-family="Helvetica,sans-Serif" font-size="10.00">::updateCellNormals</text>
</a>
</g>
<!-- Node3&#45;&gt;Node20 -->
<g id="edge38" class="edge"><title>Node3&#45;&gt;Node20</title>
<path fill="none" stroke="midnightblue" d="M285.665,-305.454C286.471,-304.663 287.25,-303.845 288,-303 335.214,-249.765 276.13,-199.646 324,-147 327.073,-143.62 330.596,-140.68 334.41,-138.12"/>
<polygon fill="midnightblue" stroke="midnightblue" points="283.313,-302.856 277.763,-311.881 287.73,-308.286 283.313,-302.856"/>
</g>
<!-- Node21 -->
<g id="node41" class="node"><title>Node21</title>
<a xlink:href="classvisuVTKAdaptor_1_1ModelSeries.html#aae7e1a3042b8d56bb3fb4a9260062c3d" target="_top" xlink:title="Slot: show(or hide) reconstructions. ">
<polygon fill="white" stroke="black" points="328,-52 328,-86 476,-86 476,-52 328,-52"/>
<text text-anchor="start" x="336" y="-73" font-family="Helvetica,sans-Serif" font-size="10.00">visuVTKAdaptor::ModelSeries</text>
<text text-anchor="middle" x="402" y="-60" font-family="Helvetica,sans-Serif" font-size="10.00">::showReconstructions</text>
</a>
</g>
<!-- Node3&#45;&gt;Node21 -->
<g id="edge40" class="edge"><title>Node3&#45;&gt;Node21</title>
<path fill="none" stroke="midnightblue" d="M286.085,-305.144C286.745,-304.449 287.384,-303.735 288,-303 348.283,-231.112 262.831,-166.136 324,-95 326.885,-91.6449 330.215,-88.721 333.84,-86.1733"/>
<polygon fill="midnightblue" stroke="midnightblue" points="283.604,-302.661 278.304,-311.835 288.168,-307.968 283.604,-302.661"/>
</g>
<!-- Node22 -->
<g id="node43" class="node"><title>Node22</title>
<a xlink:href="classvisuVTKAdaptor_1_1Plane.html#ab4a3e0d7bcf9187cc730855a84ba78e2" target="_top" xlink:title="Changes points color (red is selected, else white) ">
<polygon fill="white" stroke="black" points="342.5,-0 342.5,-34 461.5,-34 461.5,-0 342.5,-0"/>
<text text-anchor="start" x="350.5" y="-21" font-family="Helvetica,sans-Serif" font-size="10.00">visuVTKAdaptor::Plane</text>
<text text-anchor="middle" x="402" y="-8" font-family="Helvetica,sans-Serif" font-size="10.00">::selectPlane</text>
</a>
</g>
<!-- Node3&#45;&gt;Node22 -->
<g id="edge42" class="edge"><title>Node3&#45;&gt;Node22</title>
<path fill="none" stroke="midnightblue" d="M286.12,-305.173C286.769,-304.469 287.396,-303.745 288,-303 361.437,-212.358 249.445,-132.725 324,-43 328.926,-37.0715 335.245,-32.4872 342.149,-28.9439"/>
<polygon fill="midnightblue" stroke="midnightblue" points="283.626,-302.706 278.434,-311.942 288.252,-307.959 283.626,-302.706"/>
</g>
<!-- Node12 -->
<g id="node23" class="node"><title>Node12</title>
<a xlink:href="classvisuVTKAdaptor_1_1ImageText.html#a1654105d652793c3f7aee68d51864828" target="_top" xlink:title="Slot: update image slice index. ">
<polygon fill="white" stroke="black" points="521,-390 521,-424 661,-424 661,-390 521,-390"/>
<text text-anchor="start" x="529" y="-411" font-family="Helvetica,sans-Serif" font-size="10.00">visuVTKAdaptor::ImageText</text>
<text text-anchor="middle" x="591" y="-398" font-family="Helvetica,sans-Serif" font-size="10.00">::updateSliceIndex</text>
</a>
</g>
<!-- Node11&#45;&gt;Node12 -->
<g id="edge22" class="edge"><title>Node11&#45;&gt;Node12</title>
<path fill="none" stroke="midnightblue" d="M475.895,-299.623C477.313,-300.697 478.684,-301.822 480,-303 508.45,-328.464 487.703,-355.367 516,-381 519.779,-384.423 524.032,-387.4 528.544,-389.988"/>
<polygon fill="midnightblue" stroke="midnightblue" points="477.606,-296.56 467.323,-294.009 473.771,-302.416 477.606,-296.56"/>
</g>
<!-- Node13 -->
<g id="node25" class="node"><title>Node13</title>
<a xlink:href="classvisuVTKAdaptor_1_1ImageText.html#a658bf1388a0734fc5d210d0188e4b347" target="_top" xlink:title="Update tranfer function points. ">
<polygon fill="white" stroke="black" points="521,-338 521,-372 661,-372 661,-338 521,-338"/>
<text text-anchor="start" x="529" y="-359" font-family="Helvetica,sans-Serif" font-size="10.00">visuVTKAdaptor::ImageText</text>
<text text-anchor="middle" x="591" y="-346" font-family="Helvetica,sans-Serif" font-size="10.00">::updatingTFPoints</text>
</a>
</g>
<!-- Node11&#45;&gt;Node13 -->
<g id="edge24" class="edge"><title>Node11&#45;&gt;Node13</title>
<path fill="none" stroke="midnightblue" d="M469.207,-297.913C472.905,-299.523 476.527,-301.22 480,-303 497.564,-312.002 498.49,-319.893 516,-329 522.235,-332.243 528.963,-335.226 535.739,-337.923"/>
<polygon fill="midnightblue" stroke="midnightblue" points="470.478,-294.651 459.898,-294.088 467.818,-301.126 470.478,-294.651"/>
</g>
<!-- Node14 -->
<g id="node27" class="node"><title>Node14</title>
<a xlink:href="classvisuVTKAdaptor_1_1ImageText.html#ab9cfaf390796c5542798384b7ad92d49" target="_top" xlink:title="Update transfer function windowing. ">
<polygon fill="white" stroke="black" points="521,-286 521,-320 661,-320 661,-286 521,-286"/>
<text text-anchor="start" x="529" y="-307" font-family="Helvetica,sans-Serif" font-size="10.00">visuVTKAdaptor::ImageText</text>
<text text-anchor="middle" x="591" y="-294" font-family="Helvetica,sans-Serif" font-size="10.00">::updatingTFWindowing</text>
</a>
</g>
<!-- Node11&#45;&gt;Node14 -->
<g id="edge26" class="edge"><title>Node11&#45;&gt;Node14</title>
<path fill="none" stroke="midnightblue" d="M480.41,-287.787C493.856,-289.636 507.75,-291.548 520.959,-293.365"/>
<polygon fill="midnightblue" stroke="midnightblue" points="480.617,-284.282 470.233,-286.387 479.663,-291.217 480.617,-284.282"/>
</g>
<!-- Node15 -->
<g id="node29" class="node"><title>Node15</title>
<a xlink:href="classvisuVTKAdaptor_1_1Medical3DCamera.html#ae53e8fc22ccdf3573395ba6c5b059ac5" target="_top" xlink:title="Configure the adaptor. ">
<polygon fill="white" stroke="black" points="524.5,-234 524.5,-268 657.5,-268 657.5,-234 524.5,-234"/>
<text text-anchor="start" x="532.5" y="-255" font-family="Helvetica,sans-Serif" font-size="10.00">visuVTKAdaptor::Medical3</text>
<text text-anchor="middle" x="591" y="-242" font-family="Helvetica,sans-Serif" font-size="10.00">DCamera::doConfigure</text>
</a>
</g>
<!-- Node11&#45;&gt;Node15 -->
<g id="edge28" class="edge"><title>Node11&#45;&gt;Node15</title>
<path fill="none" stroke="midnightblue" d="M480.288,-266.23C494.962,-264.212 510.173,-262.119 524.449,-260.155"/>
<polygon fill="midnightblue" stroke="midnightblue" points="479.663,-262.783 470.233,-267.613 480.617,-269.718 479.663,-262.783"/>
</g>
<!-- Node16 -->
<g id="node31" class="node"><title>Node16</title>
<a xlink:href="classvisuVTKAdaptor_1_1Plane.html#ac5dbc69fd7cfcfbcec8b55d3e7838990" target="_top" xlink:title="Update the plane from the points and notify planes is modified. ">
<polygon fill="white" stroke="black" points="531.5,-182 531.5,-216 650.5,-216 650.5,-182 531.5,-182"/>
<text text-anchor="start" x="539.5" y="-203" font-family="Helvetica,sans-Serif" font-size="10.00">visuVTKAdaptor::Plane</text>
<text text-anchor="middle" x="591" y="-190" font-family="Helvetica,sans-Serif" font-size="10.00">::updatePoints</text>
</a>
</g>
<!-- Node11&#45;&gt;Node16 -->
<g id="edge30" class="edge"><title>Node11&#45;&gt;Node16</title>
<path fill="none" stroke="midnightblue" d="M469.207,-256.087C472.905,-254.477 476.527,-252.78 480,-251 497.564,-241.998 498.49,-234.107 516,-225 522.235,-221.757 528.963,-218.774 535.739,-216.077"/>
<polygon fill="midnightblue" stroke="midnightblue" points="467.818,-252.874 459.898,-259.912 470.478,-259.349 467.818,-252.874"/>
</g>
<!-- Node17 -->
<g id="node33" class="node"><title>Node17</title>
<a xlink:href="classvisuVTKAdaptor_1_1SlicesCursor.html#a50211ca549317a07b9967c5765babdfe" target="_top" xlink:title="Slot: set the scale for the cross : 1. means full cross, 0.5 half cross, 0. no cross. ">
<polygon fill="white" stroke="black" points="516,-130 516,-164 666,-164 666,-130 516,-130"/>
<text text-anchor="start" x="524" y="-151" font-family="Helvetica,sans-Serif" font-size="10.00">visuVTKAdaptor::SlicesCursor</text>
<text text-anchor="middle" x="591" y="-138" font-family="Helvetica,sans-Serif" font-size="10.00">::setCrossScale</text>
</a>
</g>
<!-- Node11&#45;&gt;Node17 -->
<g id="edge32" class="edge"><title>Node11&#45;&gt;Node17</title>
<path fill="none" stroke="midnightblue" d="M475.895,-254.377C477.313,-253.303 478.684,-252.178 480,-251 508.45,-225.536 487.703,-198.633 516,-173 519.779,-169.577 524.032,-166.6 528.544,-164.012"/>
<polygon fill="midnightblue" stroke="midnightblue" points="473.771,-251.584 467.323,-259.991 477.606,-257.44 473.771,-251.584"/>
</g>
</g>
</svg>
        <g id="navigator" transform="translate(0 0)" fill="#404254">
                <rect fill="#f2f5e9" fill-opacity="0.5" stroke="#606060" stroke-width=".5" x="0" y="0" width="60" height="60"/>
                <use id="zoomplus" xlink:href="#zoomPlus" x="17" y="9" onmousedown="handleZoom(evt,'in')"/>
                <use id="zoomminus" xlink:href="#zoomMin" x="42" y="9" onmousedown="handleZoom(evt,'out')"/>
                <use id="reset" xlink:href="#resetDef" x="30" y="36" onmousedown="handleReset()"/>
                <g id="arrowUp" xlink:href="#dirArrow" transform="translate(30 24)" onmousedown="handlePan(0,-1)">
                  <use xlink:href="#rim" fill="#404040">
                        <set attributeName="fill" to="#808080" begin="arrowUp.mouseover" end="arrowUp.mouseout"/>
                  </use>
                  <path fill="none" stroke="white" stroke-width="1.5" d="M0,-3.0v7 M-2.5,-0.5L0,-3.0L2.5,-0.5"/>
                </g>
                <g id="arrowRight" xlink:href="#dirArrow" transform="rotate(90) translate(36 -43)" onmousedown="handlePan(1,0)">
                  <use xlink:href="#rim" fill="#404040">
                        <set attributeName="fill" to="#808080" begin="arrowRight.mouseover" end="arrowRight.mouseout"/>
                  </use>
                  <path fill="none" stroke="white" stroke-width="1.5" d="M0,-3.0v7 M-2.5,-0.5L0,-3.0L2.5,-0.5"/>
                </g>
                <g id="arrowDown" xlink:href="#dirArrow" transform="rotate(180) translate(-30 -48)" onmousedown="handlePan(0,1)">
                  <use xlink:href="#rim" fill="#404040">
                        <set attributeName="fill" to="#808080" begin="arrowDown.mouseover" end="arrowDown.mouseout"/>
                  </use>
                  <path fill="none" stroke="white" stroke-width="1.5" d="M0,-3.0v7 M-2.5,-0.5L0,-3.0L2.5,-0.5"/>
                </g>
                <g id="arrowLeft" xlink:href="#dirArrow" transform="rotate(270) translate(-36 17)" onmousedown="handlePan(-1,0)">
                  <use xlink:href="#rim" fill="#404040">
                        <set attributeName="fill" to="#808080" begin="arrowLeft.mouseover" end="arrowLeft.mouseout"/>
                  </use>
                  <path fill="none" stroke="white" stroke-width="1.5" d="M0,-3.0v7 M-2.5,-0.5L0,-3.0L2.5,-0.5"/>
                </g>
        </g>
        <svg viewBox="0 0 15 15" width="100%" height="30px" preserveAspectRatio="xMaxYMin meet">
         <g id="arrow_out" transform="scale(0.3 0.3)">
          <a xlink:href="classfwServices_1_1IService_a6db0e20663c8a55de3850125b2f6cf94_icgraph_org.svg" target="_base">
           <rect id="button" ry="5" rx="5" y="6" x="6" height="38" width="38"
                fill="#f2f5e9" fill-opacity="0.5" stroke="#606060" stroke-width="1.0"/>
           <path id="arrow"
             d="M 11.500037,31.436501 C 11.940474,20.09759 22.043105,11.32322 32.158766,21.979434 L 37.068811,17.246167 C 37.068811,17.246167 37.088388,32 37.088388,32 L 22.160133,31.978069 C 22.160133,31.978069 26.997745,27.140456 26.997745,27.140456 C 18.528582,18.264221 13.291696,25.230495 11.500037,31.436501 z"
             style="fill:#404040;"/>
          </a>
         </g>
        </svg>
</svg>
