<?xml version="1.0" encoding="UTF-8" standalone="no"?>
<!DOCTYPE svg PUBLIC "-//W3C//DTD SVG 1.1//EN"
 "http://www.w3.org/Graphics/SVG/1.1/DTD/svg11.dtd">
<!-- Generated by graphviz version 2.26.3 (20100126.1600)
 -->
<!-- Title: visuVTKAdaptor::ImageLandmarks Pages: 1 -->
<!--zoomable 327 -->
<svg id="main" version="1.1" xmlns="http://www.w3.org/2000/svg" xmlns:xlink="http://www.w3.org/1999/xlink" xml:space="preserve" onload="init(evt)">
<style type="text/css"><![CDATA[
.edge:hover path { stroke: red; }
.edge:hover polygon { stroke: red; fill: red; }
]]></style>
<script type="text/javascript"><![CDATA[
var edges = document.getElementsByTagName('g');
if (edges && edges.length) {
  for (var i=0;i<edges.length;i++) {
    if (edges[i].id.substr(0,4)=='edge') {
      edges[i].setAttribute('class','edge');
    }
  }
}
]]></script>
        <defs>
                <circle id="rim" cx="0" cy="0" r="7"/>
                <circle id="rim2" cx="0" cy="0" r="3.5"/>
                <g id="zoomPlus">
                        <use xlink:href="#rim" fill="#404040">
                                <set attributeName="fill" to="#808080" begin="zoomplus.mouseover" end="zoomplus.mouseout"/>
                        </use>
                        <path d="M-4,0h8M0,-4v8" fill="none" stroke="white" stroke-width="1.5" pointer-events="none"/>
                </g>
                <g id="zoomMin">
                        <use xlink:href="#rim" fill="#404040">
                                <set attributeName="fill" to="#808080" begin="zoomminus.mouseover" end="zoomminus.mouseout"/>
                        </use>
                        <path d="M-4,0h8" fill="none" stroke="white" stroke-width="1.5" pointer-events="none"/>
                </g>
                <g id="dirArrow">
                        <path fill="none" stroke="white" stroke-width="1.5" d="M0,-3.0v7 M-2.5,-0.5L0,-3.0L2.5,-0.5"/>
                </g>
               <g id="resetDef">
                       <use xlink:href="#rim2" fill="#404040">
                               <set attributeName="fill" to="#808080" begin="reset.mouseover" end="reset.mouseout"/>
                       </use>
               </g>
        </defs>

<script type="text/javascript">
var viewWidth = 1788;
var viewHeight = 327;
var sectionId = 'dynsection-1';
</script>
<script xlink:href="svgpan.js"/>
<svg id="graph" class="graph">
<g id="viewport">
<title>visuVTKAdaptor::ImageLandmarks</title>
<polygon fill="white" stroke="white" points="-4,5 -4,-323 1785,-323 1785,5 -4,5"/>
<!-- Node1 -->
<g id="node1" class="node"><title>Node1</title>
<polygon fill="#bfbfbf" stroke="black" points="1610.5,-36.5 1610.5,-57.5 1779.5,-57.5 1779.5,-36.5 1610.5,-36.5"/>
<text text-anchor="middle" x="1695" y="-44.5" font-family="Helvetica,sans-Serif" font-size="10.00">visuVTKAdaptor::ImageLandmarks</text>
</g>
<!-- Node2 -->
<g id="node2" class="node"><title>Node2</title>
<a xlink:href="classfwRenderVTK_1_1IVtkAdaptorService.html" target="_top" xlink:title="fwRenderVTK::IVtkAdaptor\lService">
<polygon fill="white" stroke="black" points="1436,-91 1436,-125 1572,-125 1572,-91 1436,-91"/>
<text text-anchor="start" x="1444" y="-112" font-family="Helvetica,sans-Serif" font-size="10.00">fwRenderVTK::IVtkAdaptor</text>
<text text-anchor="middle" x="1504" y="-99" font-family="Helvetica,sans-Serif" font-size="10.00">Service</text>
</a>
</g>
<!-- Node2&#45;&gt;Node1 -->
<g id="edge2" class="edge"><title>Node2&#45;&gt;Node1</title>
<path fill="none" stroke="midnightblue" d="M1567.1,-87.8464C1598.8,-77.723 1635.9,-65.8745 1661.96,-57.5536"/>
<polygon fill="midnightblue" stroke="midnightblue" points="1565.92,-84.5505 1557.46,-90.927 1568.05,-91.2187 1565.92,-84.5505"/>
</g>
<!-- Node3 -->
<g id="node4" class="node"><title>Node3</title>
<a xlink:href="classfwServices_1_1IService.html" target="_top" xlink:title="Base class for all services. ">
<polygon fill="white" stroke="black" points="1290.5,-136.5 1290.5,-157.5 1397.5,-157.5 1397.5,-136.5 1290.5,-136.5"/>
<text text-anchor="middle" x="1344" y="-144.5" font-family="Helvetica,sans-Serif" font-size="10.00">fwServices::IService</text>
</a>
</g>
<!-- Node3&#45;&gt;Node2 -->
<g id="edge4" class="edge"><title>Node3&#45;&gt;Node2</title>
<path fill="none" stroke="midnightblue" d="M1397.05,-134.069C1409.51,-131.032 1422.96,-127.754 1435.97,-124.581"/>
<polygon fill="midnightblue" stroke="midnightblue" points="1396.18,-130.677 1387.3,-136.446 1397.84,-137.478 1396.18,-130.677"/>
</g>
<!-- Node4 -->
<g id="node6" class="node"><title>Node4</title>
<a xlink:href="classfwTools_1_1Object.html" target="_top" xlink:title="Define Base class for FW4SPL objects and services. ">
<polygon fill="white" stroke="black" points="1073,-189.5 1073,-210.5 1159,-210.5 1159,-189.5 1073,-189.5"/>
<text text-anchor="middle" x="1116" y="-197.5" font-family="Helvetica,sans-Serif" font-size="10.00">fwTools::Object</text>
</a>
</g>
<!-- Node4&#45;&gt;Node3 -->
<g id="edge6" class="edge"><title>Node4&#45;&gt;Node3</title>
<path fill="none" stroke="midnightblue" d="M1169.28,-208.11C1200.05,-210.815 1239.06,-210.818 1272,-200 1297.36,-191.671 1321.15,-170.609 1334.02,-157.684"/>
<polygon fill="midnightblue" stroke="midnightblue" points="1169.48,-204.612 1159.18,-207.1 1168.78,-211.578 1169.48,-204.612"/>
</g>
<!-- Node5 -->
<g id="node8" class="node"><title>Node5</title>
<a xlink:href="classfwCore_1_1BaseObject.html" target="_top" xlink:title="Base class for all FW4SPL&#39;s classes. ">
<polygon fill="white" stroke="black" points="782.5,-149.5 782.5,-170.5 887.5,-170.5 887.5,-149.5 782.5,-149.5"/>
<text text-anchor="middle" x="835" y="-157.5" font-family="Helvetica,sans-Serif" font-size="10.00">fwCore::BaseObject</text>
</a>
</g>
<!-- Node5&#45;&gt;Node4 -->
<g id="edge8" class="edge"><title>Node5&#45;&gt;Node4</title>
<path fill="none" stroke="midnightblue" d="M897.548,-168.904C950.874,-176.495 1026.12,-187.206 1072.93,-193.869"/>
<polygon fill="midnightblue" stroke="midnightblue" points="897.918,-165.421 887.524,-167.477 896.931,-172.351 897.918,-165.421"/>
</g>
<!-- Node6 -->
<g id="node10" class="node"><title>Node6</title>
<polygon fill="white" stroke="#bfbfbf" points="457.5,-149 457.5,-183 588.5,-183 588.5,-149 457.5,-149"/>
<text text-anchor="start" x="465.5" y="-170" font-family="Helvetica,sans-Serif" font-size="10.00">std::enable_shared</text>
<text text-anchor="middle" x="523" y="-157" font-family="Helvetica,sans-Serif" font-size="10.00">_from_this&lt; BaseObject &gt;</text>
</g>
<!-- Node6&#45;&gt;Node5 -->
<g id="edge10" class="edge"><title>Node6&#45;&gt;Node5</title>
<path fill="none" stroke="midnightblue" d="M598.799,-164.542C655.611,-163.45 731.917,-161.982 782.229,-161.015"/>
<polygon fill="midnightblue" stroke="midnightblue" points="598.717,-161.043 588.786,-164.735 598.851,-168.042 598.717,-161.043"/>
</g>
<!-- Node7 -->
<g id="node12" class="node"><title>Node7</title>
<a xlink:href="classfwTools_1_1fwID.html" target="_top" xlink:title="Defines ID for fwTools::Object. It is used to associate ID with object. ">
<polygon fill="white" stroke="black" points="796,-189.5 796,-210.5 874,-210.5 874,-189.5 796,-189.5"/>
<text text-anchor="middle" x="835" y="-197.5" font-family="Helvetica,sans-Serif" font-size="10.00">fwTools::fwID</text>
</a>
</g>
<!-- Node7&#45;&gt;Node4 -->
<g id="edge12" class="edge"><title>Node7&#45;&gt;Node4</title>
<path fill="none" stroke="darkgreen" d="M884.304,-200C937.619,-200 1021.78,-200 1072.65,-200"/>
<polygon fill="darkgreen" stroke="darkgreen" points="884.072,-196.5 874.072,-200 884.072,-203.5 884.072,-196.5"/>
</g>
<!-- Node8 -->
<g id="node14" class="node"><title>Node8</title>
<a xlink:href="classfwCom_1_1HasSlots.html" target="_top" xlink:title="This class proposes a mapping between a SlotKeyType and a SlotBase. ">
<polygon fill="white" stroke="black" points="1068.5,-229.5 1068.5,-250.5 1163.5,-250.5 1163.5,-229.5 1068.5,-229.5"/>
<text text-anchor="middle" x="1116" y="-237.5" font-family="Helvetica,sans-Serif" font-size="10.00">fwCom::HasSlots</text>
</a>
</g>
<!-- Node8&#45;&gt;Node3 -->
<g id="edge14" class="edge"><title>Node8&#45;&gt;Node3</title>
<path fill="none" stroke="midnightblue" d="M1173.75,-240.455C1204.33,-238.623 1241.71,-232.978 1272,-218 1300.8,-203.759 1325.22,-173.597 1336.8,-157.553"/>
<polygon fill="midnightblue" stroke="midnightblue" points="1173.48,-236.964 1163.66,-240.938 1173.82,-243.956 1173.48,-236.964"/>
</g>
<!-- Node9 -->
<g id="node16" class="node"><title>Node9</title>
<a xlink:href="classfwCom_1_1Slots.html" target="_top" xlink:title="This class proposes a mapping between a SlotKeyType and a SlotBase. ">
<polygon fill="white" stroke="black" points="796.5,-229.5 796.5,-250.5 873.5,-250.5 873.5,-229.5 796.5,-229.5"/>
<text text-anchor="middle" x="835" y="-237.5" font-family="Helvetica,sans-Serif" font-size="10.00">fwCom::Slots</text>
</a>
</g>
<!-- Node9&#45;&gt;Node8 -->
<g id="edge16" class="edge"><title>Node9&#45;&gt;Node8</title>
<path fill="none" stroke="#9a32cd" stroke-dasharray="5,2" d="M884.044,-240C935.831,-240 1016.93,-240 1068.23,-240"/>
<polygon fill="#9a32cd" stroke="#9a32cd" points="883.777,-236.5 873.777,-240 883.777,-243.5 883.777,-236.5"/>
<text text-anchor="middle" x="976" y="-244" font-family="Helvetica,sans-Serif" font-size="10.00"> m_slots</text>
</g>
<!-- Node10 -->
<g id="node18" class="node"><title>Node10</title>
<polygon fill="white" stroke="#bfbfbf" points="447,-218 447,-252 599,-252 599,-218 447,-218"/>
<text text-anchor="start" x="455" y="-239" font-family="Helvetica,sans-Serif" font-size="10.00">std::map&lt; SlotKeyType,</text>
<text text-anchor="middle" x="523" y="-226" font-family="Helvetica,sans-Serif" font-size="10.00"> std::shared_ptr&lt; SlotBase &gt; &gt;</text>
</g>
<!-- Node10&#45;&gt;Node9 -->
<g id="edge18" class="edge"><title>Node10&#45;&gt;Node9</title>
<path fill="none" stroke="#9a32cd" stroke-dasharray="5,2" d="M609.384,-236.384C670.679,-237.367 750.012,-238.638 796.427,-239.382"/>
<polygon fill="#9a32cd" stroke="#9a32cd" points="609.379,-232.884 599.324,-236.223 609.266,-239.883 609.379,-232.884"/>
<text text-anchor="middle" x="693" y="-242" font-family="Helvetica,sans-Serif" font-size="10.00"> m_slots</text>
</g>
<!-- Node11 -->
<g id="node20" class="node"><title>Node11</title>
<a xlink:title="STL class. ">
<polygon fill="white" stroke="#bfbfbf" points="192,-241.5 192,-262.5 252,-262.5 252,-241.5 192,-241.5"/>
<text text-anchor="middle" x="222" y="-249.5" font-family="Helvetica,sans-Serif" font-size="10.00">std::string</text>
</a>
</g>
<!-- Node11&#45;&gt;Node2 -->
<g id="edge48" class="edge"><title>Node11&#45;&gt;Node2</title>
<path fill="none" stroke="#9a32cd" stroke-dasharray="5,2" d="M261.935,-260.99C269.875,-262.528 278.176,-263.963 286,-265 390.629,-278.871 417.456,-280 523,-280 523,-280 523,-280 1344,-280 1428.01,-280 1480.42,-168.626 1497.69,-125.121"/>
<polygon fill="#9a32cd" stroke="#9a32cd" points="262.629,-257.559 252.134,-259.007 261.241,-264.42 262.629,-257.559"/>
<text text-anchor="middle" x="976" y="-310" font-family="Helvetica,sans-Serif" font-size="10.00"> m_pickerId</text>
<text text-anchor="middle" x="976" y="-297" font-family="Helvetica,sans-Serif" font-size="10.00">m_transformId</text>
<text text-anchor="middle" x="976" y="-284" font-family="Helvetica,sans-Serif" font-size="10.00">m_rendererId</text>
</g>
<!-- Node11&#45;&gt;Node10 -->
<g id="edge20" class="edge"><title>Node11&#45;&gt;Node10</title>
<path fill="none" stroke="#9a32cd" stroke-dasharray="5,2" d="M262.341,-249.722C309.36,-247.066 388.095,-242.619 446.751,-239.306"/>
<polygon fill="#9a32cd" stroke="#9a32cd" points="262.026,-246.234 252.239,-250.292 262.421,-253.223 262.026,-246.234"/>
<text text-anchor="middle" x="355" y="-252" font-family="Helvetica,sans-Serif" font-size="10.00"> keys</text>
</g>
<!-- Node18 -->
<g id="node34" class="node"><title>Node18</title>
<polygon fill="white" stroke="#bfbfbf" points="442.5,-97 442.5,-131 603.5,-131 603.5,-97 442.5,-97"/>
<text text-anchor="start" x="450.5" y="-118" font-family="Helvetica,sans-Serif" font-size="10.00">std::map&lt; SignalKeyType,</text>
<text text-anchor="middle" x="523" y="-105" font-family="Helvetica,sans-Serif" font-size="10.00"> std::shared_ptr&lt; SignalBase &gt; &gt;</text>
</g>
<!-- Node11&#45;&gt;Node18 -->
<g id="edge36" class="edge"><title>Node11&#45;&gt;Node18</title>
<path fill="none" stroke="#9a32cd" stroke-dasharray="5,2" d="M251.568,-236.975C262.22,-232 274.461,-226.776 286,-223 345.564,-203.506 377.218,-235.705 424,-194 442.884,-177.165 424.012,-157.789 442,-140 445.465,-136.573 449.383,-133.597 453.58,-131.014"/>
<polygon fill="#9a32cd" stroke="#9a32cd" points="249.798,-233.942 242.297,-241.425 252.827,-240.253 249.798,-233.942"/>
<text text-anchor="middle" x="355" y="-227" font-family="Helvetica,sans-Serif" font-size="10.00"> keys</text>
</g>
<!-- Node12 -->
<g id="node22" class="node"><title>Node12</title>
<a xlink:title="STL class. ">
<polygon fill="white" stroke="#bfbfbf" points="0.5,-235 0.5,-269 95.5,-269 95.5,-235 0.5,-235"/>
<text text-anchor="start" x="8.5" y="-256" font-family="Helvetica,sans-Serif" font-size="10.00">std::basic_string&lt;</text>
<text text-anchor="middle" x="48" y="-243" font-family="Helvetica,sans-Serif" font-size="10.00"> char &gt;</text>
</a>
</g>
<!-- Node12&#45;&gt;Node11 -->
<g id="edge22" class="edge"><title>Node12&#45;&gt;Node11</title>
<path fill="none" stroke="midnightblue" d="M105.887,-252C134.618,-252 168.136,-252 191.754,-252"/>
<polygon fill="midnightblue" stroke="midnightblue" points="105.546,-248.5 95.5463,-252 105.546,-255.5 105.546,-248.5"/>
</g>
<!-- Node13 -->
<g id="node24" class="node"><title>Node13</title>
<a xlink:title="STL class. ">
<polygon fill="white" stroke="#bfbfbf" points="176,-115.5 176,-136.5 268,-136.5 268,-115.5 176,-115.5"/>
<text text-anchor="middle" x="222" y="-123.5" font-family="Helvetica,sans-Serif" font-size="10.00">std::map&lt; K, T &gt;</text>
</a>
</g>
<!-- Node13&#45;&gt;Node10 -->
<g id="edge24" class="edge"><title>Node13&#45;&gt;Node10</title>
<path fill="none" stroke="orange" stroke-dasharray="5,2" d="M264.299,-139.357C271.5,-141.4 278.935,-143.369 286,-145 346.586,-158.986 370.868,-135.7 424,-168 435.393,-174.926 431.868,-183.333 442,-192 453.977,-202.246 468.805,-210.998 482.486,-217.88"/>
<polygon fill="orange" stroke="orange" points="265.261,-135.991 254.681,-136.548 263.299,-142.711 265.261,-135.991"/>
<text text-anchor="start" x="295.5" y="-185" font-family="Helvetica,sans-Serif" font-size="10.00"> &lt; SlotKeyType, std</text>
<text text-anchor="middle" x="355" y="-172" font-family="Helvetica,sans-Serif" font-size="10.00">::shared_ptr&lt; SlotBase &gt; &gt;</text>
</g>
<!-- Node13&#45;&gt;Node18 -->
<g id="edge38" class="edge"><title>Node13&#45;&gt;Node18</title>
<path fill="none" stroke="orange" stroke-dasharray="5,2" d="M278.254,-119.567C280.871,-119.356 283.463,-119.165 286,-119 337.951,-115.617 396.429,-114.357 442.299,-113.947"/>
<polygon fill="orange" stroke="orange" points="277.753,-116.098 268.102,-120.469 278.372,-123.071 277.753,-116.098"/>
<text text-anchor="start" x="290.5" y="-136" font-family="Helvetica,sans-Serif" font-size="10.00"> &lt; SignalKeyType, std</text>
<text text-anchor="middle" x="355" y="-123" font-family="Helvetica,sans-Serif" font-size="10.00">::shared_ptr&lt; SignalBase &gt; &gt;</text>
</g>
<!-- Node14 -->
<g id="node26" class="node"><title>Node14</title>
<polygon fill="white" stroke="#bfbfbf" points="33.5,-120.5 33.5,-141.5 62.5,-141.5 62.5,-120.5 33.5,-120.5"/>
<text text-anchor="middle" x="48" y="-128.5" font-family="Helvetica,sans-Serif" font-size="10.00">K</text>
</g>
<!-- Node14&#45;&gt;Node13 -->
<g id="edge26" class="edge"><title>Node14&#45;&gt;Node13</title>
<path fill="none" stroke="#9a32cd" stroke-dasharray="5,2" d="M72.5869,-130.293C99.3704,-129.524 142.819,-128.275 175.976,-127.323"/>
<polygon fill="#9a32cd" stroke="#9a32cd" points="72.4312,-126.796 62.5359,-130.582 72.6323,-133.794 72.4312,-126.796"/>
<text text-anchor="middle" x="136" y="-133" font-family="Helvetica,sans-Serif" font-size="10.00"> keys</text>
</g>
<!-- Node15 -->
<g id="node28" class="node"><title>Node15</title>
<polygon fill="white" stroke="#bfbfbf" points="33.5,-48.5 33.5,-69.5 62.5,-69.5 62.5,-48.5 33.5,-48.5"/>
<text text-anchor="middle" x="48" y="-56.5" font-family="Helvetica,sans-Serif" font-size="10.00">T</text>
</g>
<!-- Node15&#45;&gt;Node13 -->
<g id="edge28" class="edge"><title>Node15&#45;&gt;Node13</title>
<path fill="none" stroke="#9a32cd" stroke-dasharray="5,2" d="M72.0429,-68.2579C104.182,-80.6332 160.998,-102.511 194.708,-115.491"/>
<polygon fill="#9a32cd" stroke="#9a32cd" points="73.1256,-64.9244 62.5359,-64.5971 70.6102,-71.4568 73.1256,-64.9244"/>
<text text-anchor="middle" x="136" y="-104" font-family="Helvetica,sans-Serif" font-size="10.00"> elements</text>
</g>
<!-- Node21 -->
<g id="node42" class="node"><title>Node21</title>
<a xlink:title="STL class. ">
<polygon fill="white" stroke="#bfbfbf" points="178.5,-51.5 178.5,-72.5 265.5,-72.5 265.5,-51.5 178.5,-51.5"/>
<text text-anchor="middle" x="222" y="-59.5" font-family="Helvetica,sans-Serif" font-size="10.00">std::vector&lt; T &gt;</text>
</a>
</g>
<!-- Node15&#45;&gt;Node21 -->
<g id="edge46" class="edge"><title>Node15&#45;&gt;Node21</title>
<path fill="none" stroke="#9a32cd" stroke-dasharray="5,2" d="M72.8477,-59.069C95.144,-59.1683 128.761,-59.4103 158,-60 164.557,-60.1322 171.492,-60.3098 178.281,-60.5047"/>
<polygon fill="#9a32cd" stroke="#9a32cd" points="72.6053,-55.5681 62.592,-59.0299 72.5786,-62.5681 72.6053,-55.5681"/>
<text text-anchor="middle" x="136" y="-64" font-family="Helvetica,sans-Serif" font-size="10.00"> elements</text>
</g>
<!-- Node23 -->
<g id="node48" class="node"><title>Node23</title>
<a xlink:title="STL class. ">
<polygon fill="white" stroke="#bfbfbf" points="185.5,-8.5 185.5,-29.5 258.5,-29.5 258.5,-8.5 185.5,-8.5"/>
<text text-anchor="middle" x="222" y="-16.5" font-family="Helvetica,sans-Serif" font-size="10.00">std::list&lt; T &gt;</text>
</a>
</g>
<!-- Node15&#45;&gt;Node23 -->
<g id="edge54" class="edge"><title>Node15&#45;&gt;Node23</title>
<path fill="none" stroke="#9a32cd" stroke-dasharray="5,2" d="M72.6987,-52.8936C85.0834,-49.862 100.321,-46.1776 114,-43 137.761,-37.4804 164.526,-31.5306 185.467,-26.936"/>
<polygon fill="#9a32cd" stroke="#9a32cd" points="71.5362,-49.5751 62.6605,-55.3607 73.2069,-56.3728 71.5362,-49.5751"/>
<text text-anchor="middle" x="136" y="-47" font-family="Helvetica,sans-Serif" font-size="10.00"> elements</text>
</g>
<!-- Node16 -->
<g id="node30" class="node"><title>Node16</title>
<a xlink:href="classfwCom_1_1HasSignals.html" target="_top" xlink:title="This class proposes a mapping between a SignalKeyType and a SignalBase. ">
<polygon fill="white" stroke="black" points="1064,-102.5 1064,-123.5 1168,-123.5 1168,-102.5 1064,-102.5"/>
<text text-anchor="middle" x="1116" y="-110.5" font-family="Helvetica,sans-Serif" font-size="10.00">fwCom::HasSignals</text>
</a>
</g>
<!-- Node16&#45;&gt;Node3 -->
<g id="edge30" class="edge"><title>Node16&#45;&gt;Node3</title>
<path fill="none" stroke="midnightblue" d="M1178.15,-122.268C1213.22,-127.498 1256.62,-133.969 1290.22,-138.98"/>
<polygon fill="midnightblue" stroke="midnightblue" points="1178.43,-118.771 1168.02,-120.758 1177.4,-125.694 1178.43,-118.771"/>
</g>
<!-- Node17 -->
<g id="node32" class="node"><title>Node17</title>
<a xlink:href="classfwCom_1_1Signals.html" target="_top" xlink:title="This class proposes a mapping between a SignalKeyType and a SignalBase. ">
<polygon fill="white" stroke="black" points="792,-103.5 792,-124.5 878,-124.5 878,-103.5 792,-103.5"/>
<text text-anchor="middle" x="835" y="-111.5" font-family="Helvetica,sans-Serif" font-size="10.00">fwCom::Signals</text>
</a>
</g>
<!-- Node17&#45;&gt;Node16 -->
<g id="edge32" class="edge"><title>Node17&#45;&gt;Node16</title>
<path fill="none" stroke="#9a32cd" stroke-dasharray="5,2" d="M888.319,-113.81C938.615,-113.631 1013.56,-113.365 1063.56,-113.187"/>
<polygon fill="#9a32cd" stroke="#9a32cd" points="888.278,-110.31 878.29,-113.846 888.303,-117.31 888.278,-110.31"/>
<text text-anchor="middle" x="976" y="-117" font-family="Helvetica,sans-Serif" font-size="10.00"> m_signals</text>
</g>
<!-- Node18&#45;&gt;Node17 -->
<g id="edge34" class="edge"><title>Node18&#45;&gt;Node17</title>
<path fill="none" stroke="#9a32cd" stroke-dasharray="5,2" d="M613.755,-114C672.294,-114 745.784,-114 791.579,-114"/>
<polygon fill="#9a32cd" stroke="#9a32cd" points="613.754,-110.5 603.754,-114 613.753,-117.5 613.754,-110.5"/>
<text text-anchor="middle" x="693" y="-118" font-family="Helvetica,sans-Serif" font-size="10.00"> m_signals</text>
</g>
<!-- Node19 -->
<g id="node38" class="node"><title>Node19</title>
<polygon fill="white" stroke="#bfbfbf" points="1095.5,-142.5 1095.5,-163.5 1136.5,-163.5 1136.5,-142.5 1095.5,-142.5"/>
<text text-anchor="middle" x="1116" y="-150.5" font-family="Helvetica,sans-Serif" font-size="10.00">static</text>
</g>
<!-- Node19&#45;&gt;Node3 -->
<g id="edge40" class="edge"><title>Node19&#45;&gt;Node3</title>
<path fill="none" stroke="#9a32cd" stroke-dasharray="5,2" d="M1146.66,-150.377C1158.89,-149.444 1173.1,-148.501 1186,-148 1220.67,-146.653 1259.66,-146.393 1290.23,-146.475"/>
<polygon fill="#9a32cd" stroke="#9a32cd" points="1146.19,-146.903 1136.5,-151.183 1146.75,-153.881 1146.19,-146.903"/>
<text text-anchor="middle" x="1229" y="-191" font-family="Helvetica,sans-Serif" font-size="10.00"> s_UPDATE_SLOT</text>
<text text-anchor="middle" x="1229" y="-178" font-family="Helvetica,sans-Serif" font-size="10.00">s_SWAP_SLOT</text>
<text text-anchor="middle" x="1229" y="-165" font-family="Helvetica,sans-Serif" font-size="10.00">s_STOP_SLOT</text>
<text text-anchor="middle" x="1229" y="-152" font-family="Helvetica,sans-Serif" font-size="10.00">s_START_SLOT</text>
</g>
<!-- Node20 -->
<g id="node40" class="node"><title>Node20</title>
<polygon fill="white" stroke="#bfbfbf" points="622.5,-52 622.5,-86 763.5,-86 763.5,-52 622.5,-52"/>
<text text-anchor="start" x="630.5" y="-73" font-family="Helvetica,sans-Serif" font-size="10.00">std::vector&lt; ::fwRenderVTK</text>
<text text-anchor="middle" x="693" y="-60" font-family="Helvetica,sans-Serif" font-size="10.00">::IVtkAdaptorService::wptr &gt;</text>
</g>
<!-- Node20&#45;&gt;Node2 -->
<g id="edge42" class="edge"><title>Node20&#45;&gt;Node2</title>
<path fill="none" stroke="#9a32cd" stroke-dasharray="5,2" d="M773.972,-69.4379C830.564,-69.7068 907.892,-70 976,-70 976,-70 976,-70 1344,-70 1382.97,-70 1425.87,-80.8036 1457.43,-90.8898"/>
<polygon fill="#9a32cd" stroke="#9a32cd" points="773.67,-65.9365 763.653,-69.3881 773.636,-72.9364 773.67,-65.9365"/>
<text text-anchor="middle" x="1116" y="-74" font-family="Helvetica,sans-Serif" font-size="10.00"> m_subServices</text>
</g>
<!-- Node21&#45;&gt;Node20 -->
<g id="edge44" class="edge"><title>Node21&#45;&gt;Node20</title>
<path fill="none" stroke="orange" stroke-dasharray="5,2" d="M276.136,-62.8046C361.489,-64.0731 527.347,-66.5381 622.099,-67.9463"/>
<polygon fill="orange" stroke="orange" points="275.939,-59.3013 265.888,-62.6523 275.834,-66.3006 275.939,-59.3013"/>
<text text-anchor="start" x="286" y="-81" font-family="Helvetica,sans-Serif" font-size="10.00"> &lt; ::fwRenderVTK::IVtkAdaptor</text>
<text text-anchor="middle" x="355" y="-68" font-family="Helvetica,sans-Serif" font-size="10.00">Service::wptr &gt;</text>
</g>
<!-- Node22 -->
<g id="node46" class="node"><title>Node22</title>
<polygon fill="white" stroke="#bfbfbf" points="906.5,-0 906.5,-34 1045.5,-34 1045.5,-0 906.5,-0"/>
<text text-anchor="start" x="914.5" y="-21" font-family="Helvetica,sans-Serif" font-size="10.00">std::list&lt; ::fwRenderVTK</text>
<text text-anchor="middle" x="976" y="-8" font-family="Helvetica,sans-Serif" font-size="10.00">::IVtkAdaptorService::sptr &gt;</text>
</g>
<!-- Node22&#45;&gt;Node1 -->
<g id="edge50" class="edge"><title>Node22&#45;&gt;Node1</title>
<path fill="none" stroke="#9a32cd" stroke-dasharray="5,2" d="M1055.6,-17.9514C1105.42,-18.4671 1170.95,-19 1229,-19 1229,-19 1229,-19 1504,-19 1554.1,-19 1610.83,-28.5491 1649.35,-36.4942"/>
<polygon fill="#9a32cd" stroke="#9a32cd" points="1055.57,-14.451 1045.53,-17.8453 1055.49,-21.4506 1055.57,-14.451"/>
<text text-anchor="middle" x="1344" y="-23" font-family="Helvetica,sans-Serif" font-size="10.00"> m_subServices</text>
</g>
<!-- Node23&#45;&gt;Node22 -->
<g id="edge52" class="edge"><title>Node23&#45;&gt;Node22</title>
<path fill="none" stroke="orange" stroke-dasharray="5,2" d="M268.892,-18.8756C397.218,-18.5352 754.676,-17.5871 906.435,-17.1845"/>
<polygon fill="orange" stroke="orange" points="268.612,-15.3763 258.622,-18.9029 268.631,-22.3762 268.612,-15.3763"/>
<text text-anchor="start" x="454" y="-36" font-family="Helvetica,sans-Serif" font-size="10.00"> &lt; ::fwRenderVTK::IVtkAdaptor</text>
<text text-anchor="middle" x="523" y="-23" font-family="Helvetica,sans-Serif" font-size="10.00">Service::sptr &gt;</text>
</g>
</g>
</svg>
        <g id="navigator" transform="translate(0 0)" fill="#404254">
                <rect fill="#f2f5e9" fill-opacity="0.5" stroke="#606060" stroke-width=".5" x="0" y="0" width="60" height="60"/>
                <use id="zoomplus" xlink:href="#zoomPlus" x="17" y="9" onmousedown="handleZoom(evt,'in')"/>
                <use id="zoomminus" xlink:href="#zoomMin" x="42" y="9" onmousedown="handleZoom(evt,'out')"/>
                <use id="reset" xlink:href="#resetDef" x="30" y="36" onmousedown="handleReset()"/>
                <g id="arrowUp" xlink:href="#dirArrow" transform="translate(30 24)" onmousedown="handlePan(0,-1)">
                  <use xlink:href="#rim" fill="#404040">
                        <set attributeName="fill" to="#808080" begin="arrowUp.mouseover" end="arrowUp.mouseout"/>
                  </use>
                  <path fill="none" stroke="white" stroke-width="1.5" d="M0,-3.0v7 M-2.5,-0.5L0,-3.0L2.5,-0.5"/>
                </g>
                <g id="arrowRight" xlink:href="#dirArrow" transform="rotate(90) translate(36 -43)" onmousedown="handlePan(1,0)">
                  <use xlink:href="#rim" fill="#404040">
                        <set attributeName="fill" to="#808080" begin="arrowRight.mouseover" end="arrowRight.mouseout"/>
                  </use>
                  <path fill="none" stroke="white" stroke-width="1.5" d="M0,-3.0v7 M-2.5,-0.5L0,-3.0L2.5,-0.5"/>
                </g>
                <g id="arrowDown" xlink:href="#dirArrow" transform="rotate(180) translate(-30 -48)" onmousedown="handlePan(0,1)">
                  <use xlink:href="#rim" fill="#404040">
                        <set attributeName="fill" to="#808080" begin="arrowDown.mouseover" end="arrowDown.mouseout"/>
                  </use>
                  <path fill="none" stroke="white" stroke-width="1.5" d="M0,-3.0v7 M-2.5,-0.5L0,-3.0L2.5,-0.5"/>
                </g>
                <g id="arrowLeft" xlink:href="#dirArrow" transform="rotate(270) translate(-36 17)" onmousedown="handlePan(-1,0)">
                  <use xlink:href="#rim" fill="#404040">
                        <set attributeName="fill" to="#808080" begin="arrowLeft.mouseover" end="arrowLeft.mouseout"/>
                  </use>
                  <path fill="none" stroke="white" stroke-width="1.5" d="M0,-3.0v7 M-2.5,-0.5L0,-3.0L2.5,-0.5"/>
                </g>
        </g>
        <svg viewBox="0 0 15 15" width="100%" height="30px" preserveAspectRatio="xMaxYMin meet">
         <g id="arrow_out" transform="scale(0.3 0.3)">
          <a xlink:href="classvisuVTKAdaptor_1_1ImageLandmarks__coll__graph_org.svg" target="_base">
           <rect id="button" ry="5" rx="5" y="6" x="6" height="38" width="38"
                fill="#f2f5e9" fill-opacity="0.5" stroke="#606060" stroke-width="1.0"/>
           <path id="arrow"
             d="M 11.500037,31.436501 C 11.940474,20.09759 22.043105,11.32322 32.158766,21.979434 L 37.068811,17.246167 C 37.068811,17.246167 37.088388,32 37.088388,32 L 22.160133,31.978069 C 22.160133,31.978069 26.997745,27.140456 26.997745,27.140456 C 18.528582,18.264221 13.291696,25.230495 11.500037,31.436501 z"
             style="fill:#404040;"/>
          </a>
         </g>
        </svg>
</svg>
