<?xml version="1.0" encoding="UTF-8" standalone="no"?>
<!DOCTYPE svg PUBLIC "-//W3C//DTD SVG 1.1//EN"
 "http://www.w3.org/Graphics/SVG/1.1/DTD/svg11.dtd">
<!-- Generated by graphviz version 2.36.0 (20140111.2315)
 -->
<!-- Title: fwData::Object::getField Pages: 1 -->
<svg width="662pt" height="245pt"
 viewBox="0.00 0.00 662.00 245.00" xmlns="http://www.w3.org/2000/svg" xmlns:xlink="http://www.w3.org/1999/xlink">
<g id="graph0" class="graph" transform="scale(1 1) rotate(0) translate(4 241)">
<title>fwData::Object::getField</title>
<polygon fill="white" stroke="none" points="-4,4 -4,-241 658,-241 658,4 -4,4"/>
<!-- Node1 -->
<g id="node1" class="node"><title>Node1</title>
<polygon fill="#bfbfbf" stroke="black" points="0.5,-103.5 0.5,-122.5 123.5,-122.5 123.5,-103.5 0.5,-103.5"/>
<text text-anchor="middle" x="62" y="-110.5" font-family="Helvetica,sans-Serif" font-size="10.00">fwData::Object::getField</text>
</g>
<!-- Node2 -->
<g id="node2" class="node"><title>Node2</title>
<g id="a_node2"><a xlink:href="classfwDataTools_1_1fieldHelper_1_1MedicalImageHelpers.html#a79b9d580bb99d0061a1f2d5f44947aa6" target="_top" xlink:title="Check if the image has slice index fields. ">
<polygon fill="white" stroke="black" points="182.5,-195.5 182.5,-236.5 307.5,-236.5 307.5,-195.5 182.5,-195.5"/>
<text text-anchor="start" x="190.5" y="-224.5" font-family="Helvetica,sans-Serif" font-size="10.00">fwDataTools::fieldHelper</text>
<text text-anchor="start" x="190.5" y="-213.5" font-family="Helvetica,sans-Serif" font-size="10.00">::MedicalImageHelpers::</text>
<text text-anchor="middle" x="245" y="-202.5" font-family="Helvetica,sans-Serif" font-size="10.00">checkImageSliceIndex</text>
</a>
</g>
</g>
<!-- Node1&#45;&gt;Node2 -->
<g id="edge1" class="edge"><title>Node1&#45;&gt;Node2</title>
<path fill="none" stroke="midnightblue" d="M81.3198,-129.484C100.009,-145.624 130.392,-170.052 160,-186 167.089,-189.819 174.765,-193.324 182.495,-196.485"/>
<polygon fill="midnightblue" stroke="midnightblue" points="83.4257,-126.675 73.6004,-122.711 78.8091,-131.937 83.4257,-126.675"/>
</g>
<!-- Node5 -->
<g id="node5" class="node"><title>Node5</title>
<g id="a_node5"><a xlink:href="classfwData_1_1Object.html#af8967041e03434f85c5d0ba8bf64ef59" target="_top" xlink:title="Returns a pointer of corresponding field (null if non exist). ">
<polygon fill="white" stroke="black" points="181,-147 181,-177 309,-177 309,-147 181,-147"/>
<text text-anchor="start" x="189" y="-165" font-family="Helvetica,sans-Serif" font-size="10.00">fwData::Object::getConst</text>
<text text-anchor="middle" x="245" y="-154" font-family="Helvetica,sans-Serif" font-size="10.00">Field</text>
</a>
</g>
</g>
<!-- Node1&#45;&gt;Node5 -->
<g id="edge4" class="edge"><title>Node1&#45;&gt;Node5</title>
<path fill="none" stroke="midnightblue" d="M108.027,-125.19C132.374,-131.781 162.654,-139.978 188.455,-146.963"/>
<polygon fill="midnightblue" stroke="midnightblue" points="108.895,-121.799 98.3283,-122.564 107.066,-128.556 108.895,-121.799"/>
</g>
<!-- Node6 -->
<g id="node6" class="node"><title>Node6</title>
<g id="a_node6"><a xlink:href="classvisuVTKAdaptor_1_1SImage3DCursor.html#a66223e50971644071f4053df2fc2f897" target="_top" xlink:title="Initialize the service activity. ">
<polygon fill="white" stroke="black" points="160,-98 160,-128 330,-128 330,-98 160,-98"/>
<text text-anchor="start" x="168" y="-116" font-family="Helvetica,sans-Serif" font-size="10.00">visuVTKAdaptor::SImage3DCursor</text>
<text text-anchor="middle" x="245" y="-105" font-family="Helvetica,sans-Serif" font-size="10.00">::starting</text>
</a>
</g>
</g>
<!-- Node1&#45;&gt;Node6 -->
<g id="edge5" class="edge"><title>Node1&#45;&gt;Node6</title>
<path fill="none" stroke="midnightblue" d="M133.757,-113C142.265,-113 151.018,-113 159.695,-113"/>
<polygon fill="midnightblue" stroke="midnightblue" points="133.522,-109.5 123.522,-113 133.522,-116.5 133.522,-109.5"/>
</g>
<!-- Node7 -->
<g id="node7" class="node"><title>Node7</title>
<g id="a_node7"><a xlink:href="classvisuVTKAdaptor_1_1SImageMultiDistances.html#aea5730c3c319cdc43d23b0d95a72e2c7" target="_top" xlink:title="Perform some computations according to object (this service is attached to) attribute values and its ...">
<polygon fill="white" stroke="black" points="170.5,-49 170.5,-79 319.5,-79 319.5,-49 170.5,-49"/>
<text text-anchor="start" x="178.5" y="-67" font-family="Helvetica,sans-Serif" font-size="10.00">visuVTKAdaptor::SImageMulti</text>
<text text-anchor="middle" x="245" y="-56" font-family="Helvetica,sans-Serif" font-size="10.00">Distances::updating</text>
</a>
</g>
</g>
<!-- Node1&#45;&gt;Node7 -->
<g id="edge6" class="edge"><title>Node1&#45;&gt;Node7</title>
<path fill="none" stroke="midnightblue" d="M108.027,-100.81C132.374,-94.2192 162.654,-86.0218 188.455,-79.037"/>
<polygon fill="midnightblue" stroke="midnightblue" points="107.066,-97.4444 98.3283,-103.436 108.895,-104.201 107.066,-97.4444"/>
</g>
<!-- Node8 -->
<g id="node8" class="node"><title>Node8</title>
<g id="a_node8"><a xlink:href="classfwGdcmIO_1_1writer_1_1Series.html#aac90f98a7dc75eac44506ecd4a0310cd" target="_top" xlink:title="Load and start appropriate writing tools. In addition, it creates an adapted folder tree where DICOM ...">
<polygon fill="white" stroke="black" points="181,-0 181,-30 309,-30 309,-0 181,-0"/>
<text text-anchor="start" x="189" y="-18" font-family="Helvetica,sans-Serif" font-size="10.00">fwGdcmIO::writer::Series</text>
<text text-anchor="middle" x="245" y="-7" font-family="Helvetica,sans-Serif" font-size="10.00">::write</text>
</a>
</g>
</g>
<!-- Node1&#45;&gt;Node8 -->
<g id="edge7" class="edge"><title>Node1&#45;&gt;Node8</title>
<path fill="none" stroke="midnightblue" d="M80.8404,-96.4419C99.3651,-80.0398 129.811,-55.2292 160,-40 167.472,-36.2308 175.61,-32.9273 183.784,-30.0633"/>
<polygon fill="midnightblue" stroke="midnightblue" points="78.2939,-94.0254 73.2116,-103.322 82.9819,-99.2237 78.2939,-94.0254"/>
</g>
<!-- Node3 -->
<g id="node3" class="node"><title>Node3</title>
<g id="a_node3"><a xlink:href="classfwDataTools_1_1fieldHelper_1_1MedicalImageHelpers.html#abac9755ba40b0218f4a7f7d158ae9b51" target="_top" xlink:title="Get the X,Y,Z slice position. ">
<polygon fill="white" stroke="black" points="366.5,-195.5 366.5,-236.5 491.5,-236.5 491.5,-195.5 366.5,-195.5"/>
<text text-anchor="start" x="374.5" y="-224.5" font-family="Helvetica,sans-Serif" font-size="10.00">fwDataTools::fieldHelper</text>
<text text-anchor="start" x="374.5" y="-213.5" font-family="Helvetica,sans-Serif" font-size="10.00">::MedicalImageHelpers::</text>
<text text-anchor="middle" x="429" y="-202.5" font-family="Helvetica,sans-Serif" font-size="10.00">getImageSliceIndices</text>
</a>
</g>
</g>
<!-- Node2&#45;&gt;Node3 -->
<g id="edge2" class="edge"><title>Node2&#45;&gt;Node3</title>
<path fill="none" stroke="midnightblue" d="M318.008,-216C334.035,-216 350.885,-216 366.447,-216"/>
<polygon fill="midnightblue" stroke="midnightblue" points="317.617,-212.5 307.617,-216 317.617,-219.5 317.617,-212.5"/>
</g>
<!-- Node4 -->
<g id="node4" class="node"><title>Node4</title>
<g id="a_node4"><a xlink:href="classuiMeasurement_1_1action_1_1AddLandmark.html#afe57b73e722b56af53bcc83df69d409e" target="_top" xlink:title="Perform some computations according to object (this service is attached to) attribute values and its ...">
<polygon fill="white" stroke="black" points="528.5,-201 528.5,-231 653.5,-231 653.5,-201 528.5,-201"/>
<text text-anchor="start" x="536.5" y="-219" font-family="Helvetica,sans-Serif" font-size="10.00">uiMeasurement::action</text>
<text text-anchor="middle" x="591" y="-208" font-family="Helvetica,sans-Serif" font-size="10.00">::AddLandmark::updating</text>
</a>
</g>
</g>
<!-- Node3&#45;&gt;Node4 -->
<g id="edge3" class="edge"><title>Node3&#45;&gt;Node4</title>
<path fill="none" stroke="midnightblue" d="M502.061,-216C510.822,-216 519.712,-216 528.304,-216"/>
<polygon fill="midnightblue" stroke="midnightblue" points="501.86,-212.5 491.86,-216 501.86,-219.5 501.86,-212.5"/>
</g>
</g>
</svg>
