<?xml version="1.0" encoding="UTF-8" standalone="no"?>
<!DOCTYPE svg PUBLIC "-//W3C//DTD SVG 1.1//EN"
 "http://www.w3.org/Graphics/SVG/1.1/DTD/svg11.dtd">
<!-- Generated by graphviz version 2.36.0 (20140111.2315)
 -->
<!-- Title: fwGdcmIO::reader::ie::InformationEntity&lt; DATATYPE &gt; Pages: 1 -->
<svg width="586pt" height="403pt"
 viewBox="0.00 0.00 586.00 403.00" xmlns="http://www.w3.org/2000/svg" xmlns:xlink="http://www.w3.org/1999/xlink">
<g id="graph0" class="graph" transform="scale(1 1) rotate(0) translate(4 399)">
<title>fwGdcmIO::reader::ie::InformationEntity&lt; DATATYPE &gt;</title>
<polygon fill="white" stroke="none" points="-4,4 -4,-399 582,-399 582,4 -4,4"/>
<!-- Node1 -->
<g id="node1" class="node"><title>Node1</title>
<polygon fill="#bfbfbf" stroke="black" points="0,-202.5 0,-243.5 110,-243.5 110,-202.5 0,-202.5"/>
<text text-anchor="start" x="8" y="-231.5" font-family="Helvetica,sans-Serif" font-size="10.00">fwGdcmIO::reader::ie</text>
<text text-anchor="start" x="8" y="-220.5" font-family="Helvetica,sans-Serif" font-size="10.00">::InformationEntity&lt;</text>
<text text-anchor="middle" x="55" y="-209.5" font-family="Helvetica,sans-Serif" font-size="10.00"> DATATYPE &gt;</text>
</g>
<!-- Node2 -->
<g id="node2" class="node"><title>Node2</title>
<g id="a_node2"><a xlink:href="classfwGdcmIO_1_1reader_1_1ie_1_1InformationEntity.html" target="_top" xlink:title="fwGdcmIO::reader::ie\l::InformationEntity\&lt;\l ::fwMedData::Equipment \&gt;">
<polygon fill="white" stroke="black" points="288.5,-353.5 288.5,-394.5 425.5,-394.5 425.5,-353.5 288.5,-353.5"/>
<text text-anchor="start" x="296.5" y="-382.5" font-family="Helvetica,sans-Serif" font-size="10.00">fwGdcmIO::reader::ie</text>
<text text-anchor="start" x="296.5" y="-371.5" font-family="Helvetica,sans-Serif" font-size="10.00">::InformationEntity&lt;</text>
<text text-anchor="middle" x="357" y="-360.5" font-family="Helvetica,sans-Serif" font-size="10.00"> ::fwMedData::Equipment &gt;</text>
</a>
</g>
</g>
<!-- Node1&#45;&gt;Node2 -->
<g id="edge1" class="edge"><title>Node1&#45;&gt;Node2</title>
<path fill="none" stroke="orange" stroke-dasharray="5,2" d="M73.539,-252.319C86.3725,-271.38 105.439,-295.33 128,-310 176.512,-341.546 240.601,-357.75 288.474,-365.946"/>
<polygon fill="orange" stroke="orange" points="76.3095,-250.159 67.9215,-243.687 70.4425,-253.977 76.3095,-250.159"/>
<text text-anchor="middle" x="197" y="-364" font-family="Helvetica,sans-Serif" font-size="10.00"> &lt; ::fwMedData::Equipment &gt;</text>
</g>
<!-- Node4 -->
<g id="node4" class="node"><title>Node4</title>
<g id="a_node4"><a xlink:href="classfwGdcmIO_1_1reader_1_1ie_1_1InformationEntity.html" target="_top" xlink:title="fwGdcmIO::reader::ie\l::InformationEntity\&lt;\l ::fwMedData::ModelSeries \&gt;">
<polygon fill="white" stroke="black" points="284.5,-293.5 284.5,-334.5 429.5,-334.5 429.5,-293.5 284.5,-293.5"/>
<text text-anchor="start" x="292.5" y="-322.5" font-family="Helvetica,sans-Serif" font-size="10.00">fwGdcmIO::reader::ie</text>
<text text-anchor="start" x="292.5" y="-311.5" font-family="Helvetica,sans-Serif" font-size="10.00">::InformationEntity&lt;</text>
<text text-anchor="middle" x="357" y="-300.5" font-family="Helvetica,sans-Serif" font-size="10.00"> ::fwMedData::ModelSeries &gt;</text>
</a>
</g>
</g>
<!-- Node1&#45;&gt;Node4 -->
<g id="edge3" class="edge"><title>Node1&#45;&gt;Node4</title>
<path fill="none" stroke="orange" stroke-dasharray="5,2" d="M103.768,-247.955C111.739,-251.614 120.014,-255.115 128,-258 179.177,-276.488 238.982,-290.922 284.498,-300.503"/>
<polygon fill="orange" stroke="orange" points="105.122,-244.723 94.5855,-243.614 102.13,-251.052 105.122,-244.723"/>
<text text-anchor="middle" x="197" y="-298" font-family="Helvetica,sans-Serif" font-size="10.00"> &lt; ::fwMedData::ModelSeries &gt;</text>
</g>
<!-- Node6 -->
<g id="node6" class="node"><title>Node6</title>
<g id="a_node6"><a xlink:href="classfwGdcmIO_1_1reader_1_1ie_1_1InformationEntity.html" target="_top" xlink:title="fwGdcmIO::reader::ie\l::InformationEntity\&lt;\l ::fwMedData::Series \&gt;">
<polygon fill="white" stroke="black" points="297.5,-233.5 297.5,-274.5 416.5,-274.5 416.5,-233.5 297.5,-233.5"/>
<text text-anchor="start" x="305.5" y="-262.5" font-family="Helvetica,sans-Serif" font-size="10.00">fwGdcmIO::reader::ie</text>
<text text-anchor="start" x="305.5" y="-251.5" font-family="Helvetica,sans-Serif" font-size="10.00">::InformationEntity&lt;</text>
<text text-anchor="middle" x="357" y="-240.5" font-family="Helvetica,sans-Serif" font-size="10.00"> ::fwMedData::Series &gt;</text>
</a>
</g>
</g>
<!-- Node1&#45;&gt;Node6 -->
<g id="edge5" class="edge"><title>Node1&#45;&gt;Node6</title>
<path fill="none" stroke="orange" stroke-dasharray="5,2" d="M120.543,-229.669C173.083,-235.099 246.614,-242.697 297.463,-247.951"/>
<polygon fill="orange" stroke="orange" points="120.635,-226.16 110.328,-228.614 119.915,-233.123 120.635,-226.16"/>
<text text-anchor="middle" x="197" y="-246" font-family="Helvetica,sans-Serif" font-size="10.00"> &lt; ::fwMedData::Series &gt;</text>
</g>
<!-- Node8 -->
<g id="node8" class="node"><title>Node8</title>
<g id="a_node8"><a xlink:href="classfwGdcmIO_1_1reader_1_1ie_1_1InformationEntity.html" target="_top" xlink:title="fwGdcmIO::reader::ie\l::InformationEntity\&lt;\l ::fwMedData::Study \&gt;">
<polygon fill="white" stroke="black" points="299,-173.5 299,-214.5 415,-214.5 415,-173.5 299,-173.5"/>
<text text-anchor="start" x="307" y="-202.5" font-family="Helvetica,sans-Serif" font-size="10.00">fwGdcmIO::reader::ie</text>
<text text-anchor="start" x="307" y="-191.5" font-family="Helvetica,sans-Serif" font-size="10.00">::InformationEntity&lt;</text>
<text text-anchor="middle" x="357" y="-180.5" font-family="Helvetica,sans-Serif" font-size="10.00"> ::fwMedData::Study &gt;</text>
</a>
</g>
</g>
<!-- Node1&#45;&gt;Node8 -->
<g id="edge7" class="edge"><title>Node1&#45;&gt;Node8</title>
<path fill="none" stroke="orange" stroke-dasharray="5,2" d="M120.314,-214.841C122.909,-214.55 125.479,-214.268 128,-214 186.084,-207.824 252.64,-202.147 298.786,-198.431"/>
<polygon fill="orange" stroke="orange" points="119.762,-211.381 110.229,-216.004 120.564,-218.335 119.762,-211.381"/>
<text text-anchor="middle" x="197" y="-217" font-family="Helvetica,sans-Serif" font-size="10.00"> &lt; ::fwMedData::Study &gt;</text>
</g>
<!-- Node10 -->
<g id="node10" class="node"><title>Node10</title>
<g id="a_node10"><a xlink:href="classfwGdcmIO_1_1reader_1_1ie_1_1InformationEntity.html" target="_top" xlink:title="fwGdcmIO::reader::ie\l::InformationEntity\&lt;\l ::fwData::Image \&gt;">
<polygon fill="white" stroke="black" points="302,-105.5 302,-146.5 412,-146.5 412,-105.5 302,-105.5"/>
<text text-anchor="start" x="310" y="-134.5" font-family="Helvetica,sans-Serif" font-size="10.00">fwGdcmIO::reader::ie</text>
<text text-anchor="start" x="310" y="-123.5" font-family="Helvetica,sans-Serif" font-size="10.00">::InformationEntity&lt;</text>
<text text-anchor="middle" x="357" y="-112.5" font-family="Helvetica,sans-Serif" font-size="10.00"> ::fwData::Image &gt;</text>
</a>
</g>
</g>
<!-- Node1&#45;&gt;Node10 -->
<g id="edge9" class="edge"><title>Node1&#45;&gt;Node10</title>
<path fill="none" stroke="orange" stroke-dasharray="5,2" d="M101.476,-197.754C110.132,-193.489 119.23,-189.361 128,-186 185.903,-163.807 255.123,-146.868 301.987,-136.737"/>
<polygon fill="orange" stroke="orange" points="99.631,-194.765 92.2918,-202.406 102.794,-201.01 99.631,-194.765"/>
<text text-anchor="middle" x="197" y="-189" font-family="Helvetica,sans-Serif" font-size="10.00"> &lt; ::fwData::Image &gt;</text>
</g>
<!-- Node14 -->
<g id="node14" class="node"><title>Node14</title>
<g id="a_node14"><a xlink:href="classfwGdcmIO_1_1reader_1_1ie_1_1InformationEntity.html" target="_top" xlink:title="fwGdcmIO::reader::ie\l::InformationEntity\&lt;\l ::fwMedData::Patient \&gt;">
<polygon fill="white" stroke="black" points="296,-18.5 296,-59.5 418,-59.5 418,-18.5 296,-18.5"/>
<text text-anchor="start" x="304" y="-47.5" font-family="Helvetica,sans-Serif" font-size="10.00">fwGdcmIO::reader::ie</text>
<text text-anchor="start" x="304" y="-36.5" font-family="Helvetica,sans-Serif" font-size="10.00">::InformationEntity&lt;</text>
<text text-anchor="middle" x="357" y="-25.5" font-family="Helvetica,sans-Serif" font-size="10.00"> ::fwMedData::Patient &gt;</text>
</a>
</g>
</g>
<!-- Node1&#45;&gt;Node14 -->
<g id="edge13" class="edge"><title>Node1&#45;&gt;Node14</title>
<path fill="none" stroke="orange" stroke-dasharray="5,2" d="M73.3251,-193.43C86.2526,-173.526 105.515,-147.922 128,-131 178.647,-92.8853 247.255,-68.0324 295.945,-53.8809"/>
<polygon fill="orange" stroke="orange" points="70.217,-191.797 67.8424,-202.123 76.1377,-195.532 70.217,-191.797"/>
<text text-anchor="middle" x="197" y="-134" font-family="Helvetica,sans-Serif" font-size="10.00"> &lt; ::fwMedData::Patient &gt;</text>
</g>
<!-- Node3 -->
<g id="node3" class="node"><title>Node3</title>
<g id="a_node3"><a xlink:href="classfwGdcmIO_1_1reader_1_1ie_1_1Equipment.html" target="_top" xlink:title="Equipment Information Entity class. ">
<polygon fill="white" stroke="black" points="468,-359 468,-389 578,-389 578,-359 468,-359"/>
<text text-anchor="start" x="476" y="-377" font-family="Helvetica,sans-Serif" font-size="10.00">fwGdcmIO::reader::ie</text>
<text text-anchor="middle" x="523" y="-366" font-family="Helvetica,sans-Serif" font-size="10.00">::Equipment</text>
</a>
</g>
</g>
<!-- Node2&#45;&gt;Node3 -->
<g id="edge2" class="edge"><title>Node2&#45;&gt;Node3</title>
<path fill="none" stroke="midnightblue" d="M435.922,-374C446.69,-374 457.552,-374 467.762,-374"/>
<polygon fill="midnightblue" stroke="midnightblue" points="435.652,-370.5 425.652,-374 435.652,-377.5 435.652,-370.5"/>
</g>
<!-- Node5 -->
<g id="node5" class="node"><title>Node5</title>
<g id="a_node5"><a xlink:href="classfwGdcmIO_1_1reader_1_1ie_1_1Surface.html" target="_top" xlink:title="Surface Information Entity class. ">
<polygon fill="white" stroke="black" points="468,-299 468,-329 578,-329 578,-299 468,-299"/>
<text text-anchor="start" x="476" y="-317" font-family="Helvetica,sans-Serif" font-size="10.00">fwGdcmIO::reader::ie</text>
<text text-anchor="middle" x="523" y="-306" font-family="Helvetica,sans-Serif" font-size="10.00">::Surface</text>
</a>
</g>
</g>
<!-- Node4&#45;&gt;Node5 -->
<g id="edge4" class="edge"><title>Node4&#45;&gt;Node5</title>
<path fill="none" stroke="midnightblue" d="M440.129,-314C449.547,-314 458.962,-314 467.878,-314"/>
<polygon fill="midnightblue" stroke="midnightblue" points="439.933,-310.5 429.933,-314 439.933,-317.5 439.933,-310.5"/>
</g>
<!-- Node7 -->
<g id="node7" class="node"><title>Node7</title>
<g id="a_node7"><a xlink:href="classfwGdcmIO_1_1reader_1_1ie_1_1Series.html" target="_top" xlink:title="Series Information Entity class. ">
<polygon fill="white" stroke="black" points="468,-245 468,-275 578,-275 578,-245 468,-245"/>
<text text-anchor="start" x="476" y="-263" font-family="Helvetica,sans-Serif" font-size="10.00">fwGdcmIO::reader::ie</text>
<text text-anchor="middle" x="523" y="-252" font-family="Helvetica,sans-Serif" font-size="10.00">::Series</text>
</a>
</g>
</g>
<!-- Node6&#45;&gt;Node7 -->
<g id="edge6" class="edge"><title>Node6&#45;&gt;Node7</title>
<path fill="none" stroke="midnightblue" d="M427.029,-256.525C440.635,-257.023 454.731,-257.539 467.765,-258.016"/>
<polygon fill="midnightblue" stroke="midnightblue" points="426.866,-253.017 416.745,-256.149 426.61,-260.013 426.866,-253.017"/>
</g>
<!-- Node9 -->
<g id="node9" class="node"><title>Node9</title>
<g id="a_node9"><a xlink:href="classfwGdcmIO_1_1reader_1_1ie_1_1Study.html" target="_top" xlink:title="Study Information Entity class. ">
<polygon fill="white" stroke="black" points="468,-196 468,-226 578,-226 578,-196 468,-196"/>
<text text-anchor="start" x="476" y="-214" font-family="Helvetica,sans-Serif" font-size="10.00">fwGdcmIO::reader::ie</text>
<text text-anchor="middle" x="523" y="-203" font-family="Helvetica,sans-Serif" font-size="10.00">::Study</text>
</a>
</g>
</g>
<!-- Node8&#45;&gt;Node9 -->
<g id="edge8" class="edge"><title>Node8&#45;&gt;Node9</title>
<path fill="none" stroke="midnightblue" d="M425.527,-201C439.669,-202.466 454.404,-203.993 467.977,-205.4"/>
<polygon fill="midnightblue" stroke="midnightblue" points="425.667,-197.496 415.359,-199.946 424.945,-204.458 425.667,-197.496"/>
</g>
<!-- Node11 -->
<g id="node11" class="node"><title>Node11</title>
<g id="a_node11"><a xlink:href="classfwGdcmIO_1_1reader_1_1ie_1_1Document.html" target="_top" xlink:title="Document Information Entity class It search and read a specific template from the root of the documen...">
<polygon fill="white" stroke="black" points="468,-147 468,-177 578,-177 578,-147 468,-147"/>
<text text-anchor="start" x="476" y="-165" font-family="Helvetica,sans-Serif" font-size="10.00">fwGdcmIO::reader::ie</text>
<text text-anchor="middle" x="523" y="-154" font-family="Helvetica,sans-Serif" font-size="10.00">::Document</text>
</a>
</g>
</g>
<!-- Node10&#45;&gt;Node11 -->
<g id="edge10" class="edge"><title>Node10&#45;&gt;Node11</title>
<path fill="none" stroke="midnightblue" d="M421.982,-140.045C437.163,-143.377 453.211,-146.9 467.903,-150.125"/>
<polygon fill="midnightblue" stroke="midnightblue" points="422.672,-136.613 412.154,-137.888 421.171,-143.45 422.672,-136.613"/>
</g>
<!-- Node12 -->
<g id="node12" class="node"><title>Node12</title>
<g id="a_node12"><a xlink:href="classfwGdcmIO_1_1reader_1_1ie_1_1Image.html" target="_top" xlink:title="Image Information Entity class. ">
<polygon fill="white" stroke="black" points="468,-98 468,-128 578,-128 578,-98 468,-98"/>
<text text-anchor="start" x="476" y="-116" font-family="Helvetica,sans-Serif" font-size="10.00">fwGdcmIO::reader::ie</text>
<text text-anchor="middle" x="523" y="-105" font-family="Helvetica,sans-Serif" font-size="10.00">::Image</text>
</a>
</g>
</g>
<!-- Node10&#45;&gt;Node12 -->
<g id="edge11" class="edge"><title>Node10&#45;&gt;Node12</title>
<path fill="none" stroke="midnightblue" d="M422.416,-120.894C437.469,-119.701 453.351,-118.442 467.903,-117.288"/>
<polygon fill="midnightblue" stroke="midnightblue" points="421.846,-117.428 412.154,-121.707 422.4,-124.406 421.846,-117.428"/>
</g>
<!-- Node13 -->
<g id="node13" class="node"><title>Node13</title>
<g id="a_node13"><a xlink:href="classfwGdcmIO_1_1reader_1_1ie_1_1SpatialFiducials.html" target="_top" xlink:title="Spatial Fiducials Information Entity class. ">
<polygon fill="white" stroke="black" points="468,-49 468,-79 578,-79 578,-49 468,-49"/>
<text text-anchor="start" x="476" y="-67" font-family="Helvetica,sans-Serif" font-size="10.00">fwGdcmIO::reader::ie</text>
<text text-anchor="middle" x="523" y="-56" font-family="Helvetica,sans-Serif" font-size="10.00">::SpatialFiducials</text>
</a>
</g>
</g>
<!-- Node10&#45;&gt;Node13 -->
<g id="edge12" class="edge"><title>Node10&#45;&gt;Node13</title>
<path fill="none" stroke="midnightblue" d="M421.692,-101.921C442.064,-94.2198 464.024,-85.9178 482.188,-79.0508"/>
<polygon fill="midnightblue" stroke="midnightblue" points="420.27,-98.7169 412.154,-105.527 422.746,-105.265 420.27,-98.7169"/>
</g>
<!-- Node15 -->
<g id="node15" class="node"><title>Node15</title>
<g id="a_node15"><a xlink:href="classfwGdcmIO_1_1reader_1_1ie_1_1Patient.html" target="_top" xlink:title="Patient Information Entity class. ">
<polygon fill="white" stroke="black" points="468,-0 468,-30 578,-30 578,-0 468,-0"/>
<text text-anchor="start" x="476" y="-18" font-family="Helvetica,sans-Serif" font-size="10.00">fwGdcmIO::reader::ie</text>
<text text-anchor="middle" x="523" y="-7" font-family="Helvetica,sans-Serif" font-size="10.00">::Patient</text>
</a>
</g>
</g>
<!-- Node14&#45;&gt;Node15 -->
<g id="edge14" class="edge"><title>Node14&#45;&gt;Node15</title>
<path fill="none" stroke="midnightblue" d="M428.182,-28.7295C441.457,-26.7868 455.154,-24.7823 467.842,-22.9255"/>
<polygon fill="midnightblue" stroke="midnightblue" points="427.524,-25.2884 418.136,-30.1996 428.538,-32.2146 427.524,-25.2884"/>
</g>
</g>
</svg>
