<?xml version="1.0" encoding="UTF-8" standalone="no"?>
<!DOCTYPE svg PUBLIC "-//W3C//DTD SVG 1.1//EN"
 "http://www.w3.org/Graphics/SVG/1.1/DTD/svg11.dtd">
<!-- Generated by graphviz version 2.26.3 (20100126.1600)
 -->
<!-- Title: fwJobs::IJob::cancel Pages: 1 -->
<svg width="434pt" height="122pt"
 viewBox="0.00 0.00 434.00 122.00" xmlns="http://www.w3.org/2000/svg" xmlns:xlink="http://www.w3.org/1999/xlink">
<g id="graph1" class="graph" transform="scale(1 1) rotate(0) translate(4 118)">
<title>fwJobs::IJob::cancel</title>
<polygon fill="white" stroke="white" points="-4,5 -4,-118 431,-118 431,5 -4,5"/>
<!-- Node1 -->
<g id="node1" class="node"><title>Node1</title>
<polygon fill="#bfbfbf" stroke="black" points="0.5,-52.5 0.5,-73.5 107.5,-73.5 107.5,-52.5 0.5,-52.5"/>
<text text-anchor="middle" x="54" y="-60.5" font-family="Helvetica,sans-Serif" font-size="10.00">fwJobs::IJob::cancel</text>
</g>
<!-- Node2 -->
<g id="node3" class="node"><title>Node2</title>
<a xlink:href="classfwJobs_1_1Job.html#a186151bc184c85e13490c24f0e2cad86" target="_top" xlink:title="Reimplements IJob&#39;s cancel. ">
<polygon fill="white" stroke="black" points="163,-92.5 163,-113.5 267,-113.5 267,-92.5 163,-92.5"/>
<text text-anchor="middle" x="215" y="-100.5" font-family="Helvetica,sans-Serif" font-size="10.00">fwJobs::Job::cancel</text>
</a>
</g>
<!-- Node1&#45;&gt;Node2 -->
<g id="edge2" class="edge"><title>Node1&#45;&gt;Node2</title>
<path fill="none" stroke="midnightblue" d="M106.259,-75.9835C127.766,-81.3271 152.354,-87.4358 172.702,-92.4913"/>
<polygon fill="midnightblue" stroke="midnightblue" points="106.85,-72.524 96.3009,-73.5095 105.162,-79.3175 106.85,-72.524"/>
</g>
<!-- Node3 -->
<g id="node5" class="node"><title>Node3</title>
<a xlink:href="classfwJobs_1_1IJob.html#af938585369eb38a4a263584a9d87bf0c" target="_top" xlink:title="Setter on cancelable. ">
<polygon fill="white" stroke="black" points="144.5,-52.5 144.5,-73.5 285.5,-73.5 285.5,-52.5 144.5,-52.5"/>
<text text-anchor="middle" x="215" y="-60.5" font-family="Helvetica,sans-Serif" font-size="10.00">fwJobs::IJob::setCancelable</text>
</a>
</g>
<!-- Node1&#45;&gt;Node3 -->
<g id="edge4" class="edge"><title>Node1&#45;&gt;Node3</title>
<path fill="none" stroke="midnightblue" d="M117.747,-63C126.513,-63 135.557,-63 144.436,-63"/>
<polygon fill="midnightblue" stroke="midnightblue" points="117.611,-59.5001 107.611,-63 117.611,-66.5001 117.611,-59.5001"/>
</g>
<!-- Node4 -->
<g id="node7" class="node"><title>Node4</title>
<a xlink:href="classgui_1_1editor_1_1SJobBar.html#a009772c277a4ab73b9800efce3e94444" target="_top" xlink:title="showJob slot&#39;s method ">
<polygon fill="white" stroke="black" points="163.5,-0 163.5,-34 266.5,-34 266.5,-0 163.5,-0"/>
<text text-anchor="start" x="171.5" y="-21" font-family="Helvetica,sans-Serif" font-size="10.00">gui::editor::SJobBar</text>
<text text-anchor="middle" x="215" y="-8" font-family="Helvetica,sans-Serif" font-size="10.00">::showJob</text>
</a>
</g>
<!-- Node1&#45;&gt;Node4 -->
<g id="edge6" class="edge"><title>Node1&#45;&gt;Node4</title>
<path fill="none" stroke="midnightblue" d="M100.576,-49.6926C120.208,-44.0834 143.135,-37.5328 163.289,-31.7745"/>
<polygon fill="midnightblue" stroke="midnightblue" points="99.5903,-46.3341 90.9367,-52.4467 101.513,-53.0647 99.5903,-46.3341"/>
</g>
<!-- Node5 -->
<g id="node9" class="node"><title>Node5</title>
<a xlink:href="classgui_1_1editor_1_1SJobBar.html#a7056080b53400929888725c48aec1fa0" target="_top" xlink:title="Constructor. Do nothing. ">
<polygon fill="white" stroke="black" points="322.5,-0 322.5,-34 425.5,-34 425.5,-0 322.5,-0"/>
<text text-anchor="start" x="330.5" y="-21" font-family="Helvetica,sans-Serif" font-size="10.00">gui::editor::SJobBar</text>
<text text-anchor="middle" x="374" y="-8" font-family="Helvetica,sans-Serif" font-size="10.00">::SJobBar</text>
</a>
</g>
<!-- Node4&#45;&gt;Node5 -->
<g id="edge8" class="edge"><title>Node4&#45;&gt;Node5</title>
<path fill="none" stroke="midnightblue" d="M276.869,-17C291.916,-17 307.849,-17 322.364,-17"/>
<polygon fill="midnightblue" stroke="midnightblue" points="276.623,-13.5001 266.623,-17 276.623,-20.5001 276.623,-13.5001"/>
</g>
</g>
</svg>
