<?xml version="1.0" encoding="UTF-8" standalone="no"?>
<!DOCTYPE svg PUBLIC "-//W3C//DTD SVG 1.1//EN"
 "http://www.w3.org/Graphics/SVG/1.1/DTD/svg11.dtd">
<!-- Generated by graphviz version 2.26.3 (20100126.1600)
 -->
<!-- Title: ioQt::SPdfWriter::starting Pages: 1 -->
<svg width="436pt" height="276pt"
 viewBox="0.00 0.00 436.00 276.00" xmlns="http://www.w3.org/2000/svg" xmlns:xlink="http://www.w3.org/1999/xlink">
<g id="graph1" class="graph" transform="scale(1 1) rotate(0) translate(4 272)">
<title>ioQt::SPdfWriter::starting</title>
<polygon fill="white" stroke="white" points="-4,5 -4,-272 433,-272 433,5 -4,5"/>
<!-- Node1 -->
<g id="node1" class="node"><title>Node1</title>
<polygon fill="#bfbfbf" stroke="black" points="0.5,-125.5 0.5,-146.5 127.5,-146.5 127.5,-125.5 0.5,-125.5"/>
<text text-anchor="middle" x="64" y="-133.5" font-family="Helvetica,sans-Serif" font-size="10.00">ioQt::SPdfWriter::starting</text>
</g>
<!-- Node2 -->
<g id="node3" class="node"><title>Node2</title>
<a xlink:href="classfwServices_1_1IService.html#a180c71798385409295cd901957f0d626" target="_top" xlink:title="Return the number of key in a group of keys. ">
<polygon fill="white" stroke="black" points="173.5,-234 173.5,-268 280.5,-268 280.5,-234 173.5,-234"/>
<text text-anchor="start" x="181.5" y="-255" font-family="Helvetica,sans-Serif" font-size="10.00">fwServices::IService</text>
<text text-anchor="middle" x="227" y="-242" font-family="Helvetica,sans-Serif" font-size="10.00">::getKeyGroupSize</text>
</a>
</g>
<!-- Node1&#45;&gt;Node2 -->
<g id="edge2" class="edge"><title>Node1&#45;&gt;Node2</title>
<path fill="none" stroke="midnightblue" d="M73.5795,-146.595C90.3945,-164.685 126.965,-201.815 164,-225 166.318,-226.451 168.73,-227.852 171.202,-229.2"/>
<polygon fill="midnightblue" stroke="midnightblue" points="169.844,-232.436 180.345,-233.844 173.014,-226.195 169.844,-232.436"/>
</g>
<!-- Node3 -->
<g id="node5" class="node"><title>Node3</title>
<a xlink:href="classfwTools_1_1fwID.html#a49c219235064892bb906498913fe8175" target="_top" xlink:title="Retrieve the object attached to the given id. Return a null sptr if no correspondence exist...">
<polygon fill="white" stroke="black" points="164,-194.5 164,-215.5 290,-215.5 290,-194.5 164,-194.5"/>
<text text-anchor="middle" x="227" y="-202.5" font-family="Helvetica,sans-Serif" font-size="10.00">fwTools::fwID::getObject</text>
</a>
</g>
<!-- Node1&#45;&gt;Node3 -->
<g id="edge4" class="edge"><title>Node1&#45;&gt;Node3</title>
<path fill="none" stroke="midnightblue" d="M83.5289,-146.645C103.406,-157.222 135.291,-173.483 164,-185 169.458,-187.19 175.256,-189.304 181.039,-191.286"/>
<polygon fill="midnightblue" stroke="midnightblue" points="180.1,-194.662 190.693,-194.485 182.302,-188.017 180.1,-194.662"/>
</g>
<!-- Node4 -->
<g id="node7" class="node"><title>Node4</title>
<a xlink:href="classfwGui_1_1GuiRegistry.html#a8ff4c9184028dc1303a889154138b2ce" target="_top" xlink:title="Returns fwContainer associate with service ID, null if not found. ">
<polygon fill="white" stroke="black" points="177,-142 177,-176 277,-176 277,-142 177,-142"/>
<text text-anchor="start" x="185" y="-163" font-family="Helvetica,sans-Serif" font-size="10.00">fwGui::GuiRegistry</text>
<text text-anchor="middle" x="227" y="-150" font-family="Helvetica,sans-Serif" font-size="10.00">::getSIDContainer</text>
</a>
</g>
<!-- Node1&#45;&gt;Node4 -->
<g id="edge6" class="edge"><title>Node1&#45;&gt;Node4</title>
<path fill="none" stroke="midnightblue" d="M127.954,-145.024C140.763,-146.832 154.178,-148.725 166.852,-150.513"/>
<polygon fill="midnightblue" stroke="midnightblue" points="166.441,-153.99 176.832,-151.921 167.419,-147.058 166.441,-153.99"/>
</g>
<!-- Node5 -->
<g id="node9" class="node"><title>Node5</title>
<a xlink:href="classfwGui_1_1GuiRegistry.html#acf9224bb89555d6a7d1794c4b79980b4" target="_top" xlink:title="Verifies if a SID exists in the global SID container. ">
<polygon fill="white" stroke="black" points="327,-123 327,-157 427,-157 427,-123 327,-123"/>
<text text-anchor="start" x="335" y="-144" font-family="Helvetica,sans-Serif" font-size="10.00">fwGui::GuiRegistry</text>
<text text-anchor="middle" x="377" y="-131" font-family="Helvetica,sans-Serif" font-size="10.00">::hasSIDContainer</text>
</a>
</g>
<!-- Node1&#45;&gt;Node5 -->
<g id="edge14" class="edge"><title>Node1&#45;&gt;Node5</title>
<path fill="none" stroke="midnightblue" d="M127.831,-133.337C173.111,-131.891 235.305,-130.803 290,-133 298.691,-133.349 307.858,-133.893 316.851,-134.528"/>
<polygon fill="midnightblue" stroke="midnightblue" points="316.663,-138.024 326.896,-135.277 317.184,-131.043 316.663,-138.024"/>
</g>
<!-- Node6 -->
<g id="node11" class="node"><title>Node6</title>
<a xlink:href="classfwGui_1_1GuiRegistry.html#a231c5ba3ec6611789a69995ae7ad7d1e" target="_top" xlink:title="Returns fwContainer associate with window ID, null if not found. ">
<polygon fill="white" stroke="black" points="177,-52 177,-86 277,-86 277,-52 177,-52"/>
<text text-anchor="start" x="185" y="-73" font-family="Helvetica,sans-Serif" font-size="10.00">fwGui::GuiRegistry</text>
<text text-anchor="middle" x="227" y="-60" font-family="Helvetica,sans-Serif" font-size="10.00">::getWIDContainer</text>
</a>
</g>
<!-- Node1&#45;&gt;Node6 -->
<g id="edge10" class="edge"><title>Node1&#45;&gt;Node6</title>
<path fill="none" stroke="midnightblue" d="M89.8278,-125.384C112.894,-115.902 147.357,-101.737 175.968,-89.9763"/>
<polygon fill="midnightblue" stroke="midnightblue" points="177.503,-93.1295 185.422,-86.0905 174.842,-86.6551 177.503,-93.1295"/>
</g>
<!-- Node8 -->
<g id="node16" class="node"><title>Node8</title>
<a xlink:href="classfwServices_1_1IService.html#ac0ac1a469b4be20ba958fa08996cd662" target="_top" xlink:title="Streaming a service. ">
<polygon fill="white" stroke="black" points="173.5,-0 173.5,-34 280.5,-34 280.5,-0 173.5,-0"/>
<text text-anchor="start" x="181.5" y="-21" font-family="Helvetica,sans-Serif" font-size="10.00">fwServices::IService</text>
<text text-anchor="middle" x="227" y="-8" font-family="Helvetica,sans-Serif" font-size="10.00">::isVersion2</text>
</a>
</g>
<!-- Node1&#45;&gt;Node8 -->
<g id="edge16" class="edge"><title>Node1&#45;&gt;Node8</title>
<path fill="none" stroke="midnightblue" d="M72.9521,-125.492C89.3644,-106.768 126.082,-67.3188 164,-43 166.302,-41.5238 168.701,-40.1023 171.162,-38.7375"/>
<polygon fill="midnightblue" stroke="midnightblue" points="172.986,-41.7354 180.277,-34.0483 169.783,-35.5109 172.986,-41.7354"/>
</g>
<!-- Node4&#45;&gt;Node5 -->
<g id="edge8" class="edge"><title>Node4&#45;&gt;Node5</title>
<path fill="none" stroke="midnightblue" d="M277.365,-152.62C289.924,-151.03 303.519,-149.308 316.51,-147.662"/>
<polygon fill="midnightblue" stroke="midnightblue" points="317.287,-151.092 326.768,-146.363 316.407,-144.147 317.287,-151.092"/>
</g>
<!-- Node7 -->
<g id="node13" class="node"><title>Node7</title>
<a xlink:href="classfwGui_1_1GuiRegistry.html#a643c9924e22ad570f3cca21ca14953d3" target="_top" xlink:title="Verifies if a WID exists in the global WID container. ">
<polygon fill="white" stroke="black" points="326.5,-52 326.5,-86 427.5,-86 427.5,-52 326.5,-52"/>
<text text-anchor="start" x="334.5" y="-73" font-family="Helvetica,sans-Serif" font-size="10.00">fwGui::GuiRegistry</text>
<text text-anchor="middle" x="377" y="-60" font-family="Helvetica,sans-Serif" font-size="10.00">::hasWIDContainer</text>
</a>
</g>
<!-- Node6&#45;&gt;Node7 -->
<g id="edge12" class="edge"><title>Node6&#45;&gt;Node7</title>
<path fill="none" stroke="midnightblue" d="M277.365,-69C289.789,-69 303.228,-69 316.093,-69"/>
<polygon fill="midnightblue" stroke="midnightblue" points="316.257,-72.5001 326.257,-69 316.257,-65.5001 316.257,-72.5001"/>
</g>
</g>
</svg>
