<?xml version="1.0" encoding="UTF-8" standalone="no"?>
<!DOCTYPE svg PUBLIC "-//W3C//DTD SVG 1.1//EN"
 "http://www.w3.org/Graphics/SVG/1.1/DTD/svg11.dtd">
<!-- Generated by graphviz version 2.36.0 (20140111.2315)
 -->
<!-- Title: visuVTKVRAdaptor::SVolume Pages: 1 -->
<svg width="2032pt" height="441pt"
 viewBox="0.00 0.00 2032.00 441.00" xmlns="http://www.w3.org/2000/svg" xmlns:xlink="http://www.w3.org/1999/xlink">
<g id="graph0" class="graph" transform="scale(1 1) rotate(0) translate(4 437)">
<title>visuVTKVRAdaptor::SVolume</title>
<polygon fill="white" stroke="none" points="-4,4 -4,-437 2028,-437 2028,4 -4,4"/>
<!-- Node1 -->
<g id="node1" class="node"><title>Node1</title>
<polygon fill="#bfbfbf" stroke="black" points="1876,-324.5 1876,-343.5 2024,-343.5 2024,-324.5 1876,-324.5"/>
<text text-anchor="middle" x="1950" y="-331.5" font-family="Helvetica,sans-Serif" font-size="10.00">visuVTKVRAdaptor::SVolume</text>
</g>
<!-- Node2 -->
<g id="node2" class="node"><title>Node2</title>
<g id="a_node2"><a xlink:href="classfwDataTools_1_1helper_1_1MedicalImageAdaptor.html" target="_top" xlink:title="Helpers for medical image. ">
<polygon fill="white" stroke="black" points="1718.5,-403 1718.5,-433 1835.5,-433 1835.5,-403 1718.5,-403"/>
<text text-anchor="start" x="1726.5" y="-421" font-family="Helvetica,sans-Serif" font-size="10.00">fwDataTools::helper</text>
<text text-anchor="middle" x="1777" y="-410" font-family="Helvetica,sans-Serif" font-size="10.00">::MedicalImageAdaptor</text>
</a>
</g>
</g>
<!-- Node2&#45;&gt;Node1 -->
<g id="edge1" class="edge"><title>Node2&#45;&gt;Node1</title>
<path fill="none" stroke="midnightblue" d="M1832.04,-399.225C1840.83,-395.748 1849.75,-391.957 1858,-388 1886.16,-374.496 1917.05,-355.114 1934.62,-343.616"/>
<polygon fill="midnightblue" stroke="midnightblue" points="1830.67,-396.003 1822.6,-402.867 1833.19,-402.535 1830.67,-396.003"/>
</g>
<!-- Node3 -->
<g id="node3" class="node"><title>Node3</title>
<g id="a_node3"><a xlink:href="classfwRenderVTK_1_1IAdaptor.html" target="_top" xlink:title="Base class for VTK adaptors. ">
<polygon fill="white" stroke="black" points="1716.5,-232.5 1716.5,-251.5 1837.5,-251.5 1837.5,-232.5 1716.5,-232.5"/>
<text text-anchor="middle" x="1777" y="-239.5" font-family="Helvetica,sans-Serif" font-size="10.00">fwRenderVTK::IAdaptor</text>
</a>
</g>
</g>
<!-- Node3&#45;&gt;Node1 -->
<g id="edge2" class="edge"><title>Node3&#45;&gt;Node1</title>
<path fill="none" stroke="midnightblue" d="M1805.23,-256.651C1840.6,-275.678 1901.33,-308.353 1931.26,-324.458"/>
<polygon fill="midnightblue" stroke="midnightblue" points="1806.44,-253.327 1795.98,-251.672 1803.12,-259.492 1806.44,-253.327"/>
</g>
<!-- Node4 -->
<g id="node4" class="node"><title>Node4</title>
<g id="a_node4"><a xlink:href="classfwServices_1_1IService.html" target="_top" xlink:title="Base class for all services. ">
<polygon fill="white" stroke="black" points="1458.5,-232.5 1458.5,-251.5 1565.5,-251.5 1565.5,-232.5 1458.5,-232.5"/>
<text text-anchor="middle" x="1512" y="-239.5" font-family="Helvetica,sans-Serif" font-size="10.00">fwServices::IService</text>
</a>
</g>
</g>
<!-- Node4&#45;&gt;Node3 -->
<g id="edge3" class="edge"><title>Node4&#45;&gt;Node3</title>
<path fill="none" stroke="midnightblue" d="M1575.83,-242C1618.37,-242 1674.25,-242 1716.15,-242"/>
<polygon fill="midnightblue" stroke="midnightblue" points="1575.59,-238.5 1565.59,-242 1575.59,-245.5 1575.59,-238.5"/>
</g>
<!-- Node5 -->
<g id="node5" class="node"><title>Node5</title>
<g id="a_node5"><a xlink:href="classfwTools_1_1Object.html" target="_top" xlink:title="Define Base class for FW4SPL objects and services. ">
<polygon fill="white" stroke="black" points="385,-193.5 385,-212.5 471,-212.5 471,-193.5 385,-193.5"/>
<text text-anchor="middle" x="428" y="-200.5" font-family="Helvetica,sans-Serif" font-size="10.00">fwTools::Object</text>
</a>
</g>
</g>
<!-- Node5&#45;&gt;Node4 -->
<g id="edge4" class="edge"><title>Node5&#45;&gt;Node4</title>
<path fill="none" stroke="midnightblue" d="M481.153,-203.076C615.38,-203.519 983.708,-206.293 1290,-223 1347.68,-226.146 1413.64,-232.129 1458.37,-236.543"/>
<polygon fill="midnightblue" stroke="midnightblue" points="481.155,-199.576 471.144,-203.046 481.134,-206.576 481.155,-199.576"/>
</g>
<!-- Node6 -->
<g id="node6" class="node"><title>Node6</title>
<g id="a_node6"><a xlink:href="classfwCore_1_1BaseObject.html" target="_top" xlink:title="Base class for all FW4SPL&#39;s classes. ">
<polygon fill="white" stroke="black" points="170.5,-152.5 170.5,-171.5 275.5,-171.5 275.5,-152.5 170.5,-152.5"/>
<text text-anchor="middle" x="223" y="-159.5" font-family="Helvetica,sans-Serif" font-size="10.00">fwCore::BaseObject</text>
</a>
</g>
</g>
<!-- Node6&#45;&gt;Node5 -->
<g id="edge5" class="edge"><title>Node6&#45;&gt;Node5</title>
<path fill="none" stroke="midnightblue" d="M281.06,-173.524C314.083,-180.194 354.927,-188.443 385,-194.517"/>
<polygon fill="midnightblue" stroke="midnightblue" points="281.578,-170.058 271.083,-171.509 280.192,-176.92 281.578,-170.058"/>
</g>
<!-- Node27 -->
<g id="node27" class="node"><title>Node27</title>
<g id="a_node27"><a xlink:href="structfwCom_1_1SlotConnectionBase.html" target="_top" xlink:title="Base class for Slot connection implementation. This class is for internal use purpose. ">
<polygon fill="white" stroke="black" points="356.5,-149.5 356.5,-168.5 499.5,-168.5 499.5,-149.5 356.5,-149.5"/>
<text text-anchor="middle" x="428" y="-156.5" font-family="Helvetica,sans-Serif" font-size="10.00">fwCom::SlotConnectionBase</text>
</a>
</g>
</g>
<!-- Node6&#45;&gt;Node27 -->
<g id="edge29" class="edge"><title>Node6&#45;&gt;Node27</title>
<path fill="none" stroke="midnightblue" d="M286.038,-161.083C308.205,-160.756 333.346,-160.384 356.196,-160.046"/>
<polygon fill="midnightblue" stroke="midnightblue" points="285.698,-157.588 275.751,-161.235 285.801,-164.587 285.698,-157.588"/>
</g>
<!-- Node7 -->
<g id="node7" class="node"><title>Node7</title>
<polygon fill="white" stroke="#bfbfbf" points="0.5,-147 0.5,-177 131.5,-177 131.5,-147 0.5,-147"/>
<text text-anchor="start" x="8.5" y="-165" font-family="Helvetica,sans-Serif" font-size="10.00">std::enable_shared</text>
<text text-anchor="middle" x="66" y="-154" font-family="Helvetica,sans-Serif" font-size="10.00">_from_this&lt; BaseObject &gt;</text>
</g>
<!-- Node7&#45;&gt;Node6 -->
<g id="edge6" class="edge"><title>Node7&#45;&gt;Node6</title>
<path fill="none" stroke="midnightblue" d="M142.089,-162C151.581,-162 161.12,-162 170.138,-162"/>
<polygon fill="midnightblue" stroke="midnightblue" points="141.836,-158.5 131.836,-162 141.836,-165.5 141.836,-158.5"/>
</g>
<!-- Node8 -->
<g id="node8" class="node"><title>Node8</title>
<polygon fill="white" stroke="#bfbfbf" points="187.5,-234.5 187.5,-253.5 258.5,-253.5 258.5,-234.5 187.5,-234.5"/>
<text text-anchor="middle" x="223" y="-241.5" font-family="Helvetica,sans-Serif" font-size="10.00">noncopyable</text>
</g>
<!-- Node8&#45;&gt;Node5 -->
<g id="edge7" class="edge"><title>Node8&#45;&gt;Node5</title>
<path fill="none" stroke="midnightblue" d="M268.738,-234.964C303.336,-227.977 350.902,-218.37 384.834,-211.516"/>
<polygon fill="midnightblue" stroke="midnightblue" points="268.006,-231.541 258.897,-236.952 269.392,-238.403 268.006,-231.541"/>
</g>
<!-- Node9 -->
<g id="node9" class="node"><title>Node9</title>
<g id="a_node9"><a xlink:href="classfwTools_1_1fwID.html" target="_top" xlink:title="Defines ID for fwTools::Object. It is used to associate ID with object. ">
<polygon fill="white" stroke="black" points="184,-196.5 184,-215.5 262,-215.5 262,-196.5 184,-196.5"/>
<text text-anchor="middle" x="223" y="-203.5" font-family="Helvetica,sans-Serif" font-size="10.00">fwTools::fwID</text>
</a>
</g>
</g>
<!-- Node9&#45;&gt;Node5 -->
<g id="edge8" class="edge"><title>Node9&#45;&gt;Node5</title>
<path fill="none" stroke="darkgreen" d="M272.415,-205.285C306.629,-204.779 352.043,-204.108 384.784,-203.624"/>
<polygon fill="darkgreen" stroke="darkgreen" points="272.13,-201.788 262.183,-205.436 272.233,-208.787 272.13,-201.788"/>
</g>
<!-- Node10 -->
<g id="node10" class="node"><title>Node10</title>
<g id="a_node10"><a xlink:href="classfwCom_1_1HasSlots.html" target="_top" xlink:title="This class proposes a mapping between a SlotKeyType and a SlotBase. ">
<polygon fill="white" stroke="black" points="1189.5,-275.5 1189.5,-294.5 1284.5,-294.5 1284.5,-275.5 1189.5,-275.5"/>
<text text-anchor="middle" x="1237" y="-282.5" font-family="Helvetica,sans-Serif" font-size="10.00">fwCom::HasSlots</text>
</a>
</g>
</g>
<!-- Node10&#45;&gt;Node4 -->
<g id="edge9" class="edge"><title>Node10&#45;&gt;Node4</title>
<path fill="none" stroke="midnightblue" d="M1294.55,-276.093C1342.59,-268.526 1411.04,-257.745 1458.03,-250.343"/>
<polygon fill="midnightblue" stroke="midnightblue" points="1293.95,-272.644 1284.62,-277.657 1295.04,-279.558 1293.95,-272.644"/>
</g>
<!-- Node11 -->
<g id="node11" class="node"><title>Node11</title>
<g id="a_node11"><a xlink:href="classfwCom_1_1Slots.html" target="_top" xlink:title="This class proposes a mapping between a SlotKeyType and a SlotBase. ">
<polygon fill="white" stroke="black" points="993.5,-278.5 993.5,-297.5 1070.5,-297.5 1070.5,-278.5 993.5,-278.5"/>
<text text-anchor="middle" x="1032" y="-285.5" font-family="Helvetica,sans-Serif" font-size="10.00">fwCom::Slots</text>
</a>
</g>
</g>
<!-- Node11&#45;&gt;Node10 -->
<g id="edge10" class="edge"><title>Node11&#45;&gt;Node10</title>
<path fill="none" stroke="#9a32cd" stroke-dasharray="5,2" d="M1080.93,-287.292C1113.64,-286.808 1156.76,-286.171 1189.22,-285.691"/>
<polygon fill="#9a32cd" stroke="#9a32cd" points="1080.65,-283.795 1070.71,-287.443 1080.76,-290.795 1080.65,-283.795"/>
<text text-anchor="middle" x="1134" y="-290" font-family="Helvetica,sans-Serif" font-size="10.00"> m_slots</text>
</g>
<!-- Node12 -->
<g id="node12" class="node"><title>Node12</title>
<polygon fill="white" stroke="#bfbfbf" points="671,-276 671,-306 823,-306 823,-276 671,-276"/>
<text text-anchor="start" x="679" y="-294" font-family="Helvetica,sans-Serif" font-size="10.00">std::map&lt; SlotKeyType,</text>
<text text-anchor="middle" x="747" y="-283" font-family="Helvetica,sans-Serif" font-size="10.00"> std::shared_ptr&lt; SlotBase &gt; &gt;</text>
</g>
<!-- Node12&#45;&gt;Node11 -->
<g id="edge11" class="edge"><title>Node12&#45;&gt;Node11</title>
<path fill="none" stroke="#9a32cd" stroke-dasharray="5,2" d="M833.239,-290.096C886.575,-289.531 952.649,-288.831 993.307,-288.4"/>
<polygon fill="#9a32cd" stroke="#9a32cd" points="833.058,-286.598 823.096,-290.204 833.132,-293.598 833.058,-286.598"/>
<text text-anchor="middle" x="904" y="-293" font-family="Helvetica,sans-Serif" font-size="10.00"> m_slots</text>
</g>
<!-- Node13 -->
<g id="node13" class="node"><title>Node13</title>
<g id="a_node13"><a xlink:title="STL class. ">
<polygon fill="white" stroke="#bfbfbf" points="398,-281.5 398,-300.5 458,-300.5 458,-281.5 398,-281.5"/>
<text text-anchor="middle" x="428" y="-288.5" font-family="Helvetica,sans-Serif" font-size="10.00">std::string</text>
</a>
</g>
</g>
<!-- Node13&#45;&gt;Node1 -->
<g id="edge35" class="edge"><title>Node13&#45;&gt;Node1</title>
<path fill="none" stroke="#9a32cd" stroke-dasharray="5,2" d="M459.302,-304.498C514.93,-328.011 637.591,-374 746,-374 746,-374 746,-374 1778,-374 1831.2,-374 1891.33,-355.415 1924.22,-343.581"/>
<polygon fill="#9a32cd" stroke="#9a32cd" points="460.594,-301.245 450.024,-300.521 457.836,-307.678 460.594,-301.245"/>
<text text-anchor="middle" x="1237" y="-399" font-family="Helvetica,sans-Serif" font-size="10.00"> m_blendMode</text>
<text text-anchor="middle" x="1237" y="-388" font-family="Helvetica,sans-Serif" font-size="10.00">m_cropBoxTransformID</text>
<text text-anchor="middle" x="1237" y="-377" font-family="Helvetica,sans-Serif" font-size="10.00">m_clippingPlanesId</text>
</g>
<!-- Node13&#45;&gt;Node3 -->
<g id="edge34" class="edge"><title>Node13&#45;&gt;Node3</title>
<path fill="none" stroke="#9a32cd" stroke-dasharray="5,2" d="M468.386,-298.563C483.808,-301.282 501.683,-304.134 518,-306 583.473,-313.487 600.131,-312.999 666,-315 943.249,-323.422 1013.31,-323.527 1290,-304 1472.13,-291.146 1517.39,-282.807 1698,-256 1706.85,-254.687 1716.23,-253.138 1725.3,-251.558"/>
<polygon fill="#9a32cd" stroke="#9a32cd" points="468.614,-295.048 458.151,-296.717 467.371,-301.937 468.614,-295.048"/>
<text text-anchor="middle" x="1134" y="-341" font-family="Helvetica,sans-Serif" font-size="10.00"> m_pickerId</text>
<text text-anchor="middle" x="1134" y="-330" font-family="Helvetica,sans-Serif" font-size="10.00">m_transformId</text>
<text text-anchor="middle" x="1134" y="-319" font-family="Helvetica,sans-Serif" font-size="10.00">m_rendererId</text>
</g>
<!-- Node13&#45;&gt;Node12 -->
<g id="edge12" class="edge"><title>Node13&#45;&gt;Node12</title>
<path fill="none" stroke="#9a32cd" stroke-dasharray="5,2" d="M468.419,-291C518.859,-291 607.292,-291 670.8,-291"/>
<polygon fill="#9a32cd" stroke="#9a32cd" points="468.254,-287.5 458.254,-291 468.254,-294.5 468.254,-287.5"/>
<text text-anchor="middle" x="583" y="-294" font-family="Helvetica,sans-Serif" font-size="10.00"> keys</text>
</g>
<!-- Node20 -->
<g id="node20" class="node"><title>Node20</title>
<polygon fill="white" stroke="#bfbfbf" points="666.5,-227 666.5,-257 827.5,-257 827.5,-227 666.5,-227"/>
<text text-anchor="start" x="674.5" y="-245" font-family="Helvetica,sans-Serif" font-size="10.00">std::map&lt; SignalKeyType,</text>
<text text-anchor="middle" x="747" y="-234" font-family="Helvetica,sans-Serif" font-size="10.00"> std::shared_ptr&lt; SignalBase &gt; &gt;</text>
</g>
<!-- Node13&#45;&gt;Node20 -->
<g id="edge20" class="edge"><title>Node13&#45;&gt;Node20</title>
<path fill="none" stroke="#9a32cd" stroke-dasharray="5,2" d="M468.488,-284.18C483.923,-281.557 501.78,-278.576 518,-276 567.209,-268.185 622.48,-259.93 666.278,-253.511"/>
<polygon fill="#9a32cd" stroke="#9a32cd" points="467.508,-280.796 458.239,-285.929 468.685,-287.697 467.508,-280.796"/>
<text text-anchor="middle" x="583" y="-279" font-family="Helvetica,sans-Serif" font-size="10.00"> keys</text>
</g>
<!-- Node14 -->
<g id="node14" class="node"><title>Node14</title>
<g id="a_node14"><a xlink:title="STL class. ">
<polygon fill="white" stroke="#bfbfbf" points="175.5,-276 175.5,-306 270.5,-306 270.5,-276 175.5,-276"/>
<text text-anchor="start" x="183.5" y="-294" font-family="Helvetica,sans-Serif" font-size="10.00">std::basic_string&lt;</text>
<text text-anchor="middle" x="223" y="-283" font-family="Helvetica,sans-Serif" font-size="10.00"> char &gt;</text>
</a>
</g>
</g>
<!-- Node14&#45;&gt;Node13 -->
<g id="edge13" class="edge"><title>Node14&#45;&gt;Node13</title>
<path fill="none" stroke="midnightblue" d="M281.005,-291C319.056,-291 367.51,-291 397.901,-291"/>
<polygon fill="midnightblue" stroke="midnightblue" points="280.572,-287.5 270.572,-291 280.572,-294.5 280.572,-287.5"/>
</g>
<!-- Node15 -->
<g id="node15" class="node"><title>Node15</title>
<g id="a_node15"><a xlink:title="STL class. ">
<polygon fill="white" stroke="#bfbfbf" points="382,-90.5 382,-109.5 474,-109.5 474,-90.5 382,-90.5"/>
<text text-anchor="middle" x="428" y="-97.5" font-family="Helvetica,sans-Serif" font-size="10.00">std::map&lt; K, T &gt;</text>
</a>
</g>
</g>
<!-- Node15&#45;&gt;Node12 -->
<g id="edge14" class="edge"><title>Node15&#45;&gt;Node12</title>
<path fill="none" stroke="orange" stroke-dasharray="5,2" d="M484.277,-104.352C547.23,-109.56 642.195,-118.293 648,-124 693.363,-168.601 625.164,-217.221 666,-266 669.176,-269.794 672.919,-273.02 677.023,-275.764"/>
<polygon fill="orange" stroke="orange" points="484.334,-100.845 474.081,-103.516 483.762,-107.821 484.334,-100.845"/>
<text text-anchor="start" x="523.5" y="-138" font-family="Helvetica,sans-Serif" font-size="10.00"> &lt; SlotKeyType, std</text>
<text text-anchor="middle" x="583" y="-127" font-family="Helvetica,sans-Serif" font-size="10.00">::shared_ptr&lt; SlotBase &gt; &gt;</text>
</g>
<!-- Node15&#45;&gt;Node20 -->
<g id="edge21" class="edge"><title>Node15&#45;&gt;Node20</title>
<path fill="none" stroke="orange" stroke-dasharray="5,2" d="M461.423,-86.8954C506.405,-70.9519 588.875,-49.9883 648,-83 704.483,-114.536 732.448,-193.482 742.04,-226.792"/>
<polygon fill="orange" stroke="orange" points="460.064,-83.6656 451.886,-90.4012 462.48,-90.2357 460.064,-83.6656"/>
<text text-anchor="start" x="518.5" y="-97" font-family="Helvetica,sans-Serif" font-size="10.00"> &lt; SignalKeyType, std</text>
<text text-anchor="middle" x="583" y="-86" font-family="Helvetica,sans-Serif" font-size="10.00">::shared_ptr&lt; SignalBase &gt; &gt;</text>
</g>
<!-- Node16 -->
<g id="node16" class="node"><title>Node16</title>
<polygon fill="white" stroke="#bfbfbf" points="208.5,-104.5 208.5,-123.5 237.5,-123.5 237.5,-104.5 208.5,-104.5"/>
<text text-anchor="middle" x="223" y="-111.5" font-family="Helvetica,sans-Serif" font-size="10.00">K</text>
</g>
<!-- Node16&#45;&gt;Node15 -->
<g id="edge15" class="edge"><title>Node16&#45;&gt;Node15</title>
<path fill="none" stroke="#9a32cd" stroke-dasharray="5,2" d="M247.633,-112.37C280.366,-110.113 340.153,-105.989 381.658,-103.127"/>
<polygon fill="#9a32cd" stroke="#9a32cd" points="247.37,-108.88 237.635,-113.06 247.852,-115.863 247.37,-108.88"/>
<text text-anchor="middle" x="316" y="-113" font-family="Helvetica,sans-Serif" font-size="10.00"> keys</text>
</g>
<!-- Node17 -->
<g id="node17" class="node"><title>Node17</title>
<polygon fill="white" stroke="#bfbfbf" points="208.5,-36.5 208.5,-55.5 237.5,-55.5 237.5,-36.5 208.5,-36.5"/>
<text text-anchor="middle" x="223" y="-43.5" font-family="Helvetica,sans-Serif" font-size="10.00">T</text>
</g>
<!-- Node17&#45;&gt;Node15 -->
<g id="edge16" class="edge"><title>Node17&#45;&gt;Node15</title>
<path fill="none" stroke="#9a32cd" stroke-dasharray="5,2" d="M247.502,-52.2517C282.771,-61.6337 349.659,-79.4265 391.076,-90.4438"/>
<polygon fill="#9a32cd" stroke="#9a32cd" points="248.198,-48.8153 237.635,-49.6269 246.399,-55.5801 248.198,-48.8153"/>
<text text-anchor="middle" x="316" y="-80" font-family="Helvetica,sans-Serif" font-size="10.00"> elements</text>
</g>
<!-- Node28 -->
<g id="node28" class="node"><title>Node28</title>
<g id="a_node28"><a xlink:title="STL class. ">
<polygon fill="white" stroke="#bfbfbf" points="378,-38.5 378,-57.5 478,-57.5 478,-38.5 378,-38.5"/>
<text text-anchor="middle" x="428" y="-45.5" font-family="Helvetica,sans-Serif" font-size="10.00">std::weak_ptr&lt; T &gt;</text>
</a>
</g>
</g>
<!-- Node17&#45;&gt;Node28 -->
<g id="edge31" class="edge"><title>Node17&#45;&gt;Node28</title>
<path fill="none" stroke="#9a32cd" stroke-dasharray="5,2" d="M247.903,-46.1926C270.969,-46.3824 306.875,-46.6886 338,-47 350.825,-47.1283 364.689,-47.2785 377.571,-47.423"/>
<polygon fill="#9a32cd" stroke="#9a32cd" points="247.716,-42.691 237.688,-46.1092 247.659,-49.6908 247.716,-42.691"/>
<text text-anchor="middle" x="316" y="-50" font-family="Helvetica,sans-Serif" font-size="10.00"> ptr</text>
</g>
<!-- Node29 -->
<g id="node29" class="node"><title>Node29</title>
<g id="a_node29"><a xlink:title="STL class. ">
<polygon fill="white" stroke="#bfbfbf" points="546.5,-0.5 546.5,-19.5 619.5,-19.5 619.5,-0.5 546.5,-0.5"/>
<text text-anchor="middle" x="583" y="-7.5" font-family="Helvetica,sans-Serif" font-size="10.00">std::list&lt; T &gt;</text>
</a>
</g>
</g>
<!-- Node17&#45;&gt;Node29 -->
<g id="edge33" class="edge"><title>Node17&#45;&gt;Node29</title>
<path fill="none" stroke="#9a32cd" stroke-dasharray="5,2" d="M247.52,-40.556C261.047,-37.6112 278.403,-34.1474 294,-32 384.412,-19.5522 491.834,-13.6841 546.383,-11.3317"/>
<polygon fill="#9a32cd" stroke="#9a32cd" points="246.595,-37.1762 237.598,-42.7714 248.121,-44.0079 246.595,-37.1762"/>
<text text-anchor="middle" x="316" y="-35" font-family="Helvetica,sans-Serif" font-size="10.00"> elements</text>
</g>
<!-- Node18 -->
<g id="node18" class="node"><title>Node18</title>
<g id="a_node18"><a xlink:href="classfwCom_1_1HasSignals.html" target="_top" xlink:title="This class proposes a mapping between a SignalKeyType and a SignalBase. ">
<polygon fill="white" stroke="black" points="1185,-232.5 1185,-251.5 1289,-251.5 1289,-232.5 1185,-232.5"/>
<text text-anchor="middle" x="1237" y="-239.5" font-family="Helvetica,sans-Serif" font-size="10.00">fwCom::HasSignals</text>
</a>
</g>
</g>
<!-- Node18&#45;&gt;Node4 -->
<g id="edge17" class="edge"><title>Node18&#45;&gt;Node4</title>
<path fill="none" stroke="midnightblue" d="M1299.26,-242C1347.1,-242 1412.87,-242 1458.36,-242"/>
<polygon fill="midnightblue" stroke="midnightblue" points="1299.03,-238.5 1289.03,-242 1299.03,-245.5 1299.03,-238.5"/>
</g>
<!-- Node19 -->
<g id="node19" class="node"><title>Node19</title>
<g id="a_node19"><a xlink:href="classfwCom_1_1Signals.html" target="_top" xlink:title="This class proposes a mapping between a SignalKeyType and a SignalBase. ">
<polygon fill="white" stroke="black" points="989,-232.5 989,-251.5 1075,-251.5 1075,-232.5 989,-232.5"/>
<text text-anchor="middle" x="1032" y="-239.5" font-family="Helvetica,sans-Serif" font-size="10.00">fwCom::Signals</text>
</a>
</g>
</g>
<!-- Node19&#45;&gt;Node18 -->
<g id="edge18" class="edge"><title>Node19&#45;&gt;Node18</title>
<path fill="none" stroke="#9a32cd" stroke-dasharray="5,2" d="M1085.11,-242C1115.69,-242 1154.18,-242 1184.63,-242"/>
<polygon fill="#9a32cd" stroke="#9a32cd" points="1085.06,-238.5 1075.06,-242 1085.06,-245.5 1085.06,-238.5"/>
<text text-anchor="middle" x="1134" y="-245" font-family="Helvetica,sans-Serif" font-size="10.00"> m_signals</text>
</g>
<!-- Node20&#45;&gt;Node19 -->
<g id="edge19" class="edge"><title>Node20&#45;&gt;Node19</title>
<path fill="none" stroke="#9a32cd" stroke-dasharray="5,2" d="M837.865,-242C888.357,-242 949.015,-242 988.709,-242"/>
<polygon fill="#9a32cd" stroke="#9a32cd" points="837.584,-238.5 827.584,-242 837.584,-245.5 837.584,-238.5"/>
<text text-anchor="middle" x="904" y="-245" font-family="Helvetica,sans-Serif" font-size="10.00"> m_signals</text>
</g>
<!-- Node21 -->
<g id="node21" class="node"><title>Node21</title>
<polygon fill="white" stroke="#bfbfbf" points="1216.5,-71.5 1216.5,-90.5 1257.5,-90.5 1257.5,-71.5 1216.5,-71.5"/>
<text text-anchor="middle" x="1237" y="-78.5" font-family="Helvetica,sans-Serif" font-size="10.00">static</text>
</g>
<!-- Node21&#45;&gt;Node1 -->
<g id="edge36" class="edge"><title>Node21&#45;&gt;Node1</title>
<path fill="none" stroke="#9a32cd" stroke-dasharray="5,2" d="M1267.83,-76.3621C1302.32,-71.828 1360.68,-66.7131 1410,-75 1608.49,-108.35 1667.38,-116.229 1838,-223 1883.97,-251.77 1925.55,-302.885 1941.78,-324.221"/>
<polygon fill="#9a32cd" stroke="#9a32cd" points="1266.94,-72.9527 1257.51,-77.796 1267.9,-79.8861 1266.94,-72.9527"/>
<text text-anchor="middle" x="1656" y="-160" font-family="Helvetica,sans-Serif" font-size="10.00"> s_IMAGE_INOUT</text>
<text text-anchor="middle" x="1656" y="-149" font-family="Helvetica,sans-Serif" font-size="10.00">s_TF_INOUT</text>
</g>
<!-- Node21&#45;&gt;Node4 -->
<g id="edge22" class="edge"><title>Node21&#45;&gt;Node4</title>
<path fill="none" stroke="#9a32cd" stroke-dasharray="5,2" d="M1267.84,-79.1438C1311.6,-77.1094 1390.17,-76.2944 1410,-95 1451.79,-134.417 1389.15,-180.682 1428,-223 1435.9,-231.602 1446.83,-236.705 1458.16,-239.648"/>
<polygon fill="#9a32cd" stroke="#9a32cd" points="1267.58,-75.6523 1257.78,-79.6616 1267.94,-82.643 1267.58,-75.6523"/>
<text text-anchor="middle" x="1359" y="-186" font-family="Helvetica,sans-Serif" font-size="10.00"> s_STOPPED_SIG</text>
<text text-anchor="middle" x="1359" y="-175" font-family="Helvetica,sans-Serif" font-size="10.00">s_UPDATED_SIG</text>
<text text-anchor="middle" x="1359" y="-164" font-family="Helvetica,sans-Serif" font-size="10.00">s_UPDATE_SLOT</text>
<text text-anchor="middle" x="1359" y="-153" font-family="Helvetica,sans-Serif" font-size="10.00">s_STARTED_SIG</text>
<text text-anchor="middle" x="1359" y="-142" font-family="Helvetica,sans-Serif" font-size="10.00">s_SWAPKEY_SLOT</text>
<text text-anchor="middle" x="1359" y="-131" font-family="Helvetica,sans-Serif" font-size="10.00">s_SWAP_SLOT</text>
<text text-anchor="middle" x="1359" y="-120" font-family="Helvetica,sans-Serif" font-size="10.00">s_STOP_SLOT</text>
<text text-anchor="middle" x="1359" y="-109" font-family="Helvetica,sans-Serif" font-size="10.00">s_START_SLOT</text>
<text text-anchor="middle" x="1359" y="-98" font-family="Helvetica,sans-Serif" font-size="10.00">s_DEFAULT_OBJECT</text>
</g>
<!-- Node22 -->
<g id="node22" class="node"><title>Node22</title>
<g id="a_node22"><a xlink:href="classfwServices_1_1IHasServices.html" target="_top" xlink:title="Interface for objects that need to manage services. ">
<polygon fill="white" stroke="black" points="1446.5,-194.5 1446.5,-213.5 1577.5,-213.5 1577.5,-194.5 1446.5,-194.5"/>
<text text-anchor="middle" x="1512" y="-201.5" font-family="Helvetica,sans-Serif" font-size="10.00">fwServices::IHasServices</text>
</a>
</g>
</g>
<!-- Node22&#45;&gt;Node3 -->
<g id="edge23" class="edge"><title>Node22&#45;&gt;Node3</title>
<path fill="none" stroke="midnightblue" d="M1587.8,-214.808C1628.44,-220.68 1678.02,-227.843 1716.08,-233.343"/>
<polygon fill="midnightblue" stroke="midnightblue" points="1588.07,-211.311 1577.67,-213.345 1587.07,-218.239 1588.07,-211.311"/>
</g>
<!-- Node23 -->
<g id="node23" class="node"><title>Node23</title>
<g id="a_node23"><a xlink:href="classfwCom_1_1helper_1_1SigSlotConnection.html" target="_top" xlink:title="This class provides few tools to ease connect/disconnect between a signal emitter and a slot receiver...">
<polygon fill="white" stroke="black" points="1428.5,-13.5 1428.5,-32.5 1595.5,-32.5 1595.5,-13.5 1428.5,-13.5"/>
<text text-anchor="middle" x="1512" y="-20.5" font-family="Helvetica,sans-Serif" font-size="10.00">fwCom::helper::SigSlotConnection</text>
</a>
</g>
</g>
<!-- Node23&#45;&gt;Node3 -->
<g id="edge24" class="edge"><title>Node23&#45;&gt;Node3</title>
<path fill="none" stroke="#9a32cd" stroke-dasharray="5,2" d="M1556.81,-11.3238C1597.33,-3.27418 1657.26,1.34027 1698,-28 1767.63,-78.1478 1775.26,-197.043 1775.97,-232.105"/>
<polygon fill="#9a32cd" stroke="#9a32cd" points="1556,-7.91747 1546.95,-13.4258 1557.46,-14.7636 1556,-7.91747"/>
<text text-anchor="middle" x="1656" y="-31" font-family="Helvetica,sans-Serif" font-size="10.00"> m_connections</text>
</g>
<!-- Node24 -->
<g id="node24" class="node"><title>Node24</title>
<polygon fill="white" stroke="#bfbfbf" points="1189.5,-8 1189.5,-38 1284.5,-38 1284.5,-8 1189.5,-8"/>
<text text-anchor="start" x="1197.5" y="-26" font-family="Helvetica,sans-Serif" font-size="10.00">std::list&lt; ::fwCom</text>
<text text-anchor="middle" x="1237" y="-15" font-family="Helvetica,sans-Serif" font-size="10.00">::Connection &gt;</text>
</g>
<!-- Node24&#45;&gt;Node23 -->
<g id="edge25" class="edge"><title>Node24&#45;&gt;Node23</title>
<path fill="none" stroke="#9a32cd" stroke-dasharray="5,2" d="M1294.65,-23C1333.32,-23 1385.17,-23 1428.42,-23"/>
<polygon fill="#9a32cd" stroke="#9a32cd" points="1294.62,-19.5001 1284.62,-23 1294.62,-26.5001 1294.62,-19.5001"/>
<text text-anchor="middle" x="1359" y="-26" font-family="Helvetica,sans-Serif" font-size="10.00"> m_connections</text>
</g>
<!-- Node25 -->
<g id="node25" class="node"><title>Node25</title>
<g id="a_node25"><a xlink:href="structfwCom_1_1Connection.html" target="_top" xlink:title="Class managing Signal&#45;Slot connections. ">
<polygon fill="white" stroke="black" points="980,-40.5 980,-59.5 1084,-59.5 1084,-40.5 980,-40.5"/>
<text text-anchor="middle" x="1032" y="-47.5" font-family="Helvetica,sans-Serif" font-size="10.00">fwCom::Connection</text>
</a>
</g>
</g>
<!-- Node25&#45;&gt;Node24 -->
<g id="edge26" class="edge"><title>Node25&#45;&gt;Node24</title>
<path fill="none" stroke="#9a32cd" stroke-dasharray="5,2" d="M1094.33,-41.8431C1124.83,-37.7862 1161.1,-32.9618 1189.31,-29.2102"/>
<polygon fill="#9a32cd" stroke="#9a32cd" points="1093.68,-38.3988 1084.23,-43.1868 1094.6,-45.3377 1093.68,-38.3988"/>
<text text-anchor="middle" x="1134" y="-44" font-family="Helvetica,sans-Serif" font-size="10.00"> elements</text>
</g>
<!-- Node26 -->
<g id="node26" class="node"><title>Node26</title>
<polygon fill="white" stroke="#bfbfbf" points="671,-39 671,-69 823,-69 823,-39 671,-39"/>
<text text-anchor="start" x="679" y="-57" font-family="Helvetica,sans-Serif" font-size="10.00">std::weak_ptr&lt; SlotConnection</text>
<text text-anchor="middle" x="747" y="-46" font-family="Helvetica,sans-Serif" font-size="10.00">Base &gt;</text>
</g>
<!-- Node26&#45;&gt;Node25 -->
<g id="edge27" class="edge"><title>Node26&#45;&gt;Node25</title>
<path fill="none" stroke="#9a32cd" stroke-dasharray="5,2" d="M833.123,-52.7968C880.888,-52.1217 938.899,-51.3018 979.723,-50.7248"/>
<polygon fill="#9a32cd" stroke="#9a32cd" points="833.045,-49.2975 823.096,-52.9386 833.144,-56.2968 833.045,-49.2975"/>
<text text-anchor="middle" x="904" y="-56" font-family="Helvetica,sans-Serif" font-size="10.00"> m_connectionBase</text>
</g>
<!-- Node27&#45;&gt;Node26 -->
<g id="edge28" class="edge"><title>Node27&#45;&gt;Node26</title>
<path fill="none" stroke="#9a32cd" stroke-dasharray="5,2" d="M508.071,-169.172C551.119,-171.464 604.347,-168.874 648,-150 687.787,-132.798 720.534,-91.5335 736.142,-69.1149"/>
<polygon fill="#9a32cd" stroke="#9a32cd" points="508.124,-165.668 497.924,-168.532 507.684,-172.654 508.124,-165.668"/>
<text text-anchor="middle" x="583" y="-173" font-family="Helvetica,sans-Serif" font-size="10.00"> ptr</text>
</g>
<!-- Node28&#45;&gt;Node26 -->
<g id="edge30" class="edge"><title>Node28&#45;&gt;Node26</title>
<path fill="none" stroke="orange" stroke-dasharray="5,2" d="M488.4,-47.5268C532.459,-47.3569 593.99,-47.4997 648,-49 655.408,-49.2058 663.128,-49.486 670.84,-49.8094"/>
<polygon fill="orange" stroke="orange" points="488.137,-44.0279 478.153,-47.5732 488.169,-51.0278 488.137,-44.0279"/>
<text text-anchor="middle" x="583" y="-52" font-family="Helvetica,sans-Serif" font-size="10.00"> &lt; SlotConnectionBase &gt;</text>
</g>
<!-- Node29&#45;&gt;Node24 -->
<g id="edge32" class="edge"><title>Node29&#45;&gt;Node24</title>
<path fill="none" stroke="orange" stroke-dasharray="5,2" d="M629.769,-10.9126C749.162,-13.2931 1069.14,-19.6731 1189.43,-22.0715"/>
<polygon fill="orange" stroke="orange" points="629.585,-7.40831 619.517,-10.7082 629.446,-14.4069 629.585,-7.40831"/>
<text text-anchor="middle" x="904" y="-21" font-family="Helvetica,sans-Serif" font-size="10.00"> &lt; ::fwCom::Connection &gt;</text>
</g>
</g>
</svg>
