<?xml version="1.0" encoding="UTF-8" standalone="no"?>
<!DOCTYPE svg PUBLIC "-//W3C//DTD SVG 1.1//EN"
 "http://www.w3.org/Graphics/SVG/1.1/DTD/svg11.dtd">
<!-- Generated by graphviz version 2.26.3 (20100126.1600)
 -->
<!-- Title: fwVtkIO::helper::Mesh::updatePolyDataCellNormals Pages: 1 -->
<svg width="578pt" height="447pt"
 viewBox="0.00 0.00 578.00 447.00" xmlns="http://www.w3.org/2000/svg" xmlns:xlink="http://www.w3.org/1999/xlink">
<g id="graph1" class="graph" transform="scale(1 1) rotate(0) translate(4 443)">
<title>fwVtkIO::helper::Mesh::updatePolyDataCellNormals</title>
<polygon fill="white" stroke="white" points="-4,5 -4,-443 575,-443 575,5 -4,5"/>
<!-- Node1 -->
<g id="node1" class="node"><title>Node1</title>
<polygon fill="#bfbfbf" stroke="black" points="0,-74 0,-108 146,-108 146,-74 0,-74"/>
<text text-anchor="start" x="8" y="-95" font-family="Helvetica,sans-Serif" font-size="10.00">fwVtkIO::helper::Mesh</text>
<text text-anchor="middle" x="73" y="-82" font-family="Helvetica,sans-Serif" font-size="10.00">::updatePolyDataCellNormals</text>
</g>
<!-- Node2 -->
<g id="node3" class="node"><title>Node2</title>
<a xlink:href="classfwVtkIO_1_1helper_1_1Mesh.html#aa8f409baff52f2a52ec44ed91c21d54e" target="_top" xlink:title="Convert a ::fwData::Mesh::sptr to a vtkPolyData. ">
<polygon fill="white" stroke="black" points="202.5,-197 202.5,-231 317.5,-231 317.5,-197 202.5,-197"/>
<text text-anchor="start" x="210.5" y="-218" font-family="Helvetica,sans-Serif" font-size="10.00">fwVtkIO::helper::Mesh</text>
<text text-anchor="middle" x="260" y="-205" font-family="Helvetica,sans-Serif" font-size="10.00">::toVTKMesh</text>
</a>
</g>
<!-- Node1&#45;&gt;Node2 -->
<g id="edge2" class="edge"><title>Node1&#45;&gt;Node2</title>
<path fill="none" stroke="midnightblue" d="M107.374,-113.609C143.918,-137.647 200.897,-175.125 233.919,-196.845"/>
<polygon fill="midnightblue" stroke="midnightblue" points="109.28,-110.674 99.0015,-108.103 105.433,-116.522 109.28,-110.674"/>
</g>
<!-- Node8 -->
<g id="node15" class="node"><title>Node8</title>
<a xlink:href="classvtkSimpleMesh_1_1SRenderer.html#a3fee3edf43bb3c8ea39759ab42180fd2" target="_top" xlink:title="Updating method. ">
<polygon fill="white" stroke="black" points="403.5,-41 403.5,-75 540.5,-75 540.5,-41 403.5,-41"/>
<text text-anchor="start" x="411.5" y="-62" font-family="Helvetica,sans-Serif" font-size="10.00">vtkSimpleMesh::SRenderer</text>
<text text-anchor="middle" x="472" y="-49" font-family="Helvetica,sans-Serif" font-size="10.00">::updating</text>
</a>
</g>
<!-- Node1&#45;&gt;Node8 -->
<g id="edge24" class="edge"><title>Node1&#45;&gt;Node8</title>
<path fill="none" stroke="midnightblue" d="M156.4,-94.3745C165.044,-94.6303 173.699,-94.8477 182,-95 251.322,-96.2715 269.427,-105.243 338,-95 354.547,-92.5284 357.912,-88.5903 374,-84 384.495,-81.0056 395.654,-77.9366 406.541,-75.0048"/>
<polygon fill="midnightblue" stroke="midnightblue" points="156.384,-90.8724 146.28,-94.0582 156.166,-97.869 156.384,-90.8724"/>
</g>
<!-- Node11 -->
<g id="node21" class="node"><title>Node11</title>
<a xlink:href="classvisuVTKAdaptor_1_1MeshNormals.html#ab1b468150ffc447c5be1130ac9676b95" target="_top" xlink:title="Slot: used to update cell normals. ">
<polygon fill="white" stroke="black" points="182.5,-52 182.5,-86 337.5,-86 337.5,-52 182.5,-52"/>
<text text-anchor="start" x="190.5" y="-73" font-family="Helvetica,sans-Serif" font-size="10.00">visuVTKAdaptor::MeshNormals</text>
<text text-anchor="middle" x="260" y="-60" font-family="Helvetica,sans-Serif" font-size="10.00">::updateCellNormals</text>
</a>
</g>
<!-- Node1&#45;&gt;Node11 -->
<g id="edge20" class="edge"><title>Node1&#45;&gt;Node11</title>
<path fill="none" stroke="midnightblue" d="M156.22,-81.2094C164.901,-80.1881 173.702,-79.1528 182.318,-78.1391"/>
<polygon fill="midnightblue" stroke="midnightblue" points="155.625,-77.7552 146.103,-82.3997 156.443,-84.7072 155.625,-77.7552"/>
</g>
<!-- Node12 -->
<g id="node23" class="node"><title>Node12</title>
<a xlink:href="classvisuVTKAdaptor_1_1Mesh.html#a8228f708b2b14907398b861b58d18327" target="_top" xlink:title="Slot: used to update cell normals. ">
<polygon fill="white" stroke="black" points="201,-0 201,-34 319,-34 319,-0 201,-0"/>
<text text-anchor="start" x="209" y="-21" font-family="Helvetica,sans-Serif" font-size="10.00">visuVTKAdaptor::Mesh</text>
<text text-anchor="middle" x="260" y="-8" font-family="Helvetica,sans-Serif" font-size="10.00">::updateCellNormals</text>
</a>
</g>
<!-- Node1&#45;&gt;Node12 -->
<g id="edge22" class="edge"><title>Node1&#45;&gt;Node12</title>
<path fill="none" stroke="midnightblue" d="M118.671,-69.7554C138.032,-61.0459 160.946,-51.1245 182,-43 189.857,-39.9681 198.236,-36.9526 206.478,-34.1072"/>
<polygon fill="midnightblue" stroke="midnightblue" points="117.141,-66.6062 109.476,-73.9205 120.029,-72.9826 117.141,-66.6062"/>
</g>
<!-- Node3 -->
<g id="node5" class="node"><title>Node3</title>
<a xlink:href="classfwVtkIO_1_1helper_1_1Mesh.html#a218b2e84b2b5d0b848eeb27664802430" target="_top" xlink:title="Compute the volume of the mesh using MassProperties vtk class. ">
<polygon fill="white" stroke="black" points="414.5,-405 414.5,-439 529.5,-439 529.5,-405 414.5,-405"/>
<text text-anchor="start" x="422.5" y="-426" font-family="Helvetica,sans-Serif" font-size="10.00">fwVtkIO::helper::Mesh</text>
<text text-anchor="middle" x="472" y="-413" font-family="Helvetica,sans-Serif" font-size="10.00">::computeVolume</text>
</a>
</g>
<!-- Node2&#45;&gt;Node3 -->
<g id="edge4" class="edge"><title>Node2&#45;&gt;Node3</title>
<path fill="none" stroke="midnightblue" d="M269.342,-240.642C284.749,-280.613 319.338,-355.702 374,-396 385.76,-404.67 400.196,-410.45 414.336,-414.305"/>
<polygon fill="midnightblue" stroke="midnightblue" points="272.535,-239.188 265.753,-231.048 265.978,-241.64 272.535,-239.188"/>
</g>
<!-- Node4 -->
<g id="node7" class="node"><title>Node4</title>
<a xlink:href="classvtkSimpleMesh_1_1SRenderer.html#adcc2173edd3798b5a768f4054be9c605" target="_top" xlink:title="This method is used to notify that the VTK camera position is updated. ">
<polygon fill="white" stroke="black" points="402,-353 402,-387 542,-387 542,-353 402,-353"/>
<text text-anchor="start" x="410" y="-374" font-family="Helvetica,sans-Serif" font-size="10.00">vtkSimpleMesh::SRenderer</text>
<text text-anchor="middle" x="472" y="-361" font-family="Helvetica,sans-Serif" font-size="10.00">::notifyCamPositionUpdated</text>
</a>
</g>
<!-- Node2&#45;&gt;Node4 -->
<g id="edge6" class="edge"><title>Node2&#45;&gt;Node4</title>
<path fill="none" stroke="midnightblue" d="M275.763,-239.804C295.2,-269.421 330.998,-317.332 374,-344 382.527,-349.288 392.115,-353.51 401.869,-356.879"/>
<polygon fill="midnightblue" stroke="midnightblue" points="278.614,-237.767 270.266,-231.244 272.724,-241.549 278.614,-237.767"/>
</g>
<!-- Node5 -->
<g id="node9" class="node"><title>Node5</title>
<a xlink:href="classvisuVTKAdaptor_1_1MeshesBoxWidget.html#a23d08ba7c328169d2dcee273709bae68" target="_top" xlink:title="Updates map from composite meshes. ">
<polygon fill="white" stroke="black" points="374.5,-301 374.5,-335 569.5,-335 569.5,-301 374.5,-301"/>
<text text-anchor="start" x="382.5" y="-322" font-family="Helvetica,sans-Serif" font-size="10.00">visuVTKAdaptor::MeshesBox</text>
<text text-anchor="middle" x="472" y="-309" font-family="Helvetica,sans-Serif" font-size="10.00">Widget::updateMeshMapFromComposite</text>
</a>
</g>
<!-- Node2&#45;&gt;Node5 -->
<g id="edge8" class="edge"><title>Node2&#45;&gt;Node5</title>
<path fill="none" stroke="midnightblue" d="M288.504,-237.591C310.617,-254.844 342.683,-277.649 374,-292 381.281,-295.337 389.07,-298.308 396.955,-300.94"/>
<polygon fill="midnightblue" stroke="midnightblue" points="290.55,-234.747 280.538,-231.28 286.202,-240.234 290.55,-234.747"/>
</g>
<!-- Node6 -->
<g id="node11" class="node"><title>Node6</title>
<a xlink:href="classvisuVTKAdaptor_1_1Mesh.html#a474502f1e378ab569e3a8288c515a0c3" target="_top" xlink:title="Creates normals adaptor if material has NORMALS, else remove normals adaptor. ">
<polygon fill="white" stroke="black" points="413,-249 413,-283 531,-283 531,-249 413,-249"/>
<text text-anchor="start" x="421" y="-270" font-family="Helvetica,sans-Serif" font-size="10.00">visuVTKAdaptor::Mesh</text>
<text text-anchor="middle" x="472" y="-257" font-family="Helvetica,sans-Serif" font-size="10.00">::updateOptionsMode</text>
</a>
</g>
<!-- Node2&#45;&gt;Node6 -->
<g id="edge10" class="edge"><title>Node2&#45;&gt;Node6</title>
<path fill="none" stroke="midnightblue" d="M327.558,-230.571C354.985,-237.298 386.383,-245 412.885,-251.5"/>
<polygon fill="midnightblue" stroke="midnightblue" points="328.196,-227.124 317.65,-228.141 326.528,-233.922 328.196,-227.124"/>
</g>
<!-- Node7 -->
<g id="node13" class="node"><title>Node7</title>
<a xlink:href="classvtkCompositeMesh_1_1RendererService.html#a09bd6b48288fab69dd537295a3c06eaf" target="_top" xlink:title="Updating method. ">
<polygon fill="white" stroke="black" points="398.5,-197 398.5,-231 545.5,-231 545.5,-197 398.5,-197"/>
<text text-anchor="start" x="406.5" y="-218" font-family="Helvetica,sans-Serif" font-size="10.00">vtkCompositeMesh::Renderer</text>
<text text-anchor="middle" x="472" y="-205" font-family="Helvetica,sans-Serif" font-size="10.00">Service::updating</text>
</a>
</g>
<!-- Node2&#45;&gt;Node7 -->
<g id="edge12" class="edge"><title>Node2&#45;&gt;Node7</title>
<path fill="none" stroke="midnightblue" d="M327.789,-214C350.302,-214 375.469,-214 398.398,-214"/>
<polygon fill="midnightblue" stroke="midnightblue" points="327.65,-210.5 317.65,-214 327.65,-217.5 327.65,-210.5"/>
</g>
<!-- Node2&#45;&gt;Node8 -->
<g id="edge14" class="edge"><title>Node2&#45;&gt;Node8</title>
<path fill="none" stroke="midnightblue" d="M282.906,-189.417C298.632,-172.378 319.859,-149.055 338,-128 354.493,-108.858 352.758,-97.6816 374,-84 382.953,-78.2335 393.148,-73.7404 403.497,-70.241"/>
<polygon fill="midnightblue" stroke="midnightblue" points="280.322,-187.057 276.099,-196.773 285.46,-191.811 280.322,-187.057"/>
</g>
<!-- Node9 -->
<g id="node17" class="node"><title>Node9</title>
<a xlink:href="classfwVtkIO_1_1MeshWriter.html#a4b7876221138a425e3d24f1d441478ec" target="_top" xlink:title="Reading operator. ">
<polygon fill="white" stroke="black" points="417.5,-145 417.5,-179 526.5,-179 526.5,-145 417.5,-145"/>
<text text-anchor="start" x="425.5" y="-166" font-family="Helvetica,sans-Serif" font-size="10.00">fwVtkIO::MeshWriter</text>
<text text-anchor="middle" x="472" y="-153" font-family="Helvetica,sans-Serif" font-size="10.00">::write</text>
</a>
</g>
<!-- Node2&#45;&gt;Node9 -->
<g id="edge16" class="edge"><title>Node2&#45;&gt;Node9</title>
<path fill="none" stroke="midnightblue" d="M327.683,-197.399C356.614,-190.302 389.946,-182.126 417.283,-175.421"/>
<polygon fill="midnightblue" stroke="midnightblue" points="326.528,-194.078 317.65,-199.859 328.196,-200.876 326.528,-194.078"/>
</g>
<!-- Node10 -->
<g id="node19" class="node"><title>Node10</title>
<a xlink:href="classfwVtkIO_1_1ModelSeriesObjWriter.html#a21ff94e553dd9c4476d4eb3bb08fba7f" target="_top" xlink:title="Destructor. ">
<polygon fill="white" stroke="black" points="395,-93 395,-127 549,-127 549,-93 395,-93"/>
<text text-anchor="start" x="403" y="-114" font-family="Helvetica,sans-Serif" font-size="10.00">fwVtkIO::ModelSeriesObjWriter</text>
<text text-anchor="middle" x="472" y="-101" font-family="Helvetica,sans-Serif" font-size="10.00">::~ModelSeriesObjWriter</text>
</a>
</g>
<!-- Node2&#45;&gt;Node10 -->
<g id="edge18" class="edge"><title>Node2&#45;&gt;Node10</title>
<path fill="none" stroke="midnightblue" d="M288.504,-190.409C310.617,-173.156 342.683,-150.351 374,-136 381.281,-132.663 389.07,-129.692 396.955,-127.06"/>
<polygon fill="midnightblue" stroke="midnightblue" points="286.202,-187.766 280.538,-196.72 290.55,-193.253 286.202,-187.766"/>
</g>
</g>
</svg>
