<?xml version="1.0" encoding="UTF-8" standalone="no"?>
<!DOCTYPE svg PUBLIC "-//W3C//DTD SVG 1.1//EN"
 "http://www.w3.org/Graphics/SVG/1.1/DTD/svg11.dtd">
<!-- Generated by graphviz version 2.26.3 (20100126.1600)
 -->
<!-- Title: fwGdcmIO::writer::ie::Study Pages: 1 -->
<svg width="175pt" height="228pt"
 viewBox="0.00 0.00 175.00 228.00" xmlns="http://www.w3.org/2000/svg" xmlns:xlink="http://www.w3.org/1999/xlink">
<g id="graph1" class="graph" transform="scale(1 1) rotate(0) translate(4 224)">
<title>fwGdcmIO::writer::ie::Study</title>
<polygon fill="white" stroke="white" points="-4,5 -4,-224 172,-224 172,5 -4,5"/>
<!-- Node1 -->
<g id="node1" class="node"><title>Node1</title>
<polygon fill="#bfbfbf" stroke="black" points="4.5,-1 4.5,-35 111.5,-35 111.5,-1 4.5,-1"/>
<text text-anchor="start" x="12.5" y="-22" font-family="Helvetica,sans-Serif" font-size="10.00">fwGdcmIO::writer::ie</text>
<text text-anchor="middle" x="58" y="-9" font-family="Helvetica,sans-Serif" font-size="10.00">::Study</text>
</g>
<!-- Node2 -->
<g id="node2" class="node"><title>Node2</title>
<a xlink:href="classfwGdcmIO_1_1writer_1_1ie_1_1InformationEntity.html" target="_top" xlink:title="fwGdcmIO::writer::ie\l::InformationEntity\&lt;\l ::fwMedData::Study \&gt;">
<polygon fill="white" stroke="black" points="0,-74.5 0,-121.5 116,-121.5 116,-74.5 0,-74.5"/>
<text text-anchor="start" x="8" y="-108.5" font-family="Helvetica,sans-Serif" font-size="10.00">fwGdcmIO::writer::ie</text>
<text text-anchor="start" x="8" y="-95.5" font-family="Helvetica,sans-Serif" font-size="10.00">::InformationEntity&lt;</text>
<text text-anchor="middle" x="58" y="-82.5" font-family="Helvetica,sans-Serif" font-size="10.00"> ::fwMedData::Study &gt;</text>
</a>
</g>
<!-- Node2&#45;&gt;Node1 -->
<g id="edge2" class="edge"><title>Node2&#45;&gt;Node1</title>
<path fill="none" stroke="midnightblue" d="M58,-64.3223C58,-54.3317 58,-43.8013 58,-35.3095"/>
<polygon fill="midnightblue" stroke="midnightblue" points="54.5001,-64.43 58,-74.4301 61.5001,-64.4301 54.5001,-64.43"/>
</g>
<!-- Node3 -->
<g id="node4" class="node"><title>Node3</title>
<a xlink:href="classfwGdcmIO_1_1writer_1_1ie_1_1InformationEntity.html" target="_top" xlink:title="InformationEntity base class used to write modules. ">
<polygon fill="white" stroke="black" points="4.5,-172.5 4.5,-219.5 111.5,-219.5 111.5,-172.5 4.5,-172.5"/>
<text text-anchor="start" x="12.5" y="-206.5" font-family="Helvetica,sans-Serif" font-size="10.00">fwGdcmIO::writer::ie</text>
<text text-anchor="start" x="12.5" y="-193.5" font-family="Helvetica,sans-Serif" font-size="10.00">::InformationEntity&lt;</text>
<text text-anchor="middle" x="58" y="-180.5" font-family="Helvetica,sans-Serif" font-size="10.00"> DATATYPE &gt;</text>
</a>
</g>
<!-- Node3&#45;&gt;Node2 -->
<g id="edge4" class="edge"><title>Node3&#45;&gt;Node2</title>
<path fill="none" stroke="orange" stroke-dasharray="5,2" d="M58,-162C58,-148.638 58,-133.628 58,-121.505"/>
<polygon fill="orange" stroke="orange" points="54.5001,-162.277 58,-172.277 61.5001,-162.277 54.5001,-162.277"/>
<text text-anchor="middle" x="112.5" y="-144.5" font-family="Helvetica,sans-Serif" font-size="10.00"> &lt; ::fwMedData::Study &gt;</text>
</g>
</g>
</svg>
