<?xml version="1.0" encoding="UTF-8" standalone="no"?>
<!DOCTYPE svg PUBLIC "-//W3C//DTD SVG 1.1//EN"
 "http://www.w3.org/Graphics/SVG/1.1/DTD/svg11.dtd">
<!-- Generated by graphviz version 2.26.3 (20100126.1600)
 -->
<!-- Title: fwVtkIO::helper::Mesh::updatePolyDataCellTexCoords Pages: 1 -->
<svg width="552pt" height="406pt"
 viewBox="0.00 0.00 552.00 406.00" xmlns="http://www.w3.org/2000/svg" xmlns:xlink="http://www.w3.org/1999/xlink">
<g id="graph1" class="graph" transform="scale(1 1) rotate(0) translate(4 402)">
<title>fwVtkIO::helper::Mesh::updatePolyDataCellTexCoords</title>
<polygon fill="white" stroke="white" points="-4,5 -4,-402 549,-402 549,5 -4,5"/>
<!-- Node1 -->
<g id="node1" class="node"><title>Node1</title>
<polygon fill="#bfbfbf" stroke="black" points="0,-156 0,-190 158,-190 158,-156 0,-156"/>
<text text-anchor="start" x="8" y="-177" font-family="Helvetica,sans-Serif" font-size="10.00">fwVtkIO::helper::Mesh</text>
<text text-anchor="middle" x="79" y="-164" font-family="Helvetica,sans-Serif" font-size="10.00">::updatePolyDataCellTexCoords</text>
</g>
<!-- Node2 -->
<g id="node3" class="node"><title>Node2</title>
<a xlink:href="classfwVtkIO_1_1helper_1_1Mesh.html#aa8f409baff52f2a52ec44ed91c21d54e" target="_top" xlink:title="Convert a ::fwData::Mesh::sptr to a vtkPolyData. ">
<polygon fill="white" stroke="black" points="195.5,-182 195.5,-216 310.5,-216 310.5,-182 195.5,-182"/>
<text text-anchor="start" x="203.5" y="-203" font-family="Helvetica,sans-Serif" font-size="10.00">fwVtkIO::helper::Mesh</text>
<text text-anchor="middle" x="253" y="-190" font-family="Helvetica,sans-Serif" font-size="10.00">::toVTKMesh</text>
</a>
</g>
<!-- Node1&#45;&gt;Node2 -->
<g id="edge2" class="edge"><title>Node1&#45;&gt;Node2</title>
<path fill="none" stroke="midnightblue" d="M168.151,-186.321C177.412,-187.705 186.641,-189.084 195.417,-190.396"/>
<polygon fill="midnightblue" stroke="midnightblue" points="168.516,-182.837 158.108,-184.821 167.481,-189.76 168.516,-182.837"/>
</g>
<!-- Node11 -->
<g id="node21" class="node"><title>Node11</title>
<a xlink:href="classvisuVTKAdaptor_1_1Mesh.html#a6078d32bf00998ff20ea7cf91bcd5562" target="_top" xlink:title="Slot: used to update cell tex coords. ">
<polygon fill="white" stroke="black" points="194,-130 194,-164 312,-164 312,-130 194,-130"/>
<text text-anchor="start" x="202" y="-151" font-family="Helvetica,sans-Serif" font-size="10.00">visuVTKAdaptor::Mesh</text>
<text text-anchor="middle" x="253" y="-138" font-family="Helvetica,sans-Serif" font-size="10.00">::updateCellTexCoords</text>
</a>
</g>
<!-- Node1&#45;&gt;Node11 -->
<g id="edge20" class="edge"><title>Node1&#45;&gt;Node11</title>
<path fill="none" stroke="midnightblue" d="M168.003,-159.701C176.773,-158.39 185.517,-157.084 193.876,-155.835"/>
<polygon fill="midnightblue" stroke="midnightblue" points="167.481,-156.24 158.108,-161.179 168.516,-163.163 167.481,-156.24"/>
</g>
<!-- Node3 -->
<g id="node5" class="node"><title>Node3</title>
<a xlink:href="classfwVtkIO_1_1helper_1_1Mesh.html#a218b2e84b2b5d0b848eeb27664802430" target="_top" xlink:title="Compute the volume of the mesh using MassProperties vtk class. ">
<polygon fill="white" stroke="black" points="388.5,-364 388.5,-398 503.5,-398 503.5,-364 388.5,-364"/>
<text text-anchor="start" x="396.5" y="-385" font-family="Helvetica,sans-Serif" font-size="10.00">fwVtkIO::helper::Mesh</text>
<text text-anchor="middle" x="446" y="-372" font-family="Helvetica,sans-Serif" font-size="10.00">::computeVolume</text>
</a>
</g>
<!-- Node2&#45;&gt;Node3 -->
<g id="edge4" class="edge"><title>Node2&#45;&gt;Node3</title>
<path fill="none" stroke="midnightblue" d="M262.011,-225.6C275.261,-260.627 303.374,-321.665 348,-355 359.705,-363.743 374.122,-369.55 388.261,-373.406"/>
<polygon fill="midnightblue" stroke="midnightblue" points="265.238,-224.232 258.52,-216.039 258.662,-226.633 265.238,-224.232"/>
</g>
<!-- Node4 -->
<g id="node7" class="node"><title>Node4</title>
<a xlink:href="classvtkSimpleMesh_1_1SRenderer.html#adcc2173edd3798b5a768f4054be9c605" target="_top" xlink:title="This method is used to notify that the VTK camera position is updated. ">
<polygon fill="white" stroke="black" points="376,-312 376,-346 516,-346 516,-312 376,-312"/>
<text text-anchor="start" x="384" y="-333" font-family="Helvetica,sans-Serif" font-size="10.00">vtkSimpleMesh::SRenderer</text>
<text text-anchor="middle" x="446" y="-320" font-family="Helvetica,sans-Serif" font-size="10.00">::notifyCamPositionUpdated</text>
</a>
</g>
<!-- Node2&#45;&gt;Node4 -->
<g id="edge6" class="edge"><title>Node2&#45;&gt;Node4</title>
<path fill="none" stroke="midnightblue" d="M269.696,-224.41C286.645,-248.208 315.034,-283.016 348,-303 356.58,-308.201 366.198,-312.375 375.966,-315.722"/>
<polygon fill="midnightblue" stroke="midnightblue" points="272.563,-222.403 263.982,-216.189 266.815,-226.398 272.563,-222.403"/>
</g>
<!-- Node5 -->
<g id="node9" class="node"><title>Node5</title>
<a xlink:href="classvisuVTKAdaptor_1_1MeshesBoxWidget.html#a23d08ba7c328169d2dcee273709bae68" target="_top" xlink:title="Updates map from composite meshes. ">
<polygon fill="white" stroke="black" points="348.5,-260 348.5,-294 543.5,-294 543.5,-260 348.5,-260"/>
<text text-anchor="start" x="356.5" y="-281" font-family="Helvetica,sans-Serif" font-size="10.00">visuVTKAdaptor::MeshesBox</text>
<text text-anchor="middle" x="446" y="-268" font-family="Helvetica,sans-Serif" font-size="10.00">Widget::updateMeshMapFromComposite</text>
</a>
</g>
<!-- Node2&#45;&gt;Node5 -->
<g id="edge8" class="edge"><title>Node2&#45;&gt;Node5</title>
<path fill="none" stroke="midnightblue" d="M288.69,-221.213C306.096,-231.342 327.63,-242.862 348,-251 356.173,-254.265 364.892,-257.247 373.632,-259.931"/>
<polygon fill="midnightblue" stroke="midnightblue" points="290.381,-218.146 279.992,-216.068 286.817,-224.171 290.381,-218.146"/>
</g>
<!-- Node6 -->
<g id="node11" class="node"><title>Node6</title>
<a xlink:href="classvisuVTKAdaptor_1_1Mesh.html#a474502f1e378ab569e3a8288c515a0c3" target="_top" xlink:title="Creates normals adaptor if material has NORMALS, else remove normals adaptor. ">
<polygon fill="white" stroke="black" points="387,-208 387,-242 505,-242 505,-208 387,-208"/>
<text text-anchor="start" x="395" y="-229" font-family="Helvetica,sans-Serif" font-size="10.00">visuVTKAdaptor::Mesh</text>
<text text-anchor="middle" x="446" y="-216" font-family="Helvetica,sans-Serif" font-size="10.00">::updateOptionsMode</text>
</a>
</g>
<!-- Node2&#45;&gt;Node6 -->
<g id="edge10" class="edge"><title>Node2&#45;&gt;Node6</title>
<path fill="none" stroke="midnightblue" d="M320.729,-208.124C342.331,-211.034 366.049,-214.229 386.982,-217.049"/>
<polygon fill="midnightblue" stroke="midnightblue" points="321.023,-204.632 310.645,-206.766 320.088,-211.569 321.023,-204.632"/>
</g>
<!-- Node7 -->
<g id="node13" class="node"><title>Node7</title>
<a xlink:href="classvtkCompositeMesh_1_1RendererService.html#a09bd6b48288fab69dd537295a3c06eaf" target="_top" xlink:title="Updating method. ">
<polygon fill="white" stroke="black" points="372.5,-156 372.5,-190 519.5,-190 519.5,-156 372.5,-156"/>
<text text-anchor="start" x="380.5" y="-177" font-family="Helvetica,sans-Serif" font-size="10.00">vtkCompositeMesh::Renderer</text>
<text text-anchor="middle" x="446" y="-164" font-family="Helvetica,sans-Serif" font-size="10.00">Service::updating</text>
</a>
</g>
<!-- Node2&#45;&gt;Node7 -->
<g id="edge12" class="edge"><title>Node2&#45;&gt;Node7</title>
<path fill="none" stroke="midnightblue" d="M320.812,-189.865C337.432,-187.626 355.3,-185.219 372.186,-182.944"/>
<polygon fill="midnightblue" stroke="midnightblue" points="320.088,-186.431 310.645,-191.234 321.023,-193.368 320.088,-186.431"/>
</g>
<!-- Node8 -->
<g id="node15" class="node"><title>Node8</title>
<a xlink:href="classvtkSimpleMesh_1_1SRenderer.html#a3fee3edf43bb3c8ea39759ab42180fd2" target="_top" xlink:title="Updating method. ">
<polygon fill="white" stroke="black" points="377.5,-104 377.5,-138 514.5,-138 514.5,-104 377.5,-104"/>
<text text-anchor="start" x="385.5" y="-125" font-family="Helvetica,sans-Serif" font-size="10.00">vtkSimpleMesh::SRenderer</text>
<text text-anchor="middle" x="446" y="-112" font-family="Helvetica,sans-Serif" font-size="10.00">::updating</text>
</a>
</g>
<!-- Node2&#45;&gt;Node8 -->
<g id="edge14" class="edge"><title>Node2&#45;&gt;Node8</title>
<path fill="none" stroke="midnightblue" d="M303.836,-177.433C306.627,-175.991 309.366,-174.509 312,-173 329.125,-163.189 330.164,-155.45 348,-147 357.227,-142.629 367.303,-138.904 377.37,-135.757"/>
<polygon fill="midnightblue" stroke="midnightblue" points="302.222,-174.327 294.806,-181.894 305.322,-180.603 302.222,-174.327"/>
</g>
<!-- Node9 -->
<g id="node17" class="node"><title>Node9</title>
<a xlink:href="classfwVtkIO_1_1MeshWriter.html#a4b7876221138a425e3d24f1d441478ec" target="_top" xlink:title="Reading operator. ">
<polygon fill="white" stroke="black" points="391.5,-52 391.5,-86 500.5,-86 500.5,-52 391.5,-52"/>
<text text-anchor="start" x="399.5" y="-73" font-family="Helvetica,sans-Serif" font-size="10.00">fwVtkIO::MeshWriter</text>
<text text-anchor="middle" x="446" y="-60" font-family="Helvetica,sans-Serif" font-size="10.00">::write</text>
</a>
</g>
<!-- Node2&#45;&gt;Node9 -->
<g id="edge16" class="edge"><title>Node2&#45;&gt;Node9</title>
<path fill="none" stroke="midnightblue" d="M308.64,-176.047C309.805,-175.07 310.927,-174.054 312,-173 339.231,-146.237 318.77,-119.563 348,-95 360.196,-84.7513 376.016,-78.4995 391.374,-74.6994"/>
<polygon fill="midnightblue" stroke="midnightblue" points="306.501,-173.274 300.436,-181.961 310.595,-178.953 306.501,-173.274"/>
</g>
<!-- Node10 -->
<g id="node19" class="node"><title>Node10</title>
<a xlink:href="classfwVtkIO_1_1ModelSeriesObjWriter.html#a21ff94e553dd9c4476d4eb3bb08fba7f" target="_top" xlink:title="Destructor. ">
<polygon fill="white" stroke="black" points="369,-0 369,-34 523,-34 523,-0 369,-0"/>
<text text-anchor="start" x="377" y="-21" font-family="Helvetica,sans-Serif" font-size="10.00">fwVtkIO::ModelSeriesObjWriter</text>
<text text-anchor="middle" x="446" y="-8" font-family="Helvetica,sans-Serif" font-size="10.00">::~ModelSeriesObjWriter</text>
</a>
</g>
<!-- Node2&#45;&gt;Node10 -->
<g id="edge18" class="edge"><title>Node2&#45;&gt;Node10</title>
<path fill="none" stroke="midnightblue" d="M309.709,-175.462C310.503,-174.667 311.268,-173.847 312,-173 351.212,-127.649 305.379,-85.1626 348,-43 354.007,-37.0579 361.206,-32.4301 368.94,-28.8325"/>
<polygon fill="midnightblue" stroke="midnightblue" points="307.351,-172.87 301.874,-181.94 311.811,-178.264 307.351,-172.87"/>
</g>
</g>
</svg>
