<?xml version="1.0" encoding="UTF-8" standalone="no"?>
<!DOCTYPE svg PUBLIC "-//W3C//DTD SVG 1.1//EN"
 "http://www.w3.org/Graphics/SVG/1.1/DTD/svg11.dtd">
<!-- Generated by graphviz version 2.36.0 (20140111.2315)
 -->
<!-- Title: scene2D::adaptor::SHistogramValue::configuring Pages: 1 -->
<svg width="814pt" height="131pt"
 viewBox="0.00 0.00 814.00 131.00" xmlns="http://www.w3.org/2000/svg" xmlns:xlink="http://www.w3.org/1999/xlink">
<g id="graph0" class="graph" transform="scale(1 1) rotate(0) translate(4 127)">
<title>scene2D::adaptor::SHistogramValue::configuring</title>
<polygon fill="white" stroke="none" points="-4,4 -4,-127 810,-127 810,4 -4,4"/>
<!-- Node1 -->
<g id="node1" class="node"><title>Node1</title>
<polygon fill="#bfbfbf" stroke="black" points="0,-49 0,-79 152,-79 152,-49 0,-49"/>
<text text-anchor="start" x="8" y="-67" font-family="Helvetica,sans-Serif" font-size="10.00">scene2D::adaptor::SHistogram</text>
<text text-anchor="middle" x="76" y="-56" font-family="Helvetica,sans-Serif" font-size="10.00">Value::configuring</text>
</g>
<!-- Node2 -->
<g id="node2" class="node"><title>Node2</title>
<g id="a_node2"><a xlink:href="classfwRenderQt_1_1IAdaptor.html#abf7a27283ed8b08c6a54221c52ad4b84" target="_top" xlink:title="Parse the xml configuration for Axis, z value and opacity. ">
<polygon fill="white" stroke="black" points="194,-49 194,-79 306,-79 306,-49 194,-49"/>
<text text-anchor="start" x="202" y="-67" font-family="Helvetica,sans-Serif" font-size="10.00">fwRenderQt::IAdaptor</text>
<text text-anchor="middle" x="250" y="-56" font-family="Helvetica,sans-Serif" font-size="10.00">::configureParams</text>
</a>
</g>
</g>
<!-- Node1&#45;&gt;Node2 -->
<g id="edge1" class="edge"><title>Node1&#45;&gt;Node2</title>
<path fill="none" stroke="midnightblue" d="M152.191,-64C162.7,-64 173.427,-64 183.732,-64"/>
<polygon fill="midnightblue" stroke="midnightblue" points="183.873,-67.5001 193.873,-64 183.873,-60.5001 183.873,-67.5001"/>
</g>
<!-- Node3 -->
<g id="node3" class="node"><title>Node3</title>
<g id="a_node3"><a xlink:href="classfwServices_1_1IService.html#a25c0048bcdd35e4453d3d418db22b78f" target="_top" xlink:title="Return the configuration, in an boost property tree. ">
<polygon fill="white" stroke="black" points="350.5,-93 350.5,-123 457.5,-123 457.5,-93 350.5,-93"/>
<text text-anchor="start" x="358.5" y="-111" font-family="Helvetica,sans-Serif" font-size="10.00">fwServices::IService</text>
<text text-anchor="middle" x="404" y="-100" font-family="Helvetica,sans-Serif" font-size="10.00">::getConfigTree</text>
</a>
</g>
</g>
<!-- Node1&#45;&gt;Node3 -->
<g id="edge9" class="edge"><title>Node1&#45;&gt;Node3</title>
<path fill="none" stroke="midnightblue" d="M140.151,-79.0284C155.725,-82.3542 172.411,-85.5985 188,-88 238.936,-95.8467 297.17,-101.034 340.173,-104.154"/>
<polygon fill="midnightblue" stroke="midnightblue" points="339.988,-107.65 350.21,-104.866 340.482,-100.668 339.988,-107.65"/>
</g>
<!-- Node10 -->
<g id="node10" class="node"><title>Node10</title>
<g id="a_node10"><a xlink:href="classfwRenderQt_1_1data_1_1InitQtPen.html#a74cb0245a793100b5c2492129b19646c" target="_top" xlink:title="Set a pen a color. ">
<polygon fill="white" stroke="black" points="188,-0 188,-30 312,-30 312,-0 188,-0"/>
<text text-anchor="start" x="196" y="-18" font-family="Helvetica,sans-Serif" font-size="10.00">fwRenderQt::data::InitQt</text>
<text text-anchor="middle" x="250" y="-7" font-family="Helvetica,sans-Serif" font-size="10.00">Pen::setPenColor</text>
</a>
</g>
</g>
<!-- Node1&#45;&gt;Node10 -->
<g id="edge10" class="edge"><title>Node1&#45;&gt;Node10</title>
<path fill="none" stroke="midnightblue" d="M130.009,-48.8986C147.831,-43.8215 167.88,-38.1098 186.37,-32.8423"/>
<polygon fill="midnightblue" stroke="midnightblue" points="187.508,-36.1575 196.166,-30.0516 185.59,-29.4254 187.508,-36.1575"/>
</g>
<!-- Node2&#45;&gt;Node3 -->
<g id="edge2" class="edge"><title>Node2&#45;&gt;Node3</title>
<path fill="none" stroke="midnightblue" d="M302.885,-79.0192C315.289,-82.61 328.65,-86.4776 341.444,-90.181"/>
<polygon fill="midnightblue" stroke="midnightblue" points="340.512,-93.5551 351.091,-92.9738 342.459,-86.8312 340.512,-93.5551"/>
</g>
<!-- Node5 -->
<g id="node5" class="node"><title>Node5</title>
<g id="a_node5"><a xlink:href="classfwRenderQt_1_1IAdaptor.html#a19c26b1617582f56cb477d6c26bdb2b9" target="_top" xlink:title="Get the render that manages the IAdaptor. ">
<polygon fill="white" stroke="black" points="348,-44 348,-74 460,-74 460,-44 348,-44"/>
<text text-anchor="start" x="356" y="-62" font-family="Helvetica,sans-Serif" font-size="10.00">fwRenderQt::IAdaptor</text>
<text text-anchor="middle" x="404" y="-51" font-family="Helvetica,sans-Serif" font-size="10.00">::getScene2DRender</text>
</a>
</g>
</g>
<!-- Node2&#45;&gt;Node5 -->
<g id="edge4" class="edge"><title>Node2&#45;&gt;Node5</title>
<path fill="none" stroke="midnightblue" d="M306.305,-62.1807C316.598,-61.8422 327.438,-61.4856 337.99,-61.1385"/>
<polygon fill="midnightblue" stroke="midnightblue" points="338.111,-64.6365 347.99,-60.8095 337.881,-57.6403 338.111,-64.6365"/>
</g>
<!-- Node4 -->
<g id="node4" class="node"><title>Node4</title>
<g id="a_node4"><a xlink:href="classfwServices_1_1IService.html#a21ea949603d87785b9a62522d98e2d8c" target="_top" xlink:title="Return the configuration, in an xml format read using runtime library. ">
<polygon fill="white" stroke="black" points="505.5,-93 505.5,-123 612.5,-123 612.5,-93 505.5,-93"/>
<text text-anchor="start" x="513.5" y="-111" font-family="Helvetica,sans-Serif" font-size="10.00">fwServices::IService</text>
<text text-anchor="middle" x="559" y="-100" font-family="Helvetica,sans-Serif" font-size="10.00">::getConfiguration</text>
</a>
</g>
</g>
<!-- Node3&#45;&gt;Node4 -->
<g id="edge3" class="edge"><title>Node3&#45;&gt;Node4</title>
<path fill="none" stroke="midnightblue" d="M457.654,-108C469.675,-108 482.568,-108 494.973,-108"/>
<polygon fill="midnightblue" stroke="midnightblue" points="495.249,-111.5 505.249,-108 495.249,-104.5 495.249,-111.5"/>
</g>
<!-- Node6 -->
<g id="node6" class="node"><title>Node6</title>
<g id="a_node6"><a xlink:href="classfwTools_1_1fwID.html#a387264565a48b0231a7eefb7b01512a1" target="_top" xlink:title="Returns the id of the object. If it is not set and the policy value is. ">
<polygon fill="white" stroke="black" points="505,-52.5 505,-71.5 613,-71.5 613,-52.5 505,-52.5"/>
<text text-anchor="middle" x="559" y="-59.5" font-family="Helvetica,sans-Serif" font-size="10.00">fwTools::fwID::getID</text>
</a>
</g>
</g>
<!-- Node5&#45;&gt;Node6 -->
<g id="edge5" class="edge"><title>Node5&#45;&gt;Node6</title>
<path fill="none" stroke="midnightblue" d="M460.237,-60.0831C471.377,-60.3015 483.172,-60.5328 494.567,-60.7562"/>
<polygon fill="midnightblue" stroke="midnightblue" points="494.824,-64.2618 504.891,-60.9586 494.961,-57.2632 494.824,-64.2618"/>
</g>
<!-- Node9 -->
<g id="node9" class="node"><title>Node9</title>
<g id="a_node9"><a xlink:href="classfwTools_1_1fwID.html#a49c219235064892bb906498913fe8175" target="_top" xlink:title="Retrieve the object attached to the given id. Return a null sptr if no correspondence exist...">
<polygon fill="white" stroke="black" points="496,-14.5 496,-33.5 622,-33.5 622,-14.5 496,-14.5"/>
<text text-anchor="middle" x="559" y="-21.5" font-family="Helvetica,sans-Serif" font-size="10.00">fwTools::fwID::getObject</text>
</a>
</g>
</g>
<!-- Node5&#45;&gt;Node9 -->
<g id="edge8" class="edge"><title>Node5&#45;&gt;Node9</title>
<path fill="none" stroke="midnightblue" d="M460.237,-46.3642C475.259,-42.9278 491.469,-39.2195 506.288,-35.8296"/>
<polygon fill="midnightblue" stroke="midnightblue" points="507.325,-39.1827 516.293,-33.5408 505.764,-32.359 507.325,-39.1827"/>
</g>
<!-- Node7 -->
<g id="node7" class="node"><title>Node7</title>
<g id="a_node7"><a xlink:href="classfwTools_1_1fwID.html#a4ac18bb9c046c3fd04a4c8a80add7ae6" target="_top" xlink:title="fwTools::fwID::exist">
<polygon fill="white" stroke="black" points="679.5,-71.5 679.5,-90.5 784.5,-90.5 784.5,-71.5 679.5,-71.5"/>
<text text-anchor="middle" x="732" y="-78.5" font-family="Helvetica,sans-Serif" font-size="10.00">fwTools::fwID::exist</text>
</a>
</g>
</g>
<!-- Node6&#45;&gt;Node7 -->
<g id="edge6" class="edge"><title>Node6&#45;&gt;Node7</title>
<path fill="none" stroke="midnightblue" d="M613.168,-67.9076C630.954,-69.8837 650.928,-72.1031 669.307,-74.1453"/>
<polygon fill="midnightblue" stroke="midnightblue" points="669.005,-77.6331 679.33,-75.2589 669.778,-70.6759 669.005,-77.6331"/>
</g>
<!-- Node8 -->
<g id="node8" class="node"><title>Node8</title>
<g id="a_node8"><a xlink:href="classfwTools_1_1fwID.html#a03d6d0e2227b51a0630e145911445213" target="_top" xlink:title="return full object&#39;s classname with its namespace, i.e. fwCore::BaseObject ">
<polygon fill="white" stroke="black" points="658.5,-33.5 658.5,-52.5 805.5,-52.5 805.5,-33.5 658.5,-33.5"/>
<text text-anchor="middle" x="732" y="-40.5" font-family="Helvetica,sans-Serif" font-size="10.00">fwTools::fwID::getClassname</text>
</a>
</g>
</g>
<!-- Node6&#45;&gt;Node8 -->
<g id="edge7" class="edge"><title>Node6&#45;&gt;Node8</title>
<path fill="none" stroke="midnightblue" d="M613.168,-56.0924C624.351,-54.8499 636.399,-53.5112 648.372,-52.1808"/>
<polygon fill="midnightblue" stroke="midnightblue" points="648.839,-55.6506 658.392,-51.0676 648.066,-48.6934 648.839,-55.6506"/>
</g>
</g>
</svg>
