<?xml version="1.0" encoding="UTF-8" standalone="no"?>
<!DOCTYPE svg PUBLIC "-//W3C//DTD SVG 1.1//EN"
 "http://www.w3.org/Graphics/SVG/1.1/DTD/svg11.dtd">
<!-- Generated by graphviz version 2.36.0 (20140111.2315)
 -->
<!-- Title: fwCore::util::FactoryRegistry&lt; RETURN_TYPE(ARG1_TYPE), KEY_TYPE, FACTORY_HOLDER &gt; Pages: 1 -->
<svg width="1304pt" height="100pt"
 viewBox="0.00 0.00 1304.00 100.00" xmlns="http://www.w3.org/2000/svg" xmlns:xlink="http://www.w3.org/1999/xlink">
<g id="graph0" class="graph" transform="scale(1 1) rotate(0) translate(4 96)">
<title>fwCore::util::FactoryRegistry&lt; RETURN_TYPE(ARG1_TYPE), KEY_TYPE, FACTORY_HOLDER &gt;</title>
<polygon fill="white" stroke="none" points="-4,4 -4,-96 1300,-96 1300,4 -4,4"/>
<!-- Node1 -->
<g id="node1" class="node"><title>Node1</title>
<polygon fill="#bfbfbf" stroke="black" points="1114,-33.5 1114,-74.5 1296,-74.5 1296,-33.5 1114,-33.5"/>
<text text-anchor="start" x="1122" y="-62.5" font-family="Helvetica,sans-Serif" font-size="10.00">fwCore::util::FactoryRegistry</text>
<text text-anchor="start" x="1122" y="-51.5" font-family="Helvetica,sans-Serif" font-size="10.00">&lt; RETURN_TYPE(ARG1_TYPE),</text>
<text text-anchor="middle" x="1205" y="-40.5" font-family="Helvetica,sans-Serif" font-size="10.00"> KEY_TYPE, FACTORY_HOLDER &gt;</text>
</g>
<!-- Node2 -->
<g id="node2" class="node"><title>Node2</title>
<g id="a_node2"><a xlink:href="classfwCore_1_1util_1_1FactoryRegistryBase.html" target="_top" xlink:title="fwCore::util::FactoryRegistry\lBase\&lt; RETURN_TYPE(ARG1_TYPE)\l, KEY_TYPE \&gt;">
<polygon fill="white" stroke="black" points="888.5,-33.5 888.5,-74.5 1075.5,-74.5 1075.5,-33.5 888.5,-33.5"/>
<text text-anchor="start" x="896.5" y="-62.5" font-family="Helvetica,sans-Serif" font-size="10.00">fwCore::util::FactoryRegistry</text>
<text text-anchor="start" x="896.5" y="-51.5" font-family="Helvetica,sans-Serif" font-size="10.00">Base&lt; RETURN_TYPE(ARG1_TYPE)</text>
<text text-anchor="middle" x="982" y="-40.5" font-family="Helvetica,sans-Serif" font-size="10.00">, KEY_TYPE &gt;</text>
</a>
</g>
</g>
<!-- Node2&#45;&gt;Node1 -->
<g id="edge1" class="edge"><title>Node2&#45;&gt;Node1</title>
<path fill="none" stroke="midnightblue" d="M1085.89,-54C1095.26,-54 1104.7,-54 1113.95,-54"/>
<polygon fill="midnightblue" stroke="midnightblue" points="1085.76,-50.5001 1075.76,-54 1085.76,-57.5001 1085.76,-50.5001"/>
</g>
<!-- Node3 -->
<g id="node3" class="node"><title>Node3</title>
<polygon fill="white" stroke="#bfbfbf" points="360,-48 360,-78 466,-78 466,-48 360,-48"/>
<text text-anchor="start" x="368" y="-66" font-family="Helvetica,sans-Serif" font-size="10.00">std::map&lt; KeyType,</text>
<text text-anchor="middle" x="413" y="-55" font-family="Helvetica,sans-Serif" font-size="10.00"> FactoryType &gt;</text>
</g>
<!-- Node3&#45;&gt;Node2 -->
<g id="edge2" class="edge"><title>Node3&#45;&gt;Node2</title>
<path fill="none" stroke="#9a32cd" stroke-dasharray="5,2" d="M476.063,-64.9863C563.843,-67.3744 729.261,-70.3268 870,-64 875.992,-63.7306 882.161,-63.3799 888.375,-62.9714"/>
<polygon fill="#9a32cd" stroke="#9a32cd" points="476.101,-61.4861 466.008,-64.7059 475.906,-68.4833 476.101,-61.4861"/>
<text text-anchor="middle" x="643" y="-70" font-family="Helvetica,sans-Serif" font-size="10.00"> m_registry</text>
</g>
<!-- Node7 -->
<g id="node7" class="node"><title>Node7</title>
<g id="a_node7"><a xlink:href="classfwCore_1_1util_1_1FactoryRegistryBase.html" target="_top" xlink:title="FactoryRegistryBase is a class used to store factories. ">
<polygon fill="white" stroke="black" points="552,-0.5 552,-41.5 734,-41.5 734,-0.5 552,-0.5"/>
<text text-anchor="start" x="560" y="-29.5" font-family="Helvetica,sans-Serif" font-size="10.00">fwCore::util::FactoryRegistry</text>
<text text-anchor="start" x="560" y="-18.5" font-family="Helvetica,sans-Serif" font-size="10.00">Base&lt; FACTORY_SIGNATURE,</text>
<text text-anchor="middle" x="643" y="-7.5" font-family="Helvetica,sans-Serif" font-size="10.00"> KEY_TYPE, FACTORY_HOLDER &gt;</text>
</a>
</g>
</g>
<!-- Node3&#45;&gt;Node7 -->
<g id="edge7" class="edge"><title>Node3&#45;&gt;Node7</title>
<path fill="none" stroke="#9a32cd" stroke-dasharray="5,2" d="M476.107,-51.5591C499.408,-47.2669 526.386,-42.2974 551.727,-37.6293"/>
<polygon fill="#9a32cd" stroke="#9a32cd" points="475.222,-48.1632 466.022,-53.417 476.491,-55.0474 475.222,-48.1632"/>
<text text-anchor="middle" x="509" y="-52" font-family="Helvetica,sans-Serif" font-size="10.00"> m_registry</text>
</g>
<!-- Node4 -->
<g id="node4" class="node"><title>Node4</title>
<g id="a_node4"><a xlink:title="STL class. ">
<polygon fill="white" stroke="#bfbfbf" points="110,-53.5 110,-72.5 202,-72.5 202,-53.5 110,-53.5"/>
<text text-anchor="middle" x="156" y="-60.5" font-family="Helvetica,sans-Serif" font-size="10.00">std::map&lt; K, T &gt;</text>
</a>
</g>
</g>
<!-- Node4&#45;&gt;Node3 -->
<g id="edge3" class="edge"><title>Node4&#45;&gt;Node3</title>
<path fill="none" stroke="orange" stroke-dasharray="5,2" d="M212.204,-63C256.063,-63 316.971,-63 359.978,-63"/>
<polygon fill="orange" stroke="orange" points="212.002,-59.5001 202.002,-63 212.002,-66.5001 212.002,-59.5001"/>
<text text-anchor="middle" x="281" y="-66" font-family="Helvetica,sans-Serif" font-size="10.00"> &lt; KeyType, FactoryType &gt;</text>
</g>
<!-- Node5 -->
<g id="node5" class="node"><title>Node5</title>
<polygon fill="white" stroke="#bfbfbf" points="0.5,-72.5 0.5,-91.5 29.5,-91.5 29.5,-72.5 0.5,-72.5"/>
<text text-anchor="middle" x="15" y="-79.5" font-family="Helvetica,sans-Serif" font-size="10.00">K</text>
</g>
<!-- Node5&#45;&gt;Node4 -->
<g id="edge4" class="edge"><title>Node5&#45;&gt;Node4</title>
<path fill="none" stroke="#9a32cd" stroke-dasharray="5,2" d="M39.542,-78.782C58.7209,-76.1605 86.3624,-72.3821 109.791,-69.1796"/>
<polygon fill="#9a32cd" stroke="#9a32cd" points="39.0148,-75.3215 29.581,-80.1436 39.9629,-82.257 39.0148,-75.3215"/>
<text text-anchor="middle" x="70" y="-80" font-family="Helvetica,sans-Serif" font-size="10.00"> keys</text>
</g>
<!-- Node6 -->
<g id="node6" class="node"><title>Node6</title>
<polygon fill="white" stroke="#bfbfbf" points="0.5,-34.5 0.5,-53.5 29.5,-53.5 29.5,-34.5 0.5,-34.5"/>
<text text-anchor="middle" x="15" y="-41.5" font-family="Helvetica,sans-Serif" font-size="10.00">T</text>
</g>
<!-- Node6&#45;&gt;Node4 -->
<g id="edge5" class="edge"><title>Node6&#45;&gt;Node4</title>
<path fill="none" stroke="#9a32cd" stroke-dasharray="5,2" d="M39.542,-47.218C58.7209,-49.8395 86.3624,-53.6179 109.791,-56.8204"/>
<polygon fill="#9a32cd" stroke="#9a32cd" points="39.9629,-43.743 29.581,-45.8564 39.0148,-50.6785 39.9629,-43.743"/>
<text text-anchor="middle" x="70" y="-57" font-family="Helvetica,sans-Serif" font-size="10.00"> elements</text>
</g>
<!-- Node7&#45;&gt;Node2 -->
<g id="edge6" class="edge"><title>Node7&#45;&gt;Node2</title>
<path fill="none" stroke="orange" stroke-dasharray="5,2" d="M744.305,-29.9942C783.527,-33.5965 828.883,-37.8673 870,-42 875.979,-42.6009 882.137,-43.2322 888.344,-43.8778"/>
<polygon fill="orange" stroke="orange" points="744.486,-26.4962 734.209,-29.0692 743.848,-33.467 744.486,-26.4962"/>
<text text-anchor="start" x="752.5" y="-56" font-family="Helvetica,sans-Serif" font-size="10.00"> &lt; RETURN_TYPE(ARG1</text>
<text text-anchor="middle" x="811" y="-45" font-family="Helvetica,sans-Serif" font-size="10.00">_TYPE), KEY_TYPE &gt;</text>
</g>
</g>
</svg>
