<?xml version="1.0" encoding="UTF-8" standalone="no"?>
<!DOCTYPE svg PUBLIC "-//W3C//DTD SVG 1.1//EN"
 "http://www.w3.org/Graphics/SVG/1.1/DTD/svg11.dtd">
<!-- Generated by graphviz version 2.26.3 (20100126.1600)
 -->
<!-- Title: fwDcmtkIO::reader::main::ImageLazyReader::createInstanceBuffer Pages: 1 -->
<svg width="286pt" height="94pt"
 viewBox="0.00 0.00 286.00 94.00" xmlns="http://www.w3.org/2000/svg" xmlns:xlink="http://www.w3.org/1999/xlink">
<g id="graph1" class="graph" transform="scale(1 1) rotate(0) translate(4 90)">
<title>fwDcmtkIO::reader::main::ImageLazyReader::createInstanceBuffer</title>
<polygon fill="white" stroke="white" points="-4,5 -4,-90 283,-90 283,5 -4,5"/>
<!-- Node1 -->
<g id="node1" class="node"><title>Node1</title>
<polygon fill="#bfbfbf" stroke="black" points="0.5,-19.5 0.5,-66.5 123.5,-66.5 123.5,-19.5 0.5,-19.5"/>
<text text-anchor="start" x="8.5" y="-53.5" font-family="Helvetica,sans-Serif" font-size="10.00">fwDcmtkIO::reader::</text>
<text text-anchor="start" x="8.5" y="-40.5" font-family="Helvetica,sans-Serif" font-size="10.00">main::ImageLazyReader</text>
<text text-anchor="middle" x="62" y="-27.5" font-family="Helvetica,sans-Serif" font-size="10.00">::createInstanceBuffer</text>
</g>
<!-- Node2 -->
<g id="node3" class="node"><title>Node2</title>
<a xlink:href="classfwDcmtkIO_1_1helper_1_1Codec.html#abf6abcb8c5fdcf224a77bffaa55ff6eb" target="_top" xlink:title="Clean up codec register. ">
<polygon fill="white" stroke="black" points="166.5,-52 166.5,-86 271.5,-86 271.5,-52 166.5,-52"/>
<text text-anchor="start" x="174.5" y="-73" font-family="Helvetica,sans-Serif" font-size="10.00">fwDcmtkIO::helper::</text>
<text text-anchor="middle" x="219" y="-60" font-family="Helvetica,sans-Serif" font-size="10.00">Codec::cleanup</text>
</a>
</g>
<!-- Node1&#45;&gt;Node2 -->
<g id="edge2" class="edge"><title>Node1&#45;&gt;Node2</title>
<path fill="none" stroke="midnightblue" d="M123.6,-53.2013C134.277,-54.9694 145.391,-56.81 156.102,-58.5837"/>
<polygon fill="midnightblue" stroke="midnightblue" points="155.782,-62.0784 166.22,-60.2593 156.926,-55.1724 155.782,-62.0784"/>
</g>
<!-- Node3 -->
<g id="node5" class="node"><title>Node3</title>
<a xlink:href="classfwDcmtkIO_1_1helper_1_1Codec.html#ada2d1daf18f5410aaad834e77608fd26" target="_top" xlink:title="Load DICOM codec. ">
<polygon fill="white" stroke="black" points="160.5,-0 160.5,-34 277.5,-34 277.5,-0 160.5,-0"/>
<text text-anchor="start" x="168.5" y="-21" font-family="Helvetica,sans-Serif" font-size="10.00">fwDcmtkIO::helper::</text>
<text text-anchor="middle" x="219" y="-8" font-family="Helvetica,sans-Serif" font-size="10.00">Codec::registerCodecs</text>
</a>
</g>
<!-- Node1&#45;&gt;Node3 -->
<g id="edge4" class="edge"><title>Node1&#45;&gt;Node3</title>
<path fill="none" stroke="midnightblue" d="M123.6,-32.7987C132.401,-31.3413 141.499,-29.8346 150.423,-28.3566"/>
<polygon fill="midnightblue" stroke="midnightblue" points="151.107,-31.7913 160.4,-26.7044 149.963,-24.8853 151.107,-31.7913"/>
</g>
</g>
</svg>
