<?xml version="1.0" encoding="UTF-8" standalone="no"?>
<!DOCTYPE svg PUBLIC "-//W3C//DTD SVG 1.1//EN"
 "http://www.w3.org/Graphics/SVG/1.1/DTD/svg11.dtd">
<!-- Generated by graphviz version 2.36.0 (20140111.2315)
 -->
<!-- Title: visuVTKAdaptor::SPointList::stopping Pages: 1 -->
<svg width="316pt" height="185pt"
 viewBox="0.00 0.00 316.00 185.00" xmlns="http://www.w3.org/2000/svg" xmlns:xlink="http://www.w3.org/1999/xlink">
<g id="graph0" class="graph" transform="scale(1 1) rotate(0) translate(4 181)">
<title>visuVTKAdaptor::SPointList::stopping</title>
<polygon fill="white" stroke="none" points="-4,4 -4,-181 312,-181 312,4 -4,4"/>
<!-- Node1 -->
<g id="node1" class="node"><title>Node1</title>
<polygon fill="#bfbfbf" stroke="black" points="0.5,-73 0.5,-103 139.5,-103 139.5,-73 0.5,-73"/>
<text text-anchor="start" x="8.5" y="-91" font-family="Helvetica,sans-Serif" font-size="10.00">visuVTKAdaptor::SPointList</text>
<text text-anchor="middle" x="70" y="-80" font-family="Helvetica,sans-Serif" font-size="10.00">::stopping</text>
</g>
<!-- Node2 -->
<g id="node2" class="node"><title>Node2</title>
<g id="a_node2"><a xlink:href="classfwRenderVTK_1_1IAdaptor.html#a27fd889b800232cbc05ac782f32e393a" target="_top" xlink:title="Gets the identifier of the picker used by this adaptor. ">
<polygon fill="white" stroke="black" points="181.5,-147 181.5,-177 302.5,-177 302.5,-147 181.5,-147"/>
<text text-anchor="start" x="189.5" y="-165" font-family="Helvetica,sans-Serif" font-size="10.00">fwRenderVTK::IAdaptor</text>
<text text-anchor="middle" x="242" y="-154" font-family="Helvetica,sans-Serif" font-size="10.00">::getPickerId</text>
</a>
</g>
</g>
<!-- Node1&#45;&gt;Node2 -->
<g id="edge1" class="edge"><title>Node1&#45;&gt;Node2</title>
<path fill="none" stroke="midnightblue" d="M101.987,-103.152C122.761,-113.138 150.822,-126.298 176,-137 180.814,-139.046 185.858,-141.115 190.916,-143.14"/>
<polygon fill="midnightblue" stroke="midnightblue" points="190.017,-146.548 200.603,-146.963 192.586,-140.037 190.017,-146.548"/>
</g>
<!-- Node3 -->
<g id="node3" class="node"><title>Node3</title>
<g id="a_node3"><a xlink:href="classfwRenderVTK_1_1IAdaptor.html#ab88a04a11f130a8226450e4a3c7cbaf9" target="_top" xlink:title="Returns the renderer identifier. ">
<polygon fill="white" stroke="black" points="181.5,-98 181.5,-128 302.5,-128 302.5,-98 181.5,-98"/>
<text text-anchor="start" x="189.5" y="-116" font-family="Helvetica,sans-Serif" font-size="10.00">fwRenderVTK::IAdaptor</text>
<text text-anchor="middle" x="242" y="-105" font-family="Helvetica,sans-Serif" font-size="10.00">::getRendererId</text>
</a>
</g>
</g>
<!-- Node1&#45;&gt;Node3 -->
<g id="edge2" class="edge"><title>Node1&#45;&gt;Node3</title>
<path fill="none" stroke="midnightblue" d="M139.655,-98.0964C150.13,-99.6368 160.95,-101.228 171.444,-102.771"/>
<polygon fill="midnightblue" stroke="midnightblue" points="170.981,-106.241 181.384,-104.233 171.999,-99.3151 170.981,-106.241"/>
</g>
<!-- Node4 -->
<g id="node4" class="node"><title>Node4</title>
<g id="a_node4"><a xlink:href="classfwRenderVTK_1_1IAdaptor.html#a908f43b79c3c619e7e56cd4b5a08dd79" target="_top" xlink:title="Returd the associated render service. ">
<polygon fill="white" stroke="black" points="181.5,-49 181.5,-79 302.5,-79 302.5,-49 181.5,-49"/>
<text text-anchor="start" x="189.5" y="-67" font-family="Helvetica,sans-Serif" font-size="10.00">fwRenderVTK::IAdaptor</text>
<text text-anchor="middle" x="242" y="-56" font-family="Helvetica,sans-Serif" font-size="10.00">::getRenderService</text>
</a>
</g>
</g>
<!-- Node1&#45;&gt;Node4 -->
<g id="edge3" class="edge"><title>Node1&#45;&gt;Node4</title>
<path fill="none" stroke="midnightblue" d="M139.655,-78.3075C150.13,-76.8286 160.95,-75.3012 171.444,-73.8197"/>
<polygon fill="midnightblue" stroke="midnightblue" points="171.971,-77.28 181.384,-72.4164 170.993,-70.3488 171.971,-77.28"/>
</g>
<!-- Node5 -->
<g id="node5" class="node"><title>Node5</title>
<g id="a_node5"><a xlink:href="classfwServices_1_1IHasServices.html#af47c97bc9b450e0e8efab7c7db437b76" target="_top" xlink:title="Unregister all services linked to this service, optionally matches only a given type of services...">
<polygon fill="white" stroke="black" points="176.5,-0 176.5,-30 307.5,-30 307.5,-0 176.5,-0"/>
<text text-anchor="start" x="184.5" y="-18" font-family="Helvetica,sans-Serif" font-size="10.00">fwServices::IHasServices</text>
<text text-anchor="middle" x="242" y="-7" font-family="Helvetica,sans-Serif" font-size="10.00">::unregisterServices</text>
</a>
</g>
</g>
<!-- Node1&#45;&gt;Node5 -->
<g id="edge4" class="edge"><title>Node1&#45;&gt;Node5</title>
<path fill="none" stroke="midnightblue" d="M102.48,-72.9951C123.22,-63.2617 151.056,-50.4868 176,-40 180.822,-37.9727 185.871,-35.9165 190.932,-33.8992"/>
<polygon fill="midnightblue" stroke="midnightblue" points="192.6,-37.0042 200.624,-30.0855 190.037,-30.4904 192.6,-37.0042"/>
</g>
</g>
</svg>
