<?xml version="1.0" encoding="UTF-8" standalone="no"?>
<!DOCTYPE svg PUBLIC "-//W3C//DTD SVG 1.1//EN"
 "http://www.w3.org/Graphics/SVG/1.1/DTD/svg11.dtd">
<!-- Generated by graphviz version 2.36.0 (20140111.2315)
 -->
<!-- Title: visuVTKAdaptor::ImageSliceOrientationTextPImpl Pages: 1 -->
<svg width="150pt" height="232pt"
 viewBox="0.00 0.00 150.00 232.00" xmlns="http://www.w3.org/2000/svg" xmlns:xlink="http://www.w3.org/1999/xlink">
<g id="graph0" class="graph" transform="scale(1 1) rotate(0) translate(4 228)">
<title>visuVTKAdaptor::ImageSliceOrientationTextPImpl</title>
<polygon fill="white" stroke="none" points="-4,4 -4,-228 146,-228 146,4 -4,4"/>
<!-- Node1 -->
<g id="node1" class="node"><title>Node1</title>
<polygon fill="#bfbfbf" stroke="black" points="-0.5,-1 -0.5,-31 142.5,-31 142.5,-1 -0.5,-1"/>
<text text-anchor="start" x="7.5" y="-19" font-family="Helvetica,sans-Serif" font-size="10.00">visuVTKAdaptor::ImageSlice</text>
<text text-anchor="middle" x="71" y="-8" font-family="Helvetica,sans-Serif" font-size="10.00">OrientationTextPImpl</text>
</g>
<!-- Node2 -->
<g id="node2" class="node"><title>Node2</title>
<g id="a_node2"><a xlink:title="STL class. ">
<polygon fill="white" stroke="#bfbfbf" points="41,-134.5 41,-153.5 101,-153.5 101,-134.5 41,-134.5"/>
<text text-anchor="middle" x="71" y="-141.5" font-family="Helvetica,sans-Serif" font-size="10.00">std::string</text>
</a>
</g>
</g>
<!-- Node2&#45;&gt;Node1 -->
<g id="edge1" class="edge"><title>Node2&#45;&gt;Node1</title>
<path fill="none" stroke="#9a32cd" stroke-dasharray="5,2" d="M71,-124.182C71,-98.8042 71,-54.164 71,-31.3311"/>
<polygon fill="#9a32cd" stroke="#9a32cd" points="67.5001,-124.339 71,-134.34 74.5001,-124.34 67.5001,-124.339"/>
<text text-anchor="middle" x="102" y="-108" font-family="Helvetica,sans-Serif" font-size="10.00"> m_leftStr</text>
<text text-anchor="middle" x="102" y="-97" font-family="Helvetica,sans-Serif" font-size="10.00">m_rightStr</text>
<text text-anchor="middle" x="102" y="-86" font-family="Helvetica,sans-Serif" font-size="10.00">m_inferiorStr</text>
<text text-anchor="middle" x="102" y="-75" font-family="Helvetica,sans-Serif" font-size="10.00">m_porteriorStr</text>
<text text-anchor="middle" x="102" y="-64" font-family="Helvetica,sans-Serif" font-size="10.00">m_anteriorStr</text>
<text text-anchor="middle" x="102" y="-53" font-family="Helvetica,sans-Serif" font-size="10.00">m_superiorStr</text>
</g>
<!-- Node3 -->
<g id="node3" class="node"><title>Node3</title>
<g id="a_node3"><a xlink:title="STL class. ">
<polygon fill="white" stroke="#bfbfbf" points="23.5,-193 23.5,-223 118.5,-223 118.5,-193 23.5,-193"/>
<text text-anchor="start" x="31.5" y="-211" font-family="Helvetica,sans-Serif" font-size="10.00">std::basic_string&lt;</text>
<text text-anchor="middle" x="71" y="-200" font-family="Helvetica,sans-Serif" font-size="10.00"> char &gt;</text>
</a>
</g>
</g>
<!-- Node3&#45;&gt;Node2 -->
<g id="edge2" class="edge"><title>Node3&#45;&gt;Node2</title>
<path fill="none" stroke="midnightblue" d="M71,-182.871C71,-172.663 71,-161.408 71,-153.842"/>
<polygon fill="midnightblue" stroke="midnightblue" points="67.5001,-182.931 71,-192.931 74.5001,-182.931 67.5001,-182.931"/>
</g>
</g>
</svg>
