<?xml version="1.0" encoding="UTF-8" standalone="no"?>
<!DOCTYPE svg PUBLIC "-//W3C//DTD SVG 1.1//EN"
 "http://www.w3.org/Graphics/SVG/1.1/DTD/svg11.dtd">
<!-- Generated by graphviz version 2.26.3 (20100126.1600)
 -->
<!-- Title: fwPacsIO::SeriesEnquirer::findUncompressedPC Pages: 1 -->
<!--zoomable 486 -->
<svg id="main" version="1.1" xmlns="http://www.w3.org/2000/svg" xmlns:xlink="http://www.w3.org/1999/xlink" xml:space="preserve" onload="init(evt)">
<style type="text/css"><![CDATA[
.edge:hover path { stroke: red; }
.edge:hover polygon { stroke: red; fill: red; }
]]></style>
<script type="text/javascript"><![CDATA[
var edges = document.getElementsByTagName('g');
if (edges && edges.length) {
  for (var i=0;i<edges.length;i++) {
    if (edges[i].id.substr(0,4)=='edge') {
      edges[i].setAttribute('class','edge');
    }
  }
}
]]></script>
        <defs>
                <circle id="rim" cx="0" cy="0" r="7"/>
                <circle id="rim2" cx="0" cy="0" r="3.5"/>
                <g id="zoomPlus">
                        <use xlink:href="#rim" fill="#404040">
                                <set attributeName="fill" to="#808080" begin="zoomplus.mouseover" end="zoomplus.mouseout"/>
                        </use>
                        <path d="M-4,0h8M0,-4v8" fill="none" stroke="white" stroke-width="1.5" pointer-events="none"/>
                </g>
                <g id="zoomMin">
                        <use xlink:href="#rim" fill="#404040">
                                <set attributeName="fill" to="#808080" begin="zoomminus.mouseover" end="zoomminus.mouseout"/>
                        </use>
                        <path d="M-4,0h8" fill="none" stroke="white" stroke-width="1.5" pointer-events="none"/>
                </g>
                <g id="dirArrow">
                        <path fill="none" stroke="white" stroke-width="1.5" d="M0,-3.0v7 M-2.5,-0.5L0,-3.0L2.5,-0.5"/>
                </g>
               <g id="resetDef">
                       <use xlink:href="#rim2" fill="#404040">
                               <set attributeName="fill" to="#808080" begin="reset.mouseover" end="reset.mouseout"/>
                       </use>
               </g>
        </defs>

<script type="text/javascript">
var viewWidth = 524;
var viewHeight = 486;
var sectionId = 'dynsection-6';
</script>
<script xlink:href="svgpan.js"/>
<svg id="graph" class="graph">
<g id="viewport">
<title>fwPacsIO::SeriesEnquirer::findUncompressedPC</title>
<polygon fill="white" stroke="white" points="-4,5 -4,-482 521,-482 521,5 -4,5"/>
<!-- Node1 -->
<g id="node1" class="node"><title>Node1</title>
<polygon fill="#bfbfbf" stroke="black" points="0,-147 0,-181 130,-181 130,-147 0,-147"/>
<text text-anchor="start" x="8" y="-168" font-family="Helvetica,sans-Serif" font-size="10.00">fwPacsIO::SeriesEnquirer</text>
<text text-anchor="middle" x="65" y="-155" font-family="Helvetica,sans-Serif" font-size="10.00">::findUncompressedPC</text>
</g>
<!-- Node2 -->
<g id="node3" class="node"><title>Node2</title>
<a xlink:href="classfwPacsIO_1_1SeriesEnquirer.html#a80382078e2e6b9dd5dd04d4c437fb1c7" target="_top" xlink:title="Send Find Request. ">
<polygon fill="white" stroke="black" points="166,-340 166,-374 296,-374 296,-340 166,-340"/>
<text text-anchor="start" x="174" y="-361" font-family="Helvetica,sans-Serif" font-size="10.00">fwPacsIO::SeriesEnquirer</text>
<text text-anchor="middle" x="231" y="-348" font-family="Helvetica,sans-Serif" font-size="10.00">::sendFindRequest</text>
</a>
</g>
<!-- Node1&#45;&gt;Node2 -->
<g id="edge2" class="edge"><title>Node1&#45;&gt;Node2</title>
<path fill="none" stroke="midnightblue" d="M86.3245,-188.793C120.545,-228.579 186.858,-305.678 216.302,-339.911"/>
<polygon fill="midnightblue" stroke="midnightblue" points="88.9058,-186.427 79.7314,-181.127 83.5988,-190.991 88.9058,-186.427"/>
</g>
<!-- Node7 -->
<g id="node13" class="node"><title>Node7</title>
<a xlink:href="classfwPacsIO_1_1SeriesEnquirer.html#adaaaca4c0a254e3376dcc9066f33fa9a" target="_top" xlink:title="Send Get Request. ">
<polygon fill="white" stroke="black" points="166,-177 166,-211 296,-211 296,-177 166,-177"/>
<text text-anchor="start" x="174" y="-198" font-family="Helvetica,sans-Serif" font-size="10.00">fwPacsIO::SeriesEnquirer</text>
<text text-anchor="middle" x="231" y="-185" font-family="Helvetica,sans-Serif" font-size="10.00">::sendGetRequest</text>
</a>
</g>
<!-- Node1&#45;&gt;Node7 -->
<g id="edge12" class="edge"><title>Node1&#45;&gt;Node7</title>
<path fill="none" stroke="midnightblue" d="M140.114,-177.575C148.681,-179.123 157.361,-180.692 165.784,-182.214"/>
<polygon fill="midnightblue" stroke="midnightblue" points="140.594,-174.105 130.131,-175.771 139.349,-180.993 140.594,-174.105"/>
</g>
<!-- Node10 -->
<g id="node19" class="node"><title>Node10</title>
<a xlink:href="classfwPacsIO_1_1SeriesEnquirer.html#a4978c9b081cf9234c1af385be88492f7" target="_top" xlink:title="Send Move Request. ">
<polygon fill="white" stroke="black" points="166,-118 166,-152 296,-152 296,-118 166,-118"/>
<text text-anchor="start" x="174" y="-139" font-family="Helvetica,sans-Serif" font-size="10.00">fwPacsIO::SeriesEnquirer</text>
<text text-anchor="middle" x="231" y="-126" font-family="Helvetica,sans-Serif" font-size="10.00">::sendMoveRequest</text>
</a>
</g>
<!-- Node1&#45;&gt;Node10 -->
<g id="edge18" class="edge"><title>Node1&#45;&gt;Node10</title>
<path fill="none" stroke="midnightblue" d="M140.114,-150.878C148.681,-149.381 157.361,-147.865 165.784,-146.393"/>
<polygon fill="midnightblue" stroke="midnightblue" points="139.38,-147.453 130.131,-152.622 140.584,-154.348 139.38,-147.453"/>
</g>
<!-- Node13 -->
<g id="node25" class="node"><title>Node13</title>
<a xlink:href="classfwPacsIO_1_1SeriesEnquirer.html#ab00aaea775196ccd9a04fcee5f9485cc" target="_top" xlink:title="Send Store Request. ">
<polygon fill="white" stroke="black" points="166,-33 166,-67 296,-67 296,-33 166,-33"/>
<text text-anchor="start" x="174" y="-54" font-family="Helvetica,sans-Serif" font-size="10.00">fwPacsIO::SeriesEnquirer</text>
<text text-anchor="middle" x="231" y="-41" font-family="Helvetica,sans-Serif" font-size="10.00">::sendStoreRequest</text>
</a>
</g>
<!-- Node1&#45;&gt;Node13 -->
<g id="edge24" class="edge"><title>Node1&#45;&gt;Node13</title>
<path fill="none" stroke="midnightblue" d="M98.3829,-141.074C130.171,-119.244 177.3,-86.8782 205.978,-67.1836"/>
<polygon fill="midnightblue" stroke="midnightblue" points="96.1138,-138.387 89.8519,-146.933 100.077,-144.157 96.1138,-138.387"/>
</g>
<!-- Node3 -->
<g id="node5" class="node"><title>Node3</title>
<a xlink:href="classfwPacsIO_1_1SeriesEnquirer.html#a07f02feceab826a749ae534fc4dde34e" target="_top" xlink:title="Find series by patient name. ">
<polygon fill="white" stroke="black" points="356.5,-444 356.5,-478 491.5,-478 491.5,-444 356.5,-444"/>
<text text-anchor="start" x="364.5" y="-465" font-family="Helvetica,sans-Serif" font-size="10.00">fwPacsIO::SeriesEnquirer</text>
<text text-anchor="middle" x="424" y="-452" font-family="Helvetica,sans-Serif" font-size="10.00">::findSeriesByPatientName</text>
</a>
</g>
<!-- Node2&#45;&gt;Node3 -->
<g id="edge4" class="edge"><title>Node2&#45;&gt;Node3</title>
<path fill="none" stroke="midnightblue" d="M256.376,-381.07C275.749,-398.278 303.826,-420.812 332,-435 339.56,-438.807 347.76,-442.13 356.043,-445.009"/>
<polygon fill="midnightblue" stroke="midnightblue" points="258.651,-378.409 248.886,-374.297 253.955,-383.6 258.651,-378.409"/>
</g>
<!-- Node4 -->
<g id="node7" class="node"><title>Node4</title>
<a xlink:href="classfwPacsIO_1_1SeriesEnquirer.html#a102b3b39a7c090f86e1877aee8c89e13" target="_top" xlink:title="Find series by study date. ">
<polygon fill="white" stroke="black" points="359,-392 359,-426 489,-426 489,-392 359,-392"/>
<text text-anchor="start" x="367" y="-413" font-family="Helvetica,sans-Serif" font-size="10.00">fwPacsIO::SeriesEnquirer</text>
<text text-anchor="middle" x="424" y="-400" font-family="Helvetica,sans-Serif" font-size="10.00">::findSeriesByDate</text>
</a>
</g>
<!-- Node2&#45;&gt;Node4 -->
<g id="edge6" class="edge"><title>Node2&#45;&gt;Node4</title>
<path fill="none" stroke="midnightblue" d="M304.098,-376.695C322.718,-381.712 342.575,-387.062 360.663,-391.935"/>
<polygon fill="midnightblue" stroke="midnightblue" points="304.762,-373.249 294.195,-374.027 302.941,-380.008 304.762,-373.249"/>
</g>
<!-- Node5 -->
<g id="node9" class="node"><title>Node5</title>
<a xlink:href="classfwPacsIO_1_1SeriesEnquirer.html#a8a70ee36f76b3f0f7ad7ca05722f4712" target="_top" xlink:title="Find series by series UID. ">
<polygon fill="white" stroke="black" points="359,-340 359,-374 489,-374 489,-340 359,-340"/>
<text text-anchor="start" x="367" y="-361" font-family="Helvetica,sans-Serif" font-size="10.00">fwPacsIO::SeriesEnquirer</text>
<text text-anchor="middle" x="424" y="-348" font-family="Helvetica,sans-Serif" font-size="10.00">::findSeriesByUID</text>
</a>
</g>
<!-- Node2&#45;&gt;Node5 -->
<g id="edge8" class="edge"><title>Node2&#45;&gt;Node5</title>
<path fill="none" stroke="midnightblue" d="M306.185,-357C323.584,-357 341.956,-357 358.882,-357"/>
<polygon fill="midnightblue" stroke="midnightblue" points="306.072,-353.5 296.072,-357 306.072,-360.5 306.072,-353.5"/>
</g>
<!-- Node6 -->
<g id="node11" class="node"><title>Node6</title>
<a xlink:href="classfwPacsIO_1_1SeriesEnquirer.html#af73bf25b39437a5808bf7641f50d68be" target="_top" xlink:title="Find SOPInstanceUID of the specified instance. ">
<polygon fill="white" stroke="black" points="359,-288 359,-322 489,-322 489,-288 359,-288"/>
<text text-anchor="start" x="367" y="-309" font-family="Helvetica,sans-Serif" font-size="10.00">fwPacsIO::SeriesEnquirer</text>
<text text-anchor="middle" x="424" y="-296" font-family="Helvetica,sans-Serif" font-size="10.00">::findSOPInstanceUID</text>
</a>
</g>
<!-- Node2&#45;&gt;Node6 -->
<g id="edge10" class="edge"><title>Node2&#45;&gt;Node6</title>
<path fill="none" stroke="midnightblue" d="M304.098,-337.305C322.718,-332.288 342.575,-326.938 360.663,-322.065"/>
<polygon fill="midnightblue" stroke="midnightblue" points="302.941,-333.992 294.195,-339.973 304.762,-340.751 302.941,-333.992"/>
</g>
<!-- Node8 -->
<g id="node15" class="node"><title>Node8</title>
<a xlink:href="classfwPacsIO_1_1SeriesEnquirer.html#a0d1f85cd37e435c8c33e31bb5b2aec47" target="_top" xlink:title="Pull series using C&#45;GET requests. ">
<polygon fill="white" stroke="black" points="336,-236 336,-270 512,-270 512,-236 336,-236"/>
<text text-anchor="start" x="344" y="-257" font-family="Helvetica,sans-Serif" font-size="10.00">fwPacsIO::SeriesEnquirer</text>
<text text-anchor="middle" x="424" y="-244" font-family="Helvetica,sans-Serif" font-size="10.00">::pullSeriesUsingGetRetrieveMethod</text>
</a>
</g>
<!-- Node7&#45;&gt;Node8 -->
<g id="edge14" class="edge"><title>Node7&#45;&gt;Node8</title>
<path fill="none" stroke="midnightblue" d="M291.312,-214.146C304.678,-218.488 318.794,-222.978 332,-227 341.685,-229.95 351.979,-232.97 362.04,-235.859"/>
<polygon fill="midnightblue" stroke="midnightblue" points="292.329,-210.797 281.736,-211.02 290.157,-217.451 292.329,-210.797"/>
</g>
<!-- Node9 -->
<g id="node17" class="node"><title>Node9</title>
<a xlink:href="classfwPacsIO_1_1SeriesEnquirer.html#a6e654852da1ad953e2e2b379b501f28a" target="_top" xlink:title="Pull instance using C&#45;GET requests. ">
<polygon fill="white" stroke="black" points="347.5,-170.5 347.5,-217.5 500.5,-217.5 500.5,-170.5 347.5,-170.5"/>
<text text-anchor="start" x="355.5" y="-204.5" font-family="Helvetica,sans-Serif" font-size="10.00">fwPacsIO::SeriesEnquirer</text>
<text text-anchor="start" x="355.5" y="-191.5" font-family="Helvetica,sans-Serif" font-size="10.00">::pullInstanceUsingGetRetrieve</text>
<text text-anchor="middle" x="424" y="-178.5" font-family="Helvetica,sans-Serif" font-size="10.00">Method</text>
</a>
</g>
<!-- Node7&#45;&gt;Node9 -->
<g id="edge16" class="edge"><title>Node7&#45;&gt;Node9</title>
<path fill="none" stroke="midnightblue" d="M306.225,-194C319.674,-194 333.703,-194 347.196,-194"/>
<polygon fill="midnightblue" stroke="midnightblue" points="306.072,-190.5 296.072,-194 306.072,-197.5 306.072,-190.5"/>
</g>
<!-- Node11 -->
<g id="node21" class="node"><title>Node11</title>
<a xlink:href="classfwPacsIO_1_1SeriesEnquirer.html#a200b70914dad89db16c1112780ae8d32" target="_top" xlink:title="Pull series using C&#45;MOVE requests. ">
<polygon fill="white" stroke="black" points="332,-118 332,-152 516,-152 516,-118 332,-118"/>
<text text-anchor="start" x="340" y="-139" font-family="Helvetica,sans-Serif" font-size="10.00">fwPacsIO::SeriesEnquirer</text>
<text text-anchor="middle" x="424" y="-126" font-family="Helvetica,sans-Serif" font-size="10.00">::pullSeriesUsingMoveRetrieveMethod</text>
</a>
</g>
<!-- Node10&#45;&gt;Node11 -->
<g id="edge20" class="edge"><title>Node10&#45;&gt;Node11</title>
<path fill="none" stroke="midnightblue" d="M306.185,-135C314.584,-135 323.209,-135 331.789,-135"/>
<polygon fill="midnightblue" stroke="midnightblue" points="306.072,-131.5 296.072,-135 306.072,-138.5 306.072,-131.5"/>
</g>
<!-- Node12 -->
<g id="node23" class="node"><title>Node12</title>
<a xlink:href="classfwPacsIO_1_1SeriesEnquirer.html#abce937f0ebcd7d35935f243ecb61bece" target="_top" xlink:title="Pull instance using C&#45;MOVE requests. ">
<polygon fill="white" stroke="black" points="343.5,-52.5 343.5,-99.5 504.5,-99.5 504.5,-52.5 343.5,-52.5"/>
<text text-anchor="start" x="351.5" y="-86.5" font-family="Helvetica,sans-Serif" font-size="10.00">fwPacsIO::SeriesEnquirer</text>
<text text-anchor="start" x="351.5" y="-73.5" font-family="Helvetica,sans-Serif" font-size="10.00">::pullInstanceUsingMoveRetrieve</text>
<text text-anchor="middle" x="424" y="-60.5" font-family="Helvetica,sans-Serif" font-size="10.00">Method</text>
</a>
</g>
<!-- Node10&#45;&gt;Node12 -->
<g id="edge22" class="edge"><title>Node10&#45;&gt;Node12</title>
<path fill="none" stroke="midnightblue" d="M296.73,-114.906C312.938,-109.951 330.441,-104.601 347.126,-99.5005"/>
<polygon fill="midnightblue" stroke="midnightblue" points="295.364,-111.664 286.824,-117.935 297.41,-118.358 295.364,-111.664"/>
</g>
<!-- Node14 -->
<g id="node27" class="node"><title>Node14</title>
<a xlink:href="classfwPacsIO_1_1SeriesEnquirer.html#a227b16260dc397d2be9b7b914e30ae5b" target="_top" xlink:title="Push instances using C&#45;STORE requests. ">
<polygon fill="white" stroke="black" points="359,-0 359,-34 489,-34 489,-0 359,-0"/>
<text text-anchor="start" x="367" y="-21" font-family="Helvetica,sans-Serif" font-size="10.00">fwPacsIO::SeriesEnquirer</text>
<text text-anchor="middle" x="424" y="-8" font-family="Helvetica,sans-Serif" font-size="10.00">::pushSeries</text>
</a>
</g>
<!-- Node13&#45;&gt;Node14 -->
<g id="edge26" class="edge"><title>Node13&#45;&gt;Node14</title>
<path fill="none" stroke="midnightblue" d="M306.185,-37.1445C323.584,-34.1695 341.956,-31.0282 358.882,-28.1341"/>
<polygon fill="midnightblue" stroke="midnightblue" points="305.339,-33.7383 296.072,-38.8737 306.519,-40.6382 305.339,-33.7383"/>
</g>
</g>
</svg>
        <g id="navigator" transform="translate(0 0)" fill="#404254">
                <rect fill="#f2f5e9" fill-opacity="0.5" stroke="#606060" stroke-width=".5" x="0" y="0" width="60" height="60"/>
                <use id="zoomplus" xlink:href="#zoomPlus" x="17" y="9" onmousedown="handleZoom(evt,'in')"/>
                <use id="zoomminus" xlink:href="#zoomMin" x="42" y="9" onmousedown="handleZoom(evt,'out')"/>
                <use id="reset" xlink:href="#resetDef" x="30" y="36" onmousedown="handleReset()"/>
                <g id="arrowUp" xlink:href="#dirArrow" transform="translate(30 24)" onmousedown="handlePan(0,-1)">
                  <use xlink:href="#rim" fill="#404040">
                        <set attributeName="fill" to="#808080" begin="arrowUp.mouseover" end="arrowUp.mouseout"/>
                  </use>
                  <path fill="none" stroke="white" stroke-width="1.5" d="M0,-3.0v7 M-2.5,-0.5L0,-3.0L2.5,-0.5"/>
                </g>
                <g id="arrowRight" xlink:href="#dirArrow" transform="rotate(90) translate(36 -43)" onmousedown="handlePan(1,0)">
                  <use xlink:href="#rim" fill="#404040">
                        <set attributeName="fill" to="#808080" begin="arrowRight.mouseover" end="arrowRight.mouseout"/>
                  </use>
                  <path fill="none" stroke="white" stroke-width="1.5" d="M0,-3.0v7 M-2.5,-0.5L0,-3.0L2.5,-0.5"/>
                </g>
                <g id="arrowDown" xlink:href="#dirArrow" transform="rotate(180) translate(-30 -48)" onmousedown="handlePan(0,1)">
                  <use xlink:href="#rim" fill="#404040">
                        <set attributeName="fill" to="#808080" begin="arrowDown.mouseover" end="arrowDown.mouseout"/>
                  </use>
                  <path fill="none" stroke="white" stroke-width="1.5" d="M0,-3.0v7 M-2.5,-0.5L0,-3.0L2.5,-0.5"/>
                </g>
                <g id="arrowLeft" xlink:href="#dirArrow" transform="rotate(270) translate(-36 17)" onmousedown="handlePan(-1,0)">
                  <use xlink:href="#rim" fill="#404040">
                        <set attributeName="fill" to="#808080" begin="arrowLeft.mouseover" end="arrowLeft.mouseout"/>
                  </use>
                  <path fill="none" stroke="white" stroke-width="1.5" d="M0,-3.0v7 M-2.5,-0.5L0,-3.0L2.5,-0.5"/>
                </g>
        </g>
        <svg viewBox="0 0 15 15" width="100%" height="30px" preserveAspectRatio="xMaxYMin meet">
         <g id="arrow_out" transform="scale(0.3 0.3)">
          <a xlink:href="classfwPacsIO_1_1SeriesEnquirer_acbde33bb4e4e9c3350a5787879beef28_icgraph_org.svg" target="_base">
           <rect id="button" ry="5" rx="5" y="6" x="6" height="38" width="38"
                fill="#f2f5e9" fill-opacity="0.5" stroke="#606060" stroke-width="1.0"/>
           <path id="arrow"
             d="M 11.500037,31.436501 C 11.940474,20.09759 22.043105,11.32322 32.158766,21.979434 L 37.068811,17.246167 C 37.068811,17.246167 37.088388,32 37.088388,32 L 22.160133,31.978069 C 22.160133,31.978069 26.997745,27.140456 26.997745,27.140456 C 18.528582,18.264221 13.291696,25.230495 11.500037,31.436501 z"
             style="fill:#404040;"/>
          </a>
         </g>
        </svg>
</svg>
