<?xml version="1.0" encoding="UTF-8" standalone="no"?>
<!DOCTYPE svg PUBLIC "-//W3C//DTD SVG 1.1//EN"
 "http://www.w3.org/Graphics/SVG/1.1/DTD/svg11.dtd">
<!-- Generated by graphviz version 2.36.0 (20140111.2315)
 -->
<!-- Title: fwServices::IService::update Pages: 1 -->
<svg width="320pt" height="38pt"
 viewBox="0.00 0.00 320.00 38.00" xmlns="http://www.w3.org/2000/svg" xmlns:xlink="http://www.w3.org/1999/xlink">
<g id="graph0" class="graph" transform="scale(1 1) rotate(0) translate(4 34)">
<title>fwServices::IService::update</title>
<polygon fill="white" stroke="none" points="-4,4 -4,-34 316,-34 316,4 -4,4"/>
<!-- Node1 -->
<g id="node1" class="node"><title>Node1</title>
<polygon fill="#bfbfbf" stroke="black" points="0.5,-0 0.5,-30 107.5,-30 107.5,-0 0.5,-0"/>
<text text-anchor="start" x="8.5" y="-18" font-family="Helvetica,sans-Serif" font-size="10.00">fwServices::IService</text>
<text text-anchor="middle" x="54" y="-7" font-family="Helvetica,sans-Serif" font-size="10.00">::update</text>
</g>
<!-- Node2 -->
<g id="node2" class="node"><title>Node2</title>
<g id="a_node2"><a xlink:href="classscene2D_1_1adaptor_1_1SViewportRangeSelector.html#abbc810f77fe133fbda862b5273efeabd" target="_top" xlink:title="scene2D::adaptor::SViewport\lRangeSelector::processInteraction">
<polygon fill="white" stroke="black" points="144.5,-0 144.5,-30 311.5,-30 311.5,-0 144.5,-0"/>
<text text-anchor="start" x="152.5" y="-18" font-family="Helvetica,sans-Serif" font-size="10.00">scene2D::adaptor::SViewport</text>
<text text-anchor="middle" x="228" y="-7" font-family="Helvetica,sans-Serif" font-size="10.00">RangeSelector::processInteraction</text>
</a>
</g>
</g>
<!-- Node1&#45;&gt;Node2 -->
<g id="edge1" class="edge"><title>Node1&#45;&gt;Node2</title>
<path fill="none" stroke="midnightblue" d="M117.583,-15C126.294,-15 135.352,-15 144.361,-15"/>
<polygon fill="midnightblue" stroke="midnightblue" points="117.54,-11.5001 107.54,-15 117.54,-18.5001 117.54,-11.5001"/>
</g>
</g>
</svg>
