<?xml version="1.0" encoding="UTF-8" standalone="no"?>
<!DOCTYPE svg PUBLIC "-//W3C//DTD SVG 1.1//EN"
 "http://www.w3.org/Graphics/SVG/1.1/DTD/svg11.dtd">
<!-- Generated by graphviz version 2.26.3 (20100126.1600)
 -->
<!-- Title: fwMemory::BufferManager Pages: 1 -->
<!--zoomable 430 -->
<svg id="main" version="1.1" xmlns="http://www.w3.org/2000/svg" xmlns:xlink="http://www.w3.org/1999/xlink" xml:space="preserve" onload="init(evt)">
<style type="text/css"><![CDATA[
.edge:hover path { stroke: red; }
.edge:hover polygon { stroke: red; fill: red; }
]]></style>
<script type="text/javascript"><![CDATA[
var edges = document.getElementsByTagName('g');
if (edges && edges.length) {
  for (var i=0;i<edges.length;i++) {
    if (edges[i].id.substr(0,4)=='edge') {
      edges[i].setAttribute('class','edge');
    }
  }
}
]]></script>
        <defs>
                <circle id="rim" cx="0" cy="0" r="7"/>
                <circle id="rim2" cx="0" cy="0" r="3.5"/>
                <g id="zoomPlus">
                        <use xlink:href="#rim" fill="#404040">
                                <set attributeName="fill" to="#808080" begin="zoomplus.mouseover" end="zoomplus.mouseout"/>
                        </use>
                        <path d="M-4,0h8M0,-4v8" fill="none" stroke="white" stroke-width="1.5" pointer-events="none"/>
                </g>
                <g id="zoomMin">
                        <use xlink:href="#rim" fill="#404040">
                                <set attributeName="fill" to="#808080" begin="zoomminus.mouseover" end="zoomminus.mouseout"/>
                        </use>
                        <path d="M-4,0h8" fill="none" stroke="white" stroke-width="1.5" pointer-events="none"/>
                </g>
                <g id="dirArrow">
                        <path fill="none" stroke="white" stroke-width="1.5" d="M0,-3.0v7 M-2.5,-0.5L0,-3.0L2.5,-0.5"/>
                </g>
               <g id="resetDef">
                       <use xlink:href="#rim2" fill="#404040">
                               <set attributeName="fill" to="#808080" begin="reset.mouseover" end="reset.mouseout"/>
                       </use>
               </g>
        </defs>

<script type="text/javascript">
var viewWidth = 520;
var viewHeight = 430;
var sectionId = 'dynsection-1';
</script>
<script xlink:href="svgpan.js"/>
<svg id="graph" class="graph">
<g id="viewport">
<title>fwMemory::BufferManager</title>
<polygon fill="white" stroke="white" points="-4,5 -4,-426 517,-426 517,5 -4,5"/>
<!-- Node1 -->
<g id="node1" class="node"><title>Node1</title>
<polygon fill="#bfbfbf" stroke="black" points="321,-0.5 321,-21.5 453,-21.5 453,-0.5 321,-0.5"/>
<text text-anchor="middle" x="387" y="-8.5" font-family="Helvetica,sans-Serif" font-size="10.00">fwMemory::BufferManager</text>
</g>
<!-- Node2 -->
<g id="node2" class="node"><title>Node2</title>
<a xlink:href="classfwCore_1_1BaseObject.html" target="_top" xlink:title="Base class for all FW4SPL&#39;s classes. ">
<polygon fill="white" stroke="black" points="394.5,-314.5 394.5,-335.5 499.5,-335.5 499.5,-314.5 394.5,-314.5"/>
<text text-anchor="middle" x="447" y="-322.5" font-family="Helvetica,sans-Serif" font-size="10.00">fwCore::BaseObject</text>
</a>
</g>
<!-- Node2&#45;&gt;Node1 -->
<g id="edge2" class="edge"><title>Node2&#45;&gt;Node1</title>
<path fill="none" stroke="midnightblue" d="M456.222,-304.788C461.862,-290.602 468,-271.022 468,-253 468,-253 468,-253 468,-90 468,-57.5884 434.351,-34.1392 410.429,-21.5637"/>
<polygon fill="midnightblue" stroke="midnightblue" points="452.971,-303.492 452.299,-314.065 459.418,-306.218 452.971,-303.492"/>
</g>
<!-- Node6 -->
<g id="node10" class="node"><title>Node6</title>
<a xlink:href="classfwCore_1_1LogicStamp.html" target="_top" xlink:title="Provides a Logical timestamp system. ">
<polygon fill="white" stroke="black" points="334,-242.5 334,-263.5 440,-263.5 440,-242.5 334,-242.5"/>
<text text-anchor="middle" x="387" y="-250.5" font-family="Helvetica,sans-Serif" font-size="10.00">fwCore::LogicStamp</text>
</a>
</g>
<!-- Node2&#45;&gt;Node6 -->
<g id="edge12" class="edge"><title>Node2&#45;&gt;Node6</title>
<path fill="none" stroke="midnightblue" d="M431.653,-306.584C420.324,-292.989 405.298,-274.958 395.89,-263.667"/>
<polygon fill="midnightblue" stroke="midnightblue" points="429.056,-308.935 438.147,-314.376 434.434,-304.453 429.056,-308.935"/>
</g>
<!-- Node3 -->
<g id="node4" class="node"><title>Node3</title>
<polygon fill="white" stroke="#bfbfbf" points="381.5,-387 381.5,-421 512.5,-421 512.5,-387 381.5,-387"/>
<text text-anchor="start" x="389.5" y="-408" font-family="Helvetica,sans-Serif" font-size="10.00">std::enable_shared</text>
<text text-anchor="middle" x="447" y="-395" font-family="Helvetica,sans-Serif" font-size="10.00">_from_this&lt; BaseObject &gt;</text>
</g>
<!-- Node3&#45;&gt;Node2 -->
<g id="edge4" class="edge"><title>Node3&#45;&gt;Node2</title>
<path fill="none" stroke="midnightblue" d="M447,-376.623C447,-362.473 447,-346.024 447,-335.567"/>
<polygon fill="midnightblue" stroke="midnightblue" points="443.5,-376.858 447,-386.858 450.5,-376.858 443.5,-376.858"/>
</g>
<!-- Node4 -->
<g id="node6" class="node"><title>Node4</title>
<polygon fill="white" stroke="#bfbfbf" points="195.5,-73 195.5,-107 324.5,-107 324.5,-73 195.5,-73"/>
<text text-anchor="start" x="203.5" y="-94" font-family="Helvetica,sans-Serif" font-size="10.00">std::map&lt; ConstBufferPtr</text>
<text text-anchor="middle" x="260" y="-81" font-family="Helvetica,sans-Serif" font-size="10.00">Type, BufferInfo &gt;</text>
</g>
<!-- Node4&#45;&gt;Node1 -->
<g id="edge6" class="edge"><title>Node4&#45;&gt;Node1</title>
<path fill="none" stroke="#9a32cd" stroke-dasharray="5,2" d="M280.182,-65.2372C288.392,-56.3583 298.434,-46.8581 309,-40 320.997,-32.2129 335.38,-26.1116 348.51,-21.5569"/>
<polygon fill="#9a32cd" stroke="#9a32cd" points="277.492,-62.9957 273.471,-72.798 282.727,-67.6424 277.492,-62.9957"/>
<text text-anchor="middle" x="341" y="-44.5" font-family="Helvetica,sans-Serif" font-size="10.00"> m_bufferInfos</text>
</g>
<!-- Node5 -->
<g id="node8" class="node"><title>Node5</title>
<a xlink:href="structfwMemory_1_1BufferInfo.html" target="_top" xlink:title="fwMemory::BufferInfo">
<polygon fill="white" stroke="black" points="204.5,-158.5 204.5,-179.5 315.5,-179.5 315.5,-158.5 204.5,-158.5"/>
<text text-anchor="middle" x="260" y="-166.5" font-family="Helvetica,sans-Serif" font-size="10.00">fwMemory::BufferInfo</text>
</a>
</g>
<!-- Node5&#45;&gt;Node4 -->
<g id="edge8" class="edge"><title>Node5&#45;&gt;Node4</title>
<path fill="none" stroke="#9a32cd" stroke-dasharray="5,2" d="M260,-148.162C260,-135.363 260,-119.171 260,-107.124"/>
<polygon fill="#9a32cd" stroke="#9a32cd" points="256.5,-148.346 260,-158.346 263.5,-148.346 256.5,-148.346"/>
<text text-anchor="middle" x="281.5" y="-130.5" font-family="Helvetica,sans-Serif" font-size="10.00"> elements</text>
</g>
<!-- Node6&#45;&gt;Node1 -->
<g id="edge30" class="edge"><title>Node6&#45;&gt;Node1</title>
<path fill="none" stroke="#9a32cd" stroke-dasharray="5,2" d="M387,-232.101C387,-182.404 387,-58.5639 387,-21.587"/>
<polygon fill="#9a32cd" stroke="#9a32cd" points="383.5,-232.289 387,-242.289 390.5,-232.289 383.5,-232.289"/>
<text text-anchor="middle" x="420" y="-130.5" font-family="Helvetica,sans-Serif" font-size="10.00"> m_lastAccess</text>
</g>
<!-- Node6&#45;&gt;Node5 -->
<g id="edge10" class="edge"><title>Node6&#45;&gt;Node5</title>
<path fill="none" stroke="#9a32cd" stroke-dasharray="5,2" d="M348.285,-238.458C339.045,-234.325 329.425,-229.446 321,-224 320.315,-223.557 289.438,-195.642 271.885,-179.758"/>
<polygon fill="#9a32cd" stroke="#9a32cd" points="347.14,-241.775 357.711,-242.487 349.891,-235.338 347.14,-241.775"/>
<text text-anchor="middle" x="347" y="-208.5" font-family="Helvetica,sans-Serif" font-size="10.00"> lastAccess</text>
</g>
<!-- Node7 -->
<g id="node13" class="node"><title>Node7</title>
<a xlink:href="classfwMemory_1_1FileHolder.html" target="_top" xlink:title="fwMemory::FileHolder">
<polygon fill="white" stroke="black" points="203.5,-242.5 203.5,-263.5 316.5,-263.5 316.5,-242.5 203.5,-242.5"/>
<text text-anchor="middle" x="260" y="-250.5" font-family="Helvetica,sans-Serif" font-size="10.00">fwMemory::FileHolder</text>
</a>
</g>
<!-- Node7&#45;&gt;Node5 -->
<g id="edge14" class="edge"><title>Node7&#45;&gt;Node5</title>
<path fill="none" stroke="#9a32cd" stroke-dasharray="5,2" d="M260,-231.945C260,-215.257 260,-192.639 260,-179.552"/>
<polygon fill="#9a32cd" stroke="#9a32cd" points="256.5,-232.361 260,-242.361 263.5,-232.361 256.5,-232.361"/>
<text text-anchor="middle" x="274" y="-208.5" font-family="Helvetica,sans-Serif" font-size="10.00"> fsFile</text>
</g>
<!-- Node8 -->
<g id="node15" class="node"><title>Node8</title>
<polygon fill="white" stroke="#bfbfbf" points="74,-242.5 74,-263.5 186,-263.5 186,-242.5 74,-242.5"/>
<text text-anchor="middle" x="130" y="-250.5" font-family="Helvetica,sans-Serif" font-size="10.00">std::weak_ptr&lt; void &gt;</text>
</g>
<!-- Node8&#45;&gt;Node5 -->
<g id="edge16" class="edge"><title>Node8&#45;&gt;Node5</title>
<path fill="none" stroke="#9a32cd" stroke-dasharray="5,2" d="M149.532,-235.782C163.126,-224.279 181.978,-209.251 200,-198 211.09,-191.077 224.08,-184.615 235.132,-179.556"/>
<polygon fill="#9a32cd" stroke="#9a32cd" points="147.106,-233.252 141.803,-242.424 151.668,-238.562 147.106,-233.252"/>
<text text-anchor="middle" x="228" y="-208.5" font-family="Helvetica,sans-Serif" font-size="10.00"> lockCounter</text>
</g>
<!-- Node9 -->
<g id="node17" class="node"><title>Node9</title>
<polygon fill="white" stroke="#bfbfbf" points="109.5,-314.5 109.5,-335.5 144.5,-335.5 144.5,-314.5 109.5,-314.5"/>
<text text-anchor="middle" x="127" y="-322.5" font-family="Helvetica,sans-Serif" font-size="10.00">void</text>
</g>
<!-- Node9&#45;&gt;Node8 -->
<g id="edge18" class="edge"><title>Node9&#45;&gt;Node8</title>
<path fill="none" stroke="#9a32cd" stroke-dasharray="5,2" d="M127.865,-304.235C128.418,-290.969 129.112,-274.319 129.556,-263.667"/>
<polygon fill="#9a32cd" stroke="#9a32cd" points="124.362,-304.239 127.443,-314.376 131.356,-304.531 124.362,-304.239"/>
<text text-anchor="middle" x="136.5" y="-286.5" font-family="Helvetica,sans-Serif" font-size="10.00"> ptr</text>
</g>
<!-- Node10 -->
<g id="node19" class="node"><title>Node10</title>
<a xlink:title="STL class. ">
<polygon fill="white" stroke="#bfbfbf" points="162,-314.5 162,-335.5 262,-335.5 262,-314.5 162,-314.5"/>
<text text-anchor="middle" x="212" y="-322.5" font-family="Helvetica,sans-Serif" font-size="10.00">std::weak_ptr&lt; T &gt;</text>
</a>
</g>
<!-- Node10&#45;&gt;Node8 -->
<g id="edge20" class="edge"><title>Node10&#45;&gt;Node8</title>
<path fill="none" stroke="orange" stroke-dasharray="5,2" d="M192.329,-307.728C176.711,-294.015 155.372,-275.277 142.149,-263.667"/>
<polygon fill="orange" stroke="orange" points="190.077,-310.408 199.901,-314.376 194.696,-305.148 190.077,-310.408"/>
<text text-anchor="middle" x="199" y="-286.5" font-family="Helvetica,sans-Serif" font-size="10.00"> &lt; void &gt;</text>
</g>
<!-- Node11 -->
<g id="node21" class="node"><title>Node11</title>
<polygon fill="white" stroke="#bfbfbf" points="131.5,-393.5 131.5,-414.5 160.5,-414.5 160.5,-393.5 131.5,-393.5"/>
<text text-anchor="middle" x="146" y="-401.5" font-family="Helvetica,sans-Serif" font-size="10.00">T</text>
</g>
<!-- Node11&#45;&gt;Node10 -->
<g id="edge22" class="edge"><title>Node11&#45;&gt;Node10</title>
<path fill="none" stroke="#9a32cd" stroke-dasharray="5,2" d="M161.482,-385.469C174.402,-370.003 192.369,-348.498 203.029,-335.738"/>
<polygon fill="#9a32cd" stroke="#9a32cd" points="158.626,-383.427 154.901,-393.346 163.998,-387.915 158.626,-383.427"/>
<text text-anchor="middle" x="194.5" y="-358.5" font-family="Helvetica,sans-Serif" font-size="10.00"> ptr</text>
</g>
<!-- Node12 -->
<g id="node23" class="node"><title>Node12</title>
<a xlink:title="STL class. ">
<polygon fill="white" stroke="#bfbfbf" points="0,-314.5 0,-335.5 92,-335.5 92,-314.5 0,-314.5"/>
<text text-anchor="middle" x="46" y="-322.5" font-family="Helvetica,sans-Serif" font-size="10.00">std::map&lt; K, T &gt;</text>
</a>
</g>
<!-- Node11&#45;&gt;Node12 -->
<g id="edge28" class="edge"><title>Node11&#45;&gt;Node12</title>
<path fill="none" stroke="#9a32cd" stroke-dasharray="5,2" d="M124.421,-386.953C104.742,-371.406 76.2676,-348.911 59.5921,-335.738"/>
<polygon fill="#9a32cd" stroke="#9a32cd" points="122.497,-389.893 132.514,-393.346 126.836,-384.4 122.497,-389.893"/>
<text text-anchor="middle" x="120.5" y="-358.5" font-family="Helvetica,sans-Serif" font-size="10.00"> elements</text>
</g>
<!-- Node12&#45;&gt;Node4 -->
<g id="edge24" class="edge"><title>Node12&#45;&gt;Node4</title>
<path fill="none" stroke="orange" stroke-dasharray="5,2" d="M42.3429,-304.19C38.786,-277.293 36.6409,-230.108 58,-198 89.4972,-150.652 148.836,-122.502 195.083,-106.876"/>
<polygon fill="orange" stroke="orange" points="38.9274,-305.012 43.8893,-314.373 45.8481,-303.961 38.9274,-305.012"/>
<text text-anchor="start" x="58" y="-215" font-family="Helvetica,sans-Serif" font-size="10.00"> &lt; ConstBufferPtrType,</text>
<text text-anchor="middle" x="109.5" y="-202" font-family="Helvetica,sans-Serif" font-size="10.00"> BufferInfo &gt;</text>
</g>
<!-- Node13 -->
<g id="node25" class="node"><title>Node13</title>
<polygon fill="white" stroke="#bfbfbf" points="31.5,-393.5 31.5,-414.5 60.5,-414.5 60.5,-393.5 31.5,-393.5"/>
<text text-anchor="middle" x="46" y="-401.5" font-family="Helvetica,sans-Serif" font-size="10.00">K</text>
</g>
<!-- Node13&#45;&gt;Node12 -->
<g id="edge26" class="edge"><title>Node13&#45;&gt;Node12</title>
<path fill="none" stroke="#9a32cd" stroke-dasharray="5,2" d="M46,-383.284C46,-368.031 46,-347.907 46,-335.738"/>
<polygon fill="#9a32cd" stroke="#9a32cd" points="42.5001,-383.346 46,-393.346 49.5001,-383.346 42.5001,-383.346"/>
<text text-anchor="middle" x="58.5" y="-358.5" font-family="Helvetica,sans-Serif" font-size="10.00"> keys</text>
</g>
</g>
</svg>
        <g id="navigator" transform="translate(0 0)" fill="#404254">
                <rect fill="#f2f5e9" fill-opacity="0.5" stroke="#606060" stroke-width=".5" x="0" y="0" width="60" height="60"/>
                <use id="zoomplus" xlink:href="#zoomPlus" x="17" y="9" onmousedown="handleZoom(evt,'in')"/>
                <use id="zoomminus" xlink:href="#zoomMin" x="42" y="9" onmousedown="handleZoom(evt,'out')"/>
                <use id="reset" xlink:href="#resetDef" x="30" y="36" onmousedown="handleReset()"/>
                <g id="arrowUp" xlink:href="#dirArrow" transform="translate(30 24)" onmousedown="handlePan(0,-1)">
                  <use xlink:href="#rim" fill="#404040">
                        <set attributeName="fill" to="#808080" begin="arrowUp.mouseover" end="arrowUp.mouseout"/>
                  </use>
                  <path fill="none" stroke="white" stroke-width="1.5" d="M0,-3.0v7 M-2.5,-0.5L0,-3.0L2.5,-0.5"/>
                </g>
                <g id="arrowRight" xlink:href="#dirArrow" transform="rotate(90) translate(36 -43)" onmousedown="handlePan(1,0)">
                  <use xlink:href="#rim" fill="#404040">
                        <set attributeName="fill" to="#808080" begin="arrowRight.mouseover" end="arrowRight.mouseout"/>
                  </use>
                  <path fill="none" stroke="white" stroke-width="1.5" d="M0,-3.0v7 M-2.5,-0.5L0,-3.0L2.5,-0.5"/>
                </g>
                <g id="arrowDown" xlink:href="#dirArrow" transform="rotate(180) translate(-30 -48)" onmousedown="handlePan(0,1)">
                  <use xlink:href="#rim" fill="#404040">
                        <set attributeName="fill" to="#808080" begin="arrowDown.mouseover" end="arrowDown.mouseout"/>
                  </use>
                  <path fill="none" stroke="white" stroke-width="1.5" d="M0,-3.0v7 M-2.5,-0.5L0,-3.0L2.5,-0.5"/>
                </g>
                <g id="arrowLeft" xlink:href="#dirArrow" transform="rotate(270) translate(-36 17)" onmousedown="handlePan(-1,0)">
                  <use xlink:href="#rim" fill="#404040">
                        <set attributeName="fill" to="#808080" begin="arrowLeft.mouseover" end="arrowLeft.mouseout"/>
                  </use>
                  <path fill="none" stroke="white" stroke-width="1.5" d="M0,-3.0v7 M-2.5,-0.5L0,-3.0L2.5,-0.5"/>
                </g>
        </g>
        <svg viewBox="0 0 15 15" width="100%" height="30px" preserveAspectRatio="xMaxYMin meet">
         <g id="arrow_out" transform="scale(0.3 0.3)">
          <a xlink:href="classfwMemory_1_1BufferManager__coll__graph_org.svg" target="_base">
           <rect id="button" ry="5" rx="5" y="6" x="6" height="38" width="38"
                fill="#f2f5e9" fill-opacity="0.5" stroke="#606060" stroke-width="1.0"/>
           <path id="arrow"
             d="M 11.500037,31.436501 C 11.940474,20.09759 22.043105,11.32322 32.158766,21.979434 L 37.068811,17.246167 C 37.068811,17.246167 37.088388,32 37.088388,32 L 22.160133,31.978069 C 22.160133,31.978069 26.997745,27.140456 26.997745,27.140456 C 18.528582,18.264221 13.291696,25.230495 11.500037,31.436501 z"
             style="fill:#404040;"/>
          </a>
         </g>
        </svg>
</svg>
