<?xml version="1.0" encoding="UTF-8" standalone="no"?>
<!DOCTYPE svg PUBLIC "-//W3C//DTD SVG 1.1//EN"
 "http://www.w3.org/Graphics/SVG/1.1/DTD/svg11.dtd">
<!-- Generated by graphviz version 2.36.0 (20140111.2315)
 -->
<!-- Title: fwTest::generator::Mesh::generateMesh Pages: 1 -->
<svg width="686pt" height="87pt"
 viewBox="0.00 0.00 686.00 87.00" xmlns="http://www.w3.org/2000/svg" xmlns:xlink="http://www.w3.org/1999/xlink">
<g id="graph0" class="graph" transform="scale(1 1) rotate(0) translate(4 83)">
<title>fwTest::generator::Mesh::generateMesh</title>
<polygon fill="white" stroke="none" points="-4,4 -4,-83 682,-83 682,4 -4,4"/>
<!-- Node1 -->
<g id="node1" class="node"><title>Node1</title>
<polygon fill="#bfbfbf" stroke="black" points="0,-24 0,-54 108,-54 108,-24 0,-24"/>
<text text-anchor="start" x="8" y="-42" font-family="Helvetica,sans-Serif" font-size="10.00">fwTest::generator::</text>
<text text-anchor="middle" x="54" y="-31" font-family="Helvetica,sans-Serif" font-size="10.00">Mesh::generateMesh</text>
</g>
<!-- Node2 -->
<g id="node2" class="node"><title>Node2</title>
<g id="a_node2"><a xlink:href="classfwTest_1_1generator_1_1SeriesDB.html#adf39c6a1621bbd47984fa653c503a587" target="_top" xlink:title="Generate a reconstruction. ">
<polygon fill="white" stroke="black" points="144,-24 144,-54 312,-54 312,-24 144,-24"/>
<text text-anchor="start" x="152" y="-42" font-family="Helvetica,sans-Serif" font-size="10.00">fwTest::generator::</text>
<text text-anchor="middle" x="228" y="-31" font-family="Helvetica,sans-Serif" font-size="10.00">SeriesDB::generateReconstruction</text>
</a>
</g>
</g>
<!-- Node1&#45;&gt;Node2 -->
<g id="edge1" class="edge"><title>Node1&#45;&gt;Node2</title>
<path fill="none" stroke="midnightblue" d="M118.056,-39C126.439,-39 135.136,-39 143.796,-39"/>
<polygon fill="midnightblue" stroke="midnightblue" points="118.009,-35.5001 108.009,-39 118.009,-42.5001 118.009,-35.5001"/>
</g>
<!-- Node3 -->
<g id="node3" class="node"><title>Node3</title>
<g id="a_node3"><a xlink:href="classfwTest_1_1generator_1_1Object.html#a3bd0ae3313d9d8c4de1dbc9239327d2c" target="_top" xlink:title="Creates a Resection with 2 planes, 1 input Reconstruction and 1 output Reconstruction. ">
<polygon fill="white" stroke="black" points="354.5,-49 354.5,-79 487.5,-79 487.5,-49 354.5,-49"/>
<text text-anchor="start" x="362.5" y="-67" font-family="Helvetica,sans-Serif" font-size="10.00">fwTest::generator::</text>
<text text-anchor="middle" x="421" y="-56" font-family="Helvetica,sans-Serif" font-size="10.00">Object::generateResection</text>
</a>
</g>
</g>
<!-- Node2&#45;&gt;Node3 -->
<g id="edge2" class="edge"><title>Node2&#45;&gt;Node3</title>
<path fill="none" stroke="midnightblue" d="M322.159,-51.1936C333.012,-52.6141 343.905,-54.0399 354.277,-55.3975"/>
<polygon fill="midnightblue" stroke="midnightblue" points="322.589,-47.7202 312.22,-49.8926 321.681,-54.661 322.589,-47.7202"/>
</g>
<!-- Node5 -->
<g id="node5" class="node"><title>Node5</title>
<g id="a_node5"><a xlink:href="classfwTest_1_1generator_1_1SeriesDB.html#a0ee07722d0f1c74347d0966dc85049ac" target="_top" xlink:title="Returns a ModelSeries containing random Reconstructions. ">
<polygon fill="white" stroke="black" points="348,-0 348,-30 494,-30 494,-0 348,-0"/>
<text text-anchor="start" x="356" y="-18" font-family="Helvetica,sans-Serif" font-size="10.00">fwTest::generator::</text>
<text text-anchor="middle" x="421" y="-7" font-family="Helvetica,sans-Serif" font-size="10.00">SeriesDB::createModelSeries</text>
</a>
</g>
</g>
<!-- Node2&#45;&gt;Node5 -->
<g id="edge4" class="edge"><title>Node2&#45;&gt;Node5</title>
<path fill="none" stroke="midnightblue" d="M322.273,-27.2798C330.86,-26.2008 339.472,-25.1187 347.829,-24.0686"/>
<polygon fill="midnightblue" stroke="midnightblue" points="321.705,-23.8235 312.22,-28.5431 322.578,-30.7689 321.705,-23.8235"/>
</g>
<!-- Node4 -->
<g id="node4" class="node"><title>Node4</title>
<g id="a_node4"><a xlink:href="classfwTest_1_1generator_1_1Object.html#aec8448030a011689b1c3832dd325d401" target="_top" xlink:title="Creates a ResectionDB containing one Resection. ">
<polygon fill="white" stroke="black" points="530.5,-49 530.5,-79 677.5,-79 677.5,-49 530.5,-49"/>
<text text-anchor="start" x="538.5" y="-67" font-family="Helvetica,sans-Serif" font-size="10.00">fwTest::generator::</text>
<text text-anchor="middle" x="604" y="-56" font-family="Helvetica,sans-Serif" font-size="10.00">Object::generateResectionDB</text>
</a>
</g>
</g>
<!-- Node3&#45;&gt;Node4 -->
<g id="edge3" class="edge"><title>Node3&#45;&gt;Node4</title>
<path fill="none" stroke="midnightblue" d="M497.8,-64C508.549,-64 519.583,-64 530.272,-64"/>
<polygon fill="midnightblue" stroke="midnightblue" points="497.601,-60.5001 487.601,-64 497.601,-67.5001 497.601,-60.5001"/>
</g>
<!-- Node6 -->
<g id="node6" class="node"><title>Node6</title>
<g id="a_node6"><a xlink:href="classfwTest_1_1generator_1_1SeriesDB.html#a0de89a71e6ef0a53ebdfa94e71a1f4a0" target="_top" xlink:title="Creates a SeriesDB. ">
<polygon fill="white" stroke="black" points="537,-0 537,-30 671,-30 671,-0 537,-0"/>
<text text-anchor="start" x="545" y="-18" font-family="Helvetica,sans-Serif" font-size="10.00">fwTest::generator::</text>
<text text-anchor="middle" x="604" y="-7" font-family="Helvetica,sans-Serif" font-size="10.00">SeriesDB::createSeriesDB</text>
</a>
</g>
</g>
<!-- Node5&#45;&gt;Node6 -->
<g id="edge5" class="edge"><title>Node5&#45;&gt;Node6</title>
<path fill="none" stroke="midnightblue" d="M504.388,-15C515.236,-15 526.24,-15 536.771,-15"/>
<polygon fill="midnightblue" stroke="midnightblue" points="504.056,-11.5001 494.056,-15 504.056,-18.5001 504.056,-11.5001"/>
</g>
</g>
</svg>
