<?xml version="1.0" encoding="UTF-8" standalone="no"?>
<!DOCTYPE svg PUBLIC "-//W3C//DTD SVG 1.1//EN"
 "http://www.w3.org/Graphics/SVG/1.1/DTD/svg11.dtd">
<!-- Generated by graphviz version 2.36.0 (20140111.2315)
 -->
<!-- Title: fwGui::dialog::LocationDialog Pages: 1 -->
<svg width="152pt" height="276pt"
 viewBox="0.00 0.00 152.00 276.00" xmlns="http://www.w3.org/2000/svg" xmlns:xlink="http://www.w3.org/1999/xlink">
<g id="graph0" class="graph" transform="scale(1 1) rotate(0) translate(4 272)">
<title>fwGui::dialog::LocationDialog</title>
<polygon fill="white" stroke="none" points="-4,4 -4,-272 148,-272 148,4 -4,4"/>
<!-- Node1 -->
<g id="node1" class="node"><title>Node1</title>
<polygon fill="#bfbfbf" stroke="black" points="0,-0.5 0,-19.5 144,-19.5 144,-0.5 0,-0.5"/>
<text text-anchor="middle" x="72" y="-7.5" font-family="Helvetica,sans-Serif" font-size="10.00">fwGui::dialog::LocationDialog</text>
</g>
<!-- Node2 -->
<g id="node2" class="node"><title>Node2</title>
<g id="a_node2"><a xlink:href="classfwGui_1_1dialog_1_1ILocationDialog.html" target="_top" xlink:title="fwGui::dialog::ILocation\lDialog">
<polygon fill="white" stroke="black" points="12.5,-57 12.5,-87 131.5,-87 131.5,-57 12.5,-57"/>
<text text-anchor="start" x="20.5" y="-75" font-family="Helvetica,sans-Serif" font-size="10.00">fwGui::dialog::ILocation</text>
<text text-anchor="middle" x="72" y="-64" font-family="Helvetica,sans-Serif" font-size="10.00">Dialog</text>
</a>
</g>
</g>
<!-- Node2&#45;&gt;Node1 -->
<g id="edge1" class="edge"><title>Node2&#45;&gt;Node1</title>
<path fill="none" stroke="midnightblue" d="M72,-46.5858C72,-37.0743 72,-26.7864 72,-19.7305"/>
<polygon fill="midnightblue" stroke="midnightblue" points="68.5001,-46.7808 72,-56.7808 75.5001,-46.7809 68.5001,-46.7808"/>
</g>
<!-- Node3 -->
<g id="node3" class="node"><title>Node3</title>
<g id="a_node3"><a xlink:href="classfwGui_1_1GuiBaseObject.html" target="_top" xlink:title="Base class for all fwGui&#39;s classes. ">
<polygon fill="white" stroke="black" points="15,-124.5 15,-143.5 129,-143.5 129,-124.5 15,-124.5"/>
<text text-anchor="middle" x="72" y="-131.5" font-family="Helvetica,sans-Serif" font-size="10.00">fwGui::GuiBaseObject</text>
</a>
</g>
</g>
<!-- Node3&#45;&gt;Node2 -->
<g id="edge2" class="edge"><title>Node3&#45;&gt;Node2</title>
<path fill="none" stroke="midnightblue" d="M72,-114.371C72,-105.585 72,-95.2721 72,-87.1408"/>
<polygon fill="midnightblue" stroke="midnightblue" points="68.5001,-114.403 72,-124.403 75.5001,-114.403 68.5001,-114.403"/>
</g>
<!-- Node4 -->
<g id="node4" class="node"><title>Node4</title>
<g id="a_node4"><a xlink:href="classfwCore_1_1BaseObject.html" target="_top" xlink:title="Base class for all FW4SPL&#39;s classes. ">
<polygon fill="white" stroke="black" points="19.5,-180.5 19.5,-199.5 124.5,-199.5 124.5,-180.5 19.5,-180.5"/>
<text text-anchor="middle" x="72" y="-187.5" font-family="Helvetica,sans-Serif" font-size="10.00">fwCore::BaseObject</text>
</a>
</g>
</g>
<!-- Node4&#45;&gt;Node3 -->
<g id="edge3" class="edge"><title>Node4&#45;&gt;Node3</title>
<path fill="none" stroke="midnightblue" d="M72,-169.805C72,-160.91 72,-150.78 72,-143.751"/>
<polygon fill="midnightblue" stroke="midnightblue" points="68.5001,-170.083 72,-180.083 75.5001,-170.083 68.5001,-170.083"/>
</g>
<!-- Node5 -->
<g id="node5" class="node"><title>Node5</title>
<polygon fill="white" stroke="#bfbfbf" points="6.5,-237 6.5,-267 137.5,-267 137.5,-237 6.5,-237"/>
<text text-anchor="start" x="14.5" y="-255" font-family="Helvetica,sans-Serif" font-size="10.00">std::enable_shared</text>
<text text-anchor="middle" x="72" y="-244" font-family="Helvetica,sans-Serif" font-size="10.00">_from_this&lt; BaseObject &gt;</text>
</g>
<!-- Node5&#45;&gt;Node4 -->
<g id="edge4" class="edge"><title>Node5&#45;&gt;Node4</title>
<path fill="none" stroke="midnightblue" d="M72,-226.586C72,-217.074 72,-206.786 72,-199.731"/>
<polygon fill="midnightblue" stroke="midnightblue" points="68.5001,-226.781 72,-236.781 75.5001,-226.781 68.5001,-226.781"/>
</g>
</g>
</svg>
