<?xml version="1.0" encoding="UTF-8" standalone="no"?>
<!DOCTYPE svg PUBLIC "-//W3C//DTD SVG 1.1//EN"
 "http://www.w3.org/Graphics/SVG/1.1/DTD/svg11.dtd">
<!-- Generated by graphviz version 2.36.0 (20140111.2315)
 -->
<!-- Title: uiMeasurementQt::editor::Distance::starting Pages: 1 -->
<svg width="662pt" height="93pt"
 viewBox="0.00 0.00 662.00 93.00" xmlns="http://www.w3.org/2000/svg" xmlns:xlink="http://www.w3.org/1999/xlink">
<g id="graph0" class="graph" transform="scale(1 1) rotate(0) translate(4 89)">
<title>uiMeasurementQt::editor::Distance::starting</title>
<polygon fill="white" stroke="none" points="-4,4 -4,-89 658,-89 658,4 -4,4"/>
<!-- Node1 -->
<g id="node1" class="node"><title>Node1</title>
<polygon fill="#bfbfbf" stroke="black" points="0,-24 0,-54 124,-54 124,-24 0,-24"/>
<text text-anchor="start" x="8" y="-42" font-family="Helvetica,sans-Serif" font-size="10.00">uiMeasurementQt::editor</text>
<text text-anchor="middle" x="62" y="-31" font-family="Helvetica,sans-Serif" font-size="10.00">::Distance::starting</text>
</g>
<!-- Node2 -->
<g id="node2" class="node"><title>Node2</title>
<g id="a_node2"><a xlink:href="classfwGui_1_1IGuiContainerSrv.html#ad196e4e9f0f17f9d49454df0cb3536f4" target="_top" xlink:title="Creates view, sub&#45;views and toolbar containers. Manages sub&#45;views and toobar services. ">
<polygon fill="white" stroke="black" points="171.5,-49 171.5,-79 294.5,-79 294.5,-49 171.5,-49"/>
<text text-anchor="start" x="179.5" y="-67" font-family="Helvetica,sans-Serif" font-size="10.00">fwGui::IGuiContainerSrv</text>
<text text-anchor="middle" x="233" y="-56" font-family="Helvetica,sans-Serif" font-size="10.00">::create</text>
</a>
</g>
</g>
<!-- Node1&#45;&gt;Node2 -->
<g id="edge1" class="edge"><title>Node1&#45;&gt;Node2</title>
<path fill="none" stroke="midnightblue" d="M124.013,-48.0256C136.053,-49.8066 148.784,-51.6899 161.117,-53.5144"/>
<polygon fill="midnightblue" stroke="midnightblue" points="160.956,-57.0285 171.36,-55.0296 161.98,-50.1038 160.956,-57.0285"/>
</g>
<!-- Node5 -->
<g id="node5" class="node"><title>Node5</title>
<g id="a_node5"><a xlink:href="classuiMeasurementQt_1_1editor_1_1Distance.html#a8905a2fda2e494561179766449be2289" target="_top" xlink:title="Notify the scene that a distance is added. ">
<polygon fill="white" stroke="black" points="160,-0 160,-30 306,-30 306,-0 160,-0"/>
<text text-anchor="start" x="168" y="-18" font-family="Helvetica,sans-Serif" font-size="10.00">uiMeasurementQt::editor</text>
<text text-anchor="middle" x="233" y="-7" font-family="Helvetica,sans-Serif" font-size="10.00">::Distance::onDistanceButton</text>
</a>
</g>
</g>
<!-- Node1&#45;&gt;Node5 -->
<g id="edge4" class="edge"><title>Node1&#45;&gt;Node5</title>
<path fill="none" stroke="midnightblue" d="M124.013,-30.3354C132.371,-29.1484 141.063,-27.9141 149.723,-26.6842"/>
<polygon fill="midnightblue" stroke="midnightblue" points="150.445,-30.1169 159.854,-25.2456 149.461,-23.1865 150.445,-30.1169"/>
</g>
<!-- Node3 -->
<g id="node3" class="node"><title>Node3</title>
<g id="a_node3"><a xlink:href="classfwServices_1_1registry_1_1ActiveWorkers.html#aae9d40e1fe222f0d14ac8284d3abf83c" target="_top" xlink:title="Get the default registered worker. ">
<polygon fill="white" stroke="black" points="342,-43.5 342,-84.5 480,-84.5 480,-43.5 342,-43.5"/>
<text text-anchor="start" x="350" y="-72.5" font-family="Helvetica,sans-Serif" font-size="10.00">fwServices::registry</text>
<text text-anchor="start" x="350" y="-61.5" font-family="Helvetica,sans-Serif" font-size="10.00">::ActiveWorkers::getDefault</text>
<text text-anchor="middle" x="411" y="-50.5" font-family="Helvetica,sans-Serif" font-size="10.00">Worker</text>
</a>
</g>
</g>
<!-- Node2&#45;&gt;Node3 -->
<g id="edge2" class="edge"><title>Node2&#45;&gt;Node3</title>
<path fill="none" stroke="midnightblue" d="M294.569,-64C306.455,-64 319.082,-64 331.457,-64"/>
<polygon fill="midnightblue" stroke="midnightblue" points="331.771,-67.5001 341.771,-64 331.771,-60.5001 331.771,-67.5001"/>
</g>
<!-- Node4 -->
<g id="node4" class="node"><title>Node4</title>
<g id="a_node4"><a xlink:href="classfwServices_1_1registry_1_1ActiveWorkers.html#a96003a042657996f7297f459e927ae16" target="_top" xlink:title="Returns an instance of ActiveWorkers. ">
<polygon fill="white" stroke="black" points="516,-49 516,-79 654,-79 654,-49 516,-49"/>
<text text-anchor="start" x="524" y="-67" font-family="Helvetica,sans-Serif" font-size="10.00">fwServices::registry</text>
<text text-anchor="middle" x="585" y="-56" font-family="Helvetica,sans-Serif" font-size="10.00">::ActiveWorkers::getDefault</text>
</a>
</g>
</g>
<!-- Node3&#45;&gt;Node4 -->
<g id="edge3" class="edge"><title>Node3&#45;&gt;Node4</title>
<path fill="none" stroke="midnightblue" d="M480.473,-64C488.732,-64 497.216,-64 505.602,-64"/>
<polygon fill="midnightblue" stroke="midnightblue" points="505.762,-67.5001 515.762,-64 505.762,-60.5001 505.762,-67.5001"/>
</g>
</g>
</svg>
