<?xml version="1.0" encoding="UTF-8" standalone="no"?>
<!DOCTYPE svg PUBLIC "-//W3C//DTD SVG 1.1//EN"
 "http://www.w3.org/Graphics/SVG/1.1/DTD/svg11.dtd">
<!-- Generated by graphviz version 2.26.3 (20100126.1600)
 -->
<!-- Title: fwPacsIO::helper::Series::releaseResponses Pages: 1 -->
<svg width="442pt" height="94pt"
 viewBox="0.00 0.00 442.00 94.00" xmlns="http://www.w3.org/2000/svg" xmlns:xlink="http://www.w3.org/1999/xlink">
<g id="graph1" class="graph" transform="scale(1 1) rotate(0) translate(4 90)">
<title>fwPacsIO::helper::Series::releaseResponses</title>
<polygon fill="white" stroke="white" points="-4,5 -4,-90 439,-90 439,5 -4,5"/>
<!-- Node1 -->
<g id="node1" class="node"><title>Node1</title>
<polygon fill="#bfbfbf" stroke="black" points="0,-26 0,-60 126,-60 126,-26 0,-26"/>
<text text-anchor="start" x="8" y="-47" font-family="Helvetica,sans-Serif" font-size="10.00">fwPacsIO::helper::Series</text>
<text text-anchor="middle" x="63" y="-34" font-family="Helvetica,sans-Serif" font-size="10.00">::releaseResponses</text>
</g>
<!-- Node2 -->
<g id="node3" class="node"><title>Node2</title>
<a xlink:href="classioPacs_1_1SSeriesPusher.html#ade533f9528a80a56d23091542c946742" target="_top" xlink:title="Check whether some series are already on the PACS. ">
<polygon fill="white" stroke="black" points="162,-52 162,-86 280,-86 280,-52 162,-52"/>
<text text-anchor="start" x="170" y="-73" font-family="Helvetica,sans-Serif" font-size="10.00">ioPacs::SSeriesPusher</text>
<text text-anchor="middle" x="221" y="-60" font-family="Helvetica,sans-Serif" font-size="10.00">::checkSeriesOnPACS</text>
</a>
</g>
<!-- Node1&#45;&gt;Node2 -->
<g id="edge2" class="edge"><title>Node1&#45;&gt;Node2</title>
<path fill="none" stroke="midnightblue" d="M136.368,-55.0733C144.954,-56.4862 153.63,-57.9138 161.986,-59.2888"/>
<polygon fill="midnightblue" stroke="midnightblue" points="136.79,-51.5956 126.354,-53.4254 135.653,-58.5028 136.79,-51.5956"/>
</g>
<!-- Node4 -->
<g id="node7" class="node"><title>Node4</title>
<a xlink:href="classioPacs_1_1SQueryEditor.html#ac38e40feb691180c7de475b658bf2178" target="_top" xlink:title="Override. ">
<polygon fill="white" stroke="black" points="165.5,-0 165.5,-34 276.5,-34 276.5,-0 165.5,-0"/>
<text text-anchor="start" x="173.5" y="-21" font-family="Helvetica,sans-Serif" font-size="10.00">ioPacs::SQueryEditor</text>
<text text-anchor="middle" x="221" y="-8" font-family="Helvetica,sans-Serif" font-size="10.00">::updating</text>
</a>
</g>
<!-- Node1&#45;&gt;Node4 -->
<g id="edge6" class="edge"><title>Node1&#45;&gt;Node4</title>
<path fill="none" stroke="midnightblue" d="M136.405,-30.9207C146.113,-29.3232 155.934,-27.7071 165.278,-26.1695"/>
<polygon fill="midnightblue" stroke="midnightblue" points="135.653,-27.4972 126.354,-32.5746 136.79,-34.4044 135.653,-27.4972"/>
</g>
<!-- Node3 -->
<g id="node5" class="node"><title>Node3</title>
<a xlink:href="classioPacs_1_1SSeriesPusher.html#a17776e89b133a3057f5c698d68ef8b4f" target="_top" xlink:title="Override. ">
<polygon fill="white" stroke="black" points="316,-52 316,-86 434,-86 434,-52 316,-52"/>
<text text-anchor="start" x="324" y="-73" font-family="Helvetica,sans-Serif" font-size="10.00">ioPacs::SSeriesPusher</text>
<text text-anchor="middle" x="375" y="-60" font-family="Helvetica,sans-Serif" font-size="10.00">::updating</text>
</a>
</g>
<!-- Node2&#45;&gt;Node3 -->
<g id="edge4" class="edge"><title>Node2&#45;&gt;Node3</title>
<path fill="none" stroke="midnightblue" d="M290.369,-69C298.862,-69 307.48,-69 315.804,-69"/>
<polygon fill="midnightblue" stroke="midnightblue" points="290.1,-65.5001 280.1,-69 290.1,-72.5001 290.1,-65.5001"/>
</g>
</g>
</svg>
