<?xml version="1.0" encoding="UTF-8" standalone="no"?>
<!DOCTYPE svg PUBLIC "-//W3C//DTD SVG 1.1//EN"
 "http://www.w3.org/Graphics/SVG/1.1/DTD/svg11.dtd">
<!-- Generated by graphviz version 2.36.0 (20140111.2315)
 -->
<!-- Title: scene2D::adaptor::SViewportRangeSelector::updateViewportFromShutter Pages: 1 -->
<svg width="682pt" height="169pt"
 viewBox="0.00 0.00 682.00 169.00" xmlns="http://www.w3.org/2000/svg" xmlns:xlink="http://www.w3.org/1999/xlink">
<g id="graph0" class="graph" transform="scale(1 1) rotate(0) translate(4 165)">
<title>scene2D::adaptor::SViewportRangeSelector::updateViewportFromShutter</title>
<polygon fill="white" stroke="none" points="-4,4 -4,-165 678,-165 678,4 -4,4"/>
<!-- Node1 -->
<g id="node1" class="node"><title>Node1</title>
<polygon fill="#bfbfbf" stroke="black" points="0.5,-43.5 0.5,-84.5 177.5,-84.5 177.5,-43.5 0.5,-43.5"/>
<text text-anchor="start" x="8.5" y="-72.5" font-family="Helvetica,sans-Serif" font-size="10.00">scene2D::adaptor::SViewport</text>
<text text-anchor="start" x="8.5" y="-61.5" font-family="Helvetica,sans-Serif" font-size="10.00">RangeSelector::updateViewportFrom</text>
<text text-anchor="middle" x="89" y="-50.5" font-family="Helvetica,sans-Serif" font-size="10.00">Shutter</text>
</g>
<!-- Node2 -->
<g id="node2" class="node"><title>Node2</title>
<g id="a_node2"><a xlink:href="classfwRenderQt_1_1IAdaptor.html#a19c26b1617582f56cb477d6c26bdb2b9" target="_top" xlink:title="Get the render that manages the IAdaptor. ">
<polygon fill="white" stroke="black" points="215,-98 215,-128 327,-128 327,-98 215,-98"/>
<text text-anchor="start" x="223" y="-116" font-family="Helvetica,sans-Serif" font-size="10.00">fwRenderQt::IAdaptor</text>
<text text-anchor="middle" x="271" y="-105" font-family="Helvetica,sans-Serif" font-size="10.00">::getScene2DRender</text>
</a>
</g>
</g>
<!-- Node1&#45;&gt;Node2 -->
<g id="edge1" class="edge"><title>Node1&#45;&gt;Node2</title>
<path fill="none" stroke="midnightblue" d="M165.554,-84.5674C178.74,-88.1571 192.352,-91.8625 205.216,-95.3643"/>
<polygon fill="midnightblue" stroke="midnightblue" points="204.319,-98.7476 214.888,-97.9972 206.158,-91.9934 204.319,-98.7476"/>
</g>
<!-- Node7 -->
<g id="node7" class="node"><title>Node7</title>
<g id="a_node7"><a xlink:href="classfwRenderQt_1_1IAdaptor.html#aafb0b1479c046c3bedf55291c2226019" target="_top" xlink:title="fwRenderQt::IAdaptor\l::mapAdaptorToScene">
<polygon fill="white" stroke="black" points="214,-49 214,-79 328,-79 328,-49 214,-49"/>
<text text-anchor="start" x="222" y="-67" font-family="Helvetica,sans-Serif" font-size="10.00">fwRenderQt::IAdaptor</text>
<text text-anchor="middle" x="271" y="-56" font-family="Helvetica,sans-Serif" font-size="10.00">::mapAdaptorToScene</text>
</a>
</g>
</g>
<!-- Node1&#45;&gt;Node7 -->
<g id="edge6" class="edge"><title>Node1&#45;&gt;Node7</title>
<path fill="none" stroke="midnightblue" d="M177.627,-64C186.399,-64 195.201,-64 203.699,-64"/>
<polygon fill="midnightblue" stroke="midnightblue" points="203.892,-67.5001 213.892,-64 203.892,-60.5001 203.892,-67.5001"/>
</g>
<!-- Node8 -->
<g id="node8" class="node"><title>Node8</title>
<g id="a_node8"><a xlink:href="classfwRenderQt_1_1IAdaptor.html#a26ecbf727f6351329041a3e17eb44065" target="_top" xlink:title="fwRenderQt::IAdaptor\l::mapSceneToAdaptor">
<polygon fill="white" stroke="black" points="214,-0 214,-30 328,-30 328,-0 214,-0"/>
<text text-anchor="start" x="222" y="-18" font-family="Helvetica,sans-Serif" font-size="10.00">fwRenderQt::IAdaptor</text>
<text text-anchor="middle" x="271" y="-7" font-family="Helvetica,sans-Serif" font-size="10.00">::mapSceneToAdaptor</text>
</a>
</g>
</g>
<!-- Node1&#45;&gt;Node8 -->
<g id="edge7" class="edge"><title>Node1&#45;&gt;Node8</title>
<path fill="none" stroke="midnightblue" d="M165.554,-43.4326C178.74,-39.8429 192.352,-36.1375 205.216,-32.6357"/>
<polygon fill="midnightblue" stroke="midnightblue" points="206.158,-36.0066 214.888,-30.0028 204.319,-29.2524 206.158,-36.0066"/>
</g>
<!-- Node3 -->
<g id="node3" class="node"><title>Node3</title>
<g id="a_node3"><a xlink:href="classfwTools_1_1fwID.html#a387264565a48b0231a7eefb7b01512a1" target="_top" xlink:title="Returns the id of the object. If it is not set and the policy value is. ">
<polygon fill="white" stroke="black" points="373,-122.5 373,-141.5 481,-141.5 481,-122.5 373,-122.5"/>
<text text-anchor="middle" x="427" y="-129.5" font-family="Helvetica,sans-Serif" font-size="10.00">fwTools::fwID::getID</text>
</a>
</g>
</g>
<!-- Node2&#45;&gt;Node3 -->
<g id="edge2" class="edge"><title>Node2&#45;&gt;Node3</title>
<path fill="none" stroke="midnightblue" d="M327.163,-119.806C338.644,-121.222 350.832,-122.726 362.583,-124.176"/>
<polygon fill="midnightblue" stroke="midnightblue" points="362.416,-127.682 372.769,-125.433 363.273,-120.734 362.416,-127.682"/>
</g>
<!-- Node6 -->
<g id="node6" class="node"><title>Node6</title>
<g id="a_node6"><a xlink:href="classfwTools_1_1fwID.html#a49c219235064892bb906498913fe8175" target="_top" xlink:title="Retrieve the object attached to the given id. Return a null sptr if no correspondence exist...">
<polygon fill="white" stroke="black" points="364,-84.5 364,-103.5 490,-103.5 490,-84.5 364,-84.5"/>
<text text-anchor="middle" x="427" y="-91.5" font-family="Helvetica,sans-Serif" font-size="10.00">fwTools::fwID::getObject</text>
</a>
</g>
</g>
<!-- Node2&#45;&gt;Node6 -->
<g id="edge5" class="edge"><title>Node2&#45;&gt;Node6</title>
<path fill="none" stroke="midnightblue" d="M327.163,-106.194C335.816,-105.127 344.871,-104.009 353.838,-102.903"/>
<polygon fill="midnightblue" stroke="midnightblue" points="354.402,-106.36 363.898,-101.662 353.545,-99.4128 354.402,-106.36"/>
</g>
<!-- Node4 -->
<g id="node4" class="node"><title>Node4</title>
<g id="a_node4"><a xlink:href="classfwTools_1_1fwID.html#a4ac18bb9c046c3fd04a4c8a80add7ae6" target="_top" xlink:title="fwTools::fwID::exist">
<polygon fill="white" stroke="black" points="547.5,-141.5 547.5,-160.5 652.5,-160.5 652.5,-141.5 547.5,-141.5"/>
<text text-anchor="middle" x="600" y="-148.5" font-family="Helvetica,sans-Serif" font-size="10.00">fwTools::fwID::exist</text>
</a>
</g>
</g>
<!-- Node3&#45;&gt;Node4 -->
<g id="edge3" class="edge"><title>Node3&#45;&gt;Node4</title>
<path fill="none" stroke="midnightblue" d="M481.168,-137.908C498.954,-139.884 518.928,-142.103 537.307,-144.145"/>
<polygon fill="midnightblue" stroke="midnightblue" points="537.005,-147.633 547.33,-145.259 537.778,-140.676 537.005,-147.633"/>
</g>
<!-- Node5 -->
<g id="node5" class="node"><title>Node5</title>
<g id="a_node5"><a xlink:href="classfwTools_1_1fwID.html#a03d6d0e2227b51a0630e145911445213" target="_top" xlink:title="return full object&#39;s classname with its namespace, i.e. fwCore::BaseObject ">
<polygon fill="white" stroke="black" points="526.5,-103.5 526.5,-122.5 673.5,-122.5 673.5,-103.5 526.5,-103.5"/>
<text text-anchor="middle" x="600" y="-110.5" font-family="Helvetica,sans-Serif" font-size="10.00">fwTools::fwID::getClassname</text>
</a>
</g>
</g>
<!-- Node3&#45;&gt;Node5 -->
<g id="edge4" class="edge"><title>Node3&#45;&gt;Node5</title>
<path fill="none" stroke="midnightblue" d="M481.168,-126.092C492.351,-124.85 504.399,-123.511 516.372,-122.181"/>
<polygon fill="midnightblue" stroke="midnightblue" points="516.839,-125.651 526.392,-121.068 516.066,-118.693 516.839,-125.651"/>
</g>
</g>
</svg>
