<?xml version="1.0" encoding="UTF-8" standalone="no"?>
<!DOCTYPE svg PUBLIC "-//W3C//DTD SVG 1.1//EN"
 "http://www.w3.org/Graphics/SVG/1.1/DTD/svg11.dtd">
<!-- Generated by graphviz version 2.36.0 (20140111.2315)
 -->
<!-- Title: fwDicomIOFilter::splitter::ImagePositionPatientSplitter Pages: 1 -->
<svg width="394pt" height="374pt"
 viewBox="0.00 0.00 394.00 374.00" xmlns="http://www.w3.org/2000/svg" xmlns:xlink="http://www.w3.org/1999/xlink">
<g id="graph0" class="graph" transform="scale(1 1) rotate(0) translate(4 370)">
<title>fwDicomIOFilter::splitter::ImagePositionPatientSplitter</title>
<polygon fill="white" stroke="none" points="-4,4 -4,-370 390,-370 390,4 -4,4"/>
<!-- Node1 -->
<g id="node1" class="node"><title>Node1</title>
<polygon fill="#bfbfbf" stroke="black" points="173,-1 173,-31 319,-31 319,-1 173,-1"/>
<text text-anchor="start" x="181" y="-19" font-family="Helvetica,sans-Serif" font-size="10.00">fwDicomIOFilter::splitter</text>
<text text-anchor="middle" x="246" y="-8" font-family="Helvetica,sans-Serif" font-size="10.00">::ImagePositionPatientSplitter</text>
</g>
<!-- Node2 -->
<g id="node2" class="node"><title>Node2</title>
<g id="a_node2"><a xlink:href="classfwDicomIOFilter_1_1splitter_1_1ISplitter.html" target="_top" xlink:title="Base class for Dicom instance splitter. ">
<polygon fill="white" stroke="black" points="109.5,-91 109.5,-121 232.5,-121 232.5,-91 109.5,-91"/>
<text text-anchor="start" x="117.5" y="-109" font-family="Helvetica,sans-Serif" font-size="10.00">fwDicomIOFilter::splitter</text>
<text text-anchor="middle" x="171" y="-98" font-family="Helvetica,sans-Serif" font-size="10.00">::ISplitter</text>
</a>
</g>
</g>
<!-- Node2&#45;&gt;Node1 -->
<g id="edge1" class="edge"><title>Node2&#45;&gt;Node1</title>
<path fill="none" stroke="midnightblue" d="M189.816,-82.9227C203.662,-66.6768 222.072,-45.075 233.98,-31.1036"/>
<polygon fill="midnightblue" stroke="midnightblue" points="186.873,-80.9801 183.05,-90.8613 192.2,-85.5207 186.873,-80.9801"/>
</g>
<!-- Node3 -->
<g id="node3" class="node"><title>Node3</title>
<g id="a_node3"><a xlink:href="classfwDicomIOFilter_1_1IFilter.html" target="_top" xlink:title="Base class for Dicom instance filter. ">
<polygon fill="white" stroke="black" points="111.5,-160.5 111.5,-179.5 230.5,-179.5 230.5,-160.5 111.5,-160.5"/>
<text text-anchor="middle" x="171" y="-167.5" font-family="Helvetica,sans-Serif" font-size="10.00">fwDicomIOFilter::IFilter</text>
</a>
</g>
</g>
<!-- Node3&#45;&gt;Node2 -->
<g id="edge2" class="edge"><title>Node3&#45;&gt;Node2</title>
<path fill="none" stroke="midnightblue" d="M171,-150.183C171,-140.886 171,-129.851 171,-121.263"/>
<polygon fill="midnightblue" stroke="midnightblue" points="167.5,-150.379 171,-160.379 174.5,-150.379 167.5,-150.379"/>
</g>
<!-- Node4 -->
<g id="node4" class="node"><title>Node4</title>
<g id="a_node4"><a xlink:href="classfwTools_1_1Object.html" target="_top" xlink:title="Define Base class for FW4SPL objects and services. ">
<polygon fill="white" stroke="black" points="128,-218.5 128,-237.5 214,-237.5 214,-218.5 128,-218.5"/>
<text text-anchor="middle" x="171" y="-225.5" font-family="Helvetica,sans-Serif" font-size="10.00">fwTools::Object</text>
</a>
</g>
</g>
<!-- Node4&#45;&gt;Node3 -->
<g id="edge3" class="edge"><title>Node4&#45;&gt;Node3</title>
<path fill="none" stroke="midnightblue" d="M171,-207.953C171,-198.287 171,-187.031 171,-179.505"/>
<polygon fill="midnightblue" stroke="midnightblue" points="167.5,-208.25 171,-218.25 174.5,-208.25 167.5,-208.25"/>
</g>
<!-- Node5 -->
<g id="node5" class="node"><title>Node5</title>
<g id="a_node5"><a xlink:href="classfwCore_1_1BaseObject.html" target="_top" xlink:title="Base class for all FW4SPL&#39;s classes. ">
<polygon fill="white" stroke="black" points="12.5,-276.5 12.5,-295.5 117.5,-295.5 117.5,-276.5 12.5,-276.5"/>
<text text-anchor="middle" x="65" y="-283.5" font-family="Helvetica,sans-Serif" font-size="10.00">fwCore::BaseObject</text>
</a>
</g>
</g>
<!-- Node5&#45;&gt;Node4 -->
<g id="edge4" class="edge"><title>Node5&#45;&gt;Node4</title>
<path fill="none" stroke="midnightblue" d="M89.9748,-271.806C109.99,-261.232 137.49,-246.703 154.749,-237.585"/>
<polygon fill="midnightblue" stroke="midnightblue" points="88.3061,-268.729 81.0991,-276.495 91.576,-274.918 88.3061,-268.729"/>
</g>
<!-- Node6 -->
<g id="node6" class="node"><title>Node6</title>
<polygon fill="white" stroke="#bfbfbf" points="-0.5,-335 -0.5,-365 130.5,-365 130.5,-335 -0.5,-335"/>
<text text-anchor="start" x="7.5" y="-353" font-family="Helvetica,sans-Serif" font-size="10.00">std::enable_shared</text>
<text text-anchor="middle" x="65" y="-342" font-family="Helvetica,sans-Serif" font-size="10.00">_from_this&lt; BaseObject &gt;</text>
</g>
<!-- Node6&#45;&gt;Node5 -->
<g id="edge5" class="edge"><title>Node6&#45;&gt;Node5</title>
<path fill="none" stroke="midnightblue" d="M65,-324.871C65,-314.663 65,-303.408 65,-295.842"/>
<polygon fill="midnightblue" stroke="midnightblue" points="61.5001,-324.931 65,-334.931 68.5001,-324.931 61.5001,-324.931"/>
</g>
<!-- Node7 -->
<g id="node7" class="node"><title>Node7</title>
<polygon fill="white" stroke="#bfbfbf" points="135.5,-276.5 135.5,-295.5 206.5,-295.5 206.5,-276.5 135.5,-276.5"/>
<text text-anchor="middle" x="171" y="-283.5" font-family="Helvetica,sans-Serif" font-size="10.00">noncopyable</text>
</g>
<!-- Node7&#45;&gt;Node4 -->
<g id="edge6" class="edge"><title>Node7&#45;&gt;Node4</title>
<path fill="none" stroke="midnightblue" d="M171,-265.953C171,-256.287 171,-245.031 171,-237.505"/>
<polygon fill="midnightblue" stroke="midnightblue" points="167.5,-266.25 171,-276.25 174.5,-266.25 167.5,-266.25"/>
</g>
<!-- Node8 -->
<g id="node8" class="node"><title>Node8</title>
<g id="a_node8"><a xlink:href="classfwTools_1_1fwID.html" target="_top" xlink:title="Defines ID for fwTools::Object. It is used to associate ID with object. ">
<polygon fill="white" stroke="black" points="225,-276.5 225,-295.5 303,-295.5 303,-276.5 225,-276.5"/>
<text text-anchor="middle" x="264" y="-283.5" font-family="Helvetica,sans-Serif" font-size="10.00">fwTools::fwID</text>
</a>
</g>
</g>
<!-- Node8&#45;&gt;Node4 -->
<g id="edge7" class="edge"><title>Node8&#45;&gt;Node4</title>
<path fill="none" stroke="darkgreen" d="M240.886,-271.082C223.441,-260.577 200.058,-246.497 185.258,-237.585"/>
<polygon fill="darkgreen" stroke="darkgreen" points="239.503,-274.335 249.875,-276.495 243.114,-268.338 239.503,-274.335"/>
</g>
<!-- Node9 -->
<g id="node9" class="node"><title>Node9</title>
<polygon fill="white" stroke="#bfbfbf" points="250.5,-96.5 250.5,-115.5 291.5,-115.5 291.5,-96.5 250.5,-96.5"/>
<text text-anchor="middle" x="271" y="-103.5" font-family="Helvetica,sans-Serif" font-size="10.00">static</text>
</g>
<!-- Node9&#45;&gt;Node1 -->
<g id="edge8" class="edge"><title>Node9&#45;&gt;Node1</title>
<path fill="none" stroke="#9a32cd" stroke-dasharray="5,2" d="M265.649,-86.1633C260.97,-69.6933 254.278,-46.1376 250.037,-31.209"/>
<polygon fill="#9a32cd" stroke="#9a32cd" points="262.412,-87.5776 268.512,-96.2405 269.145,-85.6647 262.412,-87.5776"/>
<text text-anchor="middle" x="324" y="-64" font-family="Helvetica,sans-Serif" font-size="10.00"> s_FILTER_DESCRIPTION</text>
<text text-anchor="middle" x="324" y="-53" font-family="Helvetica,sans-Serif" font-size="10.00">s_FILTER_NAME</text>
</g>
</g>
</svg>
