<?xml version="1.0" encoding="UTF-8" standalone="no"?>
<!DOCTYPE svg PUBLIC "-//W3C//DTD SVG 1.1//EN"
 "http://www.w3.org/Graphics/SVG/1.1/DTD/svg11.dtd">
<!-- Generated by graphviz version 2.36.0 (20140111.2315)
 -->
<!-- Title: fwPacsIO::SeriesEnquirer::findSeriesByPatientName Pages: 1 -->
<svg width="476pt" height="38pt"
 viewBox="0.00 0.00 476.00 38.00" xmlns="http://www.w3.org/2000/svg" xmlns:xlink="http://www.w3.org/1999/xlink">
<g id="graph0" class="graph" transform="scale(1 1) rotate(0) translate(4 34)">
<title>fwPacsIO::SeriesEnquirer::findSeriesByPatientName</title>
<polygon fill="white" stroke="none" points="-4,4 -4,-34 472,-34 472,4 -4,4"/>
<!-- Node1 -->
<g id="node1" class="node"><title>Node1</title>
<polygon fill="#bfbfbf" stroke="black" points="0.5,-0 0.5,-30 135.5,-30 135.5,-0 0.5,-0"/>
<text text-anchor="start" x="8.5" y="-18" font-family="Helvetica,sans-Serif" font-size="10.00">fwPacsIO::SeriesEnquirer</text>
<text text-anchor="middle" x="68" y="-7" font-family="Helvetica,sans-Serif" font-size="10.00">::findSeriesByPatientName</text>
</g>
<!-- Node2 -->
<g id="node2" class="node"><title>Node2</title>
<g id="a_node2"><a xlink:href="classfwPacsIO_1_1SeriesEnquirer.html#a80382078e2e6b9dd5dd04d4c437fb1c7" target="_top" xlink:title="Send Find Request. ">
<polygon fill="white" stroke="black" points="172,-0 172,-30 302,-30 302,-0 172,-0"/>
<text text-anchor="start" x="180" y="-18" font-family="Helvetica,sans-Serif" font-size="10.00">fwPacsIO::SeriesEnquirer</text>
<text text-anchor="middle" x="237" y="-7" font-family="Helvetica,sans-Serif" font-size="10.00">::sendFindRequest</text>
</a>
</g>
</g>
<!-- Node1&#45;&gt;Node2 -->
<g id="edge1" class="edge"><title>Node1&#45;&gt;Node2</title>
<path fill="none" stroke="midnightblue" d="M135.963,-15C144.35,-15 152.968,-15 161.462,-15"/>
<polygon fill="midnightblue" stroke="midnightblue" points="161.736,-18.5001 171.736,-15 161.736,-11.5001 161.736,-18.5001"/>
</g>
<!-- Node3 -->
<g id="node3" class="node"><title>Node3</title>
<g id="a_node3"><a xlink:href="classfwPacsIO_1_1SeriesEnquirer.html#acbde33bb4e4e9c3350a5787879beef28" target="_top" xlink:title="Find uncompressed presentation context. ">
<polygon fill="white" stroke="black" points="338,-0 338,-30 468,-30 468,-0 338,-0"/>
<text text-anchor="start" x="346" y="-18" font-family="Helvetica,sans-Serif" font-size="10.00">fwPacsIO::SeriesEnquirer</text>
<text text-anchor="middle" x="403" y="-7" font-family="Helvetica,sans-Serif" font-size="10.00">::findUncompressedPC</text>
</a>
</g>
</g>
<!-- Node2&#45;&gt;Node3 -->
<g id="edge2" class="edge"><title>Node2&#45;&gt;Node3</title>
<path fill="none" stroke="midnightblue" d="M302.346,-15C310.64,-15 319.187,-15 327.625,-15"/>
<polygon fill="midnightblue" stroke="midnightblue" points="327.839,-18.5001 337.839,-15 327.839,-11.5001 327.839,-18.5001"/>
</g>
</g>
</svg>
