<?xml version="1.0" encoding="UTF-8" standalone="no"?>
<!DOCTYPE svg PUBLIC "-//W3C//DTD SVG 1.1//EN"
 "http://www.w3.org/Graphics/SVG/1.1/DTD/svg11.dtd">
<!-- Generated by graphviz version 2.36.0 (20140111.2315)
 -->
<!-- Title: gui::editor::SJobBar Pages: 1 -->
<!--zoomable 284 -->
<svg id="main" version="1.1" xmlns="http://www.w3.org/2000/svg" xmlns:xlink="http://www.w3.org/1999/xlink" xml:space="preserve" onload="init(evt)">
<style type="text/css"><![CDATA[
.edge:hover path { stroke: red; }
.edge:hover polygon { stroke: red; fill: red; }
]]></style>
<script type="text/javascript"><![CDATA[
var edges = document.getElementsByTagName('g');
if (edges && edges.length) {
  for (var i=0;i<edges.length;i++) {
    if (edges[i].id.substr(0,4)=='edge') {
      edges[i].setAttribute('class','edge');
    }
  }
}
]]></script>
        <defs>
                <circle id="rim" cx="0" cy="0" r="7"/>
                <circle id="rim2" cx="0" cy="0" r="3.5"/>
                <g id="zoomPlus">
                        <use xlink:href="#rim" fill="#404040">
                                <set attributeName="fill" to="#808080" begin="zoomplus.mouseover" end="zoomplus.mouseout"/>
                        </use>
                        <path d="M-4,0h8M0,-4v8" fill="none" stroke="white" stroke-width="1.5" pointer-events="none"/>
                </g>
                <g id="zoomMin">
                        <use xlink:href="#rim" fill="#404040">
                                <set attributeName="fill" to="#808080" begin="zoomminus.mouseover" end="zoomminus.mouseout"/>
                        </use>
                        <path d="M-4,0h8" fill="none" stroke="white" stroke-width="1.5" pointer-events="none"/>
                </g>
                <g id="dirArrow">
                        <path fill="none" stroke="white" stroke-width="1.5" d="M0,-3.0v7 M-2.5,-0.5L0,-3.0L2.5,-0.5"/>
                </g>
               <g id="resetDef">
                       <use xlink:href="#rim2" fill="#404040">
                               <set attributeName="fill" to="#808080" begin="reset.mouseover" end="reset.mouseout"/>
                       </use>
               </g>
        </defs>

<script type="text/javascript">
var viewWidth = 1602;
var viewHeight = 284;
var sectionId = 'dynsection-1';
</script>
<script xlink:href="svgpan.js"/>
<svg id="graph" class="graph">
<g id="viewport">
<title>gui::editor::SJobBar</title>
<polygon fill="white" stroke="none" points="-4,4 -4,-280.214 1598,-280.214 1598,4 -4,4"/>
<!-- Node1 -->
<g id="node1" class="node"><title>Node1</title>
<polygon fill="#bfbfbf" stroke="black" points="1490.5,-211.714 1490.5,-230.714 1593.5,-230.714 1593.5,-211.714 1490.5,-211.714"/>
<text text-anchor="middle" x="1542" y="-218.714" font-family="Helvetica,sans-Serif" font-size="10.00">gui::editor::SJobBar</text>
</g>
<!-- Node2 -->
<g id="node2" class="node"><title>Node2</title>
<g id="a_node2"><a xlink:href="classfwGui_1_1editor_1_1IDialogEditor.html" target="_top" xlink:title="Defines the service interface managing the editor service which create their own container. ">
<polygon fill="white" stroke="black" points="1318,-181.714 1318,-200.714 1452,-200.714 1452,-181.714 1318,-181.714"/>
<text text-anchor="middle" x="1385" y="-188.714" font-family="Helvetica,sans-Serif" font-size="10.00">fwGui::editor::IDialogEditor</text>
</a>
</g>
</g>
<!-- Node2&#45;&gt;Node1 -->
<g id="edge1" class="edge"><title>Node2&#45;&gt;Node1</title>
<path fill="none" stroke="midnightblue" d="M1445.36,-202.704C1460.68,-205.668 1477,-208.826 1491.73,-211.679"/>
<polygon fill="midnightblue" stroke="midnightblue" points="1445.95,-199.253 1435.47,-200.789 1444.62,-206.125 1445.95,-199.253"/>
</g>
<!-- Node3 -->
<g id="node3" class="node"><title>Node3</title>
<g id="a_node3"><a xlink:href="classfwServices_1_1IService.html" target="_top" xlink:title="Base class for all services. ">
<polygon fill="white" stroke="black" points="1172.5,-149.714 1172.5,-168.714 1279.5,-168.714 1279.5,-149.714 1172.5,-149.714"/>
<text text-anchor="middle" x="1226" y="-156.714" font-family="Helvetica,sans-Serif" font-size="10.00">fwServices::IService</text>
</a>
</g>
</g>
<!-- Node3&#45;&gt;Node2 -->
<g id="edge2" class="edge"><title>Node3&#45;&gt;Node2</title>
<path fill="none" stroke="midnightblue" d="M1283.8,-170.79C1301.34,-174.366 1320.45,-178.26 1337.23,-181.681"/>
<polygon fill="midnightblue" stroke="midnightblue" points="1284.18,-167.296 1273.68,-168.728 1282.78,-174.155 1284.18,-167.296"/>
</g>
<!-- Node4 -->
<g id="node4" class="node"><title>Node4</title>
<g id="a_node4"><a xlink:href="classfwTools_1_1Object.html" target="_top" xlink:title="Define Base class for FW4SPL objects and services. ">
<polygon fill="white" stroke="black" points="939,-76.7141 939,-95.7141 1025,-95.7141 1025,-76.7141 939,-76.7141"/>
<text text-anchor="middle" x="982" y="-83.7141" font-family="Helvetica,sans-Serif" font-size="10.00">fwTools::Object</text>
</a>
</g>
</g>
<!-- Node4&#45;&gt;Node3 -->
<g id="edge3" class="edge"><title>Node4&#45;&gt;Node3</title>
<path fill="none" stroke="midnightblue" d="M1008.6,-100.634C1021.34,-107.336 1037.15,-114.965 1052,-120.214 1091.33,-134.118 1137.5,-144.229 1172.24,-150.668"/>
<polygon fill="midnightblue" stroke="midnightblue" points="1009.99,-97.408 999.53,-95.745 1006.67,-103.57 1009.99,-97.408"/>
</g>
<!-- Node5 -->
<g id="node5" class="node"><title>Node5</title>
<g id="a_node5"><a xlink:href="classfwCore_1_1BaseObject.html" target="_top" xlink:title="Base class for all FW4SPL&#39;s classes. ">
<polygon fill="white" stroke="black" points="740.5,-95.7141 740.5,-114.714 845.5,-114.714 845.5,-95.7141 740.5,-95.7141"/>
<text text-anchor="middle" x="793" y="-102.714" font-family="Helvetica,sans-Serif" font-size="10.00">fwCore::BaseObject</text>
</a>
</g>
</g>
<!-- Node5&#45;&gt;Node4 -->
<g id="edge4" class="edge"><title>Node5&#45;&gt;Node4</title>
<path fill="none" stroke="midnightblue" d="M855.794,-98.9355C882.986,-96.1727 914.236,-92.9976 938.714,-90.5105"/>
<polygon fill="midnightblue" stroke="midnightblue" points="855.189,-95.4789 845.594,-99.9719 855.896,-102.443 855.189,-95.4789"/>
</g>
<!-- Node6 -->
<g id="node6" class="node"><title>Node6</title>
<polygon fill="white" stroke="#bfbfbf" points="449.5,-85.2141 449.5,-115.214 580.5,-115.214 580.5,-85.2141 449.5,-85.2141"/>
<text text-anchor="start" x="457.5" y="-103.214" font-family="Helvetica,sans-Serif" font-size="10.00">std::enable_shared</text>
<text text-anchor="middle" x="515" y="-92.2141" font-family="Helvetica,sans-Serif" font-size="10.00">_from_this&lt; BaseObject &gt;</text>
</g>
<!-- Node6&#45;&gt;Node5 -->
<g id="edge5" class="edge"><title>Node6&#45;&gt;Node5</title>
<path fill="none" stroke="midnightblue" d="M590.903,-101.571C638.189,-102.428 698.07,-103.512 740.146,-104.275"/>
<polygon fill="midnightblue" stroke="midnightblue" points="590.772,-98.0681 580.71,-101.386 590.645,-105.067 590.772,-98.0681"/>
</g>
<!-- Node7 -->
<g id="node7" class="node"><title>Node7</title>
<polygon fill="white" stroke="#bfbfbf" points="757.5,-57.7141 757.5,-76.7141 828.5,-76.7141 828.5,-57.7141 757.5,-57.7141"/>
<text text-anchor="middle" x="793" y="-64.7141" font-family="Helvetica,sans-Serif" font-size="10.00">noncopyable</text>
</g>
<!-- Node7&#45;&gt;Node4 -->
<g id="edge6" class="edge"><title>Node7&#45;&gt;Node4</title>
<path fill="none" stroke="midnightblue" d="M839.051,-71.7914C869.415,-74.8766 909.199,-78.9188 938.922,-81.9387"/>
<polygon fill="midnightblue" stroke="midnightblue" points="839.038,-68.2721 828.735,-70.7433 838.33,-75.2363 839.038,-68.2721"/>
</g>
<!-- Node8 -->
<g id="node8" class="node"><title>Node8</title>
<g id="a_node8"><a xlink:href="classfwTools_1_1fwID.html" target="_top" xlink:title="Defines ID for fwTools::Object. It is used to associate ID with object. ">
<polygon fill="white" stroke="black" points="754,-19.7141 754,-38.7141 832,-38.7141 832,-19.7141 754,-19.7141"/>
<text text-anchor="middle" x="793" y="-26.7141" font-family="Helvetica,sans-Serif" font-size="10.00">fwTools::fwID</text>
</a>
</g>
</g>
<!-- Node8&#45;&gt;Node4 -->
<g id="edge7" class="edge"><title>Node8&#45;&gt;Node4</title>
<path fill="none" stroke="darkgreen" d="M835.075,-41.7342C869.574,-52.2501 918.143,-67.0546 949.598,-76.6424"/>
<polygon fill="darkgreen" stroke="darkgreen" points="835.886,-38.3224 825.3,-38.7546 833.845,-45.0183 835.886,-38.3224"/>
</g>
<!-- Node9 -->
<g id="node9" class="node"><title>Node9</title>
<g id="a_node9"><a xlink:href="classfwCom_1_1HasSlots.html" target="_top" xlink:title="This class proposes a mapping between a SlotKeyType and a SlotBase. ">
<polygon fill="white" stroke="black" points="934.5,-143.714 934.5,-162.714 1029.5,-162.714 1029.5,-143.714 934.5,-143.714"/>
<text text-anchor="middle" x="982" y="-150.714" font-family="Helvetica,sans-Serif" font-size="10.00">fwCom::HasSlots</text>
</a>
</g>
</g>
<!-- Node9&#45;&gt;Node3 -->
<g id="edge8" class="edge"><title>Node9&#45;&gt;Node3</title>
<path fill="none" stroke="midnightblue" d="M1039.8,-154.622C1079.83,-155.615 1133.05,-156.934 1172.17,-157.904"/>
<polygon fill="midnightblue" stroke="midnightblue" points="1039.74,-151.12 1029.66,-154.371 1039.57,-158.118 1039.74,-151.12"/>
</g>
<!-- Node10 -->
<g id="node10" class="node"><title>Node10</title>
<g id="a_node10"><a xlink:href="classfwCom_1_1Slots.html" target="_top" xlink:title="This class proposes a mapping between a SlotKeyType and a SlotBase. ">
<polygon fill="white" stroke="black" points="754.5,-143.714 754.5,-162.714 831.5,-162.714 831.5,-143.714 754.5,-143.714"/>
<text text-anchor="middle" x="793" y="-150.714" font-family="Helvetica,sans-Serif" font-size="10.00">fwCom::Slots</text>
</a>
</g>
</g>
<!-- Node10&#45;&gt;Node9 -->
<g id="edge9" class="edge"><title>Node10&#45;&gt;Node9</title>
<path fill="none" stroke="#9a32cd" stroke-dasharray="5,2" d="M841.933,-153.214C870.309,-153.214 906.096,-153.214 934.261,-153.214"/>
<polygon fill="#9a32cd" stroke="#9a32cd" points="841.842,-149.714 831.842,-153.214 841.842,-156.714 841.842,-149.714"/>
<text text-anchor="middle" x="888" y="-156.214" font-family="Helvetica,sans-Serif" font-size="10.00"> m_slots</text>
</g>
<!-- Node11 -->
<g id="node11" class="node"><title>Node11</title>
<polygon fill="white" stroke="#bfbfbf" points="439,-134.214 439,-164.214 591,-164.214 591,-134.214 439,-134.214"/>
<text text-anchor="start" x="447" y="-152.214" font-family="Helvetica,sans-Serif" font-size="10.00">std::map&lt; SlotKeyType,</text>
<text text-anchor="middle" x="515" y="-141.214" font-family="Helvetica,sans-Serif" font-size="10.00"> std::shared_ptr&lt; SlotBase &gt; &gt;</text>
</g>
<!-- Node11&#45;&gt;Node10 -->
<g id="edge10" class="edge"><title>Node11&#45;&gt;Node10</title>
<path fill="none" stroke="#9a32cd" stroke-dasharray="5,2" d="M601.134,-150.448C652.349,-151.19 715.009,-152.098 754.226,-152.667"/>
<polygon fill="#9a32cd" stroke="#9a32cd" points="601.103,-146.947 591.054,-150.302 601.002,-153.946 601.103,-146.947"/>
<text text-anchor="middle" x="668" y="-155.214" font-family="Helvetica,sans-Serif" font-size="10.00"> m_slots</text>
</g>
<!-- Node12 -->
<g id="node12" class="node"><title>Node12</title>
<g id="a_node12"><a xlink:title="STL class. ">
<polygon fill="white" stroke="#bfbfbf" points="192,-92.7141 192,-111.714 252,-111.714 252,-92.7141 192,-92.7141"/>
<text text-anchor="middle" x="222" y="-99.7141" font-family="Helvetica,sans-Serif" font-size="10.00">std::string</text>
</a>
</g>
</g>
<!-- Node12&#45;&gt;Node11 -->
<g id="edge11" class="edge"><title>Node12&#45;&gt;Node11</title>
<path fill="none" stroke="#9a32cd" stroke-dasharray="5,2" d="M253.76,-88.9895C294.294,-73.7944 366.262,-54.7385 416,-86.2141 431.791,-96.2074 419.897,-111.953 434,-124.214 438.393,-128.033 443.366,-131.269 448.63,-134.011"/>
<polygon fill="#9a32cd" stroke="#9a32cd" points="252.449,-85.744 244.405,-92.6389 254.993,-92.2654 252.449,-85.744"/>
<text text-anchor="middle" x="351" y="-89.2141" font-family="Helvetica,sans-Serif" font-size="10.00"> keys</text>
</g>
<!-- Node19 -->
<g id="node19" class="node"><title>Node19</title>
<polygon fill="white" stroke="#bfbfbf" points="434.5,-183.214 434.5,-213.214 595.5,-213.214 595.5,-183.214 434.5,-183.214"/>
<text text-anchor="start" x="442.5" y="-201.214" font-family="Helvetica,sans-Serif" font-size="10.00">std::map&lt; SignalKeyType,</text>
<text text-anchor="middle" x="515" y="-190.214" font-family="Helvetica,sans-Serif" font-size="10.00"> std::shared_ptr&lt; SignalBase &gt; &gt;</text>
</g>
<!-- Node12&#45;&gt;Node19 -->
<g id="edge19" class="edge"><title>Node12&#45;&gt;Node19</title>
<path fill="none" stroke="#9a32cd" stroke-dasharray="5,2" d="M262.271,-98.5759C304.502,-96.7851 371.553,-100.33 416,-134.214 431.182,-145.788 419.656,-160.617 434,-173.214 438.373,-177.055 443.333,-180.306 448.59,-183.057"/>
<polygon fill="#9a32cd" stroke="#9a32cd" points="261.893,-95.0912 252.098,-99.1309 262.274,-102.081 261.893,-95.0912"/>
<text text-anchor="middle" x="351" y="-137.214" font-family="Helvetica,sans-Serif" font-size="10.00"> keys</text>
</g>
<!-- Node13 -->
<g id="node13" class="node"><title>Node13</title>
<g id="a_node13"><a xlink:title="STL class. ">
<polygon fill="white" stroke="#bfbfbf" points="0.5,-87.2141 0.5,-117.214 95.5,-117.214 95.5,-87.2141 0.5,-87.2141"/>
<text text-anchor="start" x="8.5" y="-105.214" font-family="Helvetica,sans-Serif" font-size="10.00">std::basic_string&lt;</text>
<text text-anchor="middle" x="48" y="-94.2141" font-family="Helvetica,sans-Serif" font-size="10.00"> char &gt;</text>
</a>
</g>
</g>
<!-- Node13&#45;&gt;Node12 -->
<g id="edge12" class="edge"><title>Node13&#45;&gt;Node12</title>
<path fill="none" stroke="midnightblue" d="M105.913,-102.214C134.736,-102.214 168.5,-102.214 191.972,-102.214"/>
<polygon fill="midnightblue" stroke="midnightblue" points="105.546,-98.7141 95.5457,-102.214 105.546,-105.714 105.546,-98.7141"/>
</g>
<!-- Node14 -->
<g id="node14" class="node"><title>Node14</title>
<g id="a_node14"><a xlink:title="STL class. ">
<polygon fill="white" stroke="#bfbfbf" points="176,-176.714 176,-195.714 268,-195.714 268,-176.714 176,-176.714"/>
<text text-anchor="middle" x="222" y="-183.714" font-family="Helvetica,sans-Serif" font-size="10.00">std::map&lt; K, T &gt;</text>
</a>
</g>
</g>
<!-- Node14&#45;&gt;Node11 -->
<g id="edge13" class="edge"><title>Node14&#45;&gt;Node11</title>
<path fill="none" stroke="orange" stroke-dasharray="5,2" d="M253.964,-172.895C264.006,-169.125 275.314,-165.443 286,-163.214 336.274,-152.725 394.029,-149.265 438.831,-148.408"/>
<polygon fill="orange" stroke="orange" points="252.443,-169.732 244.415,-176.645 255.002,-176.248 252.443,-169.732"/>
<text text-anchor="start" x="291.5" y="-177.214" font-family="Helvetica,sans-Serif" font-size="10.00"> &lt; SlotKeyType, std</text>
<text text-anchor="middle" x="351" y="-166.214" font-family="Helvetica,sans-Serif" font-size="10.00">::shared_ptr&lt; SlotBase &gt; &gt;</text>
</g>
<!-- Node14&#45;&gt;Node19 -->
<g id="edge20" class="edge"><title>Node14&#45;&gt;Node19</title>
<path fill="none" stroke="orange" stroke-dasharray="5,2" d="M278.397,-188.498C322.535,-190.319 384.917,-192.891 434.403,-194.932"/>
<polygon fill="orange" stroke="orange" points="278.285,-184.991 268.149,-188.076 277.997,-191.985 278.285,-184.991"/>
<text text-anchor="start" x="286.5" y="-208.214" font-family="Helvetica,sans-Serif" font-size="10.00"> &lt; SignalKeyType, std</text>
<text text-anchor="middle" x="351" y="-197.214" font-family="Helvetica,sans-Serif" font-size="10.00">::shared_ptr&lt; SignalBase &gt; &gt;</text>
</g>
<!-- Node15 -->
<g id="node15" class="node"><title>Node15</title>
<polygon fill="white" stroke="#bfbfbf" points="33.5,-218.714 33.5,-237.714 62.5,-237.714 62.5,-218.714 33.5,-218.714"/>
<text text-anchor="middle" x="48" y="-225.714" font-family="Helvetica,sans-Serif" font-size="10.00">K</text>
</g>
<!-- Node15&#45;&gt;Node14 -->
<g id="edge14" class="edge"><title>Node15&#45;&gt;Node14</title>
<path fill="none" stroke="#9a32cd" stroke-dasharray="5,2" d="M72.5704,-222.458C100.764,-215.574 148.37,-203.949 182.057,-195.723"/>
<polygon fill="#9a32cd" stroke="#9a32cd" points="71.669,-219.076 62.7847,-224.848 73.3296,-225.876 71.669,-219.076"/>
<text text-anchor="middle" x="136" y="-215.214" font-family="Helvetica,sans-Serif" font-size="10.00"> keys</text>
</g>
<!-- Node22 -->
<g id="node22" class="node"><title>Node22</title>
<g id="a_node22"><a xlink:title="STL class. ">
<polygon fill="white" stroke="#bfbfbf" points="185,-233.714 185,-252.714 259,-252.714 259,-233.714 185,-233.714"/>
<text text-anchor="middle" x="222" y="-240.714" font-family="Helvetica,sans-Serif" font-size="10.00">std::set&lt; K &gt;</text>
</a>
</g>
</g>
<!-- Node15&#45;&gt;Node22 -->
<g id="edge24" class="edge"><title>Node15&#45;&gt;Node22</title>
<path fill="none" stroke="#9a32cd" stroke-dasharray="5,2" d="M72.8403,-230.293C101.863,-232.824 151.166,-237.124 184.864,-240.063"/>
<polygon fill="#9a32cd" stroke="#9a32cd" points="73.051,-226.798 62.7847,-229.416 72.4428,-233.772 73.051,-226.798"/>
<text text-anchor="middle" x="136" y="-241.214" font-family="Helvetica,sans-Serif" font-size="10.00"> keys</text>
</g>
<!-- Node16 -->
<g id="node16" class="node"><title>Node16</title>
<polygon fill="white" stroke="#bfbfbf" points="33.5,-165.714 33.5,-184.714 62.5,-184.714 62.5,-165.714 33.5,-165.714"/>
<text text-anchor="middle" x="48" y="-172.714" font-family="Helvetica,sans-Serif" font-size="10.00">T</text>
</g>
<!-- Node16&#45;&gt;Node14 -->
<g id="edge15" class="edge"><title>Node16&#45;&gt;Node14</title>
<path fill="none" stroke="#9a32cd" stroke-dasharray="5,2" d="M72.9303,-174.417C95.0461,-173.921 128.799,-173.776 158,-176.214 163.739,-176.693 169.745,-177.39 175.675,-178.197"/>
<polygon fill="#9a32cd" stroke="#9a32cd" points="72.6986,-170.922 62.7955,-174.687 72.8854,-177.919 72.6986,-170.922"/>
<text text-anchor="middle" x="136" y="-179.214" font-family="Helvetica,sans-Serif" font-size="10.00"> elements</text>
</g>
<!-- Node17 -->
<g id="node17" class="node"><title>Node17</title>
<g id="a_node17"><a xlink:href="classfwCom_1_1HasSignals.html" target="_top" xlink:title="This class proposes a mapping between a SignalKeyType and a SignalBase. ">
<polygon fill="white" stroke="black" points="930,-186.714 930,-205.714 1034,-205.714 1034,-186.714 930,-186.714"/>
<text text-anchor="middle" x="982" y="-193.714" font-family="Helvetica,sans-Serif" font-size="10.00">fwCom::HasSignals</text>
</a>
</g>
</g>
<!-- Node17&#45;&gt;Node3 -->
<g id="edge16" class="edge"><title>Node17&#45;&gt;Node3</title>
<path fill="none" stroke="midnightblue" d="M1044.53,-186.902C1077.08,-181.964 1117.71,-175.784 1154,-170.214 1159.92,-169.306 1166.11,-168.351 1172.27,-167.4"/>
<polygon fill="midnightblue" stroke="midnightblue" points="1043.62,-183.499 1034.26,-188.458 1044.67,-190.42 1043.62,-183.499"/>
</g>
<!-- Node18 -->
<g id="node18" class="node"><title>Node18</title>
<g id="a_node18"><a xlink:href="classfwCom_1_1Signals.html" target="_top" xlink:title="This class proposes a mapping between a SignalKeyType and a SignalBase. ">
<polygon fill="white" stroke="black" points="750,-186.714 750,-205.714 836,-205.714 836,-186.714 750,-186.714"/>
<text text-anchor="middle" x="793" y="-193.714" font-family="Helvetica,sans-Serif" font-size="10.00">fwCom::Signals</text>
</a>
</g>
</g>
<!-- Node18&#45;&gt;Node17 -->
<g id="edge17" class="edge"><title>Node18&#45;&gt;Node17</title>
<path fill="none" stroke="#9a32cd" stroke-dasharray="5,2" d="M846.499,-196.214C872.543,-196.214 903.878,-196.214 929.749,-196.214"/>
<polygon fill="#9a32cd" stroke="#9a32cd" points="846.433,-192.714 836.433,-196.214 846.433,-199.714 846.433,-192.714"/>
<text text-anchor="middle" x="888" y="-199.214" font-family="Helvetica,sans-Serif" font-size="10.00"> m_signals</text>
</g>
<!-- Node19&#45;&gt;Node18 -->
<g id="edge18" class="edge"><title>Node19&#45;&gt;Node18</title>
<path fill="none" stroke="#9a32cd" stroke-dasharray="5,2" d="M606.01,-197.562C654.4,-197.211 711.783,-196.795 749.884,-196.519"/>
<polygon fill="#9a32cd" stroke="#9a32cd" points="605.805,-194.063 595.831,-197.636 605.856,-201.063 605.805,-194.063"/>
<text text-anchor="middle" x="668" y="-201.214" font-family="Helvetica,sans-Serif" font-size="10.00"> m_signals</text>
</g>
<!-- Node20 -->
<g id="node20" class="node"><title>Node20</title>
<polygon fill="white" stroke="#bfbfbf" points="961.5,-10.7141 961.5,-29.7141 1002.5,-29.7141 1002.5,-10.7141 961.5,-10.7141"/>
<text text-anchor="middle" x="982" y="-17.7141" font-family="Helvetica,sans-Serif" font-size="10.00">static</text>
</g>
<!-- Node20&#45;&gt;Node3 -->
<g id="edge21" class="edge"><title>Node20&#45;&gt;Node3</title>
<path fill="none" stroke="#9a32cd" stroke-dasharray="5,2" d="M1012.68,-10.6319C1048.94,-0.839861 1110.78,9.4962 1154,-17.2141 1203,-47.4993 1219.32,-122.98 1223.65,-149.675"/>
<polygon fill="#9a32cd" stroke="#9a32cd" points="1011.39,-7.36257 1002.73,-13.4796 1013.31,-14.0923 1011.39,-7.36257"/>
<text text-anchor="middle" x="1103" y="-108.214" font-family="Helvetica,sans-Serif" font-size="10.00"> s_STOPPED_SIG</text>
<text text-anchor="middle" x="1103" y="-97.2141" font-family="Helvetica,sans-Serif" font-size="10.00">s_UPDATED_SIG</text>
<text text-anchor="middle" x="1103" y="-86.2141" font-family="Helvetica,sans-Serif" font-size="10.00">s_UPDATE_SLOT</text>
<text text-anchor="middle" x="1103" y="-75.2141" font-family="Helvetica,sans-Serif" font-size="10.00">s_STARTED_SIG</text>
<text text-anchor="middle" x="1103" y="-64.2141" font-family="Helvetica,sans-Serif" font-size="10.00">s_SWAPKEY_SLOT</text>
<text text-anchor="middle" x="1103" y="-53.2141" font-family="Helvetica,sans-Serif" font-size="10.00">s_SWAP_SLOT</text>
<text text-anchor="middle" x="1103" y="-42.2141" font-family="Helvetica,sans-Serif" font-size="10.00">s_STOP_SLOT</text>
<text text-anchor="middle" x="1103" y="-31.2141" font-family="Helvetica,sans-Serif" font-size="10.00">s_START_SLOT</text>
<text text-anchor="middle" x="1103" y="-20.2141" font-family="Helvetica,sans-Serif" font-size="10.00">s_DEFAULT_OBJECT</text>
</g>
<!-- Node21 -->
<g id="node21" class="node"><title>Node21</title>
<polygon fill="white" stroke="#bfbfbf" points="614.5,-221.714 614.5,-262.714 721.5,-262.714 721.5,-221.714 614.5,-221.714"/>
<text text-anchor="start" x="622.5" y="-250.714" font-family="Helvetica,sans-Serif" font-size="10.00">std::set&lt; std::shared</text>
<text text-anchor="start" x="622.5" y="-239.714" font-family="Helvetica,sans-Serif" font-size="10.00">_ptr&lt; ::fwGui::dialog</text>
<text text-anchor="middle" x="668" y="-228.714" font-family="Helvetica,sans-Serif" font-size="10.00">::ProgressDialog &gt; &gt;</text>
</g>
<!-- Node21&#45;&gt;Node1 -->
<g id="edge22" class="edge"><title>Node21&#45;&gt;Node1</title>
<path fill="none" stroke="#9a32cd" stroke-dasharray="5,2" d="M732.016,-241.33C775.551,-240.795 834.791,-240.214 887,-240.214 887,-240.214 887,-240.214 1386,-240.214 1420.97,-240.214 1460.06,-235.39 1490.23,-230.603"/>
<polygon fill="#9a32cd" stroke="#9a32cd" points="731.816,-237.832 721.86,-241.458 731.904,-244.832 731.816,-237.832"/>
<text text-anchor="middle" x="1103" y="-243.214" font-family="Helvetica,sans-Serif" font-size="10.00"> m_progressDialogs</text>
</g>
<!-- Node22&#45;&gt;Node21 -->
<g id="edge23" class="edge"><title>Node22&#45;&gt;Node21</title>
<path fill="none" stroke="orange" stroke-dasharray="5,2" d="M269.506,-243.109C352.766,-242.922 526.749,-242.53 614.295,-242.333"/>
<polygon fill="orange" stroke="orange" points="269.326,-239.61 259.334,-243.132 269.342,-246.61 269.326,-239.61"/>
<text text-anchor="start" x="295" y="-268.214" font-family="Helvetica,sans-Serif" font-size="10.00"> &lt; std::shared_ptr&lt;</text>
<text text-anchor="start" x="295" y="-257.214" font-family="Helvetica,sans-Serif" font-size="10.00"> ::fwGui::dialog::Progress</text>
<text text-anchor="middle" x="351" y="-246.214" font-family="Helvetica,sans-Serif" font-size="10.00">Dialog &gt; &gt;</text>
</g>
</g>
</svg>
        <g id="navigator" transform="translate(0 0)" fill="#404254">
                <rect fill="#f2f5e9" fill-opacity="0.5" stroke="#606060" stroke-width=".5" x="0" y="0" width="60" height="60"/>
                <use id="zoomplus" xlink:href="#zoomPlus" x="17" y="9" onmousedown="handleZoom(evt,'in')"/>
                <use id="zoomminus" xlink:href="#zoomMin" x="42" y="9" onmousedown="handleZoom(evt,'out')"/>
                <use id="reset" xlink:href="#resetDef" x="30" y="36" onmousedown="handleReset()"/>
                <g id="arrowUp" xlink:href="#dirArrow" transform="translate(30 24)" onmousedown="handlePan(0,-1)">
                  <use xlink:href="#rim" fill="#404040">
                        <set attributeName="fill" to="#808080" begin="arrowUp.mouseover" end="arrowUp.mouseout"/>
                  </use>
                  <path fill="none" stroke="white" stroke-width="1.5" d="M0,-3.0v7 M-2.5,-0.5L0,-3.0L2.5,-0.5"/>
                </g>
                <g id="arrowRight" xlink:href="#dirArrow" transform="rotate(90) translate(36 -43)" onmousedown="handlePan(1,0)">
                  <use xlink:href="#rim" fill="#404040">
                        <set attributeName="fill" to="#808080" begin="arrowRight.mouseover" end="arrowRight.mouseout"/>
                  </use>
                  <path fill="none" stroke="white" stroke-width="1.5" d="M0,-3.0v7 M-2.5,-0.5L0,-3.0L2.5,-0.5"/>
                </g>
                <g id="arrowDown" xlink:href="#dirArrow" transform="rotate(180) translate(-30 -48)" onmousedown="handlePan(0,1)">
                  <use xlink:href="#rim" fill="#404040">
                        <set attributeName="fill" to="#808080" begin="arrowDown.mouseover" end="arrowDown.mouseout"/>
                  </use>
                  <path fill="none" stroke="white" stroke-width="1.5" d="M0,-3.0v7 M-2.5,-0.5L0,-3.0L2.5,-0.5"/>
                </g>
                <g id="arrowLeft" xlink:href="#dirArrow" transform="rotate(270) translate(-36 17)" onmousedown="handlePan(-1,0)">
                  <use xlink:href="#rim" fill="#404040">
                        <set attributeName="fill" to="#808080" begin="arrowLeft.mouseover" end="arrowLeft.mouseout"/>
                  </use>
                  <path fill="none" stroke="white" stroke-width="1.5" d="M0,-3.0v7 M-2.5,-0.5L0,-3.0L2.5,-0.5"/>
                </g>
        </g>
        <svg viewBox="0 0 15 15" width="100%" height="30px" preserveAspectRatio="xMaxYMin meet">
         <g id="arrow_out" transform="scale(0.3 0.3)">
          <a xlink:href="classgui_1_1editor_1_1SJobBar__coll__graph_org.svg" target="_base">
           <rect id="button" ry="5" rx="5" y="6" x="6" height="38" width="38"
                fill="#f2f5e9" fill-opacity="0.5" stroke="#606060" stroke-width="1.0"/>
           <path id="arrow"
             d="M 11.500037,31.436501 C 11.940474,20.09759 22.043105,11.32322 32.158766,21.979434 L 37.068811,17.246167 C 37.068811,17.246167 37.088388,32 37.088388,32 L 22.160133,31.978069 C 22.160133,31.978069 26.997745,27.140456 26.997745,27.140456 C 18.528582,18.264221 13.291696,25.230495 11.500037,31.436501 z"
             style="fill:#404040;"/>
          </a>
         </g>
        </svg>
</svg>
