<?xml version="1.0" encoding="UTF-8" standalone="no"?>
<!DOCTYPE svg PUBLIC "-//W3C//DTD SVG 1.1//EN"
 "http://www.w3.org/Graphics/SVG/1.1/DTD/svg11.dtd">
<!-- Generated by graphviz version 2.36.0 (20140111.2315)
 -->
<!-- Title: vtkSimpleMesh::SSimpleMeshDeformation Pages: 1 -->
<svg width="1718pt" height="309pt"
 viewBox="0.00 0.00 1718.00 309.00" xmlns="http://www.w3.org/2000/svg" xmlns:xlink="http://www.w3.org/1999/xlink">
<g id="graph0" class="graph" transform="scale(1 1) rotate(0) translate(4 305)">
<title>vtkSimpleMesh::SSimpleMeshDeformation</title>
<polygon fill="white" stroke="none" points="-4,4 -4,-305 1714,-305 1714,4 -4,4"/>
<!-- Node1 -->
<g id="node1" class="node"><title>Node1</title>
<polygon fill="#bfbfbf" stroke="black" points="1558.5,-0 1558.5,-30 1709.5,-30 1709.5,-0 1558.5,-0"/>
<text text-anchor="start" x="1566.5" y="-18" font-family="Helvetica,sans-Serif" font-size="10.00">vtkSimpleMesh::SSimpleMesh</text>
<text text-anchor="middle" x="1634" y="-7" font-family="Helvetica,sans-Serif" font-size="10.00">Deformation</text>
</g>
<!-- Node2 -->
<g id="node2" class="node"><title>Node2</title>
<g id="a_node2"><a xlink:href="classfwServices_1_1IController.html" target="_top" xlink:title="This interface defines control service API. Does nothing particularly, can be considered as a default...">
<polygon fill="white" stroke="black" points="1404,-82.5 1404,-101.5 1520,-101.5 1520,-82.5 1404,-82.5"/>
<text text-anchor="middle" x="1462" y="-89.5" font-family="Helvetica,sans-Serif" font-size="10.00">fwServices::IController</text>
</a>
</g>
</g>
<!-- Node2&#45;&gt;Node1 -->
<g id="edge1" class="edge"><title>Node2&#45;&gt;Node1</title>
<path fill="none" stroke="midnightblue" d="M1493.32,-78.2677C1523.26,-64.7041 1568.94,-44.014 1599.84,-30.0199"/>
<polygon fill="midnightblue" stroke="midnightblue" points="1491.85,-75.0894 1484.19,-82.4036 1494.74,-81.4658 1491.85,-75.0894"/>
</g>
<!-- Node3 -->
<g id="node3" class="node"><title>Node3</title>
<g id="a_node3"><a xlink:href="classfwServices_1_1IService.html" target="_top" xlink:title="Base class for all services. ">
<polygon fill="white" stroke="black" points="1112.5,-137.5 1112.5,-156.5 1219.5,-156.5 1219.5,-137.5 1112.5,-137.5"/>
<text text-anchor="middle" x="1166" y="-144.5" font-family="Helvetica,sans-Serif" font-size="10.00">fwServices::IService</text>
</a>
</g>
</g>
<!-- Node3&#45;&gt;Node2 -->
<g id="edge2" class="edge"><title>Node3&#45;&gt;Node2</title>
<path fill="none" stroke="midnightblue" d="M1227.96,-135.596C1281.71,-125.541 1359.15,-111.054 1409.76,-101.585"/>
<polygon fill="midnightblue" stroke="midnightblue" points="1227.06,-132.203 1217.88,-137.483 1228.35,-139.084 1227.06,-132.203"/>
</g>
<!-- Node4 -->
<g id="node4" class="node"><title>Node4</title>
<g id="a_node4"><a xlink:href="classfwTools_1_1Object.html" target="_top" xlink:title="Define Base class for FW4SPL objects and services. ">
<polygon fill="white" stroke="black" points="879,-219.5 879,-238.5 965,-238.5 965,-219.5 879,-219.5"/>
<text text-anchor="middle" x="922" y="-226.5" font-family="Helvetica,sans-Serif" font-size="10.00">fwTools::Object</text>
</a>
</g>
</g>
<!-- Node4&#45;&gt;Node3 -->
<g id="edge3" class="edge"><title>Node4&#45;&gt;Node3</title>
<path fill="none" stroke="midnightblue" d="M962.838,-216.384C997.578,-205.279 1049.27,-188.508 1094,-173 1109.13,-167.754 1125.97,-161.603 1139.44,-156.601"/>
<polygon fill="midnightblue" stroke="midnightblue" points="961.532,-213.126 953.068,-219.5 963.659,-219.795 961.532,-213.126"/>
</g>
<!-- Node5 -->
<g id="node5" class="node"><title>Node5</title>
<g id="a_node5"><a xlink:href="classfwCore_1_1BaseObject.html" target="_top" xlink:title="Base class for all FW4SPL&#39;s classes. ">
<polygon fill="white" stroke="black" points="680.5,-276.5 680.5,-295.5 785.5,-295.5 785.5,-276.5 680.5,-276.5"/>
<text text-anchor="middle" x="733" y="-283.5" font-family="Helvetica,sans-Serif" font-size="10.00">fwCore::BaseObject</text>
</a>
</g>
</g>
<!-- Node5&#45;&gt;Node4 -->
<g id="edge4" class="edge"><title>Node5&#45;&gt;Node4</title>
<path fill="none" stroke="midnightblue" d="M778.263,-273.713C800.462,-267.433 827.723,-259.54 852,-252 865.627,-247.768 880.667,-242.79 893.219,-238.55"/>
<polygon fill="midnightblue" stroke="midnightblue" points="777.124,-270.397 768.448,-276.478 779.023,-277.135 777.124,-270.397"/>
</g>
<!-- Node6 -->
<g id="node6" class="node"><title>Node6</title>
<polygon fill="white" stroke="#bfbfbf" points="449.5,-271 449.5,-301 580.5,-301 580.5,-271 449.5,-271"/>
<text text-anchor="start" x="457.5" y="-289" font-family="Helvetica,sans-Serif" font-size="10.00">std::enable_shared</text>
<text text-anchor="middle" x="515" y="-278" font-family="Helvetica,sans-Serif" font-size="10.00">_from_this&lt; BaseObject &gt;</text>
</g>
<!-- Node6&#45;&gt;Node5 -->
<g id="edge5" class="edge"><title>Node6&#45;&gt;Node5</title>
<path fill="none" stroke="midnightblue" d="M590.81,-286C620.398,-286 653.667,-286 680.475,-286"/>
<polygon fill="midnightblue" stroke="midnightblue" points="590.515,-282.5 580.515,-286 590.515,-289.5 590.515,-282.5"/>
</g>
<!-- Node7 -->
<g id="node7" class="node"><title>Node7</title>
<polygon fill="white" stroke="#bfbfbf" points="697.5,-238.5 697.5,-257.5 768.5,-257.5 768.5,-238.5 697.5,-238.5"/>
<text text-anchor="middle" x="733" y="-245.5" font-family="Helvetica,sans-Serif" font-size="10.00">noncopyable</text>
</g>
<!-- Node7&#45;&gt;Node4 -->
<g id="edge6" class="edge"><title>Node7&#45;&gt;Node4</title>
<path fill="none" stroke="midnightblue" d="M779.051,-243.423C809.415,-240.338 849.199,-236.295 878.922,-233.275"/>
<polygon fill="midnightblue" stroke="midnightblue" points="778.33,-239.978 768.735,-244.471 779.038,-246.942 778.33,-239.978"/>
</g>
<!-- Node8 -->
<g id="node8" class="node"><title>Node8</title>
<g id="a_node8"><a xlink:href="classfwTools_1_1fwID.html" target="_top" xlink:title="Defines ID for fwTools::Object. It is used to associate ID with object. ">
<polygon fill="white" stroke="black" points="694,-200.5 694,-219.5 772,-219.5 772,-200.5 694,-200.5"/>
<text text-anchor="middle" x="733" y="-207.5" font-family="Helvetica,sans-Serif" font-size="10.00">fwTools::fwID</text>
</a>
</g>
</g>
<!-- Node8&#45;&gt;Node4 -->
<g id="edge7" class="edge"><title>Node8&#45;&gt;Node4</title>
<path fill="none" stroke="darkgreen" d="M782.49,-214.927C812.347,-217.96 850.246,-221.811 878.85,-224.717"/>
<polygon fill="darkgreen" stroke="darkgreen" points="782.596,-211.42 772.293,-213.891 781.888,-218.384 782.596,-211.42"/>
</g>
<!-- Node9 -->
<g id="node9" class="node"><title>Node9</title>
<g id="a_node9"><a xlink:href="classfwCom_1_1HasSlots.html" target="_top" xlink:title="This class proposes a mapping between a SlotKeyType and a SlotBase. ">
<polygon fill="white" stroke="black" points="874.5,-119.5 874.5,-138.5 969.5,-138.5 969.5,-119.5 874.5,-119.5"/>
<text text-anchor="middle" x="922" y="-126.5" font-family="Helvetica,sans-Serif" font-size="10.00">fwCom::HasSlots</text>
</a>
</g>
</g>
<!-- Node9&#45;&gt;Node3 -->
<g id="edge8" class="edge"><title>Node9&#45;&gt;Node3</title>
<path fill="none" stroke="midnightblue" d="M979.796,-133.224C1019.83,-136.202 1073.05,-140.161 1112.17,-143.071"/>
<polygon fill="midnightblue" stroke="midnightblue" points="979.892,-129.722 969.66,-132.471 979.373,-136.703 979.892,-129.722"/>
</g>
<!-- Node10 -->
<g id="node10" class="node"><title>Node10</title>
<g id="a_node10"><a xlink:href="classfwCom_1_1Slots.html" target="_top" xlink:title="This class proposes a mapping between a SlotKeyType and a SlotBase. ">
<polygon fill="white" stroke="black" points="694.5,-119.5 694.5,-138.5 771.5,-138.5 771.5,-119.5 694.5,-119.5"/>
<text text-anchor="middle" x="733" y="-126.5" font-family="Helvetica,sans-Serif" font-size="10.00">fwCom::Slots</text>
</a>
</g>
</g>
<!-- Node10&#45;&gt;Node9 -->
<g id="edge9" class="edge"><title>Node10&#45;&gt;Node9</title>
<path fill="none" stroke="#9a32cd" stroke-dasharray="5,2" d="M781.933,-129C810.309,-129 846.096,-129 874.261,-129"/>
<polygon fill="#9a32cd" stroke="#9a32cd" points="781.842,-125.5 771.842,-129 781.842,-132.5 781.842,-125.5"/>
<text text-anchor="middle" x="828" y="-132" font-family="Helvetica,sans-Serif" font-size="10.00"> m_slots</text>
</g>
<!-- Node11 -->
<g id="node11" class="node"><title>Node11</title>
<polygon fill="white" stroke="#bfbfbf" points="439,-110 439,-140 591,-140 591,-110 439,-110"/>
<text text-anchor="start" x="447" y="-128" font-family="Helvetica,sans-Serif" font-size="10.00">std::map&lt; SlotKeyType,</text>
<text text-anchor="middle" x="515" y="-117" font-family="Helvetica,sans-Serif" font-size="10.00"> std::shared_ptr&lt; SlotBase &gt; &gt;</text>
</g>
<!-- Node11&#45;&gt;Node10 -->
<g id="edge10" class="edge"><title>Node11&#45;&gt;Node10</title>
<path fill="none" stroke="#9a32cd" stroke-dasharray="5,2" d="M601.573,-126.585C633.736,-127.18 668.676,-127.827 694.29,-128.302"/>
<polygon fill="#9a32cd" stroke="#9a32cd" points="601.306,-123.079 591.243,-126.393 601.177,-130.078 601.306,-123.079"/>
<text text-anchor="middle" x="638" y="-131" font-family="Helvetica,sans-Serif" font-size="10.00"> m_slots</text>
</g>
<!-- Node12 -->
<g id="node12" class="node"><title>Node12</title>
<g id="a_node12"><a xlink:title="STL class. ">
<polygon fill="white" stroke="#bfbfbf" points="192,-182.5 192,-201.5 252,-201.5 252,-182.5 192,-182.5"/>
<text text-anchor="middle" x="222" y="-189.5" font-family="Helvetica,sans-Serif" font-size="10.00">std::string</text>
</a>
</g>
</g>
<!-- Node12&#45;&gt;Node11 -->
<g id="edge11" class="edge"><title>Node12&#45;&gt;Node11</title>
<path fill="none" stroke="#9a32cd" stroke-dasharray="5,2" d="M235.921,-173.883C247.285,-159.596 265.226,-140.682 286,-132 334.049,-111.92 392.895,-110.622 438.768,-114.108"/>
<polygon fill="#9a32cd" stroke="#9a32cd" points="232.982,-171.965 229.728,-182.047 238.56,-176.195 232.982,-171.965"/>
<text text-anchor="middle" x="351" y="-135" font-family="Helvetica,sans-Serif" font-size="10.00"> keys</text>
</g>
<!-- Node19 -->
<g id="node19" class="node"><title>Node19</title>
<polygon fill="white" stroke="#bfbfbf" points="434.5,-159 434.5,-189 595.5,-189 595.5,-159 434.5,-159"/>
<text text-anchor="start" x="442.5" y="-177" font-family="Helvetica,sans-Serif" font-size="10.00">std::map&lt; SignalKeyType,</text>
<text text-anchor="middle" x="515" y="-166" font-family="Helvetica,sans-Serif" font-size="10.00"> std::shared_ptr&lt; SignalBase &gt; &gt;</text>
</g>
<!-- Node12&#45;&gt;Node19 -->
<g id="edge19" class="edge"><title>Node12&#45;&gt;Node19</title>
<path fill="none" stroke="#9a32cd" stroke-dasharray="5,2" d="M262.569,-193.337C301.641,-194.245 363.055,-194.57 416,-190 422.011,-189.481 428.211,-188.805 434.435,-188.025"/>
<polygon fill="#9a32cd" stroke="#9a32cd" points="262.253,-189.827 252.167,-193.068 262.073,-196.825 262.253,-189.827"/>
<text text-anchor="middle" x="351" y="-196" font-family="Helvetica,sans-Serif" font-size="10.00"> keys</text>
</g>
<!-- Node13 -->
<g id="node13" class="node"><title>Node13</title>
<g id="a_node13"><a xlink:title="STL class. ">
<polygon fill="white" stroke="#bfbfbf" points="0.5,-177 0.5,-207 95.5,-207 95.5,-177 0.5,-177"/>
<text text-anchor="start" x="8.5" y="-195" font-family="Helvetica,sans-Serif" font-size="10.00">std::basic_string&lt;</text>
<text text-anchor="middle" x="48" y="-184" font-family="Helvetica,sans-Serif" font-size="10.00"> char &gt;</text>
</a>
</g>
</g>
<!-- Node13&#45;&gt;Node12 -->
<g id="edge12" class="edge"><title>Node13&#45;&gt;Node12</title>
<path fill="none" stroke="midnightblue" d="M105.913,-192C134.736,-192 168.5,-192 191.972,-192"/>
<polygon fill="midnightblue" stroke="midnightblue" points="105.546,-188.5 95.5457,-192 105.546,-195.5 105.546,-188.5"/>
</g>
<!-- Node14 -->
<g id="node14" class="node"><title>Node14</title>
<g id="a_node14"><a xlink:title="STL class. ">
<polygon fill="white" stroke="#bfbfbf" points="176,-99.5 176,-118.5 268,-118.5 268,-99.5 176,-99.5"/>
<text text-anchor="middle" x="222" y="-106.5" font-family="Helvetica,sans-Serif" font-size="10.00">std::map&lt; K, T &gt;</text>
</a>
</g>
</g>
<!-- Node14&#45;&gt;Node11 -->
<g id="edge13" class="edge"><title>Node14&#45;&gt;Node11</title>
<path fill="none" stroke="orange" stroke-dasharray="5,2" d="M256.812,-96.1689C266.132,-93.2118 276.34,-90.4966 286,-89 343.097,-80.1546 359.115,-78.8823 416,-89 438.664,-93.031 462.959,-101.922 481.69,-109.86"/>
<polygon fill="orange" stroke="orange" points="255.479,-92.9243 247.114,-99.4263 257.708,-99.5599 255.479,-92.9243"/>
<text text-anchor="start" x="291.5" y="-103" font-family="Helvetica,sans-Serif" font-size="10.00"> &lt; SlotKeyType, std</text>
<text text-anchor="middle" x="351" y="-92" font-family="Helvetica,sans-Serif" font-size="10.00">::shared_ptr&lt; SlotBase &gt; &gt;</text>
</g>
<!-- Node14&#45;&gt;Node19 -->
<g id="edge20" class="edge"><title>Node14&#45;&gt;Node19</title>
<path fill="none" stroke="orange" stroke-dasharray="5,2" d="M244.873,-124.346C256.553,-131.786 271.483,-140.144 286,-145 300.025,-149.692 374.268,-158.675 434.281,-165.406"/>
<polygon fill="orange" stroke="orange" points="246.544,-121.255 236.272,-118.66 242.684,-127.095 246.544,-121.255"/>
<text text-anchor="start" x="286.5" y="-177" font-family="Helvetica,sans-Serif" font-size="10.00"> &lt; SignalKeyType, std</text>
<text text-anchor="middle" x="351" y="-166" font-family="Helvetica,sans-Serif" font-size="10.00">::shared_ptr&lt; SignalBase &gt; &gt;</text>
</g>
<!-- Node15 -->
<g id="node15" class="node"><title>Node15</title>
<polygon fill="white" stroke="#bfbfbf" points="33.5,-80.5 33.5,-99.5 62.5,-99.5 62.5,-80.5 33.5,-80.5"/>
<text text-anchor="middle" x="48" y="-87.5" font-family="Helvetica,sans-Serif" font-size="10.00">K</text>
</g>
<!-- Node15&#45;&gt;Node14 -->
<g id="edge14" class="edge"><title>Node15&#45;&gt;Node14</title>
<path fill="none" stroke="#9a32cd" stroke-dasharray="5,2" d="M72.9888,-89.9133C95.1448,-90.1139 128.924,-91.132 158,-95 166.219,-96.0934 174.95,-97.7244 183.211,-99.491"/>
<polygon fill="#9a32cd" stroke="#9a32cd" points="72.8474,-86.4127 62.8331,-89.8718 72.8187,-93.4127 72.8474,-86.4127"/>
<text text-anchor="middle" x="136" y="-98" font-family="Helvetica,sans-Serif" font-size="10.00"> keys</text>
</g>
<!-- Node16 -->
<g id="node16" class="node"><title>Node16</title>
<polygon fill="white" stroke="#bfbfbf" points="33.5,-118.5 33.5,-137.5 62.5,-137.5 62.5,-118.5 33.5,-118.5"/>
<text text-anchor="middle" x="48" y="-125.5" font-family="Helvetica,sans-Serif" font-size="10.00">T</text>
</g>
<!-- Node16&#45;&gt;Node14 -->
<g id="edge15" class="edge"><title>Node16&#45;&gt;Node14</title>
<path fill="none" stroke="#9a32cd" stroke-dasharray="5,2" d="M73.0587,-125.342C99.6143,-122.409 142.955,-117.621 175.879,-113.984"/>
<polygon fill="#9a32cd" stroke="#9a32cd" points="72.34,-121.9 62.7847,-126.477 73.1086,-128.858 72.34,-121.9"/>
<text text-anchor="middle" x="136" y="-124" font-family="Helvetica,sans-Serif" font-size="10.00"> elements</text>
</g>
<!-- Node17 -->
<g id="node17" class="node"><title>Node17</title>
<g id="a_node17"><a xlink:href="classfwCom_1_1HasSignals.html" target="_top" xlink:title="This class proposes a mapping between a SignalKeyType and a SignalBase. ">
<polygon fill="white" stroke="black" points="870,-162.5 870,-181.5 974,-181.5 974,-162.5 870,-162.5"/>
<text text-anchor="middle" x="922" y="-169.5" font-family="Helvetica,sans-Serif" font-size="10.00">fwCom::HasSignals</text>
</a>
</g>
</g>
<!-- Node17&#45;&gt;Node3 -->
<g id="edge16" class="edge"><title>Node17&#45;&gt;Node3</title>
<path fill="none" stroke="midnightblue" d="M984.079,-165.69C1023.63,-161.604 1074.61,-156.337 1112.37,-152.437"/>
<polygon fill="midnightblue" stroke="midnightblue" points="983.614,-162.22 974.026,-166.729 984.333,-169.182 983.614,-162.22"/>
</g>
<!-- Node18 -->
<g id="node18" class="node"><title>Node18</title>
<g id="a_node18"><a xlink:href="classfwCom_1_1Signals.html" target="_top" xlink:title="This class proposes a mapping between a SignalKeyType and a SignalBase. ">
<polygon fill="white" stroke="black" points="690,-162.5 690,-181.5 776,-181.5 776,-162.5 690,-162.5"/>
<text text-anchor="middle" x="733" y="-169.5" font-family="Helvetica,sans-Serif" font-size="10.00">fwCom::Signals</text>
</a>
</g>
</g>
<!-- Node18&#45;&gt;Node17 -->
<g id="edge17" class="edge"><title>Node18&#45;&gt;Node17</title>
<path fill="none" stroke="#9a32cd" stroke-dasharray="5,2" d="M786.499,-172C812.543,-172 843.878,-172 869.749,-172"/>
<polygon fill="#9a32cd" stroke="#9a32cd" points="786.433,-168.5 776.433,-172 786.433,-175.5 786.433,-168.5"/>
<text text-anchor="middle" x="828" y="-175" font-family="Helvetica,sans-Serif" font-size="10.00"> m_signals</text>
</g>
<!-- Node19&#45;&gt;Node18 -->
<g id="edge18" class="edge"><title>Node19&#45;&gt;Node18</title>
<path fill="none" stroke="#9a32cd" stroke-dasharray="5,2" d="M605.74,-173.169C634.917,-172.899 665.926,-172.612 689.911,-172.39"/>
<polygon fill="#9a32cd" stroke="#9a32cd" points="605.477,-169.671 595.51,-173.264 605.542,-176.671 605.477,-169.671"/>
<text text-anchor="middle" x="638" y="-176" font-family="Helvetica,sans-Serif" font-size="10.00"> m_signals</text>
</g>
<!-- Node20 -->
<g id="node20" class="node"><title>Node20</title>
<polygon fill="white" stroke="#bfbfbf" points="901.5,-7.5 901.5,-26.5 942.5,-26.5 942.5,-7.5 901.5,-7.5"/>
<text text-anchor="middle" x="922" y="-14.5" font-family="Helvetica,sans-Serif" font-size="10.00">static</text>
</g>
<!-- Node20&#45;&gt;Node1 -->
<g id="edge22" class="edge"><title>Node20&#45;&gt;Node1</title>
<path fill="none" stroke="#9a32cd" stroke-dasharray="5,2" d="M952.706,-15.4255C964.88,-14.8539 979.112,-14.28 992,-14 1037.32,-13.0152 1048.67,-13.9579 1094,-14 1259.86,-14.1539 1454.44,-14.5741 1558.45,-14.818"/>
<polygon fill="#9a32cd" stroke="#9a32cd" points="952.439,-11.9343 942.622,-15.9198 952.782,-18.9259 952.439,-11.9343"/>
<text text-anchor="start" x="1238" y="-40" font-family="Helvetica,sans-Serif" font-size="10.00"> s_START_DEFORMATION</text>
<text text-anchor="middle" x="1312" y="-29" font-family="Helvetica,sans-Serif" font-size="10.00">_SLOT</text>
<text text-anchor="middle" x="1312" y="-18" font-family="Helvetica,sans-Serif" font-size="10.00">s_STOP_DEFORMATION_SLOT</text>
</g>
<!-- Node20&#45;&gt;Node3 -->
<g id="edge21" class="edge"><title>Node20&#45;&gt;Node3</title>
<path fill="none" stroke="#9a32cd" stroke-dasharray="5,2" d="M952.741,-16.4615C995.33,-16.2124 1071.08,-17.8678 1094,-32 1134.54,-57.0016 1155.43,-114.664 1162.34,-137.468"/>
<polygon fill="#9a32cd" stroke="#9a32cd" points="952.646,-12.9622 942.68,-16.5594 952.714,-19.9618 952.646,-12.9622"/>
<text text-anchor="middle" x="1043" y="-123" font-family="Helvetica,sans-Serif" font-size="10.00"> s_STOPPED_SIG</text>
<text text-anchor="middle" x="1043" y="-112" font-family="Helvetica,sans-Serif" font-size="10.00">s_UPDATED_SIG</text>
<text text-anchor="middle" x="1043" y="-101" font-family="Helvetica,sans-Serif" font-size="10.00">s_UPDATE_SLOT</text>
<text text-anchor="middle" x="1043" y="-90" font-family="Helvetica,sans-Serif" font-size="10.00">s_STARTED_SIG</text>
<text text-anchor="middle" x="1043" y="-79" font-family="Helvetica,sans-Serif" font-size="10.00">s_SWAPKEY_SLOT</text>
<text text-anchor="middle" x="1043" y="-68" font-family="Helvetica,sans-Serif" font-size="10.00">s_SWAP_SLOT</text>
<text text-anchor="middle" x="1043" y="-57" font-family="Helvetica,sans-Serif" font-size="10.00">s_STOP_SLOT</text>
<text text-anchor="middle" x="1043" y="-46" font-family="Helvetica,sans-Serif" font-size="10.00">s_START_SLOT</text>
<text text-anchor="middle" x="1043" y="-35" font-family="Helvetica,sans-Serif" font-size="10.00">s_DEFAULT_OBJECT</text>
</g>
</g>
</svg>
