<?xml version="1.0" encoding="UTF-8" standalone="no"?>
<!DOCTYPE svg PUBLIC "-//W3C//DTD SVG 1.1//EN"
 "http://www.w3.org/Graphics/SVG/1.1/DTD/svg11.dtd">
<!-- Generated by graphviz version 2.26.3 (20100126.1600)
 -->
<!-- Title: fwMedDataTools::helper::SeriesDB::merge Pages: 1 -->
<svg width="482pt" height="302pt"
 viewBox="0.00 0.00 482.00 302.00" xmlns="http://www.w3.org/2000/svg" xmlns:xlink="http://www.w3.org/1999/xlink">
<g id="graph1" class="graph" transform="scale(1 1) rotate(0) translate(4 298)">
<title>fwMedDataTools::helper::SeriesDB::merge</title>
<polygon fill="white" stroke="white" points="-4,5 -4,-298 479,-298 479,5 -4,5"/>
<!-- Node1 -->
<g id="node1" class="node"><title>Node1</title>
<polygon fill="#bfbfbf" stroke="black" points="0.5,-130 0.5,-164 123.5,-164 123.5,-130 0.5,-130"/>
<text text-anchor="start" x="8.5" y="-151" font-family="Helvetica,sans-Serif" font-size="10.00">fwMedDataTools::helper</text>
<text text-anchor="middle" x="62" y="-138" font-family="Helvetica,sans-Serif" font-size="10.00">::SeriesDB::merge</text>
</g>
<!-- Node2 -->
<g id="node3" class="node"><title>Node2</title>
<a xlink:href="classioPacs_1_1SSeriesPuller.html#ad6e611feb6c988b57f51098ecef017ac" target="_top" xlink:title="Read local series. ">
<polygon fill="white" stroke="black" points="187,-260 187,-294 299,-294 299,-260 187,-260"/>
<text text-anchor="start" x="195" y="-281" font-family="Helvetica,sans-Serif" font-size="10.00">ioPacs::SSeriesPuller</text>
<text text-anchor="middle" x="243" y="-268" font-family="Helvetica,sans-Serif" font-size="10.00">::readLocalSeries</text>
</a>
</g>
<!-- Node1&#45;&gt;Node2 -->
<g id="edge2" class="edge"><title>Node1&#45;&gt;Node2</title>
<path fill="none" stroke="midnightblue" d="M79.9057,-172.47C97.7,-196.009 127.038,-230.365 160,-251 168.191,-256.128 177.475,-260.317 186.792,-263.716"/>
<polygon fill="midnightblue" stroke="midnightblue" points="82.6475,-170.292 73.8868,-164.333 77.0198,-174.454 82.6475,-170.292"/>
</g>
<!-- Node4 -->
<g id="node7" class="node"><title>Node4</title>
<a xlink:href="classioITK_1_1SInrSeriesDBReader.html#a52c2b9dee7f52473d803dee1583984e6" target="_top" xlink:title="Reads inr files specified by user (configure or configureWithIHM) and pushes them into SeriesDB...">
<polygon fill="white" stroke="black" points="174.5,-208 174.5,-242 311.5,-242 311.5,-208 174.5,-208"/>
<text text-anchor="start" x="182.5" y="-229" font-family="Helvetica,sans-Serif" font-size="10.00">ioITK::SInrSeriesDBReader</text>
<text text-anchor="middle" x="243" y="-216" font-family="Helvetica,sans-Serif" font-size="10.00">::updating</text>
</a>
</g>
<!-- Node1&#45;&gt;Node4 -->
<g id="edge6" class="edge"><title>Node1&#45;&gt;Node4</title>
<path fill="none" stroke="midnightblue" d="M99.857,-169.187C117.725,-179.109 139.569,-190.465 160,-199 167.524,-202.143 175.567,-205.117 183.575,-207.853"/>
<polygon fill="midnightblue" stroke="midnightblue" points="101.336,-166.004 90.9043,-164.152 97.9046,-172.105 101.336,-166.004"/>
</g>
<!-- Node5 -->
<g id="node9" class="node"><title>Node5</title>
<a xlink:href="classioGdcm_1_1SDicomSeriesConverter.html#a8c0cb9d8b6eaf3fdeb9aa013deb21c6a" target="_top" xlink:title="Override. ">
<polygon fill="white" stroke="black" points="162,-156 162,-190 324,-190 324,-156 162,-156"/>
<text text-anchor="start" x="170" y="-177" font-family="Helvetica,sans-Serif" font-size="10.00">ioGdcm::SDicomSeriesConverter</text>
<text text-anchor="middle" x="243" y="-164" font-family="Helvetica,sans-Serif" font-size="10.00">::updating</text>
</a>
</g>
<!-- Node1&#45;&gt;Node5 -->
<g id="edge8" class="edge"><title>Node1&#45;&gt;Node5</title>
<path fill="none" stroke="midnightblue" d="M133.48,-157.268C142.769,-158.602 152.337,-159.977 161.769,-161.332"/>
<polygon fill="midnightblue" stroke="midnightblue" points="133.927,-153.796 123.531,-155.839 132.932,-160.725 133.927,-153.796"/>
</g>
<!-- Node6 -->
<g id="node11" class="node"><title>Node6</title>
<a xlink:href="classuiIO_1_1action_1_1SSeriesDBMerger.html#a95f67934cbef28b643299d2b7370a384" target="_top" xlink:title="Show the SeriesDB reader selector, load the new SeriesDB and merge it the the current SeriesDB...">
<polygon fill="white" stroke="black" points="167,-104 167,-138 319,-138 319,-104 167,-104"/>
<text text-anchor="start" x="175" y="-125" font-family="Helvetica,sans-Serif" font-size="10.00">uiIO::action::SSeriesDBMerger</text>
<text text-anchor="middle" x="243" y="-112" font-family="Helvetica,sans-Serif" font-size="10.00">::updating</text>
</a>
</g>
<!-- Node1&#45;&gt;Node6 -->
<g id="edge10" class="edge"><title>Node1&#45;&gt;Node6</title>
<path fill="none" stroke="midnightblue" d="M133.48,-136.732C144.455,-135.156 155.821,-133.523 166.891,-131.933"/>
<polygon fill="midnightblue" stroke="midnightblue" points="132.932,-133.275 123.531,-138.161 133.927,-140.204 132.932,-133.275"/>
</g>
<!-- Node7 -->
<g id="node13" class="node"><title>Node7</title>
<a xlink:href="classioGdcm_1_1SDicomSeriesDBReader.html#a3e76d239599148e690eeadd92dac7a3b" target="_top" xlink:title="Override. ">
<polygon fill="white" stroke="black" points="160.5,-52 160.5,-86 325.5,-86 325.5,-52 160.5,-52"/>
<text text-anchor="start" x="168.5" y="-73" font-family="Helvetica,sans-Serif" font-size="10.00">ioGdcm::SDicomSeriesDBReader</text>
<text text-anchor="middle" x="243" y="-60" font-family="Helvetica,sans-Serif" font-size="10.00">::updating</text>
</a>
</g>
<!-- Node1&#45;&gt;Node7 -->
<g id="edge12" class="edge"><title>Node1&#45;&gt;Node7</title>
<path fill="none" stroke="midnightblue" d="M99.857,-124.813C117.725,-114.891 139.569,-103.535 160,-95 167.524,-91.8569 175.567,-88.883 183.575,-86.1467"/>
<polygon fill="midnightblue" stroke="midnightblue" points="97.9046,-121.895 90.9043,-129.848 101.336,-127.996 97.9046,-121.895"/>
</g>
<!-- Node8 -->
<g id="node15" class="node"><title>Node8</title>
<a xlink:href="classioVTK_1_1SSeriesDBReader.html#aa9825c1912cc55c48e8b674241b6846c" target="_top" xlink:title="Updating method. ">
<polygon fill="white" stroke="black" points="178,-0 178,-34 308,-34 308,-0 178,-0"/>
<text text-anchor="start" x="186" y="-21" font-family="Helvetica,sans-Serif" font-size="10.00">ioVTK::SSeriesDBReader</text>
<text text-anchor="middle" x="243" y="-8" font-family="Helvetica,sans-Serif" font-size="10.00">::updating</text>
</a>
</g>
<!-- Node1&#45;&gt;Node8 -->
<g id="edge14" class="edge"><title>Node1&#45;&gt;Node8</title>
<path fill="none" stroke="midnightblue" d="M79.9057,-121.53C97.7,-97.9913 127.038,-63.6346 160,-43 165.504,-39.5546 171.5,-36.5332 177.669,-33.8904"/>
<polygon fill="midnightblue" stroke="midnightblue" points="77.0198,-119.546 73.8868,-129.667 82.6475,-123.708 77.0198,-119.546"/>
</g>
<!-- Node3 -->
<g id="node5" class="node"><title>Node3</title>
<a xlink:href="classioPacs_1_1SSeriesPuller.html#a3d50255da1b4c50c2d8fb8c67a36faf5" target="_top" xlink:title="Constructor. ">
<polygon fill="white" stroke="black" points="362,-260 362,-294 474,-294 474,-260 362,-260"/>
<text text-anchor="start" x="370" y="-281" font-family="Helvetica,sans-Serif" font-size="10.00">ioPacs::SSeriesPuller</text>
<text text-anchor="middle" x="418" y="-268" font-family="Helvetica,sans-Serif" font-size="10.00">::SSeriesPuller</text>
</a>
</g>
<!-- Node2&#45;&gt;Node3 -->
<g id="edge4" class="edge"><title>Node2&#45;&gt;Node3</title>
<path fill="none" stroke="midnightblue" d="M309.349,-277C326.626,-277 345.073,-277 361.771,-277"/>
<polygon fill="midnightblue" stroke="midnightblue" points="309.334,-273.5 299.334,-277 309.334,-280.5 309.334,-273.5"/>
</g>
</g>
</svg>
