<?xml version="1.0" encoding="UTF-8" standalone="no"?>
<!DOCTYPE svg PUBLIC "-//W3C//DTD SVG 1.1//EN"
 "http://www.w3.org/Graphics/SVG/1.1/DTD/svg11.dtd">
<!-- Generated by graphviz version 2.36.0 (20140111.2315)
 -->
<!-- Title: fwGui::dialog::ILocationDialog Pages: 1 -->
<svg width="290pt" height="258pt"
 viewBox="0.00 0.00 290.00 258.00" xmlns="http://www.w3.org/2000/svg" xmlns:xlink="http://www.w3.org/1999/xlink">
<g id="graph0" class="graph" transform="scale(1 1) rotate(0) translate(4 254)">
<title>fwGui::dialog::ILocationDialog</title>
<polygon fill="white" stroke="none" points="-4,4 -4,-254 286,-254 286,4 -4,4"/>
<!-- Node1 -->
<g id="node1" class="node"><title>Node1</title>
<polygon fill="#bfbfbf" stroke="black" points="77.5,-1 77.5,-31 196.5,-31 196.5,-1 77.5,-1"/>
<text text-anchor="start" x="85.5" y="-19" font-family="Helvetica,sans-Serif" font-size="10.00">fwGui::dialog::ILocation</text>
<text text-anchor="middle" x="137" y="-8" font-family="Helvetica,sans-Serif" font-size="10.00">Dialog</text>
</g>
<!-- Node2 -->
<g id="node2" class="node"><title>Node2</title>
<g id="a_node2"><a xlink:href="classfwGui_1_1GuiBaseObject.html" target="_top" xlink:title="Base class for all fwGui&#39;s classes. ">
<polygon fill="white" stroke="black" points="8,-102.5 8,-121.5 122,-121.5 122,-102.5 8,-102.5"/>
<text text-anchor="middle" x="65" y="-109.5" font-family="Helvetica,sans-Serif" font-size="10.00">fwGui::GuiBaseObject</text>
</a>
</g>
</g>
<!-- Node2&#45;&gt;Node1 -->
<g id="edge1" class="edge"><title>Node2&#45;&gt;Node1</title>
<path fill="none" stroke="midnightblue" d="M78.0682,-93.9388C91.8576,-75.936 113.337,-47.8934 126.201,-31.0982"/>
<polygon fill="midnightblue" stroke="midnightblue" points="74.9468,-92.2581 71.6445,-102.325 80.5039,-96.5147 74.9468,-92.2581"/>
</g>
<!-- Node3 -->
<g id="node3" class="node"><title>Node3</title>
<g id="a_node3"><a xlink:href="classfwCore_1_1BaseObject.html" target="_top" xlink:title="Base class for all FW4SPL&#39;s classes. ">
<polygon fill="white" stroke="black" points="12.5,-160.5 12.5,-179.5 117.5,-179.5 117.5,-160.5 12.5,-160.5"/>
<text text-anchor="middle" x="65" y="-167.5" font-family="Helvetica,sans-Serif" font-size="10.00">fwCore::BaseObject</text>
</a>
</g>
</g>
<!-- Node3&#45;&gt;Node2 -->
<g id="edge2" class="edge"><title>Node3&#45;&gt;Node2</title>
<path fill="none" stroke="midnightblue" d="M65,-149.953C65,-140.287 65,-129.031 65,-121.505"/>
<polygon fill="midnightblue" stroke="midnightblue" points="61.5001,-150.25 65,-160.25 68.5001,-150.25 61.5001,-150.25"/>
</g>
<!-- Node4 -->
<g id="node4" class="node"><title>Node4</title>
<polygon fill="white" stroke="#bfbfbf" points="-0.5,-219 -0.5,-249 130.5,-249 130.5,-219 -0.5,-219"/>
<text text-anchor="start" x="7.5" y="-237" font-family="Helvetica,sans-Serif" font-size="10.00">std::enable_shared</text>
<text text-anchor="middle" x="65" y="-226" font-family="Helvetica,sans-Serif" font-size="10.00">_from_this&lt; BaseObject &gt;</text>
</g>
<!-- Node4&#45;&gt;Node3 -->
<g id="edge3" class="edge"><title>Node4&#45;&gt;Node3</title>
<path fill="none" stroke="midnightblue" d="M65,-208.871C65,-198.663 65,-187.408 65,-179.842"/>
<polygon fill="midnightblue" stroke="midnightblue" points="61.5001,-208.931 65,-218.931 68.5001,-208.931 61.5001,-208.931"/>
</g>
<!-- Node5 -->
<g id="node5" class="node"><title>Node5</title>
<polygon fill="white" stroke="#bfbfbf" points="140.5,-102.5 140.5,-121.5 181.5,-121.5 181.5,-102.5 140.5,-102.5"/>
<text text-anchor="middle" x="161" y="-109.5" font-family="Helvetica,sans-Serif" font-size="10.00">static</text>
</g>
<!-- Node5&#45;&gt;Node1 -->
<g id="edge4" class="edge"><title>Node5&#45;&gt;Node1</title>
<path fill="none" stroke="#9a32cd" stroke-dasharray="5,2" d="M156.259,-92.4299C151.656,-74.4009 144.77,-47.4311 140.6,-31.0982"/>
<polygon fill="#9a32cd" stroke="#9a32cd" points="152.92,-93.5019 158.785,-102.325 159.702,-91.7701 152.92,-93.5019"/>
<text text-anchor="middle" x="218" y="-75.5" font-family="Helvetica,sans-Serif" font-size="10.00"> SOFTWARE_UI</text>
<text text-anchor="middle" x="218" y="-64.5" font-family="Helvetica,sans-Serif" font-size="10.00">REGISTRY_KEY</text>
<text text-anchor="middle" x="218" y="-53.5" font-family="Helvetica,sans-Serif" font-size="10.00">DLG_DEFAULT_LOCATION</text>
</g>
</g>
</svg>
