<?xml version="1.0" encoding="UTF-8" standalone="no"?>
<!DOCTYPE svg PUBLIC "-//W3C//DTD SVG 1.1//EN"
 "http://www.w3.org/Graphics/SVG/1.1/DTD/svg11.dtd">
<!-- Generated by graphviz version 2.36.0 (20140111.2315)
 -->
<!-- Title: visuVTKAdaptor::SSnapshot::configuring Pages: 1 -->
<svg width="610pt" height="185pt"
 viewBox="0.00 0.00 610.00 185.00" xmlns="http://www.w3.org/2000/svg" xmlns:xlink="http://www.w3.org/1999/xlink">
<g id="graph0" class="graph" transform="scale(1 1) rotate(0) translate(4 181)">
<title>visuVTKAdaptor::SSnapshot::configuring</title>
<polygon fill="white" stroke="none" points="-4,4 -4,-181 606,-181 606,4 -4,4"/>
<!-- Node1 -->
<g id="node1" class="node"><title>Node1</title>
<polygon fill="#bfbfbf" stroke="black" points="0,-73 0,-103 142,-103 142,-73 0,-73"/>
<text text-anchor="start" x="8" y="-91" font-family="Helvetica,sans-Serif" font-size="10.00">visuVTKAdaptor::SSnapshot</text>
<text text-anchor="middle" x="71" y="-80" font-family="Helvetica,sans-Serif" font-size="10.00">::configuring</text>
</g>
<!-- Node2 -->
<g id="node2" class="node"><title>Node2</title>
<g id="a_node2"><a xlink:href="classfwRenderVTK_1_1IAdaptor.html#abf451ddaeae9fad7eca28360d271e4a4" target="_top" xlink:title="Parse the xml configuration for renderer, picker and transform. ">
<polygon fill="white" stroke="black" points="178.5,-73 178.5,-103 299.5,-103 299.5,-73 178.5,-73"/>
<text text-anchor="start" x="186.5" y="-91" font-family="Helvetica,sans-Serif" font-size="10.00">fwRenderVTK::IAdaptor</text>
<text text-anchor="middle" x="239" y="-80" font-family="Helvetica,sans-Serif" font-size="10.00">::configureParams</text>
</a>
</g>
</g>
<!-- Node1&#45;&gt;Node2 -->
<g id="edge1" class="edge"><title>Node1&#45;&gt;Node2</title>
<path fill="none" stroke="midnightblue" d="M142.399,-88C151.037,-88 159.861,-88 168.485,-88"/>
<polygon fill="midnightblue" stroke="midnightblue" points="168.495,-91.5001 178.495,-88 168.495,-84.5001 168.495,-91.5001"/>
</g>
<!-- Node3 -->
<g id="node3" class="node"><title>Node3</title>
<g id="a_node3"><a xlink:href="classfwServices_1_1IService.html#a25c0048bcdd35e4453d3d418db22b78f" target="_top" xlink:title="Return the configuration, in an boost property tree. ">
<polygon fill="white" stroke="black" points="343.5,-147 343.5,-177 450.5,-177 450.5,-147 343.5,-147"/>
<text text-anchor="start" x="351.5" y="-165" font-family="Helvetica,sans-Serif" font-size="10.00">fwServices::IService</text>
<text text-anchor="middle" x="397" y="-154" font-family="Helvetica,sans-Serif" font-size="10.00">::getConfigTree</text>
</a>
</g>
</g>
<!-- Node2&#45;&gt;Node3 -->
<g id="edge2" class="edge"><title>Node2&#45;&gt;Node3</title>
<path fill="none" stroke="midnightblue" d="M268.281,-103.162C287.254,-113.152 312.904,-126.313 336,-137 340.317,-138.998 344.84,-141.015 349.383,-142.992"/>
<polygon fill="midnightblue" stroke="midnightblue" points="348.107,-146.253 358.678,-146.974 350.864,-139.819 348.107,-146.253"/>
</g>
<!-- Node5 -->
<g id="node5" class="node"><title>Node5</title>
<g id="a_node5"><a xlink:href="classfwRenderVTK_1_1IAdaptor.html#a5d9b171d416c78dc0d28d20fa042b9d5" target="_top" xlink:title="Sets the identifier of the picker used by this adaptor. ">
<polygon fill="white" stroke="black" points="336.5,-98 336.5,-128 457.5,-128 457.5,-98 336.5,-98"/>
<text text-anchor="start" x="344.5" y="-116" font-family="Helvetica,sans-Serif" font-size="10.00">fwRenderVTK::IAdaptor</text>
<text text-anchor="middle" x="397" y="-105" font-family="Helvetica,sans-Serif" font-size="10.00">::setPickerId</text>
</a>
</g>
</g>
<!-- Node2&#45;&gt;Node5 -->
<g id="edge4" class="edge"><title>Node2&#45;&gt;Node5</title>
<path fill="none" stroke="midnightblue" d="M299.868,-97.5942C308.545,-98.9848 317.54,-100.426 326.389,-101.844"/>
<polygon fill="midnightblue" stroke="midnightblue" points="325.865,-105.305 336.293,-103.432 326.973,-98.3932 325.865,-105.305"/>
</g>
<!-- Node6 -->
<g id="node6" class="node"><title>Node6</title>
<g id="a_node6"><a xlink:href="classfwRenderVTK_1_1IAdaptor.html#abe92b6474f5e78b46749b976869cc272" target="_top" xlink:title="Sets the renderer identifier. ">
<polygon fill="white" stroke="black" points="336.5,-49 336.5,-79 457.5,-79 457.5,-49 336.5,-49"/>
<text text-anchor="start" x="344.5" y="-67" font-family="Helvetica,sans-Serif" font-size="10.00">fwRenderVTK::IAdaptor</text>
<text text-anchor="middle" x="397" y="-56" font-family="Helvetica,sans-Serif" font-size="10.00">::setRendererId</text>
</a>
</g>
</g>
<!-- Node2&#45;&gt;Node6 -->
<g id="edge5" class="edge"><title>Node2&#45;&gt;Node6</title>
<path fill="none" stroke="midnightblue" d="M299.868,-78.7896C308.545,-77.4546 317.54,-76.0708 326.389,-74.7094"/>
<polygon fill="midnightblue" stroke="midnightblue" points="326.941,-78.1657 336.293,-73.1857 325.877,-71.2471 326.941,-78.1657"/>
</g>
<!-- Node7 -->
<g id="node7" class="node"><title>Node7</title>
<g id="a_node7"><a xlink:href="classfwRenderVTK_1_1IAdaptor.html#ab071873fa3b3836f5b0d16bd02160da1" target="_top" xlink:title="Sets the identifier of the transform used by this adaptor. ">
<polygon fill="white" stroke="black" points="336.5,-0 336.5,-30 457.5,-30 457.5,-0 336.5,-0"/>
<text text-anchor="start" x="344.5" y="-18" font-family="Helvetica,sans-Serif" font-size="10.00">fwRenderVTK::IAdaptor</text>
<text text-anchor="middle" x="397" y="-7" font-family="Helvetica,sans-Serif" font-size="10.00">::setTransformId</text>
</a>
</g>
</g>
<!-- Node2&#45;&gt;Node7 -->
<g id="edge6" class="edge"><title>Node2&#45;&gt;Node7</title>
<path fill="none" stroke="midnightblue" d="M268.736,-72.9831C287.68,-63.2447 313.126,-50.4689 336,-40 340.326,-38.0202 344.854,-36.0146 349.4,-34.0452"/>
<polygon fill="midnightblue" stroke="midnightblue" points="350.878,-37.2201 358.7,-30.0738 348.128,-30.7826 350.878,-37.2201"/>
</g>
<!-- Node4 -->
<g id="node4" class="node"><title>Node4</title>
<g id="a_node4"><a xlink:href="classfwServices_1_1IService.html#a21ea949603d87785b9a62522d98e2d8c" target="_top" xlink:title="Return the configuration, in an xml format read using runtime library. ">
<polygon fill="white" stroke="black" points="494.5,-147 494.5,-177 601.5,-177 601.5,-147 494.5,-147"/>
<text text-anchor="start" x="502.5" y="-165" font-family="Helvetica,sans-Serif" font-size="10.00">fwServices::IService</text>
<text text-anchor="middle" x="548" y="-154" font-family="Helvetica,sans-Serif" font-size="10.00">::getConfiguration</text>
</a>
</g>
</g>
<!-- Node3&#45;&gt;Node4 -->
<g id="edge3" class="edge"><title>Node3&#45;&gt;Node4</title>
<path fill="none" stroke="midnightblue" d="M450.532,-162C461.437,-162 473.032,-162 484.261,-162"/>
<polygon fill="midnightblue" stroke="midnightblue" points="484.44,-165.5 494.44,-162 484.44,-158.5 484.44,-165.5"/>
</g>
</g>
</svg>
