<?xml version="1.0" encoding="UTF-8" standalone="no"?>
<!DOCTYPE svg PUBLIC "-//W3C//DTD SVG 1.1//EN"
 "http://www.w3.org/Graphics/SVG/1.1/DTD/svg11.dtd">
<!-- Generated by graphviz version 2.26.3 (20100126.1600)
 -->
<!-- Title: fwRenderVTK::IInteractorStyle Pages: 1 -->
<svg width="302pt" height="102pt"
 viewBox="0.00 0.00 302.00 102.00" xmlns="http://www.w3.org/2000/svg" xmlns:xlink="http://www.w3.org/1999/xlink">
<g id="graph1" class="graph" transform="scale(1 1) rotate(0) translate(4 98)">
<title>fwRenderVTK::IInteractorStyle</title>
<polygon fill="white" stroke="white" points="-4,5 -4,-98 299,-98 299,5 -4,5"/>
<!-- Node1 -->
<g id="node1" class="node"><title>Node1</title>
<polygon fill="#bfbfbf" stroke="black" points="83,-59 83,-93 211,-93 211,-59 83,-59"/>
<text text-anchor="start" x="91" y="-80" font-family="Helvetica,sans-Serif" font-size="10.00">fwRenderVTK::IInteractor</text>
<text text-anchor="middle" x="147" y="-67" font-family="Helvetica,sans-Serif" font-size="10.00">Style</text>
</g>
<!-- Node2 -->
<g id="node3" class="node"><title>Node2</title>
<a xlink:href="classInteractorStyle2DForNegato.html" target="_top" xlink:title="InteractorStyle2DForNegato">
<polygon fill="white" stroke="black" points="-0.5,-0.5 -0.5,-21.5 138.5,-21.5 138.5,-0.5 -0.5,-0.5"/>
<text text-anchor="middle" x="69" y="-8.5" font-family="Helvetica,sans-Serif" font-size="10.00">InteractorStyle2DForNegato</text>
</a>
</g>
<!-- Node1&#45;&gt;Node2 -->
<g id="edge2" class="edge"><title>Node1&#45;&gt;Node2</title>
<path fill="none" stroke="midnightblue" d="M118.569,-52.3075C106.055,-41.8792 91.9708,-30.1424 82.0225,-21.8521"/>
<polygon fill="midnightblue" stroke="midnightblue" points="116.584,-55.2089 126.506,-58.922 121.065,-49.8314 116.584,-55.2089"/>
</g>
<!-- Node3 -->
<g id="node5" class="node"><title>Node3</title>
<a xlink:href="classInteractorStyle3DForNegato.html" target="_top" xlink:title="InteractorStyle3DForNegato">
<polygon fill="white" stroke="black" points="155.5,-0.5 155.5,-21.5 294.5,-21.5 294.5,-0.5 155.5,-0.5"/>
<text text-anchor="middle" x="225" y="-8.5" font-family="Helvetica,sans-Serif" font-size="10.00">InteractorStyle3DForNegato</text>
</a>
</g>
<!-- Node1&#45;&gt;Node3 -->
<g id="edge4" class="edge"><title>Node1&#45;&gt;Node3</title>
<path fill="none" stroke="midnightblue" d="M175.431,-52.3075C187.945,-41.8792 202.029,-30.1424 211.977,-21.8521"/>
<polygon fill="midnightblue" stroke="midnightblue" points="172.935,-49.8314 167.494,-58.922 177.416,-55.2089 172.935,-49.8314"/>
</g>
</g>
</svg>
