<?xml version="1.0" encoding="UTF-8" standalone="no"?>
<!DOCTYPE svg PUBLIC "-//W3C//DTD SVG 1.1//EN"
 "http://www.w3.org/Graphics/SVG/1.1/DTD/svg11.dtd">
<!-- Generated by graphviz version 2.36.0 (20140111.2315)
 -->
<!-- Title: fwDicomIOFilter::IFilter Pages: 1 -->
<svg width="1132pt" height="710pt"
 viewBox="0.00 0.00 1132.00 710.00" xmlns="http://www.w3.org/2000/svg" xmlns:xlink="http://www.w3.org/1999/xlink">
<g id="graph0" class="graph" transform="scale(1 1) rotate(0) translate(4 706)">
<title>fwDicomIOFilter::IFilter</title>
<polygon fill="white" stroke="none" points="-4,4 -4,-706 1128,-706 1128,4 -4,4"/>
<!-- Node1 -->
<g id="node1" class="node"><title>Node1</title>
<polygon fill="#bfbfbf" stroke="black" points="432.5,-530.5 432.5,-549.5 551.5,-549.5 551.5,-530.5 432.5,-530.5"/>
<text text-anchor="middle" x="492" y="-537.5" font-family="Helvetica,sans-Serif" font-size="10.00">fwDicomIOFilter::IFilter</text>
</g>
<!-- Node7 -->
<g id="node7" class="node"><title>Node7</title>
<g id="a_node7"><a xlink:href="classfwDicomIOFilter_1_1composite_1_1IComposite.html" target="_top" xlink:title="Base class for Dicom instance composite filter. ">
<polygon fill="white" stroke="black" points="588.5,-647 588.5,-677 727.5,-677 727.5,-647 588.5,-647"/>
<text text-anchor="start" x="596.5" y="-665" font-family="Helvetica,sans-Serif" font-size="10.00">fwDicomIOFilter::composite</text>
<text text-anchor="middle" x="658" y="-654" font-family="Helvetica,sans-Serif" font-size="10.00">::IComposite</text>
</a>
</g>
</g>
<!-- Node1&#45;&gt;Node7 -->
<g id="edge6" class="edge"><title>Node1&#45;&gt;Node7</title>
<path fill="none" stroke="midnightblue" d="M513.182,-555.861C532.299,-570.8 561.887,-593.706 588,-613 603.716,-624.612 621.726,-637.385 635.405,-646.977"/>
<polygon fill="midnightblue" stroke="midnightblue" points="515.216,-553.008 505.185,-549.599 510.901,-558.52 515.216,-553.008"/>
</g>
<!-- Node9 -->
<g id="node9" class="node"><title>Node9</title>
<g id="a_node9"><a xlink:href="classfwDicomIOFilter_1_1custom_1_1ICustom.html" target="_top" xlink:title="Base class for Dicom instance custom filter. ">
<polygon fill="white" stroke="black" points="595,-574 595,-604 721,-604 721,-574 595,-574"/>
<text text-anchor="start" x="603" y="-592" font-family="Helvetica,sans-Serif" font-size="10.00">fwDicomIOFilter::custom</text>
<text text-anchor="middle" x="658" y="-581" font-family="Helvetica,sans-Serif" font-size="10.00">::ICustom</text>
</a>
</g>
</g>
<!-- Node1&#45;&gt;Node9 -->
<g id="edge8" class="edge"><title>Node1&#45;&gt;Node9</title>
<path fill="none" stroke="midnightblue" d="M534.683,-552.454C556.589,-558.999 583.606,-567.071 606.672,-573.963"/>
<polygon fill="midnightblue" stroke="midnightblue" points="535.594,-549.073 525.01,-549.564 533.59,-555.78 535.594,-549.073"/>
</g>
<!-- Node12 -->
<g id="node12" class="node"><title>Node12</title>
<g id="a_node12"><a xlink:href="classfwDicomIOFilter_1_1modifier_1_1IModifier.html" target="_top" xlink:title="Base class for Dicom instance modifier. ">
<polygon fill="white" stroke="black" points="594,-525 594,-555 722,-555 722,-525 594,-525"/>
<text text-anchor="start" x="602" y="-543" font-family="Helvetica,sans-Serif" font-size="10.00">fwDicomIOFilter::modifier</text>
<text text-anchor="middle" x="658" y="-532" font-family="Helvetica,sans-Serif" font-size="10.00">::IModifier</text>
</a>
</g>
</g>
<!-- Node1&#45;&gt;Node12 -->
<g id="edge11" class="edge"><title>Node1&#45;&gt;Node12</title>
<path fill="none" stroke="midnightblue" d="M561.836,-540C572.485,-540 583.437,-540 593.95,-540"/>
<polygon fill="midnightblue" stroke="midnightblue" points="561.745,-536.5 551.745,-540 561.745,-543.5 561.745,-536.5"/>
</g>
<!-- Node14 -->
<g id="node14" class="node"><title>Node14</title>
<g id="a_node14"><a xlink:href="classfwDicomIOFilter_1_1sorter_1_1ISorter.html" target="_top" xlink:title="Base class for Dicom instance sorter. ">
<polygon fill="white" stroke="black" points="598.5,-476 598.5,-506 717.5,-506 717.5,-476 598.5,-476"/>
<text text-anchor="start" x="606.5" y="-494" font-family="Helvetica,sans-Serif" font-size="10.00">fwDicomIOFilter::sorter</text>
<text text-anchor="middle" x="658" y="-483" font-family="Helvetica,sans-Serif" font-size="10.00">::ISorter</text>
</a>
</g>
</g>
<!-- Node1&#45;&gt;Node14 -->
<g id="edge13" class="edge"><title>Node1&#45;&gt;Node14</title>
<path fill="none" stroke="midnightblue" d="M534.683,-527.546C556.589,-521.001 583.606,-512.929 606.672,-506.037"/>
<polygon fill="midnightblue" stroke="midnightblue" points="533.59,-524.22 525.01,-530.436 535.594,-530.927 533.59,-524.22"/>
</g>
<!-- Node19 -->
<g id="node19" class="node"><title>Node19</title>
<g id="a_node19"><a xlink:href="classfwDicomIOFilter_1_1splitter_1_1ISplitter.html" target="_top" xlink:title="Base class for Dicom instance splitter. ">
<polygon fill="white" stroke="black" points="596.5,-329 596.5,-359 719.5,-359 719.5,-329 596.5,-329"/>
<text text-anchor="start" x="604.5" y="-347" font-family="Helvetica,sans-Serif" font-size="10.00">fwDicomIOFilter::splitter</text>
<text text-anchor="middle" x="658" y="-336" font-family="Helvetica,sans-Serif" font-size="10.00">::ISplitter</text>
</a>
</g>
</g>
<!-- Node1&#45;&gt;Node19 -->
<g id="edge18" class="edge"><title>Node1&#45;&gt;Node19</title>
<path fill="none" stroke="midnightblue" d="M507.555,-522.605C539.301,-484.664 614.319,-395.01 644.298,-359.18"/>
<polygon fill="midnightblue" stroke="midnightblue" points="504.866,-520.365 501.133,-530.28 510.234,-524.857 504.866,-520.365"/>
</g>
<!-- Node2 -->
<g id="node2" class="node"><title>Node2</title>
<g id="a_node2"><a xlink:href="classfwTools_1_1Object.html" target="_top" xlink:title="Define Base class for FW4SPL objects and services. ">
<polygon fill="white" stroke="black" points="310,-530.5 310,-549.5 396,-549.5 396,-530.5 310,-530.5"/>
<text text-anchor="middle" x="353" y="-537.5" font-family="Helvetica,sans-Serif" font-size="10.00">fwTools::Object</text>
</a>
</g>
</g>
<!-- Node2&#45;&gt;Node1 -->
<g id="edge1" class="edge"><title>Node2&#45;&gt;Node1</title>
<path fill="none" stroke="midnightblue" d="M406.358,-540C414.84,-540 423.672,-540 432.293,-540"/>
<polygon fill="midnightblue" stroke="midnightblue" points="406.222,-536.5 396.222,-540 406.222,-543.5 406.222,-536.5"/>
</g>
<!-- Node3 -->
<g id="node3" class="node"><title>Node3</title>
<g id="a_node3"><a xlink:href="classfwCore_1_1BaseObject.html" target="_top" xlink:title="Base class for all FW4SPL&#39;s classes. ">
<polygon fill="white" stroke="black" points="168.5,-568.5 168.5,-587.5 273.5,-587.5 273.5,-568.5 168.5,-568.5"/>
<text text-anchor="middle" x="221" y="-575.5" font-family="Helvetica,sans-Serif" font-size="10.00">fwCore::BaseObject</text>
</a>
</g>
</g>
<!-- Node3&#45;&gt;Node2 -->
<g id="edge2" class="edge"><title>Node3&#45;&gt;Node2</title>
<path fill="none" stroke="midnightblue" d="M264.884,-565.465C282.569,-560.295 302.734,-554.401 319.206,-549.586"/>
<polygon fill="midnightblue" stroke="midnightblue" points="263.421,-562.246 254.804,-568.411 265.385,-568.965 263.421,-562.246"/>
</g>
<!-- Node4 -->
<g id="node4" class="node"><title>Node4</title>
<polygon fill="white" stroke="#bfbfbf" points="0.5,-563 0.5,-593 131.5,-593 131.5,-563 0.5,-563"/>
<text text-anchor="start" x="8.5" y="-581" font-family="Helvetica,sans-Serif" font-size="10.00">std::enable_shared</text>
<text text-anchor="middle" x="66" y="-570" font-family="Helvetica,sans-Serif" font-size="10.00">_from_this&lt; BaseObject &gt;</text>
</g>
<!-- Node4&#45;&gt;Node3 -->
<g id="edge3" class="edge"><title>Node4&#45;&gt;Node3</title>
<path fill="none" stroke="midnightblue" d="M141.972,-578C150.939,-578 159.934,-578 168.464,-578"/>
<polygon fill="midnightblue" stroke="midnightblue" points="141.886,-574.5 131.886,-578 141.886,-581.5 141.886,-574.5"/>
</g>
<!-- Node5 -->
<g id="node5" class="node"><title>Node5</title>
<polygon fill="white" stroke="#bfbfbf" points="185.5,-530.5 185.5,-549.5 256.5,-549.5 256.5,-530.5 185.5,-530.5"/>
<text text-anchor="middle" x="221" y="-537.5" font-family="Helvetica,sans-Serif" font-size="10.00">noncopyable</text>
</g>
<!-- Node5&#45;&gt;Node2 -->
<g id="edge4" class="edge"><title>Node5&#45;&gt;Node2</title>
<path fill="none" stroke="midnightblue" d="M267.09,-540C280.896,-540 296.029,-540 309.647,-540"/>
<polygon fill="midnightblue" stroke="midnightblue" points="266.838,-536.5 256.838,-540 266.838,-543.5 266.838,-536.5"/>
</g>
<!-- Node6 -->
<g id="node6" class="node"><title>Node6</title>
<g id="a_node6"><a xlink:href="classfwTools_1_1fwID.html" target="_top" xlink:title="Defines ID for fwTools::Object. It is used to associate ID with object. ">
<polygon fill="white" stroke="black" points="182,-492.5 182,-511.5 260,-511.5 260,-492.5 182,-492.5"/>
<text text-anchor="middle" x="221" y="-499.5" font-family="Helvetica,sans-Serif" font-size="10.00">fwTools::fwID</text>
</a>
</g>
</g>
<!-- Node6&#45;&gt;Node2 -->
<g id="edge5" class="edge"><title>Node6&#45;&gt;Node2</title>
<path fill="none" stroke="darkgreen" d="M264.884,-514.535C282.569,-519.705 302.734,-525.599 319.206,-530.414"/>
<polygon fill="darkgreen" stroke="darkgreen" points="265.385,-511.035 254.804,-511.589 263.421,-517.754 265.385,-511.035"/>
</g>
<!-- Node8 -->
<g id="node8" class="node"><title>Node8</title>
<g id="a_node8"><a xlink:href="classfwDicomIOFilter_1_1composite_1_1CTImageStorageDefaultComposite.html" target="_top" xlink:title="Default filter used to read CTImageStorage SOP class. ">
<polygon fill="white" stroke="black" points="764,-672 764,-702 940,-702 940,-672 764,-672"/>
<text text-anchor="start" x="772" y="-690" font-family="Helvetica,sans-Serif" font-size="10.00">fwDicomIOFilter::composite</text>
<text text-anchor="middle" x="852" y="-679" font-family="Helvetica,sans-Serif" font-size="10.00">::CTImageStorageDefaultComposite</text>
</a>
</g>
</g>
<!-- Node7&#45;&gt;Node8 -->
<g id="edge7" class="edge"><title>Node7&#45;&gt;Node8</title>
<path fill="none" stroke="midnightblue" d="M737.532,-672.226C746.167,-673.35 754.997,-674.5 763.729,-675.637"/>
<polygon fill="midnightblue" stroke="midnightblue" points="737.871,-668.74 727.503,-670.92 736.968,-675.682 737.871,-668.74"/>
</g>
<!-- Node10 -->
<g id="node10" class="node"><title>Node10</title>
<g id="a_node10"><a xlink:href="classfwDicomIOFilter_1_1custom_1_1DefaultDicomFilter.html" target="_top" xlink:title="Default DICOM Filter. ">
<polygon fill="white" stroke="black" points="789,-623 789,-653 915,-653 915,-623 789,-623"/>
<text text-anchor="start" x="797" y="-641" font-family="Helvetica,sans-Serif" font-size="10.00">fwDicomIOFilter::custom</text>
<text text-anchor="middle" x="852" y="-630" font-family="Helvetica,sans-Serif" font-size="10.00">::DefaultDicomFilter</text>
</a>
</g>
</g>
<!-- Node9&#45;&gt;Node10 -->
<g id="edge9" class="edge"><title>Node9&#45;&gt;Node10</title>
<path fill="none" stroke="midnightblue" d="M727.767,-606.55C748.851,-611.931 771.845,-617.799 792.2,-622.994"/>
<polygon fill="midnightblue" stroke="midnightblue" points="728.466,-603.116 717.911,-604.035 726.735,-609.899 728.466,-603.116"/>
</g>
<!-- Node11 -->
<g id="node11" class="node"><title>Node11</title>
<g id="a_node11"><a xlink:href="classfwDicomIOFilter_1_1custom_1_1NoFilter.html" target="_top" xlink:title="Filter that doesn&#39;t apply any modification. ">
<polygon fill="white" stroke="black" points="789,-574 789,-604 915,-604 915,-574 789,-574"/>
<text text-anchor="start" x="797" y="-592" font-family="Helvetica,sans-Serif" font-size="10.00">fwDicomIOFilter::custom</text>
<text text-anchor="middle" x="852" y="-581" font-family="Helvetica,sans-Serif" font-size="10.00">::NoFilter</text>
</a>
</g>
</g>
<!-- Node9&#45;&gt;Node11 -->
<g id="edge10" class="edge"><title>Node9&#45;&gt;Node11</title>
<path fill="none" stroke="midnightblue" d="M731.152,-589C750.121,-589 770.417,-589 788.813,-589"/>
<polygon fill="midnightblue" stroke="midnightblue" points="731.072,-585.5 721.072,-589 731.072,-592.5 731.072,-585.5"/>
</g>
<!-- Node13 -->
<g id="node13" class="node"><title>Node13</title>
<g id="a_node13"><a xlink:href="classfwDicomIOFilter_1_1modifier_1_1SliceThicknessModifier.html" target="_top" xlink:title="Filter that uses the ImagepositionPatient tag to sort the instances. The position increases along the...">
<polygon fill="white" stroke="black" points="788,-525 788,-555 916,-555 916,-525 788,-525"/>
<text text-anchor="start" x="796" y="-543" font-family="Helvetica,sans-Serif" font-size="10.00">fwDicomIOFilter::modifier</text>
<text text-anchor="middle" x="852" y="-532" font-family="Helvetica,sans-Serif" font-size="10.00">::SliceThicknessModifier</text>
</a>
</g>
</g>
<!-- Node12&#45;&gt;Node13 -->
<g id="edge12" class="edge"><title>Node12&#45;&gt;Node13</title>
<path fill="none" stroke="midnightblue" d="M732.18,-540C750.514,-540 770.027,-540 787.828,-540"/>
<polygon fill="midnightblue" stroke="midnightblue" points="732.134,-536.5 722.134,-540 732.134,-543.5 732.134,-536.5"/>
</g>
<!-- Node15 -->
<g id="node15" class="node"><title>Node15</title>
<g id="a_node15"><a xlink:href="classfwDicomIOFilter_1_1sorter_1_1ImagePositionPatientSorter.html" target="_top" xlink:title="Filter that uses the ImagepositionPatient tag to sort the instances. The position increases along the...">
<polygon fill="white" stroke="black" points="781,-476 781,-506 923,-506 923,-476 781,-476"/>
<text text-anchor="start" x="789" y="-494" font-family="Helvetica,sans-Serif" font-size="10.00">fwDicomIOFilter::sorter</text>
<text text-anchor="middle" x="852" y="-483" font-family="Helvetica,sans-Serif" font-size="10.00">::ImagePositionPatientSorter</text>
</a>
</g>
</g>
<!-- Node14&#45;&gt;Node15 -->
<g id="edge14" class="edge"><title>Node14&#45;&gt;Node15</title>
<path fill="none" stroke="midnightblue" d="M727.661,-491C744.95,-491 763.53,-491 780.89,-491"/>
<polygon fill="midnightblue" stroke="midnightblue" points="727.65,-487.5 717.65,-491 727.65,-494.5 727.65,-487.5"/>
</g>
<!-- Node16 -->
<g id="node16" class="node"><title>Node16</title>
<g id="a_node16"><a xlink:href="classfwDicomIOFilter_1_1sorter_1_1TagValueSorter.html" target="_top" xlink:title="Filter that uses a tag to sort the instances. ">
<polygon fill="white" stroke="black" points="792.5,-427 792.5,-457 911.5,-457 911.5,-427 792.5,-427"/>
<text text-anchor="start" x="800.5" y="-445" font-family="Helvetica,sans-Serif" font-size="10.00">fwDicomIOFilter::sorter</text>
<text text-anchor="middle" x="852" y="-434" font-family="Helvetica,sans-Serif" font-size="10.00">::TagValueSorter</text>
</a>
</g>
</g>
<!-- Node14&#45;&gt;Node16 -->
<g id="edge15" class="edge"><title>Node14&#45;&gt;Node16</title>
<path fill="none" stroke="midnightblue" d="M727.558,-473.503C748.761,-468.092 771.913,-462.184 792.379,-456.961"/>
<polygon fill="midnightblue" stroke="midnightblue" points="726.474,-470.168 717.65,-476.032 728.205,-476.951 726.474,-470.168"/>
</g>
<!-- Node17 -->
<g id="node17" class="node"><title>Node17</title>
<g id="a_node17"><a xlink:href="classfwDicomIOFilter_1_1sorter_1_1InstanceNumberSorter.html" target="_top" xlink:title="Filter that uses the InstanceNumber tag to sort the instances. ">
<polygon fill="white" stroke="black" points="989.5,-454 989.5,-484 1110.5,-484 1110.5,-454 989.5,-454"/>
<text text-anchor="start" x="997.5" y="-472" font-family="Helvetica,sans-Serif" font-size="10.00">fwDicomIOFilter::sorter</text>
<text text-anchor="middle" x="1050" y="-461" font-family="Helvetica,sans-Serif" font-size="10.00">::InstanceNumberSorter</text>
</a>
</g>
</g>
<!-- Node16&#45;&gt;Node17 -->
<g id="edge16" class="edge"><title>Node16&#45;&gt;Node17</title>
<path fill="none" stroke="midnightblue" d="M921.531,-451.441C943.653,-454.488 967.983,-457.839 989.405,-460.79"/>
<polygon fill="midnightblue" stroke="midnightblue" points="921.925,-447.962 911.541,-450.064 920.97,-454.896 921.925,-447.962"/>
</g>
<!-- Node18 -->
<g id="node18" class="node"><title>Node18</title>
<g id="a_node18"><a xlink:href="classfwDicomIOFilterQt_1_1sorter_1_1TagValueConfigurableSorter.html" target="_top" xlink:title="Filter that uses a tag to sort the instances. ">
<polygon fill="white" stroke="black" points="978.5,-394.5 978.5,-435.5 1121.5,-435.5 1121.5,-394.5 978.5,-394.5"/>
<text text-anchor="start" x="986.5" y="-423.5" font-family="Helvetica,sans-Serif" font-size="10.00">fwDicomIOFilterQt::</text>
<text text-anchor="start" x="986.5" y="-412.5" font-family="Helvetica,sans-Serif" font-size="10.00">sorter::TagValueConfigurable</text>
<text text-anchor="middle" x="1050" y="-401.5" font-family="Helvetica,sans-Serif" font-size="10.00">Sorter</text>
</a>
</g>
</g>
<!-- Node16&#45;&gt;Node18 -->
<g id="edge17" class="edge"><title>Node16&#45;&gt;Node18</title>
<path fill="none" stroke="midnightblue" d="M921.569,-432.554C939.936,-430.024 959.822,-427.285 978.301,-424.739"/>
<polygon fill="midnightblue" stroke="midnightblue" points="920.97,-429.104 911.541,-433.936 921.925,-436.038 920.97,-429.104"/>
</g>
<!-- Node20 -->
<g id="node20" class="node"><title>Node20</title>
<g id="a_node20"><a xlink:href="classfwDicomIOFilter_1_1splitter_1_1ImageDimensionsSplitter.html" target="_top" xlink:title="Filter that uses the image dimensions to split the instances. ">
<polygon fill="white" stroke="black" points="786,-378 786,-408 918,-408 918,-378 786,-378"/>
<text text-anchor="start" x="794" y="-396" font-family="Helvetica,sans-Serif" font-size="10.00">fwDicomIOFilter::splitter</text>
<text text-anchor="middle" x="852" y="-385" font-family="Helvetica,sans-Serif" font-size="10.00">::ImageDimensionsSplitter</text>
</a>
</g>
</g>
<!-- Node19&#45;&gt;Node20 -->
<g id="edge19" class="edge"><title>Node19&#45;&gt;Node20</title>
<path fill="none" stroke="midnightblue" d="M727.767,-361.55C748.851,-366.931 771.845,-372.799 792.2,-377.994"/>
<polygon fill="midnightblue" stroke="midnightblue" points="728.466,-358.116 717.911,-359.035 726.735,-364.899 728.466,-358.116"/>
</g>
<!-- Node21 -->
<g id="node21" class="node"><title>Node21</title>
<g id="a_node21"><a xlink:href="classfwDicomIOFilter_1_1splitter_1_1ImagePositionPatientSplitter.html" target="_top" xlink:title="Filter that uses the ImagePositionPatient tag to split the instances. For this filter to work properl...">
<polygon fill="white" stroke="black" points="779,-329 779,-359 925,-359 925,-329 779,-329"/>
<text text-anchor="start" x="787" y="-347" font-family="Helvetica,sans-Serif" font-size="10.00">fwDicomIOFilter::splitter</text>
<text text-anchor="middle" x="852" y="-336" font-family="Helvetica,sans-Serif" font-size="10.00">::ImagePositionPatientSplitter</text>
</a>
</g>
</g>
<!-- Node19&#45;&gt;Node21 -->
<g id="edge20" class="edge"><title>Node19&#45;&gt;Node21</title>
<path fill="none" stroke="midnightblue" d="M730.059,-344C745.994,-344 762.914,-344 778.892,-344"/>
<polygon fill="midnightblue" stroke="midnightblue" points="729.75,-340.5 719.75,-344 729.75,-347.5 729.75,-340.5"/>
</g>
<!-- Node22 -->
<g id="node22" class="node"><title>Node22</title>
<g id="a_node22"><a xlink:href="classfwDicomIOFilter_1_1splitter_1_1TagValueInstanceRemoveSplitter.html" target="_top" xlink:title="Filter that remove instances according to tag value. ">
<polygon fill="white" stroke="black" points="767.5,-280 767.5,-310 936.5,-310 936.5,-280 767.5,-280"/>
<text text-anchor="start" x="775.5" y="-298" font-family="Helvetica,sans-Serif" font-size="10.00">fwDicomIOFilter::splitter</text>
<text text-anchor="middle" x="852" y="-287" font-family="Helvetica,sans-Serif" font-size="10.00">::TagValueInstanceRemoveSplitter</text>
</a>
</g>
</g>
<!-- Node19&#45;&gt;Node22 -->
<g id="edge21" class="edge"><title>Node19&#45;&gt;Node22</title>
<path fill="none" stroke="midnightblue" d="M727.767,-326.45C748.851,-321.069 771.845,-315.201 792.2,-310.006"/>
<polygon fill="midnightblue" stroke="midnightblue" points="726.735,-323.101 717.911,-328.965 728.466,-329.884 726.735,-323.101"/>
</g>
<!-- Node24 -->
<g id="node24" class="node"><title>Node24</title>
<g id="a_node24"><a xlink:href="classfwDicomIOFilter_1_1splitter_1_1TagValueSplitter.html" target="_top" xlink:title="Filter that uses a tag to split the instances. ">
<polygon fill="white" stroke="black" points="790.5,-158 790.5,-188 913.5,-188 913.5,-158 790.5,-158"/>
<text text-anchor="start" x="798.5" y="-176" font-family="Helvetica,sans-Serif" font-size="10.00">fwDicomIOFilter::splitter</text>
<text text-anchor="middle" x="852" y="-165" font-family="Helvetica,sans-Serif" font-size="10.00">::TagValueSplitter</text>
</a>
</g>
</g>
<!-- Node19&#45;&gt;Node24 -->
<g id="edge23" class="edge"><title>Node19&#45;&gt;Node24</title>
<path fill="none" stroke="midnightblue" d="M683.913,-321.812C723.565,-286.497 800.015,-218.408 833.999,-188.141"/>
<polygon fill="midnightblue" stroke="midnightblue" points="681.179,-319.56 676.039,-328.825 685.834,-324.788 681.179,-319.56"/>
</g>
<!-- Node23 -->
<g id="node23" class="node"><title>Node23</title>
<g id="a_node23"><a xlink:href="classfwDicomIOFilterQt_1_1splitter_1_1TagValueInstanceRemoveConfigurableSplitter.html" target="_top" xlink:title="Filter that remove instances if a tag has a certain value. ">
<polygon fill="white" stroke="black" points="980.5,-304.5 980.5,-345.5 1119.5,-345.5 1119.5,-304.5 980.5,-304.5"/>
<text text-anchor="start" x="988.5" y="-333.5" font-family="Helvetica,sans-Serif" font-size="10.00">fwDicomIOFilterQt::</text>
<text text-anchor="start" x="988.5" y="-322.5" font-family="Helvetica,sans-Serif" font-size="10.00">splitter::TagValueInstance</text>
<text text-anchor="middle" x="1050" y="-311.5" font-family="Helvetica,sans-Serif" font-size="10.00">RemoveConfigurableSplitter</text>
</a>
</g>
</g>
<!-- Node22&#45;&gt;Node23 -->
<g id="edge22" class="edge"><title>Node22&#45;&gt;Node23</title>
<path fill="none" stroke="midnightblue" d="M946.642,-309.333C958.007,-311.072 969.45,-312.824 980.358,-314.494"/>
<polygon fill="midnightblue" stroke="midnightblue" points="947.105,-305.863 936.69,-307.81 946.045,-312.783 947.105,-305.863"/>
</g>
<!-- Node25 -->
<g id="node25" class="node"><title>Node25</title>
<g id="a_node25"><a xlink:href="classfwDicomIOFilter_1_1splitter_1_1AcquisitionNumberSplitter.html" target="_top" xlink:title="Filter that uses the AcquisitionNumber tag to split the instances. ">
<polygon fill="white" stroke="black" points="982,-256 982,-286 1118,-286 1118,-256 982,-256"/>
<text text-anchor="start" x="990" y="-274" font-family="Helvetica,sans-Serif" font-size="10.00">fwDicomIOFilter::splitter</text>
<text text-anchor="middle" x="1050" y="-263" font-family="Helvetica,sans-Serif" font-size="10.00">::AcquisitionNumberSplitter</text>
</a>
</g>
</g>
<!-- Node24&#45;&gt;Node25 -->
<g id="edge24" class="edge"><title>Node24&#45;&gt;Node25</title>
<path fill="none" stroke="midnightblue" d="M883.798,-193.698C908.111,-209.434 943.275,-230.881 976,-246 983.783,-249.596 992.237,-252.956 1000.54,-255.974"/>
<polygon fill="midnightblue" stroke="midnightblue" points="885.642,-190.722 875.356,-188.181 881.813,-196.582 885.642,-190.722"/>
</g>
<!-- Node26 -->
<g id="node26" class="node"><title>Node26</title>
<g id="a_node26"><a xlink:href="classfwDicomIOFilter_1_1splitter_1_1ImageOrientationSplitter.html" target="_top" xlink:title="Filter that uses the ImageOrientationPatient tag to split the instances. ">
<polygon fill="white" stroke="black" points="986,-207 986,-237 1114,-237 1114,-207 986,-207"/>
<text text-anchor="start" x="994" y="-225" font-family="Helvetica,sans-Serif" font-size="10.00">fwDicomIOFilter::splitter</text>
<text text-anchor="middle" x="1050" y="-214" font-family="Helvetica,sans-Serif" font-size="10.00">::ImageOrientationSplitter</text>
</a>
</g>
</g>
<!-- Node24&#45;&gt;Node26 -->
<g id="edge25" class="edge"><title>Node24&#45;&gt;Node26</title>
<path fill="none" stroke="midnightblue" d="M922.907,-190.477C944.51,-195.877 968.102,-201.776 988.975,-206.994"/>
<polygon fill="midnightblue" stroke="midnightblue" points="923.689,-187.065 913.138,-188.035 921.991,-193.856 923.689,-187.065"/>
</g>
<!-- Node27 -->
<g id="node27" class="node"><title>Node27</title>
<g id="a_node27"><a xlink:href="classfwDicomIOFilter_1_1splitter_1_1ImageTypeSplitter.html" target="_top" xlink:title="Filter that uses the ImageType tag to split the instances. ">
<polygon fill="white" stroke="black" points="988.5,-158 988.5,-188 1111.5,-188 1111.5,-158 988.5,-158"/>
<text text-anchor="start" x="996.5" y="-176" font-family="Helvetica,sans-Serif" font-size="10.00">fwDicomIOFilter::splitter</text>
<text text-anchor="middle" x="1050" y="-165" font-family="Helvetica,sans-Serif" font-size="10.00">::ImageTypeSplitter</text>
</a>
</g>
</g>
<!-- Node24&#45;&gt;Node27 -->
<g id="edge26" class="edge"><title>Node24&#45;&gt;Node27</title>
<path fill="none" stroke="midnightblue" d="M923.866,-173C944.965,-173 967.885,-173 988.276,-173"/>
<polygon fill="midnightblue" stroke="midnightblue" points="923.673,-169.5 913.673,-173 923.673,-176.5 923.673,-169.5"/>
</g>
<!-- Node28 -->
<g id="node28" class="node"><title>Node28</title>
<g id="a_node28"><a xlink:href="classfwDicomIOFilter_1_1splitter_1_1SOPClassUIDSplitter.html" target="_top" xlink:title="Filter that uses the SOPClassUID tag to split the instances. ">
<polygon fill="white" stroke="black" points="988.5,-109 988.5,-139 1111.5,-139 1111.5,-109 988.5,-109"/>
<text text-anchor="start" x="996.5" y="-127" font-family="Helvetica,sans-Serif" font-size="10.00">fwDicomIOFilter::splitter</text>
<text text-anchor="middle" x="1050" y="-116" font-family="Helvetica,sans-Serif" font-size="10.00">::SOPClassUIDSplitter</text>
</a>
</g>
</g>
<!-- Node24&#45;&gt;Node28 -->
<g id="edge27" class="edge"><title>Node24&#45;&gt;Node28</title>
<path fill="none" stroke="midnightblue" d="M922.907,-155.523C944.51,-150.123 968.102,-144.224 988.975,-139.006"/>
<polygon fill="midnightblue" stroke="midnightblue" points="921.991,-152.144 913.138,-157.965 923.689,-158.935 921.991,-152.144"/>
</g>
<!-- Node29 -->
<g id="node29" class="node"><title>Node29</title>
<g id="a_node29"><a xlink:href="classfwDicomIOFilter_1_1splitter_1_1TemporalPositionSplitter.html" target="_top" xlink:title="Filter that uses the TemporalPositionIdentifier tag to split the instances. ">
<polygon fill="white" stroke="black" points="985.5,-60 985.5,-90 1114.5,-90 1114.5,-60 985.5,-60"/>
<text text-anchor="start" x="993.5" y="-78" font-family="Helvetica,sans-Serif" font-size="10.00">fwDicomIOFilter::splitter</text>
<text text-anchor="middle" x="1050" y="-67" font-family="Helvetica,sans-Serif" font-size="10.00">::TemporalPositionSplitter</text>
</a>
</g>
</g>
<!-- Node24&#45;&gt;Node29 -->
<g id="edge28" class="edge"><title>Node24&#45;&gt;Node29</title>
<path fill="none" stroke="midnightblue" d="M883.26,-152.168C907.537,-136.112 942.908,-114.162 976,-99 983.035,-95.777 990.629,-92.7825 998.168,-90.0784"/>
<polygon fill="midnightblue" stroke="midnightblue" points="881.212,-149.327 874.843,-157.794 885.102,-155.147 881.212,-149.327"/>
</g>
<!-- Node30 -->
<g id="node30" class="node"><title>Node30</title>
<g id="a_node30"><a xlink:href="classfwDicomIOFilterQt_1_1splitter_1_1TagValueConfigurableSplitter.html" target="_top" xlink:title="Filter that uses a tag to split the instances. ">
<polygon fill="white" stroke="black" points="976,-0.5 976,-41.5 1124,-41.5 1124,-0.5 976,-0.5"/>
<text text-anchor="start" x="984" y="-29.5" font-family="Helvetica,sans-Serif" font-size="10.00">fwDicomIOFilterQt::</text>
<text text-anchor="start" x="984" y="-18.5" font-family="Helvetica,sans-Serif" font-size="10.00">splitter::TagValueConfigurable</text>
<text text-anchor="middle" x="1050" y="-7.5" font-family="Helvetica,sans-Serif" font-size="10.00">Splitter</text>
</a>
</g>
</g>
<!-- Node24&#45;&gt;Node30 -->
<g id="edge29" class="edge"><title>Node24&#45;&gt;Node30</title>
<path fill="none" stroke="midnightblue" d="M871.003,-149.98C893.192,-122.914 933.241,-78.1228 976,-50 980.671,-46.9276 985.719,-44.0955 990.902,-41.5055"/>
<polygon fill="midnightblue" stroke="midnightblue" points="868.269,-147.795 864.707,-157.773 873.714,-152.194 868.269,-147.795"/>
</g>
</g>
</svg>
