<?xml version="1.0" encoding="UTF-8" standalone="no"?>
<!DOCTYPE svg PUBLIC "-//W3C//DTD SVG 1.1//EN"
 "http://www.w3.org/Graphics/SVG/1.1/DTD/svg11.dtd">
<!-- Generated by graphviz version 2.26.3 (20100126.1600)
 -->
<!-- Title: fwDcmtkIO::reader::main::ImageLazyStream Pages: 1 -->
<svg width="130pt" height="116pt"
 viewBox="0.00 0.00 130.00 116.00" xmlns="http://www.w3.org/2000/svg" xmlns:xlink="http://www.w3.org/1999/xlink">
<g id="graph1" class="graph" transform="scale(1 1) rotate(0) translate(4 112)">
<title>fwDcmtkIO::reader::main::ImageLazyStream</title>
<polygon fill="white" stroke="white" points="-4,5 -4,-112 127,-112 127,5 -4,5"/>
<!-- Node1 -->
<g id="node1" class="node"><title>Node1</title>
<polygon fill="#bfbfbf" stroke="black" points="-0.5,-1 -0.5,-35 122.5,-35 122.5,-1 -0.5,-1"/>
<text text-anchor="start" x="7.5" y="-22" font-family="Helvetica,sans-Serif" font-size="10.00">fwDcmtkIO::reader::</text>
<text text-anchor="middle" x="61" y="-9" font-family="Helvetica,sans-Serif" font-size="10.00">main::ImageLazyStream</text>
</g>
<!-- Node2 -->
<g id="node2" class="node"><title>Node2</title>
<a xlink:href="classfwMemory_1_1stream_1_1in_1_1IFactory.html" target="_top" xlink:title="fwMemory::stream::in\l::IFactory">
<polygon fill="white" stroke="black" points="5,-73 5,-107 117,-107 117,-73 5,-73"/>
<text text-anchor="start" x="13" y="-94" font-family="Helvetica,sans-Serif" font-size="10.00">fwMemory::stream::in</text>
<text text-anchor="middle" x="61" y="-81" font-family="Helvetica,sans-Serif" font-size="10.00">::IFactory</text>
</a>
</g>
<!-- Node2&#45;&gt;Node1 -->
<g id="edge2" class="edge"><title>Node2&#45;&gt;Node1</title>
<path fill="none" stroke="midnightblue" d="M61,-62.7193C61,-53.572 61,-43.6255 61,-35.4407"/>
<polygon fill="midnightblue" stroke="midnightblue" points="57.5001,-62.937 61,-72.937 64.5001,-62.937 57.5001,-62.937"/>
</g>
</g>
</svg>
