<?xml version="1.0" encoding="UTF-8" standalone="no"?>
<!DOCTYPE svg PUBLIC "-//W3C//DTD SVG 1.1//EN"
 "http://www.w3.org/Graphics/SVG/1.1/DTD/svg11.dtd">
<!-- Generated by graphviz version 2.26.3 (20100126.1600)
 -->
<!-- Title: fwCore::util::FactoryRegistry&lt; RETURN_TYPE(), KEY_TYPE, FACTORY_HOLDER &gt;::create Pages: 1 -->
<svg width="356pt" height="56pt"
 viewBox="0.00 0.00 356.00 56.00" xmlns="http://www.w3.org/2000/svg" xmlns:xlink="http://www.w3.org/1999/xlink">
<g id="graph1" class="graph" transform="scale(1 1) rotate(0) translate(4 52)">
<title>fwCore::util::FactoryRegistry&lt; RETURN_TYPE(), KEY_TYPE, FACTORY_HOLDER &gt;::create</title>
<polygon fill="white" stroke="white" points="-4,5 -4,-52 353,-52 353,5 -4,5"/>
<!-- Node1 -->
<g id="node1" class="node"><title>Node1</title>
<polygon fill="#bfbfbf" stroke="black" points="0.5,-0.5 0.5,-47.5 167.5,-47.5 167.5,-0.5 0.5,-0.5"/>
<text text-anchor="start" x="8.5" y="-34.5" font-family="Helvetica,sans-Serif" font-size="10.00">fwCore::util::FactoryRegistry</text>
<text text-anchor="start" x="8.5" y="-21.5" font-family="Helvetica,sans-Serif" font-size="10.00">&lt; RETURN_TYPE(), KEY_TYPE,</text>
<text text-anchor="middle" x="84" y="-8.5" font-family="Helvetica,sans-Serif" font-size="10.00"> FACTORY_HOLDER &gt;::create</text>
</g>
<!-- Node2 -->
<g id="node3" class="node"><title>Node2</title>
<a xlink:href="classfwCore_1_1util_1_1FactoryRegistryBase.html#a30ca4fc85fad6a5e28fc481bd3850ea7" target="_top" xlink:title="returns the factory associated with the key. ">
<polygon fill="white" stroke="black" points="204.5,-7 204.5,-41 347.5,-41 347.5,-7 204.5,-7"/>
<text text-anchor="start" x="212.5" y="-28" font-family="Helvetica,sans-Serif" font-size="10.00">fwCore::util::FactoryRegistry</text>
<text text-anchor="middle" x="276" y="-15" font-family="Helvetica,sans-Serif" font-size="10.00">Base::getFactory</text>
</a>
</g>
<!-- Node1&#45;&gt;Node2 -->
<g id="edge2" class="edge"><title>Node1&#45;&gt;Node2</title>
<path fill="none" stroke="midnightblue" d="M167.655,-24C176.444,-24 185.373,-24 194.141,-24"/>
<polygon fill="midnightblue" stroke="midnightblue" points="194.342,-27.5001 204.342,-24 194.342,-20.5001 194.342,-27.5001"/>
</g>
</g>
</svg>
