<?xml version="1.0" encoding="UTF-8" standalone="no"?>
<!DOCTYPE svg PUBLIC "-//W3C//DTD SVG 1.1//EN"
 "http://www.w3.org/Graphics/SVG/1.1/DTD/svg11.dtd">
<!-- Generated by graphviz version 2.26.3 (20100126.1600)
 -->
<!-- Title: fwJobs::IJob::logNoLock Pages: 1 -->
<svg width="456pt" height="82pt"
 viewBox="0.00 0.00 456.00 82.00" xmlns="http://www.w3.org/2000/svg" xmlns:xlink="http://www.w3.org/1999/xlink">
<g id="graph1" class="graph" transform="scale(1 1) rotate(0) translate(4 78)">
<title>fwJobs::IJob::logNoLock</title>
<polygon fill="white" stroke="white" points="-4,5 -4,-78 453,-78 453,5 -4,5"/>
<!-- Node1 -->
<g id="node1" class="node"><title>Node1</title>
<polygon fill="#bfbfbf" stroke="black" points="0.5,-32.5 0.5,-53.5 125.5,-53.5 125.5,-32.5 0.5,-32.5"/>
<text text-anchor="middle" x="63" y="-40.5" font-family="Helvetica,sans-Serif" font-size="10.00">fwJobs::IJob::logNoLock</text>
</g>
<!-- Node2 -->
<g id="node3" class="node"><title>Node2</title>
<a xlink:href="classfwJobs_1_1Aggregator.html#affc0fee2462ba7464a50ba893976ee39" target="_top" xlink:title="Add an IJob to the Aggregator. ">
<polygon fill="white" stroke="black" points="307.5,-52.5 307.5,-73.5 430.5,-73.5 430.5,-52.5 307.5,-52.5"/>
<text text-anchor="middle" x="369" y="-60.5" font-family="Helvetica,sans-Serif" font-size="10.00">fwJobs::Aggregator::add</text>
</a>
</g>
<!-- Node1&#45;&gt;Node2 -->
<g id="edge2" class="edge"><title>Node1&#45;&gt;Node2</title>
<path fill="none" stroke="midnightblue" d="M135.883,-47.7636C188.205,-51.1833 257.939,-55.7411 307.467,-58.9783"/>
<polygon fill="midnightblue" stroke="midnightblue" points="135.869,-44.2553 125.662,-47.0956 135.412,-51.2404 135.869,-44.2553"/>
</g>
<!-- Node3 -->
<g id="node5" class="node"><title>Node3</title>
<a xlink:href="classfwJobs_1_1IJob.html#aa31af4e38b39b1f28de9345e1951dcc6" target="_top" xlink:title="Log a message. ">
<polygon fill="white" stroke="black" points="162,-13.5 162,-34.5 254,-34.5 254,-13.5 162,-13.5"/>
<text text-anchor="middle" x="208" y="-21.5" font-family="Helvetica,sans-Serif" font-size="10.00">fwJobs::IJob::log</text>
</a>
</g>
<!-- Node1&#45;&gt;Node3 -->
<g id="edge4" class="edge"><title>Node1&#45;&gt;Node3</title>
<path fill="none" stroke="midnightblue" d="M135.73,-33.4698C144.588,-32.3091 153.442,-31.149 161.761,-30.0589"/>
<polygon fill="midnightblue" stroke="midnightblue" points="135.216,-30.0072 125.756,-34.7768 136.126,-36.9478 135.216,-30.0072"/>
</g>
<!-- Node3&#45;&gt;Node2 -->
<g id="edge6" class="edge"><title>Node3&#45;&gt;Node2</title>
<path fill="none" stroke="midnightblue" d="M261.508,-36.9615C282.254,-41.9869 305.704,-47.6675 325.396,-52.4376"/>
<polygon fill="midnightblue" stroke="midnightblue" points="262.112,-33.5067 251.569,-34.554 260.464,-40.3099 262.112,-33.5067"/>
</g>
<!-- Node4 -->
<g id="node8" class="node"><title>Node4</title>
<a xlink:href="classfwGdcmIO_1_1helper_1_1DicomSeriesDBWriter.html#a3cc5610267316fb9a2c61b1f30deef0f" target="_top" xlink:title="Write the image series in DICOM format. ">
<polygon fill="white" stroke="black" points="290,-0 290,-34 448,-34 448,-0 290,-0"/>
<text text-anchor="start" x="298" y="-21" font-family="Helvetica,sans-Serif" font-size="10.00">fwGdcmIO::helper::DicomSeries</text>
<text text-anchor="middle" x="369" y="-8" font-family="Helvetica,sans-Serif" font-size="10.00">DBWriter::write</text>
</a>
</g>
<!-- Node3&#45;&gt;Node4 -->
<g id="edge8" class="edge"><title>Node3&#45;&gt;Node4</title>
<path fill="none" stroke="midnightblue" d="M264.324,-21.5511C272.547,-21.1936 281.141,-20.82 289.716,-20.4471"/>
<polygon fill="midnightblue" stroke="midnightblue" points="263.975,-18.0629 254.136,-21.9941 264.279,-25.0563 263.975,-18.0629"/>
</g>
</g>
</svg>
