<?xml version="1.0" encoding="UTF-8" standalone="no"?>
<!DOCTYPE svg PUBLIC "-//W3C//DTD SVG 1.1//EN"
 "http://www.w3.org/Graphics/SVG/1.1/DTD/svg11.dtd">
<!-- Generated by graphviz version 2.26.3 (20100126.1600)
 -->
<!-- Title: ctrlSelection::updater::SObjFromUid Pages: 1 -->
<!--zoomable 315 -->
<svg id="main" version="1.1" xmlns="http://www.w3.org/2000/svg" xmlns:xlink="http://www.w3.org/1999/xlink" xml:space="preserve" onload="init(evt)">
<style type="text/css"><![CDATA[
.edge:hover path { stroke: red; }
.edge:hover polygon { stroke: red; fill: red; }
]]></style>
<script type="text/javascript"><![CDATA[
var edges = document.getElementsByTagName('g');
if (edges && edges.length) {
  for (var i=0;i<edges.length;i++) {
    if (edges[i].id.substr(0,4)=='edge') {
      edges[i].setAttribute('class','edge');
    }
  }
}
]]></script>
        <defs>
                <circle id="rim" cx="0" cy="0" r="7"/>
                <circle id="rim2" cx="0" cy="0" r="3.5"/>
                <g id="zoomPlus">
                        <use xlink:href="#rim" fill="#404040">
                                <set attributeName="fill" to="#808080" begin="zoomplus.mouseover" end="zoomplus.mouseout"/>
                        </use>
                        <path d="M-4,0h8M0,-4v8" fill="none" stroke="white" stroke-width="1.5" pointer-events="none"/>
                </g>
                <g id="zoomMin">
                        <use xlink:href="#rim" fill="#404040">
                                <set attributeName="fill" to="#808080" begin="zoomminus.mouseover" end="zoomminus.mouseout"/>
                        </use>
                        <path d="M-4,0h8" fill="none" stroke="white" stroke-width="1.5" pointer-events="none"/>
                </g>
                <g id="dirArrow">
                        <path fill="none" stroke="white" stroke-width="1.5" d="M0,-3.0v7 M-2.5,-0.5L0,-3.0L2.5,-0.5"/>
                </g>
               <g id="resetDef">
                       <use xlink:href="#rim2" fill="#404040">
                               <set attributeName="fill" to="#808080" begin="reset.mouseover" end="reset.mouseout"/>
                       </use>
               </g>
        </defs>

<script type="text/javascript">
var viewWidth = 1764;
var viewHeight = 315;
var sectionId = 'dynsection-1';
</script>
<script xlink:href="svgpan.js"/>
<svg id="graph" class="graph">
<g id="viewport">
<title>ctrlSelection::updater::SObjFromUid</title>
<polygon fill="white" stroke="white" points="-4,5 -4,-311 1761,-311 1761,5 -4,5"/>
<!-- Node1 -->
<g id="node1" class="node"><title>Node1</title>
<polygon fill="#bfbfbf" stroke="black" points="1646.5,-24 1646.5,-58 1755.5,-58 1755.5,-24 1646.5,-24"/>
<text text-anchor="start" x="1654.5" y="-45" font-family="Helvetica,sans-Serif" font-size="10.00">ctrlSelection::updater</text>
<text text-anchor="middle" x="1701" y="-32" font-family="Helvetica,sans-Serif" font-size="10.00">::SObjFromUid</text>
</g>
<!-- Node2 -->
<g id="node2" class="node"><title>Node2</title>
<a xlink:href="classctrlSelection_1_1IUpdaterSrv.html" target="_top" xlink:title="An updater is attached on a composite. It is use to add, swap and remove object in the composite when...">
<polygon fill="white" stroke="black" points="1478.5,-160.5 1478.5,-181.5 1607.5,-181.5 1607.5,-160.5 1478.5,-160.5"/>
<text text-anchor="middle" x="1543" y="-168.5" font-family="Helvetica,sans-Serif" font-size="10.00">ctrlSelection::IUpdaterSrv</text>
</a>
</g>
<!-- Node2&#45;&gt;Node1 -->
<g id="edge2" class="edge"><title>Node2&#45;&gt;Node1</title>
<path fill="none" stroke="midnightblue" d="M1563.75,-153.93C1594.03,-129.016 1650.01,-82.9571 1680.27,-58.0526"/>
<polygon fill="midnightblue" stroke="midnightblue" points="1561.43,-151.305 1555.93,-160.362 1565.88,-156.711 1561.43,-151.305"/>
</g>
<!-- Node3 -->
<g id="node4" class="node"><title>Node3</title>
<a xlink:href="classfwServices_1_1IService.html" target="_top" xlink:title="Base class for all services. ">
<polygon fill="white" stroke="black" points="1180.5,-160.5 1180.5,-181.5 1287.5,-181.5 1287.5,-160.5 1180.5,-160.5"/>
<text text-anchor="middle" x="1234" y="-168.5" font-family="Helvetica,sans-Serif" font-size="10.00">fwServices::IService</text>
</a>
</g>
<!-- Node3&#45;&gt;Node2 -->
<g id="edge4" class="edge"><title>Node3&#45;&gt;Node2</title>
<path fill="none" stroke="midnightblue" d="M1298.08,-171C1350.85,-171 1425.34,-171 1478.29,-171"/>
<polygon fill="midnightblue" stroke="midnightblue" points="1297.82,-167.5 1287.82,-171 1297.82,-174.5 1297.82,-167.5"/>
</g>
<!-- Node4 -->
<g id="node6" class="node"><title>Node4</title>
<a xlink:href="classfwTools_1_1Object.html" target="_top" xlink:title="Define Base class for FW4SPL objects and services. ">
<polygon fill="white" stroke="black" points="947,-129.5 947,-150.5 1033,-150.5 1033,-129.5 947,-129.5"/>
<text text-anchor="middle" x="990" y="-137.5" font-family="Helvetica,sans-Serif" font-size="10.00">fwTools::Object</text>
</a>
</g>
<!-- Node4&#45;&gt;Node3 -->
<g id="edge6" class="edge"><title>Node4&#45;&gt;Node3</title>
<path fill="none" stroke="midnightblue" d="M1043.04,-146.739C1083.67,-151.901 1139.49,-158.993 1180.29,-164.176"/>
<polygon fill="midnightblue" stroke="midnightblue" points="1043.42,-143.259 1033.06,-145.471 1042.54,-150.203 1043.42,-143.259"/>
</g>
<!-- Node5 -->
<g id="node8" class="node"><title>Node5</title>
<a xlink:href="classfwCore_1_1BaseObject.html" target="_top" xlink:title="Base class for all FW4SPL&#39;s classes. ">
<polygon fill="white" stroke="black" points="748.5,-89.5 748.5,-110.5 853.5,-110.5 853.5,-89.5 748.5,-89.5"/>
<text text-anchor="middle" x="801" y="-97.5" font-family="Helvetica,sans-Serif" font-size="10.00">fwCore::BaseObject</text>
</a>
</g>
<!-- Node5&#45;&gt;Node4 -->
<g id="edge8" class="edge"><title>Node5&#45;&gt;Node4</title>
<path fill="none" stroke="midnightblue" d="M860.712,-112.637C888.64,-118.548 921.28,-125.456 946.777,-130.852"/>
<polygon fill="midnightblue" stroke="midnightblue" points="861.166,-109.156 850.658,-110.51 859.716,-116.004 861.166,-109.156"/>
</g>
<!-- Node6 -->
<g id="node10" class="node"><title>Node6</title>
<polygon fill="white" stroke="#bfbfbf" points="449.5,-83 449.5,-117 580.5,-117 580.5,-83 449.5,-83"/>
<text text-anchor="start" x="457.5" y="-104" font-family="Helvetica,sans-Serif" font-size="10.00">std::enable_shared</text>
<text text-anchor="middle" x="515" y="-91" font-family="Helvetica,sans-Serif" font-size="10.00">_from_this&lt; BaseObject &gt;</text>
</g>
<!-- Node6&#45;&gt;Node5 -->
<g id="edge10" class="edge"><title>Node6&#45;&gt;Node5</title>
<path fill="none" stroke="midnightblue" d="M590.657,-100C640.267,-100 703.89,-100 748.111,-100"/>
<polygon fill="midnightblue" stroke="midnightblue" points="590.614,-96.5001 580.614,-100 590.614,-103.5 590.614,-96.5001"/>
</g>
<!-- Node7 -->
<g id="node12" class="node"><title>Node7</title>
<a xlink:href="classfwTools_1_1fwID.html" target="_top" xlink:title="Defines ID for fwTools::Object. It is used to associate ID with object. ">
<polygon fill="white" stroke="black" points="762,-129.5 762,-150.5 840,-150.5 840,-129.5 762,-129.5"/>
<text text-anchor="middle" x="801" y="-137.5" font-family="Helvetica,sans-Serif" font-size="10.00">fwTools::fwID</text>
</a>
</g>
<!-- Node7&#45;&gt;Node4 -->
<g id="edge12" class="edge"><title>Node7&#45;&gt;Node4</title>
<path fill="none" stroke="darkgreen" d="M850.399,-140C880.353,-140 918.205,-140 946.936,-140"/>
<polygon fill="darkgreen" stroke="darkgreen" points="850.161,-136.5 840.161,-140 850.161,-143.5 850.161,-136.5"/>
</g>
<!-- Node8 -->
<g id="node14" class="node"><title>Node8</title>
<a xlink:href="classfwCom_1_1HasSlots.html" target="_top" xlink:title="This class proposes a mapping between a SlotKeyType and a SlotBase. ">
<polygon fill="white" stroke="black" points="942.5,-209.5 942.5,-230.5 1037.5,-230.5 1037.5,-209.5 942.5,-209.5"/>
<text text-anchor="middle" x="990" y="-217.5" font-family="Helvetica,sans-Serif" font-size="10.00">fwCom::HasSlots</text>
</a>
</g>
<!-- Node8&#45;&gt;Node3 -->
<g id="edge14" class="edge"><title>Node8&#45;&gt;Node3</title>
<path fill="none" stroke="midnightblue" d="M1047.69,-210.59C1081.18,-204.882 1124.09,-197.145 1162,-189 1172.33,-186.78 1183.43,-184.136 1193.75,-181.567"/>
<polygon fill="midnightblue" stroke="midnightblue" points="1046.9,-207.175 1037.62,-212.294 1048.07,-214.077 1046.9,-207.175"/>
</g>
<!-- Node9 -->
<g id="node16" class="node"><title>Node9</title>
<a xlink:href="classfwCom_1_1Slots.html" target="_top" xlink:title="This class proposes a mapping between a SlotKeyType and a SlotBase. ">
<polygon fill="white" stroke="black" points="762.5,-209.5 762.5,-230.5 839.5,-230.5 839.5,-209.5 762.5,-209.5"/>
<text text-anchor="middle" x="801" y="-217.5" font-family="Helvetica,sans-Serif" font-size="10.00">fwCom::Slots</text>
</a>
</g>
<!-- Node9&#45;&gt;Node8 -->
<g id="edge16" class="edge"><title>Node9&#45;&gt;Node8</title>
<path fill="none" stroke="#9a32cd" stroke-dasharray="5,2" d="M849.832,-220C878.292,-220 914.028,-220 942.293,-220"/>
<polygon fill="#9a32cd" stroke="#9a32cd" points="849.703,-216.5 839.703,-220 849.703,-223.5 849.703,-216.5"/>
<text text-anchor="middle" x="896" y="-224" font-family="Helvetica,sans-Serif" font-size="10.00"> m_slots</text>
</g>
<!-- Node10 -->
<g id="node18" class="node"><title>Node10</title>
<polygon fill="white" stroke="#bfbfbf" points="439,-205 439,-239 591,-239 591,-205 439,-205"/>
<text text-anchor="start" x="447" y="-226" font-family="Helvetica,sans-Serif" font-size="10.00">std::map&lt; SlotKeyType,</text>
<text text-anchor="middle" x="515" y="-213" font-family="Helvetica,sans-Serif" font-size="10.00"> std::shared_ptr&lt; SlotBase &gt; &gt;</text>
</g>
<!-- Node10&#45;&gt;Node9 -->
<g id="edge18" class="edge"><title>Node10&#45;&gt;Node9</title>
<path fill="none" stroke="#9a32cd" stroke-dasharray="5,2" d="M601.28,-217.384C605.58,-217.235 609.839,-217.105 614,-217 665.539,-215.699 678.456,-215.912 730,-217 740.484,-217.221 751.834,-217.627 762.318,-218.069"/>
<polygon fill="#9a32cd" stroke="#9a32cd" points="601.056,-213.89 591.195,-217.764 601.32,-220.885 601.056,-213.89"/>
<text text-anchor="middle" x="672" y="-221" font-family="Helvetica,sans-Serif" font-size="10.00"> m_slots</text>
</g>
<!-- Node11 -->
<g id="node20" class="node"><title>Node11</title>
<a xlink:title="STL class. ">
<polygon fill="white" stroke="#bfbfbf" points="192,-217.5 192,-238.5 252,-238.5 252,-217.5 192,-217.5"/>
<text text-anchor="middle" x="222" y="-225.5" font-family="Helvetica,sans-Serif" font-size="10.00">std::string</text>
</a>
</g>
<!-- Node11&#45;&gt;Node10 -->
<g id="edge20" class="edge"><title>Node11&#45;&gt;Node10</title>
<path fill="none" stroke="#9a32cd" stroke-dasharray="5,2" d="M262.294,-227.175C307.647,-226.246 382.356,-224.716 438.808,-223.56"/>
<polygon fill="#9a32cd" stroke="#9a32cd" points="262.179,-223.676 252.253,-227.38 262.322,-230.675 262.179,-223.676"/>
<text text-anchor="middle" x="351" y="-230" font-family="Helvetica,sans-Serif" font-size="10.00"> keys</text>
</g>
<!-- Node18 -->
<g id="node34" class="node"><title>Node18</title>
<polygon fill="white" stroke="#bfbfbf" points="434.5,-153 434.5,-187 595.5,-187 595.5,-153 434.5,-153"/>
<text text-anchor="start" x="442.5" y="-174" font-family="Helvetica,sans-Serif" font-size="10.00">std::map&lt; SignalKeyType,</text>
<text text-anchor="middle" x="515" y="-161" font-family="Helvetica,sans-Serif" font-size="10.00"> std::shared_ptr&lt; SignalBase &gt; &gt;</text>
</g>
<!-- Node11&#45;&gt;Node18 -->
<g id="edge36" class="edge"><title>Node11&#45;&gt;Node18</title>
<path fill="none" stroke="#9a32cd" stroke-dasharray="5,2" d="M260.533,-214.276C268.862,-211.614 277.67,-209.026 286,-207 334.719,-195.149 390.213,-186.074 434.369,-179.878"/>
<polygon fill="#9a32cd" stroke="#9a32cd" points="259.436,-210.952 251.034,-217.406 261.627,-217.601 259.436,-210.952"/>
<text text-anchor="middle" x="351" y="-211" font-family="Helvetica,sans-Serif" font-size="10.00"> keys</text>
</g>
<!-- Node12 -->
<g id="node22" class="node"><title>Node12</title>
<a xlink:title="STL class. ">
<polygon fill="white" stroke="#bfbfbf" points="0.5,-216 0.5,-250 95.5,-250 95.5,-216 0.5,-216"/>
<text text-anchor="start" x="8.5" y="-237" font-family="Helvetica,sans-Serif" font-size="10.00">std::basic_string&lt;</text>
<text text-anchor="middle" x="48" y="-224" font-family="Helvetica,sans-Serif" font-size="10.00"> char &gt;</text>
</a>
</g>
<!-- Node12&#45;&gt;Node11 -->
<g id="edge22" class="edge"><title>Node12&#45;&gt;Node11</title>
<path fill="none" stroke="midnightblue" d="M105.887,-231.337C134.618,-230.511 168.136,-229.548 191.754,-228.869"/>
<polygon fill="midnightblue" stroke="midnightblue" points="105.442,-227.848 95.5463,-231.634 105.643,-234.845 105.442,-227.848"/>
</g>
<!-- Node13 -->
<g id="node24" class="node"><title>Node13</title>
<a xlink:title="STL class. ">
<polygon fill="white" stroke="#bfbfbf" points="176,-126.5 176,-147.5 268,-147.5 268,-126.5 176,-126.5"/>
<text text-anchor="middle" x="222" y="-134.5" font-family="Helvetica,sans-Serif" font-size="10.00">std::map&lt; K, T &gt;</text>
</a>
</g>
<!-- Node13&#45;&gt;Node10 -->
<g id="edge24" class="edge"><title>Node13&#45;&gt;Node10</title>
<path fill="none" stroke="orange" stroke-dasharray="5,2" d="M278.232,-126.66C320.128,-122.182 376.657,-123.325 416,-152 433.075,-164.445 418.491,-181.652 434,-196 437.686,-199.41 441.822,-202.373 446.223,-204.947"/>
<polygon fill="orange" stroke="orange" points="277.694,-123.199 268.185,-127.87 278.531,-130.149 277.694,-123.199"/>
<text text-anchor="start" x="291.5" y="-169" font-family="Helvetica,sans-Serif" font-size="10.00"> &lt; SlotKeyType, std</text>
<text text-anchor="middle" x="351" y="-156" font-family="Helvetica,sans-Serif" font-size="10.00">::shared_ptr&lt; SlotBase &gt; &gt;</text>
</g>
<!-- Node13&#45;&gt;Node18 -->
<g id="edge38" class="edge"><title>Node13&#45;&gt;Node18</title>
<path fill="none" stroke="orange" stroke-dasharray="5,2" d="M242.15,-120.289C254.093,-111.49 269.987,-101.593 286,-97 341.539,-81.0717 365.509,-68.9127 416,-97 429.257,-104.374 422.967,-115.588 434,-126 445.522,-136.874 460.247,-145.918 473.973,-152.921"/>
<polygon fill="orange" stroke="orange" points="239.991,-117.535 234.207,-126.412 244.264,-123.079 239.991,-117.535"/>
<text text-anchor="start" x="286.5" y="-114" font-family="Helvetica,sans-Serif" font-size="10.00"> &lt; SignalKeyType, std</text>
<text text-anchor="middle" x="351" y="-101" font-family="Helvetica,sans-Serif" font-size="10.00">::shared_ptr&lt; SignalBase &gt; &gt;</text>
</g>
<!-- Node14 -->
<g id="node26" class="node"><title>Node14</title>
<polygon fill="white" stroke="#bfbfbf" points="33.5,-122.5 33.5,-143.5 62.5,-143.5 62.5,-122.5 33.5,-122.5"/>
<text text-anchor="middle" x="48" y="-130.5" font-family="Helvetica,sans-Serif" font-size="10.00">K</text>
</g>
<!-- Node14&#45;&gt;Node13 -->
<g id="edge26" class="edge"><title>Node14&#45;&gt;Node13</title>
<path fill="none" stroke="#9a32cd" stroke-dasharray="5,2" d="M72.8504,-132.959C95.1484,-132.985 128.767,-133.182 158,-134 163.782,-134.162 169.855,-134.382 175.864,-134.629"/>
<polygon fill="#9a32cd" stroke="#9a32cd" points="72.5942,-129.459 62.5938,-132.958 72.5934,-136.459 72.5942,-129.459"/>
<text text-anchor="middle" x="136" y="-138" font-family="Helvetica,sans-Serif" font-size="10.00"> keys</text>
</g>
<!-- Node15 -->
<g id="node28" class="node"><title>Node15</title>
<polygon fill="white" stroke="#bfbfbf" points="33.5,-169.5 33.5,-190.5 62.5,-190.5 62.5,-169.5 33.5,-169.5"/>
<text text-anchor="middle" x="48" y="-177.5" font-family="Helvetica,sans-Serif" font-size="10.00">T</text>
</g>
<!-- Node15&#45;&gt;Node13 -->
<g id="edge28" class="edge"><title>Node15&#45;&gt;Node13</title>
<path fill="none" stroke="#9a32cd" stroke-dasharray="5,2" d="M72.549,-173.933C100.237,-167.091 145.769,-155.839 179.312,-147.549"/>
<polygon fill="#9a32cd" stroke="#9a32cd" points="71.4041,-170.611 62.5359,-176.408 73.0835,-177.406 71.4041,-170.611"/>
<text text-anchor="middle" x="136" y="-167" font-family="Helvetica,sans-Serif" font-size="10.00"> elements</text>
</g>
<!-- Node21 -->
<g id="node42" class="node"><title>Node21</title>
<a xlink:title="STL class. ">
<polygon fill="white" stroke="#bfbfbf" points="178.5,-257.5 178.5,-278.5 265.5,-278.5 265.5,-257.5 178.5,-257.5"/>
<text text-anchor="middle" x="222" y="-265.5" font-family="Helvetica,sans-Serif" font-size="10.00">std::vector&lt; T &gt;</text>
</a>
</g>
<!-- Node15&#45;&gt;Node21 -->
<g id="edge46" class="edge"><title>Node15&#45;&gt;Node21</title>
<path fill="none" stroke="#9a32cd" stroke-dasharray="5,2" d="M71.703,-193.309C97.1831,-207.447 139.018,-230.171 176,-248 182.589,-251.177 189.807,-254.422 196.531,-257.349"/>
<polygon fill="#9a32cd" stroke="#9a32cd" points="73.2217,-190.149 62.7825,-188.34 69.8148,-196.264 73.2217,-190.149"/>
<text text-anchor="middle" x="136" y="-241" font-family="Helvetica,sans-Serif" font-size="10.00"> elements</text>
</g>
<!-- Node16 -->
<g id="node30" class="node"><title>Node16</title>
<a xlink:href="classfwCom_1_1HasSignals.html" target="_top" xlink:title="This class proposes a mapping between a SignalKeyType and a SignalBase. ">
<polygon fill="white" stroke="black" points="938,-169.5 938,-190.5 1042,-190.5 1042,-169.5 938,-169.5"/>
<text text-anchor="middle" x="990" y="-177.5" font-family="Helvetica,sans-Serif" font-size="10.00">fwCom::HasSignals</text>
</a>
</g>
<!-- Node16&#45;&gt;Node3 -->
<g id="edge30" class="edge"><title>Node16&#45;&gt;Node3</title>
<path fill="none" stroke="midnightblue" d="M1052.12,-177.709C1091.71,-176.248 1142.51,-174.375 1180.35,-172.979"/>
<polygon fill="midnightblue" stroke="midnightblue" points="1051.91,-174.214 1042.04,-178.08 1052.17,-181.209 1051.91,-174.214"/>
</g>
<!-- Node17 -->
<g id="node32" class="node"><title>Node17</title>
<a xlink:href="classfwCom_1_1Signals.html" target="_top" xlink:title="This class proposes a mapping between a SignalKeyType and a SignalBase. ">
<polygon fill="white" stroke="black" points="758,-169.5 758,-190.5 844,-190.5 844,-169.5 758,-169.5"/>
<text text-anchor="middle" x="801" y="-177.5" font-family="Helvetica,sans-Serif" font-size="10.00">fwCom::Signals</text>
</a>
</g>
<!-- Node17&#45;&gt;Node16 -->
<g id="edge32" class="edge"><title>Node17&#45;&gt;Node16</title>
<path fill="none" stroke="#9a32cd" stroke-dasharray="5,2" d="M854.454,-180C880.549,-180 911.828,-180 937.76,-180"/>
<polygon fill="#9a32cd" stroke="#9a32cd" points="854.36,-176.5 844.36,-180 854.36,-183.5 854.36,-176.5"/>
<text text-anchor="middle" x="896" y="-184" font-family="Helvetica,sans-Serif" font-size="10.00"> m_signals</text>
</g>
<!-- Node18&#45;&gt;Node17 -->
<g id="edge34" class="edge"><title>Node18&#45;&gt;Node17</title>
<path fill="none" stroke="#9a32cd" stroke-dasharray="5,2" d="M605.844,-173.176C656.745,-174.956 717.862,-177.093 757.974,-178.496"/>
<polygon fill="#9a32cd" stroke="#9a32cd" points="605.926,-169.677 595.809,-172.826 605.681,-176.673 605.926,-169.677"/>
<text text-anchor="middle" x="672" y="-181" font-family="Helvetica,sans-Serif" font-size="10.00"> m_signals</text>
</g>
<!-- Node19 -->
<g id="node38" class="node"><title>Node19</title>
<polygon fill="white" stroke="#bfbfbf" points="969.5,-0.5 969.5,-21.5 1010.5,-21.5 1010.5,-0.5 969.5,-0.5"/>
<text text-anchor="middle" x="990" y="-8.5" font-family="Helvetica,sans-Serif" font-size="10.00">static</text>
</g>
<!-- Node19&#45;&gt;Node1 -->
<g id="edge48" class="edge"><title>Node19&#45;&gt;Node1</title>
<path fill="none" stroke="#9a32cd" stroke-dasharray="5,2" d="M1020.67,-9.40085C1032.9,-8.83749 1047.11,-8.276 1060,-8 1105.32,-7.02924 1116.69,-6.61419 1162,-8 1339.34,-13.4238 1549.05,-28.863 1646.35,-36.5455"/>
<polygon fill="#9a32cd" stroke="#9a32cd" points="1020.33,-5.91287 1010.51,-9.88927 1020.67,-12.9048 1020.33,-5.91287"/>
<text text-anchor="middle" x="1383" y="-78" font-family="Helvetica,sans-Serif" font-size="10.00"> s_SWAP_OBJ_SLOT</text>
<text text-anchor="middle" x="1383" y="-65" font-family="Helvetica,sans-Serif" font-size="10.00">s_ADD_OR_SWAP_SLOT</text>
<text text-anchor="middle" x="1383" y="-52" font-family="Helvetica,sans-Serif" font-size="10.00">s_REMOVE_SLOT</text>
<text text-anchor="middle" x="1383" y="-39" font-family="Helvetica,sans-Serif" font-size="10.00">s_ADD_SLOT</text>
<text text-anchor="middle" x="1383" y="-26" font-family="Helvetica,sans-Serif" font-size="10.00">s_REMOVE_IF_PRESENT_SLOT</text>
</g>
<!-- Node19&#45;&gt;Node3 -->
<g id="edge40" class="edge"><title>Node19&#45;&gt;Node3</title>
<path fill="none" stroke="#9a32cd" stroke-dasharray="5,2" d="M1020.76,-10.5648C1063.94,-10.5283 1139.76,-12.7392 1162,-28 1209.21,-60.3988 1227.06,-133.251 1232.24,-160.474"/>
<polygon fill="#9a32cd" stroke="#9a32cd" points="1020.52,-7.06589 1010.53,-10.616 1020.55,-14.0658 1020.52,-7.06589"/>
<text text-anchor="middle" x="1111" y="-136" font-family="Helvetica,sans-Serif" font-size="10.00"> s_STOPPED_SIG</text>
<text text-anchor="middle" x="1111" y="-123" font-family="Helvetica,sans-Serif" font-size="10.00">s_UPDATED_SIG</text>
<text text-anchor="middle" x="1111" y="-110" font-family="Helvetica,sans-Serif" font-size="10.00">s_UPDATE_SLOT</text>
<text text-anchor="middle" x="1111" y="-97" font-family="Helvetica,sans-Serif" font-size="10.00">s_STARTED_SIG</text>
<text text-anchor="middle" x="1111" y="-84" font-family="Helvetica,sans-Serif" font-size="10.00">s_SWAPKEY_SLOT</text>
<text text-anchor="middle" x="1111" y="-71" font-family="Helvetica,sans-Serif" font-size="10.00">s_SWAP_SLOT</text>
<text text-anchor="middle" x="1111" y="-58" font-family="Helvetica,sans-Serif" font-size="10.00">s_STOP_SLOT</text>
<text text-anchor="middle" x="1111" y="-45" font-family="Helvetica,sans-Serif" font-size="10.00">s_START_SLOT</text>
<text text-anchor="middle" x="1111" y="-32" font-family="Helvetica,sans-Serif" font-size="10.00">s_DEFAULT_OBJECT</text>
</g>
<!-- Node20 -->
<g id="node40" class="node"><title>Node20</title>
<polygon fill="white" stroke="#bfbfbf" points="614,-238 614,-298 730,-298 730,-238 614,-238"/>
<text text-anchor="start" x="622" y="-285" font-family="Helvetica,sans-Serif" font-size="10.00">std::vector&lt; ::boost</text>
<text text-anchor="start" x="622" y="-272" font-family="Helvetica,sans-Serif" font-size="10.00">::tuple&lt; std::string,</text>
<text text-anchor="start" x="622" y="-259" font-family="Helvetica,sans-Serif" font-size="10.00"> std::string, std::string,</text>
<text text-anchor="middle" x="672" y="-246" font-family="Helvetica,sans-Serif" font-size="10.00"> ActionType &gt; &gt;</text>
</g>
<!-- Node20&#45;&gt;Node2 -->
<g id="edge42" class="edge"><title>Node20&#45;&gt;Node2</title>
<path fill="none" stroke="#9a32cd" stroke-dasharray="5,2" d="M740.109,-268C784.5,-268 843.686,-268 896,-268 896,-268 896,-268 1234,-268 1348.42,-268 1476.19,-206.706 1523.78,-181.565"/>
<polygon fill="#9a32cd" stroke="#9a32cd" points="740.015,-264.5 730.015,-268 740.015,-271.5 740.015,-264.5"/>
<text text-anchor="middle" x="990" y="-272" font-family="Helvetica,sans-Serif" font-size="10.00"> m_managedEvents</text>
</g>
<!-- Node21&#45;&gt;Node20 -->
<g id="edge44" class="edge"><title>Node21&#45;&gt;Node20</title>
<path fill="none" stroke="orange" stroke-dasharray="5,2" d="M275.773,-268C360.842,-268 525.797,-268 613.642,-268"/>
<polygon fill="orange" stroke="orange" points="275.557,-264.5 265.557,-268 275.557,-271.5 275.557,-264.5"/>
<text text-anchor="start" x="290.5" y="-298" font-family="Helvetica,sans-Serif" font-size="10.00"> &lt; ::boost::tuple&lt; std</text>
<text text-anchor="start" x="290.5" y="-285" font-family="Helvetica,sans-Serif" font-size="10.00">::string, std::string,</text>
<text text-anchor="middle" x="351" y="-272" font-family="Helvetica,sans-Serif" font-size="10.00"> std::string, ActionType &gt; &gt;</text>
</g>
</g>
</svg>
        <g id="navigator" transform="translate(0 0)" fill="#404254">
                <rect fill="#f2f5e9" fill-opacity="0.5" stroke="#606060" stroke-width=".5" x="0" y="0" width="60" height="60"/>
                <use id="zoomplus" xlink:href="#zoomPlus" x="17" y="9" onmousedown="handleZoom(evt,'in')"/>
                <use id="zoomminus" xlink:href="#zoomMin" x="42" y="9" onmousedown="handleZoom(evt,'out')"/>
                <use id="reset" xlink:href="#resetDef" x="30" y="36" onmousedown="handleReset()"/>
                <g id="arrowUp" xlink:href="#dirArrow" transform="translate(30 24)" onmousedown="handlePan(0,-1)">
                  <use xlink:href="#rim" fill="#404040">
                        <set attributeName="fill" to="#808080" begin="arrowUp.mouseover" end="arrowUp.mouseout"/>
                  </use>
                  <path fill="none" stroke="white" stroke-width="1.5" d="M0,-3.0v7 M-2.5,-0.5L0,-3.0L2.5,-0.5"/>
                </g>
                <g id="arrowRight" xlink:href="#dirArrow" transform="rotate(90) translate(36 -43)" onmousedown="handlePan(1,0)">
                  <use xlink:href="#rim" fill="#404040">
                        <set attributeName="fill" to="#808080" begin="arrowRight.mouseover" end="arrowRight.mouseout"/>
                  </use>
                  <path fill="none" stroke="white" stroke-width="1.5" d="M0,-3.0v7 M-2.5,-0.5L0,-3.0L2.5,-0.5"/>
                </g>
                <g id="arrowDown" xlink:href="#dirArrow" transform="rotate(180) translate(-30 -48)" onmousedown="handlePan(0,1)">
                  <use xlink:href="#rim" fill="#404040">
                        <set attributeName="fill" to="#808080" begin="arrowDown.mouseover" end="arrowDown.mouseout"/>
                  </use>
                  <path fill="none" stroke="white" stroke-width="1.5" d="M0,-3.0v7 M-2.5,-0.5L0,-3.0L2.5,-0.5"/>
                </g>
                <g id="arrowLeft" xlink:href="#dirArrow" transform="rotate(270) translate(-36 17)" onmousedown="handlePan(-1,0)">
                  <use xlink:href="#rim" fill="#404040">
                        <set attributeName="fill" to="#808080" begin="arrowLeft.mouseover" end="arrowLeft.mouseout"/>
                  </use>
                  <path fill="none" stroke="white" stroke-width="1.5" d="M0,-3.0v7 M-2.5,-0.5L0,-3.0L2.5,-0.5"/>
                </g>
        </g>
        <svg viewBox="0 0 15 15" width="100%" height="30px" preserveAspectRatio="xMaxYMin meet">
         <g id="arrow_out" transform="scale(0.3 0.3)">
          <a xlink:href="classctrlSelection_1_1updater_1_1SObjFromUid__coll__graph_org.svg" target="_base">
           <rect id="button" ry="5" rx="5" y="6" x="6" height="38" width="38"
                fill="#f2f5e9" fill-opacity="0.5" stroke="#606060" stroke-width="1.0"/>
           <path id="arrow"
             d="M 11.500037,31.436501 C 11.940474,20.09759 22.043105,11.32322 32.158766,21.979434 L 37.068811,17.246167 C 37.068811,17.246167 37.088388,32 37.088388,32 L 22.160133,31.978069 C 22.160133,31.978069 26.997745,27.140456 26.997745,27.140456 C 18.528582,18.264221 13.291696,25.230495 11.500037,31.436501 z"
             style="fill:#404040;"/>
          </a>
         </g>
        </svg>
</svg>
