<?xml version="1.0" encoding="UTF-8" standalone="no"?>
<!DOCTYPE svg PUBLIC "-//W3C//DTD SVG 1.1//EN"
 "http://www.w3.org/Graphics/SVG/1.1/DTD/svg11.dtd">
<!-- Generated by graphviz version 2.36.0 (20140111.2315)
 -->
<!-- Title: ioTuto::ExternalDataReaderService::configureWithIHM Pages: 1 -->
<svg width="690pt" height="339pt"
 viewBox="0.00 0.00 690.00 339.00" xmlns="http://www.w3.org/2000/svg" xmlns:xlink="http://www.w3.org/1999/xlink">
<g id="graph0" class="graph" transform="scale(1 1) rotate(0) translate(4 335)">
<title>ioTuto::ExternalDataReaderService::configureWithIHM</title>
<polygon fill="white" stroke="none" points="-4,4 -4,-335 686,-335 686,4 -4,4"/>
<!-- Node1 -->
<g id="node1" class="node"><title>Node1</title>
<polygon fill="#bfbfbf" stroke="black" points="0,-169 0,-199 138,-199 138,-169 0,-169"/>
<text text-anchor="start" x="8" y="-187" font-family="Helvetica,sans-Serif" font-size="10.00">ioTuto::ExternalDataReader</text>
<text text-anchor="middle" x="69" y="-176" font-family="Helvetica,sans-Serif" font-size="10.00">Service::configureWithIHM</text>
</g>
<!-- Node2 -->
<g id="node2" class="node"><title>Node2</title>
<g id="a_node2"><a xlink:href="classfwGui_1_1dialog_1_1LocationDialog.html#a7b7d0bcd1a3da8e2fa4308174b086fce" target="_top" xlink:title="specify some filtering when browsing files: ">
<polygon fill="white" stroke="black" points="176,-301 176,-331 320,-331 320,-301 176,-301"/>
<text text-anchor="start" x="184" y="-319" font-family="Helvetica,sans-Serif" font-size="10.00">fwGui::dialog::LocationDialog</text>
<text text-anchor="middle" x="248" y="-308" font-family="Helvetica,sans-Serif" font-size="10.00">::addFilter</text>
</a>
</g>
</g>
<!-- Node1&#45;&gt;Node2 -->
<g id="edge1" class="edge"><title>Node1&#45;&gt;Node2</title>
<path fill="none" stroke="midnightblue" d="M81.0627,-199.327C98.4107,-222.33 134.174,-265.765 174,-291 177.186,-293.019 180.554,-294.896 184.026,-296.638"/>
<polygon fill="midnightblue" stroke="midnightblue" points="182.856,-299.952 193.405,-300.94 185.774,-293.589 182.856,-299.952"/>
</g>
<!-- Node3 -->
<g id="node3" class="node"><title>Node3</title>
<g id="a_node3"><a xlink:href="classfwIO_1_1IReader.html#a7b0608560a04500f868efd77f0880e81" target="_top" xlink:title="Clear any location set by the setFile/setFiles/setFolder setter. ">
<polygon fill="white" stroke="black" points="174.5,-262.5 174.5,-281.5 321.5,-281.5 321.5,-262.5 174.5,-262.5"/>
<text text-anchor="middle" x="248" y="-269.5" font-family="Helvetica,sans-Serif" font-size="10.00">fwIO::IReader::clearLocations</text>
</a>
</g>
</g>
<!-- Node1&#45;&gt;Node3 -->
<g id="edge2" class="edge"><title>Node1&#45;&gt;Node3</title>
<path fill="none" stroke="midnightblue" d="M89.2535,-199.25C109.363,-214.517 142.333,-237.735 174,-252 180.198,-254.792 186.873,-257.273 193.578,-259.453"/>
<polygon fill="midnightblue" stroke="midnightblue" points="192.785,-262.871 203.371,-262.435 194.824,-256.174 192.785,-262.871"/>
</g>
<!-- Node4 -->
<g id="node4" class="node"><title>Node4</title>
<g id="a_node4"><a xlink:href="classfwGui_1_1dialog_1_1LocationDialog.html#a986099aafc9c39e9af012462828fcfa5" target="_top" xlink:title="Set the initial location for the dialog. ">
<polygon fill="white" stroke="black" points="176,-213 176,-243 320,-243 320,-213 176,-213"/>
<text text-anchor="start" x="184" y="-231" font-family="Helvetica,sans-Serif" font-size="10.00">fwGui::dialog::LocationDialog</text>
<text text-anchor="middle" x="248" y="-220" font-family="Helvetica,sans-Serif" font-size="10.00">::setDefaultLocation</text>
</a>
</g>
</g>
<!-- Node1&#45;&gt;Node4 -->
<g id="edge3" class="edge"><title>Node1&#45;&gt;Node4</title>
<path fill="none" stroke="midnightblue" d="M130.418,-199.019C145.288,-202.716 161.337,-206.705 176.632,-210.507"/>
<polygon fill="midnightblue" stroke="midnightblue" points="176.005,-213.958 186.554,-212.974 177.693,-207.165 176.005,-213.958"/>
</g>
<!-- Node5 -->
<g id="node5" class="node"><title>Node5</title>
<g id="a_node5"><a xlink:href="classfwIO_1_1IReader.html#aee6fcc4735a644ab4aff652317b8aea7" target="_top" xlink:title="Sets file path. ">
<polygon fill="white" stroke="black" points="191.5,-174.5 191.5,-193.5 304.5,-193.5 304.5,-174.5 191.5,-174.5"/>
<text text-anchor="middle" x="248" y="-181.5" font-family="Helvetica,sans-Serif" font-size="10.00">fwIO::IReader::setFile</text>
</a>
</g>
</g>
<!-- Node1&#45;&gt;Node5 -->
<g id="edge4" class="edge"><title>Node1&#45;&gt;Node5</title>
<path fill="none" stroke="midnightblue" d="M138.18,-184C152.364,-184 167.284,-184 181.374,-184"/>
<polygon fill="midnightblue" stroke="midnightblue" points="181.464,-187.5 191.464,-184 181.464,-180.5 181.464,-187.5"/>
</g>
<!-- Node7 -->
<g id="node7" class="node"><title>Node7</title>
<g id="a_node7"><a xlink:href="classfwGui_1_1dialog_1_1LocationDialog.html#a68eb418df1cfd1c66f55a426bca5ca61" target="_top" xlink:title="allow to set option to the file dialog mode=READ/WRITE, check=FILE_MUST_EXIST ">
<polygon fill="white" stroke="black" points="176,-125 176,-155 320,-155 320,-125 176,-125"/>
<text text-anchor="start" x="184" y="-143" font-family="Helvetica,sans-Serif" font-size="10.00">fwGui::dialog::LocationDialog</text>
<text text-anchor="middle" x="248" y="-132" font-family="Helvetica,sans-Serif" font-size="10.00">::setOption</text>
</a>
</g>
</g>
<!-- Node1&#45;&gt;Node7 -->
<g id="edge6" class="edge"><title>Node1&#45;&gt;Node7</title>
<path fill="none" stroke="midnightblue" d="M130.418,-168.981C145.288,-165.284 161.337,-161.295 176.632,-157.493"/>
<polygon fill="midnightblue" stroke="midnightblue" points="177.693,-160.835 186.554,-155.026 176.005,-154.042 177.693,-160.835"/>
</g>
<!-- Node8 -->
<g id="node8" class="node"><title>Node8</title>
<g id="a_node8"><a xlink:href="classfwGui_1_1dialog_1_1LocationDialog.html#ab4992d5e26eed223fa5e609bb529179b" target="_top" xlink:title="Set the title for the dialog. ">
<polygon fill="white" stroke="black" points="176,-76 176,-106 320,-106 320,-76 176,-76"/>
<text text-anchor="start" x="184" y="-94" font-family="Helvetica,sans-Serif" font-size="10.00">fwGui::dialog::LocationDialog</text>
<text text-anchor="middle" x="248" y="-83" font-family="Helvetica,sans-Serif" font-size="10.00">::setTitle</text>
</a>
</g>
</g>
<!-- Node1&#45;&gt;Node8 -->
<g id="edge7" class="edge"><title>Node1&#45;&gt;Node8</title>
<path fill="none" stroke="midnightblue" d="M89.8231,-168.877C110.116,-153.927 142.988,-131.153 174,-116 178.547,-113.778 183.343,-111.667 188.213,-109.684"/>
<polygon fill="midnightblue" stroke="midnightblue" points="189.572,-112.911 197.628,-106.029 187.039,-106.385 189.572,-112.911"/>
</g>
<!-- Node9 -->
<g id="node9" class="node"><title>Node9</title>
<g id="a_node9"><a xlink:href="classfwGui_1_1dialog_1_1LocationDialog.html#a5553fb764e66431bd740cb35031ee06a" target="_top" xlink:title="Display the dialog. ">
<polygon fill="white" stroke="black" points="176,-27 176,-57 320,-57 320,-27 176,-27"/>
<text text-anchor="start" x="184" y="-45" font-family="Helvetica,sans-Serif" font-size="10.00">fwGui::dialog::LocationDialog</text>
<text text-anchor="middle" x="248" y="-34" font-family="Helvetica,sans-Serif" font-size="10.00">::show</text>
</a>
</g>
</g>
<!-- Node1&#45;&gt;Node9 -->
<g id="edge8" class="edge"><title>Node1&#45;&gt;Node9</title>
<path fill="none" stroke="midnightblue" d="M79.5644,-168.629C95.9109,-143.583 131.599,-93.9625 174,-66 176.401,-64.4163 178.916,-62.9291 181.508,-61.5334"/>
<polygon fill="midnightblue" stroke="midnightblue" points="183.101,-64.6511 190.566,-57.1334 180.042,-58.3547 183.101,-64.6511"/>
</g>
<!-- Node6 -->
<g id="node6" class="node"><title>Node6</title>
<g id="a_node6"><a xlink:href="classfwIO_1_1IReader.html#a43c81518d1a068b245d853f71cb406f0" target="_top" xlink:title="This method must be implemented by concrete service readers that use path file system to read data...">
<polygon fill="white" stroke="black" points="358,-174.5 358,-193.5 508,-193.5 508,-174.5 358,-174.5"/>
<text text-anchor="middle" x="433" y="-181.5" font-family="Helvetica,sans-Serif" font-size="10.00">fwIO::IReader::getIOPathType</text>
</a>
</g>
</g>
<!-- Node5&#45;&gt;Node6 -->
<g id="edge5" class="edge"><title>Node5&#45;&gt;Node6</title>
<path fill="none" stroke="midnightblue" d="M304.9,-184C318.479,-184 333.298,-184 347.866,-184"/>
<polygon fill="midnightblue" stroke="midnightblue" points="347.893,-187.5 357.893,-184 347.892,-180.5 347.893,-187.5"/>
</g>
<!-- Node10 -->
<g id="node10" class="node"><title>Node10</title>
<g id="a_node10"><a xlink:href="classfwServices_1_1registry_1_1ActiveWorkers.html#aae9d40e1fe222f0d14ac8284d3abf83c" target="_top" xlink:title="Get the default registered worker. ">
<polygon fill="white" stroke="black" points="364,-48.5 364,-89.5 502,-89.5 502,-48.5 364,-48.5"/>
<text text-anchor="start" x="372" y="-77.5" font-family="Helvetica,sans-Serif" font-size="10.00">fwServices::registry</text>
<text text-anchor="start" x="372" y="-66.5" font-family="Helvetica,sans-Serif" font-size="10.00">::ActiveWorkers::getDefault</text>
<text text-anchor="middle" x="433" y="-55.5" font-family="Helvetica,sans-Serif" font-size="10.00">Worker</text>
</a>
</g>
</g>
<!-- Node9&#45;&gt;Node10 -->
<g id="edge9" class="edge"><title>Node9&#45;&gt;Node10</title>
<path fill="none" stroke="midnightblue" d="M320.015,-52.4775C331.014,-54.1005 342.43,-55.7848 353.582,-57.4301"/>
<polygon fill="midnightblue" stroke="midnightblue" points="353.325,-60.9301 363.729,-58.9272 354.347,-54.005 353.325,-60.9301"/>
</g>
<!-- Node12 -->
<g id="node12" class="node"><title>Node12</title>
<g id="a_node12"><a xlink:href="classfwGui_1_1dialog_1_1ILocationDialog.html#afe365e8bbb4d1aa519e2d003eefe4070" target="_top" xlink:title="fwGui::dialog::ILocation\lDialog::show">
<polygon fill="white" stroke="black" points="373.5,-0 373.5,-30 492.5,-30 492.5,-0 373.5,-0"/>
<text text-anchor="start" x="381.5" y="-18" font-family="Helvetica,sans-Serif" font-size="10.00">fwGui::dialog::ILocation</text>
<text text-anchor="middle" x="433" y="-7" font-family="Helvetica,sans-Serif" font-size="10.00">Dialog::show</text>
</a>
</g>
</g>
<!-- Node9&#45;&gt;Node12 -->
<g id="edge11" class="edge"><title>Node9&#45;&gt;Node12</title>
<path fill="none" stroke="midnightblue" d="M320.015,-31.5225C334.243,-29.4231 349.169,-27.221 363.317,-25.1335"/>
<polygon fill="midnightblue" stroke="midnightblue" points="364.079,-28.5592 373.461,-23.6369 363.057,-21.6341 364.079,-28.5592"/>
</g>
<!-- Node11 -->
<g id="node11" class="node"><title>Node11</title>
<g id="a_node11"><a xlink:href="classfwServices_1_1registry_1_1ActiveWorkers.html#a96003a042657996f7297f459e927ae16" target="_top" xlink:title="Returns an instance of ActiveWorkers. ">
<polygon fill="white" stroke="black" points="544,-54 544,-84 682,-84 682,-54 544,-54"/>
<text text-anchor="start" x="552" y="-72" font-family="Helvetica,sans-Serif" font-size="10.00">fwServices::registry</text>
<text text-anchor="middle" x="613" y="-61" font-family="Helvetica,sans-Serif" font-size="10.00">::ActiveWorkers::getDefault</text>
</a>
</g>
</g>
<!-- Node10&#45;&gt;Node11 -->
<g id="edge10" class="edge"><title>Node10&#45;&gt;Node11</title>
<path fill="none" stroke="midnightblue" d="M502.056,-69C512.469,-69 523.287,-69 533.895,-69"/>
<polygon fill="midnightblue" stroke="midnightblue" points="533.982,-72.5001 543.982,-69 533.982,-65.5001 533.982,-72.5001"/>
</g>
</g>
</svg>
