<?xml version="1.0" encoding="UTF-8" standalone="no"?>
<!DOCTYPE svg PUBLIC "-//W3C//DTD SVG 1.1//EN"
 "http://www.w3.org/Graphics/SVG/1.1/DTD/svg11.dtd">
<!-- Generated by graphviz version 2.36.0 (20140111.2315)
 -->
<!-- Title: visuVTKAdaptor::SImage::updating Pages: 1 -->
<svg width="642pt" height="246pt"
 viewBox="0.00 0.00 642.00 246.00" xmlns="http://www.w3.org/2000/svg" xmlns:xlink="http://www.w3.org/1999/xlink">
<g id="graph0" class="graph" transform="scale(1 1) rotate(0) translate(4 242)">
<title>visuVTKAdaptor::SImage::updating</title>
<polygon fill="white" stroke="none" points="-4,4 -4,-242 638,-242 638,4 -4,4"/>
<!-- Node1 -->
<g id="node1" class="node"><title>Node1</title>
<polygon fill="#bfbfbf" stroke="black" points="0,-153 0,-183 128,-183 128,-153 0,-153"/>
<text text-anchor="start" x="8" y="-171" font-family="Helvetica,sans-Serif" font-size="10.00">visuVTKAdaptor::SImage</text>
<text text-anchor="middle" x="64" y="-160" font-family="Helvetica,sans-Serif" font-size="10.00">::updating</text>
</g>
<!-- Node2 -->
<g id="node2" class="node"><title>Node2</title>
<g id="a_node2"><a xlink:href="classfwDataTools_1_1fieldHelper_1_1MedicalImageHelpers.html#a1aa6e7bebb9f96a8e60a14aecc352e99" target="_top" xlink:title="Check if the image is valid. ">
<polygon fill="white" stroke="black" points="165.5,-196.5 165.5,-237.5 290.5,-237.5 290.5,-196.5 165.5,-196.5"/>
<text text-anchor="start" x="173.5" y="-225.5" font-family="Helvetica,sans-Serif" font-size="10.00">fwDataTools::fieldHelper</text>
<text text-anchor="start" x="173.5" y="-214.5" font-family="Helvetica,sans-Serif" font-size="10.00">::MedicalImageHelpers::</text>
<text text-anchor="middle" x="228" y="-203.5" font-family="Helvetica,sans-Serif" font-size="10.00">checkImageValidity</text>
</a>
</g>
</g>
<!-- Node1&#45;&gt;Node2 -->
<g id="edge1" class="edge"><title>Node1&#45;&gt;Node2</title>
<path fill="none" stroke="midnightblue" d="M114.927,-183.101C127.72,-186.971 141.731,-191.209 155.382,-195.338"/>
<polygon fill="midnightblue" stroke="midnightblue" points="154.651,-198.773 165.236,-198.318 156.677,-192.073 154.651,-198.773"/>
</g>
<!-- Node3 -->
<g id="node3" class="node"><title>Node3</title>
<g id="a_node3"><a xlink:href="classfwRenderVTK_1_1IAdaptor.html#a46ef60802ac6cd7002a6199512963775" target="_top" xlink:title="notify a render request iff vtkPipeline is modified ">
<polygon fill="white" stroke="black" points="328.5,-156 328.5,-186 449.5,-186 449.5,-156 328.5,-156"/>
<text text-anchor="start" x="336.5" y="-174" font-family="Helvetica,sans-Serif" font-size="10.00">fwRenderVTK::IAdaptor</text>
<text text-anchor="middle" x="389" y="-163" font-family="Helvetica,sans-Serif" font-size="10.00">::requestRender</text>
</a>
</g>
</g>
<!-- Node1&#45;&gt;Node3 -->
<g id="edge2" class="edge"><title>Node1&#45;&gt;Node3</title>
<path fill="none" stroke="midnightblue" d="M128.044,-168.586C182.66,-169.093 261.568,-169.826 318.101,-170.351"/>
<polygon fill="midnightblue" stroke="midnightblue" points="318.354,-173.853 328.386,-170.446 318.419,-166.853 318.354,-173.853"/>
</g>
<!-- Node7 -->
<g id="node7" class="node"><title>Node7</title>
<g id="a_node7"><a xlink:href="classvisuVTKAdaptor_1_1SImage.html#a110a4ae885c1aaa4d2d7031b40a5b7e0" target="_top" xlink:title="Slot: Update image opacity and visibility. ">
<polygon fill="white" stroke="black" points="164,-107 164,-137 292,-137 292,-107 164,-107"/>
<text text-anchor="start" x="172" y="-125" font-family="Helvetica,sans-Serif" font-size="10.00">visuVTKAdaptor::SImage</text>
<text text-anchor="middle" x="228" y="-114" font-family="Helvetica,sans-Serif" font-size="10.00">::updateImageOpacity</text>
</a>
</g>
</g>
<!-- Node1&#45;&gt;Node7 -->
<g id="edge6" class="edge"><title>Node1&#45;&gt;Node7</title>
<path fill="none" stroke="midnightblue" d="M118.045,-152.938C132.806,-148.747 148.978,-144.154 164.239,-139.821"/>
<polygon fill="midnightblue" stroke="midnightblue" points="165.449,-143.116 174.113,-137.017 163.537,-136.382 165.449,-143.116"/>
</g>
<!-- Node4 -->
<g id="node4" class="node"><title>Node4</title>
<g id="a_node4"><a xlink:href="classfwRenderVTK_1_1IAdaptor.html#a908f43b79c3c619e7e56cd4b5a08dd79" target="_top" xlink:title="Returd the associated render service. ">
<polygon fill="white" stroke="black" points="499.5,-205 499.5,-235 620.5,-235 620.5,-205 499.5,-205"/>
<text text-anchor="start" x="507.5" y="-223" font-family="Helvetica,sans-Serif" font-size="10.00">fwRenderVTK::IAdaptor</text>
<text text-anchor="middle" x="560" y="-212" font-family="Helvetica,sans-Serif" font-size="10.00">::getRenderService</text>
</a>
</g>
</g>
<!-- Node3&#45;&gt;Node4 -->
<g id="edge3" class="edge"><title>Node3&#45;&gt;Node4</title>
<path fill="none" stroke="midnightblue" d="M442.085,-186.101C459.595,-191.179 479.295,-196.89 497.462,-202.158"/>
<polygon fill="midnightblue" stroke="midnightblue" points="496.508,-205.525 507.087,-204.948 498.458,-198.802 496.508,-205.525"/>
</g>
<!-- Node5 -->
<g id="node5" class="node"><title>Node5</title>
<g id="a_node5"><a xlink:href="classfwServices_1_1IService.html#a7284059e3031206537f48fa53a7e89d0" target="_top" xlink:title="Return the global process status. ">
<polygon fill="white" stroke="black" points="506.5,-156 506.5,-186 613.5,-186 613.5,-156 506.5,-156"/>
<text text-anchor="start" x="514.5" y="-174" font-family="Helvetica,sans-Serif" font-size="10.00">fwServices::IService</text>
<text text-anchor="middle" x="560" y="-163" font-family="Helvetica,sans-Serif" font-size="10.00">::getStatus</text>
</a>
</g>
</g>
<!-- Node3&#45;&gt;Node5 -->
<g id="edge4" class="edge"><title>Node3&#45;&gt;Node5</title>
<path fill="none" stroke="midnightblue" d="M449.583,-171C464.64,-171 480.855,-171 496.071,-171"/>
<polygon fill="midnightblue" stroke="midnightblue" points="496.419,-174.5 506.419,-171 496.418,-167.5 496.419,-174.5"/>
</g>
<!-- Node6 -->
<g id="node6" class="node"><title>Node6</title>
<g id="a_node6"><a xlink:href="classfwRenderVTK_1_1IAdaptor.html#a40e8583048160a35d175fdfe6c081881" target="_top" xlink:title="Returns true if the service automatically triggers the rendering. ">
<polygon fill="white" stroke="black" points="499.5,-107 499.5,-137 620.5,-137 620.5,-107 499.5,-107"/>
<text text-anchor="start" x="507.5" y="-125" font-family="Helvetica,sans-Serif" font-size="10.00">fwRenderVTK::IAdaptor</text>
<text text-anchor="middle" x="560" y="-114" font-family="Helvetica,sans-Serif" font-size="10.00">::getAutoRender</text>
</a>
</g>
</g>
<!-- Node3&#45;&gt;Node6 -->
<g id="edge5" class="edge"><title>Node3&#45;&gt;Node6</title>
<path fill="none" stroke="midnightblue" d="M442.085,-155.899C459.595,-150.821 479.295,-145.11 497.462,-139.842"/>
<polygon fill="midnightblue" stroke="midnightblue" points="498.458,-143.198 507.087,-137.052 496.508,-136.475 498.458,-143.198"/>
</g>
<!-- Node7&#45;&gt;Node3 -->
<g id="edge8" class="edge"><title>Node7&#45;&gt;Node3</title>
<path fill="none" stroke="midnightblue" d="M278.003,-137.101C294.249,-142.108 312.499,-147.732 329.394,-152.939"/>
<polygon fill="midnightblue" stroke="midnightblue" points="328.572,-156.348 339.159,-155.948 330.633,-149.659 328.572,-156.348"/>
</g>
<!-- Node8 -->
<g id="node8" class="node"><title>Node8</title>
<g id="a_node8"><a xlink:href="classfwRenderVTK_1_1IAdaptor.html#a0fd9eb8ee07f2e7d53b27c6bbe8994eb" target="_top" xlink:title="End&#45;user have to call this method when a vtk structure has been modified, thus a render request will ...">
<polygon fill="white" stroke="black" points="328,-107 328,-137 450,-137 450,-107 328,-107"/>
<text text-anchor="start" x="336" y="-125" font-family="Helvetica,sans-Serif" font-size="10.00">fwRenderVTK::IAdaptor</text>
<text text-anchor="middle" x="389" y="-114" font-family="Helvetica,sans-Serif" font-size="10.00">::setVtkPipelineModified</text>
</a>
</g>
</g>
<!-- Node7&#45;&gt;Node8 -->
<g id="edge7" class="edge"><title>Node7&#45;&gt;Node8</title>
<path fill="none" stroke="midnightblue" d="M292.298,-122C300.61,-122 309.168,-122 317.589,-122"/>
<polygon fill="midnightblue" stroke="midnightblue" points="317.766,-125.5 327.766,-122 317.766,-118.5 317.766,-125.5"/>
</g>
<!-- Node9 -->
<g id="node9" class="node"><title>Node9</title>
<g id="a_node9"><a xlink:href="classfwRenderVTK_1_1IAdaptor.html#a3ea5e8fefdd2b365ad909174dc3df005" target="_top" xlink:title="Returns the vtk object defined by &#39;objectId&#39; in the vtk scene. ">
<polygon fill="white" stroke="black" points="328.5,-58 328.5,-88 449.5,-88 449.5,-58 328.5,-58"/>
<text text-anchor="start" x="336.5" y="-76" font-family="Helvetica,sans-Serif" font-size="10.00">fwRenderVTK::IAdaptor</text>
<text text-anchor="middle" x="389" y="-65" font-family="Helvetica,sans-Serif" font-size="10.00">::getVtkObject</text>
</a>
</g>
</g>
<!-- Node7&#45;&gt;Node9 -->
<g id="edge9" class="edge"><title>Node7&#45;&gt;Node9</title>
<path fill="none" stroke="midnightblue" d="M278.003,-106.899C294.249,-101.892 312.499,-96.2676 329.394,-91.061"/>
<polygon fill="midnightblue" stroke="midnightblue" points="330.633,-94.3415 339.159,-88.0516 328.572,-87.652 330.633,-94.3415"/>
</g>
<!-- Node10 -->
<g id="node10" class="node"><title>Node10</title>
<g id="a_node10"><a xlink:href="classfwTools_1_1fwID.html#a387264565a48b0231a7eefb7b01512a1" target="_top" xlink:title="Returns the id of the object. If it is not set and the policy value is. ">
<polygon fill="white" stroke="black" points="335,-19.5 335,-38.5 443,-38.5 443,-19.5 335,-19.5"/>
<text text-anchor="middle" x="389" y="-26.5" font-family="Helvetica,sans-Serif" font-size="10.00">fwTools::fwID::getID</text>
</a>
</g>
</g>
<!-- Node7&#45;&gt;Node10 -->
<g id="edge10" class="edge"><title>Node7&#45;&gt;Node10</title>
<path fill="none" stroke="midnightblue" d="M245.695,-106.726C264.48,-90.237 296.502,-64.17 328,-48 332.271,-45.8075 336.843,-43.8079 341.488,-41.9996"/>
<polygon fill="midnightblue" stroke="midnightblue" points="342.826,-45.2375 351.049,-38.5559 340.454,-38.6517 342.826,-45.2375"/>
</g>
<!-- Node11 -->
<g id="node11" class="node"><title>Node11</title>
<g id="a_node11"><a xlink:href="classfwTools_1_1fwID.html#a4ac18bb9c046c3fd04a4c8a80add7ae6" target="_top" xlink:title="fwTools::fwID::exist">
<polygon fill="white" stroke="black" points="507.5,-38.5 507.5,-57.5 612.5,-57.5 612.5,-38.5 507.5,-38.5"/>
<text text-anchor="middle" x="560" y="-45.5" font-family="Helvetica,sans-Serif" font-size="10.00">fwTools::fwID::exist</text>
</a>
</g>
</g>
<!-- Node10&#45;&gt;Node11 -->
<g id="edge11" class="edge"><title>Node10&#45;&gt;Node11</title>
<path fill="none" stroke="midnightblue" d="M443.009,-34.9596C460.164,-36.8883 479.34,-39.0441 497.082,-41.0388"/>
<polygon fill="midnightblue" stroke="midnightblue" points="497.008,-44.5525 507.337,-42.1917 497.79,-37.5963 497.008,-44.5525"/>
</g>
<!-- Node12 -->
<g id="node12" class="node"><title>Node12</title>
<g id="a_node12"><a xlink:href="classfwTools_1_1fwID.html#a03d6d0e2227b51a0630e145911445213" target="_top" xlink:title="return full object&#39;s classname with its namespace, i.e. fwCore::BaseObject ">
<polygon fill="white" stroke="black" points="486.5,-0.5 486.5,-19.5 633.5,-19.5 633.5,-0.5 486.5,-0.5"/>
<text text-anchor="middle" x="560" y="-7.5" font-family="Helvetica,sans-Serif" font-size="10.00">fwTools::fwID::getClassname</text>
</a>
</g>
</g>
<!-- Node10&#45;&gt;Node12 -->
<g id="edge12" class="edge"><title>Node10&#45;&gt;Node12</title>
<path fill="none" stroke="midnightblue" d="M443.009,-23.0404C453.64,-21.8452 465.048,-20.5626 476.41,-19.2853"/>
<polygon fill="midnightblue" stroke="midnightblue" points="476.815,-22.7619 486.361,-18.1665 476.033,-15.8057 476.815,-22.7619"/>
</g>
</g>
</svg>
