<?xml version="1.0" encoding="UTF-8" standalone="no"?>
<!DOCTYPE svg PUBLIC "-//W3C//DTD SVG 1.1//EN"
 "http://www.w3.org/Graphics/SVG/1.1/DTD/svg11.dtd">
<!-- Generated by graphviz version 2.26.3 (20100126.1600)
 -->
<!-- Title: uiMedData::editor::SModelSeriesList Pages: 1 -->
<svg width="1696pt" height="336pt"
 viewBox="0.00 0.00 1696.00 336.00" xmlns="http://www.w3.org/2000/svg" xmlns:xlink="http://www.w3.org/1999/xlink">
<g id="graph1" class="graph" transform="scale(1 1) rotate(0) translate(4 332)">
<title>uiMedData::editor::SModelSeriesList</title>
<polygon fill="white" stroke="white" points="-4,5 -4,-332 1693,-332 1693,5 -4,5"/>
<!-- Node1 -->
<g id="node1" class="node"><title>Node1</title>
<polygon fill="#bfbfbf" stroke="black" points="1588,-42 1588,-76 1688,-76 1688,-42 1588,-42"/>
<text text-anchor="start" x="1596" y="-63" font-family="Helvetica,sans-Serif" font-size="10.00">uiMedData::editor::</text>
<text text-anchor="middle" x="1638" y="-50" font-family="Helvetica,sans-Serif" font-size="10.00">SModelSeriesList</text>
</g>
<!-- Node2 -->
<g id="node2" class="node"><title>Node2</title>
<polygon fill="white" stroke="#bfbfbf" points="1476.5,-88.5 1476.5,-109.5 1529.5,-109.5 1529.5,-88.5 1476.5,-88.5"/>
<text text-anchor="middle" x="1503" y="-96.5" font-family="Helvetica,sans-Serif" font-size="10.00">QObject</text>
</g>
<!-- Node2&#45;&gt;Node1 -->
<g id="edge2" class="edge"><title>Node2&#45;&gt;Node1</title>
<path fill="none" stroke="midnightblue" d="M1539.52,-88.1806C1554.4,-83.7712 1571.85,-78.6015 1587.89,-73.8483"/>
<polygon fill="midnightblue" stroke="midnightblue" points="1538.27,-84.9005 1529.67,-91.0973 1540.25,-91.6121 1538.27,-84.9005"/>
</g>
<!-- Node3 -->
<g id="node4" class="node"><title>Node3</title>
<a xlink:href="classgui_1_1editor_1_1IEditor.html" target="_top" xlink:title="Defines the service interface managing the editor service for object. ">
<polygon fill="white" stroke="black" points="1456,-48.5 1456,-69.5 1550,-69.5 1550,-48.5 1456,-48.5"/>
<text text-anchor="middle" x="1503" y="-56.5" font-family="Helvetica,sans-Serif" font-size="10.00">gui::editor::IEditor</text>
</a>
</g>
<!-- Node3&#45;&gt;Node1 -->
<g id="edge4" class="edge"><title>Node3&#45;&gt;Node1</title>
<path fill="none" stroke="midnightblue" d="M1560.38,-59C1569.5,-59 1578.88,-59 1587.83,-59"/>
<polygon fill="midnightblue" stroke="midnightblue" points="1560.22,-55.5001 1550.22,-59 1560.22,-62.5001 1560.22,-55.5001"/>
</g>
<!-- Node4 -->
<g id="node6" class="node"><title>Node4</title>
<a xlink:href="classfwGui_1_1IGuiContainerSrv.html" target="_top" xlink:title="Defines the service interface managing the layout. ">
<polygon fill="white" stroke="black" points="1279.5,-109.5 1279.5,-130.5 1402.5,-130.5 1402.5,-109.5 1279.5,-109.5"/>
<text text-anchor="middle" x="1341" y="-117.5" font-family="Helvetica,sans-Serif" font-size="10.00">fwGui::IGuiContainerSrv</text>
</a>
</g>
<!-- Node4&#45;&gt;Node3 -->
<g id="edge6" class="edge"><title>Node4&#45;&gt;Node3</title>
<path fill="none" stroke="midnightblue" d="M1385.36,-106.325C1396.1,-102.812 1407.52,-98.9139 1418,-95 1421.04,-93.865 1454.27,-79.7503 1478.27,-69.5377"/>
<polygon fill="midnightblue" stroke="midnightblue" points="1384.16,-103.032 1375.72,-109.432 1386.31,-109.695 1384.16,-103.032"/>
</g>
<!-- Node5 -->
<g id="node8" class="node"><title>Node5</title>
<a xlink:href="classfwServices_1_1IService.html" target="_top" xlink:title="Base class for all services. ">
<polygon fill="white" stroke="black" points="1115.5,-200.5 1115.5,-221.5 1222.5,-221.5 1222.5,-200.5 1115.5,-200.5"/>
<text text-anchor="middle" x="1169" y="-208.5" font-family="Helvetica,sans-Serif" font-size="10.00">fwServices::IService</text>
</a>
</g>
<!-- Node5&#45;&gt;Node4 -->
<g id="edge8" class="edge"><title>Node5&#45;&gt;Node4</title>
<path fill="none" stroke="midnightblue" d="M1198.29,-195.502C1233.28,-176.993 1290.84,-146.536 1321.06,-130.549"/>
<polygon fill="midnightblue" stroke="midnightblue" points="1196.27,-192.613 1189.07,-200.383 1199.54,-198.8 1196.27,-192.613"/>
</g>
<!-- Node6 -->
<g id="node10" class="node"><title>Node6</title>
<a xlink:href="classfwTools_1_1Object.html" target="_top" xlink:title="Define Base class for FW4SPL objects and services. ">
<polygon fill="white" stroke="black" points="879,-179.5 879,-200.5 965,-200.5 965,-179.5 879,-179.5"/>
<text text-anchor="middle" x="922" y="-187.5" font-family="Helvetica,sans-Serif" font-size="10.00">fwTools::Object</text>
</a>
</g>
<!-- Node6&#45;&gt;Node5 -->
<g id="edge10" class="edge"><title>Node6&#45;&gt;Node5</title>
<path fill="none" stroke="midnightblue" d="M975.353,-195.451C980.972,-195.991 986.602,-196.517 992,-197 1033.29,-200.697 1080.06,-204.374 1115.14,-207.031"/>
<polygon fill="midnightblue" stroke="midnightblue" points="975.594,-191.958 965.302,-194.472 974.915,-198.925 975.594,-191.958"/>
</g>
<!-- Node7 -->
<g id="node12" class="node"><title>Node7</title>
<a xlink:href="classfwCore_1_1BaseObject.html" target="_top" xlink:title="Base class for all FW4SPL&#39;s classes. ">
<polygon fill="white" stroke="black" points="680.5,-179.5 680.5,-200.5 785.5,-200.5 785.5,-179.5 680.5,-179.5"/>
<text text-anchor="middle" x="733" y="-187.5" font-family="Helvetica,sans-Serif" font-size="10.00">fwCore::BaseObject</text>
</a>
</g>
<!-- Node7&#45;&gt;Node6 -->
<g id="edge12" class="edge"><title>Node7&#45;&gt;Node6</title>
<path fill="none" stroke="midnightblue" d="M795.871,-190C823.11,-190 854.312,-190 878.867,-190"/>
<polygon fill="midnightblue" stroke="midnightblue" points="795.647,-186.5 785.647,-190 795.647,-193.5 795.647,-186.5"/>
</g>
<!-- Node8 -->
<g id="node14" class="node"><title>Node8</title>
<polygon fill="white" stroke="#bfbfbf" points="449.5,-167 449.5,-201 580.5,-201 580.5,-167 449.5,-167"/>
<text text-anchor="start" x="457.5" y="-188" font-family="Helvetica,sans-Serif" font-size="10.00">std::enable_shared</text>
<text text-anchor="middle" x="515" y="-175" font-family="Helvetica,sans-Serif" font-size="10.00">_from_this&lt; BaseObject &gt;</text>
</g>
<!-- Node8&#45;&gt;Node7 -->
<g id="edge14" class="edge"><title>Node8&#45;&gt;Node7</title>
<path fill="none" stroke="midnightblue" d="M590.959,-186.091C620.418,-186.901 653.435,-187.81 680.216,-188.547"/>
<polygon fill="midnightblue" stroke="midnightblue" points="590.795,-182.585 580.703,-185.808 590.603,-189.582 590.795,-182.585"/>
</g>
<!-- Node9 -->
<g id="node16" class="node"><title>Node9</title>
<a xlink:href="classfwTools_1_1fwID.html" target="_top" xlink:title="Defines ID for fwTools::Object. It is used to associate ID with object. ">
<polygon fill="white" stroke="black" points="694,-139.5 694,-160.5 772,-160.5 772,-139.5 694,-139.5"/>
<text text-anchor="middle" x="733" y="-147.5" font-family="Helvetica,sans-Serif" font-size="10.00">fwTools::fwID</text>
</a>
</g>
<!-- Node9&#45;&gt;Node6 -->
<g id="edge16" class="edge"><title>Node9&#45;&gt;Node6</title>
<path fill="none" stroke="darkgreen" d="M782.007,-160.372C812.022,-166.724 850.08,-174.779 878.936,-180.886"/>
<polygon fill="darkgreen" stroke="darkgreen" points="782.669,-156.934 772.161,-158.288 781.22,-163.783 782.669,-156.934"/>
</g>
<!-- Node10 -->
<g id="node18" class="node"><title>Node10</title>
<a xlink:href="classfwCom_1_1HasSlots.html" target="_top" xlink:title="This class proposes a mapping between a SlotKeyType and a SlotBase. ">
<polygon fill="white" stroke="black" points="874.5,-225.5 874.5,-246.5 969.5,-246.5 969.5,-225.5 874.5,-225.5"/>
<text text-anchor="middle" x="922" y="-233.5" font-family="Helvetica,sans-Serif" font-size="10.00">fwCom::HasSlots</text>
</a>
</g>
<!-- Node10&#45;&gt;Node5 -->
<g id="edge18" class="edge"><title>Node10&#45;&gt;Node5</title>
<path fill="none" stroke="midnightblue" d="M979.709,-230.159C1020.6,-226.021 1075.07,-220.507 1115.08,-216.457"/>
<polygon fill="midnightblue" stroke="midnightblue" points="979.221,-226.69 969.624,-231.18 979.926,-233.655 979.221,-226.69"/>
</g>
<!-- Node11 -->
<g id="node20" class="node"><title>Node11</title>
<a xlink:href="classfwCom_1_1Slots.html" target="_top" xlink:title="This class proposes a mapping between a SlotKeyType and a SlotBase. ">
<polygon fill="white" stroke="black" points="694.5,-225.5 694.5,-246.5 771.5,-246.5 771.5,-225.5 694.5,-225.5"/>
<text text-anchor="middle" x="733" y="-233.5" font-family="Helvetica,sans-Serif" font-size="10.00">fwCom::Slots</text>
</a>
</g>
<!-- Node11&#45;&gt;Node10 -->
<g id="edge20" class="edge"><title>Node11&#45;&gt;Node10</title>
<path fill="none" stroke="#9a32cd" stroke-dasharray="5,2" d="M781.832,-236C810.292,-236 846.028,-236 874.293,-236"/>
<polygon fill="#9a32cd" stroke="#9a32cd" points="781.703,-232.5 771.703,-236 781.703,-239.5 781.703,-232.5"/>
<text text-anchor="middle" x="828" y="-240" font-family="Helvetica,sans-Serif" font-size="10.00"> m_slots</text>
</g>
<!-- Node12 -->
<g id="node22" class="node"><title>Node12</title>
<polygon fill="white" stroke="#bfbfbf" points="439,-219 439,-253 591,-253 591,-219 439,-219"/>
<text text-anchor="start" x="447" y="-240" font-family="Helvetica,sans-Serif" font-size="10.00">std::map&lt; SlotKeyType,</text>
<text text-anchor="middle" x="515" y="-227" font-family="Helvetica,sans-Serif" font-size="10.00"> std::shared_ptr&lt; SlotBase &gt; &gt;</text>
</g>
<!-- Node12&#45;&gt;Node11 -->
<g id="edge22" class="edge"><title>Node12&#45;&gt;Node11</title>
<path fill="none" stroke="#9a32cd" stroke-dasharray="5,2" d="M601.588,-236C633.782,-236 668.703,-236 694.45,-236"/>
<polygon fill="#9a32cd" stroke="#9a32cd" points="601.246,-232.5 591.246,-236 601.246,-239.5 601.246,-232.5"/>
<text text-anchor="middle" x="638" y="-240" font-family="Helvetica,sans-Serif" font-size="10.00"> m_slots</text>
</g>
<!-- Node13 -->
<g id="node24" class="node"><title>Node13</title>
<a xlink:title="STL class. ">
<polygon fill="white" stroke="#bfbfbf" points="192,-300.5 192,-321.5 252,-321.5 252,-300.5 192,-300.5"/>
<text text-anchor="middle" x="222" y="-308.5" font-family="Helvetica,sans-Serif" font-size="10.00">std::string</text>
</a>
</g>
<!-- Node13&#45;&gt;Node12 -->
<g id="edge24" class="edge"><title>Node13&#45;&gt;Node12</title>
<path fill="none" stroke="#9a32cd" stroke-dasharray="5,2" d="M260.265,-297.258C268.668,-294.575 277.573,-291.983 286,-290 342.839,-276.626 360.293,-288.5 416,-271 424.533,-268.319 425.718,-265.377 434,-262 441.659,-258.878 449.843,-255.877 457.956,-253.095"/>
<polygon fill="#9a32cd" stroke="#9a32cd" points="259.09,-293.96 250.692,-300.419 261.285,-300.607 259.09,-293.96"/>
<text text-anchor="middle" x="351" y="-294" font-family="Helvetica,sans-Serif" font-size="10.00"> keys</text>
</g>
<!-- Node20 -->
<g id="node38" class="node"><title>Node20</title>
<polygon fill="white" stroke="#bfbfbf" points="434.5,-271 434.5,-305 595.5,-305 595.5,-271 434.5,-271"/>
<text text-anchor="start" x="442.5" y="-292" font-family="Helvetica,sans-Serif" font-size="10.00">std::map&lt; SignalKeyType,</text>
<text text-anchor="middle" x="515" y="-279" font-family="Helvetica,sans-Serif" font-size="10.00"> std::shared_ptr&lt; SignalBase &gt; &gt;</text>
</g>
<!-- Node13&#45;&gt;Node20 -->
<g id="edge40" class="edge"><title>Node13&#45;&gt;Node20</title>
<path fill="none" stroke="#9a32cd" stroke-dasharray="5,2" d="M262.242,-312.145C301.565,-312.799 363.063,-312.585 416,-307 422.005,-306.366 428.189,-305.559 434.395,-304.635"/>
<polygon fill="#9a32cd" stroke="#9a32cd" points="262.075,-308.641 252.009,-311.947 261.94,-315.64 262.075,-308.641"/>
<text text-anchor="middle" x="351" y="-316" font-family="Helvetica,sans-Serif" font-size="10.00"> keys</text>
</g>
<!-- Node14 -->
<g id="node26" class="node"><title>Node14</title>
<a xlink:title="STL class. ">
<polygon fill="white" stroke="#bfbfbf" points="0.5,-294 0.5,-328 95.5,-328 95.5,-294 0.5,-294"/>
<text text-anchor="start" x="8.5" y="-315" font-family="Helvetica,sans-Serif" font-size="10.00">std::basic_string&lt;</text>
<text text-anchor="middle" x="48" y="-302" font-family="Helvetica,sans-Serif" font-size="10.00"> char &gt;</text>
</a>
</g>
<!-- Node14&#45;&gt;Node13 -->
<g id="edge26" class="edge"><title>Node14&#45;&gt;Node13</title>
<path fill="none" stroke="midnightblue" d="M105.887,-311C134.618,-311 168.136,-311 191.754,-311"/>
<polygon fill="midnightblue" stroke="midnightblue" points="105.546,-307.5 95.5463,-311 105.546,-314.5 105.546,-307.5"/>
</g>
<!-- Node15 -->
<g id="node28" class="node"><title>Node15</title>
<a xlink:title="STL class. ">
<polygon fill="white" stroke="#bfbfbf" points="176,-204.5 176,-225.5 268,-225.5 268,-204.5 176,-204.5"/>
<text text-anchor="middle" x="222" y="-212.5" font-family="Helvetica,sans-Serif" font-size="10.00">std::map&lt; K, T &gt;</text>
</a>
</g>
<!-- Node15&#45;&gt;Node12 -->
<g id="edge28" class="edge"><title>Node15&#45;&gt;Node12</title>
<path fill="none" stroke="orange" stroke-dasharray="5,2" d="M261.817,-201.563C301.85,-190.234 364.802,-178.433 416,-196 425.586,-199.289 425.038,-205.268 434,-210 440.269,-213.31 447.035,-216.293 453.891,-218.955"/>
<polygon fill="orange" stroke="orange" points="260.754,-198.228 252.154,-204.415 262.736,-204.941 260.754,-198.228"/>
<text text-anchor="start" x="291.5" y="-213" font-family="Helvetica,sans-Serif" font-size="10.00"> &lt; SlotKeyType, std</text>
<text text-anchor="middle" x="351" y="-200" font-family="Helvetica,sans-Serif" font-size="10.00">::shared_ptr&lt; SlotBase &gt; &gt;</text>
</g>
<!-- Node15&#45;&gt;Node20 -->
<g id="edge42" class="edge"><title>Node15&#45;&gt;Node20</title>
<path fill="none" stroke="orange" stroke-dasharray="5,2" d="M278.042,-221.942C330.875,-228.764 403.742,-239.001 416,-245 425.884,-249.837 424.526,-256.402 434,-262 439.595,-265.306 445.659,-268.244 451.866,-270.842"/>
<polygon fill="orange" stroke="orange" points="278.462,-218.467 268.098,-220.667 277.572,-225.41 278.462,-218.467"/>
<text text-anchor="start" x="286.5" y="-262" font-family="Helvetica,sans-Serif" font-size="10.00"> &lt; SignalKeyType, std</text>
<text text-anchor="middle" x="351" y="-249" font-family="Helvetica,sans-Serif" font-size="10.00">::shared_ptr&lt; SignalBase &gt; &gt;</text>
</g>
<!-- Node16 -->
<g id="node30" class="node"><title>Node16</title>
<polygon fill="white" stroke="#bfbfbf" points="33.5,-235.5 33.5,-256.5 62.5,-256.5 62.5,-235.5 33.5,-235.5"/>
<text text-anchor="middle" x="48" y="-243.5" font-family="Helvetica,sans-Serif" font-size="10.00">K</text>
</g>
<!-- Node16&#45;&gt;Node15 -->
<g id="edge30" class="edge"><title>Node16&#45;&gt;Node15</title>
<path fill="none" stroke="#9a32cd" stroke-dasharray="5,2" d="M72.5869,-241.62C99.3704,-236.848 142.819,-229.107 175.976,-223.2"/>
<polygon fill="#9a32cd" stroke="#9a32cd" points="71.7669,-238.21 62.5359,-243.41 72.9948,-245.102 71.7669,-238.21"/>
<text text-anchor="middle" x="136" y="-238" font-family="Helvetica,sans-Serif" font-size="10.00"> keys</text>
</g>
<!-- Node17 -->
<g id="node32" class="node"><title>Node17</title>
<polygon fill="white" stroke="#bfbfbf" points="33.5,-195.5 33.5,-216.5 62.5,-216.5 62.5,-195.5 33.5,-195.5"/>
<text text-anchor="middle" x="48" y="-203.5" font-family="Helvetica,sans-Serif" font-size="10.00">T</text>
</g>
<!-- Node17&#45;&gt;Node15 -->
<g id="edge32" class="edge"><title>Node17&#45;&gt;Node15</title>
<path fill="none" stroke="#9a32cd" stroke-dasharray="5,2" d="M72.8514,-207.009C95.1501,-207.943 128.769,-209.422 158,-211 163.781,-211.312 169.854,-211.662 175.861,-212.022"/>
<polygon fill="#9a32cd" stroke="#9a32cd" points="72.7307,-203.501 62.5945,-206.584 72.4411,-210.495 72.7307,-203.501"/>
<text text-anchor="middle" x="136" y="-215" font-family="Helvetica,sans-Serif" font-size="10.00"> elements</text>
</g>
<!-- Node18 -->
<g id="node34" class="node"><title>Node18</title>
<a xlink:href="classfwCom_1_1HasSignals.html" target="_top" xlink:title="This class proposes a mapping between a SignalKeyType and a SignalBase. ">
<polygon fill="white" stroke="black" points="870,-271.5 870,-292.5 974,-292.5 974,-271.5 870,-271.5"/>
<text text-anchor="middle" x="922" y="-279.5" font-family="Helvetica,sans-Serif" font-size="10.00">fwCom::HasSignals</text>
</a>
</g>
<!-- Node18&#45;&gt;Node5 -->
<g id="edge34" class="edge"><title>Node18&#45;&gt;Node5</title>
<path fill="none" stroke="midnightblue" d="M975.849,-269.056C1009.91,-260.587 1054.75,-248.917 1094,-237 1109.43,-232.315 1126.42,-226.482 1140.32,-221.528"/>
<polygon fill="midnightblue" stroke="midnightblue" points="974.963,-265.669 966.095,-271.467 976.642,-272.465 974.963,-265.669"/>
</g>
<!-- Node19 -->
<g id="node36" class="node"><title>Node19</title>
<a xlink:href="classfwCom_1_1Signals.html" target="_top" xlink:title="This class proposes a mapping between a SignalKeyType and a SignalBase. ">
<polygon fill="white" stroke="black" points="690,-275.5 690,-296.5 776,-296.5 776,-275.5 690,-275.5"/>
<text text-anchor="middle" x="733" y="-283.5" font-family="Helvetica,sans-Serif" font-size="10.00">fwCom::Signals</text>
</a>
</g>
<!-- Node19&#45;&gt;Node18 -->
<g id="edge36" class="edge"><title>Node19&#45;&gt;Node18</title>
<path fill="none" stroke="#9a32cd" stroke-dasharray="5,2" d="M786.454,-284.869C812.549,-284.316 843.828,-283.654 869.76,-283.106"/>
<polygon fill="#9a32cd" stroke="#9a32cd" points="786.284,-281.371 776.36,-285.082 786.432,-288.37 786.284,-281.371"/>
<text text-anchor="middle" x="828" y="-288" font-family="Helvetica,sans-Serif" font-size="10.00"> m_signals</text>
</g>
<!-- Node20&#45;&gt;Node19 -->
<g id="edge38" class="edge"><title>Node20&#45;&gt;Node19</title>
<path fill="none" stroke="#9a32cd" stroke-dasharray="5,2" d="M605.751,-287.167C634.826,-286.901 665.684,-286.618 689.73,-286.397"/>
<polygon fill="#9a32cd" stroke="#9a32cd" points="605.523,-283.669 595.556,-287.261 605.588,-290.669 605.523,-283.669"/>
<text text-anchor="middle" x="638" y="-291" font-family="Helvetica,sans-Serif" font-size="10.00"> m_signals</text>
</g>
<!-- Node21 -->
<g id="node42" class="node"><title>Node21</title>
<polygon fill="white" stroke="#bfbfbf" points="901.5,-35.5 901.5,-56.5 942.5,-56.5 942.5,-35.5 901.5,-35.5"/>
<text text-anchor="middle" x="922" y="-43.5" font-family="Helvetica,sans-Serif" font-size="10.00">static</text>
</g>
<!-- Node21&#45;&gt;Node1 -->
<g id="edge48" class="edge"><title>Node21&#45;&gt;Node1</title>
<path fill="none" stroke="#9a32cd" stroke-dasharray="5,2" d="M952.272,-36.6366C998.51,-23.187 1089.72,-7.10543e-15 1169,-0 1169,-0 1169,-0 1503,-0 1545.2,-7.10543e-15 1589.09,-24.5098 1614.95,-41.9348"/>
<polygon fill="#9a32cd" stroke="#9a32cd" points="951.172,-33.312 942.577,-39.5069 953.159,-40.024 951.172,-33.312"/>
<text text-anchor="start" x="1264" y="-82" font-family="Helvetica,sans-Serif" font-size="10.00"> s_SHOW_RECONSTRUCTIONS</text>
<text text-anchor="middle" x="1341" y="-69" font-family="Helvetica,sans-Serif" font-size="10.00">_SLOT</text>
<text text-anchor="start" x="1264" y="-56" font-family="Helvetica,sans-Serif" font-size="10.00">s_RECONSTRUCTION</text>
<text text-anchor="middle" x="1341" y="-43" font-family="Helvetica,sans-Serif" font-size="10.00">_SELECTED_SIG</text>
<text text-anchor="start" x="1264" y="-30" font-family="Helvetica,sans-Serif" font-size="10.00">s_REC_DISPLAY_MODIFIED</text>
<text text-anchor="middle" x="1341" y="-17" font-family="Helvetica,sans-Serif" font-size="10.00">__SIG</text>
<text text-anchor="middle" x="1341" y="-4" font-family="Helvetica,sans-Serif" font-size="10.00">s_EMPTIED_SELECTION_SIG</text>
</g>
<!-- Node21&#45;&gt;Node4 -->
<g id="edge46" class="edge"><title>Node21&#45;&gt;Node4</title>
<path fill="none" stroke="#9a32cd" stroke-dasharray="5,2" d="M952.885,-47.0524C987.448,-48.5685 1045.02,-52.1085 1094,-60 1170.24,-72.285 1257.67,-95.8121 1305.36,-109.471"/>
<polygon fill="#9a32cd" stroke="#9a32cd" points="952.647,-43.5398 942.512,-46.6283 952.361,-50.534 952.647,-43.5398"/>
<text text-anchor="middle" x="1169" y="-156" font-family="Helvetica,sans-Serif" font-size="10.00"> s_SET_VISIBLE_SLOT</text>
<text text-anchor="middle" x="1169" y="-143" font-family="Helvetica,sans-Serif" font-size="10.00">s_SHOW_SLOT</text>
<text text-anchor="middle" x="1169" y="-130" font-family="Helvetica,sans-Serif" font-size="10.00">s_SET_ENABLED_SLOT</text>
<text text-anchor="middle" x="1169" y="-117" font-family="Helvetica,sans-Serif" font-size="10.00">s_HIDE_SLOT</text>
<text text-anchor="middle" x="1169" y="-104" font-family="Helvetica,sans-Serif" font-size="10.00">s_ENABLE_SLOT</text>
<text text-anchor="middle" x="1169" y="-91" font-family="Helvetica,sans-Serif" font-size="10.00">s_DISABLE_SLOT</text>
</g>
<!-- Node21&#45;&gt;Node5 -->
<g id="edge44" class="edge"><title>Node21&#45;&gt;Node5</title>
<path fill="none" stroke="#9a32cd" stroke-dasharray="5,2" d="M952.688,-50.9483C1001.42,-58.862 1091.31,-73.7121 1094,-76 1112.62,-91.8509 1100.98,-106.168 1112,-128 1126.02,-155.776 1148.1,-185.053 1160.26,-200.315"/>
<polygon fill="#9a32cd" stroke="#9a32cd" points="953.107,-47.4708 942.676,-49.3261 951.988,-54.3806 953.107,-47.4708"/>
<text text-anchor="middle" x="1043" y="-184" font-family="Helvetica,sans-Serif" font-size="10.00"> s_STOPPED_SIG</text>
<text text-anchor="middle" x="1043" y="-171" font-family="Helvetica,sans-Serif" font-size="10.00">s_UPDATED_SIG</text>
<text text-anchor="middle" x="1043" y="-158" font-family="Helvetica,sans-Serif" font-size="10.00">s_UPDATE_SLOT</text>
<text text-anchor="middle" x="1043" y="-145" font-family="Helvetica,sans-Serif" font-size="10.00">s_STARTED_SIG</text>
<text text-anchor="middle" x="1043" y="-132" font-family="Helvetica,sans-Serif" font-size="10.00">s_SWAPKEY_SLOT</text>
<text text-anchor="middle" x="1043" y="-119" font-family="Helvetica,sans-Serif" font-size="10.00">s_SWAP_SLOT</text>
<text text-anchor="middle" x="1043" y="-106" font-family="Helvetica,sans-Serif" font-size="10.00">s_STOP_SLOT</text>
<text text-anchor="middle" x="1043" y="-93" font-family="Helvetica,sans-Serif" font-size="10.00">s_START_SLOT</text>
<text text-anchor="middle" x="1043" y="-80" font-family="Helvetica,sans-Serif" font-size="10.00">s_DEFAULT_OBJECT</text>
</g>
</g>
</svg>
