<?xml version="1.0" encoding="UTF-8" standalone="no"?>
<!DOCTYPE svg PUBLIC "-//W3C//DTD SVG 1.1//EN"
 "http://www.w3.org/Graphics/SVG/1.1/DTD/svg11.dtd">
<!-- Generated by graphviz version 2.26.3 (20100126.1600)
 -->
<!-- Title: fwGui::dialog::IMultiSelectorDialog Pages: 1 -->
<svg width="308pt" height="304pt"
 viewBox="0.00 0.00 308.00 304.00" xmlns="http://www.w3.org/2000/svg" xmlns:xlink="http://www.w3.org/1999/xlink">
<g id="graph1" class="graph" transform="scale(1 1) rotate(0) translate(4 300)">
<title>fwGui::dialog::IMultiSelectorDialog</title>
<polygon fill="white" stroke="white" points="-4,5 -4,-300 305,-300 305,5 -4,5"/>
<!-- Node1 -->
<g id="node1" class="node"><title>Node1</title>
<polygon fill="#bfbfbf" stroke="black" points="77,-73 77,-107 217,-107 217,-73 77,-73"/>
<text text-anchor="start" x="85" y="-94" font-family="Helvetica,sans-Serif" font-size="10.00">fwGui::dialog::IMultiSelector</text>
<text text-anchor="middle" x="147" y="-81" font-family="Helvetica,sans-Serif" font-size="10.00">Dialog</text>
</g>
<!-- Node5 -->
<g id="node9" class="node"><title>Node5</title>
<a xlink:href="classfwGui_1_1dialog_1_1MultiSelectorDialog.html" target="_top" xlink:title="MultiSelectorDialog allows the choice of some element among several (_selections) ...">
<polygon fill="white" stroke="black" points="-0.5,-1 -0.5,-35 136.5,-35 136.5,-1 -0.5,-1"/>
<text text-anchor="start" x="7.5" y="-22" font-family="Helvetica,sans-Serif" font-size="10.00">fwGui::dialog::MultiSelector</text>
<text text-anchor="middle" x="68" y="-9" font-family="Helvetica,sans-Serif" font-size="10.00">Dialog</text>
</a>
</g>
<!-- Node1&#45;&gt;Node5 -->
<g id="edge8" class="edge"><title>Node1&#45;&gt;Node5</title>
<path fill="none" stroke="midnightblue" d="M120.566,-65.9083C109.523,-55.8438 96.9446,-44.3799 86.8613,-35.19"/>
<polygon fill="midnightblue" stroke="midnightblue" points="118.53,-68.7878 128.278,-72.937 123.245,-63.6141 118.53,-68.7878"/>
</g>
<!-- Node6 -->
<g id="node11" class="node"><title>Node6</title>
<a xlink:href="classfwGuiQt_1_1dialog_1_1MultiSelectorDialog.html" target="_top" xlink:title="MultiSelectorDialog allowing the choice of an element among severals (_selections) ...">
<polygon fill="white" stroke="black" points="153.5,-1 153.5,-35 300.5,-35 300.5,-1 153.5,-1"/>
<text text-anchor="start" x="161.5" y="-22" font-family="Helvetica,sans-Serif" font-size="10.00">fwGuiQt::dialog::MultiSelector</text>
<text text-anchor="middle" x="227" y="-9" font-family="Helvetica,sans-Serif" font-size="10.00">Dialog</text>
</a>
</g>
<!-- Node1&#45;&gt;Node6 -->
<g id="edge10" class="edge"><title>Node1&#45;&gt;Node6</title>
<path fill="none" stroke="midnightblue" d="M173.443,-66.2011C184.704,-56.0666 197.59,-44.4691 207.9,-35.19"/>
<polygon fill="midnightblue" stroke="midnightblue" points="171.05,-63.6458 165.959,-72.937 175.733,-68.8489 171.05,-63.6458"/>
</g>
<!-- Node2 -->
<g id="node2" class="node"><title>Node2</title>
<a xlink:href="classfwGui_1_1GuiBaseObject.html" target="_top" xlink:title="Base class for all fwGui&#39;s classes. ">
<polygon fill="white" stroke="black" points="90,-144.5 90,-165.5 204,-165.5 204,-144.5 90,-144.5"/>
<text text-anchor="middle" x="147" y="-152.5" font-family="Helvetica,sans-Serif" font-size="10.00">fwGui::GuiBaseObject</text>
</a>
</g>
<!-- Node2&#45;&gt;Node1 -->
<g id="edge2" class="edge"><title>Node2&#45;&gt;Node1</title>
<path fill="none" stroke="midnightblue" d="M147,-134.131C147,-125.405 147,-115.391 147,-107.11"/>
<polygon fill="midnightblue" stroke="midnightblue" points="143.5,-134.267 147,-144.267 150.5,-134.267 143.5,-134.267"/>
</g>
<!-- Node3 -->
<g id="node4" class="node"><title>Node3</title>
<a xlink:href="classfwCore_1_1BaseObject.html" target="_top" xlink:title="Base class for all FW4SPL&#39;s classes. ">
<polygon fill="white" stroke="black" points="94.5,-202.5 94.5,-223.5 199.5,-223.5 199.5,-202.5 94.5,-202.5"/>
<text text-anchor="middle" x="147" y="-210.5" font-family="Helvetica,sans-Serif" font-size="10.00">fwCore::BaseObject</text>
</a>
</g>
<!-- Node3&#45;&gt;Node2 -->
<g id="edge4" class="edge"><title>Node3&#45;&gt;Node2</title>
<path fill="none" stroke="midnightblue" d="M147,-192.191C147,-183.168 147,-172.994 147,-165.571"/>
<polygon fill="midnightblue" stroke="midnightblue" points="143.5,-192.362 147,-202.362 150.5,-192.362 143.5,-192.362"/>
</g>
<!-- Node4 -->
<g id="node6" class="node"><title>Node4</title>
<polygon fill="white" stroke="#bfbfbf" points="81.5,-261 81.5,-295 212.5,-295 212.5,-261 81.5,-261"/>
<text text-anchor="start" x="89.5" y="-282" font-family="Helvetica,sans-Serif" font-size="10.00">std::enable_shared</text>
<text text-anchor="middle" x="147" y="-269" font-family="Helvetica,sans-Serif" font-size="10.00">_from_this&lt; BaseObject &gt;</text>
</g>
<!-- Node4&#45;&gt;Node3 -->
<g id="edge6" class="edge"><title>Node4&#45;&gt;Node3</title>
<path fill="none" stroke="midnightblue" d="M147,-250.688C147,-241.242 147,-231.195 147,-223.852"/>
<polygon fill="midnightblue" stroke="midnightblue" points="143.5,-250.922 147,-260.922 150.5,-250.922 143.5,-250.922"/>
</g>
</g>
</svg>
