<?xml version="1.0" encoding="UTF-8" standalone="no"?>
<!DOCTYPE svg PUBLIC "-//W3C//DTD SVG 1.1//EN"
 "http://www.w3.org/Graphics/SVG/1.1/DTD/svg11.dtd">
<!-- Generated by graphviz version 2.36.0 (20140111.2315)
 -->
<!-- Title: ioPacs::SSliceIndexDicomPullerEditor Pages: 1 -->
<svg width="1744pt" height="422pt"
 viewBox="0.00 0.00 1744.00 422.00" xmlns="http://www.w3.org/2000/svg" xmlns:xlink="http://www.w3.org/1999/xlink">
<g id="graph0" class="graph" transform="scale(1 1) rotate(0) translate(4 418)">
<title>ioPacs::SSliceIndexDicomPullerEditor</title>
<polygon fill="white" stroke="none" points="-4,4 -4,-418 1740,-418 1740,4 -4,4"/>
<!-- Node1 -->
<g id="node1" class="node"><title>Node1</title>
<polygon fill="#bfbfbf" stroke="black" points="1602,-326 1602,-356 1736,-356 1736,-326 1602,-326"/>
<text text-anchor="start" x="1610" y="-344" font-family="Helvetica,sans-Serif" font-size="10.00">ioPacs::SSliceIndexDicom</text>
<text text-anchor="middle" x="1669" y="-333" font-family="Helvetica,sans-Serif" font-size="10.00">PullerEditor</text>
</g>
<!-- Node2 -->
<g id="node2" class="node"><title>Node2</title>
<polygon fill="white" stroke="#bfbfbf" points="1483.5,-394.5 1483.5,-413.5 1536.5,-413.5 1536.5,-394.5 1483.5,-394.5"/>
<text text-anchor="middle" x="1510" y="-401.5" font-family="Helvetica,sans-Serif" font-size="10.00">QObject</text>
</g>
<!-- Node2&#45;&gt;Node1 -->
<g id="edge1" class="edge"><title>Node2&#45;&gt;Node1</title>
<path fill="none" stroke="midnightblue" d="M1546.33,-393.306C1558.39,-389.413 1571.88,-384.786 1584,-380 1602.09,-372.853 1621.85,-363.75 1637.65,-356.136"/>
<polygon fill="midnightblue" stroke="midnightblue" points="1545.07,-390.032 1536.6,-396.391 1547.19,-396.705 1545.07,-390.032"/>
</g>
<!-- Node3 -->
<g id="node3" class="node"><title>Node3</title>
<g id="a_node3"><a xlink:href="classfwGui_1_1editor_1_1IEditor.html" target="_top" xlink:title="Defines the service interface managing the editor service for object. ">
<polygon fill="white" stroke="black" points="1456.5,-254.5 1456.5,-273.5 1563.5,-273.5 1563.5,-254.5 1456.5,-254.5"/>
<text text-anchor="middle" x="1510" y="-261.5" font-family="Helvetica,sans-Serif" font-size="10.00">fwGui::editor::IEditor</text>
</a>
</g>
</g>
<!-- Node3&#45;&gt;Node1 -->
<g id="edge2" class="edge"><title>Node3&#45;&gt;Node1</title>
<path fill="none" stroke="midnightblue" d="M1539.72,-278.086C1567.38,-291.654 1609.09,-312.107 1637.38,-325.98"/>
<polygon fill="midnightblue" stroke="midnightblue" points="1541.09,-274.857 1530.57,-273.596 1538,-281.142 1541.09,-274.857"/>
</g>
<!-- Node4 -->
<g id="node4" class="node"><title>Node4</title>
<g id="a_node4"><a xlink:href="classfwGui_1_1IGuiContainerSrv.html" target="_top" xlink:title="Defines the service interface managing the layout. ">
<polygon fill="white" stroke="black" points="1285.5,-212.5 1285.5,-231.5 1408.5,-231.5 1408.5,-212.5 1285.5,-212.5"/>
<text text-anchor="middle" x="1347" y="-219.5" font-family="Helvetica,sans-Serif" font-size="10.00">fwGui::IGuiContainerSrv</text>
</a>
</g>
</g>
<!-- Node4&#45;&gt;Node3 -->
<g id="edge3" class="edge"><title>Node4&#45;&gt;Node3</title>
<path fill="none" stroke="midnightblue" d="M1394.44,-234.114C1419.2,-240.573 1449.23,-248.408 1472.33,-254.435"/>
<polygon fill="midnightblue" stroke="midnightblue" points="1395.09,-230.668 1384.53,-231.53 1393.33,-237.441 1395.09,-230.668"/>
</g>
<!-- Node5 -->
<g id="node5" class="node"><title>Node5</title>
<g id="a_node5"><a xlink:href="classfwServices_1_1IService.html" target="_top" xlink:title="Base class for all services. ">
<polygon fill="white" stroke="black" points="1127.5,-65.5 1127.5,-84.5 1234.5,-84.5 1234.5,-65.5 1127.5,-65.5"/>
<text text-anchor="middle" x="1181" y="-72.5" font-family="Helvetica,sans-Serif" font-size="10.00">fwServices::IService</text>
</a>
</g>
</g>
<!-- Node5&#45;&gt;Node4 -->
<g id="edge4" class="edge"><title>Node5&#45;&gt;Node4</title>
<path fill="none" stroke="midnightblue" d="M1200.63,-91.6973C1235,-122.502 1307.38,-187.382 1334.98,-212.127"/>
<polygon fill="midnightblue" stroke="midnightblue" points="1202.54,-88.7134 1192.76,-84.6451 1197.87,-93.926 1202.54,-88.7134"/>
</g>
<!-- Node6 -->
<g id="node6" class="node"><title>Node6</title>
<g id="a_node6"><a xlink:href="classfwTools_1_1Object.html" target="_top" xlink:title="Define Base class for FW4SPL objects and services. ">
<polygon fill="white" stroke="black" points="879,-54.5 879,-73.5 965,-73.5 965,-54.5 879,-54.5"/>
<text text-anchor="middle" x="922" y="-61.5" font-family="Helvetica,sans-Serif" font-size="10.00">fwTools::Object</text>
</a>
</g>
</g>
<!-- Node6&#45;&gt;Node5 -->
<g id="edge5" class="edge"><title>Node6&#45;&gt;Node5</title>
<path fill="none" stroke="midnightblue" d="M975.656,-61.9468C1012.27,-61.0217 1062.17,-60.7599 1106,-64 1112.87,-64.5075 1120.06,-65.2763 1127.15,-66.1765"/>
<polygon fill="midnightblue" stroke="midnightblue" points="975.121,-58.4603 965.222,-62.2374 975.316,-65.4576 975.121,-58.4603"/>
</g>
<!-- Node7 -->
<g id="node7" class="node"><title>Node7</title>
<g id="a_node7"><a xlink:href="classfwCore_1_1BaseObject.html" target="_top" xlink:title="Base class for all FW4SPL&#39;s classes. ">
<polygon fill="white" stroke="black" points="680.5,-76.5 680.5,-95.5 785.5,-95.5 785.5,-76.5 680.5,-76.5"/>
<text text-anchor="middle" x="733" y="-83.5" font-family="Helvetica,sans-Serif" font-size="10.00">fwCore::BaseObject</text>
</a>
</g>
</g>
<!-- Node7&#45;&gt;Node6 -->
<g id="edge6" class="edge"><title>Node7&#45;&gt;Node6</title>
<path fill="none" stroke="midnightblue" d="M795.794,-78.7301C822.986,-75.5311 854.236,-71.8546 878.714,-68.9749"/>
<polygon fill="midnightblue" stroke="midnightblue" points="795.116,-75.2856 785.594,-79.9302 795.934,-82.2377 795.116,-75.2856"/>
</g>
<!-- Node8 -->
<g id="node8" class="node"><title>Node8</title>
<polygon fill="white" stroke="#bfbfbf" points="449.5,-72 449.5,-102 580.5,-102 580.5,-72 449.5,-72"/>
<text text-anchor="start" x="457.5" y="-90" font-family="Helvetica,sans-Serif" font-size="10.00">std::enable_shared</text>
<text text-anchor="middle" x="515" y="-79" font-family="Helvetica,sans-Serif" font-size="10.00">_from_this&lt; BaseObject &gt;</text>
</g>
<!-- Node8&#45;&gt;Node7 -->
<g id="edge7" class="edge"><title>Node8&#45;&gt;Node7</title>
<path fill="none" stroke="midnightblue" d="M590.81,-86.6537C620.398,-86.5167 653.667,-86.3627 680.475,-86.2385"/>
<polygon fill="midnightblue" stroke="midnightblue" points="590.498,-83.155 580.515,-86.7013 590.531,-90.1549 590.498,-83.155"/>
</g>
<!-- Node9 -->
<g id="node9" class="node"><title>Node9</title>
<polygon fill="white" stroke="#bfbfbf" points="697.5,-38.5 697.5,-57.5 768.5,-57.5 768.5,-38.5 697.5,-38.5"/>
<text text-anchor="middle" x="733" y="-45.5" font-family="Helvetica,sans-Serif" font-size="10.00">noncopyable</text>
</g>
<!-- Node9&#45;&gt;Node6 -->
<g id="edge8" class="edge"><title>Node9&#45;&gt;Node6</title>
<path fill="none" stroke="midnightblue" d="M779.051,-51.8546C809.415,-54.4526 849.199,-57.8566 878.922,-60.3997"/>
<polygon fill="midnightblue" stroke="midnightblue" points="778.997,-48.3373 768.735,-50.972 778.4,-55.3118 778.997,-48.3373"/>
</g>
<!-- Node10 -->
<g id="node10" class="node"><title>Node10</title>
<g id="a_node10"><a xlink:href="classfwTools_1_1fwID.html" target="_top" xlink:title="Defines ID for fwTools::Object. It is used to associate ID with object. ">
<polygon fill="white" stroke="black" points="694,-114.5 694,-133.5 772,-133.5 772,-114.5 694,-114.5"/>
<text text-anchor="middle" x="733" y="-121.5" font-family="Helvetica,sans-Serif" font-size="10.00">fwTools::fwID</text>
</a>
</g>
</g>
<!-- Node10&#45;&gt;Node6 -->
<g id="edge9" class="edge"><title>Node10&#45;&gt;Node6</title>
<path fill="none" stroke="darkgreen" d="M777.843,-111.666C800.145,-105.223 827.622,-97.0238 852,-89 866.644,-84.18 882.86,-78.3313 895.89,-73.5032"/>
<polygon fill="darkgreen" stroke="darkgreen" points="776.635,-108.372 767.99,-114.496 778.568,-115.099 776.635,-108.372"/>
</g>
<!-- Node11 -->
<g id="node11" class="node"><title>Node11</title>
<g id="a_node11"><a xlink:href="classfwCom_1_1HasSlots.html" target="_top" xlink:title="This class proposes a mapping between a SlotKeyType and a SlotBase. ">
<polygon fill="white" stroke="black" points="874.5,-121.5 874.5,-140.5 969.5,-140.5 969.5,-121.5 874.5,-121.5"/>
<text text-anchor="middle" x="922" y="-128.5" font-family="Helvetica,sans-Serif" font-size="10.00">fwCom::HasSlots</text>
</a>
</g>
</g>
<!-- Node11&#45;&gt;Node5 -->
<g id="edge10" class="edge"><title>Node11&#45;&gt;Node5</title>
<path fill="none" stroke="midnightblue" d="M943.106,-115.23C956.243,-105.855 974.207,-94.7105 992,-89 1036.1,-74.8475 1088.88,-72.0629 1127.28,-72.4032"/>
<polygon fill="midnightblue" stroke="midnightblue" points="940.797,-112.585 934.844,-121.349 944.963,-118.21 940.797,-112.585"/>
</g>
<!-- Node12 -->
<g id="node12" class="node"><title>Node12</title>
<g id="a_node12"><a xlink:href="classfwCom_1_1Slots.html" target="_top" xlink:title="This class proposes a mapping between a SlotKeyType and a SlotBase. ">
<polygon fill="white" stroke="black" points="694.5,-152.5 694.5,-171.5 771.5,-171.5 771.5,-152.5 694.5,-152.5"/>
<text text-anchor="middle" x="733" y="-159.5" font-family="Helvetica,sans-Serif" font-size="10.00">fwCom::Slots</text>
</a>
</g>
</g>
<!-- Node12&#45;&gt;Node11 -->
<g id="edge11" class="edge"><title>Node12&#45;&gt;Node11</title>
<path fill="none" stroke="#9a32cd" stroke-dasharray="5,2" d="M781.933,-154.054C810.309,-149.35 846.096,-143.417 874.261,-138.748"/>
<polygon fill="#9a32cd" stroke="#9a32cd" points="781.135,-150.638 771.842,-155.727 782.28,-157.544 781.135,-150.638"/>
<text text-anchor="middle" x="828" y="-154" font-family="Helvetica,sans-Serif" font-size="10.00"> m_slots</text>
</g>
<!-- Node13 -->
<g id="node13" class="node"><title>Node13</title>
<polygon fill="white" stroke="#bfbfbf" points="439,-147 439,-177 591,-177 591,-147 439,-147"/>
<text text-anchor="start" x="447" y="-165" font-family="Helvetica,sans-Serif" font-size="10.00">std::map&lt; SlotKeyType,</text>
<text text-anchor="middle" x="515" y="-154" font-family="Helvetica,sans-Serif" font-size="10.00"> std::shared_ptr&lt; SlotBase &gt; &gt;</text>
</g>
<!-- Node13&#45;&gt;Node12 -->
<g id="edge12" class="edge"><title>Node13&#45;&gt;Node12</title>
<path fill="none" stroke="#9a32cd" stroke-dasharray="5,2" d="M601.573,-162C633.736,-162 668.676,-162 694.29,-162"/>
<polygon fill="#9a32cd" stroke="#9a32cd" points="601.243,-158.5 591.243,-162 601.243,-165.5 601.243,-158.5"/>
<text text-anchor="middle" x="638" y="-165" font-family="Helvetica,sans-Serif" font-size="10.00"> m_slots</text>
</g>
<!-- Node14 -->
<g id="node14" class="node"><title>Node14</title>
<g id="a_node14"><a xlink:title="STL class. ">
<polygon fill="white" stroke="#bfbfbf" points="192,-152.5 192,-171.5 252,-171.5 252,-152.5 192,-152.5"/>
<text text-anchor="middle" x="222" y="-159.5" font-family="Helvetica,sans-Serif" font-size="10.00">std::string</text>
</a>
</g>
</g>
<!-- Node14&#45;&gt;Node1 -->
<g id="edge25" class="edge"><title>Node14&#45;&gt;Node1</title>
<path fill="none" stroke="#9a32cd" stroke-dasharray="5,2" d="M235.541,-179.773C272.197,-229.427 384.765,-366 514,-366 514,-366 514,-366 1511,-366 1541.5,-366 1574.92,-361.342 1603.06,-356.048"/>
<polygon fill="#9a32cd" stroke="#9a32cd" points="238.295,-177.609 229.593,-171.566 232.627,-181.717 238.295,-177.609"/>
<text text-anchor="middle" x="1049" y="-402" font-family="Helvetica,sans-Serif" font-size="10.00"> m_pacsConfigurationUID</text>
<text text-anchor="middle" x="1049" y="-391" font-family="Helvetica,sans-Serif" font-size="10.00">m_compositeUID</text>
<text text-anchor="middle" x="1049" y="-380" font-family="Helvetica,sans-Serif" font-size="10.00">m_dicomReaderType</text>
<text text-anchor="middle" x="1049" y="-369" font-family="Helvetica,sans-Serif" font-size="10.00">m_imageKey</text>
</g>
<!-- Node14&#45;&gt;Node13 -->
<g id="edge13" class="edge"><title>Node14&#45;&gt;Node13</title>
<path fill="none" stroke="#9a32cd" stroke-dasharray="5,2" d="M262.485,-162C307.591,-162 382.428,-162 438.768,-162"/>
<polygon fill="#9a32cd" stroke="#9a32cd" points="262.235,-158.5 252.235,-162 262.235,-165.5 262.235,-158.5"/>
<text text-anchor="middle" x="351" y="-165" font-family="Helvetica,sans-Serif" font-size="10.00"> keys</text>
</g>
<!-- Node21 -->
<g id="node21" class="node"><title>Node21</title>
<polygon fill="white" stroke="#bfbfbf" points="434.5,-23 434.5,-53 595.5,-53 595.5,-23 434.5,-23"/>
<text text-anchor="start" x="442.5" y="-41" font-family="Helvetica,sans-Serif" font-size="10.00">std::map&lt; SignalKeyType,</text>
<text text-anchor="middle" x="515" y="-30" font-family="Helvetica,sans-Serif" font-size="10.00"> std::shared_ptr&lt; SignalBase &gt; &gt;</text>
</g>
<!-- Node14&#45;&gt;Node21 -->
<g id="edge21" class="edge"><title>Node14&#45;&gt;Node21</title>
<path fill="none" stroke="#9a32cd" stroke-dasharray="5,2" d="M261.758,-152.675C314.692,-139.65 404.393,-116.438 416,-106 431.71,-91.8716 418.354,-76.1994 434,-62 437.758,-58.5893 441.984,-55.6626 446.48,-53.1513"/>
<polygon fill="#9a32cd" stroke="#9a32cd" points="260.893,-149.283 252.012,-155.06 262.557,-156.082 260.893,-149.283"/>
<text text-anchor="middle" x="351" y="-150" font-family="Helvetica,sans-Serif" font-size="10.00"> keys</text>
</g>
<!-- Node15 -->
<g id="node15" class="node"><title>Node15</title>
<g id="a_node15"><a xlink:title="STL class. ">
<polygon fill="white" stroke="#bfbfbf" points="0.5,-147 0.5,-177 95.5,-177 95.5,-147 0.5,-147"/>
<text text-anchor="start" x="8.5" y="-165" font-family="Helvetica,sans-Serif" font-size="10.00">std::basic_string&lt;</text>
<text text-anchor="middle" x="48" y="-154" font-family="Helvetica,sans-Serif" font-size="10.00"> char &gt;</text>
</a>
</g>
</g>
<!-- Node15&#45;&gt;Node14 -->
<g id="edge14" class="edge"><title>Node15&#45;&gt;Node14</title>
<path fill="none" stroke="midnightblue" d="M105.913,-162C134.736,-162 168.5,-162 191.972,-162"/>
<polygon fill="midnightblue" stroke="midnightblue" points="105.546,-158.5 95.5457,-162 105.546,-165.5 105.546,-158.5"/>
</g>
<!-- Node16 -->
<g id="node16" class="node"><title>Node16</title>
<g id="a_node16"><a xlink:title="STL class. ">
<polygon fill="white" stroke="#bfbfbf" points="176,-50.5 176,-69.5 268,-69.5 268,-50.5 176,-50.5"/>
<text text-anchor="middle" x="222" y="-57.5" font-family="Helvetica,sans-Serif" font-size="10.00">std::map&lt; K, T &gt;</text>
</a>
</g>
</g>
<!-- Node16&#45;&gt;Node13 -->
<g id="edge15" class="edge"><title>Node16&#45;&gt;Node13</title>
<path fill="none" stroke="orange" stroke-dasharray="5,2" d="M278.168,-61.7947C326.903,-64.283 393.605,-70.1691 416,-84 428.271,-91.5783 423.698,-100.907 434,-111 448.707,-125.409 468.125,-137.906 484.147,-146.923"/>
<polygon fill="orange" stroke="orange" points="278.219,-58.2932 268.063,-61.3136 277.886,-65.2853 278.219,-58.2932"/>
<text text-anchor="start" x="291.5" y="-98" font-family="Helvetica,sans-Serif" font-size="10.00"> &lt; SlotKeyType, std</text>
<text text-anchor="middle" x="351" y="-87" font-family="Helvetica,sans-Serif" font-size="10.00">::shared_ptr&lt; SlotBase &gt; &gt;</text>
</g>
<!-- Node16&#45;&gt;Node21 -->
<g id="edge22" class="edge"><title>Node16&#45;&gt;Node21</title>
<path fill="none" stroke="orange" stroke-dasharray="5,2" d="M255.505,-46.9832C265.161,-43.7158 275.868,-40.667 286,-39 334.823,-30.9672 390.327,-30.5405 434.347,-32.2072"/>
<polygon fill="orange" stroke="orange" points="254.13,-43.7577 245.891,-50.4186 256.486,-50.3495 254.13,-43.7577"/>
<text text-anchor="start" x="286.5" y="-53" font-family="Helvetica,sans-Serif" font-size="10.00"> &lt; SignalKeyType, std</text>
<text text-anchor="middle" x="351" y="-42" font-family="Helvetica,sans-Serif" font-size="10.00">::shared_ptr&lt; SignalBase &gt; &gt;</text>
</g>
<!-- Node17 -->
<g id="node17" class="node"><title>Node17</title>
<polygon fill="white" stroke="#bfbfbf" points="33.5,-87.5 33.5,-106.5 62.5,-106.5 62.5,-87.5 33.5,-87.5"/>
<text text-anchor="middle" x="48" y="-94.5" font-family="Helvetica,sans-Serif" font-size="10.00">K</text>
</g>
<!-- Node17&#45;&gt;Node16 -->
<g id="edge16" class="edge"><title>Node17&#45;&gt;Node16</title>
<path fill="none" stroke="#9a32cd" stroke-dasharray="5,2" d="M72.631,-92.4751C94.7427,-88.1832 128.672,-81.4491 158,-75 165.687,-73.3097 173.88,-71.4223 181.728,-69.5719"/>
<polygon fill="#9a32cd" stroke="#9a32cd" points="71.9525,-89.0414 62.7974,-94.3739 73.2796,-95.9144 71.9525,-89.0414"/>
<text text-anchor="middle" x="136" y="-87" font-family="Helvetica,sans-Serif" font-size="10.00"> keys</text>
</g>
<!-- Node18 -->
<g id="node18" class="node"><title>Node18</title>
<polygon fill="white" stroke="#bfbfbf" points="33.5,-49.5 33.5,-68.5 62.5,-68.5 62.5,-49.5 33.5,-49.5"/>
<text text-anchor="middle" x="48" y="-56.5" font-family="Helvetica,sans-Serif" font-size="10.00">T</text>
</g>
<!-- Node18&#45;&gt;Node16 -->
<g id="edge17" class="edge"><title>Node18&#45;&gt;Node16</title>
<path fill="none" stroke="#9a32cd" stroke-dasharray="5,2" d="M73.0587,-59.1399C99.6143,-59.2943 142.955,-59.5463 175.879,-59.7377"/>
<polygon fill="#9a32cd" stroke="#9a32cd" points="72.8049,-55.6384 62.7847,-59.0801 72.7642,-62.6383 72.8049,-55.6384"/>
<text text-anchor="middle" x="136" y="-63" font-family="Helvetica,sans-Serif" font-size="10.00"> elements</text>
</g>
<!-- Node19 -->
<g id="node19" class="node"><title>Node19</title>
<g id="a_node19"><a xlink:href="classfwCom_1_1HasSignals.html" target="_top" xlink:title="This class proposes a mapping between a SignalKeyType and a SignalBase. ">
<polygon fill="white" stroke="black" points="870,-6.5 870,-25.5 974,-25.5 974,-6.5 870,-6.5"/>
<text text-anchor="middle" x="922" y="-13.5" font-family="Helvetica,sans-Serif" font-size="10.00">fwCom::HasSignals</text>
</a>
</g>
</g>
<!-- Node19&#45;&gt;Node5 -->
<g id="edge18" class="edge"><title>Node19&#45;&gt;Node5</title>
<path fill="none" stroke="midnightblue" d="M974.39,-27.7914C1011.07,-36.208 1061.57,-47.7978 1106,-58 1116.53,-60.419 1127.91,-63.0326 1138.51,-65.4678"/>
<polygon fill="midnightblue" stroke="midnightblue" points="974.958,-24.3307 964.428,-25.5055 973.392,-31.1534 974.958,-24.3307"/>
</g>
<!-- Node20 -->
<g id="node20" class="node"><title>Node20</title>
<g id="a_node20"><a xlink:href="classfwCom_1_1Signals.html" target="_top" xlink:title="This class proposes a mapping between a SignalKeyType and a SignalBase. ">
<polygon fill="white" stroke="black" points="690,-0.5 690,-19.5 776,-19.5 776,-0.5 690,-0.5"/>
<text text-anchor="middle" x="733" y="-7.5" font-family="Helvetica,sans-Serif" font-size="10.00">fwCom::Signals</text>
</a>
</g>
</g>
<!-- Node20&#45;&gt;Node19 -->
<g id="edge19" class="edge"><title>Node20&#45;&gt;Node19</title>
<path fill="none" stroke="#9a32cd" stroke-dasharray="5,2" d="M786.499,-11.6845C812.543,-12.5201 843.878,-13.5255 869.749,-14.3556"/>
<polygon fill="#9a32cd" stroke="#9a32cd" points="786.54,-8.18408 776.433,-11.3615 786.316,-15.1805 786.54,-8.18408"/>
<text text-anchor="middle" x="828" y="-17" font-family="Helvetica,sans-Serif" font-size="10.00"> m_signals</text>
</g>
<!-- Node21&#45;&gt;Node20 -->
<g id="edge20" class="edge"><title>Node21&#45;&gt;Node20</title>
<path fill="none" stroke="#9a32cd" stroke-dasharray="5,2" d="M605.74,-26.3671C634.917,-22.5848 665.926,-18.5652 689.911,-15.4559"/>
<polygon fill="#9a32cd" stroke="#9a32cd" points="604.977,-22.9365 595.51,-27.6931 605.877,-29.8785 604.977,-22.9365"/>
<text text-anchor="middle" x="638" y="-28" font-family="Helvetica,sans-Serif" font-size="10.00"> m_signals</text>
</g>
<!-- Node22 -->
<g id="node22" class="node"><title>Node22</title>
<polygon fill="white" stroke="#bfbfbf" points="901.5,-212.5 901.5,-231.5 942.5,-231.5 942.5,-212.5 901.5,-212.5"/>
<text text-anchor="middle" x="922" y="-219.5" font-family="Helvetica,sans-Serif" font-size="10.00">static</text>
</g>
<!-- Node22&#45;&gt;Node1 -->
<g id="edge26" class="edge"><title>Node22&#45;&gt;Node1</title>
<path fill="none" stroke="#9a32cd" stroke-dasharray="5,2" d="M946.429,-236.914C990.394,-263.426 1089.04,-316 1180,-316 1180,-316 1180,-316 1511,-316 1541.5,-316 1574.92,-320.658 1603.06,-325.952"/>
<polygon fill="#9a32cd" stroke="#9a32cd" points="948.013,-233.78 937.659,-231.531 944.35,-239.745 948.013,-233.78"/>
<text text-anchor="middle" x="1347" y="-330" font-family="Helvetica,sans-Serif" font-size="10.00"> s_DISPLAY_MESSAGE_SLOT</text>
<text text-anchor="middle" x="1347" y="-319" font-family="Helvetica,sans-Serif" font-size="10.00">s_READ_IMAGE_SLOT</text>
</g>
<!-- Node22&#45;&gt;Node4 -->
<g id="edge24" class="edge"><title>Node22&#45;&gt;Node4</title>
<path fill="none" stroke="#9a32cd" stroke-dasharray="5,2" d="M952.687,-222C1021.5,-222 1193.02,-222 1285.17,-222"/>
<polygon fill="#9a32cd" stroke="#9a32cd" points="952.554,-218.5 942.554,-222 952.554,-225.5 952.554,-218.5"/>
<text text-anchor="middle" x="1181" y="-280" font-family="Helvetica,sans-Serif" font-size="10.00"> s_SET_VISIBLE_SLOT</text>
<text text-anchor="middle" x="1181" y="-269" font-family="Helvetica,sans-Serif" font-size="10.00">s_SHOW_SLOT</text>
<text text-anchor="middle" x="1181" y="-258" font-family="Helvetica,sans-Serif" font-size="10.00">s_SET_ENABLED_SLOT</text>
<text text-anchor="middle" x="1181" y="-247" font-family="Helvetica,sans-Serif" font-size="10.00">s_HIDE_SLOT</text>
<text text-anchor="middle" x="1181" y="-236" font-family="Helvetica,sans-Serif" font-size="10.00">s_ENABLE_SLOT</text>
<text text-anchor="middle" x="1181" y="-225" font-family="Helvetica,sans-Serif" font-size="10.00">s_DISABLE_SLOT</text>
</g>
<!-- Node22&#45;&gt;Node5 -->
<g id="edge23" class="edge"><title>Node22&#45;&gt;Node5</title>
<path fill="none" stroke="#9a32cd" stroke-dasharray="5,2" d="M937.111,-204.252C947.997,-190.074 963.004,-169.43 974,-150 983.802,-132.68 976.377,-121.327 992,-109 997.354,-104.775 1073.45,-91.9412 1127.17,-83.3065"/>
<polygon fill="#9a32cd" stroke="#9a32cd" points="934.323,-202.135 930.938,-212.175 939.845,-206.437 934.323,-202.135"/>
<text text-anchor="middle" x="1049" y="-200" font-family="Helvetica,sans-Serif" font-size="10.00"> s_STOPPED_SIG</text>
<text text-anchor="middle" x="1049" y="-189" font-family="Helvetica,sans-Serif" font-size="10.00">s_UPDATED_SIG</text>
<text text-anchor="middle" x="1049" y="-178" font-family="Helvetica,sans-Serif" font-size="10.00">s_UPDATE_SLOT</text>
<text text-anchor="middle" x="1049" y="-167" font-family="Helvetica,sans-Serif" font-size="10.00">s_STARTED_SIG</text>
<text text-anchor="middle" x="1049" y="-156" font-family="Helvetica,sans-Serif" font-size="10.00">s_SWAPKEY_SLOT</text>
<text text-anchor="middle" x="1049" y="-145" font-family="Helvetica,sans-Serif" font-size="10.00">s_SWAP_SLOT</text>
<text text-anchor="middle" x="1049" y="-134" font-family="Helvetica,sans-Serif" font-size="10.00">s_STOP_SLOT</text>
<text text-anchor="middle" x="1049" y="-123" font-family="Helvetica,sans-Serif" font-size="10.00">s_START_SLOT</text>
<text text-anchor="middle" x="1049" y="-112" font-family="Helvetica,sans-Serif" font-size="10.00">s_DEFAULT_OBJECT</text>
</g>
</g>
</svg>
