<?xml version="1.0" encoding="UTF-8" standalone="no"?>
<!DOCTYPE svg PUBLIC "-//W3C//DTD SVG 1.1//EN"
 "http://www.w3.org/Graphics/SVG/1.1/DTD/svg11.dtd">
<!-- Generated by graphviz version 2.36.0 (20140111.2315)
 -->
<!-- Title: fwGdcmIO::helper::DicomSeries::complete Pages: 1 -->
<svg width="554pt" height="136pt"
 viewBox="0.00 0.00 554.00 136.00" xmlns="http://www.w3.org/2000/svg" xmlns:xlink="http://www.w3.org/1999/xlink">
<g id="graph0" class="graph" transform="scale(1 1) rotate(0) translate(4 132)">
<title>fwGdcmIO::helper::DicomSeries::complete</title>
<polygon fill="white" stroke="none" points="-4,4 -4,-132 550,-132 550,4 -4,4"/>
<!-- Node1 -->
<g id="node1" class="node"><title>Node1</title>
<polygon fill="#bfbfbf" stroke="black" points="0,-49 0,-79 158,-79 158,-49 0,-49"/>
<text text-anchor="start" x="8" y="-67" font-family="Helvetica,sans-Serif" font-size="10.00">fwGdcmIO::helper::DicomSeries</text>
<text text-anchor="middle" x="79" y="-56" font-family="Helvetica,sans-Serif" font-size="10.00">::complete</text>
</g>
<!-- Node2 -->
<g id="node2" class="node"><title>Node2</title>
<g id="a_node2"><a xlink:href="classfwGdcmIO_1_1helper_1_1DicomSeries.html#a89504e1495783d55c26866c5abf797aa" target="_top" xlink:title="Fill series with information contained in first instance. ">
<polygon fill="white" stroke="black" points="194,-49 194,-79 352,-79 352,-49 194,-49"/>
<text text-anchor="start" x="202" y="-67" font-family="Helvetica,sans-Serif" font-size="10.00">fwGdcmIO::helper::DicomSeries</text>
<text text-anchor="middle" x="273" y="-56" font-family="Helvetica,sans-Serif" font-size="10.00">::fillSeries</text>
</a>
</g>
</g>
<!-- Node1&#45;&gt;Node2 -->
<g id="edge1" class="edge"><title>Node1&#45;&gt;Node2</title>
<path fill="none" stroke="midnightblue" d="M158.094,-64C166.601,-64 175.302,-64 183.918,-64"/>
<polygon fill="midnightblue" stroke="midnightblue" points="183.975,-67.5001 193.975,-64 183.975,-60.5001 183.975,-67.5001"/>
</g>
<!-- Node3 -->
<g id="node3" class="node"><title>Node3</title>
<g id="a_node3"><a xlink:href="classfwGdcmIO_1_1helper_1_1DicomSeries.html#a09db32cc518170096a7a815b8466148c" target="_top" xlink:title="Create a patient from the dataset and store it in the patient map. ">
<polygon fill="white" stroke="black" points="388,-98 388,-128 546,-128 546,-98 388,-98"/>
<text text-anchor="start" x="396" y="-116" font-family="Helvetica,sans-Serif" font-size="10.00">fwGdcmIO::helper::DicomSeries</text>
<text text-anchor="middle" x="467" y="-105" font-family="Helvetica,sans-Serif" font-size="10.00">::createPatient</text>
</a>
</g>
</g>
<!-- Node2&#45;&gt;Node3 -->
<g id="edge2" class="edge"><title>Node2&#45;&gt;Node3</title>
<path fill="none" stroke="midnightblue" d="M332.911,-79.0346C353.276,-84.2318 376.272,-90.1006 397.349,-95.4796"/>
<polygon fill="midnightblue" stroke="midnightblue" points="396.645,-98.9122 407.2,-97.9938 398.376,-92.1296 396.645,-98.9122"/>
</g>
<!-- Node4 -->
<g id="node4" class="node"><title>Node4</title>
<g id="a_node4"><a xlink:href="classfwGdcmIO_1_1helper_1_1DicomSeries.html#ac6cae643f6bdc7b40e4d3b95654bd539" target="_top" xlink:title="Create a study from the dataset and store it in the study map. ">
<polygon fill="white" stroke="black" points="388,-49 388,-79 546,-79 546,-49 388,-49"/>
<text text-anchor="start" x="396" y="-67" font-family="Helvetica,sans-Serif" font-size="10.00">fwGdcmIO::helper::DicomSeries</text>
<text text-anchor="middle" x="467" y="-56" font-family="Helvetica,sans-Serif" font-size="10.00">::createStudy</text>
</a>
</g>
</g>
<!-- Node2&#45;&gt;Node4 -->
<g id="edge3" class="edge"><title>Node2&#45;&gt;Node4</title>
<path fill="none" stroke="midnightblue" d="M352.094,-64C360.601,-64 369.302,-64 377.918,-64"/>
<polygon fill="midnightblue" stroke="midnightblue" points="377.975,-67.5001 387.975,-64 377.975,-60.5001 377.975,-67.5001"/>
</g>
<!-- Node5 -->
<g id="node5" class="node"><title>Node5</title>
<g id="a_node5"><a xlink:href="classfwGdcmIO_1_1helper_1_1DicomSeries.html#a8434900193847fac10c876091b61077d" target="_top" xlink:title="Create an equipment from the dataset and store it in the equipment map. ">
<polygon fill="white" stroke="black" points="388,-0 388,-30 546,-30 546,-0 388,-0"/>
<text text-anchor="start" x="396" y="-18" font-family="Helvetica,sans-Serif" font-size="10.00">fwGdcmIO::helper::DicomSeries</text>
<text text-anchor="middle" x="467" y="-7" font-family="Helvetica,sans-Serif" font-size="10.00">::createEquipment</text>
</a>
</g>
</g>
<!-- Node2&#45;&gt;Node5 -->
<g id="edge4" class="edge"><title>Node2&#45;&gt;Node5</title>
<path fill="none" stroke="midnightblue" d="M332.911,-48.9654C353.276,-43.7682 376.272,-37.8994 397.349,-32.5204"/>
<polygon fill="midnightblue" stroke="midnightblue" points="398.376,-35.8704 407.2,-30.0062 396.645,-29.0878 398.376,-35.8704"/>
</g>
</g>
</svg>
