<?xml version="1.0" encoding="UTF-8" standalone="no"?>
<!DOCTYPE svg PUBLIC "-//W3C//DTD SVG 1.1//EN"
 "http://www.w3.org/Graphics/SVG/1.1/DTD/svg11.dtd">
<!-- Generated by graphviz version 2.26.3 (20100126.1600)
 -->
<!-- Title: filterVRRender::MedicalDataV1 Pages: 1 -->
<svg width="162pt" height="218pt"
 viewBox="0.00 0.00 162.00 218.00" xmlns="http://www.w3.org/2000/svg" xmlns:xlink="http://www.w3.org/1999/xlink">
<g id="graph1" class="graph" transform="scale(1 1) rotate(0) translate(4 214)">
<title>filterVRRender::MedicalDataV1</title>
<polygon fill="white" stroke="white" points="-4,5 -4,-214 159,-214 159,5 -4,5"/>
<!-- Node1 -->
<g id="node1" class="node"><title>Node1</title>
<polygon fill="#bfbfbf" stroke="black" points="0,-0.5 0,-21.5 154,-21.5 154,-0.5 0,-0.5"/>
<text text-anchor="middle" x="77" y="-8.5" font-family="Helvetica,sans-Serif" font-size="10.00">filterVRRender::MedicalDataV1</text>
</g>
<!-- Node2 -->
<g id="node2" class="node"><title>Node2</title>
<a xlink:href="classfwAtomsFilter_1_1IFilter.html" target="_top" xlink:title="Removes atom attributes which are not managed by a context. ">
<polygon fill="white" stroke="black" points="23,-58.5 23,-79.5 131,-79.5 131,-58.5 23,-58.5"/>
<text text-anchor="middle" x="77" y="-66.5" font-family="Helvetica,sans-Serif" font-size="10.00">fwAtomsFilter::IFilter</text>
</a>
</g>
<!-- Node2&#45;&gt;Node1 -->
<g id="edge2" class="edge"><title>Node2&#45;&gt;Node1</title>
<path fill="none" stroke="midnightblue" d="M77,-48.1906C77,-39.1684 77,-28.9941 77,-21.5707"/>
<polygon fill="midnightblue" stroke="midnightblue" points="73.5001,-48.3619 77,-58.3619 80.5001,-48.3619 73.5001,-48.3619"/>
</g>
<!-- Node3 -->
<g id="node4" class="node"><title>Node3</title>
<a xlink:href="classfwCore_1_1BaseObject.html" target="_top" xlink:title="Base class for all FW4SPL&#39;s classes. ">
<polygon fill="white" stroke="black" points="24.5,-116.5 24.5,-137.5 129.5,-137.5 129.5,-116.5 24.5,-116.5"/>
<text text-anchor="middle" x="77" y="-124.5" font-family="Helvetica,sans-Serif" font-size="10.00">fwCore::BaseObject</text>
</a>
</g>
<!-- Node3&#45;&gt;Node2 -->
<g id="edge4" class="edge"><title>Node3&#45;&gt;Node2</title>
<path fill="none" stroke="midnightblue" d="M77,-106.191C77,-97.1684 77,-86.9941 77,-79.5707"/>
<polygon fill="midnightblue" stroke="midnightblue" points="73.5001,-106.362 77,-116.362 80.5001,-106.362 73.5001,-106.362"/>
</g>
<!-- Node4 -->
<g id="node6" class="node"><title>Node4</title>
<polygon fill="white" stroke="#bfbfbf" points="11.5,-175 11.5,-209 142.5,-209 142.5,-175 11.5,-175"/>
<text text-anchor="start" x="19.5" y="-196" font-family="Helvetica,sans-Serif" font-size="10.00">std::enable_shared</text>
<text text-anchor="middle" x="77" y="-183" font-family="Helvetica,sans-Serif" font-size="10.00">_from_this&lt; BaseObject &gt;</text>
</g>
<!-- Node4&#45;&gt;Node3 -->
<g id="edge6" class="edge"><title>Node4&#45;&gt;Node3</title>
<path fill="none" stroke="midnightblue" d="M77,-164.688C77,-155.242 77,-145.195 77,-137.852"/>
<polygon fill="midnightblue" stroke="midnightblue" points="73.5001,-164.922 77,-174.922 80.5001,-164.922 73.5001,-164.922"/>
</g>
</g>
</svg>
