<?xml version="1.0" encoding="UTF-8" standalone="no"?>
<!DOCTYPE svg PUBLIC "-//W3C//DTD SVG 1.1//EN"
 "http://www.w3.org/Graphics/SVG/1.1/DTD/svg11.dtd">
<!-- Generated by graphviz version 2.26.3 (20100126.1600)
 -->
<!-- Title: fwMDSemanticPatch::V2::V03AGO::fwData::Image::apply Pages: 1 -->
<svg width="438pt" height="94pt"
 viewBox="0.00 0.00 438.00 94.00" xmlns="http://www.w3.org/2000/svg" xmlns:xlink="http://www.w3.org/1999/xlink">
<g id="graph1" class="graph" transform="scale(1 1) rotate(0) translate(4 90)">
<title>fwMDSemanticPatch::V2::V03AGO::fwData::Image::apply</title>
<polygon fill="white" stroke="white" points="-4,5 -4,-90 435,-90 435,5 -4,5"/>
<!-- Node1 -->
<g id="node1" class="node"><title>Node1</title>
<polygon fill="#bfbfbf" stroke="black" points="0.5,-19.5 0.5,-66.5 117.5,-66.5 117.5,-19.5 0.5,-19.5"/>
<text text-anchor="start" x="8.5" y="-53.5" font-family="Helvetica,sans-Serif" font-size="10.00">fwMDSemanticPatch::</text>
<text text-anchor="start" x="8.5" y="-40.5" font-family="Helvetica,sans-Serif" font-size="10.00">V2::V03AGO::fwData::</text>
<text text-anchor="middle" x="59" y="-27.5" font-family="Helvetica,sans-Serif" font-size="10.00">Image::apply</text>
</g>
<!-- Node2 -->
<g id="node3" class="node"><title>Node2</title>
<a xlink:href="classfwAtomsPatch_1_1helper_1_1Object.html#aa5596a46cf7f0d2f5170f86a8fa6a27a" target="_top" xlink:title="Replaces an attribute. ">
<polygon fill="white" stroke="black" points="154.5,-26 154.5,-60 279.5,-60 279.5,-26 154.5,-26"/>
<text text-anchor="start" x="162.5" y="-47" font-family="Helvetica,sans-Serif" font-size="10.00">fwAtomsPatch::helper</text>
<text text-anchor="middle" x="217" y="-34" font-family="Helvetica,sans-Serif" font-size="10.00">::Object::replaceAttribute</text>
</a>
</g>
<!-- Node1&#45;&gt;Node2 -->
<g id="edge2" class="edge"><title>Node1&#45;&gt;Node2</title>
<path fill="none" stroke="midnightblue" d="M117.833,-43C126.41,-43 135.326,-43 144.14,-43"/>
<polygon fill="midnightblue" stroke="midnightblue" points="144.412,-46.5001 154.412,-43 144.412,-39.5001 144.412,-46.5001"/>
</g>
<!-- Node3 -->
<g id="node5" class="node"><title>Node3</title>
<a xlink:href="namespacefwAtomsPatch_1_1helper.html#a49db7036b323f4c23effd6ca3e020996" target="_top" xlink:title="Get classname of an object. ">
<polygon fill="white" stroke="black" points="316.5,-52 316.5,-86 429.5,-86 429.5,-52 316.5,-52"/>
<text text-anchor="start" x="324.5" y="-73" font-family="Helvetica,sans-Serif" font-size="10.00">fwAtomsPatch::helper</text>
<text text-anchor="middle" x="373" y="-60" font-family="Helvetica,sans-Serif" font-size="10.00">::getClassname</text>
</a>
</g>
<!-- Node2&#45;&gt;Node3 -->
<g id="edge4" class="edge"><title>Node2&#45;&gt;Node3</title>
<path fill="none" stroke="midnightblue" d="M279.552,-53.4254C288.421,-54.9035 297.567,-56.4279 306.507,-57.9179"/>
<polygon fill="midnightblue" stroke="midnightblue" points="306.048,-61.3895 316.487,-59.5812 307.199,-54.4848 306.048,-61.3895"/>
</g>
<!-- Node4 -->
<g id="node7" class="node"><title>Node4</title>
<a xlink:href="namespacefwAtomsPatch_1_1helper.html#a87463944cf2233827a11abde6cad8635" target="_top" xlink:title="Get version of an object. ">
<polygon fill="white" stroke="black" points="316.5,-0 316.5,-34 429.5,-34 429.5,-0 316.5,-0"/>
<text text-anchor="start" x="324.5" y="-21" font-family="Helvetica,sans-Serif" font-size="10.00">fwAtomsPatch::helper</text>
<text text-anchor="middle" x="373" y="-8" font-family="Helvetica,sans-Serif" font-size="10.00">::getVersion</text>
</a>
</g>
<!-- Node2&#45;&gt;Node4 -->
<g id="edge6" class="edge"><title>Node2&#45;&gt;Node4</title>
<path fill="none" stroke="midnightblue" d="M279.552,-32.5746C288.421,-31.0965 297.567,-29.5721 306.507,-28.0821"/>
<polygon fill="midnightblue" stroke="midnightblue" points="307.199,-31.5152 316.487,-26.4188 306.048,-24.6105 307.199,-31.5152"/>
</g>
</g>
</svg>
