<?xml version="1.0" encoding="UTF-8" standalone="no"?>
<!DOCTYPE svg PUBLIC "-//W3C//DTD SVG 1.1//EN"
 "http://www.w3.org/Graphics/SVG/1.1/DTD/svg11.dtd">
<!-- Generated by graphviz version 2.26.3 (20100126.1600)
 -->
<!-- Title: uiReconstruction::OrganMaterialEditor::updating Pages: 1 -->
<svg width="360pt" height="94pt"
 viewBox="0.00 0.00 360.00 94.00" xmlns="http://www.w3.org/2000/svg" xmlns:xlink="http://www.w3.org/1999/xlink">
<g id="graph1" class="graph" transform="scale(1 1) rotate(0) translate(4 90)">
<title>uiReconstruction::OrganMaterialEditor::updating</title>
<polygon fill="white" stroke="white" points="-4,5 -4,-90 357,-90 357,5 -4,5"/>
<!-- Node1 -->
<g id="node1" class="node"><title>Node1</title>
<polygon fill="#bfbfbf" stroke="black" points="0.5,-26 0.5,-60 157.5,-60 157.5,-26 0.5,-26"/>
<text text-anchor="start" x="8.5" y="-47" font-family="Helvetica,sans-Serif" font-size="10.00">uiReconstruction::OrganMaterial</text>
<text text-anchor="middle" x="79" y="-34" font-family="Helvetica,sans-Serif" font-size="10.00">Editor::updating</text>
</g>
<!-- Node2 -->
<g id="node3" class="node"><title>Node2</title>
<a xlink:href="classuiReconstruction_1_1OrganMaterialEditor.html#aec2377f6f68204beafecc1335b62115e" target="_top" xlink:title="This method launches the IEditor::starting method. ">
<polygon fill="white" stroke="black" points="194.5,-52 194.5,-86 351.5,-86 351.5,-52 194.5,-52"/>
<text text-anchor="start" x="202.5" y="-73" font-family="Helvetica,sans-Serif" font-size="10.00">uiReconstruction::OrganMaterial</text>
<text text-anchor="middle" x="273" y="-60" font-family="Helvetica,sans-Serif" font-size="10.00">Editor::starting</text>
</a>
</g>
<!-- Node1&#45;&gt;Node2 -->
<g id="edge2" class="edge"><title>Node1&#45;&gt;Node2</title>
<path fill="none" stroke="midnightblue" d="M167.608,-54.8753C176.498,-56.0668 185.483,-57.2709 194.26,-58.4473"/>
<polygon fill="midnightblue" stroke="midnightblue" points="168.004,-51.3971 157.628,-53.5377 167.074,-58.3351 168.004,-51.3971"/>
</g>
<!-- Node3 -->
<g id="node5" class="node"><title>Node3</title>
<a xlink:href="classuiReconstruction_1_1OrganMaterialEditor.html#a28d8ca26fc38f00536a3152efc774d50" target="_top" xlink:title="Swap the service from associated object to another object. ">
<polygon fill="white" stroke="black" points="194.5,-0 194.5,-34 351.5,-34 351.5,-0 194.5,-0"/>
<text text-anchor="start" x="202.5" y="-21" font-family="Helvetica,sans-Serif" font-size="10.00">uiReconstruction::OrganMaterial</text>
<text text-anchor="middle" x="273" y="-8" font-family="Helvetica,sans-Serif" font-size="10.00">Editor::swapping</text>
</a>
</g>
<!-- Node1&#45;&gt;Node3 -->
<g id="edge4" class="edge"><title>Node1&#45;&gt;Node3</title>
<path fill="none" stroke="midnightblue" d="M167.608,-31.1247C176.498,-29.9332 185.483,-28.7291 194.26,-27.5527"/>
<polygon fill="midnightblue" stroke="midnightblue" points="167.074,-27.6649 157.628,-32.4623 168.004,-34.6029 167.074,-27.6649"/>
</g>
</g>
</svg>
