<?xml version="1.0" encoding="UTF-8" standalone="no"?>
<!DOCTYPE svg PUBLIC "-//W3C//DTD SVG 1.1//EN"
 "http://www.w3.org/Graphics/SVG/1.1/DTD/svg11.dtd">
<!-- Generated by graphviz version 2.36.0 (20140111.2315)
 -->
<!-- Title: vtkSimpleNegato::SRenderer::starting Pages: 1 -->
<svg width="660pt" height="48pt"
 viewBox="0.00 0.00 660.00 48.00" xmlns="http://www.w3.org/2000/svg" xmlns:xlink="http://www.w3.org/1999/xlink">
<g id="graph0" class="graph" transform="scale(1 1) rotate(0) translate(4 44)">
<title>vtkSimpleNegato::SRenderer::starting</title>
<polygon fill="white" stroke="none" points="-4,4 -4,-44 656,-44 656,4 -4,4"/>
<!-- Node1 -->
<g id="node1" class="node"><title>Node1</title>
<polygon fill="#bfbfbf" stroke="black" points="0,-5 0,-35 144,-35 144,-5 0,-5"/>
<text text-anchor="start" x="8" y="-23" font-family="Helvetica,sans-Serif" font-size="10.00">vtkSimpleNegato::SRenderer</text>
<text text-anchor="middle" x="72" y="-12" font-family="Helvetica,sans-Serif" font-size="10.00">::starting</text>
</g>
<!-- Node2 -->
<g id="node2" class="node"><title>Node2</title>
<g id="a_node2"><a xlink:href="classfwGui_1_1IGuiContainerSrv.html#ad196e4e9f0f17f9d49454df0cb3536f4" target="_top" xlink:title="Creates view, sub&#45;views and toolbar containers. Manages sub&#45;views and toobar services. ">
<polygon fill="white" stroke="black" points="180.5,-5 180.5,-35 303.5,-35 303.5,-5 180.5,-5"/>
<text text-anchor="start" x="188.5" y="-23" font-family="Helvetica,sans-Serif" font-size="10.00">fwGui::IGuiContainerSrv</text>
<text text-anchor="middle" x="242" y="-12" font-family="Helvetica,sans-Serif" font-size="10.00">::create</text>
</a>
</g>
</g>
<!-- Node1&#45;&gt;Node2 -->
<g id="edge1" class="edge"><title>Node1&#45;&gt;Node2</title>
<path fill="none" stroke="midnightblue" d="M144.247,-20C152.767,-20 161.466,-20 169.982,-20"/>
<polygon fill="midnightblue" stroke="midnightblue" points="170.255,-23.5001 180.255,-20 170.255,-16.5001 170.255,-23.5001"/>
</g>
<!-- Node3 -->
<g id="node3" class="node"><title>Node3</title>
<g id="a_node3"><a xlink:href="classfwServices_1_1registry_1_1ActiveWorkers.html#aae9d40e1fe222f0d14ac8284d3abf83c" target="_top" xlink:title="Get the default registered worker. ">
<polygon fill="white" stroke="black" points="340,0.5 340,-40.5 478,-40.5 478,0.5 340,0.5"/>
<text text-anchor="start" x="348" y="-28.5" font-family="Helvetica,sans-Serif" font-size="10.00">fwServices::registry</text>
<text text-anchor="start" x="348" y="-17.5" font-family="Helvetica,sans-Serif" font-size="10.00">::ActiveWorkers::getDefault</text>
<text text-anchor="middle" x="409" y="-6.5" font-family="Helvetica,sans-Serif" font-size="10.00">Worker</text>
</a>
</g>
</g>
<!-- Node2&#45;&gt;Node3 -->
<g id="edge2" class="edge"><title>Node2&#45;&gt;Node3</title>
<path fill="none" stroke="midnightblue" d="M303.503,-20C312.031,-20 320.897,-20 329.699,-20"/>
<polygon fill="midnightblue" stroke="midnightblue" points="329.978,-23.5001 339.978,-20 329.978,-16.5001 329.978,-23.5001"/>
</g>
<!-- Node4 -->
<g id="node4" class="node"><title>Node4</title>
<g id="a_node4"><a xlink:href="classfwServices_1_1registry_1_1ActiveWorkers.html#a96003a042657996f7297f459e927ae16" target="_top" xlink:title="Returns an instance of ActiveWorkers. ">
<polygon fill="white" stroke="black" points="514,-5 514,-35 652,-35 652,-5 514,-5"/>
<text text-anchor="start" x="522" y="-23" font-family="Helvetica,sans-Serif" font-size="10.00">fwServices::registry</text>
<text text-anchor="middle" x="583" y="-12" font-family="Helvetica,sans-Serif" font-size="10.00">::ActiveWorkers::getDefault</text>
</a>
</g>
</g>
<!-- Node3&#45;&gt;Node4 -->
<g id="edge3" class="edge"><title>Node3&#45;&gt;Node4</title>
<path fill="none" stroke="midnightblue" d="M478.473,-20C486.732,-20 495.216,-20 503.602,-20"/>
<polygon fill="midnightblue" stroke="midnightblue" points="503.762,-23.5001 513.762,-20 503.762,-16.5001 503.762,-23.5001"/>
</g>
</g>
</svg>
