<?xml version="1.0" encoding="UTF-8" standalone="no"?>
<!DOCTYPE svg PUBLIC "-//W3C//DTD SVG 1.1//EN"
 "http://www.w3.org/Graphics/SVG/1.1/DTD/svg11.dtd">
<!-- Generated by graphviz version 2.26.3 (20100126.1600)
 -->
<!-- Title: fwGdcmIO::writer::Series Pages: 1 -->
<svg width="1140pt" height="204pt"
 viewBox="0.00 0.00 1140.00 204.00" xmlns="http://www.w3.org/2000/svg" xmlns:xlink="http://www.w3.org/1999/xlink">
<g id="graph1" class="graph" transform="scale(1 1) rotate(0) translate(4 200)">
<title>fwGdcmIO::writer::Series</title>
<polygon fill="white" stroke="white" points="-4,5 -4,-200 1137,-200 1137,5 -4,5"/>
<!-- Node1 -->
<g id="node1" class="node"><title>Node1</title>
<polygon fill="#bfbfbf" stroke="black" points="1004,-53.5 1004,-74.5 1132,-74.5 1132,-53.5 1004,-53.5"/>
<text text-anchor="middle" x="1068" y="-61.5" font-family="Helvetica,sans-Serif" font-size="10.00">fwGdcmIO::writer::Series</text>
</g>
<!-- Node2 -->
<g id="node2" class="node"><title>Node2</title>
<a xlink:href="classfwDataIO_1_1writer_1_1GenericObjectWriter.html" target="_top" xlink:title="fwDataIO::writer::Generic\lObjectWriter\&lt; ::fwMedData\l::Series \&gt;">
<polygon fill="white" stroke="black" points="828.5,-106.5 828.5,-153.5 965.5,-153.5 965.5,-106.5 828.5,-106.5"/>
<text text-anchor="start" x="836.5" y="-140.5" font-family="Helvetica,sans-Serif" font-size="10.00">fwDataIO::writer::Generic</text>
<text text-anchor="start" x="836.5" y="-127.5" font-family="Helvetica,sans-Serif" font-size="10.00">ObjectWriter&lt; ::fwMedData</text>
<text text-anchor="middle" x="897" y="-114.5" font-family="Helvetica,sans-Serif" font-size="10.00">::Series &gt;</text>
</a>
</g>
<!-- Node2&#45;&gt;Node1 -->
<g id="edge2" class="edge"><title>Node2&#45;&gt;Node1</title>
<path fill="none" stroke="midnightblue" d="M967.616,-102.745C993.31,-92.8277 1020.85,-82.1968 1040.58,-74.584"/>
<polygon fill="midnightblue" stroke="midnightblue" points="966.321,-99.4929 958.252,-106.359 968.841,-106.023 966.321,-99.4929"/>
</g>
<!-- Node3 -->
<g id="node4" class="node"><title>Node3</title>
<a xlink:href="classfwDataIO_1_1writer_1_1IObjectWriter.html" target="_top" xlink:title="Base class for all object writers. ">
<polygon fill="white" stroke="black" points="372,-133 372,-167 498,-167 498,-133 372,-133"/>
<text text-anchor="start" x="380" y="-154" font-family="Helvetica,sans-Serif" font-size="10.00">fwDataIO::writer::IObject</text>
<text text-anchor="middle" x="435" y="-141" font-family="Helvetica,sans-Serif" font-size="10.00">Writer</text>
</a>
</g>
<!-- Node3&#45;&gt;Node2 -->
<g id="edge4" class="edge"><title>Node3&#45;&gt;Node2</title>
<path fill="none" stroke="midnightblue" d="M508.598,-152.417C584.36,-154.063 705.727,-154.357 810,-144 815.937,-143.41 822.085,-142.675 828.24,-141.853"/>
<polygon fill="midnightblue" stroke="midnightblue" points="508.295,-148.909 498.216,-152.177 508.133,-155.907 508.295,-148.909"/>
</g>
<!-- Node8 -->
<g id="node14" class="node"><title>Node8</title>
<a xlink:href="classfwDataIO_1_1writer_1_1GenericObjectWriter.html" target="_top" xlink:title="generic class for all object writers. ">
<polygon fill="white" stroke="black" points="536.5,-106 536.5,-140 679.5,-140 679.5,-106 536.5,-106"/>
<text text-anchor="start" x="544.5" y="-127" font-family="Helvetica,sans-Serif" font-size="10.00">fwDataIO::writer::Generic</text>
<text text-anchor="middle" x="608" y="-114" font-family="Helvetica,sans-Serif" font-size="10.00">ObjectWriter&lt; DATATYPE &gt;</text>
</a>
</g>
<!-- Node3&#45;&gt;Node8 -->
<g id="edge16" class="edge"><title>Node3&#45;&gt;Node8</title>
<path fill="none" stroke="midnightblue" d="M508.395,-138.545C517.666,-137.098 527.143,-135.619 536.385,-134.177"/>
<polygon fill="midnightblue" stroke="midnightblue" points="507.777,-135.099 498.436,-140.1 508.857,-142.016 507.777,-135.099"/>
</g>
<!-- Node4 -->
<g id="node6" class="node"><title>Node4</title>
<a xlink:href="classfwCore_1_1BaseObject.html" target="_top" xlink:title="Base class for all FW4SPL&#39;s classes. ">
<polygon fill="white" stroke="black" points="170.5,-167.5 170.5,-188.5 275.5,-188.5 275.5,-167.5 170.5,-167.5"/>
<text text-anchor="middle" x="223" y="-175.5" font-family="Helvetica,sans-Serif" font-size="10.00">fwCore::BaseObject</text>
</a>
</g>
<!-- Node4&#45;&gt;Node3 -->
<g id="edge6" class="edge"><title>Node4&#45;&gt;Node3</title>
<path fill="none" stroke="midnightblue" d="M285.813,-169.704C312.89,-166.128 344.502,-161.953 371.639,-158.368"/>
<polygon fill="midnightblue" stroke="midnightblue" points="285.132,-166.263 275.677,-171.043 286.049,-173.203 285.132,-166.263"/>
</g>
<!-- Node5 -->
<g id="node8" class="node"><title>Node5</title>
<polygon fill="white" stroke="#bfbfbf" points="0.5,-162 0.5,-196 131.5,-196 131.5,-162 0.5,-162"/>
<text text-anchor="start" x="8.5" y="-183" font-family="Helvetica,sans-Serif" font-size="10.00">std::enable_shared</text>
<text text-anchor="middle" x="66" y="-170" font-family="Helvetica,sans-Serif" font-size="10.00">_from_this&lt; BaseObject &gt;</text>
</g>
<!-- Node5&#45;&gt;Node4 -->
<g id="edge8" class="edge"><title>Node5&#45;&gt;Node4</title>
<path fill="none" stroke="midnightblue" d="M141.751,-178.518C151.466,-178.456 161.238,-178.393 170.469,-178.335"/>
<polygon fill="midnightblue" stroke="midnightblue" points="141.65,-175.018 131.672,-178.582 141.695,-182.018 141.65,-175.018"/>
</g>
<!-- Node6 -->
<g id="node10" class="node"><title>Node6</title>
<a xlink:title="STL class. ">
<polygon fill="white" stroke="#bfbfbf" points="193,-119.5 193,-140.5 253,-140.5 253,-119.5 193,-119.5"/>
<text text-anchor="middle" x="223" y="-127.5" font-family="Helvetica,sans-Serif" font-size="10.00">std::string</text>
</a>
</g>
<!-- Node6&#45;&gt;Node3 -->
<g id="edge10" class="edge"><title>Node6&#45;&gt;Node3</title>
<path fill="none" stroke="#9a32cd" stroke-dasharray="5,2" d="M263.68,-133.838C294.314,-136.728 336.875,-140.743 371.911,-144.048"/>
<polygon fill="#9a32cd" stroke="#9a32cd" points="263.659,-130.32 253.374,-132.866 263.001,-137.289 263.659,-130.32"/>
<text text-anchor="middle" x="324" y="-145" font-family="Helvetica,sans-Serif" font-size="10.00"> m_extension</text>
</g>
<!-- Node7 -->
<g id="node12" class="node"><title>Node7</title>
<a xlink:title="STL class. ">
<polygon fill="white" stroke="#bfbfbf" points="18.5,-110 18.5,-144 113.5,-144 113.5,-110 18.5,-110"/>
<text text-anchor="start" x="26.5" y="-131" font-family="Helvetica,sans-Serif" font-size="10.00">std::basic_string&lt;</text>
<text text-anchor="middle" x="66" y="-118" font-family="Helvetica,sans-Serif" font-size="10.00"> char &gt;</text>
</a>
</g>
<!-- Node7&#45;&gt;Node6 -->
<g id="edge12" class="edge"><title>Node7&#45;&gt;Node6</title>
<path fill="none" stroke="midnightblue" d="M123.749,-128.103C147.226,-128.552 173.37,-129.052 192.931,-129.425"/>
<polygon fill="midnightblue" stroke="midnightblue" points="123.596,-124.6 113.531,-127.908 123.463,-131.599 123.596,-124.6"/>
</g>
<!-- Node8&#45;&gt;Node2 -->
<g id="edge14" class="edge"><title>Node8&#45;&gt;Node2</title>
<path fill="none" stroke="orange" stroke-dasharray="5,2" d="M689.823,-124.982C733.453,-126.039 786.539,-127.324 828.051,-128.33"/>
<polygon fill="orange" stroke="orange" points="689.891,-121.483 679.81,-124.739 689.722,-128.481 689.891,-121.483"/>
<text text-anchor="middle" x="754" y="-131" font-family="Helvetica,sans-Serif" font-size="10.00"> &lt; ::fwMedData::Series &gt;</text>
</g>
<!-- Node9 -->
<g id="node17" class="node"><title>Node9</title>
<a xlink:href="structfwData_1_1location_1_1enableFolder.html" target="_top" xlink:title="fwData::location::enable\lFolder\&lt; ::fwDataIO::writer\l::IObjectWriter \&gt;">
<polygon fill="white" stroke="black" points="831.5,-40.5 831.5,-87.5 962.5,-87.5 962.5,-40.5 831.5,-40.5"/>
<text text-anchor="start" x="839.5" y="-74.5" font-family="Helvetica,sans-Serif" font-size="10.00">fwData::location::enable</text>
<text text-anchor="start" x="839.5" y="-61.5" font-family="Helvetica,sans-Serif" font-size="10.00">Folder&lt; ::fwDataIO::writer</text>
<text text-anchor="middle" x="897" y="-48.5" font-family="Helvetica,sans-Serif" font-size="10.00">::IObjectWriter &gt;</text>
</a>
</g>
<!-- Node9&#45;&gt;Node1 -->
<g id="edge18" class="edge"><title>Node9&#45;&gt;Node1</title>
<path fill="none" stroke="midnightblue" d="M972.906,-64C983.274,-64 993.832,-64 1003.96,-64"/>
<polygon fill="midnightblue" stroke="midnightblue" points="972.624,-60.5001 962.624,-64 972.624,-67.5001 972.624,-60.5001"/>
</g>
<!-- Node10 -->
<g id="node19" class="node"><title>Node10</title>
<a xlink:href="structfwData_1_1location_1_1enableFolder.html" target="_top" xlink:title="This class is derived by reader/writer. ">
<polygon fill="white" stroke="black" points="547,-47 547,-81 669,-81 669,-47 547,-47"/>
<text text-anchor="start" x="555" y="-68" font-family="Helvetica,sans-Serif" font-size="10.00">fwData::location::enable</text>
<text text-anchor="middle" x="608" y="-55" font-family="Helvetica,sans-Serif" font-size="10.00">Folder&lt; RW &gt;</text>
</a>
</g>
<!-- Node10&#45;&gt;Node9 -->
<g id="edge20" class="edge"><title>Node10&#45;&gt;Node9</title>
<path fill="none" stroke="orange" stroke-dasharray="5,2" d="M679.578,-64C726.01,-64 786.054,-64 831.275,-64"/>
<polygon fill="orange" stroke="orange" points="679.29,-60.5001 669.289,-64 679.289,-67.5001 679.29,-60.5001"/>
<text text-anchor="start" x="708.5" y="-81" font-family="Helvetica,sans-Serif" font-size="10.00"> &lt; ::fwDataIO::writer</text>
<text text-anchor="middle" x="754" y="-68" font-family="Helvetica,sans-Serif" font-size="10.00">::IObjectWriter &gt;</text>
</g>
<!-- Node11 -->
<g id="node21" class="node"><title>Node11</title>
<a xlink:href="classfwTools_1_1ProgressAdviser.html" target="_top" xlink:title="Subclasses Inherited from ProgressAdviser can notify progression This class is used as base class to ...">
<polygon fill="white" stroke="black" points="832.5,-0.5 832.5,-21.5 961.5,-21.5 961.5,-0.5 832.5,-0.5"/>
<text text-anchor="middle" x="897" y="-8.5" font-family="Helvetica,sans-Serif" font-size="10.00">fwTools::ProgressAdviser</text>
</a>
</g>
<!-- Node11&#45;&gt;Node1 -->
<g id="edge22" class="edge"><title>Node11&#45;&gt;Node1</title>
<path fill="none" stroke="midnightblue" d="M944.149,-24.4569C951.476,-26.6083 958.95,-28.8383 966,-31 989.667,-38.2565 1016.27,-46.8801 1036.38,-53.4918"/>
<polygon fill="midnightblue" stroke="midnightblue" points="944.884,-21.0255 934.304,-21.5855 942.925,-27.7455 944.884,-21.0255"/>
</g>
<!-- Node12 -->
<g id="node23" class="node"><title>Node12</title>
<polygon fill="white" stroke="#bfbfbf" points="580,-0.5 580,-21.5 636,-21.5 636,-0.5 580,-0.5"/>
<text text-anchor="middle" x="608" y="-8.5" font-family="Helvetica,sans-Serif" font-size="10.00">trackable</text>
</g>
<!-- Node12&#45;&gt;Node11 -->
<g id="edge24" class="edge"><title>Node12&#45;&gt;Node11</title>
<path fill="none" stroke="midnightblue" d="M646.382,-11C693.771,-11 775.094,-11 832.221,-11"/>
<polygon fill="midnightblue" stroke="midnightblue" points="646.237,-7.5001 636.237,-11 646.237,-14.5001 646.237,-7.5001"/>
</g>
</g>
</svg>
