<?xml version="1.0" encoding="UTF-8" standalone="no"?>
<!DOCTYPE svg PUBLIC "-//W3C//DTD SVG 1.1//EN"
 "http://www.w3.org/Graphics/SVG/1.1/DTD/svg11.dtd">
<!-- Generated by graphviz version 2.26.3 (20100126.1600)
 -->
<!-- Title: ioAtoms::SWriter::versionSelection Pages: 1 -->
<svg width="312pt" height="42pt"
 viewBox="0.00 0.00 312.00 42.00" xmlns="http://www.w3.org/2000/svg" xmlns:xlink="http://www.w3.org/1999/xlink">
<g id="graph1" class="graph" transform="scale(1 1) rotate(0) translate(4 38)">
<title>ioAtoms::SWriter::versionSelection</title>
<polygon fill="white" stroke="white" points="-4,5 -4,-38 309,-38 309,5 -4,5"/>
<!-- Node1 -->
<g id="node1" class="node"><title>Node1</title>
<polygon fill="#bfbfbf" stroke="black" points="0.5,-0 0.5,-34 129.5,-34 129.5,-0 0.5,-0"/>
<text text-anchor="start" x="8.5" y="-21" font-family="Helvetica,sans-Serif" font-size="10.00">ioAtoms::SWriter::version</text>
<text text-anchor="middle" x="65" y="-8" font-family="Helvetica,sans-Serif" font-size="10.00">Selection</text>
</g>
<!-- Node2 -->
<g id="node3" class="node"><title>Node2</title>
<a xlink:href="classioAtoms_1_1SWriter.html#a9f1af1b733dcc23d7329c74bd6304dad" target="_top" xlink:title="Propose to create a medical data file. ">
<polygon fill="white" stroke="black" points="166.5,-0 166.5,-34 303.5,-34 303.5,-0 166.5,-0"/>
<text text-anchor="start" x="174.5" y="-21" font-family="Helvetica,sans-Serif" font-size="10.00">ioAtoms::SWriter::configure</text>
<text text-anchor="middle" x="235" y="-8" font-family="Helvetica,sans-Serif" font-size="10.00">WithIHM</text>
</a>
</g>
<!-- Node1&#45;&gt;Node2 -->
<g id="edge2" class="edge"><title>Node1&#45;&gt;Node2</title>
<path fill="none" stroke="midnightblue" d="M140.001,-17C148.806,-17 157.757,-17 166.467,-17"/>
<polygon fill="midnightblue" stroke="midnightblue" points="139.755,-13.5001 129.755,-17 139.755,-20.5001 139.755,-13.5001"/>
</g>
</g>
</svg>
