<?xml version="1.0" encoding="UTF-8" standalone="no"?>
<!DOCTYPE svg PUBLIC "-//W3C//DTD SVG 1.1//EN"
 "http://www.w3.org/Graphics/SVG/1.1/DTD/svg11.dtd">
<!-- Generated by graphviz version 2.26.3 (20100126.1600)
 -->
<!-- Title: fwData::String Pages: 1 -->
<svg width="2088pt" height="370pt"
 viewBox="0.00 0.00 2088.00 370.00" xmlns="http://www.w3.org/2000/svg" xmlns:xlink="http://www.w3.org/1999/xlink">
<g id="graph1" class="graph" transform="scale(1 1) rotate(0) translate(4 366)">
<title>fwData::String</title>
<polygon fill="white" stroke="white" points="-4,5 -4,-366 2085,-366 2085,5 -4,5"/>
<!-- Node1 -->
<g id="node1" class="node"><title>Node1</title>
<polygon fill="#bfbfbf" stroke="black" points="2000,-59.5 2000,-80.5 2080,-80.5 2080,-59.5 2000,-59.5"/>
<text text-anchor="middle" x="2040" y="-67.5" font-family="Helvetica,sans-Serif" font-size="10.00">fwData::String</text>
</g>
<!-- Node2 -->
<g id="node2" class="node"><title>Node2</title>
<a xlink:href="classfwData_1_1GenericField.html" target="_top" xlink:title="fwData::GenericField\l\&lt; std::string \&gt;">
<polygon fill="white" stroke="black" points="1852.5,-53 1852.5,-87 1961.5,-87 1961.5,-53 1852.5,-53"/>
<text text-anchor="start" x="1860.5" y="-74" font-family="Helvetica,sans-Serif" font-size="10.00">fwData::GenericField</text>
<text text-anchor="middle" x="1907" y="-61" font-family="Helvetica,sans-Serif" font-size="10.00">&lt; std::string &gt;</text>
</a>
</g>
<!-- Node2&#45;&gt;Node1 -->
<g id="edge2" class="edge"><title>Node2&#45;&gt;Node1</title>
<path fill="none" stroke="midnightblue" d="M1972.1,-70C1981.58,-70 1991.1,-70 1999.89,-70"/>
<polygon fill="midnightblue" stroke="midnightblue" points="1971.86,-66.5001 1961.86,-70 1971.86,-73.5001 1971.86,-66.5001"/>
</g>
<!-- Node3 -->
<g id="node4" class="node"><title>Node3</title>
<a xlink:href="classfwData_1_1GenericFieldBase.html" target="_top" xlink:title="GenericFieldBase define common operation on simple data. ">
<polygon fill="white" stroke="black" points="1446.5,-104.5 1446.5,-125.5 1577.5,-125.5 1577.5,-104.5 1446.5,-104.5"/>
<text text-anchor="middle" x="1512" y="-112.5" font-family="Helvetica,sans-Serif" font-size="10.00">fwData::GenericFieldBase</text>
</a>
</g>
<!-- Node3&#45;&gt;Node2 -->
<g id="edge4" class="edge"><title>Node3&#45;&gt;Node2</title>
<path fill="none" stroke="midnightblue" d="M1587.94,-111.446C1653.42,-107.655 1750.36,-100.306 1834,-87 1839.91,-86.0595 1846.06,-84.9082 1852.16,-83.652"/>
<polygon fill="midnightblue" stroke="midnightblue" points="1587.49,-107.965 1577.7,-112.024 1587.89,-114.954 1587.49,-107.965"/>
</g>
<!-- Node22 -->
<g id="node46" class="node"><title>Node22</title>
<a xlink:href="classfwData_1_1GenericField.html" target="_top" xlink:title="Generic &quot;field&quot; object template. ">
<polygon fill="white" stroke="black" points="1616.5,-59.5 1616.5,-80.5 1749.5,-80.5 1749.5,-59.5 1616.5,-59.5"/>
<text text-anchor="middle" x="1683" y="-67.5" font-family="Helvetica,sans-Serif" font-size="10.00">fwData::GenericField&lt; T &gt;</text>
</a>
</g>
<!-- Node3&#45;&gt;Node22 -->
<g id="edge52" class="edge"><title>Node3&#45;&gt;Node22</title>
<path fill="none" stroke="midnightblue" d="M1562.04,-101.832C1587.77,-95.0602 1618.72,-86.9171 1642.86,-80.5623"/>
<polygon fill="midnightblue" stroke="midnightblue" points="1560.87,-98.5197 1552.09,-104.449 1562.65,-105.289 1560.87,-98.5197"/>
</g>
<!-- Node4 -->
<g id="node6" class="node"><title>Node4</title>
<a xlink:href="classfwData_1_1Object.html" target="_top" xlink:title="Base class for each data object. ">
<polygon fill="white" stroke="black" points="1324.5,-185.5 1324.5,-206.5 1407.5,-206.5 1407.5,-185.5 1324.5,-185.5"/>
<text text-anchor="middle" x="1366" y="-193.5" font-family="Helvetica,sans-Serif" font-size="10.00">fwData::Object</text>
</a>
</g>
<!-- Node4&#45;&gt;Node3 -->
<g id="edge6" class="edge"><title>Node4&#45;&gt;Node3</title>
<path fill="none" stroke="midnightblue" d="M1393.92,-180.508C1422.97,-164.394 1467.66,-139.601 1492.91,-125.592"/>
<polygon fill="midnightblue" stroke="midnightblue" points="1392.13,-177.499 1385.09,-185.411 1395.53,-183.62 1392.13,-177.499"/>
</g>
<!-- Node5 -->
<g id="node8" class="node"><title>Node5</title>
<a xlink:href="classfwTools_1_1Object.html" target="_top" xlink:title="Define Base class for FW4SPL objects and services. ">
<polygon fill="white" stroke="black" points="1066,-294.5 1066,-315.5 1152,-315.5 1152,-294.5 1066,-294.5"/>
<text text-anchor="middle" x="1109" y="-302.5" font-family="Helvetica,sans-Serif" font-size="10.00">fwTools::Object</text>
</a>
</g>
<!-- Node5&#45;&gt;Node4 -->
<g id="edge8" class="edge"><title>Node5&#45;&gt;Node4</title>
<path fill="none" stroke="midnightblue" d="M1146.21,-290.716C1186.04,-275.233 1250.95,-249.45 1306,-225 1319.11,-219.177 1333.6,-212.191 1345.05,-206.535"/>
<polygon fill="midnightblue" stroke="midnightblue" points="1144.7,-287.547 1136.64,-294.424 1147.23,-294.073 1144.7,-287.547"/>
</g>
<!-- Node6 -->
<g id="node10" class="node"><title>Node6</title>
<a xlink:href="classfwCore_1_1BaseObject.html" target="_top" xlink:title="Base class for all FW4SPL&#39;s classes. ">
<polygon fill="white" stroke="black" points="788.5,-334.5 788.5,-355.5 893.5,-355.5 893.5,-334.5 788.5,-334.5"/>
<text text-anchor="middle" x="841" y="-342.5" font-family="Helvetica,sans-Serif" font-size="10.00">fwCore::BaseObject</text>
</a>
</g>
<!-- Node6&#45;&gt;Node5 -->
<g id="edge10" class="edge"><title>Node6&#45;&gt;Node5</title>
<path fill="none" stroke="midnightblue" d="M903.74,-336.253C938.593,-331.327 982.724,-324.981 1022,-319 1036.22,-316.835 1051.72,-314.373 1065.65,-312.123"/>
<polygon fill="midnightblue" stroke="midnightblue" points="903.117,-332.806 893.704,-337.669 904.095,-339.738 903.117,-332.806"/>
</g>
<!-- Node7 -->
<g id="node12" class="node"><title>Node7</title>
<polygon fill="white" stroke="#bfbfbf" points="465.5,-328 465.5,-362 596.5,-362 596.5,-328 465.5,-328"/>
<text text-anchor="start" x="473.5" y="-349" font-family="Helvetica,sans-Serif" font-size="10.00">std::enable_shared</text>
<text text-anchor="middle" x="531" y="-336" font-family="Helvetica,sans-Serif" font-size="10.00">_from_this&lt; BaseObject &gt;</text>
</g>
<!-- Node7&#45;&gt;Node6 -->
<g id="edge12" class="edge"><title>Node7&#45;&gt;Node6</title>
<path fill="none" stroke="midnightblue" d="M607.013,-345C663.25,-345 738.418,-345 788.204,-345"/>
<polygon fill="midnightblue" stroke="midnightblue" points="606.743,-341.5 596.743,-345 606.743,-348.5 606.743,-341.5"/>
</g>
<!-- Node8 -->
<g id="node14" class="node"><title>Node8</title>
<a xlink:href="classfwTools_1_1fwID.html" target="_top" xlink:title="Defines ID for fwTools::Object. It is used to associate ID with object. ">
<polygon fill="white" stroke="black" points="802,-294.5 802,-315.5 880,-315.5 880,-294.5 802,-294.5"/>
<text text-anchor="middle" x="841" y="-302.5" font-family="Helvetica,sans-Serif" font-size="10.00">fwTools::fwID</text>
</a>
</g>
<!-- Node8&#45;&gt;Node5 -->
<g id="edge14" class="edge"><title>Node8&#45;&gt;Node5</title>
<path fill="none" stroke="darkgreen" d="M890.55,-305C940.785,-305 1017.75,-305 1065.64,-305"/>
<polygon fill="darkgreen" stroke="darkgreen" points="890.257,-301.5 880.257,-305 890.256,-308.5 890.257,-301.5"/>
</g>
<!-- Node9 -->
<g id="node16" class="node"><title>Node9</title>
<a xlink:href="classfwTools_1_1DynamicAttributes.html" target="_top" xlink:title="fwTools::DynamicAttributes\l\&lt; ::fwData::Object \&gt;">
<polygon fill="white" stroke="black" points="1040,-204 1040,-238 1178,-238 1178,-204 1040,-204"/>
<text text-anchor="start" x="1048" y="-225" font-family="Helvetica,sans-Serif" font-size="10.00">fwTools::DynamicAttributes</text>
<text text-anchor="middle" x="1109" y="-212" font-family="Helvetica,sans-Serif" font-size="10.00">&lt; ::fwData::Object &gt;</text>
</a>
</g>
<!-- Node9&#45;&gt;Node4 -->
<g id="edge16" class="edge"><title>Node9&#45;&gt;Node4</title>
<path fill="none" stroke="midnightblue" d="M1188.46,-217.356C1224.44,-215.191 1267.46,-211.888 1306,-207 1311.99,-206.241 1318.28,-205.274 1324.45,-204.23"/>
<polygon fill="midnightblue" stroke="midnightblue" points="1187.8,-213.888 1178.02,-217.964 1188.2,-220.876 1187.8,-213.888"/>
</g>
<!-- Node10 -->
<g id="node18" class="node"><title>Node10</title>
<a xlink:href="classfwTools_1_1DynamicAttributesBase.html" target="_top" xlink:title="fwTools::DynamicAttributesBase">
<polygon fill="white" stroke="black" points="450.5,-242.5 450.5,-263.5 611.5,-263.5 611.5,-242.5 450.5,-242.5"/>
<text text-anchor="middle" x="531" y="-250.5" font-family="Helvetica,sans-Serif" font-size="10.00">fwTools::DynamicAttributesBase</text>
</a>
</g>
<!-- Node10&#45;&gt;Node9 -->
<g id="edge18" class="edge"><title>Node10&#45;&gt;Node9</title>
<path fill="none" stroke="midnightblue" d="M622.069,-255.961C721.005,-257.843 883.483,-257.037 1022,-238 1027.79,-237.204 1033.78,-236.269 1039.79,-235.255"/>
<polygon fill="midnightblue" stroke="midnightblue" points="621.877,-252.456 611.808,-255.751 621.734,-259.455 621.877,-252.456"/>
</g>
<!-- Node15 -->
<g id="node28" class="node"><title>Node15</title>
<a xlink:href="classfwTools_1_1DynamicAttributes.html" target="_top" xlink:title="fwTools::DynamicAttributes\l\&lt; CLASS \&gt;">
<polygon fill="white" stroke="black" points="772,-204 772,-238 910,-238 910,-204 772,-204"/>
<text text-anchor="start" x="780" y="-225" font-family="Helvetica,sans-Serif" font-size="10.00">fwTools::DynamicAttributes</text>
<text text-anchor="middle" x="841" y="-212" font-family="Helvetica,sans-Serif" font-size="10.00">&lt; CLASS &gt;</text>
</a>
</g>
<!-- Node10&#45;&gt;Node15 -->
<g id="edge30" class="edge"><title>Node10&#45;&gt;Node15</title>
<path fill="none" stroke="midnightblue" d="M621.708,-243.637C669.639,-238.689 727.538,-232.712 771.805,-228.143"/>
<polygon fill="midnightblue" stroke="midnightblue" points="621.227,-240.168 611.64,-244.676 621.946,-247.131 621.227,-240.168"/>
</g>
<!-- Node11 -->
<g id="node20" class="node"><title>Node11</title>
<polygon fill="white" stroke="#bfbfbf" points="465.5,-147 465.5,-181 596.5,-181 596.5,-147 465.5,-147"/>
<text text-anchor="start" x="473.5" y="-168" font-family="Helvetica,sans-Serif" font-size="10.00">std::map&lt; AttrNameType,</text>
<text text-anchor="middle" x="531" y="-155" font-family="Helvetica,sans-Serif" font-size="10.00"> AttrRefType &gt;</text>
</g>
<!-- Node11&#45;&gt;Node9 -->
<g id="edge20" class="edge"><title>Node11&#45;&gt;Node9</title>
<path fill="none" stroke="#9a32cd" stroke-dasharray="5,2" d="M606.809,-159.634C683.603,-156.468 805.621,-154.887 910,-169 961.134,-175.914 1017.95,-191.59 1057.73,-203.934"/>
<polygon fill="#9a32cd" stroke="#9a32cd" points="606.584,-156.141 596.745,-160.069 606.886,-163.134 606.584,-156.141"/>
<text text-anchor="start" x="779" y="-186" font-family="Helvetica,sans-Serif" font-size="10.00"> __FWTOOLS_ATTRIBUTE</text>
<text text-anchor="middle" x="841" y="-173" font-family="Helvetica,sans-Serif" font-size="10.00">_MAP_NAME</text>
</g>
<!-- Node11&#45;&gt;Node15 -->
<g id="edge32" class="edge"><title>Node11&#45;&gt;Node15</title>
<path fill="none" stroke="#9a32cd" stroke-dasharray="5,2" d="M606.51,-174.716C649.822,-181.23 705.134,-190.173 754,-200 760.093,-201.225 766.406,-202.58 772.722,-203.995"/>
<polygon fill="#9a32cd" stroke="#9a32cd" points="607.023,-171.254 596.615,-173.238 605.989,-178.177 607.023,-171.254"/>
<text text-anchor="start" x="630" y="-217" font-family="Helvetica,sans-Serif" font-size="10.00"> __FWTOOLS_ATTRIBUTE</text>
<text text-anchor="middle" x="692" y="-204" font-family="Helvetica,sans-Serif" font-size="10.00">_MAP_NAME</text>
</g>
<!-- Node12 -->
<g id="node22" class="node"><title>Node12</title>
<a xlink:title="STL class. ">
<polygon fill="white" stroke="#bfbfbf" points="176,-112.5 176,-133.5 268,-133.5 268,-112.5 176,-112.5"/>
<text text-anchor="middle" x="222" y="-120.5" font-family="Helvetica,sans-Serif" font-size="10.00">std::map&lt; K, T &gt;</text>
</a>
</g>
<!-- Node12&#45;&gt;Node11 -->
<g id="edge22" class="edge"><title>Node12&#45;&gt;Node11</title>
<path fill="none" stroke="orange" stroke-dasharray="5,2" d="M265.198,-136.289C272.107,-138.083 279.214,-139.738 286,-141 346.167,-152.19 415.713,-158.059 465.302,-161.057"/>
<polygon fill="orange" stroke="orange" points="265.847,-132.838 255.279,-133.588 264.008,-139.592 265.847,-132.838"/>
<text text-anchor="middle" x="359" y="-162" font-family="Helvetica,sans-Serif" font-size="10.00"> &lt; AttrNameType, AttrRefType &gt;</text>
</g>
<!-- Node18 -->
<g id="node36" class="node"><title>Node18</title>
<polygon fill="white" stroke="#bfbfbf" points="450.5,-95 450.5,-129 611.5,-129 611.5,-95 450.5,-95"/>
<text text-anchor="start" x="458.5" y="-116" font-family="Helvetica,sans-Serif" font-size="10.00">std::map&lt; SignalKeyType,</text>
<text text-anchor="middle" x="531" y="-103" font-family="Helvetica,sans-Serif" font-size="10.00"> std::shared_ptr&lt; SignalBase &gt; &gt;</text>
</g>
<!-- Node12&#45;&gt;Node18 -->
<g id="edge44" class="edge"><title>Node12&#45;&gt;Node18</title>
<path fill="none" stroke="orange" stroke-dasharray="5,2" d="M278.244,-115.611C280.863,-115.38 283.458,-115.174 286,-115 340.746,-111.255 402.529,-110.523 450.356,-110.717"/>
<polygon fill="orange" stroke="orange" points="277.692,-112.149 268.084,-116.613 278.379,-119.115 277.692,-112.149"/>
<text text-anchor="start" x="294.5" y="-132" font-family="Helvetica,sans-Serif" font-size="10.00"> &lt; SignalKeyType, std</text>
<text text-anchor="middle" x="359" y="-119" font-family="Helvetica,sans-Serif" font-size="10.00">::shared_ptr&lt; SignalBase &gt; &gt;</text>
</g>
<!-- Node13 -->
<g id="node24" class="node"><title>Node13</title>
<polygon fill="white" stroke="#bfbfbf" points="33.5,-123.5 33.5,-144.5 62.5,-144.5 62.5,-123.5 33.5,-123.5"/>
<text text-anchor="middle" x="48" y="-131.5" font-family="Helvetica,sans-Serif" font-size="10.00">K</text>
</g>
<!-- Node13&#45;&gt;Node12 -->
<g id="edge24" class="edge"><title>Node13&#45;&gt;Node12</title>
<path fill="none" stroke="#9a32cd" stroke-dasharray="5,2" d="M72.5869,-132.446C99.3704,-130.752 142.819,-128.006 175.976,-125.91"/>
<polygon fill="#9a32cd" stroke="#9a32cd" points="72.2951,-128.957 62.5359,-133.081 72.7368,-135.943 72.2951,-128.957"/>
<text text-anchor="middle" x="136" y="-133" font-family="Helvetica,sans-Serif" font-size="10.00"> keys</text>
</g>
<!-- Node14 -->
<g id="node26" class="node"><title>Node14</title>
<polygon fill="white" stroke="#bfbfbf" points="33.5,-63.5 33.5,-84.5 62.5,-84.5 62.5,-63.5 33.5,-63.5"/>
<text text-anchor="middle" x="48" y="-71.5" font-family="Helvetica,sans-Serif" font-size="10.00">T</text>
</g>
<!-- Node14&#45;&gt;Node12 -->
<g id="edge26" class="edge"><title>Node14&#45;&gt;Node12</title>
<path fill="none" stroke="#9a32cd" stroke-dasharray="5,2" d="M72.3107,-80.8461C101.482,-89.0611 150.705,-102.923 184.698,-112.495"/>
<polygon fill="#9a32cd" stroke="#9a32cd" points="73.1102,-77.4352 62.5359,-78.0934 71.2127,-84.1731 73.1102,-77.4352"/>
<text text-anchor="middle" x="136" y="-108" font-family="Helvetica,sans-Serif" font-size="10.00"> elements</text>
</g>
<!-- Node14&#45;&gt;Node22 -->
<g id="edge54" class="edge"><title>Node14&#45;&gt;Node22</title>
<path fill="none" stroke="#9a32cd" stroke-dasharray="5,2" d="M73.2238,-71.876C107.054,-69.2151 169.006,-65 222,-65 222,-65 222,-65 1512,-65 1546.45,-65 1584.79,-66.0266 1616.42,-67.1495"/>
<polygon fill="#9a32cd" stroke="#9a32cd" points="72.5689,-68.4174 62.8828,-72.7105 73.132,-75.3947 72.5689,-68.4174"/>
<text text-anchor="middle" x="975" y="-69" font-family="Helvetica,sans-Serif" font-size="10.00"> m_value</text>
</g>
<!-- Node15&#45;&gt;Node9 -->
<g id="edge28" class="edge"><title>Node15&#45;&gt;Node9</title>
<path fill="none" stroke="orange" stroke-dasharray="5,2" d="M920.019,-221C958.007,-221 1003.13,-221 1039.75,-221"/>
<polygon fill="orange" stroke="orange" points="920.017,-217.5 910.017,-221 920.017,-224.5 920.017,-217.5"/>
<text text-anchor="middle" x="975" y="-225" font-family="Helvetica,sans-Serif" font-size="10.00"> &lt; ::fwData::Object &gt;</text>
</g>
<!-- Node16 -->
<g id="node32" class="node"><title>Node16</title>
<a xlink:href="classfwCom_1_1HasSignals.html" target="_top" xlink:title="This class proposes a mapping between a SignalKeyType and a SignalBase. ">
<polygon fill="white" stroke="black" points="1057,-149.5 1057,-170.5 1161,-170.5 1161,-149.5 1057,-149.5"/>
<text text-anchor="middle" x="1109" y="-157.5" font-family="Helvetica,sans-Serif" font-size="10.00">fwCom::HasSignals</text>
</a>
</g>
<!-- Node16&#45;&gt;Node4 -->
<g id="edge34" class="edge"><title>Node16&#45;&gt;Node4</title>
<path fill="none" stroke="midnightblue" d="M1154.91,-173.12C1168.08,-176.472 1182.53,-179.758 1196,-182 1239.38,-189.22 1289.64,-192.775 1324.19,-194.487"/>
<polygon fill="midnightblue" stroke="midnightblue" points="1155.68,-169.704 1145.12,-170.56 1153.91,-176.476 1155.68,-169.704"/>
</g>
<!-- Node17 -->
<g id="node34" class="node"><title>Node17</title>
<a xlink:href="classfwCom_1_1Signals.html" target="_top" xlink:title="This class proposes a mapping between a SignalKeyType and a SignalBase. ">
<polygon fill="white" stroke="black" points="798,-102.5 798,-123.5 884,-123.5 884,-102.5 798,-102.5"/>
<text text-anchor="middle" x="841" y="-110.5" font-family="Helvetica,sans-Serif" font-size="10.00">fwCom::Signals</text>
</a>
</g>
<!-- Node17&#45;&gt;Node16 -->
<g id="edge36" class="edge"><title>Node17&#45;&gt;Node16</title>
<path fill="none" stroke="#9a32cd" stroke-dasharray="5,2" d="M894.502,-116.22C930.759,-119.058 979.605,-124.164 1022,-133 1041.66,-137.098 1063.23,-143.775 1079.97,-149.464"/>
<polygon fill="#9a32cd" stroke="#9a32cd" points="894.385,-112.701 884.151,-115.444 893.862,-119.681 894.385,-112.701"/>
<text text-anchor="middle" x="975" y="-137" font-family="Helvetica,sans-Serif" font-size="10.00"> m_signals</text>
</g>
<!-- Node18&#45;&gt;Node17 -->
<g id="edge38" class="edge"><title>Node18&#45;&gt;Node17</title>
<path fill="none" stroke="#9a32cd" stroke-dasharray="5,2" d="M621.936,-112.293C680.023,-112.481 752.677,-112.715 797.972,-112.861"/>
<polygon fill="#9a32cd" stroke="#9a32cd" points="621.651,-108.793 611.64,-112.26 621.628,-115.792 621.651,-108.793"/>
<text text-anchor="middle" x="692" y="-116" font-family="Helvetica,sans-Serif" font-size="10.00"> m_signals</text>
</g>
<!-- Node19 -->
<g id="node38" class="node"><title>Node19</title>
<a xlink:title="STL class. ">
<polygon fill="white" stroke="#bfbfbf" points="192,-6.5 192,-27.5 252,-27.5 252,-6.5 192,-6.5"/>
<text text-anchor="middle" x="222" y="-14.5" font-family="Helvetica,sans-Serif" font-size="10.00">std::string</text>
</a>
</g>
<!-- Node19&#45;&gt;Node2 -->
<g id="edge48" class="edge"><title>Node19&#45;&gt;Node2</title>
<path fill="none" stroke="#9a32cd" stroke-dasharray="5,2" d="M262.262,-14.2246C321.216,-10.4063 434.508,-4 531,-4 531,-4 531,-4 1683,-4 1752.12,-4 1828.53,-33.2761 1871.86,-52.8316"/>
<polygon fill="#9a32cd" stroke="#9a32cd" points="261.995,-10.7345 252.246,-14.8824 262.454,-17.7194 261.995,-10.7345"/>
<text text-anchor="middle" x="1251" y="-8" font-family="Helvetica,sans-Serif" font-size="10.00"> m_value</text>
</g>
<!-- Node19&#45;&gt;Node18 -->
<g id="edge40" class="edge"><title>Node19&#45;&gt;Node18</title>
<path fill="none" stroke="#9a32cd" stroke-dasharray="5,2" d="M261.823,-29.2432C316.209,-45.964 413.973,-76.0207 475.515,-94.9416"/>
<polygon fill="#9a32cd" stroke="#9a32cd" points="262.778,-25.8753 252.191,-26.282 260.721,-32.5662 262.778,-25.8753"/>
<text text-anchor="middle" x="359" y="-85" font-family="Helvetica,sans-Serif" font-size="10.00"> keys</text>
</g>
<!-- Node20 -->
<g id="node40" class="node"><title>Node20</title>
<a xlink:title="STL class. ">
<polygon fill="white" stroke="#bfbfbf" points="0.5,-0 0.5,-34 95.5,-34 95.5,-0 0.5,-0"/>
<text text-anchor="start" x="8.5" y="-21" font-family="Helvetica,sans-Serif" font-size="10.00">std::basic_string&lt;</text>
<text text-anchor="middle" x="48" y="-8" font-family="Helvetica,sans-Serif" font-size="10.00"> char &gt;</text>
</a>
</g>
<!-- Node20&#45;&gt;Node19 -->
<g id="edge42" class="edge"><title>Node20&#45;&gt;Node19</title>
<path fill="none" stroke="midnightblue" d="M105.887,-17C134.618,-17 168.136,-17 191.754,-17"/>
<polygon fill="midnightblue" stroke="midnightblue" points="105.546,-13.5001 95.5463,-17 105.546,-20.5001 105.546,-13.5001"/>
</g>
<!-- Node21 -->
<g id="node43" class="node"><title>Node21</title>
<polygon fill="white" stroke="#bfbfbf" points="1088.5,-93.5 1088.5,-114.5 1129.5,-114.5 1129.5,-93.5 1088.5,-93.5"/>
<text text-anchor="middle" x="1109" y="-101.5" font-family="Helvetica,sans-Serif" font-size="10.00">static</text>
</g>
<!-- Node21&#45;&gt;Node4 -->
<g id="edge46" class="edge"><title>Node21&#45;&gt;Node4</title>
<path fill="none" stroke="#9a32cd" stroke-dasharray="5,2" d="M1139.47,-94.4669C1180.22,-83.6062 1253.43,-70.8625 1306,-100 1339.52,-118.579 1356.79,-164.555 1363.11,-185.41"/>
<polygon fill="#9a32cd" stroke="#9a32cd" points="1138.28,-91.1638 1129.6,-97.2314 1140.17,-97.9043 1138.28,-91.1638"/>
<text text-anchor="middle" x="1251" y="-169" font-family="Helvetica,sans-Serif" font-size="10.00"> s_MODIFIED_SIG</text>
<text text-anchor="start" x="1196" y="-156" font-family="Helvetica,sans-Serif" font-size="10.00">s_REMOVED_FIELDS</text>
<text text-anchor="middle" x="1251" y="-143" font-family="Helvetica,sans-Serif" font-size="10.00">_SIG</text>
<text text-anchor="start" x="1196" y="-130" font-family="Helvetica,sans-Serif" font-size="10.00">s_CHANGED_FIELDS</text>
<text text-anchor="middle" x="1251" y="-117" font-family="Helvetica,sans-Serif" font-size="10.00">_SIG</text>
<text text-anchor="middle" x="1251" y="-104" font-family="Helvetica,sans-Serif" font-size="10.00">s_ADDED_FIELDS_SIG</text>
</g>
<!-- Node22&#45;&gt;Node2 -->
<g id="edge50" class="edge"><title>Node22&#45;&gt;Node2</title>
<path fill="none" stroke="orange" stroke-dasharray="5,2" d="M1759.76,-70C1790.2,-70 1824.5,-70 1852.33,-70"/>
<polygon fill="orange" stroke="orange" points="1759.6,-66.5001 1749.6,-70 1759.6,-73.5001 1759.6,-66.5001"/>
<text text-anchor="middle" x="1801" y="-74" font-family="Helvetica,sans-Serif" font-size="10.00"> &lt; std::string &gt;</text>
</g>
</g>
</svg>
