<?xml version="1.0" encoding="UTF-8" standalone="no"?>
<!DOCTYPE svg PUBLIC "-//W3C//DTD SVG 1.1//EN"
 "http://www.w3.org/Graphics/SVG/1.1/DTD/svg11.dtd">
<!-- Generated by graphviz version 2.26.3 (20100126.1600)
 -->
<!-- Title: io::IWriter::setFile Pages: 1 -->
<svg width="490pt" height="535pt"
 viewBox="0.00 0.00 490.00 535.00" xmlns="http://www.w3.org/2000/svg" xmlns:xlink="http://www.w3.org/1999/xlink">
<g id="graph1" class="graph" transform="scale(1 1) rotate(0) translate(4 531)">
<title>io::IWriter::setFile</title>
<polygon fill="white" stroke="white" points="-4,5 -4,-531 487,-531 487,5 -4,5"/>
<!-- Node1 -->
<g id="node1" class="node"><title>Node1</title>
<polygon fill="#bfbfbf" stroke="black" points="0.5,-265.5 0.5,-286.5 95.5,-286.5 95.5,-265.5 0.5,-265.5"/>
<text text-anchor="middle" x="48" y="-273.5" font-family="Helvetica,sans-Serif" font-size="10.00">io::IWriter::setFile</text>
</g>
<!-- Node2 -->
<g id="node3" class="node"><title>Node2</title>
<a xlink:href="classioITK_1_1SImageSeriesWriter.html#ac2d14acb787ad7947883fa58ec0e7b38" target="_top" xlink:title="Override. ">
<polygon fill="white" stroke="black" points="149,-493 149,-527 283,-527 283,-493 149,-493"/>
<text text-anchor="start" x="157" y="-514" font-family="Helvetica,sans-Serif" font-size="10.00">ioITK::SImageSeriesWriter</text>
<text text-anchor="middle" x="216" y="-501" font-family="Helvetica,sans-Serif" font-size="10.00">::configureWithIHM</text>
</a>
</g>
<!-- Node1&#45;&gt;Node2 -->
<g id="edge2" class="edge"><title>Node1&#45;&gt;Node2</title>
<path fill="none" stroke="midnightblue" d="M50.5035,-296.973C56.6011,-338.709 76.0707,-432.564 132,-484 136.944,-488.547 142.67,-492.299 148.763,-495.395"/>
<polygon fill="midnightblue" stroke="midnightblue" points="53.9479,-296.325 49.1457,-286.881 47.0104,-297.258 53.9479,-296.325"/>
</g>
<!-- Node3 -->
<g id="node5" class="node"><title>Node3</title>
<a xlink:href="classioAtoms_1_1SWriter.html#a9f1af1b733dcc23d7329c74bd6304dad" target="_top" xlink:title="Propose to create a medical data file. ">
<polygon fill="white" stroke="black" points="147.5,-441 147.5,-475 284.5,-475 284.5,-441 147.5,-441"/>
<text text-anchor="start" x="155.5" y="-462" font-family="Helvetica,sans-Serif" font-size="10.00">ioAtoms::SWriter::configure</text>
<text text-anchor="middle" x="216" y="-449" font-family="Helvetica,sans-Serif" font-size="10.00">WithIHM</text>
</a>
</g>
<!-- Node1&#45;&gt;Node3 -->
<g id="edge4" class="edge"><title>Node1&#45;&gt;Node3</title>
<path fill="none" stroke="midnightblue" d="M53.5009,-296.471C63.5022,-329.785 87.8256,-395.652 132,-432 136.597,-435.783 141.744,-439.017 147.165,-441.781"/>
<polygon fill="midnightblue" stroke="midnightblue" points="56.7669,-295.162 50.6503,-286.511 50.0371,-297.088 56.7669,-295.162"/>
</g>
<!-- Node4 -->
<g id="node7" class="node"><title>Node4</title>
<a xlink:href="classioITK_1_1InrImageWriterService.html#aef682d2d633c6393bcf4c2cedb94e540" target="_top" xlink:title="Override. ">
<polygon fill="white" stroke="black" points="144.5,-389 144.5,-423 287.5,-423 287.5,-389 144.5,-389"/>
<text text-anchor="start" x="152.5" y="-410" font-family="Helvetica,sans-Serif" font-size="10.00">ioITK::InrImageWriterService</text>
<text text-anchor="middle" x="216" y="-397" font-family="Helvetica,sans-Serif" font-size="10.00">::configureWithIHM</text>
</a>
</g>
<!-- Node1&#45;&gt;Node4 -->
<g id="edge6" class="edge"><title>Node1&#45;&gt;Node4</title>
<path fill="none" stroke="midnightblue" d="M58.673,-295.258C72.5864,-318.632 99.0754,-357.679 132,-380 136.928,-383.341 142.304,-386.267 147.877,-388.828"/>
<polygon fill="midnightblue" stroke="midnightblue" points="61.6885,-293.481 53.6543,-286.575 55.6279,-296.984 61.6885,-293.481"/>
</g>
<!-- Node5 -->
<g id="node9" class="node"><title>Node5</title>
<a xlink:href="classioData_1_1TransformationMatrix3DWriterService.html#afdea04b6df4d1e148f1916e3f0bf6297" target="_top" xlink:title="Configure the matrix path. ">
<polygon fill="white" stroke="black" points="132,-337 132,-371 300,-371 300,-337 132,-337"/>
<text text-anchor="start" x="140" y="-358" font-family="Helvetica,sans-Serif" font-size="10.00">ioData::TransformationMatrix3</text>
<text text-anchor="middle" x="216" y="-345" font-family="Helvetica,sans-Serif" font-size="10.00">DWriterService::configureWithIHM</text>
</a>
</g>
<!-- Node1&#45;&gt;Node5 -->
<g id="edge8" class="edge"><title>Node1&#45;&gt;Node5</title>
<path fill="none" stroke="midnightblue" d="M70.9254,-292.414C87.3305,-303.594 110.268,-318.106 132,-328 139.086,-331.226 146.682,-334.199 154.304,-336.891"/>
<polygon fill="midnightblue" stroke="midnightblue" points="72.7451,-289.416 62.5328,-286.595 68.7569,-295.169 72.7451,-289.416"/>
</g>
<!-- Node6 -->
<g id="node11" class="node"><title>Node6</title>
<a xlink:href="classioVTK_1_1SImageSeriesWriter.html#aa3eb67a96aa7d6730c80ed6921fd9cfa" target="_top" xlink:title="Configure the image path. ">
<polygon fill="white" stroke="black" points="147.5,-285 147.5,-319 284.5,-319 284.5,-285 147.5,-285"/>
<text text-anchor="start" x="155.5" y="-306" font-family="Helvetica,sans-Serif" font-size="10.00">ioVTK::SImageSeriesWriter</text>
<text text-anchor="middle" x="216" y="-293" font-family="Helvetica,sans-Serif" font-size="10.00">::configureWithIHM</text>
</a>
</g>
<!-- Node1&#45;&gt;Node6 -->
<g id="edge10" class="edge"><title>Node1&#45;&gt;Node6</title>
<path fill="none" stroke="midnightblue" d="M105.752,-284.938C119.196,-287.018 133.636,-289.253 147.494,-291.398"/>
<polygon fill="midnightblue" stroke="midnightblue" points="106.11,-281.452 95.6927,-283.381 105.04,-288.369 106.11,-281.452"/>
</g>
<!-- Node7 -->
<g id="node13" class="node"><title>Node7</title>
<a xlink:href="classioVTK_1_1SMeshWriter.html#a7a5cc4990ed09cff4c189eb1fbba3175" target="_top" xlink:title="Configure the mesh path. ">
<polygon fill="white" stroke="black" points="162.5,-233 162.5,-267 269.5,-267 269.5,-233 162.5,-233"/>
<text text-anchor="start" x="170.5" y="-254" font-family="Helvetica,sans-Serif" font-size="10.00">ioVTK::SMeshWriter</text>
<text text-anchor="middle" x="216" y="-241" font-family="Helvetica,sans-Serif" font-size="10.00">::configureWithIHM</text>
</a>
</g>
<!-- Node1&#45;&gt;Node7 -->
<g id="edge12" class="edge"><title>Node1&#45;&gt;Node7</title>
<path fill="none" stroke="midnightblue" d="M105.667,-267.075C124.011,-264.236 144.219,-261.109 162.273,-258.315"/>
<polygon fill="midnightblue" stroke="midnightblue" points="105.04,-263.631 95.6927,-268.619 106.11,-270.548 105.04,-263.631"/>
</g>
<!-- Node8 -->
<g id="node15" class="node"><title>Node8</title>
<a xlink:href="classioVTK_1_1SImageWriter.html#a040d1db8d0a46c9f6e28ab7bcd5c9dcd" target="_top" xlink:title="Configure the image path. ">
<polygon fill="white" stroke="black" points="161,-181 161,-215 271,-215 271,-181 161,-181"/>
<text text-anchor="start" x="169" y="-202" font-family="Helvetica,sans-Serif" font-size="10.00">ioVTK::SImageWriter</text>
<text text-anchor="middle" x="216" y="-189" font-family="Helvetica,sans-Serif" font-size="10.00">::configureWithIHM</text>
</a>
</g>
<!-- Node1&#45;&gt;Node8 -->
<g id="edge14" class="edge"><title>Node1&#45;&gt;Node8</title>
<path fill="none" stroke="midnightblue" d="M70.9254,-259.586C87.3305,-248.406 110.268,-233.894 132,-224 141.031,-219.888 150.891,-216.188 160.577,-212.956"/>
<polygon fill="midnightblue" stroke="midnightblue" points="68.7569,-256.831 62.5328,-265.405 72.7451,-262.584 68.7569,-256.831"/>
</g>
<!-- Node9 -->
<g id="node17" class="node"><title>Node9</title>
<a xlink:href="classioData_1_1MeshWriterService.html#af41ef2b75d2bae316989bbde32e93bd8" target="_top" xlink:title="Configure the mesh path. ">
<polygon fill="white" stroke="black" points="149,-129 149,-163 283,-163 283,-129 149,-129"/>
<text text-anchor="start" x="157" y="-150" font-family="Helvetica,sans-Serif" font-size="10.00">ioData::MeshWriterService</text>
<text text-anchor="middle" x="216" y="-137" font-family="Helvetica,sans-Serif" font-size="10.00">::configureWithIHM</text>
</a>
</g>
<!-- Node1&#45;&gt;Node9 -->
<g id="edge16" class="edge"><title>Node1&#45;&gt;Node9</title>
<path fill="none" stroke="midnightblue" d="M58.673,-256.742C72.5864,-233.368 99.0754,-194.321 132,-172 137.181,-168.488 142.857,-165.434 148.736,-162.781"/>
<polygon fill="midnightblue" stroke="midnightblue" points="55.6279,-255.016 53.6543,-265.425 61.6885,-258.519 55.6279,-255.016"/>
</g>
<!-- Node10 -->
<g id="node19" class="node"><title>Node10</title>
<a xlink:href="classioQt_1_1SPdfWriter.html#a56e43ec92400f719b05260e52106d6f7" target="_top" xlink:title="Configure the image path. ">
<polygon fill="white" stroke="black" points="149,-77 149,-111 283,-111 283,-77 149,-77"/>
<text text-anchor="start" x="157" y="-98" font-family="Helvetica,sans-Serif" font-size="10.00">ioQt::SPdfWriter::configure</text>
<text text-anchor="middle" x="216" y="-85" font-family="Helvetica,sans-Serif" font-size="10.00">WithIHM</text>
</a>
</g>
<!-- Node1&#45;&gt;Node10 -->
<g id="edge18" class="edge"><title>Node1&#45;&gt;Node10</title>
<path fill="none" stroke="midnightblue" d="M53.5009,-255.529C63.5022,-222.215 87.8256,-156.348 132,-120 137.069,-115.829 142.805,-112.326 148.841,-109.383"/>
<polygon fill="midnightblue" stroke="midnightblue" points="50.0371,-254.912 50.6503,-265.489 56.7669,-256.838 50.0371,-254.912"/>
</g>
<!-- Node12 -->
<g id="node23" class="node"><title>Node12</title>
<a xlink:href="classio_1_1IWriter.html#ae079442b16d7bacf5525fa2796c77a99" target="_top" xlink:title="This method proposes to parse xml configuration to retrieve file/files/folder paths. ">
<polygon fill="white" stroke="black" points="159.5,-37.5 159.5,-58.5 272.5,-58.5 272.5,-37.5 159.5,-37.5"/>
<text text-anchor="middle" x="216" y="-45.5" font-family="Helvetica,sans-Serif" font-size="10.00">io::IWriter::configuring</text>
</a>
</g>
<!-- Node1&#45;&gt;Node12 -->
<g id="edge22" class="edge"><title>Node1&#45;&gt;Node12</title>
<path fill="none" stroke="midnightblue" d="M50.141,-255.299C55.6295,-213.285 74.123,-117.783 132,-68 139.728,-61.3525 149.278,-56.8253 159.135,-53.7611"/>
<polygon fill="midnightblue" stroke="midnightblue" points="46.6417,-255.087 48.939,-265.43 53.593,-255.912 46.6417,-255.087"/>
</g>
<!-- Node11 -->
<g id="node21" class="node"><title>Node11</title>
<a xlink:href="classioQt_1_1SPdfWriter.html#ae4b58f883dd1255ef6233cf2fa73fc2d" target="_top" xlink:title="Updating method. Creates a new PDF. ">
<polygon fill="white" stroke="black" points="343.5,-83.5 343.5,-104.5 474.5,-104.5 474.5,-83.5 343.5,-83.5"/>
<text text-anchor="middle" x="409" y="-91.5" font-family="Helvetica,sans-Serif" font-size="10.00">ioQt::SPdfWriter::updating</text>
</a>
</g>
<!-- Node10&#45;&gt;Node11 -->
<g id="edge20" class="edge"><title>Node10&#45;&gt;Node11</title>
<path fill="none" stroke="midnightblue" d="M293.409,-94C309.947,-94 327.264,-94 343.311,-94"/>
<polygon fill="midnightblue" stroke="midnightblue" points="293.231,-90.5001 283.231,-94 293.231,-97.5001 293.231,-90.5001"/>
</g>
<!-- Node13 -->
<g id="node25" class="node"><title>Node13</title>
<a xlink:href="classioAtoms_1_1SWriter.html#a2ce40c407f54f86038b0f6f20fcbe616" target="_top" xlink:title="Configures the writer. ">
<polygon fill="white" stroke="black" points="336.5,-40.5 336.5,-61.5 481.5,-61.5 481.5,-40.5 336.5,-40.5"/>
<text text-anchor="middle" x="409" y="-48.5" font-family="Helvetica,sans-Serif" font-size="10.00">ioAtoms::SWriter::configuring</text>
</a>
</g>
<!-- Node12&#45;&gt;Node13 -->
<g id="edge24" class="edge"><title>Node12&#45;&gt;Node13</title>
<path fill="none" stroke="midnightblue" d="M282.604,-49.0353C299.904,-49.3042 318.626,-49.5952 336.226,-49.8688"/>
<polygon fill="midnightblue" stroke="midnightblue" points="282.656,-45.5358 272.602,-48.8798 282.547,-52.5349 282.656,-45.5358"/>
</g>
<!-- Node14 -->
<g id="node27" class="node"><title>Node14</title>
<a xlink:href="classioQt_1_1SPdfWriter.html#a8db1ef80560ec7086beb70860b6bd82e" target="_top" xlink:title="Configure service. This method is called by configure() from base service ( fwServices::IService ) ...">
<polygon fill="white" stroke="black" points="338,-0.5 338,-21.5 480,-21.5 480,-0.5 338,-0.5"/>
<text text-anchor="middle" x="409" y="-8.5" font-family="Helvetica,sans-Serif" font-size="10.00">ioQt::SPdfWriter::configuring</text>
</a>
</g>
<!-- Node12&#45;&gt;Node14 -->
<g id="edge26" class="edge"><title>Node12&#45;&gt;Node14</title>
<path fill="none" stroke="midnightblue" d="M280.785,-35.58C304.567,-31.0209 331.24,-25.9074 354.073,-21.53"/>
<polygon fill="midnightblue" stroke="midnightblue" points="279.952,-32.176 270.79,-37.4963 281.27,-39.0508 279.952,-32.176"/>
</g>
</g>
</svg>
