<?xml version="1.0" encoding="UTF-8" standalone="no"?>
<!DOCTYPE svg PUBLIC "-//W3C//DTD SVG 1.1//EN"
 "http://www.w3.org/Graphics/SVG/1.1/DTD/svg11.dtd">
<!-- Generated by graphviz version 2.36.0 (20140111.2315)
 -->
<!-- Title: fwDataTools::helper::MedicalImageAdaptor::worldToSliceIndex Pages: 1 -->
<svg width="434pt" height="109pt"
 viewBox="0.00 0.00 434.00 109.00" xmlns="http://www.w3.org/2000/svg" xmlns:xlink="http://www.w3.org/1999/xlink">
<g id="graph0" class="graph" transform="scale(1 1) rotate(0) translate(4 105)">
<title>fwDataTools::helper::MedicalImageAdaptor::worldToSliceIndex</title>
<polygon fill="white" stroke="none" points="-4,4 -4,-105 430,-105 430,4 -4,4"/>
<!-- Node1 -->
<g id="node1" class="node"><title>Node1</title>
<polygon fill="#bfbfbf" stroke="black" points="0.5,-29.5 0.5,-70.5 117.5,-70.5 117.5,-29.5 0.5,-29.5"/>
<text text-anchor="start" x="8.5" y="-58.5" font-family="Helvetica,sans-Serif" font-size="10.00">fwDataTools::helper</text>
<text text-anchor="start" x="8.5" y="-47.5" font-family="Helvetica,sans-Serif" font-size="10.00">::MedicalImageAdaptor</text>
<text text-anchor="middle" x="59" y="-36.5" font-family="Helvetica,sans-Serif" font-size="10.00">::worldToSliceIndex</text>
</g>
<!-- Node2 -->
<g id="node2" class="node"><title>Node2</title>
<g id="a_node2"><a xlink:href="classfwDataTools_1_1helper_1_1MedicalImageAdaptor.html#a1afbc74845a81ad7a6ac212e6dddbc1f" target="_top" xlink:title="Get the image origin. ">
<polygon fill="white" stroke="black" points="154.5,-59.5 154.5,-100.5 271.5,-100.5 271.5,-59.5 154.5,-59.5"/>
<text text-anchor="start" x="162.5" y="-88.5" font-family="Helvetica,sans-Serif" font-size="10.00">fwDataTools::helper</text>
<text text-anchor="start" x="162.5" y="-77.5" font-family="Helvetica,sans-Serif" font-size="10.00">::MedicalImageAdaptor</text>
<text text-anchor="middle" x="213" y="-66.5" font-family="Helvetica,sans-Serif" font-size="10.00">::getImageOrigin</text>
</a>
</g>
</g>
<!-- Node1&#45;&gt;Node2 -->
<g id="edge1" class="edge"><title>Node1&#45;&gt;Node2</title>
<path fill="none" stroke="midnightblue" d="M117.898,-61.4273C126.554,-63.1357 135.542,-64.9097 144.378,-66.6535"/>
<polygon fill="midnightblue" stroke="midnightblue" points="143.774,-70.1018 154.263,-68.6045 145.13,-63.2343 143.774,-70.1018"/>
</g>
<!-- Node4 -->
<g id="node4" class="node"><title>Node4</title>
<g id="a_node4"><a xlink:href="classfwDataTools_1_1helper_1_1MedicalImageAdaptor.html#a7e86c6ebadbb341c12b45dce752e4826" target="_top" xlink:title="Get the image spacing. ">
<polygon fill="white" stroke="black" points="154.5,0.5 154.5,-40.5 271.5,-40.5 271.5,0.5 154.5,0.5"/>
<text text-anchor="start" x="162.5" y="-28.5" font-family="Helvetica,sans-Serif" font-size="10.00">fwDataTools::helper</text>
<text text-anchor="start" x="162.5" y="-17.5" font-family="Helvetica,sans-Serif" font-size="10.00">::MedicalImageAdaptor</text>
<text text-anchor="middle" x="213" y="-6.5" font-family="Helvetica,sans-Serif" font-size="10.00">::getImageSpacing</text>
</a>
</g>
</g>
<!-- Node1&#45;&gt;Node4 -->
<g id="edge3" class="edge"><title>Node1&#45;&gt;Node4</title>
<path fill="none" stroke="midnightblue" d="M117.898,-38.5727C126.554,-36.8643 135.542,-35.0903 144.378,-33.3465"/>
<polygon fill="midnightblue" stroke="midnightblue" points="145.13,-36.7657 154.263,-31.3955 143.774,-29.8982 145.13,-36.7657"/>
</g>
<!-- Node3 -->
<g id="node3" class="node"><title>Node3</title>
<g id="a_node3"><a xlink:href="classfwDataTools_1_1helper_1_1MedicalImageAdaptor.html#aa37e3405cfdf002a1e6967b5d3daf05f" target="_top" xlink:title="Return the image. ">
<polygon fill="white" stroke="black" points="308.5,-29.5 308.5,-70.5 425.5,-70.5 425.5,-29.5 308.5,-29.5"/>
<text text-anchor="start" x="316.5" y="-58.5" font-family="Helvetica,sans-Serif" font-size="10.00">fwDataTools::helper</text>
<text text-anchor="start" x="316.5" y="-47.5" font-family="Helvetica,sans-Serif" font-size="10.00">::MedicalImageAdaptor</text>
<text text-anchor="middle" x="367" y="-36.5" font-family="Helvetica,sans-Serif" font-size="10.00">::getImage</text>
</a>
</g>
</g>
<!-- Node2&#45;&gt;Node3 -->
<g id="edge2" class="edge"><title>Node2&#45;&gt;Node3</title>
<path fill="none" stroke="midnightblue" d="M271.898,-68.5727C280.554,-66.8643 289.542,-65.0903 298.378,-63.3465"/>
<polygon fill="midnightblue" stroke="midnightblue" points="299.13,-66.7657 308.263,-61.3955 297.774,-59.8982 299.13,-66.7657"/>
</g>
<!-- Node4&#45;&gt;Node3 -->
<g id="edge4" class="edge"><title>Node4&#45;&gt;Node3</title>
<path fill="none" stroke="midnightblue" d="M271.898,-31.4273C280.554,-33.1357 289.542,-34.9097 298.378,-36.6535"/>
<polygon fill="midnightblue" stroke="midnightblue" points="297.774,-40.1018 308.263,-38.6045 299.13,-33.2343 297.774,-40.1018"/>
</g>
</g>
</svg>
