<?xml version="1.0" encoding="UTF-8" standalone="no"?>
<!DOCTYPE svg PUBLIC "-//W3C//DTD SVG 1.1//EN"
 "http://www.w3.org/Graphics/SVG/1.1/DTD/svg11.dtd">
<!-- Generated by graphviz version 2.36.0 (20140111.2315)
 -->
<!-- Title: visuVTKAdaptor::SInteractorStyle::stopping Pages: 1 -->
<svg width="472pt" height="185pt"
 viewBox="0.00 0.00 472.00 185.00" xmlns="http://www.w3.org/2000/svg" xmlns:xlink="http://www.w3.org/1999/xlink">
<g id="graph0" class="graph" transform="scale(1 1) rotate(0) translate(4 181)">
<title>visuVTKAdaptor::SInteractorStyle::stopping</title>
<polygon fill="white" stroke="none" points="-4,4 -4,-181 468,-181 468,4 -4,4"/>
<!-- Node1 -->
<g id="node1" class="node"><title>Node1</title>
<polygon fill="#bfbfbf" stroke="black" points="0,-73 0,-103 142,-103 142,-73 0,-73"/>
<text text-anchor="start" x="8" y="-91" font-family="Helvetica,sans-Serif" font-size="10.00">visuVTKAdaptor::SInteractor</text>
<text text-anchor="middle" x="71" y="-80" font-family="Helvetica,sans-Serif" font-size="10.00">Style::stopping</text>
</g>
<!-- Node2 -->
<g id="node2" class="node"><title>Node2</title>
<g id="a_node2"><a xlink:href="classfwRenderVTK_1_1IAdaptor.html#a40e8583048160a35d175fdfe6c081881" target="_top" xlink:title="Returns true if the service automatically triggers the rendering. ">
<polygon fill="white" stroke="black" points="181.5,-147 181.5,-177 302.5,-177 302.5,-147 181.5,-147"/>
<text text-anchor="start" x="189.5" y="-165" font-family="Helvetica,sans-Serif" font-size="10.00">fwRenderVTK::IAdaptor</text>
<text text-anchor="middle" x="242" y="-154" font-family="Helvetica,sans-Serif" font-size="10.00">::getAutoRender</text>
</a>
</g>
</g>
<!-- Node1&#45;&gt;Node2 -->
<g id="edge1" class="edge"><title>Node1&#45;&gt;Node2</title>
<path fill="none" stroke="midnightblue" d="M103.336,-103.038C124.33,-112.977 152.662,-126.126 178,-137 182.744,-139.036 187.713,-141.109 192.69,-143.145"/>
<polygon fill="midnightblue" stroke="midnightblue" points="191.631,-146.492 202.213,-146.999 194.256,-140.003 191.631,-146.492"/>
</g>
<!-- Node3 -->
<g id="node3" class="node"><title>Node3</title>
<g id="a_node3"><a xlink:href="classfwRenderVTK_1_1IAdaptor.html#aa18436bf7d438b32f7842265419d54e0" target="_top" xlink:title="Returns the render interactor. ">
<polygon fill="white" stroke="black" points="181.5,-98 181.5,-128 302.5,-128 302.5,-98 181.5,-98"/>
<text text-anchor="start" x="189.5" y="-116" font-family="Helvetica,sans-Serif" font-size="10.00">fwRenderVTK::IAdaptor</text>
<text text-anchor="middle" x="242" y="-105" font-family="Helvetica,sans-Serif" font-size="10.00">::getInteractor</text>
</a>
</g>
</g>
<!-- Node1&#45;&gt;Node3 -->
<g id="edge2" class="edge"><title>Node1&#45;&gt;Node3</title>
<path fill="none" stroke="midnightblue" d="M142.203,-98.3851C151.895,-99.8188 161.846,-101.291 171.525,-102.723"/>
<polygon fill="midnightblue" stroke="midnightblue" points="171.087,-106.196 181.491,-104.197 172.111,-99.2712 171.087,-106.196"/>
</g>
<!-- Node5 -->
<g id="node5" class="node"><title>Node5</title>
<g id="a_node5"><a xlink:href="classfwRenderVTK_1_1IInteractorStyle.html#ada554cb026c596d599e622ece5e9e710" target="_top" xlink:title="Set the autorender flag. ">
<polygon fill="white" stroke="black" points="178,-49 178,-79 306,-79 306,-49 178,-49"/>
<text text-anchor="start" x="186" y="-67" font-family="Helvetica,sans-Serif" font-size="10.00">fwRenderVTK::IInteractor</text>
<text text-anchor="middle" x="242" y="-56" font-family="Helvetica,sans-Serif" font-size="10.00">Style::setAutoRender</text>
</a>
</g>
</g>
<!-- Node1&#45;&gt;Node5 -->
<g id="edge4" class="edge"><title>Node1&#45;&gt;Node5</title>
<path fill="none" stroke="midnightblue" d="M142.203,-78.0303C150.677,-76.827 159.348,-75.5956 167.863,-74.3864"/>
<polygon fill="midnightblue" stroke="midnightblue" points="168.356,-77.8515 177.765,-72.9802 167.372,-70.921 168.356,-77.8515"/>
</g>
<!-- Node6 -->
<g id="node6" class="node"><title>Node6</title>
<g id="a_node6"><a xlink:href="classfwRenderVTK_1_1IAdaptor.html#a0fd9eb8ee07f2e7d53b27c6bbe8994eb" target="_top" xlink:title="End&#45;user have to call this method when a vtk structure has been modified, thus a render request will ...">
<polygon fill="white" stroke="black" points="181,-0 181,-30 303,-30 303,-0 181,-0"/>
<text text-anchor="start" x="189" y="-18" font-family="Helvetica,sans-Serif" font-size="10.00">fwRenderVTK::IAdaptor</text>
<text text-anchor="middle" x="242" y="-7" font-family="Helvetica,sans-Serif" font-size="10.00">::setVtkPipelineModified</text>
</a>
</g>
</g>
<!-- Node1&#45;&gt;Node6 -->
<g id="edge5" class="edge"><title>Node1&#45;&gt;Node6</title>
<path fill="none" stroke="midnightblue" d="M104.299,-72.8939C125.208,-63.2342 153.082,-50.5787 178,-40 182.752,-37.9824 187.726,-35.9221 192.706,-33.8929"/>
<polygon fill="midnightblue" stroke="midnightblue" points="194.27,-37.0363 202.233,-30.0485 191.65,-30.5448 194.27,-37.0363"/>
</g>
<!-- Node4 -->
<g id="node4" class="node"><title>Node4</title>
<g id="a_node4"><a xlink:href="classfwRenderVTK_1_1IAdaptor.html#a2865c053e101328ca2cf3ca8306d4d10" target="_top" xlink:title="Returns the renderer. ">
<polygon fill="white" stroke="black" points="342.5,-98 342.5,-128 463.5,-128 463.5,-98 342.5,-98"/>
<text text-anchor="start" x="350.5" y="-116" font-family="Helvetica,sans-Serif" font-size="10.00">fwRenderVTK::IAdaptor</text>
<text text-anchor="middle" x="403" y="-105" font-family="Helvetica,sans-Serif" font-size="10.00">::getRenderer</text>
</a>
</g>
</g>
<!-- Node3&#45;&gt;Node4 -->
<g id="edge3" class="edge"><title>Node3&#45;&gt;Node4</title>
<path fill="none" stroke="midnightblue" d="M302.658,-113C312.272,-113 322.3,-113 332.128,-113"/>
<polygon fill="midnightblue" stroke="midnightblue" points="332.272,-116.5 342.272,-113 332.272,-109.5 332.272,-116.5"/>
</g>
</g>
</svg>
