<?xml version="1.0" encoding="UTF-8" standalone="no"?>
<!DOCTYPE svg PUBLIC "-//W3C//DTD SVG 1.1//EN"
 "http://www.w3.org/Graphics/SVG/1.1/DTD/svg11.dtd">
<!-- Generated by graphviz version 2.26.3 (20100126.1600)
 -->
<!-- Title: fwGui::registrar::MenuBarRegistrar Pages: 1 -->
<svg width="138pt" height="232pt"
 viewBox="0.00 0.00 138.00 232.00" xmlns="http://www.w3.org/2000/svg" xmlns:xlink="http://www.w3.org/1999/xlink">
<g id="graph1" class="graph" transform="scale(1 1) rotate(0) translate(4 228)">
<title>fwGui::registrar::MenuBarRegistrar</title>
<polygon fill="white" stroke="white" points="-4,5 -4,-228 135,-228 135,5 -4,5"/>
<!-- Node1 -->
<g id="node1" class="node"><title>Node1</title>
<polygon fill="#bfbfbf" stroke="black" points="1,-1 1,-35 129,-35 129,-1 1,-1"/>
<text text-anchor="start" x="9" y="-22" font-family="Helvetica,sans-Serif" font-size="10.00">fwGui::registrar::MenuBar</text>
<text text-anchor="middle" x="65" y="-9" font-family="Helvetica,sans-Serif" font-size="10.00">Registrar</text>
</g>
<!-- Node2 -->
<g id="node2" class="node"><title>Node2</title>
<a xlink:href="classfwGui_1_1GuiBaseObject.html" target="_top" xlink:title="Base class for all fwGui&#39;s classes. ">
<polygon fill="white" stroke="black" points="8,-72.5 8,-93.5 122,-93.5 122,-72.5 8,-72.5"/>
<text text-anchor="middle" x="65" y="-80.5" font-family="Helvetica,sans-Serif" font-size="10.00">fwGui::GuiBaseObject</text>
</a>
</g>
<!-- Node2&#45;&gt;Node1 -->
<g id="edge2" class="edge"><title>Node2&#45;&gt;Node1</title>
<path fill="none" stroke="midnightblue" d="M65,-62.1306C65,-53.4049 65,-43.3908 65,-35.1099"/>
<polygon fill="midnightblue" stroke="midnightblue" points="61.5001,-62.2665 65,-72.2666 68.5001,-62.2666 61.5001,-62.2665"/>
</g>
<!-- Node3 -->
<g id="node4" class="node"><title>Node3</title>
<a xlink:href="classfwCore_1_1BaseObject.html" target="_top" xlink:title="Base class for all FW4SPL&#39;s classes. ">
<polygon fill="white" stroke="black" points="12.5,-130.5 12.5,-151.5 117.5,-151.5 117.5,-130.5 12.5,-130.5"/>
<text text-anchor="middle" x="65" y="-138.5" font-family="Helvetica,sans-Serif" font-size="10.00">fwCore::BaseObject</text>
</a>
</g>
<!-- Node3&#45;&gt;Node2 -->
<g id="edge4" class="edge"><title>Node3&#45;&gt;Node2</title>
<path fill="none" stroke="midnightblue" d="M65,-120.191C65,-111.168 65,-100.994 65,-93.5707"/>
<polygon fill="midnightblue" stroke="midnightblue" points="61.5001,-120.362 65,-130.362 68.5001,-120.362 61.5001,-120.362"/>
</g>
<!-- Node4 -->
<g id="node6" class="node"><title>Node4</title>
<polygon fill="white" stroke="#bfbfbf" points="-0.5,-189 -0.5,-223 130.5,-223 130.5,-189 -0.5,-189"/>
<text text-anchor="start" x="7.5" y="-210" font-family="Helvetica,sans-Serif" font-size="10.00">std::enable_shared</text>
<text text-anchor="middle" x="65" y="-197" font-family="Helvetica,sans-Serif" font-size="10.00">_from_this&lt; BaseObject &gt;</text>
</g>
<!-- Node4&#45;&gt;Node3 -->
<g id="edge6" class="edge"><title>Node4&#45;&gt;Node3</title>
<path fill="none" stroke="midnightblue" d="M65,-178.688C65,-169.242 65,-159.195 65,-151.852"/>
<polygon fill="midnightblue" stroke="midnightblue" points="61.5001,-178.922 65,-188.922 68.5001,-178.922 61.5001,-178.922"/>
</g>
</g>
</svg>
