<?xml version="1.0" encoding="UTF-8" standalone="no"?>
<!DOCTYPE svg PUBLIC "-//W3C//DTD SVG 1.1//EN"
 "http://www.w3.org/Graphics/SVG/1.1/DTD/svg11.dtd">
<!-- Generated by graphviz version 2.26.3 (20100126.1600)
 -->
<!-- Title: fwGui::dialog::MessageDialog Pages: 1 -->
<svg width="158pt" height="276pt"
 viewBox="0.00 0.00 158.00 276.00" xmlns="http://www.w3.org/2000/svg" xmlns:xlink="http://www.w3.org/1999/xlink">
<g id="graph1" class="graph" transform="scale(1 1) rotate(0) translate(4 272)">
<title>fwGui::dialog::MessageDialog</title>
<polygon fill="white" stroke="white" points="-4,5 -4,-272 155,-272 155,5 -4,5"/>
<!-- Node1 -->
<g id="node1" class="node"><title>Node1</title>
<polygon fill="#bfbfbf" stroke="black" points="1.5,-0.5 1.5,-21.5 148.5,-21.5 148.5,-0.5 1.5,-0.5"/>
<text text-anchor="middle" x="75" y="-8.5" font-family="Helvetica,sans-Serif" font-size="10.00">fwGui::dialog::MessageDialog</text>
</g>
<!-- Node2 -->
<g id="node2" class="node"><title>Node2</title>
<a xlink:href="classfwGui_1_1dialog_1_1IMessageDialog.html" target="_top" xlink:title="Defines the generic message box for IHM. ">
<polygon fill="white" stroke="black" points="0,-58.5 0,-79.5 150,-79.5 150,-58.5 0,-58.5"/>
<text text-anchor="middle" x="75" y="-66.5" font-family="Helvetica,sans-Serif" font-size="10.00">fwGui::dialog::IMessageDialog</text>
</a>
</g>
<!-- Node2&#45;&gt;Node1 -->
<g id="edge2" class="edge"><title>Node2&#45;&gt;Node1</title>
<path fill="none" stroke="midnightblue" d="M75,-48.1906C75,-39.1684 75,-28.9941 75,-21.5707"/>
<polygon fill="midnightblue" stroke="midnightblue" points="71.5001,-48.3619 75,-58.3619 78.5001,-48.3619 71.5001,-48.3619"/>
</g>
<!-- Node3 -->
<g id="node4" class="node"><title>Node3</title>
<a xlink:href="classfwGui_1_1GuiBaseObject.html" target="_top" xlink:title="Base class for all fwGui&#39;s classes. ">
<polygon fill="white" stroke="black" points="18,-116.5 18,-137.5 132,-137.5 132,-116.5 18,-116.5"/>
<text text-anchor="middle" x="75" y="-124.5" font-family="Helvetica,sans-Serif" font-size="10.00">fwGui::GuiBaseObject</text>
</a>
</g>
<!-- Node3&#45;&gt;Node2 -->
<g id="edge4" class="edge"><title>Node3&#45;&gt;Node2</title>
<path fill="none" stroke="midnightblue" d="M75,-106.191C75,-97.1684 75,-86.9941 75,-79.5707"/>
<polygon fill="midnightblue" stroke="midnightblue" points="71.5001,-106.362 75,-116.362 78.5001,-106.362 71.5001,-106.362"/>
</g>
<!-- Node4 -->
<g id="node6" class="node"><title>Node4</title>
<a xlink:href="classfwCore_1_1BaseObject.html" target="_top" xlink:title="Base class for all FW4SPL&#39;s classes. ">
<polygon fill="white" stroke="black" points="22.5,-174.5 22.5,-195.5 127.5,-195.5 127.5,-174.5 22.5,-174.5"/>
<text text-anchor="middle" x="75" y="-182.5" font-family="Helvetica,sans-Serif" font-size="10.00">fwCore::BaseObject</text>
</a>
</g>
<!-- Node4&#45;&gt;Node3 -->
<g id="edge6" class="edge"><title>Node4&#45;&gt;Node3</title>
<path fill="none" stroke="midnightblue" d="M75,-164.191C75,-155.168 75,-144.994 75,-137.571"/>
<polygon fill="midnightblue" stroke="midnightblue" points="71.5001,-164.362 75,-174.362 78.5001,-164.362 71.5001,-164.362"/>
</g>
<!-- Node5 -->
<g id="node8" class="node"><title>Node5</title>
<polygon fill="white" stroke="#bfbfbf" points="9.5,-233 9.5,-267 140.5,-267 140.5,-233 9.5,-233"/>
<text text-anchor="start" x="17.5" y="-254" font-family="Helvetica,sans-Serif" font-size="10.00">std::enable_shared</text>
<text text-anchor="middle" x="75" y="-241" font-family="Helvetica,sans-Serif" font-size="10.00">_from_this&lt; BaseObject &gt;</text>
</g>
<!-- Node5&#45;&gt;Node4 -->
<g id="edge8" class="edge"><title>Node5&#45;&gt;Node4</title>
<path fill="none" stroke="midnightblue" d="M75,-222.688C75,-213.242 75,-203.195 75,-195.852"/>
<polygon fill="midnightblue" stroke="midnightblue" points="71.5001,-222.922 75,-232.922 78.5001,-222.922 71.5001,-222.922"/>
</g>
</g>
</svg>
