<?xml version="1.0" encoding="UTF-8" standalone="no"?>
<!DOCTYPE svg PUBLIC "-//W3C//DTD SVG 1.1//EN"
 "http://www.w3.org/Graphics/SVG/1.1/DTD/svg11.dtd">
<!-- Generated by graphviz version 2.26.3 (20100126.1600)
 -->
<!-- Title: ioPacs::SSeriesPusher Pages: 1 -->
<svg width="1736pt" height="335pt"
 viewBox="0.00 0.00 1736.00 335.00" xmlns="http://www.w3.org/2000/svg" xmlns:xlink="http://www.w3.org/1999/xlink">
<g id="graph1" class="graph" transform="scale(1 1) rotate(0) translate(4 331)">
<title>ioPacs::SSeriesPusher</title>
<polygon fill="white" stroke="white" points="-4,5 -4,-331 1733,-331 1733,5 -4,5"/>
<!-- Node1 -->
<g id="node1" class="node"><title>Node1</title>
<polygon fill="#bfbfbf" stroke="black" points="1610,-58.5 1610,-79.5 1728,-79.5 1728,-58.5 1610,-58.5"/>
<text text-anchor="middle" x="1669" y="-66.5" font-family="Helvetica,sans-Serif" font-size="10.00">ioPacs::SSeriesPusher</text>
</g>
<!-- Node2 -->
<g id="node2" class="node"><title>Node2</title>
<a xlink:href="classfwServices_1_1IController.html" target="_top" xlink:title="This interface defines control service API. Does nothing particularly, can be considered as a default...">
<polygon fill="white" stroke="black" points="1378,-148.5 1378,-169.5 1494,-169.5 1494,-148.5 1378,-148.5"/>
<text text-anchor="middle" x="1436" y="-156.5" font-family="Helvetica,sans-Serif" font-size="10.00">fwServices::IController</text>
</a>
</g>
<!-- Node2&#45;&gt;Node1 -->
<g id="edge2" class="edge"><title>Node2&#45;&gt;Node1</title>
<path fill="none" stroke="midnightblue" d="M1476.16,-145.007C1507.8,-133.818 1552.94,-117.493 1592,-102 1609.98,-94.8682 1630.06,-86.2396 1645.21,-79.5945"/>
<polygon fill="midnightblue" stroke="midnightblue" points="1474.65,-141.827 1466.38,-148.452 1476.98,-148.429 1474.65,-141.827"/>
</g>
<!-- Node3 -->
<g id="node4" class="node"><title>Node3</title>
<a xlink:href="classfwServices_1_1IService.html" target="_top" xlink:title="Base class for all services. ">
<polygon fill="white" stroke="black" points="1112.5,-242.5 1112.5,-263.5 1219.5,-263.5 1219.5,-242.5 1112.5,-242.5"/>
<text text-anchor="middle" x="1166" y="-250.5" font-family="Helvetica,sans-Serif" font-size="10.00">fwServices::IService</text>
</a>
</g>
<!-- Node3&#45;&gt;Node2 -->
<g id="edge4" class="edge"><title>Node3&#45;&gt;Node2</title>
<path fill="none" stroke="midnightblue" d="M1205.84,-239.131C1260.24,-220.189 1356.61,-186.638 1405.59,-169.586"/>
<polygon fill="midnightblue" stroke="midnightblue" points="1204.48,-235.897 1196.19,-242.491 1206.78,-242.508 1204.48,-235.897"/>
</g>
<!-- Node4 -->
<g id="node6" class="node"><title>Node4</title>
<a xlink:href="classfwTools_1_1Object.html" target="_top" xlink:title="Define Base class for FW4SPL objects and services. ">
<polygon fill="white" stroke="black" points="879,-263.5 879,-284.5 965,-284.5 965,-263.5 879,-263.5"/>
<text text-anchor="middle" x="922" y="-271.5" font-family="Helvetica,sans-Serif" font-size="10.00">fwTools::Object</text>
</a>
</g>
<!-- Node4&#45;&gt;Node3 -->
<g id="edge6" class="edge"><title>Node4&#45;&gt;Node3</title>
<path fill="none" stroke="midnightblue" d="M975.396,-272.183C1009.41,-270.708 1054.37,-268.17 1094,-264 1099.91,-263.378 1106.08,-262.614 1112.21,-261.78"/>
<polygon fill="midnightblue" stroke="midnightblue" points="975.055,-268.694 965.21,-272.608 975.347,-275.688 975.055,-268.694"/>
</g>
<!-- Node5 -->
<g id="node8" class="node"><title>Node5</title>
<a xlink:href="classfwCore_1_1BaseObject.html" target="_top" xlink:title="Base class for all FW4SPL&#39;s classes. ">
<polygon fill="white" stroke="black" points="680.5,-223.5 680.5,-244.5 785.5,-244.5 785.5,-223.5 680.5,-223.5"/>
<text text-anchor="middle" x="733" y="-231.5" font-family="Helvetica,sans-Serif" font-size="10.00">fwCore::BaseObject</text>
</a>
</g>
<!-- Node5&#45;&gt;Node4 -->
<g id="edge8" class="edge"><title>Node5&#45;&gt;Node4</title>
<path fill="none" stroke="midnightblue" d="M792.712,-246.637C820.64,-252.548 853.28,-259.456 878.777,-264.852"/>
<polygon fill="midnightblue" stroke="midnightblue" points="793.166,-243.156 782.658,-244.51 791.716,-250.004 793.166,-243.156"/>
</g>
<!-- Node6 -->
<g id="node10" class="node"><title>Node6</title>
<polygon fill="white" stroke="#bfbfbf" points="449.5,-218 449.5,-252 580.5,-252 580.5,-218 449.5,-218"/>
<text text-anchor="start" x="457.5" y="-239" font-family="Helvetica,sans-Serif" font-size="10.00">std::enable_shared</text>
<text text-anchor="middle" x="515" y="-226" font-family="Helvetica,sans-Serif" font-size="10.00">_from_this&lt; BaseObject &gt;</text>
</g>
<!-- Node6&#45;&gt;Node5 -->
<g id="edge10" class="edge"><title>Node6&#45;&gt;Node5</title>
<path fill="none" stroke="midnightblue" d="M590.959,-234.652C620.418,-234.516 653.435,-234.365 680.216,-234.242"/>
<polygon fill="midnightblue" stroke="midnightblue" points="590.687,-231.153 580.703,-234.699 590.719,-238.153 590.687,-231.153"/>
</g>
<!-- Node7 -->
<g id="node12" class="node"><title>Node7</title>
<a xlink:href="classfwTools_1_1fwID.html" target="_top" xlink:title="Defines ID for fwTools::Object. It is used to associate ID with object. ">
<polygon fill="white" stroke="black" points="694,-263.5 694,-284.5 772,-284.5 772,-263.5 694,-263.5"/>
<text text-anchor="middle" x="733" y="-271.5" font-family="Helvetica,sans-Serif" font-size="10.00">fwTools::fwID</text>
</a>
</g>
<!-- Node7&#45;&gt;Node4 -->
<g id="edge12" class="edge"><title>Node7&#45;&gt;Node4</title>
<path fill="none" stroke="darkgreen" d="M782.399,-274C812.353,-274 850.205,-274 878.936,-274"/>
<polygon fill="darkgreen" stroke="darkgreen" points="782.161,-270.5 772.161,-274 782.161,-277.5 782.161,-270.5"/>
</g>
<!-- Node8 -->
<g id="node14" class="node"><title>Node8</title>
<a xlink:href="classfwCom_1_1HasSlots.html" target="_top" xlink:title="This class proposes a mapping between a SlotKeyType and a SlotBase. ">
<polygon fill="white" stroke="black" points="874.5,-303.5 874.5,-324.5 969.5,-324.5 969.5,-303.5 874.5,-303.5"/>
<text text-anchor="middle" x="922" y="-311.5" font-family="Helvetica,sans-Serif" font-size="10.00">fwCom::HasSlots</text>
</a>
</g>
<!-- Node8&#45;&gt;Node3 -->
<g id="edge14" class="edge"><title>Node8&#45;&gt;Node3</title>
<path fill="none" stroke="midnightblue" d="M979.764,-305.603C1013.44,-300.044 1056.53,-291.784 1094,-281 1110.37,-276.289 1128.22,-269.361 1142.05,-263.575"/>
<polygon fill="midnightblue" stroke="midnightblue" points="978.945,-302.19 969.632,-307.242 980.062,-309.101 978.945,-302.19"/>
</g>
<!-- Node9 -->
<g id="node16" class="node"><title>Node9</title>
<a xlink:href="classfwCom_1_1Slots.html" target="_top" xlink:title="This class proposes a mapping between a SlotKeyType and a SlotBase. ">
<polygon fill="white" stroke="black" points="694.5,-303.5 694.5,-324.5 771.5,-324.5 771.5,-303.5 694.5,-303.5"/>
<text text-anchor="middle" x="733" y="-311.5" font-family="Helvetica,sans-Serif" font-size="10.00">fwCom::Slots</text>
</a>
</g>
<!-- Node9&#45;&gt;Node8 -->
<g id="edge16" class="edge"><title>Node9&#45;&gt;Node8</title>
<path fill="none" stroke="#9a32cd" stroke-dasharray="5,2" d="M781.832,-314C810.292,-314 846.028,-314 874.293,-314"/>
<polygon fill="#9a32cd" stroke="#9a32cd" points="781.703,-310.5 771.703,-314 781.703,-317.5 781.703,-310.5"/>
<text text-anchor="middle" x="828" y="-318" font-family="Helvetica,sans-Serif" font-size="10.00"> m_slots</text>
</g>
<!-- Node10 -->
<g id="node18" class="node"><title>Node10</title>
<polygon fill="white" stroke="#bfbfbf" points="439,-276 439,-310 591,-310 591,-276 439,-276"/>
<text text-anchor="start" x="447" y="-297" font-family="Helvetica,sans-Serif" font-size="10.00">std::map&lt; SlotKeyType,</text>
<text text-anchor="middle" x="515" y="-284" font-family="Helvetica,sans-Serif" font-size="10.00"> std::shared_ptr&lt; SlotBase &gt; &gt;</text>
</g>
<!-- Node10&#45;&gt;Node9 -->
<g id="edge18" class="edge"><title>Node10&#45;&gt;Node9</title>
<path fill="none" stroke="#9a32cd" stroke-dasharray="5,2" d="M601.588,-301.341C633.782,-304.442 668.703,-307.806 694.45,-310.286"/>
<polygon fill="#9a32cd" stroke="#9a32cd" points="601.535,-297.82 591.246,-300.345 600.864,-304.788 601.535,-297.82"/>
<text text-anchor="middle" x="638" y="-310" font-family="Helvetica,sans-Serif" font-size="10.00"> m_slots</text>
</g>
<!-- Node11 -->
<g id="node20" class="node"><title>Node11</title>
<a xlink:title="STL class. ">
<polygon fill="white" stroke="#bfbfbf" points="192,-161.5 192,-182.5 252,-182.5 252,-161.5 192,-161.5"/>
<text text-anchor="middle" x="222" y="-169.5" font-family="Helvetica,sans-Serif" font-size="10.00">std::string</text>
</a>
</g>
<!-- Node11&#45;&gt;Node1 -->
<g id="edge42" class="edge"><title>Node11&#45;&gt;Node1</title>
<path fill="none" stroke="#9a32cd" stroke-dasharray="5,2" d="M244.351,-155.453C291.672,-122.11 406.552,-50 515,-50 515,-50 515,-50 1436,-50 1495.26,-50 1562.71,-56.1799 1609.73,-61.4907"/>
<polygon fill="#9a32cd" stroke="#9a32cd" points="242.157,-152.719 236.063,-161.387 246.232,-158.411 242.157,-152.719"/>
<text text-anchor="middle" x="922" y="-54" font-family="Helvetica,sans-Serif" font-size="10.00"> m_progressbarId</text>
</g>
<!-- Node11&#45;&gt;Node10 -->
<g id="edge20" class="edge"><title>Node11&#45;&gt;Node10</title>
<path fill="none" stroke="#9a32cd" stroke-dasharray="5,2" d="M235.669,-190.869C247.321,-205.433 265.42,-224.77 286,-235 338.288,-260.992 359.574,-238.977 416,-254 416.77,-254.205 445.478,-265.522 471.78,-275.911"/>
<polygon fill="#9a32cd" stroke="#9a32cd" points="238.145,-188.346 229.283,-182.541 232.591,-192.606 238.145,-188.346"/>
<text text-anchor="middle" x="351" y="-258" font-family="Helvetica,sans-Serif" font-size="10.00"> keys</text>
</g>
<!-- Node18 -->
<g id="node34" class="node"><title>Node18</title>
<polygon fill="white" stroke="#bfbfbf" points="434.5,-166 434.5,-200 595.5,-200 595.5,-166 434.5,-166"/>
<text text-anchor="start" x="442.5" y="-187" font-family="Helvetica,sans-Serif" font-size="10.00">std::map&lt; SignalKeyType,</text>
<text text-anchor="middle" x="515" y="-174" font-family="Helvetica,sans-Serif" font-size="10.00"> std::shared_ptr&lt; SignalBase &gt; &gt;</text>
</g>
<!-- Node11&#45;&gt;Node18 -->
<g id="edge36" class="edge"><title>Node11&#45;&gt;Node18</title>
<path fill="none" stroke="#9a32cd" stroke-dasharray="5,2" d="M262.492,-171.085C301.761,-170.463 363.008,-170.194 416,-173 421.952,-173.315 428.097,-173.727 434.276,-174.204"/>
<polygon fill="#9a32cd" stroke="#9a32cd" points="262.206,-167.589 252.269,-171.263 262.328,-174.588 262.206,-167.589"/>
<text text-anchor="middle" x="351" y="-177" font-family="Helvetica,sans-Serif" font-size="10.00"> keys</text>
</g>
<!-- Node12 -->
<g id="node22" class="node"><title>Node12</title>
<a xlink:title="STL class. ">
<polygon fill="white" stroke="#bfbfbf" points="0.5,-155 0.5,-189 95.5,-189 95.5,-155 0.5,-155"/>
<text text-anchor="start" x="8.5" y="-176" font-family="Helvetica,sans-Serif" font-size="10.00">std::basic_string&lt;</text>
<text text-anchor="middle" x="48" y="-163" font-family="Helvetica,sans-Serif" font-size="10.00"> char &gt;</text>
</a>
</g>
<!-- Node12&#45;&gt;Node11 -->
<g id="edge22" class="edge"><title>Node12&#45;&gt;Node11</title>
<path fill="none" stroke="midnightblue" d="M105.887,-172C134.618,-172 168.136,-172 191.754,-172"/>
<polygon fill="midnightblue" stroke="midnightblue" points="105.546,-168.5 95.5463,-172 105.546,-175.5 105.546,-168.5"/>
</g>
<!-- Node13 -->
<g id="node24" class="node"><title>Node13</title>
<a xlink:title="STL class. ">
<polygon fill="white" stroke="#bfbfbf" points="176,-254.5 176,-275.5 268,-275.5 268,-254.5 176,-254.5"/>
<text text-anchor="middle" x="222" y="-262.5" font-family="Helvetica,sans-Serif" font-size="10.00">std::map&lt; K, T &gt;</text>
</a>
</g>
<!-- Node13&#45;&gt;Node10 -->
<g id="edge24" class="edge"><title>Node13&#45;&gt;Node10</title>
<path fill="none" stroke="orange" stroke-dasharray="5,2" d="M278.117,-270.363C323.768,-274.725 388.637,-280.924 438.953,-285.733"/>
<polygon fill="orange" stroke="orange" points="278.391,-266.873 268.104,-269.406 277.725,-273.841 278.391,-266.873"/>
<text text-anchor="start" x="291.5" y="-300" font-family="Helvetica,sans-Serif" font-size="10.00"> &lt; SlotKeyType, std</text>
<text text-anchor="middle" x="351" y="-287" font-family="Helvetica,sans-Serif" font-size="10.00">::shared_ptr&lt; SlotBase &gt; &gt;</text>
</g>
<!-- Node13&#45;&gt;Node18 -->
<g id="edge38" class="edge"><title>Node13&#45;&gt;Node18</title>
<path fill="none" stroke="orange" stroke-dasharray="5,2" d="M237.59,-246.369C249.453,-233.567 266.945,-217.417 286,-209 311.941,-197.542 379.365,-190.801 434.379,-187.067"/>
<polygon fill="orange" stroke="orange" points="234.673,-244.383 230.647,-254.183 239.905,-249.032 234.673,-244.383"/>
<text text-anchor="start" x="286.5" y="-226" font-family="Helvetica,sans-Serif" font-size="10.00"> &lt; SignalKeyType, std</text>
<text text-anchor="middle" x="351" y="-213" font-family="Helvetica,sans-Serif" font-size="10.00">::shared_ptr&lt; SignalBase &gt; &gt;</text>
</g>
<!-- Node14 -->
<g id="node26" class="node"><title>Node14</title>
<polygon fill="white" stroke="#bfbfbf" points="33.5,-234.5 33.5,-255.5 62.5,-255.5 62.5,-234.5 33.5,-234.5"/>
<text text-anchor="middle" x="48" y="-242.5" font-family="Helvetica,sans-Serif" font-size="10.00">K</text>
</g>
<!-- Node14&#45;&gt;Node13 -->
<g id="edge26" class="edge"><title>Node14&#45;&gt;Node13</title>
<path fill="none" stroke="#9a32cd" stroke-dasharray="5,2" d="M72.9653,-244.825C95.339,-244.979 129.004,-245.978 158,-250 165.913,-251.098 174.283,-252.716 182.27,-254.489"/>
<polygon fill="#9a32cd" stroke="#9a32cd" points="72.6745,-241.325 62.669,-244.809 72.6635,-248.325 72.6745,-241.325"/>
<text text-anchor="middle" x="136" y="-254" font-family="Helvetica,sans-Serif" font-size="10.00"> keys</text>
</g>
<!-- Node15 -->
<g id="node28" class="node"><title>Node15</title>
<polygon fill="white" stroke="#bfbfbf" points="33.5,-274.5 33.5,-295.5 62.5,-295.5 62.5,-274.5 33.5,-274.5"/>
<text text-anchor="middle" x="48" y="-282.5" font-family="Helvetica,sans-Serif" font-size="10.00">T</text>
</g>
<!-- Node15&#45;&gt;Node13 -->
<g id="edge28" class="edge"><title>Node15&#45;&gt;Node13</title>
<path fill="none" stroke="#9a32cd" stroke-dasharray="5,2" d="M72.5869,-282.174C99.3704,-279.095 142.819,-274.101 175.976,-270.29"/>
<polygon fill="#9a32cd" stroke="#9a32cd" points="72.0708,-278.71 62.5359,-283.329 72.8701,-285.664 72.0708,-278.71"/>
<text text-anchor="middle" x="136" y="-281" font-family="Helvetica,sans-Serif" font-size="10.00"> elements</text>
</g>
<!-- Node16 -->
<g id="node30" class="node"><title>Node16</title>
<a xlink:href="classfwCom_1_1HasSignals.html" target="_top" xlink:title="This class proposes a mapping between a SignalKeyType and a SignalBase. ">
<polygon fill="white" stroke="black" points="870,-203.5 870,-224.5 974,-224.5 974,-203.5 870,-203.5"/>
<text text-anchor="middle" x="922" y="-211.5" font-family="Helvetica,sans-Serif" font-size="10.00">fwCom::HasSignals</text>
</a>
</g>
<!-- Node16&#45;&gt;Node3 -->
<g id="edge30" class="edge"><title>Node16&#45;&gt;Node3</title>
<path fill="none" stroke="midnightblue" d="M955.966,-228.154C967.249,-232.306 979.997,-236.421 992,-239 1031.7,-247.531 1077.52,-250.967 1112.16,-252.304"/>
<polygon fill="midnightblue" stroke="midnightblue" points="957.075,-224.83 946.484,-224.532 954.577,-231.37 957.075,-224.83"/>
</g>
<!-- Node17 -->
<g id="node32" class="node"><title>Node17</title>
<a xlink:href="classfwCom_1_1Signals.html" target="_top" xlink:title="This class proposes a mapping between a SignalKeyType and a SignalBase. ">
<polygon fill="white" stroke="black" points="690,-177.5 690,-198.5 776,-198.5 776,-177.5 690,-177.5"/>
<text text-anchor="middle" x="733" y="-185.5" font-family="Helvetica,sans-Serif" font-size="10.00">fwCom::Signals</text>
</a>
</g>
<!-- Node17&#45;&gt;Node16 -->
<g id="edge32" class="edge"><title>Node17&#45;&gt;Node16</title>
<path fill="none" stroke="#9a32cd" stroke-dasharray="5,2" d="M786.454,-195.353C812.549,-198.943 843.828,-203.246 869.76,-206.813"/>
<polygon fill="#9a32cd" stroke="#9a32cd" points="786.744,-191.86 776.36,-193.965 785.79,-198.795 786.744,-191.86"/>
<text text-anchor="middle" x="828" y="-208" font-family="Helvetica,sans-Serif" font-size="10.00"> m_signals</text>
</g>
<!-- Node18&#45;&gt;Node17 -->
<g id="edge34" class="edge"><title>Node18&#45;&gt;Node17</title>
<path fill="none" stroke="#9a32cd" stroke-dasharray="5,2" d="M605.751,-185.081C634.826,-185.748 665.684,-186.456 689.73,-187.008"/>
<polygon fill="#9a32cd" stroke="#9a32cd" points="605.633,-181.578 595.556,-184.848 605.473,-188.576 605.633,-181.578"/>
<text text-anchor="middle" x="638" y="-190" font-family="Helvetica,sans-Serif" font-size="10.00"> m_signals</text>
</g>
<!-- Node19 -->
<g id="node38" class="node"><title>Node19</title>
<polygon fill="white" stroke="#bfbfbf" points="901.5,-96.5 901.5,-117.5 942.5,-117.5 942.5,-96.5 901.5,-96.5"/>
<text text-anchor="middle" x="922" y="-104.5" font-family="Helvetica,sans-Serif" font-size="10.00">static</text>
</g>
<!-- Node19&#45;&gt;Node1 -->
<g id="edge46" class="edge"><title>Node19&#45;&gt;Node1</title>
<path fill="none" stroke="#9a32cd" stroke-dasharray="5,2" d="M952.67,-104.659C964.902,-103.764 979.113,-102.774 992,-102 1220.17,-88.2918 1491.86,-76.3867 1609.66,-71.4411"/>
<polygon fill="#9a32cd" stroke="#9a32cd" points="952.227,-101.182 942.514,-105.412 952.746,-108.162 952.227,-101.182"/>
<text text-anchor="middle" x="1299" y="-157" font-family="Helvetica,sans-Serif" font-size="10.00"> s_DISPLAY_SLOT</text>
<text text-anchor="start" x="1238.5" y="-144" font-family="Helvetica,sans-Serif" font-size="10.00">s_STOPPED_PROGRESS</text>
<text text-anchor="middle" x="1299" y="-131" font-family="Helvetica,sans-Serif" font-size="10.00">_SIG</text>
<text text-anchor="start" x="1238.5" y="-118" font-family="Helvetica,sans-Serif" font-size="10.00">s_STARTED_PROGRESS</text>
<text text-anchor="middle" x="1299" y="-105" font-family="Helvetica,sans-Serif" font-size="10.00">_SIG</text>
<text text-anchor="middle" x="1299" y="-92" font-family="Helvetica,sans-Serif" font-size="10.00">s_PROGRESSED_SIG</text>
</g>
<!-- Node19&#45;&gt;Node3 -->
<g id="edge40" class="edge"><title>Node19&#45;&gt;Node3</title>
<path fill="none" stroke="#9a32cd" stroke-dasharray="5,2" d="M952.991,-105.458C996.11,-103.898 1071.45,-103.471 1094,-118 1139.55,-147.349 1158.23,-215.649 1163.93,-242.185"/>
<polygon fill="#9a32cd" stroke="#9a32cd" points="952.626,-101.97 942.775,-105.871 952.908,-108.964 952.626,-101.97"/>
<text text-anchor="middle" x="1043" y="-226" font-family="Helvetica,sans-Serif" font-size="10.00"> s_STOPPED_SIG</text>
<text text-anchor="middle" x="1043" y="-213" font-family="Helvetica,sans-Serif" font-size="10.00">s_UPDATED_SIG</text>
<text text-anchor="middle" x="1043" y="-200" font-family="Helvetica,sans-Serif" font-size="10.00">s_UPDATE_SLOT</text>
<text text-anchor="middle" x="1043" y="-187" font-family="Helvetica,sans-Serif" font-size="10.00">s_STARTED_SIG</text>
<text text-anchor="middle" x="1043" y="-174" font-family="Helvetica,sans-Serif" font-size="10.00">s_SWAPKEY_SLOT</text>
<text text-anchor="middle" x="1043" y="-161" font-family="Helvetica,sans-Serif" font-size="10.00">s_SWAP_SLOT</text>
<text text-anchor="middle" x="1043" y="-148" font-family="Helvetica,sans-Serif" font-size="10.00">s_STOP_SLOT</text>
<text text-anchor="middle" x="1043" y="-135" font-family="Helvetica,sans-Serif" font-size="10.00">s_START_SLOT</text>
<text text-anchor="middle" x="1043" y="-122" font-family="Helvetica,sans-Serif" font-size="10.00">s_DEFAULT_OBJECT</text>
</g>
<!-- Node20 -->
<g id="node41" class="node"><title>Node20</title>
<polygon fill="white" stroke="#bfbfbf" points="1418.5,-0.5 1418.5,-21.5 1453.5,-21.5 1453.5,-0.5 1418.5,-0.5"/>
<text text-anchor="middle" x="1436" y="-8.5" font-family="Helvetica,sans-Serif" font-size="10.00">long</text>
</g>
<!-- Node20&#45;&gt;Node1 -->
<g id="edge44" class="edge"><title>Node20&#45;&gt;Node1</title>
<path fill="none" stroke="#9a32cd" stroke-dasharray="5,2" d="M1464.13,-9.35074C1495.95,-8.34933 1548.93,-9.31446 1592,-23 1616.34,-30.7331 1641.09,-47.4366 1655.74,-58.4435"/>
<polygon fill="#9a32cd" stroke="#9a32cd" points="1463.66,-5.86682 1453.81,-9.76933 1463.95,-12.8611 1463.66,-5.86682"/>
<text text-anchor="middle" x="1552" y="-27" font-family="Helvetica,sans-Serif" font-size="10.00"> m_instanceCount</text>
</g>
</g>
</svg>
