<?xml version="1.0" encoding="UTF-8" standalone="no"?>
<!DOCTYPE svg PUBLIC "-//W3C//DTD SVG 1.1//EN"
 "http://www.w3.org/Graphics/SVG/1.1/DTD/svg11.dtd">
<!-- Generated by graphviz version 2.26.3 (20100126.1600)
 -->
<!-- Title: ioVTK::SMeshReader::configureWithIHM Pages: 1 -->
<svg width="474pt" height="382pt"
 viewBox="0.00 0.00 474.00 382.00" xmlns="http://www.w3.org/2000/svg" xmlns:xlink="http://www.w3.org/1999/xlink">
<g id="graph1" class="graph" transform="scale(1 1) rotate(0) translate(4 378)">
<title>ioVTK::SMeshReader::configureWithIHM</title>
<polygon fill="white" stroke="white" points="-4,5 -4,-378 471,-378 471,5 -4,5"/>
<!-- Node1 -->
<g id="node1" class="node"><title>Node1</title>
<polygon fill="#bfbfbf" stroke="black" points="0,-173 0,-207 112,-207 112,-173 0,-173"/>
<text text-anchor="start" x="8" y="-194" font-family="Helvetica,sans-Serif" font-size="10.00">ioVTK::SMeshReader</text>
<text text-anchor="middle" x="56" y="-181" font-family="Helvetica,sans-Serif" font-size="10.00">::configureWithIHM</text>
</g>
<!-- Node2 -->
<g id="node3" class="node"><title>Node2</title>
<a xlink:href="classfwGui_1_1dialog_1_1LocationDialog.html#ac2807f263dc1b320c8c85590432cfd65" target="_top" xlink:title="specify some filtering when browsing files: ">
<polygon fill="white" stroke="black" points="148,-340 148,-374 292,-374 292,-340 148,-340"/>
<text text-anchor="start" x="156" y="-361" font-family="Helvetica,sans-Serif" font-size="10.00">fwGui::dialog::LocationDialog</text>
<text text-anchor="middle" x="220" y="-348" font-family="Helvetica,sans-Serif" font-size="10.00">::addFilter</text>
</a>
</g>
<!-- Node1&#45;&gt;Node2 -->
<g id="edge2" class="edge"><title>Node1&#45;&gt;Node2</title>
<path fill="none" stroke="midnightblue" d="M62.9054,-207.341C75.4949,-236.839 104.915,-296.893 148,-331 149.602,-332.268 151.271,-333.478 152.994,-334.632"/>
<polygon fill="midnightblue" stroke="midnightblue" points="151.599,-337.872 161.989,-339.944 155.158,-331.845 151.599,-337.872"/>
</g>
<!-- Node3 -->
<g id="node5" class="node"><title>Node3</title>
<a xlink:href="classio_1_1IReader.html#aa27f4602b0fd733eb3f69820c2bba8e2" target="_top" xlink:title="Clear any location set by the setFile/setFiles/setFolder setter. ">
<polygon fill="white" stroke="black" points="153,-300.5 153,-321.5 287,-321.5 287,-300.5 153,-300.5"/>
<text text-anchor="middle" x="220" y="-308.5" font-family="Helvetica,sans-Serif" font-size="10.00">io::IReader::clearLocations</text>
</a>
</g>
<!-- Node1&#45;&gt;Node3 -->
<g id="edge4" class="edge"><title>Node1&#45;&gt;Node3</title>
<path fill="none" stroke="midnightblue" d="M66.921,-207.018C82.2928,-229.592 112.444,-269.128 148,-291 151.384,-293.082 154.989,-294.951 158.713,-296.63"/>
<polygon fill="midnightblue" stroke="midnightblue" points="157.575,-299.945 168.159,-300.422 160.183,-293.449 157.575,-299.945"/>
</g>
<!-- Node4 -->
<g id="node7" class="node"><title>Node4</title>
<a xlink:href="classfwGui_1_1dialog_1_1LocationDialog.html#ac9089689132bcc8570ac04165effbcf4" target="_top" xlink:title="Save the specified default location for the dialog in preferences (if available) ">
<polygon fill="white" stroke="black" points="148,-248 148,-282 292,-282 292,-248 148,-248"/>
<text text-anchor="start" x="156" y="-269" font-family="Helvetica,sans-Serif" font-size="10.00">fwGui::dialog::LocationDialog</text>
<text text-anchor="middle" x="220" y="-256" font-family="Helvetica,sans-Serif" font-size="10.00">::saveDefaultLocation</text>
</a>
</g>
<!-- Node1&#45;&gt;Node4 -->
<g id="edge6" class="edge"><title>Node1&#45;&gt;Node4</title>
<path fill="none" stroke="midnightblue" d="M85.7089,-207.217C103.471,-217.156 126.665,-229.524 148,-239 151.894,-240.73 155.943,-242.434 160.045,-244.092"/>
<polygon fill="midnightblue" stroke="midnightblue" points="159.082,-247.474 169.669,-247.867 161.638,-240.957 159.082,-247.474"/>
</g>
<!-- Node5 -->
<g id="node9" class="node"><title>Node5</title>
<a xlink:href="classfwGui_1_1dialog_1_1LocationDialog.html#a3b0e0ea5f0b57d21986daa33ef83d732" target="_top" xlink:title="Set the initial location for the dialog. ">
<polygon fill="white" stroke="black" points="148,-196 148,-230 292,-230 292,-196 148,-196"/>
<text text-anchor="start" x="156" y="-217" font-family="Helvetica,sans-Serif" font-size="10.00">fwGui::dialog::LocationDialog</text>
<text text-anchor="middle" x="220" y="-204" font-family="Helvetica,sans-Serif" font-size="10.00">::setDefaultLocation</text>
</a>
</g>
<!-- Node1&#45;&gt;Node5 -->
<g id="edge8" class="edge"><title>Node1&#45;&gt;Node5</title>
<path fill="none" stroke="midnightblue" d="M112.439,-197.915C120.631,-199.064 129.2,-200.266 137.773,-201.468"/>
<polygon fill="midnightblue" stroke="midnightblue" points="137.426,-204.954 147.816,-202.877 138.399,-198.022 137.426,-204.954"/>
</g>
<!-- Node6 -->
<g id="node11" class="node"><title>Node6</title>
<a xlink:href="classio_1_1IReader.html#a6e6d15caea2248f4d3aa88f7a78e4f54" target="_top" xlink:title="Sets file path. ">
<polygon fill="white" stroke="black" points="170,-156.5 170,-177.5 270,-177.5 270,-156.5 170,-156.5"/>
<text text-anchor="middle" x="220" y="-164.5" font-family="Helvetica,sans-Serif" font-size="10.00">io::IReader::setFile</text>
</a>
</g>
<!-- Node1&#45;&gt;Node6 -->
<g id="edge10" class="edge"><title>Node1&#45;&gt;Node6</title>
<path fill="none" stroke="midnightblue" d="M112.439,-182.085C127.717,-179.942 144.309,-177.615 159.785,-175.445"/>
<polygon fill="midnightblue" stroke="midnightblue" points="160.352,-178.9 169.769,-174.045 159.38,-171.967 160.352,-178.9"/>
</g>
<!-- Node8 -->
<g id="node15" class="node"><title>Node8</title>
<a xlink:href="classfwGui_1_1dialog_1_1LocationDialog.html#a5ea39af6405130f2c6ef27a2820be238" target="_top" xlink:title="allow to set option to the file dialog mode=READ/WRITE, check=FILE_MUST_EXIST ">
<polygon fill="white" stroke="black" points="148,-104 148,-138 292,-138 292,-104 148,-104"/>
<text text-anchor="start" x="156" y="-125" font-family="Helvetica,sans-Serif" font-size="10.00">fwGui::dialog::LocationDialog</text>
<text text-anchor="middle" x="220" y="-112" font-family="Helvetica,sans-Serif" font-size="10.00">::setOption</text>
</a>
</g>
<!-- Node1&#45;&gt;Node8 -->
<g id="edge14" class="edge"><title>Node1&#45;&gt;Node8</title>
<path fill="none" stroke="midnightblue" d="M90.6181,-172.912C107.724,-164.702 128.773,-154.946 148,-147 152.376,-145.192 156.928,-143.383 161.523,-141.61"/>
<polygon fill="midnightblue" stroke="midnightblue" points="162.86,-144.846 170.971,-138.029 160.38,-138.3 162.86,-144.846"/>
</g>
<!-- Node9 -->
<g id="node17" class="node"><title>Node9</title>
<a xlink:href="classfwGui_1_1dialog_1_1LocationDialog.html#a9682346d8118fcb4f9fe4caf4eaa76c0" target="_top" xlink:title="Set the title for the dialog. ">
<polygon fill="white" stroke="black" points="148,-52 148,-86 292,-86 292,-52 148,-52"/>
<text text-anchor="start" x="156" y="-73" font-family="Helvetica,sans-Serif" font-size="10.00">fwGui::dialog::LocationDialog</text>
<text text-anchor="middle" x="220" y="-60" font-family="Helvetica,sans-Serif" font-size="10.00">::setTitle</text>
</a>
</g>
<!-- Node1&#45;&gt;Node9 -->
<g id="edge16" class="edge"><title>Node1&#45;&gt;Node9</title>
<path fill="none" stroke="midnightblue" d="M68.5044,-172.953C84.7075,-151.956 114.839,-116.443 148,-95 150.406,-93.444 152.918,-91.9656 155.501,-90.5629"/>
<polygon fill="midnightblue" stroke="midnightblue" points="157.11,-93.6716 164.502,-86.082 153.99,-87.4051 157.11,-93.6716"/>
</g>
<!-- Node10 -->
<g id="node19" class="node"><title>Node10</title>
<a xlink:href="classfwGui_1_1dialog_1_1LocationDialog.html#a6733599f0a055082253618428082766f" target="_top" xlink:title="Display the dialog. ">
<polygon fill="white" stroke="black" points="148,-0 148,-34 292,-34 292,-0 148,-0"/>
<text text-anchor="start" x="156" y="-21" font-family="Helvetica,sans-Serif" font-size="10.00">fwGui::dialog::LocationDialog</text>
<text text-anchor="middle" x="220" y="-8" font-family="Helvetica,sans-Serif" font-size="10.00">::show</text>
</a>
</g>
<!-- Node1&#45;&gt;Node10 -->
<g id="edge18" class="edge"><title>Node1&#45;&gt;Node10</title>
<path fill="none" stroke="midnightblue" d="M62.3159,-172.89C74.3704,-142.499 103.487,-78.9272 148,-43 149.551,-41.748 151.168,-40.5534 152.837,-39.4138"/>
<polygon fill="midnightblue" stroke="midnightblue" points="154.797,-42.3194 161.559,-34.1633 151.187,-36.3222 154.797,-42.3194"/>
</g>
<!-- Node7 -->
<g id="node13" class="node"><title>Node7</title>
<a xlink:href="classio_1_1IReader.html#ac73aed04c8a34ddfb41dc006440e50ad" target="_top" xlink:title="This method must be implemented by concrete service readers that use path file system to read data...">
<polygon fill="white" stroke="black" points="328.5,-156.5 328.5,-177.5 465.5,-177.5 465.5,-156.5 328.5,-156.5"/>
<text text-anchor="middle" x="397" y="-164.5" font-family="Helvetica,sans-Serif" font-size="10.00">io::IReader::getIOPathType</text>
</a>
</g>
<!-- Node6&#45;&gt;Node7 -->
<g id="edge12" class="edge"><title>Node6&#45;&gt;Node7</title>
<path fill="none" stroke="midnightblue" d="M270.248,-167C285.229,-167 302.021,-167 318.359,-167"/>
<polygon fill="midnightblue" stroke="midnightblue" points="318.452,-170.5 328.452,-167 318.452,-163.5 318.452,-170.5"/>
</g>
<!-- Node11 -->
<g id="node21" class="node"><title>Node11</title>
<a xlink:href="classfwGui_1_1dialog_1_1ILocationDialog.html#afe365e8bbb4d1aa519e2d003eefe4070" target="_top" xlink:title="fwGui::dialog::ILocation\lDialog::show">
<polygon fill="white" stroke="black" points="337.5,-0 337.5,-34 456.5,-34 456.5,-0 337.5,-0"/>
<text text-anchor="start" x="345.5" y="-21" font-family="Helvetica,sans-Serif" font-size="10.00">fwGui::dialog::ILocation</text>
<text text-anchor="middle" x="397" y="-8" font-family="Helvetica,sans-Serif" font-size="10.00">Dialog::show</text>
</a>
</g>
<!-- Node10&#45;&gt;Node11 -->
<g id="edge20" class="edge"><title>Node10&#45;&gt;Node11</title>
<path fill="none" stroke="midnightblue" d="M292.248,-17C303.856,-17 315.849,-17 327.393,-17"/>
<polygon fill="midnightblue" stroke="midnightblue" points="327.401,-20.5001 337.401,-17 327.401,-13.5001 327.401,-20.5001"/>
</g>
</g>
</svg>
