<?xml version="1.0" encoding="UTF-8" standalone="no"?>
<!DOCTYPE svg PUBLIC "-//W3C//DTD SVG 1.1//EN"
 "http://www.w3.org/Graphics/SVG/1.1/DTD/svg11.dtd">
<!-- Generated by graphviz version 2.36.0 (20140111.2315)
 -->
<!-- Title: visuVTKAdaptor::PlaneCollectionAdaptorStarter Pages: 1 -->
<!--zoomable 184 -->
<svg id="main" version="1.1" xmlns="http://www.w3.org/2000/svg" xmlns:xlink="http://www.w3.org/1999/xlink" xml:space="preserve" onload="init(evt)">
<style type="text/css"><![CDATA[
.edge:hover path { stroke: red; }
.edge:hover polygon { stroke: red; fill: red; }
]]></style>
<script type="text/javascript"><![CDATA[
var edges = document.getElementsByTagName('g');
if (edges && edges.length) {
  for (var i=0;i<edges.length;i++) {
    if (edges[i].id.substr(0,4)=='edge') {
      edges[i].setAttribute('class','edge');
    }
  }
}
]]></script>
        <defs>
                <circle id="rim" cx="0" cy="0" r="7"/>
                <circle id="rim2" cx="0" cy="0" r="3.5"/>
                <g id="zoomPlus">
                        <use xlink:href="#rim" fill="#404040">
                                <set attributeName="fill" to="#808080" begin="zoomplus.mouseover" end="zoomplus.mouseout"/>
                        </use>
                        <path d="M-4,0h8M0,-4v8" fill="none" stroke="white" stroke-width="1.5" pointer-events="none"/>
                </g>
                <g id="zoomMin">
                        <use xlink:href="#rim" fill="#404040">
                                <set attributeName="fill" to="#808080" begin="zoomminus.mouseover" end="zoomminus.mouseout"/>
                        </use>
                        <path d="M-4,0h8" fill="none" stroke="white" stroke-width="1.5" pointer-events="none"/>
                </g>
                <g id="dirArrow">
                        <path fill="none" stroke="white" stroke-width="1.5" d="M0,-3.0v7 M-2.5,-0.5L0,-3.0L2.5,-0.5"/>
                </g>
               <g id="resetDef">
                       <use xlink:href="#rim2" fill="#404040">
                               <set attributeName="fill" to="#808080" begin="reset.mouseover" end="reset.mouseout"/>
                       </use>
               </g>
        </defs>

<script type="text/javascript">
var viewWidth = 1166;
var viewHeight = 184;
var sectionId = 'dynsection-1';
</script>
<script xlink:href="svgpan.js"/>
<svg id="graph" class="graph">
<g id="viewport">
<title>visuVTKAdaptor::PlaneCollectionAdaptorStarter</title>
<polygon fill="white" stroke="none" points="-4,4 -4,-180 1162,-180 1162,4 -4,4"/>
<!-- Node1 -->
<g id="node1" class="node"><title>Node1</title>
<polygon fill="#bfbfbf" stroke="black" points="996,-70 996,-100 1158,-100 1158,-70 996,-70"/>
<text text-anchor="start" x="1004" y="-88" font-family="Helvetica,sans-Serif" font-size="10.00">visuVTKAdaptor::PlaneCollection</text>
<text text-anchor="middle" x="1077" y="-77" font-family="Helvetica,sans-Serif" font-size="10.00">AdaptorStarter</text>
</g>
<!-- Node2 -->
<g id="node2" class="node"><title>Node2</title>
<g id="a_node2"><a xlink:href="classvisuVTKAdaptor_1_1MeshVtkCommand.html" target="_top" xlink:title="visuVTKAdaptor::MeshVtkCommand">
<polygon fill="white" stroke="black" points="114,-156.5 114,-175.5 292,-175.5 292,-156.5 114,-156.5"/>
<text text-anchor="middle" x="203" y="-163.5" font-family="Helvetica,sans-Serif" font-size="10.00">visuVTKAdaptor::MeshVtkCommand</text>
</a>
</g>
</g>
<!-- Node2&#45;&gt;Node1 -->
<g id="edge1" class="edge"><title>Node2&#45;&gt;Node1</title>
<path fill="none" stroke="midnightblue" d="M302.146,-164.928C319.425,-164.672 337.24,-164.364 354,-164 583.693,-159.01 641.777,-159.415 870,-133 918.269,-127.413 930.702,-127.137 978,-116 996.238,-111.706 1016,-105.719 1032.97,-100.151"/>
<polygon fill="midnightblue" stroke="midnightblue" points="301.994,-161.43 292.046,-165.073 302.095,-168.429 301.994,-161.43"/>
</g>
<!-- Node8 -->
<g id="node8" class="node"><title>Node8</title>
<g id="a_node8"><a xlink:href="classvisuVTKAdaptor_1_1PlaneShifterCallback.html" target="_top" xlink:title="visuVTKAdaptor::PlaneShifter\lCallback">
<polygon fill="white" stroke="black" points="372.5,-120 372.5,-150 519.5,-150 519.5,-120 372.5,-120"/>
<text text-anchor="start" x="380.5" y="-138" font-family="Helvetica,sans-Serif" font-size="10.00">visuVTKAdaptor::PlaneShifter</text>
<text text-anchor="middle" x="446" y="-127" font-family="Helvetica,sans-Serif" font-size="10.00">Callback</text>
</a>
</g>
</g>
<!-- Node2&#45;&gt;Node8 -->
<g id="edge8" class="edge"><title>Node2&#45;&gt;Node8</title>
<path fill="none" stroke="midnightblue" d="M287.949,-155.202C315.48,-151.66 345.822,-147.757 372.436,-144.334"/>
<polygon fill="midnightblue" stroke="midnightblue" points="287.417,-151.741 277.946,-156.488 288.311,-158.684 287.417,-151.741"/>
</g>
<!-- Node3 -->
<g id="node3" class="node"><title>Node3</title>
<polygon fill="white" stroke="#bfbfbf" points="0.5,-156.5 0.5,-175.5 75.5,-175.5 75.5,-156.5 0.5,-156.5"/>
<text text-anchor="middle" x="38" y="-163.5" font-family="Helvetica,sans-Serif" font-size="10.00">vtkCommand</text>
</g>
<!-- Node3&#45;&gt;Node2 -->
<g id="edge2" class="edge"><title>Node3&#45;&gt;Node2</title>
<path fill="none" stroke="midnightblue" d="M85.7031,-166C94.6226,-166 104.227,-166 113.956,-166"/>
<polygon fill="midnightblue" stroke="midnightblue" points="85.5804,-162.5 75.5804,-166 85.5803,-169.5 85.5804,-162.5"/>
</g>
<!-- Node4 -->
<g id="node4" class="node"><title>Node4</title>
<polygon fill="white" stroke="#bfbfbf" points="703,-0 703,-30 867,-30 867,-0 703,-0"/>
<text text-anchor="start" x="711" y="-18" font-family="Helvetica,sans-Serif" font-size="10.00">std::vector&lt; ::visuVTKAdaptor</text>
<text text-anchor="middle" x="785" y="-7" font-family="Helvetica,sans-Serif" font-size="10.00">::visuVTKAdaptor::SMesh::wptr &gt;</text>
</g>
<!-- Node4&#45;&gt;Node1 -->
<g id="edge3" class="edge"><title>Node4&#45;&gt;Node1</title>
<path fill="none" stroke="#9a32cd" stroke-dasharray="5,2" d="M877.585,-30.0541C909.566,-35.9946 945.565,-43.4552 978,-52 997.096,-57.0308 1017.88,-63.8311 1035.37,-69.9514"/>
<polygon fill="#9a32cd" stroke="#9a32cd" points="877.82,-26.5389 867.353,-28.1793 876.558,-33.4243 877.82,-26.5389"/>
<text text-anchor="middle" x="933" y="-55" font-family="Helvetica,sans-Serif" font-size="10.00"> m_meshServices</text>
</g>
<!-- Node5 -->
<g id="node5" class="node"><title>Node5</title>
<g id="a_node5"><a xlink:title="STL class. ">
<polygon fill="white" stroke="#bfbfbf" points="402.5,-55.5 402.5,-74.5 489.5,-74.5 489.5,-55.5 402.5,-55.5"/>
<text text-anchor="middle" x="446" y="-62.5" font-family="Helvetica,sans-Serif" font-size="10.00">std::vector&lt; T &gt;</text>
</a>
</g>
</g>
<!-- Node5&#45;&gt;Node4 -->
<g id="edge4" class="edge"><title>Node5&#45;&gt;Node4</title>
<path fill="none" stroke="orange" stroke-dasharray="5,2" d="M474.379,-51.062C492.053,-42.7786 515.81,-32.9503 538,-28 592.056,-15.9412 654.372,-12.7559 702.759,-12.5524"/>
<polygon fill="orange" stroke="orange" points="472.727,-47.9729 465.234,-55.4642 475.763,-54.2801 472.727,-47.9729"/>
<text text-anchor="start" x="552.5" y="-53" font-family="Helvetica,sans-Serif" font-size="10.00"> &lt; ::visuVTKAdaptor</text>
<text text-anchor="start" x="552.5" y="-42" font-family="Helvetica,sans-Serif" font-size="10.00">::visuVTKAdaptor::SMesh</text>
<text text-anchor="middle" x="610" y="-31" font-family="Helvetica,sans-Serif" font-size="10.00">::wptr &gt;</text>
</g>
<!-- Node7 -->
<g id="node7" class="node"><title>Node7</title>
<polygon fill="white" stroke="#bfbfbf" points="713.5,-94 713.5,-124 856.5,-124 856.5,-94 713.5,-94"/>
<text text-anchor="start" x="721.5" y="-112" font-family="Helvetica,sans-Serif" font-size="10.00">std::vector&lt; visuVTKAdaptor</text>
<text text-anchor="middle" x="785" y="-101" font-family="Helvetica,sans-Serif" font-size="10.00">::PlaneShifterCallback * &gt;</text>
</g>
<!-- Node5&#45;&gt;Node7 -->
<g id="edge9" class="edge"><title>Node5&#45;&gt;Node7</title>
<path fill="none" stroke="orange" stroke-dasharray="5,2" d="M499.869,-71.9877C512.371,-73.6357 525.656,-75.3832 538,-77 597.144,-84.7464 664.296,-93.4773 713.48,-99.8601"/>
<polygon fill="orange" stroke="orange" points="499.961,-68.4697 489.59,-70.6319 499.046,-75.4096 499.961,-68.4697"/>
<text text-anchor="start" x="538.5" y="-110" font-family="Helvetica,sans-Serif" font-size="10.00"> &lt; visuVTKAdaptor::PlaneShifter</text>
<text text-anchor="middle" x="610" y="-99" font-family="Helvetica,sans-Serif" font-size="10.00">Callback * &gt;</text>
</g>
<!-- Node9 -->
<g id="node9" class="node"><title>Node9</title>
<polygon fill="white" stroke="#bfbfbf" points="700,-55.5 700,-74.5 870,-74.5 870,-55.5 700,-55.5"/>
<text text-anchor="middle" x="785" y="-62.5" font-family="Helvetica,sans-Serif" font-size="10.00">std::vector&lt; vtkPlaneCollection * &gt;</text>
</g>
<!-- Node5&#45;&gt;Node9 -->
<g id="edge11" class="edge"><title>Node5&#45;&gt;Node9</title>
<path fill="none" stroke="orange" stroke-dasharray="5,2" d="M499.975,-65C553.517,-65 637.071,-65 699.718,-65"/>
<polygon fill="orange" stroke="orange" points="499.681,-61.5001 489.681,-65 499.681,-68.5001 499.681,-61.5001"/>
<text text-anchor="middle" x="610" y="-68" font-family="Helvetica,sans-Serif" font-size="10.00"> &lt; vtkPlaneCollection * &gt;</text>
</g>
<!-- Node6 -->
<g id="node6" class="node"><title>Node6</title>
<polygon fill="white" stroke="#bfbfbf" points="188.5,-55.5 188.5,-74.5 217.5,-74.5 217.5,-55.5 188.5,-55.5"/>
<text text-anchor="middle" x="203" y="-62.5" font-family="Helvetica,sans-Serif" font-size="10.00">T</text>
</g>
<!-- Node6&#45;&gt;Node5 -->
<g id="edge5" class="edge"><title>Node6&#45;&gt;Node5</title>
<path fill="none" stroke="#9a32cd" stroke-dasharray="5,2" d="M227.902,-65C268.451,-65 351.255,-65 402.064,-65"/>
<polygon fill="#9a32cd" stroke="#9a32cd" points="227.648,-61.5001 217.648,-65 227.648,-68.5001 227.648,-61.5001"/>
<text text-anchor="middle" x="332" y="-68" font-family="Helvetica,sans-Serif" font-size="10.00"> elements</text>
</g>
<!-- Node7&#45;&gt;Node1 -->
<g id="edge6" class="edge"><title>Node7&#45;&gt;Node1</title>
<path fill="none" stroke="#9a32cd" stroke-dasharray="5,2" d="M866.634,-102.327C906.961,-98.9894 955.622,-94.9623 995.878,-91.6308"/>
<polygon fill="#9a32cd" stroke="#9a32cd" points="866.248,-98.8467 856.571,-103.16 866.826,-105.823 866.248,-98.8467"/>
<text text-anchor="middle" x="933" y="-104" font-family="Helvetica,sans-Serif" font-size="10.00"> m_planeCallbacks</text>
</g>
<!-- Node8&#45;&gt;Node7 -->
<g id="edge7" class="edge"><title>Node8&#45;&gt;Node7</title>
<path fill="none" stroke="#9a32cd" stroke-dasharray="5,2" d="M529.637,-131.874C574.726,-129.805 631.496,-126.609 682,-122 692.133,-121.075 702.811,-119.918 713.288,-118.677"/>
<polygon fill="#9a32cd" stroke="#9a32cd" points="529.448,-128.379 519.615,-132.324 529.762,-135.372 529.448,-128.379"/>
<text text-anchor="middle" x="610" y="-135" font-family="Helvetica,sans-Serif" font-size="10.00"> elements</text>
</g>
<!-- Node9&#45;&gt;Node1 -->
<g id="edge10" class="edge"><title>Node9&#45;&gt;Node1</title>
<path fill="none" stroke="#9a32cd" stroke-dasharray="5,2" d="M880.621,-65.8779C911.688,-66.7207 946.359,-68.254 978,-71 983.822,-71.5052 989.825,-72.1232 995.86,-72.8151"/>
<polygon fill="#9a32cd" stroke="#9a32cd" points="880.317,-62.3693 870.233,-65.6178 880.142,-69.3671 880.317,-62.3693"/>
<text text-anchor="middle" x="933" y="-74" font-family="Helvetica,sans-Serif" font-size="10.00"> m_planeCollections</text>
</g>
</g>
</svg>
        <g id="navigator" transform="translate(0 0)" fill="#404254">
                <rect fill="#f2f5e9" fill-opacity="0.5" stroke="#606060" stroke-width=".5" x="0" y="0" width="60" height="60"/>
                <use id="zoomplus" xlink:href="#zoomPlus" x="17" y="9" onmousedown="handleZoom(evt,'in')"/>
                <use id="zoomminus" xlink:href="#zoomMin" x="42" y="9" onmousedown="handleZoom(evt,'out')"/>
                <use id="reset" xlink:href="#resetDef" x="30" y="36" onmousedown="handleReset()"/>
                <g id="arrowUp" xlink:href="#dirArrow" transform="translate(30 24)" onmousedown="handlePan(0,-1)">
                  <use xlink:href="#rim" fill="#404040">
                        <set attributeName="fill" to="#808080" begin="arrowUp.mouseover" end="arrowUp.mouseout"/>
                  </use>
                  <path fill="none" stroke="white" stroke-width="1.5" d="M0,-3.0v7 M-2.5,-0.5L0,-3.0L2.5,-0.5"/>
                </g>
                <g id="arrowRight" xlink:href="#dirArrow" transform="rotate(90) translate(36 -43)" onmousedown="handlePan(1,0)">
                  <use xlink:href="#rim" fill="#404040">
                        <set attributeName="fill" to="#808080" begin="arrowRight.mouseover" end="arrowRight.mouseout"/>
                  </use>
                  <path fill="none" stroke="white" stroke-width="1.5" d="M0,-3.0v7 M-2.5,-0.5L0,-3.0L2.5,-0.5"/>
                </g>
                <g id="arrowDown" xlink:href="#dirArrow" transform="rotate(180) translate(-30 -48)" onmousedown="handlePan(0,1)">
                  <use xlink:href="#rim" fill="#404040">
                        <set attributeName="fill" to="#808080" begin="arrowDown.mouseover" end="arrowDown.mouseout"/>
                  </use>
                  <path fill="none" stroke="white" stroke-width="1.5" d="M0,-3.0v7 M-2.5,-0.5L0,-3.0L2.5,-0.5"/>
                </g>
                <g id="arrowLeft" xlink:href="#dirArrow" transform="rotate(270) translate(-36 17)" onmousedown="handlePan(-1,0)">
                  <use xlink:href="#rim" fill="#404040">
                        <set attributeName="fill" to="#808080" begin="arrowLeft.mouseover" end="arrowLeft.mouseout"/>
                  </use>
                  <path fill="none" stroke="white" stroke-width="1.5" d="M0,-3.0v7 M-2.5,-0.5L0,-3.0L2.5,-0.5"/>
                </g>
        </g>
        <svg viewBox="0 0 15 15" width="100%" height="30px" preserveAspectRatio="xMaxYMin meet">
         <g id="arrow_out" transform="scale(0.3 0.3)">
          <a xlink:href="classvisuVTKAdaptor_1_1PlaneCollectionAdaptorStarter__coll__graph_org.svg" target="_base">
           <rect id="button" ry="5" rx="5" y="6" x="6" height="38" width="38"
                fill="#f2f5e9" fill-opacity="0.5" stroke="#606060" stroke-width="1.0"/>
           <path id="arrow"
             d="M 11.500037,31.436501 C 11.940474,20.09759 22.043105,11.32322 32.158766,21.979434 L 37.068811,17.246167 C 37.068811,17.246167 37.088388,32 37.088388,32 L 22.160133,31.978069 C 22.160133,31.978069 26.997745,27.140456 26.997745,27.140456 C 18.528582,18.264221 13.291696,25.230495 11.500037,31.436501 z"
             style="fill:#404040;"/>
          </a>
         </g>
        </svg>
</svg>
