<?xml version="1.0" encoding="UTF-8" standalone="no"?>
<!DOCTYPE svg PUBLIC "-//W3C//DTD SVG 1.1//EN"
 "http://www.w3.org/Graphics/SVG/1.1/DTD/svg11.dtd">
<!-- Generated by graphviz version 2.26.3 (20100126.1600)
 -->
<!-- Title: fwGui::IActionSrv::confirmAction Pages: 1 -->
<svg width="246pt" height="42pt"
 viewBox="0.00 0.00 246.00 42.00" xmlns="http://www.w3.org/2000/svg" xmlns:xlink="http://www.w3.org/1999/xlink">
<g id="graph1" class="graph" transform="scale(1 1) rotate(0) translate(4 38)">
<title>fwGui::IActionSrv::confirmAction</title>
<polygon fill="white" stroke="white" points="-4,5 -4,-38 243,-38 243,5 -4,5"/>
<!-- Node1 -->
<g id="node1" class="node"><title>Node1</title>
<polygon fill="#bfbfbf" stroke="black" points="0,-0 0,-34 100,-34 100,-0 0,-0"/>
<text text-anchor="start" x="8" y="-21" font-family="Helvetica,sans-Serif" font-size="10.00">fwGui::IActionSrv::</text>
<text text-anchor="middle" x="50" y="-8" font-family="Helvetica,sans-Serif" font-size="10.00">confirmAction</text>
</g>
<!-- Node2 -->
<g id="node3" class="node"><title>Node2</title>
<a xlink:href="classgui_1_1action_1_1SSignal.html#a80428e5869cb4212e09137704dd3310e" target="_top" xlink:title="This method emit a signal. ">
<polygon fill="white" stroke="black" points="136.5,-0 136.5,-34 237.5,-34 237.5,-0 136.5,-0"/>
<text text-anchor="start" x="144.5" y="-21" font-family="Helvetica,sans-Serif" font-size="10.00">gui::action::SSignal</text>
<text text-anchor="middle" x="187" y="-8" font-family="Helvetica,sans-Serif" font-size="10.00">::updating</text>
</a>
</g>
<!-- Node1&#45;&gt;Node2 -->
<g id="edge2" class="edge"><title>Node1&#45;&gt;Node2</title>
<path fill="none" stroke="midnightblue" d="M110.309,-17C118.988,-17 127.845,-17 136.312,-17"/>
<polygon fill="midnightblue" stroke="midnightblue" points="110.236,-13.5001 100.236,-17 110.236,-20.5001 110.236,-13.5001"/>
</g>
</g>
</svg>
