<?xml version="1.0" encoding="UTF-8" standalone="no"?>
<!DOCTYPE svg PUBLIC "-//W3C//DTD SVG 1.1//EN"
 "http://www.w3.org/Graphics/SVG/1.1/DTD/svg11.dtd">
<!-- Generated by graphviz version 2.36.0 (20140111.2315)
 -->
<!-- Title: builder Pages: 1 -->
<svg width="254pt" height="159pt"
 viewBox="0.00 0.00 254.00 159.00" xmlns="http://www.w3.org/2000/svg" xmlns:xlink="http://www.w3.org/1999/xlink">
<g id="graph0" class="graph" transform="scale(1 1) rotate(0) translate(4 155)">
<title>builder</title>
<polygon fill="white" stroke="none" points="-4,4 -4,-155 250,-155 250,4 -4,4"/>
<g id="clust1" class="cluster"><title>clusterdir_73cb6fe4ccc321f4cecc022fa0a68d74</title>
<g id="a_clust1"><a xlink:href="dir_73cb6fe4ccc321f4cecc022fa0a68d74.html" target="_top" xlink:title="fwActivities">
<polygon fill="#ddddee" stroke="black" points="8,-56 8,-143 238,-143 238,-56 8,-56"/>
<text text-anchor="middle" x="123" y="-131" font-family="Helvetica,sans-Serif" font-size="10.00">fwActivities</text>
</a>
</g>
</g>
<g id="clust2" class="cluster"><title>clusterdir_9d256c742edc328b97021daa1486f546</title>
<g id="a_clust2"><a xlink:href="dir_9d256c742edc328b97021daa1486f546.html" target="_top">
<polygon fill="#eeeeff" stroke="black" points="16,-64 16,-116 230,-116 230,-64 16,-64"/>
</a>
</g>
</g>
<!-- dir_9d256c742edc328b97021daa1486f546 -->
<g id="node1" class="node"><title>dir_9d256c742edc328b97021daa1486f546</title>
<text text-anchor="middle" x="195" y="-87.5" font-family="Helvetica,sans-Serif" font-size="10.00">builder</text>
</g>
<!-- dir_1b94838012f6ec07a2c1c4e031c09790 -->
<g id="node2" class="node"><title>dir_1b94838012f6ec07a2c1c4e031c09790</title>
<g id="a_node2"><a xlink:href="dir_1b94838012f6ec07a2c1c4e031c09790.html" target="_top" xlink:title="factory">
<polygon fill="white" stroke="black" points="150,-108 96,-108 96,-72 150,-72 150,-108"/>
<text text-anchor="middle" x="123" y="-87.5" font-family="Helvetica,sans-Serif" font-size="10.00">factory</text>
</a>
</g>
</g>
<!-- dir_1352e9d208961fc87e0e69b531604649 -->
<g id="node3" class="node"><title>dir_1352e9d208961fc87e0e69b531604649</title>
<g id="a_node3"><a xlink:href="dir_1352e9d208961fc87e0e69b531604649.html" target="_top" xlink:title="registry">
<polygon fill="white" stroke="black" points="78,-108 24,-108 24,-72 78,-72 78,-108"/>
<text text-anchor="middle" x="51" y="-87.5" font-family="Helvetica,sans-Serif" font-size="10.00">registry</text>
</a>
</g>
</g>
<!-- dir_211435ab6e02d177e72a2e329363bb51 -->
<g id="node4" class="node"><title>dir_211435ab6e02d177e72a2e329363bb51</title>
<g id="a_node4"><a xlink:href="dir_211435ab6e02d177e72a2e329363bb51.html" target="_top" xlink:title="fwCore">
<polygon fill="white" stroke="red" points="78,-36 24,-36 24,-0 78,-0 78,-36"/>
<text text-anchor="middle" x="51" y="-15.5" font-family="Helvetica,sans-Serif" font-size="10.00">fwCore</text>
</a>
</g>
</g>
<!-- dir_1352e9d208961fc87e0e69b531604649&#45;&gt;dir_211435ab6e02d177e72a2e329363bb51 -->
<g id="edge1" class="edge"><title>dir_1352e9d208961fc87e0e69b531604649&#45;&gt;dir_211435ab6e02d177e72a2e329363bb51</title>
<path fill="none" stroke="black" d="M51,-71.6966C51,-63.9827 51,-54.7125 51,-46.1124"/>
<polygon fill="black" stroke="black" points="54.5001,-46.1043 51,-36.1043 47.5001,-46.1044 54.5001,-46.1043"/>
<g id="a_edge1&#45;headlabel"><a xlink:href="dir_000474_000285.html" target="_top" xlink:title="1">
<text text-anchor="middle" x="57.3393" y="-47.199" font-family="Helvetica,sans-Serif" font-size="10.00">1</text>
</a>
</g>
</g>
</g>
</svg>
