<?xml version="1.0" encoding="UTF-8" standalone="no"?>
<!DOCTYPE svg PUBLIC "-//W3C//DTD SVG 1.1//EN"
 "http://www.w3.org/Graphics/SVG/1.1/DTD/svg11.dtd">
<!-- Generated by graphviz version 2.26.3 (20100126.1600)
 -->
<!-- Title: core Pages: 1 -->
<!--zoomable 329 -->
<svg id="main" version="1.1" xmlns="http://www.w3.org/2000/svg" xmlns:xlink="http://www.w3.org/1999/xlink" xml:space="preserve" onload="init(evt)">
<style type="text/css"><![CDATA[
.edge:hover path { stroke: red; }
.edge:hover polygon { stroke: red; fill: red; }
]]></style>
<script type="text/javascript"><![CDATA[
var edges = document.getElementsByTagName('g');
if (edges && edges.length) {
  for (var i=0;i<edges.length;i++) {
    if (edges[i].id.substr(0,4)=='edge') {
      edges[i].setAttribute('class','edge');
    }
  }
}
]]></script>
        <defs>
                <circle id="rim" cx="0" cy="0" r="7"/>
                <circle id="rim2" cx="0" cy="0" r="3.5"/>
                <g id="zoomPlus">
                        <use xlink:href="#rim" fill="#404040">
                                <set attributeName="fill" to="#808080" begin="zoomplus.mouseover" end="zoomplus.mouseout"/>
                        </use>
                        <path d="M-4,0h8M0,-4v8" fill="none" stroke="white" stroke-width="1.5" pointer-events="none"/>
                </g>
                <g id="zoomMin">
                        <use xlink:href="#rim" fill="#404040">
                                <set attributeName="fill" to="#808080" begin="zoomminus.mouseover" end="zoomminus.mouseout"/>
                        </use>
                        <path d="M-4,0h8" fill="none" stroke="white" stroke-width="1.5" pointer-events="none"/>
                </g>
                <g id="dirArrow">
                        <path fill="none" stroke="white" stroke-width="1.5" d="M0,-3.0v7 M-2.5,-0.5L0,-3.0L2.5,-0.5"/>
                </g>
               <g id="resetDef">
                       <use xlink:href="#rim2" fill="#404040">
                               <set attributeName="fill" to="#808080" begin="reset.mouseover" end="reset.mouseout"/>
                       </use>
               </g>
        </defs>

<script type="text/javascript">
var viewWidth = 1310;
var viewHeight = 329;
var sectionId = 'dynsection-0';
</script>
<script xlink:href="svgpan.js"/>
<svg id="graph" class="graph">
<g id="viewport">
<title>core</title>
<polygon fill="white" stroke="white" points="-4,5 -4,-325 1307,-325 1307,5 -4,5"/>
<g id="graph2" class="cluster"><title>clusterdir_36c79fd5fccc0faf954b7c20b3e2467b</title>
<a xlink:href="dir_36c79fd5fccc0faf954b7c20b3e2467b.html" target="_top" xlink:title="SrcLib">
<polygon fill="#ddddee" stroke="black" points="8,-8 8,-313 1294,-313 1294,-8 8,-8"/>
<text text-anchor="middle" x="651" y="-300" font-family="Helvetica,sans-Serif" font-size="10.00">SrcLib</text>
</a>
</g>
<g id="graph3" class="cluster"><title>clusterdir_4b27a3ee21cd820803ead0a49ff3b161</title>
<a xlink:href="dir_4b27a3ee21cd820803ead0a49ff3b161.html" target="_top">
<polygon fill="#eeeeff" stroke="black" points="16,-16 16,-284 1286,-284 1286,-16 16,-16"/>
</a>
</g>
<!-- dir_4b27a3ee21cd820803ead0a49ff3b161 -->
<g id="node3" class="node"><title>dir_4b27a3ee21cd820803ead0a49ff3b161</title>
<text text-anchor="middle" x="929" y="-255.5" font-family="Helvetica,sans-Serif" font-size="10.00">core</text>
</g>
<!-- dir_cca35678f07f50e0b8d3bd3c0f18bd17 -->
<g id="node4" class="node"><title>dir_cca35678f07f50e0b8d3bd3c0f18bd17</title>
<a xlink:href="dir_cca35678f07f50e0b8d3bd3c0f18bd17.html" target="_top" xlink:title="fwActivities">
<polygon fill="white" stroke="red" points="1278,-204 1210,-204 1210,-168 1278,-168 1278,-204"/>
<text text-anchor="middle" x="1244" y="-183.5" font-family="Helvetica,sans-Serif" font-size="10.00">fwActivities</text>
</a>
</g>
<!-- dir_211435ab6e02d177e72a2e329363bb51 -->
<g id="node12" class="node"><title>dir_211435ab6e02d177e72a2e329363bb51</title>
<a xlink:href="dir_211435ab6e02d177e72a2e329363bb51.html" target="_top" xlink:title="fwCore">
<polygon fill="white" stroke="red" points="717,-60 663,-60 663,-24 717,-24 717,-60"/>
<text text-anchor="middle" x="690" y="-39.5" font-family="Helvetica,sans-Serif" font-size="10.00">fwCore</text>
</a>
</g>
<!-- dir_cca35678f07f50e0b8d3bd3c0f18bd17&#45;&gt;dir_211435ab6e02d177e72a2e329363bb51 -->
<g id="edge34" class="edge"><title>dir_cca35678f07f50e0b8d3bd3c0f18bd17&#45;&gt;dir_211435ab6e02d177e72a2e329363bb51</title>
<path fill="none" stroke="black" d="M1246.33,-167.808C1247.86,-147.173 1246.69,-114.056 1227,-96 1190.25,-62.2998 843.367,-47.3086 727.486,-43.2128"/>
<polygon fill="black" stroke="black" points="727.441,-39.7092 717.325,-42.8608 727.198,-46.705 727.441,-39.7092"/>
<a xlink:href="dir_000054_000185.html" target="_top" xlink:title="11">
<text text-anchor="middle" x="731.131" y="-34.496" font-family="Helvetica,sans-Serif" font-size="10.00">11</text>
</a>
</g>
<!-- dir_99e2969c7b06cee36a3bea33303e5bc8 -->
<g id="node32" class="node"><title>dir_99e2969c7b06cee36a3bea33303e5bc8</title>
<a xlink:href="dir_99e2969c7b06cee36a3bea33303e5bc8.html" target="_top" xlink:title="fwTools">
<polygon fill="white" stroke="red" points="1034,-132 980,-132 980,-96 1034,-96 1034,-132"/>
<text text-anchor="middle" x="1007" y="-111.5" font-family="Helvetica,sans-Serif" font-size="10.00">fwTools</text>
</a>
</g>
<!-- dir_cca35678f07f50e0b8d3bd3c0f18bd17&#45;&gt;dir_99e2969c7b06cee36a3bea33303e5bc8 -->
<g id="edge32" class="edge"><title>dir_cca35678f07f50e0b8d3bd3c0f18bd17&#45;&gt;dir_99e2969c7b06cee36a3bea33303e5bc8</title>
<path fill="none" stroke="black" d="M1209.93,-171.114C1206.94,-169.996 1203.93,-168.939 1201,-168 1135.36,-146.958 1112.75,-155.456 1043.8,-131.836"/>
<polygon fill="black" stroke="black" points="1044.81,-128.484 1034.22,-128.455 1042.48,-135.085 1044.81,-128.484"/>
<a xlink:href="dir_000054_000198.html" target="_top" xlink:title="2">
<text text-anchor="middle" x="1049.15" y="-124.504" font-family="Helvetica,sans-Serif" font-size="10.00">2</text>
</a>
</g>
<!-- dir_54605102d4d3cbab16dec6f052ed5412 -->
<g id="node5" class="node"><title>dir_54605102d4d3cbab16dec6f052ed5412</title>
<a xlink:href="dir_54605102d4d3cbab16dec6f052ed5412.html" target="_top" xlink:title="fwAtomConversion">
<polygon fill="white" stroke="red" points="1192,-204 1092,-204 1092,-168 1192,-168 1192,-204"/>
<text text-anchor="middle" x="1142" y="-183.5" font-family="Helvetica,sans-Serif" font-size="10.00">fwAtomConversion</text>
</a>
</g>
<!-- dir_54605102d4d3cbab16dec6f052ed5412&#45;&gt;dir_211435ab6e02d177e72a2e329363bb51 -->
<g id="edge16" class="edge"><title>dir_54605102d4d3cbab16dec6f052ed5412&#45;&gt;dir_211435ab6e02d177e72a2e329363bb51</title>
<path fill="none" stroke="black" d="M1182.1,-167.923C1196.44,-159.252 1211.01,-147.355 1219,-132 1226.38,-117.805 1229.72,-107.874 1219,-96 1186.07,-59.5418 842.186,-46.379 727.207,-42.9778"/>
<polygon fill="black" stroke="black" points="727.221,-39.4768 717.124,-42.6874 727.019,-46.4739 727.221,-39.4768"/>
<a xlink:href="dir_000149_000185.html" target="_top" xlink:title="1">
<text text-anchor="middle" x="730.896" y="-34.2421" font-family="Helvetica,sans-Serif" font-size="10.00">1</text>
</a>
</g>
<!-- dir_54605102d4d3cbab16dec6f052ed5412&#45;&gt;dir_99e2969c7b06cee36a3bea33303e5bc8 -->
<g id="edge14" class="edge"><title>dir_54605102d4d3cbab16dec6f052ed5412&#45;&gt;dir_99e2969c7b06cee36a3bea33303e5bc8</title>
<path fill="none" stroke="black" d="M1107.93,-167.831C1088.15,-157.283 1063.25,-144.001 1043.13,-133.27"/>
<polygon fill="black" stroke="black" points="1044.73,-130.155 1034.26,-128.538 1041.43,-136.332 1044.73,-130.155"/>
<a xlink:href="dir_000149_000198.html" target="_top" xlink:title="1">
<text text-anchor="middle" x="1049.24" y="-126.842" font-family="Helvetica,sans-Serif" font-size="10.00">1</text>
</a>
</g>
<!-- dir_adf5d425a51bca12aaef90fdc7cfa7ec -->
<g id="node6" class="node"><title>dir_adf5d425a51bca12aaef90fdc7cfa7ec</title>
<a xlink:href="dir_adf5d425a51bca12aaef90fdc7cfa7ec.html" target="_top" xlink:title="fwAtoms">
<polygon fill="white" stroke="red" points="1074,-204 1018,-204 1018,-168 1074,-168 1074,-204"/>
<text text-anchor="middle" x="1046" y="-183.5" font-family="Helvetica,sans-Serif" font-size="10.00">fwAtoms</text>
</a>
</g>
<!-- dir_adf5d425a51bca12aaef90fdc7cfa7ec&#45;&gt;dir_211435ab6e02d177e72a2e329363bb51 -->
<g id="edge60" class="edge"><title>dir_adf5d425a51bca12aaef90fdc7cfa7ec&#45;&gt;dir_211435ab6e02d177e72a2e329363bb51</title>
<path fill="none" stroke="black" d="M1074.05,-171.711C1077.04,-170.383 1080.06,-169.117 1083,-168 1138.24,-146.99 1175.32,-179.106 1211,-132 1220.66,-119.246 1221.71,-107.883 1211,-96 1178.66,-60.1393 841.344,-46.6125 727.378,-43.045"/>
<polygon fill="black" stroke="black" points="727.166,-39.537 717.064,-42.7304 726.953,-46.5337 727.166,-39.537"/>
<a xlink:href="dir_000178_000185.html" target="_top" xlink:title="3">
<text text-anchor="middle" x="730.846" y="-34.3085" font-family="Helvetica,sans-Serif" font-size="10.00">3</text>
</a>
</g>
<!-- dir_adf5d425a51bca12aaef90fdc7cfa7ec&#45;&gt;dir_99e2969c7b06cee36a3bea33303e5bc8 -->
<g id="edge58" class="edge"><title>dir_adf5d425a51bca12aaef90fdc7cfa7ec&#45;&gt;dir_99e2969c7b06cee36a3bea33303e5bc8</title>
<path fill="none" stroke="black" d="M1036.16,-167.831C1031.8,-159.792 1026.59,-150.167 1021.78,-141.292"/>
<polygon fill="black" stroke="black" points="1024.81,-139.539 1016.97,-132.413 1018.66,-142.873 1024.81,-139.539"/>
<a xlink:href="dir_000178_000198.html" target="_top" xlink:title="1">
<text text-anchor="middle" x="1029.02" y="-138.848" font-family="Helvetica,sans-Serif" font-size="10.00">1</text>
</a>
</g>
<!-- dir_8535e1bff9a0394c406d904cd202ab56 -->
<g id="node7" class="node"><title>dir_8535e1bff9a0394c406d904cd202ab56</title>
<a xlink:href="dir_8535e1bff9a0394c406d904cd202ab56.html" target="_top" xlink:title="fwAtomsFilter">
<polygon fill="white" stroke="red" points="1000,-204 924,-204 924,-168 1000,-168 1000,-204"/>
<text text-anchor="middle" x="962" y="-183.5" font-family="Helvetica,sans-Serif" font-size="10.00">fwAtomsFilter</text>
</a>
</g>
<!-- dir_8535e1bff9a0394c406d904cd202ab56&#45;&gt;dir_211435ab6e02d177e72a2e329363bb51 -->
<g id="edge48" class="edge"><title>dir_8535e1bff9a0394c406d904cd202ab56&#45;&gt;dir_211435ab6e02d177e72a2e329363bb51</title>
<path fill="none" stroke="black" d="M1000.03,-170.781C1003.04,-169.775 1006.06,-168.833 1009,-168 1096.29,-143.276 1260.68,-163.441 1200,-96 1168.45,-60.9335 839.664,-46.9197 727.358,-43.1329"/>
<polygon fill="black" stroke="black" points="727.293,-39.629 717.183,-42.798 727.062,-46.6252 727.293,-39.629"/>
<a xlink:href="dir_000329_000185.html" target="_top" xlink:title="3">
<text text-anchor="middle" x="730.979" y="-34.4094" font-family="Helvetica,sans-Serif" font-size="10.00">3</text>
</a>
</g>
<!-- dir_8535e1bff9a0394c406d904cd202ab56&#45;&gt;dir_99e2969c7b06cee36a3bea33303e5bc8 -->
<g id="edge46" class="edge"><title>dir_8535e1bff9a0394c406d904cd202ab56&#45;&gt;dir_99e2969c7b06cee36a3bea33303e5bc8</title>
<path fill="none" stroke="black" d="M973.355,-167.831C978.433,-159.708 984.523,-149.964 990.118,-141.012"/>
<polygon fill="black" stroke="black" points="993.16,-142.748 995.492,-132.413 987.224,-139.038 993.16,-142.748"/>
<a xlink:href="dir_000329_000198.html" target="_top" xlink:title="1">
<text text-anchor="middle" x="993.662" y="-144.801" font-family="Helvetica,sans-Serif" font-size="10.00">1</text>
</a>
</g>
<!-- dir_37f0a3c58124c48dc73f8b0b64851e79 -->
<g id="node8" class="node"><title>dir_37f0a3c58124c48dc73f8b0b64851e79</title>
<a xlink:href="dir_37f0a3c58124c48dc73f8b0b64851e79.html" target="_top" xlink:title="fwAtomsPatch">
<polygon fill="white" stroke="red" points="906,-204 826,-204 826,-168 906,-168 906,-204"/>
<text text-anchor="middle" x="866" y="-183.5" font-family="Helvetica,sans-Serif" font-size="10.00">fwAtomsPatch</text>
</a>
</g>
<!-- dir_37f0a3c58124c48dc73f8b0b64851e79&#45;&gt;dir_211435ab6e02d177e72a2e329363bb51 -->
<g id="edge74" class="edge"><title>dir_37f0a3c58124c48dc73f8b0b64851e79&#45;&gt;dir_211435ab6e02d177e72a2e329363bb51</title>
<path fill="none" stroke="black" d="M906.157,-170.451C909.127,-169.547 912.096,-168.716 915,-168 1036.41,-138.054 1270.51,-189.079 1187,-96 1156.39,-61.8879 837.968,-47.3057 727.497,-43.2477"/>
<polygon fill="black" stroke="black" points="727.29,-39.7381 717.171,-42.877 727.039,-46.7336 727.29,-39.7381"/>
<a xlink:href="dir_000002_000185.html" target="_top" xlink:title="13">
<text text-anchor="middle" x="730.984" y="-34.5295" font-family="Helvetica,sans-Serif" font-size="10.00">13</text>
</a>
</g>
<!-- dir_37f0a3c58124c48dc73f8b0b64851e79&#45;&gt;dir_99e2969c7b06cee36a3bea33303e5bc8 -->
<g id="edge72" class="edge"><title>dir_37f0a3c58124c48dc73f8b0b64851e79&#45;&gt;dir_99e2969c7b06cee36a3bea33303e5bc8</title>
<path fill="none" stroke="black" d="M901.58,-167.831C922.758,-157.017 949.56,-143.331 970.839,-132.465"/>
<polygon fill="black" stroke="black" points="972.572,-135.51 979.887,-127.845 969.389,-129.276 972.572,-135.51"/>
<a xlink:href="dir_000002_000198.html" target="_top" xlink:title="1">
<text text-anchor="middle" x="970.662" y="-137.173" font-family="Helvetica,sans-Serif" font-size="10.00">1</text>
</a>
</g>
<!-- dir_b30dcc24596de076238e6d379a9d5df9 -->
<g id="node9" class="node"><title>dir_b30dcc24596de076238e6d379a9d5df9</title>
<a xlink:href="dir_b30dcc24596de076238e6d379a9d5df9.html" target="_top" xlink:title="fwCamp">
<polygon fill="white" stroke="red" points="1178,-132 1124,-132 1124,-96 1178,-96 1178,-132"/>
<text text-anchor="middle" x="1151" y="-111.5" font-family="Helvetica,sans-Serif" font-size="10.00">fwCamp</text>
</a>
</g>
<!-- dir_b30dcc24596de076238e6d379a9d5df9&#45;&gt;dir_211435ab6e02d177e72a2e329363bb51 -->
<g id="edge36" class="edge"><title>dir_b30dcc24596de076238e6d379a9d5df9&#45;&gt;dir_211435ab6e02d177e72a2e329363bb51</title>
<path fill="none" stroke="black" d="M1123.88,-99.2516C1120.94,-98.0123 1117.94,-96.8939 1115,-96 1042.61,-74.0018 816.865,-52.8637 727.228,-45.1118"/>
<polygon fill="black" stroke="black" points="727.502,-41.6225 717.239,-44.2547 726.903,-48.5968 727.502,-41.6225"/>
<a xlink:href="dir_000136_000185.html" target="_top" xlink:title="4">
<text text-anchor="middle" x="731.326" y="-36.6008" font-family="Helvetica,sans-Serif" font-size="10.00">4</text>
</a>
</g>
<!-- dir_50fb83a52c96507b31720e97abba0da8 -->
<g id="node10" class="node"><title>dir_50fb83a52c96507b31720e97abba0da8</title>
<a xlink:href="dir_50fb83a52c96507b31720e97abba0da8.html" target="_top" xlink:title="fwCom">
<polygon fill="white" stroke="red" points="1106,-132 1052,-132 1052,-96 1106,-96 1106,-132"/>
<text text-anchor="middle" x="1079" y="-111.5" font-family="Helvetica,sans-Serif" font-size="10.00">fwCom</text>
</a>
</g>
<!-- dir_50fb83a52c96507b31720e97abba0da8&#45;&gt;dir_211435ab6e02d177e72a2e329363bb51 -->
<g id="edge30" class="edge"><title>dir_50fb83a52c96507b31720e97abba0da8&#45;&gt;dir_211435ab6e02d177e72a2e329363bb51</title>
<path fill="none" stroke="black" d="M1051.85,-99.3284C1048.92,-98.0741 1045.93,-96.9313 1043,-96 931.621,-60.6016 792.869,-48.055 727.447,-43.8998"/>
<polygon fill="black" stroke="black" points="727.413,-40.3914 717.22,-43.2813 726.991,-47.3787 727.413,-40.3914"/>
<a xlink:href="dir_000110_000185.html" target="_top" xlink:title="4">
<text text-anchor="middle" x="731.173" y="-35.2742" font-family="Helvetica,sans-Serif" font-size="10.00">4</text>
</a>
</g>
<!-- dir_2ab27ceabf8493ef3fe59e65a095310f -->
<g id="node11" class="node"><title>dir_2ab27ceabf8493ef3fe59e65a095310f</title>
<a xlink:href="dir_2ab27ceabf8493ef3fe59e65a095310f.html" target="_top" xlink:title="fwCommand">
<polygon fill="white" stroke="red" points="808,-204 736,-204 736,-168 808,-168 808,-204"/>
<text text-anchor="middle" x="772" y="-183.5" font-family="Helvetica,sans-Serif" font-size="10.00">fwCommand</text>
</a>
</g>
<!-- dir_2ab27ceabf8493ef3fe59e65a095310f&#45;&gt;dir_99e2969c7b06cee36a3bea33303e5bc8 -->
<g id="edge54" class="edge"><title>dir_2ab27ceabf8493ef3fe59e65a095310f&#45;&gt;dir_99e2969c7b06cee36a3bea33303e5bc8</title>
<path fill="none" stroke="black" d="M808.179,-170.984C811.144,-169.92 814.111,-168.91 817,-168 881.032,-147.836 902.925,-155.133 970.001,-131.922"/>
<polygon fill="black" stroke="black" points="971.53,-135.093 979.774,-128.438 969.18,-128.499 971.53,-135.093"/>
<a xlink:href="dir_000452_000198.html" target="_top" xlink:title="5">
<text text-anchor="middle" x="969.097" y="-136.474" font-family="Helvetica,sans-Serif" font-size="10.00">5</text>
</a>
</g>
<!-- dir_d403231dc0066e015fb2f1d4fcc190e1 -->
<g id="node13" class="node"><title>dir_d403231dc0066e015fb2f1d4fcc190e1</title>
<a xlink:href="dir_d403231dc0066e015fb2f1d4fcc190e1.html" target="_top" xlink:title="fwData">
<polygon fill="white" stroke="red" points="718,-204 664,-204 664,-168 718,-168 718,-204"/>
<text text-anchor="middle" x="691" y="-183.5" font-family="Helvetica,sans-Serif" font-size="10.00">fwData</text>
</a>
</g>
<!-- dir_d403231dc0066e015fb2f1d4fcc190e1&#45;&gt;dir_211435ab6e02d177e72a2e329363bb51 -->
<g id="edge12" class="edge"><title>dir_d403231dc0066e015fb2f1d4fcc190e1&#45;&gt;dir_211435ab6e02d177e72a2e329363bb51</title>
<path fill="none" stroke="black" d="M718.266,-171.67C721.18,-170.349 724.128,-169.097 727,-168 783.805,-146.297 822.089,-180.326 859,-132 868.712,-119.285 868.436,-108.921 859,-96 843.327,-74.5382 771.997,-57.4743 727.164,-48.6307"/>
<polygon fill="black" stroke="black" points="727.689,-45.1676 717.208,-46.7155 726.367,-52.0416 727.689,-45.1676"/>
<a xlink:href="dir_000124_000185.html" target="_top" xlink:title="22">
<text text-anchor="middle" x="731.755" y="-40.5584" font-family="Helvetica,sans-Serif" font-size="10.00">22</text>
</a>
</g>
<!-- dir_d403231dc0066e015fb2f1d4fcc190e1&#45;&gt;dir_99e2969c7b06cee36a3bea33303e5bc8 -->
<g id="edge10" class="edge"><title>dir_d403231dc0066e015fb2f1d4fcc190e1&#45;&gt;dir_99e2969c7b06cee36a3bea33303e5bc8</title>
<path fill="none" stroke="black" d="M718.142,-171.312C721.079,-170.061 724.067,-168.923 727,-168 828.494,-136.04 864.339,-163.229 970.089,-131.706"/>
<polygon fill="black" stroke="black" points="971.337,-134.983 979.858,-128.688 969.271,-128.295 971.337,-134.983"/>
<a xlink:href="dir_000124_000198.html" target="_top" xlink:title="1">
<text text-anchor="middle" x="968.74" y="-136.257" font-family="Helvetica,sans-Serif" font-size="10.00">1</text>
</a>
</g>
<!-- dir_e4acc09401354fe7b85ebf878b128540 -->
<g id="node14" class="node"><title>dir_e4acc09401354fe7b85ebf878b128540</title>
<a xlink:href="dir_e4acc09401354fe7b85ebf878b128540.html" target="_top" xlink:title="fwDataCamp">
<polygon fill="white" stroke="red" points="962,-132 888,-132 888,-96 962,-96 962,-132"/>
<text text-anchor="middle" x="925" y="-111.5" font-family="Helvetica,sans-Serif" font-size="10.00">fwDataCamp</text>
</a>
</g>
<!-- dir_e4acc09401354fe7b85ebf878b128540&#45;&gt;dir_211435ab6e02d177e72a2e329363bb51 -->
<g id="edge52" class="edge"><title>dir_e4acc09401354fe7b85ebf878b128540&#45;&gt;dir_211435ab6e02d177e72a2e329363bb51</title>
<path fill="none" stroke="black" d="M887.755,-100.594C883.135,-99.0086 878.468,-97.4428 874,-96 823.468,-79.6807 764.475,-62.7341 727.182,-52.2772"/>
<polygon fill="black" stroke="black" points="727.836,-48.8262 717.263,-49.5058 725.953,-55.5679 727.836,-48.8262"/>
<a xlink:href="dir_000127_000185.html" target="_top" xlink:title="3">
<text text-anchor="middle" x="732.063" y="-44.5589" font-family="Helvetica,sans-Serif" font-size="10.00">3</text>
</a>
</g>
<!-- dir_c7fc7f30a0fac3858b6460abad15189d -->
<g id="node15" class="node"><title>dir_c7fc7f30a0fac3858b6460abad15189d</title>
<a xlink:href="dir_c7fc7f30a0fac3858b6460abad15189d.html" target="_top" xlink:title="fwDataIO">
<polygon fill="white" stroke="red" points="646,-204 588,-204 588,-168 646,-168 646,-204"/>
<text text-anchor="middle" x="617" y="-183.5" font-family="Helvetica,sans-Serif" font-size="10.00">fwDataIO</text>
</a>
</g>
<!-- dir_c7fc7f30a0fac3858b6460abad15189d&#45;&gt;dir_211435ab6e02d177e72a2e329363bb51 -->
<g id="edge40" class="edge"><title>dir_c7fc7f30a0fac3858b6460abad15189d&#45;&gt;dir_211435ab6e02d177e72a2e329363bb51</title>
<path fill="none" stroke="black" d="M627.107,-167.597C632.762,-157.199 639.883,-143.931 646,-132 656.713,-111.107 668.363,-87.221 676.983,-69.3093"/>
<polygon fill="black" stroke="black" points="680.265,-70.5599 681.434,-60.0299 673.953,-67.532 680.265,-70.5599"/>
<a xlink:href="dir_000140_000185.html" target="_top" xlink:title="4">
<text text-anchor="middle" x="681.27" y="-72.529" font-family="Helvetica,sans-Serif" font-size="10.00">4</text>
</a>
</g>
<!-- dir_c7fc7f30a0fac3858b6460abad15189d&#45;&gt;dir_99e2969c7b06cee36a3bea33303e5bc8 -->
<g id="edge38" class="edge"><title>dir_c7fc7f30a0fac3858b6460abad15189d&#45;&gt;dir_99e2969c7b06cee36a3bea33303e5bc8</title>
<path fill="none" stroke="black" d="M646.086,-171.058C649.048,-169.891 652.052,-168.841 655,-168 787.744,-130.13 833.352,-170.252 969.898,-131.701"/>
<polygon fill="black" stroke="black" points="971.269,-134.947 979.889,-128.788 969.309,-128.227 971.269,-134.947"/>
<a xlink:href="dir_000140_000198.html" target="_top" xlink:title="2">
<text text-anchor="middle" x="968.613" y="-136.18" font-family="Helvetica,sans-Serif" font-size="10.00">2</text>
</a>
</g>
<!-- dir_275ff62a6c8adea86d407fe8052638c7 -->
<g id="node16" class="node"><title>dir_275ff62a6c8adea86d407fe8052638c7</title>
<a xlink:href="dir_275ff62a6c8adea86d407fe8052638c7.html" target="_top" xlink:title="fwDataTools">
<polygon fill="white" stroke="red" points="850,-132 778,-132 778,-96 850,-96 850,-132"/>
<text text-anchor="middle" x="814" y="-111.5" font-family="Helvetica,sans-Serif" font-size="10.00">fwDataTools</text>
</a>
</g>
<!-- dir_275ff62a6c8adea86d407fe8052638c7&#45;&gt;dir_211435ab6e02d177e72a2e329363bb51 -->
<g id="edge42" class="edge"><title>dir_275ff62a6c8adea86d407fe8052638c7&#45;&gt;dir_211435ab6e02d177e72a2e329363bb51</title>
<path fill="none" stroke="black" d="M782.71,-95.8314C765.48,-85.8273 744.018,-73.3655 726.084,-62.9522"/>
<polygon fill="black" stroke="black" points="727.474,-59.7119 717.069,-57.7173 723.959,-65.7655 727.474,-59.7119"/>
<a xlink:href="dir_000105_000185.html" target="_top" xlink:title="6">
<text text-anchor="middle" x="732.008" y="-56.5615" font-family="Helvetica,sans-Serif" font-size="10.00">6</text>
</a>
</g>
<!-- dir_e18b2ef57c5978479782112bef8f4ded -->
<g id="node17" class="node"><title>dir_e18b2ef57c5978479782112bef8f4ded</title>
<a xlink:href="dir_e18b2ef57c5978479782112bef8f4ded.html" target="_top" xlink:title="fwDicomTools">
<polygon fill="white" stroke="red" points="760,-132 680,-132 680,-96 760,-96 760,-132"/>
<text text-anchor="middle" x="720" y="-111.5" font-family="Helvetica,sans-Serif" font-size="10.00">fwDicomTools</text>
</a>
</g>
<!-- dir_e18b2ef57c5978479782112bef8f4ded&#45;&gt;dir_211435ab6e02d177e72a2e329363bb51 -->
<g id="edge64" class="edge"><title>dir_e18b2ef57c5978479782112bef8f4ded&#45;&gt;dir_211435ab6e02d177e72a2e329363bb51</title>
<path fill="none" stroke="black" d="M712.43,-95.8314C709.151,-87.9617 705.238,-78.5712 701.606,-69.8533"/>
<polygon fill="black" stroke="black" points="704.749,-68.2979 697.672,-60.4133 698.288,-70.9902 704.749,-68.2979"/>
<a xlink:href="dir_000528_000185.html" target="_top" xlink:title="2">
<text text-anchor="middle" x="708.753" y="-68.024" font-family="Helvetica,sans-Serif" font-size="10.00">2</text>
</a>
</g>
<!-- dir_5f5d4e0a99a4cdaf5e0ef0fdab110c40 -->
<g id="node18" class="node"><title>dir_5f5d4e0a99a4cdaf5e0ef0fdab110c40</title>
<a xlink:href="dir_5f5d4e0a99a4cdaf5e0ef0fdab110c40.html" target="_top" xlink:title="fwGui">
<polygon fill="white" stroke="red" points="570,-204 516,-204 516,-168 570,-168 570,-204"/>
<text text-anchor="middle" x="543" y="-183.5" font-family="Helvetica,sans-Serif" font-size="10.00">fwGui</text>
</a>
</g>
<!-- dir_5f5d4e0a99a4cdaf5e0ef0fdab110c40&#45;&gt;dir_211435ab6e02d177e72a2e329363bb51 -->
<g id="edge6" class="edge"><title>dir_5f5d4e0a99a4cdaf5e0ef0fdab110c40&#45;&gt;dir_211435ab6e02d177e72a2e329363bb51</title>
<path fill="none" stroke="black" d="M570.386,-171.63C592.782,-159.448 622.145,-142.352 631,-132 642.267,-118.828 637.099,-110.874 646,-96 651.835,-86.2488 659.315,-76.3805 666.446,-67.7949"/>
<polygon fill="black" stroke="black" points="669.271,-69.8766 673.111,-60.002 663.951,-65.3268 669.271,-69.8766"/>
<a xlink:href="dir_000034_000185.html" target="_top" xlink:title="28">
<text text-anchor="middle" x="669.092" y="-71.9538" font-family="Helvetica,sans-Serif" font-size="10.00">28</text>
</a>
</g>
<!-- dir_5f5d4e0a99a4cdaf5e0ef0fdab110c40&#45;&gt;dir_99e2969c7b06cee36a3bea33303e5bc8 -->
<g id="edge4" class="edge"><title>dir_5f5d4e0a99a4cdaf5e0ef0fdab110c40&#45;&gt;dir_99e2969c7b06cee36a3bea33303e5bc8</title>
<path fill="none" stroke="black" d="M570.092,-171.146C573.039,-169.927 576.043,-168.843 579,-168 744.135,-120.941 800.645,-177.763 970.171,-131.585"/>
<polygon fill="black" stroke="black" points="971.225,-134.924 979.908,-128.854 969.335,-128.184 971.225,-134.924"/>
<a xlink:href="dir_000034_000198.html" target="_top" xlink:title="1">
<text text-anchor="middle" x="968.53" y="-136.129" font-family="Helvetica,sans-Serif" font-size="10.00">1</text>
</a>
</g>
<!-- dir_f29608c7cf0564404ebe35826801924d -->
<g id="node19" class="node"><title>dir_f29608c7cf0564404ebe35826801924d</title>
<a xlink:href="dir_f29608c7cf0564404ebe35826801924d.html" target="_top" xlink:title="fwGuiQt">
<polygon fill="white" stroke="red" points="566,-276 512,-276 512,-240 566,-240 566,-276"/>
<text text-anchor="middle" x="539" y="-255.5" font-family="Helvetica,sans-Serif" font-size="10.00">fwGuiQt</text>
</a>
</g>
<!-- dir_f29608c7cf0564404ebe35826801924d&#45;&gt;dir_211435ab6e02d177e72a2e329363bb51 -->
<g id="edge24" class="edge"><title>dir_f29608c7cf0564404ebe35826801924d&#45;&gt;dir_211435ab6e02d177e72a2e329363bb51</title>
<path fill="none" stroke="black" d="M511.886,-245.752C506.378,-243.594 500.566,-241.547 495,-240 394.467,-212.054 356.209,-250.905 263,-204 211.247,-177.957 151.295,-139.111 190,-96 220.831,-61.6597 541.789,-47.2088 652.613,-43.2178"/>
<polygon fill="black" stroke="black" points="652.795,-46.7137 662.666,-42.8639 652.549,-39.718 652.795,-46.7137"/>
<a xlink:href="dir_000029_000185.html" target="_top" xlink:title="36">
<text text-anchor="middle" x="649.302" y="-47.1776" font-family="Helvetica,sans-Serif" font-size="10.00">36</text>
</a>
</g>
<!-- dir_f29608c7cf0564404ebe35826801924d&#45;&gt;dir_5f5d4e0a99a4cdaf5e0ef0fdab110c40 -->
<g id="edge22" class="edge"><title>dir_f29608c7cf0564404ebe35826801924d&#45;&gt;dir_5f5d4e0a99a4cdaf5e0ef0fdab110c40</title>
<path fill="none" stroke="black" d="M540.009,-239.831C540.437,-232.131 540.946,-222.974 541.421,-214.417"/>
<polygon fill="black" stroke="black" points="544.917,-214.592 541.977,-204.413 537.928,-214.204 544.917,-214.592"/>
<a xlink:href="dir_000029_000034.html" target="_top" xlink:title="7">
<text text-anchor="middle" x="547.552" y="-215.839" font-family="Helvetica,sans-Serif" font-size="10.00">7</text>
</a>
</g>
<!-- dir_a612509fb1519e23eed8fd2961ac4435 -->
<g id="node20" class="node"><title>dir_a612509fb1519e23eed8fd2961ac4435</title>
<a xlink:href="dir_a612509fb1519e23eed8fd2961ac4435.html" target="_top" xlink:title="fwJobs">
<polygon fill="white" stroke="red" points="622,-132 568,-132 568,-96 622,-96 622,-132"/>
<text text-anchor="middle" x="595" y="-111.5" font-family="Helvetica,sans-Serif" font-size="10.00">fwJobs</text>
</a>
</g>
<!-- dir_a612509fb1519e23eed8fd2961ac4435&#45;&gt;dir_211435ab6e02d177e72a2e329363bb51 -->
<g id="edge70" class="edge"><title>dir_a612509fb1519e23eed8fd2961ac4435&#45;&gt;dir_211435ab6e02d177e72a2e329363bb51</title>
<path fill="none" stroke="black" d="M618.973,-95.8314C630.786,-86.8779 645.197,-75.9558 657.943,-66.2955"/>
<polygon fill="black" stroke="black" points="660.18,-68.9925 666.035,-60.1628 655.951,-63.4137 660.18,-68.9925"/>
<a xlink:href="dir_000100_000185.html" target="_top" xlink:title="2">
<text text-anchor="middle" x="659.03" y="-70.9264" font-family="Helvetica,sans-Serif" font-size="10.00">2</text>
</a>
</g>
<!-- dir_57bd170e5788c453b8e36f464cabbe6a -->
<g id="node21" class="node"><title>dir_57bd170e5788c453b8e36f464cabbe6a</title>
<a xlink:href="dir_57bd170e5788c453b8e36f464cabbe6a.html" target="_top" xlink:title="fwLog">
<polygon fill="white" stroke="red" points="486,-276 432,-276 432,-240 486,-240 486,-276"/>
<text text-anchor="middle" x="459" y="-255.5" font-family="Helvetica,sans-Serif" font-size="10.00">fwLog</text>
</a>
</g>
<!-- dir_f0478f9166362f8eecb659ca9d104237 -->
<g id="node22" class="node"><title>dir_f0478f9166362f8eecb659ca9d104237</title>
<a xlink:href="dir_f0478f9166362f8eecb659ca9d104237.html" target="_top" xlink:title="fwMath">
<polygon fill="white" stroke="red" points="550,-132 496,-132 496,-96 550,-96 550,-132"/>
<text text-anchor="middle" x="523" y="-111.5" font-family="Helvetica,sans-Serif" font-size="10.00">fwMath</text>
</a>
</g>
<!-- dir_f0478f9166362f8eecb659ca9d104237&#45;&gt;dir_211435ab6e02d177e72a2e329363bb51 -->
<g id="edge20" class="edge"><title>dir_f0478f9166362f8eecb659ca9d104237&#45;&gt;dir_211435ab6e02d177e72a2e329363bb51</title>
<path fill="none" stroke="black" d="M550.025,-100.224C553.038,-98.7667 556.075,-97.3321 559,-96 590.465,-81.6717 626.865,-66.8001 653.298,-56.3004"/>
<polygon fill="black" stroke="black" points="654.897,-59.432 662.909,-52.5005 652.323,-52.9222 654.897,-59.432"/>
<a xlink:href="dir_000261_000185.html" target="_top" xlink:title="5">
<text text-anchor="middle" x="652.598" y="-60.8939" font-family="Helvetica,sans-Serif" font-size="10.00">5</text>
</a>
</g>
<!-- dir_aa8f215c69db5b50398564694036f21f -->
<g id="node23" class="node"><title>dir_aa8f215c69db5b50398564694036f21f</title>
<a xlink:href="dir_aa8f215c69db5b50398564694036f21f.html" target="_top" xlink:title="fwMedData">
<polygon fill="white" stroke="red" points="398,-276 332,-276 332,-240 398,-240 398,-276"/>
<text text-anchor="middle" x="365" y="-255.5" font-family="Helvetica,sans-Serif" font-size="10.00">fwMedData</text>
</a>
</g>
<!-- dir_4d74f7d76b967e668241c167dfc3a400 -->
<g id="node24" class="node"><title>dir_4d74f7d76b967e668241c167dfc3a400</title>
<a xlink:href="dir_4d74f7d76b967e668241c167dfc3a400.html" target="_top" xlink:title="fwMedDataCamp">
<polygon fill="white" stroke="red" points="282,-276 190,-276 190,-240 282,-240 282,-276"/>
<text text-anchor="middle" x="236" y="-255.5" font-family="Helvetica,sans-Serif" font-size="10.00">fwMedDataCamp</text>
</a>
</g>
<!-- dir_287ecf1da364afc23270cf06f5e25a22 -->
<g id="node25" class="node"><title>dir_287ecf1da364afc23270cf06f5e25a22</title>
<a xlink:href="dir_287ecf1da364afc23270cf06f5e25a22.html" target="_top" xlink:title="fwMedDataTools">
<polygon fill="white" stroke="red" points="478,-132 388,-132 388,-96 478,-96 478,-132"/>
<text text-anchor="middle" x="433" y="-111.5" font-family="Helvetica,sans-Serif" font-size="10.00">fwMedDataTools</text>
</a>
</g>
<!-- dir_287ecf1da364afc23270cf06f5e25a22&#45;&gt;dir_211435ab6e02d177e72a2e329363bb51 -->
<g id="edge18" class="edge"><title>dir_287ecf1da364afc23270cf06f5e25a22&#45;&gt;dir_211435ab6e02d177e72a2e329363bb51</title>
<path fill="none" stroke="black" d="M478.015,-98.7639C481.049,-97.8083 484.065,-96.8786 487,-96 544.651,-78.7415 612.326,-61.2955 653.148,-51.0745"/>
<polygon fill="black" stroke="black" points="654.069,-54.452 662.925,-48.6362 652.375,-47.66 654.069,-54.452"/>
<a xlink:href="dir_000479_000185.html" target="_top" xlink:title="1">
<text text-anchor="middle" x="651.268" y="-55.5766" font-family="Helvetica,sans-Serif" font-size="10.00">1</text>
</a>
</g>
<!-- dir_37e60e414489ebe8281b3cad6cdbb82b -->
<g id="node26" class="node"><title>dir_37e60e414489ebe8281b3cad6cdbb82b</title>
<a xlink:href="dir_37e60e414489ebe8281b3cad6cdbb82b.html" target="_top" xlink:title="fwMemory">
<polygon fill="white" stroke="red" points="449,-204 387,-204 387,-168 449,-168 449,-204"/>
<text text-anchor="middle" x="418" y="-183.5" font-family="Helvetica,sans-Serif" font-size="10.00">fwMemory</text>
</a>
</g>
<!-- dir_37e60e414489ebe8281b3cad6cdbb82b&#45;&gt;dir_211435ab6e02d177e72a2e329363bb51 -->
<g id="edge28" class="edge"><title>dir_37e60e414489ebe8281b3cad6cdbb82b&#45;&gt;dir_211435ab6e02d177e72a2e329363bb51</title>
<path fill="none" stroke="black" d="M399.544,-167.764C382.083,-148.296 361.021,-117.37 379,-96 413.593,-54.8827 577.686,-45.0723 652.575,-42.7324"/>
<polygon fill="black" stroke="black" points="653.055,-46.2203 662.951,-42.4386 652.856,-39.2231 653.055,-46.2203"/>
<a xlink:href="dir_000117_000185.html" target="_top" xlink:title="21">
<text text-anchor="middle" x="649.542" y="-46.6601" font-family="Helvetica,sans-Serif" font-size="10.00">21</text>
</a>
</g>
<!-- dir_37e60e414489ebe8281b3cad6cdbb82b&#45;&gt;dir_99e2969c7b06cee36a3bea33303e5bc8 -->
<g id="edge26" class="edge"><title>dir_37e60e414489ebe8281b3cad6cdbb82b&#45;&gt;dir_99e2969c7b06cee36a3bea33303e5bc8</title>
<path fill="none" stroke="black" d="M449.143,-178.731C466.153,-175.006 487.64,-170.699 507,-168 708.661,-139.891 769.777,-185.803 970.267,-131.557"/>
<polygon fill="black" stroke="black" points="971.209,-134.927 979.92,-128.897 969.35,-128.179 971.209,-134.927"/>
<a xlink:href="dir_000117_000198.html" target="_top" xlink:title="1">
<text text-anchor="middle" x="968.498" y="-136.119" font-family="Helvetica,sans-Serif" font-size="10.00">1</text>
</a>
</g>
<!-- dir_cc1e52740401b61ba8d3cb170b12bc6e -->
<g id="node27" class="node"><title>dir_cc1e52740401b61ba8d3cb170b12bc6e</title>
<a xlink:href="dir_cc1e52740401b61ba8d3cb170b12bc6e.html" target="_top" xlink:title="fwPreferences">
<polygon fill="white" stroke="red" points="108,-276 28,-276 28,-240 108,-240 108,-276"/>
<text text-anchor="middle" x="68" y="-255.5" font-family="Helvetica,sans-Serif" font-size="10.00">fwPreferences</text>
</a>
</g>
<!-- dir_329785e108f78d3242cd3fe19044f66f -->
<g id="node28" class="node"><title>dir_329785e108f78d3242cd3fe19044f66f</title>
<a xlink:href="dir_329785e108f78d3242cd3fe19044f66f.html" target="_top" xlink:title="fwRender">
<polygon fill="white" stroke="red" points="350,-132 292,-132 292,-96 350,-96 350,-132"/>
<text text-anchor="middle" x="321" y="-111.5" font-family="Helvetica,sans-Serif" font-size="10.00">fwRender</text>
</a>
</g>
<!-- dir_329785e108f78d3242cd3fe19044f66f&#45;&gt;dir_211435ab6e02d177e72a2e329363bb51 -->
<g id="edge50" class="edge"><title>dir_329785e108f78d3242cd3fe19044f66f&#45;&gt;dir_211435ab6e02d177e72a2e329363bb51</title>
<path fill="none" stroke="black" d="M350.283,-100.684C354.815,-98.9326 359.489,-97.2985 364,-96 466.194,-66.5809 591.32,-51.4532 652.585,-45.3451"/>
<polygon fill="black" stroke="black" points="653.296,-48.7926 662.91,-44.3413 652.619,-41.8254 653.296,-48.7926"/>
<a xlink:href="dir_000585_000185.html" target="_top" xlink:title="1">
<text text-anchor="middle" x="649.993" y="-49.4662" font-family="Helvetica,sans-Serif" font-size="10.00">1</text>
</a>
</g>
<!-- dir_fdfb728702f7d2709da71f1ce14540e5 -->
<g id="node29" class="node"><title>dir_fdfb728702f7d2709da71f1ce14540e5</title>
<a xlink:href="dir_fdfb728702f7d2709da71f1ce14540e5.html" target="_top" xlink:title="fwRuntime">
<polygon fill="white" stroke="red" points="274,-132 210,-132 210,-96 274,-96 274,-132"/>
<text text-anchor="middle" x="242" y="-111.5" font-family="Helvetica,sans-Serif" font-size="10.00">fwRuntime</text>
</a>
</g>
<!-- dir_fdfb728702f7d2709da71f1ce14540e5&#45;&gt;dir_211435ab6e02d177e72a2e329363bb51 -->
<g id="edge62" class="edge"><title>dir_fdfb728702f7d2709da71f1ce14540e5&#45;&gt;dir_211435ab6e02d177e72a2e329363bb51</title>
<path fill="none" stroke="black" d="M274.369,-98.8035C277.252,-97.7521 280.155,-96.7959 283,-96 415.814,-58.8423 580.358,-47.0056 652.801,-43.4404"/>
<polygon fill="black" stroke="black" points="652.981,-46.9359 662.807,-42.9723 652.654,-39.9435 652.981,-46.9359"/>
<a xlink:href="dir_000041_000185.html" target="_top" xlink:title="17">
<text text-anchor="middle" x="649.523" y="-47.4399" font-family="Helvetica,sans-Serif" font-size="10.00">17</text>
</a>
</g>
<!-- dir_568519e23a988f37681a0ca5d0e6215d -->
<g id="node30" class="node"><title>dir_568519e23a988f37681a0ca5d0e6215d</title>
<a xlink:href="dir_568519e23a988f37681a0ca5d0e6215d.html" target="_top" xlink:title="fwServices">
<polygon fill="white" stroke="red" points="336,-204 272,-204 272,-168 336,-168 336,-204"/>
<text text-anchor="middle" x="304" y="-183.5" font-family="Helvetica,sans-Serif" font-size="10.00">fwServices</text>
</a>
</g>
<!-- dir_568519e23a988f37681a0ca5d0e6215d&#45;&gt;dir_211435ab6e02d177e72a2e329363bb51 -->
<g id="edge68" class="edge"><title>dir_568519e23a988f37681a0ca5d0e6215d&#45;&gt;dir_211435ab6e02d177e72a2e329363bb51</title>
<path fill="none" stroke="black" d="M271.742,-178.629C247.612,-171.24 216.256,-157.223 201,-132 192.72,-118.309 190.325,-107.918 201,-96 231.056,-62.4426 543.688,-47.5205 652.73,-43.3095"/>
<polygon fill="black" stroke="black" points="653.067,-46.7994 662.928,-42.9242 652.803,-39.8044 653.067,-46.7994"/>
<a xlink:href="dir_000047_000185.html" target="_top" xlink:title="4">
<text text-anchor="middle" x="649.583" y="-47.2722" font-family="Helvetica,sans-Serif" font-size="10.00">4</text>
</a>
</g>
<!-- dir_568519e23a988f37681a0ca5d0e6215d&#45;&gt;dir_99e2969c7b06cee36a3bea33303e5bc8 -->
<g id="edge66" class="edge"><title>dir_568519e23a988f37681a0ca5d0e6215d&#45;&gt;dir_99e2969c7b06cee36a3bea33303e5bc8</title>
<path fill="none" stroke="black" d="M336.171,-176.854C349.072,-173.534 364.141,-170.089 378,-168 635.776,-129.141 713.998,-198.621 969.971,-131.602"/>
<polygon fill="black" stroke="black" points="971.172,-134.904 979.934,-128.948 969.37,-128.14 971.172,-134.904"/>
<a xlink:href="dir_000047_000198.html" target="_top" xlink:title="4">
<text text-anchor="middle" x="968.429" y="-136.073" font-family="Helvetica,sans-Serif" font-size="10.00">4</text>
</a>
</g>
<!-- dir_c5eae49244d62dbd2d1f2a260c152c19 -->
<g id="node31" class="node"><title>dir_c5eae49244d62dbd2d1f2a260c152c19</title>
<a xlink:href="dir_c5eae49244d62dbd2d1f2a260c152c19.html" target="_top" xlink:title="fwThread">
<polygon fill="white" stroke="red" points="152,-132 96,-132 96,-96 152,-96 152,-132"/>
<text text-anchor="middle" x="124" y="-111.5" font-family="Helvetica,sans-Serif" font-size="10.00">fwThread</text>
</a>
</g>
<!-- dir_c5eae49244d62dbd2d1f2a260c152c19&#45;&gt;dir_211435ab6e02d177e72a2e329363bb51 -->
<g id="edge44" class="edge"><title>dir_c5eae49244d62dbd2d1f2a260c152c19&#45;&gt;dir_211435ab6e02d177e72a2e329363bb51</title>
<path fill="none" stroke="black" d="M152.058,-100.604C156.638,-98.8187 161.393,-97.1951 166,-96 258.539,-71.9968 549.418,-51.1833 652.957,-44.3589"/>
<polygon fill="black" stroke="black" points="653.196,-47.8509 662.946,-43.7057 652.739,-40.8658 653.196,-47.8509"/>
<a xlink:href="dir_000695_000185.html" target="_top" xlink:title="3">
<text text-anchor="middle" x="649.794" y="-48.4185" font-family="Helvetica,sans-Serif" font-size="10.00">3</text>
</a>
</g>
<!-- dir_99e2969c7b06cee36a3bea33303e5bc8&#45;&gt;dir_211435ab6e02d177e72a2e329363bb51 -->
<g id="edge8" class="edge"><title>dir_99e2969c7b06cee36a3bea33303e5bc8&#45;&gt;dir_211435ab6e02d177e72a2e329363bb51</title>
<path fill="none" stroke="black" d="M979.816,-99.4427C976.886,-98.1662 973.912,-96.9868 971,-96 886.532,-67.374 782.339,-52.3406 727.629,-45.9136"/>
<polygon fill="black" stroke="black" points="727.699,-42.399 717.367,-44.7415 726.905,-49.3538 727.699,-42.399"/>
<a xlink:href="dir_000198_000185.html" target="_top" xlink:title="16">
<text text-anchor="middle" x="731.593" y="-37.4859" font-family="Helvetica,sans-Serif" font-size="10.00">16</text>
</a>
</g>
<!-- dir_a23b119ca3f961d7d93f20297020e7bd -->
<g id="node33" class="node"><title>dir_a23b119ca3f961d7d93f20297020e7bd</title>
<a xlink:href="dir_a23b119ca3f961d7d93f20297020e7bd.html" target="_top" xlink:title="fwZip">
<polygon fill="white" stroke="red" points="78,-132 24,-132 24,-96 78,-96 78,-132"/>
<text text-anchor="middle" x="51" y="-111.5" font-family="Helvetica,sans-Serif" font-size="10.00">fwZip</text>
</a>
</g>
<!-- dir_a23b119ca3f961d7d93f20297020e7bd&#45;&gt;dir_211435ab6e02d177e72a2e329363bb51 -->
<g id="edge56" class="edge"><title>dir_a23b119ca3f961d7d93f20297020e7bd&#45;&gt;dir_211435ab6e02d177e72a2e329363bb51</title>
<path fill="none" stroke="black" d="M78.0898,-99.1391C81.0376,-97.9218 84.0422,-96.8393 87,-96 194.369,-65.5343 538.575,-48.4534 652.782,-43.5161"/>
<polygon fill="black" stroke="black" points="652.949,-47.0122 662.791,-43.0892 652.651,-40.0186 652.949,-47.0122"/>
<a xlink:href="dir_000307_000185.html" target="_top" xlink:title="6">
<text text-anchor="middle" x="649.479" y="-47.502" font-family="Helvetica,sans-Serif" font-size="10.00">6</text>
</a>
</g>
</g>
</svg>
        <g id="navigator" transform="translate(0 0)" fill="#404254">
                <rect fill="#f2f5e9" fill-opacity="0.5" stroke="#606060" stroke-width=".5" x="0" y="0" width="60" height="60"/>
                <use id="zoomplus" xlink:href="#zoomPlus" x="17" y="9" onmousedown="handleZoom(evt,'in')"/>
                <use id="zoomminus" xlink:href="#zoomMin" x="42" y="9" onmousedown="handleZoom(evt,'out')"/>
                <use id="reset" xlink:href="#resetDef" x="30" y="36" onmousedown="handleReset()"/>
                <g id="arrowUp" xlink:href="#dirArrow" transform="translate(30 24)" onmousedown="handlePan(0,-1)">
                  <use xlink:href="#rim" fill="#404040">
                        <set attributeName="fill" to="#808080" begin="arrowUp.mouseover" end="arrowUp.mouseout"/>
                  </use>
                  <path fill="none" stroke="white" stroke-width="1.5" d="M0,-3.0v7 M-2.5,-0.5L0,-3.0L2.5,-0.5"/>
                </g>
                <g id="arrowRight" xlink:href="#dirArrow" transform="rotate(90) translate(36 -43)" onmousedown="handlePan(1,0)">
                  <use xlink:href="#rim" fill="#404040">
                        <set attributeName="fill" to="#808080" begin="arrowRight.mouseover" end="arrowRight.mouseout"/>
                  </use>
                  <path fill="none" stroke="white" stroke-width="1.5" d="M0,-3.0v7 M-2.5,-0.5L0,-3.0L2.5,-0.5"/>
                </g>
                <g id="arrowDown" xlink:href="#dirArrow" transform="rotate(180) translate(-30 -48)" onmousedown="handlePan(0,1)">
                  <use xlink:href="#rim" fill="#404040">
                        <set attributeName="fill" to="#808080" begin="arrowDown.mouseover" end="arrowDown.mouseout"/>
                  </use>
                  <path fill="none" stroke="white" stroke-width="1.5" d="M0,-3.0v7 M-2.5,-0.5L0,-3.0L2.5,-0.5"/>
                </g>
                <g id="arrowLeft" xlink:href="#dirArrow" transform="rotate(270) translate(-36 17)" onmousedown="handlePan(-1,0)">
                  <use xlink:href="#rim" fill="#404040">
                        <set attributeName="fill" to="#808080" begin="arrowLeft.mouseover" end="arrowLeft.mouseout"/>
                  </use>
                  <path fill="none" stroke="white" stroke-width="1.5" d="M0,-3.0v7 M-2.5,-0.5L0,-3.0L2.5,-0.5"/>
                </g>
        </g>
        <svg viewBox="0 0 15 15" width="100%" height="30px" preserveAspectRatio="xMaxYMin meet">
         <g id="arrow_out" transform="scale(0.3 0.3)">
          <a xlink:href="dir_4b27a3ee21cd820803ead0a49ff3b161_dep_org.svg" target="_base">
           <rect id="button" ry="5" rx="5" y="6" x="6" height="38" width="38"
                fill="#f2f5e9" fill-opacity="0.5" stroke="#606060" stroke-width="1.0"/>
           <path id="arrow"
             d="M 11.500037,31.436501 C 11.940474,20.09759 22.043105,11.32322 32.158766,21.979434 L 37.068811,17.246167 C 37.068811,17.246167 37.088388,32 37.088388,32 L 22.160133,31.978069 C 22.160133,31.978069 26.997745,27.140456 26.997745,27.140456 C 18.528582,18.264221 13.291696,25.230495 11.500037,31.436501 z"
             style="fill:#404040;"/>
          </a>
         </g>
        </svg>
</svg>
