<?xml version="1.0" encoding="UTF-8" standalone="no"?>
<!DOCTYPE svg PUBLIC "-//W3C//DTD SVG 1.1//EN"
 "http://www.w3.org/Graphics/SVG/1.1/DTD/svg11.dtd">
<!-- Generated by graphviz version 2.36.0 (20140111.2315)
 -->
<!-- Title: fwDataCamp Pages: 1 -->
<svg width="274pt" height="159pt"
 viewBox="0.00 0.00 274.00 159.00" xmlns="http://www.w3.org/2000/svg" xmlns:xlink="http://www.w3.org/1999/xlink">
<g id="graph0" class="graph" transform="scale(1 1) rotate(0) translate(4 155)">
<title>fwDataCamp</title>
<polygon fill="white" stroke="none" points="-4,4 -4,-155 270,-155 270,4 -4,4"/>
<g id="clust1" class="cluster"><title>clusterdir_4b27a3ee21cd820803ead0a49ff3b161</title>
<g id="a_clust1"><a xlink:href="dir_4b27a3ee21cd820803ead0a49ff3b161.html" target="_top" xlink:title="core">
<polygon fill="#ddddee" stroke="black" points="8,-56 8,-143 258,-143 258,-56 8,-56"/>
<text text-anchor="middle" x="133" y="-131" font-family="Helvetica,sans-Serif" font-size="10.00">core</text>
</a>
</g>
</g>
<g id="clust2" class="cluster"><title>clusterdir_e4acc09401354fe7b85ebf878b128540</title>
<g id="a_clust2"><a xlink:href="dir_e4acc09401354fe7b85ebf878b128540.html" target="_top">
<polygon fill="#eeeeff" stroke="black" points="16,-64 16,-116 250,-116 250,-64 16,-64"/>
</a>
</g>
</g>
<!-- dir_e4acc09401354fe7b85ebf878b128540 -->
<g id="node1" class="node"><title>dir_e4acc09401354fe7b85ebf878b128540</title>
<text text-anchor="middle" x="205" y="-87.5" font-family="Helvetica,sans-Serif" font-size="10.00">fwDataCamp</text>
</g>
<!-- dir_1081414931953d53a3f5379da30933ec -->
<g id="node2" class="node"><title>dir_1081414931953d53a3f5379da30933ec</title>
<g id="a_node2"><a xlink:href="dir_1081414931953d53a3f5379da30933ec.html" target="_top" xlink:title="include">
<polygon fill="white" stroke="red" points="150,-108 96,-108 96,-72 150,-72 150,-108"/>
<text text-anchor="middle" x="123" y="-87.5" font-family="Helvetica,sans-Serif" font-size="10.00">include</text>
</a>
</g>
</g>
<!-- dir_211435ab6e02d177e72a2e329363bb51 -->
<g id="node4" class="node"><title>dir_211435ab6e02d177e72a2e329363bb51</title>
<g id="a_node4"><a xlink:href="dir_211435ab6e02d177e72a2e329363bb51.html" target="_top" xlink:title="fwCore">
<polygon fill="white" stroke="red" points="150,-36 96,-36 96,-0 150,-0 150,-36"/>
<text text-anchor="middle" x="123" y="-15.5" font-family="Helvetica,sans-Serif" font-size="10.00">fwCore</text>
</a>
</g>
</g>
<!-- dir_1081414931953d53a3f5379da30933ec&#45;&gt;dir_211435ab6e02d177e72a2e329363bb51 -->
<g id="edge1" class="edge"><title>dir_1081414931953d53a3f5379da30933ec&#45;&gt;dir_211435ab6e02d177e72a2e329363bb51</title>
<path fill="none" stroke="black" d="M123,-71.6966C123,-63.9827 123,-54.7125 123,-46.1124"/>
<polygon fill="black" stroke="black" points="126.5,-46.1043 123,-36.1043 119.5,-46.1044 126.5,-46.1043"/>
<g id="a_edge1&#45;headlabel"><a xlink:href="dir_000214_000285.html" target="_top" xlink:title="3">
<text text-anchor="middle" x="129.339" y="-47.199" font-family="Helvetica,sans-Serif" font-size="10.00">3</text>
</a>
</g>
</g>
<!-- dir_dafb00552e2d0eae8ed91922d2363cd5 -->
<g id="node3" class="node"><title>dir_dafb00552e2d0eae8ed91922d2363cd5</title>
<g id="a_node3"><a xlink:href="dir_dafb00552e2d0eae8ed91922d2363cd5.html" target="_top" xlink:title="src">
<polygon fill="white" stroke="red" points="78,-108 24,-108 24,-72 78,-72 78,-108"/>
<text text-anchor="middle" x="51" y="-87.5" font-family="Helvetica,sans-Serif" font-size="10.00">src</text>
</a>
</g>
</g>
</g>
</svg>
