<?xml version="1.0" encoding="UTF-8" standalone="no"?>
<!DOCTYPE svg PUBLIC "-//W3C//DTD SVG 1.1//EN"
 "http://www.w3.org/Graphics/SVG/1.1/DTD/svg11.dtd">
<!-- Generated by graphviz version 2.26.3 (20100126.1600)
 -->
<!-- Title: fwAtomsPatch Pages: 1 -->
<svg width="512pt" height="233pt"
 viewBox="0.00 0.00 512.00 233.00" xmlns="http://www.w3.org/2000/svg" xmlns:xlink="http://www.w3.org/1999/xlink">
<g id="graph1" class="graph" transform="scale(1 1) rotate(0) translate(4 229)">
<title>fwAtomsPatch</title>
<polygon fill="white" stroke="white" points="-4,5 -4,-229 509,-229 509,5 -4,5"/>
<g id="graph2" class="cluster"><title>clusterdir_9f1919e6a5727aee1479c8e5d7558ecf</title>
<a xlink:href="dir_9f1919e6a5727aee1479c8e5d7558ecf.html" target="_top" xlink:title="include">
<polygon fill="#ddddee" stroke="black" points="8,-128 8,-217 496,-217 496,-128 8,-128"/>
<text text-anchor="middle" x="252" y="-204" font-family="Helvetica,sans-Serif" font-size="10.00">include</text>
</a>
</g>
<g id="graph3" class="cluster"><title>clusterdir_1eaebb54108edb684dfde844aacda9b7</title>
<a xlink:href="dir_1eaebb54108edb684dfde844aacda9b7.html" target="_top">
<polygon fill="#eeeeff" stroke="black" points="16,-136 16,-188 488,-188 488,-136 16,-136"/>
</a>
</g>
<!-- dir_1eaebb54108edb684dfde844aacda9b7 -->
<g id="node3" class="node"><title>dir_1eaebb54108edb684dfde844aacda9b7</title>
<text text-anchor="middle" x="440" y="-159.5" font-family="Helvetica,sans-Serif" font-size="10.00">fwAtomsPatch</text>
</g>
<!-- dir_7d552bc335ae235abfdde4fbe2513b50 -->
<g id="node4" class="node"><title>dir_7d552bc335ae235abfdde4fbe2513b50</title>
<a xlink:href="dir_7d552bc335ae235abfdde4fbe2513b50.html" target="_top" xlink:title="conditions">
<polygon fill="white" stroke="black" points="84,-180 24,-180 24,-144 84,-144 84,-180"/>
<text text-anchor="middle" x="54" y="-159.5" font-family="Helvetica,sans-Serif" font-size="10.00">conditions</text>
</a>
</g>
<!-- dir_211435ab6e02d177e72a2e329363bb51 -->
<g id="node10" class="node"><title>dir_211435ab6e02d177e72a2e329363bb51</title>
<a xlink:href="dir_211435ab6e02d177e72a2e329363bb51.html" target="_top" xlink:title="fwCore">
<polygon fill="white" stroke="red" points="327,-36 273,-36 273,-1.77636e-14 327,-3.55271e-15 327,-36"/>
<text text-anchor="middle" x="300" y="-15.5" font-family="Helvetica,sans-Serif" font-size="10.00">fwCore</text>
</a>
</g>
<!-- dir_7d552bc335ae235abfdde4fbe2513b50&#45;&gt;dir_211435ab6e02d177e72a2e329363bb51 -->
<g id="edge10" class="edge"><title>dir_7d552bc335ae235abfdde4fbe2513b50&#45;&gt;dir_211435ab6e02d177e72a2e329363bb51</title>
<path fill="none" stroke="black" d="M73.1279,-143.785C79.2407,-138.394 86.1922,-132.685 93,-128 149.414,-89.1782 221.102,-53.8656 263.61,-34.2224"/>
<polygon fill="black" stroke="black" points="265.102,-37.3885 272.734,-30.0397 262.185,-31.0252 265.102,-37.3885"/>
<a xlink:href="dir_000008_000185.html" target="_top" xlink:title="1">
<text text-anchor="middle" x="263.018" y="-38.9673" font-family="Helvetica,sans-Serif" font-size="10.00">1</text>
</a>
</g>
<!-- dir_f7e96e5e29e46f071477d6b0fcf413cf -->
<g id="node5" class="node"><title>dir_f7e96e5e29e46f071477d6b0fcf413cf</title>
<a xlink:href="dir_f7e96e5e29e46f071477d6b0fcf413cf.html" target="_top" xlink:title="exceptions">
<polygon fill="white" stroke="black" points="310,-180 246,-180 246,-144 310,-144 310,-180"/>
<text text-anchor="middle" x="278" y="-159.5" font-family="Helvetica,sans-Serif" font-size="10.00">exceptions</text>
</a>
</g>
<!-- dir_4e20dfdf32483c863e13c707cf4923dd -->
<g id="node6" class="node"><title>dir_4e20dfdf32483c863e13c707cf4923dd</title>
<a xlink:href="dir_4e20dfdf32483c863e13c707cf4923dd.html" target="_top" xlink:title="helper">
<polygon fill="white" stroke="black" points="228,-180 174,-180 174,-144 228,-144 228,-180"/>
<text text-anchor="middle" x="201" y="-159.5" font-family="Helvetica,sans-Serif" font-size="10.00">helper</text>
</a>
</g>
<!-- dir_e01a0faadaafa3747e4f13fb8ba877d3 -->
<g id="node7" class="node"><title>dir_e01a0faadaafa3747e4f13fb8ba877d3</title>
<a xlink:href="dir_e01a0faadaafa3747e4f13fb8ba877d3.html" target="_top" xlink:title="infos">
<polygon fill="white" stroke="black" points="156,-180 102,-180 102,-144 156,-144 156,-180"/>
<text text-anchor="middle" x="129" y="-159.5" font-family="Helvetica,sans-Serif" font-size="10.00">infos</text>
</a>
</g>
<!-- dir_aad208ea3e5abda45b82690838c6e4de -->
<g id="node8" class="node"><title>dir_aad208ea3e5abda45b82690838c6e4de</title>
<a xlink:href="dir_aad208ea3e5abda45b82690838c6e4de.html" target="_top" xlink:title="patcher">
<polygon fill="white" stroke="red" points="382,-180 328,-180 328,-144 382,-144 382,-180"/>
<text text-anchor="middle" x="355" y="-159.5" font-family="Helvetica,sans-Serif" font-size="10.00">patcher</text>
</a>
</g>
<!-- dir_99e2969c7b06cee36a3bea33303e5bc8 -->
<g id="node9" class="node"><title>dir_99e2969c7b06cee36a3bea33303e5bc8</title>
<a xlink:href="dir_99e2969c7b06cee36a3bea33303e5bc8.html" target="_top" xlink:title="fwTools">
<polygon fill="white" stroke="red" points="327,-108 273,-108 273,-72 327,-72 327,-108"/>
<text text-anchor="middle" x="300" y="-87.5" font-family="Helvetica,sans-Serif" font-size="10.00">fwTools</text>
</a>
</g>
<!-- dir_aad208ea3e5abda45b82690838c6e4de&#45;&gt;dir_99e2969c7b06cee36a3bea33303e5bc8 -->
<g id="edge6" class="edge"><title>dir_aad208ea3e5abda45b82690838c6e4de&#45;&gt;dir_99e2969c7b06cee36a3bea33303e5bc8</title>
<path fill="none" stroke="black" d="M341.121,-143.831C334.786,-135.539 327.162,-125.557 320.207,-116.453"/>
<polygon fill="black" stroke="black" points="322.917,-114.235 314.066,-108.413 317.355,-118.485 322.917,-114.235"/>
<a xlink:href="dir_000322_000198.html" target="_top" xlink:title="1">
<text text-anchor="middle" x="327.356" y="-112.868" font-family="Helvetica,sans-Serif" font-size="10.00">1</text>
</a>
</g>
<!-- dir_aad208ea3e5abda45b82690838c6e4de&#45;&gt;dir_211435ab6e02d177e72a2e329363bb51 -->
<g id="edge8" class="edge"><title>dir_aad208ea3e5abda45b82690838c6e4de&#45;&gt;dir_211435ab6e02d177e72a2e329363bb51</title>
<path fill="none" stroke="black" d="M353.21,-143.808C350.911,-125.188 345.966,-95.7008 336,-72 332.046,-62.5953 326.385,-53.0879 320.719,-44.727"/>
<polygon fill="black" stroke="black" points="323.518,-42.6231 314.885,-36.4815 317.804,-46.6664 323.518,-42.6231"/>
<a xlink:href="dir_000322_000185.html" target="_top" xlink:title="2">
<text text-anchor="middle" x="327.912" y="-41.4175" font-family="Helvetica,sans-Serif" font-size="10.00">2</text>
</a>
</g>
<!-- dir_99e2969c7b06cee36a3bea33303e5bc8&#45;&gt;dir_211435ab6e02d177e72a2e329363bb51 -->
<g id="edge4" class="edge"><title>dir_99e2969c7b06cee36a3bea33303e5bc8&#45;&gt;dir_211435ab6e02d177e72a2e329363bb51</title>
<path fill="none" stroke="black" d="M300,-71.8314C300,-64.131 300,-54.9743 300,-46.4166"/>
<polygon fill="black" stroke="black" points="303.5,-46.4132 300,-36.4133 296.5,-46.4133 303.5,-46.4132"/>
<a xlink:href="dir_000198_000185.html" target="_top" xlink:title="16">
<text text-anchor="middle" x="306.339" y="-47.5079" font-family="Helvetica,sans-Serif" font-size="10.00">16</text>
</a>
</g>
</g>
</svg>
