<?xml version="1.0" encoding="UTF-8" standalone="no"?>
<!DOCTYPE svg PUBLIC "-//W3C//DTD SVG 1.1//EN"
 "http://www.w3.org/Graphics/SVG/1.1/DTD/svg11.dtd">
<!-- Generated by graphviz version 2.26.3 (20100126.1600)
 -->
<!-- Title: include Pages: 1 -->
<svg width="185pt" height="233pt"
 viewBox="0.00 0.00 185.00 233.00" xmlns="http://www.w3.org/2000/svg" xmlns:xlink="http://www.w3.org/1999/xlink">
<g id="graph1" class="graph" transform="scale(1 1) rotate(0) translate(4 229)">
<title>include</title>
<polygon fill="white" stroke="white" points="-4,5 -4,-229 182,-229 182,5 -4,5"/>
<g id="graph2" class="cluster"><title>clusterdir_d403231dc0066e015fb2f1d4fcc190e1</title>
<a xlink:href="dir_d403231dc0066e015fb2f1d4fcc190e1.html" target="_top" xlink:title="fwData">
<polygon fill="#ddddee" stroke="black" points="11,-128 11,-217 169,-217 169,-128 11,-128"/>
<text text-anchor="middle" x="90" y="-204" font-family="Helvetica,sans-Serif" font-size="10.00">fwData</text>
</a>
</g>
<g id="graph3" class="cluster"><title>clusterdir_d4338a4b4f7c445f9b485d48dc0f1524</title>
<a xlink:href="dir_d4338a4b4f7c445f9b485d48dc0f1524.html" target="_top">
<polygon fill="#eeeeff" stroke="black" points="19,-136 19,-188 161,-188 161,-136 19,-136"/>
</a>
</g>
<!-- dir_d4338a4b4f7c445f9b485d48dc0f1524 -->
<g id="node3" class="node"><title>dir_d4338a4b4f7c445f9b485d48dc0f1524</title>
<text text-anchor="middle" x="126" y="-159.5" font-family="Helvetica,sans-Serif" font-size="10.00">include</text>
</g>
<!-- dir_652210ad99ffe33ea95d3b4758f68f3a -->
<g id="node4" class="node"><title>dir_652210ad99ffe33ea95d3b4758f68f3a</title>
<a xlink:href="dir_652210ad99ffe33ea95d3b4758f68f3a.html" target="_top" xlink:title="fwData">
<polygon fill="white" stroke="red" points="81,-180 27,-180 27,-144 81,-144 81,-180"/>
<text text-anchor="middle" x="54" y="-159.5" font-family="Helvetica,sans-Serif" font-size="10.00">fwData</text>
</a>
</g>
<!-- dir_99e2969c7b06cee36a3bea33303e5bc8 -->
<g id="node5" class="node"><title>dir_99e2969c7b06cee36a3bea33303e5bc8</title>
<a xlink:href="dir_99e2969c7b06cee36a3bea33303e5bc8.html" target="_top" xlink:title="fwTools">
<polygon fill="white" stroke="red" points="54,-108 2.13163e-14,-108 0,-72 54,-72 54,-108"/>
<text text-anchor="middle" x="27" y="-87.5" font-family="Helvetica,sans-Serif" font-size="10.00">fwTools</text>
</a>
</g>
<!-- dir_652210ad99ffe33ea95d3b4758f68f3a&#45;&gt;dir_99e2969c7b06cee36a3bea33303e5bc8 -->
<g id="edge6" class="edge"><title>dir_652210ad99ffe33ea95d3b4758f68f3a&#45;&gt;dir_99e2969c7b06cee36a3bea33303e5bc8</title>
<path fill="none" stroke="black" d="M47.1868,-143.831C44.2356,-135.962 40.7142,-126.571 37.445,-117.853"/>
<polygon fill="black" stroke="black" points="40.6934,-116.548 33.905,-108.413 34.1391,-119.006 40.6934,-116.548"/>
<a xlink:href="dir_000132_000198.html" target="_top" xlink:title="1">
<text text-anchor="middle" x="44.614" y="-116.416" font-family="Helvetica,sans-Serif" font-size="10.00">1</text>
</a>
</g>
<!-- dir_211435ab6e02d177e72a2e329363bb51 -->
<g id="node6" class="node"><title>dir_211435ab6e02d177e72a2e329363bb51</title>
<a xlink:href="dir_211435ab6e02d177e72a2e329363bb51.html" target="_top" xlink:title="fwCore">
<polygon fill="white" stroke="red" points="81,-36 27,-36 27,-1.77636e-14 81,-3.55271e-15 81,-36"/>
<text text-anchor="middle" x="54" y="-15.5" font-family="Helvetica,sans-Serif" font-size="10.00">fwCore</text>
</a>
</g>
<!-- dir_652210ad99ffe33ea95d3b4758f68f3a&#45;&gt;dir_211435ab6e02d177e72a2e329363bb51 -->
<g id="edge8" class="edge"><title>dir_652210ad99ffe33ea95d3b4758f68f3a&#45;&gt;dir_211435ab6e02d177e72a2e329363bb51</title>
<path fill="none" stroke="black" d="M57.8413,-143.6C59.8166,-133.203 62.0123,-119.935 63,-108 64.3197,-92.0545 64.3197,-87.9455 63,-72 62.3055,-63.6085 61.0138,-54.5578 59.6214,-46.3092"/>
<polygon fill="black" stroke="black" points="63.0544,-45.6235 57.8413,-36.3999 56.1647,-46.8612 63.0544,-45.6235"/>
<a xlink:href="dir_000132_000185.html" target="_top" xlink:title="5">
<text text-anchor="middle" x="66.4844" y="-46.1595" font-family="Helvetica,sans-Serif" font-size="10.00">5</text>
</a>
</g>
<!-- dir_99e2969c7b06cee36a3bea33303e5bc8&#45;&gt;dir_211435ab6e02d177e72a2e329363bb51 -->
<g id="edge4" class="edge"><title>dir_99e2969c7b06cee36a3bea33303e5bc8&#45;&gt;dir_211435ab6e02d177e72a2e329363bb51</title>
<path fill="none" stroke="black" d="M33.8132,-71.8314C36.7644,-63.9617 40.2858,-54.5712 43.555,-45.8533"/>
<polygon fill="black" stroke="black" points="46.8609,-47.0055 47.095,-36.4133 40.3066,-44.5476 46.8609,-47.0055"/>
<a xlink:href="dir_000198_000185.html" target="_top" xlink:title="16">
<text text-anchor="middle" x="48.2573" y="-48.8682" font-family="Helvetica,sans-Serif" font-size="10.00">16</text>
</a>
</g>
</g>
</svg>
