<?xml version="1.0" encoding="UTF-8" standalone="no"?>
<!DOCTYPE svg PUBLIC "-//W3C//DTD SVG 1.1//EN"
 "http://www.w3.org/Graphics/SVG/1.1/DTD/svg11.dtd">
<!-- Generated by graphviz version 2.26.3 (20100126.1600)
 -->
<!-- Title: include Pages: 1 -->
<svg width="204pt" height="233pt"
 viewBox="0.00 0.00 204.00 233.00" xmlns="http://www.w3.org/2000/svg" xmlns:xlink="http://www.w3.org/1999/xlink">
<g id="graph1" class="graph" transform="scale(1 1) rotate(0) translate(4 229)">
<title>include</title>
<polygon fill="white" stroke="white" points="-4,5 -4,-229 201,-229 201,5 -4,5"/>
<g id="graph2" class="cluster"><title>clusterdir_8535e1bff9a0394c406d904cd202ab56</title>
<a xlink:href="dir_8535e1bff9a0394c406d904cd202ab56.html" target="_top" xlink:title="fwAtomsFilter">
<polygon fill="#ddddee" stroke="black" points="8,-128 8,-217 188,-217 188,-128 8,-128"/>
<text text-anchor="middle" x="98" y="-204" font-family="Helvetica,sans-Serif" font-size="10.00">fwAtomsFilter</text>
</a>
</g>
<g id="graph3" class="cluster"><title>clusterdir_b43625e1015b1e97d70db43135146b6c</title>
<a xlink:href="dir_b43625e1015b1e97d70db43135146b6c.html" target="_top">
<polygon fill="#eeeeff" stroke="black" points="16,-136 16,-188 180,-188 180,-136 16,-136"/>
</a>
</g>
<!-- dir_b43625e1015b1e97d70db43135146b6c -->
<g id="node3" class="node"><title>dir_b43625e1015b1e97d70db43135146b6c</title>
<text text-anchor="middle" x="145" y="-159.5" font-family="Helvetica,sans-Serif" font-size="10.00">include</text>
</g>
<!-- dir_2eb3ad3d9b1bffb9f781c05e02e87a9b -->
<g id="node4" class="node"><title>dir_2eb3ad3d9b1bffb9f781c05e02e87a9b</title>
<a xlink:href="dir_2eb3ad3d9b1bffb9f781c05e02e87a9b.html" target="_top" xlink:title="fwAtomsFilter">
<polygon fill="white" stroke="red" points="100,-180 24,-180 24,-144 100,-144 100,-180"/>
<text text-anchor="middle" x="62" y="-159.5" font-family="Helvetica,sans-Serif" font-size="10.00">fwAtomsFilter</text>
</a>
</g>
<!-- dir_99e2969c7b06cee36a3bea33303e5bc8 -->
<g id="node5" class="node"><title>dir_99e2969c7b06cee36a3bea33303e5bc8</title>
<a xlink:href="dir_99e2969c7b06cee36a3bea33303e5bc8.html" target="_top" xlink:title="fwTools">
<polygon fill="white" stroke="red" points="62,-108 8,-108 8,-72 62,-72 62,-108"/>
<text text-anchor="middle" x="35" y="-87.5" font-family="Helvetica,sans-Serif" font-size="10.00">fwTools</text>
</a>
</g>
<!-- dir_2eb3ad3d9b1bffb9f781c05e02e87a9b&#45;&gt;dir_99e2969c7b06cee36a3bea33303e5bc8 -->
<g id="edge6" class="edge"><title>dir_2eb3ad3d9b1bffb9f781c05e02e87a9b&#45;&gt;dir_99e2969c7b06cee36a3bea33303e5bc8</title>
<path fill="none" stroke="black" d="M55.1868,-143.831C52.2356,-135.962 48.7142,-126.571 45.445,-117.853"/>
<polygon fill="black" stroke="black" points="48.6934,-116.548 41.905,-108.413 42.1391,-119.006 48.6934,-116.548"/>
<a xlink:href="dir_000353_000198.html" target="_top" xlink:title="1">
<text text-anchor="middle" x="52.614" y="-116.416" font-family="Helvetica,sans-Serif" font-size="10.00">1</text>
</a>
</g>
<!-- dir_211435ab6e02d177e72a2e329363bb51 -->
<g id="node6" class="node"><title>dir_211435ab6e02d177e72a2e329363bb51</title>
<a xlink:href="dir_211435ab6e02d177e72a2e329363bb51.html" target="_top" xlink:title="fwCore">
<polygon fill="white" stroke="red" points="89,-36 35,-36 35,-1.77636e-14 89,-3.55271e-15 89,-36"/>
<text text-anchor="middle" x="62" y="-15.5" font-family="Helvetica,sans-Serif" font-size="10.00">fwCore</text>
</a>
</g>
<!-- dir_2eb3ad3d9b1bffb9f781c05e02e87a9b&#45;&gt;dir_211435ab6e02d177e72a2e329363bb51 -->
<g id="edge8" class="edge"><title>dir_2eb3ad3d9b1bffb9f781c05e02e87a9b&#45;&gt;dir_211435ab6e02d177e72a2e329363bb51</title>
<path fill="none" stroke="black" d="M65.8413,-143.6C67.8166,-133.203 70.0123,-119.935 71,-108 72.3197,-92.0545 72.3197,-87.9455 71,-72 70.3055,-63.6085 69.0138,-54.5578 67.6214,-46.3092"/>
<polygon fill="black" stroke="black" points="71.0544,-45.6235 65.8413,-36.3999 64.1647,-46.8612 71.0544,-45.6235"/>
<a xlink:href="dir_000353_000185.html" target="_top" xlink:title="3">
<text text-anchor="middle" x="74.4844" y="-46.1595" font-family="Helvetica,sans-Serif" font-size="10.00">3</text>
</a>
</g>
<!-- dir_99e2969c7b06cee36a3bea33303e5bc8&#45;&gt;dir_211435ab6e02d177e72a2e329363bb51 -->
<g id="edge4" class="edge"><title>dir_99e2969c7b06cee36a3bea33303e5bc8&#45;&gt;dir_211435ab6e02d177e72a2e329363bb51</title>
<path fill="none" stroke="black" d="M41.8132,-71.8314C44.7644,-63.9617 48.2858,-54.5712 51.555,-45.8533"/>
<polygon fill="black" stroke="black" points="54.8609,-47.0055 55.095,-36.4133 48.3066,-44.5476 54.8609,-47.0055"/>
<a xlink:href="dir_000198_000185.html" target="_top" xlink:title="16">
<text text-anchor="middle" x="56.2573" y="-48.8682" font-family="Helvetica,sans-Serif" font-size="10.00">16</text>
</a>
</g>
</g>
</svg>
