<?xml version="1.0" encoding="UTF-8" standalone="no"?>
<!DOCTYPE svg PUBLIC "-//W3C//DTD SVG 1.1//EN"
 "http://www.w3.org/Graphics/SVG/1.1/DTD/svg11.dtd">
<!-- Generated by graphviz version 2.26.3 (20100126.1600)
 -->
<!-- Title: fwDataTools Pages: 1 -->
<svg width="280pt" height="161pt"
 viewBox="0.00 0.00 280.00 161.00" xmlns="http://www.w3.org/2000/svg" xmlns:xlink="http://www.w3.org/1999/xlink">
<g id="graph1" class="graph" transform="scale(1 1) rotate(0) translate(4 157)">
<title>fwDataTools</title>
<polygon fill="white" stroke="white" points="-4,5 -4,-157 277,-157 277,5 -4,5"/>
<g id="graph2" class="cluster"><title>clusterdir_6273e5c372b4f570bcf4c2f034da82db</title>
<a xlink:href="dir_6273e5c372b4f570bcf4c2f034da82db.html" target="_top" xlink:title="src">
<polygon fill="#ddddee" stroke="black" points="8,-56 8,-145 264,-145 264,-56 8,-56"/>
<text text-anchor="middle" x="136" y="-132" font-family="Helvetica,sans-Serif" font-size="10.00">src</text>
</a>
</g>
<g id="graph3" class="cluster"><title>clusterdir_50f24e2e777be66adc2d7ffe95d8e30a</title>
<a xlink:href="dir_50f24e2e777be66adc2d7ffe95d8e30a.html" target="_top">
<polygon fill="#eeeeff" stroke="black" points="16,-64 16,-116 256,-116 256,-64 16,-64"/>
</a>
</g>
<!-- dir_50f24e2e777be66adc2d7ffe95d8e30a -->
<g id="node3" class="node"><title>dir_50f24e2e777be66adc2d7ffe95d8e30a</title>
<text text-anchor="middle" x="212" y="-87.5" font-family="Helvetica,sans-Serif" font-size="10.00">fwDataTools</text>
</g>
<!-- dir_211435ab6e02d177e72a2e329363bb51 -->
<g id="node6" class="node"><title>dir_211435ab6e02d177e72a2e329363bb51</title>
<a xlink:href="dir_211435ab6e02d177e72a2e329363bb51.html" target="_top" xlink:title="fwCore">
<polygon fill="white" stroke="red" points="239,-36 185,-36 185,-1.77636e-14 239,-3.55271e-15 239,-36"/>
<text text-anchor="middle" x="212" y="-15.5" font-family="Helvetica,sans-Serif" font-size="10.00">fwCore</text>
</a>
</g>
<!-- dir_50f24e2e777be66adc2d7ffe95d8e30a&#45;&gt;dir_211435ab6e02d177e72a2e329363bb51 -->
<g id="edge4" class="edge"><title>dir_50f24e2e777be66adc2d7ffe95d8e30a&#45;&gt;dir_211435ab6e02d177e72a2e329363bb51</title>
<path fill="none" stroke="black" d="M212,-71.8314C212,-64.131 212,-54.9743 212,-46.4166"/>
<polygon fill="black" stroke="black" points="215.5,-46.4132 212,-36.4133 208.5,-46.4133 215.5,-46.4132"/>
<a xlink:href="dir_000107_000185.html" target="_top" xlink:title="1">
<text text-anchor="middle" x="218.339" y="-47.5079" font-family="Helvetica,sans-Serif" font-size="10.00">1</text>
</a>
</g>
<!-- dir_7cac8ec4ff00033e39a24920d2869970 -->
<g id="node4" class="node"><title>dir_7cac8ec4ff00033e39a24920d2869970</title>
<a xlink:href="dir_7cac8ec4ff00033e39a24920d2869970.html" target="_top" xlink:title="fieldHelper">
<polygon fill="white" stroke="black" points="158,-108 96,-108 96,-72 158,-72 158,-108"/>
<text text-anchor="middle" x="127" y="-87.5" font-family="Helvetica,sans-Serif" font-size="10.00">fieldHelper</text>
</a>
</g>
<!-- dir_a632a3cf120489788e4794ac386933cb -->
<g id="node5" class="node"><title>dir_a632a3cf120489788e4794ac386933cb</title>
<a xlink:href="dir_a632a3cf120489788e4794ac386933cb.html" target="_top" xlink:title="helper">
<polygon fill="white" stroke="black" points="78,-108 24,-108 24,-72 78,-72 78,-108"/>
<text text-anchor="middle" x="51" y="-87.5" font-family="Helvetica,sans-Serif" font-size="10.00">helper</text>
</a>
</g>
</g>
</svg>
