<?xml version="1.0" encoding="UTF-8" standalone="no"?>
<!DOCTYPE svg PUBLIC "-//W3C//DTD SVG 1.1//EN"
 "http://www.w3.org/Graphics/SVG/1.1/DTD/svg11.dtd">
<!-- Generated by graphviz version 2.26.3 (20100126.1600)
 -->
<!-- Title: fwCom Pages: 1 -->
<svg width="258pt" height="161pt"
 viewBox="0.00 0.00 258.00 161.00" xmlns="http://www.w3.org/2000/svg" xmlns:xlink="http://www.w3.org/1999/xlink">
<g id="graph1" class="graph" transform="scale(1 1) rotate(0) translate(4 157)">
<title>fwCom</title>
<polygon fill="white" stroke="white" points="-4,5 -4,-157 255,-157 255,5 -4,5"/>
<g id="graph2" class="cluster"><title>clusterdir_2758cccce93070fadc3ca6c214c24795</title>
<a xlink:href="dir_2758cccce93070fadc3ca6c214c24795.html" target="_top" xlink:title="include">
<polygon fill="#ddddee" stroke="black" points="8,-56 8,-145 242,-145 242,-56 8,-56"/>
<text text-anchor="middle" x="125" y="-132" font-family="Helvetica,sans-Serif" font-size="10.00">include</text>
</a>
</g>
<g id="graph3" class="cluster"><title>clusterdir_4706170986542c6c0f8a367afa165671</title>
<a xlink:href="dir_4706170986542c6c0f8a367afa165671.html" target="_top">
<polygon fill="#eeeeff" stroke="black" points="16,-64 16,-116 234,-116 234,-64 16,-64"/>
</a>
</g>
<!-- dir_4706170986542c6c0f8a367afa165671 -->
<g id="node3" class="node"><title>dir_4706170986542c6c0f8a367afa165671</title>
<text text-anchor="middle" x="199" y="-87.5" font-family="Helvetica,sans-Serif" font-size="10.00">fwCom</text>
</g>
<!-- dir_211435ab6e02d177e72a2e329363bb51 -->
<g id="node6" class="node"><title>dir_211435ab6e02d177e72a2e329363bb51</title>
<a xlink:href="dir_211435ab6e02d177e72a2e329363bb51.html" target="_top" xlink:title="fwCore">
<polygon fill="white" stroke="red" points="152,-36 98,-36 98,-1.77636e-14 152,-3.55271e-15 152,-36"/>
<text text-anchor="middle" x="125" y="-15.5" font-family="Helvetica,sans-Serif" font-size="10.00">fwCore</text>
</a>
</g>
<!-- dir_4706170986542c6c0f8a367afa165671&#45;&gt;dir_211435ab6e02d177e72a2e329363bb51 -->
<g id="edge6" class="edge"><title>dir_4706170986542c6c0f8a367afa165671&#45;&gt;dir_211435ab6e02d177e72a2e329363bb51</title>
<path fill="none" stroke="black" d="M180.327,-71.8314C171.475,-63.219 160.751,-52.7851 151.111,-43.4048"/>
<polygon fill="black" stroke="black" points="153.275,-40.6279 143.667,-36.1628 148.394,-45.645 153.275,-40.6279"/>
<a xlink:href="dir_000130_000208.html" target="_top" xlink:title="4">
<text text-anchor="middle" x="157.832" y="-38.5996" font-family="Helvetica,sans-Serif" font-size="10.00">4</text>
</a>
</g>
<!-- dir_44ecbbbb6d925ccabae2e5da41aca152 -->
<g id="node4" class="node"><title>dir_44ecbbbb6d925ccabae2e5da41aca152</title>
<a xlink:href="dir_44ecbbbb6d925ccabae2e5da41aca152.html" target="_top" xlink:title="exception">
<polygon fill="white" stroke="black" points="154,-108 96,-108 96,-72 154,-72 154,-108"/>
<text text-anchor="middle" x="125" y="-87.5" font-family="Helvetica,sans-Serif" font-size="10.00">exception</text>
</a>
</g>
<!-- dir_ef2781b0df26769eab3f68761cd475e1 -->
<g id="node5" class="node"><title>dir_ef2781b0df26769eab3f68761cd475e1</title>
<a xlink:href="dir_ef2781b0df26769eab3f68761cd475e1.html" target="_top" xlink:title="util">
<polygon fill="white" stroke="black" points="78,-108 24,-108 24,-72 78,-72 78,-108"/>
<text text-anchor="middle" x="51" y="-87.5" font-family="Helvetica,sans-Serif" font-size="10.00">util</text>
</a>
</g>
<!-- dir_ef2781b0df26769eab3f68761cd475e1&#45;&gt;dir_211435ab6e02d177e72a2e329363bb51 -->
<g id="edge4" class="edge"><title>dir_ef2781b0df26769eab3f68761cd475e1&#45;&gt;dir_211435ab6e02d177e72a2e329363bb51</title>
<path fill="none" stroke="black" d="M69.6733,-71.8314C78.5249,-63.219 89.2486,-52.7851 98.8895,-43.4048"/>
<polygon fill="black" stroke="black" points="101.606,-45.645 106.333,-36.1628 96.7246,-40.6279 101.606,-45.645"/>
<a xlink:href="dir_000180_000208.html" target="_top" xlink:title="1">
<text text-anchor="middle" x="101.01" y="-47.6866" font-family="Helvetica,sans-Serif" font-size="10.00">1</text>
</a>
</g>
</g>
</svg>
