<?xml version="1.0" encoding="UTF-8" standalone="no"?>
<!DOCTYPE svg PUBLIC "-//W3C//DTD SVG 1.1//EN"
 "http://www.w3.org/Graphics/SVG/1.1/DTD/svg11.dtd">
<!-- Generated by graphviz version 2.36.0 (20140111.2315)
 -->
<!-- Title: src Pages: 1 -->
<svg width="194pt" height="159pt"
 viewBox="0.00 0.00 194.00 159.00" xmlns="http://www.w3.org/2000/svg" xmlns:xlink="http://www.w3.org/1999/xlink">
<g id="graph0" class="graph" transform="scale(1 1) rotate(0) translate(4 155)">
<title>src</title>
<polygon fill="white" stroke="none" points="-4,4 -4,-155 190,-155 190,4 -4,4"/>
<g id="clust1" class="cluster"><title>clusterdir_abd5c5451e98a02223cf55f47b02cb37</title>
<g id="a_clust1"><a xlink:href="dir_abd5c5451e98a02223cf55f47b02cb37.html" target="_top" xlink:title="visuVTKQt">
<polygon fill="#ddddee" stroke="black" points="8,-56 8,-143 178,-143 178,-56 8,-56"/>
<text text-anchor="middle" x="93" y="-131" font-family="Helvetica,sans-Serif" font-size="10.00">visuVTKQt</text>
</a>
</g>
</g>
<g id="clust2" class="cluster"><title>clusterdir_0eab45b18cee3a99773cdc47a8f97aa7</title>
<g id="a_clust2"><a xlink:href="dir_0eab45b18cee3a99773cdc47a8f97aa7.html" target="_top">
<polygon fill="#eeeeff" stroke="black" points="16,-64 16,-116 170,-116 170,-64 16,-64"/>
</a>
</g>
</g>
<!-- dir_0eab45b18cee3a99773cdc47a8f97aa7 -->
<g id="node1" class="node"><title>dir_0eab45b18cee3a99773cdc47a8f97aa7</title>
<text text-anchor="middle" x="135" y="-87.5" font-family="Helvetica,sans-Serif" font-size="10.00">src</text>
</g>
<!-- dir_55d81aff64f14ae1316c2707051650e9 -->
<g id="node2" class="node"><title>dir_55d81aff64f14ae1316c2707051650e9</title>
<g id="a_node2"><a xlink:href="dir_55d81aff64f14ae1316c2707051650e9.html" target="_top" xlink:title="visuVTKQt">
<polygon fill="white" stroke="black" points="89.25,-108 24.75,-108 24.75,-72 89.25,-72 89.25,-108"/>
<text text-anchor="middle" x="57" y="-87.5" font-family="Helvetica,sans-Serif" font-size="10.00">visuVTKQt</text>
</a>
</g>
</g>
<!-- dir_36c79fd5fccc0faf954b7c20b3e2467b -->
<g id="node3" class="node"><title>dir_36c79fd5fccc0faf954b7c20b3e2467b</title>
<g id="a_node3"><a xlink:href="dir_36c79fd5fccc0faf954b7c20b3e2467b.html" target="_top" xlink:title="SrcLib">
<polygon fill="white" stroke="red" points="84,-36 30,-36 30,-0 84,-0 84,-36"/>
<text text-anchor="middle" x="57" y="-15.5" font-family="Helvetica,sans-Serif" font-size="10.00">SrcLib</text>
</a>
</g>
</g>
<!-- dir_55d81aff64f14ae1316c2707051650e9&#45;&gt;dir_36c79fd5fccc0faf954b7c20b3e2467b -->
<g id="edge1" class="edge"><title>dir_55d81aff64f14ae1316c2707051650e9&#45;&gt;dir_36c79fd5fccc0faf954b7c20b3e2467b</title>
<path fill="none" stroke="black" d="M57,-71.6966C57,-63.9827 57,-54.7125 57,-46.1124"/>
<polygon fill="black" stroke="black" points="60.5001,-46.1043 57,-36.1043 53.5001,-46.1044 60.5001,-46.1043"/>
<g id="a_edge1&#45;headlabel"><a xlink:href="dir_000991_000061.html" target="_top" xlink:title="1">
<text text-anchor="middle" x="63.3393" y="-47.199" font-family="Helvetica,sans-Serif" font-size="10.00">1</text>
</a>
</g>
</g>
</g>
</svg>
