<?xml version="1.0" encoding="UTF-8" standalone="no"?>
<!DOCTYPE svg PUBLIC "-//W3C//DTD SVG 1.1//EN"
 "http://www.w3.org/Graphics/SVG/1.1/DTD/svg11.dtd">
<!-- Generated by graphviz version 2.36.0 (20140111.2315)
 -->
<!-- Title: src Pages: 1 -->
<svg width="182pt" height="159pt"
 viewBox="0.00 0.00 182.00 159.00" xmlns="http://www.w3.org/2000/svg" xmlns:xlink="http://www.w3.org/1999/xlink">
<g id="graph0" class="graph" transform="scale(1 1) rotate(0) translate(4 155)">
<title>src</title>
<polygon fill="white" stroke="none" points="-4,4 -4,-155 178,-155 178,4 -4,4"/>
<g id="clust1" class="cluster"><title>clusterdir_5f5d4e0a99a4cdaf5e0ef0fdab110c40</title>
<g id="a_clust1"><a xlink:href="dir_5f5d4e0a99a4cdaf5e0ef0fdab110c40.html" target="_top" xlink:title="fwGui">
<polygon fill="#ddddee" stroke="black" points="8,-56 8,-143 166,-143 166,-56 8,-56"/>
<text text-anchor="middle" x="87" y="-131" font-family="Helvetica,sans-Serif" font-size="10.00">fwGui</text>
</a>
</g>
</g>
<g id="clust2" class="cluster"><title>clusterdir_ce22133a7bf6850ff6c417ce9ca32e8a</title>
<g id="a_clust2"><a xlink:href="dir_ce22133a7bf6850ff6c417ce9ca32e8a.html" target="_top">
<polygon fill="#eeeeff" stroke="black" points="16,-64 16,-116 158,-116 158,-64 16,-64"/>
</a>
</g>
</g>
<!-- dir_ce22133a7bf6850ff6c417ce9ca32e8a -->
<g id="node1" class="node"><title>dir_ce22133a7bf6850ff6c417ce9ca32e8a</title>
<text text-anchor="middle" x="123" y="-87.5" font-family="Helvetica,sans-Serif" font-size="10.00">src</text>
</g>
<!-- dir_83962d2fe3bd058129035a930c779efe -->
<g id="node2" class="node"><title>dir_83962d2fe3bd058129035a930c779efe</title>
<g id="a_node2"><a xlink:href="dir_83962d2fe3bd058129035a930c779efe.html" target="_top" xlink:title="fwGui">
<polygon fill="white" stroke="red" points="78,-108 24,-108 24,-72 78,-72 78,-108"/>
<text text-anchor="middle" x="51" y="-87.5" font-family="Helvetica,sans-Serif" font-size="10.00">fwGui</text>
</a>
</g>
</g>
<!-- dir_8f7727ceffd8efbef9c7ee70de79b134 -->
<g id="node3" class="node"><title>dir_8f7727ceffd8efbef9c7ee70de79b134</title>
<g id="a_node3"><a xlink:href="dir_8f7727ceffd8efbef9c7ee70de79b134.html" target="_top" xlink:title="include">
<polygon fill="white" stroke="red" points="78,-36 24,-36 24,-0 78,-0 78,-36"/>
<text text-anchor="middle" x="51" y="-15.5" font-family="Helvetica,sans-Serif" font-size="10.00">include</text>
</a>
</g>
</g>
<!-- dir_83962d2fe3bd058129035a930c779efe&#45;&gt;dir_8f7727ceffd8efbef9c7ee70de79b134 -->
<g id="edge1" class="edge"><title>dir_83962d2fe3bd058129035a930c779efe&#45;&gt;dir_8f7727ceffd8efbef9c7ee70de79b134</title>
<path fill="none" stroke="black" d="M51,-71.6966C51,-63.9827 51,-54.7125 51,-46.1124"/>
<polygon fill="black" stroke="black" points="54.5001,-46.1043 51,-36.1043 47.5001,-46.1044 54.5001,-46.1043"/>
<g id="a_edge1&#45;headlabel"><a xlink:href="dir_000097_000098.html" target="_top" xlink:title="5">
<text text-anchor="middle" x="57.3393" y="-47.199" font-family="Helvetica,sans-Serif" font-size="10.00">5</text>
</a>
</g>
</g>
</g>
</svg>
