<?xml version="1.0" encoding="UTF-8" standalone="no"?>
<!DOCTYPE svg PUBLIC "-//W3C//DTD SVG 1.1//EN"
 "http://www.w3.org/Graphics/SVG/1.1/DTD/svg11.dtd">
<!-- Generated by graphviz version 2.26.3 (20100126.1600)
 -->
<!-- Title: src Pages: 1 -->
<svg width="190pt" height="161pt"
 viewBox="0.00 0.00 190.00 161.00" xmlns="http://www.w3.org/2000/svg" xmlns:xlink="http://www.w3.org/1999/xlink">
<g id="graph1" class="graph" transform="scale(1 1) rotate(0) translate(4 157)">
<title>src</title>
<polygon fill="white" stroke="white" points="-4,5 -4,-157 187,-157 187,5 -4,5"/>
<g id="graph2" class="cluster"><title>clusterdir_37e60e414489ebe8281b3cad6cdbb82b</title>
<a xlink:href="dir_37e60e414489ebe8281b3cad6cdbb82b.html" target="_top" xlink:title="fwMemory">
<polygon fill="#ddddee" stroke="black" points="8,-56 8,-145 174,-145 174,-56 8,-56"/>
<text text-anchor="middle" x="91" y="-132" font-family="Helvetica,sans-Serif" font-size="10.00">fwMemory</text>
</a>
</g>
<g id="graph3" class="cluster"><title>clusterdir_346596c29834d77e0dfa87a14e5e4a99</title>
<a xlink:href="dir_346596c29834d77e0dfa87a14e5e4a99.html" target="_top">
<polygon fill="#eeeeff" stroke="black" points="16,-64 16,-116 166,-116 166,-64 16,-64"/>
</a>
</g>
<!-- dir_346596c29834d77e0dfa87a14e5e4a99 -->
<g id="node3" class="node"><title>dir_346596c29834d77e0dfa87a14e5e4a99</title>
<text text-anchor="middle" x="131" y="-87.5" font-family="Helvetica,sans-Serif" font-size="10.00">src</text>
</g>
<!-- dir_814dc1001f2c80b9e1291e8c86819067 -->
<g id="node4" class="node"><title>dir_814dc1001f2c80b9e1291e8c86819067</title>
<a xlink:href="dir_814dc1001f2c80b9e1291e8c86819067.html" target="_top" xlink:title="fwMemory">
<polygon fill="white" stroke="red" points="86,-108 24,-108 24,-72 86,-72 86,-108"/>
<text text-anchor="middle" x="55" y="-87.5" font-family="Helvetica,sans-Serif" font-size="10.00">fwMemory</text>
</a>
</g>
<!-- dir_211435ab6e02d177e72a2e329363bb51 -->
<g id="node5" class="node"><title>dir_211435ab6e02d177e72a2e329363bb51</title>
<a xlink:href="dir_211435ab6e02d177e72a2e329363bb51.html" target="_top" xlink:title="fwCore">
<polygon fill="white" stroke="red" points="82,-36 28,-36 28,-1.77636e-14 82,-3.55271e-15 82,-36"/>
<text text-anchor="middle" x="55" y="-15.5" font-family="Helvetica,sans-Serif" font-size="10.00">fwCore</text>
</a>
</g>
<!-- dir_814dc1001f2c80b9e1291e8c86819067&#45;&gt;dir_211435ab6e02d177e72a2e329363bb51 -->
<g id="edge4" class="edge"><title>dir_814dc1001f2c80b9e1291e8c86819067&#45;&gt;dir_211435ab6e02d177e72a2e329363bb51</title>
<path fill="none" stroke="black" d="M55,-71.8314C55,-64.131 55,-54.9743 55,-46.4166"/>
<polygon fill="black" stroke="black" points="58.5001,-46.4132 55,-36.4133 51.5001,-46.4133 58.5001,-46.4132"/>
<a xlink:href="dir_000134_000208.html" target="_top" xlink:title="4">
<text text-anchor="middle" x="61.3393" y="-47.5079" font-family="Helvetica,sans-Serif" font-size="10.00">4</text>
</a>
</g>
</g>
</svg>
