<?xml version="1.0" encoding="UTF-8" standalone="no"?>
<!DOCTYPE svg PUBLIC "-//W3C//DTD SVG 1.1//EN"
 "http://www.w3.org/Graphics/SVG/1.1/DTD/svg11.dtd">
<!-- Generated by graphviz version 2.26.3 (20100126.1600)
 -->
<!-- Title: src Pages: 1 -->
<svg width="208pt" height="161pt"
 viewBox="0.00 0.00 208.00 161.00" xmlns="http://www.w3.org/2000/svg" xmlns:xlink="http://www.w3.org/1999/xlink">
<g id="graph1" class="graph" transform="scale(1 1) rotate(0) translate(4 157)">
<title>src</title>
<polygon fill="white" stroke="white" points="-4,5 -4,-157 205,-157 205,5 -4,5"/>
<g id="graph2" class="cluster"><title>clusterdir_4a1285a9f16c54c618bb8b88115730d1</title>
<a xlink:href="dir_4a1285a9f16c54c618bb8b88115730d1.html" target="_top" xlink:title="fwDcmtkTools">
<polygon fill="#ddddee" stroke="black" points="8,-56 8,-145 192,-145 192,-56 8,-56"/>
<text text-anchor="middle" x="100" y="-132" font-family="Helvetica,sans-Serif" font-size="10.00">fwDcmtkTools</text>
</a>
</g>
<g id="graph3" class="cluster"><title>clusterdir_226080a645430fbd7770febb6b44f086</title>
<a xlink:href="dir_226080a645430fbd7770febb6b44f086.html" target="_top">
<polygon fill="#eeeeff" stroke="black" points="16,-64 16,-116 184,-116 184,-64 16,-64"/>
</a>
</g>
<!-- dir_226080a645430fbd7770febb6b44f086 -->
<g id="node3" class="node"><title>dir_226080a645430fbd7770febb6b44f086</title>
<text text-anchor="middle" x="149" y="-87.5" font-family="Helvetica,sans-Serif" font-size="10.00">src</text>
</g>
<!-- dir_1cce18689880607d8eb238a19835d133 -->
<g id="node4" class="node"><title>dir_1cce18689880607d8eb238a19835d133</title>
<a xlink:href="dir_1cce18689880607d8eb238a19835d133.html" target="_top" xlink:title="fwDcmtkTools">
<polygon fill="white" stroke="black" points="104,-108 24,-108 24,-72 104,-72 104,-108"/>
<text text-anchor="middle" x="64" y="-87.5" font-family="Helvetica,sans-Serif" font-size="10.00">fwDcmtkTools</text>
</a>
</g>
<!-- dir_4b27a3ee21cd820803ead0a49ff3b161 -->
<g id="node5" class="node"><title>dir_4b27a3ee21cd820803ead0a49ff3b161</title>
<a xlink:href="dir_4b27a3ee21cd820803ead0a49ff3b161.html" target="_top" xlink:title="core">
<polygon fill="white" stroke="red" points="91,-36 37,-36 37,-1.77636e-14 91,-3.55271e-15 91,-36"/>
<text text-anchor="middle" x="64" y="-15.5" font-family="Helvetica,sans-Serif" font-size="10.00">core</text>
</a>
</g>
<!-- dir_1cce18689880607d8eb238a19835d133&#45;&gt;dir_4b27a3ee21cd820803ead0a49ff3b161 -->
<g id="edge4" class="edge"><title>dir_1cce18689880607d8eb238a19835d133&#45;&gt;dir_4b27a3ee21cd820803ead0a49ff3b161</title>
<path fill="none" stroke="black" d="M64,-71.8314C64,-64.131 64,-54.9743 64,-46.4166"/>
<polygon fill="black" stroke="black" points="67.5001,-46.4132 64,-36.4133 60.5001,-46.4133 67.5001,-46.4132"/>
<a xlink:href="dir_000374_000001.html" target="_top" xlink:title="1">
<text text-anchor="middle" x="70.3393" y="-47.5079" font-family="Helvetica,sans-Serif" font-size="10.00">1</text>
</a>
</g>
</g>
</svg>
