<?xml version="1.0" encoding="UTF-8" standalone="no"?>
<!DOCTYPE svg PUBLIC "-//W3C//DTD SVG 1.1//EN"
 "http://www.w3.org/Graphics/SVG/1.1/DTD/svg11.dtd">
<!-- Generated by graphviz version 2.26.3 (20100126.1600)
 -->
<!-- Title: src Pages: 1 -->
<svg width="182pt" height="161pt"
 viewBox="0.00 0.00 182.00 161.00" xmlns="http://www.w3.org/2000/svg" xmlns:xlink="http://www.w3.org/1999/xlink">
<g id="graph1" class="graph" transform="scale(1 1) rotate(0) translate(4 157)">
<title>src</title>
<polygon fill="white" stroke="white" points="-4,5 -4,-157 179,-157 179,5 -4,5"/>
<g id="graph2" class="cluster"><title>clusterdir_d403231dc0066e015fb2f1d4fcc190e1</title>
<a xlink:href="dir_d403231dc0066e015fb2f1d4fcc190e1.html" target="_top" xlink:title="fwData">
<polygon fill="#ddddee" stroke="black" points="8,-56 8,-145 166,-145 166,-56 8,-56"/>
<text text-anchor="middle" x="87" y="-132" font-family="Helvetica,sans-Serif" font-size="10.00">fwData</text>
</a>
</g>
<g id="graph3" class="cluster"><title>clusterdir_9293a05a013d662a0b835710911f5a4c</title>
<a xlink:href="dir_9293a05a013d662a0b835710911f5a4c.html" target="_top">
<polygon fill="#eeeeff" stroke="black" points="16,-64 16,-116 158,-116 158,-64 16,-64"/>
</a>
</g>
<!-- dir_9293a05a013d662a0b835710911f5a4c -->
<g id="node3" class="node"><title>dir_9293a05a013d662a0b835710911f5a4c</title>
<text text-anchor="middle" x="123" y="-87.5" font-family="Helvetica,sans-Serif" font-size="10.00">src</text>
</g>
<!-- dir_5ee9079643e1691e9efa94fbb551f085 -->
<g id="node4" class="node"><title>dir_5ee9079643e1691e9efa94fbb551f085</title>
<a xlink:href="dir_5ee9079643e1691e9efa94fbb551f085.html" target="_top" xlink:title="fwData">
<polygon fill="white" stroke="red" points="78,-108 24,-108 24,-72 78,-72 78,-108"/>
<text text-anchor="middle" x="51" y="-87.5" font-family="Helvetica,sans-Serif" font-size="10.00">fwData</text>
</a>
</g>
<!-- dir_211435ab6e02d177e72a2e329363bb51 -->
<g id="node5" class="node"><title>dir_211435ab6e02d177e72a2e329363bb51</title>
<a xlink:href="dir_211435ab6e02d177e72a2e329363bb51.html" target="_top" xlink:title="fwCore">
<polygon fill="white" stroke="red" points="78,-36 24,-36 24,-1.77636e-14 78,-3.55271e-15 78,-36"/>
<text text-anchor="middle" x="51" y="-15.5" font-family="Helvetica,sans-Serif" font-size="10.00">fwCore</text>
</a>
</g>
<!-- dir_5ee9079643e1691e9efa94fbb551f085&#45;&gt;dir_211435ab6e02d177e72a2e329363bb51 -->
<g id="edge4" class="edge"><title>dir_5ee9079643e1691e9efa94fbb551f085&#45;&gt;dir_211435ab6e02d177e72a2e329363bb51</title>
<path fill="none" stroke="black" d="M51,-71.8314C51,-64.131 51,-54.9743 51,-46.4166"/>
<polygon fill="black" stroke="black" points="54.5001,-46.4132 51,-36.4133 47.5001,-46.4133 54.5001,-46.4132"/>
<a xlink:href="dir_000126_000185.html" target="_top" xlink:title="17">
<text text-anchor="middle" x="57.3393" y="-47.5079" font-family="Helvetica,sans-Serif" font-size="10.00">17</text>
</a>
</g>
</g>
</svg>
