<?xml version="1.0" encoding="UTF-8" standalone="no"?>
<!DOCTYPE svg PUBLIC "-//W3C//DTD SVG 1.1//EN"
 "http://www.w3.org/Graphics/SVG/1.1/DTD/svg11.dtd">
<!-- Generated by graphviz version 2.36.0 (20140111.2315)
 -->
<!-- Title: fwDicomTools Pages: 1 -->
<svg width="120pt" height="151pt"
 viewBox="0.00 0.00 120.00 151.00" xmlns="http://www.w3.org/2000/svg" xmlns:xlink="http://www.w3.org/1999/xlink">
<g id="graph0" class="graph" transform="scale(1 1) rotate(0) translate(4 147)">
<title>fwDicomTools</title>
<polygon fill="white" stroke="none" points="-4,4 -4,-147 116,-147 116,4 -4,4"/>
<g id="clust1" class="cluster"><title>clusterdir_b344f0964c4658e30022a00573038f72</title>
<g id="a_clust1"><a xlink:href="dir_b344f0964c4658e30022a00573038f72.html" target="_top" xlink:title="include">
<polygon fill="#ddddee" stroke="black" points="8,-64 8,-135 104,-135 104,-64 8,-64"/>
<text text-anchor="middle" x="56" y="-123" font-family="Helvetica,sans-Serif" font-size="10.00">include</text>
</a>
</g>
</g>
<!-- dir_557214bb9c4ddd2b1fa78c421323eba1 -->
<g id="node1" class="node"><title>dir_557214bb9c4ddd2b1fa78c421323eba1</title>
<g id="a_node1"><a xlink:href="dir_557214bb9c4ddd2b1fa78c421323eba1.html" target="_top" xlink:title="fwDicomTools">
<polygon fill="#eeeeff" stroke="black" points="96,-108 16,-108 16,-72 96,-72 96,-108"/>
<text text-anchor="middle" x="56" y="-87.5" font-family="Helvetica,sans-Serif" font-size="10.00">fwDicomTools</text>
</a>
</g>
</g>
<!-- dir_211435ab6e02d177e72a2e329363bb51 -->
<g id="node2" class="node"><title>dir_211435ab6e02d177e72a2e329363bb51</title>
<g id="a_node2"><a xlink:href="dir_211435ab6e02d177e72a2e329363bb51.html" target="_top" xlink:title="fwCore">
<polygon fill="white" stroke="red" points="83,-36 29,-36 29,-0 83,-0 83,-36"/>
<text text-anchor="middle" x="56" y="-15.5" font-family="Helvetica,sans-Serif" font-size="10.00">fwCore</text>
</a>
</g>
</g>
<!-- dir_557214bb9c4ddd2b1fa78c421323eba1&#45;&gt;dir_211435ab6e02d177e72a2e329363bb51 -->
<g id="edge1" class="edge"><title>dir_557214bb9c4ddd2b1fa78c421323eba1&#45;&gt;dir_211435ab6e02d177e72a2e329363bb51</title>
<path fill="none" stroke="black" d="M56,-71.6966C56,-63.9827 56,-54.7125 56,-46.1124"/>
<polygon fill="black" stroke="black" points="59.5001,-46.1043 56,-36.1043 52.5001,-46.1044 59.5001,-46.1043"/>
<g id="a_edge1&#45;headlabel"><a xlink:href="dir_000649_000285.html" target="_top" xlink:title="1">
<text text-anchor="middle" x="62.3393" y="-47.199" font-family="Helvetica,sans-Serif" font-size="10.00">1</text>
</a>
</g>
</g>
</g>
</svg>
