<?xml version="1.0" encoding="UTF-8" standalone="no"?>
<!DOCTYPE svg PUBLIC "-//W3C//DTD SVG 1.1//EN"
 "http://www.w3.org/Graphics/SVG/1.1/DTD/svg11.dtd">
<!-- Generated by graphviz version 2.26.3 (20100126.1600)
 -->
<!-- Title: SrcLib Pages: 1 -->
<svg width="454pt" height="148pt"
 viewBox="0.00 0.00 454.00 148.00" xmlns="http://www.w3.org/2000/svg" xmlns:xlink="http://www.w3.org/1999/xlink">
<g id="graph1" class="graph" transform="scale(1 1) rotate(0) translate(4 144)">
<title>SrcLib</title>
<polygon fill="white" stroke="white" points="-4,5 -4,-144 451,-144 451,5 -4,5"/>
<g id="graph2" class="cluster"><title>clusterdir_36c79fd5fccc0faf954b7c20b3e2467b</title>
<a xlink:href="dir_36c79fd5fccc0faf954b7c20b3e2467b.html" target="_top">
<polygon fill="#eeeeff" stroke="black" points="8,-8 8,-132 438,-132 438,-8 8,-8"/>
</a>
</g>
<!-- dir_36c79fd5fccc0faf954b7c20b3e2467b -->
<g id="node2" class="node"><title>dir_36c79fd5fccc0faf954b7c20b3e2467b</title>
<text text-anchor="middle" x="403" y="-103.5" font-family="Helvetica,sans-Serif" font-size="10.00">SrcLib</text>
</g>
<!-- dir_4b27a3ee21cd820803ead0a49ff3b161 -->
<g id="node3" class="node"><title>dir_4b27a3ee21cd820803ead0a49ff3b161</title>
<a xlink:href="dir_4b27a3ee21cd820803ead0a49ff3b161.html" target="_top" xlink:title="core">
<polygon fill="white" stroke="red" points="214,-52 160,-52 160,-16 214,-16 214,-52"/>
<text text-anchor="middle" x="187" y="-31.5" font-family="Helvetica,sans-Serif" font-size="10.00">core</text>
</a>
</g>
<!-- dir_b86238ac3ad243685c8659ecea260cad -->
<g id="node4" class="node"><title>dir_b86238ac3ad243685c8659ecea260cad</title>
<a xlink:href="dir_b86238ac3ad243685c8659ecea260cad.html" target="_top" xlink:title="io">
<polygon fill="white" stroke="red" points="358,-124 304,-124 304,-88 358,-88 358,-124"/>
<text text-anchor="middle" x="331" y="-103.5" font-family="Helvetica,sans-Serif" font-size="10.00">io</text>
</a>
</g>
<!-- dir_b86238ac3ad243685c8659ecea260cad&#45;&gt;dir_4b27a3ee21cd820803ead0a49ff3b161 -->
<g id="edge3" class="edge"><title>dir_b86238ac3ad243685c8659ecea260cad&#45;&gt;dir_4b27a3ee21cd820803ead0a49ff3b161</title>
<path fill="none" stroke="black" d="M303.915,-92.4574C281.231,-81.1153 248.643,-64.8217 223.632,-52.316"/>
<polygon fill="black" stroke="black" points="224.963,-49.0684 214.453,-47.7267 221.832,-55.3294 224.963,-49.0684"/>
<a xlink:href="dir_000021_000001.html" target="_top" xlink:title="72">
<text text-anchor="middle" x="229.448" y="-45.6364" font-family="Helvetica,sans-Serif" font-size="10.00">72</text>
</a>
</g>
<!-- dir_70fd2dccfd652ac14e6651c46104a257 -->
<g id="node5" class="node"><title>dir_70fd2dccfd652ac14e6651c46104a257</title>
<a xlink:href="dir_70fd2dccfd652ac14e6651c46104a257.html" target="_top" xlink:title="patch">
<polygon fill="white" stroke="red" points="286,-124 232,-124 232,-88 286,-88 286,-124"/>
<text text-anchor="middle" x="259" y="-103.5" font-family="Helvetica,sans-Serif" font-size="10.00">patch</text>
</a>
</g>
<!-- dir_70fd2dccfd652ac14e6651c46104a257&#45;&gt;dir_4b27a3ee21cd820803ead0a49ff3b161 -->
<g id="edge9" class="edge"><title>dir_70fd2dccfd652ac14e6651c46104a257&#45;&gt;dir_4b27a3ee21cd820803ead0a49ff3b161</title>
<path fill="none" stroke="black" d="M240.831,-87.8314C232.285,-79.2848 221.944,-68.9443 212.62,-59.6198"/>
<polygon fill="black" stroke="black" points="214.959,-57.0095 205.413,-52.4133 210.009,-61.9592 214.959,-57.0095"/>
<a xlink:href="dir_000009_000001.html" target="_top" xlink:title="1">
<text text-anchor="middle" x="219.509" y="-55.0436" font-family="Helvetica,sans-Serif" font-size="10.00">1</text>
</a>
</g>
<!-- dir_b92d880296356ba1f30804f380831ec2 -->
<g id="node6" class="node"><title>dir_b92d880296356ba1f30804f380831ec2</title>
<a xlink:href="dir_b92d880296356ba1f30804f380831ec2.html" target="_top" xlink:title="tests">
<polygon fill="white" stroke="red" points="214,-124 160,-124 160,-88 214,-88 214,-124"/>
<text text-anchor="middle" x="187" y="-103.5" font-family="Helvetica,sans-Serif" font-size="10.00">tests</text>
</a>
</g>
<!-- dir_b92d880296356ba1f30804f380831ec2&#45;&gt;dir_4b27a3ee21cd820803ead0a49ff3b161 -->
<g id="edge5" class="edge"><title>dir_b92d880296356ba1f30804f380831ec2&#45;&gt;dir_4b27a3ee21cd820803ead0a49ff3b161</title>
<path fill="none" stroke="black" d="M187,-87.8314C187,-80.131 187,-70.9743 187,-62.4166"/>
<polygon fill="black" stroke="black" points="190.5,-62.4132 187,-52.4133 183.5,-62.4133 190.5,-62.4132"/>
<a xlink:href="dir_000253_000001.html" target="_top" xlink:title="5">
<text text-anchor="middle" x="193.339" y="-63.5079" font-family="Helvetica,sans-Serif" font-size="10.00">5</text>
</a>
</g>
<!-- dir_8092031dae59ec8d1880ed2d528dfbf5 -->
<g id="node7" class="node"><title>dir_8092031dae59ec8d1880ed2d528dfbf5</title>
<a xlink:href="dir_8092031dae59ec8d1880ed2d528dfbf5.html" target="_top" xlink:title="ui">
<polygon fill="white" stroke="red" points="142,-124 88,-124 88,-88 142,-88 142,-124"/>
<text text-anchor="middle" x="115" y="-103.5" font-family="Helvetica,sans-Serif" font-size="10.00">ui</text>
</a>
</g>
<!-- dir_8092031dae59ec8d1880ed2d528dfbf5&#45;&gt;dir_4b27a3ee21cd820803ead0a49ff3b161 -->
<g id="edge7" class="edge"><title>dir_8092031dae59ec8d1880ed2d528dfbf5&#45;&gt;dir_4b27a3ee21cd820803ead0a49ff3b161</title>
<path fill="none" stroke="black" d="M133.169,-87.8314C141.715,-79.2848 152.056,-68.9443 161.38,-59.6198"/>
<polygon fill="black" stroke="black" points="163.991,-61.9592 168.587,-52.4133 159.041,-57.0095 163.991,-61.9592"/>
<a xlink:href="dir_000746_000001.html" target="_top" xlink:title="1">
<text text-anchor="middle" x="163.456" y="-64.0087" font-family="Helvetica,sans-Serif" font-size="10.00">1</text>
</a>
</g>
<!-- dir_6459ae3ef2cc28e2f3bfc6b53e6228bf -->
<g id="node8" class="node"><title>dir_6459ae3ef2cc28e2f3bfc6b53e6228bf</title>
<a xlink:href="dir_6459ae3ef2cc28e2f3bfc6b53e6228bf.html" target="_top" xlink:title="visu">
<polygon fill="white" stroke="red" points="70,-124 16,-124 16,-88 70,-88 70,-124"/>
<text text-anchor="middle" x="43" y="-103.5" font-family="Helvetica,sans-Serif" font-size="10.00">visu</text>
</a>
</g>
<!-- dir_6459ae3ef2cc28e2f3bfc6b53e6228bf&#45;&gt;dir_4b27a3ee21cd820803ead0a49ff3b161 -->
<g id="edge11" class="edge"><title>dir_6459ae3ef2cc28e2f3bfc6b53e6228bf&#45;&gt;dir_4b27a3ee21cd820803ead0a49ff3b161</title>
<path fill="none" stroke="black" d="M70.0853,-92.4574C92.7693,-81.1153 125.357,-64.8217 150.368,-52.316"/>
<polygon fill="black" stroke="black" points="152.168,-55.3294 159.547,-47.7267 149.037,-49.0684 152.168,-55.3294"/>
<a xlink:href="dir_000343_000001.html" target="_top" xlink:title="9">
<text text-anchor="middle" x="150.222" y="-56.9764" font-family="Helvetica,sans-Serif" font-size="10.00">9</text>
</a>
</g>
</g>
</svg>
