<?xml version="1.0" encoding="UTF-8" standalone="no"?>
<!DOCTYPE svg PUBLIC "-//W3C//DTD SVG 1.1//EN"
 "http://www.w3.org/Graphics/SVG/1.1/DTD/svg11.dtd">
<!-- Generated by graphviz version 2.26.3 (20100126.1600)
 -->
<!-- Title: include Pages: 1 -->
<svg width="202pt" height="161pt"
 viewBox="0.00 0.00 202.00 161.00" xmlns="http://www.w3.org/2000/svg" xmlns:xlink="http://www.w3.org/1999/xlink">
<g id="graph1" class="graph" transform="scale(1 1) rotate(0) translate(4 157)">
<title>include</title>
<polygon fill="white" stroke="white" points="-4,5 -4,-157 199,-157 199,5 -4,5"/>
<g id="graph2" class="cluster"><title>clusterdir_e4acc09401354fe7b85ebf878b128540</title>
<a xlink:href="dir_e4acc09401354fe7b85ebf878b128540.html" target="_top" xlink:title="fwDataCamp">
<polygon fill="#ddddee" stroke="black" points="8,-56 8,-145 186,-145 186,-56 8,-56"/>
<text text-anchor="middle" x="97" y="-132" font-family="Helvetica,sans-Serif" font-size="10.00">fwDataCamp</text>
</a>
</g>
<g id="graph3" class="cluster"><title>clusterdir_1081414931953d53a3f5379da30933ec</title>
<a xlink:href="dir_1081414931953d53a3f5379da30933ec.html" target="_top">
<polygon fill="#eeeeff" stroke="black" points="16,-64 16,-116 178,-116 178,-64 16,-64"/>
</a>
</g>
<!-- dir_1081414931953d53a3f5379da30933ec -->
<g id="node3" class="node"><title>dir_1081414931953d53a3f5379da30933ec</title>
<text text-anchor="middle" x="143" y="-87.5" font-family="Helvetica,sans-Serif" font-size="10.00">include</text>
</g>
<!-- dir_71ed5005674372f374b7db94188bd610 -->
<g id="node4" class="node"><title>dir_71ed5005674372f374b7db94188bd610</title>
<a xlink:href="dir_71ed5005674372f374b7db94188bd610.html" target="_top" xlink:title="fwDataCamp">
<polygon fill="white" stroke="red" points="98,-108 24,-108 24,-72 98,-72 98,-108"/>
<text text-anchor="middle" x="61" y="-87.5" font-family="Helvetica,sans-Serif" font-size="10.00">fwDataCamp</text>
</a>
</g>
<!-- dir_211435ab6e02d177e72a2e329363bb51 -->
<g id="node5" class="node"><title>dir_211435ab6e02d177e72a2e329363bb51</title>
<a xlink:href="dir_211435ab6e02d177e72a2e329363bb51.html" target="_top" xlink:title="fwCore">
<polygon fill="white" stroke="red" points="88,-36 34,-36 34,-1.77636e-14 88,-3.55271e-15 88,-36"/>
<text text-anchor="middle" x="61" y="-15.5" font-family="Helvetica,sans-Serif" font-size="10.00">fwCore</text>
</a>
</g>
<!-- dir_71ed5005674372f374b7db94188bd610&#45;&gt;dir_211435ab6e02d177e72a2e329363bb51 -->
<g id="edge4" class="edge"><title>dir_71ed5005674372f374b7db94188bd610&#45;&gt;dir_211435ab6e02d177e72a2e329363bb51</title>
<path fill="none" stroke="black" d="M61,-71.8314C61,-64.131 61,-54.9743 61,-46.4166"/>
<polygon fill="black" stroke="black" points="64.5001,-46.4132 61,-36.4133 57.5001,-46.4133 64.5001,-46.4132"/>
<a xlink:href="dir_000134_000185.html" target="_top" xlink:title="2">
<text text-anchor="middle" x="67.3393" y="-47.5079" font-family="Helvetica,sans-Serif" font-size="10.00">2</text>
</a>
</g>
</g>
</svg>
