<?xml version="1.0" encoding="UTF-8" standalone="no"?>
<!DOCTYPE svg PUBLIC "-//W3C//DTD SVG 1.1//EN"
 "http://www.w3.org/Graphics/SVG/1.1/DTD/svg11.dtd">
<!-- Generated by graphviz version 2.26.3 (20100126.1600)
 -->
<!-- Title: vtkGdcmIO Pages: 1 -->
<svg width="266pt" height="161pt"
 viewBox="0.00 0.00 266.00 161.00" xmlns="http://www.w3.org/2000/svg" xmlns:xlink="http://www.w3.org/1999/xlink">
<g id="graph1" class="graph" transform="scale(1 1) rotate(0) translate(4 157)">
<title>vtkGdcmIO</title>
<polygon fill="white" stroke="white" points="-4,5 -4,-157 263,-157 263,5 -4,5"/>
<g id="graph2" class="cluster"><title>clusterdir_b86238ac3ad243685c8659ecea260cad</title>
<a xlink:href="dir_b86238ac3ad243685c8659ecea260cad.html" target="_top" xlink:title="io">
<polygon fill="#ddddee" stroke="black" points="8,-56 8,-145 250,-145 250,-56 8,-56"/>
<text text-anchor="middle" x="129" y="-132" font-family="Helvetica,sans-Serif" font-size="10.00">io</text>
</a>
</g>
<g id="graph3" class="cluster"><title>clusterdir_fe6623813886e237ef666e431bc8c4f1</title>
<a xlink:href="dir_fe6623813886e237ef666e431bc8c4f1.html" target="_top">
<polygon fill="#eeeeff" stroke="black" points="16,-64 16,-116 242,-116 242,-64 16,-64"/>
</a>
</g>
<!-- dir_fe6623813886e237ef666e431bc8c4f1 -->
<g id="node3" class="node"><title>dir_fe6623813886e237ef666e431bc8c4f1</title>
<text text-anchor="middle" x="201" y="-87.5" font-family="Helvetica,sans-Serif" font-size="10.00">vtkGdcmIO</text>
</g>
<!-- dir_b7eb8bb65f9c353dcb23a46a7dd7e0d9 -->
<g id="node4" class="node"><title>dir_b7eb8bb65f9c353dcb23a46a7dd7e0d9</title>
<a xlink:href="dir_b7eb8bb65f9c353dcb23a46a7dd7e0d9.html" target="_top" xlink:title="include">
<polygon fill="white" stroke="red" points="150,-108 96,-108 96,-72 150,-72 150,-108"/>
<text text-anchor="middle" x="123" y="-87.5" font-family="Helvetica,sans-Serif" font-size="10.00">include</text>
</a>
</g>
<!-- dir_4b27a3ee21cd820803ead0a49ff3b161 -->
<g id="node6" class="node"><title>dir_4b27a3ee21cd820803ead0a49ff3b161</title>
<a xlink:href="dir_4b27a3ee21cd820803ead0a49ff3b161.html" target="_top" xlink:title="core">
<polygon fill="white" stroke="red" points="114,-36 60,-36 60,-1.77636e-14 114,-3.55271e-15 114,-36"/>
<text text-anchor="middle" x="87" y="-15.5" font-family="Helvetica,sans-Serif" font-size="10.00">core</text>
</a>
</g>
<!-- dir_b7eb8bb65f9c353dcb23a46a7dd7e0d9&#45;&gt;dir_4b27a3ee21cd820803ead0a49ff3b161 -->
<g id="edge4" class="edge"><title>dir_b7eb8bb65f9c353dcb23a46a7dd7e0d9&#45;&gt;dir_4b27a3ee21cd820803ead0a49ff3b161</title>
<path fill="none" stroke="black" d="M113.916,-71.8314C109.939,-63.8771 105.185,-54.369 100.786,-45.5723"/>
<polygon fill="black" stroke="black" points="103.809,-43.7923 96.2066,-36.4133 97.5483,-46.9228 103.809,-43.7923"/>
<a xlink:href="dir_000500_000001.html" target="_top" xlink:title="2">
<text text-anchor="middle" x="107.956" y="-43.2377" font-family="Helvetica,sans-Serif" font-size="10.00">2</text>
</a>
</g>
<!-- dir_c9afb0b2577605bc994677fe7570fb5c -->
<g id="node5" class="node"><title>dir_c9afb0b2577605bc994677fe7570fb5c</title>
<a xlink:href="dir_c9afb0b2577605bc994677fe7570fb5c.html" target="_top" xlink:title="src">
<polygon fill="white" stroke="red" points="78,-108 24,-108 24,-72 78,-72 78,-108"/>
<text text-anchor="middle" x="51" y="-87.5" font-family="Helvetica,sans-Serif" font-size="10.00">src</text>
</a>
</g>
<!-- dir_c9afb0b2577605bc994677fe7570fb5c&#45;&gt;dir_4b27a3ee21cd820803ead0a49ff3b161 -->
<g id="edge6" class="edge"><title>dir_c9afb0b2577605bc994677fe7570fb5c&#45;&gt;dir_4b27a3ee21cd820803ead0a49ff3b161</title>
<path fill="none" stroke="black" d="M60.0843,-71.8314C64.0615,-63.8771 68.8155,-54.369 73.2139,-45.5723"/>
<polygon fill="black" stroke="black" points="76.4517,-46.9228 77.7934,-36.4133 70.1907,-43.7923 76.4517,-46.9228"/>
<a xlink:href="dir_000497_000001.html" target="_top" xlink:title="4">
<text text-anchor="middle" x="77.3837" y="-48.9077" font-family="Helvetica,sans-Serif" font-size="10.00">4</text>
</a>
</g>
</g>
</svg>
