<?xml version="1.0" encoding="UTF-8" standalone="no"?>
<!DOCTYPE svg PUBLIC "-//W3C//DTD SVG 1.1//EN"
 "http://www.w3.org/Graphics/SVG/1.1/DTD/svg11.dtd">
<!-- Generated by graphviz version 2.26.3 (20100126.1600)
 -->
<!-- Title: ioITK Pages: 1 -->
<svg width="326pt" height="161pt"
 viewBox="0.00 0.00 326.00 161.00" xmlns="http://www.w3.org/2000/svg" xmlns:xlink="http://www.w3.org/1999/xlink">
<g id="graph1" class="graph" transform="scale(1 1) rotate(0) translate(4 157)">
<title>ioITK</title>
<polygon fill="white" stroke="white" points="-4,5 -4,-157 323,-157 323,5 -4,5"/>
<g id="graph2" class="cluster"><title>clusterdir_b63bf099e8f9f824b0c22da698b15f2c</title>
<a xlink:href="dir_b63bf099e8f9f824b0c22da698b15f2c.html" target="_top" xlink:title="LeafIO">
<polygon fill="#ddddee" stroke="black" points="8,-56 8,-145 310,-145 310,-56 8,-56"/>
<text text-anchor="middle" x="159" y="-132" font-family="Helvetica,sans-Serif" font-size="10.00">LeafIO</text>
</a>
</g>
<g id="graph3" class="cluster"><title>clusterdir_71c0110a995789454e8dbaadd18c6fd4</title>
<a xlink:href="dir_71c0110a995789454e8dbaadd18c6fd4.html" target="_top">
<polygon fill="#eeeeff" stroke="black" points="16,-64 16,-116 302,-116 302,-64 16,-64"/>
</a>
</g>
<!-- dir_71c0110a995789454e8dbaadd18c6fd4 -->
<g id="node3" class="node"><title>dir_71c0110a995789454e8dbaadd18c6fd4</title>
<text text-anchor="middle" x="267" y="-87.5" font-family="Helvetica,sans-Serif" font-size="10.00">ioITK</text>
</g>
<!-- dir_e34cb2c6868b767f82e638955728f131 -->
<g id="node4" class="node"><title>dir_e34cb2c6868b767f82e638955728f131</title>
<a xlink:href="dir_e34cb2c6868b767f82e638955728f131.html" target="_top" xlink:title="include">
<polygon fill="white" stroke="red" points="222,-108 168,-108 168,-72 222,-72 222,-108"/>
<text text-anchor="middle" x="195" y="-87.5" font-family="Helvetica,sans-Serif" font-size="10.00">include</text>
</a>
</g>
<!-- dir_36c79fd5fccc0faf954b7c20b3e2467b -->
<g id="node7" class="node"><title>dir_36c79fd5fccc0faf954b7c20b3e2467b</title>
<a xlink:href="dir_36c79fd5fccc0faf954b7c20b3e2467b.html" target="_top" xlink:title="SrcLib">
<polygon fill="white" stroke="red" points="186,-36 132,-36 132,-1.77636e-14 186,-3.55271e-15 186,-36"/>
<text text-anchor="middle" x="159" y="-15.5" font-family="Helvetica,sans-Serif" font-size="10.00">SrcLib</text>
</a>
</g>
<!-- dir_e34cb2c6868b767f82e638955728f131&#45;&gt;dir_36c79fd5fccc0faf954b7c20b3e2467b -->
<g id="edge4" class="edge"><title>dir_e34cb2c6868b767f82e638955728f131&#45;&gt;dir_36c79fd5fccc0faf954b7c20b3e2467b</title>
<path fill="none" stroke="black" d="M185.916,-71.8314C181.939,-63.8771 177.185,-54.369 172.786,-45.5723"/>
<polygon fill="black" stroke="black" points="175.809,-43.7923 168.207,-36.4133 169.548,-46.9228 175.809,-43.7923"/>
<a xlink:href="dir_000599_000000.html" target="_top" xlink:title="2">
<text text-anchor="middle" x="179.956" y="-43.2377" font-family="Helvetica,sans-Serif" font-size="10.00">2</text>
</a>
</g>
<!-- dir_e8952cfd41d1fa5c1256587a111c8570 -->
<g id="node5" class="node"><title>dir_e8952cfd41d1fa5c1256587a111c8570</title>
<a xlink:href="dir_e8952cfd41d1fa5c1256587a111c8570.html" target="_top" xlink:title="src">
<polygon fill="white" stroke="red" points="150,-108 96,-108 96,-72 150,-72 150,-108"/>
<text text-anchor="middle" x="123" y="-87.5" font-family="Helvetica,sans-Serif" font-size="10.00">src</text>
</a>
</g>
<!-- dir_e8952cfd41d1fa5c1256587a111c8570&#45;&gt;dir_36c79fd5fccc0faf954b7c20b3e2467b -->
<g id="edge6" class="edge"><title>dir_e8952cfd41d1fa5c1256587a111c8570&#45;&gt;dir_36c79fd5fccc0faf954b7c20b3e2467b</title>
<path fill="none" stroke="black" d="M132.084,-71.8314C136.061,-63.8771 140.815,-54.369 145.214,-45.5723"/>
<polygon fill="black" stroke="black" points="148.452,-46.9228 149.793,-36.4133 142.191,-43.7923 148.452,-46.9228"/>
<a xlink:href="dir_000597_000000.html" target="_top" xlink:title="6">
<text text-anchor="middle" x="149.384" y="-48.9077" font-family="Helvetica,sans-Serif" font-size="10.00">6</text>
</a>
</g>
<!-- dir_85449e6dafbcd6bf28911c44d994d42e -->
<g id="node6" class="node"><title>dir_85449e6dafbcd6bf28911c44d994d42e</title>
<a xlink:href="dir_85449e6dafbcd6bf28911c44d994d42e.html" target="_top" xlink:title="test">
<polygon fill="white" stroke="red" points="78,-108 24,-108 24,-72 78,-72 78,-108"/>
<text text-anchor="middle" x="51" y="-87.5" font-family="Helvetica,sans-Serif" font-size="10.00">test</text>
</a>
</g>
</g>
</svg>
