<?xml version="1.0" encoding="UTF-8" standalone="no"?>
<!DOCTYPE svg PUBLIC "-//W3C//DTD SVG 1.1//EN"
 "http://www.w3.org/Graphics/SVG/1.1/DTD/svg11.dtd">
<!-- Generated by graphviz version 2.26.3 (20100126.1600)
 -->
<!-- Title: guiQt Pages: 1 -->
<svg width="326pt" height="161pt"
 viewBox="0.00 0.00 326.00 161.00" xmlns="http://www.w3.org/2000/svg" xmlns:xlink="http://www.w3.org/1999/xlink">
<g id="graph1" class="graph" transform="scale(1 1) rotate(0) translate(4 157)">
<title>guiQt</title>
<polygon fill="white" stroke="white" points="-4,5 -4,-157 323,-157 323,5 -4,5"/>
<g id="graph2" class="cluster"><title>clusterdir_6e63e54459d92b40e362974eee90b17d</title>
<a xlink:href="dir_6e63e54459d92b40e362974eee90b17d.html" target="_top" xlink:title="LeafUI">
<polygon fill="#ddddee" stroke="black" points="8,-56 8,-145 310,-145 310,-56 8,-56"/>
<text text-anchor="middle" x="159" y="-132" font-family="Helvetica,sans-Serif" font-size="10.00">LeafUI</text>
</a>
</g>
<g id="graph3" class="cluster"><title>clusterdir_959ed325e8ed0efc5d124efdf18047d0</title>
<a xlink:href="dir_959ed325e8ed0efc5d124efdf18047d0.html" target="_top">
<polygon fill="#eeeeff" stroke="black" points="16,-64 16,-116 302,-116 302,-64 16,-64"/>
</a>
</g>
<!-- dir_959ed325e8ed0efc5d124efdf18047d0 -->
<g id="node3" class="node"><title>dir_959ed325e8ed0efc5d124efdf18047d0</title>
<text text-anchor="middle" x="267" y="-87.5" font-family="Helvetica,sans-Serif" font-size="10.00">guiQt</text>
</g>
<!-- dir_8796377a65b41178019cbcbed35f64c0 -->
<g id="node4" class="node"><title>dir_8796377a65b41178019cbcbed35f64c0</title>
<a xlink:href="dir_8796377a65b41178019cbcbed35f64c0.html" target="_top" xlink:title="include">
<polygon fill="white" stroke="red" points="222,-108 168,-108 168,-72 222,-72 222,-108"/>
<text text-anchor="middle" x="195" y="-87.5" font-family="Helvetica,sans-Serif" font-size="10.00">include</text>
</a>
</g>
<!-- dir_a87edacbfa1a41a3a3f1c69a0eea90b9 -->
<g id="node5" class="node"><title>dir_a87edacbfa1a41a3a3f1c69a0eea90b9</title>
<a xlink:href="dir_a87edacbfa1a41a3a3f1c69a0eea90b9.html" target="_top" xlink:title="src">
<polygon fill="white" stroke="red" points="150,-108 96,-108 96,-72 150,-72 150,-108"/>
<text text-anchor="middle" x="123" y="-87.5" font-family="Helvetica,sans-Serif" font-size="10.00">src</text>
</a>
</g>
<!-- dir_36c79fd5fccc0faf954b7c20b3e2467b -->
<g id="node7" class="node"><title>dir_36c79fd5fccc0faf954b7c20b3e2467b</title>
<a xlink:href="dir_36c79fd5fccc0faf954b7c20b3e2467b.html" target="_top" xlink:title="SrcLib">
<polygon fill="white" stroke="red" points="150,-36 96,-36 96,-1.77636e-14 150,-3.55271e-15 150,-36"/>
<text text-anchor="middle" x="123" y="-15.5" font-family="Helvetica,sans-Serif" font-size="10.00">SrcLib</text>
</a>
</g>
<!-- dir_a87edacbfa1a41a3a3f1c69a0eea90b9&#45;&gt;dir_36c79fd5fccc0faf954b7c20b3e2467b -->
<g id="edge4" class="edge"><title>dir_a87edacbfa1a41a3a3f1c69a0eea90b9&#45;&gt;dir_36c79fd5fccc0faf954b7c20b3e2467b</title>
<path fill="none" stroke="black" d="M123,-71.8314C123,-64.131 123,-54.9743 123,-46.4166"/>
<polygon fill="black" stroke="black" points="126.5,-46.4132 123,-36.4133 119.5,-46.4133 126.5,-46.4132"/>
<a xlink:href="dir_000272_000000.html" target="_top" xlink:title="6">
<text text-anchor="middle" x="129.339" y="-47.5079" font-family="Helvetica,sans-Serif" font-size="10.00">6</text>
</a>
</g>
<!-- dir_c5653b68c6639e7cab874d06700651c5 -->
<g id="node6" class="node"><title>dir_c5653b68c6639e7cab874d06700651c5</title>
<a xlink:href="dir_c5653b68c6639e7cab874d06700651c5.html" target="_top" xlink:title="test">
<polygon fill="white" stroke="red" points="78,-108 24,-108 24,-72 78,-72 78,-108"/>
<text text-anchor="middle" x="51" y="-87.5" font-family="Helvetica,sans-Serif" font-size="10.00">test</text>
</a>
</g>
</g>
</svg>
