<?xml version="1.0" encoding="UTF-8" standalone="no"?>
<!DOCTYPE svg PUBLIC "-//W3C//DTD SVG 1.1//EN"
 "http://www.w3.org/Graphics/SVG/1.1/DTD/svg11.dtd">
<!-- Generated by graphviz version 2.26.3 (20100126.1600)
 -->
<!-- Title: ioVtkGdcm Pages: 1 -->
<svg width="104pt" height="153pt"
 viewBox="0.00 0.00 104.00 153.00" xmlns="http://www.w3.org/2000/svg" xmlns:xlink="http://www.w3.org/1999/xlink">
<g id="graph1" class="graph" transform="scale(1 1) rotate(0) translate(4 149)">
<title>ioVtkGdcm</title>
<polygon fill="white" stroke="white" points="-4,5 -4,-149 101,-149 101,5 -4,5"/>
<g id="graph2" class="cluster"><title>clusterdir_bb3ced6142a557e880f2ab6291a5abae</title>
<a xlink:href="dir_bb3ced6142a557e880f2ab6291a5abae.html" target="_top" xlink:title="src">
<polygon fill="#ddddee" stroke="black" points="8,-64 8,-137 88,-137 88,-64 8,-64"/>
<text text-anchor="middle" x="48" y="-124" font-family="Helvetica,sans-Serif" font-size="10.00">src</text>
</a>
</g>
<!-- dir_8546af950b19fd4918c3f2f0238ae2f4 -->
<g id="node2" class="node"><title>dir_8546af950b19fd4918c3f2f0238ae2f4</title>
<a xlink:href="dir_8546af950b19fd4918c3f2f0238ae2f4.html" target="_top" xlink:title="ioVtkGdcm">
<polygon fill="#eeeeff" stroke="black" points="80,-108 16,-108 16,-72 80,-72 80,-108"/>
<text text-anchor="middle" x="48" y="-87.5" font-family="Helvetica,sans-Serif" font-size="10.00">ioVtkGdcm</text>
</a>
</g>
<!-- dir_36c79fd5fccc0faf954b7c20b3e2467b -->
<g id="node3" class="node"><title>dir_36c79fd5fccc0faf954b7c20b3e2467b</title>
<a xlink:href="dir_36c79fd5fccc0faf954b7c20b3e2467b.html" target="_top" xlink:title="SrcLib">
<polygon fill="white" stroke="red" points="75,-36 21,-36 21,-1.77636e-14 75,-3.55271e-15 75,-36"/>
<text text-anchor="middle" x="48" y="-15.5" font-family="Helvetica,sans-Serif" font-size="10.00">SrcLib</text>
</a>
</g>
<!-- dir_8546af950b19fd4918c3f2f0238ae2f4&#45;&gt;dir_36c79fd5fccc0faf954b7c20b3e2467b -->
<g id="edge3" class="edge"><title>dir_8546af950b19fd4918c3f2f0238ae2f4&#45;&gt;dir_36c79fd5fccc0faf954b7c20b3e2467b</title>
<path fill="none" stroke="black" d="M48,-71.8314C48,-64.131 48,-54.9743 48,-46.4166"/>
<polygon fill="black" stroke="black" points="51.5001,-46.4132 48,-36.4133 44.5001,-46.4133 51.5001,-46.4132"/>
<a xlink:href="dir_000827_000000.html" target="_top" xlink:title="3">
<text text-anchor="middle" x="54.3393" y="-47.5079" font-family="Helvetica,sans-Serif" font-size="10.00">3</text>
</a>
</g>
</g>
</svg>
