<?xml version="1.0" encoding="UTF-8" standalone="no"?>
<!DOCTYPE svg PUBLIC "-//W3C//DTD SVG 1.1//EN"
 "http://www.w3.org/Graphics/SVG/1.1/DTD/svg11.dtd">
<!-- Generated by graphviz version 2.36.0 (20140111.2315)
 -->
<!-- Title: fwAtomConversion Pages: 1 -->
<svg width="383pt" height="159pt"
 viewBox="0.00 0.00 383.00 159.00" xmlns="http://www.w3.org/2000/svg" xmlns:xlink="http://www.w3.org/1999/xlink">
<g id="graph0" class="graph" transform="scale(1 1) rotate(0) translate(4 155)">
<title>fwAtomConversion</title>
<polygon fill="white" stroke="none" points="-4,4 -4,-155 379,-155 379,4 -4,4"/>
<g id="clust1" class="cluster"><title>clusterdir_900fe92259025a30a7739314e4aac4f1</title>
<g id="a_clust1"><a xlink:href="dir_900fe92259025a30a7739314e4aac4f1.html" target="_top" xlink:title="include">
<polygon fill="#ddddee" stroke="black" points="8,-56 8,-143 367,-143 367,-56 8,-56"/>
<text text-anchor="middle" x="187.5" y="-131" font-family="Helvetica,sans-Serif" font-size="10.00">include</text>
</a>
</g>
</g>
<g id="clust2" class="cluster"><title>clusterdir_ca237c086da12a87a11eb2356d5726d2</title>
<g id="a_clust2"><a xlink:href="dir_ca237c086da12a87a11eb2356d5726d2.html" target="_top">
<polygon fill="#eeeeff" stroke="black" points="16,-64 16,-116 359,-116 359,-64 16,-64"/>
</a>
</g>
</g>
<!-- dir_ca237c086da12a87a11eb2356d5726d2 -->
<g id="node1" class="node"><title>dir_ca237c086da12a87a11eb2356d5726d2</title>
<text text-anchor="middle" x="301" y="-87.5" font-family="Helvetica,sans-Serif" font-size="10.00">fwAtomConversion</text>
</g>
<!-- dir_6ebfd0edda3facd99617582a392f97df -->
<g id="node2" class="node"><title>dir_6ebfd0edda3facd99617582a392f97df</title>
<g id="a_node2"><a xlink:href="dir_6ebfd0edda3facd99617582a392f97df.html" target="_top" xlink:title="camp_ext">
<polygon fill="white" stroke="black" points="232.25,-108 173.75,-108 173.75,-72 232.25,-72 232.25,-108"/>
<text text-anchor="middle" x="203" y="-87.5" font-family="Helvetica,sans-Serif" font-size="10.00">camp_ext</text>
</a>
</g>
</g>
<!-- dir_9a52d9e9fcbc8534c81c3d871eb3bb8d -->
<g id="node3" class="node"><title>dir_9a52d9e9fcbc8534c81c3d871eb3bb8d</title>
<g id="a_node3"><a xlink:href="dir_9a52d9e9fcbc8534c81c3d871eb3bb8d.html" target="_top" xlink:title="exception">
<polygon fill="white" stroke="black" points="155.25,-108 96.75,-108 96.75,-72 155.25,-72 155.25,-108"/>
<text text-anchor="middle" x="126" y="-87.5" font-family="Helvetica,sans-Serif" font-size="10.00">exception</text>
</a>
</g>
</g>
<!-- dir_9bc1bf64ede8fd858b352f7acad27b4f -->
<g id="node4" class="node"><title>dir_9bc1bf64ede8fd858b352f7acad27b4f</title>
<g id="a_node4"><a xlink:href="dir_9bc1bf64ede8fd858b352f7acad27b4f.html" target="_top" xlink:title="mapper">
<polygon fill="white" stroke="red" points="78,-108 24,-108 24,-72 78,-72 78,-108"/>
<text text-anchor="middle" x="51" y="-87.5" font-family="Helvetica,sans-Serif" font-size="10.00">mapper</text>
</a>
</g>
</g>
<!-- dir_211435ab6e02d177e72a2e329363bb51 -->
<g id="node5" class="node"><title>dir_211435ab6e02d177e72a2e329363bb51</title>
<g id="a_node5"><a xlink:href="dir_211435ab6e02d177e72a2e329363bb51.html" target="_top" xlink:title="fwCore">
<polygon fill="white" stroke="red" points="78,-36 24,-36 24,-0 78,-0 78,-36"/>
<text text-anchor="middle" x="51" y="-15.5" font-family="Helvetica,sans-Serif" font-size="10.00">fwCore</text>
</a>
</g>
</g>
<!-- dir_9bc1bf64ede8fd858b352f7acad27b4f&#45;&gt;dir_211435ab6e02d177e72a2e329363bb51 -->
<g id="edge1" class="edge"><title>dir_9bc1bf64ede8fd858b352f7acad27b4f&#45;&gt;dir_211435ab6e02d177e72a2e329363bb51</title>
<path fill="none" stroke="black" d="M51,-71.6966C51,-63.9827 51,-54.7125 51,-46.1124"/>
<polygon fill="black" stroke="black" points="54.5001,-46.1043 51,-36.1043 47.5001,-46.1044 54.5001,-46.1043"/>
<g id="a_edge1&#45;headlabel"><a xlink:href="dir_000238_000285.html" target="_top" xlink:title="1">
<text text-anchor="middle" x="57.3393" y="-47.199" font-family="Helvetica,sans-Serif" font-size="10.00">1</text>
</a>
</g>
</g>
</g>
</svg>
