<?xml version="1.0" encoding="UTF-8" standalone="no"?>
<!DOCTYPE svg PUBLIC "-//W3C//DTD SVG 1.1//EN"
 "http://www.w3.org/Graphics/SVG/1.1/DTD/svg11.dtd">
<!-- Generated by graphviz version 2.36.0 (20140111.2315)
 -->
<!-- Title: io Pages: 1 -->
<!--zoomable 159 -->
<svg id="main" version="1.1" xmlns="http://www.w3.org/2000/svg" xmlns:xlink="http://www.w3.org/1999/xlink" xml:space="preserve" onload="init(evt)">
<style type="text/css"><![CDATA[
.edge:hover path { stroke: red; }
.edge:hover polygon { stroke: red; fill: red; }
]]></style>
<script type="text/javascript"><![CDATA[
var edges = document.getElementsByTagName('g');
if (edges && edges.length) {
  for (var i=0;i<edges.length;i++) {
    if (edges[i].id.substr(0,4)=='edge') {
      edges[i].setAttribute('class','edge');
    }
  }
}
]]></script>
        <defs>
                <circle id="rim" cx="0" cy="0" r="7"/>
                <circle id="rim2" cx="0" cy="0" r="3.5"/>
                <g id="zoomPlus">
                        <use xlink:href="#rim" fill="#404040">
                                <set attributeName="fill" to="#808080" begin="zoomplus.mouseover" end="zoomplus.mouseout"/>
                        </use>
                        <path d="M-4,0h8M0,-4v8" fill="none" stroke="white" stroke-width="1.5" pointer-events="none"/>
                </g>
                <g id="zoomMin">
                        <use xlink:href="#rim" fill="#404040">
                                <set attributeName="fill" to="#808080" begin="zoomminus.mouseover" end="zoomminus.mouseout"/>
                        </use>
                        <path d="M-4,0h8" fill="none" stroke="white" stroke-width="1.5" pointer-events="none"/>
                </g>
                <g id="dirArrow">
                        <path fill="none" stroke="white" stroke-width="1.5" d="M0,-3.0v7 M-2.5,-0.5L0,-3.0L2.5,-0.5"/>
                </g>
               <g id="resetDef">
                       <use xlink:href="#rim2" fill="#404040">
                               <set attributeName="fill" to="#808080" begin="reset.mouseover" end="reset.mouseout"/>
                       </use>
               </g>
        </defs>

<script type="text/javascript">
var viewWidth = 1006;
var viewHeight = 159;
var sectionId = 'dynsection-0';
</script>
<script xlink:href="svgpan.js"/>
<svg id="graph" class="graph">
<g id="viewport">
<title>io</title>
<polygon fill="white" stroke="none" points="-4,4 -4,-155 1002,-155 1002,4 -4,4"/>
<g id="clust1" class="cluster"><title>clusterdir_e5fb9d78c8a45a78698b2a3ea13d2804</title>
<g id="a_clust1"><a xlink:href="dir_e5fb9d78c8a45a78698b2a3ea13d2804.html" target="_top" xlink:title="Bundles">
<polygon fill="#ddddee" stroke="black" points="8,-56 8,-143 990,-143 990,-56 8,-56"/>
<text text-anchor="middle" x="499" y="-131" font-family="Helvetica,sans-Serif" font-size="10.00">Bundles</text>
</a>
</g>
</g>
<g id="clust2" class="cluster"><title>clusterdir_3965cbd5ac9a19843d68d2de66c61cda</title>
<g id="a_clust2"><a xlink:href="dir_3965cbd5ac9a19843d68d2de66c61cda.html" target="_top">
<polygon fill="#eeeeff" stroke="black" points="16,-64 16,-116 982,-116 982,-64 16,-64"/>
</a>
</g>
</g>
<!-- dir_3965cbd5ac9a19843d68d2de66c61cda -->
<g id="node1" class="node"><title>dir_3965cbd5ac9a19843d68d2de66c61cda</title>
<text text-anchor="middle" x="947" y="-87.5" font-family="Helvetica,sans-Serif" font-size="10.00">io</text>
</g>
<!-- dir_a762fd88b2877d09170bba2f84d7e4cb -->
<g id="node2" class="node"><title>dir_a762fd88b2877d09170bba2f84d7e4cb</title>
<g id="a_node2"><a xlink:href="dir_a762fd88b2877d09170bba2f84d7e4cb.html" target="_top" xlink:title="ioAtoms">
<polygon fill="white" stroke="red" points="902,-108 848,-108 848,-72 902,-72 902,-108"/>
<text text-anchor="middle" x="875" y="-87.5" font-family="Helvetica,sans-Serif" font-size="10.00">ioAtoms</text>
</a>
</g>
</g>
<!-- dir_f1f7323fc7df26852382f8fb4b293535 -->
<g id="node3" class="node"><title>dir_f1f7323fc7df26852382f8fb4b293535</title>
<g id="a_node3"><a xlink:href="dir_f1f7323fc7df26852382f8fb4b293535.html" target="_top" xlink:title="ioData">
<polygon fill="white" stroke="red" points="830,-108 776,-108 776,-72 830,-72 830,-108"/>
<text text-anchor="middle" x="803" y="-87.5" font-family="Helvetica,sans-Serif" font-size="10.00">ioData</text>
</a>
</g>
</g>
<!-- dir_dba37d5ee28080451c6cccc97bb5abe0 -->
<g id="node4" class="node"><title>dir_dba37d5ee28080451c6cccc97bb5abe0</title>
<g id="a_node4"><a xlink:href="dir_dba37d5ee28080451c6cccc97bb5abe0.html" target="_top" xlink:title="ioDcmtk">
<polygon fill="white" stroke="red" points="758,-108 704,-108 704,-72 758,-72 758,-108"/>
<text text-anchor="middle" x="731" y="-87.5" font-family="Helvetica,sans-Serif" font-size="10.00">ioDcmtk</text>
</a>
</g>
</g>
<!-- dir_b57247e4d3d99652f5690bfa865f4908 -->
<g id="node5" class="node"><title>dir_b57247e4d3d99652f5690bfa865f4908</title>
<g id="a_node5"><a xlink:href="dir_b57247e4d3d99652f5690bfa865f4908.html" target="_top" xlink:title="ioDicom">
<polygon fill="white" stroke="red" points="686,-108 632,-108 632,-72 686,-72 686,-108"/>
<text text-anchor="middle" x="659" y="-87.5" font-family="Helvetica,sans-Serif" font-size="10.00">ioDicom</text>
</a>
</g>
</g>
<!-- dir_760de33032c8d5729385079dcfdf4a8d -->
<g id="node6" class="node"><title>dir_760de33032c8d5729385079dcfdf4a8d</title>
<g id="a_node6"><a xlink:href="dir_760de33032c8d5729385079dcfdf4a8d.html" target="_top" xlink:title="ioDicomWeb">
<polygon fill="white" stroke="red" points="613.25,-108 540.75,-108 540.75,-72 613.25,-72 613.25,-108"/>
<text text-anchor="middle" x="577" y="-87.5" font-family="Helvetica,sans-Serif" font-size="10.00">ioDicomWeb</text>
</a>
</g>
</g>
<!-- dir_8e2048ed7ac67e1bcedd5913b9e9165a -->
<g id="node7" class="node"><title>dir_8e2048ed7ac67e1bcedd5913b9e9165a</title>
<g id="a_node7"><a xlink:href="dir_8e2048ed7ac67e1bcedd5913b9e9165a.html" target="_top" xlink:title="ioGdcm">
<polygon fill="white" stroke="red" points="522,-108 468,-108 468,-72 522,-72 522,-108"/>
<text text-anchor="middle" x="495" y="-87.5" font-family="Helvetica,sans-Serif" font-size="10.00">ioGdcm</text>
</a>
</g>
</g>
<!-- dir_56d5e79eb237351926ac0aac09ac29c8 -->
<g id="node8" class="node"><title>dir_56d5e79eb237351926ac0aac09ac29c8</title>
<g id="a_node8"><a xlink:href="dir_56d5e79eb237351926ac0aac09ac29c8.html" target="_top" xlink:title="ioITK">
<polygon fill="white" stroke="red" points="450,-108 396,-108 396,-72 450,-72 450,-108"/>
<text text-anchor="middle" x="423" y="-87.5" font-family="Helvetica,sans-Serif" font-size="10.00">ioITK</text>
</a>
</g>
</g>
<!-- dir_36c79fd5fccc0faf954b7c20b3e2467b -->
<g id="node14" class="node"><title>dir_36c79fd5fccc0faf954b7c20b3e2467b</title>
<g id="a_node14"><a xlink:href="dir_36c79fd5fccc0faf954b7c20b3e2467b.html" target="_top" xlink:title="SrcLib">
<polygon fill="white" stroke="red" points="450,-36 396,-36 396,-0 450,-0 450,-36"/>
<text text-anchor="middle" x="423" y="-15.5" font-family="Helvetica,sans-Serif" font-size="10.00">SrcLib</text>
</a>
</g>
</g>
<!-- dir_56d5e79eb237351926ac0aac09ac29c8&#45;&gt;dir_36c79fd5fccc0faf954b7c20b3e2467b -->
<g id="edge1" class="edge"><title>dir_56d5e79eb237351926ac0aac09ac29c8&#45;&gt;dir_36c79fd5fccc0faf954b7c20b3e2467b</title>
<path fill="none" stroke="black" d="M423,-71.6966C423,-63.9827 423,-54.7125 423,-46.1124"/>
<polygon fill="black" stroke="black" points="426.5,-46.1043 423,-36.1043 419.5,-46.1044 426.5,-46.1043"/>
<g id="a_edge1&#45;headlabel"><a xlink:href="dir_000685_000061.html" target="_top" xlink:title="2">
<text text-anchor="middle" x="429.339" y="-47.199" font-family="Helvetica,sans-Serif" font-size="10.00">2</text>
</a>
</g>
</g>
<!-- dir_120f357fddf76d7a1d3f46660b2b3aab -->
<g id="node9" class="node"><title>dir_120f357fddf76d7a1d3f46660b2b3aab</title>
<g id="a_node9"><a xlink:href="dir_120f357fddf76d7a1d3f46660b2b3aab.html" target="_top" xlink:title="ioPacs">
<polygon fill="white" stroke="red" points="378,-108 324,-108 324,-72 378,-72 378,-108"/>
<text text-anchor="middle" x="351" y="-87.5" font-family="Helvetica,sans-Serif" font-size="10.00">ioPacs</text>
</a>
</g>
</g>
<!-- dir_211694e3e2f3385de6694b696004d5b3 -->
<g id="node10" class="node"><title>dir_211694e3e2f3385de6694b696004d5b3</title>
<g id="a_node10"><a xlink:href="dir_211694e3e2f3385de6694b696004d5b3.html" target="_top" xlink:title="ioQt">
<polygon fill="white" stroke="red" points="306,-108 252,-108 252,-72 306,-72 306,-108"/>
<text text-anchor="middle" x="279" y="-87.5" font-family="Helvetica,sans-Serif" font-size="10.00">ioQt</text>
</a>
</g>
</g>
<!-- dir_20cc383eab1dfa997ec1e1ab13753ef4 -->
<g id="node11" class="node"><title>dir_20cc383eab1dfa997ec1e1ab13753ef4</title>
<g id="a_node11"><a xlink:href="dir_20cc383eab1dfa997ec1e1ab13753ef4.html" target="_top" xlink:title="ioTuto">
<polygon fill="white" stroke="red" points="234,-108 180,-108 180,-72 234,-72 234,-108"/>
<text text-anchor="middle" x="207" y="-87.5" font-family="Helvetica,sans-Serif" font-size="10.00">ioTuto</text>
</a>
</g>
</g>
<!-- dir_15b092d67e03ff82d3f9298d0bf0a500 -->
<g id="node12" class="node"><title>dir_15b092d67e03ff82d3f9298d0bf0a500</title>
<g id="a_node12"><a xlink:href="dir_15b092d67e03ff82d3f9298d0bf0a500.html" target="_top" xlink:title="ioVTK">
<polygon fill="white" stroke="red" points="162,-108 108,-108 108,-72 162,-72 162,-108"/>
<text text-anchor="middle" x="135" y="-87.5" font-family="Helvetica,sans-Serif" font-size="10.00">ioVTK</text>
</a>
</g>
</g>
<!-- dir_e03c89c74b8c5ae7f7261741561ae6e6 -->
<g id="node13" class="node"><title>dir_e03c89c74b8c5ae7f7261741561ae6e6</title>
<g id="a_node13"><a xlink:href="dir_e03c89c74b8c5ae7f7261741561ae6e6.html" target="_top" xlink:title="ioVtkGdcm">
<polygon fill="white" stroke="red" points="89.25,-108 24.75,-108 24.75,-72 89.25,-72 89.25,-108"/>
<text text-anchor="middle" x="57" y="-87.5" font-family="Helvetica,sans-Serif" font-size="10.00">ioVtkGdcm</text>
</a>
</g>
</g>
</g>
</svg>
        <g id="navigator" transform="translate(0 0)" fill="#404254">
                <rect fill="#f2f5e9" fill-opacity="0.5" stroke="#606060" stroke-width=".5" x="0" y="0" width="60" height="60"/>
                <use id="zoomplus" xlink:href="#zoomPlus" x="17" y="9" onmousedown="handleZoom(evt,'in')"/>
                <use id="zoomminus" xlink:href="#zoomMin" x="42" y="9" onmousedown="handleZoom(evt,'out')"/>
                <use id="reset" xlink:href="#resetDef" x="30" y="36" onmousedown="handleReset()"/>
                <g id="arrowUp" xlink:href="#dirArrow" transform="translate(30 24)" onmousedown="handlePan(0,-1)">
                  <use xlink:href="#rim" fill="#404040">
                        <set attributeName="fill" to="#808080" begin="arrowUp.mouseover" end="arrowUp.mouseout"/>
                  </use>
                  <path fill="none" stroke="white" stroke-width="1.5" d="M0,-3.0v7 M-2.5,-0.5L0,-3.0L2.5,-0.5"/>
                </g>
                <g id="arrowRight" xlink:href="#dirArrow" transform="rotate(90) translate(36 -43)" onmousedown="handlePan(1,0)">
                  <use xlink:href="#rim" fill="#404040">
                        <set attributeName="fill" to="#808080" begin="arrowRight.mouseover" end="arrowRight.mouseout"/>
                  </use>
                  <path fill="none" stroke="white" stroke-width="1.5" d="M0,-3.0v7 M-2.5,-0.5L0,-3.0L2.5,-0.5"/>
                </g>
                <g id="arrowDown" xlink:href="#dirArrow" transform="rotate(180) translate(-30 -48)" onmousedown="handlePan(0,1)">
                  <use xlink:href="#rim" fill="#404040">
                        <set attributeName="fill" to="#808080" begin="arrowDown.mouseover" end="arrowDown.mouseout"/>
                  </use>
                  <path fill="none" stroke="white" stroke-width="1.5" d="M0,-3.0v7 M-2.5,-0.5L0,-3.0L2.5,-0.5"/>
                </g>
                <g id="arrowLeft" xlink:href="#dirArrow" transform="rotate(270) translate(-36 17)" onmousedown="handlePan(-1,0)">
                  <use xlink:href="#rim" fill="#404040">
                        <set attributeName="fill" to="#808080" begin="arrowLeft.mouseover" end="arrowLeft.mouseout"/>
                  </use>
                  <path fill="none" stroke="white" stroke-width="1.5" d="M0,-3.0v7 M-2.5,-0.5L0,-3.0L2.5,-0.5"/>
                </g>
        </g>
        <svg viewBox="0 0 15 15" width="100%" height="30px" preserveAspectRatio="xMaxYMin meet">
         <g id="arrow_out" transform="scale(0.3 0.3)">
          <a xlink:href="dir_3965cbd5ac9a19843d68d2de66c61cda_dep_org.svg" target="_base">
           <rect id="button" ry="5" rx="5" y="6" x="6" height="38" width="38"
                fill="#f2f5e9" fill-opacity="0.5" stroke="#606060" stroke-width="1.0"/>
           <path id="arrow"
             d="M 11.500037,31.436501 C 11.940474,20.09759 22.043105,11.32322 32.158766,21.979434 L 37.068811,17.246167 C 37.068811,17.246167 37.088388,32 37.088388,32 L 22.160133,31.978069 C 22.160133,31.978069 26.997745,27.140456 26.997745,27.140456 C 18.528582,18.264221 13.291696,25.230495 11.500037,31.436501 z"
             style="fill:#404040;"/>
          </a>
         </g>
        </svg>
</svg>
