<?xml version="1.0" encoding="UTF-8" standalone="no"?>
<!DOCTYPE svg PUBLIC "-//W3C//DTD SVG 1.1//EN"
 "http://www.w3.org/Graphics/SVG/1.1/DTD/svg11.dtd">
<!-- Generated by graphviz version 2.26.3 (20100126.1600)
 -->
<!-- Title: include Pages: 1 -->
<svg width="194pt" height="161pt"
 viewBox="0.00 0.00 194.00 161.00" xmlns="http://www.w3.org/2000/svg" xmlns:xlink="http://www.w3.org/1999/xlink">
<g id="graph1" class="graph" transform="scale(1 1) rotate(0) translate(4 157)">
<title>include</title>
<polygon fill="white" stroke="white" points="-4,5 -4,-157 191,-157 191,5 -4,5"/>
<g id="graph2" class="cluster"><title>clusterdir_fe6623813886e237ef666e431bc8c4f1</title>
<a xlink:href="dir_fe6623813886e237ef666e431bc8c4f1.html" target="_top" xlink:title="vtkGdcmIO">
<polygon fill="#ddddee" stroke="black" points="8,-56 8,-145 178,-145 178,-56 8,-56"/>
<text text-anchor="middle" x="93" y="-132" font-family="Helvetica,sans-Serif" font-size="10.00">vtkGdcmIO</text>
</a>
</g>
<g id="graph3" class="cluster"><title>clusterdir_b7eb8bb65f9c353dcb23a46a7dd7e0d9</title>
<a xlink:href="dir_b7eb8bb65f9c353dcb23a46a7dd7e0d9.html" target="_top">
<polygon fill="#eeeeff" stroke="black" points="16,-64 16,-116 170,-116 170,-64 16,-64"/>
</a>
</g>
<!-- dir_b7eb8bb65f9c353dcb23a46a7dd7e0d9 -->
<g id="node3" class="node"><title>dir_b7eb8bb65f9c353dcb23a46a7dd7e0d9</title>
<text text-anchor="middle" x="135" y="-87.5" font-family="Helvetica,sans-Serif" font-size="10.00">include</text>
</g>
<!-- dir_d5cc1533e1c8be20a976906945914a41 -->
<g id="node4" class="node"><title>dir_d5cc1533e1c8be20a976906945914a41</title>
<a xlink:href="dir_d5cc1533e1c8be20a976906945914a41.html" target="_top" xlink:title="vtkGdcmIO">
<polygon fill="white" stroke="red" points="90,-108 24,-108 24,-72 90,-72 90,-108"/>
<text text-anchor="middle" x="57" y="-87.5" font-family="Helvetica,sans-Serif" font-size="10.00">vtkGdcmIO</text>
</a>
</g>
<!-- dir_4b27a3ee21cd820803ead0a49ff3b161 -->
<g id="node5" class="node"><title>dir_4b27a3ee21cd820803ead0a49ff3b161</title>
<a xlink:href="dir_4b27a3ee21cd820803ead0a49ff3b161.html" target="_top" xlink:title="core">
<polygon fill="white" stroke="red" points="84,-36 30,-36 30,-1.77636e-14 84,-3.55271e-15 84,-36"/>
<text text-anchor="middle" x="57" y="-15.5" font-family="Helvetica,sans-Serif" font-size="10.00">core</text>
</a>
</g>
<!-- dir_d5cc1533e1c8be20a976906945914a41&#45;&gt;dir_4b27a3ee21cd820803ead0a49ff3b161 -->
<g id="edge4" class="edge"><title>dir_d5cc1533e1c8be20a976906945914a41&#45;&gt;dir_4b27a3ee21cd820803ead0a49ff3b161</title>
<path fill="none" stroke="black" d="M57,-71.8314C57,-64.131 57,-54.9743 57,-46.4166"/>
<polygon fill="black" stroke="black" points="60.5001,-46.4132 57,-36.4133 53.5001,-46.4133 60.5001,-46.4132"/>
<a xlink:href="dir_000526_000001.html" target="_top" xlink:title="2">
<text text-anchor="middle" x="63.3393" y="-47.5079" font-family="Helvetica,sans-Serif" font-size="10.00">2</text>
</a>
</g>
</g>
</svg>
