<?xml version="1.0" encoding="UTF-8" standalone="no"?>
<!DOCTYPE svg PUBLIC "-//W3C//DTD SVG 1.1//EN"
 "http://www.w3.org/Graphics/SVG/1.1/DTD/svg11.dtd">
<!-- Generated by graphviz version 2.26.3 (20100126.1600)
 -->
<!-- Title: fwDataIO Pages: 1 -->
<svg width="330pt" height="233pt"
 viewBox="0.00 0.00 330.00 233.00" xmlns="http://www.w3.org/2000/svg" xmlns:xlink="http://www.w3.org/1999/xlink">
<g id="graph1" class="graph" transform="scale(1 1) rotate(0) translate(4 229)">
<title>fwDataIO</title>
<polygon fill="white" stroke="white" points="-4,5 -4,-229 327,-229 327,5 -4,5"/>
<g id="graph2" class="cluster"><title>clusterdir_4b27a3ee21cd820803ead0a49ff3b161</title>
<a xlink:href="dir_4b27a3ee21cd820803ead0a49ff3b161.html" target="_top" xlink:title="core">
<polygon fill="#ddddee" stroke="black" points="8,-128 8,-217 314,-217 314,-128 8,-128"/>
<text text-anchor="middle" x="161" y="-204" font-family="Helvetica,sans-Serif" font-size="10.00">core</text>
</a>
</g>
<g id="graph3" class="cluster"><title>clusterdir_c7fc7f30a0fac3858b6460abad15189d</title>
<a xlink:href="dir_c7fc7f30a0fac3858b6460abad15189d.html" target="_top">
<polygon fill="#eeeeff" stroke="black" points="16,-136 16,-188 306,-188 306,-136 16,-136"/>
</a>
</g>
<!-- dir_c7fc7f30a0fac3858b6460abad15189d -->
<g id="node3" class="node"><title>dir_c7fc7f30a0fac3858b6460abad15189d</title>
<text text-anchor="middle" x="269" y="-159.5" font-family="Helvetica,sans-Serif" font-size="10.00">fwDataIO</text>
</g>
<!-- dir_00d7019a6aa846a4b3269a6efc0856f3 -->
<g id="node4" class="node"><title>dir_00d7019a6aa846a4b3269a6efc0856f3</title>
<a xlink:href="dir_00d7019a6aa846a4b3269a6efc0856f3.html" target="_top" xlink:title="include">
<polygon fill="white" stroke="red" points="222,-180 168,-180 168,-144 222,-144 222,-180"/>
<text text-anchor="middle" x="195" y="-159.5" font-family="Helvetica,sans-Serif" font-size="10.00">include</text>
</a>
</g>
<!-- dir_99e2969c7b06cee36a3bea33303e5bc8 -->
<g id="node7" class="node"><title>dir_99e2969c7b06cee36a3bea33303e5bc8</title>
<a xlink:href="dir_99e2969c7b06cee36a3bea33303e5bc8.html" target="_top" xlink:title="fwTools">
<polygon fill="white" stroke="red" points="195,-108 141,-108 141,-72 195,-72 195,-108"/>
<text text-anchor="middle" x="168" y="-87.5" font-family="Helvetica,sans-Serif" font-size="10.00">fwTools</text>
</a>
</g>
<!-- dir_00d7019a6aa846a4b3269a6efc0856f3&#45;&gt;dir_99e2969c7b06cee36a3bea33303e5bc8 -->
<g id="edge6" class="edge"><title>dir_00d7019a6aa846a4b3269a6efc0856f3&#45;&gt;dir_99e2969c7b06cee36a3bea33303e5bc8</title>
<path fill="none" stroke="black" d="M188.187,-143.831C185.236,-135.962 181.714,-126.571 178.445,-117.853"/>
<polygon fill="black" stroke="black" points="181.693,-116.548 174.905,-108.413 175.139,-119.006 181.693,-116.548"/>
<a xlink:href="dir_000161_000222.html" target="_top" xlink:title="2">
<text text-anchor="middle" x="185.614" y="-116.416" font-family="Helvetica,sans-Serif" font-size="10.00">2</text>
</a>
</g>
<!-- dir_211435ab6e02d177e72a2e329363bb51 -->
<g id="node8" class="node"><title>dir_211435ab6e02d177e72a2e329363bb51</title>
<a xlink:href="dir_211435ab6e02d177e72a2e329363bb51.html" target="_top" xlink:title="fwCore">
<polygon fill="white" stroke="red" points="222,-36 168,-36 168,-1.77636e-14 222,-3.55271e-15 222,-36"/>
<text text-anchor="middle" x="195" y="-15.5" font-family="Helvetica,sans-Serif" font-size="10.00">fwCore</text>
</a>
</g>
<!-- dir_00d7019a6aa846a4b3269a6efc0856f3&#45;&gt;dir_211435ab6e02d177e72a2e329363bb51 -->
<g id="edge8" class="edge"><title>dir_00d7019a6aa846a4b3269a6efc0856f3&#45;&gt;dir_211435ab6e02d177e72a2e329363bb51</title>
<path fill="none" stroke="black" d="M198.841,-143.6C200.817,-133.203 203.012,-119.935 204,-108 205.32,-92.0545 205.32,-87.9455 204,-72 203.305,-63.6085 202.014,-54.5578 200.621,-46.3092"/>
<polygon fill="black" stroke="black" points="204.054,-45.6235 198.841,-36.3999 197.165,-46.8612 204.054,-45.6235"/>
<a xlink:href="dir_000161_000208.html" target="_top" xlink:title="4">
<text text-anchor="middle" x="207.484" y="-46.1595" font-family="Helvetica,sans-Serif" font-size="10.00">4</text>
</a>
</g>
<!-- dir_672ec026ccd69ed0e6e4b981931f5d09 -->
<g id="node5" class="node"><title>dir_672ec026ccd69ed0e6e4b981931f5d09</title>
<a xlink:href="dir_672ec026ccd69ed0e6e4b981931f5d09.html" target="_top" xlink:title="src">
<polygon fill="white" stroke="red" points="150,-180 96,-180 96,-144 150,-144 150,-180"/>
<text text-anchor="middle" x="123" y="-159.5" font-family="Helvetica,sans-Serif" font-size="10.00">src</text>
</a>
</g>
<!-- dir_090cb4b2d4f7caaf29054a55363e1376 -->
<g id="node6" class="node"><title>dir_090cb4b2d4f7caaf29054a55363e1376</title>
<a xlink:href="dir_090cb4b2d4f7caaf29054a55363e1376.html" target="_top" xlink:title="test">
<polygon fill="white" stroke="red" points="78,-180 24,-180 24,-144 78,-144 78,-180"/>
<text text-anchor="middle" x="51" y="-159.5" font-family="Helvetica,sans-Serif" font-size="10.00">test</text>
</a>
</g>
<!-- dir_99e2969c7b06cee36a3bea33303e5bc8&#45;&gt;dir_211435ab6e02d177e72a2e329363bb51 -->
<g id="edge4" class="edge"><title>dir_99e2969c7b06cee36a3bea33303e5bc8&#45;&gt;dir_211435ab6e02d177e72a2e329363bb51</title>
<path fill="none" stroke="black" d="M174.813,-71.8314C177.764,-63.9617 181.286,-54.5712 184.555,-45.8533"/>
<polygon fill="black" stroke="black" points="187.861,-47.0055 188.095,-36.4133 181.307,-44.5476 187.861,-47.0055"/>
<a xlink:href="dir_000222_000208.html" target="_top" xlink:title="17">
<text text-anchor="middle" x="189.257" y="-48.8682" font-family="Helvetica,sans-Serif" font-size="10.00">17</text>
</a>
</g>
</g>
</svg>
