<?xml version="1.0" encoding="UTF-8" standalone="no"?>
<!DOCTYPE svg PUBLIC "-//W3C//DTD SVG 1.1//EN"
 "http://www.w3.org/Graphics/SVG/1.1/DTD/svg11.dtd">
<!-- Generated by graphviz version 2.26.3 (20100126.1600)
 -->
<!-- Title: policy Pages: 1 -->
<svg width="254pt" height="233pt"
 viewBox="0.00 0.00 254.00 233.00" xmlns="http://www.w3.org/2000/svg" xmlns:xlink="http://www.w3.org/1999/xlink">
<g id="graph1" class="graph" transform="scale(1 1) rotate(0) translate(4 229)">
<title>policy</title>
<polygon fill="white" stroke="white" points="-4,5 -4,-229 251,-229 251,5 -4,5"/>
<g id="graph2" class="cluster"><title>clusterdir_d7b6ca08f89ca905e6624f9cd5adef3d</title>
<a xlink:href="dir_d7b6ca08f89ca905e6624f9cd5adef3d.html" target="_top" xlink:title="fwMemory">
<polygon fill="#ddddee" stroke="black" points="8,-128 8,-217 238,-217 238,-128 8,-128"/>
<text text-anchor="middle" x="123" y="-204" font-family="Helvetica,sans-Serif" font-size="10.00">fwMemory</text>
</a>
</g>
<g id="graph3" class="cluster"><title>clusterdir_073a1cad3fc0b12b7848a30ce22d7a9c</title>
<a xlink:href="dir_073a1cad3fc0b12b7848a30ce22d7a9c.html" target="_top">
<polygon fill="#eeeeff" stroke="black" points="16,-136 16,-188 230,-188 230,-136 16,-136"/>
</a>
</g>
<!-- dir_073a1cad3fc0b12b7848a30ce22d7a9c -->
<g id="node3" class="node"><title>dir_073a1cad3fc0b12b7848a30ce22d7a9c</title>
<text text-anchor="middle" x="51" y="-159.5" font-family="Helvetica,sans-Serif" font-size="10.00">policy</text>
</g>
<!-- dir_211435ab6e02d177e72a2e329363bb51 -->
<g id="node7" class="node"><title>dir_211435ab6e02d177e72a2e329363bb51</title>
<a xlink:href="dir_211435ab6e02d177e72a2e329363bb51.html" target="_top" xlink:title="fwCore">
<polygon fill="white" stroke="red" points="150,-36 96,-36 96,-1.77636e-14 150,-3.55271e-15 150,-36"/>
<text text-anchor="middle" x="123" y="-15.5" font-family="Helvetica,sans-Serif" font-size="10.00">fwCore</text>
</a>
</g>
<!-- dir_073a1cad3fc0b12b7848a30ce22d7a9c&#45;&gt;dir_211435ab6e02d177e72a2e329363bb51 -->
<g id="edge10" class="edge"><title>dir_073a1cad3fc0b12b7848a30ce22d7a9c&#45;&gt;dir_211435ab6e02d177e72a2e329363bb51</title>
<path fill="none" stroke="black" d="M56.9822,-143.923C63.3995,-125.394 74.3864,-95.9789 87,-72 91.8275,-62.8228 97.8366,-53.2651 103.554,-44.7865"/>
<polygon fill="black" stroke="black" points="106.541,-46.62 109.344,-36.4027 100.781,-42.6418 106.541,-46.62"/>
<a xlink:href="dir_000138_000208.html" target="_top" xlink:title="5">
<text text-anchor="middle" x="106.835" y="-48.6912" font-family="Helvetica,sans-Serif" font-size="10.00">5</text>
</a>
</g>
<!-- dir_4018340531f6d480e054b190b6d1b3f7 -->
<g id="node4" class="node"><title>dir_4018340531f6d480e054b190b6d1b3f7</title>
<a xlink:href="dir_4018340531f6d480e054b190b6d1b3f7.html" target="_top" xlink:title="factory">
<polygon fill="white" stroke="black" points="150,-180 96,-180 96,-144 150,-144 150,-180"/>
<text text-anchor="middle" x="123" y="-159.5" font-family="Helvetica,sans-Serif" font-size="10.00">factory</text>
</a>
</g>
<!-- dir_99e2969c7b06cee36a3bea33303e5bc8 -->
<g id="node6" class="node"><title>dir_99e2969c7b06cee36a3bea33303e5bc8</title>
<a xlink:href="dir_99e2969c7b06cee36a3bea33303e5bc8.html" target="_top" xlink:title="fwTools">
<polygon fill="white" stroke="red" points="150,-108 96,-108 96,-72 150,-72 150,-108"/>
<text text-anchor="middle" x="123" y="-87.5" font-family="Helvetica,sans-Serif" font-size="10.00">fwTools</text>
</a>
</g>
<!-- dir_4018340531f6d480e054b190b6d1b3f7&#45;&gt;dir_99e2969c7b06cee36a3bea33303e5bc8 -->
<g id="edge6" class="edge"><title>dir_4018340531f6d480e054b190b6d1b3f7&#45;&gt;dir_99e2969c7b06cee36a3bea33303e5bc8</title>
<path fill="none" stroke="black" d="M123,-143.831C123,-136.131 123,-126.974 123,-118.417"/>
<polygon fill="black" stroke="black" points="126.5,-118.413 123,-108.413 119.5,-118.413 126.5,-118.413"/>
<a xlink:href="dir_000790_000222.html" target="_top" xlink:title="1">
<text text-anchor="middle" x="129.339" y="-119.508" font-family="Helvetica,sans-Serif" font-size="10.00">1</text>
</a>
</g>
<!-- dir_13e8191cfd7b3d7b6b5e4d2a015bcef3 -->
<g id="node5" class="node"><title>dir_13e8191cfd7b3d7b6b5e4d2a015bcef3</title>
<a xlink:href="dir_13e8191cfd7b3d7b6b5e4d2a015bcef3.html" target="_top" xlink:title="registry">
<polygon fill="white" stroke="black" points="222,-180 168,-180 168,-144 222,-144 222,-180"/>
<text text-anchor="middle" x="195" y="-159.5" font-family="Helvetica,sans-Serif" font-size="10.00">registry</text>
</a>
</g>
<!-- dir_13e8191cfd7b3d7b6b5e4d2a015bcef3&#45;&gt;dir_211435ab6e02d177e72a2e329363bb51 -->
<g id="edge8" class="edge"><title>dir_13e8191cfd7b3d7b6b5e4d2a015bcef3&#45;&gt;dir_211435ab6e02d177e72a2e329363bb51</title>
<path fill="none" stroke="black" d="M189.018,-143.923C182.601,-125.394 171.614,-95.9789 159,-72 154.173,-62.8228 148.163,-53.2651 142.446,-44.7865"/>
<polygon fill="black" stroke="black" points="145.219,-42.6418 136.656,-36.4027 139.459,-46.62 145.219,-42.6418"/>
<a xlink:href="dir_000382_000208.html" target="_top" xlink:title="1">
<text text-anchor="middle" x="149.598" y="-41.4859" font-family="Helvetica,sans-Serif" font-size="10.00">1</text>
</a>
</g>
<!-- dir_99e2969c7b06cee36a3bea33303e5bc8&#45;&gt;dir_211435ab6e02d177e72a2e329363bb51 -->
<g id="edge4" class="edge"><title>dir_99e2969c7b06cee36a3bea33303e5bc8&#45;&gt;dir_211435ab6e02d177e72a2e329363bb51</title>
<path fill="none" stroke="black" d="M123,-71.8314C123,-64.131 123,-54.9743 123,-46.4166"/>
<polygon fill="black" stroke="black" points="126.5,-46.4132 123,-36.4133 119.5,-46.4133 126.5,-46.4132"/>
<a xlink:href="dir_000222_000208.html" target="_top" xlink:title="17">
<text text-anchor="middle" x="129.339" y="-47.5079" font-family="Helvetica,sans-Serif" font-size="10.00">17</text>
</a>
</g>
</g>
</svg>
