<?xml version="1.0" encoding="UTF-8" standalone="no"?>
<!DOCTYPE svg PUBLIC "-//W3C//DTD SVG 1.1//EN"
 "http://www.w3.org/Graphics/SVG/1.1/DTD/svg11.dtd">
<!-- Generated by graphviz version 2.26.3 (20100126.1600)
 -->
<!-- Title: fwDcmtkIO Pages: 1 -->
<svg width="266pt" height="161pt"
 viewBox="0.00 0.00 266.00 161.00" xmlns="http://www.w3.org/2000/svg" xmlns:xlink="http://www.w3.org/1999/xlink">
<g id="graph1" class="graph" transform="scale(1 1) rotate(0) translate(4 157)">
<title>fwDcmtkIO</title>
<polygon fill="white" stroke="white" points="-4,5 -4,-157 263,-157 263,5 -4,5"/>
<g id="graph2" class="cluster"><title>clusterdir_f2566cb15128fdfcddbe7261e81a0c1d</title>
<a xlink:href="dir_f2566cb15128fdfcddbe7261e81a0c1d.html" target="_top" xlink:title="include">
<polygon fill="#ddddee" stroke="black" points="8,-56 8,-145 250,-145 250,-56 8,-56"/>
<text text-anchor="middle" x="129" y="-132" font-family="Helvetica,sans-Serif" font-size="10.00">include</text>
</a>
</g>
<g id="graph3" class="cluster"><title>clusterdir_1487bb7841d75fe7cf81b042255cacbf</title>
<a xlink:href="dir_1487bb7841d75fe7cf81b042255cacbf.html" target="_top">
<polygon fill="#eeeeff" stroke="black" points="16,-64 16,-116 242,-116 242,-64 16,-64"/>
</a>
</g>
<!-- dir_1487bb7841d75fe7cf81b042255cacbf -->
<g id="node3" class="node"><title>dir_1487bb7841d75fe7cf81b042255cacbf</title>
<text text-anchor="middle" x="201" y="-87.5" font-family="Helvetica,sans-Serif" font-size="10.00">fwDcmtkIO</text>
</g>
<!-- dir_62803e8e3b026235b9a5d37a84a24ced -->
<g id="node4" class="node"><title>dir_62803e8e3b026235b9a5d37a84a24ced</title>
<a xlink:href="dir_62803e8e3b026235b9a5d37a84a24ced.html" target="_top" xlink:title="helper">
<polygon fill="white" stroke="black" points="150,-108 96,-108 96,-72 150,-72 150,-108"/>
<text text-anchor="middle" x="123" y="-87.5" font-family="Helvetica,sans-Serif" font-size="10.00">helper</text>
</a>
</g>
<!-- dir_40b2a341a089315846527320c3e0521d -->
<g id="node5" class="node"><title>dir_40b2a341a089315846527320c3e0521d</title>
<a xlink:href="dir_40b2a341a089315846527320c3e0521d.html" target="_top" xlink:title="reader">
<polygon fill="white" stroke="red" points="78,-108 24,-108 24,-72 78,-72 78,-108"/>
<text text-anchor="middle" x="51" y="-87.5" font-family="Helvetica,sans-Serif" font-size="10.00">reader</text>
</a>
</g>
<!-- dir_4b27a3ee21cd820803ead0a49ff3b161 -->
<g id="node6" class="node"><title>dir_4b27a3ee21cd820803ead0a49ff3b161</title>
<a xlink:href="dir_4b27a3ee21cd820803ead0a49ff3b161.html" target="_top" xlink:title="core">
<polygon fill="white" stroke="red" points="78,-36 24,-36 24,-1.77636e-14 78,-3.55271e-15 78,-36"/>
<text text-anchor="middle" x="51" y="-15.5" font-family="Helvetica,sans-Serif" font-size="10.00">core</text>
</a>
</g>
<!-- dir_40b2a341a089315846527320c3e0521d&#45;&gt;dir_4b27a3ee21cd820803ead0a49ff3b161 -->
<g id="edge4" class="edge"><title>dir_40b2a341a089315846527320c3e0521d&#45;&gt;dir_4b27a3ee21cd820803ead0a49ff3b161</title>
<path fill="none" stroke="black" d="M51,-71.8314C51,-64.131 51,-54.9743 51,-46.4166"/>
<polygon fill="black" stroke="black" points="54.5001,-46.4132 51,-36.4133 47.5001,-46.4133 54.5001,-46.4132"/>
<a xlink:href="dir_000547_000001.html" target="_top" xlink:title="2">
<text text-anchor="middle" x="57.3393" y="-47.5079" font-family="Helvetica,sans-Serif" font-size="10.00">2</text>
</a>
</g>
</g>
</svg>
