<?xml version="1.0" encoding="UTF-8" standalone="no"?>
<!DOCTYPE svg PUBLIC "-//W3C//DTD SVG 1.1//EN"
 "http://www.w3.org/Graphics/SVG/1.1/DTD/svg11.dtd">
<!-- Generated by graphviz version 2.26.3 (20100126.1600)
 -->
<!-- Title: src Pages: 1 -->
<svg width="186pt" height="161pt"
 viewBox="0.00 0.00 186.00 161.00" xmlns="http://www.w3.org/2000/svg" xmlns:xlink="http://www.w3.org/1999/xlink">
<g id="graph1" class="graph" transform="scale(1 1) rotate(0) translate(4 157)">
<title>src</title>
<polygon fill="white" stroke="white" points="-4,5 -4,-157 183,-157 183,5 -4,5"/>
<g id="graph2" class="cluster"><title>clusterdir_5f4e518d306266d5c114b69615930cf6</title>
<a xlink:href="dir_5f4e518d306266d5c114b69615930cf6.html" target="_top" xlink:title="monitorQt">
<polygon fill="#ddddee" stroke="black" points="8,-56 8,-145 170,-145 170,-56 8,-56"/>
<text text-anchor="middle" x="89" y="-132" font-family="Helvetica,sans-Serif" font-size="10.00">monitorQt</text>
</a>
</g>
<g id="graph3" class="cluster"><title>clusterdir_45ace0d10444ee47fa16a8da085a1425</title>
<a xlink:href="dir_45ace0d10444ee47fa16a8da085a1425.html" target="_top">
<polygon fill="#eeeeff" stroke="black" points="16,-64 16,-116 162,-116 162,-64 16,-64"/>
</a>
</g>
<!-- dir_45ace0d10444ee47fa16a8da085a1425 -->
<g id="node3" class="node"><title>dir_45ace0d10444ee47fa16a8da085a1425</title>
<text text-anchor="middle" x="127" y="-87.5" font-family="Helvetica,sans-Serif" font-size="10.00">src</text>
</g>
<!-- dir_08dd0cc025da54b2623ffd3c6de6d59f -->
<g id="node4" class="node"><title>dir_08dd0cc025da54b2623ffd3c6de6d59f</title>
<a xlink:href="dir_08dd0cc025da54b2623ffd3c6de6d59f.html" target="_top" xlink:title="monitorQt">
<polygon fill="white" stroke="red" points="82,-108 24,-108 24,-72 82,-72 82,-108"/>
<text text-anchor="middle" x="53" y="-87.5" font-family="Helvetica,sans-Serif" font-size="10.00">monitorQt</text>
</a>
</g>
<!-- dir_36c79fd5fccc0faf954b7c20b3e2467b -->
<g id="node5" class="node"><title>dir_36c79fd5fccc0faf954b7c20b3e2467b</title>
<a xlink:href="dir_36c79fd5fccc0faf954b7c20b3e2467b.html" target="_top" xlink:title="SrcLib">
<polygon fill="white" stroke="red" points="80,-36 26,-36 26,-1.77636e-14 80,-3.55271e-15 80,-36"/>
<text text-anchor="middle" x="53" y="-15.5" font-family="Helvetica,sans-Serif" font-size="10.00">SrcLib</text>
</a>
</g>
<!-- dir_08dd0cc025da54b2623ffd3c6de6d59f&#45;&gt;dir_36c79fd5fccc0faf954b7c20b3e2467b -->
<g id="edge4" class="edge"><title>dir_08dd0cc025da54b2623ffd3c6de6d59f&#45;&gt;dir_36c79fd5fccc0faf954b7c20b3e2467b</title>
<path fill="none" stroke="black" d="M53,-71.8314C53,-64.131 53,-54.9743 53,-46.4166"/>
<polygon fill="black" stroke="black" points="56.5001,-46.4132 53,-36.4133 49.5001,-46.4133 56.5001,-46.4132"/>
<a xlink:href="dir_000228_000000.html" target="_top" xlink:title="3">
<text text-anchor="middle" x="59.3393" y="-47.5079" font-family="Helvetica,sans-Serif" font-size="10.00">3</text>
</a>
</g>
</g>
</svg>
