<?xml version="1.0" encoding="UTF-8" standalone="no"?>
<!DOCTYPE svg PUBLIC "-//W3C//DTD SVG 1.1//EN"
 "http://www.w3.org/Graphics/SVG/1.1/DTD/svg11.dtd">
<!-- Generated by graphviz version 2.26.3 (20100126.1600)
 -->
<!-- Title: fwAtomsPatch Pages: 1 -->
<!--zoomable 161 -->
<svg id="main" version="1.1" xmlns="http://www.w3.org/2000/svg" xmlns:xlink="http://www.w3.org/1999/xlink" xml:space="preserve" onload="init(evt)">
<style type="text/css"><![CDATA[
.edge:hover path { stroke: red; }
.edge:hover polygon { stroke: red; fill: red; }
]]></style>
<script type="text/javascript"><![CDATA[
var edges = document.getElementsByTagName('g');
if (edges && edges.length) {
  for (var i=0;i<edges.length;i++) {
    if (edges[i].id.substr(0,4)=='edge') {
      edges[i].setAttribute('class','edge');
    }
  }
}
]]></script>
        <defs>
                <circle id="rim" cx="0" cy="0" r="7"/>
                <circle id="rim2" cx="0" cy="0" r="3.5"/>
                <g id="zoomPlus">
                        <use xlink:href="#rim" fill="#404040">
                                <set attributeName="fill" to="#808080" begin="zoomplus.mouseover" end="zoomplus.mouseout"/>
                        </use>
                        <path d="M-4,0h8M0,-4v8" fill="none" stroke="white" stroke-width="1.5" pointer-events="none"/>
                </g>
                <g id="zoomMin">
                        <use xlink:href="#rim" fill="#404040">
                                <set attributeName="fill" to="#808080" begin="zoomminus.mouseover" end="zoomminus.mouseout"/>
                        </use>
                        <path d="M-4,0h8" fill="none" stroke="white" stroke-width="1.5" pointer-events="none"/>
                </g>
                <g id="dirArrow">
                        <path fill="none" stroke="white" stroke-width="1.5" d="M0,-3.0v7 M-2.5,-0.5L0,-3.0L2.5,-0.5"/>
                </g>
               <g id="resetDef">
                       <use xlink:href="#rim2" fill="#404040">
                               <set attributeName="fill" to="#808080" begin="reset.mouseover" end="reset.mouseout"/>
                       </use>
               </g>
        </defs>

<script type="text/javascript">
var viewWidth = 512;
var viewHeight = 161;
var sectionId = 'dynsection-0';
</script>
<script xlink:href="svgpan.js"/>
<svg id="graph" class="graph">
<g id="viewport">
<title>fwAtomsPatch</title>
<polygon fill="white" stroke="white" points="-4,5 -4,-157 509,-157 509,5 -4,5"/>
<g id="graph2" class="cluster"><title>clusterdir_cc7d47b7c4319975aca8c4ab42ff77ac</title>
<a xlink:href="dir_cc7d47b7c4319975aca8c4ab42ff77ac.html" target="_top" xlink:title="src">
<polygon fill="#ddddee" stroke="black" points="8,-56 8,-145 496,-145 496,-56 8,-56"/>
<text text-anchor="middle" x="252" y="-132" font-family="Helvetica,sans-Serif" font-size="10.00">src</text>
</a>
</g>
<g id="graph3" class="cluster"><title>clusterdir_9c1b281202705a95e10e10ff75b460f0</title>
<a xlink:href="dir_9c1b281202705a95e10e10ff75b460f0.html" target="_top">
<polygon fill="#eeeeff" stroke="black" points="16,-64 16,-116 488,-116 488,-64 16,-64"/>
</a>
</g>
<!-- dir_9c1b281202705a95e10e10ff75b460f0 -->
<g id="node3" class="node"><title>dir_9c1b281202705a95e10e10ff75b460f0</title>
<text text-anchor="middle" x="440" y="-87.5" font-family="Helvetica,sans-Serif" font-size="10.00">fwAtomsPatch</text>
</g>
<!-- dir_211435ab6e02d177e72a2e329363bb51 -->
<g id="node9" class="node"><title>dir_211435ab6e02d177e72a2e329363bb51</title>
<a xlink:href="dir_211435ab6e02d177e72a2e329363bb51.html" target="_top" xlink:title="fwCore">
<polygon fill="white" stroke="red" points="467,-36 413,-36 413,-1.77636e-14 467,-3.55271e-15 467,-36"/>
<text text-anchor="middle" x="440" y="-15.5" font-family="Helvetica,sans-Serif" font-size="10.00">fwCore</text>
</a>
</g>
<!-- dir_9c1b281202705a95e10e10ff75b460f0&#45;&gt;dir_211435ab6e02d177e72a2e329363bb51 -->
<g id="edge4" class="edge"><title>dir_9c1b281202705a95e10e10ff75b460f0&#45;&gt;dir_211435ab6e02d177e72a2e329363bb51</title>
<path fill="none" stroke="black" d="M440,-71.8314C440,-64.131 440,-54.9743 440,-46.4166"/>
<polygon fill="black" stroke="black" points="443.5,-46.4132 440,-36.4133 436.5,-46.4133 443.5,-46.4132"/>
<a xlink:href="dir_000004_000208.html" target="_top" xlink:title="2">
<text text-anchor="middle" x="446.339" y="-47.5079" font-family="Helvetica,sans-Serif" font-size="10.00">2</text>
</a>
</g>
<!-- dir_01a05ce485fb69f71e3704d9706fa011 -->
<g id="node4" class="node"><title>dir_01a05ce485fb69f71e3704d9706fa011</title>
<a xlink:href="dir_01a05ce485fb69f71e3704d9706fa011.html" target="_top" xlink:title="conditions">
<polygon fill="white" stroke="black" points="382,-108 322,-108 322,-72 382,-72 382,-108"/>
<text text-anchor="middle" x="352" y="-87.5" font-family="Helvetica,sans-Serif" font-size="10.00">conditions</text>
</a>
</g>
<!-- dir_eff68d18486d364c181bb905caf5d292 -->
<g id="node5" class="node"><title>dir_eff68d18486d364c181bb905caf5d292</title>
<a xlink:href="dir_eff68d18486d364c181bb905caf5d292.html" target="_top" xlink:title="exceptions">
<polygon fill="white" stroke="black" points="304,-108 240,-108 240,-72 304,-72 304,-108"/>
<text text-anchor="middle" x="272" y="-87.5" font-family="Helvetica,sans-Serif" font-size="10.00">exceptions</text>
</a>
</g>
<!-- dir_a7116cd9217ae59ebe64d1cc08de00ba -->
<g id="node6" class="node"><title>dir_a7116cd9217ae59ebe64d1cc08de00ba</title>
<a xlink:href="dir_a7116cd9217ae59ebe64d1cc08de00ba.html" target="_top" xlink:title="helper">
<polygon fill="white" stroke="black" points="222,-108 168,-108 168,-72 222,-72 222,-108"/>
<text text-anchor="middle" x="195" y="-87.5" font-family="Helvetica,sans-Serif" font-size="10.00">helper</text>
</a>
</g>
<!-- dir_8b13fef688efc3d062537155900a6b11 -->
<g id="node7" class="node"><title>dir_8b13fef688efc3d062537155900a6b11</title>
<a xlink:href="dir_8b13fef688efc3d062537155900a6b11.html" target="_top" xlink:title="infos">
<polygon fill="white" stroke="black" points="150,-108 96,-108 96,-72 150,-72 150,-108"/>
<text text-anchor="middle" x="123" y="-87.5" font-family="Helvetica,sans-Serif" font-size="10.00">infos</text>
</a>
</g>
<!-- dir_d97f54b61f4a29f0f60801467152b85c -->
<g id="node8" class="node"><title>dir_d97f54b61f4a29f0f60801467152b85c</title>
<a xlink:href="dir_d97f54b61f4a29f0f60801467152b85c.html" target="_top" xlink:title="patcher">
<polygon fill="white" stroke="red" points="78,-108 24,-108 24,-72 78,-72 78,-108"/>
<text text-anchor="middle" x="51" y="-87.5" font-family="Helvetica,sans-Serif" font-size="10.00">patcher</text>
</a>
</g>
</g>
</svg>
        <g id="navigator" transform="translate(0 0)" fill="#404254">
                <rect fill="#f2f5e9" fill-opacity="0.5" stroke="#606060" stroke-width=".5" x="0" y="0" width="60" height="60"/>
                <use id="zoomplus" xlink:href="#zoomPlus" x="17" y="9" onmousedown="handleZoom(evt,'in')"/>
                <use id="zoomminus" xlink:href="#zoomMin" x="42" y="9" onmousedown="handleZoom(evt,'out')"/>
                <use id="reset" xlink:href="#resetDef" x="30" y="36" onmousedown="handleReset()"/>
                <g id="arrowUp" xlink:href="#dirArrow" transform="translate(30 24)" onmousedown="handlePan(0,-1)">
                  <use xlink:href="#rim" fill="#404040">
                        <set attributeName="fill" to="#808080" begin="arrowUp.mouseover" end="arrowUp.mouseout"/>
                  </use>
                  <path fill="none" stroke="white" stroke-width="1.5" d="M0,-3.0v7 M-2.5,-0.5L0,-3.0L2.5,-0.5"/>
                </g>
                <g id="arrowRight" xlink:href="#dirArrow" transform="rotate(90) translate(36 -43)" onmousedown="handlePan(1,0)">
                  <use xlink:href="#rim" fill="#404040">
                        <set attributeName="fill" to="#808080" begin="arrowRight.mouseover" end="arrowRight.mouseout"/>
                  </use>
                  <path fill="none" stroke="white" stroke-width="1.5" d="M0,-3.0v7 M-2.5,-0.5L0,-3.0L2.5,-0.5"/>
                </g>
                <g id="arrowDown" xlink:href="#dirArrow" transform="rotate(180) translate(-30 -48)" onmousedown="handlePan(0,1)">
                  <use xlink:href="#rim" fill="#404040">
                        <set attributeName="fill" to="#808080" begin="arrowDown.mouseover" end="arrowDown.mouseout"/>
                  </use>
                  <path fill="none" stroke="white" stroke-width="1.5" d="M0,-3.0v7 M-2.5,-0.5L0,-3.0L2.5,-0.5"/>
                </g>
                <g id="arrowLeft" xlink:href="#dirArrow" transform="rotate(270) translate(-36 17)" onmousedown="handlePan(-1,0)">
                  <use xlink:href="#rim" fill="#404040">
                        <set attributeName="fill" to="#808080" begin="arrowLeft.mouseover" end="arrowLeft.mouseout"/>
                  </use>
                  <path fill="none" stroke="white" stroke-width="1.5" d="M0,-3.0v7 M-2.5,-0.5L0,-3.0L2.5,-0.5"/>
                </g>
        </g>
        <svg viewBox="0 0 15 15" width="100%" height="30px" preserveAspectRatio="xMaxYMin meet">
         <g id="arrow_out" transform="scale(0.3 0.3)">
          <a xlink:href="dir_9c1b281202705a95e10e10ff75b460f0_dep_org.svg" target="_base">
           <rect id="button" ry="5" rx="5" y="6" x="6" height="38" width="38"
                fill="#f2f5e9" fill-opacity="0.5" stroke="#606060" stroke-width="1.0"/>
           <path id="arrow"
             d="M 11.500037,31.436501 C 11.940474,20.09759 22.043105,11.32322 32.158766,21.979434 L 37.068811,17.246167 C 37.068811,17.246167 37.088388,32 37.088388,32 L 22.160133,31.978069 C 22.160133,31.978069 26.997745,27.140456 26.997745,27.140456 C 18.528582,18.264221 13.291696,25.230495 11.500037,31.436501 z"
             style="fill:#404040;"/>
          </a>
         </g>
        </svg>
</svg>
