<?xml version="1.0" encoding="UTF-8" standalone="no"?>
<!DOCTYPE svg PUBLIC "-//W3C//DTD SVG 1.1//EN"
 "http://www.w3.org/Graphics/SVG/1.1/DTD/svg11.dtd">
<!-- Generated by graphviz version 2.36.0 (20140111.2315)
 -->
<!-- Title: helper Pages: 1 -->
<svg width="94pt" height="151pt"
 viewBox="0.00 0.00 94.00 151.00" xmlns="http://www.w3.org/2000/svg" xmlns:xlink="http://www.w3.org/1999/xlink">
<g id="graph0" class="graph" transform="scale(1 1) rotate(0) translate(4 147)">
<title>helper</title>
<polygon fill="white" stroke="none" points="-4,4 -4,-147 90,-147 90,4 -4,4"/>
<g id="clust1" class="cluster"><title>clusterdir_61cb9cf5b83e4152204f40a69a72e49c</title>
<g id="a_clust1"><a xlink:href="dir_61cb9cf5b83e4152204f40a69a72e49c.html" target="_top" xlink:title="fwCom">
<polygon fill="#ddddee" stroke="black" points="8,-64 8,-135 78,-135 78,-64 8,-64"/>
<text text-anchor="middle" x="43" y="-123" font-family="Helvetica,sans-Serif" font-size="10.00">fwCom</text>
</a>
</g>
</g>
<!-- dir_1cbab938b3c537b81eb121e5e028e38c -->
<g id="node1" class="node"><title>dir_1cbab938b3c537b81eb121e5e028e38c</title>
<g id="a_node1"><a xlink:href="dir_1cbab938b3c537b81eb121e5e028e38c.html" target="_top" xlink:title="helper">
<polygon fill="#eeeeff" stroke="black" points="70,-108 16,-108 16,-72 70,-72 70,-108"/>
<text text-anchor="middle" x="43" y="-87.5" font-family="Helvetica,sans-Serif" font-size="10.00">helper</text>
</a>
</g>
</g>
<!-- dir_211435ab6e02d177e72a2e329363bb51 -->
<g id="node2" class="node"><title>dir_211435ab6e02d177e72a2e329363bb51</title>
<g id="a_node2"><a xlink:href="dir_211435ab6e02d177e72a2e329363bb51.html" target="_top" xlink:title="fwCore">
<polygon fill="white" stroke="red" points="70,-36 16,-36 16,-0 70,-0 70,-36"/>
<text text-anchor="middle" x="43" y="-15.5" font-family="Helvetica,sans-Serif" font-size="10.00">fwCore</text>
</a>
</g>
</g>
<!-- dir_1cbab938b3c537b81eb121e5e028e38c&#45;&gt;dir_211435ab6e02d177e72a2e329363bb51 -->
<g id="edge1" class="edge"><title>dir_1cbab938b3c537b81eb121e5e028e38c&#45;&gt;dir_211435ab6e02d177e72a2e329363bb51</title>
<path fill="none" stroke="black" d="M43,-71.6966C43,-63.9827 43,-54.7125 43,-46.1124"/>
<polygon fill="black" stroke="black" points="46.5001,-46.1043 43,-36.1043 39.5001,-46.1044 46.5001,-46.1043"/>
<g id="a_edge1&#45;headlabel"><a xlink:href="dir_001057_000285.html" target="_top" xlink:title="1">
<text text-anchor="middle" x="49.3393" y="-47.199" font-family="Helvetica,sans-Serif" font-size="10.00">1</text>
</a>
</g>
</g>
</g>
</svg>
