<?xml version="1.0" encoding="UTF-8" standalone="no"?>
<!DOCTYPE svg PUBLIC "-//W3C//DTD SVG 1.1//EN"
 "http://www.w3.org/Graphics/SVG/1.1/DTD/svg11.dtd">
<!-- Generated by graphviz version 2.26.3 (20100126.1600)
 -->
<!-- Title: fwGui Pages: 1 -->
<svg width="196pt" height="305pt"
 viewBox="0.00 0.00 196.00 305.00" xmlns="http://www.w3.org/2000/svg" xmlns:xlink="http://www.w3.org/1999/xlink">
<g id="graph1" class="graph" transform="scale(1 1) rotate(0) translate(4 301)">
<title>fwGui</title>
<polygon fill="white" stroke="white" points="-4,5 -4,-301 193,-301 193,5 -4,5"/>
<g id="graph2" class="cluster"><title>clusterdir_4b27a3ee21cd820803ead0a49ff3b161</title>
<a xlink:href="dir_4b27a3ee21cd820803ead0a49ff3b161.html" target="_top" xlink:title="core">
<polygon fill="#ddddee" stroke="black" points="22,-128 22,-289 180,-289 180,-128 22,-128"/>
<text text-anchor="middle" x="101" y="-276" font-family="Helvetica,sans-Serif" font-size="10.00">core</text>
</a>
</g>
<g id="graph3" class="cluster"><title>clusterdir_5f5d4e0a99a4cdaf5e0ef0fdab110c40</title>
<a xlink:href="dir_5f5d4e0a99a4cdaf5e0ef0fdab110c40.html" target="_top">
<polygon fill="#eeeeff" stroke="black" points="30,-136 30,-260 172,-260 172,-136 30,-136"/>
</a>
</g>
<!-- dir_5f5d4e0a99a4cdaf5e0ef0fdab110c40 -->
<g id="node3" class="node"><title>dir_5f5d4e0a99a4cdaf5e0ef0fdab110c40</title>
<text text-anchor="middle" x="137" y="-231.5" font-family="Helvetica,sans-Serif" font-size="10.00">fwGui</text>
</g>
<!-- dir_8f7727ceffd8efbef9c7ee70de79b134 -->
<g id="node4" class="node"><title>dir_8f7727ceffd8efbef9c7ee70de79b134</title>
<a xlink:href="dir_8f7727ceffd8efbef9c7ee70de79b134.html" target="_top" xlink:title="include">
<polygon fill="white" stroke="red" points="92,-180 38,-180 38,-144 92,-144 92,-180"/>
<text text-anchor="middle" x="65" y="-159.5" font-family="Helvetica,sans-Serif" font-size="10.00">include</text>
</a>
</g>
<!-- dir_99e2969c7b06cee36a3bea33303e5bc8 -->
<g id="node6" class="node"><title>dir_99e2969c7b06cee36a3bea33303e5bc8</title>
<a xlink:href="dir_99e2969c7b06cee36a3bea33303e5bc8.html" target="_top" xlink:title="fwTools">
<polygon fill="white" stroke="red" points="54,-108 2.13163e-14,-108 0,-72 54,-72 54,-108"/>
<text text-anchor="middle" x="27" y="-87.5" font-family="Helvetica,sans-Serif" font-size="10.00">fwTools</text>
</a>
</g>
<!-- dir_8f7727ceffd8efbef9c7ee70de79b134&#45;&gt;dir_99e2969c7b06cee36a3bea33303e5bc8 -->
<g id="edge10" class="edge"><title>dir_8f7727ceffd8efbef9c7ee70de79b134&#45;&gt;dir_99e2969c7b06cee36a3bea33303e5bc8</title>
<path fill="none" stroke="black" d="M55.411,-143.831C51.1683,-135.792 46.0879,-126.167 41.404,-117.292"/>
<polygon fill="black" stroke="black" points="44.4811,-115.623 36.7181,-108.413 38.2904,-118.891 44.4811,-115.623"/>
<a xlink:href="dir_000029_000222.html" target="_top" xlink:title="1">
<text text-anchor="middle" x="48.6699" y="-114.977" font-family="Helvetica,sans-Serif" font-size="10.00">1</text>
</a>
</g>
<!-- dir_211435ab6e02d177e72a2e329363bb51 -->
<g id="node7" class="node"><title>dir_211435ab6e02d177e72a2e329363bb51</title>
<a xlink:href="dir_211435ab6e02d177e72a2e329363bb51.html" target="_top" xlink:title="fwCore">
<polygon fill="white" stroke="red" points="109,-36 55,-36 55,-1.77636e-14 109,-3.55271e-15 109,-36"/>
<text text-anchor="middle" x="82" y="-15.5" font-family="Helvetica,sans-Serif" font-size="10.00">fwCore</text>
</a>
</g>
<!-- dir_8f7727ceffd8efbef9c7ee70de79b134&#45;&gt;dir_211435ab6e02d177e72a2e329363bb51 -->
<g id="edge12" class="edge"><title>dir_8f7727ceffd8efbef9c7ee70de79b134&#45;&gt;dir_211435ab6e02d177e72a2e329363bb51</title>
<path fill="none" stroke="black" d="M67.1531,-143.762C70.0527,-119.201 75.2416,-75.2474 78.6526,-46.3541"/>
<polygon fill="black" stroke="black" points="82.1678,-46.431 79.8644,-36.0896 75.2161,-45.6103 82.1678,-46.431"/>
<a xlink:href="dir_000029_000208.html" target="_top" xlink:title="15">
<text text-anchor="middle" x="84.5661" y="-47.8337" font-family="Helvetica,sans-Serif" font-size="10.00">15</text>
</a>
</g>
<!-- dir_ce22133a7bf6850ff6c417ce9ca32e8a -->
<g id="node5" class="node"><title>dir_ce22133a7bf6850ff6c417ce9ca32e8a</title>
<a xlink:href="dir_ce22133a7bf6850ff6c417ce9ca32e8a.html" target="_top" xlink:title="src">
<polygon fill="white" stroke="red" points="92,-252 38,-252 38,-216 92,-216 92,-252"/>
<text text-anchor="middle" x="65" y="-231.5" font-family="Helvetica,sans-Serif" font-size="10.00">src</text>
</a>
</g>
<!-- dir_ce22133a7bf6850ff6c417ce9ca32e8a&#45;&gt;dir_8f7727ceffd8efbef9c7ee70de79b134 -->
<g id="edge8" class="edge"><title>dir_ce22133a7bf6850ff6c417ce9ca32e8a&#45;&gt;dir_8f7727ceffd8efbef9c7ee70de79b134</title>
<path fill="none" stroke="black" d="M65,-215.831C65,-208.131 65,-198.974 65,-190.417"/>
<polygon fill="black" stroke="black" points="68.5001,-190.413 65,-180.413 61.5001,-190.413 68.5001,-190.413"/>
<a xlink:href="dir_000027_000029.html" target="_top" xlink:title="9">
<text text-anchor="middle" x="71.3393" y="-191.508" font-family="Helvetica,sans-Serif" font-size="10.00">9</text>
</a>
</g>
<!-- dir_ce22133a7bf6850ff6c417ce9ca32e8a&#45;&gt;dir_211435ab6e02d177e72a2e329363bb51 -->
<g id="edge6" class="edge"><title>dir_ce22133a7bf6850ff6c417ce9ca32e8a&#45;&gt;dir_211435ab6e02d177e72a2e329363bb51</title>
<path fill="none" stroke="black" d="M80.9905,-215.917C88.6538,-206.037 97.0166,-193.156 101,-180 114.773,-134.512 102.32,-79.0372 92.1089,-46.2224"/>
<polygon fill="black" stroke="black" points="95.3358,-44.8285 88.9085,-36.4059 88.6805,-46.9983 95.3358,-44.8285"/>
<a xlink:href="dir_000027_000208.html" target="_top" xlink:title="12">
<text text-anchor="middle" x="99.1493" y="-44.866" font-family="Helvetica,sans-Serif" font-size="10.00">12</text>
</a>
</g>
<!-- dir_99e2969c7b06cee36a3bea33303e5bc8&#45;&gt;dir_211435ab6e02d177e72a2e329363bb51 -->
<g id="edge4" class="edge"><title>dir_99e2969c7b06cee36a3bea33303e5bc8&#45;&gt;dir_211435ab6e02d177e72a2e329363bb51</title>
<path fill="none" stroke="black" d="M40.8788,-71.8314C47.2136,-63.5386 54.8384,-53.557 61.7926,-44.4533"/>
<polygon fill="black" stroke="black" points="64.6452,-46.4847 67.9343,-36.4133 59.0825,-42.2353 64.6452,-46.4847"/>
<a xlink:href="dir_000222_000208.html" target="_top" xlink:title="17">
<text text-anchor="middle" x="64.7195" y="-48.5647" font-family="Helvetica,sans-Serif" font-size="10.00">17</text>
</a>
</g>
</g>
</svg>
