<?xml version="1.0" encoding="UTF-8" standalone="no"?>
<!DOCTYPE svg PUBLIC "-//W3C//DTD SVG 1.1//EN"
 "http://www.w3.org/Graphics/SVG/1.1/DTD/svg11.dtd">
<!-- Generated by graphviz version 2.36.0 (20140111.2315)
 -->
<!-- Title: fwMedDataTools Pages: 1 -->
<svg width="220pt" height="159pt"
 viewBox="0.00 0.00 220.00 159.00" xmlns="http://www.w3.org/2000/svg" xmlns:xlink="http://www.w3.org/1999/xlink">
<g id="graph0" class="graph" transform="scale(1 1) rotate(0) translate(4 155)">
<title>fwMedDataTools</title>
<polygon fill="white" stroke="none" points="-4,4 -4,-155 216,-155 216,4 -4,4"/>
<g id="clust1" class="cluster"><title>clusterdir_5677c13a4d38cfcc6809319c8b9faf56</title>
<g id="a_clust1"><a xlink:href="dir_5677c13a4d38cfcc6809319c8b9faf56.html" target="_top" xlink:title="src">
<polygon fill="#ddddee" stroke="black" points="8,-56 8,-143 204,-143 204,-56 8,-56"/>
<text text-anchor="middle" x="106" y="-131" font-family="Helvetica,sans-Serif" font-size="10.00">src</text>
</a>
</g>
</g>
<g id="clust2" class="cluster"><title>clusterdir_081cc699655cde46c84fceee97a2f823</title>
<g id="a_clust2"><a xlink:href="dir_081cc699655cde46c84fceee97a2f823.html" target="_top">
<polygon fill="#eeeeff" stroke="black" points="16,-64 16,-116 196,-116 196,-64 16,-64"/>
</a>
</g>
</g>
<!-- dir_081cc699655cde46c84fceee97a2f823 -->
<g id="node1" class="node"><title>dir_081cc699655cde46c84fceee97a2f823</title>
<text text-anchor="middle" x="142" y="-87.5" font-family="Helvetica,sans-Serif" font-size="10.00">fwMedDataTools</text>
</g>
<!-- dir_211435ab6e02d177e72a2e329363bb51 -->
<g id="node3" class="node"><title>dir_211435ab6e02d177e72a2e329363bb51</title>
<g id="a_node3"><a xlink:href="dir_211435ab6e02d177e72a2e329363bb51.html" target="_top" xlink:title="fwCore">
<polygon fill="white" stroke="red" points="169,-36 115,-36 115,-0 169,-0 169,-36"/>
<text text-anchor="middle" x="142" y="-15.5" font-family="Helvetica,sans-Serif" font-size="10.00">fwCore</text>
</a>
</g>
</g>
<!-- dir_081cc699655cde46c84fceee97a2f823&#45;&gt;dir_211435ab6e02d177e72a2e329363bb51 -->
<g id="edge1" class="edge"><title>dir_081cc699655cde46c84fceee97a2f823&#45;&gt;dir_211435ab6e02d177e72a2e329363bb51</title>
<path fill="none" stroke="black" d="M142,-71.6966C142,-63.9827 142,-54.7125 142,-46.1124"/>
<polygon fill="black" stroke="black" points="145.5,-46.1043 142,-36.1043 138.5,-46.1044 145.5,-46.1043"/>
<g id="a_edge1&#45;headlabel"><a xlink:href="dir_000597_000285.html" target="_top" xlink:title="1">
<text text-anchor="middle" x="148.339" y="-47.199" font-family="Helvetica,sans-Serif" font-size="10.00">1</text>
</a>
</g>
</g>
<!-- dir_da72a303c75abf84bfe50555334ffab1 -->
<g id="node2" class="node"><title>dir_da72a303c75abf84bfe50555334ffab1</title>
<g id="a_node2"><a xlink:href="dir_da72a303c75abf84bfe50555334ffab1.html" target="_top" xlink:title="helper">
<polygon fill="white" stroke="black" points="78,-108 24,-108 24,-72 78,-72 78,-108"/>
<text text-anchor="middle" x="51" y="-87.5" font-family="Helvetica,sans-Serif" font-size="10.00">helper</text>
</a>
</g>
</g>
</g>
</svg>
