<?xml version="1.0" encoding="UTF-8" standalone="no"?>
<!DOCTYPE svg PUBLIC "-//W3C//DTD SVG 1.1//EN"
 "http://www.w3.org/Graphics/SVG/1.1/DTD/svg11.dtd">
<!-- Generated by graphviz version 2.26.3 (20100126.1600)
 -->
<!-- Title: scene2D Pages: 1 -->
<svg width="338pt" height="161pt"
 viewBox="0.00 0.00 338.00 161.00" xmlns="http://www.w3.org/2000/svg" xmlns:xlink="http://www.w3.org/1999/xlink">
<g id="graph1" class="graph" transform="scale(1 1) rotate(0) translate(4 157)">
<title>scene2D</title>
<polygon fill="white" stroke="white" points="-4,5 -4,-157 335,-157 335,5 -4,5"/>
<g id="graph2" class="cluster"><title>clusterdir_d49e041b78350ea6c2c63158f99fb24d</title>
<a xlink:href="dir_d49e041b78350ea6c2c63158f99fb24d.html" target="_top" xlink:title="src">
<polygon fill="#ddddee" stroke="black" points="8,-56 8,-145 322,-145 322,-56 8,-56"/>
<text text-anchor="middle" x="165" y="-132" font-family="Helvetica,sans-Serif" font-size="10.00">src</text>
</a>
</g>
<g id="graph3" class="cluster"><title>clusterdir_92bc00b67d291e004c92562247fada98</title>
<a xlink:href="dir_92bc00b67d291e004c92562247fada98.html" target="_top">
<polygon fill="#eeeeff" stroke="black" points="16,-64 16,-116 314,-116 314,-64 16,-64"/>
</a>
</g>
<!-- dir_92bc00b67d291e004c92562247fada98 -->
<g id="node3" class="node"><title>dir_92bc00b67d291e004c92562247fada98</title>
<text text-anchor="middle" x="278" y="-87.5" font-family="Helvetica,sans-Serif" font-size="10.00">scene2D</text>
</g>
<!-- dir_ef30a3a27ae91c813468aab090045725 -->
<g id="node4" class="node"><title>dir_ef30a3a27ae91c813468aab090045725</title>
<a xlink:href="dir_ef30a3a27ae91c813468aab090045725.html" target="_top" xlink:title="adaptor">
<polygon fill="white" stroke="black" points="232,-108 178,-108 178,-72 232,-72 232,-108"/>
<text text-anchor="middle" x="205" y="-87.5" font-family="Helvetica,sans-Serif" font-size="10.00">adaptor</text>
</a>
</g>
<!-- dir_2953abd91ad625546ee377ceee0dc69a -->
<g id="node5" class="node"><title>dir_2953abd91ad625546ee377ceee0dc69a</title>
<a xlink:href="dir_2953abd91ad625546ee377ceee0dc69a.html" target="_top" xlink:title="data">
<polygon fill="white" stroke="black" points="160,-108 106,-108 106,-72 160,-72 160,-108"/>
<text text-anchor="middle" x="133" y="-87.5" font-family="Helvetica,sans-Serif" font-size="10.00">data</text>
</a>
</g>
<!-- dir_36c79fd5fccc0faf954b7c20b3e2467b -->
<g id="node7" class="node"><title>dir_36c79fd5fccc0faf954b7c20b3e2467b</title>
<a xlink:href="dir_36c79fd5fccc0faf954b7c20b3e2467b.html" target="_top" xlink:title="SrcLib">
<polygon fill="white" stroke="red" points="160,-36 106,-36 106,-1.77636e-14 160,-3.55271e-15 160,-36"/>
<text text-anchor="middle" x="133" y="-15.5" font-family="Helvetica,sans-Serif" font-size="10.00">SrcLib</text>
</a>
</g>
<!-- dir_2953abd91ad625546ee377ceee0dc69a&#45;&gt;dir_36c79fd5fccc0faf954b7c20b3e2467b -->
<g id="edge4" class="edge"><title>dir_2953abd91ad625546ee377ceee0dc69a&#45;&gt;dir_36c79fd5fccc0faf954b7c20b3e2467b</title>
<path fill="none" stroke="black" d="M133,-71.8314C133,-64.131 133,-54.9743 133,-46.4166"/>
<polygon fill="black" stroke="black" points="136.5,-46.4132 133,-36.4133 129.5,-46.4133 136.5,-46.4132"/>
<a xlink:href="dir_000194_000000.html" target="_top" xlink:title="4">
<text text-anchor="middle" x="139.339" y="-47.5079" font-family="Helvetica,sans-Serif" font-size="10.00">4</text>
</a>
</g>
<!-- dir_8975e20dfc8e8d6bf7f0f0b3e1a07c6e -->
<g id="node6" class="node"><title>dir_8975e20dfc8e8d6bf7f0f0b3e1a07c6e</title>
<a xlink:href="dir_8975e20dfc8e8d6bf7f0f0b3e1a07c6e.html" target="_top" xlink:title="processing">
<polygon fill="white" stroke="black" points="88,-108 24,-108 24,-72 88,-72 88,-108"/>
<text text-anchor="middle" x="56" y="-87.5" font-family="Helvetica,sans-Serif" font-size="10.00">processing</text>
</a>
</g>
</g>
</svg>
