<?xml version="1.0" encoding="UTF-8" standalone="no"?>
<!DOCTYPE svg PUBLIC "-//W3C//DTD SVG 1.1//EN"
 "http://www.w3.org/Graphics/SVG/1.1/DTD/svg11.dtd">
<!-- Generated by graphviz version 2.36.0 (20140111.2315)
 -->
<!-- Title: IMenuBarLayoutManager.hpp Pages: 1 -->
<svg width="491pt" height="196pt"
 viewBox="0.00 0.00 491.00 196.00" xmlns="http://www.w3.org/2000/svg" xmlns:xlink="http://www.w3.org/1999/xlink">
<g id="graph0" class="graph" transform="scale(1 1) rotate(0) translate(4 192)">
<title>IMenuBarLayoutManager.hpp</title>
<polygon fill="white" stroke="none" points="-4,4 -4,-192 487,-192 487,4 -4,4"/>
<!-- Node1 -->
<g id="node1" class="node"><title>Node1</title>
<polygon fill="#bfbfbf" stroke="black" points="180,-168.5 180,-187.5 324,-187.5 324,-168.5 180,-168.5"/>
<text text-anchor="middle" x="252" y="-175.5" font-family="Helvetica,sans-Serif" font-size="10.00">IMenuBarLayoutManager.hpp</text>
</g>
<!-- Node2 -->
<g id="node2" class="node"><title>Node2</title>
<g id="a_node2"><a xlink:href="IMenuBarSrv_8hpp_source.html" target="_top" xlink:title="IMenuBarSrv.hpp">
<polygon fill="white" stroke="black" points="70,-112.5 70,-131.5 162,-131.5 162,-112.5 70,-112.5"/>
<text text-anchor="middle" x="116" y="-119.5" font-family="Helvetica,sans-Serif" font-size="10.00">IMenuBarSrv.hpp</text>
</a>
</g>
</g>
<!-- Node1&#45;&gt;Node2 -->
<g id="edge1" class="edge"><title>Node1&#45;&gt;Node2</title>
<path fill="none" stroke="midnightblue" d="M220.865,-164.638C195.343,-154.504 159.891,-140.427 137.449,-131.516"/>
<polygon fill="midnightblue" stroke="midnightblue" points="219.865,-168.006 230.45,-168.444 222.448,-161.5 219.865,-168.006"/>
</g>
<!-- Node6 -->
<g id="node6" class="node"><title>Node6</title>
<g id="a_node6"><a xlink:href="IMenuBarLayoutManager_8cpp.html" target="_top" xlink:title="This file defines the implementation of the base class for managing a menubar. ">
<polygon fill="white" stroke="black" points="180,-112.5 180,-131.5 324,-131.5 324,-112.5 180,-112.5"/>
<text text-anchor="middle" x="252" y="-119.5" font-family="Helvetica,sans-Serif" font-size="10.00">IMenuBarLayoutManager.cpp</text>
</a>
</g>
</g>
<!-- Node1&#45;&gt;Node6 -->
<g id="edge5" class="edge"><title>Node1&#45;&gt;Node6</title>
<path fill="none" stroke="midnightblue" d="M252,-157.805C252,-148.91 252,-138.78 252,-131.751"/>
<polygon fill="midnightblue" stroke="midnightblue" points="248.5,-158.083 252,-168.083 255.5,-158.083 248.5,-158.083"/>
</g>
<!-- Node7 -->
<g id="node7" class="node"><title>Node7</title>
<g id="a_node7"><a xlink:href="MenuBarLayoutManager_8hpp_source.html" target="_top" xlink:title="MenuBarLayoutManager.hpp">
<polygon fill="white" stroke="black" points="342.5,-112.5 342.5,-131.5 483.5,-131.5 483.5,-112.5 342.5,-112.5"/>
<text text-anchor="middle" x="413" y="-119.5" font-family="Helvetica,sans-Serif" font-size="10.00">MenuBarLayoutManager.hpp</text>
</a>
</g>
</g>
<!-- Node1&#45;&gt;Node7 -->
<g id="edge6" class="edge"><title>Node1&#45;&gt;Node7</title>
<path fill="none" stroke="midnightblue" d="M287.265,-165.172C317.581,-155.004 360.57,-140.585 387.608,-131.516"/>
<polygon fill="midnightblue" stroke="midnightblue" points="285.879,-161.945 277.511,-168.444 288.105,-168.582 285.879,-161.945"/>
</g>
<!-- Node3 -->
<g id="node3" class="node"><title>Node3</title>
<g id="a_node3"><a xlink:href="SDefaultMenuBar_8hpp_source.html" target="_top" xlink:title="SDefaultMenuBar.hpp">
<polygon fill="white" stroke="black" points="-0.5,-56.5 -0.5,-75.5 112.5,-75.5 112.5,-56.5 -0.5,-56.5"/>
<text text-anchor="middle" x="56" y="-63.5" font-family="Helvetica,sans-Serif" font-size="10.00">SDefaultMenuBar.hpp</text>
</a>
</g>
</g>
<!-- Node2&#45;&gt;Node3 -->
<g id="edge2" class="edge"><title>Node2&#45;&gt;Node3</title>
<path fill="none" stroke="midnightblue" d="M98.8191,-105.537C88.1208,-95.9087 74.7437,-83.8694 65.8154,-75.8339"/>
<polygon fill="midnightblue" stroke="midnightblue" points="96.5856,-108.236 106.36,-112.324 101.268,-103.033 96.5856,-108.236"/>
</g>
<!-- Node5 -->
<g id="node5" class="node"><title>Node5</title>
<g id="a_node5"><a xlink:href="IMenuBarSrv_8cpp_source.html" target="_top" xlink:title="IMenuBarSrv.cpp">
<polygon fill="white" stroke="black" points="131,-56.5 131,-75.5 223,-75.5 223,-56.5 131,-56.5"/>
<text text-anchor="middle" x="177" y="-63.5" font-family="Helvetica,sans-Serif" font-size="10.00">IMenuBarSrv.cpp</text>
</a>
</g>
</g>
<!-- Node2&#45;&gt;Node5 -->
<g id="edge4" class="edge"><title>Node2&#45;&gt;Node5</title>
<path fill="none" stroke="midnightblue" d="M133.467,-105.537C144.344,-95.9087 157.944,-83.8694 167.021,-75.8339"/>
<polygon fill="midnightblue" stroke="midnightblue" points="130.968,-103.075 125.801,-112.324 135.608,-108.316 130.968,-103.075"/>
</g>
<!-- Node4 -->
<g id="node4" class="node"><title>Node4</title>
<g id="a_node4"><a xlink:href="SDefaultMenuBar_8cpp_source.html" target="_top" xlink:title="SDefaultMenuBar.cpp">
<polygon fill="white" stroke="black" points="-0.5,-0.5 -0.5,-19.5 112.5,-19.5 112.5,-0.5 -0.5,-0.5"/>
<text text-anchor="middle" x="56" y="-7.5" font-family="Helvetica,sans-Serif" font-size="10.00">SDefaultMenuBar.cpp</text>
</a>
</g>
</g>
<!-- Node3&#45;&gt;Node4 -->
<g id="edge3" class="edge"><title>Node3&#45;&gt;Node4</title>
<path fill="none" stroke="midnightblue" d="M56,-45.8045C56,-36.9102 56,-26.7798 56,-19.7511"/>
<polygon fill="midnightblue" stroke="midnightblue" points="52.5001,-46.083 56,-56.083 59.5001,-46.083 52.5001,-46.083"/>
</g>
<!-- Node8 -->
<g id="node8" class="node"><title>Node8</title>
<g id="a_node8"><a xlink:href="MenuBarLayoutManager_8cpp_source.html" target="_top" xlink:title="MenuBarLayoutManager.cpp">
<polygon fill="white" stroke="black" points="342.5,-56.5 342.5,-75.5 483.5,-75.5 483.5,-56.5 342.5,-56.5"/>
<text text-anchor="middle" x="413" y="-63.5" font-family="Helvetica,sans-Serif" font-size="10.00">MenuBarLayoutManager.cpp</text>
</a>
</g>
</g>
<!-- Node7&#45;&gt;Node8 -->
<g id="edge7" class="edge"><title>Node7&#45;&gt;Node8</title>
<path fill="none" stroke="midnightblue" d="M413,-101.805C413,-92.9102 413,-82.7798 413,-75.7511"/>
<polygon fill="midnightblue" stroke="midnightblue" points="409.5,-102.083 413,-112.083 416.5,-102.083 409.5,-102.083"/>
</g>
</g>
</svg>
