<?xml version="1.0" encoding="UTF-8" standalone="no"?>
<!DOCTYPE svg PUBLIC "-//W3C//DTD SVG 1.1//EN"
 "http://www.w3.org/Graphics/SVG/1.1/DTD/svg11.dtd">
<!-- Generated by graphviz version 2.26.3 (20100126.1600)
 -->
<!-- Title: Graphical Class Hierarchy Pages: 1 -->
<svg width="292pt" height="56pt"
 viewBox="0.00 0.00 292.00 56.00" xmlns="http://www.w3.org/2000/svg" xmlns:xlink="http://www.w3.org/1999/xlink">
<g id="graph1" class="graph" transform="scale(1 1) rotate(0) translate(4 52)">
<title>Graphical Class Hierarchy</title>
<polygon fill="white" stroke="white" points="-4,5 -4,-52 289,-52 289,5 -4,5"/>
<!-- Node1 -->
<g id="node1" class="node"><title>Node1</title>
<a xlink:href="classfwGdcmIO_1_1reader_1_1ie_1_1InformationEntity.html" target="_top" xlink:title="fwGdcmIO::reader::ie\l::InformationEntity\&lt;\l ::fwMedData::Equipment \&gt;">
<polygon fill="white" stroke="black" points="0.5,-0.5 0.5,-47.5 137.5,-47.5 137.5,-0.5 0.5,-0.5"/>
<text text-anchor="start" x="8.5" y="-34.5" font-family="Helvetica,sans-Serif" font-size="10.00">fwGdcmIO::reader::ie</text>
<text text-anchor="start" x="8.5" y="-21.5" font-family="Helvetica,sans-Serif" font-size="10.00">::InformationEntity&lt;</text>
<text text-anchor="middle" x="69" y="-8.5" font-family="Helvetica,sans-Serif" font-size="10.00"> ::fwMedData::Equipment &gt;</text>
</a>
</g>
<!-- Node2 -->
<g id="node3" class="node"><title>Node2</title>
<a xlink:href="classfwGdcmIO_1_1reader_1_1ie_1_1Equipment.html" target="_top" xlink:title="Equipment Information Entity class. ">
<polygon fill="white" stroke="black" points="174,-7 174,-41 284,-41 284,-7 174,-7"/>
<text text-anchor="start" x="182" y="-28" font-family="Helvetica,sans-Serif" font-size="10.00">fwGdcmIO::reader::ie</text>
<text text-anchor="middle" x="229" y="-15" font-family="Helvetica,sans-Serif" font-size="10.00">::Equipment</text>
</a>
</g>
<!-- Node1&#45;&gt;Node2 -->
<g id="edge2" class="edge"><title>Node1&#45;&gt;Node2</title>
<path fill="none" stroke="midnightblue" d="M147.988,-24C156.708,-24 165.445,-24 173.783,-24"/>
<polygon fill="midnightblue" stroke="midnightblue" points="147.783,-20.5001 137.783,-24 147.783,-27.5001 147.783,-20.5001"/>
</g>
</g>
</svg>
