<?xml version="1.0" encoding="UTF-8" standalone="no"?>
<!DOCTYPE svg PUBLIC "-//W3C//DTD SVG 1.1//EN"
 "http://www.w3.org/Graphics/SVG/1.1/DTD/svg11.dtd">
<!-- Generated by graphviz version 2.26.3 (20100126.1600)
 -->
<!-- Title: Graphical Class Hierarchy Pages: 1 -->
<svg width="320pt" height="94pt"
 viewBox="0.00 0.00 320.00 94.00" xmlns="http://www.w3.org/2000/svg" xmlns:xlink="http://www.w3.org/1999/xlink">
<g id="graph1" class="graph" transform="scale(1 1) rotate(0) translate(4 90)">
<title>Graphical Class Hierarchy</title>
<polygon fill="white" stroke="white" points="-4,5 -4,-90 317,-90 317,5 -4,5"/>
<!-- Node1 -->
<g id="node1" class="node"><title>Node1</title>
<a xlink:href="classfwAtomConversion_1_1mapper_1_1Base.html" target="_top" xlink:title="Base class of custom mapper between fwData and fwAtoms. ">
<polygon fill="white" stroke="black" points="0,-26 0,-60 138,-60 138,-26 0,-26"/>
<text text-anchor="start" x="8" y="-47" font-family="Helvetica,sans-Serif" font-size="10.00">fwAtomConversion::mapper</text>
<text text-anchor="middle" x="69" y="-34" font-family="Helvetica,sans-Serif" font-size="10.00">::Base</text>
</a>
</g>
<!-- Node2 -->
<g id="node3" class="node"><title>Node2</title>
<a xlink:href="classfwAtomConversion_1_1mapper_1_1AttachmentSeries.html" target="_top" xlink:title="Specific mapper used to convert a fwMedData::AttachmentSeries. ">
<polygon fill="white" stroke="black" points="174,-52 174,-86 312,-86 312,-52 174,-52"/>
<text text-anchor="start" x="182" y="-73" font-family="Helvetica,sans-Serif" font-size="10.00">fwAtomConversion::mapper</text>
<text text-anchor="middle" x="243" y="-60" font-family="Helvetica,sans-Serif" font-size="10.00">::AttachmentSeries</text>
</a>
</g>
<!-- Node1&#45;&gt;Node2 -->
<g id="edge2" class="edge"><title>Node1&#45;&gt;Node2</title>
<path fill="none" stroke="midnightblue" d="M148.035,-54.8098C156.625,-56.0934 165.319,-57.3925 173.779,-58.6567"/>
<polygon fill="midnightblue" stroke="midnightblue" points="148.427,-51.3296 138.019,-53.3132 147.392,-58.2527 148.427,-51.3296"/>
</g>
<!-- Node3 -->
<g id="node5" class="node"><title>Node3</title>
<a xlink:href="classfwAtomConversion_1_1mapper_1_1Graph.html" target="_top" xlink:title="Specific mapper used to convert a fwData::Graph. ">
<polygon fill="white" stroke="black" points="174,-0 174,-34 312,-34 312,-0 174,-0"/>
<text text-anchor="start" x="182" y="-21" font-family="Helvetica,sans-Serif" font-size="10.00">fwAtomConversion::mapper</text>
<text text-anchor="middle" x="243" y="-8" font-family="Helvetica,sans-Serif" font-size="10.00">::Graph</text>
</a>
</g>
<!-- Node1&#45;&gt;Node3 -->
<g id="edge4" class="edge"><title>Node1&#45;&gt;Node3</title>
<path fill="none" stroke="midnightblue" d="M148.035,-31.1902C156.625,-29.9066 165.319,-28.6075 173.779,-27.3433"/>
<polygon fill="midnightblue" stroke="midnightblue" points="147.392,-27.7473 138.019,-32.6868 148.427,-34.6704 147.392,-27.7473"/>
</g>
</g>
</svg>
