<?xml version="1.0" encoding="UTF-8" standalone="no"?>
<!DOCTYPE svg PUBLIC "-//W3C//DTD SVG 1.1//EN"
 "http://www.w3.org/Graphics/SVG/1.1/DTD/svg11.dtd">
<!-- Generated by graphviz version 2.36.0 (20140111.2315)
 -->
<!-- Title: Graphical Class Hierarchy Pages: 1 -->
<svg width="720pt" height="1391pt"
 viewBox="0.00 0.00 720.00 1391.00" xmlns="http://www.w3.org/2000/svg" xmlns:xlink="http://www.w3.org/1999/xlink">
<g id="graph0" class="graph" transform="scale(1 1) rotate(0) translate(4 1387)">
<title>Graphical Class Hierarchy</title>
<polygon fill="white" stroke="none" points="-4,4 -4,-1387 716,-1387 716,4 -4,4"/>
<!-- Node1 -->
<g id="node1" class="node"><title>Node1</title>
<g id="a_node1"><a xlink:title="STL class. ">
<polygon fill="white" stroke="#bfbfbf" points="0,-667.5 0,-686.5 78,-686.5 78,-667.5 0,-667.5"/>
<text text-anchor="middle" x="39" y="-674.5" font-family="Helvetica,sans-Serif" font-size="10.00">std::exception</text>
</a>
</g>
</g>
<!-- Node2 -->
<g id="node2" class="node"><title>Node2</title>
<g id="a_node2"><a xlink:title="STL class. ">
<polygon fill="white" stroke="#bfbfbf" points="114.5,-667.5 114.5,-686.5 207.5,-686.5 207.5,-667.5 114.5,-667.5"/>
<text text-anchor="middle" x="161" y="-674.5" font-family="Helvetica,sans-Serif" font-size="10.00">std::runtime_error</text>
</a>
</g>
</g>
<!-- Node1&#45;&gt;Node2 -->
<g id="edge1" class="edge"><title>Node1&#45;&gt;Node2</title>
<path fill="none" stroke="midnightblue" d="M88.4269,-677C96.8996,-677 105.692,-677 114.094,-677"/>
<polygon fill="midnightblue" stroke="midnightblue" points="88.2987,-673.5 78.2987,-677 88.2986,-680.5 88.2987,-673.5"/>
</g>
<!-- Node3 -->
<g id="node3" class="node"><title>Node3</title>
<g id="a_node3"><a xlink:href="classfwCore_1_1Exception.html" target="_top" xlink:title="fwCore::Exception">
<polygon fill="white" stroke="black" points="244,-686.5 244,-705.5 342,-705.5 342,-686.5 244,-686.5"/>
<text text-anchor="middle" x="293" y="-693.5" font-family="Helvetica,sans-Serif" font-size="10.00">fwCore::Exception</text>
</a>
</g>
</g>
<!-- Node2&#45;&gt;Node3 -->
<g id="edge2" class="edge"><title>Node2&#45;&gt;Node3</title>
<path fill="none" stroke="midnightblue" d="M217.88,-685.167C226.557,-686.435 235.455,-687.736 243.939,-688.976"/>
<polygon fill="midnightblue" stroke="midnightblue" points="218.234,-681.682 207.833,-683.699 217.222,-688.608 218.234,-681.682"/>
</g>
<!-- Node47 -->
<g id="node47" class="node"><title>Node47</title>
<g id="a_node47"><a xlink:href="classfwTest_1_1Exception.html" target="_top" xlink:title="fwTest::Exception">
<polygon fill="white" stroke="black" points="245,-648.5 245,-667.5 341,-667.5 341,-648.5 245,-648.5"/>
<text text-anchor="middle" x="293" y="-655.5" font-family="Helvetica,sans-Serif" font-size="10.00">fwTest::Exception</text>
</a>
</g>
</g>
<!-- Node2&#45;&gt;Node47 -->
<g id="edge46" class="edge"><title>Node2&#45;&gt;Node47</title>
<path fill="none" stroke="midnightblue" d="M217.844,-668.838C226.834,-667.524 236.063,-666.175 244.823,-664.895"/>
<polygon fill="midnightblue" stroke="midnightblue" points="217.222,-665.392 207.833,-670.301 218.234,-672.318 217.222,-665.392"/>
</g>
<!-- Node4 -->
<g id="node4" class="node"><title>Node4</title>
<g id="a_node4"><a xlink:href="structfwAtomConversion_1_1exception_1_1ClassnameMismatch.html" target="_top" xlink:title="Throw this exception when a new data is created with a specific uuid, but this data already exists in...">
<polygon fill="white" stroke="black" points="379,-1353 379,-1383 527,-1383 527,-1353 379,-1353"/>
<text text-anchor="start" x="387" y="-1371" font-family="Helvetica,sans-Serif" font-size="10.00">fwAtomConversion::exception</text>
<text text-anchor="middle" x="453" y="-1360" font-family="Helvetica,sans-Serif" font-size="10.00">::ClassnameMismatch</text>
</a>
</g>
</g>
<!-- Node3&#45;&gt;Node4 -->
<g id="edge3" class="edge"><title>Node3&#45;&gt;Node4</title>
<path fill="none" stroke="midnightblue" d="M293.848,-715.804C293.492,-813.549 296.628,-1243.81 378,-1343 381.182,-1346.88 384.991,-1350.16 389.177,-1352.93"/>
<polygon fill="midnightblue" stroke="midnightblue" points="297.348,-715.817 293.902,-705.799 290.348,-715.779 297.348,-715.817"/>
</g>
<!-- Node5 -->
<g id="node5" class="node"><title>Node5</title>
<g id="a_node5"><a xlink:href="structfwAtomConversion_1_1exception_1_1ConversionNotManaged.html" target="_top" xlink:title="Throw this exception when a conversion between data and atom is not managed (error message explains t...">
<polygon fill="white" stroke="black" points="379,-1304 379,-1334 527,-1334 527,-1304 379,-1304"/>
<text text-anchor="start" x="387" y="-1322" font-family="Helvetica,sans-Serif" font-size="10.00">fwAtomConversion::exception</text>
<text text-anchor="middle" x="453" y="-1311" font-family="Helvetica,sans-Serif" font-size="10.00">::ConversionNotManaged</text>
</a>
</g>
</g>
<!-- Node3&#45;&gt;Node5 -->
<g id="edge4" class="edge"><title>Node3&#45;&gt;Node5</title>
<path fill="none" stroke="midnightblue" d="M294.084,-716.05C294.872,-809.683 302.681,-1203.16 378,-1294 381.203,-1297.86 385.025,-1301.13 389.222,-1303.9"/>
<polygon fill="midnightblue" stroke="midnightblue" points="297.583,-715.92 294.018,-705.943 290.583,-715.966 297.583,-715.92"/>
</g>
<!-- Node6 -->
<g id="node6" class="node"><title>Node6</title>
<g id="a_node6"><a xlink:href="structfwAtomConversion_1_1exception_1_1DataFactoryNotFound.html" target="_top" xlink:title="Throw this exception when an object classname is not found exception in fwData::factory. ">
<polygon fill="white" stroke="black" points="379,-1255 379,-1285 527,-1285 527,-1255 379,-1255"/>
<text text-anchor="start" x="387" y="-1273" font-family="Helvetica,sans-Serif" font-size="10.00">fwAtomConversion::exception</text>
<text text-anchor="middle" x="453" y="-1262" font-family="Helvetica,sans-Serif" font-size="10.00">::DataFactoryNotFound</text>
</a>
</g>
</g>
<!-- Node3&#45;&gt;Node6 -->
<g id="edge5" class="edge"><title>Node3&#45;&gt;Node6</title>
<path fill="none" stroke="midnightblue" d="M294.356,-715.778C296.334,-804.17 308.578,-1162.31 378,-1245 381.226,-1248.84 385.066,-1252.1 389.274,-1254.85"/>
<polygon fill="midnightblue" stroke="midnightblue" points="297.851,-715.479 294.147,-705.552 290.852,-715.622 297.851,-715.479"/>
</g>
<!-- Node7 -->
<g id="node7" class="node"><title>Node7</title>
<g id="a_node7"><a xlink:href="structfwAtomConversion_1_1exception_1_1DuplicatedDataUUID.html" target="_top" xlink:title="Throw this exception when a new data is created with a specific uuid, but this data already exists in...">
<polygon fill="white" stroke="black" points="379,-1206 379,-1236 527,-1236 527,-1206 379,-1206"/>
<text text-anchor="start" x="387" y="-1224" font-family="Helvetica,sans-Serif" font-size="10.00">fwAtomConversion::exception</text>
<text text-anchor="middle" x="453" y="-1213" font-family="Helvetica,sans-Serif" font-size="10.00">::DuplicatedDataUUID</text>
</a>
</g>
</g>
<!-- Node3&#45;&gt;Node7 -->
<g id="edge6" class="edge"><title>Node3&#45;&gt;Node7</title>
<path fill="none" stroke="midnightblue" d="M294.696,-716.118C297.99,-800.078 314.615,-1121.61 378,-1196 381.254,-1199.82 385.114,-1203.06 389.335,-1205.8"/>
<polygon fill="midnightblue" stroke="midnightblue" points="298.185,-715.761 294.316,-705.898 291.19,-716.021 298.185,-715.761"/>
</g>
<!-- Node8 -->
<g id="node8" class="node"><title>Node8</title>
<g id="a_node8"><a xlink:href="structfwAtomConversion_1_1exception_1_1NullPointer.html" target="_top" xlink:title="Null pointer exception. ">
<polygon fill="white" stroke="black" points="379,-1157 379,-1187 527,-1187 527,-1157 379,-1157"/>
<text text-anchor="start" x="387" y="-1175" font-family="Helvetica,sans-Serif" font-size="10.00">fwAtomConversion::exception</text>
<text text-anchor="middle" x="453" y="-1164" font-family="Helvetica,sans-Serif" font-size="10.00">::NullPointer</text>
</a>
</g>
</g>
<!-- Node3&#45;&gt;Node8 -->
<g id="edge7" class="edge"><title>Node3&#45;&gt;Node8</title>
<path fill="none" stroke="midnightblue" d="M295.098,-716.111C299.78,-794.803 320.539,-1080.76 378,-1147 381.377,-1150.89 385.381,-1154.18 389.753,-1156.96"/>
<polygon fill="midnightblue" stroke="midnightblue" points="298.567,-715.472 294.501,-705.688 291.578,-715.872 298.567,-715.472"/>
</g>
<!-- Node9 -->
<g id="node9" class="node"><title>Node9</title>
<g id="a_node9"><a xlink:href="structfwAtomConversion_1_1exception_1_1ObjectNotFound.html" target="_top" xlink:title="Object not found exception. ">
<polygon fill="white" stroke="black" points="379,-1108 379,-1138 527,-1138 527,-1108 379,-1108"/>
<text text-anchor="start" x="387" y="-1126" font-family="Helvetica,sans-Serif" font-size="10.00">fwAtomConversion::exception</text>
<text text-anchor="middle" x="453" y="-1115" font-family="Helvetica,sans-Serif" font-size="10.00">::ObjectNotFound</text>
</a>
</g>
</g>
<!-- Node3&#45;&gt;Node9 -->
<g id="edge8" class="edge"><title>Node3&#45;&gt;Node9</title>
<path fill="none" stroke="midnightblue" d="M295.567,-715.778C301.706,-788.488 326.359,-1039.77 378,-1098 381.419,-1101.86 385.454,-1105.12 389.845,-1107.88"/>
<polygon fill="midnightblue" stroke="midnightblue" points="299.046,-715.379 294.74,-705.699 292.07,-715.952 299.046,-715.379"/>
</g>
<!-- Node10 -->
<g id="node10" class="node"><title>Node10</title>
<g id="a_node10"><a xlink:href="structfwAtoms_1_1Exception.html" target="_top" xlink:title="Implements atoms exception. ">
<polygon fill="white" stroke="black" points="400.5,-1069.5 400.5,-1088.5 505.5,-1088.5 505.5,-1069.5 400.5,-1069.5"/>
<text text-anchor="middle" x="453" y="-1076.5" font-family="Helvetica,sans-Serif" font-size="10.00">fwAtoms::Exception</text>
</a>
</g>
</g>
<!-- Node3&#45;&gt;Node10 -->
<g id="edge9" class="edge"><title>Node3&#45;&gt;Node10</title>
<path fill="none" stroke="midnightblue" d="M295.96,-716.13C303.046,-784.85 329.511,-1008.71 378,-1059 384.096,-1065.32 391.968,-1069.72 400.294,-1072.75"/>
<polygon fill="midnightblue" stroke="midnightblue" points="299.407,-715.425 294.924,-705.825 292.442,-716.125 299.407,-715.425"/>
</g>
<!-- Node11 -->
<g id="node11" class="node"><title>Node11</title>
<g id="a_node11"><a xlink:href="classfwAtomsPatch_1_1exceptions_1_1Base.html" target="_top" xlink:title="Base class of fwAtomsPatch exceptions. ">
<polygon fill="white" stroke="black" points="386,-1020 386,-1050 520,-1050 520,-1020 386,-1020"/>
<text text-anchor="start" x="394" y="-1038" font-family="Helvetica,sans-Serif" font-size="10.00">fwAtomsPatch::exceptions</text>
<text text-anchor="middle" x="453" y="-1027" font-family="Helvetica,sans-Serif" font-size="10.00">::Base</text>
</a>
</g>
</g>
<!-- Node3&#45;&gt;Node11 -->
<g id="edge10" class="edge"><title>Node3&#45;&gt;Node11</title>
<path fill="none" stroke="midnightblue" d="M293.287,-715.796C292.431,-770.318 297.644,-924.295 378,-1010 381.617,-1013.86 385.85,-1017.12 390.426,-1019.88"/>
<polygon fill="midnightblue" stroke="midnightblue" points="296.788,-715.815 293.537,-705.732 289.79,-715.642 296.788,-715.815"/>
</g>
<!-- Node16 -->
<g id="node16" class="node"><title>Node16</title>
<g id="a_node16"><a xlink:href="structfwCom_1_1exception_1_1AlreadyConnected.html" target="_top" xlink:title="Bad call exception. ">
<polygon fill="white" stroke="black" points="385.5,-971 385.5,-1001 520.5,-1001 520.5,-971 385.5,-971"/>
<text text-anchor="start" x="393.5" y="-989" font-family="Helvetica,sans-Serif" font-size="10.00">fwCom::exception::Already</text>
<text text-anchor="middle" x="453" y="-978" font-family="Helvetica,sans-Serif" font-size="10.00">Connected</text>
</a>
</g>
</g>
<!-- Node3&#45;&gt;Node16 -->
<g id="edge15" class="edge"><title>Node3&#45;&gt;Node16</title>
<path fill="none" stroke="midnightblue" d="M294.464,-715.896C296.684,-764.581 309.151,-890.841 378,-961 381.799,-964.871 386.218,-968.143 390.969,-970.909"/>
<polygon fill="midnightblue" stroke="midnightblue" points="297.957,-715.621 294.104,-705.752 290.961,-715.87 297.957,-715.621"/>
</g>
<!-- Node17 -->
<g id="node17" class="node"><title>Node17</title>
<g id="a_node17"><a xlink:href="structfwCom_1_1exception_1_1BadCall.html" target="_top" xlink:title="Bad call exception. ">
<polygon fill="white" stroke="black" points="384.5,-932.5 384.5,-951.5 521.5,-951.5 521.5,-932.5 384.5,-932.5"/>
<text text-anchor="middle" x="453" y="-939.5" font-family="Helvetica,sans-Serif" font-size="10.00">fwCom::exception::BadCall</text>
</a>
</g>
</g>
<!-- Node3&#45;&gt;Node17 -->
<g id="edge16" class="edge"><title>Node3&#45;&gt;Node17</title>
<path fill="none" stroke="midnightblue" d="M295.364,-716.004C299.487,-760.228 315.707,-866.82 378,-923 382.235,-926.82 387.136,-929.892 392.358,-932.361"/>
<polygon fill="midnightblue" stroke="midnightblue" points="298.845,-715.628 294.54,-705.948 291.868,-716.2 298.845,-715.628"/>
</g>
<!-- Node18 -->
<g id="node18" class="node"><title>Node18</title>
<g id="a_node18"><a xlink:href="structfwCom_1_1exception_1_1BadRun.html" target="_top" xlink:title="Bad run exception. ">
<polygon fill="white" stroke="black" points="384.5,-894.5 384.5,-913.5 521.5,-913.5 521.5,-894.5 384.5,-894.5"/>
<text text-anchor="middle" x="453" y="-901.5" font-family="Helvetica,sans-Serif" font-size="10.00">fwCom::exception::BadRun</text>
</a>
</g>
</g>
<!-- Node3&#45;&gt;Node18 -->
<g id="edge17" class="edge"><title>Node3&#45;&gt;Node18</title>
<path fill="none" stroke="midnightblue" d="M296.952,-715.512C303.83,-753.993 324.597,-839.841 378,-885 382.558,-888.854 387.8,-891.94 393.344,-894.41"/>
<polygon fill="midnightblue" stroke="midnightblue" points="300.395,-714.877 295.303,-705.586 293.489,-716.024 300.395,-714.877"/>
</g>
<!-- Node19 -->
<g id="node19" class="node"><title>Node19</title>
<g id="a_node19"><a xlink:href="structfwCom_1_1exception_1_1BadSlot.html" target="_top" xlink:title="Bad slot exception. ">
<polygon fill="white" stroke="black" points="384.5,-856.5 384.5,-875.5 521.5,-875.5 521.5,-856.5 384.5,-856.5"/>
<text text-anchor="middle" x="453" y="-863.5" font-family="Helvetica,sans-Serif" font-size="10.00">fwCom::exception::BadSlot</text>
</a>
</g>
</g>
<!-- Node3&#45;&gt;Node19 -->
<g id="edge18" class="edge"><title>Node3&#45;&gt;Node19</title>
<path fill="none" stroke="midnightblue" d="M299.345,-715.549C309.25,-747.984 333.599,-812.736 378,-847 383.04,-850.89 388.792,-853.989 394.811,-856.457"/>
<polygon fill="midnightblue" stroke="midnightblue" points="302.585,-714.154 296.435,-705.527 295.863,-716.106 302.585,-714.154"/>
</g>
<!-- Node20 -->
<g id="node20" class="node"><title>Node20</title>
<g id="a_node20"><a xlink:href="structfwCom_1_1exception_1_1NoWorker.html" target="_top" xlink:title="No worker exception. ">
<polygon fill="white" stroke="black" points="380,-818.5 380,-837.5 526,-837.5 526,-818.5 380,-818.5"/>
<text text-anchor="middle" x="453" y="-825.5" font-family="Helvetica,sans-Serif" font-size="10.00">fwCom::exception::NoWorker</text>
</a>
</g>
</g>
<!-- Node3&#45;&gt;Node20 -->
<g id="edge19" class="edge"><title>Node3&#45;&gt;Node20</title>
<path fill="none" stroke="midnightblue" d="M303.157,-715.039C316.231,-740.172 342.633,-784.03 378,-808 384.39,-812.33 391.682,-815.725 399.141,-818.386"/>
<polygon fill="midnightblue" stroke="midnightblue" points="306.141,-713.182 298.523,-705.818 299.886,-716.325 306.141,-713.182"/>
</g>
<!-- Node21 -->
<g id="node21" class="node"><title>Node21</title>
<g id="a_node21"><a xlink:href="structfwCom_1_1exception_1_1WorkerChanged.html" target="_top" xlink:title="No worker exception. ">
<polygon fill="white" stroke="black" points="386,-769 386,-799 520,-799 520,-769 386,-769"/>
<text text-anchor="start" x="394" y="-787" font-family="Helvetica,sans-Serif" font-size="10.00">fwCom::exception::Worker</text>
<text text-anchor="middle" x="453" y="-776" font-family="Helvetica,sans-Serif" font-size="10.00">Changed</text>
</a>
</g>
</g>
<!-- Node3&#45;&gt;Node21 -->
<g id="edge20" class="edge"><title>Node3&#45;&gt;Node21</title>
<path fill="none" stroke="midnightblue" d="M312.049,-712.235C328.325,-726.189 353.413,-746.054 378,-759 385.079,-762.728 392.826,-766.065 400.557,-768.994"/>
<polygon fill="midnightblue" stroke="midnightblue" points="314.224,-709.487 304.391,-705.544 309.619,-714.759 314.224,-709.487"/>
</g>
<!-- Node22 -->
<g id="node22" class="node"><title>Node22</title>
<g id="a_node22"><a xlink:href="classfwData_1_1Exception.html" target="_top" xlink:title="Implements data exception class. ">
<polygon fill="white" stroke="black" points="404,-730.5 404,-749.5 502,-749.5 502,-730.5 404,-730.5"/>
<text text-anchor="middle" x="453" y="-737.5" font-family="Helvetica,sans-Serif" font-size="10.00">fwData::Exception</text>
</a>
</g>
</g>
<!-- Node3&#45;&gt;Node22 -->
<g id="edge21" class="edge"><title>Node3&#45;&gt;Node22</title>
<path fill="none" stroke="midnightblue" d="M336.855,-708.372C350.041,-712.145 364.609,-716.278 378,-720 390.437,-723.457 404.074,-727.166 416.215,-730.439"/>
<polygon fill="midnightblue" stroke="midnightblue" points="337.66,-704.962 327.083,-705.571 335.731,-711.691 337.66,-704.962"/>
</g>
<!-- Node23 -->
<g id="node23" class="node"><title>Node23</title>
<g id="a_node23"><a xlink:href="structfwDataCamp_1_1exception_1_1NullPointer.html" target="_top" xlink:title="Null pointer exception. ">
<polygon fill="white" stroke="black" points="392,-681 392,-711 514,-711 514,-681 392,-681"/>
<text text-anchor="start" x="400" y="-699" font-family="Helvetica,sans-Serif" font-size="10.00">fwDataCamp::exception</text>
<text text-anchor="middle" x="453" y="-688" font-family="Helvetica,sans-Serif" font-size="10.00">::NullPointer</text>
</a>
</g>
</g>
<!-- Node3&#45;&gt;Node23 -->
<g id="edge22" class="edge"><title>Node3&#45;&gt;Node23</title>
<path fill="none" stroke="midnightblue" d="M352.366,-696C365.208,-696 378.831,-696 391.746,-696"/>
<polygon fill="midnightblue" stroke="midnightblue" points="352.264,-692.5 342.264,-696 352.264,-699.5 352.264,-692.5"/>
</g>
<!-- Node24 -->
<g id="node24" class="node"><title>Node24</title>
<g id="a_node24"><a xlink:href="structfwDataCamp_1_1exception_1_1ObjectNotFound.html" target="_top" xlink:title="Object not found exception. ">
<polygon fill="white" stroke="black" points="392,-632 392,-662 514,-662 514,-632 392,-632"/>
<text text-anchor="start" x="400" y="-650" font-family="Helvetica,sans-Serif" font-size="10.00">fwDataCamp::exception</text>
<text text-anchor="middle" x="453" y="-639" font-family="Helvetica,sans-Serif" font-size="10.00">::ObjectNotFound</text>
</a>
</g>
</g>
<!-- Node3&#45;&gt;Node24 -->
<g id="edge23" class="edge"><title>Node3&#45;&gt;Node24</title>
<path fill="none" stroke="midnightblue" d="M334.444,-683.457C355.497,-676.928 381.391,-668.898 403.513,-662.037"/>
<polygon fill="midnightblue" stroke="midnightblue" points="333.354,-680.131 324.839,-686.436 335.427,-686.817 333.354,-680.131"/>
</g>
<!-- Node25 -->
<g id="node25" class="node"><title>Node25</title>
<g id="a_node25"><a xlink:href="classfwDicomIOFilter_1_1exceptions_1_1FilterFailure.html" target="_top" xlink:title="FilterFailure Exceptions. ">
<polygon fill="white" stroke="black" points="382.5,-583 382.5,-613 523.5,-613 523.5,-583 382.5,-583"/>
<text text-anchor="start" x="390.5" y="-601" font-family="Helvetica,sans-Serif" font-size="10.00">fwDicomIOFilter::exceptions</text>
<text text-anchor="middle" x="453" y="-590" font-family="Helvetica,sans-Serif" font-size="10.00">::FilterFailure</text>
</a>
</g>
</g>
<!-- Node3&#45;&gt;Node25 -->
<g id="edge24" class="edge"><title>Node3&#45;&gt;Node25</title>
<path fill="none" stroke="midnightblue" d="M335.45,-681.575C337.753,-680.174 339.957,-678.652 342,-677 364.431,-658.866 355.113,-640.555 378,-623 383.057,-619.121 388.752,-615.824 394.679,-613.025"/>
<polygon fill="midnightblue" stroke="midnightblue" points="333.465,-678.664 326.222,-686.396 336.706,-684.868 333.465,-678.664"/>
</g>
<!-- Node26 -->
<g id="node26" class="node"><title>Node26</title>
<g id="a_node26"><a xlink:href="structfwGdcmIO_1_1exception_1_1Failed.html" target="_top" xlink:title="Implements a failed exception class for fwGdcmIO. ">
<polygon fill="white" stroke="black" points="397,-534 397,-564 509,-564 509,-534 397,-534"/>
<text text-anchor="start" x="405" y="-552" font-family="Helvetica,sans-Serif" font-size="10.00">fwGdcmIO::exception</text>
<text text-anchor="middle" x="453" y="-541" font-family="Helvetica,sans-Serif" font-size="10.00">::Failed</text>
</a>
</g>
</g>
<!-- Node3&#45;&gt;Node26 -->
<g id="edge25" class="edge"><title>Node3&#45;&gt;Node26</title>
<path fill="none" stroke="midnightblue" d="M337.467,-681.045C339.081,-679.8 340.603,-678.455 342,-677 375.586,-642.02 343.531,-608.11 378,-574 383.398,-568.658 389.975,-564.457 396.957,-561.154"/>
<polygon fill="midnightblue" stroke="midnightblue" points="335.411,-678.203 328.776,-686.463 339.114,-684.143 335.411,-678.203"/>
</g>
<!-- Node27 -->
<g id="node27" class="node"><title>Node27</title>
<g id="a_node27"><a xlink:href="classfwGdcmIO_1_1exception_1_1InvalidTag.html" target="_top" xlink:title="InvalidTag exception. ">
<polygon fill="white" stroke="black" points="397,-485 397,-515 509,-515 509,-485 397,-485"/>
<text text-anchor="start" x="405" y="-503" font-family="Helvetica,sans-Serif" font-size="10.00">fwGdcmIO::exception</text>
<text text-anchor="middle" x="453" y="-492" font-family="Helvetica,sans-Serif" font-size="10.00">::InvalidTag</text>
</a>
</g>
</g>
<!-- Node3&#45;&gt;Node27 -->
<g id="edge26" class="edge"><title>Node3&#45;&gt;Node27</title>
<path fill="none" stroke="midnightblue" d="M338.686,-680.343C339.864,-679.299 340.974,-678.186 342,-677 387.423,-624.497 331.251,-576.325 378,-525 383.205,-519.286 389.761,-514.877 396.808,-511.475"/>
<polygon fill="midnightblue" stroke="midnightblue" points="336.335,-677.713 330.101,-686.28 340.317,-683.47 336.335,-677.713"/>
</g>
<!-- Node28 -->
<g id="node28" class="node"><title>Node28</title>
<g id="a_node28"><a xlink:href="structfwJobs_1_1exception_1_1Waiting.html" target="_top" xlink:title="No worker exception. ">
<polygon fill="white" stroke="black" points="402,-436 402,-466 504,-466 504,-436 402,-436"/>
<text text-anchor="start" x="410" y="-454" font-family="Helvetica,sans-Serif" font-size="10.00">fwJobs::exception::</text>
<text text-anchor="middle" x="453" y="-443" font-family="Helvetica,sans-Serif" font-size="10.00">Waiting</text>
</a>
</g>
</g>
<!-- Node3&#45;&gt;Node28 -->
<g id="edge27" class="edge"><title>Node3&#45;&gt;Node28</title>
<path fill="none" stroke="midnightblue" d="M338.772,-680.415C339.926,-679.351 341.007,-678.214 342,-677 399.457,-606.75 318.766,-544.759 378,-476 384.284,-468.705 392.774,-463.534 401.764,-459.869"/>
<polygon fill="midnightblue" stroke="midnightblue" points="336.417,-677.796 330.296,-686.443 340.474,-683.5 336.417,-677.796"/>
</g>
<!-- Node29 -->
<g id="node29" class="node"><title>Node29</title>
<g id="a_node29"><a xlink:href="structfwMemory_1_1exception_1_1BadCast.html" target="_top" xlink:title="Implements an exception class for bad cast. ">
<polygon fill="white" stroke="black" points="398,-387 398,-417 508,-417 508,-387 398,-387"/>
<text text-anchor="start" x="406" y="-405" font-family="Helvetica,sans-Serif" font-size="10.00">fwMemory::exception</text>
<text text-anchor="middle" x="453" y="-394" font-family="Helvetica,sans-Serif" font-size="10.00">::BadCast</text>
</a>
</g>
</g>
<!-- Node3&#45;&gt;Node29 -->
<g id="edge28" class="edge"><title>Node3&#45;&gt;Node29</title>
<path fill="none" stroke="midnightblue" d="M338.948,-680.344C340.04,-679.3 341.063,-678.187 342,-677 411.574,-588.903 306.198,-513.291 378,-427 383.291,-420.641 390.262,-415.894 397.812,-412.35"/>
<polygon fill="midnightblue" stroke="midnightblue" points="336.87,-677.527 330.891,-686.274 341.02,-683.165 336.87,-677.527"/>
</g>
<!-- Node30 -->
<g id="node30" class="node"><title>Node30</title>
<g id="a_node30"><a xlink:href="structfwMemory_1_1exception_1_1Memory.html" target="_top" xlink:title="Implements an exception class for fwMemory. ">
<polygon fill="white" stroke="black" points="398,-338 398,-368 508,-368 508,-338 398,-338"/>
<text text-anchor="start" x="406" y="-356" font-family="Helvetica,sans-Serif" font-size="10.00">fwMemory::exception</text>
<text text-anchor="middle" x="453" y="-345" font-family="Helvetica,sans-Serif" font-size="10.00">::Memory</text>
</a>
</g>
</g>
<!-- Node3&#45;&gt;Node30 -->
<g id="edge29" class="edge"><title>Node3&#45;&gt;Node30</title>
<path fill="none" stroke="midnightblue" d="M339.307,-680.054C340.267,-679.095 341.169,-678.078 342,-677 423.732,-571.003 293.586,-481.874 378,-378 383.217,-371.581 390.149,-366.801 397.683,-363.244"/>
<polygon fill="midnightblue" stroke="midnightblue" points="336.851,-677.523 330.974,-686.338 341.065,-683.112 336.851,-677.523"/>
</g>
<!-- Node31 -->
<g id="node31" class="node"><title>Node31</title>
<g id="a_node31"><a xlink:href="classfwNetworkIO_1_1exceptions_1_1Base.html" target="_top" xlink:title="Base class of fwNetworkIO Exception. ">
<polygon fill="white" stroke="black" points="389,-289 389,-319 517,-319 517,-289 389,-289"/>
<text text-anchor="start" x="397" y="-307" font-family="Helvetica,sans-Serif" font-size="10.00">fwNetworkIO::exceptions</text>
<text text-anchor="middle" x="453" y="-296" font-family="Helvetica,sans-Serif" font-size="10.00">::Base</text>
</a>
</g>
</g>
<!-- Node3&#45;&gt;Node31 -->
<g id="edge30" class="edge"><title>Node3&#45;&gt;Node31</title>
<path fill="none" stroke="midnightblue" d="M339.331,-680.073C340.284,-679.108 341.178,-678.085 342,-677 435.914,-553.073 280.95,-450.487 378,-329 381.047,-325.186 384.7,-321.95 388.729,-319.205"/>
<polygon fill="midnightblue" stroke="midnightblue" points="336.874,-677.544 331.034,-686.384 341.112,-683.115 336.874,-677.544"/>
</g>
<!-- Node35 -->
<g id="node35" class="node"><title>Node35</title>
<g id="a_node35"><a xlink:href="classfwPacsIO_1_1exceptions_1_1Base.html" target="_top" xlink:title="Base class of fwPacsIO Exceptions. ">
<polygon fill="white" stroke="black" points="396.5,-240 396.5,-270 509.5,-270 509.5,-240 396.5,-240"/>
<text text-anchor="start" x="404.5" y="-258" font-family="Helvetica,sans-Serif" font-size="10.00">fwPacsIO::exceptions</text>
<text text-anchor="middle" x="453" y="-247" font-family="Helvetica,sans-Serif" font-size="10.00">::Base</text>
</a>
</g>
</g>
<!-- Node3&#45;&gt;Node35 -->
<g id="edge34" class="edge"><title>Node3&#45;&gt;Node35</title>
<path fill="none" stroke="midnightblue" d="M339.349,-680.086C340.297,-679.118 341.185,-678.09 342,-677 395.055,-606.061 323.149,-349.56 378,-280 382.87,-273.824 389.332,-269.163 396.414,-265.648"/>
<polygon fill="midnightblue" stroke="midnightblue" points="336.891,-677.56 331.08,-686.419 341.147,-683.118 336.891,-677.56"/>
</g>
<!-- Node41 -->
<g id="node41" class="node"><title>Node41</title>
<g id="a_node41"><a xlink:href="structfwRuntime_1_1ConfigurationElement_1_1NoSuchAttribute.html" target="_top" xlink:title="Defines the a class for attributes exceptions. ">
<polygon fill="white" stroke="black" points="387.5,-191 387.5,-221 518.5,-221 518.5,-191 387.5,-191"/>
<text text-anchor="start" x="395.5" y="-209" font-family="Helvetica,sans-Serif" font-size="10.00">fwRuntime::Configuration</text>
<text text-anchor="middle" x="453" y="-198" font-family="Helvetica,sans-Serif" font-size="10.00">Element::NoSuchAttribute</text>
</a>
</g>
</g>
<!-- Node3&#45;&gt;Node41 -->
<g id="edge40" class="edge"><title>Node3&#45;&gt;Node41</title>
<path fill="none" stroke="midnightblue" d="M339.363,-680.097C340.307,-679.125 341.19,-678.094 342,-677 401.159,-597.08 316.818,-309.382 378,-231 381.004,-227.152 384.626,-223.891 388.634,-221.13"/>
<polygon fill="midnightblue" stroke="midnightblue" points="336.905,-677.572 331.115,-686.445 341.175,-683.12 336.905,-677.572"/>
</g>
<!-- Node42 -->
<g id="node42" class="node"><title>Node42</title>
<g id="a_node42"><a xlink:href="structfwRuntime_1_1RuntimeException.html" target="_top" xlink:title="Defines the runtime exception class. ">
<polygon fill="white" stroke="black" points="378,-152.5 378,-171.5 528,-171.5 528,-152.5 378,-152.5"/>
<text text-anchor="middle" x="453" y="-159.5" font-family="Helvetica,sans-Serif" font-size="10.00">fwRuntime::RuntimeException</text>
</a>
</g>
</g>
<!-- Node3&#45;&gt;Node42 -->
<g id="edge41" class="edge"><title>Node3&#45;&gt;Node42</title>
<path fill="none" stroke="midnightblue" d="M339.375,-680.105C340.316,-679.131 341.195,-678.097 342,-677 407.266,-588.093 307.82,-267.081 378,-182 381.557,-177.688 385.938,-174.253 390.778,-171.522"/>
<polygon fill="midnightblue" stroke="midnightblue" points="336.916,-677.582 331.144,-686.467 341.197,-683.121 336.916,-677.582"/>
</g>
<!-- Node43 -->
<g id="node43" class="node"><title>Node43</title>
<g id="a_node43"><a xlink:href="structfwTools_1_1Exception.html" target="_top" xlink:title="Implements fwTools exception class. ">
<polygon fill="white" stroke="black" points="402.5,-114.5 402.5,-133.5 503.5,-133.5 503.5,-114.5 402.5,-114.5"/>
<text text-anchor="middle" x="453" y="-121.5" font-family="Helvetica,sans-Serif" font-size="10.00">fwTools::Exception</text>
</a>
</g>
</g>
<!-- Node3&#45;&gt;Node43 -->
<g id="edge42" class="edge"><title>Node3&#45;&gt;Node43</title>
<path fill="none" stroke="midnightblue" d="M339.383,-680.111C340.321,-679.135 341.197,-678.099 342,-677 412.128,-580.939 301.982,-234.472 378,-143 384.273,-135.451 393.103,-130.679 402.487,-127.709"/>
<polygon fill="midnightblue" stroke="midnightblue" points="336.924,-677.589 331.164,-686.481 341.212,-683.122 336.924,-677.589"/>
</g>
<!-- Node44 -->
<g id="node44" class="node"><title>Node44</title>
<g id="a_node44"><a xlink:href="structfwTools_1_1Failed.html" target="_top" xlink:title="Implements a failed exception class. ">
<polygon fill="white" stroke="black" points="411.5,-76.5 411.5,-95.5 494.5,-95.5 494.5,-76.5 411.5,-76.5"/>
<text text-anchor="middle" x="453" y="-83.5" font-family="Helvetica,sans-Serif" font-size="10.00">fwTools::Failed</text>
</a>
</g>
</g>
<!-- Node3&#45;&gt;Node44 -->
<g id="edge43" class="edge"><title>Node3&#45;&gt;Node44</title>
<path fill="none" stroke="midnightblue" d="M339.389,-680.116C340.326,-679.139 341.2,-678.101 342,-677 416.867,-573.965 296.815,-203.134 378,-105 386.201,-95.0867 398.812,-89.9579 411.312,-87.4113"/>
<polygon fill="midnightblue" stroke="midnightblue" points="336.93,-677.594 331.18,-686.493 341.224,-683.122 336.93,-677.594"/>
</g>
<!-- Node45 -->
<g id="node45" class="node"><title>Node45</title>
<g id="a_node45"><a xlink:href="structfwZip_1_1exception_1_1Read.html" target="_top" xlink:title="Read exception. ">
<polygon fill="white" stroke="black" points="394,-38.5 394,-57.5 512,-57.5 512,-38.5 394,-38.5"/>
<text text-anchor="middle" x="453" y="-45.5" font-family="Helvetica,sans-Serif" font-size="10.00">fwZip::exception::Read</text>
</a>
</g>
</g>
<!-- Node3&#45;&gt;Node45 -->
<g id="edge44" class="edge"><title>Node3&#45;&gt;Node45</title>
<path fill="none" stroke="midnightblue" d="M339.499,-680.011C340.394,-679.064 341.232,-678.062 342,-677 421.607,-566.991 291.647,-171.797 378,-67 382.302,-61.7794 387.827,-57.8848 393.916,-54.9951"/>
<polygon fill="midnightblue" stroke="midnightblue" points="337.321,-677.271 331.658,-686.226 341.669,-682.757 337.321,-677.271"/>
</g>
<!-- Node46 -->
<g id="node46" class="node"><title>Node46</title>
<g id="a_node46"><a xlink:href="structfwZip_1_1exception_1_1Write.html" target="_top" xlink:title="Write exception. ">
<polygon fill="white" stroke="black" points="394,-0.5 394,-19.5 512,-19.5 512,-0.5 394,-0.5"/>
<text text-anchor="middle" x="453" y="-7.5" font-family="Helvetica,sans-Serif" font-size="10.00">fwZip::exception::Write</text>
</a>
</g>
</g>
<!-- Node3&#45;&gt;Node46 -->
<g id="edge45" class="edge"><title>Node3&#45;&gt;Node46</title>
<path fill="none" stroke="midnightblue" d="M339.503,-680.015C340.398,-679.067 341.233,-678.063 342,-677 426.348,-560.015 286.478,-140.461 378,-29 382.293,-23.772 387.812,-19.873 393.899,-16.9809"/>
<polygon fill="midnightblue" stroke="midnightblue" points="337.325,-677.275 331.671,-686.235 341.678,-682.757 337.325,-677.275"/>
</g>
<!-- Node12 -->
<g id="node12" class="node"><title>Node12</title>
<g id="a_node12"><a xlink:href="classfwAtomsPatch_1_1exceptions_1_1BadExtension.html" target="_top" xlink:title="Exception defining a wrong extension in a filename. ">
<polygon fill="white" stroke="black" points="571,-1093 571,-1123 705,-1123 705,-1093 571,-1093"/>
<text text-anchor="start" x="579" y="-1111" font-family="Helvetica,sans-Serif" font-size="10.00">fwAtomsPatch::exceptions</text>
<text text-anchor="middle" x="638" y="-1100" font-family="Helvetica,sans-Serif" font-size="10.00">::BadExtension</text>
</a>
</g>
</g>
<!-- Node11&#45;&gt;Node12 -->
<g id="edge11" class="edge"><title>Node11&#45;&gt;Node12</title>
<path fill="none" stroke="midnightblue" d="M513.57,-1053.7C518.513,-1055.68 523.38,-1057.78 528,-1060 545.12,-1068.21 546.897,-1074.75 564,-1083 571.482,-1086.61 579.621,-1089.93 587.661,-1092.9"/>
<polygon fill="midnightblue" stroke="midnightblue" points="514.611,-1050.35 504.02,-1050.05 512.112,-1056.89 514.611,-1050.35"/>
</g>
<!-- Node13 -->
<g id="node13" class="node"><title>Node13</title>
<g id="a_node13"><a xlink:href="classfwAtomsPatch_1_1exceptions_1_1ImpossibleConversion.html" target="_top" xlink:title="Reports an impossible conversion between data objects. ">
<polygon fill="white" stroke="black" points="571,-1044 571,-1074 705,-1074 705,-1044 571,-1044"/>
<text text-anchor="start" x="579" y="-1062" font-family="Helvetica,sans-Serif" font-size="10.00">fwAtomsPatch::exceptions</text>
<text text-anchor="middle" x="638" y="-1051" font-family="Helvetica,sans-Serif" font-size="10.00">::ImpossibleConversion</text>
</a>
</g>
</g>
<!-- Node11&#45;&gt;Node13 -->
<g id="edge12" class="edge"><title>Node11&#45;&gt;Node13</title>
<path fill="none" stroke="midnightblue" d="M530.24,-1045C543.683,-1046.76 557.58,-1048.58 570.723,-1050.31"/>
<polygon fill="midnightblue" stroke="midnightblue" points="530.437,-1041.49 520.067,-1043.66 529.527,-1048.44 530.437,-1041.49"/>
</g>
<!-- Node14 -->
<g id="node14" class="node"><title>Node14</title>
<g id="a_node14"><a xlink:href="classfwAtomsPatch_1_1exceptions_1_1MissingInformation.html" target="_top" xlink:title="Reports an missing information required for data object patching. ">
<polygon fill="white" stroke="black" points="571,-995 571,-1025 705,-1025 705,-995 571,-995"/>
<text text-anchor="start" x="579" y="-1013" font-family="Helvetica,sans-Serif" font-size="10.00">fwAtomsPatch::exceptions</text>
<text text-anchor="middle" x="638" y="-1002" font-family="Helvetica,sans-Serif" font-size="10.00">::MissingInformation</text>
</a>
</g>
</g>
<!-- Node11&#45;&gt;Node14 -->
<g id="edge13" class="edge"><title>Node11&#45;&gt;Node14</title>
<path fill="none" stroke="midnightblue" d="M530.24,-1024.58C543.683,-1022.75 557.58,-1020.85 570.723,-1019.05"/>
<polygon fill="midnightblue" stroke="midnightblue" points="529.501,-1021.15 520.067,-1025.97 530.449,-1028.09 529.501,-1021.15"/>
</g>
<!-- Node15 -->
<g id="node15" class="node"><title>Node15</title>
<g id="a_node15"><a xlink:href="classfwAtomsPatch_1_1exceptions_1_1UnknownVersion.html" target="_top" xlink:title="Thrown when a given object version is unknown and can&#39;t be processed. ">
<polygon fill="white" stroke="black" points="571,-946 571,-976 705,-976 705,-946 571,-946"/>
<text text-anchor="start" x="579" y="-964" font-family="Helvetica,sans-Serif" font-size="10.00">fwAtomsPatch::exceptions</text>
<text text-anchor="middle" x="638" y="-953" font-family="Helvetica,sans-Serif" font-size="10.00">::UnknownVersion</text>
</a>
</g>
</g>
<!-- Node11&#45;&gt;Node15 -->
<g id="edge14" class="edge"><title>Node11&#45;&gt;Node15</title>
<path fill="none" stroke="midnightblue" d="M513.856,-1016.3C518.706,-1014.33 523.476,-1012.22 528,-1010 545.257,-1001.52 546.761,-994.519 564,-986 571.326,-982.38 579.305,-979.065 587.211,-976.116"/>
<polygon fill="midnightblue" stroke="midnightblue" points="512.538,-1013.06 504.476,-1019.93 515.065,-1019.59 512.538,-1013.06"/>
</g>
<!-- Node32 -->
<g id="node32" class="node"><title>Node32</title>
<g id="a_node32"><a xlink:href="classfwNetworkIO_1_1exceptions_1_1ConnectionRefused.html" target="_top" xlink:title="Implements exception for an HTTP connection refused. ">
<polygon fill="white" stroke="black" points="574,-411 574,-441 702,-441 702,-411 574,-411"/>
<text text-anchor="start" x="582" y="-429" font-family="Helvetica,sans-Serif" font-size="10.00">fwNetworkIO::exceptions</text>
<text text-anchor="middle" x="638" y="-418" font-family="Helvetica,sans-Serif" font-size="10.00">::ConnectionRefused</text>
</a>
</g>
</g>
<!-- Node31&#45;&gt;Node32 -->
<g id="edge31" class="edge"><title>Node31&#45;&gt;Node32</title>
<path fill="none" stroke="midnightblue" d="M521.905,-324.3C524.035,-325.76 526.076,-327.325 528,-329 554.98,-352.496 537.068,-377.448 564,-401 568.437,-404.88 573.505,-408.165 578.857,-410.945"/>
<polygon fill="midnightblue" stroke="midnightblue" points="523.686,-321.287 513.305,-319.168 520.099,-327.298 523.686,-321.287"/>
</g>
<!-- Node33 -->
<g id="node33" class="node"><title>Node33</title>
<g id="a_node33"><a xlink:href="classfwNetworkIO_1_1exceptions_1_1ContentNotFound.html" target="_top" xlink:title="Implements exception for HTTP content not found errors. ">
<polygon fill="white" stroke="black" points="574,-362 574,-392 702,-392 702,-362 574,-362"/>
<text text-anchor="start" x="582" y="-380" font-family="Helvetica,sans-Serif" font-size="10.00">fwNetworkIO::exceptions</text>
<text text-anchor="middle" x="638" y="-369" font-family="Helvetica,sans-Serif" font-size="10.00">::ContentNotFound</text>
</a>
</g>
</g>
<!-- Node31&#45;&gt;Node33 -->
<g id="edge32" class="edge"><title>Node31&#45;&gt;Node33</title>
<path fill="none" stroke="midnightblue" d="M513.57,-322.698C518.513,-324.679 523.38,-326.785 528,-329 545.12,-337.21 546.897,-343.755 564,-352 571.482,-355.607 579.621,-358.933 587.661,-361.903"/>
<polygon fill="midnightblue" stroke="midnightblue" points="514.611,-319.349 504.02,-319.048 512.112,-325.887 514.611,-319.349"/>
</g>
<!-- Node34 -->
<g id="node34" class="node"><title>Node34</title>
<g id="a_node34"><a xlink:href="classfwNetworkIO_1_1exceptions_1_1HostNotFound.html" target="_top" xlink:title="Implements exception for an HTTP host not found errors. ">
<polygon fill="white" stroke="black" points="574,-313 574,-343 702,-343 702,-313 574,-313"/>
<text text-anchor="start" x="582" y="-331" font-family="Helvetica,sans-Serif" font-size="10.00">fwNetworkIO::exceptions</text>
<text text-anchor="middle" x="638" y="-320" font-family="Helvetica,sans-Serif" font-size="10.00">::HostNotFound</text>
</a>
</g>
</g>
<!-- Node31&#45;&gt;Node34 -->
<g id="edge33" class="edge"><title>Node31&#45;&gt;Node34</title>
<path fill="none" stroke="midnightblue" d="M527.234,-313.604C542.638,-315.625 558.763,-317.739 573.763,-319.707"/>
<polygon fill="midnightblue" stroke="midnightblue" points="527.605,-310.123 517.234,-312.293 526.694,-317.064 527.605,-310.123"/>
</g>
<!-- Node36 -->
<g id="node36" class="node"><title>Node36</title>
<g id="a_node36"><a xlink:href="classfwPacsIO_1_1exceptions_1_1NegociateAssociationFailure.html" target="_top" xlink:title="NegociateAssociationFailure Exceptions. ">
<polygon fill="white" stroke="black" points="564.5,-264 564.5,-294 711.5,-294 711.5,-264 564.5,-264"/>
<text text-anchor="start" x="572.5" y="-282" font-family="Helvetica,sans-Serif" font-size="10.00">fwPacsIO::exceptions</text>
<text text-anchor="middle" x="638" y="-271" font-family="Helvetica,sans-Serif" font-size="10.00">::NegociateAssociationFailure</text>
</a>
</g>
</g>
<!-- Node35&#45;&gt;Node36 -->
<g id="edge35" class="edge"><title>Node35&#45;&gt;Node36</title>
<path fill="none" stroke="midnightblue" d="M520.143,-263.674C534.458,-265.552 549.672,-267.547 564.226,-269.456"/>
<polygon fill="midnightblue" stroke="midnightblue" points="520.271,-260.161 509.9,-262.331 519.36,-267.102 520.271,-260.161"/>
</g>
<!-- Node37 -->
<g id="node37" class="node"><title>Node37</title>
<g id="a_node37"><a xlink:href="classfwPacsIO_1_1exceptions_1_1NetworkInitializationFailure.html" target="_top" xlink:title="NetworkInitializationFailure Exceptions. ">
<polygon fill="white" stroke="black" points="568,-215 568,-245 708,-245 708,-215 568,-215"/>
<text text-anchor="start" x="576" y="-233" font-family="Helvetica,sans-Serif" font-size="10.00">fwPacsIO::exceptions</text>
<text text-anchor="middle" x="638" y="-222" font-family="Helvetica,sans-Serif" font-size="10.00">::NetworkInitializationFailure</text>
</a>
</g>
</g>
<!-- Node35&#45;&gt;Node37 -->
<g id="edge36" class="edge"><title>Node35&#45;&gt;Node37</title>
<path fill="none" stroke="midnightblue" d="M519.956,-245.99C535.525,-243.863 552.167,-241.589 567.873,-239.444"/>
<polygon fill="midnightblue" stroke="midnightblue" points="519.335,-242.542 509.9,-247.363 520.282,-249.477 519.335,-242.542"/>
</g>
<!-- Node38 -->
<g id="node38" class="node"><title>Node38</title>
<g id="a_node38"><a xlink:href="classfwPacsIO_1_1exceptions_1_1PresentationContextMissing.html" target="_top" xlink:title="PresentationContextMissing Exceptions. ">
<polygon fill="white" stroke="black" points="565,-166 565,-196 711,-196 711,-166 565,-166"/>
<text text-anchor="start" x="573" y="-184" font-family="Helvetica,sans-Serif" font-size="10.00">fwPacsIO::exceptions</text>
<text text-anchor="middle" x="638" y="-173" font-family="Helvetica,sans-Serif" font-size="10.00">::PresentationContextMissing</text>
</a>
</g>
</g>
<!-- Node35&#45;&gt;Node38 -->
<g id="edge37" class="edge"><title>Node35&#45;&gt;Node38</title>
<path fill="none" stroke="midnightblue" d="M513.856,-236.303C518.706,-234.329 523.476,-232.224 528,-230 545.257,-221.516 546.761,-214.519 564,-206 571.326,-202.38 579.305,-199.065 587.211,-196.116"/>
<polygon fill="midnightblue" stroke="midnightblue" points="512.538,-233.06 504.476,-239.934 515.065,-239.588 512.538,-233.06"/>
</g>
<!-- Node39 -->
<g id="node39" class="node"><title>Node39</title>
<g id="a_node39"><a xlink:href="classfwPacsIO_1_1exceptions_1_1RequestFailure.html" target="_top" xlink:title="RequestFailure Exceptions. ">
<polygon fill="white" stroke="black" points="581.5,-117 581.5,-147 694.5,-147 694.5,-117 581.5,-117"/>
<text text-anchor="start" x="589.5" y="-135" font-family="Helvetica,sans-Serif" font-size="10.00">fwPacsIO::exceptions</text>
<text text-anchor="middle" x="638" y="-124" font-family="Helvetica,sans-Serif" font-size="10.00">::RequestFailure</text>
</a>
</g>
</g>
<!-- Node35&#45;&gt;Node39 -->
<g id="edge38" class="edge"><title>Node35&#45;&gt;Node39</title>
<path fill="none" stroke="midnightblue" d="M518.685,-236.818C521.992,-234.78 525.128,-232.515 528,-230 555.215,-206.168 536.834,-180.889 564,-157 569.131,-152.488 575.114,-148.782 581.407,-145.74"/>
<polygon fill="midnightblue" stroke="midnightblue" points="516.749,-233.885 509.598,-241.703 520.064,-240.051 516.749,-233.885"/>
</g>
<!-- Node40 -->
<g id="node40" class="node"><title>Node40</title>
<g id="a_node40"><a xlink:href="classfwPacsIO_1_1exceptions_1_1TagMissing.html" target="_top" xlink:title="TagMissing Exceptions. ">
<polygon fill="white" stroke="black" points="581.5,-68 581.5,-98 694.5,-98 694.5,-68 581.5,-68"/>
<text text-anchor="start" x="589.5" y="-86" font-family="Helvetica,sans-Serif" font-size="10.00">fwPacsIO::exceptions</text>
<text text-anchor="middle" x="638" y="-75" font-family="Helvetica,sans-Serif" font-size="10.00">::TagMissing</text>
</a>
</g>
</g>
<!-- Node35&#45;&gt;Node40 -->
<g id="edge39" class="edge"><title>Node35&#45;&gt;Node40</title>
<path fill="none" stroke="midnightblue" d="M518.577,-237.83C521.994,-235.539 525.176,-232.943 528,-230 567.441,-188.905 524.391,-147.934 564,-107 568.917,-101.919 574.927,-97.9126 581.366,-94.7545"/>
<polygon fill="midnightblue" stroke="midnightblue" points="516.617,-234.919 509.669,-242.918 520.089,-240.997 516.617,-234.919"/>
</g>
</g>
</svg>
