<?xml version="1.0" encoding="UTF-8" standalone="no"?>
<!DOCTYPE svg PUBLIC "-//W3C//DTD SVG 1.1//EN"
 "http://www.w3.org/Graphics/SVG/1.1/DTD/svg11.dtd">
<!-- Generated by graphviz version 2.36.0 (20140111.2315)
 -->
<!-- Title: Graphical Class Hierarchy Pages: 1 -->
<svg width="448pt" height="224pt"
 viewBox="0.00 0.00 448.00 224.00" xmlns="http://www.w3.org/2000/svg" xmlns:xlink="http://www.w3.org/1999/xlink">
<g id="graph0" class="graph" transform="scale(1 1) rotate(0) translate(4 220)">
<title>Graphical Class Hierarchy</title>
<polygon fill="white" stroke="none" points="-4,4 -4,-220 444,-220 444,4 -4,4"/>
<!-- Node1 -->
<g id="node1" class="node"><title>Node1</title>
<polygon fill="white" stroke="#bfbfbf" points="0,-103.5 0,-122.5 70,-122.5 70,-103.5 0,-103.5"/>
<text text-anchor="middle" x="35" y="-110.5" font-family="Helvetica,sans-Serif" font-size="10.00">ClassVisitor</text>
</g>
<!-- Node2 -->
<g id="node2" class="node"><title>Node2</title>
<g id="a_node2"><a xlink:href="classcamp_1_1ExtendedClassVisitor.html" target="_top" xlink:title="camp::ExtendedClassVisitor">
<polygon fill="white" stroke="black" points="106.5,-103.5 106.5,-122.5 247.5,-122.5 247.5,-103.5 106.5,-103.5"/>
<text text-anchor="middle" x="177" y="-110.5" font-family="Helvetica,sans-Serif" font-size="10.00">camp::ExtendedClassVisitor</text>
</a>
</g>
</g>
<!-- Node1&#45;&gt;Node2 -->
<g id="edge1" class="edge"><title>Node1&#45;&gt;Node2</title>
<path fill="none" stroke="midnightblue" d="M80.4367,-113C88.7497,-113 97.6203,-113 106.481,-113"/>
<polygon fill="midnightblue" stroke="midnightblue" points="80.2479,-109.5 70.2479,-113 80.2478,-116.5 80.2479,-109.5"/>
</g>
<!-- Node3 -->
<g id="node3" class="node"><title>Node3</title>
<g id="a_node3"><a xlink:href="classfwAtomConversion_1_1AtomToDataMappingVisitor.html" target="_top" xlink:title="This visitor visits data object to fill it with associated atom object attributes. This class is used by AtomVisitor to convert an fwData::Object. ">
<polygon fill="white" stroke="black" points="292,-186 292,-216 432,-216 432,-186 292,-186"/>
<text text-anchor="start" x="300" y="-204" font-family="Helvetica,sans-Serif" font-size="10.00">fwAtomConversion::AtomTo</text>
<text text-anchor="middle" x="362" y="-193" font-family="Helvetica,sans-Serif" font-size="10.00">DataMappingVisitor</text>
</a>
</g>
</g>
<!-- Node2&#45;&gt;Node3 -->
<g id="edge2" class="edge"><title>Node2&#45;&gt;Node3</title>
<path fill="none" stroke="midnightblue" d="M200.341,-128.276C221.266,-142.093 253.761,-162.311 284,-176 291.939,-179.594 300.548,-182.913 309.038,-185.88"/>
<polygon fill="midnightblue" stroke="midnightblue" points="202.116,-125.252 191.857,-122.605 198.226,-131.072 202.116,-125.252"/>
</g>
<!-- Node4 -->
<g id="node4" class="node"><title>Node4</title>
<g id="a_node4"><a xlink:href="classfwAtomConversion_1_1DataVisitor.html" target="_top" xlink:title="Visitor used to convert a fwData to a fwAtoms. fwData camp property names are used like key to store ...">
<polygon fill="white" stroke="black" points="284.5,-147.5 284.5,-166.5 439.5,-166.5 439.5,-147.5 284.5,-147.5"/>
<text text-anchor="middle" x="362" y="-154.5" font-family="Helvetica,sans-Serif" font-size="10.00">fwAtomConversion::DataVisitor</text>
</a>
</g>
</g>
<!-- Node2&#45;&gt;Node4 -->
<g id="edge3" class="edge"><title>Node2&#45;&gt;Node4</title>
<path fill="none" stroke="midnightblue" d="M227.78,-124.969C257.195,-132.041 293.929,-140.874 321.369,-147.471"/>
<polygon fill="midnightblue" stroke="midnightblue" points="228.249,-121.482 217.708,-122.547 226.613,-128.288 228.249,-121.482"/>
</g>
<!-- Node5 -->
<g id="node5" class="node"><title>Node5</title>
<g id="a_node5"><a xlink:href="classfwDataCamp_1_1visitor_1_1CompareObjects.html" target="_top" xlink:title="Visitor used to compare two objects. ">
<polygon fill="white" stroke="black" points="308.5,-98 308.5,-128 415.5,-128 415.5,-98 308.5,-98"/>
<text text-anchor="start" x="316.5" y="-116" font-family="Helvetica,sans-Serif" font-size="10.00">fwDataCamp::visitor</text>
<text text-anchor="middle" x="362" y="-105" font-family="Helvetica,sans-Serif" font-size="10.00">::CompareObjects</text>
</a>
</g>
</g>
<!-- Node2&#45;&gt;Node5 -->
<g id="edge4" class="edge"><title>Node2&#45;&gt;Node5</title>
<path fill="none" stroke="midnightblue" d="M258.182,-113C275.149,-113 292.643,-113 308.283,-113"/>
<polygon fill="midnightblue" stroke="midnightblue" points="257.707,-109.5 247.706,-113 257.706,-116.5 257.707,-109.5"/>
</g>
<!-- Node6 -->
<g id="node6" class="node"><title>Node6</title>
<g id="a_node6"><a xlink:href="classfwDataCamp_1_1visitor_1_1GetObject.html" target="_top" xlink:title="This class is an helper to introspect a data and find an object (contained into this data) from a nor...">
<polygon fill="white" stroke="black" points="308.5,-49 308.5,-79 415.5,-79 415.5,-49 308.5,-49"/>
<text text-anchor="start" x="316.5" y="-67" font-family="Helvetica,sans-Serif" font-size="10.00">fwDataCamp::visitor</text>
<text text-anchor="middle" x="362" y="-56" font-family="Helvetica,sans-Serif" font-size="10.00">::GetObject</text>
</a>
</g>
</g>
<!-- Node2&#45;&gt;Node6 -->
<g id="edge5" class="edge"><title>Node2&#45;&gt;Node6</title>
<path fill="none" stroke="midnightblue" d="M223.592,-100.792C249.322,-93.9029 281.589,-85.2631 308.388,-78.0873"/>
<polygon fill="midnightblue" stroke="midnightblue" points="222.473,-97.4685 213.719,-103.436 224.284,-104.23 222.473,-97.4685"/>
</g>
<!-- Node7 -->
<g id="node7" class="node"><title>Node7</title>
<g id="a_node7"><a xlink:href="classfwDataCamp_1_1visitor_1_1RecursiveLock.html" target="_top" xlink:title="This class is an helper to lock an object and all its children recursively. ">
<polygon fill="white" stroke="black" points="308.5,-0 308.5,-30 415.5,-30 415.5,-0 308.5,-0"/>
<text text-anchor="start" x="316.5" y="-18" font-family="Helvetica,sans-Serif" font-size="10.00">fwDataCamp::visitor</text>
<text text-anchor="middle" x="362" y="-7" font-family="Helvetica,sans-Serif" font-size="10.00">::RecursiveLock</text>
</a>
</g>
</g>
<!-- Node2&#45;&gt;Node7 -->
<g id="edge6" class="edge"><title>Node2&#45;&gt;Node7</title>
<path fill="none" stroke="midnightblue" d="M197.298,-97.144C217.767,-80.9605 251.566,-56.0096 284,-40 291.688,-36.2052 300.084,-32.7994 308.414,-29.8127"/>
<polygon fill="midnightblue" stroke="midnightblue" points="194.995,-94.5042 189.384,-103.491 199.375,-99.9648 194.995,-94.5042"/>
</g>
</g>
</svg>
