<?xml version="1.0" encoding="UTF-8" standalone="no"?>
<!DOCTYPE svg PUBLIC "-//W3C//DTD SVG 1.1//EN"
 "http://www.w3.org/Graphics/SVG/1.1/DTD/svg11.dtd">
<!-- Generated by graphviz version 2.26.3 (20100126.1600)
 -->
<!-- Title: Graphical Class Hierarchy Pages: 1 -->
<svg width="264pt" height="56pt"
 viewBox="0.00 0.00 264.00 56.00" xmlns="http://www.w3.org/2000/svg" xmlns:xlink="http://www.w3.org/1999/xlink">
<g id="graph1" class="graph" transform="scale(1 1) rotate(0) translate(4 52)">
<title>Graphical Class Hierarchy</title>
<polygon fill="white" stroke="white" points="-4,5 -4,-52 261,-52 261,5 -4,5"/>
<!-- Node1 -->
<g id="node1" class="node"><title>Node1</title>
<a xlink:href="classfwGdcmIO_1_1reader_1_1ie_1_1InformationEntity.html" target="_top" xlink:title="InformationEntity base class used to read modules. ">
<polygon fill="white" stroke="black" points="0,-0.5 0,-47.5 110,-47.5 110,-0.5 0,-0.5"/>
<text text-anchor="start" x="8" y="-34.5" font-family="Helvetica,sans-Serif" font-size="10.00">fwGdcmIO::reader::ie</text>
<text text-anchor="start" x="8" y="-21.5" font-family="Helvetica,sans-Serif" font-size="10.00">::InformationEntity&lt;</text>
<text text-anchor="middle" x="55" y="-8.5" font-family="Helvetica,sans-Serif" font-size="10.00"> DATATYPE &gt;</text>
</a>
</g>
<!-- Node2 -->
<g id="node3" class="node"><title>Node2</title>
<a xlink:href="classfwGdcmIO_1_1reader_1_1ie_1_1Study.html" target="_top" xlink:title="Study Information Entity class. ">
<polygon fill="white" stroke="black" points="146,-7 146,-41 256,-41 256,-7 146,-7"/>
<text text-anchor="start" x="154" y="-28" font-family="Helvetica,sans-Serif" font-size="10.00">fwGdcmIO::reader::ie</text>
<text text-anchor="middle" x="201" y="-15" font-family="Helvetica,sans-Serif" font-size="10.00">::Study</text>
</a>
</g>
<!-- Node1&#45;&gt;Node2 -->
<g id="edge2" class="edge"><title>Node1&#45;&gt;Node2</title>
<path fill="none" stroke="midnightblue" d="M120.41,-24C128.865,-24 137.457,-24 145.726,-24"/>
<polygon fill="midnightblue" stroke="midnightblue" points="120.196,-20.5001 110.196,-24 120.196,-27.5001 120.196,-20.5001"/>
</g>
</g>
</svg>
