<?xml version="1.0" encoding="UTF-8" standalone="no"?>
<!DOCTYPE svg PUBLIC "-//W3C//DTD SVG 1.1//EN"
 "http://www.w3.org/Graphics/SVG/1.1/DTD/svg11.dtd">
<!-- Generated by graphviz version 2.26.3 (20100126.1600)
 -->
<!-- Title: Graphical Class Hierarchy Pages: 1 -->
<svg width="338pt" height="110pt"
 viewBox="0.00 0.00 338.00 110.00" xmlns="http://www.w3.org/2000/svg" xmlns:xlink="http://www.w3.org/1999/xlink">
<g id="graph1" class="graph" transform="scale(1 1) rotate(0) translate(4 106)">
<title>Graphical Class Hierarchy</title>
<polygon fill="white" stroke="white" points="-4,5 -4,-106 335,-106 335,5 -4,5"/>
<!-- Node1 -->
<g id="node1" class="node"><title>Node1</title>
<a xlink:href="classfwMemory_1_1BufferAllocationPolicy.html" target="_top" xlink:title="fwMemory::BufferAllocation\lPolicy">
<polygon fill="white" stroke="black" points="0.5,-34 0.5,-68 137.5,-68 137.5,-34 0.5,-34"/>
<text text-anchor="start" x="8.5" y="-55" font-family="Helvetica,sans-Serif" font-size="10.00">fwMemory::BufferAllocation</text>
<text text-anchor="middle" x="69" y="-42" font-family="Helvetica,sans-Serif" font-size="10.00">Policy</text>
</a>
</g>
<!-- Node2 -->
<g id="node3" class="node"><title>Node2</title>
<a xlink:href="classfwMemory_1_1BufferMallocPolicy.html" target="_top" xlink:title="fwMemory::BufferMallocPolicy">
<polygon fill="white" stroke="black" points="177,-80.5 177,-101.5 327,-101.5 327,-80.5 177,-80.5"/>
<text text-anchor="middle" x="252" y="-88.5" font-family="Helvetica,sans-Serif" font-size="10.00">fwMemory::BufferMallocPolicy</text>
</a>
</g>
<!-- Node1&#45;&gt;Node2 -->
<g id="edge2" class="edge"><title>Node1&#45;&gt;Node2</title>
<path fill="none" stroke="midnightblue" d="M147.57,-68.1738C166.683,-72.3515 186.564,-76.6972 203.787,-80.4617"/>
<polygon fill="midnightblue" stroke="midnightblue" points="148.18,-64.7245 137.663,-66.0083 146.685,-71.5631 148.18,-64.7245"/>
</g>
<!-- Node3 -->
<g id="node5" class="node"><title>Node3</title>
<a xlink:href="classfwMemory_1_1BufferNewPolicy.html" target="_top" xlink:title="fwMemory::BufferNewPolicy">
<polygon fill="white" stroke="black" points="181,-40.5 181,-61.5 323,-61.5 323,-40.5 181,-40.5"/>
<text text-anchor="middle" x="252" y="-48.5" font-family="Helvetica,sans-Serif" font-size="10.00">fwMemory::BufferNewPolicy</text>
</a>
</g>
<!-- Node1&#45;&gt;Node3 -->
<g id="edge4" class="edge"><title>Node1&#45;&gt;Node3</title>
<path fill="none" stroke="midnightblue" d="M147.684,-51C158.693,-51 169.955,-51 180.815,-51"/>
<polygon fill="midnightblue" stroke="midnightblue" points="147.663,-47.5001 137.663,-51 147.663,-54.5001 147.663,-47.5001"/>
</g>
<!-- Node4 -->
<g id="node7" class="node"><title>Node4</title>
<a xlink:href="classfwMemory_1_1BufferNoAllocPolicy.html" target="_top" xlink:title="fwMemory::BufferNoAllocPolicy">
<polygon fill="white" stroke="black" points="174,-0.5 174,-21.5 330,-21.5 330,-0.5 174,-0.5"/>
<text text-anchor="middle" x="252" y="-8.5" font-family="Helvetica,sans-Serif" font-size="10.00">fwMemory::BufferNoAllocPolicy</text>
</a>
</g>
<!-- Node1&#45;&gt;Node4 -->
<g id="edge6" class="edge"><title>Node1&#45;&gt;Node4</title>
<path fill="none" stroke="midnightblue" d="M147.57,-33.8262C166.683,-29.6485 186.564,-25.3028 203.787,-21.5383"/>
<polygon fill="midnightblue" stroke="midnightblue" points="146.685,-30.4369 137.663,-35.9917 148.18,-37.2755 146.685,-30.4369"/>
</g>
</g>
</svg>
