<?xml version="1.0" encoding="UTF-8" standalone="no"?>
<!DOCTYPE svg PUBLIC "-//W3C//DTD SVG 1.1//EN"
 "http://www.w3.org/Graphics/SVG/1.1/DTD/svg11.dtd">
<!-- Generated by graphviz version 2.26.3 (20100126.1600)
 -->
<!-- Title: Graphical Class Hierarchy Pages: 1 -->
<svg width="598pt" height="2118pt"
 viewBox="0.00 0.00 598.00 2118.00" xmlns="http://www.w3.org/2000/svg" xmlns:xlink="http://www.w3.org/1999/xlink">
<g id="graph1" class="graph" transform="scale(1 1) rotate(0) translate(4 2114)">
<title>Graphical Class Hierarchy</title>
<polygon fill="white" stroke="white" points="-4,5 -4,-2114 595,-2114 595,5 -4,5"/>
<!-- Node1 -->
<g id="node1" class="node"><title>Node1</title>
<a xlink:href="structfwRuntime_1_1IExecutable.html" target="_top" xlink:title="Defines the base executable interface.An executable object is an instance created by an extension poi...">
<polygon fill="white" stroke="black" points="0,-1076.5 0,-1097.5 122,-1097.5 122,-1076.5 0,-1076.5"/>
<text text-anchor="middle" x="61" y="-1084.5" font-family="Helvetica,sans-Serif" font-size="10.00">fwRuntime::IExecutable</text>
</a>
</g>
<!-- Node2 -->
<g id="node3" class="node"><title>Node2</title>
<a xlink:href="structfwRuntime_1_1Executable.html" target="_top" xlink:title="Provides a default fwRuntime::IExecutable interface implementation.This class provides a default impl...">
<polygon fill="white" stroke="black" points="158.5,-1096.5 158.5,-1117.5 277.5,-1117.5 277.5,-1096.5 158.5,-1096.5"/>
<text text-anchor="middle" x="218" y="-1104.5" font-family="Helvetica,sans-Serif" font-size="10.00">fwRuntime::Executable</text>
</a>
</g>
<!-- Node1&#45;&gt;Node2 -->
<g id="edge2" class="edge"><title>Node1&#45;&gt;Node2</title>
<path fill="none" stroke="midnightblue" d="M132.282,-1096.08C140.981,-1097.19 149.8,-1098.31 158.306,-1099.4"/>
<polygon fill="midnightblue" stroke="midnightblue" points="132.512,-1092.58 122.15,-1094.79 131.627,-1099.53 132.512,-1092.58"/>
</g>
<!-- Node3 -->
<g id="node5" class="node"><title>Node3</title>
<a xlink:href="structfwRuntime_1_1IPlugin.html" target="_top" xlink:title="Defines the plugin interface. ">
<polygon fill="white" stroke="black" points="168,-1056.5 168,-1077.5 268,-1077.5 268,-1056.5 168,-1056.5"/>
<text text-anchor="middle" x="218" y="-1064.5" font-family="Helvetica,sans-Serif" font-size="10.00">fwRuntime::IPlugin</text>
</a>
</g>
<!-- Node1&#45;&gt;Node3 -->
<g id="edge4" class="edge"><title>Node1&#45;&gt;Node3</title>
<path fill="none" stroke="midnightblue" d="M132.199,-1077.93C144.258,-1076.39 156.549,-1074.83 167.92,-1073.38"/>
<polygon fill="midnightblue" stroke="midnightblue" points="131.627,-1074.47 122.15,-1079.21 132.512,-1081.42 131.627,-1074.47"/>
</g>
<!-- Node4 -->
<g id="node7" class="node"><title>Node4</title>
<a xlink:href="structfwRuntime_1_1Plugin.html" target="_top" xlink:title="Provides a default plugin implementation.This class is intended to be sub&#45;classed. The IPlugin::start and IPlugin::stop function must be implemented. ">
<polygon fill="white" stroke="black" points="314.5,-1056.5 314.5,-1077.5 411.5,-1077.5 411.5,-1056.5 314.5,-1056.5"/>
<text text-anchor="middle" x="363" y="-1064.5" font-family="Helvetica,sans-Serif" font-size="10.00">fwRuntime::Plugin</text>
</a>
</g>
<!-- Node3&#45;&gt;Node4 -->
<g id="edge6" class="edge"><title>Node3&#45;&gt;Node4</title>
<path fill="none" stroke="midnightblue" d="M278.605,-1067C290.489,-1067 302.812,-1067 314.249,-1067"/>
<polygon fill="midnightblue" stroke="midnightblue" points="278.307,-1063.5 268.307,-1067 278.307,-1070.5 278.307,-1063.5"/>
</g>
<!-- Node5 -->
<g id="node9" class="node"><title>Node5</title>
<a xlink:href="structactivities_1_1Plugin.html" target="_top" xlink:title="activities::Plugin">
<polygon fill="white" stroke="black" points="474.5,-2088.5 474.5,-2109.5 563.5,-2109.5 563.5,-2088.5 474.5,-2088.5"/>
<text text-anchor="middle" x="519" y="-2096.5" font-family="Helvetica,sans-Serif" font-size="10.00">activities::Plugin</text>
</a>
</g>
<!-- Node4&#45;&gt;Node5 -->
<g id="edge8" class="edge"><title>Node4&#45;&gt;Node5</title>
<path fill="none" stroke="midnightblue" d="M363.346,-1087.78C365.812,-1225.15 382.571,-1999.73 448,-2079 454.684,-2087.1 464.371,-2092.06 474.451,-2095.07"/>
<polygon fill="midnightblue" stroke="midnightblue" points="366.845,-1087.67 363.171,-1077.73 359.846,-1087.79 366.845,-1087.67"/>
</g>
<!-- Node6 -->
<g id="node11" class="node"><title>Node6</title>
<a xlink:href="classappXml2_1_1Plugin.html" target="_top" xlink:title="This class is started when the bundles is loaded. ">
<polygon fill="white" stroke="black" points="475,-2048.5 475,-2069.5 563,-2069.5 563,-2048.5 475,-2048.5"/>
<text text-anchor="middle" x="519" y="-2056.5" font-family="Helvetica,sans-Serif" font-size="10.00">appXml2::Plugin</text>
</a>
</g>
<!-- Node4&#45;&gt;Node6 -->
<g id="edge10" class="edge"><title>Node4&#45;&gt;Node6</title>
<path fill="none" stroke="midnightblue" d="M363.421,-1087.77C366.324,-1221.96 385.137,-1963.1 448,-2039 454.78,-2047.19 464.627,-2052.17 474.839,-2055.16"/>
<polygon fill="midnightblue" stroke="midnightblue" points="366.917,-1087.54 363.208,-1077.62 359.919,-1087.69 366.917,-1087.54"/>
</g>
<!-- Node7 -->
<g id="node13" class="node"><title>Node7</title>
<a xlink:href="classappXml_1_1Plugin.html" target="_top" xlink:title="This class is started when the bundles is loaded. ">
<polygon fill="white" stroke="black" points="477.5,-2008.5 477.5,-2029.5 560.5,-2029.5 560.5,-2008.5 477.5,-2008.5"/>
<text text-anchor="middle" x="519" y="-2016.5" font-family="Helvetica,sans-Serif" font-size="10.00">appXml::Plugin</text>
</a>
</g>
<!-- Node4&#45;&gt;Node7 -->
<g id="edge12" class="edge"><title>Node4&#45;&gt;Node7</title>
<path fill="none" stroke="midnightblue" d="M363.513,-1088.13C366.895,-1219.98 387.755,-1926.54 448,-1999 455.368,-2007.86 466.331,-2012.97 477.45,-2015.86"/>
<polygon fill="midnightblue" stroke="midnightblue" points="367.003,-1087.71 363.254,-1077.8 360.005,-1087.88 367.003,-1087.71"/>
</g>
<!-- Node8 -->
<g id="node15" class="node"><title>Node8</title>
<a xlink:href="structbasicRegistration_1_1Plugin.html" target="_top" xlink:title="This class is started when the bundle is loaded. ">
<polygon fill="white" stroke="black" points="470,-1956 470,-1990 568,-1990 568,-1956 470,-1956"/>
<text text-anchor="start" x="478" y="-1977" font-family="Helvetica,sans-Serif" font-size="10.00">basicRegistration::</text>
<text text-anchor="middle" x="519" y="-1964" font-family="Helvetica,sans-Serif" font-size="10.00">Plugin</text>
</a>
</g>
<!-- Node4&#45;&gt;Node8 -->
<g id="edge14" class="edge"><title>Node4&#45;&gt;Node8</title>
<path fill="none" stroke="midnightblue" d="M363.706,-1088.07C368.141,-1215.19 393.726,-1876.78 448,-1947 453.619,-1954.27 461.474,-1959.51 469.922,-1963.28"/>
<polygon fill="midnightblue" stroke="midnightblue" points="367.194,-1087.63 363.353,-1077.76 360.198,-1087.87 367.194,-1087.63"/>
</g>
<!-- Node9 -->
<g id="node17" class="node"><title>Node9</title>
<a xlink:href="structctrlCamp_1_1Plugin.html" target="_top" xlink:title="This class is started when the bundles is loaded. ">
<polygon fill="white" stroke="black" points="474.5,-1916.5 474.5,-1937.5 563.5,-1937.5 563.5,-1916.5 474.5,-1916.5"/>
<text text-anchor="middle" x="519" y="-1924.5" font-family="Helvetica,sans-Serif" font-size="10.00">ctrlCamp::Plugin</text>
</a>
</g>
<!-- Node4&#45;&gt;Node9 -->
<g id="edge16" class="edge"><title>Node4&#45;&gt;Node9</title>
<path fill="none" stroke="midnightblue" d="M363.727,-1087.93C368.202,-1211.46 393.609,-1842.23 448,-1907 454.671,-1914.94 464.228,-1919.86 474.178,-1922.88"/>
<polygon fill="midnightblue" stroke="midnightblue" points="367.213,-1087.46 363.359,-1077.59 360.218,-1087.71 367.213,-1087.46"/>
</g>
<!-- Node10 -->
<g id="node19" class="node"><title>Node10</title>
<a xlink:href="classctrlMemory_1_1Plugin.html" target="_top" xlink:title="ctrlMemory::Plugin">
<polygon fill="white" stroke="black" points="470,-1876.5 470,-1897.5 568,-1897.5 568,-1876.5 470,-1876.5"/>
<text text-anchor="middle" x="519" y="-1884.5" font-family="Helvetica,sans-Serif" font-size="10.00">ctrlMemory::Plugin</text>
</a>
</g>
<!-- Node4&#45;&gt;Node10 -->
<g id="edge18" class="edge"><title>Node4&#45;&gt;Node10</title>
<path fill="none" stroke="midnightblue" d="M363.828,-1087.68C368.791,-1207.12 396.127,-1805.54 448,-1867 453.699,-1873.75 461.484,-1878.32 469.817,-1881.38"/>
<polygon fill="midnightblue" stroke="midnightblue" points="367.324,-1087.5 363.418,-1077.65 360.33,-1087.79 367.324,-1087.5"/>
</g>
<!-- Node11 -->
<g id="node21" class="node"><title>Node11</title>
<a xlink:href="classctrlSelection_1_1Plugin.html" target="_top" xlink:title="ctrlSelection::Plugin">
<polygon fill="white" stroke="black" points="467,-1836.5 467,-1857.5 571,-1857.5 571,-1836.5 467,-1836.5"/>
<text text-anchor="middle" x="519" y="-1844.5" font-family="Helvetica,sans-Serif" font-size="10.00">ctrlSelection::Plugin</text>
</a>
</g>
<!-- Node4&#45;&gt;Node11 -->
<g id="edge20" class="edge"><title>Node4&#45;&gt;Node11</title>
<path fill="none" stroke="midnightblue" d="M363.952,-1087.72C369.455,-1203.66 398.683,-1768.9 448,-1827 453.055,-1832.96 459.732,-1837.21 466.972,-1840.23"/>
<polygon fill="midnightblue" stroke="midnightblue" points="367.445,-1087.49 363.481,-1077.67 360.453,-1087.82 367.445,-1087.49"/>
</g>
<!-- Node12 -->
<g id="node23" class="node"><title>Node12</title>
<a xlink:href="structdataReg_1_1Plugin.html" target="_top" xlink:title="This class is started when the bundles is loaded. ">
<polygon fill="white" stroke="black" points="476,-1796.5 476,-1817.5 562,-1817.5 562,-1796.5 476,-1796.5"/>
<text text-anchor="middle" x="519" y="-1804.5" font-family="Helvetica,sans-Serif" font-size="10.00">dataReg::Plugin</text>
</a>
</g>
<!-- Node4&#45;&gt;Node12 -->
<g id="edge22" class="edge"><title>Node4&#45;&gt;Node12</title>
<path fill="none" stroke="midnightblue" d="M364.084,-1087.67C370.143,-1199.82 401.223,-1732.23 448,-1787 455.069,-1795.28 465.272,-1800.26 475.747,-1803.23"/>
<polygon fill="midnightblue" stroke="midnightblue" points="367.577,-1087.44 363.549,-1077.64 360.587,-1087.81 367.577,-1087.44"/>
</g>
<!-- Node13 -->
<g id="node25" class="node"><title>Node13</title>
<a xlink:href="classfilterVRRender_1_1Plugin.html" target="_top" xlink:title="filterVRRender::Plugin">
<polygon fill="white" stroke="black" points="462,-1756.5 462,-1777.5 576,-1777.5 576,-1756.5 462,-1756.5"/>
<text text-anchor="middle" x="519" y="-1764.5" font-family="Helvetica,sans-Serif" font-size="10.00">filterVRRender::Plugin</text>
</a>
</g>
<!-- Node4&#45;&gt;Node13 -->
<g id="edge24" class="edge"><title>Node4&#45;&gt;Node13</title>
<path fill="none" stroke="midnightblue" d="M364.246,-1087.86C370.92,-1196.61 403.792,-1695.6 448,-1747 451.841,-1751.47 456.594,-1754.97 461.808,-1757.72"/>
<polygon fill="midnightblue" stroke="midnightblue" points="367.721,-1087.34 363.622,-1077.57 360.734,-1087.76 367.721,-1087.34"/>
</g>
<!-- Node14 -->
<g id="node27" class="node"><title>Node14</title>
<a xlink:href="structfwRuntime_1_1EmptyPlugin.html" target="_top" xlink:title="Implements a default plugin for bundles that don&#39;t provide a fwRuntime::IPlugin interface implementat...">
<polygon fill="white" stroke="black" points="456.5,-1716.5 456.5,-1737.5 581.5,-1737.5 581.5,-1716.5 456.5,-1716.5"/>
<text text-anchor="middle" x="519" y="-1724.5" font-family="Helvetica,sans-Serif" font-size="10.00">fwRuntime::EmptyPlugin</text>
</a>
</g>
<!-- Node4&#45;&gt;Node14 -->
<g id="edge26" class="edge"><title>Node4&#45;&gt;Node14</title>
<path fill="none" stroke="midnightblue" d="M364.422,-1087.94C371.731,-1192.93 406.34,-1658.93 448,-1707 451.271,-1710.77 455.193,-1713.86 459.492,-1716.39"/>
<polygon fill="midnightblue" stroke="midnightblue" points="367.896,-1087.43 363.716,-1077.7 360.912,-1087.91 367.896,-1087.43"/>
</g>
<!-- Node15 -->
<g id="node29" class="node"><title>Node15</title>
<a xlink:href="classgui_1_1Plugin.html" target="_top" xlink:title="This class is called when the gui bundle is loaded. ">
<polygon fill="white" stroke="black" points="488,-1676.5 488,-1697.5 550,-1697.5 550,-1676.5 488,-1676.5"/>
<text text-anchor="middle" x="519" y="-1684.5" font-family="Helvetica,sans-Serif" font-size="10.00">gui::Plugin</text>
</a>
</g>
<!-- Node4&#45;&gt;Node15 -->
<g id="edge28" class="edge"><title>Node4&#45;&gt;Node15</title>
<path fill="none" stroke="midnightblue" d="M364.587,-1087.57C372.495,-1187.83 408.825,-1622.2 448,-1667 457.862,-1678.28 473.54,-1683.43 487.658,-1685.69"/>
<polygon fill="midnightblue" stroke="midnightblue" points="368.069,-1087.21 363.801,-1077.51 361.091,-1087.75 368.069,-1087.21"/>
</g>
<!-- Node16 -->
<g id="node31" class="node"><title>Node16</title>
<a xlink:href="classguiQt_1_1Plugin.html" target="_top" xlink:title="This class is called when the guiQt bundle is loaded. ">
<polygon fill="white" stroke="black" points="482.5,-1636.5 482.5,-1657.5 555.5,-1657.5 555.5,-1636.5 482.5,-1636.5"/>
<text text-anchor="middle" x="519" y="-1644.5" font-family="Helvetica,sans-Serif" font-size="10.00">guiQt::Plugin</text>
</a>
</g>
<!-- Node4&#45;&gt;Node16 -->
<g id="edge30" class="edge"><title>Node4&#45;&gt;Node16</title>
<path fill="none" stroke="midnightblue" d="M363.246,-1087.87C364.748,-1179.43 375.276,-1544.65 448,-1627 456.647,-1636.79 469.674,-1641.95 482.219,-1644.62"/>
<polygon fill="midnightblue" stroke="midnightblue" points="366.743,-1087.62 363.099,-1077.67 359.743,-1087.72 366.743,-1087.62"/>
</g>
<!-- Node17 -->
<g id="node33" class="node"><title>Node17</title>
<a xlink:href="structio_1_1Plugin.html" target="_top" xlink:title="Implements a plugin for the io bundle. ">
<polygon fill="white" stroke="black" points="490.5,-1596.5 490.5,-1617.5 547.5,-1617.5 547.5,-1596.5 490.5,-1596.5"/>
<text text-anchor="middle" x="519" y="-1604.5" font-family="Helvetica,sans-Serif" font-size="10.00">io::Plugin</text>
</a>
</g>
<!-- Node4&#45;&gt;Node17 -->
<g id="edge32" class="edge"><title>Node4&#45;&gt;Node17</title>
<path fill="none" stroke="midnightblue" d="M363.511,-1087.77C366.077,-1175.06 380.275,-1511.19 448,-1587 458.579,-1598.84 475.568,-1603.9 490.275,-1605.98"/>
<polygon fill="midnightblue" stroke="midnightblue" points="367.01,-1087.67 363.237,-1077.77 360.012,-1087.86 367.01,-1087.67"/>
</g>
<!-- Node18 -->
<g id="node35" class="node"><title>Node18</title>
<a xlink:href="classioAtoms_1_1Plugin.html" target="_top" xlink:title="ioAtoms::Plugin">
<polygon fill="white" stroke="black" points="476,-1556.5 476,-1577.5 562,-1577.5 562,-1556.5 476,-1556.5"/>
<text text-anchor="middle" x="519" y="-1564.5" font-family="Helvetica,sans-Serif" font-size="10.00">ioAtoms::Plugin</text>
</a>
</g>
<!-- Node4&#45;&gt;Node18 -->
<g id="edge34" class="edge"><title>Node4&#45;&gt;Node18</title>
<path fill="none" stroke="midnightblue" d="M363.832,-1088C367.552,-1171.37 385.345,-1477.79 448,-1547 455.22,-1554.97 465.346,-1559.87 475.693,-1562.85"/>
<polygon fill="midnightblue" stroke="midnightblue" points="367.318,-1087.61 363.397,-1077.77 360.324,-1087.91 367.318,-1087.61"/>
</g>
<!-- Node19 -->
<g id="node37" class="node"><title>Node19</title>
<a xlink:href="structioData_1_1Plugin.html" target="_top" xlink:title="ioData::Plugin">
<polygon fill="white" stroke="black" points="480,-1516.5 480,-1537.5 558,-1537.5 558,-1516.5 480,-1516.5"/>
<text text-anchor="middle" x="519" y="-1524.5" font-family="Helvetica,sans-Serif" font-size="10.00">ioData::Plugin</text>
</a>
</g>
<!-- Node4&#45;&gt;Node19 -->
<g id="edge36" class="edge"><title>Node4&#45;&gt;Node19</title>
<path fill="none" stroke="midnightblue" d="M364.185,-1087.75C369.083,-1166.31 390.277,-1444.23 448,-1507 456.235,-1515.96 468.135,-1521.02 479.847,-1523.84"/>
<polygon fill="midnightblue" stroke="midnightblue" points="367.672,-1087.43 363.578,-1077.66 360.685,-1087.85 367.672,-1087.43"/>
</g>
<!-- Node20 -->
<g id="node39" class="node"><title>Node20</title>
<a xlink:href="structioDcmtk_1_1Plugin.html" target="_top" xlink:title="ioDcmtk::Plugin">
<polygon fill="white" stroke="black" points="476,-1476.5 476,-1497.5 562,-1497.5 562,-1476.5 476,-1476.5"/>
<text text-anchor="middle" x="519" y="-1484.5" font-family="Helvetica,sans-Serif" font-size="10.00">ioDcmtk::Plugin</text>
</a>
</g>
<!-- Node4&#45;&gt;Node20 -->
<g id="edge38" class="edge"><title>Node4&#45;&gt;Node20</title>
<path fill="none" stroke="midnightblue" d="M364.659,-1088.21C370.903,-1162.7 395.361,-1410.81 448,-1467 455.355,-1474.85 465.527,-1479.7 475.876,-1482.68"/>
<polygon fill="midnightblue" stroke="midnightblue" points="368.112,-1087.49 363.812,-1077.81 361.135,-1088.06 368.112,-1087.49"/>
</g>
<!-- Node21 -->
<g id="node41" class="node"><title>Node21</title>
<a xlink:href="structioDicom_1_1Plugin.html" target="_top" xlink:title="ioDicom::Plugin">
<polygon fill="white" stroke="black" points="476,-1436.5 476,-1457.5 562,-1457.5 562,-1436.5 476,-1436.5"/>
<text text-anchor="middle" x="519" y="-1444.5" font-family="Helvetica,sans-Serif" font-size="10.00">ioDicom::Plugin</text>
</a>
</g>
<!-- Node4&#45;&gt;Node21 -->
<g id="edge40" class="edge"><title>Node4&#45;&gt;Node21</title>
<path fill="none" stroke="midnightblue" d="M365.164,-1087.88C372.74,-1157.05 400.232,-1377.15 448,-1427 455.442,-1434.77 465.645,-1439.59 475.995,-1442.57"/>
<polygon fill="midnightblue" stroke="midnightblue" points="368.628,-1087.36 364.084,-1077.79 361.668,-1088.1 368.628,-1087.36"/>
</g>
<!-- Node22 -->
<g id="node43" class="node"><title>Node22</title>
<a xlink:href="structioGdcm_1_1Plugin.html" target="_top" xlink:title="ioGdcm::Plugin">
<polygon fill="white" stroke="black" points="477.5,-1396.5 477.5,-1417.5 560.5,-1417.5 560.5,-1396.5 477.5,-1396.5"/>
<text text-anchor="middle" x="519" y="-1404.5" font-family="Helvetica,sans-Serif" font-size="10.00">ioGdcm::Plugin</text>
</a>
</g>
<!-- Node4&#45;&gt;Node22 -->
<g id="edge42" class="edge"><title>Node4&#45;&gt;Node22</title>
<path fill="none" stroke="midnightblue" d="M365.787,-1087.6C374.801,-1151.31 405.092,-1343.45 448,-1387 455.819,-1394.94 466.524,-1399.79 477.249,-1402.74"/>
<polygon fill="midnightblue" stroke="midnightblue" points="369.237,-1087 364.395,-1077.58 362.303,-1087.96 369.237,-1087"/>
</g>
<!-- Node23 -->
<g id="node45" class="node"><title>Node23</title>
<a xlink:href="structioITK_1_1Plugin.html" target="_top" xlink:title="This class is started when the bundles is loaded. ">
<polygon fill="white" stroke="black" points="482.5,-1356.5 482.5,-1377.5 555.5,-1377.5 555.5,-1356.5 482.5,-1356.5"/>
<text text-anchor="middle" x="519" y="-1364.5" font-family="Helvetica,sans-Serif" font-size="10.00">ioITK::Plugin</text>
</a>
</g>
<!-- Node4&#45;&gt;Node23 -->
<g id="edge44" class="edge"><title>Node4&#45;&gt;Node23</title>
<path fill="none" stroke="midnightblue" d="M366.633,-1087.67C377.268,-1145.95 409.995,-1309.75 448,-1347 457.146,-1355.96 469.981,-1360.98 482.226,-1363.76"/>
<polygon fill="midnightblue" stroke="midnightblue" points="370.069,-1087.01 364.856,-1077.78 363.179,-1088.24 370.069,-1087.01"/>
</g>
<!-- Node24 -->
<g id="node47" class="node"><title>Node24</title>
<a xlink:href="structioPacs_1_1Plugin.html" target="_top" xlink:title="ioPacs::Plugin">
<polygon fill="white" stroke="black" points="479,-1316.5 479,-1337.5 559,-1337.5 559,-1316.5 479,-1316.5"/>
<text text-anchor="middle" x="519" y="-1324.5" font-family="Helvetica,sans-Serif" font-size="10.00">ioPacs::Plugin</text>
</a>
</g>
<!-- Node4&#45;&gt;Node24 -->
<g id="edge46" class="edge"><title>Node4&#45;&gt;Node24</title>
<path fill="none" stroke="midnightblue" d="M364.158,-1087.75C367.885,-1134.07 383.462,-1246.58 448,-1307 456.413,-1314.88 467.687,-1319.69 478.769,-1322.61"/>
<polygon fill="midnightblue" stroke="midnightblue" points="367.645,-1087.44 363.457,-1077.71 360.662,-1087.93 367.645,-1087.44"/>
</g>
<!-- Node25 -->
<g id="node49" class="node"><title>Node25</title>
<a xlink:href="structioQt_1_1Plugin.html" target="_top" xlink:title="ioQt::Plugin">
<polygon fill="white" stroke="black" points="485,-1276.5 485,-1297.5 553,-1297.5 553,-1276.5 485,-1276.5"/>
<text text-anchor="middle" x="519" y="-1284.5" font-family="Helvetica,sans-Serif" font-size="10.00">ioQt::Plugin</text>
</a>
</g>
<!-- Node4&#45;&gt;Node25 -->
<g id="edge48" class="edge"><title>Node4&#45;&gt;Node25</title>
<path fill="none" stroke="midnightblue" d="M365.803,-1087.57C372.427,-1128.08 392.861,-1218.47 448,-1267 458.19,-1275.97 472.114,-1280.94 484.933,-1283.68"/>
<polygon fill="midnightblue" stroke="midnightblue" points="369.242,-1086.9 364.283,-1077.54 362.321,-1087.95 369.242,-1086.9"/>
</g>
<!-- Node26 -->
<g id="node51" class="node"><title>Node26</title>
<a xlink:href="structioTuto_1_1Plugin.html" target="_top" xlink:title="ioTuto::Plugin">
<polygon fill="white" stroke="black" points="480.5,-1236.5 480.5,-1257.5 557.5,-1257.5 557.5,-1236.5 480.5,-1236.5"/>
<text text-anchor="middle" x="519" y="-1244.5" font-family="Helvetica,sans-Serif" font-size="10.00">ioTuto::Plugin</text>
</a>
</g>
<!-- Node4&#45;&gt;Node26 -->
<g id="edge50" class="edge"><title>Node4&#45;&gt;Node26</title>
<path fill="none" stroke="midnightblue" d="M368.25,-1087.68C378.017,-1121.88 402.261,-1190.12 448,-1227 457.172,-1234.39 468.921,-1239.06 480.211,-1242"/>
<polygon fill="midnightblue" stroke="midnightblue" points="371.58,-1086.58 365.579,-1077.85 364.825,-1088.42 371.58,-1086.58"/>
</g>
<!-- Node27 -->
<g id="node53" class="node"><title>Node27</title>
<a xlink:href="classioVTK_1_1Plugin.html" target="_top" xlink:title="ioVTK::Plugin">
<polygon fill="white" stroke="black" points="480.5,-1196.5 480.5,-1217.5 557.5,-1217.5 557.5,-1196.5 480.5,-1196.5"/>
<text text-anchor="middle" x="519" y="-1204.5" font-family="Helvetica,sans-Serif" font-size="10.00">ioVTK::Plugin</text>
</a>
</g>
<!-- Node4&#45;&gt;Node27 -->
<g id="edge52" class="edge"><title>Node4&#45;&gt;Node27</title>
<path fill="none" stroke="midnightblue" d="M371.858,-1087.03C384.742,-1113.84 411.192,-1161.03 448,-1187 457.521,-1193.72 469.245,-1198.19 480.402,-1201.16"/>
<polygon fill="midnightblue" stroke="midnightblue" points="374.977,-1085.44 367.592,-1077.84 368.627,-1088.39 374.977,-1085.44"/>
</g>
<!-- Node28 -->
<g id="node55" class="node"><title>Node28</title>
<a xlink:href="structioVtkGdcm_1_1Plugin.html" target="_top" xlink:title="This class is started when the bundles is loaded. ">
<polygon fill="white" stroke="black" points="470,-1156.5 470,-1177.5 568,-1177.5 568,-1156.5 470,-1156.5"/>
<text text-anchor="middle" x="519" y="-1164.5" font-family="Helvetica,sans-Serif" font-size="10.00">ioVtkGdcm::Plugin</text>
</a>
</g>
<!-- Node4&#45;&gt;Node28 -->
<g id="edge54" class="edge"><title>Node4&#45;&gt;Node28</title>
<path fill="none" stroke="midnightblue" d="M378.035,-1085.63C393.682,-1103.83 419.807,-1131.05 448,-1147 454.688,-1150.78 462.141,-1153.89 469.633,-1156.43"/>
<polygon fill="midnightblue" stroke="midnightblue" points="380.337,-1082.93 371.232,-1077.51 374.971,-1087.42 380.337,-1082.93"/>
</g>
<!-- Node29 -->
<g id="node57" class="node"><title>Node29</title>
<a xlink:href="structmemory_1_1Plugin.html" target="_top" xlink:title="Implements a plugin for the memory bundle. ">
<polygon fill="white" stroke="black" points="476.5,-1116.5 476.5,-1137.5 561.5,-1137.5 561.5,-1116.5 476.5,-1116.5"/>
<text text-anchor="middle" x="519" y="-1124.5" font-family="Helvetica,sans-Serif" font-size="10.00">memory::Plugin</text>
</a>
</g>
<!-- Node4&#45;&gt;Node29 -->
<g id="edge56" class="edge"><title>Node4&#45;&gt;Node29</title>
<path fill="none" stroke="midnightblue" d="M392.163,-1082.19C408.335,-1090.24 428.968,-1099.9 448,-1107 457.238,-1110.45 467.342,-1113.63 476.956,-1116.4"/>
<polygon fill="midnightblue" stroke="midnightblue" points="393.708,-1079.05 383.203,-1077.67 390.555,-1085.3 393.708,-1079.05"/>
</g>
<!-- Node30 -->
<g id="node59" class="node"><title>Node30</title>
<a xlink:href="structmonitor_1_1Plugin.html" target="_top" xlink:title="Class called when the bundle is loaded and stopped. ">
<polygon fill="white" stroke="black" points="478,-1076.5 478,-1097.5 560,-1097.5 560,-1076.5 478,-1076.5"/>
<text text-anchor="middle" x="519" y="-1084.5" font-family="Helvetica,sans-Serif" font-size="10.00">monitor::Plugin</text>
</a>
</g>
<!-- Node4&#45;&gt;Node30 -->
<g id="edge58" class="edge"><title>Node4&#45;&gt;Node30</title>
<path fill="none" stroke="midnightblue" d="M421.445,-1074.49C440.223,-1076.9 460.618,-1079.52 477.882,-1081.73"/>
<polygon fill="midnightblue" stroke="midnightblue" points="421.868,-1071.02 411.504,-1073.22 420.978,-1077.96 421.868,-1071.02"/>
</g>
<!-- Node31 -->
<g id="node61" class="node"><title>Node31</title>
<a xlink:href="structopImageFilter_1_1Plugin.html" target="_top" xlink:title="Implements a plugin for the opImageFilter bundle. ">
<polygon fill="white" stroke="black" points="464.5,-1036.5 464.5,-1057.5 573.5,-1057.5 573.5,-1036.5 464.5,-1036.5"/>
<text text-anchor="middle" x="519" y="-1044.5" font-family="Helvetica,sans-Serif" font-size="10.00">opImageFilter::Plugin</text>
</a>
</g>
<!-- Node4&#45;&gt;Node31 -->
<g id="edge60" class="edge"><title>Node4&#45;&gt;Node31</title>
<path fill="none" stroke="midnightblue" d="M421.519,-1059.5C435.529,-1057.7 450.435,-1055.79 464.266,-1054.02"/>
<polygon fill="midnightblue" stroke="midnightblue" points="420.978,-1056.04 411.504,-1060.78 421.868,-1062.98 420.978,-1056.04"/>
</g>
<!-- Node32 -->
<g id="node63" class="node"><title>Node32</title>
<a xlink:href="structopVTKMesh_1_1Plugin.html" target="_top" xlink:title="Implements a plugin for the opVTKMesh bundle. ">
<polygon fill="white" stroke="black" points="467,-996.5 467,-1017.5 571,-1017.5 571,-996.5 467,-996.5"/>
<text text-anchor="middle" x="519" y="-1004.5" font-family="Helvetica,sans-Serif" font-size="10.00">opVTKMesh::Plugin</text>
</a>
</g>
<!-- Node4&#45;&gt;Node32 -->
<g id="edge62" class="edge"><title>Node4&#45;&gt;Node32</title>
<path fill="none" stroke="midnightblue" d="M392.163,-1051.81C408.335,-1043.76 428.968,-1034.1 448,-1027 457.238,-1023.55 467.342,-1020.37 476.956,-1017.6"/>
<polygon fill="midnightblue" stroke="midnightblue" points="390.555,-1048.7 383.203,-1056.33 393.708,-1054.95 390.555,-1048.7"/>
</g>
<!-- Node33 -->
<g id="node65" class="node"><title>Node33</title>
<a xlink:href="structpatchMedicalData_1_1Plugin.html" target="_top" xlink:title="This class is started when the bundles is loaded. ">
<polygon fill="white" stroke="black" points="455,-956.5 455,-977.5 583,-977.5 583,-956.5 455,-956.5"/>
<text text-anchor="middle" x="519" y="-964.5" font-family="Helvetica,sans-Serif" font-size="10.00">patchMedicalData::Plugin</text>
</a>
</g>
<!-- Node4&#45;&gt;Node33 -->
<g id="edge64" class="edge"><title>Node4&#45;&gt;Node33</title>
<path fill="none" stroke="midnightblue" d="M378.035,-1048.37C393.682,-1030.17 419.807,-1002.95 448,-987 454.688,-983.217 462.141,-980.108 469.633,-977.566"/>
<polygon fill="midnightblue" stroke="midnightblue" points="374.971,-1046.58 371.232,-1056.49 380.337,-1051.07 374.971,-1046.58"/>
</g>
<!-- Node34 -->
<g id="node67" class="node"><title>Node34</title>
<a xlink:href="classpreferences_1_1Plugin.html" target="_top" xlink:title="preferences::Plugin">
<polygon fill="white" stroke="black" points="468.5,-916.5 468.5,-937.5 569.5,-937.5 569.5,-916.5 468.5,-916.5"/>
<text text-anchor="middle" x="519" y="-924.5" font-family="Helvetica,sans-Serif" font-size="10.00">preferences::Plugin</text>
</a>
</g>
<!-- Node4&#45;&gt;Node34 -->
<g id="edge66" class="edge"><title>Node4&#45;&gt;Node34</title>
<path fill="none" stroke="midnightblue" d="M371.858,-1046.97C384.742,-1020.16 411.192,-972.975 448,-947 454.069,-942.717 461.032,-939.349 468.173,-936.7"/>
<polygon fill="midnightblue" stroke="midnightblue" points="368.627,-1045.61 367.592,-1056.16 374.977,-1048.56 368.627,-1045.61"/>
</g>
<!-- Node35 -->
<g id="node69" class="node"><title>Node35</title>
<a xlink:href="structscene2D_1_1Plugin.html" target="_top" xlink:title="This class is started when the bundles is loaded. ">
<polygon fill="white" stroke="black" points="474.5,-876.5 474.5,-897.5 563.5,-897.5 563.5,-876.5 474.5,-876.5"/>
<text text-anchor="middle" x="519" y="-884.5" font-family="Helvetica,sans-Serif" font-size="10.00">scene2D::Plugin</text>
</a>
</g>
<!-- Node4&#45;&gt;Node35 -->
<g id="edge68" class="edge"><title>Node4&#45;&gt;Node35</title>
<path fill="none" stroke="midnightblue" d="M368.25,-1046.32C378.017,-1012.12 402.261,-943.875 448,-907 455.577,-900.891 464.913,-896.647 474.295,-893.699"/>
<polygon fill="midnightblue" stroke="midnightblue" points="364.825,-1045.58 365.579,-1056.15 371.58,-1047.42 364.825,-1045.58"/>
</g>
<!-- Node36 -->
<g id="node71" class="node"><title>Node36</title>
<a xlink:href="structservicesReg_1_1Plugin.html" target="_top" xlink:title="This class is started when the bundles is loaded. ">
<polygon fill="white" stroke="black" points="467,-836.5 467,-857.5 571,-857.5 571,-836.5 467,-836.5"/>
<text text-anchor="middle" x="519" y="-844.5" font-family="Helvetica,sans-Serif" font-size="10.00">servicesReg::Plugin</text>
</a>
</g>
<!-- Node4&#45;&gt;Node36 -->
<g id="edge70" class="edge"><title>Node4&#45;&gt;Node36</title>
<path fill="none" stroke="midnightblue" d="M365.803,-1046.43C372.427,-1005.92 392.861,-915.531 448,-867 453.479,-862.177 460.039,-858.511 466.925,-855.724"/>
<polygon fill="midnightblue" stroke="midnightblue" points="362.321,-1046.05 364.283,-1056.46 369.242,-1047.1 362.321,-1046.05"/>
</g>
<!-- Node37 -->
<g id="node73" class="node"><title>Node37</title>
<a xlink:href="classTuto02DataServiceBasicCtrl_1_1Plugin.html" target="_top" xlink:title="This class is started when the bundles is loaded. ">
<polygon fill="white" stroke="black" points="448.5,-784 448.5,-818 589.5,-818 589.5,-784 448.5,-784"/>
<text text-anchor="start" x="456.5" y="-805" font-family="Helvetica,sans-Serif" font-size="10.00">Tuto02DataServiceBasicCtrl</text>
<text text-anchor="middle" x="519" y="-792" font-family="Helvetica,sans-Serif" font-size="10.00">::Plugin</text>
</a>
</g>
<!-- Node4&#45;&gt;Node37 -->
<g id="edge72" class="edge"><title>Node4&#45;&gt;Node37</title>
<path fill="none" stroke="midnightblue" d="M364.555,-1045.99C369.066,-1000.01 386.094,-889.569 448,-827 451.324,-823.641 455.117,-820.712 459.181,-818.159"/>
<polygon fill="midnightblue" stroke="midnightblue" points="361.045,-1045.96 363.659,-1056.22 368.018,-1046.57 361.045,-1045.96"/>
</g>
<!-- Node38 -->
<g id="node75" class="node"><title>Node38</title>
<a xlink:href="classTuto15MultithreadCtrl_1_1Plugin.html" target="_top" xlink:title="Class call when bundle is started/stopped. ">
<polygon fill="white" stroke="black" points="464,-732 464,-766 574,-766 574,-732 464,-732"/>
<text text-anchor="start" x="472" y="-753" font-family="Helvetica,sans-Serif" font-size="10.00">Tuto15MultithreadCtrl</text>
<text text-anchor="middle" x="519" y="-740" font-family="Helvetica,sans-Serif" font-size="10.00">::Plugin</text>
</a>
</g>
<!-- Node4&#45;&gt;Node38 -->
<g id="edge74" class="edge"><title>Node4&#45;&gt;Node38</title>
<path fill="none" stroke="midnightblue" d="M366.515,-1046.4C377.063,-986.759 410.071,-815.591 448,-775 452.481,-770.204 457.92,-766.29 463.772,-763.096"/>
<polygon fill="midnightblue" stroke="midnightblue" points="363.027,-1046.03 364.76,-1056.48 369.924,-1047.23 363.027,-1046.03"/>
</g>
<!-- Node39 -->
<g id="node77" class="node"><title>Node39</title>
<a xlink:href="classTutoTrianConverterCtrl_1_1Plugin.html" target="_top" xlink:title="This class is started when the bundles is loaded. ">
<polygon fill="white" stroke="black" points="461,-680 461,-714 577,-714 577,-680 461,-680"/>
<text text-anchor="start" x="469" y="-701" font-family="Helvetica,sans-Serif" font-size="10.00">TutoTrianConverterCtrl</text>
<text text-anchor="middle" x="519" y="-688" font-family="Helvetica,sans-Serif" font-size="10.00">::Plugin</text>
</a>
</g>
<!-- Node4&#45;&gt;Node39 -->
<g id="edge76" class="edge"><title>Node4&#45;&gt;Node39</title>
<path fill="none" stroke="midnightblue" d="M365.551,-1046.32C374.151,-979.684 404.031,-772.033 448,-723 451.681,-718.895 456.065,-715.438 460.822,-712.525"/>
<polygon fill="midnightblue" stroke="midnightblue" points="362.057,-1046.05 364.273,-1056.42 369.001,-1046.93 362.057,-1046.05"/>
</g>
<!-- Node40 -->
<g id="node79" class="node"><title>Node40</title>
<a xlink:href="structuiGeneric_1_1Plugin.html" target="_top" xlink:title="uiGeneric::Plugin">
<polygon fill="white" stroke="black" points="473.5,-640.5 473.5,-661.5 564.5,-661.5 564.5,-640.5 473.5,-640.5"/>
<text text-anchor="middle" x="519" y="-648.5" font-family="Helvetica,sans-Serif" font-size="10.00">uiGeneric::Plugin</text>
</a>
</g>
<!-- Node4&#45;&gt;Node40 -->
<g id="edge78" class="edge"><title>Node4&#45;&gt;Node40</title>
<path fill="none" stroke="midnightblue" d="M364.691,-1046C371.039,-972.247 395.807,-726.596 448,-671 454.749,-663.811 463.861,-659.137 473.305,-656.116"/>
<polygon fill="midnightblue" stroke="midnightblue" points="361.174,-1046.04 363.828,-1056.3 368.15,-1046.63 361.174,-1046.04"/>
</g>
<!-- Node41 -->
<g id="node81" class="node"><title>Node41</title>
<a xlink:href="structuiImage_1_1Plugin.html" target="_top" xlink:title="uiImage::Plugin">
<polygon fill="white" stroke="black" points="477,-600.5 477,-621.5 561,-621.5 561,-600.5 477,-600.5"/>
<text text-anchor="middle" x="519" y="-608.5" font-family="Helvetica,sans-Serif" font-size="10.00">uiImage::Plugin</text>
</a>
</g>
<!-- Node4&#45;&gt;Node41 -->
<g id="edge80" class="edge"><title>Node4&#45;&gt;Node41</title>
<path fill="none" stroke="midnightblue" d="M364.213,-1046.44C369.213,-968.58 390.729,-693.173 448,-631 455.548,-622.805 466.166,-617.871 476.896,-614.927"/>
<polygon fill="midnightblue" stroke="midnightblue" points="360.718,-1046.24 363.593,-1056.44 367.705,-1046.68 360.718,-1046.24"/>
</g>
<!-- Node42 -->
<g id="node83" class="node"><title>Node42</title>
<a xlink:href="classuiIO_1_1Plugin.html" target="_top" xlink:title="uiIO::Plugin">
<polygon fill="white" stroke="black" points="485,-560.5 485,-581.5 553,-581.5 553,-560.5 485,-560.5"/>
<text text-anchor="middle" x="519" y="-568.5" font-family="Helvetica,sans-Serif" font-size="10.00">uiIO::Plugin</text>
</a>
</g>
<!-- Node4&#45;&gt;Node42 -->
<g id="edge82" class="edge"><title>Node4&#45;&gt;Node42</title>
<path fill="none" stroke="midnightblue" d="M363.858,-1046.17C367.679,-963.493 385.802,-659.604 448,-591 457.376,-580.659 471.639,-575.498 484.928,-572.981"/>
<polygon fill="midnightblue" stroke="midnightblue" points="360.354,-1046.18 363.41,-1056.32 367.347,-1046.49 360.354,-1046.18"/>
</g>
<!-- Node43 -->
<g id="node85" class="node"><title>Node43</title>
<a xlink:href="structuiMeasurement_1_1Plugin.html" target="_top" xlink:title="uiMeasurement::Plugin">
<polygon fill="white" stroke="black" points="461,-520.5 461,-541.5 577,-541.5 577,-520.5 461,-520.5"/>
<text text-anchor="middle" x="519" y="-528.5" font-family="Helvetica,sans-Serif" font-size="10.00">uiMeasurement::Plugin</text>
</a>
</g>
<!-- Node4&#45;&gt;Node43 -->
<g id="edge84" class="edge"><title>Node4&#45;&gt;Node43</title>
<path fill="none" stroke="midnightblue" d="M363.543,-1046.12C366.228,-959.085 380.804,-626.125 448,-551 451.671,-546.896 456.112,-543.606 460.961,-540.973"/>
<polygon fill="midnightblue" stroke="midnightblue" points="360.039,-1046.22 363.25,-1056.31 367.036,-1046.42 360.039,-1046.22"/>
</g>
<!-- Node44 -->
<g id="node87" class="node"><title>Node44</title>
<a xlink:href="structuiMeasurementQt_1_1Plugin.html" target="_top" xlink:title="uiMeasurementQt::Plugin">
<polygon fill="white" stroke="black" points="455.5,-480.5 455.5,-501.5 582.5,-501.5 582.5,-480.5 455.5,-480.5"/>
<text text-anchor="middle" x="519" y="-488.5" font-family="Helvetica,sans-Serif" font-size="10.00">uiMeasurementQt::Plugin</text>
</a>
</g>
<!-- Node4&#45;&gt;Node44 -->
<g id="edge86" class="edge"><title>Node4&#45;&gt;Node44</title>
<path fill="none" stroke="midnightblue" d="M363.268,-1046.28C364.866,-955.363 375.74,-592.733 448,-511 451.308,-507.258 455.256,-504.192 459.572,-501.683"/>
<polygon fill="midnightblue" stroke="midnightblue" points="359.767,-1046.35 363.11,-1056.41 366.766,-1046.46 359.767,-1046.35"/>
</g>
<!-- Node45 -->
<g id="node89" class="node"><title>Node45</title>
<a xlink:href="structuiMedDataQt_1_1Plugin.html" target="_top" xlink:title="uiMedDataQt::Plugin">
<polygon fill="white" stroke="black" points="465.5,-440.5 465.5,-461.5 572.5,-461.5 572.5,-440.5 465.5,-440.5"/>
<text text-anchor="middle" x="519" y="-448.5" font-family="Helvetica,sans-Serif" font-size="10.00">uiMedDataQt::Plugin</text>
</a>
</g>
<!-- Node4&#45;&gt;Node45 -->
<g id="edge88" class="edge"><title>Node4&#45;&gt;Node45</title>
<path fill="none" stroke="midnightblue" d="M364.648,-1045.92C372.705,-945.143 409.143,-515.398 448,-471 452.723,-465.603 458.777,-461.611 465.354,-458.666"/>
<polygon fill="midnightblue" stroke="midnightblue" points="361.145,-1045.83 363.844,-1056.07 368.123,-1046.38 361.145,-1045.83"/>
</g>
<!-- Node46 -->
<g id="node91" class="node"><title>Node46</title>
<a xlink:href="structuiPreferences_1_1Plugin.html" target="_top" xlink:title="uiPreferences::Plugin">
<polygon fill="white" stroke="black" points="464,-400.5 464,-421.5 574,-421.5 574,-400.5 464,-400.5"/>
<text text-anchor="middle" x="519" y="-408.5" font-family="Helvetica,sans-Serif" font-size="10.00">uiPreferences::Plugin</text>
</a>
</g>
<!-- Node4&#45;&gt;Node46 -->
<g id="edge90" class="edge"><title>Node4&#45;&gt;Node46</title>
<path fill="none" stroke="midnightblue" d="M364.431,-1046.19C371.784,-941.849 406.576,-478.753 448,-431 452.364,-425.97 457.884,-422.158 463.911,-419.277"/>
<polygon fill="midnightblue" stroke="midnightblue" points="360.926,-1046.15 363.721,-1056.37 367.909,-1046.64 360.926,-1046.15"/>
</g>
<!-- Node47 -->
<g id="node93" class="node"><title>Node47</title>
<a xlink:href="structuiReconstruction_1_1Plugin.html" target="_top" xlink:title="uiReconstruction::Plugin">
<polygon fill="white" stroke="black" points="457.5,-360.5 457.5,-381.5 580.5,-381.5 580.5,-360.5 457.5,-360.5"/>
<text text-anchor="middle" x="519" y="-368.5" font-family="Helvetica,sans-Serif" font-size="10.00">uiReconstruction::Plugin</text>
</a>
</g>
<!-- Node4&#45;&gt;Node47 -->
<g id="edge92" class="edge"><title>Node4&#45;&gt;Node47</title>
<path fill="none" stroke="midnightblue" d="M364.255,-1046.26C370.972,-938.148 404.029,-442.09 448,-391 451.258,-387.215 455.171,-384.118 459.464,-381.589"/>
<polygon fill="midnightblue" stroke="midnightblue" points="360.746,-1046.3 363.626,-1056.5 367.733,-1046.73 360.746,-1046.3"/>
</g>
<!-- Node48 -->
<g id="node95" class="node"><title>Node48</title>
<a xlink:href="classuiTF_1_1Plugin.html" target="_top" xlink:title="uiTF::Plugin">
<polygon fill="white" stroke="black" points="484.5,-320.5 484.5,-341.5 553.5,-341.5 553.5,-320.5 484.5,-320.5"/>
<text text-anchor="middle" x="519" y="-328.5" font-family="Helvetica,sans-Serif" font-size="10.00">uiTF::Plugin</text>
</a>
</g>
<!-- Node4&#45;&gt;Node48 -->
<g id="edge94" class="edge"><title>Node4&#45;&gt;Node48</title>
<path fill="none" stroke="midnightblue" d="M364.111,-1046.1C370.256,-933.843 401.509,-405.397 448,-351 456.986,-340.486 471.026,-335.284 484.257,-332.783"/>
<polygon fill="midnightblue" stroke="midnightblue" points="360.598,-1046.24 363.553,-1056.42 367.588,-1046.62 360.598,-1046.24"/>
</g>
<!-- Node49 -->
<g id="node97" class="node"><title>Node49</title>
<a xlink:href="structuiVisu_1_1Plugin.html" target="_top" xlink:title="uiVisu::Plugin">
<polygon fill="white" stroke="black" points="480.5,-280.5 480.5,-301.5 557.5,-301.5 557.5,-280.5 480.5,-280.5"/>
<text text-anchor="middle" x="519" y="-288.5" font-family="Helvetica,sans-Serif" font-size="10.00">uiVisu::Plugin</text>
</a>
</g>
<!-- Node4&#45;&gt;Node49 -->
<g id="edge96" class="edge"><title>Node4&#45;&gt;Node49</title>
<path fill="none" stroke="midnightblue" d="M363.959,-1046.39C369.504,-931.054 398.923,-368.785 448,-311 456.041,-301.532 468.182,-296.368 480.162,-293.605"/>
<polygon fill="midnightblue" stroke="midnightblue" points="360.463,-1046.23 363.485,-1056.39 367.455,-1046.57 360.463,-1046.23"/>
</g>
<!-- Node50 -->
<g id="node99" class="node"><title>Node50</title>
<a xlink:href="structvisuVTK_1_1Plugin.html" target="_top" xlink:title="This class is started when the bundles is loaded. ">
<polygon fill="white" stroke="black" points="475.5,-240.5 475.5,-261.5 562.5,-261.5 562.5,-240.5 475.5,-240.5"/>
<text text-anchor="middle" x="519" y="-248.5" font-family="Helvetica,sans-Serif" font-size="10.00">visuVTK::Plugin</text>
</a>
</g>
<!-- Node4&#45;&gt;Node50 -->
<g id="edge98" class="edge"><title>Node4&#45;&gt;Node50</title>
<path fill="none" stroke="midnightblue" d="M363.851,-1046.06C368.894,-926.38 396.419,-332.078 448,-271 454.941,-262.782 464.971,-257.803 475.316,-254.823"/>
<polygon fill="midnightblue" stroke="midnightblue" points="360.339,-1046.27 363.422,-1056.4 367.333,-1046.56 360.339,-1046.27"/>
</g>
<!-- Node51 -->
<g id="node101" class="node"><title>Node51</title>
<a xlink:href="structvisuVTKAdaptor_1_1Plugin.html" target="_top" xlink:title="This class is started when the bundles is loaded. ">
<polygon fill="white" stroke="black" points="458.5,-200.5 458.5,-221.5 579.5,-221.5 579.5,-200.5 458.5,-200.5"/>
<text text-anchor="middle" x="519" y="-208.5" font-family="Helvetica,sans-Serif" font-size="10.00">visuVTKAdaptor::Plugin</text>
</a>
</g>
<!-- Node4&#45;&gt;Node51 -->
<g id="edge100" class="edge"><title>Node4&#45;&gt;Node51</title>
<path fill="none" stroke="midnightblue" d="M363.734,-1046.17C368.249,-923.227 393.85,-295.45 448,-231 451.213,-227.176 455.094,-224.053 459.367,-221.506"/>
<polygon fill="midnightblue" stroke="midnightblue" points="360.226,-1046.34 363.363,-1056.46 367.222,-1046.59 360.226,-1046.34"/>
</g>
<!-- Node52 -->
<g id="node103" class="node"><title>Node52</title>
<a xlink:href="structvisuVTKQt_1_1Plugin.html" target="_top" xlink:title="This class is started when the bundles is loaded. ">
<polygon fill="white" stroke="black" points="470,-160.5 470,-181.5 568,-181.5 568,-160.5 470,-160.5"/>
<text text-anchor="middle" x="519" y="-168.5" font-family="Helvetica,sans-Serif" font-size="10.00">visuVTKQt::Plugin</text>
</a>
</g>
<!-- Node4&#45;&gt;Node52 -->
<g id="edge102" class="edge"><title>Node4&#45;&gt;Node52</title>
<path fill="none" stroke="midnightblue" d="M363.639,-1045.97C367.677,-919.078 391.324,-258.772 448,-191 453.669,-184.222 461.439,-179.644 469.767,-176.574"/>
<polygon fill="midnightblue" stroke="midnightblue" points="360.132,-1046.15 363.318,-1056.26 367.128,-1046.37 360.132,-1046.15"/>
</g>
<!-- Node53 -->
<g id="node105" class="node"><title>Node53</title>
<a xlink:href="structvisuVTKVRAdaptor_1_1Plugin.html" target="_top" xlink:title="This class is started when the bundles is loaded. ">
<polygon fill="white" stroke="black" points="451.5,-120.5 451.5,-141.5 586.5,-141.5 586.5,-120.5 451.5,-120.5"/>
<text text-anchor="middle" x="519" y="-128.5" font-family="Helvetica,sans-Serif" font-size="10.00">visuVTKVRAdaptor::Plugin</text>
</a>
</g>
<!-- Node4&#45;&gt;Node53 -->
<g id="edge104" class="edge"><title>Node4&#45;&gt;Node53</title>
<path fill="none" stroke="midnightblue" d="M363.538,-1046.23C367.077,-916.636 388.725,-222.183 448,-151 451.114,-147.26 454.868,-144.19 459.003,-141.674"/>
<polygon fill="midnightblue" stroke="midnightblue" points="360.035,-1046.3 363.267,-1056.39 367.033,-1046.49 360.035,-1046.3"/>
</g>
<!-- Node54 -->
<g id="node107" class="node"><title>Node54</title>
<a xlink:href="classvtkCompositeMesh_1_1Plugin.html" target="_top" xlink:title="vtkCompositeMesh::Plugin">
<polygon fill="white" stroke="black" points="452,-80.5 452,-101.5 586,-101.5 586,-80.5 452,-80.5"/>
<text text-anchor="middle" x="519" y="-88.5" font-family="Helvetica,sans-Serif" font-size="10.00">vtkCompositeMesh::Plugin</text>
</a>
</g>
<!-- Node4&#45;&gt;Node54 -->
<g id="edge106" class="edge"><title>Node4&#45;&gt;Node54</title>
<path fill="none" stroke="midnightblue" d="M363.455,-1046.15C366.541,-913.066 386.174,-185.537 448,-111 451.107,-107.254 454.856,-104.18 458.987,-101.66"/>
<polygon fill="midnightblue" stroke="midnightblue" points="359.954,-1046.17 363.227,-1056.24 366.952,-1046.32 359.954,-1046.17"/>
</g>
<!-- Node55 -->
<g id="node109" class="node"><title>Node55</title>
<a xlink:href="classvtkSimpleMesh_1_1Plugin.html" target="_top" xlink:title="vtkSimpleMesh::Plugin">
<polygon fill="white" stroke="black" points="460.5,-40.5 460.5,-61.5 577.5,-61.5 577.5,-40.5 460.5,-40.5"/>
<text text-anchor="middle" x="519" y="-48.5" font-family="Helvetica,sans-Serif" font-size="10.00">vtkSimpleMesh::Plugin</text>
</a>
</g>
<!-- Node4&#45;&gt;Node55 -->
<g id="edge108" class="edge"><title>Node4&#45;&gt;Node55</title>
<path fill="none" stroke="midnightblue" d="M363.377,-1046.14C366.021,-909.812 383.611,-148.908 448,-71 451.426,-66.8541 455.64,-63.5303 460.289,-60.8703"/>
<polygon fill="midnightblue" stroke="midnightblue" points="359.872,-1046.38 363.183,-1056.44 366.871,-1046.51 359.872,-1046.38"/>
</g>
<!-- Node56 -->
<g id="node111" class="node"><title>Node56</title>
<a xlink:href="classvtkSimpleNegato_1_1Plugin.html" target="_top" xlink:title="vtkSimpleNegato::Plugin">
<polygon fill="white" stroke="black" points="456.5,-0.5 456.5,-21.5 581.5,-21.5 581.5,-0.5 456.5,-0.5"/>
<text text-anchor="middle" x="519" y="-8.5" font-family="Helvetica,sans-Serif" font-size="10.00">vtkSimpleNegato::Plugin</text>
</a>
</g>
<!-- Node4&#45;&gt;Node56 -->
<g id="edge110" class="edge"><title>Node4&#45;&gt;Node56</title>
<path fill="none" stroke="midnightblue" d="M363.304,-1046.17C365.519,-906.761 381.039,-112.291 448,-31 451.094,-27.2439 454.834,-24.1622 458.96,-21.6375"/>
<polygon fill="midnightblue" stroke="midnightblue" points="359.802,-1046.29 363.148,-1056.34 366.801,-1046.4 359.802,-1046.29"/>
</g>
</g>
</svg>
