<?xml version="1.0" encoding="UTF-8" standalone="no"?>
<!DOCTYPE svg PUBLIC "-//W3C//DTD SVG 1.1//EN"
 "http://www.w3.org/Graphics/SVG/1.1/DTD/svg11.dtd">
<!-- Generated by graphviz version 2.36.0 (20140111.2315)
 -->
<!-- Title: Graphical Class Hierarchy Pages: 1 -->
<svg width="318pt" height="87pt"
 viewBox="0.00 0.00 318.00 87.00" xmlns="http://www.w3.org/2000/svg" xmlns:xlink="http://www.w3.org/1999/xlink">
<g id="graph0" class="graph" transform="scale(1 1) rotate(0) translate(4 83)">
<title>Graphical Class Hierarchy</title>
<polygon fill="white" stroke="none" points="-4,4 -4,-83 314,-83 314,4 -4,4"/>
<!-- Node1 -->
<g id="node1" class="node"><title>Node1</title>
<g id="a_node1"><a xlink:href="classfwRenderVTK_1_1IInteractorStyle.html" target="_top" xlink:title="IInteractorStyle is an interface dedicated to hold some flags for class inherited from vtkInteractorS...">
<polygon fill="white" stroke="black" points="3,-49 3,-79 131,-79 131,-49 3,-49"/>
<text text-anchor="start" x="11" y="-67" font-family="Helvetica,sans-Serif" font-size="10.00">fwRenderVTK::IInteractor</text>
<text text-anchor="middle" x="67" y="-56" font-family="Helvetica,sans-Serif" font-size="10.00">Style</text>
</a>
</g>
</g>
<!-- Node2 -->
<g id="node2" class="node"><title>Node2</title>
<g id="a_node2"><a xlink:href="classInteractorStyle2DForNegato.html" target="_top" xlink:title="InteractorStyle2DForNegato">
<polygon fill="white" stroke="black" points="170.5,-51.5 170.5,-70.5 309.5,-70.5 309.5,-51.5 170.5,-51.5"/>
<text text-anchor="middle" x="240" y="-58.5" font-family="Helvetica,sans-Serif" font-size="10.00">InteractorStyle2DForNegato</text>
</a>
</g>
</g>
<!-- Node1&#45;&gt;Node2 -->
<g id="edge1" class="edge"><title>Node1&#45;&gt;Node2</title>
<path fill="none" stroke="midnightblue" d="M141.475,-62.711C151.05,-62.543 160.831,-62.3714 170.323,-62.2049"/>
<polygon fill="midnightblue" stroke="midnightblue" points="141.125,-59.2165 131.188,-62.8914 141.248,-66.2154 141.125,-59.2165"/>
</g>
<!-- Node3 -->
<g id="node3" class="node"><title>Node3</title>
<g id="a_node3"><a xlink:href="classInteractorStyle3DForNegato.html" target="_top" xlink:title="InteractorStyle3DForNegato">
<polygon fill="white" stroke="black" points="170.5,-10.5 170.5,-29.5 309.5,-29.5 309.5,-10.5 170.5,-10.5"/>
<text text-anchor="middle" x="240" y="-17.5" font-family="Helvetica,sans-Serif" font-size="10.00">InteractorStyle3DForNegato</text>
</a>
</g>
</g>
<!-- Node1&#45;&gt;Node3 -->
<g id="edge2" class="edge"><title>Node1&#45;&gt;Node3</title>
<path fill="none" stroke="midnightblue" d="M136.213,-46.4482C158.677,-40.668 182.802,-34.4602 202.031,-29.5124"/>
<polygon fill="midnightblue" stroke="midnightblue" points="135.183,-43.0992 126.37,-48.9808 136.927,-49.8783 135.183,-43.0992"/>
</g>
<!-- Node4 -->
<g id="node4" class="node"><title>Node4</title>
<polygon fill="white" stroke="#bfbfbf" points="0,-0 0,-30 134,-30 134,-0 0,-0"/>
<text text-anchor="start" x="8" y="-18" font-family="Helvetica,sans-Serif" font-size="10.00">vtkInteractorStyleTrackball</text>
<text text-anchor="middle" x="67" y="-7" font-family="Helvetica,sans-Serif" font-size="10.00">Camera</text>
</g>
<!-- Node4&#45;&gt;Node2 -->
<g id="edge3" class="edge"><title>Node4&#45;&gt;Node2</title>
<path fill="none" stroke="midnightblue" d="M133.675,-32.667C157.451,-39.0627 183.391,-46.0408 203.578,-51.4714"/>
<polygon fill="midnightblue" stroke="midnightblue" points="134.558,-29.2801 123.992,-30.0621 132.739,-36.0398 134.558,-29.2801"/>
</g>
<!-- Node4&#45;&gt;Node3 -->
<g id="edge4" class="edge"><title>Node4&#45;&gt;Node3</title>
<path fill="none" stroke="midnightblue" d="M144.207,-17.2283C152.875,-17.4817 161.672,-17.7389 170.235,-17.9893"/>
<polygon fill="midnightblue" stroke="midnightblue" points="144.211,-13.727 134.113,-16.9331 144.006,-20.724 144.211,-13.727"/>
</g>
</g>
</svg>
