<?xml version="1.0" encoding="UTF-8" standalone="no"?>
<!DOCTYPE svg PUBLIC "-//W3C//DTD SVG 1.1//EN"
 "http://www.w3.org/Graphics/SVG/1.1/DTD/svg11.dtd">
<!-- Generated by graphviz version 2.36.0 (20140111.2315)
 -->
<!-- Title: Graphical Class Hierarchy Pages: 1 -->
<svg width="276pt" height="136pt"
 viewBox="0.00 0.00 276.00 136.00" xmlns="http://www.w3.org/2000/svg" xmlns:xlink="http://www.w3.org/1999/xlink">
<g id="graph0" class="graph" transform="scale(1 1) rotate(0) translate(4 132)">
<title>Graphical Class Hierarchy</title>
<polygon fill="white" stroke="none" points="-4,4 -4,-132 272,-132 272,4 -4,4"/>
<!-- Node1 -->
<g id="node1" class="node"><title>Node1</title>
<g id="a_node1"><a xlink:href="classfwGdcmIO_1_1writer_1_1tid_1_1TemplateID.html" target="_top" xlink:title="fwGdcmIO::writer::tid\l::TemplateID\&lt; ::fwData\l::Image \&gt;">
<polygon fill="white" stroke="black" points="0,-43.5 0,-84.5 120,-84.5 120,-43.5 0,-43.5"/>
<text text-anchor="start" x="8" y="-72.5" font-family="Helvetica,sans-Serif" font-size="10.00">fwGdcmIO::writer::tid</text>
<text text-anchor="start" x="8" y="-61.5" font-family="Helvetica,sans-Serif" font-size="10.00">::TemplateID&lt; ::fwData</text>
<text text-anchor="middle" x="60" y="-50.5" font-family="Helvetica,sans-Serif" font-size="10.00">::Image &gt;</text>
</a>
</g>
</g>
<!-- Node2 -->
<g id="node2" class="node"><title>Node2</title>
<g id="a_node2"><a xlink:href="classfwGdcmIO_1_1writer_1_1tid_1_1Fiducial.html" target="_top" xlink:title="Fiducial TID. ">
<polygon fill="white" stroke="black" points="157,-98 157,-128 267,-128 267,-98 157,-98"/>
<text text-anchor="start" x="165" y="-116" font-family="Helvetica,sans-Serif" font-size="10.00">fwGdcmIO::writer::tid</text>
<text text-anchor="middle" x="212" y="-105" font-family="Helvetica,sans-Serif" font-size="10.00">::Fiducial</text>
</a>
</g>
</g>
<!-- Node1&#45;&gt;Node2 -->
<g id="edge1" class="edge"><title>Node1&#45;&gt;Node2</title>
<path fill="none" stroke="midnightblue" d="M130.054,-86.5575C141.769,-90.3845 153.679,-94.2751 164.63,-97.8526"/>
<polygon fill="midnightblue" stroke="midnightblue" points="130.876,-83.1444 120.284,-83.3661 128.703,-89.7983 130.876,-83.1444"/>
</g>
<!-- Node3 -->
<g id="node3" class="node"><title>Node3</title>
<g id="a_node3"><a xlink:href="classfwGdcmIO_1_1writer_1_1tid_1_1Measurement.html" target="_top" xlink:title="Measurement TID. ">
<polygon fill="white" stroke="black" points="157,-49 157,-79 267,-79 267,-49 157,-49"/>
<text text-anchor="start" x="165" y="-67" font-family="Helvetica,sans-Serif" font-size="10.00">fwGdcmIO::writer::tid</text>
<text text-anchor="middle" x="212" y="-56" font-family="Helvetica,sans-Serif" font-size="10.00">::Measurement</text>
</a>
</g>
</g>
<!-- Node1&#45;&gt;Node3 -->
<g id="edge2" class="edge"><title>Node1&#45;&gt;Node3</title>
<path fill="none" stroke="midnightblue" d="M130.475,-64C139.221,-64 148.067,-64 156.535,-64"/>
<polygon fill="midnightblue" stroke="midnightblue" points="130.284,-60.5001 120.284,-64 130.284,-67.5001 130.284,-60.5001"/>
</g>
<!-- Node4 -->
<g id="node4" class="node"><title>Node4</title>
<g id="a_node4"><a xlink:href="classfwGdcmIO_1_1writer_1_1tid_1_1MeasurementReport.html" target="_top" xlink:title="Measurement Report TID &#45; This a root template. ">
<polygon fill="white" stroke="black" points="156.5,-0 156.5,-30 267.5,-30 267.5,-0 156.5,-0"/>
<text text-anchor="start" x="164.5" y="-18" font-family="Helvetica,sans-Serif" font-size="10.00">fwGdcmIO::writer::tid</text>
<text text-anchor="middle" x="212" y="-7" font-family="Helvetica,sans-Serif" font-size="10.00">::MeasurementReport</text>
</a>
</g>
</g>
<!-- Node1&#45;&gt;Node4 -->
<g id="edge3" class="edge"><title>Node1&#45;&gt;Node4</title>
<path fill="none" stroke="midnightblue" d="M130.054,-41.4425C141.769,-37.6155 153.679,-33.7249 164.63,-30.1474"/>
<polygon fill="midnightblue" stroke="midnightblue" points="128.703,-38.2017 120.284,-44.6339 130.876,-44.8556 128.703,-38.2017"/>
</g>
</g>
</svg>
