<?xml version="1.0" encoding="UTF-8" standalone="no"?>
<!DOCTYPE svg PUBLIC "-//W3C//DTD SVG 1.1//EN"
 "http://www.w3.org/Graphics/SVG/1.1/DTD/svg11.dtd">
<!-- Generated by graphviz version 2.36.0 (20140111.2315)
 -->
<!-- Title: Graphical Class Hierarchy Pages: 1 -->
<svg width="360pt" height="136pt"
 viewBox="0.00 0.00 360.00 136.00" xmlns="http://www.w3.org/2000/svg" xmlns:xlink="http://www.w3.org/1999/xlink">
<g id="graph0" class="graph" transform="scale(1 1) rotate(0) translate(4 132)">
<title>Graphical Class Hierarchy</title>
<polygon fill="white" stroke="none" points="-4,4 -4,-132 356,-132 356,4 -4,4"/>
<!-- Node1 -->
<g id="node1" class="node"><title>Node1</title>
<g id="a_node1"><a xlink:href="structfwAtomConversion_1_1AtomVisitor_1_1IReadPolicy.html" target="_top" xlink:title="Visitor UUID Management policies. ">
<polygon fill="white" stroke="black" points="0.5,-49 0.5,-79 157.5,-79 157.5,-49 0.5,-49"/>
<text text-anchor="start" x="8.5" y="-67" font-family="Helvetica,sans-Serif" font-size="10.00">fwAtomConversion::AtomVisitor</text>
<text text-anchor="middle" x="79" y="-56" font-family="Helvetica,sans-Serif" font-size="10.00">::IReadPolicy</text>
</a>
</g>
</g>
<!-- Node2 -->
<g id="node2" class="node"><title>Node2</title>
<g id="a_node2"><a xlink:href="structfwAtomConversion_1_1AtomVisitor_1_1ChangePolicy.html" target="_top" xlink:title="This policy changes data&#39;s uuid if it already exists. ">
<polygon fill="white" stroke="black" points="194.5,-98 194.5,-128 351.5,-128 351.5,-98 194.5,-98"/>
<text text-anchor="start" x="202.5" y="-116" font-family="Helvetica,sans-Serif" font-size="10.00">fwAtomConversion::AtomVisitor</text>
<text text-anchor="middle" x="273" y="-105" font-family="Helvetica,sans-Serif" font-size="10.00">::ChangePolicy</text>
</a>
</g>
</g>
<!-- Node1&#45;&gt;Node2 -->
<g id="edge1" class="edge"><title>Node1&#45;&gt;Node2</title>
<path fill="none" stroke="midnightblue" d="M148.767,-81.5498C169.851,-86.9306 192.845,-92.799 213.2,-97.9938"/>
<polygon fill="midnightblue" stroke="midnightblue" points="149.466,-78.1162 138.911,-79.0346 147.735,-84.8988 149.466,-78.1162"/>
</g>
<!-- Node3 -->
<g id="node3" class="node"><title>Node3</title>
<g id="a_node3"><a xlink:href="structfwAtomConversion_1_1AtomVisitor_1_1ReusePolicy.html" target="_top" xlink:title="This policy reuses the data associated with an existing uuid. ">
<polygon fill="white" stroke="black" points="194.5,-49 194.5,-79 351.5,-79 351.5,-49 194.5,-49"/>
<text text-anchor="start" x="202.5" y="-67" font-family="Helvetica,sans-Serif" font-size="10.00">fwAtomConversion::AtomVisitor</text>
<text text-anchor="middle" x="273" y="-56" font-family="Helvetica,sans-Serif" font-size="10.00">::ReusePolicy</text>
</a>
</g>
</g>
<!-- Node1&#45;&gt;Node3 -->
<g id="edge2" class="edge"><title>Node1&#45;&gt;Node3</title>
<path fill="none" stroke="midnightblue" d="M167.605,-64C176.571,-64 185.635,-64 194.482,-64"/>
<polygon fill="midnightblue" stroke="midnightblue" points="167.54,-60.5001 157.54,-64 167.54,-67.5001 167.54,-60.5001"/>
</g>
<!-- Node4 -->
<g id="node4" class="node"><title>Node4</title>
<g id="a_node4"><a xlink:href="structfwAtomConversion_1_1AtomVisitor_1_1StrictPolicy.html" target="_top" xlink:title="This policy throws an exception if the loaded uuid is not available. ">
<polygon fill="white" stroke="black" points="194.5,-0 194.5,-30 351.5,-30 351.5,-0 194.5,-0"/>
<text text-anchor="start" x="202.5" y="-18" font-family="Helvetica,sans-Serif" font-size="10.00">fwAtomConversion::AtomVisitor</text>
<text text-anchor="middle" x="273" y="-7" font-family="Helvetica,sans-Serif" font-size="10.00">::StrictPolicy</text>
</a>
</g>
</g>
<!-- Node1&#45;&gt;Node4 -->
<g id="edge3" class="edge"><title>Node1&#45;&gt;Node4</title>
<path fill="none" stroke="midnightblue" d="M148.767,-46.4502C169.851,-41.0694 192.845,-35.201 213.2,-30.0062"/>
<polygon fill="midnightblue" stroke="midnightblue" points="147.735,-43.1012 138.911,-48.9654 149.466,-49.8838 147.735,-43.1012"/>
</g>
</g>
</svg>
