<?xml version="1.0" encoding="UTF-8" standalone="no"?>
<!DOCTYPE svg PUBLIC "-//W3C//DTD SVG 1.1//EN"
 "http://www.w3.org/Graphics/SVG/1.1/DTD/svg11.dtd">
<!-- Generated by graphviz version 2.26.3 (20100126.1600)
 -->
<!-- Title: Graphical Class Hierarchy Pages: 1 -->
<svg width="318pt" height="94pt"
 viewBox="0.00 0.00 318.00 94.00" xmlns="http://www.w3.org/2000/svg" xmlns:xlink="http://www.w3.org/1999/xlink">
<g id="graph1" class="graph" transform="scale(1 1) rotate(0) translate(4 90)">
<title>Graphical Class Hierarchy</title>
<polygon fill="white" stroke="white" points="-4,5 -4,-90 315,-90 315,5 -4,5"/>
<!-- Node1 -->
<g id="node1" class="node"><title>Node1</title>
<a xlink:href="classfwRenderVTK_1_1IInteractorStyle.html" target="_top" xlink:title="IInteractorStyle is an interface dedicated to hold some flags for class inherited from vtkInteractorS...">
<polygon fill="white" stroke="black" points="3,-52 3,-86 131,-86 131,-52 3,-52"/>
<text text-anchor="start" x="11" y="-73" font-family="Helvetica,sans-Serif" font-size="10.00">fwRenderVTK::IInteractor</text>
<text text-anchor="middle" x="67" y="-60" font-family="Helvetica,sans-Serif" font-size="10.00">Style</text>
</a>
</g>
<!-- Node2 -->
<g id="node3" class="node"><title>Node2</title>
<a xlink:href="classInteractorStyle2DForNegato.html" target="_top" xlink:title="InteractorStyle2DForNegato">
<polygon fill="white" stroke="black" points="170.5,-55.5 170.5,-76.5 309.5,-76.5 309.5,-55.5 170.5,-55.5"/>
<text text-anchor="middle" x="240" y="-63.5" font-family="Helvetica,sans-Serif" font-size="10.00">InteractorStyle2DForNegato</text>
</a>
</g>
<!-- Node1&#45;&gt;Node2 -->
<g id="edge2" class="edge"><title>Node1&#45;&gt;Node2</title>
<path fill="none" stroke="midnightblue" d="M141.645,-67.7056C151.161,-67.5406 160.871,-67.3722 170.304,-67.2086"/>
<polygon fill="midnightblue" stroke="midnightblue" points="141.357,-64.21 131.419,-67.8829 141.478,-71.2089 141.357,-64.21"/>
</g>
<!-- Node3 -->
<g id="node5" class="node"><title>Node3</title>
<a xlink:href="classInteractorStyle3DForNegato.html" target="_top" xlink:title="InteractorStyle3DForNegato">
<polygon fill="white" stroke="black" points="170.5,-12.5 170.5,-33.5 309.5,-33.5 309.5,-12.5 170.5,-12.5"/>
<text text-anchor="middle" x="240" y="-20.5" font-family="Helvetica,sans-Serif" font-size="10.00">InteractorStyle3DForNegato</text>
</a>
</g>
<!-- Node1&#45;&gt;Node3 -->
<g id="edge4" class="edge"><title>Node1&#45;&gt;Node3</title>
<path fill="none" stroke="midnightblue" d="M141.3,-49.2439C161.62,-43.841 182.856,-38.1943 200.402,-33.529"/>
<polygon fill="midnightblue" stroke="midnightblue" points="140.184,-45.9191 131.419,-51.8713 141.982,-52.684 140.184,-45.9191"/>
</g>
<!-- Node4 -->
<g id="node6" class="node"><title>Node4</title>
<polygon fill="white" stroke="#bfbfbf" points="0,-0 0,-34 134,-34 134,-0 0,-0"/>
<text text-anchor="start" x="8" y="-21" font-family="Helvetica,sans-Serif" font-size="10.00">vtkInteractorStyleTrackball</text>
<text text-anchor="middle" x="67" y="-8" font-family="Helvetica,sans-Serif" font-size="10.00">Camera</text>
</g>
<!-- Node4&#45;&gt;Node2 -->
<g id="edge6" class="edge"><title>Node4&#45;&gt;Node2</title>
<path fill="none" stroke="midnightblue" d="M136.903,-36.799C159.439,-43.182 183.536,-50.0073 202.763,-55.453"/>
<polygon fill="midnightblue" stroke="midnightblue" points="137.597,-33.358 127.021,-34.0003 135.689,-40.0931 137.597,-33.358"/>
</g>
<!-- Node4&#45;&gt;Node3 -->
<g id="edge8" class="edge"><title>Node4&#45;&gt;Node3</title>
<path fill="none" stroke="midnightblue" d="M144.405,-19.6846C153.009,-19.983 161.733,-20.2856 170.234,-20.5804"/>
<polygon fill="midnightblue" stroke="midnightblue" points="144.497,-16.1857 134.382,-19.3369 144.254,-23.1815 144.497,-16.1857"/>
</g>
</g>
</svg>
