<?xml version="1.0" encoding="UTF-8" standalone="no"?>
<!DOCTYPE svg PUBLIC "-//W3C//DTD SVG 1.1//EN"
 "http://www.w3.org/Graphics/SVG/1.1/DTD/svg11.dtd">
<!-- Generated by graphviz version 2.26.3 (20100126.1600)
 -->
<!-- Title: IToolBarLayoutManager.hpp Pages: 1 -->
<svg width="528pt" height="204pt"
 viewBox="0.00 0.00 528.00 204.00" xmlns="http://www.w3.org/2000/svg" xmlns:xlink="http://www.w3.org/1999/xlink">
<g id="graph1" class="graph" transform="scale(1 1) rotate(0) translate(4 200)">
<title>IToolBarLayoutManager.hpp</title>
<polygon fill="white" stroke="white" points="-4,5 -4,-200 525,-200 525,5 -4,5"/>
<!-- Node1 -->
<g id="node1" class="node"><title>Node1</title>
<polygon fill="#bfbfbf" stroke="black" points="227.5,-174.5 227.5,-195.5 366.5,-195.5 366.5,-174.5 227.5,-174.5"/>
<text text-anchor="middle" x="297" y="-182.5" font-family="Helvetica,sans-Serif" font-size="10.00">IToolBarLayoutManager.hpp</text>
</g>
<!-- Node2 -->
<g id="node3" class="node"><title>Node2</title>
<a xlink:href="IToolBarSrv_8hpp_source.html" target="_top" xlink:title="IToolBarSrv.hpp">
<polygon fill="white" stroke="black" points="123.5,-116.5 123.5,-137.5 210.5,-137.5 210.5,-116.5 123.5,-116.5"/>
<text text-anchor="middle" x="167" y="-124.5" font-family="Helvetica,sans-Serif" font-size="10.00">IToolBarSrv.hpp</text>
</a>
</g>
<!-- Node1&#45;&gt;Node2 -->
<g id="edge2" class="edge"><title>Node1&#45;&gt;Node2</title>
<path fill="none" stroke="midnightblue" d="M264.148,-170.343C241.302,-160.15 211.374,-146.798 190.806,-137.621"/>
<polygon fill="midnightblue" stroke="midnightblue" points="262.9,-173.618 273.458,-174.497 265.752,-167.226 262.9,-173.618"/>
</g>
<!-- Node7 -->
<g id="node13" class="node"><title>Node7</title>
<a xlink:href="IToolBarLayoutManager_8cpp.html" target="_top" xlink:title="This file defines the implementation of the base class for managing a toolbar. ">
<polygon fill="white" stroke="black" points="227.5,-116.5 227.5,-137.5 366.5,-137.5 366.5,-116.5 227.5,-116.5"/>
<text text-anchor="middle" x="297" y="-124.5" font-family="Helvetica,sans-Serif" font-size="10.00">IToolBarLayoutManager.cpp</text>
</a>
</g>
<!-- Node1&#45;&gt;Node7 -->
<g id="edge12" class="edge"><title>Node1&#45;&gt;Node7</title>
<path fill="none" stroke="midnightblue" d="M297,-164.191C297,-155.168 297,-144.994 297,-137.571"/>
<polygon fill="midnightblue" stroke="midnightblue" points="293.5,-164.362 297,-174.362 300.5,-164.362 293.5,-164.362"/>
</g>
<!-- Node8 -->
<g id="node15" class="node"><title>Node8</title>
<a xlink:href="ToolBarLayoutManager_8hpp_source.html" target="_top" xlink:title="ToolBarLayoutManager.hpp">
<polygon fill="white" stroke="black" points="384,-116.5 384,-137.5 520,-137.5 520,-116.5 384,-116.5"/>
<text text-anchor="middle" x="452" y="-124.5" font-family="Helvetica,sans-Serif" font-size="10.00">ToolBarLayoutManager.hpp</text>
</a>
</g>
<!-- Node1&#45;&gt;Node8 -->
<g id="edge14" class="edge"><title>Node1&#45;&gt;Node8</title>
<path fill="none" stroke="midnightblue" d="M334.75,-170.874C362.255,-160.582 398.921,-146.862 423.878,-137.523"/>
<polygon fill="midnightblue" stroke="midnightblue" points="333.208,-167.714 325.069,-174.497 335.662,-174.27 333.208,-167.714"/>
</g>
<!-- Node3 -->
<g id="node5" class="node"><title>Node3</title>
<a xlink:href="SDefaultToolBar_8hpp_source.html" target="_top" xlink:title="SDefaultToolBar.hpp">
<polygon fill="white" stroke="black" points="-0.5,-58.5 -0.5,-79.5 106.5,-79.5 106.5,-58.5 -0.5,-58.5"/>
<text text-anchor="middle" x="53" y="-66.5" font-family="Helvetica,sans-Serif" font-size="10.00">SDefaultToolBar.hpp</text>
</a>
</g>
<!-- Node2&#45;&gt;Node3 -->
<g id="edge4" class="edge"><title>Node2&#45;&gt;Node3</title>
<path fill="none" stroke="midnightblue" d="M137.383,-111.932C117.456,-101.793 91.6711,-88.6748 73.8762,-79.6212"/>
<polygon fill="midnightblue" stroke="midnightblue" points="135.856,-115.081 146.355,-116.497 139.03,-108.843 135.856,-115.081"/>
</g>
<!-- Node5 -->
<g id="node9" class="node"><title>Node5</title>
<a xlink:href="GuiRegistry_8cpp_source.html" target="_top" xlink:title="GuiRegistry.cpp">
<polygon fill="white" stroke="black" points="123.5,-58.5 123.5,-79.5 210.5,-79.5 210.5,-58.5 123.5,-58.5"/>
<text text-anchor="middle" x="167" y="-66.5" font-family="Helvetica,sans-Serif" font-size="10.00">GuiRegistry.cpp</text>
</a>
</g>
<!-- Node2&#45;&gt;Node5 -->
<g id="edge8" class="edge"><title>Node2&#45;&gt;Node5</title>
<path fill="none" stroke="midnightblue" d="M167,-106.191C167,-97.1684 167,-86.9941 167,-79.5707"/>
<polygon fill="midnightblue" stroke="midnightblue" points="163.5,-106.362 167,-116.362 170.5,-106.362 163.5,-106.362"/>
</g>
<!-- Node6 -->
<g id="node11" class="node"><title>Node6</title>
<a xlink:href="IToolBarSrv_8cpp_source.html" target="_top" xlink:title="IToolBarSrv.cpp">
<polygon fill="white" stroke="black" points="227.5,-58.5 227.5,-79.5 314.5,-79.5 314.5,-58.5 227.5,-58.5"/>
<text text-anchor="middle" x="271" y="-66.5" font-family="Helvetica,sans-Serif" font-size="10.00">IToolBarSrv.cpp</text>
</a>
</g>
<!-- Node2&#45;&gt;Node6 -->
<g id="edge10" class="edge"><title>Node2&#45;&gt;Node6</title>
<path fill="none" stroke="midnightblue" d="M195.01,-111.379C213.081,-101.301 236.102,-88.4624 252.046,-79.5707"/>
<polygon fill="midnightblue" stroke="midnightblue" points="193.104,-108.434 186.075,-116.362 196.514,-114.548 193.104,-108.434"/>
</g>
<!-- Node4 -->
<g id="node7" class="node"><title>Node4</title>
<a xlink:href="SDefaultToolBar_8cpp_source.html" target="_top" xlink:title="SDefaultToolBar.cpp">
<polygon fill="white" stroke="black" points="-0.5,-0.5 -0.5,-21.5 106.5,-21.5 106.5,-0.5 -0.5,-0.5"/>
<text text-anchor="middle" x="53" y="-8.5" font-family="Helvetica,sans-Serif" font-size="10.00">SDefaultToolBar.cpp</text>
</a>
</g>
<!-- Node3&#45;&gt;Node4 -->
<g id="edge6" class="edge"><title>Node3&#45;&gt;Node4</title>
<path fill="none" stroke="midnightblue" d="M53,-48.1906C53,-39.1684 53,-28.9941 53,-21.5707"/>
<polygon fill="midnightblue" stroke="midnightblue" points="49.5001,-48.3619 53,-58.3619 56.5001,-48.3619 49.5001,-48.3619"/>
</g>
<!-- Node9 -->
<g id="node17" class="node"><title>Node9</title>
<a xlink:href="ToolBarLayoutManager_8cpp_source.html" target="_top" xlink:title="ToolBarLayoutManager.cpp">
<polygon fill="white" stroke="black" points="384,-58.5 384,-79.5 520,-79.5 520,-58.5 384,-58.5"/>
<text text-anchor="middle" x="452" y="-66.5" font-family="Helvetica,sans-Serif" font-size="10.00">ToolBarLayoutManager.cpp</text>
</a>
</g>
<!-- Node8&#45;&gt;Node9 -->
<g id="edge16" class="edge"><title>Node8&#45;&gt;Node9</title>
<path fill="none" stroke="midnightblue" d="M452,-106.191C452,-97.1684 452,-86.9941 452,-79.5707"/>
<polygon fill="midnightblue" stroke="midnightblue" points="448.5,-106.362 452,-116.362 455.5,-106.362 448.5,-106.362"/>
</g>
</g>
</svg>
