<?xml version="1.0" encoding="UTF-8" standalone="no"?>
<!DOCTYPE svg PUBLIC "-//W3C//DTD SVG 1.1//EN"
 "http://www.w3.org/Graphics/SVG/1.1/DTD/svg11.dtd">
<!-- Generated by graphviz version 2.36.0 (20140111.2315)
 -->
<!-- Title: IViewLayoutManager.hpp Pages: 1 -->
<svg width="3716pt" height="444pt"
 viewBox="0.00 0.00 3715.51 444.00" xmlns="http://www.w3.org/2000/svg" xmlns:xlink="http://www.w3.org/1999/xlink">
<g id="graph0" class="graph" transform="scale(1 1) rotate(0) translate(4 440)">
<title>IViewLayoutManager.hpp</title>
<polygon fill="white" stroke="none" points="-4,4 -4,-440 3711.51,-440 3711.51,4 -4,4"/>
<!-- Node1 -->
<g id="node1" class="node"><title>Node1</title>
<polygon fill="#bfbfbf" stroke="black" points="3482.5,-416.5 3482.5,-435.5 3609.5,-435.5 3609.5,-416.5 3482.5,-416.5"/>
<text text-anchor="middle" x="3546" y="-423.5" font-family="Helvetica,sans-Serif" font-size="10.00">IViewLayoutManager.hpp</text>
</g>
<!-- Node2 -->
<g id="node2" class="node"><title>Node2</title>
<g id="a_node2"><a xlink:href="ConfigurationElement_8hpp_source.html" target="_top" xlink:title="fwRuntime/ConfigurationElement.hpp">
<polygon fill="white" stroke="black" points="482.5,-304.5 482.5,-323.5 661.5,-323.5 661.5,-304.5 482.5,-304.5"/>
<text text-anchor="middle" x="572" y="-311.5" font-family="Helvetica,sans-Serif" font-size="10.00">fwRuntime/ConfigurationElement.hpp</text>
</a>
</g>
</g>
<!-- Node1&#45;&gt;Node2 -->
<g id="edge1" class="edge"><title>Node1&#45;&gt;Node2</title>
<path fill="none" stroke="midnightblue" d="M3482.16,-422.639C3102.13,-408.582 1138.46,-335.952 671.653,-318.686"/>
<polygon fill="midnightblue" stroke="midnightblue" points="671.689,-315.185 661.566,-318.313 671.43,-322.18 671.689,-315.185"/>
</g>
<!-- Node45 -->
<g id="node45" class="node"><title>Node45</title>
<g id="a_node45"><a xlink:href="GuiBaseObject_8hpp_source.html" target="_top" xlink:title="fwGui/GuiBaseObject.hpp">
<polygon fill="white" stroke="black" points="3454,-304.5 3454,-323.5 3584,-323.5 3584,-304.5 3454,-304.5"/>
<text text-anchor="middle" x="3519" y="-311.5" font-family="Helvetica,sans-Serif" font-size="10.00">fwGui/GuiBaseObject.hpp</text>
</a>
</g>
</g>
<!-- Node1&#45;&gt;Node45 -->
<g id="edge60" class="edge"><title>Node1&#45;&gt;Node45</title>
<path fill="none" stroke="midnightblue" d="M3536.71,-416.395C3528.42,-408.025 3516.86,-394.483 3512,-380 3506.93,-364.867 3509.54,-346.746 3512.92,-333.486"/>
<polygon fill="midnightblue" stroke="midnightblue" points="3516.35,-334.244 3515.8,-323.663 3509.63,-332.278 3516.35,-334.244"/>
</g>
<!-- Node47 -->
<g id="node47" class="node"><title>Node47</title>
<polygon fill="white" stroke="#bfbfbf" points="3586,-130.5 3586,-149.5 3676,-149.5 3676,-130.5 3586,-130.5"/>
<text text-anchor="middle" x="3631" y="-137.5" font-family="Helvetica,sans-Serif" font-size="10.00">fwGui/config.hpp</text>
</g>
<!-- Node1&#45;&gt;Node47 -->
<g id="edge78" class="edge"><title>Node1&#45;&gt;Node47</title>
<path fill="none" stroke="midnightblue" d="M3609.58,-418.281C3636.98,-412.309 3667.39,-401.08 3688,-380 3709.04,-358.48 3707,-345.098 3707,-315 3707,-315 3707,-315 3707,-257 3707,-215.186 3672.02,-176.719 3649.52,-156.301"/>
<polygon fill="midnightblue" stroke="midnightblue" points="3651.72,-153.572 3641.89,-149.623 3647.11,-158.841 3651.72,-153.572"/>
</g>
<!-- Node50 -->
<g id="node50" class="node"><title>Node50</title>
<g id="a_node50"><a xlink:href="fwContainer_8hpp_source.html" target="_top" xlink:title="fwGui/container/fwContainer.hpp">
<polygon fill="white" stroke="black" points="3520.5,-360.5 3520.5,-379.5 3679.5,-379.5 3679.5,-360.5 3520.5,-360.5"/>
<text text-anchor="middle" x="3600" y="-367.5" font-family="Helvetica,sans-Serif" font-size="10.00">fwGui/container/fwContainer.hpp</text>
</a>
</g>
</g>
<!-- Node1&#45;&gt;Node50 -->
<g id="edge75" class="edge"><title>Node1&#45;&gt;Node50</title>
<path fill="none" stroke="midnightblue" d="M3554.92,-416.083C3562.78,-408.22 3574.43,-396.569 3583.92,-387.081"/>
<polygon fill="midnightblue" stroke="midnightblue" points="3586.65,-389.297 3591.25,-379.751 3581.7,-384.347 3586.65,-389.297"/>
</g>
<!-- Node3 -->
<g id="node3" class="node"><title>Node3</title>
<polygon fill="white" stroke="#bfbfbf" points="0,-62.5 0,-81.5 112,-81.5 112,-62.5 0,-62.5"/>
<text text-anchor="middle" x="56" y="-69.5" font-family="Helvetica,sans-Serif" font-size="10.00">fwRuntime/config.hpp</text>
</g>
<!-- Node2&#45;&gt;Node3 -->
<g id="edge2" class="edge"><title>Node2&#45;&gt;Node3</title>
<path fill="none" stroke="midnightblue" d="M542.577,-304.428C474.514,-283.985 301.941,-228.608 170,-156 133.645,-135.993 95.4556,-106.094 73.7986,-88.1721"/>
<polygon fill="midnightblue" stroke="midnightblue" points="76.0056,-85.4551 66.0911,-81.7196 71.5121,-90.8225 76.0056,-85.4551"/>
</g>
<!-- Node4 -->
<g id="node4" class="node"><title>Node4</title>
<g id="a_node4"><a xlink:href="ConfigurationElementContainer_8hpp_source.html" target="_top" xlink:title="fwRuntime/ConfigurationElement\lContainer.hpp">
<polygon fill="white" stroke="black" points="363.5,-125 363.5,-155 524.5,-155 524.5,-125 363.5,-125"/>
<text text-anchor="start" x="371.5" y="-143" font-family="Helvetica,sans-Serif" font-size="10.00">fwRuntime/ConfigurationElement</text>
<text text-anchor="middle" x="444" y="-132" font-family="Helvetica,sans-Serif" font-size="10.00">Container.hpp</text>
</a>
</g>
</g>
<!-- Node2&#45;&gt;Node4 -->
<g id="edge3" class="edge"><title>Node2&#45;&gt;Node4</title>
<path fill="none" stroke="midnightblue" d="M565.476,-304.234C546.234,-278.376 489.269,-201.831 460.713,-163.459"/>
<polygon fill="midnightblue" stroke="midnightblue" points="463.205,-160.944 454.427,-155.012 457.59,-165.124 463.205,-160.944"/>
</g>
<!-- Node6 -->
<g id="node6" class="node"><title>Node6</title>
<polygon fill="white" stroke="#bfbfbf" points="505,-62.5 505,-81.5 557,-81.5 557,-62.5 505,-62.5"/>
<text text-anchor="middle" x="531" y="-69.5" font-family="Helvetica,sans-Serif" font-size="10.00">memory</text>
</g>
<!-- Node2&#45;&gt;Node6 -->
<g id="edge56" class="edge"><title>Node2&#45;&gt;Node6</title>
<path fill="none" stroke="midnightblue" d="M573.489,-304.41C577.862,-277.131 589.03,-190.354 567,-124 562.764,-111.242 554.183,-98.8753 546.46,-89.5149"/>
<polygon fill="midnightblue" stroke="midnightblue" points="548.972,-87.0705 539.759,-81.839 543.699,-91.674 548.972,-87.0705"/>
</g>
<!-- Node7 -->
<g id="node7" class="node"><title>Node7</title>
<polygon fill="white" stroke="#bfbfbf" points="443,-62.5 443,-81.5 487,-81.5 487,-62.5 443,-62.5"/>
<text text-anchor="middle" x="465" y="-69.5" font-family="Helvetica,sans-Serif" font-size="10.00">vector</text>
</g>
<!-- Node2&#45;&gt;Node7 -->
<g id="edge59" class="edge"><title>Node2&#45;&gt;Node7</title>
<path fill="none" stroke="midnightblue" d="M572.297,-304.296C572.857,-275.936 571.412,-184.54 533,-124 522.948,-108.157 506.106,-95.4704 491.699,-86.7134"/>
<polygon fill="midnightblue" stroke="midnightblue" points="493.094,-83.4782 482.679,-81.5325 489.608,-89.5482 493.094,-83.4782"/>
</g>
<!-- Node8 -->
<g id="node8" class="node"><title>Node8</title>
<g id="a_node8"><a xlink:href="RuntimeException_8hpp_source.html" target="_top" xlink:title="fwRuntime/RuntimeException.hpp">
<polygon fill="white" stroke="black" points="179,-130.5 179,-149.5 345,-149.5 345,-130.5 179,-130.5"/>
<text text-anchor="middle" x="262" y="-137.5" font-family="Helvetica,sans-Serif" font-size="10.00">fwRuntime/RuntimeException.hpp</text>
</a>
</g>
</g>
<!-- Node2&#45;&gt;Node8 -->
<g id="edge8" class="edge"><title>Node2&#45;&gt;Node8</title>
<path fill="none" stroke="midnightblue" d="M556.627,-304.47C506.529,-276.674 347.691,-188.545 286.429,-154.554"/>
<polygon fill="midnightblue" stroke="midnightblue" points="287.908,-151.372 277.466,-149.581 284.512,-157.493 287.908,-151.372"/>
</g>
<!-- Node10 -->
<g id="node10" class="node"><title>Node10</title>
<polygon fill="white" stroke="#bfbfbf" points="1121.5,-0.5 1121.5,-19.5 1162.5,-19.5 1162.5,-0.5 1121.5,-0.5"/>
<text text-anchor="middle" x="1142" y="-7.5" font-family="Helvetica,sans-Serif" font-size="10.00">string</text>
</g>
<!-- Node2&#45;&gt;Node10 -->
<g id="edge57" class="edge"><title>Node2&#45;&gt;Node10</title>
<path fill="none" stroke="midnightblue" d="M661.526,-313.138C743.657,-310.885 867.714,-301.428 970,-268 1065.37,-236.833 1115.64,-242.777 1166,-156 1189.73,-115.117 1166.55,-57.4741 1151.92,-28.7355"/>
<polygon fill="midnightblue" stroke="midnightblue" points="1154.81,-26.7206 1147.02,-19.5399 1148.64,-30.0114 1154.81,-26.7206"/>
</g>
<!-- Node15 -->
<g id="node15" class="node"><title>Node15</title>
<g id="a_node15"><a xlink:href="base_8hpp_source.html" target="_top" xlink:title="fwCore/base.hpp">
<polygon fill="white" stroke="black" points="870.5,-248.5 870.5,-267.5 961.5,-267.5 961.5,-248.5 870.5,-248.5"/>
<text text-anchor="middle" x="916" y="-255.5" font-family="Helvetica,sans-Serif" font-size="10.00">fwCore/base.hpp</text>
</a>
</g>
</g>
<!-- Node2&#45;&gt;Node15 -->
<g id="edge17" class="edge"><title>Node2&#45;&gt;Node15</title>
<path fill="none" stroke="midnightblue" d="M626.508,-304.444C690.437,-294.408 795.848,-277.861 860.292,-267.745"/>
<polygon fill="midnightblue" stroke="midnightblue" points="860.934,-271.187 870.27,-266.179 859.848,-264.272 860.934,-271.187"/>
</g>
<!-- Node43 -->
<g id="node43" class="node"><title>Node43</title>
<polygon fill="white" stroke="#bfbfbf" points="885.5,-62.5 885.5,-81.5 920.5,-81.5 920.5,-62.5 885.5,-62.5"/>
<text text-anchor="middle" x="903" y="-69.5" font-family="Helvetica,sans-Serif" font-size="10.00">map</text>
</g>
<!-- Node2&#45;&gt;Node43 -->
<g id="edge55" class="edge"><title>Node2&#45;&gt;Node43</title>
<path fill="none" stroke="midnightblue" d="M586.442,-304.489C624.323,-281.953 729.188,-218.188 810,-156 838.258,-134.254 868.666,-106.118 886.751,-88.8258"/>
<polygon fill="midnightblue" stroke="midnightblue" points="889.368,-91.1644 894.141,-81.7055 884.511,-86.1235 889.368,-91.1644"/>
</g>
<!-- Node44 -->
<g id="node44" class="node"><title>Node44</title>
<polygon fill="white" stroke="#bfbfbf" points="83,-248.5 83,-267.5 123,-267.5 123,-248.5 83,-248.5"/>
<text text-anchor="middle" x="103" y="-255.5" font-family="Helvetica,sans-Serif" font-size="10.00">utility</text>
</g>
<!-- Node2&#45;&gt;Node44 -->
<g id="edge58" class="edge"><title>Node2&#45;&gt;Node44</title>
<path fill="none" stroke="midnightblue" d="M482.28,-307.813C393.919,-301.744 255.375,-289.654 137,-268 135.716,-267.765 134.41,-267.507 133.093,-267.23"/>
<polygon fill="midnightblue" stroke="midnightblue" points="133.556,-263.743 123.019,-264.853 131.948,-270.556 133.556,-263.743"/>
</g>
<!-- Node4&#45;&gt;Node3 -->
<g id="edge4" class="edge"><title>Node4&#45;&gt;Node3</title>
<path fill="none" stroke="midnightblue" d="M363.054,-125.463C359.998,-124.966 356.972,-124.477 354,-124 250.541,-107.386 223.898,-107.794 121,-88 114.429,-86.7359 107.512,-85.2782 100.742,-83.7789"/>
<polygon fill="midnightblue" stroke="midnightblue" points="101.509,-80.3641 90.9829,-81.5699 99.9634,-87.1913 101.509,-80.3641"/>
</g>
<!-- Node5 -->
<g id="node5" class="node"><title>Node5</title>
<polygon fill="white" stroke="#bfbfbf" points="377.5,-62.5 377.5,-81.5 424.5,-81.5 424.5,-62.5 377.5,-62.5"/>
<text text-anchor="middle" x="401" y="-69.5" font-family="Helvetica,sans-Serif" font-size="10.00">iterator</text>
</g>
<!-- Node4&#45;&gt;Node5 -->
<g id="edge5" class="edge"><title>Node4&#45;&gt;Node5</title>
<path fill="none" stroke="midnightblue" d="M434.67,-124.679C428.098,-114.592 419.264,-101.033 412.294,-90.3345"/>
<polygon fill="midnightblue" stroke="midnightblue" points="415.143,-88.2963 406.752,-81.8283 409.278,-92.1175 415.143,-88.2963"/>
</g>
<!-- Node4&#45;&gt;Node6 -->
<g id="edge6" class="edge"><title>Node4&#45;&gt;Node6</title>
<path fill="none" stroke="midnightblue" d="M462.878,-124.679C477.114,-113.879 496.598,-99.0983 511.082,-88.1103"/>
<polygon fill="midnightblue" stroke="midnightblue" points="513.511,-90.6606 519.363,-81.8283 509.28,-85.0838 513.511,-90.6606"/>
</g>
<!-- Node4&#45;&gt;Node7 -->
<g id="edge7" class="edge"><title>Node4&#45;&gt;Node7</title>
<path fill="none" stroke="midnightblue" d="M448.557,-124.679C451.637,-114.999 455.734,-102.123 459.068,-91.6449"/>
<polygon fill="midnightblue" stroke="midnightblue" points="462.494,-92.4188 462.191,-81.8283 455.824,-90.2963 462.494,-92.4188"/>
</g>
<!-- Node8&#45;&gt;Node3 -->
<g id="edge16" class="edge"><title>Node8&#45;&gt;Node3</title>
<path fill="none" stroke="midnightblue" d="M235.069,-130.372C198.496,-118.654 133.012,-97.6737 92.1786,-84.5912"/>
<polygon fill="midnightblue" stroke="midnightblue" points="93.2022,-81.2439 82.6111,-81.5259 91.0663,-87.9102 93.2022,-81.2439"/>
</g>
<!-- Node9 -->
<g id="node9" class="node"><title>Node9</title>
<polygon fill="white" stroke="#bfbfbf" points="130.5,-62.5 130.5,-81.5 189.5,-81.5 189.5,-62.5 130.5,-62.5"/>
<text text-anchor="middle" x="160" y="-69.5" font-family="Helvetica,sans-Serif" font-size="10.00">exception</text>
</g>
<!-- Node8&#45;&gt;Node9 -->
<g id="edge9" class="edge"><title>Node8&#45;&gt;Node9</title>
<path fill="none" stroke="midnightblue" d="M248.665,-130.372C231.713,-119.403 202.217,-100.317 181.932,-87.1912"/>
<polygon fill="midnightblue" stroke="midnightblue" points="183.635,-84.1245 173.338,-81.6305 179.832,-90.0015 183.635,-84.1245"/>
</g>
<!-- Node8&#45;&gt;Node10 -->
<g id="edge10" class="edge"><title>Node8&#45;&gt;Node10</title>
<path fill="none" stroke="midnightblue" d="M273.478,-130.463C286.899,-120.434 309.733,-103.229 329,-88 346.59,-74.0964 347.11,-64.1444 368,-56 500.304,-4.41841 864.263,-28.6885 1006,-20 1042.07,-17.7888 1083.51,-15.0127 1111.07,-13.1327"/>
<polygon fill="midnightblue" stroke="midnightblue" points="1111.53,-16.6095 1121.27,-12.4349 1111.05,-9.62588 1111.53,-16.6095"/>
</g>
<!-- Node11 -->
<g id="node11" class="node"><title>Node11</title>
<g id="a_node11"><a xlink:href="core_2fwCore_2include_2fwCore_2Exception_8hpp_source.html" target="_top" xlink:title="fwCore/Exception.hpp">
<polygon fill="white" stroke="black" points="207.5,-62.5 207.5,-81.5 320.5,-81.5 320.5,-62.5 207.5,-62.5"/>
<text text-anchor="middle" x="264" y="-69.5" font-family="Helvetica,sans-Serif" font-size="10.00">fwCore/Exception.hpp</text>
</a>
</g>
</g>
<!-- Node8&#45;&gt;Node11 -->
<g id="edge11" class="edge"><title>Node8&#45;&gt;Node11</title>
<path fill="none" stroke="midnightblue" d="M262.261,-130.372C262.556,-120.643 263.045,-104.528 263.429,-91.8504"/>
<polygon fill="midnightblue" stroke="midnightblue" points="266.927,-91.9426 263.732,-81.8411 259.931,-91.7305 266.927,-91.9426"/>
</g>
<!-- Node11&#45;&gt;Node10 -->
<g id="edge13" class="edge"><title>Node11&#45;&gt;Node10</title>
<path fill="none" stroke="midnightblue" d="M299.206,-62.4391C310.567,-59.9788 323.259,-57.5458 335,-56 631.096,-17.0173 707.883,-37.8606 1006,-20 1042.07,-17.8387 1083.51,-15.053 1111.07,-13.1571"/>
<polygon fill="midnightblue" stroke="midnightblue" points="1111.53,-16.6336 1121.27,-12.4527 1111.05,-9.65025 1111.53,-16.6336"/>
</g>
<!-- Node12 -->
<g id="node12" class="node"><title>Node12</title>
<polygon fill="white" stroke="#bfbfbf" points="234.5,-0.5 234.5,-19.5 293.5,-19.5 293.5,-0.5 234.5,-0.5"/>
<text text-anchor="middle" x="264" y="-7.5" font-family="Helvetica,sans-Serif" font-size="10.00">stdexcept</text>
</g>
<!-- Node11&#45;&gt;Node12 -->
<g id="edge12" class="edge"><title>Node11&#45;&gt;Node12</title>
<path fill="none" stroke="midnightblue" d="M264,-62.4035C264,-53.9381 264,-40.7283 264,-29.8199"/>
<polygon fill="midnightblue" stroke="midnightblue" points="267.5,-29.5806 264,-19.5806 260.5,-29.5806 267.5,-29.5806"/>
</g>
<!-- Node13 -->
<g id="node13" class="node"><title>Node13</title>
<polygon fill="white" stroke="#bfbfbf" points="630.5,-0.5 630.5,-19.5 779.5,-19.5 779.5,-0.5 630.5,-0.5"/>
<text text-anchor="middle" x="705" y="-7.5" font-family="Helvetica,sans-Serif" font-size="10.00">boost/exception/exception.hpp</text>
</g>
<!-- Node11&#45;&gt;Node13 -->
<g id="edge14" class="edge"><title>Node11&#45;&gt;Node13</title>
<path fill="none" stroke="midnightblue" d="M301.469,-62.4461C312.256,-60.157 324.063,-57.8168 335,-56 388.068,-47.1843 528.278,-30.8378 620.051,-20.4613"/>
<polygon fill="midnightblue" stroke="midnightblue" points="620.616,-23.9198 630.16,-19.3202 619.831,-16.964 620.616,-23.9198"/>
</g>
<!-- Node14 -->
<g id="node14" class="node"><title>Node14</title>
<polygon fill="white" stroke="#bfbfbf" points="901,-0.5 901,-19.5 997,-19.5 997,-0.5 901,-0.5"/>
<text text-anchor="middle" x="949" y="-7.5" font-family="Helvetica,sans-Serif" font-size="10.00">fwCore/config.hpp</text>
</g>
<!-- Node11&#45;&gt;Node14 -->
<g id="edge15" class="edge"><title>Node11&#45;&gt;Node14</title>
<path fill="none" stroke="midnightblue" d="M299.588,-62.4986C310.857,-60.0717 323.399,-57.6429 335,-56 441.257,-40.9521 758.618,-21.8228 890.512,-14.2743"/>
<polygon fill="midnightblue" stroke="midnightblue" points="891.027,-17.7507 900.812,-13.6868 890.629,-10.7621 891.027,-17.7507"/>
</g>
<!-- Node16 -->
<g id="node16" class="node"><title>Node16</title>
<g id="a_node16"><a xlink:href="BaseObject_8hpp_source.html" target="_top" xlink:title="fwCore/BaseObject.hpp">
<polygon fill="white" stroke="black" points="868.5,-192.5 868.5,-211.5 989.5,-211.5 989.5,-192.5 868.5,-192.5"/>
<text text-anchor="middle" x="929" y="-199.5" font-family="Helvetica,sans-Serif" font-size="10.00">fwCore/BaseObject.hpp</text>
</a>
</g>
</g>
<!-- Node15&#45;&gt;Node16 -->
<g id="edge18" class="edge"><title>Node15&#45;&gt;Node16</title>
<path fill="none" stroke="midnightblue" d="M918.147,-248.083C919.869,-240.927 922.347,-230.635 924.5,-221.691"/>
<polygon fill="midnightblue" stroke="midnightblue" points="927.955,-222.293 926.893,-211.751 921.15,-220.654 927.955,-222.293"/>
</g>
<!-- Node17 -->
<g id="node17" class="node"><title>Node17</title>
<g id="a_node17"><a xlink:href="core_2fwCore_2include_2fwCore_2macros_8hpp.html" target="_top" xlink:title="This file defines fwCore base macros. ">
<polygon fill="white" stroke="black" points="2124,-130.5 2124,-149.5 2226,-149.5 2226,-130.5 2124,-130.5"/>
<text text-anchor="middle" x="2175" y="-137.5" font-family="Helvetica,sans-Serif" font-size="10.00">fwCore/macros.hpp</text>
</a>
</g>
</g>
<!-- Node15&#45;&gt;Node17 -->
<g id="edge53" class="edge"><title>Node15&#45;&gt;Node17</title>
<path fill="none" stroke="midnightblue" d="M961.552,-252.803C1153.25,-235.14 1894.62,-166.833 2113.7,-146.648"/>
<polygon fill="midnightblue" stroke="midnightblue" points="2114.1,-150.126 2123.74,-145.723 2113.46,-143.156 2114.1,-150.126"/>
</g>
<!-- Node39 -->
<g id="node39" class="node"><title>Node39</title>
<g id="a_node39"><a xlink:href="exceptionmacros_8hpp_source.html" target="_top" xlink:title="fwCore/exceptionmacros.hpp">
<polygon fill="white" stroke="black" points="657,-130.5 657,-149.5 801,-149.5 801,-130.5 657,-130.5"/>
<text text-anchor="middle" x="729" y="-137.5" font-family="Helvetica,sans-Serif" font-size="10.00">fwCore/exceptionmacros.hpp</text>
</a>
</g>
</g>
<!-- Node15&#45;&gt;Node39 -->
<g id="edge46" class="edge"><title>Node15&#45;&gt;Node39</title>
<path fill="none" stroke="midnightblue" d="M902.249,-248.47C870.234,-228.61 790.47,-179.131 751.35,-154.864"/>
<polygon fill="midnightblue" stroke="midnightblue" points="753.114,-151.839 742.771,-149.542 749.424,-157.788 753.114,-151.839"/>
</g>
<!-- Node41 -->
<g id="node41" class="node"><title>Node41</title>
<g id="a_node41"><a xlink:href="spyLog_8hpp.html" target="_top" xlink:title="This file defines SpyLog macros. These macros are used to log messages to a file or to the console du...">
<polygon fill="white" stroke="red" points="575.5,-62.5 575.5,-81.5 676.5,-81.5 676.5,-62.5 575.5,-62.5"/>
<text text-anchor="middle" x="626" y="-69.5" font-family="Helvetica,sans-Serif" font-size="10.00">fwCore/spyLog.hpp</text>
</a>
</g>
</g>
<!-- Node15&#45;&gt;Node41 -->
<g id="edge54" class="edge"><title>Node15&#45;&gt;Node41</title>
<path fill="none" stroke="midnightblue" d="M870.264,-252.492C810.448,-244.122 706.417,-220.657 648,-156 632.027,-138.321 627.424,-110.365 626.219,-91.8551"/>
<polygon fill="midnightblue" stroke="midnightblue" points="629.711,-91.5882 625.837,-81.7272 622.716,-91.8521 629.711,-91.5882"/>
</g>
<!-- Node16&#45;&gt;Node14 -->
<g id="edge44" class="edge"><title>Node16&#45;&gt;Node14</title>
<path fill="none" stroke="midnightblue" d="M916.786,-192.236C906.646,-184.143 892.957,-171.112 887,-156 881.785,-142.769 881.057,-136.921 887,-124 897.273,-101.664 915.979,-108.854 929,-88 940.173,-70.1045 945.133,-46.1507 947.317,-29.7396"/>
<polygon fill="midnightblue" stroke="midnightblue" points="950.801,-30.0757 948.427,-19.7503 943.844,-29.3025 950.801,-30.0757"/>
</g>
<!-- Node16&#45;&gt;Node17 -->
<g id="edge19" class="edge"><title>Node16&#45;&gt;Node17</title>
<path fill="none" stroke="midnightblue" d="M989.518,-198.086C1200.5,-187.926 1902.22,-154.135 2113.98,-143.938"/>
<polygon fill="midnightblue" stroke="midnightblue" points="2114.17,-147.434 2123.99,-143.457 2113.83,-140.442 2114.17,-147.434"/>
</g>
<!-- Node38 -->
<g id="node38" class="node"><title>Node38</title>
<polygon fill="white" stroke="#bfbfbf" points="895.5,-130.5 895.5,-149.5 984.5,-149.5 984.5,-130.5 895.5,-130.5"/>
<text text-anchor="middle" x="940" y="-137.5" font-family="Helvetica,sans-Serif" font-size="10.00">boost/config.hpp</text>
</g>
<!-- Node16&#45;&gt;Node38 -->
<g id="edge45" class="edge"><title>Node16&#45;&gt;Node38</title>
<path fill="none" stroke="midnightblue" d="M930.576,-192.403C932.144,-183.849 934.601,-170.45 936.613,-159.476"/>
<polygon fill="midnightblue" stroke="midnightblue" points="940.066,-160.048 938.427,-149.581 933.181,-158.785 940.066,-160.048"/>
</g>
<!-- Node17&#45;&gt;Node6 -->
<g id="edge41" class="edge"><title>Node17&#45;&gt;Node6</title>
<path fill="none" stroke="midnightblue" d="M2123.7,-138.507C1866.19,-135.882 720.841,-122.347 566,-88 563.096,-87.3558 560.131,-86.4745 557.217,-85.4595"/>
<polygon fill="midnightblue" stroke="midnightblue" points="558.25,-82.1033 547.665,-81.6433 555.653,-88.6037 558.25,-82.1033"/>
</g>
<!-- Node17&#45;&gt;Node10 -->
<g id="edge42" class="edge"><title>Node17&#45;&gt;Node10</title>
<path fill="none" stroke="midnightblue" d="M2226.22,-138.926C2460.03,-138.344 3416.56,-133.198 3460,-88 3469.86,-77.7459 3469.96,-66.1538 3460,-56 3418.02,-13.1969 1445.29,-11.0888 1173.03,-11.0018"/>
<polygon fill="midnightblue" stroke="midnightblue" points="1172.7,-7.50181 1162.7,-10.9992 1172.7,-14.5018 1172.7,-7.50181"/>
</g>
<!-- Node18 -->
<g id="node18" class="node"><title>Node18</title>
<g id="a_node18"><a xlink:href="Demangler_8hpp_source.html" target="_top" xlink:title="fwCore/Demangler.hpp">
<polygon fill="white" stroke="red" points="977.5,-62.5 977.5,-81.5 1094.5,-81.5 1094.5,-62.5 977.5,-62.5"/>
<text text-anchor="middle" x="1036" y="-69.5" font-family="Helvetica,sans-Serif" font-size="10.00">fwCore/Demangler.hpp</text>
</a>
</g>
</g>
<!-- Node17&#45;&gt;Node18 -->
<g id="edge20" class="edge"><title>Node17&#45;&gt;Node18</title>
<path fill="none" stroke="midnightblue" d="M2123.94,-137.331C1977.09,-132.328 1541.07,-116.04 1180,-88 1155.44,-86.0928 1128.58,-83.4477 1104.78,-80.909"/>
<polygon fill="midnightblue" stroke="midnightblue" points="1105.11,-77.4235 1094.79,-79.83 1104.35,-84.383 1105.11,-77.4235"/>
</g>
<!-- Node19 -->
<g id="node19" class="node"><title>Node19</title>
<polygon fill="white" stroke="#bfbfbf" points="1269,-57 1269,-87 1369,-87 1369,-57 1269,-57"/>
<text text-anchor="start" x="1277" y="-75" font-family="Helvetica,sans-Serif" font-size="10.00">boost/preprocessor</text>
<text text-anchor="middle" x="1319" y="-64" font-family="Helvetica,sans-Serif" font-size="10.00">/cat.hpp</text>
</g>
<!-- Node17&#45;&gt;Node19 -->
<g id="edge23" class="edge"><title>Node17&#45;&gt;Node19</title>
<path fill="none" stroke="midnightblue" d="M2123.9,-138.919C1998.52,-138.038 1665.71,-131.568 1379.44,-87.8427"/>
<polygon fill="midnightblue" stroke="midnightblue" points="1379.7,-84.3404 1369.28,-86.2715 1378.63,-91.2583 1379.7,-84.3404"/>
</g>
<!-- Node20 -->
<g id="node20" class="node"><title>Node20</title>
<polygon fill="white" stroke="#bfbfbf" points="1387.5,-57 1387.5,-87 1502.5,-87 1502.5,-57 1387.5,-57"/>
<text text-anchor="start" x="1395.5" y="-75" font-family="Helvetica,sans-Serif" font-size="10.00">boost/preprocessor</text>
<text text-anchor="middle" x="1445" y="-64" font-family="Helvetica,sans-Serif" font-size="10.00">/comparison/equal.hpp</text>
</g>
<!-- Node17&#45;&gt;Node20 -->
<g id="edge24" class="edge"><title>Node17&#45;&gt;Node20</title>
<path fill="none" stroke="midnightblue" d="M2123.98,-137.569C2014,-133.947 1746.36,-122.245 1512.69,-87.9487"/>
<polygon fill="midnightblue" stroke="midnightblue" points="1513.05,-84.4636 1502.64,-86.4568 1512.02,-91.3877 1513.05,-84.4636"/>
</g>
<!-- Node21 -->
<g id="node21" class="node"><title>Node21</title>
<polygon fill="white" stroke="#bfbfbf" points="1521,-57 1521,-87 1621,-87 1621,-57 1521,-57"/>
<text text-anchor="start" x="1529" y="-75" font-family="Helvetica,sans-Serif" font-size="10.00">boost/preprocessor</text>
<text text-anchor="middle" x="1571" y="-64" font-family="Helvetica,sans-Serif" font-size="10.00">/control/expr_if.hpp</text>
</g>
<!-- Node17&#45;&gt;Node21 -->
<g id="edge25" class="edge"><title>Node17&#45;&gt;Node21</title>
<path fill="none" stroke="midnightblue" d="M2123.93,-136.876C2028.73,-132.339 1817.62,-119.573 1631.09,-88.0138"/>
<polygon fill="midnightblue" stroke="midnightblue" points="1631.55,-84.5415 1621.1,-86.3017 1630.36,-91.4409 1631.55,-84.5415"/>
</g>
<!-- Node22 -->
<g id="node22" class="node"><title>Node22</title>
<polygon fill="white" stroke="#bfbfbf" points="1639,-57 1639,-87 1739,-87 1739,-57 1639,-57"/>
<text text-anchor="start" x="1647" y="-75" font-family="Helvetica,sans-Serif" font-size="10.00">boost/preprocessor</text>
<text text-anchor="middle" x="1689" y="-64" font-family="Helvetica,sans-Serif" font-size="10.00">/control/if.hpp</text>
</g>
<!-- Node17&#45;&gt;Node22 -->
<g id="edge26" class="edge"><title>Node17&#45;&gt;Node22</title>
<path fill="none" stroke="midnightblue" d="M2123.74,-135.047C2045.13,-128.51 1890,-113.735 1749.22,-88.0791"/>
<polygon fill="midnightblue" stroke="midnightblue" points="1749.58,-84.5864 1739.11,-86.213 1748.31,-91.4701 1749.58,-84.5864"/>
</g>
<!-- Node23 -->
<g id="node23" class="node"><title>Node23</title>
<polygon fill="white" stroke="#bfbfbf" points="1757,-57 1757,-87 1861,-87 1861,-57 1757,-57"/>
<text text-anchor="start" x="1765" y="-75" font-family="Helvetica,sans-Serif" font-size="10.00">boost/preprocessor</text>
<text text-anchor="middle" x="1809" y="-64" font-family="Helvetica,sans-Serif" font-size="10.00">/facilities/empty.hpp</text>
</g>
<!-- Node17&#45;&gt;Node23 -->
<g id="edge27" class="edge"><title>Node17&#45;&gt;Node23</title>
<path fill="none" stroke="midnightblue" d="M2123.96,-131.573C2063.4,-122.498 1959.47,-106.1 1871,-88 1870.9,-87.9792 1870.8,-87.9583 1870.69,-87.9374"/>
<polygon fill="midnightblue" stroke="midnightblue" points="1871.55,-84.5403 1861.04,-85.8734 1870.08,-91.3858 1871.55,-84.5403"/>
</g>
<!-- Node24 -->
<g id="node24" class="node"><title>Node24</title>
<polygon fill="white" stroke="#bfbfbf" points="1879.5,-57 1879.5,-87 1988.5,-87 1988.5,-57 1879.5,-57"/>
<text text-anchor="start" x="1887.5" y="-75" font-family="Helvetica,sans-Serif" font-size="10.00">boost/preprocessor</text>
<text text-anchor="middle" x="1934" y="-64" font-family="Helvetica,sans-Serif" font-size="10.00">/facilities/expand.hpp</text>
</g>
<!-- Node17&#45;&gt;Node24 -->
<g id="edge28" class="edge"><title>Node17&#45;&gt;Node24</title>
<path fill="none" stroke="midnightblue" d="M2143.49,-130.372C2105.97,-120.096 2042.44,-102.697 1995.15,-89.7478"/>
<polygon fill="midnightblue" stroke="midnightblue" points="1995.9,-86.3219 1985.33,-87.0562 1994.05,-93.0733 1995.9,-86.3219"/>
</g>
<!-- Node25 -->
<g id="node25" class="node"><title>Node25</title>
<polygon fill="white" stroke="#bfbfbf" points="2007,-57 2007,-87 2107,-87 2107,-57 2007,-57"/>
<text text-anchor="start" x="2015" y="-75" font-family="Helvetica,sans-Serif" font-size="10.00">boost/preprocessor</text>
<text text-anchor="middle" x="2057" y="-64" font-family="Helvetica,sans-Serif" font-size="10.00">/logical/and.hpp</text>
</g>
<!-- Node17&#45;&gt;Node25 -->
<g id="edge29" class="edge"><title>Node17&#45;&gt;Node25</title>
<path fill="none" stroke="midnightblue" d="M2159.57,-130.372C2142.33,-120.729 2113.88,-104.812 2091.3,-92.1874"/>
<polygon fill="midnightblue" stroke="midnightblue" points="2092.79,-89.0084 2082.35,-87.1815 2089.37,-95.1177 2092.79,-89.0084"/>
</g>
<!-- Node26 -->
<g id="node26" class="node"><title>Node26</title>
<polygon fill="white" stroke="#bfbfbf" points="2125,-57 2125,-87 2225,-87 2225,-57 2125,-57"/>
<text text-anchor="start" x="2133" y="-75" font-family="Helvetica,sans-Serif" font-size="10.00">boost/preprocessor</text>
<text text-anchor="middle" x="2175" y="-64" font-family="Helvetica,sans-Serif" font-size="10.00">/logical/not.hpp</text>
</g>
<!-- Node17&#45;&gt;Node26 -->
<g id="edge30" class="edge"><title>Node17&#45;&gt;Node26</title>
<path fill="none" stroke="midnightblue" d="M2175,-130.372C2175,-121.971 2175,-108.811 2175,-97.2126"/>
<polygon fill="midnightblue" stroke="midnightblue" points="2178.5,-97.1814 2175,-87.1815 2171.5,-97.1815 2178.5,-97.1814"/>
</g>
<!-- Node27 -->
<g id="node27" class="node"><title>Node27</title>
<polygon fill="white" stroke="#bfbfbf" points="2243.5,-57 2243.5,-87 2386.5,-87 2386.5,-57 2243.5,-57"/>
<text text-anchor="start" x="2251.5" y="-75" font-family="Helvetica,sans-Serif" font-size="10.00">boost/preprocessor</text>
<text text-anchor="middle" x="2315" y="-64" font-family="Helvetica,sans-Serif" font-size="10.00">/repetition/enum_params.hpp</text>
</g>
<!-- Node17&#45;&gt;Node27 -->
<g id="edge31" class="edge"><title>Node17&#45;&gt;Node27</title>
<path fill="none" stroke="midnightblue" d="M2193.3,-130.372C2214.19,-120.526 2248.94,-104.141 2275.98,-91.3957"/>
<polygon fill="midnightblue" stroke="midnightblue" points="2277.63,-94.4863 2285.18,-87.0562 2274.65,-88.1546 2277.63,-94.4863"/>
</g>
<!-- Node28 -->
<g id="node28" class="node"><title>Node28</title>
<polygon fill="white" stroke="#bfbfbf" points="2405,-57 2405,-87 2505,-87 2505,-57 2405,-57"/>
<text text-anchor="start" x="2413" y="-75" font-family="Helvetica,sans-Serif" font-size="10.00">boost/preprocessor</text>
<text text-anchor="middle" x="2455" y="-64" font-family="Helvetica,sans-Serif" font-size="10.00">/seq/elem.hpp</text>
</g>
<!-- Node17&#45;&gt;Node28 -->
<g id="edge32" class="edge"><title>Node17&#45;&gt;Node28</title>
<path fill="none" stroke="midnightblue" d="M2212.81,-130.443C2256.67,-120.467 2331.15,-103.38 2395,-88 2395.1,-87.9756 2395.2,-87.9512 2395.3,-87.9268"/>
<polygon fill="midnightblue" stroke="midnightblue" points="2396.04,-91.3509 2404.93,-85.5869 2394.38,-84.5491 2396.04,-91.3509"/>
</g>
<!-- Node29 -->
<g id="node29" class="node"><title>Node29</title>
<polygon fill="white" stroke="#bfbfbf" points="2523,-57 2523,-87 2623,-87 2623,-57 2523,-57"/>
<text text-anchor="start" x="2531" y="-75" font-family="Helvetica,sans-Serif" font-size="10.00">boost/preprocessor</text>
<text text-anchor="middle" x="2573" y="-64" font-family="Helvetica,sans-Serif" font-size="10.00">/seq/fold_right.hpp</text>
</g>
<!-- Node17&#45;&gt;Node29 -->
<g id="edge33" class="edge"><title>Node17&#45;&gt;Node29</title>
<path fill="none" stroke="midnightblue" d="M2226.1,-132.924C2290.69,-124.889 2405.42,-109.43 2512.83,-88.1206"/>
<polygon fill="midnightblue" stroke="midnightblue" points="2513.75,-91.5059 2522.87,-86.1078 2512.37,-84.6426 2513.75,-91.5059"/>
</g>
<!-- Node30 -->
<g id="node30" class="node"><title>Node30</title>
<polygon fill="white" stroke="#bfbfbf" points="2641,-57 2641,-87 2741,-87 2741,-57 2641,-57"/>
<text text-anchor="start" x="2649" y="-75" font-family="Helvetica,sans-Serif" font-size="10.00">boost/preprocessor</text>
<text text-anchor="middle" x="2691" y="-64" font-family="Helvetica,sans-Serif" font-size="10.00">/seq/for_each.hpp</text>
</g>
<!-- Node17&#45;&gt;Node30 -->
<g id="edge34" class="edge"><title>Node17&#45;&gt;Node30</title>
<path fill="none" stroke="midnightblue" d="M2226.05,-135.61C2309.04,-129.597 2478.43,-115.226 2630.88,-88.0486"/>
<polygon fill="midnightblue" stroke="midnightblue" points="2631.67,-91.4614 2640.89,-86.2398 2630.43,-84.5728 2631.67,-91.4614"/>
</g>
<!-- Node31 -->
<g id="node31" class="node"><title>Node31</title>
<polygon fill="white" stroke="#bfbfbf" points="2759,-57 2759,-87 2861,-87 2861,-57 2759,-57"/>
<text text-anchor="start" x="2767" y="-75" font-family="Helvetica,sans-Serif" font-size="10.00">boost/preprocessor</text>
<text text-anchor="middle" x="2810" y="-64" font-family="Helvetica,sans-Serif" font-size="10.00">/seq/for_each_i.hpp</text>
</g>
<!-- Node17&#45;&gt;Node31 -->
<g id="edge35" class="edge"><title>Node17&#45;&gt;Node31</title>
<path fill="none" stroke="midnightblue" d="M2226.11,-137.152C2325.25,-132.987 2550.63,-120.682 2748.72,-88.0499"/>
<polygon fill="midnightblue" stroke="midnightblue" points="2749.44,-91.4781 2758.72,-86.3797 2748.28,-84.5735 2749.44,-91.4781"/>
</g>
<!-- Node32 -->
<g id="node32" class="node"><title>Node32</title>
<polygon fill="white" stroke="#bfbfbf" points="2879,-57 2879,-87 2979,-87 2979,-57 2879,-57"/>
<text text-anchor="start" x="2887" y="-75" font-family="Helvetica,sans-Serif" font-size="10.00">boost/preprocessor</text>
<text text-anchor="middle" x="2929" y="-64" font-family="Helvetica,sans-Serif" font-size="10.00">/seq/seq.hpp</text>
</g>
<!-- Node17&#45;&gt;Node32 -->
<g id="edge36" class="edge"><title>Node17&#45;&gt;Node32</title>
<path fill="none" stroke="midnightblue" d="M2226.28,-138.235C2340.19,-135.891 2622.86,-126.51 2868.52,-87.8607"/>
<polygon fill="midnightblue" stroke="midnightblue" points="2869.39,-91.2665 2878.71,-86.2366 2868.29,-84.3537 2869.39,-91.2665"/>
</g>
<!-- Node33 -->
<g id="node33" class="node"><title>Node33</title>
<polygon fill="white" stroke="#bfbfbf" points="2997,-57 2997,-87 3097,-87 3097,-57 2997,-57"/>
<text text-anchor="start" x="3005" y="-75" font-family="Helvetica,sans-Serif" font-size="10.00">boost/preprocessor</text>
<text text-anchor="middle" x="3047" y="-64" font-family="Helvetica,sans-Serif" font-size="10.00">/seq/size.hpp</text>
</g>
<!-- Node17&#45;&gt;Node33 -->
<g id="edge37" class="edge"><title>Node17&#45;&gt;Node33</title>
<path fill="none" stroke="midnightblue" d="M2226.25,-139.085C2353.65,-138.593 2694.86,-132.952 2986.99,-87.9566"/>
<polygon fill="midnightblue" stroke="midnightblue" points="2987.58,-91.4066 2996.92,-86.4082 2986.5,-84.4901 2987.58,-91.4066"/>
</g>
<!-- Node34 -->
<g id="node34" class="node"><title>Node34</title>
<polygon fill="white" stroke="#bfbfbf" points="3115,-57 3115,-87 3215,-87 3215,-57 3115,-57"/>
<text text-anchor="start" x="3123" y="-75" font-family="Helvetica,sans-Serif" font-size="10.00">boost/preprocessor</text>
<text text-anchor="middle" x="3165" y="-64" font-family="Helvetica,sans-Serif" font-size="10.00">/seq/to_tuple.hpp</text>
</g>
<!-- Node17&#45;&gt;Node34 -->
<g id="edge38" class="edge"><title>Node17&#45;&gt;Node34</title>
<path fill="none" stroke="midnightblue" d="M2226.07,-139.667C2365.7,-140.754 2765.47,-138.935 3104.9,-87.9583"/>
<polygon fill="midnightblue" stroke="midnightblue" points="3105.56,-91.3978 3114.92,-86.4357 3104.51,-84.4771 3105.56,-91.3978"/>
</g>
<!-- Node35 -->
<g id="node35" class="node"><title>Node35</title>
<polygon fill="white" stroke="#bfbfbf" points="3233,-57 3233,-87 3333,-87 3333,-57 3233,-57"/>
<text text-anchor="start" x="3241" y="-75" font-family="Helvetica,sans-Serif" font-size="10.00">boost/preprocessor</text>
<text text-anchor="middle" x="3283" y="-64" font-family="Helvetica,sans-Serif" font-size="10.00">/seq/transform.hpp</text>
</g>
<!-- Node17&#45;&gt;Node35 -->
<g id="edge39" class="edge"><title>Node17&#45;&gt;Node35</title>
<path fill="none" stroke="midnightblue" d="M2226.05,-137.873C2405.67,-133.701 3008.76,-117.879 3223.02,-87.8956"/>
<polygon fill="midnightblue" stroke="midnightblue" points="3223.53,-91.358 3232.93,-86.4571 3222.53,-84.4307 3223.53,-91.358"/>
</g>
<!-- Node36 -->
<g id="node36" class="node"><title>Node36</title>
<polygon fill="white" stroke="#bfbfbf" points="3351,-57 3351,-87 3451,-87 3451,-57 3351,-57"/>
<text text-anchor="start" x="3359" y="-75" font-family="Helvetica,sans-Serif" font-size="10.00">boost/preprocessor</text>
<text text-anchor="middle" x="3401" y="-64" font-family="Helvetica,sans-Serif" font-size="10.00">/tuple/elem.hpp</text>
</g>
<!-- Node17&#45;&gt;Node36 -->
<g id="edge40" class="edge"><title>Node17&#45;&gt;Node36</title>
<path fill="none" stroke="midnightblue" d="M2226.31,-138.159C2419.29,-134.779 3102.21,-120.834 3340.92,-87.9049"/>
<polygon fill="midnightblue" stroke="midnightblue" points="3341.53,-91.3542 3350.93,-86.4742 3340.54,-84.4247 3341.53,-91.3542"/>
</g>
<!-- Node37 -->
<g id="node37" class="node"><title>Node37</title>
<polygon fill="white" stroke="#bfbfbf" points="1189,-62.5 1189,-81.5 1251,-81.5 1251,-62.5 1189,-62.5"/>
<text text-anchor="middle" x="1220" y="-69.5" font-family="Helvetica,sans-Serif" font-size="10.00">type_traits</text>
</g>
<!-- Node17&#45;&gt;Node37 -->
<g id="edge43" class="edge"><title>Node17&#45;&gt;Node37</title>
<path fill="none" stroke="midnightblue" d="M2123.82,-138.182C1956.53,-135.188 1426.98,-123.107 1260,-88 1256.3,-87.2218 1252.48,-86.1583 1248.75,-84.9541"/>
<polygon fill="midnightblue" stroke="midnightblue" points="1249.77,-81.6034 1239.18,-81.5372 1247.42,-88.1959 1249.77,-81.6034"/>
</g>
<!-- Node18&#45;&gt;Node10 -->
<g id="edge22" class="edge"><title>Node18&#45;&gt;Node10</title>
<path fill="none" stroke="midnightblue" d="M1051.19,-62.4035C1068.66,-52.5123 1097.58,-36.1442 1118.08,-24.5378"/>
<polygon fill="midnightblue" stroke="midnightblue" points="1119.86,-27.5525 1126.84,-19.5806 1116.41,-21.4607 1119.86,-27.5525"/>
</g>
<!-- Node18&#45;&gt;Node14 -->
<g id="edge21" class="edge"><title>Node18&#45;&gt;Node14</title>
<path fill="none" stroke="midnightblue" d="M1023.54,-62.4035C1009.58,-52.7797 986.735,-37.0242 970.009,-25.4891"/>
<polygon fill="midnightblue" stroke="midnightblue" points="971.661,-22.3767 961.442,-19.5806 967.687,-28.1392 971.661,-22.3767"/>
</g>
<!-- Node39&#45;&gt;Node11 -->
<g id="edge49" class="edge"><title>Node39&#45;&gt;Node11</title>
<path fill="none" stroke="midnightblue" d="M668.313,-130.481C596.573,-120.398 473.583,-103.072 368,-88 356.007,-86.288 343.239,-84.4549 330.903,-82.6787"/>
<polygon fill="midnightblue" stroke="midnightblue" points="331.067,-79.1662 320.67,-81.204 330.069,-86.0947 331.067,-79.1662"/>
</g>
<!-- Node39&#45;&gt;Node13 -->
<g id="edge47" class="edge"><title>Node39&#45;&gt;Node13</title>
<path fill="none" stroke="midnightblue" d="M727.35,-130.202C723.478,-109.551 713.739,-57.6064 708.486,-29.5937"/>
<polygon fill="midnightblue" stroke="midnightblue" points="711.881,-28.7061 706.598,-19.5224 705.001,-29.9962 711.881,-28.7061"/>
</g>
<!-- Node39&#45;&gt;Node18 -->
<g id="edge52" class="edge"><title>Node39&#45;&gt;Node18</title>
<path fill="none" stroke="midnightblue" d="M768.82,-130.439C824.492,-118.471 925.553,-96.7443 986.155,-83.7158"/>
<polygon fill="midnightblue" stroke="midnightblue" points="987.209,-87.0692 996.25,-81.5455 985.738,-80.2256 987.209,-87.0692"/>
</g>
<!-- Node40 -->
<g id="node40" class="node"><title>Node40</title>
<polygon fill="white" stroke="#bfbfbf" points="733,-62.5 733,-81.5 867,-81.5 867,-62.5 733,-62.5"/>
<text text-anchor="middle" x="800" y="-69.5" font-family="Helvetica,sans-Serif" font-size="10.00">boost/throw_exception.hpp</text>
</g>
<!-- Node39&#45;&gt;Node40 -->
<g id="edge48" class="edge"><title>Node39&#45;&gt;Node40</title>
<path fill="none" stroke="midnightblue" d="M738.282,-130.372C749.594,-119.856 768.93,-101.882 782.95,-88.8496"/>
<polygon fill="midnightblue" stroke="midnightblue" points="785.548,-91.2131 790.489,-81.8411 780.782,-86.0861 785.548,-91.2131"/>
</g>
<!-- Node39&#45;&gt;Node41 -->
<g id="edge50" class="edge"><title>Node39&#45;&gt;Node41</title>
<path fill="none" stroke="midnightblue" d="M715.535,-130.372C698.416,-119.403 668.631,-100.317 648.147,-87.1912"/>
<polygon fill="midnightblue" stroke="midnightblue" points="649.777,-84.0788 639.469,-81.6305 646,-89.9726 649.777,-84.0788"/>
</g>
<!-- Node42 -->
<g id="node42" class="node"><title>Node42</title>
<polygon fill="white" stroke="#bfbfbf" points="563.5,-0.5 563.5,-19.5 612.5,-19.5 612.5,-0.5 563.5,-0.5"/>
<text text-anchor="middle" x="588" y="-7.5" font-family="Helvetica,sans-Serif" font-size="10.00">cassert</text>
</g>
<!-- Node41&#45;&gt;Node42 -->
<g id="edge51" class="edge"><title>Node41&#45;&gt;Node42</title>
<path fill="none" stroke="midnightblue" d="M620.556,-62.4035C614.912,-53.4925 605.939,-39.3247 598.841,-28.1177"/>
<polygon fill="midnightblue" stroke="midnightblue" points="601.742,-26.1561 593.434,-19.5806 595.828,-29.9015 601.742,-26.1561"/>
</g>
<!-- Node45&#45;&gt;Node15 -->
<g id="edge61" class="edge"><title>Node45&#45;&gt;Node15</title>
<path fill="none" stroke="midnightblue" d="M3453.68,-311.645C3089.19,-304.083 1310.93,-267.193 971.902,-260.16"/>
<polygon fill="midnightblue" stroke="midnightblue" points="971.902,-256.659 961.831,-259.951 971.757,-263.658 971.902,-256.659"/>
</g>
<!-- Node46 -->
<g id="node46" class="node"><title>Node46</title>
<g id="a_node46"><a xlink:href="core_2fwGui_2include_2fwGui_2factory_2new_8hpp_source.html" target="_top" xlink:title="fwGui/factory/new.hpp">
<polygon fill="white" stroke="black" points="3487.5,-248.5 3487.5,-267.5 3602.5,-267.5 3602.5,-248.5 3487.5,-248.5"/>
<text text-anchor="middle" x="3545" y="-255.5" font-family="Helvetica,sans-Serif" font-size="10.00">fwGui/factory/new.hpp</text>
</a>
</g>
</g>
<!-- Node45&#45;&gt;Node46 -->
<g id="edge62" class="edge"><title>Node45&#45;&gt;Node46</title>
<path fill="none" stroke="midnightblue" d="M3523.29,-304.083C3526.85,-296.691 3532.02,-285.953 3536.42,-276.811"/>
<polygon fill="midnightblue" stroke="midnightblue" points="3539.6,-278.279 3540.79,-267.751 3533.29,-275.243 3539.6,-278.279"/>
</g>
<!-- Node45&#45;&gt;Node47 -->
<g id="edge74" class="edge"><title>Node45&#45;&gt;Node47</title>
<path fill="none" stroke="midnightblue" d="M3554.4,-304.387C3574.12,-297.734 3597.38,-286.452 3611,-268 3634.68,-235.936 3635.05,-186.809 3633.12,-160.025"/>
<polygon fill="midnightblue" stroke="midnightblue" points="3636.57,-159.369 3632.17,-149.73 3629.6,-160.008 3636.57,-159.369"/>
</g>
<!-- Node48 -->
<g id="node48" class="node"><title>Node48</title>
<g id="a_node48"><a xlink:href="core_2fwGui_2include_2fwGui_2registry_2detail_8hpp_source.html" target="_top" xlink:title="fwGui/registry/detail.hpp">
<polygon fill="white" stroke="black" points="3402,-192.5 3402,-211.5 3524,-211.5 3524,-192.5 3402,-192.5"/>
<text text-anchor="middle" x="3463" y="-199.5" font-family="Helvetica,sans-Serif" font-size="10.00">fwGui/registry/detail.hpp</text>
</a>
</g>
</g>
<!-- Node45&#45;&gt;Node48 -->
<g id="edge73" class="edge"><title>Node45&#45;&gt;Node48</title>
<path fill="none" stroke="midnightblue" d="M3508.93,-304.372C3499.78,-295.986 3486.59,-282.433 3479,-268 3471.4,-253.534 3467.32,-235.347 3465.19,-221.893"/>
<polygon fill="midnightblue" stroke="midnightblue" points="3468.64,-221.323 3463.82,-211.889 3461.71,-222.271 3468.64,-221.323"/>
</g>
<!-- Node46&#45;&gt;Node10 -->
<g id="edge72" class="edge"><title>Node46&#45;&gt;Node10</title>
<path fill="none" stroke="midnightblue" d="M3546.25,-248.231C3550.28,-216.142 3559.28,-104.453 3498,-56 3450.15,-18.1688 1445.5,-11.7678 1172.64,-11.0713"/>
<polygon fill="midnightblue" stroke="midnightblue" points="1172.65,-7.57145 1162.64,-11.0464 1172.63,-14.5714 1172.65,-7.57145"/>
</g>
<!-- Node46&#45;&gt;Node47 -->
<g id="edge63" class="edge"><title>Node46&#45;&gt;Node47</title>
<path fill="none" stroke="midnightblue" d="M3551.46,-248.281C3565.73,-229.041 3600.1,-182.677 3618.65,-157.664"/>
<polygon fill="midnightblue" stroke="midnightblue" points="3621.55,-159.622 3624.69,-149.505 3615.93,-155.453 3621.55,-159.622"/>
</g>
<!-- Node46&#45;&gt;Node48 -->
<g id="edge64" class="edge"><title>Node46&#45;&gt;Node48</title>
<path fill="none" stroke="midnightblue" d="M3531.83,-248.324C3519.15,-239.979 3499.77,-227.212 3484.79,-217.352"/>
<polygon fill="midnightblue" stroke="midnightblue" points="3486.42,-214.231 3476.14,-211.655 3482.57,-220.078 3486.42,-214.231"/>
</g>
<!-- Node48&#45;&gt;Node10 -->
<g id="edge65" class="edge"><title>Node48&#45;&gt;Node10</title>
<path fill="none" stroke="midnightblue" d="M3467.8,-192.31C3480.94,-167.198 3514.19,-93.9148 3477,-56 3434.69,-12.8638 1445.46,-11.044 1172.84,-10.9973"/>
<polygon fill="midnightblue" stroke="midnightblue" points="1172.5,-7.49733 1162.5,-10.9962 1172.5,-14.4973 1172.5,-7.49733"/>
</g>
<!-- Node48&#45;&gt;Node17 -->
<g id="edge66" class="edge"><title>Node48&#45;&gt;Node17</title>
<path fill="none" stroke="midnightblue" d="M3401.74,-198.146C3184.7,-188.036 2453.72,-153.984 2236.42,-143.861"/>
<polygon fill="midnightblue" stroke="midnightblue" points="2236.31,-140.353 2226.16,-143.383 2235.99,-147.345 2236.31,-140.353"/>
</g>
<!-- Node48&#45;&gt;Node47 -->
<g id="edge71" class="edge"><title>Node48&#45;&gt;Node47</title>
<path fill="none" stroke="midnightblue" d="M3487.07,-192.403C3516.01,-182.067 3564.76,-164.656 3597.4,-152.999"/>
<polygon fill="midnightblue" stroke="midnightblue" points="3598.73,-156.24 3606.97,-149.581 3596.38,-149.648 3598.73,-156.24"/>
</g>
<!-- Node49 -->
<g id="node49" class="node"><title>Node49</title>
<g id="a_node49"><a xlink:href="FactoryRegistry_8hpp_source.html" target="_top" xlink:title="fwCore/util/FactoryRegistry.hpp">
<polygon fill="white" stroke="red" points="1002.5,-130.5 1002.5,-149.5 1157.5,-149.5 1157.5,-130.5 1002.5,-130.5"/>
<text text-anchor="middle" x="1080" y="-137.5" font-family="Helvetica,sans-Serif" font-size="10.00">fwCore/util/FactoryRegistry.hpp</text>
</a>
</g>
</g>
<!-- Node48&#45;&gt;Node49 -->
<g id="edge67" class="edge"><title>Node48&#45;&gt;Node49</title>
<path fill="none" stroke="midnightblue" d="M3401.7,-199.457C3076.29,-191.263 1551.59,-152.874 1167.84,-143.212"/>
<polygon fill="midnightblue" stroke="midnightblue" points="1167.72,-139.708 1157.63,-142.955 1167.54,-146.705 1167.72,-139.708"/>
</g>
<!-- Node49&#45;&gt;Node7 -->
<g id="edge70" class="edge"><title>Node49&#45;&gt;Node7</title>
<path fill="none" stroke="midnightblue" d="M1035.42,-130.446C1021.84,-128.075 1006.84,-125.691 993,-124 773.166,-97.1531 709.939,-145.253 496,-88 493.661,-87.374 491.286,-86.5707 488.945,-85.6618"/>
<polygon fill="midnightblue" stroke="midnightblue" points="490.251,-82.4115 479.694,-81.5151 487.388,-88.7991 490.251,-82.4115"/>
</g>
<!-- Node49&#45;&gt;Node10 -->
<g id="edge69" class="edge"><title>Node49&#45;&gt;Node10</title>
<path fill="none" stroke="midnightblue" d="M1084.26,-130.202C1094.35,-109.367 1119.87,-56.6805 1133.35,-28.8524"/>
<polygon fill="midnightblue" stroke="midnightblue" points="1136.66,-30.048 1137.87,-19.5224 1130.36,-26.9965 1136.66,-30.048"/>
</g>
<!-- Node49&#45;&gt;Node43 -->
<g id="edge68" class="edge"><title>Node49&#45;&gt;Node43</title>
<path fill="none" stroke="midnightblue" d="M1056.86,-130.372C1024.2,-118.191 964.689,-96.0025 930.032,-83.0796"/>
<polygon fill="midnightblue" stroke="midnightblue" points="931.137,-79.7566 920.545,-79.5421 928.692,-86.3154 931.137,-79.7566"/>
</g>
<!-- Node50&#45;&gt;Node45 -->
<g id="edge77" class="edge"><title>Node50&#45;&gt;Node45</title>
<path fill="none" stroke="midnightblue" d="M3586.99,-360.324C3574.47,-351.979 3555.32,-339.212 3540.53,-329.352"/>
<polygon fill="midnightblue" stroke="midnightblue" points="3542.24,-326.289 3531.98,-323.655 3538.36,-332.114 3542.24,-326.289"/>
</g>
<!-- Node50&#45;&gt;Node47 -->
<g id="edge76" class="edge"><title>Node50&#45;&gt;Node47</title>
<path fill="none" stroke="midnightblue" d="M3603.51,-360.346C3612.8,-336.94 3637.85,-270.226 3646,-212 3648.53,-193.905 3643.38,-173.525 3638.44,-159.256"/>
<polygon fill="midnightblue" stroke="midnightblue" points="3641.63,-157.801 3634.83,-149.676 3635.08,-160.268 3641.63,-157.801"/>
</g>
</g>
</svg>
