<?xml version="1.0" encoding="UTF-8" standalone="no"?>
<!DOCTYPE svg PUBLIC "-//W3C//DTD SVG 1.1//EN"
 "http://www.w3.org/Graphics/SVG/1.1/DTD/svg11.dtd">
<!-- Generated by graphviz version 2.26.3 (20100126.1600)
 -->
<!-- Title: fwServices::get Pages: 1 -->
<!--zoomable 198 -->
<svg id="main" version="1.1" xmlns="http://www.w3.org/2000/svg" xmlns:xlink="http://www.w3.org/1999/xlink" xml:space="preserve" onload="init(evt)">
<style type="text/css"><![CDATA[
.edge:hover path { stroke: red; }
.edge:hover polygon { stroke: red; fill: red; }
]]></style>
<script type="text/javascript"><![CDATA[
var edges = document.getElementsByTagName('g');
if (edges && edges.length) {
  for (var i=0;i<edges.length;i++) {
    if (edges[i].id.substr(0,4)=='edge') {
      edges[i].setAttribute('class','edge');
    }
  }
}
]]></script>
        <defs>
                <circle id="rim" cx="0" cy="0" r="7"/>
                <circle id="rim2" cx="0" cy="0" r="3.5"/>
                <g id="zoomPlus">
                        <use xlink:href="#rim" fill="#404040">
                                <set attributeName="fill" to="#808080" begin="zoomplus.mouseover" end="zoomplus.mouseout"/>
                        </use>
                        <path d="M-4,0h8M0,-4v8" fill="none" stroke="white" stroke-width="1.5" pointer-events="none"/>
                </g>
                <g id="zoomMin">
                        <use xlink:href="#rim" fill="#404040">
                                <set attributeName="fill" to="#808080" begin="zoomminus.mouseover" end="zoomminus.mouseout"/>
                        </use>
                        <path d="M-4,0h8" fill="none" stroke="white" stroke-width="1.5" pointer-events="none"/>
                </g>
                <g id="dirArrow">
                        <path fill="none" stroke="white" stroke-width="1.5" d="M0,-3.0v7 M-2.5,-0.5L0,-3.0L2.5,-0.5"/>
                </g>
               <g id="resetDef">
                       <use xlink:href="#rim2" fill="#404040">
                               <set attributeName="fill" to="#808080" begin="reset.mouseover" end="reset.mouseout"/>
                       </use>
               </g>
        </defs>

<script type="text/javascript">
var viewWidth = 670;
var viewHeight = 198;
var sectionId = 'dynsection-1';
</script>
<script xlink:href="svgpan.js"/>
<svg id="graph" class="graph">
<g id="viewport">
<title>fwServices::get</title>
<polygon fill="white" stroke="white" points="-4,5 -4,-194 667,-194 667,5 -4,5"/>
<!-- Node1 -->
<g id="node1" class="node"><title>Node1</title>
<polygon fill="#bfbfbf" stroke="black" points="0.5,-84.5 0.5,-105.5 85.5,-105.5 85.5,-84.5 0.5,-84.5"/>
<text text-anchor="middle" x="43" y="-92.5" font-family="Helvetica,sans-Serif" font-size="10.00">fwServices::get</text>
</g>
<!-- Node2 -->
<g id="node3" class="node"><title>Node2</title>
<a xlink:href="classfwGui_1_1registrar_1_1MenuBarRegistrar.html#a6a385f14d04b81d0730ce9b520d5633d" target="_top" xlink:title="Starting menu bar registrar. All services managed in local menus and with start=&quot;yes&quot; in configuratio...">
<polygon fill="white" stroke="black" points="136,-156 136,-190 264,-190 264,-156 136,-156"/>
<text text-anchor="start" x="144" y="-177" font-family="Helvetica,sans-Serif" font-size="10.00">fwGui::registrar::MenuBar</text>
<text text-anchor="middle" x="200" y="-164" font-family="Helvetica,sans-Serif" font-size="10.00">Registrar::manage</text>
</a>
</g>
<!-- Node1&#45;&gt;Node2 -->
<g id="edge2" class="edge"><title>Node1&#45;&gt;Node2</title>
<path fill="none" stroke="midnightblue" d="M64.9112,-111.669C80.2735,-122.781 101.626,-137.109 122,-147 128.677,-150.242 135.86,-153.239 143.068,-155.958"/>
<polygon fill="midnightblue" stroke="midnightblue" points="66.7384,-108.668 56.6111,-105.555 62.5871,-114.304 66.7384,-108.668"/>
</g>
<!-- Node3 -->
<g id="node5" class="node"><title>Node3</title>
<a xlink:href="classfwGui_1_1registrar_1_1MenuRegistrar.html#a34388c35e7775ee3ee093470f411aca6" target="_top" xlink:title="manages action service associated with menuItem of menu. ">
<polygon fill="white" stroke="black" points="123.5,-104 123.5,-138 276.5,-138 276.5,-104 123.5,-104"/>
<text text-anchor="start" x="131.5" y="-125" font-family="Helvetica,sans-Serif" font-size="10.00">fwGui::registrar::MenuRegistrar</text>
<text text-anchor="middle" x="200" y="-112" font-family="Helvetica,sans-Serif" font-size="10.00">::manage</text>
</a>
</g>
<!-- Node1&#45;&gt;Node3 -->
<g id="edge4" class="edge"><title>Node1&#45;&gt;Node3</title>
<path fill="none" stroke="midnightblue" d="M95.9889,-103.775C104.797,-105.234 114.085,-106.772 123.34,-108.305"/>
<polygon fill="midnightblue" stroke="midnightblue" points="96.3384,-100.286 85.9009,-102.105 95.1947,-107.191 96.3384,-100.286"/>
</g>
<!-- Node4 -->
<g id="node7" class="node"><title>Node4</title>
<a xlink:href="classfwGui_1_1registrar_1_1ToolBarRegistrar.html#ac47b54f9af7d670824b6e85e3314daa9" target="_top" xlink:title="manages action service associated with menuItem of toolbar. ">
<polygon fill="white" stroke="black" points="138.5,-52 138.5,-86 261.5,-86 261.5,-52 138.5,-52"/>
<text text-anchor="start" x="146.5" y="-73" font-family="Helvetica,sans-Serif" font-size="10.00">fwGui::registrar::ToolBar</text>
<text text-anchor="middle" x="200" y="-60" font-family="Helvetica,sans-Serif" font-size="10.00">Registrar::manage</text>
</a>
</g>
<!-- Node1&#45;&gt;Node4 -->
<g id="edge6" class="edge"><title>Node1&#45;&gt;Node4</title>
<path fill="none" stroke="midnightblue" d="M96.0337,-86.2173C109.616,-83.9681 124.339,-81.5299 138.316,-79.2153"/>
<polygon fill="midnightblue" stroke="midnightblue" points="95.1947,-82.8085 85.9009,-87.8954 96.3384,-89.7145 95.1947,-82.8085"/>
</g>
<!-- Node5 -->
<g id="node9" class="node"><title>Node5</title>
<a xlink:href="classfwServices_1_1AppConfigManager.html#a5aa10670fdfbc568d4969722e3038bcc" target="_top" xlink:title="fwServices::AppConfigManager\l::startConnections">
<polygon fill="white" stroke="black" points="122.5,-0 122.5,-34 277.5,-34 277.5,-0 122.5,-0"/>
<text text-anchor="start" x="130.5" y="-21" font-family="Helvetica,sans-Serif" font-size="10.00">fwServices::AppConfigManager</text>
<text text-anchor="middle" x="200" y="-8" font-family="Helvetica,sans-Serif" font-size="10.00">::startConnections</text>
</a>
</g>
<!-- Node1&#45;&gt;Node5 -->
<g id="edge8" class="edge"><title>Node1&#45;&gt;Node5</title>
<path fill="none" stroke="midnightblue" d="M64.9112,-78.3311C80.2735,-67.2186 101.626,-52.8906 122,-43 128.677,-39.7585 135.86,-36.761 143.068,-34.0423"/>
<polygon fill="midnightblue" stroke="midnightblue" points="62.5871,-75.696 56.6111,-84.4446 66.7384,-81.3322 62.5871,-75.696"/>
</g>
<!-- Node6 -->
<g id="node11" class="node"><title>Node6</title>
<a xlink:href="classfwServices_1_1AppConfigManager.html#a60f0378e26db50b831d089b814291c12" target="_top" xlink:title="Starts services specified in config. ">
<polygon fill="white" stroke="black" points="314.5,-0 314.5,-34 469.5,-34 469.5,-0 314.5,-0"/>
<text text-anchor="start" x="322.5" y="-21" font-family="Helvetica,sans-Serif" font-size="10.00">fwServices::AppConfigManager</text>
<text text-anchor="middle" x="392" y="-8" font-family="Helvetica,sans-Serif" font-size="10.00">::start</text>
</a>
</g>
<!-- Node5&#45;&gt;Node6 -->
<g id="edge10" class="edge"><title>Node5&#45;&gt;Node6</title>
<path fill="none" stroke="midnightblue" d="M287.605,-17C296.571,-17 305.635,-17 314.482,-17"/>
<polygon fill="midnightblue" stroke="midnightblue" points="287.54,-13.5001 277.54,-17 287.54,-20.5001 287.54,-13.5001"/>
</g>
<!-- Node7 -->
<g id="node13" class="node"><title>Node7</title>
<a xlink:href="classfwServices_1_1AppConfigManager.html#a7c91a03361df06fef993de852251d972" target="_top" xlink:title="Calls methods : create, start then update. ">
<polygon fill="white" stroke="black" points="506.5,-0 506.5,-34 661.5,-34 661.5,-0 506.5,-0"/>
<text text-anchor="start" x="514.5" y="-21" font-family="Helvetica,sans-Serif" font-size="10.00">fwServices::AppConfigManager</text>
<text text-anchor="middle" x="584" y="-8" font-family="Helvetica,sans-Serif" font-size="10.00">::launch</text>
</a>
</g>
<!-- Node6&#45;&gt;Node7 -->
<g id="edge12" class="edge"><title>Node6&#45;&gt;Node7</title>
<path fill="none" stroke="midnightblue" d="M479.605,-17C488.571,-17 497.635,-17 506.482,-17"/>
<polygon fill="midnightblue" stroke="midnightblue" points="479.54,-13.5001 469.54,-17 479.54,-20.5001 479.54,-13.5001"/>
</g>
</g>
</svg>
        <g id="navigator" transform="translate(0 0)" fill="#404254">
                <rect fill="#f2f5e9" fill-opacity="0.5" stroke="#606060" stroke-width=".5" x="0" y="0" width="60" height="60"/>
                <use id="zoomplus" xlink:href="#zoomPlus" x="17" y="9" onmousedown="handleZoom(evt,'in')"/>
                <use id="zoomminus" xlink:href="#zoomMin" x="42" y="9" onmousedown="handleZoom(evt,'out')"/>
                <use id="reset" xlink:href="#resetDef" x="30" y="36" onmousedown="handleReset()"/>
                <g id="arrowUp" xlink:href="#dirArrow" transform="translate(30 24)" onmousedown="handlePan(0,-1)">
                  <use xlink:href="#rim" fill="#404040">
                        <set attributeName="fill" to="#808080" begin="arrowUp.mouseover" end="arrowUp.mouseout"/>
                  </use>
                  <path fill="none" stroke="white" stroke-width="1.5" d="M0,-3.0v7 M-2.5,-0.5L0,-3.0L2.5,-0.5"/>
                </g>
                <g id="arrowRight" xlink:href="#dirArrow" transform="rotate(90) translate(36 -43)" onmousedown="handlePan(1,0)">
                  <use xlink:href="#rim" fill="#404040">
                        <set attributeName="fill" to="#808080" begin="arrowRight.mouseover" end="arrowRight.mouseout"/>
                  </use>
                  <path fill="none" stroke="white" stroke-width="1.5" d="M0,-3.0v7 M-2.5,-0.5L0,-3.0L2.5,-0.5"/>
                </g>
                <g id="arrowDown" xlink:href="#dirArrow" transform="rotate(180) translate(-30 -48)" onmousedown="handlePan(0,1)">
                  <use xlink:href="#rim" fill="#404040">
                        <set attributeName="fill" to="#808080" begin="arrowDown.mouseover" end="arrowDown.mouseout"/>
                  </use>
                  <path fill="none" stroke="white" stroke-width="1.5" d="M0,-3.0v7 M-2.5,-0.5L0,-3.0L2.5,-0.5"/>
                </g>
                <g id="arrowLeft" xlink:href="#dirArrow" transform="rotate(270) translate(-36 17)" onmousedown="handlePan(-1,0)">
                  <use xlink:href="#rim" fill="#404040">
                        <set attributeName="fill" to="#808080" begin="arrowLeft.mouseover" end="arrowLeft.mouseout"/>
                  </use>
                  <path fill="none" stroke="white" stroke-width="1.5" d="M0,-3.0v7 M-2.5,-0.5L0,-3.0L2.5,-0.5"/>
                </g>
        </g>
        <svg viewBox="0 0 15 15" width="100%" height="30px" preserveAspectRatio="xMaxYMin meet">
         <g id="arrow_out" transform="scale(0.3 0.3)">
          <a xlink:href="namespacefwServices_ac1330dd9d5bce7469379218974afd269_icgraph_org.svg" target="_base">
           <rect id="button" ry="5" rx="5" y="6" x="6" height="38" width="38"
                fill="#f2f5e9" fill-opacity="0.5" stroke="#606060" stroke-width="1.0"/>
           <path id="arrow"
             d="M 11.500037,31.436501 C 11.940474,20.09759 22.043105,11.32322 32.158766,21.979434 L 37.068811,17.246167 C 37.068811,17.246167 37.088388,32 37.088388,32 L 22.160133,31.978069 C 22.160133,31.978069 26.997745,27.140456 26.997745,27.140456 C 18.528582,18.264221 13.291696,25.230495 11.500037,31.436501 z"
             style="fill:#404040;"/>
          </a>
         </g>
        </svg>
</svg>
