<?xml version="1.0" encoding="UTF-8" standalone="no"?>
<!DOCTYPE svg PUBLIC "-//W3C//DTD SVG 1.1//EN"
 "http://www.w3.org/Graphics/SVG/1.1/DTD/svg11.dtd">
<!-- Generated by graphviz version 2.36.0 (20140111.2315)
 -->
<!-- Title: fwRuntime::getAllExtensionsForPoint Pages: 1 -->
<svg width="462pt" height="87pt"
 viewBox="0.00 0.00 462.00 87.00" xmlns="http://www.w3.org/2000/svg" xmlns:xlink="http://www.w3.org/1999/xlink">
<g id="graph0" class="graph" transform="scale(1 1) rotate(0) translate(4 83)">
<title>fwRuntime::getAllExtensionsForPoint</title>
<polygon fill="white" stroke="none" points="-4,4 -4,-83 458,-83 458,4 -4,4"/>
<!-- Node1 -->
<g id="node1" class="node"><title>Node1</title>
<polygon fill="#bfbfbf" stroke="black" points="0.5,-24 0.5,-54 143.5,-54 143.5,-24 0.5,-24"/>
<text text-anchor="start" x="8.5" y="-42" font-family="Helvetica,sans-Serif" font-size="10.00">fwRuntime::getAllExtensions</text>
<text text-anchor="middle" x="72" y="-31" font-family="Helvetica,sans-Serif" font-size="10.00">ForPoint</text>
</g>
<!-- Node2 -->
<g id="node2" class="node"><title>Node2</title>
<g id="a_node2"><a xlink:href="namespacefwRuntime.html#a4e8c51fcedecc056867d28ffc974f088" target="_top" xlink:title="Retrieves the extension point having the specified identifier. ">
<polygon fill="white" stroke="black" points="180.5,-24 180.5,-54 309.5,-54 309.5,-24 180.5,-24"/>
<text text-anchor="start" x="188.5" y="-42" font-family="Helvetica,sans-Serif" font-size="10.00">fwRuntime::findExtension</text>
<text text-anchor="middle" x="245" y="-31" font-family="Helvetica,sans-Serif" font-size="10.00">Point</text>
</a>
</g>
</g>
<!-- Node1&#45;&gt;Node2 -->
<g id="edge1" class="edge"><title>Node1&#45;&gt;Node2</title>
<path fill="none" stroke="midnightblue" d="M143.54,-39C152.334,-39 161.347,-39 170.189,-39"/>
<polygon fill="midnightblue" stroke="midnightblue" points="170.468,-42.5001 180.468,-39 170.468,-35.5001 170.468,-42.5001"/>
</g>
<!-- Node3 -->
<g id="node3" class="node"><title>Node3</title>
<g id="a_node3"><a xlink:href="structfwRuntime_1_1Runtime.html#a27bf9d08addb51435e096654c099da53" target="_top" xlink:title="Retrieves the extension point instance matching the specified identifier. ">
<polygon fill="white" stroke="black" points="346.5,-49 346.5,-79 453.5,-79 453.5,-49 346.5,-49"/>
<text text-anchor="start" x="354.5" y="-67" font-family="Helvetica,sans-Serif" font-size="10.00">fwRuntime::Runtime</text>
<text text-anchor="middle" x="400" y="-56" font-family="Helvetica,sans-Serif" font-size="10.00">::findExtensionPoint</text>
</a>
</g>
</g>
<!-- Node2&#45;&gt;Node3 -->
<g id="edge2" class="edge"><title>Node2&#45;&gt;Node3</title>
<path fill="none" stroke="midnightblue" d="M309.557,-49.3851C318.29,-50.8121 327.256,-52.2771 335.98,-53.7026"/>
<polygon fill="midnightblue" stroke="midnightblue" points="335.648,-57.1947 346.082,-55.3532 336.777,-50.2863 335.648,-57.1947"/>
</g>
<!-- Node4 -->
<g id="node4" class="node"><title>Node4</title>
<g id="a_node4"><a xlink:href="structfwRuntime_1_1Runtime.html#acf43340892d940d12b36db78376fe08f" target="_top" xlink:title="Retrieves the default runtime instance. ">
<polygon fill="white" stroke="black" points="346.5,-0 346.5,-30 453.5,-30 453.5,-0 346.5,-0"/>
<text text-anchor="start" x="354.5" y="-18" font-family="Helvetica,sans-Serif" font-size="10.00">fwRuntime::Runtime</text>
<text text-anchor="middle" x="400" y="-7" font-family="Helvetica,sans-Serif" font-size="10.00">::getDefault</text>
</a>
</g>
</g>
<!-- Node2&#45;&gt;Node4 -->
<g id="edge3" class="edge"><title>Node2&#45;&gt;Node4</title>
<path fill="none" stroke="midnightblue" d="M309.557,-29.0303C318.29,-27.6604 327.256,-26.254 335.98,-24.8855"/>
<polygon fill="midnightblue" stroke="midnightblue" points="336.745,-28.3084 346.082,-23.3009 335.66,-21.393 336.745,-28.3084"/>
</g>
</g>
</svg>
