<?xml version="1.0" encoding="UTF-8" standalone="no"?>
<!DOCTYPE svg PUBLIC "-//W3C//DTD SVG 1.1//EN"
 "http://www.w3.org/Graphics/SVG/1.1/DTD/svg11.dtd">
<!-- Generated by graphviz version 2.36.0 (20140111.2315)
 -->
<!-- Title: fwRuntime::getBundleResourcePath Pages: 1 -->
<svg width="576pt" height="126pt"
 viewBox="0.00 0.00 576.00 126.00" xmlns="http://www.w3.org/2000/svg" xmlns:xlink="http://www.w3.org/1999/xlink">
<g id="graph0" class="graph" transform="scale(1 1) rotate(0) translate(4 122)">
<title>fwRuntime::getBundleResourcePath</title>
<polygon fill="white" stroke="none" points="-4,4 -4,-122 572,-122 572,4 -4,4"/>
<!-- Node1 -->
<g id="node1" class="node"><title>Node1</title>
<polygon fill="#bfbfbf" stroke="black" points="0,-45.5 0,-64.5 176,-64.5 176,-45.5 0,-45.5"/>
<text text-anchor="middle" x="88" y="-52.5" font-family="Helvetica,sans-Serif" font-size="10.00">fwRuntime::getBundleResourcePath</text>
</g>
<!-- Node2 -->
<g id="node2" class="node"><title>Node2</title>
<g id="a_node2"><a xlink:href="namespacefwRuntime.html#a09ab28038084fda4571324c6982e2ed2" target="_top" xlink:title="Retrieves all executable objects for the point having the specified identifier. ">
<polygon fill="white" stroke="black" points="424.5,-88 424.5,-118 567.5,-118 567.5,-88 424.5,-88"/>
<text text-anchor="start" x="432.5" y="-106" font-family="Helvetica,sans-Serif" font-size="10.00">fwRuntime::getAllExecutable</text>
<text text-anchor="middle" x="496" y="-95" font-family="Helvetica,sans-Serif" font-size="10.00">ForPoint</text>
</a>
</g>
</g>
<!-- Node1&#45;&gt;Node2 -->
<g id="edge1" class="edge"><title>Node1&#45;&gt;Node2</title>
<path fill="none" stroke="midnightblue" d="M141.777,-66.5977C163.447,-71.0197 188.84,-75.7681 212,-79 284.032,-89.0518 367.007,-95.4879 424.402,-99.1378"/>
<polygon fill="midnightblue" stroke="midnightblue" points="142.288,-63.1292 131.786,-64.5287 140.868,-69.9838 142.288,-63.1292"/>
</g>
<!-- Node3 -->
<g id="node3" class="node"><title>Node3</title>
<g id="a_node3"><a xlink:href="namespacefwRuntime.html#ad4b44e7513060eaa1327b8b5e69557a4" target="_top" xlink:title="Retrieve a filesystem valid path for a path relative to the bundle having the specified identifier...">
<polygon fill="white" stroke="black" points="222.5,-40 222.5,-70 377.5,-70 377.5,-40 222.5,-40"/>
<text text-anchor="start" x="230.5" y="-58" font-family="Helvetica,sans-Serif" font-size="10.00">fwRuntime::getBundleResource</text>
<text text-anchor="middle" x="300" y="-47" font-family="Helvetica,sans-Serif" font-size="10.00">FilePath</text>
</a>
</g>
</g>
<!-- Node1&#45;&gt;Node3 -->
<g id="edge2" class="edge"><title>Node1&#45;&gt;Node3</title>
<path fill="none" stroke="midnightblue" d="M186.353,-55C198.453,-55 210.689,-55 222.415,-55"/>
<polygon fill="midnightblue" stroke="midnightblue" points="186.235,-51.5001 176.235,-55 186.234,-58.5001 186.235,-51.5001"/>
</g>
<!-- Node6 -->
<g id="node6" class="node"><title>Node6</title>
<g id="a_node6"><a xlink:href="namespacefwRuntime.html#abb6774f060e64cd8bd5b17e188fdf050" target="_top" xlink:title="Retrieve a filesystem valid path for a path relative to the specified bundle. ">
<polygon fill="white" stroke="black" points="212,-1.5 212,-20.5 388,-20.5 388,-1.5 212,-1.5"/>
<text text-anchor="middle" x="300" y="-8.5" font-family="Helvetica,sans-Serif" font-size="10.00">fwRuntime::getBundleResourcePath</text>
</a>
</g>
</g>
<!-- Node1&#45;&gt;Node6 -->
<g id="edge6" class="edge"><title>Node1&#45;&gt;Node6</title>
<path fill="none" stroke="midnightblue" d="M144.364,-43.4C178.403,-36.2678 221.483,-27.2416 253.522,-20.5287"/>
<polygon fill="midnightblue" stroke="midnightblue" points="143.637,-39.9763 134.567,-45.4527 145.072,-46.8275 143.637,-39.9763"/>
</g>
<!-- Node3&#45;&gt;Node2 -->
<g id="edge3" class="edge"><title>Node3&#45;&gt;Node2</title>
<path fill="none" stroke="midnightblue" d="M371.773,-72.5109C392.299,-77.5895 414.52,-83.0873 434.365,-87.9976"/>
<polygon fill="midnightblue" stroke="midnightblue" points="372.398,-69.0601 361.851,-70.0558 370.717,-75.8552 372.398,-69.0601"/>
</g>
<!-- Node4 -->
<g id="node4" class="node"><title>Node4</title>
<g id="a_node4"><a xlink:href="classuiImageQt_1_1WindowLevel.html#a74acc65665951b3a50f0d21e0478a2da" target="_top" xlink:title="Install the layout. ">
<polygon fill="white" stroke="black" points="433,-39 433,-69 559,-69 559,-39 433,-39"/>
<text text-anchor="start" x="441" y="-57" font-family="Helvetica,sans-Serif" font-size="10.00">uiImageQt::WindowLevel</text>
<text text-anchor="middle" x="496" y="-46" font-family="Helvetica,sans-Serif" font-size="10.00">::starting</text>
</a>
</g>
</g>
<!-- Node3&#45;&gt;Node4 -->
<g id="edge4" class="edge"><title>Node3&#45;&gt;Node4</title>
<path fill="none" stroke="midnightblue" d="M388.069,-54.5512C403.185,-54.4733 418.627,-54.3937 432.904,-54.3201"/>
<polygon fill="midnightblue" stroke="midnightblue" points="387.656,-51.0532 377.674,-54.6048 387.692,-58.0531 387.656,-51.0532"/>
</g>
<!-- Node5 -->
<g id="node5" class="node"><title>Node5</title>
<g id="a_node5"><a xlink:href="classguiQt_1_1Plugin.html#a44a876dabca2fdfffa972a874030f625" target="_top" xlink:title="Notifies the plugin about its stop. ">
<polygon fill="white" stroke="black" points="447,-0.5 447,-19.5 545,-19.5 545,-0.5 447,-0.5"/>
<text text-anchor="middle" x="496" y="-7.5" font-family="Helvetica,sans-Serif" font-size="10.00">guiQt::Plugin::stop</text>
</a>
</g>
</g>
<!-- Node3&#45;&gt;Node5 -->
<g id="edge5" class="edge"><title>Node3&#45;&gt;Node5</title>
<path fill="none" stroke="midnightblue" d="M375.901,-37.6261C402.42,-31.4747 431.267,-24.7834 453.928,-19.527"/>
<polygon fill="midnightblue" stroke="midnightblue" points="374.819,-34.2839 365.869,-39.9531 376.401,-41.1029 374.819,-34.2839"/>
</g>
</g>
</svg>
