<?xml version="1.0" encoding="UTF-8" standalone="no"?>
<!DOCTYPE svg PUBLIC "-//W3C//DTD SVG 1.1//EN"
 "http://www.w3.org/Graphics/SVG/1.1/DTD/svg11.dtd">
<!-- Generated by graphviz version 2.26.3 (20100126.1600)
 -->
<!-- Title: fwRuntime::getAllConfigurationElementsForPoint Pages: 1 -->
<!--zoomable 408 -->
<svg id="main" version="1.1" xmlns="http://www.w3.org/2000/svg" xmlns:xlink="http://www.w3.org/1999/xlink" xml:space="preserve" onload="init(evt)">
<style type="text/css"><![CDATA[
.edge:hover path { stroke: red; }
.edge:hover polygon { stroke: red; fill: red; }
]]></style>
<script type="text/javascript"><![CDATA[
var edges = document.getElementsByTagName('g');
if (edges && edges.length) {
  for (var i=0;i<edges.length;i++) {
    if (edges[i].id.substr(0,4)=='edge') {
      edges[i].setAttribute('class','edge');
    }
  }
}
]]></script>
        <defs>
                <circle id="rim" cx="0" cy="0" r="7"/>
                <circle id="rim2" cx="0" cy="0" r="3.5"/>
                <g id="zoomPlus">
                        <use xlink:href="#rim" fill="#404040">
                                <set attributeName="fill" to="#808080" begin="zoomplus.mouseover" end="zoomplus.mouseout"/>
                        </use>
                        <path d="M-4,0h8M0,-4v8" fill="none" stroke="white" stroke-width="1.5" pointer-events="none"/>
                </g>
                <g id="zoomMin">
                        <use xlink:href="#rim" fill="#404040">
                                <set attributeName="fill" to="#808080" begin="zoomminus.mouseover" end="zoomminus.mouseout"/>
                        </use>
                        <path d="M-4,0h8" fill="none" stroke="white" stroke-width="1.5" pointer-events="none"/>
                </g>
                <g id="dirArrow">
                        <path fill="none" stroke="white" stroke-width="1.5" d="M0,-3.0v7 M-2.5,-0.5L0,-3.0L2.5,-0.5"/>
                </g>
               <g id="resetDef">
                       <use xlink:href="#rim2" fill="#404040">
                               <set attributeName="fill" to="#808080" begin="reset.mouseover" end="reset.mouseout"/>
                       </use>
               </g>
        </defs>

<script type="text/javascript">
var viewWidth = 682;
var viewHeight = 408;
var sectionId = 'dynsection-9';
</script>
<script xlink:href="svgpan.js"/>
<svg id="graph" class="graph">
<g id="viewport">
<title>fwRuntime::getAllConfigurationElementsForPoint</title>
<polygon fill="white" stroke="white" points="-4,5 -4,-404 679,-404 679,5 -4,5"/>
<!-- Node1 -->
<g id="node1" class="node"><title>Node1</title>
<polygon fill="#bfbfbf" stroke="black" points="0,-184 0,-218 152,-218 152,-184 0,-184"/>
<text text-anchor="start" x="8" y="-205" font-family="Helvetica,sans-Serif" font-size="10.00">fwRuntime::getAllConfiguration</text>
<text text-anchor="middle" x="76" y="-192" font-family="Helvetica,sans-Serif" font-size="10.00">ElementsForPoint</text>
</g>
<!-- Node2 -->
<g id="node3" class="node"><title>Node2</title>
<a xlink:href="namespacefwRuntime.html#a4e8c51fcedecc056867d28ffc974f088" target="_top" xlink:title="Retrieves the extension point having the specified identifier. ">
<polygon fill="white" stroke="black" points="188.5,-184 188.5,-218 317.5,-218 317.5,-184 188.5,-184"/>
<text text-anchor="start" x="196.5" y="-205" font-family="Helvetica,sans-Serif" font-size="10.00">fwRuntime::findExtension</text>
<text text-anchor="middle" x="253" y="-192" font-family="Helvetica,sans-Serif" font-size="10.00">Point</text>
</a>
</g>
<!-- Node1&#45;&gt;Node2 -->
<g id="edge2" class="edge"><title>Node1&#45;&gt;Node2</title>
<path fill="none" stroke="midnightblue" d="M152.091,-201C160.779,-201 169.629,-201 178.298,-201"/>
<polygon fill="midnightblue" stroke="midnightblue" points="178.371,-204.5 188.371,-201 178.371,-197.5 178.371,-204.5"/>
</g>
<!-- Node3 -->
<g id="node5" class="node"><title>Node3</title>
<a xlink:href="structfwRuntime_1_1Runtime.html#adfd7ac9087797b44b84746183d00c62a" target="_top" xlink:title="Adds all bundle found in t he given path. ">
<polygon fill="white" stroke="black" points="388.5,-366 388.5,-400 495.5,-400 495.5,-366 388.5,-366"/>
<text text-anchor="start" x="396.5" y="-387" font-family="Helvetica,sans-Serif" font-size="10.00">fwRuntime::Runtime</text>
<text text-anchor="middle" x="442" y="-374" font-family="Helvetica,sans-Serif" font-size="10.00">::addBundles</text>
</a>
</g>
<!-- Node2&#45;&gt;Node3 -->
<g id="edge4" class="edge"><title>Node2&#45;&gt;Node3</title>
<path fill="none" stroke="midnightblue" d="M259.477,-218.422C272.376,-250.709 304.377,-319.918 354,-357 361.403,-362.532 369.971,-366.893 378.794,-370.328"/>
<polygon fill="midnightblue" stroke="midnightblue" points="377.832,-373.699 388.427,-373.704 380.147,-367.093 377.832,-373.699"/>
</g>
<!-- Node4 -->
<g id="node7" class="node"><title>Node4</title>
<a xlink:href="namespacefwRuntime.html#ac3ad56e80e701530f9e225733f416421" target="_top" xlink:title="Loads all bundles that can be found in the specified directory. ">
<polygon fill="white" stroke="black" points="381.5,-326.5 381.5,-347.5 502.5,-347.5 502.5,-326.5 381.5,-326.5"/>
<text text-anchor="middle" x="442" y="-334.5" font-family="Helvetica,sans-Serif" font-size="10.00">fwRuntime::addBundles</text>
</a>
</g>
<!-- Node2&#45;&gt;Node4 -->
<g id="edge6" class="edge"><title>Node2&#45;&gt;Node4</title>
<path fill="none" stroke="midnightblue" d="M262.983,-218.222C278.838,-243.95 312.29,-292.057 354,-317 359.471,-320.272 365.426,-323.009 371.573,-325.298"/>
<polygon fill="midnightblue" stroke="midnightblue" points="370.754,-328.714 381.348,-328.54 372.958,-322.07 370.754,-328.714"/>
</g>
<!-- Node5 -->
<g id="node9" class="node"><title>Node5</title>
<a xlink:href="structfwRuntime_1_1io_1_1ProfileReader.html#ad462ad9ee707762408550e2bbce17009" target="_top" xlink:title="Creates a profile from an xml file located at the given path. ">
<polygon fill="white" stroke="black" points="370.5,-274 370.5,-308 513.5,-308 513.5,-274 370.5,-274"/>
<text text-anchor="start" x="378.5" y="-295" font-family="Helvetica,sans-Serif" font-size="10.00">fwRuntime::io::ProfileReader</text>
<text text-anchor="middle" x="442" y="-282" font-family="Helvetica,sans-Serif" font-size="10.00">::createProfile</text>
</a>
</g>
<!-- Node2&#45;&gt;Node5 -->
<g id="edge8" class="edge"><title>Node2&#45;&gt;Node5</title>
<path fill="none" stroke="midnightblue" d="M279.261,-218.205C299.222,-230.817 327.649,-247.797 354,-260 361.903,-263.66 370.368,-267.15 378.81,-270.38"/>
<polygon fill="midnightblue" stroke="midnightblue" points="377.708,-273.704 388.301,-273.911 380.149,-267.143 377.708,-273.704"/>
</g>
<!-- Node6 -->
<g id="node11" class="node"><title>Node6</title>
<a xlink:href="structfwRuntime_1_1Runtime.html#acf43340892d940d12b36db78376fe08f" target="_top" xlink:title="Retrieves the default runtime instance. ">
<polygon fill="white" stroke="black" points="566.5,-251 566.5,-285 673.5,-285 673.5,-251 566.5,-251"/>
<text text-anchor="start" x="574.5" y="-272" font-family="Helvetica,sans-Serif" font-size="10.00">fwRuntime::Runtime</text>
<text text-anchor="middle" x="620" y="-259" font-family="Helvetica,sans-Serif" font-size="10.00">::getDefault</text>
</a>
</g>
<!-- Node2&#45;&gt;Node6 -->
<g id="edge20" class="edge"><title>Node2&#45;&gt;Node6</title>
<path fill="none" stroke="midnightblue" d="M315.273,-218.06C328.03,-221.264 341.407,-224.415 354,-227 422.693,-241.1 502.263,-252.758 556.349,-259.993"/>
<polygon fill="midnightblue" stroke="midnightblue" points="556.106,-263.491 566.479,-261.336 557.026,-256.552 556.106,-263.491"/>
</g>
<!-- Node7 -->
<g id="node13" class="node"><title>Node7</title>
<a xlink:href="structfwRuntime_1_1Runtime.html#aa7a79fcdb77983835e28ddc61fe822ac" target="_top" xlink:title="Retrieves the bundle for the specified idenfier. ">
<polygon fill="white" stroke="black" points="388.5,-184 388.5,-218 495.5,-218 495.5,-184 388.5,-184"/>
<text text-anchor="start" x="396.5" y="-205" font-family="Helvetica,sans-Serif" font-size="10.00">fwRuntime::Runtime</text>
<text text-anchor="middle" x="442" y="-192" font-family="Helvetica,sans-Serif" font-size="10.00">::findBundle</text>
</a>
</g>
<!-- Node2&#45;&gt;Node7 -->
<g id="edge12" class="edge"><title>Node2&#45;&gt;Node7</title>
<path fill="none" stroke="midnightblue" d="M317.514,-201C337.184,-201 358.788,-201 378.397,-201"/>
<polygon fill="midnightblue" stroke="midnightblue" points="378.448,-204.5 388.448,-201 378.448,-197.5 378.448,-204.5"/>
</g>
<!-- Node8 -->
<g id="node15" class="node"><title>Node8</title>
<a xlink:href="structfwRuntime_1_1Runtime.html#a27bf9d08addb51435e096654c099da53" target="_top" xlink:title="Retrieves the extension point instance matching the specified identifier. ">
<polygon fill="white" stroke="black" points="388.5,-132 388.5,-166 495.5,-166 495.5,-132 388.5,-132"/>
<text text-anchor="start" x="396.5" y="-153" font-family="Helvetica,sans-Serif" font-size="10.00">fwRuntime::Runtime</text>
<text text-anchor="middle" x="442" y="-140" font-family="Helvetica,sans-Serif" font-size="10.00">::findExtensionPoint</text>
</a>
</g>
<!-- Node2&#45;&gt;Node8 -->
<g id="edge14" class="edge"><title>Node2&#45;&gt;Node8</title>
<path fill="none" stroke="midnightblue" d="M314.886,-183.973C335.24,-178.373 357.894,-172.14 378.375,-166.505"/>
<polygon fill="midnightblue" stroke="midnightblue" points="379.522,-169.82 388.235,-163.792 377.665,-163.071 379.522,-169.82"/>
</g>
<!-- Node9 -->
<g id="node17" class="node"><title>Node9</title>
<a xlink:href="structfwRuntime_1_1IExecutable.html#a79af3d0dc2695861887f461887eee62f" target="_top" xlink:title="Retrieves the bundle the executable originates from. ">
<polygon fill="white" stroke="black" points="381,-80 381,-114 503,-114 503,-80 381,-80"/>
<text text-anchor="start" x="389" y="-101" font-family="Helvetica,sans-Serif" font-size="10.00">fwRuntime::IExecutable</text>
<text text-anchor="middle" x="442" y="-88" font-family="Helvetica,sans-Serif" font-size="10.00">::getBundle</text>
</a>
</g>
<!-- Node2&#45;&gt;Node9 -->
<g id="edge16" class="edge"><title>Node2&#45;&gt;Node9</title>
<path fill="none" stroke="midnightblue" d="M270.925,-183.78C290.084,-166.23 322.04,-139.333 354,-123 359.492,-120.193 365.337,-117.641 371.3,-115.329"/>
<polygon fill="midnightblue" stroke="midnightblue" points="372.537,-118.604 380.737,-111.895 370.143,-112.026 372.537,-118.604"/>
</g>
<!-- Node10 -->
<g id="node19" class="node"><title>Node10</title>
<a xlink:href="namespacefwRuntime.html#ad6c36b4e1c879d1a48013f58a7d6ea3c" target="_top" xlink:title="Retrieve a filesystem valid path for a path relative to the bundle having the specified identifier...">
<polygon fill="white" stroke="black" points="354,-40.5 354,-61.5 530,-61.5 530,-40.5 354,-40.5"/>
<text text-anchor="middle" x="442" y="-48.5" font-family="Helvetica,sans-Serif" font-size="10.00">fwRuntime::getBundleResourcePath</text>
</a>
</g>
<!-- Node2&#45;&gt;Node10 -->
<g id="edge18" class="edge"><title>Node2&#45;&gt;Node10</title>
<path fill="none" stroke="midnightblue" d="M261.466,-183.559C276.158,-155.238 309.155,-99.547 354,-71 357.16,-68.9887 360.497,-67.1786 363.95,-65.5497"/>
<polygon fill="midnightblue" stroke="midnightblue" points="365.436,-68.7223 373.322,-61.6473 362.745,-62.26 365.436,-68.7223"/>
</g>
<!-- Node11 -->
<g id="node22" class="node"><title>Node11</title>
<a xlink:href="namespacefwRuntime.html#a0c1d7b9c7ef1220c048171a8f1f2042a" target="_top" xlink:title="Starts the given bundle set profile. ">
<polygon fill="white" stroke="black" points="383.5,-0.5 383.5,-21.5 500.5,-21.5 500.5,-0.5 383.5,-0.5"/>
<text text-anchor="middle" x="442" y="-8.5" font-family="Helvetica,sans-Serif" font-size="10.00">fwRuntime::startProfile</text>
</a>
</g>
<!-- Node2&#45;&gt;Node11 -->
<g id="edge22" class="edge"><title>Node2&#45;&gt;Node11</title>
<path fill="none" stroke="midnightblue" d="M258.078,-183.887C269.293,-149.21 299.595,-70.5922 354,-31 359.922,-26.6902 366.616,-23.2875 373.603,-20.6043"/>
<polygon fill="midnightblue" stroke="midnightblue" points="374.891,-23.8639 383.266,-17.3738 372.672,-17.2251 374.891,-23.8639"/>
</g>
<!-- Node5&#45;&gt;Node6 -->
<g id="edge10" class="edge"><title>Node5&#45;&gt;Node6</title>
<path fill="none" stroke="midnightblue" d="M513.63,-281.744C527.641,-279.934 542.249,-278.046 555.992,-276.271"/>
<polygon fill="midnightblue" stroke="midnightblue" points="556.839,-279.69 566.308,-274.938 555.942,-272.748 556.839,-279.69"/>
</g>
</g>
</svg>
        <g id="navigator" transform="translate(0 0)" fill="#404254">
                <rect fill="#f2f5e9" fill-opacity="0.5" stroke="#606060" stroke-width=".5" x="0" y="0" width="60" height="60"/>
                <use id="zoomplus" xlink:href="#zoomPlus" x="17" y="9" onmousedown="handleZoom(evt,'in')"/>
                <use id="zoomminus" xlink:href="#zoomMin" x="42" y="9" onmousedown="handleZoom(evt,'out')"/>
                <use id="reset" xlink:href="#resetDef" x="30" y="36" onmousedown="handleReset()"/>
                <g id="arrowUp" xlink:href="#dirArrow" transform="translate(30 24)" onmousedown="handlePan(0,-1)">
                  <use xlink:href="#rim" fill="#404040">
                        <set attributeName="fill" to="#808080" begin="arrowUp.mouseover" end="arrowUp.mouseout"/>
                  </use>
                  <path fill="none" stroke="white" stroke-width="1.5" d="M0,-3.0v7 M-2.5,-0.5L0,-3.0L2.5,-0.5"/>
                </g>
                <g id="arrowRight" xlink:href="#dirArrow" transform="rotate(90) translate(36 -43)" onmousedown="handlePan(1,0)">
                  <use xlink:href="#rim" fill="#404040">
                        <set attributeName="fill" to="#808080" begin="arrowRight.mouseover" end="arrowRight.mouseout"/>
                  </use>
                  <path fill="none" stroke="white" stroke-width="1.5" d="M0,-3.0v7 M-2.5,-0.5L0,-3.0L2.5,-0.5"/>
                </g>
                <g id="arrowDown" xlink:href="#dirArrow" transform="rotate(180) translate(-30 -48)" onmousedown="handlePan(0,1)">
                  <use xlink:href="#rim" fill="#404040">
                        <set attributeName="fill" to="#808080" begin="arrowDown.mouseover" end="arrowDown.mouseout"/>
                  </use>
                  <path fill="none" stroke="white" stroke-width="1.5" d="M0,-3.0v7 M-2.5,-0.5L0,-3.0L2.5,-0.5"/>
                </g>
                <g id="arrowLeft" xlink:href="#dirArrow" transform="rotate(270) translate(-36 17)" onmousedown="handlePan(-1,0)">
                  <use xlink:href="#rim" fill="#404040">
                        <set attributeName="fill" to="#808080" begin="arrowLeft.mouseover" end="arrowLeft.mouseout"/>
                  </use>
                  <path fill="none" stroke="white" stroke-width="1.5" d="M0,-3.0v7 M-2.5,-0.5L0,-3.0L2.5,-0.5"/>
                </g>
        </g>
        <svg viewBox="0 0 15 15" width="100%" height="30px" preserveAspectRatio="xMaxYMin meet">
         <g id="arrow_out" transform="scale(0.3 0.3)">
          <a xlink:href="namespacefwRuntime_ac4fd0055e73698aab71fb859aac1d01d_cgraph_org.svg" target="_base">
           <rect id="button" ry="5" rx="5" y="6" x="6" height="38" width="38"
                fill="#f2f5e9" fill-opacity="0.5" stroke="#606060" stroke-width="1.0"/>
           <path id="arrow"
             d="M 11.500037,31.436501 C 11.940474,20.09759 22.043105,11.32322 32.158766,21.979434 L 37.068811,17.246167 C 37.068811,17.246167 37.088388,32 37.088388,32 L 22.160133,31.978069 C 22.160133,31.978069 26.997745,27.140456 26.997745,27.140456 C 18.528582,18.264221 13.291696,25.230495 11.500037,31.436501 z"
             style="fill:#404040;"/>
          </a>
         </g>
        </svg>
</svg>
