<?xml version="1.0" encoding="UTF-8" standalone="no"?>
<!DOCTYPE svg PUBLIC "-//W3C//DTD SVG 1.1//EN"
 "http://www.w3.org/Graphics/SVG/1.1/DTD/svg11.dtd">
<!-- Generated by graphviz version 2.26.3 (20100126.1600)
 -->
<!-- Title: fwRuntime::findExtensionPoint Pages: 1 -->
<svg width="494pt" height="408pt"
 viewBox="0.00 0.00 494.00 408.00" xmlns="http://www.w3.org/2000/svg" xmlns:xlink="http://www.w3.org/1999/xlink">
<g id="graph1" class="graph" transform="scale(1 1) rotate(0) translate(4 404)">
<title>fwRuntime::findExtensionPoint</title>
<polygon fill="white" stroke="white" points="-4,5 -4,-404 491,-404 491,5 -4,5"/>
<!-- Node1 -->
<g id="node1" class="node"><title>Node1</title>
<polygon fill="#bfbfbf" stroke="black" points="0.5,-184 0.5,-218 129.5,-218 129.5,-184 0.5,-184"/>
<text text-anchor="start" x="8.5" y="-205" font-family="Helvetica,sans-Serif" font-size="10.00">fwRuntime::findExtension</text>
<text text-anchor="middle" x="65" y="-192" font-family="Helvetica,sans-Serif" font-size="10.00">Point</text>
</g>
<!-- Node2 -->
<g id="node3" class="node"><title>Node2</title>
<a xlink:href="structfwRuntime_1_1Runtime.html#adfd7ac9087797b44b84746183d00c62a" target="_top" xlink:title="Adds all bundle found in t he given path. ">
<polygon fill="white" stroke="black" points="200.5,-366 200.5,-400 307.5,-400 307.5,-366 200.5,-366"/>
<text text-anchor="start" x="208.5" y="-387" font-family="Helvetica,sans-Serif" font-size="10.00">fwRuntime::Runtime</text>
<text text-anchor="middle" x="254" y="-374" font-family="Helvetica,sans-Serif" font-size="10.00">::addBundles</text>
</a>
</g>
<!-- Node1&#45;&gt;Node2 -->
<g id="edge2" class="edge"><title>Node1&#45;&gt;Node2</title>
<path fill="none" stroke="midnightblue" d="M71.477,-218.422C84.3762,-250.709 116.377,-319.918 166,-357 173.403,-362.532 181.971,-366.893 190.794,-370.328"/>
<polygon fill="midnightblue" stroke="midnightblue" points="189.832,-373.699 200.427,-373.704 192.147,-367.093 189.832,-373.699"/>
</g>
<!-- Node3 -->
<g id="node5" class="node"><title>Node3</title>
<a xlink:href="namespacefwRuntime.html#ac3ad56e80e701530f9e225733f416421" target="_top" xlink:title="Loads all bundles that can be found in the specified directory. ">
<polygon fill="white" stroke="black" points="193.5,-326.5 193.5,-347.5 314.5,-347.5 314.5,-326.5 193.5,-326.5"/>
<text text-anchor="middle" x="254" y="-334.5" font-family="Helvetica,sans-Serif" font-size="10.00">fwRuntime::addBundles</text>
</a>
</g>
<!-- Node1&#45;&gt;Node3 -->
<g id="edge4" class="edge"><title>Node1&#45;&gt;Node3</title>
<path fill="none" stroke="midnightblue" d="M74.9833,-218.222C90.8376,-243.95 124.29,-292.057 166,-317 171.471,-320.272 177.426,-323.009 183.573,-325.298"/>
<polygon fill="midnightblue" stroke="midnightblue" points="182.754,-328.714 193.348,-328.54 184.958,-322.07 182.754,-328.714"/>
</g>
<!-- Node4 -->
<g id="node7" class="node"><title>Node4</title>
<a xlink:href="structfwRuntime_1_1io_1_1ProfileReader.html#ad462ad9ee707762408550e2bbce17009" target="_top" xlink:title="Creates a profile from an xml file located at the given path. ">
<polygon fill="white" stroke="black" points="182.5,-274 182.5,-308 325.5,-308 325.5,-274 182.5,-274"/>
<text text-anchor="start" x="190.5" y="-295" font-family="Helvetica,sans-Serif" font-size="10.00">fwRuntime::io::ProfileReader</text>
<text text-anchor="middle" x="254" y="-282" font-family="Helvetica,sans-Serif" font-size="10.00">::createProfile</text>
</a>
</g>
<!-- Node1&#45;&gt;Node4 -->
<g id="edge6" class="edge"><title>Node1&#45;&gt;Node4</title>
<path fill="none" stroke="midnightblue" d="M91.2611,-218.205C111.222,-230.817 139.649,-247.797 166,-260 173.903,-263.66 182.368,-267.15 190.81,-270.38"/>
<polygon fill="midnightblue" stroke="midnightblue" points="189.708,-273.704 200.301,-273.911 192.149,-267.143 189.708,-273.704"/>
</g>
<!-- Node5 -->
<g id="node9" class="node"><title>Node5</title>
<a xlink:href="structfwRuntime_1_1Runtime.html#acf43340892d940d12b36db78376fe08f" target="_top" xlink:title="Retrieves the default runtime instance. ">
<polygon fill="white" stroke="black" points="378.5,-251 378.5,-285 485.5,-285 485.5,-251 378.5,-251"/>
<text text-anchor="start" x="386.5" y="-272" font-family="Helvetica,sans-Serif" font-size="10.00">fwRuntime::Runtime</text>
<text text-anchor="middle" x="432" y="-259" font-family="Helvetica,sans-Serif" font-size="10.00">::getDefault</text>
</a>
</g>
<!-- Node1&#45;&gt;Node5 -->
<g id="edge18" class="edge"><title>Node1&#45;&gt;Node5</title>
<path fill="none" stroke="midnightblue" d="M127.273,-218.06C140.03,-221.264 153.407,-224.415 166,-227 234.693,-241.1 314.263,-252.758 368.349,-259.993"/>
<polygon fill="midnightblue" stroke="midnightblue" points="368.106,-263.491 378.479,-261.336 369.026,-256.552 368.106,-263.491"/>
</g>
<!-- Node6 -->
<g id="node11" class="node"><title>Node6</title>
<a xlink:href="structfwRuntime_1_1Runtime.html#aa7a79fcdb77983835e28ddc61fe822ac" target="_top" xlink:title="Retrieves the bundle for the specified idenfier. ">
<polygon fill="white" stroke="black" points="200.5,-184 200.5,-218 307.5,-218 307.5,-184 200.5,-184"/>
<text text-anchor="start" x="208.5" y="-205" font-family="Helvetica,sans-Serif" font-size="10.00">fwRuntime::Runtime</text>
<text text-anchor="middle" x="254" y="-192" font-family="Helvetica,sans-Serif" font-size="10.00">::findBundle</text>
</a>
</g>
<!-- Node1&#45;&gt;Node6 -->
<g id="edge10" class="edge"><title>Node1&#45;&gt;Node6</title>
<path fill="none" stroke="midnightblue" d="M129.514,-201C149.184,-201 170.788,-201 190.397,-201"/>
<polygon fill="midnightblue" stroke="midnightblue" points="190.448,-204.5 200.448,-201 190.448,-197.5 190.448,-204.5"/>
</g>
<!-- Node7 -->
<g id="node13" class="node"><title>Node7</title>
<a xlink:href="structfwRuntime_1_1Runtime.html#a27bf9d08addb51435e096654c099da53" target="_top" xlink:title="Retrieves the extension point instance matching the specified identifier. ">
<polygon fill="white" stroke="black" points="200.5,-132 200.5,-166 307.5,-166 307.5,-132 200.5,-132"/>
<text text-anchor="start" x="208.5" y="-153" font-family="Helvetica,sans-Serif" font-size="10.00">fwRuntime::Runtime</text>
<text text-anchor="middle" x="254" y="-140" font-family="Helvetica,sans-Serif" font-size="10.00">::findExtensionPoint</text>
</a>
</g>
<!-- Node1&#45;&gt;Node7 -->
<g id="edge12" class="edge"><title>Node1&#45;&gt;Node7</title>
<path fill="none" stroke="midnightblue" d="M126.886,-183.973C147.24,-178.373 169.894,-172.14 190.375,-166.505"/>
<polygon fill="midnightblue" stroke="midnightblue" points="191.522,-169.82 200.235,-163.792 189.665,-163.071 191.522,-169.82"/>
</g>
<!-- Node8 -->
<g id="node15" class="node"><title>Node8</title>
<a xlink:href="structfwRuntime_1_1IExecutable.html#a79af3d0dc2695861887f461887eee62f" target="_top" xlink:title="Retrieves the bundle the executable originates from. ">
<polygon fill="white" stroke="black" points="193,-80 193,-114 315,-114 315,-80 193,-80"/>
<text text-anchor="start" x="201" y="-101" font-family="Helvetica,sans-Serif" font-size="10.00">fwRuntime::IExecutable</text>
<text text-anchor="middle" x="254" y="-88" font-family="Helvetica,sans-Serif" font-size="10.00">::getBundle</text>
</a>
</g>
<!-- Node1&#45;&gt;Node8 -->
<g id="edge14" class="edge"><title>Node1&#45;&gt;Node8</title>
<path fill="none" stroke="midnightblue" d="M82.9251,-183.78C102.084,-166.23 134.04,-139.333 166,-123 171.492,-120.193 177.337,-117.641 183.3,-115.329"/>
<polygon fill="midnightblue" stroke="midnightblue" points="184.537,-118.604 192.737,-111.895 182.143,-112.026 184.537,-118.604"/>
</g>
<!-- Node9 -->
<g id="node17" class="node"><title>Node9</title>
<a xlink:href="namespacefwRuntime.html#ad6c36b4e1c879d1a48013f58a7d6ea3c" target="_top" xlink:title="Retrieve a filesystem valid path for a path relative to the bundle having the specified identifier...">
<polygon fill="white" stroke="black" points="166,-40.5 166,-61.5 342,-61.5 342,-40.5 166,-40.5"/>
<text text-anchor="middle" x="254" y="-48.5" font-family="Helvetica,sans-Serif" font-size="10.00">fwRuntime::getBundleResourcePath</text>
</a>
</g>
<!-- Node1&#45;&gt;Node9 -->
<g id="edge16" class="edge"><title>Node1&#45;&gt;Node9</title>
<path fill="none" stroke="midnightblue" d="M73.4661,-183.559C88.1585,-155.238 121.155,-99.547 166,-71 169.16,-68.9887 172.497,-67.1786 175.95,-65.5497"/>
<polygon fill="midnightblue" stroke="midnightblue" points="177.436,-68.7223 185.322,-61.6473 174.745,-62.26 177.436,-68.7223"/>
</g>
<!-- Node10 -->
<g id="node20" class="node"><title>Node10</title>
<a xlink:href="namespacefwRuntime.html#a0c1d7b9c7ef1220c048171a8f1f2042a" target="_top" xlink:title="Starts the given bundle set profile. ">
<polygon fill="white" stroke="black" points="195.5,-0.5 195.5,-21.5 312.5,-21.5 312.5,-0.5 195.5,-0.5"/>
<text text-anchor="middle" x="254" y="-8.5" font-family="Helvetica,sans-Serif" font-size="10.00">fwRuntime::startProfile</text>
</a>
</g>
<!-- Node1&#45;&gt;Node10 -->
<g id="edge20" class="edge"><title>Node1&#45;&gt;Node10</title>
<path fill="none" stroke="midnightblue" d="M70.0779,-183.887C81.2932,-149.21 111.595,-70.5922 166,-31 171.922,-26.6902 178.616,-23.2875 185.603,-20.6043"/>
<polygon fill="midnightblue" stroke="midnightblue" points="186.891,-23.8639 195.266,-17.3738 184.672,-17.2251 186.891,-23.8639"/>
</g>
<!-- Node4&#45;&gt;Node5 -->
<g id="edge8" class="edge"><title>Node4&#45;&gt;Node5</title>
<path fill="none" stroke="midnightblue" d="M325.63,-281.744C339.641,-279.934 354.249,-278.046 367.992,-276.271"/>
<polygon fill="midnightblue" stroke="midnightblue" points="368.839,-279.69 378.308,-274.938 367.942,-272.748 368.839,-279.69"/>
</g>
</g>
</svg>
