<?xml version="1.0" encoding="UTF-8" standalone="no"?>
<!DOCTYPE svg PUBLIC "-//W3C//DTD SVG 1.1//EN"
 "http://www.w3.org/Graphics/SVG/1.1/DTD/svg11.dtd">
<!-- Generated by graphviz version 2.26.3 (20100126.1600)
 -->
<!-- Title: fwMedDataTools::generateStudyInstanceUid Pages: 1 -->
<svg width="292pt" height="42pt"
 viewBox="0.00 0.00 292.00 42.00" xmlns="http://www.w3.org/2000/svg" xmlns:xlink="http://www.w3.org/1999/xlink">
<g id="graph1" class="graph" transform="scale(1 1) rotate(0) translate(4 38)">
<title>fwMedDataTools::generateStudyInstanceUid</title>
<polygon fill="white" stroke="white" points="-4,5 -4,-38 289,-38 289,5 -4,5"/>
<!-- Node1 -->
<g id="node1" class="node"><title>Node1</title>
<polygon fill="#bfbfbf" stroke="black" points="0,-0 0,-34 134,-34 134,-0 0,-0"/>
<text text-anchor="start" x="8" y="-21" font-family="Helvetica,sans-Serif" font-size="10.00">fwMedDataTools::generate</text>
<text text-anchor="middle" x="67" y="-8" font-family="Helvetica,sans-Serif" font-size="10.00">StudyInstanceUid</text>
</g>
<!-- Node2 -->
<g id="node3" class="node"><title>Node2</title>
<a xlink:href="classuiMedData_1_1widget_1_1StudyEditor.html#a7d77a478a3826058aba5ba8b95c703d0" target="_top" xlink:title="Returns the study object created by this editor. ">
<polygon fill="white" stroke="black" points="170.5,-0 170.5,-34 283.5,-34 283.5,-0 170.5,-0"/>
<text text-anchor="start" x="178.5" y="-21" font-family="Helvetica,sans-Serif" font-size="10.00">uiMedData::widget::</text>
<text text-anchor="middle" x="227" y="-8" font-family="Helvetica,sans-Serif" font-size="10.00">StudyEditor::getStudy</text>
</a>
</g>
<!-- Node1&#45;&gt;Node2 -->
<g id="edge2" class="edge"><title>Node1&#45;&gt;Node2</title>
<path fill="none" stroke="midnightblue" d="M144.546,-17C153.233,-17 161.958,-17 170.312,-17"/>
<polygon fill="midnightblue" stroke="midnightblue" points="144.391,-13.5001 134.391,-17 144.391,-20.5001 144.391,-13.5001"/>
</g>
</g>
</svg>
