<?xml version="1.0" encoding="UTF-8" standalone="no"?>
<!DOCTYPE svg PUBLIC "-//W3C//DTD SVG 1.1//EN"
 "http://www.w3.org/Graphics/SVG/1.1/DTD/svg11.dtd">
<!-- Generated by graphviz version 2.26.3 (20100126.1600)
 -->
<!-- Title: fwRuntime::getBundleResourcePath Pages: 1 -->
<!--zoomable 238 -->
<svg id="main" version="1.1" xmlns="http://www.w3.org/2000/svg" xmlns:xlink="http://www.w3.org/1999/xlink" xml:space="preserve" onload="init(evt)">
<style type="text/css"><![CDATA[
.edge:hover path { stroke: red; }
.edge:hover polygon { stroke: red; fill: red; }
]]></style>
<script type="text/javascript"><![CDATA[
var edges = document.getElementsByTagName('g');
if (edges && edges.length) {
  for (var i=0;i<edges.length;i++) {
    if (edges[i].id.substr(0,4)=='edge') {
      edges[i].setAttribute('class','edge');
    }
  }
}
]]></script>
        <defs>
                <circle id="rim" cx="0" cy="0" r="7"/>
                <circle id="rim2" cx="0" cy="0" r="3.5"/>
                <g id="zoomPlus">
                        <use xlink:href="#rim" fill="#404040">
                                <set attributeName="fill" to="#808080" begin="zoomplus.mouseover" end="zoomplus.mouseout"/>
                        </use>
                        <path d="M-4,0h8M0,-4v8" fill="none" stroke="white" stroke-width="1.5" pointer-events="none"/>
                </g>
                <g id="zoomMin">
                        <use xlink:href="#rim" fill="#404040">
                                <set attributeName="fill" to="#808080" begin="zoomminus.mouseover" end="zoomminus.mouseout"/>
                        </use>
                        <path d="M-4,0h8" fill="none" stroke="white" stroke-width="1.5" pointer-events="none"/>
                </g>
                <g id="dirArrow">
                        <path fill="none" stroke="white" stroke-width="1.5" d="M0,-3.0v7 M-2.5,-0.5L0,-3.0L2.5,-0.5"/>
                </g>
               <g id="resetDef">
                       <use xlink:href="#rim2" fill="#404040">
                               <set attributeName="fill" to="#808080" begin="reset.mouseover" end="reset.mouseout"/>
                       </use>
               </g>
        </defs>

<script type="text/javascript">
var viewWidth = 740;
var viewHeight = 238;
var sectionId = 'dynsection-14';
</script>
<script xlink:href="svgpan.js"/>
<svg id="graph" class="graph">
<g id="viewport">
<title>fwRuntime::getBundleResourcePath</title>
<polygon fill="white" stroke="white" points="-4,5 -4,-234 737,-234 737,5 -4,5"/>
<!-- Node1 -->
<g id="node1" class="node"><title>Node1</title>
<polygon fill="#bfbfbf" stroke="black" points="0,-72.5 0,-93.5 176,-93.5 176,-72.5 0,-72.5"/>
<text text-anchor="middle" x="88" y="-80.5" font-family="Helvetica,sans-Serif" font-size="10.00">fwRuntime::getBundleResourcePath</text>
</g>
<!-- Node2 -->
<g id="node3" class="node"><title>Node2</title>
<a xlink:href="namespacefwRuntime.html#a4e8c51fcedecc056867d28ffc974f088" target="_top" xlink:title="Retrieves the extension point having the specified identifier. ">
<polygon fill="white" stroke="black" points="219.5,-92 219.5,-126 348.5,-126 348.5,-92 219.5,-92"/>
<text text-anchor="start" x="227.5" y="-113" font-family="Helvetica,sans-Serif" font-size="10.00">fwRuntime::findExtension</text>
<text text-anchor="middle" x="284" y="-100" font-family="Helvetica,sans-Serif" font-size="10.00">Point</text>
</a>
</g>
<!-- Node1&#45;&gt;Node2 -->
<g id="edge2" class="edge"><title>Node1&#45;&gt;Node2</title>
<path fill="none" stroke="midnightblue" d="M177.379,-94.8564C191.501,-96.7298 205.864,-98.635 219.282,-100.415"/>
<polygon fill="midnightblue" stroke="midnightblue" points="177.529,-91.3457 167.156,-93.5003 176.609,-98.285 177.529,-91.3457"/>
</g>
<!-- Node9 -->
<g id="node17" class="node"><title>Node9</title>
<a xlink:href="namespacefwRuntime.html#a09ab28038084fda4571324c6982e2ed2" target="_top" xlink:title="Retrieves all executable objects for the point having the specified identifier. ">
<polygon fill="white" stroke="black" points="212.5,-40 212.5,-74 355.5,-74 355.5,-40 212.5,-40"/>
<text text-anchor="start" x="220.5" y="-61" font-family="Helvetica,sans-Serif" font-size="10.00">fwRuntime::getAllExecutable</text>
<text text-anchor="middle" x="284" y="-48" font-family="Helvetica,sans-Serif" font-size="10.00">ForPoint</text>
</a>
</g>
<!-- Node1&#45;&gt;Node9 -->
<g id="edge16" class="edge"><title>Node1&#45;&gt;Node9</title>
<path fill="none" stroke="midnightblue" d="M177.415,-71.1389C189.157,-69.5813 201.064,-68.0017 212.456,-66.4905"/>
<polygon fill="midnightblue" stroke="midnightblue" points="176.609,-67.715 167.156,-72.4997 177.529,-74.6543 176.609,-67.715"/>
</g>
<!-- Node3 -->
<g id="node5" class="node"><title>Node3</title>
<a xlink:href="structfwRuntime_1_1Runtime.html#aa5a5a08171483605b6957c25938522b4" target="_top" xlink:title="Registers a new extension point. ">
<polygon fill="white" stroke="black" points="414.5,-196 414.5,-230 521.5,-230 521.5,-196 414.5,-196"/>
<text text-anchor="start" x="422.5" y="-217" font-family="Helvetica,sans-Serif" font-size="10.00">fwRuntime::Runtime</text>
<text text-anchor="middle" x="468" y="-204" font-family="Helvetica,sans-Serif" font-size="10.00">::addExtensionPoint</text>
</a>
</g>
<!-- Node2&#45;&gt;Node3 -->
<g id="edge4" class="edge"><title>Node2&#45;&gt;Node3</title>
<path fill="none" stroke="midnightblue" d="M311.765,-132.6C332.736,-149.515 362.804,-171.891 392,-187 399.059,-190.653 406.743,-193.969 414.423,-196.916"/>
<polygon fill="midnightblue" stroke="midnightblue" points="313.874,-129.803 303.917,-126.182 309.442,-135.222 313.874,-129.803"/>
</g>
<!-- Node4 -->
<g id="node7" class="node"><title>Node4</title>
<a xlink:href="namespacefwRuntime.html#ac4fd0055e73698aab71fb859aac1d01d" target="_top" xlink:title="Retrieves all configuration elements for the point having the specified identifier. ">
<polygon fill="white" stroke="black" points="392,-144 392,-178 544,-178 544,-144 392,-144"/>
<text text-anchor="start" x="400" y="-165" font-family="Helvetica,sans-Serif" font-size="10.00">fwRuntime::getAllConfiguration</text>
<text text-anchor="middle" x="468" y="-152" font-family="Helvetica,sans-Serif" font-size="10.00">ElementsForPoint</text>
</a>
</g>
<!-- Node2&#45;&gt;Node4 -->
<g id="edge6" class="edge"><title>Node2&#45;&gt;Node4</title>
<path fill="none" stroke="midnightblue" d="M353.934,-128.764C371.615,-133.761 390.451,-139.084 407.616,-143.935"/>
<polygon fill="midnightblue" stroke="midnightblue" points="354.823,-125.378 344.248,-126.027 352.92,-132.114 354.823,-125.378"/>
</g>
<!-- Node6 -->
<g id="node11" class="node"><title>Node6</title>
<a xlink:href="namespacefwRuntime.html#aae3562a1767fcae09be2942404cd3f68" target="_top" xlink:title="Retrieves all extensions for the point having the specified identifier. ">
<polygon fill="white" stroke="black" points="396.5,-92 396.5,-126 539.5,-126 539.5,-92 396.5,-92"/>
<text text-anchor="start" x="404.5" y="-113" font-family="Helvetica,sans-Serif" font-size="10.00">fwRuntime::getAllExtensions</text>
<text text-anchor="middle" x="468" y="-100" font-family="Helvetica,sans-Serif" font-size="10.00">ForPoint</text>
</a>
</g>
<!-- Node2&#45;&gt;Node6 -->
<g id="edge10" class="edge"><title>Node2&#45;&gt;Node6</title>
<path fill="none" stroke="midnightblue" d="M358.88,-109C371.247,-109 384.042,-109 396.327,-109"/>
<polygon fill="midnightblue" stroke="midnightblue" points="358.613,-105.5 348.613,-109 358.613,-112.5 358.613,-105.5"/>
</g>
<!-- Node7 -->
<g id="node13" class="node"><title>Node7</title>
<a xlink:href="namespacefwRuntime.html#a5e781482e84f1c0a382d3491d5be7cc6" target="_top" xlink:title="Get information for the point. ">
<polygon fill="white" stroke="black" points="399.5,-52.5 399.5,-73.5 536.5,-73.5 536.5,-52.5 399.5,-52.5"/>
<text text-anchor="middle" x="468" y="-60.5" font-family="Helvetica,sans-Serif" font-size="10.00">fwRuntime::getInfoForPoint</text>
</a>
</g>
<!-- Node2&#45;&gt;Node7 -->
<g id="edge12" class="edge"><title>Node2&#45;&gt;Node7</title>
<path fill="none" stroke="midnightblue" d="M358.372,-90.407C381.404,-84.649 405.967,-78.5082 425.992,-73.502"/>
<polygon fill="midnightblue" stroke="midnightblue" points="357.465,-87.0259 348.613,-92.8468 359.163,-93.8169 357.465,-87.0259"/>
</g>
<!-- Node8 -->
<g id="node15" class="node"><title>Node8</title>
<a xlink:href="structfwRuntime_1_1Runtime.html#a846630c053b019b485d642b94f41ba63" target="_top" xlink:title="Unregister a new extension point. ">
<polygon fill="white" stroke="black" points="402.5,-0 402.5,-34 533.5,-34 533.5,-0 402.5,-0"/>
<text text-anchor="start" x="410.5" y="-21" font-family="Helvetica,sans-Serif" font-size="10.00">fwRuntime::Runtime</text>
<text text-anchor="middle" x="468" y="-8" font-family="Helvetica,sans-Serif" font-size="10.00">::unregisterExtensionPoint</text>
</a>
</g>
<!-- Node2&#45;&gt;Node8 -->
<g id="edge14" class="edge"><title>Node2&#45;&gt;Node8</title>
<path fill="none" stroke="midnightblue" d="M349.239,-87.1715C351.566,-85.8503 353.829,-84.4606 356,-83 375.844,-69.6483 372.044,-56.1834 392,-43 397.12,-39.6179 402.724,-36.6303 408.497,-34.0016"/>
<polygon fill="midnightblue" stroke="midnightblue" points="347.283,-84.2415 339.995,-91.9317 350.488,-90.4647 347.283,-84.2415"/>
</g>
<!-- Node5 -->
<g id="node9" class="node"><title>Node5</title>
<a xlink:href="namespacefwRuntime.html#a414afe8d935fb9850db10e3f185b664f" target="_top" xlink:title="Retrieves all configuration elements for the point having the specified identifier. ">
<polygon fill="white" stroke="black" points="580,-144 580,-178 732,-178 732,-144 580,-144"/>
<text text-anchor="start" x="588" y="-165" font-family="Helvetica,sans-Serif" font-size="10.00">fwRuntime::getAllConfiguration</text>
<text text-anchor="middle" x="656" y="-152" font-family="Helvetica,sans-Serif" font-size="10.00">ElementsForPoint</text>
</a>
</g>
<!-- Node4&#45;&gt;Node5 -->
<g id="edge8" class="edge"><title>Node4&#45;&gt;Node5</title>
<path fill="none" stroke="midnightblue" d="M554.424,-161C562.857,-161 571.372,-161 579.696,-161"/>
<polygon fill="midnightblue" stroke="midnightblue" points="554.196,-157.5 544.196,-161 554.196,-164.5 554.196,-157.5"/>
</g>
</g>
</svg>
        <g id="navigator" transform="translate(0 0)" fill="#404254">
                <rect fill="#f2f5e9" fill-opacity="0.5" stroke="#606060" stroke-width=".5" x="0" y="0" width="60" height="60"/>
                <use id="zoomplus" xlink:href="#zoomPlus" x="17" y="9" onmousedown="handleZoom(evt,'in')"/>
                <use id="zoomminus" xlink:href="#zoomMin" x="42" y="9" onmousedown="handleZoom(evt,'out')"/>
                <use id="reset" xlink:href="#resetDef" x="30" y="36" onmousedown="handleReset()"/>
                <g id="arrowUp" xlink:href="#dirArrow" transform="translate(30 24)" onmousedown="handlePan(0,-1)">
                  <use xlink:href="#rim" fill="#404040">
                        <set attributeName="fill" to="#808080" begin="arrowUp.mouseover" end="arrowUp.mouseout"/>
                  </use>
                  <path fill="none" stroke="white" stroke-width="1.5" d="M0,-3.0v7 M-2.5,-0.5L0,-3.0L2.5,-0.5"/>
                </g>
                <g id="arrowRight" xlink:href="#dirArrow" transform="rotate(90) translate(36 -43)" onmousedown="handlePan(1,0)">
                  <use xlink:href="#rim" fill="#404040">
                        <set attributeName="fill" to="#808080" begin="arrowRight.mouseover" end="arrowRight.mouseout"/>
                  </use>
                  <path fill="none" stroke="white" stroke-width="1.5" d="M0,-3.0v7 M-2.5,-0.5L0,-3.0L2.5,-0.5"/>
                </g>
                <g id="arrowDown" xlink:href="#dirArrow" transform="rotate(180) translate(-30 -48)" onmousedown="handlePan(0,1)">
                  <use xlink:href="#rim" fill="#404040">
                        <set attributeName="fill" to="#808080" begin="arrowDown.mouseover" end="arrowDown.mouseout"/>
                  </use>
                  <path fill="none" stroke="white" stroke-width="1.5" d="M0,-3.0v7 M-2.5,-0.5L0,-3.0L2.5,-0.5"/>
                </g>
                <g id="arrowLeft" xlink:href="#dirArrow" transform="rotate(270) translate(-36 17)" onmousedown="handlePan(-1,0)">
                  <use xlink:href="#rim" fill="#404040">
                        <set attributeName="fill" to="#808080" begin="arrowLeft.mouseover" end="arrowLeft.mouseout"/>
                  </use>
                  <path fill="none" stroke="white" stroke-width="1.5" d="M0,-3.0v7 M-2.5,-0.5L0,-3.0L2.5,-0.5"/>
                </g>
        </g>
        <svg viewBox="0 0 15 15" width="100%" height="30px" preserveAspectRatio="xMaxYMin meet">
         <g id="arrow_out" transform="scale(0.3 0.3)">
          <a xlink:href="namespacefwRuntime_ad6c36b4e1c879d1a48013f58a7d6ea3c_icgraph_org.svg" target="_base">
           <rect id="button" ry="5" rx="5" y="6" x="6" height="38" width="38"
                fill="#f2f5e9" fill-opacity="0.5" stroke="#606060" stroke-width="1.0"/>
           <path id="arrow"
             d="M 11.500037,31.436501 C 11.940474,20.09759 22.043105,11.32322 32.158766,21.979434 L 37.068811,17.246167 C 37.068811,17.246167 37.088388,32 37.088388,32 L 22.160133,31.978069 C 22.160133,31.978069 26.997745,27.140456 26.997745,27.140456 C 18.528582,18.264221 13.291696,25.230495 11.500037,31.436501 z"
             style="fill:#404040;"/>
          </a>
         </g>
        </svg>
</svg>
