<?xml version="1.0" encoding="UTF-8" standalone="no"?>
<!DOCTYPE svg PUBLIC "-//W3C//DTD SVG 1.1//EN"
 "http://www.w3.org/Graphics/SVG/1.1/DTD/svg11.dtd">
<!-- Generated by graphviz version 2.26.3 (20100126.1600)
 -->
<!-- Title: fwRuntime::getAllConfigurationElementsForPoint Pages: 1 -->
<svg width="870pt" height="408pt"
 viewBox="0.00 0.00 870.00 408.00" xmlns="http://www.w3.org/2000/svg" xmlns:xlink="http://www.w3.org/1999/xlink">
<g id="graph1" class="graph" transform="scale(1 1) rotate(0) translate(4 404)">
<title>fwRuntime::getAllConfigurationElementsForPoint</title>
<polygon fill="white" stroke="white" points="-4,5 -4,-404 867,-404 867,5 -4,5"/>
<!-- Node1 -->
<g id="node1" class="node"><title>Node1</title>
<polygon fill="#bfbfbf" stroke="black" points="0,-184 0,-218 152,-218 152,-184 0,-184"/>
<text text-anchor="start" x="8" y="-205" font-family="Helvetica,sans-Serif" font-size="10.00">fwRuntime::getAllConfiguration</text>
<text text-anchor="middle" x="76" y="-192" font-family="Helvetica,sans-Serif" font-size="10.00">ElementsForPoint</text>
</g>
<!-- Node2 -->
<g id="node3" class="node"><title>Node2</title>
<a xlink:href="namespacefwRuntime.html#ac4fd0055e73698aab71fb859aac1d01d" target="_top" xlink:title="Retrieves all configuration elements for the point having the specified identifier. ">
<polygon fill="white" stroke="black" points="188,-184 188,-218 340,-218 340,-184 188,-184"/>
<text text-anchor="start" x="196" y="-205" font-family="Helvetica,sans-Serif" font-size="10.00">fwRuntime::getAllConfiguration</text>
<text text-anchor="middle" x="264" y="-192" font-family="Helvetica,sans-Serif" font-size="10.00">ElementsForPoint</text>
</a>
</g>
<!-- Node1&#45;&gt;Node2 -->
<g id="edge2" class="edge"><title>Node1&#45;&gt;Node2</title>
<path fill="none" stroke="midnightblue" d="M152.196,-201C160.517,-201 169.032,-201 177.466,-201"/>
<polygon fill="midnightblue" stroke="midnightblue" points="177.696,-204.5 187.696,-201 177.696,-197.5 177.696,-204.5"/>
</g>
<!-- Node3 -->
<g id="node5" class="node"><title>Node3</title>
<a xlink:href="namespacefwRuntime.html#a4e8c51fcedecc056867d28ffc974f088" target="_top" xlink:title="Retrieves the extension point having the specified identifier. ">
<polygon fill="white" stroke="black" points="376.5,-184 376.5,-218 505.5,-218 505.5,-184 376.5,-184"/>
<text text-anchor="start" x="384.5" y="-205" font-family="Helvetica,sans-Serif" font-size="10.00">fwRuntime::findExtension</text>
<text text-anchor="middle" x="441" y="-192" font-family="Helvetica,sans-Serif" font-size="10.00">Point</text>
</a>
</g>
<!-- Node2&#45;&gt;Node3 -->
<g id="edge4" class="edge"><title>Node2&#45;&gt;Node3</title>
<path fill="none" stroke="midnightblue" d="M340.091,-201C348.779,-201 357.629,-201 366.298,-201"/>
<polygon fill="midnightblue" stroke="midnightblue" points="366.371,-204.5 376.371,-201 366.371,-197.5 366.371,-204.5"/>
</g>
<!-- Node4 -->
<g id="node7" class="node"><title>Node4</title>
<a xlink:href="structfwRuntime_1_1Runtime.html#adfd7ac9087797b44b84746183d00c62a" target="_top" xlink:title="Adds all bundle found in t he given path. ">
<polygon fill="white" stroke="black" points="576.5,-366 576.5,-400 683.5,-400 683.5,-366 576.5,-366"/>
<text text-anchor="start" x="584.5" y="-387" font-family="Helvetica,sans-Serif" font-size="10.00">fwRuntime::Runtime</text>
<text text-anchor="middle" x="630" y="-374" font-family="Helvetica,sans-Serif" font-size="10.00">::addBundles</text>
</a>
</g>
<!-- Node3&#45;&gt;Node4 -->
<g id="edge6" class="edge"><title>Node3&#45;&gt;Node4</title>
<path fill="none" stroke="midnightblue" d="M447.477,-218.422C460.376,-250.709 492.377,-319.918 542,-357 549.403,-362.532 557.971,-366.893 566.794,-370.328"/>
<polygon fill="midnightblue" stroke="midnightblue" points="565.832,-373.699 576.427,-373.704 568.147,-367.093 565.832,-373.699"/>
</g>
<!-- Node5 -->
<g id="node9" class="node"><title>Node5</title>
<a xlink:href="namespacefwRuntime.html#ac3ad56e80e701530f9e225733f416421" target="_top" xlink:title="Loads all bundles that can be found in the specified directory. ">
<polygon fill="white" stroke="black" points="569.5,-326.5 569.5,-347.5 690.5,-347.5 690.5,-326.5 569.5,-326.5"/>
<text text-anchor="middle" x="630" y="-334.5" font-family="Helvetica,sans-Serif" font-size="10.00">fwRuntime::addBundles</text>
</a>
</g>
<!-- Node3&#45;&gt;Node5 -->
<g id="edge8" class="edge"><title>Node3&#45;&gt;Node5</title>
<path fill="none" stroke="midnightblue" d="M450.983,-218.222C466.838,-243.95 500.29,-292.057 542,-317 547.471,-320.272 553.426,-323.009 559.573,-325.298"/>
<polygon fill="midnightblue" stroke="midnightblue" points="558.754,-328.714 569.348,-328.54 560.958,-322.07 558.754,-328.714"/>
</g>
<!-- Node6 -->
<g id="node11" class="node"><title>Node6</title>
<a xlink:href="structfwRuntime_1_1io_1_1ProfileReader.html#ad462ad9ee707762408550e2bbce17009" target="_top" xlink:title="Creates a profile from an xml file located at the given path. ">
<polygon fill="white" stroke="black" points="558.5,-274 558.5,-308 701.5,-308 701.5,-274 558.5,-274"/>
<text text-anchor="start" x="566.5" y="-295" font-family="Helvetica,sans-Serif" font-size="10.00">fwRuntime::io::ProfileReader</text>
<text text-anchor="middle" x="630" y="-282" font-family="Helvetica,sans-Serif" font-size="10.00">::createProfile</text>
</a>
</g>
<!-- Node3&#45;&gt;Node6 -->
<g id="edge10" class="edge"><title>Node3&#45;&gt;Node6</title>
<path fill="none" stroke="midnightblue" d="M467.261,-218.205C487.222,-230.817 515.649,-247.797 542,-260 549.903,-263.66 558.368,-267.15 566.81,-270.38"/>
<polygon fill="midnightblue" stroke="midnightblue" points="565.708,-273.704 576.301,-273.911 568.149,-267.143 565.708,-273.704"/>
</g>
<!-- Node7 -->
<g id="node13" class="node"><title>Node7</title>
<a xlink:href="structfwRuntime_1_1Runtime.html#acf43340892d940d12b36db78376fe08f" target="_top" xlink:title="Retrieves the default runtime instance. ">
<polygon fill="white" stroke="black" points="754.5,-251 754.5,-285 861.5,-285 861.5,-251 754.5,-251"/>
<text text-anchor="start" x="762.5" y="-272" font-family="Helvetica,sans-Serif" font-size="10.00">fwRuntime::Runtime</text>
<text text-anchor="middle" x="808" y="-259" font-family="Helvetica,sans-Serif" font-size="10.00">::getDefault</text>
</a>
</g>
<!-- Node3&#45;&gt;Node7 -->
<g id="edge22" class="edge"><title>Node3&#45;&gt;Node7</title>
<path fill="none" stroke="midnightblue" d="M503.273,-218.06C516.03,-221.264 529.407,-224.415 542,-227 610.693,-241.1 690.263,-252.758 744.349,-259.993"/>
<polygon fill="midnightblue" stroke="midnightblue" points="744.106,-263.491 754.479,-261.336 745.026,-256.552 744.106,-263.491"/>
</g>
<!-- Node8 -->
<g id="node15" class="node"><title>Node8</title>
<a xlink:href="structfwRuntime_1_1Runtime.html#aa7a79fcdb77983835e28ddc61fe822ac" target="_top" xlink:title="Retrieves the bundle for the specified idenfier. ">
<polygon fill="white" stroke="black" points="576.5,-184 576.5,-218 683.5,-218 683.5,-184 576.5,-184"/>
<text text-anchor="start" x="584.5" y="-205" font-family="Helvetica,sans-Serif" font-size="10.00">fwRuntime::Runtime</text>
<text text-anchor="middle" x="630" y="-192" font-family="Helvetica,sans-Serif" font-size="10.00">::findBundle</text>
</a>
</g>
<!-- Node3&#45;&gt;Node8 -->
<g id="edge14" class="edge"><title>Node3&#45;&gt;Node8</title>
<path fill="none" stroke="midnightblue" d="M505.514,-201C525.184,-201 546.788,-201 566.397,-201"/>
<polygon fill="midnightblue" stroke="midnightblue" points="566.448,-204.5 576.448,-201 566.448,-197.5 566.448,-204.5"/>
</g>
<!-- Node9 -->
<g id="node17" class="node"><title>Node9</title>
<a xlink:href="structfwRuntime_1_1Runtime.html#a27bf9d08addb51435e096654c099da53" target="_top" xlink:title="Retrieves the extension point instance matching the specified identifier. ">
<polygon fill="white" stroke="black" points="576.5,-132 576.5,-166 683.5,-166 683.5,-132 576.5,-132"/>
<text text-anchor="start" x="584.5" y="-153" font-family="Helvetica,sans-Serif" font-size="10.00">fwRuntime::Runtime</text>
<text text-anchor="middle" x="630" y="-140" font-family="Helvetica,sans-Serif" font-size="10.00">::findExtensionPoint</text>
</a>
</g>
<!-- Node3&#45;&gt;Node9 -->
<g id="edge16" class="edge"><title>Node3&#45;&gt;Node9</title>
<path fill="none" stroke="midnightblue" d="M502.886,-183.973C523.24,-178.373 545.894,-172.14 566.375,-166.505"/>
<polygon fill="midnightblue" stroke="midnightblue" points="567.522,-169.82 576.235,-163.792 565.665,-163.071 567.522,-169.82"/>
</g>
<!-- Node10 -->
<g id="node19" class="node"><title>Node10</title>
<a xlink:href="structfwRuntime_1_1IExecutable.html#a79af3d0dc2695861887f461887eee62f" target="_top" xlink:title="Retrieves the bundle the executable originates from. ">
<polygon fill="white" stroke="black" points="569,-80 569,-114 691,-114 691,-80 569,-80"/>
<text text-anchor="start" x="577" y="-101" font-family="Helvetica,sans-Serif" font-size="10.00">fwRuntime::IExecutable</text>
<text text-anchor="middle" x="630" y="-88" font-family="Helvetica,sans-Serif" font-size="10.00">::getBundle</text>
</a>
</g>
<!-- Node3&#45;&gt;Node10 -->
<g id="edge18" class="edge"><title>Node3&#45;&gt;Node10</title>
<path fill="none" stroke="midnightblue" d="M458.925,-183.78C478.084,-166.23 510.04,-139.333 542,-123 547.492,-120.193 553.337,-117.641 559.3,-115.329"/>
<polygon fill="midnightblue" stroke="midnightblue" points="560.537,-118.604 568.737,-111.895 558.143,-112.026 560.537,-118.604"/>
</g>
<!-- Node11 -->
<g id="node21" class="node"><title>Node11</title>
<a xlink:href="namespacefwRuntime.html#ad6c36b4e1c879d1a48013f58a7d6ea3c" target="_top" xlink:title="Retrieve a filesystem valid path for a path relative to the bundle having the specified identifier...">
<polygon fill="white" stroke="black" points="542,-40.5 542,-61.5 718,-61.5 718,-40.5 542,-40.5"/>
<text text-anchor="middle" x="630" y="-48.5" font-family="Helvetica,sans-Serif" font-size="10.00">fwRuntime::getBundleResourcePath</text>
</a>
</g>
<!-- Node3&#45;&gt;Node11 -->
<g id="edge20" class="edge"><title>Node3&#45;&gt;Node11</title>
<path fill="none" stroke="midnightblue" d="M449.466,-183.559C464.158,-155.238 497.155,-99.547 542,-71 545.16,-68.9887 548.497,-67.1786 551.95,-65.5497"/>
<polygon fill="midnightblue" stroke="midnightblue" points="553.436,-68.7223 561.322,-61.6473 550.745,-62.26 553.436,-68.7223"/>
</g>
<!-- Node12 -->
<g id="node24" class="node"><title>Node12</title>
<a xlink:href="namespacefwRuntime.html#a0c1d7b9c7ef1220c048171a8f1f2042a" target="_top" xlink:title="Starts the given bundle set profile. ">
<polygon fill="white" stroke="black" points="571.5,-0.5 571.5,-21.5 688.5,-21.5 688.5,-0.5 571.5,-0.5"/>
<text text-anchor="middle" x="630" y="-8.5" font-family="Helvetica,sans-Serif" font-size="10.00">fwRuntime::startProfile</text>
</a>
</g>
<!-- Node3&#45;&gt;Node12 -->
<g id="edge24" class="edge"><title>Node3&#45;&gt;Node12</title>
<path fill="none" stroke="midnightblue" d="M446.078,-183.887C457.293,-149.21 487.595,-70.5922 542,-31 547.922,-26.6902 554.616,-23.2875 561.603,-20.6043"/>
<polygon fill="midnightblue" stroke="midnightblue" points="562.891,-23.8639 571.266,-17.3738 560.672,-17.2251 562.891,-23.8639"/>
</g>
<!-- Node6&#45;&gt;Node7 -->
<g id="edge12" class="edge"><title>Node6&#45;&gt;Node7</title>
<path fill="none" stroke="midnightblue" d="M701.63,-281.744C715.641,-279.934 730.249,-278.046 743.992,-276.271"/>
<polygon fill="midnightblue" stroke="midnightblue" points="744.839,-279.69 754.308,-274.938 743.942,-272.748 744.839,-279.69"/>
</g>
</g>
</svg>
