<?xml version="1.0" encoding="UTF-8" standalone="no"?>
<!DOCTYPE svg PUBLIC "-//W3C//DTD SVG 1.1//EN"
 "http://www.w3.org/Graphics/SVG/1.1/DTD/svg11.dtd">
<!-- Generated by graphviz version 2.26.3 (20100126.1600)
 -->
<!-- Title: fwMath::getClosestPoint Pages: 1 -->
<svg width="390pt" height="30pt"
 viewBox="0.00 0.00 390.00 30.00" xmlns="http://www.w3.org/2000/svg" xmlns:xlink="http://www.w3.org/1999/xlink">
<g id="graph1" class="graph" transform="scale(1 1) rotate(0) translate(4 26)">
<title>fwMath::getClosestPoint</title>
<polygon fill="white" stroke="white" points="-4,5 -4,-26 387,-26 387,5 -4,5"/>
<!-- Node1 -->
<g id="node1" class="node"><title>Node1</title>
<polygon fill="#bfbfbf" stroke="black" points="0.5,-0.5 0.5,-21.5 125.5,-21.5 125.5,-0.5 0.5,-0.5"/>
<text text-anchor="middle" x="63" y="-8.5" font-family="Helvetica,sans-Serif" font-size="10.00">fwMath::getClosestPoint</text>
</g>
<!-- Node2 -->
<g id="node3" class="node"><title>Node2</title>
<a xlink:href="namespacefwMath.html#aee9022699af75e137a51a8b55398ab2e" target="_top" xlink:title="Compute the projection of a point in a given direction and test if this intersection is inside a give...">
<polygon fill="white" stroke="black" points="162,-0.5 162,-21.5 254,-21.5 254,-0.5 162,-0.5"/>
<text text-anchor="middle" x="208" y="-8.5" font-family="Helvetica,sans-Serif" font-size="10.00">fwMath::intersect</text>
</a>
</g>
<!-- Node1&#45;&gt;Node2 -->
<g id="edge2" class="edge"><title>Node1&#45;&gt;Node2</title>
<path fill="none" stroke="midnightblue" d="M136.016,-11C144.779,-11 153.531,-11 161.761,-11"/>
<polygon fill="midnightblue" stroke="midnightblue" points="135.756,-7.5001 125.756,-11 135.756,-14.5001 135.756,-7.5001"/>
</g>
<!-- Node3 -->
<g id="node5" class="node"><title>Node3</title>
<a xlink:href="namespacefwMath.html#ab95b2d6057db0df8754ca9958e63a46d" target="_top" xlink:title="Give the intersection between a plane and a line. The result is returned in a point (_point)...">
<polygon fill="white" stroke="black" points="290,-0.5 290,-21.5 382,-21.5 382,-0.5 290,-0.5"/>
<text text-anchor="middle" x="336" y="-8.5" font-family="Helvetica,sans-Serif" font-size="10.00">fwMath::intersect</text>
</a>
</g>
<!-- Node2&#45;&gt;Node3 -->
<g id="edge4" class="edge"><title>Node2&#45;&gt;Node3</title>
<path fill="none" stroke="midnightblue" d="M264.442,-11C272.937,-11 281.612,-11 289.857,-11"/>
<polygon fill="midnightblue" stroke="midnightblue" points="264.211,-7.5001 254.211,-11 264.211,-14.5001 264.211,-7.5001"/>
</g>
</g>
</svg>
