<?xml version="1.0" encoding="UTF-8" standalone="no"?>
<!DOCTYPE svg PUBLIC "-//W3C//DTD SVG 1.1//EN"
 "http://www.w3.org/Graphics/SVG/1.1/DTD/svg11.dtd">
<!-- Generated by graphviz version 2.26.3 (20100126.1600)
 -->
<!-- Title: fwRuntime::IExecutable::setInitializationData Pages: 1 -->
<svg width="444pt" height="42pt"
 viewBox="0.00 0.00 444.00 42.00" xmlns="http://www.w3.org/2000/svg" xmlns:xlink="http://www.w3.org/1999/xlink">
<g id="graph1" class="graph" transform="scale(1 1) rotate(0) translate(4 38)">
<title>fwRuntime::IExecutable::setInitializationData</title>
<polygon fill="white" stroke="white" points="-4,5 -4,-38 441,-38 441,5 -4,5"/>
<!-- Node1 -->
<g id="node1" class="node"><title>Node1</title>
<polygon fill="#bfbfbf" stroke="black" points="0,-0 0,-34 122,-34 122,-0 0,-0"/>
<text text-anchor="start" x="8" y="-21" font-family="Helvetica,sans-Serif" font-size="10.00">fwRuntime::IExecutable</text>
<text text-anchor="middle" x="61" y="-8" font-family="Helvetica,sans-Serif" font-size="10.00">::setInitializationData</text>
</g>
<!-- Node2 -->
<g id="node3" class="node"><title>Node2</title>
<a xlink:href="structfwRuntime_1_1Runtime.html#a1689cadf71f3bae7878c5304a2bbd336" target="_top" xlink:title="Create an instance of the given executable object type. ">
<polygon fill="white" stroke="black" points="158,-0 158,-34 294,-34 294,-0 158,-0"/>
<text text-anchor="start" x="166" y="-21" font-family="Helvetica,sans-Serif" font-size="10.00">fwRuntime::Runtime</text>
<text text-anchor="middle" x="226" y="-8" font-family="Helvetica,sans-Serif" font-size="10.00">::createExecutableInstance</text>
</a>
</g>
<!-- Node1&#45;&gt;Node2 -->
<g id="edge2" class="edge"><title>Node1&#45;&gt;Node2</title>
<path fill="none" stroke="midnightblue" d="M132.575,-17C140.966,-17 149.511,-17 157.854,-17"/>
<polygon fill="midnightblue" stroke="midnightblue" points="132.44,-13.5001 122.44,-17 132.44,-20.5001 132.44,-13.5001"/>
</g>
<!-- Node3 -->
<g id="node5" class="node"><title>Node3</title>
<a xlink:href="structfwRuntime_1_1Bundle.html#a9c8c84e67da50b6867f0cb8b2c0ddc50" target="_top" xlink:title="Starts the bundle. ">
<polygon fill="white" stroke="black" points="330,-0 330,-34 436,-34 436,-0 330,-0"/>
<text text-anchor="start" x="338" y="-21" font-family="Helvetica,sans-Serif" font-size="10.00">fwRuntime::Bundle::</text>
<text text-anchor="middle" x="383" y="-8" font-family="Helvetica,sans-Serif" font-size="10.00">start</text>
</a>
</g>
<!-- Node2&#45;&gt;Node3 -->
<g id="edge4" class="edge"><title>Node2&#45;&gt;Node3</title>
<path fill="none" stroke="midnightblue" d="M304.496,-17C313.112,-17 321.728,-17 329.929,-17"/>
<polygon fill="midnightblue" stroke="midnightblue" points="304.406,-13.5001 294.406,-17 304.406,-20.5001 304.406,-13.5001"/>
</g>
</g>
</svg>
