<?xml version="1.0" encoding="UTF-8" standalone="no"?>
<!DOCTYPE svg PUBLIC "-//W3C//DTD SVG 1.1//EN"
 "http://www.w3.org/Graphics/SVG/1.1/DTD/svg11.dtd">
<!-- Generated by graphviz version 2.26.3 (20100126.1600)
 -->
<!-- Title: fwRuntime::ExecutableFactoryRegistrar Pages: 1 -->
<svg width="170pt" height="116pt"
 viewBox="0.00 0.00 170.00 116.00" xmlns="http://www.w3.org/2000/svg" xmlns:xlink="http://www.w3.org/1999/xlink">
<g id="graph1" class="graph" transform="scale(1 1) rotate(0) translate(4 112)">
<title>fwRuntime::ExecutableFactoryRegistrar</title>
<polygon fill="white" stroke="white" points="-4,5 -4,-112 167,-112 167,5 -4,5"/>
<!-- Node1 -->
<g id="node1" class="node"><title>Node1</title>
<polygon fill="#bfbfbf" stroke="black" points="5,-73 5,-107 157,-107 157,-73 5,-73"/>
<text text-anchor="start" x="13" y="-94" font-family="Helvetica,sans-Serif" font-size="10.00">fwRuntime::ExecutableFactory</text>
<text text-anchor="middle" x="81" y="-81" font-family="Helvetica,sans-Serif" font-size="10.00">Registrar</text>
</g>
<!-- Node2 -->
<g id="node3" class="node"><title>Node2</title>
<a xlink:href="structfwRuntime_1_1utils_1_1GenericExecutableFactoryRegistrar.html" target="_top" xlink:title="Defines a generic template executable factory registrar class. ">
<polygon fill="white" stroke="black" points="-0.5,-1 -0.5,-35 162.5,-35 162.5,-1 -0.5,-1"/>
<text text-anchor="start" x="7.5" y="-22" font-family="Helvetica,sans-Serif" font-size="10.00">fwRuntime::utils::Generic</text>
<text text-anchor="middle" x="81" y="-9" font-family="Helvetica,sans-Serif" font-size="10.00">ExecutableFactoryRegistrar&lt; E &gt;</text>
</a>
</g>
<!-- Node1&#45;&gt;Node2 -->
<g id="edge2" class="edge"><title>Node1&#45;&gt;Node2</title>
<path fill="none" stroke="midnightblue" d="M81,-62.7193C81,-53.572 81,-43.6255 81,-35.4407"/>
<polygon fill="midnightblue" stroke="midnightblue" points="77.5001,-62.937 81,-72.937 84.5001,-62.937 77.5001,-62.937"/>
</g>
</g>
</svg>
