<?xml version="1.0" encoding="UTF-8" standalone="no"?>
<!DOCTYPE svg PUBLIC "-//W3C//DTD SVG 1.1//EN"
 "http://www.w3.org/Graphics/SVG/1.1/DTD/svg11.dtd">
<!-- Generated by graphviz version 2.36.0 (20140111.2315)
 -->
<!-- Title: fwAtomsPatch::ISemanticPatch::Context Pages: 1 -->
<svg width="164pt" height="200pt"
 viewBox="0.00 0.00 164.00 200.00" xmlns="http://www.w3.org/2000/svg" xmlns:xlink="http://www.w3.org/1999/xlink">
<g id="graph0" class="graph" transform="scale(1 1) rotate(0) translate(4 196)">
<title>fwAtomsPatch::ISemanticPatch::Context</title>
<polygon fill="white" stroke="none" points="-4,4 -4,-196 160,-196 160,4 -4,4"/>
<!-- Node1 -->
<g id="node1" class="node"><title>Node1</title>
<polygon fill="#bfbfbf" stroke="black" points="-0.5,-1 -0.5,-31 156.5,-31 156.5,-1 -0.5,-1"/>
<text text-anchor="start" x="7.5" y="-19" font-family="Helvetica,sans-Serif" font-size="10.00">fwAtomsPatch::ISemanticPatch</text>
<text text-anchor="middle" x="78" y="-8" font-family="Helvetica,sans-Serif" font-size="10.00">::Context</text>
</g>
<!-- Node2 -->
<g id="node2" class="node"><title>Node2</title>
<g id="a_node2"><a xlink:title="STL class. ">
<polygon fill="white" stroke="#bfbfbf" points="48,-102.5 48,-121.5 108,-121.5 108,-102.5 48,-102.5"/>
<text text-anchor="middle" x="78" y="-109.5" font-family="Helvetica,sans-Serif" font-size="10.00">std::string</text>
</a>
</g>
</g>
<!-- Node2&#45;&gt;Node1 -->
<g id="edge1" class="edge"><title>Node2&#45;&gt;Node1</title>
<path fill="none" stroke="#9a32cd" stroke-dasharray="5,2" d="M78,-92.1742C78,-74.1467 78,-47.3541 78,-31.0982"/>
<polygon fill="#9a32cd" stroke="#9a32cd" points="74.5001,-92.3252 78,-102.325 81.5001,-92.3252 74.5001,-92.3252"/>
<text text-anchor="middle" x="115.5" y="-75.5" font-family="Helvetica,sans-Serif" font-size="10.00"> m_targetVersion</text>
<text text-anchor="middle" x="115.5" y="-64.5" font-family="Helvetica,sans-Serif" font-size="10.00">m_context</text>
<text text-anchor="middle" x="115.5" y="-53.5" font-family="Helvetica,sans-Serif" font-size="10.00">m_originVersion</text>
</g>
<!-- Node3 -->
<g id="node3" class="node"><title>Node3</title>
<g id="a_node3"><a xlink:title="STL class. ">
<polygon fill="white" stroke="#bfbfbf" points="30.5,-161 30.5,-191 125.5,-191 125.5,-161 30.5,-161"/>
<text text-anchor="start" x="38.5" y="-179" font-family="Helvetica,sans-Serif" font-size="10.00">std::basic_string&lt;</text>
<text text-anchor="middle" x="78" y="-168" font-family="Helvetica,sans-Serif" font-size="10.00"> char &gt;</text>
</a>
</g>
</g>
<!-- Node3&#45;&gt;Node2 -->
<g id="edge2" class="edge"><title>Node3&#45;&gt;Node2</title>
<path fill="none" stroke="midnightblue" d="M78,-150.871C78,-140.663 78,-129.408 78,-121.842"/>
<polygon fill="midnightblue" stroke="midnightblue" points="74.5001,-150.931 78,-160.931 81.5001,-150.931 74.5001,-150.931"/>
</g>
</g>
</svg>
