<?xml version="1.0" encoding="UTF-8" standalone="no"?>
<!DOCTYPE svg PUBLIC "-//W3C//DTD SVG 1.1//EN"
 "http://www.w3.org/Graphics/SVG/1.1/DTD/svg11.dtd">
<!-- Generated by graphviz version 2.36.0 (20140111.2315)
 -->
<!-- Title: fwRuntime::ConfigurationElement::NoSuchAttribute Pages: 1 -->
<svg width="138pt" height="208pt"
 viewBox="0.00 0.00 138.00 208.00" xmlns="http://www.w3.org/2000/svg" xmlns:xlink="http://www.w3.org/1999/xlink">
<g id="graph0" class="graph" transform="scale(1 1) rotate(0) translate(4 204)">
<title>fwRuntime::ConfigurationElement::NoSuchAttribute</title>
<polygon fill="white" stroke="none" points="-4,4 -4,-204 134,-204 134,4 -4,4"/>
<!-- Node1 -->
<g id="node1" class="node"><title>Node1</title>
<polygon fill="#bfbfbf" stroke="black" points="-0.5,-1 -0.5,-31 130.5,-31 130.5,-1 -0.5,-1"/>
<text text-anchor="start" x="7.5" y="-19" font-family="Helvetica,sans-Serif" font-size="10.00">fwRuntime::Configuration</text>
<text text-anchor="middle" x="65" y="-8" font-family="Helvetica,sans-Serif" font-size="10.00">Element::NoSuchAttribute</text>
</g>
<!-- Node2 -->
<g id="node2" class="node"><title>Node2</title>
<g id="a_node2"><a xlink:href="classfwCore_1_1Exception.html" target="_top" xlink:title="fwCore::Exception">
<polygon fill="white" stroke="black" points="16,-68.5 16,-87.5 114,-87.5 114,-68.5 16,-68.5"/>
<text text-anchor="middle" x="65" y="-75.5" font-family="Helvetica,sans-Serif" font-size="10.00">fwCore::Exception</text>
</a>
</g>
</g>
<!-- Node2&#45;&gt;Node1 -->
<g id="edge1" class="edge"><title>Node2&#45;&gt;Node1</title>
<path fill="none" stroke="midnightblue" d="M65,-58.3707C65,-49.5849 65,-39.2721 65,-31.1408"/>
<polygon fill="midnightblue" stroke="midnightblue" points="61.5001,-58.4034 65,-68.4035 68.5001,-58.4035 61.5001,-58.4034"/>
</g>
<!-- Node3 -->
<g id="node3" class="node"><title>Node3</title>
<g id="a_node3"><a xlink:title="STL class. ">
<polygon fill="white" stroke="#bfbfbf" points="18.5,-124.5 18.5,-143.5 111.5,-143.5 111.5,-124.5 18.5,-124.5"/>
<text text-anchor="middle" x="65" y="-131.5" font-family="Helvetica,sans-Serif" font-size="10.00">std::runtime_error</text>
</a>
</g>
</g>
<!-- Node3&#45;&gt;Node2 -->
<g id="edge2" class="edge"><title>Node3&#45;&gt;Node2</title>
<path fill="none" stroke="midnightblue" d="M65,-113.805C65,-104.91 65,-94.7798 65,-87.7511"/>
<polygon fill="midnightblue" stroke="midnightblue" points="61.5001,-114.083 65,-124.083 68.5001,-114.083 61.5001,-114.083"/>
</g>
<!-- Node4 -->
<g id="node4" class="node"><title>Node4</title>
<g id="a_node4"><a xlink:title="STL class. ">
<polygon fill="white" stroke="#bfbfbf" points="26,-180.5 26,-199.5 104,-199.5 104,-180.5 26,-180.5"/>
<text text-anchor="middle" x="65" y="-187.5" font-family="Helvetica,sans-Serif" font-size="10.00">std::exception</text>
</a>
</g>
</g>
<!-- Node4&#45;&gt;Node3 -->
<g id="edge3" class="edge"><title>Node4&#45;&gt;Node3</title>
<path fill="none" stroke="midnightblue" d="M65,-169.805C65,-160.91 65,-150.78 65,-143.751"/>
<polygon fill="midnightblue" stroke="midnightblue" points="61.5001,-170.083 65,-180.083 68.5001,-170.083 61.5001,-170.083"/>
</g>
</g>
</svg>
