<?xml version="1.0" encoding="UTF-8" standalone="no"?>
<!DOCTYPE svg PUBLIC "-//W3C//DTD SVG 1.1//EN"
 "http://www.w3.org/Graphics/SVG/1.1/DTD/svg11.dtd">
<!-- Generated by graphviz version 2.26.3 (20100126.1600)
 -->
<!-- Title: camp_ext::ValueMapper&lt; ::boost::posix_time::ptime &gt; Pages: 1 -->
<svg width="130pt" height="128pt"
 viewBox="0.00 0.00 130.00 128.00" xmlns="http://www.w3.org/2000/svg" xmlns:xlink="http://www.w3.org/1999/xlink">
<g id="graph1" class="graph" transform="scale(1 1) rotate(0) translate(4 124)">
<title>camp_ext::ValueMapper&lt; ::boost::posix_time::ptime &gt;</title>
<polygon fill="white" stroke="white" points="-4,5 -4,-124 127,-124 127,5 -4,5"/>
<!-- Node1 -->
<g id="node1" class="node"><title>Node1</title>
<polygon fill="#bfbfbf" stroke="black" points="0,-0.5 0,-47.5 122,-47.5 122,-0.5 0,-0.5"/>
<text text-anchor="start" x="8" y="-34.5" font-family="Helvetica,sans-Serif" font-size="10.00">camp_ext::ValueMapper</text>
<text text-anchor="start" x="8" y="-21.5" font-family="Helvetica,sans-Serif" font-size="10.00">&lt; ::boost::posix_time</text>
<text text-anchor="middle" x="61" y="-8.5" font-family="Helvetica,sans-Serif" font-size="10.00">::ptime &gt;</text>
</g>
<!-- Node2 -->
<g id="node2" class="node"><title>Node2</title>
<polygon fill="white" stroke="#bfbfbf" points="40.5,-98.5 40.5,-119.5 81.5,-119.5 81.5,-98.5 40.5,-98.5"/>
<text text-anchor="middle" x="61" y="-106.5" font-family="Helvetica,sans-Serif" font-size="10.00">static</text>
</g>
<!-- Node2&#45;&gt;Node1 -->
<g id="edge2" class="edge"><title>Node2&#45;&gt;Node1</title>
<path fill="none" stroke="#9a32cd" stroke-dasharray="5,2" d="M61,-88.0451C61,-75.7588 61,-60.2066 61,-47.5045"/>
<polygon fill="#9a32cd" stroke="#9a32cd" points="57.5001,-88.2347 61,-98.2347 64.5001,-88.2347 57.5001,-88.2347"/>
<text text-anchor="middle" x="72" y="-70.5" font-family="Helvetica,sans-Serif" font-size="10.00"> type</text>
</g>
</g>
</svg>
