<?xml version="1.0" encoding="UTF-8" standalone="no"?>
<!DOCTYPE svg PUBLIC "-//W3C//DTD SVG 1.1//EN"
 "http://www.w3.org/Graphics/SVG/1.1/DTD/svg11.dtd">
<!-- Generated by graphviz version 2.36.0 (20140111.2315)
 -->
<!-- Title: fwRuntime::Runtime::findExtension Pages: 1 -->
<svg width="818pt" height="151pt"
 viewBox="0.00 0.00 818.00 151.00" xmlns="http://www.w3.org/2000/svg" xmlns:xlink="http://www.w3.org/1999/xlink">
<g id="graph0" class="graph" transform="scale(1 1) rotate(0) translate(4 147)">
<title>fwRuntime::Runtime::findExtension</title>
<polygon fill="white" stroke="none" points="-4,4 -4,-147 814,-147 814,4 -4,4"/>
<!-- Node1 -->
<g id="node1" class="node"><title>Node1</title>
<polygon fill="#bfbfbf" stroke="black" points="0.5,-44 0.5,-74 107.5,-74 107.5,-44 0.5,-44"/>
<text text-anchor="start" x="8.5" y="-62" font-family="Helvetica,sans-Serif" font-size="10.00">fwRuntime::Runtime</text>
<text text-anchor="middle" x="54" y="-51" font-family="Helvetica,sans-Serif" font-size="10.00">::findExtension</text>
</g>
<!-- Node2 -->
<g id="node2" class="node"><title>Node2</title>
<g id="a_node2"><a xlink:href="structfwRuntime_1_1Runtime.html#a8e131eebfe20b61b96b34200e20deb8a" target="_top" xlink:title="Registers a new extension. ">
<polygon fill="white" stroke="black" points="155.5,-89 155.5,-119 262.5,-119 262.5,-89 155.5,-89"/>
<text text-anchor="start" x="163.5" y="-107" font-family="Helvetica,sans-Serif" font-size="10.00">fwRuntime::Runtime</text>
<text text-anchor="middle" x="209" y="-96" font-family="Helvetica,sans-Serif" font-size="10.00">::addExtension</text>
</a>
</g>
</g>
<!-- Node1&#45;&gt;Node2 -->
<g id="edge1" class="edge"><title>Node1&#45;&gt;Node2</title>
<path fill="none" stroke="midnightblue" d="M116.053,-76.9569C129.546,-80.9253 143.708,-85.0904 156.763,-88.9303"/>
<polygon fill="midnightblue" stroke="midnightblue" points="116.954,-73.5735 106.372,-74.1095 114.978,-80.289 116.954,-73.5735"/>
</g>
<!-- Node7 -->
<g id="node7" class="node"><title>Node7</title>
<g id="a_node7"><a xlink:href="namespacefwRuntime.html#ad8ae94d8be33a52e98016ae1ac67c64c" target="_top" xlink:title="Retrieve the extension having the specified identifier. ">
<polygon fill="white" stroke="black" points="144.5,-49.5 144.5,-68.5 273.5,-68.5 273.5,-49.5 144.5,-49.5"/>
<text text-anchor="middle" x="209" y="-56.5" font-family="Helvetica,sans-Serif" font-size="10.00">fwRuntime::findExtension</text>
</a>
</g>
</g>
<!-- Node1&#45;&gt;Node7 -->
<g id="edge6" class="edge"><title>Node1&#45;&gt;Node7</title>
<path fill="none" stroke="midnightblue" d="M117.818,-59C126.598,-59 135.627,-59 144.421,-59"/>
<polygon fill="midnightblue" stroke="midnightblue" points="117.654,-55.5001 107.654,-59 117.654,-62.5001 117.654,-55.5001"/>
</g>
<!-- Node9 -->
<g id="node9" class="node"><title>Node9</title>
<g id="a_node9"><a xlink:href="structfwRuntime_1_1Runtime.html#a01727e9e5f5fb50514855dfc5968fd65" target="_top" xlink:title="Unregister a new extension. ">
<polygon fill="white" stroke="black" points="154.5,-0 154.5,-30 263.5,-30 263.5,-0 154.5,-0"/>
<text text-anchor="start" x="162.5" y="-18" font-family="Helvetica,sans-Serif" font-size="10.00">fwRuntime::Runtime</text>
<text text-anchor="middle" x="209" y="-7" font-family="Helvetica,sans-Serif" font-size="10.00">::unregisterExtension</text>
</a>
</g>
</g>
<!-- Node1&#45;&gt;Node9 -->
<g id="edge8" class="edge"><title>Node1&#45;&gt;Node9</title>
<path fill="none" stroke="midnightblue" d="M116.936,-41.1882C129.814,-37.485 143.262,-33.6173 155.75,-30.0262"/>
<polygon fill="midnightblue" stroke="midnightblue" points="115.869,-37.8532 107.226,-43.9808 117.804,-44.5806 115.869,-37.8532"/>
</g>
<!-- Node3 -->
<g id="node3" class="node"><title>Node3</title>
<g id="a_node3"><a xlink:href="structfwRuntime_1_1Runtime.html#a05bb6b1b92cc6441eb936907ce1de6db" target="_top" xlink:title="Adds a new bundle instance to the runtime system. ">
<polygon fill="white" stroke="black" points="328.5,-91 328.5,-121 435.5,-121 435.5,-91 328.5,-91"/>
<text text-anchor="start" x="336.5" y="-109" font-family="Helvetica,sans-Serif" font-size="10.00">fwRuntime::Runtime</text>
<text text-anchor="middle" x="382" y="-98" font-family="Helvetica,sans-Serif" font-size="10.00">::addBundle</text>
</a>
</g>
</g>
<!-- Node2&#45;&gt;Node3 -->
<g id="edge2" class="edge"><title>Node2&#45;&gt;Node3</title>
<path fill="none" stroke="midnightblue" d="M272.701,-104.733C291.023,-104.948 310.851,-105.18 328.473,-105.386"/>
<polygon fill="midnightblue" stroke="midnightblue" points="272.741,-101.234 262.701,-104.616 272.659,-108.233 272.741,-101.234"/>
</g>
<!-- Node4 -->
<g id="node4" class="node"><title>Node4</title>
<g id="a_node4"><a xlink:href="structfwRuntime_1_1Runtime.html#adfd7ac9087797b44b84746183d00c62a" target="_top" xlink:title="Adds all bundle found in the given path. ">
<polygon fill="white" stroke="black" points="490.5,-91 490.5,-121 597.5,-121 597.5,-91 490.5,-91"/>
<text text-anchor="start" x="498.5" y="-109" font-family="Helvetica,sans-Serif" font-size="10.00">fwRuntime::Runtime</text>
<text text-anchor="middle" x="544" y="-98" font-family="Helvetica,sans-Serif" font-size="10.00">::addBundles</text>
</a>
</g>
</g>
<!-- Node3&#45;&gt;Node4 -->
<g id="edge3" class="edge"><title>Node3&#45;&gt;Node4</title>
<path fill="none" stroke="midnightblue" d="M445.898,-106C460.662,-106 476.241,-106 490.495,-106"/>
<polygon fill="midnightblue" stroke="midnightblue" points="445.833,-102.5 435.833,-106 445.833,-109.5 445.833,-102.5"/>
</g>
<!-- Node5 -->
<g id="node5" class="node"><title>Node5</title>
<g id="a_node5"><a xlink:href="structfwRuntime_1_1Runtime.html#a7cec72a200e8e69975768eae49709d65" target="_top" xlink:title="Adds all bundle found at the default location. ">
<polygon fill="white" stroke="black" points="668.5,-113 668.5,-143 775.5,-143 775.5,-113 668.5,-113"/>
<text text-anchor="start" x="676.5" y="-131" font-family="Helvetica,sans-Serif" font-size="10.00">fwRuntime::Runtime</text>
<text text-anchor="middle" x="722" y="-120" font-family="Helvetica,sans-Serif" font-size="10.00">::addDefaultBundles</text>
</a>
</g>
</g>
<!-- Node4&#45;&gt;Node5 -->
<g id="edge4" class="edge"><title>Node4&#45;&gt;Node5</title>
<path fill="none" stroke="midnightblue" d="M607.94,-113.868C627.685,-116.336 649.266,-119.033 668.231,-121.404"/>
<polygon fill="midnightblue" stroke="midnightblue" points="608.163,-110.368 597.806,-112.601 607.294,-117.314 608.163,-110.368"/>
</g>
<!-- Node6 -->
<g id="node6" class="node"><title>Node6</title>
<g id="a_node6"><a xlink:href="namespacefwRuntime.html#a2b24dde67b11c7bb1de980ae77664887" target="_top" xlink:title="Retrieve a filesystem valid path for a path relative to the specified executable instance. ">
<polygon fill="white" stroke="black" points="634,-74.5 634,-93.5 810,-93.5 810,-74.5 634,-74.5"/>
<text text-anchor="middle" x="722" y="-81.5" font-family="Helvetica,sans-Serif" font-size="10.00">fwRuntime::getBundleResourcePath</text>
</a>
</g>
</g>
<!-- Node4&#45;&gt;Node6 -->
<g id="edge5" class="edge"><title>Node4&#45;&gt;Node6</title>
<path fill="none" stroke="midnightblue" d="M608.073,-98.1158C619.98,-96.6276 632.549,-95.0564 644.807,-93.5241"/>
<polygon fill="midnightblue" stroke="midnightblue" points="607.294,-94.6859 597.806,-99.3993 608.163,-101.632 607.294,-94.6859"/>
</g>
<!-- Node8 -->
<g id="node8" class="node"><title>Node8</title>
<g id="a_node8"><a xlink:href="namespacefwRuntime.html#a09ab28038084fda4571324c6982e2ed2" target="_top" xlink:title="Retrieves all executable objects for the point having the specified identifier. ">
<polygon fill="white" stroke="black" points="310.5,-42 310.5,-72 453.5,-72 453.5,-42 310.5,-42"/>
<text text-anchor="start" x="318.5" y="-60" font-family="Helvetica,sans-Serif" font-size="10.00">fwRuntime::getAllExecutable</text>
<text text-anchor="middle" x="382" y="-49" font-family="Helvetica,sans-Serif" font-size="10.00">ForPoint</text>
</a>
</g>
</g>
<!-- Node7&#45;&gt;Node8 -->
<g id="edge7" class="edge"><title>Node7&#45;&gt;Node8</title>
<path fill="none" stroke="midnightblue" d="M283.891,-58.1358C292.68,-58.033 301.635,-57.9283 310.376,-57.826"/>
<polygon fill="midnightblue" stroke="midnightblue" points="283.632,-54.6385 273.674,-58.2553 283.714,-61.638 283.632,-54.6385"/>
</g>
</g>
</svg>
