<?xml version="1.0" encoding="UTF-8" standalone="no"?>
<!DOCTYPE svg PUBLIC "-//W3C//DTD SVG 1.1//EN"
 "http://www.w3.org/Graphics/SVG/1.1/DTD/svg11.dtd">
<!-- Generated by graphviz version 2.26.3 (20100126.1600)
 -->
<!-- Title: fwRuntime::dl::Native::getPath Pages: 1 -->
<svg width="554pt" height="146pt"
 viewBox="0.00 0.00 554.00 146.00" xmlns="http://www.w3.org/2000/svg" xmlns:xlink="http://www.w3.org/1999/xlink">
<g id="graph1" class="graph" transform="scale(1 1) rotate(0) translate(4 142)">
<title>fwRuntime::dl::Native::getPath</title>
<polygon fill="white" stroke="white" points="-4,5 -4,-142 551,-142 551,5 -4,5"/>
<!-- Node1 -->
<g id="node1" class="node"><title>Node1</title>
<polygon fill="#bfbfbf" stroke="black" points="0,-26 0,-60 112,-60 112,-26 0,-26"/>
<text text-anchor="start" x="8" y="-47" font-family="Helvetica,sans-Serif" font-size="10.00">fwRuntime::dl::Native</text>
<text text-anchor="middle" x="56" y="-34" font-family="Helvetica,sans-Serif" font-size="10.00">::getPath</text>
</g>
<!-- Node2 -->
<g id="node3" class="node"><title>Node2</title>
<a xlink:href="structfwRuntime_1_1dl_1_1Native.html#aab2a36f818026169194a966ad1714092" target="_top" xlink:title="Retrieves the pattern of the dynamic library file name given the host OS. ">
<polygon fill="white" stroke="black" points="148,-26 148,-60 260,-60 260,-26 148,-26"/>
<text text-anchor="start" x="156" y="-47" font-family="Helvetica,sans-Serif" font-size="10.00">fwRuntime::dl::Native</text>
<text text-anchor="middle" x="204" y="-34" font-family="Helvetica,sans-Serif" font-size="10.00">::getNativeName</text>
</a>
</g>
<!-- Node1&#45;&gt;Node2 -->
<g id="edge2" class="edge"><title>Node1&#45;&gt;Node2</title>
<path fill="none" stroke="midnightblue" d="M112.375,-43C120.621,-43 129.178,-43 137.602,-43"/>
<polygon fill="midnightblue" stroke="midnightblue" points="137.782,-46.5001 147.782,-43 137.782,-39.5001 137.782,-46.5001"/>
</g>
<!-- Node3 -->
<g id="node5" class="node"><title>Node3</title>
<a xlink:href="structfwRuntime_1_1Bundle.html#ad57fa5204eeb10d54ee87335b4722497" target="_top" xlink:title="Retrieves the version of the bundle. ">
<polygon fill="white" stroke="black" points="296,-52 296,-86 402,-86 402,-52 296,-52"/>
<text text-anchor="start" x="304" y="-73" font-family="Helvetica,sans-Serif" font-size="10.00">fwRuntime::Bundle::</text>
<text text-anchor="middle" x="349" y="-60" font-family="Helvetica,sans-Serif" font-size="10.00">getVersion</text>
</a>
</g>
<!-- Node2&#45;&gt;Node3 -->
<g id="edge4" class="edge"><title>Node2&#45;&gt;Node3</title>
<path fill="none" stroke="midnightblue" d="M260.061,-53.0523C268.538,-54.5724 277.332,-56.1492 285.945,-57.6936"/>
<polygon fill="midnightblue" stroke="midnightblue" points="285.482,-61.1664 295.943,-59.4863 286.718,-54.2763 285.482,-61.1664"/>
</g>
<!-- Node7 -->
<g id="node13" class="node"><title>Node7</title>
<a xlink:href="structfwRuntime_1_1Version.html#a3e98610f729f4ea2b061d2ecd0c4ed09" target="_top" xlink:title="String converter. ">
<polygon fill="white" stroke="black" points="297.5,-0 297.5,-34 400.5,-34 400.5,-0 297.5,-0"/>
<text text-anchor="start" x="305.5" y="-21" font-family="Helvetica,sans-Serif" font-size="10.00">fwRuntime::Version</text>
<text text-anchor="middle" x="349" y="-8" font-family="Helvetica,sans-Serif" font-size="10.00">::string</text>
</a>
</g>
<!-- Node2&#45;&gt;Node7 -->
<g id="edge12" class="edge"><title>Node2&#45;&gt;Node7</title>
<path fill="none" stroke="midnightblue" d="M260.061,-32.9477C268.978,-31.3488 278.245,-29.6871 287.283,-28.0664"/>
<polygon fill="midnightblue" stroke="midnightblue" points="288.135,-31.4697 297.36,-26.2596 286.899,-24.5796 288.135,-31.4697"/>
</g>
<!-- Node4 -->
<g id="node7" class="node"><title>Node4</title>
<a xlink:href="structfwRuntime_1_1Runtime.html#aa7a79fcdb77983835e28ddc61fe822ac" target="_top" xlink:title="Retrieves the bundle for the specified idenfier. ">
<polygon fill="white" stroke="black" points="438.5,-104 438.5,-138 545.5,-138 545.5,-104 438.5,-104"/>
<text text-anchor="start" x="446.5" y="-125" font-family="Helvetica,sans-Serif" font-size="10.00">fwRuntime::Runtime</text>
<text text-anchor="middle" x="492" y="-112" font-family="Helvetica,sans-Serif" font-size="10.00">::findBundle</text>
</a>
</g>
<!-- Node3&#45;&gt;Node4 -->
<g id="edge6" class="edge"><title>Node3&#45;&gt;Node4</title>
<path fill="none" stroke="midnightblue" d="M395.824,-86.0267C408.539,-90.6507 422.442,-95.7062 435.626,-100.5"/>
<polygon fill="midnightblue" stroke="midnightblue" points="434.477,-103.807 445.071,-103.935 436.869,-97.2282 434.477,-103.807"/>
</g>
<!-- Node5 -->
<g id="node9" class="node"><title>Node5</title>
<a xlink:href="structfwRuntime_1_1Runtime.html#acf43340892d940d12b36db78376fe08f" target="_top" xlink:title="Retrieves the default runtime instance. ">
<polygon fill="white" stroke="black" points="438.5,-52 438.5,-86 545.5,-86 545.5,-52 438.5,-52"/>
<text text-anchor="start" x="446.5" y="-73" font-family="Helvetica,sans-Serif" font-size="10.00">fwRuntime::Runtime</text>
<text text-anchor="middle" x="492" y="-60" font-family="Helvetica,sans-Serif" font-size="10.00">::getDefault</text>
</a>
</g>
<!-- Node3&#45;&gt;Node5 -->
<g id="edge8" class="edge"><title>Node3&#45;&gt;Node5</title>
<path fill="none" stroke="midnightblue" d="M402.248,-69C410.695,-69 419.506,-69 428.166,-69"/>
<polygon fill="midnightblue" stroke="midnightblue" points="428.231,-72.5001 438.231,-69 428.231,-65.5001 428.231,-72.5001"/>
</g>
<!-- Node6 -->
<g id="node11" class="node"><title>Node6</title>
<a xlink:href="structfwRuntime_1_1Bundle.html#aa75c9a3d5d47df8e4db62dd1d20b4caa" target="_top" xlink:title="Retrieves the bundle identifier. ">
<polygon fill="white" stroke="black" points="439,-0 439,-34 545,-34 545,-0 439,-0"/>
<text text-anchor="start" x="447" y="-21" font-family="Helvetica,sans-Serif" font-size="10.00">fwRuntime::Bundle::</text>
<text text-anchor="middle" x="492" y="-8" font-family="Helvetica,sans-Serif" font-size="10.00">getIdentifier</text>
</a>
</g>
<!-- Node3&#45;&gt;Node6 -->
<g id="edge10" class="edge"><title>Node3&#45;&gt;Node6</title>
<path fill="none" stroke="midnightblue" d="M395.824,-51.9733C408.539,-47.3493 422.442,-42.2938 435.626,-37.4997"/>
<polygon fill="midnightblue" stroke="midnightblue" points="436.869,-40.7718 445.071,-34.065 434.477,-34.1932 436.869,-40.7718"/>
</g>
</g>
</svg>
