<?xml version="1.0" encoding="UTF-8" standalone="no"?>
<!DOCTYPE svg PUBLIC "-//W3C//DTD SVG 1.1//EN"
 "http://www.w3.org/Graphics/SVG/1.1/DTD/svg11.dtd">
<!-- Generated by graphviz version 2.26.3 (20100126.1600)
 -->
<!-- Title: fwRuntime::Runtime::unregisterExtension Pages: 1 -->
<svg width="428pt" height="94pt"
 viewBox="0.00 0.00 428.00 94.00" xmlns="http://www.w3.org/2000/svg" xmlns:xlink="http://www.w3.org/1999/xlink">
<g id="graph1" class="graph" transform="scale(1 1) rotate(0) translate(4 90)">
<title>fwRuntime::Runtime::unregisterExtension</title>
<polygon fill="white" stroke="white" points="-4,5 -4,-90 425,-90 425,5 -4,5"/>
<!-- Node1 -->
<g id="node1" class="node"><title>Node1</title>
<polygon fill="#bfbfbf" stroke="black" points="0.5,-26 0.5,-60 109.5,-60 109.5,-26 0.5,-26"/>
<text text-anchor="start" x="8.5" y="-47" font-family="Helvetica,sans-Serif" font-size="10.00">fwRuntime::Runtime</text>
<text text-anchor="middle" x="55" y="-34" font-family="Helvetica,sans-Serif" font-size="10.00">::unregisterExtension</text>
</g>
<!-- Node2 -->
<g id="node3" class="node"><title>Node2</title>
<a xlink:href="namespacefwRuntime.html#ad8ae94d8be33a52e98016ae1ac67c64c" target="_top" xlink:title="Retrieves the extension having the specified identifier. ">
<polygon fill="white" stroke="black" points="146.5,-32.5 146.5,-53.5 275.5,-53.5 275.5,-32.5 146.5,-32.5"/>
<text text-anchor="middle" x="211" y="-40.5" font-family="Helvetica,sans-Serif" font-size="10.00">fwRuntime::findExtension</text>
</a>
</g>
<!-- Node1&#45;&gt;Node2 -->
<g id="edge2" class="edge"><title>Node1&#45;&gt;Node2</title>
<path fill="none" stroke="midnightblue" d="M109.561,-43C118.179,-43 127.218,-43 136.201,-43"/>
<polygon fill="midnightblue" stroke="midnightblue" points="136.292,-46.5001 146.292,-43 136.292,-39.5001 136.292,-46.5001"/>
</g>
<!-- Node3 -->
<g id="node5" class="node"><title>Node3</title>
<a xlink:href="structfwRuntime_1_1Runtime.html#a19c3045669f4728f9dbc3aff9dc20b26" target="_top" xlink:title="Retrieves the extension instance matching the specified identifier. ">
<polygon fill="white" stroke="black" points="312.5,-52 312.5,-86 419.5,-86 419.5,-52 312.5,-52"/>
<text text-anchor="start" x="320.5" y="-73" font-family="Helvetica,sans-Serif" font-size="10.00">fwRuntime::Runtime</text>
<text text-anchor="middle" x="366" y="-60" font-family="Helvetica,sans-Serif" font-size="10.00">::findExtension</text>
</a>
</g>
<!-- Node2&#45;&gt;Node3 -->
<g id="edge4" class="edge"><title>Node2&#45;&gt;Node3</title>
<path fill="none" stroke="midnightblue" d="M273.598,-53.5003C282.976,-55.0735 292.658,-56.6974 302.064,-58.2752"/>
<polygon fill="midnightblue" stroke="midnightblue" points="301.694,-61.762 312.135,-59.9646 302.852,-54.8585 301.694,-61.762"/>
</g>
<!-- Node4 -->
<g id="node7" class="node"><title>Node4</title>
<a xlink:href="structfwRuntime_1_1Runtime.html#acf43340892d940d12b36db78376fe08f" target="_top" xlink:title="Retrieves the default runtime instance. ">
<polygon fill="white" stroke="black" points="312.5,-0 312.5,-34 419.5,-34 419.5,-0 312.5,-0"/>
<text text-anchor="start" x="320.5" y="-21" font-family="Helvetica,sans-Serif" font-size="10.00">fwRuntime::Runtime</text>
<text text-anchor="middle" x="366" y="-8" font-family="Helvetica,sans-Serif" font-size="10.00">::getDefault</text>
</a>
</g>
<!-- Node2&#45;&gt;Node4 -->
<g id="edge6" class="edge"><title>Node2&#45;&gt;Node4</title>
<path fill="none" stroke="midnightblue" d="M273.598,-32.4997C282.976,-30.9265 292.658,-29.3026 302.064,-27.7248"/>
<polygon fill="midnightblue" stroke="midnightblue" points="302.852,-31.1415 312.135,-26.0354 301.694,-24.238 302.852,-31.1415"/>
</g>
</g>
</svg>
