<?xml version="1.0" encoding="UTF-8" standalone="no"?>
<!DOCTYPE svg PUBLIC "-//W3C//DTD SVG 1.1//EN"
 "http://www.w3.org/Graphics/SVG/1.1/DTD/svg11.dtd">
<!-- Generated by graphviz version 2.26.3 (20100126.1600)
 -->
<!-- Title: fwData::location::enableFolder&lt; RW &gt; Pages: 1 -->
<svg width="600pt" height="190pt"
 viewBox="0.00 0.00 600.00 190.00" xmlns="http://www.w3.org/2000/svg" xmlns:xlink="http://www.w3.org/1999/xlink">
<g id="graph1" class="graph" transform="scale(1 1) rotate(0) translate(4 186)">
<title>fwData::location::enableFolder&lt; RW &gt;</title>
<polygon fill="white" stroke="white" points="-4,5 -4,-186 597,-186 597,5 -4,5"/>
<!-- Node1 -->
<g id="node1" class="node"><title>Node1</title>
<polygon fill="#bfbfbf" stroke="black" points="0,-81 0,-115 122,-115 122,-81 0,-81"/>
<text text-anchor="start" x="8" y="-102" font-family="Helvetica,sans-Serif" font-size="10.00">fwData::location::enable</text>
<text text-anchor="middle" x="61" y="-89" font-family="Helvetica,sans-Serif" font-size="10.00">Folder&lt; RW &gt;</text>
</g>
<!-- Node2 -->
<g id="node3" class="node"><title>Node2</title>
<a xlink:href="structfwData_1_1location_1_1enableFolder.html" target="_top" xlink:title="fwData::location::enable\lFolder\&lt; ::fwDataIO::reader\l::IObjectReader \&gt;">
<polygon fill="white" stroke="black" points="252,-107.5 252,-154.5 386,-154.5 386,-107.5 252,-107.5"/>
<text text-anchor="start" x="260" y="-141.5" font-family="Helvetica,sans-Serif" font-size="10.00">fwData::location::enable</text>
<text text-anchor="start" x="260" y="-128.5" font-family="Helvetica,sans-Serif" font-size="10.00">Folder&lt; ::fwDataIO::reader</text>
<text text-anchor="middle" x="319" y="-115.5" font-family="Helvetica,sans-Serif" font-size="10.00">::IObjectReader &gt;</text>
</a>
</g>
<!-- Node1&#45;&gt;Node2 -->
<g id="edge2" class="edge"><title>Node1&#45;&gt;Node2</title>
<path fill="none" stroke="orange" stroke-dasharray="5,2" d="M132.451,-107.139C169.809,-111.917 215.266,-117.732 251.955,-122.425"/>
<polygon fill="orange" stroke="orange" points="132.506,-103.618 122.142,-105.821 131.618,-110.561 132.506,-103.618"/>
<text text-anchor="start" x="140" y="-136" font-family="Helvetica,sans-Serif" font-size="10.00"> &lt; ::fwDataIO::reader</text>
<text text-anchor="middle" x="187" y="-123" font-family="Helvetica,sans-Serif" font-size="10.00">::IObjectReader &gt;</text>
</g>
<!-- Node5 -->
<g id="node9" class="node"><title>Node5</title>
<a xlink:href="structfwData_1_1location_1_1enableFolder.html" target="_top" xlink:title="fwData::location::enable\lFolder\&lt; ::fwDataIO::writer\l::IObjectWriter \&gt;">
<polygon fill="white" stroke="black" points="253.5,-31.5 253.5,-78.5 384.5,-78.5 384.5,-31.5 253.5,-31.5"/>
<text text-anchor="start" x="261.5" y="-65.5" font-family="Helvetica,sans-Serif" font-size="10.00">fwData::location::enable</text>
<text text-anchor="start" x="261.5" y="-52.5" font-family="Helvetica,sans-Serif" font-size="10.00">Folder&lt; ::fwDataIO::writer</text>
<text text-anchor="middle" x="319" y="-39.5" font-family="Helvetica,sans-Serif" font-size="10.00">::IObjectWriter &gt;</text>
</a>
</g>
<!-- Node1&#45;&gt;Node5 -->
<g id="edge8" class="edge"><title>Node1&#45;&gt;Node5</title>
<path fill="none" stroke="orange" stroke-dasharray="5,2" d="M131.956,-79.6078C134.666,-79.0415 137.355,-78.5029 140,-78 177.244,-70.9193 219.271,-65.3937 253.238,-61.5351"/>
<polygon fill="orange" stroke="orange" points="131.103,-76.2114 122.081,-81.7649 132.597,-83.0501 131.103,-76.2114"/>
<text text-anchor="start" x="141.5" y="-95" font-family="Helvetica,sans-Serif" font-size="10.00"> &lt; ::fwDataIO::writer</text>
<text text-anchor="middle" x="187" y="-82" font-family="Helvetica,sans-Serif" font-size="10.00">::IObjectWriter &gt;</text>
</g>
<!-- Node3 -->
<g id="node5" class="node"><title>Node3</title>
<a xlink:href="classvtkGdcmIO_1_1SeriesDBLazyReader.html" target="_top" xlink:title="Reads DICOM data from a directory path in order to create a SeriesDB object in lazy mode...">
<polygon fill="white" stroke="black" points="424.5,-160.5 424.5,-181.5 591.5,-181.5 591.5,-160.5 424.5,-160.5"/>
<text text-anchor="middle" x="508" y="-168.5" font-family="Helvetica,sans-Serif" font-size="10.00">vtkGdcmIO::SeriesDBLazyReader</text>
</a>
</g>
<!-- Node2&#45;&gt;Node3 -->
<g id="edge4" class="edge"><title>Node2&#45;&gt;Node3</title>
<path fill="none" stroke="midnightblue" d="M396.039,-147.305C417.043,-151.75 439.239,-156.447 458.281,-160.477"/>
<polygon fill="midnightblue" stroke="midnightblue" points="396.675,-143.862 386.166,-145.215 395.225,-150.71 396.675,-143.862"/>
</g>
<!-- Node4 -->
<g id="node7" class="node"><title>Node4</title>
<a xlink:href="classvtkGdcmIO_1_1SeriesDBReader.html" target="_top" xlink:title="Reads DICOM data from a directory path in order to create a SeriesDB object. ">
<polygon fill="white" stroke="black" points="435,-120.5 435,-141.5 581,-141.5 581,-120.5 435,-120.5"/>
<text text-anchor="middle" x="508" y="-128.5" font-family="Helvetica,sans-Serif" font-size="10.00">vtkGdcmIO::SeriesDBReader</text>
</a>
</g>
<!-- Node2&#45;&gt;Node4 -->
<g id="edge6" class="edge"><title>Node2&#45;&gt;Node4</title>
<path fill="none" stroke="midnightblue" d="M396.301,-131C409.077,-131 422.288,-131 434.955,-131"/>
<polygon fill="midnightblue" stroke="midnightblue" points="396.167,-127.5 386.166,-131 396.166,-134.5 396.167,-127.5"/>
</g>
<!-- Node6 -->
<g id="node11" class="node"><title>Node6</title>
<a xlink:href="classfwItkIO_1_1JpgImageWriter.html" target="_top" xlink:title="fwItkIO::JpgImageWriter">
<polygon fill="white" stroke="black" points="446,-80.5 446,-101.5 570,-101.5 570,-80.5 446,-80.5"/>
<text text-anchor="middle" x="508" y="-88.5" font-family="Helvetica,sans-Serif" font-size="10.00">fwItkIO::JpgImageWriter</text>
</a>
</g>
<!-- Node5&#45;&gt;Node6 -->
<g id="edge10" class="edge"><title>Node5&#45;&gt;Node6</title>
<path fill="none" stroke="midnightblue" d="M394.585,-69.3972C413.96,-73.0876 434.44,-76.9886 452.587,-80.4451"/>
<polygon fill="midnightblue" stroke="midnightblue" points="395.051,-65.923 384.573,-67.49 393.741,-72.7994 395.051,-65.923"/>
</g>
<!-- Node7 -->
<g id="node13" class="node"><title>Node7</title>
<a xlink:href="classfwVtkIO_1_1ModelSeriesObjWriter.html" target="_top" xlink:title="Write a fwData::Reconstruction.Write a fwData::Reconstruction as .obj file using the VTK lib and the ...">
<polygon fill="white" stroke="black" points="431,-40.5 431,-61.5 585,-61.5 585,-40.5 431,-40.5"/>
<text text-anchor="middle" x="508" y="-48.5" font-family="Helvetica,sans-Serif" font-size="10.00">fwVtkIO::ModelSeriesObjWriter</text>
</a>
</g>
<!-- Node5&#45;&gt;Node7 -->
<g id="edge12" class="edge"><title>Node5&#45;&gt;Node7</title>
<path fill="none" stroke="midnightblue" d="M394.862,-53.3945C406.713,-53.1436 418.971,-52.8842 430.85,-52.6328"/>
<polygon fill="midnightblue" stroke="midnightblue" points="394.496,-49.9013 384.573,-53.6122 394.644,-56.8997 394.496,-49.9013"/>
</g>
<!-- Node8 -->
<g id="node15" class="node"><title>Node8</title>
<a xlink:href="classvtkGdcmIO_1_1ImageSeriesWriter.html" target="_top" xlink:title="Write an ImageSeries in DICOM format. ">
<polygon fill="white" stroke="black" points="431,-0.5 431,-21.5 585,-21.5 585,-0.5 431,-0.5"/>
<text text-anchor="middle" x="508" y="-8.5" font-family="Helvetica,sans-Serif" font-size="10.00">vtkGdcmIO::ImageSeriesWriter</text>
</a>
</g>
<!-- Node5&#45;&gt;Node8 -->
<g id="edge14" class="edge"><title>Node5&#45;&gt;Node8</title>
<path fill="none" stroke="midnightblue" d="M394.38,-37.4512C417.533,-32.0612 442.283,-26.2991 462.754,-21.5334"/>
<polygon fill="midnightblue" stroke="midnightblue" points="393.519,-34.0581 384.573,-39.7344 395.106,-40.8758 393.519,-34.0581"/>
</g>
</g>
</svg>
