<?xml version="1.0" encoding="UTF-8" standalone="no"?>
<!DOCTYPE svg PUBLIC "-//W3C//DTD SVG 1.1//EN"
 "http://www.w3.org/Graphics/SVG/1.1/DTD/svg11.dtd">
<!-- Generated by graphviz version 2.26.3 (20100126.1600)
 -->
<!-- Title: guiQt::editor::DynamicView::DynamicViewInfo Pages: 1 -->
<svg width="244pt" height="342pt"
 viewBox="0.00 0.00 244.00 342.00" xmlns="http://www.w3.org/2000/svg" xmlns:xlink="http://www.w3.org/1999/xlink">
<g id="graph1" class="graph" transform="scale(1 1) rotate(0) translate(4 338)">
<title>guiQt::editor::DynamicView::DynamicViewInfo</title>
<polygon fill="white" stroke="white" points="-4,5 -4,-338 241,-338 241,5 -4,5"/>
<!-- Node1 -->
<g id="node1" class="node"><title>Node1</title>
<polygon fill="#bfbfbf" stroke="black" points="-0.5,-1 -0.5,-35 136.5,-35 136.5,-1 -0.5,-1"/>
<text text-anchor="start" x="7.5" y="-22" font-family="Helvetica,sans-Serif" font-size="10.00">guiQt::editor::DynamicView</text>
<text text-anchor="middle" x="68" y="-9" font-family="Helvetica,sans-Serif" font-size="10.00">::DynamicViewInfo</text>
</g>
<!-- Node2 -->
<g id="node2" class="node"><title>Node2</title>
<polygon fill="white" stroke="#bfbfbf" points="105,-108 105,-142 215,-142 215,-108 105,-108"/>
<text text-anchor="start" x="113" y="-129" font-family="Helvetica,sans-Serif" font-size="10.00">std::map&lt; std::string,</text>
<text text-anchor="middle" x="160" y="-116" font-family="Helvetica,sans-Serif" font-size="10.00"> std::string &gt;</text>
</g>
<!-- Node2&#45;&gt;Node1 -->
<g id="edge2" class="edge"><title>Node2&#45;&gt;Node1</title>
<path fill="none" stroke="#9a32cd" stroke-dasharray="5,2" d="M138.538,-100.038C121.393,-80.0988 97.8202,-52.6822 82.7447,-35.1487"/>
<polygon fill="#9a32cd" stroke="#9a32cd" points="136.045,-102.508 145.219,-107.809 141.353,-97.9442 136.045,-102.508"/>
<text text-anchor="middle" x="135" y="-58.5" font-family="Helvetica,sans-Serif" font-size="10.00"> replaceMap</text>
</g>
<!-- Node3 -->
<g id="node4" class="node"><title>Node3</title>
<a xlink:title="STL class. ">
<polygon fill="white" stroke="#bfbfbf" points="18,-226.5 18,-247.5 78,-247.5 78,-226.5 18,-226.5"/>
<text text-anchor="middle" x="48" y="-234.5" font-family="Helvetica,sans-Serif" font-size="10.00">std::string</text>
</a>
</g>
<!-- Node3&#45;&gt;Node1 -->
<g id="edge14" class="edge"><title>Node3&#45;&gt;Node1</title>
<path fill="none" stroke="#9a32cd" stroke-dasharray="5,2" d="M42.5196,-216.325C35.6041,-186.983 25.775,-131.742 36,-86 40.0987,-67.6642 49.7114,-48.4406 57.3379,-35.1295"/>
<polygon fill="#9a32cd" stroke="#9a32cd" points="39.1721,-217.367 44.9795,-226.229 45.9656,-215.68 39.1721,-217.367"/>
<text text-anchor="middle" x="66" y="-155" font-family="Helvetica,sans-Serif" font-size="10.00"> title</text>
<text text-anchor="middle" x="66" y="-142" font-family="Helvetica,sans-Serif" font-size="10.00">viewConfigID</text>
<text text-anchor="middle" x="66" y="-129" font-family="Helvetica,sans-Serif" font-size="10.00">tabID</text>
<text text-anchor="middle" x="66" y="-116" font-family="Helvetica,sans-Serif" font-size="10.00">icon</text>
<text text-anchor="middle" x="66" y="-103" font-family="Helvetica,sans-Serif" font-size="10.00">tooltip</text>
<text text-anchor="middle" x="66" y="-90" font-family="Helvetica,sans-Serif" font-size="10.00">wid</text>
</g>
<!-- Node3&#45;&gt;Node2 -->
<g id="edge4" class="edge"><title>Node3&#45;&gt;Node2</title>
<path fill="none" stroke="#9a32cd" stroke-dasharray="5,2" d="M65.8668,-219.133C87.0592,-197.941 122.13,-162.87 142.955,-142.045"/>
<polygon fill="#9a32cd" stroke="#9a32cd" points="63.3352,-216.715 58.739,-226.261 68.285,-221.665 63.3352,-216.715"/>
<text text-anchor="middle" x="120" y="-199" font-family="Helvetica,sans-Serif" font-size="10.00"> keys</text>
<text text-anchor="middle" x="120" y="-186" font-family="Helvetica,sans-Serif" font-size="10.00">elements</text>
</g>
<!-- Node4 -->
<g id="node6" class="node"><title>Node4</title>
<a xlink:title="STL class. ">
<polygon fill="white" stroke="#bfbfbf" points="0.5,-299 0.5,-333 95.5,-333 95.5,-299 0.5,-299"/>
<text text-anchor="start" x="8.5" y="-320" font-family="Helvetica,sans-Serif" font-size="10.00">std::basic_string&lt;</text>
<text text-anchor="middle" x="48" y="-307" font-family="Helvetica,sans-Serif" font-size="10.00"> char &gt;</text>
</a>
</g>
<!-- Node4&#45;&gt;Node3 -->
<g id="edge6" class="edge"><title>Node4&#45;&gt;Node3</title>
<path fill="none" stroke="midnightblue" d="M48,-288.623C48,-274.473 48,-258.024 48,-247.567"/>
<polygon fill="midnightblue" stroke="midnightblue" points="44.5001,-288.858 48,-298.858 51.5001,-288.858 44.5001,-288.858"/>
</g>
<!-- Node5 -->
<g id="node8" class="node"><title>Node5</title>
<a xlink:title="STL class. ">
<polygon fill="white" stroke="#bfbfbf" points="114,-226.5 114,-247.5 206,-247.5 206,-226.5 114,-226.5"/>
<text text-anchor="middle" x="160" y="-234.5" font-family="Helvetica,sans-Serif" font-size="10.00">std::map&lt; K, T &gt;</text>
</a>
</g>
<!-- Node5&#45;&gt;Node2 -->
<g id="edge8" class="edge"><title>Node5&#45;&gt;Node2</title>
<path fill="none" stroke="orange" stroke-dasharray="5,2" d="M160,-215.972C160,-194.59 160,-161.865 160,-142.045"/>
<polygon fill="orange" stroke="orange" points="156.5,-216.261 160,-226.261 163.5,-216.261 156.5,-216.261"/>
<text text-anchor="start" x="160" y="-199" font-family="Helvetica,sans-Serif" font-size="10.00"> &lt; std::string, std</text>
<text text-anchor="middle" x="198" y="-186" font-family="Helvetica,sans-Serif" font-size="10.00">::string &gt;</text>
</g>
<!-- Node6 -->
<g id="node10" class="node"><title>Node6</title>
<polygon fill="white" stroke="#bfbfbf" points="115.5,-305.5 115.5,-326.5 144.5,-326.5 144.5,-305.5 115.5,-305.5"/>
<text text-anchor="middle" x="130" y="-313.5" font-family="Helvetica,sans-Serif" font-size="10.00">K</text>
</g>
<!-- Node6&#45;&gt;Node5 -->
<g id="edge10" class="edge"><title>Node6&#45;&gt;Node5</title>
<path fill="none" stroke="#9a32cd" stroke-dasharray="5,2" d="M130.476,-294.983C131.3,-285.785 133.122,-275.05 137,-266 139.885,-259.266 144.762,-252.779 149.284,-247.654"/>
<polygon fill="#9a32cd" stroke="#9a32cd" points="126.967,-295.042 129.894,-305.225 133.955,-295.439 126.967,-295.042"/>
<text text-anchor="middle" x="149.5" y="-270.5" font-family="Helvetica,sans-Serif" font-size="10.00"> keys</text>
</g>
<!-- Node7 -->
<g id="node12" class="node"><title>Node7</title>
<polygon fill="white" stroke="#bfbfbf" points="163.5,-305.5 163.5,-326.5 192.5,-326.5 192.5,-305.5 163.5,-305.5"/>
<text text-anchor="middle" x="178" y="-313.5" font-family="Helvetica,sans-Serif" font-size="10.00">T</text>
</g>
<!-- Node7&#45;&gt;Node5 -->
<g id="edge12" class="edge"><title>Node7&#45;&gt;Node5</title>
<path fill="none" stroke="#9a32cd" stroke-dasharray="5,2" d="M173.28,-295.284C169.804,-280.031 165.219,-259.907 162.447,-247.738"/>
<polygon fill="#9a32cd" stroke="#9a32cd" points="169.938,-296.373 175.572,-305.346 176.763,-294.818 169.938,-296.373"/>
<text text-anchor="middle" x="190.5" y="-270.5" font-family="Helvetica,sans-Serif" font-size="10.00"> elements</text>
</g>
</g>
</svg>
