<?xml version="1.0" encoding="UTF-8" standalone="no"?>
<!DOCTYPE svg PUBLIC "-//W3C//DTD SVG 1.1//EN"
 "http://www.w3.org/Graphics/SVG/1.1/DTD/svg11.dtd">
<!-- Generated by graphviz version 2.36.0 (20140111.2315)
 -->
<!-- Title: fwRuntime::ExecutableFactoryRegistrar::ExecutableFactoryRegistrar Pages: 1 -->
<svg width="504pt" height="136pt"
 viewBox="0.00 0.00 504.00 136.00" xmlns="http://www.w3.org/2000/svg" xmlns:xlink="http://www.w3.org/1999/xlink">
<g id="graph0" class="graph" transform="scale(1 1) rotate(0) translate(4 132)">
<title>fwRuntime::ExecutableFactoryRegistrar::ExecutableFactoryRegistrar</title>
<polygon fill="white" stroke="none" points="-4,4 -4,-132 500,-132 500,4 -4,4"/>
<!-- Node1 -->
<g id="node1" class="node"><title>Node1</title>
<polygon fill="#bfbfbf" stroke="black" points="0,-49 0,-79 184,-79 184,-49 0,-49"/>
<text text-anchor="start" x="8" y="-67" font-family="Helvetica,sans-Serif" font-size="10.00">fwRuntime::ExecutableFactory</text>
<text text-anchor="middle" x="92" y="-56" font-family="Helvetica,sans-Serif" font-size="10.00">Registrar::ExecutableFactoryRegistrar</text>
</g>
<!-- Node2 -->
<g id="node2" class="node"><title>Node2</title>
<g id="a_node2"><a xlink:href="structfwRuntime_1_1Runtime.html#aa34aae40d9a17530df20e96b80a6dc04" target="_top" xlink:title="Adds a new executable factory instance to the runtime system. ">
<polygon fill="white" stroke="black" points="220,-98 220,-128 340,-128 340,-98 220,-98"/>
<text text-anchor="start" x="228" y="-116" font-family="Helvetica,sans-Serif" font-size="10.00">fwRuntime::Runtime</text>
<text text-anchor="middle" x="280" y="-105" font-family="Helvetica,sans-Serif" font-size="10.00">::addExecutableFactory</text>
</a>
</g>
</g>
<!-- Node1&#45;&gt;Node2 -->
<g id="edge1" class="edge"><title>Node1&#45;&gt;Node2</title>
<path fill="none" stroke="midnightblue" d="M150.07,-79.0346C169.709,-84.2083 191.874,-90.0475 212.217,-95.4066"/>
<polygon fill="midnightblue" stroke="midnightblue" points="211.476,-98.8308 222.038,-97.9938 213.259,-92.0617 211.476,-98.8308"/>
</g>
<!-- Node4 -->
<g id="node4" class="node"><title>Node4</title>
<g id="a_node4"><a xlink:href="structfwRuntime_1_1Runtime.html#acf43340892d940d12b36db78376fe08f" target="_top" xlink:title="Retrieves the default runtime instance. ">
<polygon fill="white" stroke="black" points="226.5,-49 226.5,-79 333.5,-79 333.5,-49 226.5,-49"/>
<text text-anchor="start" x="234.5" y="-67" font-family="Helvetica,sans-Serif" font-size="10.00">fwRuntime::Runtime</text>
<text text-anchor="middle" x="280" y="-56" font-family="Helvetica,sans-Serif" font-size="10.00">::getDefault</text>
</a>
</g>
</g>
<!-- Node1&#45;&gt;Node4 -->
<g id="edge3" class="edge"><title>Node1&#45;&gt;Node4</title>
<path fill="none" stroke="midnightblue" d="M184.093,-64C195,-64 205.942,-64 216.319,-64"/>
<polygon fill="midnightblue" stroke="midnightblue" points="216.485,-67.5001 226.485,-64 216.485,-60.5001 216.485,-67.5001"/>
</g>
<!-- Node5 -->
<g id="node5" class="node"><title>Node5</title>
<g id="a_node5"><a xlink:href="structfwRuntime_1_1Bundle.html#a27763e3e76238efe39cbcfbbc31db287" target="_top" xlink:title="Retrieves the pointer to the bundle that is currently loading its dynamic libraries. ">
<polygon fill="white" stroke="black" points="227,-0 227,-30 333,-30 333,-0 227,-0"/>
<text text-anchor="start" x="235" y="-18" font-family="Helvetica,sans-Serif" font-size="10.00">fwRuntime::Bundle::</text>
<text text-anchor="middle" x="280" y="-7" font-family="Helvetica,sans-Serif" font-size="10.00">getLoadingBundle</text>
</a>
</g>
</g>
<!-- Node1&#45;&gt;Node5 -->
<g id="edge4" class="edge"><title>Node1&#45;&gt;Node5</title>
<path fill="none" stroke="midnightblue" d="M150.07,-48.9654C171.277,-43.3787 195.429,-37.0161 217.051,-31.3199"/>
<polygon fill="midnightblue" stroke="midnightblue" points="218.01,-34.6869 226.788,-28.7548 216.226,-27.9178 218.01,-34.6869"/>
</g>
<!-- Node3 -->
<g id="node3" class="node"><title>Node3</title>
<g id="a_node3"><a xlink:href="structfwRuntime_1_1Runtime.html#ac87984cd98e286a26f71a0212bea158d" target="_top" xlink:title="Retrieves the executable factory for the given identifier. ">
<polygon fill="white" stroke="black" points="376,-98 376,-128 496,-128 496,-98 376,-98"/>
<text text-anchor="start" x="384" y="-116" font-family="Helvetica,sans-Serif" font-size="10.00">fwRuntime::Runtime</text>
<text text-anchor="middle" x="436" y="-105" font-family="Helvetica,sans-Serif" font-size="10.00">::findExecutableFactory</text>
</a>
</g>
</g>
<!-- Node2&#45;&gt;Node3 -->
<g id="edge2" class="edge"><title>Node2&#45;&gt;Node3</title>
<path fill="none" stroke="midnightblue" d="M340.1,-113C348.422,-113 357.039,-113 365.533,-113"/>
<polygon fill="midnightblue" stroke="midnightblue" points="365.804,-116.5 375.804,-113 365.804,-109.5 365.804,-116.5"/>
</g>
</g>
</svg>
