<?xml version="1.0" encoding="UTF-8" standalone="no"?>
<!DOCTYPE svg PUBLIC "-//W3C//DTD SVG 1.1//EN"
 "http://www.w3.org/Graphics/SVG/1.1/DTD/svg11.dtd">
<!-- Generated by graphviz version 2.36.0 (20140111.2315)
 -->
<!-- Title: fwRuntime::ConfigurationElementContainer::addConfigurationElement Pages: 1 -->
<svg width="580pt" height="116pt"
 viewBox="0.00 0.00 580.00 116.00" xmlns="http://www.w3.org/2000/svg" xmlns:xlink="http://www.w3.org/1999/xlink">
<g id="graph0" class="graph" transform="scale(1 1) rotate(0) translate(4 112)">
<title>fwRuntime::ConfigurationElementContainer::addConfigurationElement</title>
<polygon fill="white" stroke="none" points="-4,4 -4,-112 576,-112 576,4 -4,4"/>
<!-- Node1 -->
<g id="node1" class="node"><title>Node1</title>
<polygon fill="#bfbfbf" stroke="black" points="0,-45.5 0,-86.5 174,-86.5 174,-45.5 0,-45.5"/>
<text text-anchor="start" x="8" y="-74.5" font-family="Helvetica,sans-Serif" font-size="10.00">fwRuntime::Configuration</text>
<text text-anchor="start" x="8" y="-63.5" font-family="Helvetica,sans-Serif" font-size="10.00">ElementContainer::addConfiguration</text>
<text text-anchor="middle" x="87" y="-52.5" font-family="Helvetica,sans-Serif" font-size="10.00">Element</text>
</g>
<!-- Node2 -->
<g id="node2" class="node"><title>Node2</title>
<g id="a_node2"><a xlink:href="classfwRuntime_1_1EConfigurationElement.html#aea341aa32ecdd08fb8841248388725b3" target="_top" xlink:title="Create and add a configuration element. ">
<polygon fill="white" stroke="black" points="219,-78 219,-108 387,-108 387,-78 219,-78"/>
<text text-anchor="start" x="227" y="-96" font-family="Helvetica,sans-Serif" font-size="10.00">fwRuntime::EConfiguration</text>
<text text-anchor="middle" x="303" y="-85" font-family="Helvetica,sans-Serif" font-size="10.00">Element::addConfigurationElement</text>
</a>
</g>
</g>
<!-- Node1&#45;&gt;Node2 -->
<g id="edge1" class="edge"><title>Node1&#45;&gt;Node2</title>
<path fill="none" stroke="midnightblue" d="M184.214,-78.1391C195.768,-79.5969 207.492,-81.0761 218.839,-82.5077"/>
<polygon fill="midnightblue" stroke="midnightblue" points="184.476,-74.6446 174.117,-76.8652 183.6,-81.5895 184.476,-74.6446"/>
</g>
<!-- Node3 -->
<g id="node3" class="node"><title>Node3</title>
<g id="a_node3"><a xlink:href="structfwRuntime_1_1ConfigurationElementContainer.html#adbbd96d865cf90e709469d4add175be4" target="_top" xlink:title="Retrieves the configurations corresponding to the specified name. ">
<polygon fill="white" stroke="black" points="210.5,-18.5 210.5,-59.5 395.5,-59.5 395.5,-18.5 210.5,-18.5"/>
<text text-anchor="start" x="218.5" y="-47.5" font-family="Helvetica,sans-Serif" font-size="10.00">fwRuntime::Configuration</text>
<text text-anchor="start" x="218.5" y="-36.5" font-family="Helvetica,sans-Serif" font-size="10.00">ElementContainer::findAllConfiguration</text>
<text text-anchor="middle" x="303" y="-25.5" font-family="Helvetica,sans-Serif" font-size="10.00">Element</text>
</a>
</g>
</g>
<!-- Node1&#45;&gt;Node3 -->
<g id="edge2" class="edge"><title>Node1&#45;&gt;Node3</title>
<path fill="none" stroke="midnightblue" d="M184.282,-53.8522C192.991,-52.7534 201.796,-51.6426 210.462,-50.5492"/>
<polygon fill="midnightblue" stroke="midnightblue" points="183.6,-50.4105 174.117,-55.1348 184.476,-57.3554 183.6,-50.4105"/>
</g>
<!-- Node4 -->
<g id="node4" class="node"><title>Node4</title>
<g id="a_node4"><a xlink:href="classioDcmtk_1_1SSeriesDBReader.html#a8289305134090a50e20c3a0645bf9061" target="_top" xlink:title="ioDcmtk::SSeriesDBReader\l::configuring">
<polygon fill="white" stroke="black" points="432,-49 432,-79 572,-79 572,-49 432,-49"/>
<text text-anchor="start" x="440" y="-67" font-family="Helvetica,sans-Serif" font-size="10.00">ioDcmtk::SSeriesDBReader</text>
<text text-anchor="middle" x="502" y="-56" font-family="Helvetica,sans-Serif" font-size="10.00">::configuring</text>
</a>
</g>
</g>
<!-- Node3&#45;&gt;Node4 -->
<g id="edge3" class="edge"><title>Node3&#45;&gt;Node4</title>
<path fill="none" stroke="midnightblue" d="M405.569,-51.8895C414.418,-53.0125 423.234,-54.1313 431.731,-55.2096"/>
<polygon fill="midnightblue" stroke="midnightblue" points="405.94,-48.4086 395.579,-50.6217 405.059,-55.3529 405.94,-48.4086"/>
</g>
<!-- Node5 -->
<g id="node5" class="node"><title>Node5</title>
<g id="a_node5"><a xlink:href="classgui_1_1action_1_1SSlotCaller.html#afc5ab013ca87a65ec8b22d27bf1cc453" target="_top" xlink:title="This method is used to configure the service parameters: specifies which slots must be called...">
<polygon fill="white" stroke="black" points="443.5,-0 443.5,-30 560.5,-30 560.5,-0 443.5,-0"/>
<text text-anchor="start" x="451.5" y="-18" font-family="Helvetica,sans-Serif" font-size="10.00">gui::action::SSlotCaller</text>
<text text-anchor="middle" x="502" y="-7" font-family="Helvetica,sans-Serif" font-size="10.00">::configuring</text>
</a>
</g>
</g>
<!-- Node3&#45;&gt;Node5 -->
<g id="edge4" class="edge"><title>Node3&#45;&gt;Node5</title>
<path fill="none" stroke="midnightblue" d="M405.515,-26.6327C418.509,-25.0496 431.434,-23.4751 443.382,-22.0194"/>
<polygon fill="midnightblue" stroke="midnightblue" points="405.083,-23.1594 395.579,-27.8431 405.929,-30.108 405.083,-23.1594"/>
</g>
</g>
</svg>
