<?xml version="1.0" encoding="UTF-8" standalone="no"?>
<!DOCTYPE svg PUBLIC "-//W3C//DTD SVG 1.1//EN"
 "http://www.w3.org/Graphics/SVG/1.1/DTD/svg11.dtd">
<!-- Generated by graphviz version 2.26.3 (20100126.1600)
 -->
<!-- Title: fwCom::util::WeakCall&lt; T, R &gt; Pages: 1 -->
<svg width="321pt" height="348pt"
 viewBox="0.00 0.00 321.00 348.00" xmlns="http://www.w3.org/2000/svg" xmlns:xlink="http://www.w3.org/1999/xlink">
<g id="graph1" class="graph" transform="scale(1 1) rotate(0) translate(4 344)">
<title>fwCom::util::WeakCall&lt; T, R &gt;</title>
<polygon fill="white" stroke="white" points="-4,5 -4,-344 318,-344 318,5 -4,5"/>
<!-- Node1 -->
<g id="node1" class="node"><title>Node1</title>
<polygon fill="#bfbfbf" stroke="black" points="118,-1 118,-35 234,-35 234,-1 118,-1"/>
<text text-anchor="start" x="126" y="-22" font-family="Helvetica,sans-Serif" font-size="10.00">fwCom::util::WeakCall</text>
<text text-anchor="middle" x="176" y="-9" font-family="Helvetica,sans-Serif" font-size="10.00">&lt; T, R &gt;</text>
</g>
<!-- Node2 -->
<g id="node2" class="node"><title>Node2</title>
<polygon fill="white" stroke="#bfbfbf" points="28.5,-87 28.5,-121 159.5,-121 159.5,-87 28.5,-87"/>
<text text-anchor="start" x="36.5" y="-108" font-family="Helvetica,sans-Serif" font-size="10.00">std::weak_ptr&lt; ::fwThread</text>
<text text-anchor="middle" x="94" y="-95" font-family="Helvetica,sans-Serif" font-size="10.00">::Worker &gt;</text>
</g>
<!-- Node2&#45;&gt;Node1 -->
<g id="edge2" class="edge"><title>Node2&#45;&gt;Node1</title>
<path fill="none" stroke="#9a32cd" stroke-dasharray="5,2" d="M117.716,-79.1272C131.186,-64.9998 147.703,-47.6769 159.711,-35.084"/>
<polygon fill="#9a32cd" stroke="#9a32cd" points="114.962,-76.9439 110.594,-86.5966 120.028,-81.7745 114.962,-76.9439"/>
<text text-anchor="middle" x="163" y="-58.5" font-family="Helvetica,sans-Serif" font-size="10.00"> m_worker</text>
</g>
<!-- Node3 -->
<g id="node4" class="node"><title>Node3</title>
<a xlink:href="classfwThread_1_1Worker.html" target="_top" xlink:title="This class creates and manages a task loop. The default implementation create a loop in a new thread...">
<polygon fill="white" stroke="black" points="17.5,-172.5 17.5,-193.5 112.5,-193.5 112.5,-172.5 17.5,-172.5"/>
<text text-anchor="middle" x="65" y="-180.5" font-family="Helvetica,sans-Serif" font-size="10.00">fwThread::Worker</text>
</a>
</g>
<!-- Node3&#45;&gt;Node2 -->
<g id="edge4" class="edge"><title>Node3&#45;&gt;Node2</title>
<path fill="none" stroke="#9a32cd" stroke-dasharray="5,2" d="M62.8696,-162.309C62.7995,-155.071 63.5044,-147.007 66,-140 68.3909,-133.287 72.5614,-126.845 76.9647,-121.312"/>
<polygon fill="#9a32cd" stroke="#9a32cd" points="59.3819,-162.629 63.4394,-172.416 66.3708,-162.234 59.3819,-162.629"/>
<text text-anchor="middle" x="73.5" y="-144.5" font-family="Helvetica,sans-Serif" font-size="10.00"> ptr</text>
</g>
<!-- Node4 -->
<g id="node6" class="node"><title>Node4</title>
<a xlink:href="classfwCore_1_1BaseObject.html" target="_top" xlink:title="Base class for all FW4SPL&#39;s classes. ">
<polygon fill="white" stroke="black" points="12.5,-244.5 12.5,-265.5 117.5,-265.5 117.5,-244.5 12.5,-244.5"/>
<text text-anchor="middle" x="65" y="-252.5" font-family="Helvetica,sans-Serif" font-size="10.00">fwCore::BaseObject</text>
</a>
</g>
<!-- Node4&#45;&gt;Node3 -->
<g id="edge6" class="edge"><title>Node4&#45;&gt;Node3</title>
<path fill="none" stroke="midnightblue" d="M65,-234.235C65,-220.969 65,-204.319 65,-193.667"/>
<polygon fill="midnightblue" stroke="midnightblue" points="61.5001,-234.376 65,-244.376 68.5001,-234.376 61.5001,-234.376"/>
</g>
<!-- Node5 -->
<g id="node8" class="node"><title>Node5</title>
<polygon fill="white" stroke="#bfbfbf" points="-0.5,-305 -0.5,-339 130.5,-339 130.5,-305 -0.5,-305"/>
<text text-anchor="start" x="7.5" y="-326" font-family="Helvetica,sans-Serif" font-size="10.00">std::enable_shared</text>
<text text-anchor="middle" x="65" y="-313" font-family="Helvetica,sans-Serif" font-size="10.00">_from_this&lt; BaseObject &gt;</text>
</g>
<!-- Node5&#45;&gt;Node4 -->
<g id="edge8" class="edge"><title>Node5&#45;&gt;Node4</title>
<path fill="none" stroke="midnightblue" d="M65,-294.534C65,-284.306 65,-273.301 65,-265.506"/>
<polygon fill="midnightblue" stroke="midnightblue" points="61.5001,-294.746 65,-304.746 68.5001,-294.746 61.5001,-294.746"/>
</g>
<!-- Node6 -->
<g id="node10" class="node"><title>Node6</title>
<a xlink:title="STL class. ">
<polygon fill="white" stroke="#bfbfbf" points="169,-172.5 169,-193.5 269,-193.5 269,-172.5 169,-172.5"/>
<text text-anchor="middle" x="219" y="-180.5" font-family="Helvetica,sans-Serif" font-size="10.00">std::weak_ptr&lt; T &gt;</text>
</a>
</g>
<!-- Node6&#45;&gt;Node2 -->
<g id="edge10" class="edge"><title>Node6&#45;&gt;Node2</title>
<path fill="none" stroke="orange" stroke-dasharray="5,2" d="M159.101,-170.432C140.947,-165.678 123.963,-159.965 117,-154 107.131,-145.546 101.257,-131.963 97.918,-121.087"/>
<polygon fill="orange" stroke="orange" points="158.401,-173.865 168.951,-172.899 160.101,-167.074 158.401,-173.865"/>
<text text-anchor="middle" x="170" y="-144.5" font-family="Helvetica,sans-Serif" font-size="10.00"> &lt; ::fwThread::Worker &gt;</text>
</g>
<!-- Node8 -->
<g id="node14" class="node"><title>Node8</title>
<polygon fill="white" stroke="#bfbfbf" points="176.5,-93.5 176.5,-114.5 303.5,-114.5 303.5,-93.5 176.5,-93.5"/>
<text text-anchor="middle" x="240" y="-101.5" font-family="Helvetica,sans-Serif" font-size="10.00">std::weak_ptr&lt; T const &gt;</text>
</g>
<!-- Node6&#45;&gt;Node8 -->
<g id="edge18" class="edge"><title>Node6&#45;&gt;Node8</title>
<path fill="none" stroke="orange" stroke-dasharray="5,2" d="M224.507,-162.284C228.561,-147.031 233.911,-126.907 237.146,-114.738"/>
<polygon fill="orange" stroke="orange" points="221.019,-161.782 221.832,-172.346 227.784,-163.581 221.019,-161.782"/>
<text text-anchor="middle" x="259" y="-144.5" font-family="Helvetica,sans-Serif" font-size="10.00"> &lt; T const &#160;&gt;</text>
</g>
<!-- Node7 -->
<g id="node12" class="node"><title>Node7</title>
<polygon fill="white" stroke="#bfbfbf" points="261.5,-244.5 261.5,-265.5 290.5,-265.5 290.5,-244.5 261.5,-244.5"/>
<text text-anchor="middle" x="276" y="-252.5" font-family="Helvetica,sans-Serif" font-size="10.00">T</text>
</g>
<!-- Node7&#45;&gt;Node6 -->
<g id="edge12" class="edge"><title>Node7&#45;&gt;Node6</title>
<path fill="none" stroke="#9a32cd" stroke-dasharray="5,2" d="M261.115,-236.198C250.389,-222.649 236.299,-204.851 227.445,-193.667"/>
<polygon fill="#9a32cd" stroke="#9a32cd" points="258.638,-238.708 267.589,-244.376 264.127,-234.363 258.638,-238.708"/>
<text text-anchor="middle" x="259.5" y="-216.5" font-family="Helvetica,sans-Serif" font-size="10.00"> ptr</text>
</g>
<!-- Node7&#45;&gt;Node8 -->
<g id="edge16" class="edge"><title>Node7&#45;&gt;Node8</title>
<path fill="none" stroke="#9a32cd" stroke-dasharray="5,2" d="M285.296,-235.017C294.984,-211.066 306.735,-170.367 291,-140 285.216,-128.838 274.202,-120.4 263.886,-114.509"/>
<polygon fill="#9a32cd" stroke="#9a32cd" points="281.969,-233.892 281.226,-244.461 288.398,-236.663 281.969,-233.892"/>
<text text-anchor="middle" x="305.5" y="-180.5" font-family="Helvetica,sans-Serif" font-size="10.00"> ptr</text>
</g>
<!-- Node8&#45;&gt;Node1 -->
<g id="edge14" class="edge"><title>Node8&#45;&gt;Node1</title>
<path fill="none" stroke="#9a32cd" stroke-dasharray="5,2" d="M225.875,-85.0192C214.792,-70.1274 199.499,-49.5768 188.778,-35.1709"/>
<polygon fill="#9a32cd" stroke="#9a32cd" points="223.374,-87.5219 232.152,-93.4547 228.99,-83.3428 223.374,-87.5219"/>
<text text-anchor="middle" x="237.5" y="-58.5" font-family="Helvetica,sans-Serif" font-size="10.00"> m_weakPtr</text>
</g>
</g>
</svg>
