<?xml version="1.0" encoding="UTF-8" standalone="no"?>
<!DOCTYPE svg PUBLIC "-//W3C//DTD SVG 1.1//EN"
 "http://www.w3.org/Graphics/SVG/1.1/DTD/svg11.dtd">
<!-- Generated by graphviz version 2.36.0 (20140111.2315)
 -->
<!-- Title: fwRuntime::ConfigurationElement::hasAttribute Pages: 1 -->
<svg width="660pt" height="87pt"
 viewBox="0.00 0.00 660.00 87.00" xmlns="http://www.w3.org/2000/svg" xmlns:xlink="http://www.w3.org/1999/xlink">
<g id="graph0" class="graph" transform="scale(1 1) rotate(0) translate(4 83)">
<title>fwRuntime::ConfigurationElement::hasAttribute</title>
<polygon fill="white" stroke="none" points="-4,4 -4,-83 656,-83 656,4 -4,4"/>
<!-- Node1 -->
<g id="node1" class="node"><title>Node1</title>
<polygon fill="#bfbfbf" stroke="black" points="0,-24 0,-54 128,-54 128,-24 0,-24"/>
<text text-anchor="start" x="8" y="-42" font-family="Helvetica,sans-Serif" font-size="10.00">fwRuntime::Configuration</text>
<text text-anchor="middle" x="64" y="-31" font-family="Helvetica,sans-Serif" font-size="10.00">Element::hasAttribute</text>
</g>
<!-- Node2 -->
<g id="node2" class="node"><title>Node2</title>
<g id="a_node2"><a xlink:href="classfwServices_1_1helper_1_1Config.html#a69b941e2a568b8072896c3070ce3a5d9" target="_top" xlink:title="Parses &quot;&lt;proxy&gt;&quot; tags from given configuration to connect signals and slots using proxies...">
<polygon fill="white" stroke="black" points="173,-49 173,-79 283,-79 283,-49 173,-49"/>
<text text-anchor="start" x="181" y="-67" font-family="Helvetica,sans-Serif" font-size="10.00">fwServices::helper</text>
<text text-anchor="middle" x="228" y="-56" font-family="Helvetica,sans-Serif" font-size="10.00">::Config::createProxy</text>
</a>
</g>
</g>
<!-- Node1&#45;&gt;Node2 -->
<g id="edge1" class="edge"><title>Node1&#45;&gt;Node2</title>
<path fill="none" stroke="midnightblue" d="M138.225,-50.3002C149.841,-52.0927 161.671,-53.9184 172.75,-55.6281"/>
<polygon fill="midnightblue" stroke="midnightblue" points="138.514,-46.8034 128.097,-48.7372 137.446,-53.7215 138.514,-46.8034"/>
</g>
<!-- Node4 -->
<g id="node4" class="node"><title>Node4</title>
<g id="a_node4"><a xlink:href="structfwRuntime_1_1ConfigurationElement.html#ac0c44f491a3abe2c242b21a860feeaac" target="_top" xlink:title="Find recursively all the corresponding configuration elements. ">
<polygon fill="white" stroke="black" points="164,-0 164,-30 292,-30 292,-0 164,-0"/>
<text text-anchor="start" x="172" y="-18" font-family="Helvetica,sans-Serif" font-size="10.00">fwRuntime::Configuration</text>
<text text-anchor="middle" x="228" y="-7" font-family="Helvetica,sans-Serif" font-size="10.00">Element::find</text>
</a>
</g>
</g>
<!-- Node1&#45;&gt;Node4 -->
<g id="edge3" class="edge"><title>Node1&#45;&gt;Node4</title>
<path fill="none" stroke="midnightblue" d="M138.094,-28.1713C146.676,-26.8999 155.378,-25.6107 163.808,-24.3617"/>
<polygon fill="midnightblue" stroke="midnightblue" points="137.476,-24.7245 128.097,-29.6523 138.502,-31.6489 137.476,-24.7245"/>
</g>
<!-- Node3 -->
<g id="node3" class="node"><title>Node3</title>
<g id="a_node3"><a xlink:href="classctrlSelection_1_1IManagerSrv.html#a2781e12bad21503672958e3e4c59f0c6" target="_top" xlink:title="Manages all proxies connections define in config associated to object Call manageProxy() ...">
<polygon fill="white" stroke="black" points="328,-49 328,-79 460,-79 460,-49 328,-49"/>
<text text-anchor="start" x="336" y="-67" font-family="Helvetica,sans-Serif" font-size="10.00">ctrlSelection::IManagerSrv</text>
<text text-anchor="middle" x="394" y="-56" font-family="Helvetica,sans-Serif" font-size="10.00">::manageProxies</text>
</a>
</g>
</g>
<!-- Node2&#45;&gt;Node3 -->
<g id="edge2" class="edge"><title>Node2&#45;&gt;Node3</title>
<path fill="none" stroke="midnightblue" d="M293.376,-64C304.678,-64 316.448,-64 327.773,-64"/>
<polygon fill="midnightblue" stroke="midnightblue" points="293.154,-60.5001 283.154,-64 293.154,-67.5001 293.154,-60.5001"/>
</g>
<!-- Node5 -->
<g id="node5" class="node"><title>Node5</title>
<g id="a_node5"><a xlink:href="classfwServices_1_1helper_1_1Config.html#a0ca6ee6e1d2bcb5505ca52dffd0a79ab" target="_top" xlink:title="Parse a service and return a service configuration. ">
<polygon fill="white" stroke="black" points="337,-0 337,-30 451,-30 451,-0 337,-0"/>
<text text-anchor="start" x="345" y="-18" font-family="Helvetica,sans-Serif" font-size="10.00">fwServices::helper</text>
<text text-anchor="middle" x="394" y="-7" font-family="Helvetica,sans-Serif" font-size="10.00">::Config::parseService</text>
</a>
</g>
</g>
<!-- Node4&#45;&gt;Node5 -->
<g id="edge4" class="edge"><title>Node4&#45;&gt;Node5</title>
<path fill="none" stroke="midnightblue" d="M302.499,-15C314.076,-15 325.883,-15 336.981,-15"/>
<polygon fill="midnightblue" stroke="midnightblue" points="302.407,-11.5001 292.407,-15 302.407,-18.5001 302.407,-11.5001"/>
</g>
<!-- Node6 -->
<g id="node6" class="node"><title>Node6</title>
<g id="a_node6"><a xlink:href="classfwServices_1_1AppConfigManager.html#af59d511268a4242b650f890bf5ff04bd" target="_top" xlink:title="Get config root. ">
<polygon fill="white" stroke="black" points="496.5,-0 496.5,-30 651.5,-30 651.5,-0 496.5,-0"/>
<text text-anchor="start" x="504.5" y="-18" font-family="Helvetica,sans-Serif" font-size="10.00">fwServices::AppConfigManager</text>
<text text-anchor="middle" x="574" y="-7" font-family="Helvetica,sans-Serif" font-size="10.00">::getConfigRoot</text>
</a>
</g>
</g>
<!-- Node5&#45;&gt;Node6 -->
<g id="edge5" class="edge"><title>Node5&#45;&gt;Node6</title>
<path fill="none" stroke="midnightblue" d="M461.538,-15C472.847,-15 484.673,-15 496.22,-15"/>
<polygon fill="midnightblue" stroke="midnightblue" points="461.32,-11.5001 451.32,-15 461.32,-18.5001 461.32,-11.5001"/>
</g>
</g>
</svg>
