<?xml version="1.0" encoding="UTF-8" standalone="no"?>
<!DOCTYPE svg PUBLIC "-//W3C//DTD SVG 1.1//EN"
 "http://www.w3.org/Graphics/SVG/1.1/DTD/svg11.dtd">
<!-- Generated by graphviz version 2.26.3 (20100126.1600)
 -->
<!-- Title: unz_file_info64_s Pages: 1 -->
<svg width="171pt" height="114pt"
 viewBox="0.00 0.00 171.00 114.00" xmlns="http://www.w3.org/2000/svg" xmlns:xlink="http://www.w3.org/1999/xlink">
<g id="graph1" class="graph" transform="scale(1 1) rotate(0) translate(4 110)">
<title>unz_file_info64_s</title>
<polygon fill="white" stroke="white" points="-4,5 -4,-110 168,-110 168,5 -4,5"/>
<!-- Node1 -->
<g id="node1" class="node"><title>Node1</title>
<polygon fill="#bfbfbf" stroke="black" points="7,-0.5 7,-21.5 99,-21.5 99,-0.5 7,-0.5"/>
<text text-anchor="middle" x="53" y="-8.5" font-family="Helvetica,sans-Serif" font-size="10.00">unz_file_info64_s</text>
</g>
<!-- Node2 -->
<g id="node2" class="node"><title>Node2</title>
<polygon fill="white" stroke="#bfbfbf" points="-0.5,-84.5 -0.5,-105.5 40.5,-105.5 40.5,-84.5 -0.5,-84.5"/>
<text text-anchor="middle" x="20" y="-92.5" font-family="Helvetica,sans-Serif" font-size="10.00">struct</text>
</g>
<!-- Node2&#45;&gt;Node1 -->
<g id="edge2" class="edge"><title>Node2&#45;&gt;Node1</title>
<path fill="none" stroke="#9a32cd" stroke-dasharray="5,2" d="M16.5687,-74.2134C15.7307,-63.5367 16.1926,-50.5837 21,-40 24.2867,-32.7641 30.3379,-26.5485 36.3008,-21.7487"/>
<polygon fill="#9a32cd" stroke="#9a32cd" points="13.1152,-74.8106 17.785,-84.3208 20.0651,-73.9742 13.1152,-74.8106"/>
<text text-anchor="middle" x="43" y="-50.5" font-family="Helvetica,sans-Serif" font-size="10.00"> tmu_date</text>
</g>
<!-- Node3 -->
<g id="node4" class="node"><title>Node3</title>
<polygon fill="white" stroke="#bfbfbf" points="69.5,-84.5 69.5,-105.5 104.5,-105.5 104.5,-84.5 69.5,-84.5"/>
<text text-anchor="middle" x="87" y="-92.5" font-family="Helvetica,sans-Serif" font-size="10.00">long</text>
</g>
<!-- Node3&#45;&gt;Node1 -->
<g id="edge4" class="edge"><title>Node3&#45;&gt;Node1</title>
<path fill="none" stroke="#9a32cd" stroke-dasharray="5,2" d="M79.0625,-74.9915C74.9039,-64.5506 69.7092,-51.5739 65,-40 62.5358,-33.9436 59.7451,-27.1931 57.4754,-21.7298"/>
<polygon fill="#9a32cd" stroke="#9a32cd" points="75.8726,-76.4417 82.8194,-84.4412 82.3774,-73.8556 75.8726,-76.4417"/>
<text text-anchor="middle" x="119" y="-57" font-family="Helvetica,sans-Serif" font-size="10.00"> compressed_size</text>
<text text-anchor="middle" x="119" y="-44" font-family="Helvetica,sans-Serif" font-size="10.00">uncompressed_size</text>
</g>
</g>
</svg>
