<?xml version="1.0" encoding="UTF-8" standalone="no"?>
<!DOCTYPE svg PUBLIC "-//W3C//DTD SVG 1.1//EN"
 "http://www.w3.org/Graphics/SVG/1.1/DTD/svg11.dtd">
<!-- Generated by graphviz version 2.36.0 (20140111.2315)
 -->
<!-- Title: fwRuntime::io::BundleDescriptorReader::createBundles Pages: 1 -->
<!--zoomable 175 -->
<svg id="main" version="1.1" xmlns="http://www.w3.org/2000/svg" xmlns:xlink="http://www.w3.org/1999/xlink" xml:space="preserve" onload="init(evt)">
<style type="text/css"><![CDATA[
.edge:hover path { stroke: red; }
.edge:hover polygon { stroke: red; fill: red; }
]]></style>
<script type="text/javascript"><![CDATA[
var edges = document.getElementsByTagName('g');
if (edges && edges.length) {
  for (var i=0;i<edges.length;i++) {
    if (edges[i].id.substr(0,4)=='edge') {
      edges[i].setAttribute('class','edge');
    }
  }
}
]]></script>
        <defs>
                <circle id="rim" cx="0" cy="0" r="7"/>
                <circle id="rim2" cx="0" cy="0" r="3.5"/>
                <g id="zoomPlus">
                        <use xlink:href="#rim" fill="#404040">
                                <set attributeName="fill" to="#808080" begin="zoomplus.mouseover" end="zoomplus.mouseout"/>
                        </use>
                        <path d="M-4,0h8M0,-4v8" fill="none" stroke="white" stroke-width="1.5" pointer-events="none"/>
                </g>
                <g id="zoomMin">
                        <use xlink:href="#rim" fill="#404040">
                                <set attributeName="fill" to="#808080" begin="zoomminus.mouseover" end="zoomminus.mouseout"/>
                        </use>
                        <path d="M-4,0h8" fill="none" stroke="white" stroke-width="1.5" pointer-events="none"/>
                </g>
                <g id="dirArrow">
                        <path fill="none" stroke="white" stroke-width="1.5" d="M0,-3.0v7 M-2.5,-0.5L0,-3.0L2.5,-0.5"/>
                </g>
               <g id="resetDef">
                       <use xlink:href="#rim2" fill="#404040">
                               <set attributeName="fill" to="#808080" begin="reset.mouseover" end="reset.mouseout"/>
                       </use>
               </g>
        </defs>

<script type="text/javascript">
var viewWidth = 676;
var viewHeight = 175;
var sectionId = 'dynsection-2';
</script>
<script xlink:href="svgpan.js"/>
<svg id="graph" class="graph">
<g id="viewport">
<title>fwRuntime::io::BundleDescriptorReader::createBundles</title>
<polygon fill="white" stroke="none" points="-4,4 -4,-171 672,-171 672,4 -4,4"/>
<!-- Node1 -->
<g id="node1" class="node"><title>Node1</title>
<polygon fill="#bfbfbf" stroke="black" points="0,-71 0,-101 158,-101 158,-71 0,-71"/>
<text text-anchor="start" x="8" y="-89" font-family="Helvetica,sans-Serif" font-size="10.00">fwRuntime::io::BundleDescriptor</text>
<text text-anchor="middle" x="79" y="-78" font-family="Helvetica,sans-Serif" font-size="10.00">Reader::createBundles</text>
</g>
<!-- Node2 -->
<g id="node2" class="node"><title>Node2</title>
<g id="a_node2"><a xlink:href="structfwRuntime_1_1io_1_1BundleDescriptorReader.html#adf8040cb8edd99814fd17924a27fe749" target="_top" xlink:title="Look for a descriptor at the specified location, reads it and creates a bundle with it...">
<polygon fill="white" stroke="black" points="194,-71 194,-101 352,-101 352,-71 194,-71"/>
<text text-anchor="start" x="202" y="-89" font-family="Helvetica,sans-Serif" font-size="10.00">fwRuntime::io::BundleDescriptor</text>
<text text-anchor="middle" x="273" y="-78" font-family="Helvetica,sans-Serif" font-size="10.00">Reader::createBundle</text>
</a>
</g>
</g>
<!-- Node1&#45;&gt;Node2 -->
<g id="edge1" class="edge"><title>Node1&#45;&gt;Node2</title>
<path fill="none" stroke="midnightblue" d="M158.094,-86C166.601,-86 175.302,-86 183.918,-86"/>
<polygon fill="midnightblue" stroke="midnightblue" points="183.975,-89.5001 193.975,-86 183.975,-82.5001 183.975,-89.5001"/>
</g>
<!-- Node3 -->
<g id="node3" class="node"><title>Node3</title>
<g id="a_node3"><a xlink:href="structfwRuntime_1_1Runtime.html#acf43340892d940d12b36db78376fe08f" target="_top" xlink:title="Retrieves the default runtime instance. ">
<polygon fill="white" stroke="black" points="395.5,-137 395.5,-167 502.5,-167 502.5,-137 395.5,-137"/>
<text text-anchor="start" x="403.5" y="-155" font-family="Helvetica,sans-Serif" font-size="10.00">fwRuntime::Runtime</text>
<text text-anchor="middle" x="449" y="-144" font-family="Helvetica,sans-Serif" font-size="10.00">::getDefault</text>
</a>
</g>
</g>
<!-- Node2&#45;&gt;Node3 -->
<g id="edge2" class="edge"><title>Node2&#45;&gt;Node3</title>
<path fill="none" stroke="midnightblue" d="M313.919,-101.142C339.118,-110.7 371.859,-123.119 398.679,-133.292"/>
<polygon fill="midnightblue" stroke="midnightblue" points="397.675,-136.655 408.267,-136.929 400.158,-130.11 397.675,-136.655"/>
</g>
<!-- Node4 -->
<g id="node4" class="node"><title>Node4</title>
<g id="a_node4"><a xlink:href="structfwRuntime_1_1io_1_1Validator.html#a04bcd4f8582df72c082c98cd2c9897fd" target="_top" xlink:title="Retrieves the error log content. ">
<polygon fill="white" stroke="black" points="546,-71 546,-101 668,-101 668,-71 546,-71"/>
<text text-anchor="start" x="554" y="-89" font-family="Helvetica,sans-Serif" font-size="10.00">fwRuntime::io::Validator</text>
<text text-anchor="middle" x="607" y="-78" font-family="Helvetica,sans-Serif" font-size="10.00">::getErrorLog</text>
</a>
</g>
</g>
<!-- Node2&#45;&gt;Node4 -->
<g id="edge3" class="edge"><title>Node2&#45;&gt;Node4</title>
<path fill="none" stroke="midnightblue" d="M352.186,-87.5531C364.18,-87.7388 376.421,-87.8984 388,-88 442.22,-88.4756 455.781,-88.5647 510,-88 518.327,-87.9133 527.059,-87.7842 535.722,-87.6327"/>
<polygon fill="midnightblue" stroke="midnightblue" points="535.897,-91.1302 545.831,-87.4457 535.768,-84.1314 535.897,-91.1302"/>
</g>
<!-- Node5 -->
<g id="node5" class="node"><title>Node5</title>
<g id="a_node5"><a xlink:href="structfwRuntime_1_1Runtime.html#a2e25b8f46a027545165c4af7d6e0f356" target="_top" xlink:title="Get the path where Bundles and share folder are located. ">
<polygon fill="white" stroke="black" points="395.5,-49 395.5,-79 502.5,-79 502.5,-49 395.5,-49"/>
<text text-anchor="start" x="403.5" y="-67" font-family="Helvetica,sans-Serif" font-size="10.00">fwRuntime::Runtime</text>
<text text-anchor="middle" x="449" y="-56" font-family="Helvetica,sans-Serif" font-size="10.00">::getWorkingPath</text>
</a>
</g>
</g>
<!-- Node2&#45;&gt;Node5 -->
<g id="edge4" class="edge"><title>Node2&#45;&gt;Node5</title>
<path fill="none" stroke="midnightblue" d="M352.093,-76.1262C363.184,-74.7238 374.471,-73.2968 385.221,-71.9376"/>
<polygon fill="midnightblue" stroke="midnightblue" points="385.858,-75.385 395.34,-70.6582 384.98,-68.4403 385.858,-75.385"/>
</g>
<!-- Node6 -->
<g id="node6" class="node"><title>Node6</title>
<g id="a_node6"><a xlink:href="structfwRuntime_1_1io_1_1Validator.html#ac08cd63967b5c42493fa68d17c094eee" target="_top" xlink:title="Validates the given file. ">
<polygon fill="white" stroke="black" points="388,-0 388,-30 510,-30 510,-0 388,-0"/>
<text text-anchor="start" x="396" y="-18" font-family="Helvetica,sans-Serif" font-size="10.00">fwRuntime::io::Validator</text>
<text text-anchor="middle" x="449" y="-7" font-family="Helvetica,sans-Serif" font-size="10.00">::validate</text>
</a>
</g>
</g>
<!-- Node2&#45;&gt;Node6 -->
<g id="edge5" class="edge"><title>Node2&#45;&gt;Node6</title>
<path fill="none" stroke="midnightblue" d="M310.156,-70.9796C332.551,-61.7044 361.918,-49.5927 388,-39 392.146,-37.316 396.458,-35.5741 400.781,-33.8332"/>
<polygon fill="midnightblue" stroke="midnightblue" points="402.233,-37.0219 410.208,-30.0465 399.624,-30.5263 402.233,-37.0219"/>
</g>
<!-- Node6&#45;&gt;Node4 -->
<g id="edge7" class="edge"><title>Node6&#45;&gt;Node4</title>
<path fill="none" stroke="midnightblue" d="M488.909,-30.071C495.967,-32.9442 503.233,-35.9949 510,-39 529.032,-47.4513 549.826,-57.5245 567.179,-66.1737"/>
<polygon fill="midnightblue" stroke="midnightblue" points="565.925,-69.4601 576.433,-70.8131 569.062,-63.2025 565.925,-69.4601"/>
</g>
<!-- Node7 -->
<g id="node7" class="node"><title>Node7</title>
<g id="a_node7"><a xlink:href="structfwRuntime_1_1io_1_1Validator.html#a4b807cf66f04d219463a80e5c52b9194" target="_top" xlink:title="Returns the xsd content in string format. ">
<polygon fill="white" stroke="black" points="546,-0 546,-30 668,-30 668,-0 546,-0"/>
<text text-anchor="start" x="554" y="-18" font-family="Helvetica,sans-Serif" font-size="10.00">fwRuntime::io::Validator</text>
<text text-anchor="middle" x="607" y="-7" font-family="Helvetica,sans-Serif" font-size="10.00">::getXsdContent</text>
</a>
</g>
</g>
<!-- Node6&#45;&gt;Node7 -->
<g id="edge6" class="edge"><title>Node6&#45;&gt;Node7</title>
<path fill="none" stroke="midnightblue" d="M510.314,-15C518.604,-15 527.175,-15 535.626,-15"/>
<polygon fill="midnightblue" stroke="midnightblue" points="535.847,-18.5001 545.847,-15 535.847,-11.5001 535.847,-18.5001"/>
</g>
</g>
</svg>
        <g id="navigator" transform="translate(0 0)" fill="#404254">
                <rect fill="#f2f5e9" fill-opacity="0.5" stroke="#606060" stroke-width=".5" x="0" y="0" width="60" height="60"/>
                <use id="zoomplus" xlink:href="#zoomPlus" x="17" y="9" onmousedown="handleZoom(evt,'in')"/>
                <use id="zoomminus" xlink:href="#zoomMin" x="42" y="9" onmousedown="handleZoom(evt,'out')"/>
                <use id="reset" xlink:href="#resetDef" x="30" y="36" onmousedown="handleReset()"/>
                <g id="arrowUp" xlink:href="#dirArrow" transform="translate(30 24)" onmousedown="handlePan(0,-1)">
                  <use xlink:href="#rim" fill="#404040">
                        <set attributeName="fill" to="#808080" begin="arrowUp.mouseover" end="arrowUp.mouseout"/>
                  </use>
                  <path fill="none" stroke="white" stroke-width="1.5" d="M0,-3.0v7 M-2.5,-0.5L0,-3.0L2.5,-0.5"/>
                </g>
                <g id="arrowRight" xlink:href="#dirArrow" transform="rotate(90) translate(36 -43)" onmousedown="handlePan(1,0)">
                  <use xlink:href="#rim" fill="#404040">
                        <set attributeName="fill" to="#808080" begin="arrowRight.mouseover" end="arrowRight.mouseout"/>
                  </use>
                  <path fill="none" stroke="white" stroke-width="1.5" d="M0,-3.0v7 M-2.5,-0.5L0,-3.0L2.5,-0.5"/>
                </g>
                <g id="arrowDown" xlink:href="#dirArrow" transform="rotate(180) translate(-30 -48)" onmousedown="handlePan(0,1)">
                  <use xlink:href="#rim" fill="#404040">
                        <set attributeName="fill" to="#808080" begin="arrowDown.mouseover" end="arrowDown.mouseout"/>
                  </use>
                  <path fill="none" stroke="white" stroke-width="1.5" d="M0,-3.0v7 M-2.5,-0.5L0,-3.0L2.5,-0.5"/>
                </g>
                <g id="arrowLeft" xlink:href="#dirArrow" transform="rotate(270) translate(-36 17)" onmousedown="handlePan(-1,0)">
                  <use xlink:href="#rim" fill="#404040">
                        <set attributeName="fill" to="#808080" begin="arrowLeft.mouseover" end="arrowLeft.mouseout"/>
                  </use>
                  <path fill="none" stroke="white" stroke-width="1.5" d="M0,-3.0v7 M-2.5,-0.5L0,-3.0L2.5,-0.5"/>
                </g>
        </g>
        <svg viewBox="0 0 15 15" width="100%" height="30px" preserveAspectRatio="xMaxYMin meet">
         <g id="arrow_out" transform="scale(0.3 0.3)">
          <a xlink:href="structfwRuntime_1_1io_1_1BundleDescriptorReader_a3abd5837149167e4e5e1ea6fa9057912_cgraph_org.svg" target="_base">
           <rect id="button" ry="5" rx="5" y="6" x="6" height="38" width="38"
                fill="#f2f5e9" fill-opacity="0.5" stroke="#606060" stroke-width="1.0"/>
           <path id="arrow"
             d="M 11.500037,31.436501 C 11.940474,20.09759 22.043105,11.32322 32.158766,21.979434 L 37.068811,17.246167 C 37.068811,17.246167 37.088388,32 37.088388,32 L 22.160133,31.978069 C 22.160133,31.978069 26.997745,27.140456 26.997745,27.140456 C 18.528582,18.264221 13.291696,25.230495 11.500037,31.436501 z"
             style="fill:#404040;"/>
          </a>
         </g>
        </svg>
</svg>
