<?xml version="1.0" encoding="UTF-8" standalone="no"?>
<!DOCTYPE svg PUBLIC "-//W3C//DTD SVG 1.1//EN"
 "http://www.w3.org/Graphics/SVG/1.1/DTD/svg11.dtd">
<!-- Generated by graphviz version 2.26.3 (20100126.1600)
 -->
<!-- Title: fwRuntime::io::ProfileReader::createProfile Pages: 1 -->
<svg width="694pt" height="238pt"
 viewBox="0.00 0.00 694.00 238.00" xmlns="http://www.w3.org/2000/svg" xmlns:xlink="http://www.w3.org/1999/xlink">
<g id="graph1" class="graph" transform="scale(1 1) rotate(0) translate(4 234)">
<title>fwRuntime::io::ProfileReader::createProfile</title>
<polygon fill="white" stroke="white" points="-4,5 -4,-234 691,-234 691,5 -4,5"/>
<!-- Node1 -->
<g id="node1" class="node"><title>Node1</title>
<polygon fill="#bfbfbf" stroke="black" points="0.5,-92 0.5,-126 143.5,-126 143.5,-92 0.5,-92"/>
<text text-anchor="start" x="8.5" y="-113" font-family="Helvetica,sans-Serif" font-size="10.00">fwRuntime::io::ProfileReader</text>
<text text-anchor="middle" x="72" y="-100" font-family="Helvetica,sans-Serif" font-size="10.00">::createProfile</text>
</g>
<!-- Node2 -->
<g id="node3" class="node"><title>Node2</title>
<a xlink:href="namespacefwRuntime.html#a4e8c51fcedecc056867d28ffc974f088" target="_top" xlink:title="Retrieves the extension point having the specified identifier. ">
<polygon fill="white" stroke="black" points="180.5,-92 180.5,-126 309.5,-126 309.5,-92 180.5,-92"/>
<text text-anchor="start" x="188.5" y="-113" font-family="Helvetica,sans-Serif" font-size="10.00">fwRuntime::findExtension</text>
<text text-anchor="middle" x="245" y="-100" font-family="Helvetica,sans-Serif" font-size="10.00">Point</text>
</a>
</g>
<!-- Node1&#45;&gt;Node2 -->
<g id="edge2" class="edge"><title>Node1&#45;&gt;Node2</title>
<path fill="none" stroke="midnightblue" d="M153.674,-109C162.628,-109 171.652,-109 180.359,-109"/>
<polygon fill="midnightblue" stroke="midnightblue" points="153.615,-105.5 143.615,-109 153.614,-112.5 153.615,-105.5"/>
</g>
<!-- Node3 -->
<g id="node5" class="node"><title>Node3</title>
<a xlink:href="structfwRuntime_1_1Runtime.html#aa5a5a08171483605b6957c25938522b4" target="_top" xlink:title="Registers a new extension point. ">
<polygon fill="white" stroke="black" points="368.5,-196 368.5,-230 475.5,-230 475.5,-196 368.5,-196"/>
<text text-anchor="start" x="376.5" y="-217" font-family="Helvetica,sans-Serif" font-size="10.00">fwRuntime::Runtime</text>
<text text-anchor="middle" x="422" y="-204" font-family="Helvetica,sans-Serif" font-size="10.00">::addExtensionPoint</text>
</a>
</g>
<!-- Node2&#45;&gt;Node3 -->
<g id="edge4" class="edge"><title>Node2&#45;&gt;Node3</title>
<path fill="none" stroke="midnightblue" d="M270.971,-132.937C290.446,-149.881 318.392,-172.146 346,-187 353,-190.766 360.65,-194.144 368.315,-197.12"/>
<polygon fill="midnightblue" stroke="midnightblue" points="273.237,-130.269 263.426,-126.27 268.602,-135.515 273.237,-130.269"/>
</g>
<!-- Node4 -->
<g id="node7" class="node"><title>Node4</title>
<a xlink:href="namespacefwRuntime.html#ac4fd0055e73698aab71fb859aac1d01d" target="_top" xlink:title="Retrieves all configuration elements for the point having the specified identifier. ">
<polygon fill="white" stroke="black" points="346,-144 346,-178 498,-178 498,-144 346,-144"/>
<text text-anchor="start" x="354" y="-165" font-family="Helvetica,sans-Serif" font-size="10.00">fwRuntime::getAllConfiguration</text>
<text text-anchor="middle" x="422" y="-152" font-family="Helvetica,sans-Serif" font-size="10.00">ElementsForPoint</text>
</a>
</g>
<!-- Node2&#45;&gt;Node4 -->
<g id="edge6" class="edge"><title>Node2&#45;&gt;Node4</title>
<path fill="none" stroke="midnightblue" d="M312.747,-128.903C329.617,-133.859 347.555,-139.129 363.913,-143.935"/>
<polygon fill="midnightblue" stroke="midnightblue" points="313.538,-125.487 302.956,-126.027 311.564,-132.204 313.538,-125.487"/>
</g>
<!-- Node6 -->
<g id="node11" class="node"><title>Node6</title>
<a xlink:href="namespacefwRuntime.html#aae3562a1767fcae09be2942404cd3f68" target="_top" xlink:title="Retrieves all extensions for the point having the specified identifier. ">
<polygon fill="white" stroke="black" points="350.5,-92 350.5,-126 493.5,-126 493.5,-92 350.5,-92"/>
<text text-anchor="start" x="358.5" y="-113" font-family="Helvetica,sans-Serif" font-size="10.00">fwRuntime::getAllExtensions</text>
<text text-anchor="middle" x="422" y="-100" font-family="Helvetica,sans-Serif" font-size="10.00">ForPoint</text>
</a>
</g>
<!-- Node2&#45;&gt;Node6 -->
<g id="edge10" class="edge"><title>Node2&#45;&gt;Node6</title>
<path fill="none" stroke="midnightblue" d="M319.701,-109C329.853,-109 340.253,-109 350.349,-109"/>
<polygon fill="midnightblue" stroke="midnightblue" points="319.652,-105.5 309.652,-109 319.652,-112.5 319.652,-105.5"/>
</g>
<!-- Node7 -->
<g id="node13" class="node"><title>Node7</title>
<a xlink:href="namespacefwRuntime.html#a5e781482e84f1c0a382d3491d5be7cc6" target="_top" xlink:title="Get information for the point. ">
<polygon fill="white" stroke="black" points="353.5,-52.5 353.5,-73.5 490.5,-73.5 490.5,-52.5 353.5,-52.5"/>
<text text-anchor="middle" x="422" y="-60.5" font-family="Helvetica,sans-Serif" font-size="10.00">fwRuntime::getInfoForPoint</text>
</a>
</g>
<!-- Node2&#45;&gt;Node7 -->
<g id="edge12" class="edge"><title>Node2&#45;&gt;Node7</title>
<path fill="none" stroke="midnightblue" d="M319.617,-89.608C340.804,-84.1017 363.08,-78.3125 381.423,-73.5453"/>
<polygon fill="midnightblue" stroke="midnightblue" points="318.451,-86.2948 309.652,-92.1977 320.211,-93.0698 318.451,-86.2948"/>
</g>
<!-- Node8 -->
<g id="node15" class="node"><title>Node8</title>
<a xlink:href="structfwRuntime_1_1Runtime.html#a846630c053b019b485d642b94f41ba63" target="_top" xlink:title="Unregister a new extension point. ">
<polygon fill="white" stroke="black" points="356.5,-0 356.5,-34 487.5,-34 487.5,-0 356.5,-0"/>
<text text-anchor="start" x="364.5" y="-21" font-family="Helvetica,sans-Serif" font-size="10.00">fwRuntime::Runtime</text>
<text text-anchor="middle" x="422" y="-8" font-family="Helvetica,sans-Serif" font-size="10.00">::unregisterExtensionPoint</text>
</a>
</g>
<!-- Node2&#45;&gt;Node8 -->
<g id="edge14" class="edge"><title>Node2&#45;&gt;Node8</title>
<path fill="none" stroke="midnightblue" d="M275.851,-85.9394C295.261,-72.1788 321.242,-55.0887 346,-43 352.642,-39.7572 359.791,-36.7426 366.952,-34.0009"/>
<polygon fill="midnightblue" stroke="midnightblue" points="273.77,-83.1251 267.691,-91.8026 277.854,-88.8099 273.77,-83.1251"/>
</g>
<!-- Node5 -->
<g id="node9" class="node"><title>Node5</title>
<a xlink:href="namespacefwRuntime.html#a414afe8d935fb9850db10e3f185b664f" target="_top" xlink:title="Retrieves all configuration elements for the point having the specified identifier. ">
<polygon fill="white" stroke="black" points="534,-144 534,-178 686,-178 686,-144 534,-144"/>
<text text-anchor="start" x="542" y="-165" font-family="Helvetica,sans-Serif" font-size="10.00">fwRuntime::getAllConfiguration</text>
<text text-anchor="middle" x="610" y="-152" font-family="Helvetica,sans-Serif" font-size="10.00">ElementsForPoint</text>
</a>
</g>
<!-- Node4&#45;&gt;Node5 -->
<g id="edge8" class="edge"><title>Node4&#45;&gt;Node5</title>
<path fill="none" stroke="midnightblue" d="M508.424,-161C516.857,-161 525.372,-161 533.696,-161"/>
<polygon fill="midnightblue" stroke="midnightblue" points="508.196,-157.5 498.196,-161 508.196,-164.5 508.196,-157.5"/>
</g>
</g>
</svg>
