<?xml version="1.0" encoding="UTF-8" standalone="no"?>
<!DOCTYPE svg PUBLIC "-//W3C//DTD SVG 1.1//EN"
 "http://www.w3.org/Graphics/SVG/1.1/DTD/svg11.dtd">
<!-- Generated by graphviz version 2.26.3 (20100126.1600)
 -->
<!-- Title: fwRuntime::ConfigurationElement::hasAttribute Pages: 1 -->
<!--zoomable 374 -->
<svg id="main" version="1.1" xmlns="http://www.w3.org/2000/svg" xmlns:xlink="http://www.w3.org/1999/xlink" xml:space="preserve" onload="init(evt)">
<style type="text/css"><![CDATA[
.edge:hover path { stroke: red; }
.edge:hover polygon { stroke: red; fill: red; }
]]></style>
<script type="text/javascript"><![CDATA[
var edges = document.getElementsByTagName('g');
if (edges && edges.length) {
  for (var i=0;i<edges.length;i++) {
    if (edges[i].id.substr(0,4)=='edge') {
      edges[i].setAttribute('class','edge');
    }
  }
}
]]></script>
        <defs>
                <circle id="rim" cx="0" cy="0" r="7"/>
                <circle id="rim2" cx="0" cy="0" r="3.5"/>
                <g id="zoomPlus">
                        <use xlink:href="#rim" fill="#404040">
                                <set attributeName="fill" to="#808080" begin="zoomplus.mouseover" end="zoomplus.mouseout"/>
                        </use>
                        <path d="M-4,0h8M0,-4v8" fill="none" stroke="white" stroke-width="1.5" pointer-events="none"/>
                </g>
                <g id="zoomMin">
                        <use xlink:href="#rim" fill="#404040">
                                <set attributeName="fill" to="#808080" begin="zoomminus.mouseover" end="zoomminus.mouseout"/>
                        </use>
                        <path d="M-4,0h8" fill="none" stroke="white" stroke-width="1.5" pointer-events="none"/>
                </g>
                <g id="dirArrow">
                        <path fill="none" stroke="white" stroke-width="1.5" d="M0,-3.0v7 M-2.5,-0.5L0,-3.0L2.5,-0.5"/>
                </g>
               <g id="resetDef">
                       <use xlink:href="#rim2" fill="#404040">
                               <set attributeName="fill" to="#808080" begin="reset.mouseover" end="reset.mouseout"/>
                       </use>
               </g>
        </defs>

<script type="text/javascript">
var viewWidth = 664;
var viewHeight = 374;
var sectionId = 'dynsection-8';
</script>
<script xlink:href="svgpan.js"/>
<svg id="graph" class="graph">
<g id="viewport">
<title>fwRuntime::ConfigurationElement::hasAttribute</title>
<polygon fill="white" stroke="white" points="-4,5 -4,-370 661,-370 661,5 -4,5"/>
<!-- Node1 -->
<g id="node1" class="node"><title>Node1</title>
<polygon fill="#bfbfbf" stroke="black" points="0,-78 0,-112 128,-112 128,-78 0,-78"/>
<text text-anchor="start" x="8" y="-99" font-family="Helvetica,sans-Serif" font-size="10.00">fwRuntime::Configuration</text>
<text text-anchor="middle" x="64" y="-86" font-family="Helvetica,sans-Serif" font-size="10.00">Element::hasAttribute</text>
</g>
<!-- Node2 -->
<g id="node3" class="node"><title>Node2</title>
<a xlink:href="classfwServices_1_1helper_1_1Config.html#a69b941e2a568b8072896c3070ce3a5d9" target="_top" xlink:title="Parses &quot;&lt;proxy&gt;&quot; tags from given configuration to connect signals and slots using proxies...">
<polygon fill="white" stroke="black" points="173,-104 173,-138 283,-138 283,-104 173,-104"/>
<text text-anchor="start" x="181" y="-125" font-family="Helvetica,sans-Serif" font-size="10.00">fwServices::helper</text>
<text text-anchor="middle" x="228" y="-112" font-family="Helvetica,sans-Serif" font-size="10.00">::Config::createProxy</text>
</a>
</g>
<!-- Node1&#45;&gt;Node2 -->
<g id="edge2" class="edge"><title>Node1&#45;&gt;Node2</title>
<path fill="none" stroke="midnightblue" d="M138.449,-106.803C150.03,-108.639 161.814,-110.507 172.866,-112.259"/>
<polygon fill="midnightblue" stroke="midnightblue" points="138.771,-103.31 128.346,-105.201 137.675,-110.224 138.771,-103.31"/>
</g>
<!-- Node13 -->
<g id="node25" class="node"><title>Node13</title>
<a xlink:href="structfwRuntime_1_1ConfigurationElement.html#ac0c44f491a3abe2c242b21a860feeaac" target="_top" xlink:title="Find recursively all the corresponding configuration elements. ">
<polygon fill="white" stroke="black" points="164,-26 164,-60 292,-60 292,-26 164,-26"/>
<text text-anchor="start" x="172" y="-47" font-family="Helvetica,sans-Serif" font-size="10.00">fwRuntime::Configuration</text>
<text text-anchor="middle" x="228" y="-34" font-family="Helvetica,sans-Serif" font-size="10.00">Element::find</text>
</a>
</g>
<!-- Node1&#45;&gt;Node13 -->
<g id="edge24" class="edge"><title>Node1&#45;&gt;Node13</title>
<path fill="none" stroke="midnightblue" d="M127.648,-74.8188C143.023,-69.9438 159.306,-64.7811 174.18,-60.065"/>
<polygon fill="midnightblue" stroke="midnightblue" points="126.174,-71.6144 117.7,-77.9733 128.29,-78.2871 126.174,-71.6144"/>
</g>
<!-- Node3 -->
<g id="node5" class="node"><title>Node3</title>
<a xlink:href="classctrlSelection_1_1IManagerSrv.html#a2781e12bad21503672958e3e4c59f0c6" target="_top" xlink:title="Manages all proxies connections define in config associated to object Call manageProxy() ...">
<polygon fill="white" stroke="black" points="328,-196 328,-230 460,-230 460,-196 328,-196"/>
<text text-anchor="start" x="336" y="-217" font-family="Helvetica,sans-Serif" font-size="10.00">ctrlSelection::IManagerSrv</text>
<text text-anchor="middle" x="394" y="-204" font-family="Helvetica,sans-Serif" font-size="10.00">::manageProxies</text>
</a>
</g>
<!-- Node2&#45;&gt;Node3 -->
<g id="edge4" class="edge"><title>Node2&#45;&gt;Node3</title>
<path fill="none" stroke="midnightblue" d="M259.356,-144.139C278.563,-157.684 303.991,-174.521 328,-187 334.01,-190.124 340.484,-193.105 346.945,-195.862"/>
<polygon fill="midnightblue" stroke="midnightblue" points="261.17,-141.133 250.996,-138.175 257.104,-146.832 261.17,-141.133"/>
</g>
<!-- Node10 -->
<g id="node19" class="node"><title>Node10</title>
<a xlink:href="classscene2D_1_1Render.html#a08ca72a78d6791c3816e826ba8236d3b" target="_top" xlink:title="Call startContext to set the scene, the viewport and the view, and add&#39;em to the QtContainer and star...">
<polygon fill="white" stroke="black" points="328.5,-156.5 328.5,-177.5 459.5,-177.5 459.5,-156.5 328.5,-156.5"/>
<text text-anchor="middle" x="394" y="-164.5" font-family="Helvetica,sans-Serif" font-size="10.00">scene2D::Render::starting</text>
</a>
</g>
<!-- Node2&#45;&gt;Node10 -->
<g id="edge18" class="edge"><title>Node2&#45;&gt;Node10</title>
<path fill="none" stroke="midnightblue" d="M292.944,-138.997C314.291,-144.912 337.313,-151.291 355.983,-156.465"/>
<polygon fill="midnightblue" stroke="midnightblue" points="293.847,-135.615 283.276,-136.317 291.978,-142.361 293.847,-135.615"/>
</g>
<!-- Node11 -->
<g id="node21" class="node"><title>Node11</title>
<a xlink:href="classfwRenderVTK_1_1SRender.html#a6e208a144cae8198b57d79b65acf594c" target="_top" xlink:title="Install observations : should be implemented in IService. ">
<polygon fill="white" stroke="black" points="333,-104 333,-138 455,-138 455,-104 333,-104"/>
<text text-anchor="start" x="341" y="-125" font-family="Helvetica,sans-Serif" font-size="10.00">fwRenderVTK::SRender</text>
<text text-anchor="middle" x="394" y="-112" font-family="Helvetica,sans-Serif" font-size="10.00">::starting</text>
</a>
</g>
<!-- Node2&#45;&gt;Node11 -->
<g id="edge20" class="edge"><title>Node2&#45;&gt;Node11</title>
<path fill="none" stroke="midnightblue" d="M293.542,-121C306.536,-121 320.127,-121 332.963,-121"/>
<polygon fill="midnightblue" stroke="midnightblue" points="293.276,-117.5 283.276,-121 293.276,-124.5 293.276,-117.5"/>
</g>
<!-- Node12 -->
<g id="node23" class="node"><title>Node12</title>
<a xlink:href="classfwRenderVTK_1_1SRender.html#a2d41c24eb9001667f59c7511d997f399" target="_top" xlink:title="Get a vtkTransform in the SRender, referenced by a key. Create it if it does not exist. ">
<polygon fill="white" stroke="black" points="332.5,-52 332.5,-86 455.5,-86 455.5,-52 332.5,-52"/>
<text text-anchor="start" x="340.5" y="-73" font-family="Helvetica,sans-Serif" font-size="10.00">fwRenderVTK::SRender</text>
<text text-anchor="middle" x="394" y="-60" font-family="Helvetica,sans-Serif" font-size="10.00">::getOrAddVtkTransform</text>
</a>
</g>
<!-- Node2&#45;&gt;Node12 -->
<g id="edge22" class="edge"><title>Node2&#45;&gt;Node12</title>
<path fill="none" stroke="midnightblue" d="M291.98,-100.958C307.673,-96.0422 324.324,-90.8261 339.523,-86.065"/>
<polygon fill="midnightblue" stroke="midnightblue" points="290.851,-97.6439 282.355,-103.973 292.944,-104.324 290.851,-97.6439"/>
</g>
<!-- Node4 -->
<g id="node7" class="node"><title>Node4</title>
<a xlink:href="classctrlSelection_1_1manager_1_1SField.html#a7480d619d94a235310e6c8dcca827069" target="_top" xlink:title="Slot: add objects. ">
<polygon fill="white" stroke="black" points="519,-332 519,-366 633,-366 633,-332 519,-332"/>
<text text-anchor="start" x="527" y="-353" font-family="Helvetica,sans-Serif" font-size="10.00">ctrlSelection::manager</text>
<text text-anchor="middle" x="576" y="-340" font-family="Helvetica,sans-Serif" font-size="10.00">::SField::addFields</text>
</a>
</g>
<!-- Node3&#45;&gt;Node4 -->
<g id="edge6" class="edge"><title>Node3&#45;&gt;Node4</title>
<path fill="none" stroke="midnightblue" d="M411.419,-238.281C429.775,-263.145 460.861,-300.543 496,-323 503.014,-327.483 510.871,-331.258 518.847,-334.419"/>
<polygon fill="midnightblue" stroke="midnightblue" points="414.166,-236.108 405.471,-230.055 408.494,-240.209 414.166,-236.108"/>
</g>
<!-- Node5 -->
<g id="node9" class="node"><title>Node5</title>
<a xlink:href="classctrlSelection_1_1manager_1_1SwapperSrv.html#ac02089f6bf9dffb7b7c8b2444f2ad4e4" target="_top" xlink:title="Slot: add objects. ">
<polygon fill="white" stroke="black" points="510.5,-280 510.5,-314 641.5,-314 641.5,-280 510.5,-280"/>
<text text-anchor="start" x="518.5" y="-301" font-family="Helvetica,sans-Serif" font-size="10.00">ctrlSelection::manager</text>
<text text-anchor="middle" x="576" y="-288" font-family="Helvetica,sans-Serif" font-size="10.00">::SwapperSrv::addObjects</text>
</a>
</g>
<!-- Node3&#45;&gt;Node5 -->
<g id="edge8" class="edge"><title>Node3&#45;&gt;Node5</title>
<path fill="none" stroke="midnightblue" d="M429.215,-235.379C448.456,-246.998 472.993,-260.846 496,-271 503.215,-274.184 510.945,-277.182 518.653,-279.93"/>
<polygon fill="midnightblue" stroke="midnightblue" points="430.856,-232.28 420.499,-230.051 427.205,-238.253 430.856,-232.28"/>
</g>
<!-- Node6 -->
<g id="node11" class="node"><title>Node6</title>
<a xlink:href="classctrlSelection_1_1manager_1_1SField.html#ac65f406cf05b6e79d31d235701be3886" target="_top" xlink:title="Slot: change objects. ">
<polygon fill="white" stroke="black" points="519,-228 519,-262 633,-262 633,-228 519,-228"/>
<text text-anchor="start" x="527" y="-249" font-family="Helvetica,sans-Serif" font-size="10.00">ctrlSelection::manager</text>
<text text-anchor="middle" x="576" y="-236" font-family="Helvetica,sans-Serif" font-size="10.00">::SField::changeFields</text>
</a>
</g>
<!-- Node3&#45;&gt;Node6 -->
<g id="edge10" class="edge"><title>Node3&#45;&gt;Node6</title>
<path fill="none" stroke="midnightblue" d="M470.248,-226.406C486.517,-229.267 503.432,-232.241 518.838,-234.95"/>
<polygon fill="midnightblue" stroke="midnightblue" points="470.676,-222.928 460.221,-224.643 469.464,-229.822 470.676,-222.928"/>
</g>
<!-- Node7 -->
<g id="node13" class="node"><title>Node7</title>
<a xlink:href="classctrlSelection_1_1manager_1_1SwapperSrv.html#a7e74075f3212f7f47f8369011edd5ec9" target="_top" xlink:title="Slot: change objects. ">
<polygon fill="white" stroke="black" points="502.5,-176 502.5,-210 649.5,-210 649.5,-176 502.5,-176"/>
<text text-anchor="start" x="510.5" y="-197" font-family="Helvetica,sans-Serif" font-size="10.00">ctrlSelection::manager</text>
<text text-anchor="middle" x="576" y="-184" font-family="Helvetica,sans-Serif" font-size="10.00">::SwapperSrv::changeObjects</text>
</a>
</g>
<!-- Node3&#45;&gt;Node7 -->
<g id="edge12" class="edge"><title>Node3&#45;&gt;Node7</title>
<path fill="none" stroke="midnightblue" d="M470.314,-204.614C480.949,-203.445 491.859,-202.246 502.442,-201.083"/>
<polygon fill="midnightblue" stroke="midnightblue" points="469.779,-201.151 460.221,-205.723 470.544,-208.11 469.779,-201.151"/>
</g>
<!-- Node8 -->
<g id="node15" class="node"><title>Node8</title>
<a xlink:href="classctrlSelection_1_1manager_1_1SField.html#ab57d869461bb04dbb5a68be5faa517bf" target="_top" xlink:title="Slot: remove objects. ">
<polygon fill="white" stroke="black" points="518.5,-124 518.5,-158 633.5,-158 633.5,-124 518.5,-124"/>
<text text-anchor="start" x="526.5" y="-145" font-family="Helvetica,sans-Serif" font-size="10.00">ctrlSelection::manager</text>
<text text-anchor="middle" x="576" y="-132" font-family="Helvetica,sans-Serif" font-size="10.00">::SField::removeFields</text>
</a>
</g>
<!-- Node3&#45;&gt;Node8 -->
<g id="edge14" class="edge"><title>Node3&#45;&gt;Node8</title>
<path fill="none" stroke="midnightblue" d="M449.078,-191.939C452.798,-190.322 456.468,-188.668 460,-187 476.551,-179.184 479.218,-174.307 496,-167 503.23,-163.852 510.97,-160.875 518.683,-158.137"/>
<polygon fill="midnightblue" stroke="midnightblue" points="447.626,-188.753 439.78,-195.873 450.354,-195.2 447.626,-188.753"/>
</g>
<!-- Node9 -->
<g id="node17" class="node"><title>Node9</title>
<a xlink:href="classctrlSelection_1_1manager_1_1SwapperSrv.html#a4e44acc0494380e068976ae71d5db070" target="_top" xlink:title="Slot: remove objects. ">
<polygon fill="white" stroke="black" points="502,-72 502,-106 650,-106 650,-72 502,-72"/>
<text text-anchor="start" x="510" y="-93" font-family="Helvetica,sans-Serif" font-size="10.00">ctrlSelection::manager</text>
<text text-anchor="middle" x="576" y="-80" font-family="Helvetica,sans-Serif" font-size="10.00">::SwapperSrv::removeObjects</text>
</a>
</g>
<!-- Node3&#45;&gt;Node9 -->
<g id="edge16" class="edge"><title>Node3&#45;&gt;Node9</title>
<path fill="none" stroke="midnightblue" d="M456.461,-190.001C457.682,-189.039 458.864,-188.039 460,-187 486.391,-162.844 468.884,-138.339 496,-115 499.985,-111.57 504.431,-108.591 509.129,-106.003"/>
<polygon fill="midnightblue" stroke="midnightblue" points="454.215,-187.296 447.909,-195.81 458.148,-193.086 454.215,-187.296"/>
</g>
<!-- Node14 -->
<g id="node27" class="node"><title>Node14</title>
<a xlink:href="classfwServices_1_1helper_1_1Config.html#a0ca6ee6e1d2bcb5505ca52dffd0a79ab" target="_top" xlink:title="Parse a service and return a service configuration. ">
<polygon fill="white" stroke="black" points="337,-0 337,-34 451,-34 451,-0 337,-0"/>
<text text-anchor="start" x="345" y="-21" font-family="Helvetica,sans-Serif" font-size="10.00">fwServices::helper</text>
<text text-anchor="middle" x="394" y="-8" font-family="Helvetica,sans-Serif" font-size="10.00">::Config::parseService</text>
</a>
</g>
<!-- Node13&#45;&gt;Node14 -->
<g id="edge26" class="edge"><title>Node13&#45;&gt;Node14</title>
<path fill="none" stroke="midnightblue" d="M302.269,-31.3676C313.842,-29.5549 325.645,-27.7063 336.762,-25.9649"/>
<polygon fill="midnightblue" stroke="midnightblue" points="301.518,-27.9424 292.18,-32.9477 302.601,-34.8581 301.518,-27.9424"/>
</g>
<!-- Node15 -->
<g id="node29" class="node"><title>Node15</title>
<a xlink:href="classfwServices_1_1AppConfigManager2.html#aa6ef94b078d4eb0c81885808b01427c3" target="_top" xlink:title="Get config root. ">
<polygon fill="white" stroke="black" points="496,-0 496,-34 656,-34 656,-0 496,-0"/>
<text text-anchor="start" x="504" y="-21" font-family="Helvetica,sans-Serif" font-size="10.00">fwServices::AppConfigManager2</text>
<text text-anchor="middle" x="576" y="-8" font-family="Helvetica,sans-Serif" font-size="10.00">::getConfigRoot</text>
</a>
</g>
<!-- Node14&#45;&gt;Node15 -->
<g id="edge28" class="edge"><title>Node14&#45;&gt;Node15</title>
<path fill="none" stroke="midnightblue" d="M461.245,-17C472.489,-17 484.253,-17 495.783,-17"/>
<polygon fill="midnightblue" stroke="midnightblue" points="461.087,-13.5001 451.087,-17 461.087,-20.5001 461.087,-13.5001"/>
</g>
</g>
</svg>
        <g id="navigator" transform="translate(0 0)" fill="#404254">
                <rect fill="#f2f5e9" fill-opacity="0.5" stroke="#606060" stroke-width=".5" x="0" y="0" width="60" height="60"/>
                <use id="zoomplus" xlink:href="#zoomPlus" x="17" y="9" onmousedown="handleZoom(evt,'in')"/>
                <use id="zoomminus" xlink:href="#zoomMin" x="42" y="9" onmousedown="handleZoom(evt,'out')"/>
                <use id="reset" xlink:href="#resetDef" x="30" y="36" onmousedown="handleReset()"/>
                <g id="arrowUp" xlink:href="#dirArrow" transform="translate(30 24)" onmousedown="handlePan(0,-1)">
                  <use xlink:href="#rim" fill="#404040">
                        <set attributeName="fill" to="#808080" begin="arrowUp.mouseover" end="arrowUp.mouseout"/>
                  </use>
                  <path fill="none" stroke="white" stroke-width="1.5" d="M0,-3.0v7 M-2.5,-0.5L0,-3.0L2.5,-0.5"/>
                </g>
                <g id="arrowRight" xlink:href="#dirArrow" transform="rotate(90) translate(36 -43)" onmousedown="handlePan(1,0)">
                  <use xlink:href="#rim" fill="#404040">
                        <set attributeName="fill" to="#808080" begin="arrowRight.mouseover" end="arrowRight.mouseout"/>
                  </use>
                  <path fill="none" stroke="white" stroke-width="1.5" d="M0,-3.0v7 M-2.5,-0.5L0,-3.0L2.5,-0.5"/>
                </g>
                <g id="arrowDown" xlink:href="#dirArrow" transform="rotate(180) translate(-30 -48)" onmousedown="handlePan(0,1)">
                  <use xlink:href="#rim" fill="#404040">
                        <set attributeName="fill" to="#808080" begin="arrowDown.mouseover" end="arrowDown.mouseout"/>
                  </use>
                  <path fill="none" stroke="white" stroke-width="1.5" d="M0,-3.0v7 M-2.5,-0.5L0,-3.0L2.5,-0.5"/>
                </g>
                <g id="arrowLeft" xlink:href="#dirArrow" transform="rotate(270) translate(-36 17)" onmousedown="handlePan(-1,0)">
                  <use xlink:href="#rim" fill="#404040">
                        <set attributeName="fill" to="#808080" begin="arrowLeft.mouseover" end="arrowLeft.mouseout"/>
                  </use>
                  <path fill="none" stroke="white" stroke-width="1.5" d="M0,-3.0v7 M-2.5,-0.5L0,-3.0L2.5,-0.5"/>
                </g>
        </g>
        <svg viewBox="0 0 15 15" width="100%" height="30px" preserveAspectRatio="xMaxYMin meet">
         <g id="arrow_out" transform="scale(0.3 0.3)">
          <a xlink:href="structfwRuntime_1_1ConfigurationElement_a5ee64ff02f9b5a8d0f9f3e52145372b8_icgraph_org.svg" target="_base">
           <rect id="button" ry="5" rx="5" y="6" x="6" height="38" width="38"
                fill="#f2f5e9" fill-opacity="0.5" stroke="#606060" stroke-width="1.0"/>
           <path id="arrow"
             d="M 11.500037,31.436501 C 11.940474,20.09759 22.043105,11.32322 32.158766,21.979434 L 37.068811,17.246167 C 37.068811,17.246167 37.088388,32 37.088388,32 L 22.160133,31.978069 C 22.160133,31.978069 26.997745,27.140456 26.997745,27.140456 C 18.528582,18.264221 13.291696,25.230495 11.500037,31.436501 z"
             style="fill:#404040;"/>
          </a>
         </g>
        </svg>
</svg>
