<?xml version="1.0" encoding="UTF-8" standalone="no"?>
<!DOCTYPE svg PUBLIC "-//W3C//DTD SVG 1.1//EN"
 "http://www.w3.org/Graphics/SVG/1.1/DTD/svg11.dtd">
<!-- Generated by graphviz version 2.36.0 (20140111.2315)
 -->
<!-- Title: fwRuntime::Runtime::addExecutableFactory Pages: 1 -->
<svg width="704pt" height="110pt"
 viewBox="0.00 0.00 704.00 110.00" xmlns="http://www.w3.org/2000/svg" xmlns:xlink="http://www.w3.org/1999/xlink">
<g id="graph0" class="graph" transform="scale(1 1) rotate(0) translate(4 106)">
<title>fwRuntime::Runtime::addExecutableFactory</title>
<polygon fill="white" stroke="none" points="-4,4 -4,-106 700,-106 700,4 -4,4"/>
<!-- Node1 -->
<g id="node1" class="node"><title>Node1</title>
<polygon fill="#bfbfbf" stroke="black" points="0,-25 0,-55 120,-55 120,-25 0,-25"/>
<text text-anchor="start" x="8" y="-43" font-family="Helvetica,sans-Serif" font-size="10.00">fwRuntime::Runtime</text>
<text text-anchor="middle" x="60" y="-32" font-family="Helvetica,sans-Serif" font-size="10.00">::addExecutableFactory</text>
</g>
<!-- Node2 -->
<g id="node2" class="node"><title>Node2</title>
<g id="a_node2"><a xlink:href="structfwRuntime_1_1Runtime.html#a05bb6b1b92cc6441eb936907ce1de6db" target="_top" xlink:title="Adds a new bundle instance to the runtime system. ">
<polygon fill="white" stroke="black" points="194.5,-50 194.5,-80 301.5,-80 301.5,-50 194.5,-50"/>
<text text-anchor="start" x="202.5" y="-68" font-family="Helvetica,sans-Serif" font-size="10.00">fwRuntime::Runtime</text>
<text text-anchor="middle" x="248" y="-57" font-family="Helvetica,sans-Serif" font-size="10.00">::addBundle</text>
</a>
</g>
</g>
<!-- Node1&#45;&gt;Node2 -->
<g id="edge1" class="edge"><title>Node1&#45;&gt;Node2</title>
<path fill="none" stroke="midnightblue" d="M130.054,-49.2814C151.313,-52.1389 174.365,-55.2372 194.337,-57.9217"/>
<polygon fill="midnightblue" stroke="midnightblue" points="130.484,-45.8079 120.107,-47.9445 129.552,-52.7455 130.484,-45.8079"/>
</g>
<!-- Node6 -->
<g id="node6" class="node"><title>Node6</title>
<g id="a_node6"><a xlink:href="structfwRuntime_1_1ExecutableFactoryRegistrar.html#abcfc095166bf5fc78fe867f87ec0c1fe" target="_top" xlink:title="Constructor. ">
<polygon fill="white" stroke="black" points="156,-1 156,-31 340,-31 340,-1 156,-1"/>
<text text-anchor="start" x="164" y="-19" font-family="Helvetica,sans-Serif" font-size="10.00">fwRuntime::ExecutableFactory</text>
<text text-anchor="middle" x="248" y="-8" font-family="Helvetica,sans-Serif" font-size="10.00">Registrar::ExecutableFactoryRegistrar</text>
</a>
</g>
</g>
<!-- Node1&#45;&gt;Node6 -->
<g id="edge5" class="edge"><title>Node1&#45;&gt;Node6</title>
<path fill="none" stroke="midnightblue" d="M130.154,-31.0769C138.52,-29.9975 147.161,-28.8824 155.782,-27.7701"/>
<polygon fill="midnightblue" stroke="midnightblue" points="129.577,-27.6223 120.107,-32.3733 130.473,-34.5647 129.577,-27.6223"/>
</g>
<!-- Node3 -->
<g id="node3" class="node"><title>Node3</title>
<g id="a_node3"><a xlink:href="structfwRuntime_1_1Runtime.html#adfd7ac9087797b44b84746183d00c62a" target="_top" xlink:title="Adds all bundle found in the given path. ">
<polygon fill="white" stroke="black" points="376.5,-50 376.5,-80 483.5,-80 483.5,-50 376.5,-50"/>
<text text-anchor="start" x="384.5" y="-68" font-family="Helvetica,sans-Serif" font-size="10.00">fwRuntime::Runtime</text>
<text text-anchor="middle" x="430" y="-57" font-family="Helvetica,sans-Serif" font-size="10.00">::addBundles</text>
</a>
</g>
</g>
<!-- Node2&#45;&gt;Node3 -->
<g id="edge2" class="edge"><title>Node2&#45;&gt;Node3</title>
<path fill="none" stroke="midnightblue" d="M311.709,-65C332.817,-65 356.138,-65 376.387,-65"/>
<polygon fill="midnightblue" stroke="midnightblue" points="311.547,-61.5001 301.547,-65 311.547,-68.5001 311.547,-61.5001"/>
</g>
<!-- Node4 -->
<g id="node4" class="node"><title>Node4</title>
<g id="a_node4"><a xlink:href="structfwRuntime_1_1Runtime.html#a7cec72a200e8e69975768eae49709d65" target="_top" xlink:title="Adds all bundle found at the default location. ">
<polygon fill="white" stroke="black" points="554.5,-72 554.5,-102 661.5,-102 661.5,-72 554.5,-72"/>
<text text-anchor="start" x="562.5" y="-90" font-family="Helvetica,sans-Serif" font-size="10.00">fwRuntime::Runtime</text>
<text text-anchor="middle" x="608" y="-79" font-family="Helvetica,sans-Serif" font-size="10.00">::addDefaultBundles</text>
</a>
</g>
</g>
<!-- Node3&#45;&gt;Node4 -->
<g id="edge3" class="edge"><title>Node3&#45;&gt;Node4</title>
<path fill="none" stroke="midnightblue" d="M493.94,-72.8675C513.685,-75.3356 535.266,-78.0332 554.231,-80.4039"/>
<polygon fill="midnightblue" stroke="midnightblue" points="494.163,-69.3682 483.806,-71.6007 493.294,-76.3141 494.163,-69.3682"/>
</g>
<!-- Node5 -->
<g id="node5" class="node"><title>Node5</title>
<g id="a_node5"><a xlink:href="namespacefwRuntime.html#a2b24dde67b11c7bb1de980ae77664887" target="_top" xlink:title="Retrieve a filesystem valid path for a path relative to the specified executable instance. ">
<polygon fill="white" stroke="black" points="520,-33.5 520,-52.5 696,-52.5 696,-33.5 520,-33.5"/>
<text text-anchor="middle" x="608" y="-40.5" font-family="Helvetica,sans-Serif" font-size="10.00">fwRuntime::getBundleResourcePath</text>
</a>
</g>
</g>
<!-- Node3&#45;&gt;Node5 -->
<g id="edge4" class="edge"><title>Node3&#45;&gt;Node5</title>
<path fill="none" stroke="midnightblue" d="M494.073,-57.1158C505.98,-55.6276 518.549,-54.0564 530.807,-52.5241"/>
<polygon fill="midnightblue" stroke="midnightblue" points="493.294,-53.6859 483.806,-58.3993 494.163,-60.6318 493.294,-53.6859"/>
</g>
</g>
</svg>
