<?xml version="1.0" encoding="UTF-8" standalone="no"?>
<!DOCTYPE svg PUBLIC "-//W3C//DTD SVG 1.1//EN"
 "http://www.w3.org/Graphics/SVG/1.1/DTD/svg11.dtd">
<!-- Generated by graphviz version 2.26.3 (20100126.1600)
 -->
<!-- Title: Options Pages: 1 -->
<svg width="255pt" height="260pt"
 viewBox="0.00 0.00 255.00 260.00" xmlns="http://www.w3.org/2000/svg" xmlns:xlink="http://www.w3.org/1999/xlink">
<g id="graph1" class="graph" transform="scale(1 1) rotate(0) translate(4 256)">
<title>Options</title>
<polygon fill="white" stroke="white" points="-4,5 -4,-256 252,-256 252,5 -4,5"/>
<!-- Node1 -->
<g id="node1" class="node"><title>Node1</title>
<polygon fill="#bfbfbf" stroke="black" points="122,-0.5 122,-21.5 172,-21.5 172,-0.5 122,-0.5"/>
<text text-anchor="middle" x="147" y="-8.5" font-family="Helvetica,sans-Serif" font-size="10.00">Options</text>
</g>
<!-- Node2 -->
<g id="node2" class="node"><title>Node2</title>
<a xlink:title="STL class. ">
<polygon fill="white" stroke="#bfbfbf" points="131,-144.5 131,-165.5 191,-165.5 191,-144.5 131,-144.5"/>
<text text-anchor="middle" x="161" y="-152.5" font-family="Helvetica,sans-Serif" font-size="10.00">std::string</text>
</a>
</g>
<!-- Node2&#45;&gt;Node1 -->
<g id="edge2" class="edge"><title>Node2&#45;&gt;Node1</title>
<path fill="none" stroke="#9a32cd" stroke-dasharray="5,2" d="M171.928,-135.329C173.195,-132.285 174.287,-129.115 175,-126 183.523,-88.7402 189.317,-75.4397 175,-40 172.116,-32.8621 166.541,-26.504 161.12,-21.5735"/>
<polygon fill="#9a32cd" stroke="#9a32cd" points="168.739,-133.884 167.536,-144.41 175.041,-136.932 168.739,-133.884"/>
<text text-anchor="middle" x="215" y="-80.5" font-family="Helvetica,sans-Serif" font-size="10.00"> xmlReportFile</text>
</g>
<!-- Node4 -->
<g id="node6" class="node"><title>Node4</title>
<polygon fill="white" stroke="#bfbfbf" points="28.5,-72.5 28.5,-93.5 153.5,-93.5 153.5,-72.5 28.5,-72.5"/>
<text text-anchor="middle" x="91" y="-80.5" font-family="Helvetica,sans-Serif" font-size="10.00">std::vector&lt; std::string &gt;</text>
</g>
<!-- Node2&#45;&gt;Node4 -->
<g id="edge8" class="edge"><title>Node2&#45;&gt;Node4</title>
<path fill="none" stroke="#9a32cd" stroke-dasharray="5,2" d="M143.027,-137.16C139.362,-133.485 135.544,-129.63 132,-126 121.335,-115.078 109.298,-102.412 101.04,-93.6701"/>
<polygon fill="#9a32cd" stroke="#9a32cd" points="140.647,-139.73 150.197,-144.318 145.593,-134.776 140.647,-139.73"/>
<text text-anchor="middle" x="153.5" y="-116.5" font-family="Helvetica,sans-Serif" font-size="10.00"> elements</text>
</g>
<!-- Node3 -->
<g id="node4" class="node"><title>Node3</title>
<a xlink:title="STL class. ">
<polygon fill="white" stroke="#bfbfbf" points="113.5,-217 113.5,-251 208.5,-251 208.5,-217 113.5,-217"/>
<text text-anchor="start" x="121.5" y="-238" font-family="Helvetica,sans-Serif" font-size="10.00">std::basic_string&lt;</text>
<text text-anchor="middle" x="161" y="-225" font-family="Helvetica,sans-Serif" font-size="10.00"> char &gt;</text>
</a>
</g>
<!-- Node3&#45;&gt;Node2 -->
<g id="edge4" class="edge"><title>Node3&#45;&gt;Node2</title>
<path fill="none" stroke="midnightblue" d="M161,-206.623C161,-192.473 161,-176.024 161,-165.567"/>
<polygon fill="midnightblue" stroke="midnightblue" points="157.5,-206.858 161,-216.858 164.5,-206.858 157.5,-206.858"/>
</g>
<!-- Node4&#45;&gt;Node1 -->
<g id="edge6" class="edge"><title>Node4&#45;&gt;Node1</title>
<path fill="none" stroke="#9a32cd" stroke-dasharray="5,2" d="M102.995,-63.8451C107.996,-56.2335 114.026,-47.5174 120,-40 125.05,-33.6452 131.181,-26.9873 136.324,-21.6559"/>
<polygon fill="#9a32cd" stroke="#9a32cd" points="99.9411,-62.1229 97.4762,-72.427 105.829,-65.909 99.9411,-62.1229"/>
<text text-anchor="middle" x="147.5" y="-44.5" font-family="Helvetica,sans-Serif" font-size="10.00"> testsToRun</text>
</g>
<!-- Node5 -->
<g id="node9" class="node"><title>Node5</title>
<a xlink:title="STL class. ">
<polygon fill="white" stroke="#bfbfbf" points="-0.5,-144.5 -0.5,-165.5 86.5,-165.5 86.5,-144.5 -0.5,-144.5"/>
<text text-anchor="middle" x="43" y="-152.5" font-family="Helvetica,sans-Serif" font-size="10.00">std::vector&lt; T &gt;</text>
</a>
</g>
<!-- Node5&#45;&gt;Node4 -->
<g id="edge10" class="edge"><title>Node5&#45;&gt;Node4</title>
<path fill="none" stroke="orange" stroke-dasharray="5,2" d="M39.5382,-134.24C39.2809,-126.796 40.2068,-118.616 44,-112 48.483,-104.181 56.0106,-98.1945 63.7426,-93.7484"/>
<polygon fill="orange" stroke="orange" points="36.0726,-134.756 40.5658,-144.351 43.0367,-134.049 36.0726,-134.756"/>
<text text-anchor="middle" x="76.5" y="-116.5" font-family="Helvetica,sans-Serif" font-size="10.00"> &lt; std::string &gt;</text>
</g>
<!-- Node6 -->
<g id="node11" class="node"><title>Node6</title>
<polygon fill="white" stroke="#bfbfbf" points="28.5,-223.5 28.5,-244.5 57.5,-244.5 57.5,-223.5 28.5,-223.5"/>
<text text-anchor="middle" x="43" y="-231.5" font-family="Helvetica,sans-Serif" font-size="10.00">T</text>
</g>
<!-- Node6&#45;&gt;Node5 -->
<g id="edge12" class="edge"><title>Node6&#45;&gt;Node5</title>
<path fill="none" stroke="#9a32cd" stroke-dasharray="5,2" d="M43,-213.284C43,-198.031 43,-177.907 43,-165.738"/>
<polygon fill="#9a32cd" stroke="#9a32cd" points="39.5001,-213.346 43,-223.346 46.5001,-213.346 39.5001,-213.346"/>
<text text-anchor="middle" x="64.5" y="-188.5" font-family="Helvetica,sans-Serif" font-size="10.00"> elements</text>
</g>
</g>
</svg>
