<?xml version="1.0" encoding="UTF-8" standalone="no"?>
<!DOCTYPE svg PUBLIC "-//W3C//DTD SVG 1.1//EN"
 "http://www.w3.org/Graphics/SVG/1.1/DTD/svg11.dtd">
<!-- Generated by graphviz version 2.26.3 (20100126.1600)
 -->
<!-- Title: fwRuntime::io::BundleDescriptorReader::processConfigurationElement Pages: 1 -->
<svg width="330pt" height="42pt"
 viewBox="0.00 0.00 330.00 42.00" xmlns="http://www.w3.org/2000/svg" xmlns:xlink="http://www.w3.org/1999/xlink">
<g id="graph1" class="graph" transform="scale(1 1) rotate(0) translate(4 38)">
<title>fwRuntime::io::BundleDescriptorReader::processConfigurationElement</title>
<polygon fill="white" stroke="white" points="-4,5 -4,-38 327,-38 327,5 -4,5"/>
<!-- Node1 -->
<g id="node1" class="node"><title>Node1</title>
<polygon fill="#bfbfbf" stroke="black" points="0,-0 0,-34 182,-34 182,-0 0,-0"/>
<text text-anchor="start" x="8" y="-21" font-family="Helvetica,sans-Serif" font-size="10.00">fwRuntime::io::BundleDescriptor</text>
<text text-anchor="middle" x="91" y="-8" font-family="Helvetica,sans-Serif" font-size="10.00">Reader::processConfigurationElement</text>
</g>
<!-- Node2 -->
<g id="node3" class="node"><title>Node2</title>
<a xlink:href="classfwRuntime_1_1Convert.html#a7e6251b21bb6dc7ceaf7d1e5445c0edb" target="_top" xlink:title="Build an std::string from a ConfigurationElement. ">
<polygon fill="white" stroke="black" points="218,-0 218,-34 322,-34 322,-0 218,-0"/>
<text text-anchor="start" x="226" y="-21" font-family="Helvetica,sans-Serif" font-size="10.00">fwRuntime::Convert</text>
<text text-anchor="middle" x="270" y="-8" font-family="Helvetica,sans-Serif" font-size="10.00">::toXmlString</text>
</a>
</g>
<!-- Node1&#45;&gt;Node2 -->
<g id="edge2" class="edge"><title>Node1&#45;&gt;Node2</title>
<path fill="none" stroke="midnightblue" d="M192.106,-17C200.951,-17 209.642,-17 217.826,-17"/>
<polygon fill="midnightblue" stroke="midnightblue" points="192.073,-13.5001 182.073,-17 192.073,-20.5001 192.073,-13.5001"/>
</g>
</g>
</svg>
