<?xml version="1.0" encoding="UTF-8" standalone="no"?>
<!DOCTYPE svg PUBLIC "-//W3C//DTD SVG 1.1//EN"
 "http://www.w3.org/Graphics/SVG/1.1/DTD/svg11.dtd">
<!-- Generated by graphviz version 2.26.3 (20100126.1600)
 -->
<!-- Title: fwMemory::BufferInfo Pages: 1 -->
<svg width="434pt" height="260pt"
 viewBox="0.00 0.00 434.00 260.00" xmlns="http://www.w3.org/2000/svg" xmlns:xlink="http://www.w3.org/1999/xlink">
<g id="graph1" class="graph" transform="scale(1 1) rotate(0) translate(4 256)">
<title>fwMemory::BufferInfo</title>
<polygon fill="white" stroke="white" points="-4,5 -4,-256 431,-256 431,5 -4,5"/>
<!-- Node1 -->
<g id="node1" class="node"><title>Node1</title>
<polygon fill="#bfbfbf" stroke="black" points="136.5,-0.5 136.5,-21.5 247.5,-21.5 247.5,-0.5 136.5,-0.5"/>
<text text-anchor="middle" x="192" y="-8.5" font-family="Helvetica,sans-Serif" font-size="10.00">fwMemory::BufferInfo</text>
</g>
<!-- Node2 -->
<g id="node2" class="node"><title>Node2</title>
<a xlink:href="classfwCore_1_1LogicStamp.html" target="_top" xlink:title="Provides a Logical timestamp system. ">
<polygon fill="white" stroke="black" points="12,-72.5 12,-93.5 118,-93.5 118,-72.5 12,-72.5"/>
<text text-anchor="middle" x="65" y="-80.5" font-family="Helvetica,sans-Serif" font-size="10.00">fwCore::LogicStamp</text>
</a>
</g>
<!-- Node2&#45;&gt;Node1 -->
<g id="edge2" class="edge"><title>Node2&#45;&gt;Node1</title>
<path fill="none" stroke="#9a32cd" stroke-dasharray="5,2" d="M90.4319,-67.0336C103.857,-58.7491 120.682,-48.5922 136,-40 147.363,-33.6261 160.263,-26.9117 170.815,-21.5505"/>
<polygon fill="#9a32cd" stroke="#9a32cd" points="88.3919,-64.1804 81.741,-72.4276 92.0833,-70.128 88.3919,-64.1804"/>
<text text-anchor="middle" x="162" y="-44.5" font-family="Helvetica,sans-Serif" font-size="10.00"> lastAccess</text>
</g>
<!-- Node3 -->
<g id="node4" class="node"><title>Node3</title>
<a xlink:href="classfwCore_1_1BaseObject.html" target="_top" xlink:title="Base class for all FW4SPL&#39;s classes. ">
<polygon fill="white" stroke="black" points="12.5,-144.5 12.5,-165.5 117.5,-165.5 117.5,-144.5 12.5,-144.5"/>
<text text-anchor="middle" x="65" y="-152.5" font-family="Helvetica,sans-Serif" font-size="10.00">fwCore::BaseObject</text>
</a>
</g>
<!-- Node3&#45;&gt;Node2 -->
<g id="edge4" class="edge"><title>Node3&#45;&gt;Node2</title>
<path fill="none" stroke="midnightblue" d="M65,-134.235C65,-120.969 65,-104.319 65,-93.6674"/>
<polygon fill="midnightblue" stroke="midnightblue" points="61.5001,-134.376 65,-144.376 68.5001,-134.376 61.5001,-134.376"/>
</g>
<!-- Node4 -->
<g id="node6" class="node"><title>Node4</title>
<polygon fill="white" stroke="#bfbfbf" points="-0.5,-217 -0.5,-251 130.5,-251 130.5,-217 -0.5,-217"/>
<text text-anchor="start" x="7.5" y="-238" font-family="Helvetica,sans-Serif" font-size="10.00">std::enable_shared</text>
<text text-anchor="middle" x="65" y="-225" font-family="Helvetica,sans-Serif" font-size="10.00">_from_this&lt; BaseObject &gt;</text>
</g>
<!-- Node4&#45;&gt;Node3 -->
<g id="edge6" class="edge"><title>Node4&#45;&gt;Node3</title>
<path fill="none" stroke="midnightblue" d="M65,-206.623C65,-192.473 65,-176.024 65,-165.567"/>
<polygon fill="midnightblue" stroke="midnightblue" points="61.5001,-206.858 65,-216.858 68.5001,-206.858 61.5001,-206.858"/>
</g>
<!-- Node5 -->
<g id="node8" class="node"><title>Node5</title>
<a xlink:href="classfwMemory_1_1FileHolder.html" target="_top" xlink:title="fwMemory::FileHolder">
<polygon fill="white" stroke="black" points="135.5,-72.5 135.5,-93.5 248.5,-93.5 248.5,-72.5 135.5,-72.5"/>
<text text-anchor="middle" x="192" y="-80.5" font-family="Helvetica,sans-Serif" font-size="10.00">fwMemory::FileHolder</text>
</a>
</g>
<!-- Node5&#45;&gt;Node1 -->
<g id="edge8" class="edge"><title>Node5&#45;&gt;Node1</title>
<path fill="none" stroke="#9a32cd" stroke-dasharray="5,2" d="M192,-62.2348C192,-48.969 192,-32.3188 192,-21.6674"/>
<polygon fill="#9a32cd" stroke="#9a32cd" points="188.5,-62.3761 192,-72.3762 195.5,-62.3762 188.5,-62.3761"/>
<text text-anchor="middle" x="206" y="-44.5" font-family="Helvetica,sans-Serif" font-size="10.00"> fsFile</text>
</g>
<!-- Node6 -->
<g id="node10" class="node"><title>Node6</title>
<polygon fill="white" stroke="#bfbfbf" points="266,-72.5 266,-93.5 378,-93.5 378,-72.5 266,-72.5"/>
<text text-anchor="middle" x="322" y="-80.5" font-family="Helvetica,sans-Serif" font-size="10.00">std::weak_ptr&lt; void &gt;</text>
</g>
<!-- Node6&#45;&gt;Node1 -->
<g id="edge10" class="edge"><title>Node6&#45;&gt;Node1</title>
<path fill="none" stroke="#9a32cd" stroke-dasharray="5,2" d="M293.832,-67.3994C268.869,-53.5738 233.089,-33.7568 211.261,-21.6674"/>
<polygon fill="#9a32cd" stroke="#9a32cd" points="292.374,-70.5929 302.818,-72.3762 295.766,-64.4693 292.374,-70.5929"/>
<text text-anchor="middle" x="297" y="-44.5" font-family="Helvetica,sans-Serif" font-size="10.00"> lockCounter</text>
</g>
<!-- Node7 -->
<g id="node12" class="node"><title>Node7</title>
<polygon fill="white" stroke="#bfbfbf" points="273.5,-144.5 273.5,-165.5 308.5,-165.5 308.5,-144.5 273.5,-144.5"/>
<text text-anchor="middle" x="291" y="-152.5" font-family="Helvetica,sans-Serif" font-size="10.00">void</text>
</g>
<!-- Node7&#45;&gt;Node6 -->
<g id="edge12" class="edge"><title>Node7&#45;&gt;Node6</title>
<path fill="none" stroke="#9a32cd" stroke-dasharray="5,2" d="M299.6,-135.027C305.364,-121.637 312.729,-104.532 317.407,-93.6674"/>
<polygon fill="#9a32cd" stroke="#9a32cd" points="296.314,-133.807 295.574,-144.376 302.743,-136.575 296.314,-133.807"/>
<text text-anchor="middle" x="317.5" y="-116.5" font-family="Helvetica,sans-Serif" font-size="10.00"> ptr</text>
</g>
<!-- Node8 -->
<g id="node14" class="node"><title>Node8</title>
<a xlink:title="STL class. ">
<polygon fill="white" stroke="#bfbfbf" points="326,-144.5 326,-165.5 426,-165.5 426,-144.5 326,-144.5"/>
<text text-anchor="middle" x="376" y="-152.5" font-family="Helvetica,sans-Serif" font-size="10.00">std::weak_ptr&lt; T &gt;</text>
</a>
</g>
<!-- Node8&#45;&gt;Node6 -->
<g id="edge14" class="edge"><title>Node8&#45;&gt;Node6</title>
<path fill="none" stroke="orange" stroke-dasharray="5,2" d="M361.899,-136.198C351.737,-122.649 338.389,-104.851 330.001,-93.6674"/>
<polygon fill="orange" stroke="orange" points="359.232,-138.476 368.032,-144.376 364.832,-134.276 359.232,-138.476"/>
<text text-anchor="middle" x="373" y="-116.5" font-family="Helvetica,sans-Serif" font-size="10.00"> &lt; void &gt;</text>
</g>
<!-- Node9 -->
<g id="node16" class="node"><title>Node9</title>
<polygon fill="white" stroke="#bfbfbf" points="361.5,-223.5 361.5,-244.5 390.5,-244.5 390.5,-223.5 361.5,-223.5"/>
<text text-anchor="middle" x="376" y="-231.5" font-family="Helvetica,sans-Serif" font-size="10.00">T</text>
</g>
<!-- Node9&#45;&gt;Node8 -->
<g id="edge16" class="edge"><title>Node9&#45;&gt;Node8</title>
<path fill="none" stroke="#9a32cd" stroke-dasharray="5,2" d="M376,-213.284C376,-198.031 376,-177.907 376,-165.738"/>
<polygon fill="#9a32cd" stroke="#9a32cd" points="372.5,-213.346 376,-223.346 379.5,-213.346 372.5,-213.346"/>
<text text-anchor="middle" x="383.5" y="-188.5" font-family="Helvetica,sans-Serif" font-size="10.00"> ptr</text>
</g>
</g>
</svg>
