<?xml version="1.0" encoding="UTF-8" standalone="no"?>
<!DOCTYPE svg PUBLIC "-//W3C//DTD SVG 1.1//EN"
 "http://www.w3.org/Graphics/SVG/1.1/DTD/svg11.dtd">
<!-- Generated by graphviz version 2.36.0 (20140111.2315)
 -->
<!-- Title: curfile64_info Pages: 1 -->
<svg width="151pt" height="150pt"
 viewBox="0.00 0.00 151.00 150.00" xmlns="http://www.w3.org/2000/svg" xmlns:xlink="http://www.w3.org/1999/xlink">
<g id="graph0" class="graph" transform="scale(1 1) rotate(0) translate(4 146)">
<title>curfile64_info</title>
<polygon fill="white" stroke="none" points="-4,4 -4,-146 147,-146 147,4 -4,4"/>
<!-- Node1 -->
<g id="node1" class="node"><title>Node1</title>
<polygon fill="#bfbfbf" stroke="black" points="0,-0.5 0,-19.5 74,-19.5 74,-0.5 0,-0.5"/>
<text text-anchor="middle" x="37" y="-7.5" font-family="Helvetica,sans-Serif" font-size="10.00">curfile64_info</text>
</g>
<!-- Node2 -->
<g id="node2" class="node"><title>Node2</title>
<polygon fill="white" stroke="#bfbfbf" points="19.5,-122.5 19.5,-141.5 54.5,-141.5 54.5,-122.5 19.5,-122.5"/>
<text text-anchor="middle" x="37" y="-129.5" font-family="Helvetica,sans-Serif" font-size="10.00">long</text>
</g>
<!-- Node2&#45;&gt;Node1 -->
<g id="edge1" class="edge"><title>Node2&#45;&gt;Node1</title>
<path fill="none" stroke="#9a32cd" stroke-dasharray="5,2" d="M37,-112.145C37,-85.7231 37,-38.7637 37,-19.5519"/>
<polygon fill="#9a32cd" stroke="#9a32cd" points="33.5001,-112.37 37,-122.37 40.5001,-112.37 33.5001,-112.37"/>
<text text-anchor="middle" x="90" y="-96" font-family="Helvetica,sans-Serif" font-size="10.00"> keys</text>
<text text-anchor="middle" x="90" y="-85" font-family="Helvetica,sans-Serif" font-size="10.00">pos_zip64extrainfo</text>
<text text-anchor="middle" x="90" y="-74" font-family="Helvetica,sans-Serif" font-size="10.00">totalUncompressedData</text>
<text text-anchor="middle" x="90" y="-63" font-family="Helvetica,sans-Serif" font-size="10.00">pos_local_header</text>
<text text-anchor="middle" x="90" y="-52" font-family="Helvetica,sans-Serif" font-size="10.00">pcrc_32_tab</text>
<text text-anchor="middle" x="90" y="-41" font-family="Helvetica,sans-Serif" font-size="10.00">totalCompressedData</text>
</g>
</g>
</svg>
