<?xml version="1.0" encoding="UTF-8" standalone="no"?>
<!DOCTYPE svg PUBLIC "-//W3C//DTD SVG 1.1//EN"
 "http://www.w3.org/Graphics/SVG/1.1/DTD/svg11.dtd">
<!-- Generated by graphviz version 2.36.0 (20140111.2315)
 -->
<!-- Title: Options Pages: 1 -->
<svg width="256pt" height="244pt"
 viewBox="0.00 0.00 256.00 244.00" xmlns="http://www.w3.org/2000/svg" xmlns:xlink="http://www.w3.org/1999/xlink">
<g id="graph0" class="graph" transform="scale(1 1) rotate(0) translate(4 240)">
<title>Options</title>
<polygon fill="white" stroke="none" points="-4,4 -4,-240 252,-240 252,4 -4,4"/>
<!-- Node1 -->
<g id="node1" class="node"><title>Node1</title>
<polygon fill="#bfbfbf" stroke="black" points="122,-0.5 122,-19.5 172,-19.5 172,-0.5 122,-0.5"/>
<text text-anchor="middle" x="147" y="-7.5" font-family="Helvetica,sans-Serif" font-size="10.00">Options</text>
</g>
<!-- Node2 -->
<g id="node2" class="node"><title>Node2</title>
<g id="a_node2"><a xlink:title="STL class. ">
<polygon fill="white" stroke="#bfbfbf" points="132,-136.5 132,-155.5 192,-155.5 192,-136.5 132,-136.5"/>
<text text-anchor="middle" x="162" y="-143.5" font-family="Helvetica,sans-Serif" font-size="10.00">std::string</text>
</a>
</g>
</g>
<!-- Node2&#45;&gt;Node1 -->
<g id="edge1" class="edge"><title>Node2&#45;&gt;Node1</title>
<path fill="none" stroke="#9a32cd" stroke-dasharray="5,2" d="M171.845,-127.402C173.15,-124.35 174.282,-121.145 175,-118 182.911,-83.3356 188.905,-70.724 175,-38 171.884,-30.666 165.691,-24.3566 159.921,-19.6853"/>
<polygon fill="#9a32cd" stroke="#9a32cd" points="168.705,-125.856 167.389,-136.369 174.974,-128.972 168.705,-125.856"/>
<text text-anchor="middle" x="216" y="-75.5" font-family="Helvetica,sans-Serif" font-size="10.00"> xmlReportFile</text>
</g>
<!-- Node4 -->
<g id="node4" class="node"><title>Node4</title>
<polygon fill="white" stroke="#bfbfbf" points="27.5,-68.5 27.5,-87.5 152.5,-87.5 152.5,-68.5 27.5,-68.5"/>
<text text-anchor="middle" x="90" y="-75.5" font-family="Helvetica,sans-Serif" font-size="10.00">std::vector&lt; std::string &gt;</text>
</g>
<!-- Node2&#45;&gt;Node4 -->
<g id="edge4" class="edge"><title>Node2&#45;&gt;Node4</title>
<path fill="none" stroke="#9a32cd" stroke-dasharray="5,2" d="M144.701,-129.514C140.531,-125.758 136.097,-121.745 132,-118 120.69,-107.661 107.789,-95.6476 99.3031,-87.7161"/>
<polygon fill="#9a32cd" stroke="#9a32cd" points="142.459,-132.205 152.238,-136.283 147.137,-126.997 142.459,-132.205"/>
<text text-anchor="middle" x="153.5" y="-109.5" font-family="Helvetica,sans-Serif" font-size="10.00"> elements</text>
</g>
<!-- Node3 -->
<g id="node3" class="node"><title>Node3</title>
<g id="a_node3"><a xlink:title="STL class. ">
<polygon fill="white" stroke="#bfbfbf" points="114.5,-205 114.5,-235 209.5,-235 209.5,-205 114.5,-205"/>
<text text-anchor="start" x="122.5" y="-223" font-family="Helvetica,sans-Serif" font-size="10.00">std::basic_string&lt;</text>
<text text-anchor="middle" x="162" y="-212" font-family="Helvetica,sans-Serif" font-size="10.00"> char &gt;</text>
</a>
</g>
</g>
<!-- Node3&#45;&gt;Node2 -->
<g id="edge2" class="edge"><title>Node3&#45;&gt;Node2</title>
<path fill="none" stroke="midnightblue" d="M162,-194.688C162,-181.253 162,-165.38 162,-155.759"/>
<polygon fill="midnightblue" stroke="midnightblue" points="158.5,-194.775 162,-204.775 165.5,-194.775 158.5,-194.775"/>
</g>
<!-- Node4&#45;&gt;Node1 -->
<g id="edge3" class="edge"><title>Node4&#45;&gt;Node1</title>
<path fill="none" stroke="#9a32cd" stroke-dasharray="5,2" d="M102.139,-60.2436C107.426,-53.208 113.818,-45.0409 120,-38 125.599,-31.6238 132.349,-24.8738 137.699,-19.7178"/>
<polygon fill="#9a32cd" stroke="#9a32cd" points="99.2554,-58.2564 96.1318,-68.3803 104.887,-62.414 99.2554,-58.2564"/>
<text text-anchor="middle" x="147.5" y="-41.5" font-family="Helvetica,sans-Serif" font-size="10.00"> testsToRun</text>
</g>
<!-- Node5 -->
<g id="node5" class="node"><title>Node5</title>
<g id="a_node5"><a xlink:title="STL class. ">
<polygon fill="white" stroke="#bfbfbf" points="-0.5,-136.5 -0.5,-155.5 86.5,-155.5 86.5,-136.5 -0.5,-136.5"/>
<text text-anchor="middle" x="43" y="-143.5" font-family="Helvetica,sans-Serif" font-size="10.00">std::vector&lt; T &gt;</text>
</a>
</g>
</g>
<!-- Node5&#45;&gt;Node4 -->
<g id="edge5" class="edge"><title>Node5&#45;&gt;Node4</title>
<path fill="none" stroke="orange" stroke-dasharray="5,2" d="M39.8355,-125.945C39.6326,-119.238 40.5175,-111.905 44,-106 48.798,-97.864 57.0752,-91.9251 65.2974,-87.724"/>
<polygon fill="orange" stroke="orange" points="36.3971,-126.71 40.9376,-136.282 43.3576,-125.968 36.3971,-126.71"/>
<text text-anchor="middle" x="76.5" y="-109.5" font-family="Helvetica,sans-Serif" font-size="10.00"> &lt; std::string &gt;</text>
</g>
<!-- Node6 -->
<g id="node6" class="node"><title>Node6</title>
<polygon fill="white" stroke="#bfbfbf" points="28.5,-210.5 28.5,-229.5 57.5,-229.5 57.5,-210.5 28.5,-210.5"/>
<text text-anchor="middle" x="43" y="-217.5" font-family="Helvetica,sans-Serif" font-size="10.00">T</text>
</g>
<!-- Node6&#45;&gt;Node5 -->
<g id="edge6" class="edge"><title>Node6&#45;&gt;Node5</title>
<path fill="none" stroke="#9a32cd" stroke-dasharray="5,2" d="M43,-200.156C43,-185.712 43,-166.459 43,-155.531"/>
<polygon fill="#9a32cd" stroke="#9a32cd" points="39.5001,-200.458 43,-210.458 46.5001,-200.458 39.5001,-200.458"/>
<text text-anchor="middle" x="64.5" y="-177.5" font-family="Helvetica,sans-Serif" font-size="10.00"> elements</text>
</g>
</g>
</svg>
