<?xml version="1.0" encoding="UTF-8" standalone="no"?>
<!DOCTYPE svg PUBLIC "-//W3C//DTD SVG 1.1//EN"
 "http://www.w3.org/Graphics/SVG/1.1/DTD/svg11.dtd">
<!-- Generated by graphviz version 2.26.3 (20100126.1600)
 -->
<!-- Title: cmCAPI Pages: 1 -->
<svg width="173pt" height="232pt"
 viewBox="0.00 0.00 173.00 232.00" xmlns="http://www.w3.org/2000/svg" xmlns:xlink="http://www.w3.org/1999/xlink">
<g id="graph1" class="graph" transform="scale(1 1) rotate(0) translate(4 228)">
<title>cmCAPI</title>
<polygon fill="white" stroke="white" points="-4,5 -4,-228 170,-228 170,5 -4,5"/>
<!-- Node1 -->
<g id="node1" class="node"><title>Node1</title>
<polygon fill="#bfbfbf" stroke="black" points="0,-0.5 0,-21.5 54,-21.5 54,-0.5 0,-0.5"/>
<text text-anchor="middle" x="27" y="-8.5" font-family="Helvetica,sans-Serif" font-size="10.00">cmCAPI</text>
</g>
<!-- Node2 -->
<g id="node2" class="node"><title>Node2</title>
<polygon fill="white" stroke="#bfbfbf" points="9.5,-202.5 9.5,-223.5 44.5,-223.5 44.5,-202.5 9.5,-202.5"/>
<text text-anchor="middle" x="27" y="-210.5" font-family="Helvetica,sans-Serif" font-size="10.00">void</text>
</g>
<!-- Node2&#45;&gt;Node1 -->
<g id="edge2" class="edge"><title>Node2&#45;&gt;Node1</title>
<path fill="none" stroke="#9a32cd" stroke-dasharray="5,2" d="M27,-192.158C27,-149.662 27,-54.2937 27,-21.9612"/>
<polygon fill="#9a32cd" stroke="#9a32cd" points="23.5001,-192.424 27,-202.424 30.5001,-192.424 23.5001,-192.424"/>
<text text-anchor="middle" x="96" y="-174.5" font-family="Helvetica,sans-Serif" font-size="10.00"> SourceFileAddDepend</text>
<text text-anchor="middle" x="96" y="-161.5" font-family="Helvetica,sans-Serif" font-size="10.00">SourceFileSetName2</text>
<text text-anchor="middle" x="96" y="-148.5" font-family="Helvetica,sans-Serif" font-size="10.00">AddLinkLibraryForTarget</text>
<text text-anchor="middle" x="96" y="-135.5" font-family="Helvetica,sans-Serif" font-size="10.00">CreateNewSourceFile</text>
<text text-anchor="middle" x="96" y="-122.5" font-family="Helvetica,sans-Serif" font-size="10.00">CopyFileIfDifferent</text>
<text text-anchor="middle" x="96" y="-109.5" font-family="Helvetica,sans-Serif" font-size="10.00">GetSource</text>
<text text-anchor="middle" x="96" y="-96.5" font-family="Helvetica,sans-Serif" font-size="10.00">AddCustomCommandToOutput</text>
<text text-anchor="middle" x="96" y="-83.5" font-family="Helvetica,sans-Serif" font-size="10.00">ExpandSourceListArguments</text>
<text text-anchor="middle" x="96" y="-70.5" font-family="Helvetica,sans-Serif" font-size="10.00">RemoveFile</text>
<text text-anchor="middle" x="96" y="-57.5" font-family="Helvetica,sans-Serif" font-size="10.00">SetClientData</text>
<text text-anchor="middle" x="96" y="-44.5" font-family="Helvetica,sans-Serif" font-size="10.00">...</text>
</g>
</g>
</svg>
