<?xml version="1.0" encoding="UTF-8" standalone="no"?>
<!DOCTYPE svg PUBLIC "-//W3C//DTD SVG 1.1//EN"
 "http://www.w3.org/Graphics/SVG/1.1/DTD/svg11.dtd">
<!-- Generated by graphviz version 2.36.0 (20140111.2315)
 -->
<!-- Title: fwRuntime::ConfigurationElement Pages: 1 -->
<svg width="346pt" height="87pt"
 viewBox="0.00 0.00 346.00 87.00" xmlns="http://www.w3.org/2000/svg" xmlns:xlink="http://www.w3.org/1999/xlink">
<g id="graph0" class="graph" transform="scale(1 1) rotate(0) translate(4 83)">
<title>fwRuntime::ConfigurationElement</title>
<polygon fill="white" stroke="none" points="-4,4 -4,-83 342,-83 342,4 -4,4"/>
<!-- Node1 -->
<g id="node1" class="node"><title>Node1</title>
<polygon fill="#bfbfbf" stroke="black" points="210,-24 210,-54 338,-54 338,-24 210,-24"/>
<text text-anchor="start" x="218" y="-42" font-family="Helvetica,sans-Serif" font-size="10.00">fwRuntime::Configuration</text>
<text text-anchor="middle" x="274" y="-31" font-family="Helvetica,sans-Serif" font-size="10.00">Element</text>
</g>
<!-- Node2 -->
<g id="node2" class="node"><title>Node2</title>
<g id="a_node2"><a xlink:href="structfwRuntime_1_1ConfigurationElementContainer.html" target="_top" xlink:title="Defines the generic configuration element container class. ">
<polygon fill="white" stroke="black" points="23,-49 23,-79 151,-79 151,-49 23,-49"/>
<text text-anchor="start" x="31" y="-67" font-family="Helvetica,sans-Serif" font-size="10.00">fwRuntime::Configuration</text>
<text text-anchor="middle" x="87" y="-56" font-family="Helvetica,sans-Serif" font-size="10.00">ElementContainer</text>
</a>
</g>
</g>
<!-- Node2&#45;&gt;Node1 -->
<g id="edge1" class="edge"><title>Node2&#45;&gt;Node1</title>
<path fill="none" stroke="midnightblue" d="M161.062,-54.1268C177.184,-51.9482 194.13,-49.6581 209.822,-47.5376"/>
<polygon fill="midnightblue" stroke="midnightblue" points="160.59,-50.6586 151.149,-55.4663 161.528,-57.5955 160.59,-50.6586"/>
</g>
<!-- Node3 -->
<g id="node3" class="node"><title>Node3</title>
<polygon fill="white" stroke="#bfbfbf" points="0,-0 0,-30 174,-30 174,-0 0,-0"/>
<text text-anchor="start" x="8" y="-18" font-family="Helvetica,sans-Serif" font-size="10.00">std::enable_shared</text>
<text text-anchor="middle" x="87" y="-7" font-family="Helvetica,sans-Serif" font-size="10.00">_from_this&lt; ConfigurationElement &gt;</text>
</g>
<!-- Node3&#45;&gt;Node1 -->
<g id="edge2" class="edge"><title>Node3&#45;&gt;Node1</title>
<path fill="none" stroke="midnightblue" d="M183.925,-27.4443C192.714,-28.5845 201.462,-29.7194 209.851,-30.8077"/>
<polygon fill="midnightblue" stroke="midnightblue" points="184.368,-23.9726 174.001,-26.1569 183.467,-30.9144 184.368,-23.9726"/>
</g>
</g>
</svg>
