<?xml version="1.0" encoding="UTF-8" standalone="no"?>
<!DOCTYPE svg PUBLIC "-//W3C//DTD SVG 1.1//EN"
 "http://www.w3.org/Graphics/SVG/1.1/DTD/svg11.dtd">
<!-- Generated by graphviz version 2.36.0 (20140111.2315)
 -->
<!-- Title: zip64_internal Pages: 1 -->
<svg width="308pt" height="252pt"
 viewBox="0.00 0.00 308.00 252.00" xmlns="http://www.w3.org/2000/svg" xmlns:xlink="http://www.w3.org/1999/xlink">
<g id="graph0" class="graph" transform="scale(1 1) rotate(0) translate(4 248)">
<title>zip64_internal</title>
<polygon fill="white" stroke="none" points="-4,4 -4,-248 304,-248 304,4 -4,4"/>
<!-- Node1 -->
<g id="node1" class="node"><title>Node1</title>
<polygon fill="#bfbfbf" stroke="black" points="45.5,-0.5 45.5,-19.5 122.5,-19.5 122.5,-0.5 45.5,-0.5"/>
<text text-anchor="middle" x="84" y="-7.5" font-family="Helvetica,sans-Serif" font-size="10.00">zip64_internal</text>
</g>
<!-- Node2 -->
<g id="node2" class="node"><title>Node2</title>
<polygon fill="white" stroke="#bfbfbf" points="-0.5,-90.5 -0.5,-109.5 40.5,-109.5 40.5,-90.5 -0.5,-90.5"/>
<text text-anchor="middle" x="20" y="-97.5" font-family="Helvetica,sans-Serif" font-size="10.00">struct</text>
</g>
<!-- Node2&#45;&gt;Node1 -->
<g id="edge1" class="edge"><title>Node2&#45;&gt;Node1</title>
<path fill="none" stroke="#9a32cd" stroke-dasharray="5,2" d="M15.304,-80.143C13.2066,-67.2106 12.782,-50.2433 21,-38 26.7697,-29.4041 35.8939,-23.5325 45.4263,-19.5261"/>
<polygon fill="#9a32cd" stroke="#9a32cd" points="11.9425,-81.1695 17.4027,-90.2489 18.7962,-79.7461 11.9425,-81.1695"/>
<text text-anchor="middle" x="45.5" y="-52" font-family="Helvetica,sans-Serif" font-size="10.00"> central_dir</text>
<text text-anchor="middle" x="45.5" y="-41" font-family="Helvetica,sans-Serif" font-size="10.00">z_filefunc</text>
</g>
<!-- Node3 -->
<g id="node3" class="node"><title>Node3</title>
<polygon fill="white" stroke="#bfbfbf" points="109.5,-224.5 109.5,-243.5 144.5,-243.5 144.5,-224.5 109.5,-224.5"/>
<text text-anchor="middle" x="127" y="-231.5" font-family="Helvetica,sans-Serif" font-size="10.00">long</text>
</g>
<!-- Node3&#45;&gt;Node1 -->
<g id="edge2" class="edge"><title>Node3&#45;&gt;Node1</title>
<path fill="none" stroke="#9a32cd" stroke-dasharray="5,2" d="M120.04,-214.663C112.097,-192.902 99.3837,-155.361 93,-122 85.8052,-84.4007 84.356,-38.562 84.0687,-19.7213"/>
<polygon fill="#9a32cd" stroke="#9a32cd" points="116.837,-216.092 123.604,-224.244 123.398,-213.651 116.837,-216.092"/>
<text text-anchor="middle" x="135" y="-114" font-family="Helvetica,sans-Serif" font-size="10.00"> begin_pos</text>
<text text-anchor="middle" x="135" y="-103" font-family="Helvetica,sans-Serif" font-size="10.00">number_entry</text>
<text text-anchor="start" x="93" y="-92" font-family="Helvetica,sans-Serif" font-size="10.00">add_position_when</text>
<text text-anchor="middle" x="135" y="-81" font-family="Helvetica,sans-Serif" font-size="10.00">_writting_offset</text>
</g>
<!-- Node4 -->
<g id="node4" class="node"><title>Node4</title>
<g id="a_node4"><a xlink:href="structcurfile64__info.html" target="_top" xlink:title="curfile64_info">
<polygon fill="white" stroke="black" points="186,-90.5 186,-109.5 260,-109.5 260,-90.5 186,-90.5"/>
<text text-anchor="middle" x="223" y="-97.5" font-family="Helvetica,sans-Serif" font-size="10.00">curfile64_info</text>
</a>
</g>
</g>
<!-- Node3&#45;&gt;Node4 -->
<g id="edge4" class="edge"><title>Node3&#45;&gt;Node4</title>
<path fill="none" stroke="#9a32cd" stroke-dasharray="5,2" d="M139.245,-216.164C159.958,-187.683 201.18,-131.003 216.803,-109.521"/>
<polygon fill="#9a32cd" stroke="#9a32cd" points="136.35,-214.193 133.299,-224.339 142.011,-218.31 136.35,-214.193"/>
<text text-anchor="middle" x="247" y="-198" font-family="Helvetica,sans-Serif" font-size="10.00"> keys</text>
<text text-anchor="middle" x="247" y="-187" font-family="Helvetica,sans-Serif" font-size="10.00">pos_zip64extrainfo</text>
<text text-anchor="middle" x="247" y="-176" font-family="Helvetica,sans-Serif" font-size="10.00">totalUncompressedData</text>
<text text-anchor="middle" x="247" y="-165" font-family="Helvetica,sans-Serif" font-size="10.00">pos_local_header</text>
<text text-anchor="middle" x="247" y="-154" font-family="Helvetica,sans-Serif" font-size="10.00">pcrc_32_tab</text>
<text text-anchor="middle" x="247" y="-143" font-family="Helvetica,sans-Serif" font-size="10.00">totalCompressedData</text>
</g>
<!-- Node4&#45;&gt;Node1 -->
<g id="edge3" class="edge"><title>Node4&#45;&gt;Node1</title>
<path fill="none" stroke="#9a32cd" stroke-dasharray="5,2" d="M200.753,-84.9156C171.596,-66.4565 121.363,-34.654 97.4315,-19.5034"/>
<polygon fill="#9a32cd" stroke="#9a32cd" points="199.098,-88.01 209.419,-90.402 202.842,-82.0957 199.098,-88.01"/>
<text text-anchor="middle" x="163.5" y="-46.5" font-family="Helvetica,sans-Serif" font-size="10.00"> ci</text>
</g>
</g>
</svg>
