<?xml version="1.0" encoding="UTF-8" standalone="no"?>
<!DOCTYPE svg PUBLIC "-//W3C//DTD SVG 1.1//EN"
 "http://www.w3.org/Graphics/SVG/1.1/DTD/svg11.dtd">
<!-- Generated by graphviz version 2.26.3 (20100126.1600)
 -->
<!-- Title: fwMDSemanticPatch::V1::V2::fwData::runner Pages: 1 -->
<svg width="124pt" height="116pt"
 viewBox="0.00 0.00 124.00 116.00" xmlns="http://www.w3.org/2000/svg" xmlns:xlink="http://www.w3.org/1999/xlink">
<g id="graph1" class="graph" transform="scale(1 1) rotate(0) translate(4 112)">
<title>fwMDSemanticPatch::V1::V2::fwData::runner</title>
<polygon fill="white" stroke="white" points="-4,5 -4,-112 121,-112 121,5 -4,5"/>
<!-- Node1 -->
<g id="node1" class="node"><title>Node1</title>
<polygon fill="#bfbfbf" stroke="black" points="-0.5,-1 -0.5,-35 116.5,-35 116.5,-1 -0.5,-1"/>
<text text-anchor="start" x="7.5" y="-22" font-family="Helvetica,sans-Serif" font-size="10.00">fwMDSemanticPatch::</text>
<text text-anchor="middle" x="58" y="-9" font-family="Helvetica,sans-Serif" font-size="10.00">V1::V2::fwData::runner</text>
</g>
<!-- Node2 -->
<g id="node2" class="node"><title>Node2</title>
<polygon fill="white" stroke="#bfbfbf" points="37.5,-86.5 37.5,-107.5 78.5,-107.5 78.5,-86.5 37.5,-86.5"/>
<text text-anchor="middle" x="58" y="-94.5" font-family="Helvetica,sans-Serif" font-size="10.00">static</text>
</g>
<!-- Node2&#45;&gt;Node1 -->
<g id="edge2" class="edge"><title>Node2&#45;&gt;Node1</title>
<path fill="none" stroke="#9a32cd" stroke-dasharray="5,2" d="M58,-76.1618C58,-63.3635 58,-47.1713 58,-35.1236"/>
<polygon fill="#9a32cd" stroke="#9a32cd" points="54.5001,-76.3457 58,-86.3457 61.5001,-76.3457 54.5001,-76.3457"/>
<text text-anchor="middle" x="61.5" y="-58.5" font-family="Helvetica,sans-Serif" font-size="10.00"> r</text>
</g>
</g>
</svg>
