<?xml version="1.0" encoding="UTF-8" standalone="no"?>
<!DOCTYPE svg PUBLIC "-//W3C//DTD SVG 1.1//EN"
 "http://www.w3.org/Graphics/SVG/1.1/DTD/svg11.dtd">
<!-- Generated by graphviz version 2.26.3 (20100126.1600)
 -->
<!-- Title: fwRuntime::Runtime::findExtensionPoint Pages: 1 -->
<!--zoomable 238 -->
<svg id="main" version="1.1" xmlns="http://www.w3.org/2000/svg" xmlns:xlink="http://www.w3.org/1999/xlink" xml:space="preserve" onload="init(evt)">
<style type="text/css"><![CDATA[
.edge:hover path { stroke: red; }
.edge:hover polygon { stroke: red; fill: red; }
]]></style>
<script type="text/javascript"><![CDATA[
var edges = document.getElementsByTagName('g');
if (edges && edges.length) {
  for (var i=0;i<edges.length;i++) {
    if (edges[i].id.substr(0,4)=='edge') {
      edges[i].setAttribute('class','edge');
    }
  }
}
]]></script>
        <defs>
                <circle id="rim" cx="0" cy="0" r="7"/>
                <circle id="rim2" cx="0" cy="0" r="3.5"/>
                <g id="zoomPlus">
                        <use xlink:href="#rim" fill="#404040">
                                <set attributeName="fill" to="#808080" begin="zoomplus.mouseover" end="zoomplus.mouseout"/>
                        </use>
                        <path d="M-4,0h8M0,-4v8" fill="none" stroke="white" stroke-width="1.5" pointer-events="none"/>
                </g>
                <g id="zoomMin">
                        <use xlink:href="#rim" fill="#404040">
                                <set attributeName="fill" to="#808080" begin="zoomminus.mouseover" end="zoomminus.mouseout"/>
                        </use>
                        <path d="M-4,0h8" fill="none" stroke="white" stroke-width="1.5" pointer-events="none"/>
                </g>
                <g id="dirArrow">
                        <path fill="none" stroke="white" stroke-width="1.5" d="M0,-3.0v7 M-2.5,-0.5L0,-3.0L2.5,-0.5"/>
                </g>
               <g id="resetDef">
                       <use xlink:href="#rim2" fill="#404040">
                               <set attributeName="fill" to="#808080" begin="reset.mouseover" end="reset.mouseout"/>
                       </use>
               </g>
        </defs>

<script type="text/javascript">
var viewWidth = 658;
var viewHeight = 238;
var sectionId = 'dynsection-12';
</script>
<script xlink:href="svgpan.js"/>
<svg id="graph" class="graph">
<g id="viewport">
<title>fwRuntime::Runtime::findExtensionPoint</title>
<polygon fill="white" stroke="white" points="-4,5 -4,-234 655,-234 655,5 -4,5"/>
<!-- Node1 -->
<g id="node1" class="node"><title>Node1</title>
<polygon fill="#bfbfbf" stroke="black" points="0.5,-66 0.5,-100 107.5,-100 107.5,-66 0.5,-66"/>
<text text-anchor="start" x="8.5" y="-87" font-family="Helvetica,sans-Serif" font-size="10.00">fwRuntime::Runtime</text>
<text text-anchor="middle" x="54" y="-74" font-family="Helvetica,sans-Serif" font-size="10.00">::findExtensionPoint</text>
</g>
<!-- Node2 -->
<g id="node3" class="node"><title>Node2</title>
<a xlink:href="namespacefwRuntime.html#a4e8c51fcedecc056867d28ffc974f088" target="_top" xlink:title="Retrieves the extension point having the specified identifier. ">
<polygon fill="white" stroke="black" points="144.5,-92 144.5,-126 273.5,-126 273.5,-92 144.5,-92"/>
<text text-anchor="start" x="152.5" y="-113" font-family="Helvetica,sans-Serif" font-size="10.00">fwRuntime::findExtension</text>
<text text-anchor="middle" x="209" y="-100" font-family="Helvetica,sans-Serif" font-size="10.00">Point</text>
</a>
</g>
<!-- Node1&#45;&gt;Node2 -->
<g id="edge2" class="edge"><title>Node1&#45;&gt;Node2</title>
<path fill="none" stroke="midnightblue" d="M117.901,-93.7189C126.643,-95.1852 135.623,-96.6915 144.377,-98.16"/>
<polygon fill="midnightblue" stroke="midnightblue" points="118.218,-90.2232 107.776,-92.0206 117.06,-97.1267 118.218,-90.2232"/>
</g>
<!-- Node9 -->
<g id="node17" class="node"><title>Node9</title>
<a xlink:href="structfwRuntime_1_1Extension.html#af5d7f4b0e830fc62db9d80c438ff3510" target="_top" xlink:title="Validates the extension. ">
<polygon fill="white" stroke="black" points="152.5,-40 152.5,-74 265.5,-74 265.5,-40 152.5,-40"/>
<text text-anchor="start" x="160.5" y="-61" font-family="Helvetica,sans-Serif" font-size="10.00">fwRuntime::Extension</text>
<text text-anchor="middle" x="209" y="-48" font-family="Helvetica,sans-Serif" font-size="10.00">::validate</text>
</a>
</g>
<!-- Node1&#45;&gt;Node9 -->
<g id="edge16" class="edge"><title>Node1&#45;&gt;Node9</title>
<path fill="none" stroke="midnightblue" d="M117.743,-72.3077C129.236,-70.3797 141.146,-68.3819 152.419,-66.4911"/>
<polygon fill="midnightblue" stroke="midnightblue" points="117.06,-68.8733 107.776,-73.9794 118.218,-75.7768 117.06,-68.8733"/>
</g>
<!-- Node3 -->
<g id="node5" class="node"><title>Node3</title>
<a xlink:href="structfwRuntime_1_1Runtime.html#aa5a5a08171483605b6957c25938522b4" target="_top" xlink:title="Registers a new extension point. ">
<polygon fill="white" stroke="black" points="332.5,-196 332.5,-230 439.5,-230 439.5,-196 332.5,-196"/>
<text text-anchor="start" x="340.5" y="-217" font-family="Helvetica,sans-Serif" font-size="10.00">fwRuntime::Runtime</text>
<text text-anchor="middle" x="386" y="-204" font-family="Helvetica,sans-Serif" font-size="10.00">::addExtensionPoint</text>
</a>
</g>
<!-- Node2&#45;&gt;Node3 -->
<g id="edge4" class="edge"><title>Node2&#45;&gt;Node3</title>
<path fill="none" stroke="midnightblue" d="M234.971,-132.937C254.446,-149.881 282.392,-172.146 310,-187 317,-190.766 324.65,-194.144 332.315,-197.12"/>
<polygon fill="midnightblue" stroke="midnightblue" points="237.237,-130.269 227.426,-126.27 232.602,-135.515 237.237,-130.269"/>
</g>
<!-- Node4 -->
<g id="node7" class="node"><title>Node4</title>
<a xlink:href="namespacefwRuntime.html#ac4fd0055e73698aab71fb859aac1d01d" target="_top" xlink:title="Retrieves all configuration elements for the point having the specified identifier. ">
<polygon fill="white" stroke="black" points="310,-144 310,-178 462,-178 462,-144 310,-144"/>
<text text-anchor="start" x="318" y="-165" font-family="Helvetica,sans-Serif" font-size="10.00">fwRuntime::getAllConfiguration</text>
<text text-anchor="middle" x="386" y="-152" font-family="Helvetica,sans-Serif" font-size="10.00">ElementsForPoint</text>
</a>
</g>
<!-- Node2&#45;&gt;Node4 -->
<g id="edge6" class="edge"><title>Node2&#45;&gt;Node4</title>
<path fill="none" stroke="midnightblue" d="M276.747,-128.903C293.617,-133.859 311.555,-139.129 327.913,-143.935"/>
<polygon fill="midnightblue" stroke="midnightblue" points="277.538,-125.487 266.956,-126.027 275.564,-132.204 277.538,-125.487"/>
</g>
<!-- Node6 -->
<g id="node11" class="node"><title>Node6</title>
<a xlink:href="namespacefwRuntime.html#aae3562a1767fcae09be2942404cd3f68" target="_top" xlink:title="Retrieves all extensions for the point having the specified identifier. ">
<polygon fill="white" stroke="black" points="314.5,-92 314.5,-126 457.5,-126 457.5,-92 314.5,-92"/>
<text text-anchor="start" x="322.5" y="-113" font-family="Helvetica,sans-Serif" font-size="10.00">fwRuntime::getAllExtensions</text>
<text text-anchor="middle" x="386" y="-100" font-family="Helvetica,sans-Serif" font-size="10.00">ForPoint</text>
</a>
</g>
<!-- Node2&#45;&gt;Node6 -->
<g id="edge10" class="edge"><title>Node2&#45;&gt;Node6</title>
<path fill="none" stroke="midnightblue" d="M283.701,-109C293.853,-109 304.253,-109 314.349,-109"/>
<polygon fill="midnightblue" stroke="midnightblue" points="283.652,-105.5 273.652,-109 283.652,-112.5 283.652,-105.5"/>
</g>
<!-- Node7 -->
<g id="node13" class="node"><title>Node7</title>
<a xlink:href="namespacefwRuntime.html#a5e781482e84f1c0a382d3491d5be7cc6" target="_top" xlink:title="Get information for the point. ">
<polygon fill="white" stroke="black" points="317.5,-52.5 317.5,-73.5 454.5,-73.5 454.5,-52.5 317.5,-52.5"/>
<text text-anchor="middle" x="386" y="-60.5" font-family="Helvetica,sans-Serif" font-size="10.00">fwRuntime::getInfoForPoint</text>
</a>
</g>
<!-- Node2&#45;&gt;Node7 -->
<g id="edge12" class="edge"><title>Node2&#45;&gt;Node7</title>
<path fill="none" stroke="midnightblue" d="M283.617,-89.608C304.804,-84.1017 327.08,-78.3125 345.423,-73.5453"/>
<polygon fill="midnightblue" stroke="midnightblue" points="282.451,-86.2948 273.652,-92.1977 284.211,-93.0698 282.451,-86.2948"/>
</g>
<!-- Node8 -->
<g id="node15" class="node"><title>Node8</title>
<a xlink:href="structfwRuntime_1_1Runtime.html#a846630c053b019b485d642b94f41ba63" target="_top" xlink:title="Unregister a new extension point. ">
<polygon fill="white" stroke="black" points="320.5,-0 320.5,-34 451.5,-34 451.5,-0 320.5,-0"/>
<text text-anchor="start" x="328.5" y="-21" font-family="Helvetica,sans-Serif" font-size="10.00">fwRuntime::Runtime</text>
<text text-anchor="middle" x="386" y="-8" font-family="Helvetica,sans-Serif" font-size="10.00">::unregisterExtensionPoint</text>
</a>
</g>
<!-- Node2&#45;&gt;Node8 -->
<g id="edge14" class="edge"><title>Node2&#45;&gt;Node8</title>
<path fill="none" stroke="midnightblue" d="M268.08,-86.8242C270.116,-85.6025 272.097,-84.328 274,-83 293.614,-69.3132 290.044,-56.1834 310,-43 315.12,-39.6179 320.724,-36.6303 326.497,-34.0016"/>
<polygon fill="midnightblue" stroke="midnightblue" points="265.972,-83.9866 258.865,-91.8437 269.32,-90.1338 265.972,-83.9866"/>
</g>
<!-- Node5 -->
<g id="node9" class="node"><title>Node5</title>
<a xlink:href="namespacefwRuntime.html#a414afe8d935fb9850db10e3f185b664f" target="_top" xlink:title="Retrieves all configuration elements for the point having the specified identifier. ">
<polygon fill="white" stroke="black" points="498,-144 498,-178 650,-178 650,-144 498,-144"/>
<text text-anchor="start" x="506" y="-165" font-family="Helvetica,sans-Serif" font-size="10.00">fwRuntime::getAllConfiguration</text>
<text text-anchor="middle" x="574" y="-152" font-family="Helvetica,sans-Serif" font-size="10.00">ElementsForPoint</text>
</a>
</g>
<!-- Node4&#45;&gt;Node5 -->
<g id="edge8" class="edge"><title>Node4&#45;&gt;Node5</title>
<path fill="none" stroke="midnightblue" d="M472.424,-161C480.857,-161 489.372,-161 497.696,-161"/>
<polygon fill="midnightblue" stroke="midnightblue" points="472.196,-157.5 462.196,-161 472.196,-164.5 472.196,-157.5"/>
</g>
</g>
</svg>
        <g id="navigator" transform="translate(0 0)" fill="#404254">
                <rect fill="#f2f5e9" fill-opacity="0.5" stroke="#606060" stroke-width=".5" x="0" y="0" width="60" height="60"/>
                <use id="zoomplus" xlink:href="#zoomPlus" x="17" y="9" onmousedown="handleZoom(evt,'in')"/>
                <use id="zoomminus" xlink:href="#zoomMin" x="42" y="9" onmousedown="handleZoom(evt,'out')"/>
                <use id="reset" xlink:href="#resetDef" x="30" y="36" onmousedown="handleReset()"/>
                <g id="arrowUp" xlink:href="#dirArrow" transform="translate(30 24)" onmousedown="handlePan(0,-1)">
                  <use xlink:href="#rim" fill="#404040">
                        <set attributeName="fill" to="#808080" begin="arrowUp.mouseover" end="arrowUp.mouseout"/>
                  </use>
                  <path fill="none" stroke="white" stroke-width="1.5" d="M0,-3.0v7 M-2.5,-0.5L0,-3.0L2.5,-0.5"/>
                </g>
                <g id="arrowRight" xlink:href="#dirArrow" transform="rotate(90) translate(36 -43)" onmousedown="handlePan(1,0)">
                  <use xlink:href="#rim" fill="#404040">
                        <set attributeName="fill" to="#808080" begin="arrowRight.mouseover" end="arrowRight.mouseout"/>
                  </use>
                  <path fill="none" stroke="white" stroke-width="1.5" d="M0,-3.0v7 M-2.5,-0.5L0,-3.0L2.5,-0.5"/>
                </g>
                <g id="arrowDown" xlink:href="#dirArrow" transform="rotate(180) translate(-30 -48)" onmousedown="handlePan(0,1)">
                  <use xlink:href="#rim" fill="#404040">
                        <set attributeName="fill" to="#808080" begin="arrowDown.mouseover" end="arrowDown.mouseout"/>
                  </use>
                  <path fill="none" stroke="white" stroke-width="1.5" d="M0,-3.0v7 M-2.5,-0.5L0,-3.0L2.5,-0.5"/>
                </g>
                <g id="arrowLeft" xlink:href="#dirArrow" transform="rotate(270) translate(-36 17)" onmousedown="handlePan(-1,0)">
                  <use xlink:href="#rim" fill="#404040">
                        <set attributeName="fill" to="#808080" begin="arrowLeft.mouseover" end="arrowLeft.mouseout"/>
                  </use>
                  <path fill="none" stroke="white" stroke-width="1.5" d="M0,-3.0v7 M-2.5,-0.5L0,-3.0L2.5,-0.5"/>
                </g>
        </g>
        <svg viewBox="0 0 15 15" width="100%" height="30px" preserveAspectRatio="xMaxYMin meet">
         <g id="arrow_out" transform="scale(0.3 0.3)">
          <a xlink:href="structfwRuntime_1_1Runtime_a27bf9d08addb51435e096654c099da53_icgraph_org.svg" target="_base">
           <rect id="button" ry="5" rx="5" y="6" x="6" height="38" width="38"
                fill="#f2f5e9" fill-opacity="0.5" stroke="#606060" stroke-width="1.0"/>
           <path id="arrow"
             d="M 11.500037,31.436501 C 11.940474,20.09759 22.043105,11.32322 32.158766,21.979434 L 37.068811,17.246167 C 37.068811,17.246167 37.088388,32 37.088388,32 L 22.160133,31.978069 C 22.160133,31.978069 26.997745,27.140456 26.997745,27.140456 C 18.528582,18.264221 13.291696,25.230495 11.500037,31.436501 z"
             style="fill:#404040;"/>
          </a>
         </g>
        </svg>
</svg>
