<?xml version="1.0" encoding="UTF-8" standalone="no"?>
<!DOCTYPE svg PUBLIC "-//W3C//DTD SVG 1.1//EN"
 "http://www.w3.org/Graphics/SVG/1.1/DTD/svg11.dtd">
<!-- Generated by graphviz version 2.36.0 (20140111.2315)
 -->
<!-- Title: fwData::Landmarks::LandmarksGroup Pages: 1 -->
<svg width="307pt" height="328pt"
 viewBox="0.00 0.00 307.00 328.00" xmlns="http://www.w3.org/2000/svg" xmlns:xlink="http://www.w3.org/1999/xlink">
<g id="graph0" class="graph" transform="scale(1 1) rotate(0) translate(4 324)">
<title>fwData::Landmarks::LandmarksGroup</title>
<polygon fill="white" stroke="none" points="-4,4 -4,-324 303,-324 303,4 -4,4"/>
<!-- Node1 -->
<g id="node1" class="node"><title>Node1</title>
<polygon fill="#bfbfbf" stroke="black" points="37,-1 37,-31 145,-31 145,-1 37,-1"/>
<text text-anchor="start" x="45" y="-19" font-family="Helvetica,sans-Serif" font-size="10.00">fwData::Landmarks::</text>
<text text-anchor="middle" x="91" y="-8" font-family="Helvetica,sans-Serif" font-size="10.00">LandmarksGroup</text>
</g>
<!-- Node2 -->
<g id="node2" class="node"><title>Node2</title>
<polygon fill="white" stroke="#bfbfbf" points="0,-118.5 0,-137.5 106,-137.5 106,-118.5 0,-118.5"/>
<text text-anchor="middle" x="53" y="-125.5" font-family="Helvetica,sans-Serif" font-size="10.00">std::array&lt; float, 4 &gt;</text>
</g>
<!-- Node2&#45;&gt;Node1 -->
<g id="edge1" class="edge"><title>Node2&#45;&gt;Node1</title>
<path fill="none" stroke="#9a32cd" stroke-dasharray="5,2" d="M55.5165,-108.283C56.9587,-99.5629 59.0748,-89.1226 62,-80 67.5883,-62.5723 76.7642,-43.63 83.2972,-31.1157"/>
<polygon fill="#9a32cd" stroke="#9a32cd" points="52.054,-107.773 54.0397,-118.18 58.9773,-108.806 52.054,-107.773"/>
<text text-anchor="middle" x="81" y="-87.5" font-family="Helvetica,sans-Serif" font-size="10.00"> m_color</text>
</g>
<!-- Node3 -->
<g id="node3" class="node"><title>Node3</title>
<g id="a_node3"><a xlink:title="STL class. ">
<polygon fill="white" stroke="#bfbfbf" points="87,-232.5 87,-251.5 169,-251.5 169,-232.5 87,-232.5"/>
<text text-anchor="middle" x="128" y="-239.5" font-family="Helvetica,sans-Serif" font-size="10.00">std::array&lt; T &gt;</text>
</a>
</g>
</g>
<!-- Node3&#45;&gt;Node2 -->
<g id="edge2" class="edge"><title>Node3&#45;&gt;Node2</title>
<path fill="none" stroke="orange" stroke-dasharray="5,2" d="M84.1676,-228.099C77.6056,-224.471 71.5322,-219.856 67,-214 49.2415,-191.055 50.3583,-154.072 51.9409,-137.505"/>
<polygon fill="orange" stroke="orange" points="82.7866,-231.318 93.3198,-232.46 85.7976,-224.999 82.7866,-231.318"/>
<text text-anchor="middle" x="93" y="-201.5" font-family="Helvetica,sans-Serif" font-size="10.00"> &lt; float, 4 &gt;</text>
</g>
<!-- Node6 -->
<g id="node6" class="node"><title>Node6</title>
<polygon fill="white" stroke="#bfbfbf" points="83,-156.5 83,-175.5 199,-175.5 199,-156.5 83,-156.5"/>
<text text-anchor="middle" x="141" y="-163.5" font-family="Helvetica,sans-Serif" font-size="10.00">std::array&lt; double, 3 &gt;</text>
</g>
<!-- Node3&#45;&gt;Node6 -->
<g id="edge6" class="edge"><title>Node3&#45;&gt;Node6</title>
<path fill="none" stroke="orange" stroke-dasharray="5,2" d="M123.331,-222.238C121.934,-213.508 121.382,-203.073 124,-194 125.905,-187.401 129.953,-180.86 133.621,-175.869"/>
<polygon fill="orange" stroke="orange" points="119.928,-223.067 125.379,-232.152 126.784,-221.651 119.928,-223.067"/>
<text text-anchor="middle" x="154.5" y="-201.5" font-family="Helvetica,sans-Serif" font-size="10.00"> &lt; double, 3 &gt;</text>
</g>
<!-- Node4 -->
<g id="node4" class="node"><title>Node4</title>
<polygon fill="white" stroke="#bfbfbf" points="168.5,-300.5 168.5,-319.5 197.5,-319.5 197.5,-300.5 168.5,-300.5"/>
<text text-anchor="middle" x="183" y="-307.5" font-family="Helvetica,sans-Serif" font-size="10.00">T</text>
</g>
<!-- Node4&#45;&gt;Node3 -->
<g id="edge3" class="edge"><title>Node4&#45;&gt;Node3</title>
<path fill="none" stroke="#9a32cd" stroke-dasharray="5,2" d="M163.902,-293.977C159.749,-290.283 155.543,-286.181 152,-282 143.879,-272.417 136.641,-259.807 132.288,-251.557"/>
<polygon fill="#9a32cd" stroke="#9a32cd" points="161.732,-296.725 171.634,-300.491 166.242,-291.371 161.732,-296.725"/>
<text text-anchor="middle" x="173.5" y="-273.5" font-family="Helvetica,sans-Serif" font-size="10.00"> elements</text>
</g>
<!-- Node7 -->
<g id="node7" class="node"><title>Node7</title>
<g id="a_node7"><a xlink:title="STL class. ">
<polygon fill="white" stroke="#bfbfbf" points="194.5,-194.5 194.5,-213.5 281.5,-213.5 281.5,-194.5 194.5,-194.5"/>
<text text-anchor="middle" x="238" y="-201.5" font-family="Helvetica,sans-Serif" font-size="10.00">std::vector&lt; T &gt;</text>
</a>
</g>
</g>
<!-- Node4&#45;&gt;Node7 -->
<g id="edge8" class="edge"><title>Node4&#45;&gt;Node7</title>
<path fill="none" stroke="#9a32cd" stroke-dasharray="5,2" d="M192.331,-291.357C204.259,-268.801 224.441,-230.638 233.437,-213.628"/>
<polygon fill="#9a32cd" stroke="#9a32cd" points="189.082,-290.013 187.501,-300.489 195.27,-293.286 189.082,-290.013"/>
<text text-anchor="middle" x="225.5" y="-273.5" font-family="Helvetica,sans-Serif" font-size="10.00"> elements</text>
</g>
<!-- Node5 -->
<g id="node5" class="node"><title>Node5</title>
<polygon fill="white" stroke="#bfbfbf" points="109.5,-80.5 109.5,-99.5 234.5,-99.5 234.5,-80.5 109.5,-80.5"/>
<text text-anchor="middle" x="172" y="-87.5" font-family="Helvetica,sans-Serif" font-size="10.00">std::vector&lt; PointType &gt;</text>
</g>
<!-- Node5&#45;&gt;Node1 -->
<g id="edge4" class="edge"><title>Node5&#45;&gt;Node1</title>
<path fill="none" stroke="#9a32cd" stroke-dasharray="5,2" d="M154.823,-73.7318C140.692,-61.1705 120.813,-43.5005 107.011,-31.2316"/>
<polygon fill="#9a32cd" stroke="#9a32cd" points="152.591,-76.4302 162.39,-80.4579 157.241,-71.1983 152.591,-76.4302"/>
<text text-anchor="middle" x="163.5" y="-53.5" font-family="Helvetica,sans-Serif" font-size="10.00"> m_points</text>
</g>
<!-- Node6&#45;&gt;Node5 -->
<g id="edge5" class="edge"><title>Node6&#45;&gt;Node5</title>
<path fill="none" stroke="#9a32cd" stroke-dasharray="5,2" d="M148.565,-146.942C154.837,-131.971 163.482,-111.334 168.327,-99.7679"/>
<polygon fill="#9a32cd" stroke="#9a32cd" points="145.314,-145.645 144.678,-156.221 151.77,-148.35 145.314,-145.645"/>
<text text-anchor="middle" x="182.5" y="-125.5" font-family="Helvetica,sans-Serif" font-size="10.00"> elements</text>
</g>
<!-- Node7&#45;&gt;Node5 -->
<g id="edge7" class="edge"><title>Node7&#45;&gt;Node5</title>
<path fill="none" stroke="orange" stroke-dasharray="5,2" d="M234.685,-184.276C230.732,-165.989 222.725,-138.057 208,-118 202.544,-110.569 194.469,-104.252 187.349,-99.6007"/>
<polygon fill="orange" stroke="orange" points="231.284,-185.122 236.647,-194.26 238.153,-183.773 231.284,-185.122"/>
<text text-anchor="middle" x="266" y="-163.5" font-family="Helvetica,sans-Serif" font-size="10.00"> &lt; PointType &gt;</text>
</g>
</g>
</svg>
