<?xml version="1.0" encoding="UTF-8" standalone="no"?>
<!DOCTYPE svg PUBLIC "-//W3C//DTD SVG 1.1//EN"
 "http://www.w3.org/Graphics/SVG/1.1/DTD/svg11.dtd">
<!-- Generated by graphviz version 2.26.3 (20100126.1600)
 -->
<!-- Title: fwActivities::registry::ActivityRequirement Pages: 1 -->
<svg width="910pt" height="113pt"
 viewBox="0.00 0.00 910.00 113.00" xmlns="http://www.w3.org/2000/svg" xmlns:xlink="http://www.w3.org/1999/xlink">
<g id="graph1" class="graph" transform="scale(1 1) rotate(0) translate(4 109)">
<title>fwActivities::registry::ActivityRequirement</title>
<polygon fill="white" stroke="white" points="-4,5 -4,-109 907,-109 907,5 -4,5"/>
<!-- Node1 -->
<g id="node1" class="node"><title>Node1</title>
<polygon fill="#bfbfbf" stroke="black" points="790.5,-0 790.5,-34 901.5,-34 901.5,-0 790.5,-0"/>
<text text-anchor="start" x="798.5" y="-21" font-family="Helvetica,sans-Serif" font-size="10.00">fwActivities::registry</text>
<text text-anchor="middle" x="846" y="-8" font-family="Helvetica,sans-Serif" font-size="10.00">::ActivityRequirement</text>
</g>
<!-- Node2 -->
<g id="node2" class="node"><title>Node2</title>
<a xlink:title="STL class. ">
<polygon fill="white" stroke="#bfbfbf" points="134,-7.5 134,-28.5 194,-28.5 194,-7.5 134,-7.5"/>
<text text-anchor="middle" x="164" y="-15.5" font-family="Helvetica,sans-Serif" font-size="10.00">std::string</text>
</a>
</g>
<!-- Node2&#45;&gt;Node1 -->
<g id="edge2" class="edge"><title>Node2&#45;&gt;Node1</title>
<path fill="none" stroke="#9a32cd" stroke-dasharray="5,2" d="M204.48,-14.8942C254.918,-11.1938 343.762,-5.23161 420,-3 552.77,0.886414 708.79,-7.56025 790.181,-12.9555"/>
<polygon fill="#9a32cd" stroke="#9a32cd" points="204.033,-11.4177 194.319,-15.6474 204.55,-18.3986 204.033,-11.4177"/>
<text text-anchor="middle" x="484" y="-33" font-family="Helvetica,sans-Serif" font-size="10.00"> type</text>
<text text-anchor="middle" x="484" y="-20" font-family="Helvetica,sans-Serif" font-size="10.00">name</text>
<text text-anchor="middle" x="484" y="-7" font-family="Helvetica,sans-Serif" font-size="10.00">container</text>
</g>
<!-- Node5 -->
<g id="node8" class="node"><title>Node5</title>
<a xlink:href="structfwActivities_1_1registry_1_1ActivityRequirementKey.html" target="_top" xlink:title="fwActivities::registry\l::ActivityRequirementKey">
<polygon fill="white" stroke="black" points="274,-26 274,-60 402,-60 402,-26 274,-26"/>
<text text-anchor="start" x="282" y="-47" font-family="Helvetica,sans-Serif" font-size="10.00">fwActivities::registry</text>
<text text-anchor="middle" x="338" y="-34" font-family="Helvetica,sans-Serif" font-size="10.00">::ActivityRequirementKey</text>
</a>
</g>
<!-- Node2&#45;&gt;Node5 -->
<g id="edge10" class="edge"><title>Node2&#45;&gt;Node5</title>
<path fill="none" stroke="#9a32cd" stroke-dasharray="5,2" d="M204.305,-23.7909C224.937,-26.7554 250.55,-30.4353 273.819,-33.7786"/>
<polygon fill="#9a32cd" stroke="#9a32cd" points="204.705,-20.3125 194.308,-22.3547 203.709,-27.2414 204.705,-20.3125"/>
<text text-anchor="middle" x="234" y="-47" font-family="Helvetica,sans-Serif" font-size="10.00"> path</text>
<text text-anchor="middle" x="234" y="-34" font-family="Helvetica,sans-Serif" font-size="10.00">key</text>
</g>
<!-- Node3 -->
<g id="node4" class="node"><title>Node3</title>
<a xlink:title="STL class. ">
<polygon fill="white" stroke="#bfbfbf" points="0.5,-1 0.5,-35 95.5,-35 95.5,-1 0.5,-1"/>
<text text-anchor="start" x="8.5" y="-22" font-family="Helvetica,sans-Serif" font-size="10.00">std::basic_string&lt;</text>
<text text-anchor="middle" x="48" y="-9" font-family="Helvetica,sans-Serif" font-size="10.00"> char &gt;</text>
</a>
</g>
<!-- Node3&#45;&gt;Node2 -->
<g id="edge4" class="edge"><title>Node3&#45;&gt;Node2</title>
<path fill="none" stroke="midnightblue" d="M105.582,-18C115.29,-18 125.014,-18 133.666,-18"/>
<polygon fill="midnightblue" stroke="midnightblue" points="105.516,-14.5001 95.5163,-18 105.516,-21.5001 105.516,-14.5001"/>
</g>
<!-- Node4 -->
<g id="node6" class="node"><title>Node4</title>
<polygon fill="white" stroke="#bfbfbf" points="566.5,-39 566.5,-73 727.5,-73 727.5,-39 566.5,-39"/>
<text text-anchor="start" x="574.5" y="-60" font-family="Helvetica,sans-Serif" font-size="10.00">std::vector&lt; ActivityRequirement</text>
<text text-anchor="middle" x="647" y="-47" font-family="Helvetica,sans-Serif" font-size="10.00">Key &gt;</text>
</g>
<!-- Node4&#45;&gt;Node1 -->
<g id="edge6" class="edge"><title>Node4&#45;&gt;Node1</title>
<path fill="none" stroke="#9a32cd" stroke-dasharray="5,2" d="M737.572,-38.2497C755.524,-34.7314 773.867,-31.1365 790.238,-27.9282"/>
<polygon fill="#9a32cd" stroke="#9a32cd" points="736.794,-34.8355 727.654,-40.1934 738.141,-41.7048 736.794,-34.8355"/>
<text text-anchor="middle" x="759" y="-40" font-family="Helvetica,sans-Serif" font-size="10.00"> keys</text>
</g>
<!-- Node5&#45;&gt;Node4 -->
<g id="edge8" class="edge"><title>Node5&#45;&gt;Node4</title>
<path fill="none" stroke="#9a32cd" stroke-dasharray="5,2" d="M412.033,-46.1147C458.535,-48.0711 518.528,-50.595 566.254,-52.6029"/>
<polygon fill="#9a32cd" stroke="#9a32cd" points="412.163,-42.6171 402.025,-45.6936 411.869,-49.611 412.163,-42.6171"/>
<text text-anchor="middle" x="484" y="-55" font-family="Helvetica,sans-Serif" font-size="10.00"> elements</text>
</g>
<!-- Node6 -->
<g id="node11" class="node"><title>Node6</title>
<a xlink:title="STL class. ">
<polygon fill="white" stroke="#bfbfbf" points="294.5,-81.5 294.5,-102.5 381.5,-102.5 381.5,-81.5 294.5,-81.5"/>
<text text-anchor="middle" x="338" y="-89.5" font-family="Helvetica,sans-Serif" font-size="10.00">std::vector&lt; T &gt;</text>
</a>
</g>
<!-- Node6&#45;&gt;Node4 -->
<g id="edge12" class="edge"><title>Node6&#45;&gt;Node4</title>
<path fill="none" stroke="orange" stroke-dasharray="5,2" d="M391.96,-85.9357C434.385,-81.1431 494.973,-74.2438 548,-68 553.932,-67.3015 560.063,-66.5733 566.232,-65.8362"/>
<polygon fill="orange" stroke="orange" points="391.395,-82.4772 381.851,-87.0767 392.18,-89.433 391.395,-82.4772"/>
<text text-anchor="middle" x="484" y="-86" font-family="Helvetica,sans-Serif" font-size="10.00"> &lt; ActivityRequirementKey &gt;</text>
</g>
<!-- Node7 -->
<g id="node13" class="node"><title>Node7</title>
<polygon fill="white" stroke="#bfbfbf" points="149.5,-81.5 149.5,-102.5 178.5,-102.5 178.5,-81.5 149.5,-81.5"/>
<text text-anchor="middle" x="164" y="-89.5" font-family="Helvetica,sans-Serif" font-size="10.00">T</text>
</g>
<!-- Node7&#45;&gt;Node6 -->
<g id="edge14" class="edge"><title>Node7&#45;&gt;Node6</title>
<path fill="none" stroke="#9a32cd" stroke-dasharray="5,2" d="M188.807,-92C216.216,-92 260.881,-92 294.208,-92"/>
<polygon fill="#9a32cd" stroke="#9a32cd" points="188.536,-88.5001 178.536,-92 188.536,-95.5001 188.536,-88.5001"/>
<text text-anchor="middle" x="234" y="-96" font-family="Helvetica,sans-Serif" font-size="10.00"> elements</text>
</g>
</g>
</svg>
