<?xml version="1.0" encoding="UTF-8" standalone="no"?>
<!DOCTYPE svg PUBLIC "-//W3C//DTD SVG 1.1//EN"
 "http://www.w3.org/Graphics/SVG/1.1/DTD/svg11.dtd">
<!-- Generated by graphviz version 2.26.3 (20100126.1600)
 -->
<!-- Title: ToolboxLayoutManagerBase.hpp Pages: 1 -->
<svg width="320pt" height="146pt"
 viewBox="0.00 0.00 320.00 146.00" xmlns="http://www.w3.org/2000/svg" xmlns:xlink="http://www.w3.org/1999/xlink">
<g id="graph1" class="graph" transform="scale(1 1) rotate(0) translate(4 142)">
<title>ToolboxLayoutManagerBase.hpp</title>
<polygon fill="white" stroke="white" points="-4,5 -4,-142 317,-142 317,5 -4,5"/>
<!-- Node1 -->
<g id="node1" class="node"><title>Node1</title>
<polygon fill="#bfbfbf" stroke="black" points="81.5,-116.5 81.5,-137.5 240.5,-137.5 240.5,-116.5 81.5,-116.5"/>
<text text-anchor="middle" x="161" y="-124.5" font-family="Helvetica,sans-Serif" font-size="10.00">ToolboxLayoutManagerBase.hpp</text>
</g>
<!-- Node2 -->
<g id="node3" class="node"><title>Node2</title>
<a xlink:href="ToolboxLayoutManagerBase_8cpp.html" target="_top" xlink:title="This file defines the implementation of the class for managing a line layout geometry. ">
<polygon fill="white" stroke="black" points="-0.5,-58.5 -0.5,-79.5 158.5,-79.5 158.5,-58.5 -0.5,-58.5"/>
<text text-anchor="middle" x="79" y="-66.5" font-family="Helvetica,sans-Serif" font-size="10.00">ToolboxLayoutManagerBase.cpp</text>
</a>
</g>
<!-- Node1&#45;&gt;Node2 -->
<g id="edge2" class="edge"><title>Node1&#45;&gt;Node2</title>
<path fill="none" stroke="midnightblue" d="M137.73,-110.541C123.672,-100.597 106.17,-88.2177 93.9447,-79.5707"/>
<polygon fill="midnightblue" stroke="midnightblue" points="135.775,-113.445 145.96,-116.362 139.817,-107.73 135.775,-113.445"/>
</g>
<!-- Node3 -->
<g id="node5" class="node"><title>Node3</title>
<a xlink:href="ToolboxLayoutManager_8hpp_source.html" target="_top" xlink:title="ToolboxLayoutManager.hpp">
<polygon fill="white" stroke="black" points="175.5,-58.5 175.5,-79.5 312.5,-79.5 312.5,-58.5 175.5,-58.5"/>
<text text-anchor="middle" x="244" y="-66.5" font-family="Helvetica,sans-Serif" font-size="10.00">ToolboxLayoutManager.hpp</text>
</a>
</g>
<!-- Node1&#45;&gt;Node3 -->
<g id="edge4" class="edge"><title>Node1&#45;&gt;Node3</title>
<path fill="none" stroke="midnightblue" d="M184.554,-110.541C198.783,-100.597 216.499,-88.2177 228.873,-79.5707"/>
<polygon fill="midnightblue" stroke="midnightblue" points="182.416,-107.765 176.223,-116.362 186.425,-113.503 182.416,-107.765"/>
</g>
<!-- Node4 -->
<g id="node7" class="node"><title>Node4</title>
<a xlink:href="ToolboxLayoutManager_8cpp_source.html" target="_top" xlink:title="ToolboxLayoutManager.cpp">
<polygon fill="white" stroke="black" points="175.5,-0.5 175.5,-21.5 312.5,-21.5 312.5,-0.5 175.5,-0.5"/>
<text text-anchor="middle" x="244" y="-8.5" font-family="Helvetica,sans-Serif" font-size="10.00">ToolboxLayoutManager.cpp</text>
</a>
</g>
<!-- Node3&#45;&gt;Node4 -->
<g id="edge6" class="edge"><title>Node3&#45;&gt;Node4</title>
<path fill="none" stroke="midnightblue" d="M244,-48.1906C244,-39.1684 244,-28.9941 244,-21.5707"/>
<polygon fill="midnightblue" stroke="midnightblue" points="240.5,-48.3619 244,-58.3619 247.5,-48.3619 240.5,-48.3619"/>
</g>
</g>
</svg>
